<svg version="1.1" xmlns="http://www.w3.org/2000/svg" xmlns:xlink="http://www.w3.org/1999/xlink" width="160.05686" height="64.1021" viewBox="0,0,160.05686,64.1021"><g transform="translate(-281.68574,-200.43708)"><g data-paper-data="{&quot;isPaintingLayer&quot;:true}" fill-rule="nonzero" stroke="#3a211e" stroke-linecap="butt" stroke-linejoin="miter" stroke-miterlimit="10" stroke-dasharray="" stroke-dashoffset="0" style="mix-blend-mode: normal"><path d="M437.0656,263.06895c-11.4707,0.08272 -129.23871,0.31681 -150.76226,0.22025c-2.17536,-0.00976 -3.36759,-1.2252 -3.36759,-1.2252c0,0 -0.43887,-1.85175 0.09143,-3.77588c1.74003,-6.31357 11.65095,-41.09623 14.88458,-52.05008c0.61821,-2.09417 1.28382,-3.17167 1.28382,-3.17167c0,0 1.174,-1.36773 3.29213,-1.3793c18.40169,-0.10045 107.91118,0.16926 118.08937,0.16926c1.86238,0 2.64695,1.21003 2.64695,1.21003c0,0 1.38959,1.2762 1.79368,2.65028c1.59142,5.41164 12.38723,40.42286 15.4749,51.71099c0.60248,2.2026 -0.25248,3.50197 -0.25248,3.50197c0,0 -1.40651,2.12661 -3.17453,2.13936z" data-paper-data="{&quot;index&quot;:null}" fill="#818181" stroke-width="2.5"/><path d="M428.9603,258.02006c-10.31709,0.06968 -116.24108,0.26688 -135.59999,0.18554c-1.95658,-0.00822 -3.02891,-1.03211 -3.02891,-1.03211c0,0 -0.39473,-1.55991 0.08223,-3.1808c1.56503,-5.31854 10.47921,-34.61942 13.38763,-43.84694c0.55604,-1.76413 1.1547,-2.67181 1.1547,-2.67181c0,0 1.05593,-1.15218 2.96103,-1.16192c16.55102,-0.08462 97.05848,0.14259 106.21304,0.14259c1.67508,0 2.38074,1.01933 2.38074,1.01933c0,0 1.24984,1.07507 1.61329,2.23259c1.43137,4.55876 11.14143,34.05218 13.91857,43.56129c0.54189,1.85547 -0.22709,2.95005 -0.22709,2.95005c0,0 -1.26505,1.79146 -2.85526,1.8022z" data-paper-data="{&quot;index&quot;:null}" fill="#707070" stroke-width="2.5"/><path d="M322.02965,237.8315c0,0 -1.20026,-0.23866 -1.19679,-0.52473c0.01615,-1.32667 0.30676,-11.26035 0.56679,-13.72625c0.03708,-0.35156 0.81058,-0.5808 0.81058,-0.5808c0,0 1.61556,-0.17654 3.39092,-0.15493c7.18921,0.08754 54.4884,0.61731 66.31533,0.79895c1.69616,0.02605 2.95495,0.24068 2.95495,0.24068c0,0 0.91138,0.30907 0.92775,0.75698c0.09597,2.6261 -0.47786,11.70094 -0.49682,13.25816c-0.00538,0.4421 -0.61153,0.81666 -0.61153,0.81666c0,0 -1.30948,0.34064 -3.5634,0.31899c-13.07086,-0.12556 -58.04381,-0.91213 -65.41044,-1.00183c-1.99752,-0.02432 -3.68735,-0.20186 -3.68735,-0.20186z" fill="#f6d091" stroke-width="2.5"/><text transform="translate(339.99723,234.11502) rotate(0.69311) scale(0.26288,0.26288)" font-size="40" xml:space="preserve" fill="#3a211e" fill-rule="nonzero" stroke="#3a211e" stroke-width="2" stroke-linecap="butt" stroke-linejoin="miter" stroke-miterlimit="10" stroke-dasharray="" stroke-dashoffset="0" font-family="&quot;Microsoft YaHei&quot;, &quot;微软雅黑&quot;, STXihei, &quot;华文细黑&quot;" font-weight="normal" text-anchor="start" style="mix-blend-mode: normal"><tspan x="0" dy="0">recipes</tspan></text></g></g></svg>