<svg version="1.1" xmlns="http://www.w3.org/2000/svg" xmlns:xlink="http://www.w3.org/1999/xlink" width="104.14354" height="66.83445" viewBox="0,0,104.14354,66.83445"><g transform="translate(-156.78335,-206.55)"><g data-paper-data="{&quot;isPaintingLayer&quot;:true}" fill-rule="nonzero" stroke="#3a211e" stroke-width="2.5" stroke-linejoin="miter" stroke-miterlimit="10" stroke-dasharray="" stroke-dashoffset="0" style="mix-blend-mode: normal"><path d="M259.67689,224.70095c0,9.33414 -2.83969,47.73742 -50.82177,47.43168c-50.04816,-0.31891 -50.82176,-38.09754 -50.82176,-47.43168c0,-9.33414 22.75367,-16.90095 50.82176,-16.90095c28.06809,0 50.82178,7.56681 50.82178,16.90095z" fill="#afe6ec" stroke-linecap="butt"/><path d="M249.86254,224.75861c0,0 -11.75416,10.963 -40.00617,10.85117c-26.51681,-0.10496 -43.85292,-10.07608 -43.85292,-10.07608" fill="none" stroke-linecap="round"/><path d="M236.05535,230.97932c-0.04619,1.03752 -7.47765,4.57279 -27.59443,4.57279c-20.11678,0 -27.903,-3.92437 -27.9098,-4.41511c-0.00654,-0.47225 7.47765,-2.83829 27.59443,-2.83829c20.11678,0 27.95109,1.75301 27.9098,2.6806z" fill="#ffe9af" stroke-linecap="butt"/></g></g></svg>