<svg version="1.1" xmlns="http://www.w3.org/2000/svg" xmlns:xlink="http://www.w3.org/1999/xlink" width="606.30103" height="502.03416" viewBox="0,0,606.30103,502.03416"><g transform="translate(40.82974,80.3589)"><g data-paper-data="{&quot;isPaintingLayer&quot;:true}" fill-rule="nonzero" stroke-linejoin="miter" stroke-miterlimit="10" stroke-dasharray="" stroke-dashoffset="0" style="mix-blend-mode: normal"><path d="M-35.05958,262.03058l7.3352,-140.80907l593.19567,30.90148l-7.3352,140.80907z" fill="#caafa2" stroke="none" stroke-width="0" stroke-linecap="butt"/><path d="M-39.5164,171.11523l13.03169,-250.1608l589.20108,30.69339l-13.03169,250.1608z" fill="#fffaf0" stroke="#3a211e" stroke-width="2.5" stroke-linecap="butt"/><path d="M473.69082,340.82962c0.86515,20.86417 -7.44921,38.15173 -18.57064,38.61289c-11.12143,0.46116 -20.83848,-16.07876 -21.70361,-36.9429c-0.86515,-20.86417 13.95286,-30.63699 15.11959,-38.18104c1.70123,-11.00021 24.28952,15.64688 25.15466,36.51105z" fill="#fffffa" stroke="#54453f" stroke-width="5.5" stroke-linecap="butt"/><path d="M457.52461,187.1658c-6.06477,35.98706 -47.29044,59.04129 -92.0801,51.49306c-44.78967,-7.54825 -76.18239,-42.84057 -70.11762,-78.82766c6.06477,-35.98706 47.29044,-59.04129 92.08011,-51.49306c44.78966,7.54823 76.18239,42.84057 70.11762,78.82766z" fill="#fffffa" stroke="#3a211e" stroke-width="5.5" stroke-linecap="butt"/><path d="M361.54481,72.49165c1.43689,35.67797 -9.09494,65.07174 -23.52355,65.65284c-14.42859,0.58109 -27.2901,-27.87054 -28.72699,-63.54849c-1.43689,-35.67797 9.09495,-65.07173 23.52354,-65.65281c14.4286,-0.5811 27.2901,27.87051 28.72698,63.54848z" fill="#fffffa" stroke="#3a211e" stroke-width="5.5" stroke-linecap="butt"/><path d="M475.84136,36.02606c13.44118,5.27789 13.75767,36.49991 0.70688,69.7363c-13.05079,33.2364 -34.52677,55.90126 -47.96797,50.62335c-13.44119,-5.27787 -13.75767,-36.4999 -0.70689,-69.73627c13.05079,-33.2364 34.52677,-55.90125 47.96796,-50.62335z" data-paper-data="{&quot;index&quot;:null}" fill="#fffffa" stroke="#3a211e" stroke-width="5.5" stroke-linecap="butt"/><path d="M383.5586,154.80251c-3.02692,17.96106 -20.04104,30.0676 -38.00212,27.04067c-17.96107,-3.02691 -41.57236,-17.92597 -38.54546,-35.88703c3.02692,-17.96106 42.23487,-37.47568 60.19594,-34.44877c17.96106,3.02692 19.37856,25.33406 16.35164,43.29512z" fill="#fffffa" stroke="none" stroke-width="0" stroke-linecap="butt"/><path d="M406.26764,118.45849c17.96106,3.02692 48.60762,34.31387 45.58069,52.27494c-3.02692,17.96106 -30.21717,24.29871 -48.17824,21.27179c-17.96107,-3.02691 -30.06759,-20.04104 -27.04067,-38.0021c3.02692,-17.96106 11.67714,-38.57154 29.6382,-35.5446z" data-paper-data="{&quot;index&quot;:null}" fill="#fffffa" stroke="none" stroke-width="0" stroke-linecap="butt"/><path d="M347.02487,71.3267c1.03524,22.8825 -3.34039,41.66837 -9.77322,41.95939c-6.43284,0.29104 -12.48689,-18.02298 -13.52213,-40.90549c-1.03524,-22.88249 3.3404,-41.66836 9.77321,-41.95939c6.43284,-0.29104 12.48689,18.02298 13.5221,40.90549z" fill="#ffe7e3" stroke="#3a211e" stroke-width="5.5" stroke-linecap="butt"/><path d="M468.56876,55.91656c5.98215,2.38327 3.95914,21.56561 -4.51855,42.84496c-8.47767,21.27933 -20.19966,36.5976 -26.1818,34.21432c-5.98215,-2.38326 -3.95911,-21.5656 4.51855,-42.84493c8.47767,-21.27932 20.19964,-36.59761 26.18179,-34.21433z" data-paper-data="{&quot;index&quot;:null}" fill="#ffe7e3" stroke="#3a211e" stroke-width="5.5" stroke-linecap="butt"/><path d="M362.27769,114.40522l0.59734,-21.7022l52.19738,8.03163l-6.6738,21.44319c0,0 -14.70073,2.49513 -22.38756,1.1997c-7.68682,-1.29543 -23.73336,-8.9723 -23.73336,-8.9723z" fill="#ffffff" stroke="#3a211e" stroke-width="5.5" stroke-linecap="butt"/><path d="M389.73835,85.3725c-2.00786,11.91428 -14.5429,19.73454 -27.99784,17.46702c-13.45492,-2.26753 -22.73454,-13.76412 -20.7267,-25.67838c2.00786,-11.91428 14.54292,-19.73452 27.99781,-17.467c13.45492,2.26752 22.73457,13.7641 20.72668,25.67837z" fill="#ffffff" stroke="#3a211e" stroke-width="5.5" stroke-linecap="butt"/><path d="M414.79217,84.23963c-2.00786,11.91428 -14.54291,19.73451 -27.99782,17.467c-13.45492,-2.26753 -22.73457,-13.7641 -20.72667,-25.67837c2.00786,-11.91428 14.54289,-19.73453 27.99782,-17.46702c13.45492,2.26752 22.73456,13.76411 20.72668,25.6784z" fill="#ffffff" stroke="#3a211e" stroke-width="5.5" stroke-linecap="butt"/><path d="M443.05154,93.59215c-2.00786,11.91428 -14.54291,19.73453 -27.99782,17.46702c-13.45492,-2.26753 -22.73457,-13.76413 -20.7267,-25.67837c2.00786,-11.91428 14.54291,-19.7345 27.99783,-17.467c13.45492,2.26753 22.73457,13.7641 20.72669,25.67837z" fill="#ffffff" stroke="#3a211e" stroke-width="5.5" stroke-linecap="butt"/><path d="M366.53361,109.31661c0,0 -0.4168,-4.37872 -1.49591,-9.46857c-1.10327,-5.20368 -4.83623,-12.39866 -5.103,-16.28192c-0.45988,-6.69425 0.88272,-19.87408 0.88272,-19.87408c0,0 7.37142,-0.93745 10.9138,0.33511c3.9499,1.41894 17.84775,-6.0744 29.54395,-1.11384c9.80226,4.15729 17.59978,19.12849 17.59978,19.12849c0,0 -2.08988,7.55576 -3.66223,11.68685c-1.05545,2.77306 -3.70698,7.31334 -5.47279,11.46838c-1.98566,4.67235 -3.03757,8.82622 -3.03757,8.82622z" fill="#ffffff" stroke="none" stroke-width="0" stroke-linecap="butt"/><path d="M371.9548,65.26447c0.62818,-0.53899 1.4475,-1.33312 3.16486,-2.58733c1.44342,-1.05415 3.8749,-2.63942 3.8749,-2.63942" fill="none" stroke="#3a211e" stroke-width="4" stroke-linecap="round"/><path d="M405.04291,71.16077c0,0 1.37009,-1.5596 2.61089,-1.95119c1.47445,-0.46533 5.59323,-1.33497 5.59323,-1.33497" fill="none" stroke="#3a211e" stroke-width="4" stroke-linecap="round"/><path d="M363.29802,81.68162l6.6846,6.86413" fill="none" stroke="#3a211e" stroke-width="2.5" stroke-linecap="round"/><path d="M380.07509,79.72763l1.81593,7.38241" fill="none" stroke="#3a211e" stroke-width="2.5" stroke-linecap="round"/><path d="M394.60185,87.72213l3.70053,-6.07021" fill="none" stroke="#3a211e" stroke-width="2.5" stroke-linecap="round"/><path d="M406.18436,95.02921l7.47643,-2.37386" fill="none" stroke="#3a211e" stroke-width="2.5" stroke-linecap="round"/><path d="M372.32511,96.20812c0,0 11.34794,-0.99113 16.65071,-0.02916c4.44133,0.80571 14.50055,4.70523 14.50055,4.70523" fill="none" stroke="#3a211e" stroke-width="2.5" stroke-linecap="round"/><path d="M370.93188,109.60345l5.70035,2.49068" fill="none" stroke="#3a211e" stroke-width="2.5" stroke-linecap="round"/><path d="M382.69537,114.1131l7.0669,1.19095" fill="none" stroke="#3a211e" stroke-width="2.5" stroke-linecap="round"/><path d="M396.28531,115.60767l6.01585,-0.51619" fill="none" stroke="#3a211e" stroke-width="2.5" stroke-linecap="round"/><path d="M352.76882,159.01408c-1.06814,6.33811 -7.0721,10.61024 -13.4102,9.5421c-6.3381,-1.06814 -10.61025,-7.07207 -9.5421,-13.41018c1.06814,-6.33811 7.07209,-10.61027 13.41019,-9.54211c6.3381,1.06814 10.61026,7.07208 9.54212,13.41019z" fill="none" stroke="#3a211e" stroke-width="4" stroke-linecap="butt"/><path d="M369.73066,177.00705l-1.10451,-11.5717l11.88119,2.00232l-6.45621,10.29751z" fill="#ffe7e3" stroke="none" stroke-width="0" stroke-linecap="butt"/><path d="M366.32637,167.54706l4.79389,12.74885" fill="none" stroke="#3a211e" stroke-width="4.5" stroke-linecap="round"/><path d="M381.9627,170.48497l-10.8252,11.5051" data-paper-data="{&quot;index&quot;:null}" fill="none" stroke="#3a211e" stroke-width="4.5" stroke-linecap="round"/><path d="M368.55081,197.04635l2.56645,-15.08479" fill="none" stroke="#3a211e" stroke-width="4.5" stroke-linecap="round"/><path d="M346.82777,207.42721c0,0 10.85157,-9.7721 21.69678,-8.60861c13.10139,2.30166 20.10727,13.68257 20.10727,13.68257" fill="none" stroke="#3a211e" stroke-width="4.5" stroke-linecap="round"/><path d="M366.37489,165.61136c0,0 5.57045,-0.49857 8.06824,0.04978c2.88987,0.6344 8.26687,3.53623 8.26687,3.53623" fill="none" stroke="#3a211e" stroke-width="4.5" stroke-linecap="round"/><path d="M294.8221,354.95216c0,0 -14.94224,-25.78843 -15.17369,-50.26366c-0.0843,-8.91651 3.60176,-15.3822 12.38072,-13.81983c3.94184,0.70153 9.90188,7.44681 10.85505,3.55816c7.18874,-29.32842 22.46934,-72.41953 22.46934,-72.41953l85.61017,13.07627c0,0 26.90107,57.11344 31.02142,82.04615c3.70249,22.4042 -7.41862,60.77721 -7.41862,60.77721z" fill="#fffffa" stroke="#3a211e" stroke-width="5.5" stroke-linecap="butt"/><path d="M460.62032,377.19035c-0.24271,1.44014 -4.21928,3.5722 -9.15415,4.58073c-14.25555,2.91343 -42.55315,2.87664 -59.31283,0.05219c-22.56141,-3.8022 -40.08593,-11.42447 -39.14212,-17.02482c0.94381,-5.60035 19.99853,-7.05804 42.55994,-3.25583c9.94941,1.67674 24.95603,5.31083 38.54361,9.33015c17.22379,5.09492 27.03312,3.18696 26.50554,6.31758z" fill="#fffffa" stroke="#54453f" stroke-width="5.5" stroke-linecap="butt"/><path d="M349.67569,363.69426c-0.94381,5.60035 -19.99852,7.05802 -42.55992,3.25584c-22.56141,-3.8022 -40.08589,-11.42444 -39.1421,-17.02479c0.94381,-5.60035 19.99854,-7.05805 42.55996,-3.25585c22.56141,3.8022 40.08593,11.42447 39.14211,17.02482z" fill="#fffffa" stroke="#54453f" stroke-width="5.5" stroke-linecap="butt"/><path d="M394.36189,358.35931c0,0 -16.3776,-13.84316 -19.21544,-25.2885c-3.23865,-13.06171 10.71029,-29.61143 22.22147,-22.6408c3.78663,2.29302 5.83407,6.63353 5.83407,6.63353" fill="none" stroke="#54453f" stroke-width="5.5" stroke-linecap="round"/><path d="M304.02753,287.7165l-2.63013,12.07076" fill="none" stroke="#54453f" stroke-width="5.5" stroke-linecap="round"/><path d="M294.50923,350.50233l-5.05689,-20.10845l71.80855,24.93912l-16.11478,7.4191z" fill="#fffffa" stroke="none" stroke-width="0" stroke-linecap="butt"/><path d="M325.6202,235.02793l7.37803,-21.72894l81.19459,13.3456l-3.81991,22.66642z" fill="#fffffa" stroke="none" stroke-width="0" stroke-linecap="butt"/><path d="M405.4865,369.54277l-17.2077,-24.18316l62.02726,12.81803c0,0 11.79593,5.70142 12.96214,9.8685c0.56669,2.02486 -3.97053,5.79476 -8.90767,8.18234c-4.43357,2.14407 -11.26641,2.69261 -11.26641,2.69261z" fill="#fffffa" stroke="none" stroke-width="0" stroke-linecap="butt"/><path d="M437.28036,361.04989l2.75705,-10.34587" fill="none" stroke="#54453f" stroke-width="5.5" stroke-linecap="round"/><path d="M354.52966,141.88158c0,0 -11.42584,-1.81466 -13.29834,-2.15144c-2.03753,-0.36645 -6.38191,-1.14777 -6.38191,-1.14777" fill="none" stroke="#3a211e" stroke-width="4.5" stroke-linecap="round"/><path d="M419.95747,154.94797c0,0 -11.42585,-1.81466 -13.29834,-2.15144c-2.03753,-0.36645 -6.3819,-1.14777 -6.3819,-1.14777" fill="none" stroke="#3a211e" stroke-width="4.5" stroke-linecap="round"/><path d="M-15.21491,381.40316l7.14112,-131.80669l539.2092,29.21369l-7.14112,131.80669z" fill="#82614d" stroke="#3a211e" stroke-width="2.5" stroke-linecap="butt"/><path d="M350.15703,264.39434c-1.42316,7.93579 -15.53796,12.04466 -31.52625,9.1774c-15.98832,-2.86725 -27.79569,-11.62486 -26.37253,-19.56065c1.42316,-7.93579 15.53794,-12.0447 31.52625,-9.17743c15.98832,2.86724 27.79569,11.62488 26.37254,19.56067z" fill="#fffffa" stroke="#3a211e" stroke-width="5.5" stroke-linecap="butt"/><path d="M385.00197,268.21551c1.70879,-7.88712 15.97557,-11.49003 31.86579,-8.04731c15.89021,3.44268 27.38653,12.62734 25.67773,20.51447c-1.70879,7.88712 -15.97557,11.48998 -31.8658,8.04729c-15.89021,-3.44268 -27.38654,-12.62732 -25.67773,-20.51442z" fill="#fffffa" stroke="#3a211e" stroke-width="5.5" stroke-linecap="butt"/><path d="M349.45624,264.33377c-1.42317,7.93581 -15.53796,12.04468 -31.52627,9.17741c-16.34841,-2.93184 -11.19466,-31.66992 5.15373,-28.7381c15.9883,2.86724 27.79569,11.6249 26.37254,19.56068z" fill="#ff7a7a" stroke="#3a211e" stroke-width="5.5" stroke-linecap="butt"/><path d="M385.03541,269.89238c0.91196,-8.01063 14.7346,-13.01518 30.87373,-11.17782c16.50261,1.87871 13.20011,30.88789 -3.3025,29.00919c-16.13913,-1.8373 -28.48318,-9.82069 -27.57123,-17.83138z" data-paper-data="{&quot;index&quot;:null}" fill="#ff7a7a" stroke="#3a211e" stroke-width="5.5" stroke-linecap="butt"/><path d="M301.07073,326.49906c-22.3492,1.1212 -251.85659,11.43344 -293.81355,13.04655c-4.24054,0.16303 -6.66589,-2.10605 -6.66589,-2.10605c0,0 -1.01032,-3.57229 -0.1378,-7.36675c2.8629,-12.45061 19.26808,-81.07062 24.65361,-102.69004c1.02962,-4.13322 2.2367,-6.28895 2.2367,-6.28895c0,0 2.17363,-2.76392 6.30084,-2.96374c35.85604,-1.73581 210.33043,-8.7012 230.16748,-9.55301c3.62973,-0.15586 5.26011,2.13679 5.26011,2.13679c0,0 2.81508,2.37099 3.71764,5.01521c3.55454,10.41397 27.5254,77.74649 34.4879,99.48837c1.35855,4.24239 -0.199,6.84639 -0.199,6.84639c0,0 -2.56327,4.26242 -6.00804,4.43524z" data-paper-data="{&quot;index&quot;:null}" fill="#818181" stroke="#3a211e" stroke-width="3.5" stroke-linecap="butt"/><path d="M284.85114,317.33722c-20.10193,0.99924 -226.52871,10.24836 -264.26556,11.70997c-3.81401,0.14772 -5.98966,-1.75807 -5.98966,-1.75807c0,0 -0.89987,-3.0072 -0.10593,-6.20619c2.6051,-10.49668 17.52643,-68.34941 22.42262,-86.57703c0.93607,-3.48478 2.02688,-5.30393 2.02688,-5.30393c0,0 1.96156,-2.33394 5.67374,-2.51236c32.25045,-1.55008 189.17655,-7.84491 207.01857,-8.61106c3.26469,-0.14019 4.72532,1.78741 4.72532,1.78741c0,0 2.52588,1.99068 3.33111,4.21625c3.17123,8.76512 24.5642,65.43445 30.7726,83.73506c1.21141,3.57091 -0.19571,5.76858 -0.19571,5.76858c0,0 -2.31563,3.59738 -5.41401,3.7514z" data-paper-data="{&quot;index&quot;:null}" fill="#707070" stroke="#3a211e" stroke-width="3.5" stroke-linecap="butt"/><path d="M193.96387,264.0534c0.54174,13.0397 -18.3061,24.41176 -42.09781,25.40018c-23.79172,0.98843 -43.51789,-8.78104 -44.05963,-21.82075c-0.54174,-13.0397 18.20575,-26.82737 41.99745,-27.81581c23.79172,-0.98843 43.61824,11.19666 44.15999,24.23637z" fill="#4f4b3f" stroke="#3a211e" stroke-width="3.5" stroke-linecap="butt"/><path d="M171.3324,199.06753c1.89047,-7.11658 13.73973,19.72827 13.73973,32.26291c0,12.53465 -5.96922,22.69599 -13.33263,22.69599c-7.36341,0 -18.48438,-11.26897 -13.33263,-22.69599c4.27458,-9.48138 4.54436,-0.71243 12.92552,-32.26291z" data-paper-data="{&quot;index&quot;:null}" fill="#f5bd49" stroke="#3a211e" stroke-width="3.5" stroke-linecap="butt"/><path d="M139.22538,224.06226c9.75637,11.91916 0.1503,28.83772 -8.5884,31.18483c-8.7387,2.34711 -19.06177,-7.80941 -23.05723,-22.68521c-3.99545,-14.8758 1.51006,-50.51157 6.02206,-42.66838c20.00336,34.77178 17.5284,24.27903 25.62358,34.16875z" data-paper-data="{&quot;index&quot;:null}" fill="#f5c649" stroke="#3a211e" stroke-width="3.5" stroke-linecap="butt"/><path d="M170.26867,211.83129c9.24169,20.49884 -10.70812,40.71415 -23.91727,40.71415c-13.20915,0 -23.91728,-18.22834 -23.91728,-40.71415c0,-22.48579 21.25627,-70.64255 24.64758,-57.87616c15.03489,56.59813 15.51884,40.8676 23.18697,57.87616z" fill="#f59d4a" stroke="#3a211e" stroke-width="3.5" stroke-linecap="butt"/><path d="M156.85184,229.25752c5.21888,11.57591 -6.047,22.99171 -13.50634,22.99171c-7.45934,0 -13.50634,-10.29375 -13.50634,-22.99171c0,-12.69796 12.00365,-39.8926 13.91875,-32.68329c8.49037,31.96158 8.76366,23.07837 13.09394,32.68329z" fill="#f56a49" stroke="#3a211e" stroke-width="3.5" stroke-linecap="butt"/><path d="M418.76882,173.01408c-1.06814,6.33811 -7.0721,10.61024 -13.4102,9.5421c-6.3381,-1.06814 -10.61025,-7.07207 -9.5421,-13.41018c1.06814,-6.33811 7.07209,-10.61027 13.41019,-9.54211c6.3381,1.06814 10.61026,7.07208 9.54212,13.41019z" fill="none" stroke="#3a211e" stroke-width="4" stroke-linecap="butt"/><path d="M319.60195,112.63646l-3.6,14.2" fill="none" stroke="#3a85c0" stroke-width="4.5" stroke-linecap="round"/><path d="M321.60195,141.63646l6.8,-32.4" fill="none" stroke="#3a85c0" stroke-width="4.5" stroke-linecap="round"/><path d="M332.00194,132.43646l3.4,-15.4" fill="none" stroke="#3a85c0" stroke-width="4.5" stroke-linecap="round"/><path d="M340.74852,161.47565c0,2.43005 -2.05949,4.4 -4.6,4.4c-2.54051,0 -4.6,-1.96995 -4.6,-4.4c0,-2.43005 2.05949,-4.4 4.6,-4.4c2.54051,0 4.6,1.96995 4.6,4.4z" fill="#3a211e" stroke="none" stroke-width="0" stroke-linecap="butt"/><path d="M406.14852,175.27565c0,2.43006 -2.05949,4.4 -4.6,4.4c-2.54051,0 -4.6,-1.96994 -4.6,-4.4c0,-2.43006 2.05949,-4.4 4.6,-4.4c2.54051,0 4.6,1.96994 4.6,4.4z" fill="#3a211e" stroke="none" stroke-width="0" stroke-linecap="butt"/><text transform="translate(2.85852,82.83872) scale(1.70979,1.70979)" font-size="40" xml:space="preserve" fill="#3a211e" fill-rule="nonzero" stroke="#3a211e" stroke-width="3" stroke-linecap="butt" stroke-linejoin="miter" stroke-miterlimit="10" stroke-dasharray="" stroke-dashoffset="0" font-family="&quot;Microsoft YaHei&quot;, &quot;微软雅黑&quot;, STXihei, &quot;华文细黑&quot;" font-weight="normal" text-anchor="start" style="mix-blend-mode: normal"><tspan x="0" dy="0">bake a</tspan></text><text transform="translate(201.08653,165.10502) scale(0.4268,0.4268)" font-size="40" xml:space="preserve" fill="#3a211e" fill-rule="nonzero" stroke="#3a211e" stroke-width="3" stroke-linecap="butt" stroke-linejoin="miter" stroke-miterlimit="10" stroke-dasharray="" stroke-dashoffset="0" font-family="&quot;Microsoft YaHei&quot;, &quot;微软雅黑&quot;, STXihei, &quot;华文细黑&quot;" font-weight="normal" text-anchor="start" style="mix-blend-mode: normal"><tspan x="0" dy="0">...or not.</tspan></text><text transform="translate(92.40096,137.80026) scale(1.70979,1.70979)" font-size="40" xml:space="preserve" fill="#3a211e" fill-rule="nonzero" stroke="#3a211e" stroke-width="3" stroke-linecap="butt" stroke-linejoin="miter" stroke-miterlimit="10" stroke-dasharray="" stroke-dashoffset="0" font-family="&quot;Microsoft YaHei&quot;, &quot;微软雅黑&quot;, STXihei, &quot;华文细黑&quot;" font-weight="normal" text-anchor="start" style="mix-blend-mode: normal"><tspan x="0" dy="0">cookie</tspan></text><path d="M272.73903,82.47016c0,6.5758 -5.64431,11.90653 -12.60692,11.90653c-6.9626,0 -12.60692,-5.33074 -12.60692,-11.90653c0,-6.5758 5.64431,-11.90654 12.60692,-11.90654c6.9626,0 12.60692,5.33075 12.60692,11.90654z" fill="#6b4d35" stroke="#3a211e" stroke-width="2" stroke-linecap="butt"/><path d="M256.99725,78.3919c0,0.93119 -0.83434,1.68606 -1.86354,1.68606c-1.0292,0 -1.86354,-0.75487 -1.86354,-1.68606c0,-0.93119 0.83434,-1.68606 1.86354,-1.68606c1.0292,0 1.86354,0.75487 1.86354,1.68606z" fill="#3a211e" stroke="none" stroke-width="0" stroke-linecap="butt"/><path d="M265.58977,85.20962c0,0.93118 -0.83433,1.68606 -1.86353,1.68606c-1.0292,0 -1.86354,-0.75488 -1.86354,-1.68606c0,-0.93118 0.83433,-1.68606 1.86354,-1.68606c1.0292,0 1.86353,0.75488 1.86353,1.68606z" fill="#3a211e" stroke="none" stroke-width="0" stroke-linecap="butt"/><path d="M256.2568,90.78499c0,0.93118 -0.83433,1.68606 -1.86354,1.68606c-1.0292,0 -1.86355,-0.75488 -1.86355,-1.68606c0,-0.93118 0.83434,-1.68606 1.86355,-1.68606c1.0292,0 1.86354,0.75488 1.86354,1.68606z" fill="#3a211e" stroke="none" stroke-width="0" stroke-linecap="butt"/><path d="M270.4552,75.6992c0,0.93118 -0.83433,1.68606 -1.86354,1.68606c-1.0292,0 -1.86353,-0.75488 -1.86353,-1.68606c0,-0.93118 0.83433,-1.68606 1.86353,-1.68606c1.0292,0 1.86354,0.75488 1.86354,1.68606z" fill="#3a211e" stroke="none" stroke-width="0" stroke-linecap="butt"/><path d="M488.24709,419.92525c-19.08809,-3.14714 -214.88656,-36.48077 -250.63123,-42.80449c-3.61267,-0.63913 -5.24613,-3.0006 -5.24613,-3.0006c0,0 -0.19916,-3.2033 1.23318,-6.24936c4.69983,-9.99495 31.13183,-64.96605 39.64276,-82.2455c1.62713,-3.3035 3.04192,-4.90372 3.04192,-4.90372c0,0 2.34285,-1.93701 5.86651,-1.34971c30.61253,5.10235 179.30084,31.18152 196.21707,34.09602c3.09529,0.53329 4.05276,2.76903 4.05276,2.76903c0,0 1.94407,2.51897 2.22221,4.91841c1.09534,9.44989 9.01266,70.7302 10.91205,90.37532c0.37062,3.83326 -1.42241,5.74801 -1.42241,5.74801c0,0 -2.94658,3.13169 -5.8887,2.64661z" data-paper-data="{&quot;index&quot;:null}" fill="#818181" stroke="#3a211e" stroke-width="3.5" stroke-linecap="butt"/><path d="M476.22176,409.21301c-17.16704,-2.83847 -193.27008,-32.84189 -225.42147,-38.52048c-3.2495,-0.57393 -4.73853,-2.5827 -4.73853,-2.5827c0,0 -0.20937,-2.70561 1.04748,-5.26297c4.12405,-8.39131 27.32976,-54.53707 34.80586,-69.04046c1.4293,-2.77278 2.68419,-4.10992 2.68419,-4.10992c0,0 2.08489,-1.61257 5.25397,-1.08324c27.53217,4.59872 161.27119,28.02953 176.48614,30.65093c2.78399,0.47965 3.66492,2.37586 3.66492,2.37586c0,0 1.7694,2.14466 2.04201,4.17255c1.07356,7.98657 8.76637,59.78535 10.65908,76.38479c0.36931,3.23897 -1.22217,4.83798 -1.22217,4.83798c0,0 -2.61551,2.61518 -5.26152,2.17767z" data-paper-data="{&quot;index&quot;:null}" fill="#707070" stroke="#3a211e" stroke-width="3.5" stroke-linecap="butt"/><path d="M401.86788,356.73821c-1.88391,12.52029 -21.92986,19.88351 -44.77388,16.44621c-22.84402,-3.4373 -39.83557,-16.37348 -37.95166,-28.89377c1.88391,-12.52029 22.27886,-22.20291 45.12288,-18.76561c22.84402,3.4373 39.48657,18.69288 37.60266,31.21317z" fill="#b18153" stroke="#3a211e" stroke-width="4" stroke-linecap="butt"/><path d="M359.3782,344.86741c-0.30518,2.02821 -3.14868,3.28177 -6.35111,2.79991c-3.20243,-0.48187 -5.55113,-2.51669 -5.24595,-4.5449c0.30518,-2.02821 3.14868,-3.28178 6.35111,-2.79991c3.20243,0.48187 5.55113,2.5167 5.24595,4.5449z" fill="#3a211e" stroke="none" stroke-width="0" stroke-linecap="butt"/><path d="M368.67516,365.36846c-0.30518,2.02821 -3.14865,3.28178 -6.35109,2.79991c-3.20243,-0.48187 -5.55113,-2.51669 -5.24595,-4.5449c0.30518,-2.02821 3.14868,-3.28177 6.35111,-2.79991c3.20243,0.48187 5.55111,2.51668 5.24593,4.54489z" fill="#3a211e" stroke="none" stroke-width="0" stroke-linecap="butt"/><path d="M380.0842,332.42379c-0.30518,2.02821 -3.14865,3.28176 -6.35109,2.79989c-3.20243,-0.48187 -5.55113,-2.51667 -5.24595,-4.54487c0.30518,-2.02821 3.14868,-3.28178 6.35111,-2.79991c3.20243,0.48187 5.55111,2.51669 5.24593,4.54489z" fill="#3a211e" stroke="none" stroke-width="0" stroke-linecap="butt"/><path d="M397.70157,357.21255c-0.30518,2.02821 -3.14865,3.28176 -6.35108,2.79989c-3.20243,-0.48187 -5.55113,-2.51667 -5.24595,-4.54487c0.30518,-2.02821 3.14868,-3.28178 6.35111,-2.79991c3.20243,0.48187 5.55111,2.51669 5.24593,4.54489z" fill="#3a211e" stroke="none" stroke-width="0" stroke-linecap="butt"/><path d="M334.27422,352.28581c-0.30518,2.02821 -3.14865,3.28175 -6.35109,2.79989c-3.20243,-0.48187 -5.55111,-2.51666 -5.24593,-4.54487c0.30518,-2.02821 3.14866,-3.28178 6.35109,-2.79992c3.20243,0.48187 5.55111,2.51669 5.24593,4.5449z" fill="#3a211e" stroke="none" stroke-width="0" stroke-linecap="butt"/></g></g></svg>