<svg version="1.1" xmlns="http://www.w3.org/2000/svg" xmlns:xlink="http://www.w3.org/1999/xlink" width="104.14354" height="86.03599" viewBox="0,0,104.14354,86.03599"><g transform="translate(-156.78336,-187.34846)"><g data-paper-data="{&quot;isPaintingLayer&quot;:true}" fill-rule="nonzero" stroke-width="2.5" stroke-linejoin="miter" stroke-miterlimit="10" stroke-dasharray="" stroke-dashoffset="0" style="mix-blend-mode: normal"><path d="M259.6769,224.70095c0,9.33414 -2.83969,47.73742 -50.82177,47.43168c-50.04816,-0.31891 -50.82176,-38.09754 -50.82176,-47.43168c0,-9.33414 22.75367,-16.90095 50.82176,-16.90095c28.06809,0 50.82178,7.56681 50.82178,16.90095z" fill="#afe6ec" stroke="#3a211e" stroke-linecap="butt"/><path d="M249.86255,224.75861c0,0 -11.75416,10.963 -40.00617,10.85117c-26.51681,-0.10496 -43.85292,-10.07608 -43.85292,-10.07608" fill="none" stroke="#3a211e" stroke-linecap="round"/><path d="M236.05536,230.97932c-0.04619,1.03752 -7.47765,4.57279 -27.59443,4.57279c-20.11678,0 -27.903,-3.92437 -27.9098,-4.41511c-0.00654,-0.47225 7.47765,-2.83829 27.59443,-2.83829c20.11678,0 27.95109,1.75301 27.9098,2.6806z" fill="#ffe9af" stroke="#3a211e" stroke-linecap="butt"/><path d="M239.21403,188.21847c0,0 1.07625,-1.11031 1.76956,-1.02599c1.37271,0.16694 5.93162,1.9626 5.93162,1.9626c0,0 0.86847,1.84689 0.67929,2.97283c-0.80633,4.79902 -7.45264,37.3402 -7.45264,37.3402l-7.05368,2.72515c0,0 3.73155,-35.18133 4.67947,-40.82309c0.28445,-1.69297 1.44637,-3.15168 1.44637,-3.15168z" fill="#715948" stroke="#3a211e" stroke-linecap="butt"/></g></g></svg>