<svg version="1.1" xmlns="http://www.w3.org/2000/svg" xmlns:xlink="http://www.w3.org/1999/xlink" width="15.93618" height="64.38832" viewBox="0,0,15.93618,64.38832"><g transform="translate(-49.44082,-109.41211)"><g data-paper-data="{&quot;isPaintingLayer&quot;:true}" fill-rule="nonzero" stroke="#3a211e" stroke-linecap="butt" stroke-linejoin="miter" stroke-miterlimit="10" stroke-dasharray="" stroke-dashoffset="0" style="mix-blend-mode: normal"><path d="M51.76168,111.64919c0,0 0.19833,-0.99038 0.43444,-0.9872c1.09497,0.01482 9.29351,0.26581 11.32847,0.48319c0.29013,0.031 0.47846,0.66967 0.47846,0.66967c0,0 0.1439,1.33362 0.12407,2.7989c-0.08031,5.9336 -0.57057,44.97189 -0.73374,54.73317c-0.0234,1.39991 -0.20196,2.43863 -0.20196,2.43863c0,0 -0.25612,0.75187 -0.62582,0.76488c-2.16758,0.07627 -9.65696,-0.40752 -10.94221,-0.42491c-0.36489,-0.00494 -0.67335,-0.50565 -0.67335,-0.50565c0,0 -0.27969,-1.08117 -0.25929,-2.94145c0.11828,-10.78803 0.81789,-47.90605 0.90017,-53.98607c0.02231,-1.64865 0.17074,-3.04317 0.17074,-3.04317z" fill="#f6d091" stroke-width="2.5"/><text transform="translate(54.47805,126.67475) rotate(89.19988) scale(0.21697,0.21697)" font-size="40" xml:space="preserve" fill="#3a211e" fill-rule="nonzero" stroke="#3a211e" stroke-width="2" stroke-linecap="butt" stroke-linejoin="miter" stroke-miterlimit="10" stroke-dasharray="" stroke-dashoffset="0" font-family="&quot;Microsoft YaHei&quot;, &quot;微软雅黑&quot;, STXihei, &quot;华文细黑&quot;" font-weight="normal" text-anchor="start" style="mix-blend-mode: normal"><tspan x="0" dy="0">Cookes</tspan></text></g></g></svg>