<svg version="1.1" xmlns="http://www.w3.org/2000/svg" xmlns:xlink="http://www.w3.org/1999/xlink" width="51.83333" height="30.16777" viewBox="0,0,51.83333,30.16777"><g transform="translate(-86.95002,-212.55)"><g data-paper-data="{&quot;isPaintingLayer&quot;:true}" fill-rule="nonzero" stroke-linejoin="miter" stroke-miterlimit="10" stroke-dasharray="" stroke-dashoffset="0" style="mix-blend-mode: normal"><path d="M137.53336,221.06845c0,4.01425 -1.37826,20.53003 -24.66667,20.39854c-24.29119,-0.13715 -24.66666,-16.38429 -24.66666,-20.39854c0,-4.01425 11.04364,-7.26845 24.66666,-7.26845c13.62302,0 24.66667,3.2542 24.66667,7.26845z" fill="#7aa3dc" stroke="#3a211e" stroke-width="2.5" stroke-linecap="butt"/><path d="M130.66669,221.66667c0,0 -5.09268,4.71476 -17.33333,4.66667c-11.48884,-0.04514 -19,-4.33334 -19,-4.33334" fill="none" stroke="#3a211e" stroke-width="2.5" stroke-linecap="round"/><path d="M106.67179,223.12838c0,1.20722 -1.05694,2.18588 -2.36074,2.18588c-1.3038,0 -2.36075,-0.97866 -2.36075,-2.18588c0,-1.20722 1.25694,-0.78588 2.16075,-3.18588c0.45949,-1.22016 2.56074,1.97865 2.56074,3.18588z" fill="#3a211e" stroke="none" stroke-width="0" stroke-linecap="butt"/><path d="M124.77179,223.22838c0,1.20722 -1.05694,2.18588 -2.36075,2.18588c-1.3038,0 -2.36075,-0.97866 -2.36075,-2.18588c0,-1.20722 1.25695,-0.78588 2.16075,-3.18588c0.45949,-1.22016 2.56074,1.97865 2.56074,3.18588z" fill="#3a211e" stroke="none" stroke-width="0" stroke-linecap="butt"/><path d="M110.07179,222.72838c0,1.20722 -1.05694,2.18588 -2.36074,2.18588c-1.3038,0 -2.36075,-0.97866 -2.36075,-2.18588c0,-1.20722 1.25695,-0.78588 2.16075,-3.18588c0.45949,-1.22016 2.56074,1.97865 2.56074,3.18588z" fill="#3a211e" stroke="none" stroke-width="0" stroke-linecap="butt"/><path d="M113.37179,224.32838c0,1.20722 -1.05694,2.18588 -2.36074,2.18588c-1.3038,0 -2.36075,-0.97866 -2.36075,-2.18588c0,-1.20722 1.25695,-0.78587 2.16075,-3.18587c0.45949,-1.22016 2.56074,1.97865 2.56074,3.18587z" fill="#3a211e" stroke="none" stroke-width="0" stroke-linecap="butt"/><path d="M117.77179,223.72838c0,1.20722 -1.05694,2.18588 -2.36075,2.18588c-1.3038,0 -2.36075,-0.97866 -2.36075,-2.18588c0,-1.20722 1.25695,-0.78588 2.16075,-3.18588c0.45949,-1.22016 2.56074,1.97865 2.56074,3.18588z" fill="#3a211e" stroke="none" stroke-width="0" stroke-linecap="butt"/><path d="M121.67179,224.72838c0,1.20722 -1.05694,2.18588 -2.36074,2.18588c-1.3038,0 -2.36075,-0.97866 -2.36075,-2.18588c0,-1.20722 1.25694,-0.78588 2.16075,-3.18588c0.45949,-1.22016 2.56074,1.97865 2.56074,3.18588z" fill="#3a211e" stroke="none" stroke-width="0" stroke-linecap="butt"/></g></g></svg>