<svg version="1.1" xmlns="http://www.w3.org/2000/svg" xmlns:xlink="http://www.w3.org/1999/xlink" width="104.14354" height="87.43283" viewBox="0,0,104.14354,87.43283"><g transform="translate(-156.78335,-185.95162)"><g data-paper-data="{&quot;isPaintingLayer&quot;:true}" fill-rule="nonzero" stroke-width="2.5" stroke-linejoin="miter" stroke-miterlimit="10" stroke-dasharray="" stroke-dashoffset="0" style="mix-blend-mode: normal"><path d="M259.67688,224.70095c0,9.33414 -2.83969,47.73742 -50.82177,47.43168c-50.04816,-0.31891 -50.82176,-38.09754 -50.82176,-47.43168c0,-9.33414 22.75367,-16.90095 50.82176,-16.90095c28.06809,0 50.82178,7.56681 50.82178,16.90095z" fill="#afe6ec" stroke="#3a211e" stroke-linecap="butt"/><path d="M249.86253,224.75861c0,0 -11.75416,10.963 -40.00617,10.85117c-26.51681,-0.10496 -43.85292,-10.07608 -43.85292,-10.07608" fill="none" stroke="#3a211e" stroke-linecap="round"/><path d="M239.21402,188.21847c0,0 1.07625,-1.11031 1.76956,-1.02599c1.37271,0.16694 5.93162,1.9626 5.93162,1.9626c0,0 0.86847,1.84689 0.67929,2.97283c-0.80633,4.79902 -7.45264,37.3402 -7.45264,37.3402l-7.05368,2.72515c0,0 3.73155,-35.18133 4.67947,-40.82309c0.28445,-1.69297 1.44637,-3.15168 1.44637,-3.15168z" fill="#715948" stroke="#3a211e" stroke-linecap="butt"/></g></g></svg>