<svg version="1.1" xmlns="http://www.w3.org/2000/svg" xmlns:xlink="http://www.w3.org/1999/xlink" width="185.86052" height="73.68953" viewBox="0,0,185.86052,73.68953"><g transform="translate(-133.46138,-301.84966)"><g data-paper-data="{&quot;isPaintingLayer&quot;:true}" fill-rule="nonzero" stroke-linejoin="miter" stroke-miterlimit="10" stroke-dasharray="" stroke-dashoffset="0" style="mix-blend-mode: normal"><path d="M135.33791,364.26075c0,0 19.00244,-45.71282 22.08201,-52.83447c0.7765,-1.79569 2.31604,-3.5871 2.31604,-3.5871c0,0 1.33913,-0.86246 3.65574,-0.86881c12.0081,-0.03295 111.63316,-0.66991 129.70952,-0.59079c1.80157,0.00789 3.42994,1.08424 3.42994,1.08424c0,0 1.5534,1.92677 2.12362,3.44717c2.48475,6.6252 18.89624,52.59904 18.89624,52.59904z" fill="#82614d" stroke="#3a211e" stroke-width="2.5" stroke-linecap="butt"/><path d="M166.82019,313.51232v-10.07687h13.07849v10.07687z" fill="#82614d" stroke="none" stroke-width="0" stroke-linecap="butt"/><path d="M188.1147,312.93789v-10.07687h13.07849v10.07687z" fill="#82614d" stroke="none" stroke-width="0" stroke-linecap="butt"/><path d="M210.05242,313.22105v-10.07687h13.07849v10.07687z" fill="#82614d" stroke="none" stroke-width="0" stroke-linecap="butt"/><path d="M233.49094,313.07541v-10.07687h13.07849v10.07687z" fill="#82614d" stroke="none" stroke-width="0" stroke-linecap="butt"/><path d="M257.35827,313.14419v-10.07687h13.07849v10.07687z" fill="#82614d" stroke="none" stroke-width="0" stroke-linecap="butt"/><path d="M280.36798,311.92654v-10.07687h13.07849v10.07687z" fill="#82614d" stroke="none" stroke-width="0" stroke-linecap="butt"/><path d="M294.15846,323.14419v-10.07687h13.07849v10.07687z" fill="#82614d" stroke="none" stroke-width="0" stroke-linecap="butt"/><path d="M300.23046,339.72187v-10.07687h13.07849v10.07687z" fill="#82614d" stroke="none" stroke-width="0" stroke-linecap="butt"/><path d="M304.37286,356.94275v-10.07687h13.07849v10.07687z" fill="#82614d" stroke="none" stroke-width="0" stroke-linecap="butt"/><path d="M148.35736,322.70729v-10.07687h13.07849v10.07687z" fill="#82614d" stroke="none" stroke-width="0" stroke-linecap="butt"/><path d="M142.42289,339.28496v-10.07687h13.07849v10.07687z" fill="#82614d" stroke="none" stroke-width="0" stroke-linecap="butt"/><path d="M133.48679,356.50585v-10.07687h13.07849v10.07687z" fill="#82614d" stroke="none" stroke-width="0" stroke-linecap="butt"/><text transform="translate(176.99121,329.50762) scale(0.35051,0.35051)" font-size="40" xml:space="preserve" fill="#3a211e" fill-rule="nonzero" stroke="#3a211e" stroke-width="3" stroke-linecap="butt" stroke-linejoin="miter" stroke-miterlimit="10" stroke-dasharray="" stroke-dashoffset="0" font-family="&quot;Microsoft YaHei&quot;, &quot;微软雅黑&quot;, STXihei, &quot;华文细黑&quot;" font-weight="normal" text-anchor="start" style="mix-blend-mode: normal"><tspan x="0" dy="0">place tray here</tspan><tspan x="0" dy="48px">     to serve</tspan></text><path d="M304.06561,374.06896c-11.4707,0.08272 -129.23871,0.31681 -150.76226,0.22025c-2.17536,-0.00976 -3.36759,-1.2252 -3.36759,-1.2252c0,0 -0.43887,-1.85175 0.09143,-3.77588c1.74003,-6.31357 11.65095,-41.09623 14.88458,-52.05008c0.61821,-2.09417 1.28382,-3.17167 1.28382,-3.17167c0,0 1.174,-1.36773 3.29213,-1.3793c18.40169,-0.10045 107.91118,0.16926 118.08937,0.16926c1.86238,0 2.64695,1.21003 2.64695,1.21003c0,0 1.38959,1.2762 1.79368,2.65028c1.59142,5.41164 12.38723,40.42286 15.4749,51.71099c0.60248,2.2026 -0.25248,3.50197 -0.25248,3.50197c0,0 -1.40651,2.12661 -3.17453,2.13936z" data-paper-data="{&quot;index&quot;:null}" fill="#818181" stroke="#3a211e" stroke-width="2.5" stroke-linecap="butt"/><path d="M295.9603,369.02007c-10.31709,0.06968 -116.24108,0.26688 -135.59999,0.18554c-1.95658,-0.00822 -3.02891,-1.03211 -3.02891,-1.03211c0,0 -0.39473,-1.55991 0.08223,-3.1808c1.56503,-5.31854 10.47921,-34.61942 13.38763,-43.84694c0.55604,-1.76413 1.1547,-2.67181 1.1547,-2.67181c0,0 1.05593,-1.15218 2.96103,-1.16192c16.55102,-0.08462 97.05848,0.14259 106.21304,0.14259c1.67508,0 2.38074,1.01933 2.38074,1.01933c0,0 1.24984,1.07507 1.61329,2.23259c1.43137,4.55876 11.14143,34.05218 13.91857,43.56129c0.54189,1.85547 -0.22709,2.95005 -0.22709,2.95005c0,0 -1.26505,1.79146 -2.85526,1.8022z" data-paper-data="{&quot;index&quot;:null}" fill="#707070" stroke="#3a211e" stroke-width="2.5" stroke-linecap="butt"/><path d="M191.87752,347.22982c0,0 -1.27329,-0.8774 -1.30502,-1.5751c-0.06282,-1.3814 0.95262,-6.17482 0.95262,-6.17482c0,0 1.67746,-1.16249 2.81918,-1.16249c4.86629,0 38.05891,1.16249 38.05891,1.16249c0,0 1.67117,-0.67978 3.69269,-1.85749c7.48735,-4.36204 23.18434,-1.24748 22.20852,6.11994c-0.7049,5.32202 -17.97499,7.75726 -22.01628,5.23304c-1.57634,-0.98459 -2.82773,-2.52057 -2.82773,-2.52057c0,0 -32.51427,1.67915 -38.23511,1.67915c-1.7167,0 -3.34777,-0.90416 -3.34777,-0.90416z" fill="#715948" stroke="#3a211e" stroke-width="2.5" stroke-linecap="butt"/><path d="M252.97342,343.22002c0,0 -3.13742,2.3588 -8.36461,2.60359c-4.43352,0.20762 -7.80205,-2.43693 -7.80205,-2.43693" fill="none" stroke="#3a211e" stroke-width="2.5" stroke-linecap="round"/></g></g></svg>