<svg version="1.1" xmlns="http://www.w3.org/2000/svg" xmlns:xlink="http://www.w3.org/1999/xlink" width="160.05686" height="64.1021" viewBox="0,0,160.05686,64.1021"><g transform="translate(-281.68576,-200.43709)"><g data-paper-data="{&quot;isPaintingLayer&quot;:true}" fill-rule="nonzero" stroke-linecap="butt" stroke-linejoin="miter" stroke-miterlimit="10" stroke-dasharray="" stroke-dashoffset="0" style="mix-blend-mode: normal"><path d="M437.06561,263.06895c-11.4707,0.08272 -129.23871,0.31681 -150.76226,0.22025c-2.17536,-0.00976 -3.36759,-1.2252 -3.36759,-1.2252c0,0 -0.43887,-1.85175 0.09143,-3.77588c1.74003,-6.31357 11.65095,-41.09623 14.88458,-52.05008c0.61821,-2.09417 1.28382,-3.17167 1.28382,-3.17167c0,0 1.174,-1.36773 3.29213,-1.3793c18.40169,-0.10045 107.91118,0.16926 118.08937,0.16926c1.86238,0 2.64695,1.21003 2.64695,1.21003c0,0 1.38959,1.2762 1.79368,2.65028c1.59142,5.41164 12.38723,40.42286 15.4749,51.71099c0.60248,2.2026 -0.25248,3.50197 -0.25248,3.50197c0,0 -1.40651,2.12661 -3.17453,2.13936z" data-paper-data="{&quot;index&quot;:null}" fill="#818181" stroke="#3a211e" stroke-width="2.5"/><path d="M428.96031,258.02006c-10.31709,0.06968 -116.24108,0.26688 -135.59999,0.18554c-1.95658,-0.00822 -3.02891,-1.03211 -3.02891,-1.03211c0,0 -0.39473,-1.55991 0.08223,-3.1808c1.56503,-5.31854 10.47921,-34.61942 13.38763,-43.84694c0.55604,-1.76413 1.1547,-2.67181 1.1547,-2.67181c0,0 1.05593,-1.15218 2.96103,-1.16192c16.55102,-0.08462 97.05848,0.14259 106.21304,0.14259c1.67508,0 2.38074,1.01933 2.38074,1.01933c0,0 1.24984,1.07507 1.61329,2.23259c1.43137,4.55876 11.14143,34.05218 13.91857,43.56129c0.54189,1.85547 -0.22709,2.95005 -0.22709,2.95005c0,0 -1.26505,1.79146 -2.85526,1.8022z" data-paper-data="{&quot;index&quot;:null}" fill="#707070" stroke="#3a211e" stroke-width="2.5"/><path d="M348.71468,231.69154c0,1.5591 -1.36502,2.82302 -3.04885,2.82302c-1.68383,0 -3.04886,-1.26392 -3.04886,-2.82302c0,-1.5591 1.62331,-1.01495 2.79057,-4.1145c0.59342,-1.57581 3.30714,2.55539 3.30714,4.1145z" fill="#3a211e" stroke="none" stroke-width="0"/><path d="M372.09047,231.82069c0,1.5591 -1.36502,2.82302 -3.04886,2.82302c-1.68383,0 -3.04886,-1.26392 -3.04886,-2.82302c0,-1.5591 1.62333,-1.01495 2.79057,-4.1145c0.59342,-1.57581 3.30714,2.55539 3.30714,4.1145z" fill="#3a211e" stroke="none" stroke-width="0"/><path d="M353.10571,231.17495c0,1.5591 -1.36502,2.82302 -3.04885,2.82302c-1.68383,0 -3.04886,-1.26392 -3.04886,-2.82302c0,-1.5591 1.62333,-1.01495 2.79057,-4.1145c0.59342,-1.57581 3.30714,2.55539 3.30714,4.1145z" fill="#3a211e" stroke="none" stroke-width="0"/><path d="M357.3676,233.24131c0,1.5591 -1.36502,2.82302 -3.04885,2.82302c-1.68383,0 -3.04886,-1.26392 -3.04886,-2.82302c0,-1.5591 1.62333,-1.01494 2.79057,-4.11449c0.59342,-1.57581 3.30714,2.55539 3.30714,4.11449z" fill="#3a211e" stroke="none" stroke-width="0"/><path d="M363.05011,232.46643c0,1.5591 -1.36502,2.82302 -3.04886,2.82302c-1.68383,0 -3.04886,-1.26392 -3.04886,-2.82302c0,-1.5591 1.62333,-1.01495 2.79057,-4.1145c0.59342,-1.57581 3.30714,2.55539 3.30714,4.1145z" fill="#3a211e" stroke="none" stroke-width="0"/><path d="M368.08688,233.75791c0,1.5591 -1.36502,2.82302 -3.04885,2.82302c-1.68383,0 -3.04886,-1.26392 -3.04886,-2.82302c0,-1.5591 1.62331,-1.01495 2.79057,-4.1145c0.59342,-1.57581 3.30714,2.55539 3.30714,4.1145z" fill="#3a211e" stroke="none" stroke-width="0"/><path d="M374.63324,223.24371c1.16726,3.09955 2.79057,2.5554 2.79057,4.1145c0,1.5591 -1.36504,2.82302 -3.04887,2.82302c-1.68383,0 -3.04884,-1.26392 -3.04884,-2.82302c0,-1.55911 2.71373,-5.69031 3.30714,-4.1145z" data-paper-data="{&quot;index&quot;:null}" fill="#3a211e" stroke="none" stroke-width="0"/><path d="M347.95031,227.48735c0,-1.55911 2.71373,-5.69031 3.30714,-4.1145c1.16724,3.09955 2.79057,2.5554 2.79057,4.1145c0,1.5591 -1.36503,2.82302 -3.04886,2.82302c-1.68385,0 -3.04886,-1.26392 -3.04886,-2.82302z" data-paper-data="{&quot;index&quot;:null}" fill="#3a211e" stroke="none" stroke-width="0"/><path d="M370.2422,222.72711c1.16724,3.09955 2.79056,2.5554 2.79056,4.1145c0,1.5591 -1.36503,2.82302 -3.04886,2.82302c-1.68383,0 -3.04885,-1.26392 -3.04885,-2.82302c0,-1.55911 2.71373,-5.69031 3.30714,-4.1145z" data-paper-data="{&quot;index&quot;:null}" fill="#3a211e" stroke="none" stroke-width="0"/><path d="M365.98032,224.79349c1.16724,3.09955 2.79057,2.55539 2.79057,4.11449c0,1.5591 -1.36503,2.82302 -3.04886,2.82302c-1.68383,0 -3.04885,-1.26392 -3.04885,-2.82302c0,-1.5591 2.71373,-5.6903 3.30714,-4.11449z" data-paper-data="{&quot;index&quot;:null}" fill="#3a211e" stroke="none" stroke-width="0"/><path d="M356.99067,228.13309c0,-1.55911 2.71373,-5.69031 3.30714,-4.1145c1.16724,3.09955 2.79057,2.5554 2.79057,4.1145c0,1.5591 -1.36504,2.82302 -3.04887,2.82302c-1.68385,0 -3.04886,-1.26392 -3.04886,-2.82302z" data-paper-data="{&quot;index&quot;:null}" fill="#3a211e" stroke="none" stroke-width="0"/><path d="M355.26103,225.31007c1.16726,3.09955 2.79057,2.5554 2.79057,4.1145c0,1.5591 -1.36503,2.82302 -3.04886,2.82302c-1.68383,0 -3.04885,-1.26392 -3.04885,-2.82302c0,-1.55911 2.71373,-5.69031 3.30714,-4.1145z" data-paper-data="{&quot;index&quot;:null}" fill="#3a211e" stroke="none" stroke-width="0"/><path d="M360.71468,231.52487c0,1.5591 -1.36501,2.82302 -3.04884,2.82302c-1.68383,0 -3.04887,-1.26392 -3.04887,-2.82302c0,-1.5591 1.62331,-1.01495 2.79057,-4.1145c0.59342,-1.57581 3.30714,2.55539 3.30714,4.1145z" data-paper-data="{&quot;index&quot;:null}" fill="#3a211e" stroke="none" stroke-width="0"/><path d="M384.09047,231.65402c0,1.5591 -1.36501,2.82302 -3.04886,2.82302c-1.68383,0 -3.04886,-1.26392 -3.04886,-2.82302c0,-1.5591 1.62333,-1.01495 2.79057,-4.1145c0.59342,-1.57581 3.30714,2.55539 3.30714,4.1145z" data-paper-data="{&quot;index&quot;:null}" fill="#3a211e" stroke="none" stroke-width="0"/><path d="M365.10572,231.00828c0,1.5591 -1.36502,2.82302 -3.04885,2.82302c-1.68383,0 -3.04886,-1.26392 -3.04886,-2.82302c0,-1.5591 1.62333,-1.01495 2.79057,-4.1145c0.59342,-1.57581 3.30714,2.55539 3.30714,4.1145z" data-paper-data="{&quot;index&quot;:null}" fill="#3a211e" stroke="none" stroke-width="0"/><path d="M369.3676,233.07465c0,1.5591 -1.36502,2.82302 -3.04885,2.82302c-1.68383,0 -3.04886,-1.26392 -3.04886,-2.82302c0,-1.5591 1.62333,-1.01494 2.79057,-4.11449c0.59342,-1.57581 3.30714,2.55539 3.30714,4.11449z" data-paper-data="{&quot;index&quot;:null}" fill="#3a211e" stroke="none" stroke-width="0"/><path d="M375.05011,232.29976c0,1.5591 -1.36502,2.82302 -3.04886,2.82302c-1.68383,0 -3.04886,-1.26392 -3.04886,-2.82302c0,-1.5591 1.62333,-1.01495 2.79057,-4.1145c0.59342,-1.57581 3.30714,2.55539 3.30714,4.1145z" data-paper-data="{&quot;index&quot;:null}" fill="#3a211e" stroke="none" stroke-width="0"/><path d="M380.08689,233.59124c0,1.5591 -1.36502,2.82302 -3.04885,2.82302c-1.68383,0 -3.04886,-1.26392 -3.04886,-2.82302c0,-1.5591 1.62331,-1.01495 2.79057,-4.1145c0.59342,-1.57581 3.30714,2.55539 3.30714,4.1145z" data-paper-data="{&quot;index&quot;:null}" fill="#3a211e" stroke="none" stroke-width="0"/></g></g></svg>