<svg version="1.1" xmlns="http://www.w3.org/2000/svg" xmlns:xlink="http://www.w3.org/1999/xlink" width="604.75" height="414.75001" viewBox="0,0,604.75,414.75001"><g transform="translate(41.25,24.5)"><g data-paper-data="{&quot;isPaintingLayer&quot;:true}" fill-rule="nonzero" stroke-linejoin="miter" stroke-miterlimit="10" stroke-dasharray="" stroke-dashoffset="0" style="mix-blend-mode: normal"><path d="M-30.5,285.50001v-141h594v141z" fill="#caafa2" stroke="none" stroke-width="0" stroke-linecap="butt"/><path d="M-40,227.25v-250.5h590v250.5z" fill="#fffaf0" stroke="#3a211e" stroke-width="2.5" stroke-linecap="butt"/><path d="M451.88085,297.64842c3.23203,16.82237 -1.41708,31.85618 -10.38407,33.57898c-8.96699,1.7228 -18.85626,-10.51783 -22.08827,-27.34018c-3.23203,-16.82237 7.60483,-26.54807 7.63657,-32.81011c0.04627,-9.13087 21.60375,9.74894 24.83577,26.57131z" fill="#fffffa" stroke="#54453f" stroke-width="5.5" stroke-linecap="butt"/><path d="M420.13077,174.94004c-0.55637,29.93207 -31.20741,53.63547 -68.461,52.94301c-37.2536,-0.69247 -67.00257,-25.51855 -66.4462,-55.45064c0.55637,-29.93207 31.20741,-53.63547 68.46101,-52.94302c37.25359,0.69245 67.00257,25.51855 66.4462,55.45064z" fill="#fffffa" stroke="#3a211e" stroke-width="5.5" stroke-linecap="butt"/><path d="M328.35537,93.54305c5.49231,28.7716 0.51222,53.89618 -11.12336,56.11734c-11.63558,2.22115 -25.52046,-19.30223 -31.01277,-48.07382c-5.49231,-28.7716 -0.51222,-53.89618 11.12336,-56.11732c11.63558,-2.22116 25.52046,19.30221 31.01276,48.07381z" fill="#fffffa" stroke="#3a211e" stroke-width="5.5" stroke-linecap="butt"/><path d="M416.6631,50.09784c11.54498,2.65203 15.58794,27.94435 9.03019,56.49195c-6.55775,28.54761 -21.23291,49.54012 -32.77791,46.88808c-11.54498,-2.65202 -15.58794,-27.94434 -9.03019,-56.49192c6.55775,-28.54761 21.23291,-49.54012 32.7779,-46.88808z" data-paper-data="{&quot;index&quot;:null}" fill="#fffffa" stroke="#3a211e" stroke-width="5.5" stroke-linecap="butt"/><path d="M356.19691,157.65303c-0.27769,14.93903 -12.61328,26.82441 -27.55232,26.54672c-14.93903,-0.27768 -35.90184,-9.50215 -35.62417,-24.44118c0.27769,-14.93903 29.72097,-35.52603 44.66001,-35.24835c14.93903,0.27769 18.79417,18.20377 18.51648,33.1428z" fill="#fffffa" stroke="none" stroke-width="0" stroke-linecap="butt"/><path d="M370.21364,125.41296c14.93903,0.27769 43.59691,21.94466 43.31922,36.8837c-0.27769,14.93903 -21.56883,23.37809 -36.50787,23.1004c-14.93903,-0.27768 -26.82441,-12.61328 -26.54672,-27.55231c0.27769,-14.93903 4.79633,-32.70947 19.73536,-32.43177z" data-paper-data="{&quot;index&quot;:null}" fill="#fffffa" stroke="none" stroke-width="0" stroke-linecap="butt"/><path d="M316.43395,94.3587c3.61478,18.43923 2.34289,34.21099 -2.84083,35.22718c-5.18372,1.01621 -12.31631,-13.10795 -15.93109,-31.5472c-3.61478,-18.43923 -2.34289,-34.21099 2.84082,-35.22719c5.18372,-1.01621 12.31631,13.10796 15.93107,31.5472z" fill="#ffe7e3" stroke="#3a211e" stroke-width="5.5" stroke-linecap="butt"/><path d="M413.17483,67.1171c5.14238,1.20813 5.82727,17.01626 1.52973,35.30844c-4.29753,18.29216 -11.95009,32.1415 -17.09247,30.93335c-5.14238,-1.20813 -5.82725,-17.01625 -1.52972,-35.30842c4.29753,-18.29216 11.95008,-32.1415 17.09246,-30.93336z" data-paper-data="{&quot;index&quot;:null}" fill="#ffe7e3" stroke="#3a211e" stroke-width="5.5" stroke-linecap="butt"/><path d="M334.03268,127.45902l-2.14712,-17.67962l43.32216,0.18633l-2.81417,18.20635c0,0 -11.62425,3.80703 -18.01774,3.68819c-6.39348,-0.11884 -20.34312,-4.40124 -20.34312,-4.40124z" fill="#ffffff" stroke="#3a211e" stroke-width="5.5" stroke-linecap="butt"/><path d="M352.79105,100.57446c-0.18419,9.90964 -9.40564,17.77437 -20.59672,17.56635c-11.19107,-0.20803 -20.11386,-8.41001 -19.92968,-18.31964c0.18419,-9.90964 9.40566,-17.77435 20.5967,-17.56633c11.19107,0.20803 20.11388,8.40999 19.92967,18.31963z" fill="#ffffff" stroke="#3a211e" stroke-width="5.5" stroke-linecap="butt"/><path d="M372.98006,96.61716c-0.18419,9.90964 -9.40566,17.77435 -20.59671,17.56633c-11.19107,-0.20803 -20.11388,-8.40999 -19.92966,-18.31963c0.18419,-9.90964 9.40564,-17.77437 20.59671,-17.56635c11.19107,0.20803 20.11387,8.41 19.92967,18.31965z" fill="#ffffff" stroke="#3a211e" stroke-width="5.5" stroke-linecap="butt"/><path d="M397.04128,100.77802c-0.18419,9.90964 -9.40565,17.77437 -20.59671,17.56635c-11.19107,-0.20803 -20.11388,-8.41001 -19.92968,-18.31963c0.18419,-9.90964 9.40566,-17.77434 20.59672,-17.56633c11.19107,0.20803 20.11388,8.40999 19.92967,18.31963z" fill="#ffffff" stroke="#3a211e" stroke-width="5.5" stroke-linecap="butt"/><path d="M336.86847,122.81449c0,0 -0.86915,-3.50195 -2.36187,-7.50053c-1.52612,-4.088 -5.42722,-9.47267 -6.11456,-12.59084c-1.18489,-5.37534 -1.69391,-16.23106 -1.69391,-16.23106c0,0 5.86682,-1.65447 8.8951,-1.0516c3.37666,0.67221 13.74341,-7.09255 23.83419,-4.48636c8.4568,2.18416 16.5985,13.38484 16.5985,13.38484c0,0 -0.77927,6.38349 -1.55397,9.92575c-0.52002,2.3778 -2.12064,6.38291 -3.04939,9.96807c-1.04438,4.03151 -1.39408,7.52914 -1.39408,7.52914z" fill="#ffffff" stroke="none" stroke-width="0" stroke-linecap="butt"/><path d="M335.92467,86.41719c0.44429,-0.51347 1.0127,-1.25711 2.25392,-2.48292c1.04323,-1.03028 2.82366,-2.61128 2.82366,-2.61128" fill="none" stroke="#3a211e" stroke-width="4" stroke-linecap="round"/><path d="M363.48437,87.18843c0,0 0.92244,-1.43146 1.88163,-1.89963c1.13981,-0.55633 4.37595,-1.76135 4.37595,-1.76135" fill="none" stroke="#3a211e" stroke-width="4" stroke-linecap="round"/><path d="M330.8922,100.78635l6.25566,4.75831" fill="none" stroke="#3a211e" stroke-width="2.5" stroke-linecap="round"/><path d="M344.26663,97.16656l2.36852,5.7692" fill="none" stroke="#3a211e" stroke-width="2.5" stroke-linecap="round"/><path d="M359.28794,96.51739l-2.26616,5.37356" fill="none" stroke="#3a211e" stroke-width="2.5" stroke-linecap="round"/><path d="M373.0827,103.58211l-5.77782,2.83257" fill="none" stroke="#3a211e" stroke-width="2.5" stroke-linecap="round"/><path d="M339.97754,111.47714c0,0 9.08649,-2.18024 13.50533,-2.04283c3.701,0.11509 12.33501,2.05896 12.33501,2.05896" fill="none" stroke="#3a211e" stroke-width="2.5" stroke-linecap="round"/><path d="M345.39839,123.84329l-4.92678,-1.32945" fill="none" stroke="#3a211e" stroke-width="2.5" stroke-linecap="round"/><path d="M350.5623,124.74604l5.87786,0.10925" fill="none" stroke="#3a211e" stroke-width="2.5" stroke-linecap="round"/><path d="M361.76917,124.31059l4.81812,-1.14831" fill="none" stroke="#3a211e" stroke-width="2.5" stroke-linecap="round"/><path d="M331.72762,164.80369c-0.09799,5.27169 -4.45099,9.46579 -9.72267,9.3678c-5.27169,-0.09799 -9.4658,-4.45097 -9.3678,-9.72266c0.09799,-5.27169 4.45098,-9.46581 9.72267,-9.3678c5.27169,0.09799 9.4658,4.45097 9.36781,9.72266z" fill="#3a211e" stroke="none" stroke-width="0" stroke-linecap="butt"/><path d="M326.40209,161.2223c-0.02075,1.11635 -1.19393,1.99986 -2.6204,1.97334c-1.42645,-0.02652 -2.56601,-0.95299 -2.54526,-2.06935c0.02075,-1.11635 1.19396,-1.99985 2.6204,-1.97334c1.42645,0.02652 2.56601,0.953 2.54526,2.06936z" fill="#ffffff" stroke="none" stroke-width="0" stroke-linecap="butt"/><path d="M385.82451,168.52559c-0.09799,5.27169 -4.45097,9.4658 -9.72266,9.3678c-5.27169,-0.09799 -9.46581,-4.45097 -9.36781,-9.72266c0.09799,-5.27169 4.45098,-9.46581 9.72267,-9.3678c5.27169,0.09799 9.4658,4.45097 9.3678,9.72267z" fill="#3a211e" stroke="none" stroke-width="0" stroke-linecap="butt"/><path d="M381.86324,164.07088c-0.02075,1.11635 -1.19396,1.99985 -2.62041,1.97334c-1.42645,-0.02652 -2.56601,-0.953 -2.54525,-2.06936c0.02075,-1.11635 1.19395,-1.99985 2.6204,-1.97333c1.42645,0.02652 2.56601,0.953 2.54525,2.06934z" fill="#ffffff" stroke="none" stroke-width="0" stroke-linecap="butt"/><path d="M347.67085,177.34464l-2.29936,-9.25428l9.88213,0.1837l-3.98924,9.13738z" fill="#ffe7e3" stroke="none" stroke-width="0" stroke-linecap="butt"/><path d="M343.76174,170.08249l5.43533,9.76191" fill="none" stroke="#3a211e" stroke-width="4.5" stroke-linecap="round"/><path d="M356.80391,170.56988l-7.3874,10.64692" data-paper-data="{&quot;index&quot;:null}" fill="none" stroke="#3a211e" stroke-width="4.5" stroke-linecap="round"/><path d="M349.125,189.625l0.27163,-8.42887" fill="none" stroke="#3a211e" stroke-width="4.5" stroke-linecap="round"/><path d="M343.56637,168.50616c0,0 4.45889,-1.08 6.55187,-0.93802c2.42151,0.16425 7.13581,1.86648 7.13581,1.86648" fill="none" stroke="#3a211e" stroke-width="4.5" stroke-linecap="round"/><path d="M308.47569,330.79697c0,0 -15.25004,-19.11038 -18.40585,-38.93929c-1.14967,-7.22382 1.05679,-12.91648 8.3687,-12.71351c3.28312,0.09114 8.93653,4.84089 9.23829,1.57041c2.27573,-24.66616 9.4475,-61.47938 9.4475,-61.47938l71.04199,0.22724c0,0 28.75103,43.07443 35.11741,62.80289c5.72074,17.72773 1.35146,50.20871 1.35146,50.20871z" fill="#fffffa" stroke="#3a211e" stroke-width="5.5" stroke-linecap="butt"/><path d="M445.68598,328.73321c-0.02227,1.19783 -2.98995,3.40981 -6.87135,4.82648c-11.21235,4.09241 -34.1749,7.49412 -48.11469,7.23501c-18.76535,-0.34881 -33.90747,-4.40768 -33.82089,-9.06575c0.08659,-4.65807 15.36908,-8.1514 34.13443,-7.80259c8.27537,0.15382 20.89107,1.28239 32.40221,2.89558c14.59165,2.04488 22.31868,-0.69261 22.27028,1.91127z" fill="#fffffa" stroke="#54453f" stroke-width="5.5" stroke-linecap="butt"/><path d="M354.03901,331.2376c-0.08659,4.65807 -15.36907,8.15139 -34.13441,7.80259c-18.76535,-0.34881 -33.90744,-4.40767 -33.82087,-9.06573c0.08659,-4.65807 15.36908,-8.15141 34.13444,-7.8026c18.76535,0.34881 33.90747,4.40768 33.82088,9.06575z" fill="#fffffa" stroke="#54453f" stroke-width="5.5" stroke-linecap="butt"/><path d="M389.64636,321.49036c0,0 -14.966,-9.24502 -18.6563,-18.18659c-4.2115,-10.20434 5.09847,-25.32281 15.2829,-21.0634c3.35019,1.40115 5.53766,4.67436 5.53766,4.67436" fill="none" stroke="#54453f" stroke-width="5.5" stroke-linecap="round"/><path d="M307.12063,285.24384l0.67007,-10.11206" fill="none" stroke="#54453f" stroke-width="5.5" stroke-linecap="round"/><path d="M307.68224,327.22472l-6.54118,-15.70093l61.28319,11.52535l-12.17437,7.97336z" fill="#fffffa" stroke="none" stroke-width="0" stroke-linecap="butt"/><path d="M318.91965,229.76661l3.35086,-18.52359l67.49226,0.98121l-0.35044,18.85269z" fill="#fffffa" stroke="none" stroke-width="0" stroke-linecap="butt"/><path d="M400.02804,329.21456l-16.89337,-17.53329l51.87766,2.87754c0,0 10.26153,3.19516 11.71302,6.43453c0.70531,1.57406 -2.51861,5.18284 -6.23463,7.71861c-3.33699,2.27715 -8.81401,3.55078 -8.81401,3.55078z" fill="#fffffa" stroke="none" stroke-width="0" stroke-linecap="butt"/><path d="M425.77498,309.74064l-0.98221,8.72803" fill="none" stroke="#54453f" stroke-width="5.5" stroke-linecap="round"/><path d="M-28.5,389.00001v-132h540v132z" fill="#82614d" stroke="#3a211e" stroke-width="2.5" stroke-linecap="butt"/><path d="M342.38776,250.61634c-0.19228,6.61096 -11.14546,11.65617 -24.46461,11.26879c-13.31917,-0.38738 -23.9606,-6.06066 -23.76832,-12.67162c0.19228,-6.61096 11.14545,-11.6562 24.46461,-11.26881c13.31917,0.38737 23.9606,6.06068 23.76833,12.67163z" fill="#fffffa" stroke="#3a211e" stroke-width="5.5" stroke-linecap="butt"/><path d="M341.81186,250.65218c-0.19228,6.61097 -11.14547,11.65619 -24.46463,11.2688c-13.61914,-0.39611 -12.92283,-24.33654 0.69629,-23.94045c13.31915,0.38737 23.9606,6.06069 23.76833,12.67164z" fill="#ff7a7a" stroke="#3a211e" stroke-width="5.5" stroke-linecap="butt"/><path d="M371.12114,249.49096c0.42991,-6.60611 11.56777,-11.25926 24.87713,-10.39311c13.30935,0.86613 23.7502,6.92359 23.32028,13.52971c-0.42991,6.60611 -11.56777,11.25923 -24.87713,10.3931c-13.30935,-0.86613 -23.75021,-6.92358 -23.32028,-13.52968z" fill="#fffffa" stroke="#3a211e" stroke-width="5.5" stroke-linecap="butt"/><path d="M371.04077,250.61735c-0.23154,-6.60968 10.376,-12.34614 23.69263,-12.81261c13.61654,-0.477 14.45504,23.45888 0.8385,23.93589c-13.31662,0.46652 -24.29958,-4.51355 -24.53113,-11.12328z" data-paper-data="{&quot;index&quot;:null}" fill="#ff7a7a" stroke="#3a211e" stroke-width="5.5" stroke-linecap="butt"/><path d="M433.06561,334.06896c-11.4707,0.08272 -129.23871,0.31681 -150.76226,0.22025c-2.17536,-0.00976 -3.36759,-1.2252 -3.36759,-1.2252c0,0 -0.43887,-1.85175 0.09143,-3.77588c1.74003,-6.31357 11.65095,-41.09623 14.88458,-52.05008c0.61821,-2.09417 1.28382,-3.17167 1.28382,-3.17167c0,0 1.174,-1.36773 3.29213,-1.3793c18.40169,-0.10045 107.91118,0.16926 118.08937,0.16926c1.86238,0 2.64695,1.21003 2.64695,1.21003c0,0 1.38959,1.2762 1.79368,2.65028c1.59142,5.41164 12.38723,40.42286 15.4749,51.71099c0.60248,2.2026 -0.25248,3.50197 -0.25248,3.50197c0,0 -1.40651,2.12661 -3.17453,2.13936z" data-paper-data="{&quot;index&quot;:null}" fill="#818181" stroke="#3a211e" stroke-width="2.5" stroke-linecap="butt"/><path d="M424.96031,329.02007c-10.31709,0.06968 -116.24108,0.26688 -135.59999,0.18554c-1.95658,-0.00822 -3.02891,-1.03211 -3.02891,-1.03211c0,0 -0.39473,-1.55991 0.08223,-3.1808c1.56503,-5.31854 10.47921,-34.61942 13.38763,-43.84694c0.55604,-1.76413 1.1547,-2.67181 1.1547,-2.67181c0,0 1.05593,-1.15218 2.96103,-1.16192c16.55102,-0.08462 97.05848,0.14259 106.21304,0.14259c1.67508,0 2.38074,1.01933 2.38074,1.01933c0,0 1.24984,1.07507 1.61329,2.23259c1.43137,4.55876 11.14143,34.05218 13.91857,43.56129c0.54189,1.85547 -0.22709,2.95005 -0.22709,2.95005c0,0 -1.26505,1.79146 -2.85526,1.8022z" data-paper-data="{&quot;index&quot;:null}" fill="#707070" stroke="#3a211e" stroke-width="2.5" stroke-linecap="butt"/><path d="M318.02966,308.83151c0,0 -1.20026,-0.23866 -1.19679,-0.52473c0.01615,-1.32667 0.30676,-11.26035 0.56679,-13.72625c0.03708,-0.35156 0.81058,-0.5808 0.81058,-0.5808c0,0 1.61556,-0.17654 3.39092,-0.15493c7.18921,0.08754 54.4884,0.61731 66.31533,0.79895c1.69616,0.02605 2.95495,0.24068 2.95495,0.24068c0,0 0.91138,0.30907 0.92775,0.75698c0.09597,2.6261 -0.47786,11.70094 -0.49682,13.25816c-0.00538,0.4421 -0.61153,0.81666 -0.61153,0.81666c0,0 -1.30948,0.34064 -3.5634,0.31899c-13.07086,-0.12556 -58.04381,-0.91213 -65.41044,-1.00183c-1.99752,-0.02432 -3.68735,-0.20186 -3.68735,-0.20186z" fill="#f6d091" stroke="#3a211e" stroke-width="2.5" stroke-linecap="butt"/><text transform="translate(335.99724,305.11503) rotate(0.69311) scale(0.26288,0.26288)" font-size="40" xml:space="preserve" fill="#3a211e" fill-rule="nonzero" stroke="#3a211e" stroke-width="2" stroke-linecap="butt" stroke-linejoin="miter" stroke-miterlimit="10" stroke-dasharray="" stroke-dashoffset="0" font-family="&quot;Microsoft YaHei&quot;, &quot;微软雅黑&quot;, STXihei, &quot;华文细黑&quot;" font-weight="normal" text-anchor="start" style="mix-blend-mode: normal"><tspan x="0" dy="0">recipes</tspan></text><path d="M15.25,340.875v-327h210v327z" fill="#fff4b8" stroke="#3a211e" stroke-width="2.5" stroke-linecap="butt"/><text transform="translate(52.31832,51.49138) scale(0.56284,0.56284)" font-size="40" xml:space="preserve" fill="#3a211e" fill-rule="nonzero" stroke="#3a211e" stroke-width="3" stroke-linecap="butt" stroke-linejoin="miter" stroke-miterlimit="10" stroke-dasharray="" stroke-dashoffset="0" font-family="&quot;Microsoft YaHei&quot;, &quot;微软雅黑&quot;, STXihei, &quot;华文细黑&quot;" font-weight="normal" text-anchor="start" style="mix-blend-mode: normal"><tspan x="0" dy="0">Cookes Book</tspan></text><text transform="translate(37.79346,102.15468) scale(0.3599,0.3599)" font-size="40" xml:space="preserve" fill="#3a211e" fill-rule="nonzero" stroke="#3a211e" stroke-width="3" stroke-linecap="butt" stroke-linejoin="miter" stroke-miterlimit="10" stroke-dasharray="" stroke-dashoffset="0" font-family="&quot;Microsoft YaHei&quot;, &quot;微软雅黑&quot;, STXihei, &quot;华文细黑&quot;" font-weight="normal" text-anchor="start" style="mix-blend-mode: normal"><tspan x="0" dy="0">Chef Mittens is insulted.</tspan></text><text transform="translate(44.94306,152.73649) scale(0.34748,0.34748)" font-size="40" xml:space="preserve" fill="#3a211e" fill-rule="nonzero" stroke="#3a211e" stroke-width="3" stroke-linecap="butt" stroke-linejoin="miter" stroke-miterlimit="10" stroke-dasharray="" stroke-dashoffset="0" font-family="&quot;Microsoft YaHei&quot;, &quot;微软雅黑&quot;, STXihei, &quot;华文细黑&quot;" font-weight="normal" text-anchor="start" style="mix-blend-mode: normal"><tspan x="0" dy="0">"Are you telling me</tspan><tspan x="0" dy="48px">to go make it myself?!"</tspan></text><path d="M356.81392,198.43616c-0.06225,3.34906 -3.17962,6.00702 -6.96283,5.9367c-3.78321,-0.07031 -6.79965,-2.84229 -6.73739,-6.19136c0.06225,-3.34906 3.17962,-6.00702 6.96283,-5.9367c3.78321,0.07031 6.79965,2.84229 6.73739,6.19136z" fill="#ffe7e3" stroke="none" stroke-width="0" stroke-linecap="butt"/><path d="M338.125,200.87501c0,0 8.72511,-9.11496 11.75504,-8.91342c2.44453,0.46434 11.99496,9.16342 11.99496,9.16342" fill="none" stroke="#3a211e" stroke-width="4.5" stroke-linecap="round"/><path d="M316.125,147.875l12,4.5" fill="none" stroke="#3a211e" stroke-width="4.5" stroke-linecap="round"/><path d="M368.125,153.625l17,0.5" fill="none" stroke="#3a211e" stroke-width="4.5" stroke-linecap="round"/><path d="M357.5438,201.16984c0,0 -5.25121,2.25589 -7.90729,1.89197c-2.0411,-0.27966 -6.67584,-3.89017 -6.67584,-3.89017" fill="none" stroke="#3a211e" stroke-width="4.5" stroke-linecap="round"/></g></g></svg>