<svg version="1.1" xmlns="http://www.w3.org/2000/svg" xmlns:xlink="http://www.w3.org/1999/xlink" width="566.5" height="397.75" viewBox="0,0,566.5,397.75"><g transform="translate(41.75,8.5)"><g data-paper-data="{&quot;isPaintingLayer&quot;:true}" fill-rule="nonzero" stroke-linecap="butt" stroke-linejoin="miter" stroke-miterlimit="10" stroke-dasharray="" stroke-dashoffset="0" style="mix-blend-mode: normal"><path d="M-26,368.5v-377h532v377z" fill="#fffaf0" stroke="none" stroke-width="0"/><path d="M-40.5,388v-233h564v233z" fill="#82614d" stroke="#3a211e" stroke-width="2.5"/><path d="M-15.25,180.75v-91.5h105.5v91.5z" fill="#533e31" stroke="#3a211e" stroke-width="2.5"/><path d="M-20.25,171.75v-72h101.94382v72z" fill="#392b22" stroke="#261614" stroke-width="2.5"/><path d="M24.13196,110.76142c0,0 0.16068,-0.99718 0.39674,-1.00294c1.09474,-0.02666 9.29691,-0.08631 11.33864,0.05386c0.29109,0.01999 0.50348,0.65107 0.50348,0.65107c0,0 0.1943,1.32721 0.22997,2.7922c0.14444,5.93238 1.13282,44.96124 1.3394,54.7217c0.02963,1.39979 -0.10947,2.44453 -0.10947,2.44453c0,0 -0.22746,0.76103 -0.5964,0.78803c-2.16314,0.15829 -9.66546,-0.04154 -10.95045,-0.01025c-0.36481,0.00888 -0.69202,-0.47979 -0.69202,-0.47979c0,0 -0.32043,-1.06981 -0.37049,-2.92952c-0.29032,-10.78477 -0.99679,-47.90266 -1.14479,-53.98144c-0.04014,-1.64831 0.05538,-3.04745 0.05538,-3.04745z" fill="#f5a390" stroke="#3a211e" stroke-width="2.5"/><path d="M9.63196,110.76142c0,0 0.16068,-0.99719 0.39674,-1.00294c1.09474,-0.02666 9.29691,-0.0863 11.33865,0.05386c0.29109,0.01999 0.50347,0.65107 0.50347,0.65107c0,0 0.1943,1.32721 0.22997,2.7922c0.14444,5.93238 1.13281,44.96124 1.33939,54.7217c0.02962,1.3998 -0.10947,2.44452 -0.10947,2.44452c0,0 -0.22746,0.76103 -0.59641,0.78803c-2.16314,0.1583 -9.66546,-0.04153 -10.95044,-0.01025c-0.36481,0.00888 -0.69202,-0.47979 -0.69202,-0.47979c0,0 -0.32043,-1.06981 -0.37049,-2.92952c-0.29032,-10.78477 -0.99679,-47.90267 -1.14479,-53.98144c-0.04014,-1.64831 0.05539,-3.04745 0.05539,-3.04745z" fill="#c0f5dd" stroke="#3a211e" stroke-width="2.5"/><path d="M31.75,66c0,0 -1.3631,-1.24592 -1.41236,-3.34711c-0.23627,-10.07729 0.41236,-39.82702 0.41236,-46.15289c0,-2.30501 1,-4.5 1,-4.5c0,0 2.00764,-0.5 4,-0.5c10.44818,0 97.9923,-0.9306 115.8334,-0.84802c2.03812,0.00943 3.1666,1.34802 3.1666,1.34802c0,0 0.5195,1.23804 0.55184,3.32737c0.15671,10.12585 0.11483,40.24699 0.11483,46.33929c0,2.07872 -0.66667,4.33333 -0.66667,4.33333c0,0 -0.75311,1.17855 -3.00283,1.19973c-18.3876,0.17308 -103.85095,-0.19973 -115.33051,-0.19973c-2.51073,0 -4.66667,-1 -4.66667,-1z" fill="#ad937b" stroke="#3a211e" stroke-width="2.5"/><text transform="translate(45.25,48.5468) scale(0.73248,0.73248)" font-size="40" xml:space="preserve" fill="#3a211e" fill-rule="nonzero" stroke="#3a211e" stroke-width="3" stroke-linecap="butt" stroke-linejoin="miter" stroke-miterlimit="10" stroke-dasharray="" stroke-dashoffset="0" font-family="&quot;Microsoft YaHei&quot;, &quot;微软雅黑&quot;, STXihei, &quot;华文细黑&quot;" font-weight="normal" text-anchor="start" style="mix-blend-mode: normal"><tspan x="0" dy="0">bakery</tspan></text><path d="M39.25,17.66667c0,1.10457 -0.93274,2 -2.08333,2c-1.15059,0 -2.08333,-0.89543 -2.08333,-2c0,-1.10457 0.93274,-2 2.08333,-2c1.15059,0 2.08333,0.89543 2.08333,2z" fill="#3a211e" stroke="none" stroke-width="0"/><path d="M39.08333,60.5c0,1.10457 -0.93274,2 -2.08333,2c-1.1506,0 -2.08333,-0.89543 -2.08333,-2c0,-1.10457 0.93274,-2 2.08333,-2c1.1506,0 2.08333,0.89543 2.08333,2z" fill="#3a211e" stroke="none" stroke-width="0"/><path d="M151.08334,16c0,1.10457 -0.93274,2 -2.08333,2c-1.1506,0 -2.08333,-0.89543 -2.08333,-2c0,-1.10457 0.93273,-2 2.08333,-2c1.15059,0 2.08333,0.89543 2.08333,2z" fill="#3a211e" stroke="none" stroke-width="0"/><path d="M151.58334,61.83333c0,1.10457 -0.93274,2 -2.08334,2c-1.1506,0 -2.08333,-0.89543 -2.08333,-2c0,-1.10457 0.93273,-2 2.08333,-2c1.1506,0 2.08334,0.89543 2.08334,2z" fill="#3a211e" stroke="none" stroke-width="0"/></g></g></svg>