<svg version="1.1" xmlns="http://www.w3.org/2000/svg" xmlns:xlink="http://www.w3.org/1999/xlink" width="56.21868" height="24.13941" viewBox="0,0,56.21868,24.13941"><g transform="translate(-174.00002,-177.16885)"><g data-paper-data="{&quot;isPaintingLayer&quot;:true}" fill-rule="nonzero" stroke="#3a211e" stroke-linecap="butt" stroke-linejoin="miter" stroke-miterlimit="10" stroke-dasharray="" stroke-dashoffset="0" style="mix-blend-mode: normal"><path d="M176.11395,199.83459c0,0 -0.86393,-0.31924 -0.86393,-0.7269c0,-1.89059 0.12182,-16.0496 0.28698,-19.56764c0.02355,-0.50156 0.57695,-0.84162 0.57695,-0.84162c0,0 1.15851,-0.27958 2.43348,-0.27958c5.16297,0 39.1307,-0.06573 47.62458,-0.01209c1.21815,0.00769 2.1239,0.29167 2.1239,0.29167c0,0 0.65712,0.42457 0.67279,1.06247c0.09187,3.74012 -0.24083,16.68033 -0.24083,18.89947c0,0.63002 -0.43196,1.17423 -0.43196,1.17423c0,0 -0.93729,0.50808 -2.55591,0.51633c-9.3866,0.04786 -41.6862,-0.29267 -46.97658,-0.29267c-1.43454,0 -2.64947,-0.22367 -2.64947,-0.22367z" fill="#ffde97" stroke-width="2.5"/><text transform="translate(182.63186,192.03783) scale(0.17591,0.17591)" font-size="40" xml:space="preserve" fill="#3a211e" fill-rule="nonzero" stroke="#3a211e" stroke-width="3" stroke-linecap="butt" stroke-linejoin="miter" stroke-miterlimit="10" stroke-dasharray="" stroke-dashoffset="0" font-family="&quot;Microsoft YaHei&quot;, &quot;微软雅黑&quot;, STXihei, &quot;华文细黑&quot;" font-weight="normal" text-anchor="start" style="mix-blend-mode: normal"><tspan x="0" dy="0">poop butter</tspan></text></g></g></svg>