<svg version="1.1" xmlns="http://www.w3.org/2000/svg" xmlns:xlink="http://www.w3.org/1999/xlink" width="199.96197" height="158.20174" viewBox="0,0,199.96197,158.20174"><g transform="translate(-263.83989,-32.87108)"><g data-paper-data="{&quot;isPaintingLayer&quot;:true}" fill-rule="nonzero" stroke-linecap="butt" stroke-linejoin="miter" stroke-miterlimit="10" stroke-dasharray="" stroke-dashoffset="0" style="mix-blend-mode: normal"><path d="M268.26559,186.15721c0,0 -3.1757,-2.26636 -3.1757,-5.16049c0,-13.42182 0.44781,-113.94041 1.05489,-138.91593c0.08655,-3.56076 2.12081,-5.9749 2.12081,-5.9749c0,0 4.25851,-1.98481 8.94512,-1.98481c18.97832,0 143.83867,-0.46668 175.06094,-0.08584c4.47775,0.05461 7.80714,2.07065 7.80714,2.07065c0,0 2.41548,3.0141 2.47307,7.54277c0.3377,26.55211 -0.88523,118.41809 -0.88523,134.17238c0,4.47268 -1.58784,8.33619 -1.58784,8.33619c0,0 -3.44535,3.607 -9.39512,3.66559c-34.50376,0.33979 -153.23238,-2.07775 -172.67904,-2.07775c-5.27314,0 -9.73904,-1.58784 -9.73904,-1.58784z" fill="#c4c4c4" stroke="#3a211e" stroke-width="2.5"/><path d="M282.5064,173.01495c0,0 -2.72893,-1.56264 -2.72893,-3.55815c0,-9.25429 0.38481,-78.56145 0.90649,-95.78197c0.07439,-2.45512 1.82244,-4.11968 1.82244,-4.11968c0,0 3.65942,-1.36852 7.68671,-1.36852c16.30843,0 123.60341,-0.32178 150.43334,-0.05918c3.84782,0.03766 6.70883,1.4277 6.70883,1.4277c0,0 2.07566,2.07822 2.12516,5.20071c0.29019,18.30758 -0.7607,81.6488 -0.7607,92.51132c0,3.08389 -1.36447,5.74777 -1.36447,5.74777c0,0 -2.96066,2.48701 -8.07342,2.52741c-29.64976,0.23428 -131.67562,-1.4326 -148.38651,-1.4326c-4.53131,0 -8.36895,-1.09481 -8.36895,-1.09481z" fill="#747474" stroke="#3a211e" stroke-width="2.5"/><path d="M318.21754,88.73644c0,0 -1.52269,-0.17829 -1.52269,-0.40597c0,-1.05588 0.21472,-8.96351 0.50581,-10.9283c0.0415,-0.28012 1.0169,-0.47004 1.0169,-0.47004c0,0 2.04189,-0.15613 4.28904,-0.15613c9.09978,0 68.96823,-0.03672 83.93879,-0.00676c2.147,0.0043 3.74339,0.16289 3.74339,0.16289c0,0 1.15819,0.23712 1.1858,0.59338c0.16192,2.08881 -0.42446,9.31575 -0.42446,10.55512c0,0.35186 -0.76135,0.65579 -0.76135,0.65579c0,0 -1.65198,0.28375 -4.5048,0.28836c-16.54398,0.02674 -73.47236,-0.16345 -82.79671,-0.16345c-2.52837,0 -4.6697,-0.12492 -4.6697,-0.12492z" fill="#c4c4c4" stroke="#3a211e" stroke-width="2.5"/><text transform="translate(308.29729,127.2266) scale(0.38179,0.38179)" font-size="40" xml:space="preserve" fill="#3a211e" fill-rule="nonzero" stroke="#3a211e" stroke-width="3" stroke-linecap="butt" stroke-linejoin="miter" stroke-miterlimit="10" stroke-dasharray="" stroke-dashoffset="0" font-family="&quot;Microsoft YaHei&quot;, &quot;微软雅黑&quot;, STXihei, &quot;华文细黑&quot;" font-weight="normal" text-anchor="start" style="mix-blend-mode: normal"><tspan x="0" dy="0">click anywhere</tspan><tspan x="0" dy="48px">to remove tray</tspan></text><text transform="translate(303.41407,55.28641) scale(0.34392,0.34392)" font-size="40" xml:space="preserve" fill="#3a211e" fill-rule="nonzero" stroke="#3a211e" stroke-width="3" stroke-linecap="butt" stroke-linejoin="miter" stroke-miterlimit="10" stroke-dasharray="" stroke-dashoffset="0" font-family="&quot;Microsoft YaHei&quot;, &quot;微软雅黑&quot;, STXihei, &quot;华文细黑&quot;" font-weight="normal" text-anchor="start" style="mix-blend-mode: normal"><tspan x="0" dy="0">oven meter</tspan></text></g></g></svg>