<svg version="1.1" xmlns="http://www.w3.org/2000/svg" xmlns:xlink="http://www.w3.org/1999/xlink" width="143.82194" height="62.93101" viewBox="0,0,143.82194,62.93101"><g transform="translate(-164.00004,-215.10852)"><g data-paper-data="{&quot;isPaintingLayer&quot;:true}" fill-rule="nonzero" stroke="#3a211e" stroke-linecap="butt" stroke-linejoin="miter" stroke-miterlimit="10" stroke-dasharray="" stroke-dashoffset="0" style="mix-blend-mode: normal"><path d="M168.00677,275.6756c0,0 -2.25673,-0.87627 -2.25673,-1.99527c0,-5.18948 0.31822,-44.05444 0.74963,-53.71108c0.06151,-1.37674 1.5071,-2.31016 1.5071,-2.31016c0,0 3.02621,-0.76742 6.35665,-0.76742c13.4865,0 102.21573,-0.18044 124.40315,-0.03319c3.18201,0.02112 5.54798,0.8006 5.54798,0.8006c0,0 1.71651,1.16539 1.75743,2.91637c0.23999,10.26622 -0.62906,45.7857 -0.62906,51.87701c0,1.72933 -1.12835,3.22314 -1.12835,3.22314c0,0 -2.44837,1.39463 -6.67645,1.41728c-24.51933,0.13138 -108.89117,-0.80335 -122.7105,-0.80335c-3.74722,0 -6.92083,-0.61393 -6.92083,-0.61393z" fill="#ffeec8" stroke-width="3.5"/><text transform="translate(206.47058,254.46251) scale(0.62564,0.62564)" font-size="40" xml:space="preserve" fill="#3a211e" fill-rule="nonzero" stroke="#3a211e" stroke-width="3" stroke-linecap="butt" stroke-linejoin="miter" stroke-miterlimit="10" stroke-dasharray="" stroke-dashoffset="0" font-family="&quot;Microsoft YaHei&quot;, &quot;微软雅黑&quot;, STXihei, &quot;华文细黑&quot;" font-weight="normal" text-anchor="start" style="mix-blend-mode: normal"><tspan x="0" dy="0">play!</tspan></text></g></g></svg>