<svg version="1.1" xmlns="http://www.w3.org/2000/svg" xmlns:xlink="http://www.w3.org/1999/xlink" width="160.05686" height="64.1021" viewBox="0,0,160.05686,64.1021"><g transform="translate(-281.86228,-200.26054)"><g data-paper-data="{&quot;isPaintingLayer&quot;:true}" fill-rule="nonzero" stroke-width="2.5" stroke-linecap="butt" stroke-linejoin="miter" stroke-miterlimit="10" stroke-dasharray="" stroke-dashoffset="0" style="mix-blend-mode: normal"><path d="M437.24213,262.8924c-11.4707,0.08272 -129.23871,0.31681 -150.76226,0.22025c-2.17536,-0.00976 -3.36759,-1.2252 -3.36759,-1.2252c0,0 -0.43887,-1.85175 0.09143,-3.77588c1.74003,-6.31357 11.65095,-41.09623 14.88458,-52.05008c0.61821,-2.09417 1.28382,-3.17167 1.28382,-3.17167c0,0 1.174,-1.36773 3.29213,-1.3793c18.40169,-0.10045 107.91118,0.16926 118.08937,0.16926c1.86238,0 2.64695,1.21003 2.64695,1.21003c0,0 1.38959,1.2762 1.79368,2.65028c1.59142,5.41164 12.38723,40.42286 15.4749,51.71099c0.60248,2.2026 -0.25248,3.50197 -0.25248,3.50197c0,0 -1.40651,2.12661 -3.17453,2.13936z" data-paper-data="{&quot;index&quot;:null}" fill="#818181" stroke="#3a211e"/><path d="M428.96029,258.02006c-10.31709,0.06968 -116.24108,0.26688 -135.59999,0.18554c-1.95658,-0.00822 -3.02891,-1.03211 -3.02891,-1.03211c0,0 -0.39473,-1.55991 0.08223,-3.1808c1.56503,-5.31854 10.47921,-34.61942 13.38763,-43.84694c0.55604,-1.76413 1.1547,-2.67181 1.1547,-2.67181c0,0 1.05593,-1.15218 2.96103,-1.16192c16.55102,-0.08462 97.05848,0.14259 106.21304,0.14259c1.67508,0 2.38074,1.01933 2.38074,1.01933c0,0 1.24984,1.07507 1.61329,2.23259c1.43137,4.55876 11.14143,34.05218 13.91857,43.56129c0.54189,1.85547 -0.22709,2.95005 -0.22709,2.95005c0,0 -1.26505,1.79146 -2.85526,1.8022z" data-paper-data="{&quot;index&quot;:null}" fill="#707070" stroke="#3a211e"/><path d="M377.71411,230.43263c0,5.71813 -8.45768,10.35359 -18.89075,10.35359c-10.43307,0 -18.89075,-4.63546 -18.89075,-10.35359c0,-5.71813 8.45768,-11.41288 18.89075,-11.41288c10.43307,0 18.89075,5.69475 18.89075,11.41288z" fill="#fff1cc" stroke="#3a211e"/><path d="M353.52689,227.10366c0,0.9263 -2.24495,1.67722 -3.70753,1.67722c-1.46258,0 -2.64824,-0.75092 -2.64824,-1.67722c0,-0.9263 0.83256,-2.73651 2.29514,-2.73651c1.46258,0 4.06063,1.81021 4.06063,2.73651z" fill="#ffffff" stroke="#3a211e"/><path d="M365.7654,238.28288c0,0.9263 -2.24496,1.67722 -3.70754,1.67722c-1.46258,0 -2.64824,-0.75092 -2.64824,-1.67722c0,-0.9263 0.83256,-2.73651 2.29514,-2.73651c1.46258,0 4.06063,1.81021 4.06063,2.73651z" fill="#ffffff" stroke="#3a211e"/><path d="M373.94328,225.62091c0,1.22272 -2.96334,2.21393 -4.89394,2.21393c-1.9306,0 -3.49568,-0.99121 -3.49568,-2.21393c0,-1.22272 1.09898,-3.6122 3.02958,-3.6122c1.9306,0 5.36004,2.38948 5.36004,3.6122z" fill="#ffffff" stroke="#3a211e"/></g></g></svg>