<svg version="1.1" xmlns="http://www.w3.org/2000/svg" xmlns:xlink="http://www.w3.org/1999/xlink" width="185.86052" height="63.66883" viewBox="0,0,185.86052,63.66883"><g transform="translate(-133.46137,-301.84965)"><g data-paper-data="{&quot;isPaintingLayer&quot;:true}" fill-rule="nonzero" stroke-linecap="butt" stroke-linejoin="miter" stroke-miterlimit="10" stroke-dasharray="" stroke-dashoffset="0" style="mix-blend-mode: normal"><path d="M135.3379,364.26074c0,0 19.00244,-45.71282 22.08201,-52.83447c0.7765,-1.79569 2.31604,-3.5871 2.31604,-3.5871c0,0 1.33913,-0.86246 3.65574,-0.86881c12.0081,-0.03295 111.63316,-0.66991 129.70952,-0.59079c1.80157,0.00789 3.42994,1.08424 3.42994,1.08424c0,0 1.5534,1.92677 2.12362,3.44717c2.48475,6.6252 18.89624,52.59904 18.89624,52.59904z" fill="#82614d" stroke="#3a211e" stroke-width="2.5"/><path d="M166.82018,313.51231v-10.07687h13.07849v10.07687z" fill="#82614d" stroke="none" stroke-width="0"/><path d="M188.11469,312.93787v-10.07687h13.07849v10.07687z" fill="#82614d" stroke="none" stroke-width="0"/><path d="M210.05241,313.22104v-10.07687h13.07849v10.07687z" fill="#82614d" stroke="none" stroke-width="0"/><path d="M233.49093,313.0754v-10.07687h13.07849v10.07687z" fill="#82614d" stroke="none" stroke-width="0"/><path d="M257.35826,313.14417v-10.07687h13.07849v10.07687z" fill="#82614d" stroke="none" stroke-width="0"/><path d="M280.36798,311.92652v-10.07687h13.07849v10.07687z" fill="#82614d" stroke="none" stroke-width="0"/><path d="M294.15845,323.14417v-10.07687h13.07849v10.07687z" fill="#82614d" stroke="none" stroke-width="0"/><path d="M300.23045,339.72185v-10.07687h13.07849v10.07687z" fill="#82614d" stroke="none" stroke-width="0"/><path d="M304.37285,356.94273v-10.07687h13.07849v10.07687z" fill="#82614d" stroke="none" stroke-width="0"/><path d="M148.35735,322.70727v-10.07687h13.07849v10.07687z" fill="#82614d" stroke="none" stroke-width="0"/><path d="M142.42288,339.28494v-10.07687h13.07849v10.07687z" fill="#82614d" stroke="none" stroke-width="0"/><path d="M133.48678,356.50583v-10.07687h13.07849v10.07687z" fill="#82614d" stroke="none" stroke-width="0"/><text transform="translate(176.9912,329.50761) scale(0.35051,0.35051)" font-size="40" xml:space="preserve" fill="#3a211e" fill-rule="nonzero" stroke="#3a211e" stroke-width="3" stroke-linecap="butt" stroke-linejoin="miter" stroke-miterlimit="10" stroke-dasharray="" stroke-dashoffset="0" font-family="&quot;Microsoft YaHei&quot;, &quot;微软雅黑&quot;, STXihei, &quot;华文细黑&quot;" font-weight="normal" text-anchor="start" style="mix-blend-mode: normal"><tspan x="0" dy="0">place tray here</tspan><tspan x="0" dy="48px">     to serve</tspan></text></g></g></svg>