<svg version="1.1" xmlns="http://www.w3.org/2000/svg" xmlns:xlink="http://www.w3.org/1999/xlink" width="63.84553" height="73.72135" viewBox="0,0,63.84553,73.72135"><g transform="translate(-101.50003,-129.61923)"><g data-paper-data="{&quot;isPaintingLayer&quot;:true}" fill-rule="nonzero" stroke-linecap="butt" stroke-linejoin="miter" stroke-miterlimit="10" stroke-dasharray="" stroke-dashoffset="0" style="mix-blend-mode: normal"><path d="M103.73662,200.41477c0,0 -0.98659,-1.03611 -0.98659,-2.35922c0,-6.13607 0.13912,-52.09025 0.32772,-63.50833c0.02689,-1.62787 0.65887,-2.73155 0.65887,-2.73155c0,0 1.32299,-0.9074 2.77898,-0.9074c5.89599,0 44.68637,-0.21335 54.3862,-0.03924c1.3911,0.02497 2.42545,0.94664 2.42545,0.94664c0,0 0.75042,1.37796 0.76831,3.44834c0.10492,12.13885 -0.27501,54.13731 -0.27501,61.33971c0,2.04477 -0.49329,3.81106 -0.49329,3.81106c0,0 -1.07037,1.64902 -2.91879,1.6758c-10.71929,0.15534 -47.60472,-0.94989 -53.64621,-0.94989c-1.6382,0 -3.02563,-0.72591 -3.02563,-0.72591z" fill="#fff6e2" stroke="#3a211e" stroke-width="2.5"/><path d="M152.29656,179.91387c0,6.56732 -8.72397,11.89118 -19.48554,11.89118c-10.76157,0 -19.48554,-5.32386 -19.48554,-11.89118c0,-6.56732 8.72397,-11.89118 19.48554,-11.89118c10.76156,0 19.48554,5.32386 19.48554,11.89118z" fill="#8a6448" stroke="#3a211e" stroke-width="2.5"/><path d="M128.17699,175.6587c0,1.11065 -0.9395,2.01101 -2.09844,2.01101c-1.15894,0 -2.09844,-0.90036 -2.09844,-2.01101c0,-1.11065 0.9395,-2.011 2.09844,-2.011c1.15894,0 2.09844,0.90035 2.09844,2.011z" fill="#3a211e" stroke="none" stroke-width="0"/><path d="M135.17179,182.82838c0,1.20722 -1.05694,2.18588 -2.36075,2.18588c-1.30381,0 -2.36075,-0.97866 -2.36075,-2.18588c0,-1.20722 1.05694,-2.18587 2.36075,-2.18587c1.30381,0 2.36075,0.97865 2.36075,2.18587z" fill="#3a211e" stroke="none" stroke-width="0"/><path d="M144.09017,176.79536c0,1.15894 -0.97866,2.09844 -2.18588,2.09844c-1.20722,0 -2.18588,-0.9395 -2.18588,-2.09844c0,-1.15894 0.97865,-2.09844 2.18588,-2.09844c1.20722,0 2.18588,0.9395 2.18588,2.09844z" fill="#3a211e" stroke="none" stroke-width="0"/><path d="M120.83245,184.75195c0,1.20722 -0.9395,2.18588 -2.09844,2.18588c-1.15894,0 -2.09844,-0.97865 -2.09844,-2.18588c0,-1.20722 0.9395,-2.18588 2.09844,-2.18588c1.15894,0 2.09844,0.97866 2.09844,2.18588z" fill="#3a211e" stroke="none" stroke-width="0"/><path d="M148.11219,185.6263c0,0.9175 -0.86121,1.66127 -1.92357,1.66127c-1.06236,0 -1.92357,-0.74377 -1.92357,-1.66127c0,-0.9175 0.86121,-1.66126 1.92357,-1.66126c1.06236,0 1.92357,0.74377 1.92357,1.66126z" fill="#3a211e" stroke="none" stroke-width="0"/><path d="M138.29485,170.51363c0,1.30381 -1.0178,2.36074 -2.27331,2.36074c-1.25552,0 -2.27331,-1.05694 -2.27331,-2.36074c0,-1.30381 1.0178,-2.36075 2.27331,-2.36075c1.25552,0 2.27331,1.05694 2.27331,2.36075z" fill="#3a211e" stroke="none" stroke-width="0"/><text transform="translate(109.99049,147.7669) scale(0.38119,0.38119)" font-size="40" xml:space="preserve" fill="#3a211e" fill-rule="nonzero" stroke="#3a211e" stroke-width="3" stroke-linecap="butt" stroke-linejoin="miter" stroke-miterlimit="10" stroke-dasharray="" stroke-dashoffset="0" font-family="&quot;Microsoft YaHei&quot;, &quot;微软雅黑&quot;, STXihei, &quot;华文细黑&quot;" font-weight="normal" text-anchor="start" style="mix-blend-mode: normal"><tspan x="0" dy="0">Meow</tspan></text><text transform="translate(120.30783,160.13263) scale(0.37037,0.37037)" font-size="40" xml:space="preserve" fill="#3a211e" fill-rule="nonzero" stroke="#3a211e" stroke-width="3" stroke-linecap="butt" stroke-linejoin="miter" stroke-miterlimit="10" stroke-dasharray="" stroke-dashoffset="0" font-family="&quot;Microsoft YaHei&quot;, &quot;微软雅黑&quot;, STXihei, &quot;华文细黑&quot;" font-weight="normal" text-anchor="start" style="mix-blend-mode: normal"><tspan x="0" dy="0">mix</tspan></text></g></g></svg>