<svg version="1.1" xmlns="http://www.w3.org/2000/svg" xmlns:xlink="http://www.w3.org/1999/xlink" width="80.31886" height="100.19792" viewBox="0,0,80.31886,100.19792"><g transform="translate(-80.4174,-208.20177)"><g data-paper-data="{&quot;isPaintingLayer&quot;:true}" fill-rule="nonzero" stroke="#3a211e" stroke-linejoin="miter" stroke-miterlimit="10" stroke-dasharray="" stroke-dashoffset="0" style="mix-blend-mode: normal"><path d="M159.23626,247.17533c0,20.69608 -17.30842,37.47356 -38.65943,37.47356c-21.35102,0 -38.65943,-16.77749 -38.65943,-37.47356c0,-20.69608 17.30842,-37.47356 38.65943,-37.47356c21.35102,0 38.65943,16.77749 38.65943,37.47356z" fill="#e4ffb2" stroke-width="3" stroke-linecap="butt"/><path d="M105.45222,235.33508c0,0 7.55076,-9.20604 16.03708,-8.74027c9.83369,0.53972 18.72849,5.50231 21.77871,15.91575c4.5296,15.46403 -8.64947,28.24378 -21.2031,30.2948c-14.53101,2.37409 -26.14021,-16.98612 -26.14021,-16.98612" fill="none" stroke-width="10" stroke-linecap="round"/><path d="M103.53811,235.9059v-11.3063" fill="none" stroke-width="10" stroke-linecap="round"/><path d="M103.73646,236.89767l10.90958,1.98356" fill="none" stroke-width="10" stroke-linecap="round"/><text transform="translate(88.40604,304.43494) scale(0.31718,0.31718)" font-size="40" xml:space="preserve" fill="#3a211e" fill-rule="nonzero" stroke="#3a211e" stroke-width="3" stroke-linecap="butt" stroke-linejoin="miter" stroke-miterlimit="10" stroke-dasharray="" stroke-dashoffset="0" font-family="&quot;Microsoft YaHei&quot;, &quot;微软雅黑&quot;, STXihei, &quot;华文细黑&quot;" font-weight="normal" text-anchor="start" style="mix-blend-mode: normal"><tspan x="0" dy="0">Play again!</tspan></text></g></g></svg>