<svg version="1.1" xmlns="http://www.w3.org/2000/svg" xmlns:xlink="http://www.w3.org/1999/xlink" width="604.75" height="414.75001" viewBox="0,0,604.75,414.75001"><g transform="translate(36.25,19.5)"><g data-paper-data="{&quot;isPaintingLayer&quot;:true}" fill-rule="nonzero" stroke-linejoin="miter" stroke-miterlimit="10" stroke-dasharray="" stroke-dashoffset="0" style="mix-blend-mode: normal"><path d="M-25.5,290.50001v-141h594v141z" fill="#caafa2" stroke="none" stroke-width="0" stroke-linecap="butt"/><path d="M-35,232.25v-250.5h590v250.5z" fill="#fffaf0" stroke="#3a211e" stroke-width="2.5" stroke-linecap="butt"/><path d="M456.88085,302.64842c3.23203,16.82237 -1.41708,31.85618 -10.38407,33.57898c-8.96699,1.7228 -18.85626,-10.51783 -22.08827,-27.34018c-3.23203,-16.82237 7.60483,-26.54807 7.63657,-32.81011c0.04627,-9.13087 21.60375,9.74894 24.83577,26.57131z" fill="#fffffa" stroke="#54453f" stroke-width="5.5" stroke-linecap="butt"/><path d="M425.13077,179.94004c-0.55637,29.93207 -31.20741,53.63547 -68.461,52.94301c-37.2536,-0.69247 -67.00257,-25.51855 -66.4462,-55.45064c0.55637,-29.93207 31.20741,-53.63547 68.46101,-52.94302c37.25359,0.69245 67.00257,25.51855 66.4462,55.45064z" fill="#fffffa" stroke="#3a211e" stroke-width="5.5" stroke-linecap="butt"/><path d="M333.35537,98.54305c5.49231,28.7716 0.51222,53.89618 -11.12336,56.11734c-11.63558,2.22115 -25.52046,-19.30223 -31.01277,-48.07382c-5.49231,-28.7716 -0.51222,-53.89618 11.12336,-56.11732c11.63558,-2.22116 25.52046,19.30221 31.01276,48.07381z" fill="#fffffa" stroke="#3a211e" stroke-width="5.5" stroke-linecap="butt"/><path d="M421.6631,55.09784c11.54498,2.65203 15.58794,27.94435 9.03019,56.49195c-6.55775,28.54761 -21.23291,49.54012 -32.77791,46.88808c-11.54498,-2.65202 -15.58794,-27.94434 -9.03019,-56.49192c6.55775,-28.54761 21.23291,-49.54012 32.7779,-46.88808z" data-paper-data="{&quot;index&quot;:null}" fill="#fffffa" stroke="#3a211e" stroke-width="5.5" stroke-linecap="butt"/><path d="M361.19691,162.65303c-0.27769,14.93903 -12.61328,26.82441 -27.55232,26.54672c-14.93903,-0.27768 -35.90184,-9.50215 -35.62417,-24.44118c0.27769,-14.93903 29.72097,-35.52603 44.66001,-35.24835c14.93903,0.27769 18.79417,18.20377 18.51648,33.1428z" fill="#fffffa" stroke="none" stroke-width="0" stroke-linecap="butt"/><path d="M375.21364,130.41296c14.93903,0.27769 43.59691,21.94466 43.31922,36.8837c-0.27769,14.93903 -21.56883,23.37809 -36.50787,23.1004c-14.93903,-0.27768 -26.82441,-12.61328 -26.54672,-27.55231c0.27769,-14.93903 4.79633,-32.70947 19.73536,-32.43177z" data-paper-data="{&quot;index&quot;:null}" fill="#fffffa" stroke="none" stroke-width="0" stroke-linecap="butt"/><path d="M321.43395,99.3587c3.61478,18.43923 2.34289,34.21099 -2.84083,35.22718c-5.18372,1.01621 -12.31631,-13.10795 -15.93109,-31.5472c-3.61478,-18.43923 -2.34289,-34.21099 2.84082,-35.22719c5.18372,-1.01621 12.31631,13.10796 15.93107,31.5472z" fill="#ffe7e3" stroke="#3a211e" stroke-width="5.5" stroke-linecap="butt"/><path d="M418.17483,72.1171c5.14238,1.20813 5.82727,17.01626 1.52973,35.30844c-4.29753,18.29216 -11.95009,32.1415 -17.09247,30.93335c-5.14238,-1.20813 -5.82725,-17.01625 -1.52972,-35.30842c4.29753,-18.29216 11.95008,-32.1415 17.09246,-30.93336z" data-paper-data="{&quot;index&quot;:null}" fill="#ffe7e3" stroke="#3a211e" stroke-width="5.5" stroke-linecap="butt"/><path d="M339.03268,132.45902l-2.14712,-17.67962l43.32216,0.18633l-2.81417,18.20635c0,0 -11.62425,3.80703 -18.01774,3.68819c-6.39348,-0.11884 -20.34312,-4.40124 -20.34312,-4.40124z" fill="#ffffff" stroke="#3a211e" stroke-width="5.5" stroke-linecap="butt"/><path d="M357.79105,105.57446c-0.18419,9.90964 -9.40564,17.77437 -20.59672,17.56635c-11.19107,-0.20803 -20.11386,-8.41001 -19.92968,-18.31964c0.18419,-9.90964 9.40566,-17.77435 20.5967,-17.56633c11.19107,0.20803 20.11388,8.40999 19.92967,18.31963z" fill="#ffffff" stroke="#3a211e" stroke-width="5.5" stroke-linecap="butt"/><path d="M377.98006,101.61716c-0.18419,9.90964 -9.40566,17.77435 -20.59671,17.56633c-11.19107,-0.20803 -20.11388,-8.40999 -19.92966,-18.31963c0.18419,-9.90964 9.40564,-17.77437 20.59671,-17.56635c11.19107,0.20803 20.11387,8.41 19.92967,18.31965z" fill="#ffffff" stroke="#3a211e" stroke-width="5.5" stroke-linecap="butt"/><path d="M402.04128,105.77802c-0.18419,9.90964 -9.40565,17.77437 -20.59671,17.56635c-11.19107,-0.20803 -20.11388,-8.41001 -19.92968,-18.31963c0.18419,-9.90964 9.40566,-17.77434 20.59672,-17.56633c11.19107,0.20803 20.11388,8.40999 19.92967,18.31963z" fill="#ffffff" stroke="#3a211e" stroke-width="5.5" stroke-linecap="butt"/><path d="M341.86847,127.81449c0,0 -0.86915,-3.50195 -2.36187,-7.50053c-1.52612,-4.088 -5.42722,-9.47267 -6.11456,-12.59084c-1.18489,-5.37534 -1.69391,-16.23106 -1.69391,-16.23106c0,0 5.86682,-1.65447 8.8951,-1.0516c3.37666,0.67221 13.74341,-7.09255 23.83419,-4.48636c8.4568,2.18416 16.5985,13.38484 16.5985,13.38484c0,0 -0.77927,6.38349 -1.55397,9.92575c-0.52002,2.3778 -2.12064,6.38291 -3.04939,9.96807c-1.04438,4.03151 -1.39408,7.52914 -1.39408,7.52914z" fill="#ffffff" stroke="none" stroke-width="0" stroke-linecap="butt"/><path d="M340.92467,91.41719c0.44429,-0.51347 1.0127,-1.25711 2.25392,-2.48292c1.04323,-1.03028 2.82366,-2.61128 2.82366,-2.61128" fill="none" stroke="#3a211e" stroke-width="4" stroke-linecap="round"/><path d="M368.48437,92.18843c0,0 0.92244,-1.43146 1.88163,-1.89963c1.13981,-0.55633 4.37595,-1.76135 4.37595,-1.76135" fill="none" stroke="#3a211e" stroke-width="4" stroke-linecap="round"/><path d="M335.8922,105.78635l6.25566,4.75831" fill="none" stroke="#3a211e" stroke-width="2.5" stroke-linecap="round"/><path d="M349.26663,102.16656l2.36852,5.7692" fill="none" stroke="#3a211e" stroke-width="2.5" stroke-linecap="round"/><path d="M364.28794,101.51739l-2.26616,5.37356" fill="none" stroke="#3a211e" stroke-width="2.5" stroke-linecap="round"/><path d="M378.0827,108.58211l-5.77782,2.83257" fill="none" stroke="#3a211e" stroke-width="2.5" stroke-linecap="round"/><path d="M344.97754,116.47714c0,0 9.08649,-2.18024 13.50533,-2.04283c3.701,0.11509 12.33501,2.05896 12.33501,2.05896" fill="none" stroke="#3a211e" stroke-width="2.5" stroke-linecap="round"/><path d="M350.39839,128.84329l-4.92678,-1.32945" fill="none" stroke="#3a211e" stroke-width="2.5" stroke-linecap="round"/><path d="M355.5623,129.74604l5.87786,0.10925" fill="none" stroke="#3a211e" stroke-width="2.5" stroke-linecap="round"/><path d="M366.76917,129.31059l4.81812,-1.14831" fill="none" stroke="#3a211e" stroke-width="2.5" stroke-linecap="round"/><path d="M336.72762,169.80369c-0.09799,5.27169 -4.45099,9.46579 -9.72267,9.3678c-5.27169,-0.09799 -9.4658,-4.45097 -9.3678,-9.72266c0.09799,-5.27169 4.45098,-9.46581 9.72267,-9.3678c5.27169,0.09799 9.4658,4.45097 9.36781,9.72266z" fill="#3a211e" stroke="none" stroke-width="0" stroke-linecap="butt"/><path d="M331.40209,166.2223c-0.02075,1.11635 -1.19393,1.99986 -2.6204,1.97334c-1.42645,-0.02652 -2.56601,-0.95299 -2.54526,-2.06935c0.02075,-1.11635 1.19396,-1.99985 2.6204,-1.97334c1.42645,0.02652 2.56601,0.953 2.54526,2.06936z" fill="#ffffff" stroke="none" stroke-width="0" stroke-linecap="butt"/><path d="M390.82451,173.52559c-0.09799,5.27169 -4.45097,9.4658 -9.72266,9.3678c-5.27169,-0.09799 -9.46581,-4.45097 -9.36781,-9.72266c0.09799,-5.27169 4.45098,-9.46581 9.72267,-9.3678c5.27169,0.09799 9.4658,4.45097 9.3678,9.72267z" fill="#3a211e" stroke="none" stroke-width="0" stroke-linecap="butt"/><path d="M386.86324,169.07088c-0.02075,1.11635 -1.19396,1.99985 -2.62041,1.97334c-1.42645,-0.02652 -2.56601,-0.953 -2.54525,-2.06936c0.02075,-1.11635 1.19395,-1.99985 2.6204,-1.97333c1.42645,0.02652 2.56601,0.953 2.54525,2.06934z" fill="#ffffff" stroke="none" stroke-width="0" stroke-linecap="butt"/><path d="M352.67085,182.34464l-2.29936,-9.25428l9.88213,0.1837l-3.98924,9.13738z" fill="#ffe7e3" stroke="none" stroke-width="0" stroke-linecap="butt"/><path d="M348.76174,175.08249l5.43533,9.76191" fill="none" stroke="#3a211e" stroke-width="4.5" stroke-linecap="round"/><path d="M361.80391,175.56988l-7.3874,10.64692" data-paper-data="{&quot;index&quot;:null}" fill="none" stroke="#3a211e" stroke-width="4.5" stroke-linecap="round"/><path d="M354.39663,186.19613l-0.64228,10.74894" fill="none" stroke="#3a211e" stroke-width="4.5" stroke-linecap="round"/><path d="M348.56637,173.50616c0,0 4.45889,-1.08 6.55187,-0.93802c2.42151,0.16425 7.13581,1.86648 7.13581,1.86648" fill="none" stroke="#3a211e" stroke-width="4.5" stroke-linecap="round"/><path d="M313.47569,335.79697c0,0 -15.25004,-19.11038 -18.40585,-38.93929c-1.14967,-7.22382 1.05679,-12.91648 8.3687,-12.71351c3.28312,0.09114 8.93653,4.84089 9.23829,1.57041c2.27573,-24.66616 9.4475,-61.47938 9.4475,-61.47938l71.04199,0.22724c0,0 28.75103,43.07443 35.11741,62.80289c5.72074,17.72773 1.35146,50.20871 1.35146,50.20871z" fill="#fffffa" stroke="#3a211e" stroke-width="5.5" stroke-linecap="butt"/><path d="M450.68598,333.73321c-0.02227,1.19783 -2.98995,3.40981 -6.87135,4.82648c-11.21235,4.09241 -34.1749,7.49412 -48.11469,7.23501c-18.76535,-0.34881 -33.90747,-4.40768 -33.82089,-9.06575c0.08659,-4.65807 15.36908,-8.1514 34.13443,-7.80259c8.27537,0.15382 20.89107,1.28239 32.40221,2.89558c14.59165,2.04488 22.31868,-0.69261 22.27028,1.91127z" fill="#fffffa" stroke="#54453f" stroke-width="5.5" stroke-linecap="butt"/><path d="M359.03901,336.2376c-0.08659,4.65807 -15.36907,8.15139 -34.13441,7.80259c-18.76535,-0.34881 -33.90744,-4.40767 -33.82087,-9.06573c0.08659,-4.65807 15.36908,-8.15141 34.13444,-7.8026c18.76535,0.34881 33.90747,4.40768 33.82088,9.06575z" fill="#fffffa" stroke="#54453f" stroke-width="5.5" stroke-linecap="butt"/><path d="M394.64636,326.49036c0,0 -14.966,-9.24502 -18.6563,-18.18659c-4.2115,-10.20434 5.09847,-25.32281 15.2829,-21.0634c3.35019,1.40115 5.53766,4.67436 5.53766,4.67436" fill="none" stroke="#54453f" stroke-width="5.5" stroke-linecap="round"/><path d="M312.12063,290.24384l0.67007,-10.11206" fill="none" stroke="#54453f" stroke-width="5.5" stroke-linecap="round"/><path d="M312.68224,332.22472l-6.54118,-15.70093l61.28319,11.52535l-12.17437,7.97336z" fill="#fffffa" stroke="none" stroke-width="0" stroke-linecap="butt"/><path d="M323.91965,234.76661l3.35086,-18.52359l67.49226,0.98121l-0.35044,18.85269z" fill="#fffffa" stroke="none" stroke-width="0" stroke-linecap="butt"/><path d="M405.02804,334.21456l-16.89337,-17.53329l51.87766,2.87754c0,0 10.26153,3.19516 11.71302,6.43453c0.70531,1.57406 -2.51861,5.18284 -6.23463,7.71861c-3.33699,2.27715 -8.81401,3.55078 -8.81401,3.55078z" fill="#fffffa" stroke="none" stroke-width="0" stroke-linecap="butt"/><path d="M430.77498,314.74064l-0.98221,8.72803" fill="none" stroke="#54453f" stroke-width="5.5" stroke-linecap="round"/><path d="M-23.5,394.00001v-132h540v132z" fill="#82614d" stroke="#3a211e" stroke-width="2.5" stroke-linecap="butt"/><path d="M347.38776,255.61634c-0.19228,6.61096 -11.14546,11.65617 -24.46461,11.26879c-13.31917,-0.38738 -23.9606,-6.06066 -23.76832,-12.67162c0.19228,-6.61096 11.14545,-11.6562 24.46461,-11.26881c13.31917,0.38737 23.9606,6.06068 23.76833,12.67163z" fill="#fffffa" stroke="#3a211e" stroke-width="5.5" stroke-linecap="butt"/><path d="M346.81186,255.65218c-0.19228,6.61097 -11.14547,11.65619 -24.46463,11.2688c-13.61914,-0.39611 -12.92283,-24.33654 0.69629,-23.94045c13.31915,0.38737 23.9606,6.06069 23.76833,12.67164z" fill="#ff7a7a" stroke="#3a211e" stroke-width="5.5" stroke-linecap="butt"/><path d="M376.12114,254.49096c0.42991,-6.60611 11.56777,-11.25926 24.87713,-10.39311c13.30935,0.86613 23.7502,6.92359 23.32028,13.52971c-0.42991,6.60611 -11.56777,11.25923 -24.87713,10.3931c-13.30935,-0.86613 -23.75021,-6.92358 -23.32028,-13.52968z" fill="#fffffa" stroke="#3a211e" stroke-width="5.5" stroke-linecap="butt"/><path d="M376.04077,255.61735c-0.23154,-6.60968 10.376,-12.34614 23.69263,-12.81261c13.61654,-0.477 14.45504,23.45888 0.8385,23.93589c-13.31662,0.46652 -24.29958,-4.51355 -24.53113,-11.12328z" data-paper-data="{&quot;index&quot;:null}" fill="#ff7a7a" stroke="#3a211e" stroke-width="5.5" stroke-linecap="butt"/><path d="M435.0656,342.06894c-11.4707,0.08272 -129.23871,0.31681 -150.76226,0.22025c-2.17536,-0.00976 -3.36759,-1.2252 -3.36759,-1.2252c0,0 -0.43887,-1.85175 0.09143,-3.77588c1.74003,-6.31357 11.65095,-41.09623 14.88458,-52.05008c0.61821,-2.09417 1.28382,-3.17167 1.28382,-3.17167c0,0 1.174,-1.36773 3.29213,-1.3793c18.40169,-0.10045 107.91118,0.16926 118.08937,0.16926c1.86238,0 2.64695,1.21003 2.64695,1.21003c0,0 1.38959,1.2762 1.79368,2.65028c1.59142,5.41164 12.38723,40.42286 15.4749,51.71099c0.60248,2.2026 -0.25248,3.50197 -0.25248,3.50197c0,0 -1.40651,2.12661 -3.17453,2.13936z" data-paper-data="{&quot;index&quot;:null}" fill="#818181" stroke="#3a211e" stroke-width="2.5" stroke-linecap="butt"/><path d="M426.9603,337.02006c-10.31709,0.06968 -116.24108,0.26688 -135.59999,0.18554c-1.95658,-0.00822 -3.02891,-1.03211 -3.02891,-1.03211c0,0 -0.39473,-1.55991 0.08223,-3.1808c1.56503,-5.31854 10.47921,-34.61942 13.38763,-43.84694c0.55604,-1.76413 1.1547,-2.67181 1.1547,-2.67181c0,0 1.05593,-1.15218 2.96103,-1.16192c16.55102,-0.08462 97.05848,0.14259 106.21304,0.14259c1.67508,0 2.38074,1.01933 2.38074,1.01933c0,0 1.24984,1.07507 1.61329,2.23259c1.43137,4.55876 11.14143,34.05218 13.91857,43.56129c0.54189,1.85547 -0.22709,2.95005 -0.22709,2.95005c0,0 -1.26505,1.79146 -2.85526,1.8022z" data-paper-data="{&quot;index&quot;:null}" fill="#707070" stroke="#3a211e" stroke-width="2.5" stroke-linecap="butt"/><path d="M337.25435,202.94507c0,0 9.83221,-4.81974 16.27129,-4.58559c7.22108,0.26258 20.47871,6.83559 20.47871,6.83559" fill="none" stroke="#3a211e" stroke-width="4.5" stroke-linecap="round"/><path d="M319.75804,154.90006l12.74262,1.09003" fill="none" stroke="#3a211e" stroke-width="4.5" stroke-linecap="round"/><path d="M379.50435,153.69507l11.75,7.5" fill="none" stroke="#3a211e" stroke-width="4.5" stroke-linecap="round"/><path d="M15.25,340.875v-327h210v327z" fill="#fff4b8" stroke="#3a211e" stroke-width="2.5" stroke-linecap="butt"/><text transform="translate(30.6245,47.70124) scale(0.62564,0.62564)" font-size="40" xml:space="preserve" fill="#3a211e" fill-rule="nonzero" stroke="#3a211e" stroke-width="3" stroke-linecap="butt" stroke-linejoin="miter" stroke-miterlimit="10" stroke-dasharray="" stroke-dashoffset="0" font-family="&quot;Microsoft YaHei&quot;, &quot;微软雅黑&quot;, STXihei, &quot;华文细黑&quot;" font-weight="normal" text-anchor="start" style="mix-blend-mode: normal"><tspan x="0" dy="0">Scrambled Egg</tspan></text><text transform="translate(34.87304,100.65468) scale(0.3599,0.3599)" font-size="40" xml:space="preserve" fill="#3a211e" fill-rule="nonzero" stroke="#3a211e" stroke-width="3" stroke-linecap="butt" stroke-linejoin="miter" stroke-miterlimit="10" stroke-dasharray="" stroke-dashoffset="0" font-family="&quot;Microsoft YaHei&quot;, &quot;微软雅黑&quot;, STXihei, &quot;华文细黑&quot;" font-weight="normal" text-anchor="start" style="mix-blend-mode: normal"><tspan x="0" dy="0">Chef Mittens is confused.</tspan></text><text transform="translate(31.05573,149.74122) scale(0.3599,0.3599)" font-size="40" xml:space="preserve" fill="#3a211e" fill-rule="nonzero" stroke="#3a211e" stroke-width="3" stroke-linecap="butt" stroke-linejoin="miter" stroke-miterlimit="10" stroke-dasharray="" stroke-dashoffset="0" font-family="&quot;Microsoft YaHei&quot;, &quot;微软雅黑&quot;, STXihei, &quot;华文细黑&quot;" font-weight="normal" text-anchor="start" style="mix-blend-mode: normal"><tspan x="0" dy="0">"When did bakeries serve</tspan><tspan x="0" dy="48px">scrambled eggs??"</tspan></text><path d="M377.38199,311.75773c0,5.49104 -9.57097,7.77575 -21.78854,7.77575c-12.21757,0 -22.45521,-2.2847 -22.45521,-7.77575c0,-0.97684 1.6841,-0.88831 2.31013,-2.12416c0.60375,-1.19186 0.17427,-3.7564 1.17293,-5.10364c0.80412,-1.0848 2.61291,-0.57729 3.73551,-1.54988c1.19064,-1.03154 1.43813,-3.6611 2.80861,-4.67383c1.16314,-0.85952 4.0615,0.67984 5.5075,0.21786c2.80851,-0.8973 3.40652,-3.21665 6.35735,-3.21665c1.70549,0 2.23215,2.49001 3.83454,2.87243c1.19795,0.2859 4.1368,-1.64376 5.28517,-1.24662c1.53626,0.53128 2.43897,3.09284 3.73341,3.90565c1.6019,1.00588 4.91457,1.10845 6.17213,2.15011c1.10243,0.91315 0.18423,3.28601 0.67735,4.34053c0.95139,2.03448 2.64912,2.82367 2.64912,4.4282z" fill="#ffd700" stroke="#3a211e" stroke-width="2.5" stroke-linecap="butt"/></g></g></svg>