<svg version="1.1" xmlns="http://www.w3.org/2000/svg" xmlns:xlink="http://www.w3.org/1999/xlink" width="70.27411" height="16.85115" viewBox="0,0,70.27411,16.85115"><g transform="translate(-85.85037,-250.77591)"><g data-paper-data="{&quot;isPaintingLayer&quot;:true}" fill-rule="nonzero" stroke="#3a211e" stroke-width="2.5" stroke-linejoin="miter" stroke-miterlimit="10" stroke-dasharray="" stroke-dashoffset="0" style="mix-blend-mode: normal"><path d="M88.4041,263.6307c0,0 -1.27329,-0.8774 -1.30502,-1.5751c-0.06282,-1.3814 0.95262,-6.17482 0.95262,-6.17482c0,0 1.67746,-1.16249 2.81918,-1.16249c4.86629,0 38.05891,1.16249 38.05891,1.16249c0,0 1.67117,-0.67978 3.69269,-1.85749c7.48735,-4.36204 23.18434,-1.24748 22.20852,6.11994c-0.7049,5.32202 -17.97499,7.75726 -22.01628,5.23304c-1.57634,-0.98459 -2.82773,-2.52057 -2.82773,-2.52057c0,0 -32.51427,1.67915 -38.23511,1.67915c-1.7167,0 -3.34777,-0.90416 -3.34777,-0.90416z" fill="#715948" stroke-linecap="butt"/><path d="M149.5,259.6209c0,0 -3.13742,2.3588 -8.36461,2.60359c-4.43352,0.20762 -7.80205,-2.43693 -7.80205,-2.43693" fill="none" stroke-linecap="round"/></g></g></svg>