<svg version="1.1" xmlns="http://www.w3.org/2000/svg" xmlns:xlink="http://www.w3.org/1999/xlink" width="160.05686" height="64.1021" viewBox="0,0,160.05686,64.1021"><g transform="translate(-281.68575,-200.43708)"><g data-paper-data="{&quot;isPaintingLayer&quot;:true}" fill-rule="nonzero" stroke="#3a211e" stroke-width="2.5" stroke-linecap="butt" stroke-linejoin="miter" stroke-miterlimit="10" stroke-dasharray="" stroke-dashoffset="0" style="mix-blend-mode: normal"><path d="M437.0656,263.06895c-11.4707,0.08272 -129.23871,0.31681 -150.76226,0.22025c-2.17536,-0.00976 -3.36759,-1.2252 -3.36759,-1.2252c0,0 -0.43887,-1.85175 0.09143,-3.77588c1.74003,-6.31357 11.65095,-41.09623 14.88458,-52.05008c0.61821,-2.09417 1.28382,-3.17167 1.28382,-3.17167c0,0 1.174,-1.36773 3.29213,-1.3793c18.40169,-0.10045 107.91118,0.16926 118.08937,0.16926c1.86238,0 2.64695,1.21003 2.64695,1.21003c0,0 1.38959,1.2762 1.79368,2.65028c1.59142,5.41164 12.38723,40.42286 15.4749,51.71099c0.60248,2.2026 -0.25248,3.50197 -0.25248,3.50197c0,0 -1.40651,2.12661 -3.17453,2.13936z" data-paper-data="{&quot;index&quot;:null}" fill="#818181"/><path d="M428.9603,258.02006c-10.31709,0.06968 -116.24108,0.26688 -135.59999,0.18554c-1.95658,-0.00822 -3.02891,-1.03211 -3.02891,-1.03211c0,0 -0.39473,-1.55991 0.08223,-3.1808c1.56503,-5.31854 10.47921,-34.61942 13.38763,-43.84694c0.55604,-1.76413 1.1547,-2.67181 1.1547,-2.67181c0,0 1.05593,-1.15218 2.96103,-1.16192c16.55102,-0.08462 97.05848,0.14259 106.21304,0.14259c1.67508,0 2.38074,1.01933 2.38074,1.01933c0,0 1.24984,1.07507 1.61329,2.23259c1.43137,4.55876 11.14143,34.05218 13.91857,43.56129c0.54189,1.85547 -0.22709,2.95005 -0.22709,2.95005c0,0 -1.26505,1.79146 -2.85526,1.8022z" data-paper-data="{&quot;index&quot;:null}" fill="#707070"/><path d="M382.70833,232.66667c0,5.79899 -13.03357,9.16667 -28.08333,9.16667c-15.04976,0 -23.41667,-3.70101 -23.41667,-9.5c0,-3.29517 7.30569,-4.19636 12.94141,-8.78791c4.28226,-3.48886 6.22337,-7.65116 10.14193,-8.87876c3.81509,-1.19519 7.6004,4.99183 12.98296,9.35436c5.30864,4.30262 15.4337,5.7662 15.4337,8.64564z" fill="#fff6e2"/></g></g></svg>