<svg version="1.1" xmlns="http://www.w3.org/2000/svg" xmlns:xlink="http://www.w3.org/1999/xlink" width="532" height="377" viewBox="0,0,532,377"><g transform="translate(28.77057,12.1941)"><g data-paper-data="{&quot;isPaintingLayer&quot;:true}" fill-rule="nonzero" stroke-linecap="butt" stroke-linejoin="miter" stroke-miterlimit="10" stroke-dasharray="" stroke-dashoffset="0" style="mix-blend-mode: normal"><path d="M-28.77057,364.8059v-377h532v377z" fill="#fffaf0" stroke="none" stroke-width="0"/><text transform="translate(36.1085,157.8126) scale(1.58376,1.58376)" font-size="40" xml:space="preserve" fill="#3a211e" fill-rule="nonzero" stroke="#3a211e" stroke-width="3" stroke-linecap="butt" stroke-linejoin="miter" stroke-miterlimit="10" stroke-dasharray="" stroke-dashoffset="0" font-family="&quot;Microsoft YaHei&quot;, &quot;微软雅黑&quot;, STXihei, &quot;华文细黑&quot;" font-weight="normal" text-anchor="start" style="mix-blend-mode: normal"><tspan x="0" dy="0">bake a cookie</tspan></text><text transform="translate(202.99073,193.20546) scale(0.39534,0.39534)" font-size="40" xml:space="preserve" fill="#3a211e" fill-rule="nonzero" stroke="#3a211e" stroke-width="3" stroke-linecap="butt" stroke-linejoin="miter" stroke-miterlimit="10" stroke-dasharray="" stroke-dashoffset="0" font-family="&quot;Microsoft YaHei&quot;, &quot;微软雅黑&quot;, STXihei, &quot;华文细黑&quot;" font-weight="normal" text-anchor="start" style="mix-blend-mode: normal"><tspan x="0" dy="0">...or not.</tspan></text><path d="M419.15381,106.5609c0,6.09109 -5.22827,11.0289 -11.67766,11.0289c-6.44939,0 -11.67766,-4.93781 -11.67766,-11.0289c0,-6.09109 5.22827,-11.02891 11.67766,-11.02891c6.44939,0 11.67766,4.93782 11.67766,11.02891z" fill="#6b4d35" stroke="#3a211e" stroke-width="2"/><path d="M404.57235,102.78325c0,0.86255 -0.77284,1.56178 -1.72618,1.56178c-0.95334,0 -1.72618,-0.69923 -1.72618,-1.56178c0,-0.86255 0.77284,-1.56178 1.72618,-1.56178c0.95334,0 1.72618,0.69923 1.72618,1.56178z" fill="#3a211e" stroke="none" stroke-width="0"/><path d="M412.53151,109.09843c0,0.86254 -0.77283,1.56178 -1.72617,1.56178c-0.95334,0 -1.72618,-0.69924 -1.72618,-1.56178c0,-0.86254 0.77283,-1.56178 1.72618,-1.56178c0.95334,0 1.72617,0.69924 1.72617,1.56178z" fill="#3a211e" stroke="none" stroke-width="0"/><path d="M403.88649,114.26283c0,0.86254 -0.77283,1.56178 -1.72618,1.56178c-0.95334,0 -1.72618,-0.69924 -1.72618,-1.56178c0,-0.86254 0.77283,-1.56178 1.72618,-1.56178c0.95334,0 1.72618,0.69924 1.72618,1.56178z" fill="#3a211e" stroke="none" stroke-width="0"/><path d="M417.03832,100.28902c0,0.86254 -0.77283,1.56178 -1.72618,1.56178c-0.95334,0 -1.72617,-0.69924 -1.72617,-1.56178c0,-0.86254 0.77283,-1.56178 1.72617,-1.56178c0.95334,0 1.72618,0.69924 1.72618,1.56178z" fill="#3a211e" stroke="none" stroke-width="0"/></g></g></svg>