<svg version="1.1" xmlns="http://www.w3.org/2000/svg" xmlns:xlink="http://www.w3.org/1999/xlink" width="160.05686" height="64.1021" viewBox="0,0,160.05686,64.1021"><g transform="translate(-281.68576,-200.43709)"><g data-paper-data="{&quot;isPaintingLayer&quot;:true}" fill-rule="nonzero" stroke-width="2.5" stroke-linecap="butt" stroke-linejoin="miter" stroke-miterlimit="10" stroke-dasharray="" stroke-dashoffset="0" style="mix-blend-mode: normal"><path d="M437.06561,263.06895c-11.4707,0.08272 -129.23871,0.31681 -150.76226,0.22025c-2.17536,-0.00976 -3.36759,-1.2252 -3.36759,-1.2252c0,0 -0.43887,-1.85175 0.09143,-3.77588c1.74003,-6.31357 11.65095,-41.09623 14.88458,-52.05008c0.61821,-2.09417 1.28382,-3.17167 1.28382,-3.17167c0,0 1.174,-1.36773 3.29213,-1.3793c18.40169,-0.10045 107.91118,0.16926 118.08937,0.16926c1.86238,0 2.64695,1.21003 2.64695,1.21003c0,0 1.38959,1.2762 1.79368,2.65028c1.59142,5.41164 12.38723,40.42286 15.4749,51.71099c0.60248,2.2026 -0.25248,3.50197 -0.25248,3.50197c0,0 -1.40651,2.12661 -3.17453,2.13936z" data-paper-data="{&quot;index&quot;:null}" fill="#818181" stroke="#3a211e"/><path d="M428.96031,258.02006c-10.31709,0.06968 -116.24108,0.26688 -135.59999,0.18554c-1.95658,-0.00822 -3.02891,-1.03211 -3.02891,-1.03211c0,0 -0.39473,-1.55991 0.08223,-3.1808c1.56503,-5.31854 10.47921,-34.61942 13.38763,-43.84694c0.55604,-1.76413 1.1547,-2.67181 1.1547,-2.67181c0,0 1.05593,-1.15218 2.96103,-1.16192c16.55102,-0.08462 97.05848,0.14259 106.21304,0.14259c1.67508,0 2.38074,1.01933 2.38074,1.01933c0,0 1.24984,1.07507 1.61329,2.23259c1.43137,4.55876 11.14143,34.05218 13.91857,43.56129c0.54189,1.85547 -0.22709,2.95005 -0.22709,2.95005c0,0 -1.26505,1.79146 -2.85526,1.8022z" data-paper-data="{&quot;index&quot;:null}" fill="#707070" stroke="#3a211e"/><path d="M332.78062,240.60401c0,0 -0.86393,-0.25627 -0.86393,-0.58353c0,-1.51769 0.12182,-12.88398 0.28698,-15.70812c0.02355,-0.40263 0.57695,-0.67562 0.57695,-0.67562c0,0 1.15851,-0.22444 2.43348,-0.22444c5.16297,0 39.1307,-0.05277 47.62458,-0.00971c1.21815,0.00617 2.1239,0.23414 2.1239,0.23414c0,0 0.65712,0.34083 0.67279,0.85291c0.09187,3.00242 -0.24083,13.3903 -0.24083,15.17174c0,0.50575 -0.43196,0.94262 -0.43196,0.94262c0,0 -0.93729,0.40787 -2.55591,0.41449c-9.3866,0.03842 -41.6862,-0.23494 -46.97658,-0.23494c-1.43454,0 -2.64947,-0.17955 -2.64947,-0.17955z" fill="#ffde97" stroke="#3a211e"/></g></g></svg>