<svg version="1.1" xmlns="http://www.w3.org/2000/svg" xmlns:xlink="http://www.w3.org/1999/xlink" width="73.92734" height="120.93586" viewBox="0,0,73.92734,120.93586"><g transform="translate(-203.5084,-118.58176)"><g data-paper-data="{&quot;isPaintingLayer&quot;:true}" fill-rule="nonzero" stroke-linecap="butt" stroke-linejoin="miter" stroke-miterlimit="10" stroke-dasharray="" stroke-dashoffset="0" style="mix-blend-mode: normal"><path d="M246.63494,219.59313c1.64542,-1.08158 3.42139,-1.98364 5.26009,-2.68822c0,0 1.53241,-0.57749 2.62236,0.40125c0.37135,0.24231 0.63232,0.53441 0.76047,0.69524c0.97604,0.94092 1.742,2.27908 3.03726,2.57554c0.53075,0.12148 1.01734,-0.40247 1.54997,-0.51543c3.13829,-0.66561 4.92791,-1.18549 7.74199,1.50415c6.90486,6.5995 -5.02939,14.97651 -11.20574,14.45726c-5.58451,-0.4695 -8.29887,-6.96772 -10.99861,-11.0245c0,0 -0.25544,-0.38383 -0.38938,-0.93569c-0.75135,-1.0179 -0.51458,-1.97327 -0.17614,-2.60287c0.15302,-0.31388 0.37097,-0.60015 0.64943,-0.8368zM254.22857,228.8963c0.5959,0.81046 1.32629,1.92649 2.52268,1.9428c2.19851,0.02996 4.38393,-1.97735 6.11109,-3.00295c0.83251,-0.49436 2.54156,-1.26906 1.07565,-2.59197c-1.68264,-1.5185 -4.85737,0.84229 -6.71621,0.41197c-1.09388,-0.25323 -3.42704,-2.15891 -4.84644,-3.33446c-0.64212,0.29118 -1.26967,0.61644 -1.87661,0.97436c1.2178,1.88147 2.40862,3.80329 3.72983,5.60026z" fill="#000000" stroke="none" stroke-width="0.5"/><path d="M250.44809,223.28451c0.60693,-0.35792 1.23853,-0.6946 1.88065,-0.98577c1.4194,1.17556 3.82677,3.06017 4.92065,3.3134c1.85885,0.43032 5.05788,-1.88385 6.7405,-0.36536c1.46591,1.32291 -0.24969,2.12041 -1.08221,2.61476c-1.72716,1.02559 -3.96595,3.05885 -6.16446,3.02889c-1.19639,-0.01631 -1.95285,-1.14446 -2.54874,-1.95492c-1.32121,-1.79696 -2.5286,-3.76954 -3.74639,-5.651z" data-paper-data="{&quot;noHover&quot;:false,&quot;origItem&quot;:[&quot;Path&quot;,{&quot;applyMatrix&quot;:true,&quot;segments&quot;:[[[474.89993,450.30982],[-0.20872,-4.45591],[0.09414,2.0097]],[[476.9475,456.33983],[-1.97393,-1.3528],[3.62734,2.48593]],[[490.4499,458.11125],[-4.01214,-0.20614],[1.93391,0.09936]],[[495.11287,454.98748],[0.97491,3.82694],[-1.11904,-4.39274]],[[483.47386,448.23155],[2.61818,2.77618],[-1.54072,-1.63369]],[[479.09924,437.30959],[1.06073,3.53007],[-1.39176,-0.22668]],[[474.89505,436.85255],[1.40713,0.07657],[-0.05711,4.48202]]],&quot;closed&quot;:true}]}" fill="#635c5e" stroke="none" stroke-width="0.5"/><path d="M223.58178,216.02848c1.85157,0.66998 3.63758,1.55201 5.303,2.60253c0,0 1.3802,0.88136 1.24916,2.34038c0.02834,0.4425 -0.04928,0.82644 -0.10134,1.02537c-0.16898,1.34515 -0.78192,2.75995 -0.24363,3.97479c0.22057,0.4978 0.93159,0.57369 1.34104,0.93258c2.41251,2.11464 3.90062,3.23648 3.43197,7.10088c-1.14993,9.48199 -15.00576,4.94146 -18.28883,-0.31576c-2.96848,-4.75346 0.60995,-10.81889 2.24194,-15.41047c0,0 0.15441,-0.43443 0.51614,-0.8722c0.36519,-1.21131 1.27209,-1.59385 1.97899,-1.69988c0.34301,-0.06543 0.70279,-0.06233 1.05908,0.01894zM220.67914,227.68125c-0.29218,0.96259 -0.74852,2.21589 -0.04508,3.18376c1.29266,1.77859 4.209,2.32661 6.0647,3.09557c0.89448,0.37065 2.5384,1.27536 2.71992,-0.69086c0.20837,-2.25692 -3.58352,-3.38553 -4.35214,-5.13188c-0.45231,-1.02768 -0.32347,-4.03744 -0.23209,-5.87816c-0.61774,-0.33985 -1.25406,-0.64762 -1.90417,-0.91932c-0.77744,2.10203 -1.60333,4.20664 -2.25115,6.34088z" fill="#000000" stroke="none" stroke-width="0.5"/><path d="M222.90918,221.29289c0.65012,0.27171 1.29799,0.57588 1.91573,0.91573c-0.09137,1.84073 -0.15891,4.8973 0.2934,5.92498c0.76861,1.74635 4.53773,2.92231 4.32936,5.17924c-0.18153,1.96622 -1.84764,1.06991 -2.74211,0.69927c-1.8557,-0.76896 -4.82478,-1.34418 -6.11744,-3.12277c-0.70344,-0.96788 -0.25299,-2.24931 0.03918,-3.2119c0.64782,-2.13424 1.50444,-4.28251 2.28188,-6.38454z" data-paper-data="{&quot;noHover&quot;:false,&quot;origItem&quot;:[&quot;Path&quot;,{&quot;applyMatrix&quot;:true,&quot;segments&quot;:[[[237.44997,225.15491],[-0.10436,-2.22795],[0.04707,1.00485]],[[238.47375,228.16991],[-0.98697,-0.6764],[1.81367,1.24296]],[[245.22495,229.05563],[-2.00607,-0.10307],[0.96696,0.04968]],[[247.55643,227.49374],[0.48745,1.91347],[-0.55952,-2.19637]],[[241.73693,224.11577],[1.30909,1.38809],[-0.77036,-0.81685]],[[239.54962,218.65479],[0.53037,1.76503],[-0.69588,-0.11334]],[[237.44753,218.42628],[0.70357,0.03829],[-0.02856,2.24101]]],&quot;closed&quot;:true}]}" fill="#635c5e" stroke="none" stroke-width="0.5"/><path d="M274.93574,175.62512c-0.22422,7.00015 -3.80841,13.41067 -5.67808,19.98546c-0.70102,2.46517 -1.25032,4.5881 -2.46543,6.91017c-1.42094,4.66442 -3.39011,8.91294 -6.31736,12.81573c-1.48162,1.97539 -2.10092,3.58479 -5.18861,3.25096c-2.52588,-0.27309 -4.35116,-2.32765 -4.85437,-4.67916c-0.19694,-0.92031 0.21029,-1.87072 0.34024,-2.80284c0.09865,-0.70755 0.05809,-1.46133 0.3028,-2.12745c-1.02736,-0.04279 -2.19924,-0.07041 -2.92858,-0.76676c-0.97117,-0.92723 -1.42438,-2.3726 -1.57707,-3.70662c-0.48674,-4.25285 5.03453,-7.55072 7.52101,-10.10558c1.97667,-3.88002 2.53132,-8.0129 3.04583,-12.18699c0.1576,-1.27859 0.84566,-2.52578 0.68375,-3.80384c-0.21716,-1.71404 -1.12644,-2.29059 -1.1406,-4.1861c-0.01893,-2.53615 1.29574,-5.22935 2.42514,-7.40983c2.23977,-4.32426 8.27419,-11.0824 7.61422,-9.39713c0.11056,2.28679 6.61942,8.33196 7.21485,10.53924c0,0 1.07806,5.30412 1.00226,7.67075z" data-paper-data="{&quot;index&quot;:null}" fill="#635c5e" stroke="#000000" stroke-width="5"/><path d="M265.27143,166.45405c0,27.58387 2.66862,53.52672 -17.11263,53.52672c-7.24062,0 -27.16183,1.49219 -31.84959,-2.50995c-8.11913,-6.93163 -3.17161,-30.3458 -3.17161,-47.83302c0,-10.78279 -4.35975,-20.41962 -3.15631,-30.58269c0.57927,-4.89194 9.56438,-15.04058 20.32211,-17.97334c7.20297,-1.96367 15.63972,1.28363 21.24943,4.17213c13.13274,6.76219 13.71859,33.07484 13.71859,41.20015z" fill="#635c5e" stroke="#000000" stroke-width="5"/><path d="M220.05176,155.11021c0,-9.95445 8.06967,-18.02412 18.02412,-18.02412c9.95445,0 18.02412,8.06967 18.02412,18.02412c0,9.95445 -8.06967,18.02412 -18.02412,18.02412c-9.95445,0 -18.02412,-8.06967 -18.02412,-18.02412z" fill="#fc6fb4" stroke="#000000" stroke-width="5"/><path d="M241.10097,155.05651c0,3.501 -1.5542,6.33912 -3.47142,6.33912c-1.91721,0 -3.47142,-2.83812 -3.47142,-6.33912c0,-3.501 1.5542,-6.33911 3.47142,-6.33911c1.91721,0 3.47142,2.83811 3.47142,6.33911z" fill="#000000" stroke="none" stroke-width="0"/><path d="M250.62892,154.92485c0,3.501 -1.55421,6.33912 -3.47143,6.33912c-1.91721,0 -3.47142,-2.83812 -3.47142,-6.33912c0,-3.501 1.5542,-6.33911 3.47142,-6.33911c1.91722,0 3.47143,2.83811 3.47143,6.33911z" fill="#000000" stroke="none" stroke-width="0"/><path d="M205.72256,172.84605c-1.34952,-1.20602 -0.21821,-2.70599 -0.21821,-2.70599l1.99418,-2.21388c4.88357,-1.97085 8.16752,0.44071 12.11782,3.28869c1.99191,1.43608 4.38056,3.24605 5.50826,5.51777c0.84285,1.69788 0.29163,2.62274 0.87142,4.2503c0.43231,1.21357 1.60919,2.01599 2.32687,3.08583c2.34296,3.49261 4.70316,6.93033 8.21817,9.50062c3.3719,1.15768 9.78726,1.60875 11.27229,5.62352c0.46582,1.25933 0.7137,2.75368 0.26553,4.01941c-0.33658,0.95057 -1.36984,1.50409 -2.26731,2.00594c0.51901,0.48397 0.823,1.17493 1.23036,1.7618c0.53664,0.77315 1.32898,1.43748 1.56859,2.34761c0.61223,2.3255 -0.08933,4.9827 -2.22009,6.36636c-2.60469,1.69142 -3.88367,0.53475 -6.09734,-0.55934c-4.37357,-2.16161 -8.04821,-5.06413 -11.42132,-8.58519c-2.13231,-1.52374 -3.5806,-3.17026 -5.31873,-5.05371c-4.63572,-5.0233 -10.72728,-9.12623 -14.08663,-15.27172c-1.13574,-2.07768 -2.08471,-4.97238 -2.56755,-7.29745c-0.46484,-2.23842 -0.24289,-3.99003 -1.17629,-6.08059z" fill="#635c5e" stroke="#000000" stroke-width="5"/></g></g></svg>