<svg version="1.1" xmlns="http://www.w3.org/2000/svg" xmlns:xlink="http://www.w3.org/1999/xlink" width="109.20314" height="122.34053" viewBox="0,0,109.20314,122.34053"><g transform="translate(-180.33197,-118.98741)"><g data-paper-data="{&quot;isPaintingLayer&quot;:true}" fill-rule="nonzero" stroke-linecap="butt" stroke-linejoin="miter" stroke-miterlimit="10" stroke-dasharray="" stroke-dashoffset="0" style="mix-blend-mode: normal"><path d="M245.20899,219.17906c1.92597,-0.40972 3.90832,-0.60477 5.87736,-0.59304c0,0 1.63751,0.01884 2.29729,1.32674c0.25791,0.36069 0.3949,0.72765 0.45584,0.92405c0.5674,1.23127 0.79474,2.75629 1.89373,3.50316c0.45032,0.30604 1.09404,-0.00528 1.63131,0.08304c3.16563,0.52029 5.02183,0.68626 6.66617,4.21462c4.03471,8.65746 -10.12778,12.12514 -15.69323,9.397c-5.03215,-2.46671 -5.19962,-9.50707 -6.24065,-14.26756c0,0 -0.0985,-0.45041 -0.02275,-1.01322c-0.3301,-1.22134 0.23764,-2.02537 0.78173,-2.48894c0.25662,-0.23682 0.5637,-0.42431 0.90911,-0.54361zM248.90291,230.60566c0.26065,0.9716 0.53557,2.27675 1.64426,2.72669c2.03733,0.82681 4.80278,-0.24914 6.78456,-0.57701c0.95524,-0.15804 2.82897,-0.25875 1.944,-2.02391c-1.01582,-2.02614 -4.83139,-0.98036 -6.4068,-2.05674c-0.92708,-0.63341 -2.40826,-3.25665 -3.30346,-4.86763c-0.70403,0.03794 -1.40688,0.11292 -2.10239,0.22583c0.45086,2.19538 0.86192,4.41855 1.43983,6.57278z" fill="#000000" stroke="none" stroke-width="0.5"/><path d="M247.42008,224.00374c0.69551,-0.1129 1.40627,-0.19706 2.1103,-0.23499c0.89519,1.61099 2.45316,4.24156 3.38025,4.87497c1.57541,1.07638 5.39668,0.08287 6.41249,2.109c0.88498,1.76516 -1.00314,1.88473 -1.95839,2.04276c-1.98177,0.32787 -4.80637,1.4086 -6.8437,0.58179c-1.10868,-0.44994 -1.40347,-1.77585 -1.66413,-2.74745c-0.57791,-2.15423 -0.98597,-4.43071 -1.43682,-6.62607z" data-paper-data="{&quot;noHover&quot;:false,&quot;origItem&quot;:[&quot;Path&quot;,{&quot;applyMatrix&quot;:true,&quot;segments&quot;:[[[474.89993,450.30982],[-0.20872,-4.45591],[0.09414,2.0097]],[[476.9475,456.33983],[-1.97393,-1.3528],[3.62734,2.48593]],[[490.4499,458.11125],[-4.01214,-0.20614],[1.93391,0.09936]],[[495.11287,454.98748],[0.97491,3.82694],[-1.11904,-4.39274]],[[483.47386,448.23155],[2.61818,2.77618],[-1.54072,-1.63369]],[[479.09924,437.30959],[1.06073,3.53007],[-1.39176,-0.22668]],[[474.89505,436.85255],[1.40713,0.07657],[-0.05711,4.48202]]],&quot;closed&quot;:true}]}" fill="#00a769" stroke="none" stroke-width="0.5"/><path d="M229.36898,217.385c1.37726,1.40726 2.6034,2.97708 3.64778,4.64636c0,0 0.86085,1.39309 0.10951,2.65062c-0.16653,0.41094 -0.40312,0.72314 -0.53636,0.87976c-0.7361,1.13848 -1.90238,2.14702 -1.94475,3.4751c-0.01736,0.5442 0.59024,0.92119 0.80333,1.42223c1.25554,2.9522 2.10923,4.60877 0.00968,7.88675c-5.15163,8.04308 -15.66336,-2.06157 -16.33914,-8.22276c-0.61102,-5.57081 5.24546,-9.48186 8.70867,-12.90999c0,0 0.32767,-0.32435 0.84356,-0.56172c0.85477,-0.93274 1.83782,-0.88373 2.52069,-0.67242c0.33742,0.08994 0.66019,0.24889 0.94589,0.47676zM221.69612,226.62295c-0.68103,0.74036 -1.63614,1.67137 -1.42253,2.84864c0.39254,2.16339 2.78197,3.92294 4.11998,5.42116c0.64495,0.72217 1.73324,2.25076 2.75022,0.5582c1.16733,-1.94279 -1.75886,-4.60541 -1.69329,-6.5123c0.03859,-1.12215 1.46104,-3.77768 2.34234,-5.3963c-0.409,-0.57429 -0.84867,-1.12776 -1.31641,-1.65471c-1.61277,1.55625 -3.27032,3.09378 -4.7803,4.73531z" fill="#000000" stroke="none" stroke-width="0.5"/><path d="M226.47803,221.83571c0.46775,0.52696 0.91938,1.0822 1.32838,1.65649c-0.88129,1.61863 -2.26884,4.34295 -2.30742,5.46509c-0.06557,1.90689 2.81955,4.60229 1.65221,6.54508c-1.01698,1.69255 -2.12891,0.1619 -2.77385,-0.56026c-1.33801,-1.49822 -3.76315,-3.30515 -4.15568,-5.46855c-0.21362,-1.17728 0.7484,-2.13619 1.42943,-2.87655c1.50998,-1.64153 3.21416,-3.20506 4.82694,-4.76131z" data-paper-data="{&quot;noHover&quot;:false,&quot;origItem&quot;:[&quot;Path&quot;,{&quot;applyMatrix&quot;:true,&quot;segments&quot;:[[[237.44997,225.15491],[-0.10436,-2.22795],[0.04707,1.00485]],[[238.47375,228.16991],[-0.98697,-0.6764],[1.81367,1.24296]],[[245.22495,229.05563],[-2.00607,-0.10307],[0.96696,0.04968]],[[247.55643,227.49374],[0.48745,1.91347],[-0.55952,-2.19637]],[[241.73693,224.11577],[1.30909,1.38809],[-0.77036,-0.81685]],[[239.54962,218.65479],[0.53037,1.76503],[-0.69588,-0.11334]],[[237.44753,218.42628],[0.70357,0.03829],[-0.02856,2.24101]]],&quot;closed&quot;:true}]}" fill="#00a769" stroke="none" stroke-width="0.5"/><path d="M272.71369,173.39011c-1.76929,1.44783 -10.58088,2.57271 -12.00227,4.3675c-0.44471,1.7544 -1.41571,-7.25359 -0.7188,-12.07335c0.35141,-2.43034 0.85072,-5.3854 2.34281,-7.43627c1.11519,-1.53281 2.19014,-1.4721 3.36471,-2.73918c0.8758,-0.94479 1.0426,-2.35939 1.65894,-3.49065c2.01211,-3.69313 3.96759,-7.37612 4.61974,-11.68152c-0.53392,-3.52489 -3.1025,-9.42089 -0.23051,-12.59505c0.90088,-0.99566 2.11093,-1.90686 3.44038,-2.09523c0.99842,-0.14147 1.96724,0.51842 2.8274,1.08182c0.1889,-0.68404 0.66077,-1.27325 0.99255,-1.90593c0.43709,-0.83348 0.6594,-1.84328 1.35537,-2.47682c1.7783,-1.61878 4.45854,-2.22636 6.6711,-0.97766c2.70468,1.52644 2.27108,3.19547 2.32545,5.66416c0.10742,4.87741 -0.76539,9.47803 -2.32607,14.09757c-0.36416,2.59536 -1.15368,4.64115 -2.01912,7.05351c-2.3082,6.43395 -3.12684,13.73265 -7.02046,19.55434c-1.31637,1.96821 -5.28122,5.65276 -5.28122,5.65276z" data-paper-data="{&quot;index&quot;:null}" fill="#00a769" stroke="#000000" stroke-width="5"/><path d="M214.13137,160.29787c0.82967,-1.60852 2.56513,-0.88886 2.56513,-0.88886l2.6427,1.37628c3.13094,4.23447 1.61853,8.01767 -0.14953,12.55527c-0.89154,2.28806 -2.04572,5.05383 -3.96267,6.71446c-1.43273,1.24115 -2.46616,0.93909 -3.89668,1.90796c-1.06665,0.72242 -1.54881,2.06274 -2.40485,3.02545c-2.79464,3.14289 -5.53183,6.28872 -7.14006,10.33536c-0.27645,3.55436 0.89329,9.87829 -2.62171,12.32133c-1.10257,0.76632 -2.48724,1.3805 -3.82487,1.26356c-1.00457,-0.08783 -1.79919,-0.94957 -2.50979,-1.69278c-0.33858,0.62366 -0.93141,1.09099 -1.39758,1.63233c-0.61414,0.71314 -1.05889,1.64659 -1.88003,2.10647c-2.0981,1.17504 -4.84632,1.16121 -6.71946,-0.55519c-2.28976,-2.09816 -1.49021,-3.62603 -0.98529,-6.04315c0.99757,-4.77551 2.88747,-9.05989 5.45171,-13.20723c0.94125,-2.44593 2.17266,-4.26038 3.56086,-6.41476c3.70245,-5.7459 6.14929,-12.67078 11.25779,-17.46198c1.72709,-1.61982 4.29194,-3.2634 6.42203,-4.31307c2.05071,-1.01055 3.80209,-1.23428 5.59231,-2.66143z" fill="#00a769" stroke="#000000" stroke-width="5"/><path d="M266.05692,166.85969c0,27.58387 2.66862,53.52672 -17.11263,53.52672c-7.24062,0 -27.16183,1.49219 -31.84959,-2.50995c-8.11913,-6.93163 -3.17161,-30.3458 -3.17161,-47.83302c0,-10.78279 -4.35975,-20.41962 -3.15631,-30.58269c0.57927,-4.89194 9.56438,-15.04058 20.32211,-17.97334c7.20297,-1.96367 15.63972,1.28363 21.24943,4.17213c13.13274,6.76219 13.71859,33.07484 13.71859,41.20015z" fill="#00a769" stroke="#000000" stroke-width="5"/><path d="M220.83725,154.40999c0,-9.95445 8.06967,-18.02412 18.02412,-18.02412c9.95445,0 18.02412,8.06967 18.02412,18.02412c0,9.95445 -8.06967,18.02412 -18.02412,18.02412c-9.95445,0 -18.02412,-8.06967 -18.02412,-18.02412z" fill="#ffaa83" stroke="#000000" stroke-width="5"/><path d="M239.67469,151.03864c0,3.501 -1.5542,6.33912 -3.47142,6.33912c-1.91721,0 -3.47142,-2.83812 -3.47142,-6.33912c0,-3.501 1.5542,-6.33911 3.47142,-6.33911c1.91721,0 3.47142,2.83811 3.47142,6.33911z" fill="#000000" stroke="none" stroke-width="0"/><path d="M249.20264,150.90697c0,3.501 -1.55421,6.33912 -3.47142,6.33912c-1.91721,0 -3.47142,-2.83812 -3.47142,-6.33912c0,-3.501 1.5542,-6.33911 3.47142,-6.33911c1.91721,0 3.47142,2.83811 3.47142,6.33911z" fill="#000000" stroke="none" stroke-width="0"/></g></g></svg>