<svg version="1.1" xmlns="http://www.w3.org/2000/svg" xmlns:xlink="http://www.w3.org/1999/xlink" width="443" height="235.58671" viewBox="0,0,443,235.58671"><g transform="translate(-70.5,-38.41329)"><g data-paper-data="{&quot;isPaintingLayer&quot;:true}" fill-rule="nonzero" stroke-linecap="butt" stroke-linejoin="miter" stroke-miterlimit="10" stroke-dasharray="" stroke-dashoffset="0" style="mix-blend-mode: normal"><path d="M189.5,249.06306v-42.06306h323v42.06306h-99.40531c-44.96193,-0.07359 -89.92402,-0.07545 -134.88592,0z" fill="#ffae66" stroke="#df9859" stroke-width="2"/><path d="M71.5,273v-28h87v28z" fill="#fff866" stroke="#f2eb61" stroke-width="2"/><path d="M248.5,68.06306v-28.64977h220v28.64977z" fill="#ffae66" stroke="#df9859" stroke-width="2"/><path d="M191.43024,247.87722l-2.1338,-2.1338c0.03591,-8.31194 -0.01962,-16.62454 -0.15942,-24.9349l14.84601,-14.84601c2.24197,0.00773 4.48395,0.01531 6.72592,0.02273l11.30663,11.30663z" fill="#df9859" stroke="none" stroke-width="0"/><path d="M193.47967,218.0182l12.05038,-12.05038c1.75964,0.00601 3.51928,0.01193 5.27892,0.01775l27.937,27.937l-14.68096,14.68096z" data-paper-data="{&quot;index&quot;:null}" fill="#df9859" stroke="none" stroke-width="0"/><path d="M252.58731,246.76008l-2.35997,2.35997c-8.19175,0.01964 -16.38349,0.04188 -24.57523,0.06676l-18.33111,-18.33111l14.68096,-14.68096z" data-paper-data="{&quot;index&quot;:null}" fill="#df9859" stroke="none" stroke-width="0"/><path d="M254.63674,215.44841l14.68096,14.68096l-18.99044,18.99044c-7.70917,0.01846 -15.41833,0.03922 -23.12747,0.06233l-3.14839,-3.14839z" data-paper-data="{&quot;index&quot;:null}" fill="#df9859" stroke="none" stroke-width="0"/><path d="M252.71246,246.44083l-14.68096,-14.68096l25.62834,-25.62834c3.31163,0.00731 6.62326,0.01428 9.93489,0.0209l9.70306,9.70306z" fill="#df9859" stroke="none" stroke-width="0"/><path d="M254.76188,216.58181l10.44689,-10.44689c2.82862,0.00615 5.65723,0.01206 8.48585,0.0177l26.33357,26.33357l-14.68096,14.68096z" data-paper-data="{&quot;index&quot;:null}" fill="#df9859" stroke="none" stroke-width="0"/><path d="M313.86953,245.32369l-3.69868,3.69868c-7.31314,0.00636 -14.62628,0.01474 -21.93941,0.02515l-19.62821,-19.62821l14.68096,-14.68096z" data-paper-data="{&quot;index&quot;:null}" fill="#df9859" stroke="none" stroke-width="0"/><path d="M315.91896,214.01202l14.68096,14.68096l-20.32931,20.32931c-6.82967,0.00593 -13.65934,0.0136 -20.48901,0.02306l-4.44798,-4.44798z" data-paper-data="{&quot;index&quot;:null}" fill="#df9859" stroke="none" stroke-width="0"/><path d="M313.70089,246.00829l-14.68096,-14.68096l25.10132,-25.10132c3.6589,0.00333 7.31779,0.00622 10.97669,0.00866l9.18828,9.18828z" fill="#df9859" stroke="none" stroke-width="0"/><path d="M315.75031,216.14927l9.92188,-9.92188c3.17517,0.00278 6.35034,0.00523 9.5255,0.00735l25.81892,25.81892l-14.68096,14.68096z" data-paper-data="{&quot;index&quot;:null}" fill="#df9859" stroke="none" stroke-width="0"/><path d="M374.85797,244.89115l-4.12398,4.12398c-7.04056,-0.00438 -14.08113,-0.00696 -21.12169,-0.00772l-20.02063,-20.02063l14.68096,-14.68096z" data-paper-data="{&quot;index&quot;:null}" fill="#df9859" stroke="none" stroke-width="0"/><path d="M376.90739,213.57948l14.68096,14.68096l-20.75475,20.75475c-6.55626,-0.0041 -13.11251,-0.00663 -19.66877,-0.00759l-4.84278,-4.84278z" data-paper-data="{&quot;index&quot;:null}" fill="#df9859" stroke="none" stroke-width="0"/><path d="M374.9831,244.5719l-14.68096,-14.68096l23.65006,-23.65006c4.62086,-0.00194 9.24172,-0.0046 13.86258,-0.00798l7.75366,7.75366z" fill="#df9859" stroke="none" stroke-width="0"/><path d="M377.03252,214.71288l8.47268,-8.47268c4.1364,-0.00188 8.27279,-0.00434 12.40919,-0.00738l24.38444,24.38444l-14.68096,14.68096z" data-paper-data="{&quot;index&quot;:null}" fill="#df9859" stroke="none" stroke-width="0"/><path d="M436.14018,243.45477l-5.64035,5.64035c-6.03814,-0.01236 -12.07629,-0.02343 -18.11444,-0.03321l-21.51152,-21.51152l14.68096,-14.68096z" data-paper-data="{&quot;index&quot;:null}" fill="#df9859" stroke="none" stroke-width="0"/><path d="M434.5136,244.46803l-14.92274,-14.43918l23.50818,-23.85263c6.36371,-0.01129 12.72742,-0.02399 19.09112,-0.03812l5.0849,5.08489z" fill="#df9859" stroke="none" stroke-width="0"/><path d="M438.73913,211.94934l5.77566,-5.77565c5.92494,-0.01071 11.84988,-0.02264 17.77481,-0.03581l21.71584,21.71584l-14.68096,14.68097z" data-paper-data="{&quot;index&quot;:null}" fill="#df9859" stroke="none" stroke-width="0"/><path d="M497.84678,240.69122l-8.56417,8.56416c-4.0912,-0.01391 -8.1824,-0.02724 -12.27361,-0.04001l-24.42853,-24.42853l14.68096,-14.68096z" data-paper-data="{&quot;index&quot;:null}" fill="#df9859" stroke="none" stroke-width="0"/><path d="M499.8962,209.37955l13.06054,13.06056c0.00279,1.07637 0.00669,2.15274 0.01171,3.22911l-23.5865,23.5865c-3.60525,-0.01226 -7.21049,-0.02408 -10.81575,-0.03546l-9.25536,-9.25535z" data-paper-data="{&quot;index&quot;:null}" fill="#df9859" stroke="none" stroke-width="0"/><path d="M497.97192,240.37197l-14.68096,-14.68097l19.66307,-19.66307c3.34958,-0.01068 6.69916,-0.02176 10.04873,-0.03325c-0.05341,6.46042 -0.06456,12.92137 -0.03565,19.38209z" fill="#df9859" stroke="none" stroke-width="0"/><path d="M500.02134,210.51295l4.49001,-4.49001c2.83047,-0.00913 5.66094,-0.01855 8.49141,-0.02825c-0.04811,5.81862 -0.06193,11.63768 -0.04308,17.4566z" data-paper-data="{&quot;index&quot;:null}" fill="#df9859" stroke="none" stroke-width="0"/></g></g></svg>