<svg version="1.1" xmlns="http://www.w3.org/2000/svg" xmlns:xlink="http://www.w3.org/1999/xlink" width="794.48902" height="632.80837" viewBox="0,0,794.48902,632.80837"><g transform="translate(104.60853,239.68347)"><g data-paper-data="{&quot;isPaintingLayer&quot;:true}" fill-rule="nonzero" stroke-linecap="butt" stroke-linejoin="miter" stroke-miterlimit="10" stroke-dasharray="" stroke-dashoffset="0" style="mix-blend-mode: normal"><path d="M406.43772,392.12491v-63.43699h46.19191v63.43699z" fill="#4ba7fa" stroke="#3b85c6" stroke-width="2"/><path d="M109.42616,367.70063v-28.40462h124.83314c17.68018,0.03622 35.36045,0.03686 53.04061,0h90.66152v28.40462z" fill="#ff76ca" stroke="#cb067f" stroke-width="2"/><path d="M72.50014,371.48791v-108.88439h40.71329v108.88439z" fill="#ff76ca" stroke="#cb067f" stroke-width="2"/><path d="M-103.50217,211.47518v-52.07514h49.23468v52.07514z" fill="#ff76ca" stroke="#cb067f" stroke-width="2"/><path d="M181.43772,271.12487v-63.43699h32.19191v63.43699z" fill="#4ba7fa" stroke="#3b85c6" stroke-width="2"/><path d="M181.38454,226.62432v-35.97919h194.09827v35.97919z" fill="#4ba7fa" stroke="#3b85c6" stroke-width="2"/><path d="M449.33483,374.32837v-128.76763h29.35144v128.76763z" fill="#ff76ca" stroke="#cb067f" stroke-width="2"/><path d="M67.65968,123.42085v-56.80925h57.75607v56.80925z" fill="#ff76ca" stroke="#cb067f" stroke-width="2"/><path d="M122.68165,9.80233v-27.4578h105.09711v27.4578z" fill="#4ba7fa" stroke="#3b85c6" stroke-width="2"/><path d="M212.62962,-64.04967v-23.67052h72.9052v23.67052z" fill="#4ba7fa" stroke="#3b85c6" stroke-width="2"/><path d="M398.2065,-54.58146v-29.35145h290.67399v29.35145z" fill="#ff76ca" stroke="#cb067f" stroke-width="2"/><path d="M369.80188,370.91334v-76.11792h38.81965v76.11792z" fill="#ff76ca" stroke="#cb067f" stroke-width="2"/><path d="M-4.19234,136.67631v-29.35145h129.71445v29.35145z" fill="#4ba7fa" stroke="#3b85c6" stroke-width="2"/><path d="M-103.60853,234.19888v-27.4578h106.04393v27.4578z" fill="#4ba7fa" stroke="#3b85c6" stroke-width="2"/><path d="M-47.8663,207.94658l3.40041,-2.45772c0.77276,0.22768 1.58443,0.36453 2.42266,0.3982c0.13947,0.00191 0.27593,0.00436 0.40838,0.00819c7.3121,0.21137 14.62999,0.30093 21.94649,0.25617l20.55213,28.43514c-9.77347,-0.05999 -19.5483,0.01645 -29.31902,0.21642z" fill="#3b85c6" stroke="none" stroke-width="0"/><path d="M2.1337,136.93813l21.5272,-29.78421c7.79658,0.11816 15.59719,0.05642 23.38847,-0.20605c0.2123,0 0.42305,-0.00662 0.63206,-0.01965c0.34848,-0.01124 0.70483,-0.02545 1.06009,-0.05245l3.01883,2.18193l-20.62683,28.53849c-9.41476,-0.12896 -18.83141,-0.16952 -28.24716,-0.11404z" data-paper-data="{&quot;index&quot;:null}" fill="#3b85c6" stroke="none" stroke-width="0"/><path d="M218.80037,191.27993l2.2887,-1.6542c8.75671,0.05937 17.51354,0.10839 26.27043,0.14672l27.82856,37.77729c-9.95045,0.04725 -19.90079,0.10997 -29.85093,0.18761c-0.06185,0 -0.12356,0.00056 -0.18513,0.00168z" fill="#3b85c6" stroke="none" stroke-width="0"/><path d="M272.1337,190.72437l1.20348,-0.86984c9.16306,0.01768 18.32616,0.02332 27.48923,0.01654l26.6842,37.57595c-9.60674,-0.00846 -19.2135,-0.00155 -28.82021,0.02019z" fill="#3b85c6" stroke="none" stroke-width="0"/><path d="M328.80037,191.27993l2.04214,-1.476c8.73339,-0.03274 17.46672,-0.07713 26.19994,-0.13349l19.42392,27.08622c-0.02315,0.18664 -0.04117,0.37489 -0.0539,0.56458c-0.00527,0.23433 -0.01152,0.4622 -0.0227,0.67927c-0.10564,2.05046 -0.57738,5.65773 -0.7081,9.62002c-6.89748,-0.04396 -13.79504,-0.07957 -20.69265,-0.107z" fill="#3b85c6" stroke="none" stroke-width="0"/><path d="M183.80037,10.27146l20.72511,-28.67447c8.02254,0.01964 16.04503,0.0302 24.06743,0.02091c-0.14328,1.40285 0.0172,3.15536 0.30519,4.92383c-0.13273,0.64986 -0.20243,1.32265 -0.20243,2.01173c0,0.12527 0.0023,0.25001 0.00687,0.37417l-15.52783,21.48371c-9.74577,-0.03775 -19.49169,-0.05109 -29.23758,-0.04103z" data-paper-data="{&quot;index&quot;:null}" fill="#3b85c6" stroke="none" stroke-width="0"/><path d="M127.1337,10.82703l21.23435,-29.37904c8.7982,0.00373 17.59649,0.02675 26.39479,0.05486l1.9975,1.44374l-19.88423,27.51106c-8.95509,0.04829 -17.91002,0.11558 -26.86466,0.20109c-0.14522,0 -0.28972,0.0031 -0.43343,0.00922c-0.87691,0.0294 -1.62877,0.12262 -2.28172,0.2766z" data-paper-data="{&quot;index&quot;:null}" fill="#3b85c6" stroke="none" stroke-width="0"/><path d="M258.33338,-63.05504l18.21858,-25.20653c3.54723,-0.00158 7.09446,-0.00629 10.64167,-0.0142c-0.14873,8.1528 -0.07834,16.31156 0.18624,24.45998c0,0.29688 0.01294,0.59073 0.03828,0.88104c-9.69475,-0.06421 -19.38973,-0.1043 -29.08477,-0.12028z" data-paper-data="{&quot;index&quot;:null}" fill="#3b85c6" stroke="none" stroke-width="0"/><path d="M231.53124,-63.03779c-6.65044,0.01952 -13.30083,0.05039 -19.95111,0.09261c0.03062,-4.39961 0.01257,-8.79978 -0.05144,-13.19895l8.92439,-12.34745c9.78079,0.08333 19.56189,0.14469 29.34312,0.18307z" data-paper-data="{&quot;index&quot;:null}" fill="#3b85c6" stroke="none" stroke-width="0"/><path d="M-103.29603,190.55061v-15h49.79167v15z" fill="#cb0680" stroke="none" stroke-width="0"/><path d="M67.79772,94.27016v-15h57.5v15z" fill="#cb0680" stroke="none" stroke-width="0"/><path d="M72.48522,302.74987v-17.8125h40.9375v17.8125z" fill="#cb0680" stroke="none" stroke-width="0"/><path d="M72.48522,341.81241v-17.8125h40.9375v17.8125z" fill="#cb0680" stroke="none" stroke-width="0"/><path d="M210.60023,347.64457l-12.59534,12.59534l-21.18434,-21.18434c8.44214,0.05303 16.88435,0.09841 25.32662,0.13594z" fill="#cb0680" stroke="none" stroke-width="0"/><path d="M181.65305,318.69739l0.272,0.272c-0.18242,0.00108 -0.36483,0.00216 -0.54725,0.00325z" fill="#cb0680" stroke="none" stroke-width="0"/><path d="M169.68271,364.20708l25.05054,-25.05054c2.61003,0.01302 5.22007,0.02529 7.83011,0.03682l8.66188,8.66188l-20.76226,20.76225c-5.3345,0.02832 -10.66897,0.05954 -16.00341,0.09362c-0.09004,0 -0.17981,0.00119 -0.26928,0.00356z" fill="#cb0680" stroke="none" stroke-width="0"/><path d="M284.35023,347.95708l-12.59534,12.59534l-21.23318,-21.23318c8.39542,0.00675 16.79085,0.00535 25.18627,-0.00441z" fill="#cb0680" stroke="none" stroke-width="0"/><path d="M243.43271,364.51958l25.1985,-25.1985c2.49687,-0.00151 4.99374,-0.00376 7.49061,-0.00674l8.85341,8.85341l-20.24778,20.24777c-5.79555,0.00038 -11.5911,0.00445 -17.38665,0.01215z" fill="#cb0680" stroke="none" stroke-width="0"/><path d="M351.85023,347.95708l-12.59534,12.59534l-21.35799,-21.35799c8.35014,-0.03814 16.70023,-0.08489 25.05023,-0.14045z" fill="#cb0680" stroke="none" stroke-width="0"/><path d="M310.93271,364.51958l25.42357,-25.42357c2.33415,-0.01424 4.6683,-0.02916 7.00244,-0.04477l9.11651,9.11651l-20.41284,20.41283c-5.71443,-0.0287 -11.42889,-0.05358 -17.14337,-0.0747z" fill="#cb0680" stroke="none" stroke-width="0"/><path d="M370.29772,324.93737v-17.8125h38.4375v17.8125z" fill="#cb0680" stroke="none" stroke-width="0"/><path d="M449.67272,278.68737v-17.8125h29.6875v17.8125z" fill="#cb0680" stroke="none" stroke-width="0"/><path d="M449.36022,312.74987v-17.8125h29.6875v17.8125z" fill="#cb0680" stroke="none" stroke-width="0"/><path d="M449.67272,351.81241v-17.8125h29.6875v17.8125z" fill="#cb0680" stroke="none" stroke-width="0"/><path d="M412.55037,-55.42297l21.15117,-29.26396c8.90465,0.04166 17.80933,0.07849 26.71405,0.1104l1.76143,1.27311l-21.11112,29.20853c-8.83746,0.03483 -17.67489,0.07481 -26.51227,0.11981z" data-paper-data="{&quot;index&quot;:null}" fill="#cb067f" stroke="none" stroke-width="0"/><path d="M466.30037,-54.92296l21.37337,-29.57137c8.66055,0.02116 17.32112,0.03755 25.9817,0.04909l2.27159,1.64184l-20.64257,28.56027c-9.32018,0.01407 -18.64035,0.03411 -27.9605,0.05999z" data-paper-data="{&quot;index&quot;:null}" fill="#cb067f" stroke="none" stroke-width="0"/><path d="M527.55037,-54.42296l21.68493,-30.00244c8.32628,-0.00186 16.65256,-0.00834 24.97882,-0.01951l2.9629,2.1415l-20.27787,28.05568c-9.71135,-0.01343 -19.42271,-0.02007 -29.13408,-0.02005z" data-paper-data="{&quot;index&quot;:null}" fill="#cb067f" stroke="none" stroke-width="0"/><path d="M630.92702,-81.8034l-20.02183,27.70143c-9.80172,-0.03952 -19.60348,-0.07183 -29.40527,-0.09709l21.90316,-30.30437c7.89425,-0.0211 15.78848,-0.04652 23.68269,-0.07632z" data-paper-data="{&quot;index&quot;:null}" fill="#cb067f" stroke="none" stroke-width="0"/><path d="M253.20756,144.00253v-69.18697h40.04227v69.18697z" fill="#68e9fa" stroke="#3b85c6" stroke-width="6"/><path d="M269.71394,72.03745v-7.80571h5.03178v7.80571z" fill="#3b85c6" stroke="#3b85c6" stroke-width="6"/><path d="M271.4843,62.20192c0,0 -10.95124,7.05931 -24.46029,7.05931c-13.50905,0 -24.46029,-3.16056 -24.46029,-7.05931c0,-3.89875 10.95124,-7.05931 24.46029,-7.05931c13.50905,0 24.46029,7.05931 24.46029,7.05931z" fill="#a9f1fa" stroke="#3b85c6" stroke-width="2.5"/><path d="M295.76473,55.23253c13.50905,0 24.46028,3.16057 24.46028,7.05931c0,3.89875 -10.95124,7.05931 -24.46028,7.05931c-13.50904,0 -24.46029,-7.05931 -24.46029,-7.05931c0,0 10.95125,-7.05931 24.46029,-7.05931z" data-paper-data="{&quot;index&quot;:null}" fill="#a9f1fa" stroke="#3b85c6" stroke-width="2.5"/><path d="M278.77969,112.38113l-16.33885,-20.56251l5.39909,-4.29009l16.33885,20.56251z" fill="#3b85c6" stroke="none" stroke-width="0"/><path d="M283.88534,107.95825l-16.33886,20.56251l-5.39909,-4.2901l16.33886,-20.56251z" data-paper-data="{&quot;index&quot;:null}" fill="#3b85c6" stroke="none" stroke-width="0"/><path d="M525.10543,-161.279v-60.26767h34.88018v60.26767z" fill="#ff76ca" stroke="#cb0680" stroke-width="6"/><path d="M539.21405,-224.14009v-6.79943h4.3831v6.79943z" fill="#cb0680" stroke="#cb0680" stroke-width="6"/><path d="M541.026,-232.53421c0,0 -9.53945,6.14925 -21.30697,6.14925c-11.76751,0 -21.30697,-2.75311 -21.30697,-6.14925c0,-3.39614 9.53945,-6.14926 21.30697,-6.14926c11.76752,0 21.30697,6.14926 21.30697,6.14926z" fill="#ffbae4" stroke="#cb0680" stroke-width="2"/><path d="M562.1763,-238.60513c11.76752,0 21.30696,2.75311 21.30696,6.14925c0,3.39614 -9.53945,6.14925 -21.30696,6.14925c-11.76751,0 -21.30696,-6.14925 -21.30696,-6.14925c0,0 9.53945,-6.14925 21.30696,-6.14925z" data-paper-data="{&quot;index&quot;:null}" fill="#ffbae4" stroke="#cb0680" stroke-width="2"/><path d="M547.33185,-188.82389l-14.23252,-17.91168l4.70306,-3.73703l14.23252,17.91168z" fill="#cb0680" stroke="#cb0680" stroke-width="0"/><path d="M551.7793,-192.6766l-14.23253,17.91168l-4.70306,-3.73703l14.23252,-17.91168z" data-paper-data="{&quot;index&quot;:null}" fill="#cb0680" stroke="#cb0680" stroke-width="0"/></g></g></svg>