<svg version="1.1" xmlns="http://www.w3.org/2000/svg" xmlns:xlink="http://www.w3.org/1999/xlink" width="635" height="130" viewBox="0,0,635,130"><g transform="translate(1.5,-132)"><g data-paper-data="{&quot;isPaintingLayer&quot;:true}" fill-rule="nonzero" stroke-linecap="butt" stroke-linejoin="miter" stroke-miterlimit="10" stroke-dasharray="" stroke-dashoffset="0" style="mix-blend-mode: normal"><path d="M-0.5,261v-128h72v128z" fill="#ff76ca" stroke="#cb067f" stroke-width="2"/><path d="M112.5,211v-25h209v25z" fill="#fff866" stroke="#f2eb61" stroke-width="2"/><path d="M370.5,166v-28h106v28z" fill="#ff76ca" stroke="#cb067f" stroke-width="2"/><path d="M530.5,223v-24h102v24z" fill="#fff866" stroke="#f2eb61" stroke-width="2"/><path d="M34.69561,132.13052c12.14565,0.18922 24.29527,0.21747 36.44159,0.06585v129.11858c-12.147,-0.11975 -24.29672,-0.0579 -36.44159,0.16608z" fill="#cb067f" stroke="none" stroke-width="0"/><path d="" fill="#cb067f" stroke="none" stroke-width="0"/><path d="" fill="#cb067f" stroke="none" stroke-width="0"/><path d="M403.94985,166.14187h-20.09862l15.81988,-29.29608c6.66336,0.08574 13.32713,0.15237 19.99111,0.1991z" fill="#cb067f" stroke="none" stroke-width="0"/><path d="M441.28543,166.14187h-20.09863l15.67141,-29.02113c6.70453,0.01194 13.40911,0.00302 20.11353,-0.02759z" fill="#cb067f" stroke="none" stroke-width="0"/><path d="M475.56329,138.17721c1.19696,-0.00356 2.39392,-0.00752 3.59087,-0.01187c-0.00253,0.0555 -0.00461,0.11113 -0.00623,0.16686c-0.00286,0.09841 -0.0043,0.19717 -0.0043,0.29627c-0.18704,9.16914 -0.28247,18.34135 -0.27791,27.5134h-18.40334z" fill="#cb067f" stroke="none" stroke-width="0"/><path d="" fill="#cb067f" stroke="none" stroke-width="0"/><path d="M129.65244,185.3705c3.51445,0.02082 7.02892,0.04044 10.54339,0.05883l0,26.80244c-3.51447,0.01548 -7.02894,0.03216 -10.54339,0.05005z" fill="#f2eb61" stroke="none" stroke-width="0"/><path d="M161.41643,185.52542c3.51446,0.01342 7.02892,0.02558 10.54339,0.03649v26.56239c-3.51447,0.00834 -7.02893,0.01784 -10.54339,0.02853z" fill="#f2eb61" stroke="none" stroke-width="0"/><path d="M198.72381,185.62034c3.51446,0.00441 7.02893,0.00753 10.54339,0.00934v26.4496c-3.51446,0.00019 -7.02893,0.00151 -10.54339,0.00398z" fill="#f2eb61" stroke="none" stroke-width="0"/><path d="M230.4878,185.62458c3.51447,-0.00351 7.02893,-0.00836 10.54339,-0.01456l0,26.49809c-3.51446,-0.00654 -7.02892,-0.01198 -10.54339,-0.01631z" fill="#f2eb61" stroke="none" stroke-width="0"/><path d="M263.33452,185.55248c3.51447,-0.01196 7.02893,-0.02529 10.54339,-0.04002v26.68853c-3.51446,-0.0133 -7.02892,-0.02553 -10.54339,-0.03669z" fill="#f2eb61" stroke="none" stroke-width="0"/><path d="M295.09851,185.40658c3.51448,-0.02037 7.02894,-0.04215 10.54339,-0.06536v27.00882c-3.51445,-0.01965 -7.02892,-0.03826 -10.54339,-0.05582z" fill="#f2eb61" stroke="none" stroke-width="0"/></g></g></svg>