<svg version="1.1" xmlns="http://www.w3.org/2000/svg" xmlns:xlink="http://www.w3.org/1999/xlink" width="796.38266" height="464.04855" viewBox="0,0,796.38266,464.04855"><g transform="translate(106.50217,88.72023)"><g data-paper-data="{&quot;isPaintingLayer&quot;:true}" fill="#9966ff" fill-rule="nonzero" stroke="#000000" stroke-width="2" stroke-linecap="butt" stroke-linejoin="miter" stroke-miterlimit="10" stroke-dasharray="" stroke-dashoffset="0" style="mix-blend-mode: normal"><path d="M72.50014,371.48786v-108.88439h40.71329v108.88439z"/><path d="M109.42616,367.70058v-28.40462h257.53526v28.40462z"/><path d="M-103.60853,234.19884v-27.4578h106.04393v27.4578z"/><path d="M-105.50217,211.47514v-52.07514h49.23468v52.07514z"/><path d="M-4.19234,136.6763v-29.35145h129.71445v29.35145z"/><path d="M180.43772,271.12486v-63.43699h32.19191v63.43699z"/><path d="M181.38454,226.62428v-35.97919h194.09827v35.97919z"/><path d="M369.80188,363.91329v-69.11792h38.81965v69.11792z"/><path d="M405.78107,365.80694v-37.87283h55.86243v37.87283z"/><path d="M449.33483,374.32832v-128.76763h29.35144v128.76763z"/><path d="M69.65968,123.42081v-56.80925h57.75607v56.80925z"/><path d="M122.68165,9.80231v-27.4578h105.09711v27.4578z"/><path d="M212.62962,-64.04971v-23.67052h72.9052v23.67052z"/><path d="M398.2065,-54.5815v-29.35145h290.67399v29.35145z"/></g></g></svg>