<svg version="1.1" xmlns="http://www.w3.org/2000/svg" xmlns:xlink="http://www.w3.org/1999/xlink" width="91.903" height="99.83316" viewBox="0,0,91.903,99.83316"><g transform="translate(-191.50091,-332.33992)"><g data-paper-data="{&quot;isPaintingLayer&quot;:true}" fill-rule="nonzero" stroke="#000000" stroke-width="3.5" stroke-linecap="butt" stroke-linejoin="miter" stroke-miterlimit="10" stroke-dasharray="" stroke-dashoffset="0" style="mix-blend-mode: normal"><path d="M230.91191,341.23035c0,-3.94355 3.19688,-7.14043 7.14043,-7.14043c3.94355,0 7.14043,3.19688 7.14043,7.14043c0,3.94355 -3.19688,7.14043 -7.14043,7.14043c-3.94355,0 -7.14043,-3.19688 -7.14043,-7.14043z" fill="#45beff"/><path d="M193.25954,386.22593c0,0 -0.59152,-14.92805 8.02676,-26.43547c7.90085,-10.54948 24.49574,-17.76169 36.1704,-17.76169c11.19779,0 27.21929,6.58427 35.00763,16.65297c9.189,11.87947 9.18952,27.54418 9.18952,27.54418c0,0 -20.51228,0.36227 -44.9217,0.36227c-24.40941,0 -43.47261,-0.36227 -43.47261,-0.36227z" fill="#45beff"/><path d="M236.73215,385.86366c24.40941,0 44.9217,0.36227 44.9217,0.36227c0,0 -0.00053,15.66471 -9.18953,27.54418c-7.78833,10.06869 -23.80984,16.65297 -35.00763,16.65297c-11.67465,0 -28.26955,-7.21221 -36.1704,-17.76169c-8.61828,-11.50741 -8.02676,-26.43547 -8.02676,-26.43547c0,0 19.0632,-0.36227 43.47261,-0.36227z" data-paper-data="{&quot;index&quot;:null}" fill="#ff79e0"/></g></g></svg>