<svg version="1.1" xmlns="http://www.w3.org/2000/svg" xmlns:xlink="http://www.w3.org/1999/xlink" width="561.5711" height="515.20411" viewBox="0,0,561.5711,515.20411"><g transform="translate(-9.00997,138.9017)"><g data-paper-data="{&quot;isPaintingLayer&quot;:true}" fill-rule="nonzero" stroke-linecap="butt" stroke-linejoin="miter" stroke-miterlimit="10" stroke-dasharray="" stroke-dashoffset="0" style="mix-blend-mode: normal"><path d="M324.35448,-74.46471v-26.51098h45.4474v26.51098z" fill="#4ba7fa" stroke="#418fda" stroke-width="2"/><path d="M318.72673,259.81621v-146.75723h42.60694v146.75723z" fill="#4ba7fa" stroke="#4191d9" stroke-width="2"/><path d="M82.91517,361.07287v-55.86243h62.49017v55.86243z" fill="#4ba7fa" stroke="#3b85c6" stroke-width="2"/><path d="M181.38454,367.70062v-39.76647h258.48208v39.76647z" fill="#ff76ca" stroke="#cb067f" stroke-width="2"/><path d="M41.25506,364.86016v-103.20347h41.66012v103.20347z" fill="#ff76ca" stroke="#cb067f" stroke-width="2"/><path d="M134.0435,366.7538v-165.69364h51.12832v165.69364z" fill="#ff76ca" stroke="#cb067f" stroke-width="2"/><path d="M225.88512,117.73991v-31.24509h135.39538v31.24509z" fill="#ff76ca" stroke="#cb067f" stroke-width="2"/><path d="M429.45159,367.70062v-79.53295h67.22428v79.53295z" fill="#4ba7fa" stroke="#3b85c6" stroke-width="2"/><path d="M477.73945,374.32836v-193.15145h34.08555v193.15145z" fill="#ff76ca" stroke="#cb067f" stroke-width="2"/><path d="M10.00997,128.15492v-28.40462h106.99075v28.40462z" fill="#ff76ca" stroke="#cb067f" stroke-width="2"/><path d="M356.54639,22.11102v-160.01272h30.29827v160.01272z" fill="#4ba7fa" stroke="#418fda" stroke-width="2"/><path d="M456.90939,-34.69827v-32.19191h112.67168v32.19191z" fill="#4ba7fa" stroke="#418fda" stroke-width="2"/><path d="M227.77876,259.76305v-22.7237h172.32139v22.7237z" fill="#4ba7fa" stroke="#4191d9" stroke-width="2"/><path d="M40.67272,301.18738v-17.8125h42.6875v17.8125z" fill="#cb0680" stroke="none" stroke-width="0"/><path d="M134.17272,239.1874v-17.8125h50.6875v17.8125z" fill="#cb0680" stroke="none" stroke-width="0"/><path d="M134.67272,275.68738v-17.8125h50.6875v17.8125z" fill="#cb0680" stroke="none" stroke-width="0"/><path d="M134.17272,316.18738v-17.8125h50.6875v17.8125z" fill="#cb0680" stroke="none" stroke-width="0"/><path d="M319.15259,228.94505l-1.52884,-1.52884c0.11763,-9.76387 0.19146,-19.52848 0.22371,-29.29331l22.15966,-22.15966l16.06364,16.06364z" fill="#4191d9" stroke="none" stroke-width="0"/><path d="M361.13035,228.14795l-36.91817,-36.91817l16.06364,-16.06364l21.95663,21.95663c0.04287,9.64274 0.12687,19.2852 0.25414,28.92687c0,0.24101 0.00853,0.48003 0.02529,0.71678z" fill="#4191d9" stroke="none" stroke-width="0"/><path d="M362.48659,226.04963c0,0 0,0 0,0z" fill="#4191d9" stroke="none" stroke-width="0"/><path d="M319.65259,176.44505l-1.8066,-1.8066c-0.03189,-9.43662 -0.10095,-18.87307 -0.20517,-28.30889l22.86632,-22.86632l16.06363,16.06364z" fill="#4191d9" stroke="none" stroke-width="0"/><path d="M361.63036,175.64795l-36.91818,-36.91817l16.06363,-16.06364l21.62009,21.62009c-0.10657,10.26182 -0.17103,20.52433 -0.19078,30.78696z" fill="#4191d9" stroke="none" stroke-width="0"/><path d="M229.55771,330.79272l3.45915,-3.45915c6.12816,0.04232 12.25638,0.07978 18.38464,0.11226l19.69873,19.69873l-12.59534,12.59534z" fill="#cb0680" stroke="none" stroke-width="0"/><path d="M242.77805,376.30241l-12.59534,-12.59534l28.94718,-28.94718l12.59534,12.59534z" fill="#cb0680" stroke="none" stroke-width="0"/><path d="M290.55771,329.29272l1.70518,-1.70518c7.2644,0.01168 14.52881,0.01603 21.79321,0.0129l18.04412,18.04412l-12.59534,12.59534z" fill="#cb0680" stroke="none" stroke-width="0"/><path d="M303.77805,374.80241l-12.59534,-12.59534l28.94718,-28.94718l12.59534,12.59534z" fill="#cb0680" stroke="none" stroke-width="0"/><path d="M357.05771,329.29272l1.80823,-1.80823c7.14965,-0.03416 14.29924,-0.07592 21.44876,-0.12547l18.28553,18.28553l-12.59534,12.59534z" fill="#cb0680" stroke="none" stroke-width="0"/><path d="M370.27805,374.80241l-12.59534,-12.59534l28.94718,-28.94718l12.59534,12.59534z" fill="#cb0680" stroke="none" stroke-width="0"/><path d="M478.08785,222.75279v-15.43478h33.26087v15.43478z" fill="#cb0680" stroke="none" stroke-width="0"/><path d="M478.08785,257.31801v-15.43478h33.26087v15.43478z" fill="#cb0680" stroke="none" stroke-width="0"/><path d="M478.30524,291.66583v-15.43478h33.26087v15.43478z" fill="#cb0680" stroke="none" stroke-width="0"/><path d="M512.36412,296.58422l0.28423,0.28423c-0.12211,7.10414 -0.1438,14.21095 -0.05608,21.31569l-35.3484,35.3484c0.07449,-7.25079 0.04679,-14.50321 -0.0749,-21.75318z" fill="#cb0680" stroke="none" stroke-width="0"/></g></g></svg>