<svg version="1.1" xmlns="http://www.w3.org/2000/svg" xmlns:xlink="http://www.w3.org/1999/xlink" width="77.86782" height="69.66667" viewBox="0,0,77.86782,69.66667"><g transform="translate(-241.92323,-143.1719)"><g data-paper-data="{&quot;isPaintingLayer&quot;:true}" fill-rule="nonzero" stroke="none" stroke-width="0" stroke-linecap="butt" stroke-linejoin="miter" stroke-miterlimit="10" stroke-dasharray="" stroke-dashoffset="0" style="mix-blend-mode: normal"><path d="M276.86869,185.95685c-0.63274,0 -2.91035,0 -3.28242,0c-0.10053,0 -0.18583,-0.72684 -0.18583,-1.42551c0,-1.56188 0,-7.7323 0,-10.07649c0,-0.56696 0.05455,-0.9101 0.12428,-0.9101c0.31774,0 2.67106,0 3.33371,0c0.10981,0 0.17319,0.50962 0.17319,1.04357c0,1.42021 0,7.93447 0,10.41016c0,0.59637 -0.05948,0.95839 -0.16293,0.95839z" fill="#bbc9e4"/><path d="M274.2612,188.22204c-5.89974,0 -27.13619,0 -30.60533,0c-0.93739,0 -1.73264,-1.04172 -1.73264,-2.04307c0,-2.23853 0,-11.08213 0,-14.44189c0,-0.81258 0.50866,-1.30438 1.15879,-1.30438c2.96261,0 24.905,0 31.08353,0c1.02385,0 1.61482,0.73041 1.61482,1.49567c0,2.03547 0,11.37188 0,14.9201c0,0.85473 -0.55461,1.37358 -1.51918,1.37358z" fill="#f3079a"/><path d="M275.23944,202.50523v-0.27722c0.25392,-13.50806 0.24298,-27.02315 0,-40.53158v-8.85787h44.53723c-0.0028,0.05802 -0.00511,0.11616 -0.00691,0.17443c-0.00114,0.10736 -0.00264,0.21277 -0.00489,0.31576c-0.358,16.38824 -0.3781,32.78865 -0.00125,49.17648z" fill="#f3079a"/><path d="M319.57277,202.33857c0,5.79899 -9.99897,10.5 -22.33333,10.5c-11.0902,0 -20.29239,-3.80047 -22.03599,-8.78239c0.02482,-1.20646 0.04751,-2.41297 0.06811,-3.61953c1.90341,-4.89104 11.01485,-8.59808 21.96788,-8.59808c12.33436,0 22.33333,4.70101 22.33333,10.5z" fill="#f3079a"/><path d="M319.59505,162.87052c-0.02817,2.05537 -0.05084,4.11085 -0.06791,6.1664l-44.10595,9.95941c-0.0059,-2.04779 -0.01745,-4.09556 -0.03454,-6.14327z" fill="#ffffff"/><path d="M319.49978,173.31139c-0.00921,2.05113 -0.01276,4.10229 -0.01053,6.15345l-44.0874,9.95522c0.01364,-2.05207 0.02141,-4.1042 0.02342,-6.15635z" fill="#ffffff"/><path d="M319.50296,183.86712c0.01054,2.04672 0.02692,4.09339 0.04925,6.13995l-44.27337,9.99722c0.03424,-2.05659 0.0624,-4.11333 0.08457,-6.17017z" fill="#ffffff"/><path d="M297.57277,164.1719c-12.33436,0 -22.33333,-4.70101 -22.33333,-10.5c0,-5.79899 9.99897,-10.5 22.33333,-10.5c11.56431,0 21.07573,4.13235 22.21828,9.4276c-0.00988,0.13709 -0.017,0.27493 -0.0213,0.41349c-0.00114,0.10736 -0.00264,0.21277 -0.00489,0.31576c-0.01216,0.55656 -0.02393,1.11313 -0.0353,1.66972c-1.38705,5.17272 -10.77817,9.17343 -22.15679,9.17343z" fill="#f269be"/></g></g></svg>