<svg version="1.1" xmlns="http://www.w3.org/2000/svg" xmlns:xlink="http://www.w3.org/1999/xlink" width="101.34232" height="73.22008" viewBox="0,0,101.34232,73.22008"><g transform="translate(-226.52564,-138.94113)"><g data-paper-data="{&quot;isPaintingLayer&quot;:true}" fill-rule="nonzero" stroke="none" stroke-width="0" stroke-linecap="butt" stroke-linejoin="miter" stroke-miterlimit="10" stroke-dasharray="" stroke-dashoffset="0" style="mix-blend-mode: normal"><path d="M230.47301,211.87729c0,-1.10263 0,-5.07163 0,-5.72c0,-0.1752 1.2666,-0.32382 2.48411,-0.32382c2.72177,0 13.47444,0 17.55946,0c0.98799,0 1.58596,0.09507 1.58596,0.21657c0,0.5537 0,4.65463 0,5.80937c0,0.19135 -0.88808,0.30181 -1.81853,0.30181c-2.47487,0 -13.82674,0 -18.1409,0c-1.03924,0 -1.6701,-0.10366 -1.6701,-0.28393z" fill="#bbc9e4"/><path d="M226.52564,207.33342c0,-10.28098 0,-47.28796 0,-53.33334c0,-1.63351 1.81532,-3.01932 3.56029,-3.01932c3.9009,0 19.31191,0 25.16667,0c1.41602,0 2.27304,0.88638 2.27304,2.01932c0,5.16269 0,43.39985 0,54.16666c0,1.78418 -1.27282,2.81402 -2.60637,2.81402c-3.54705,0 -19.81684,0 -26,0c-1.48947,0 -2.39363,-0.96648 -2.39363,-2.64735z" fill="#f3079a"/><path d="M231.52564,153.98255c0,-1.10263 0,-5.07163 0,-5.72c0,-0.1752 1.2666,-0.32382 2.48412,-0.32382c2.72177,0 13.47444,0 17.55946,0c0.98799,0 1.58596,0.09507 1.58596,0.21657c0,0.5537 0,4.65463 0,5.80937c0,0.19135 -0.88808,0.30181 -1.81853,0.30181c-1.22555,0 -4.6279,0 -8.27452,0c-3.71738,0 -7.68858,0 -9.86638,0c-1.03924,0 -1.6701,-0.10366 -1.6701,-0.28393z" fill="#bbc9e4"/><path d="M284.94561,181.72608c-0.63274,0 -2.91035,0 -3.28242,0c-0.10053,0 -0.18583,-0.72684 -0.18583,-1.42551c0,-1.56188 0,-7.7323 0,-10.07649c0,-0.56696 0.05455,-0.9101 0.12428,-0.9101c0.31774,0 2.67106,0 3.33371,0c0.10981,0 0.17319,0.50962 0.17319,1.04357c0,1.42021 0,7.93447 0,10.41016c0,0.59637 -0.05948,0.95839 -0.16293,0.95839z" fill="#bbc9e4"/><path d="M282.33812,183.99127c-5.89974,0 -27.13619,0 -30.60533,0c-0.93739,0 -1.73264,-1.04172 -1.73264,-2.04307c0,-2.23853 0,-11.08213 0,-14.44189c0,-0.81258 0.50866,-1.30438 1.15879,-1.30438c2.96261,0 24.905,0 31.08353,0c1.02385,0 1.61482,0.73041 1.61482,1.49567c0,2.03547 0,11.37188 0,14.9201c0,0.85473 -0.55461,1.37358 -1.51918,1.37358z" fill="#f3079a"/><path d="M251.72273,181.12202c-0.63274,0 -2.91035,0 -3.28242,0c-0.10053,0 -0.18582,-0.72683 -0.18582,-1.4255c0,-1.56188 0,-7.73231 0,-10.0765c0,-0.56696 0.05455,-0.9101 0.12428,-0.9101c0.31774,0 2.67106,0 3.33371,0c0.10981,0 0.17319,0.50962 0.17319,1.04357c0,0.70328 0,2.65572 0,4.74833c0,2.13322 0,4.41209 0,5.66183c0,0.59637 -0.05948,0.95838 -0.16294,0.95838z" fill="#bbc9e4"/><path d="M283.31636,198.27446v-0.27722c0.25392,-13.50806 0.24298,-27.02315 0,-40.53158v-8.85787h44.53723c-0.0028,0.05802 -0.00511,0.11616 -0.00691,0.17443c-0.00114,0.10736 -0.00264,0.21277 -0.00489,0.31576c-0.358,16.38824 -0.3781,32.78865 -0.00125,49.17648z" fill="#f3079a"/><path d="M327.64969,198.1078c0,5.79899 -9.99897,10.5 -22.33333,10.5c-11.0902,0 -20.29239,-3.80047 -22.03599,-8.78239c0.02482,-1.20646 0.04751,-2.41297 0.06811,-3.61953c1.90341,-4.89104 11.01485,-8.59808 21.96788,-8.59808c12.33436,0 22.33333,4.70101 22.33333,10.5z" fill="#f3079a"/><path d="M327.67197,158.63975c-0.02817,2.05537 -0.05084,4.11085 -0.06791,6.1664l-44.10595,9.95941c-0.0059,-2.04779 -0.01745,-4.09556 -0.03454,-6.14327z" fill="#ffffff"/><path d="M327.5767,169.08062c-0.00921,2.05113 -0.01276,4.10229 -0.01053,6.15345l-44.0874,9.95522c0.01364,-2.05207 0.02141,-4.1042 0.02342,-6.15635z" fill="#ffffff"/><path d="M327.57988,179.63635c0.01054,2.04672 0.02692,4.09339 0.04925,6.13995l-44.27337,9.99722c0.03424,-2.05659 0.0624,-4.11333 0.08457,-6.17017z" fill="#ffffff"/><path d="M305.64969,159.94113c-12.33436,0 -22.33333,-4.70101 -22.33333,-10.5c0,-5.79899 9.99897,-10.5 22.33333,-10.5c11.56431,0 21.07573,4.13235 22.21828,9.4276c-0.00988,0.13709 -0.017,0.27493 -0.0213,0.41349c-0.00114,0.10736 -0.00264,0.21277 -0.00489,0.31576c-0.01216,0.55656 -0.02393,1.11313 -0.0353,1.66972c-1.38705,5.17272 -10.77817,9.17343 -22.15679,9.17343z" fill="#f269be"/></g></g></svg>