<svg version="1.1" xmlns="http://www.w3.org/2000/svg" xmlns:xlink="http://www.w3.org/1999/xlink" width="73.35164" height="95.11216" viewBox="0,0,73.35164,95.11216"><g transform="translate(-204.17516,-98.23463)"><g data-paper-data="{&quot;isPaintingLayer&quot;:true}" fill="#ff66ab" fill-rule="nonzero" stroke-width="5" stroke-linecap="butt" stroke-linejoin="miter" stroke-miterlimit="10" stroke-dasharray="" stroke-dashoffset="0" style="mix-blend-mode: normal"><path d="M274.548,173.43845c0,9.61436 -15.05827,17.40834 -33.63359,17.40834c-18.57531,0 -33.63358,-7.79398 -33.63358,-17.40834c0,-9.61436 15.05827,-17.40834 33.63358,-17.40834c18.57531,0 33.63359,7.79398 33.63359,17.40834z" stroke="#ff66ab"/><path d="M273.94234,146.46676c0,9.61436 -15.05827,17.40833 -33.63359,17.40833c-18.57531,0 -33.63359,-7.79397 -33.63359,-17.40833c0,-9.61436 15.05827,-17.40834 33.63359,-17.40834c18.57532,0 33.63359,7.79398 33.63359,17.40834z" stroke="#e65c9a"/><path d="M275.0268,118.14297c0,9.61436 -15.05827,17.40834 -33.63358,17.40834c-18.57532,0 -33.63358,-7.79398 -33.63358,-17.40834c0,-9.61436 15.05827,-17.40834 33.63358,-17.40834c18.57532,0 33.63358,7.79398 33.63358,17.40834z" stroke="#e65c9a"/></g></g></svg>