<svg version="1.1" xmlns="http://www.w3.org/2000/svg" xmlns:xlink="http://www.w3.org/1999/xlink" width="706.62458" height="493.28458" viewBox="0,0,706.62458,493.28458"><g transform="translate(76.84857,27.47284)"><g data-paper-data="{&quot;isPaintingLayer&quot;:true}" fill-rule="nonzero" stroke-linecap="butt" stroke-linejoin="miter" stroke-miterlimit="10" stroke-dasharray="" stroke-dashoffset="0" style="mix-blend-mode: normal"><path d="M-29.83826,328.52637v-354.2492h541.52157v354.24921z" fill="#74ffef" stroke="#000000" stroke-width="3.5"/><path d="M616.64393,321.65075c0,45.58421 -47.79498,82.53752 -106.75307,82.53752c-58.95809,0 -106.75307,-36.95331 -106.75307,-82.53752c0,-45.58421 47.79498,-82.53751 106.75307,-82.53751c58.95809,0 106.75307,36.95331 106.75307,82.53751z" fill="#ffffff" stroke="none" stroke-width="0"/><path d="M526.14597,291.86221c0,45.58421 -47.79498,82.53752 -106.75307,82.53752c-58.95809,0 -106.75307,-36.95331 -106.75307,-82.53752c0,-45.58421 47.79498,-82.53752 106.75307,-82.53752c58.95809,0 106.75307,36.95331 106.75307,82.53752z" fill="#ffffff" stroke="none" stroke-width="0"/><path d="M329.92497,294.14052c0,45.58421 -47.79498,82.53752 -106.75307,82.53752c-58.95809,0 -106.75307,-36.95331 -106.75307,-82.53752c0,-45.58421 47.79498,-82.53751 106.75307,-82.53751c58.95809,0 106.75307,36.95331 106.75307,82.53751z" fill="#ffffff" stroke="none" stroke-width="0"/><path d="M239.42701,264.35198c0,45.58421 -47.79498,82.53752 -106.75307,82.53752c-58.95809,0 -106.75307,-36.95331 -106.75307,-82.53752c0,-45.58421 47.79498,-82.53751 106.75307,-82.53751c58.95809,0 106.75307,36.95331 106.75307,82.53751z" fill="#ffffff" stroke="none" stroke-width="0"/><path d="M176.22101,309.60437c0,45.58421 -47.79498,82.53752 -106.75307,82.53752c-58.95809,0 -106.75307,-36.95331 -106.75307,-82.53752c0,-45.58421 47.79498,-82.53752 106.75307,-82.53752c58.95809,0 106.75307,36.95331 106.75307,82.53752z" fill="#ffffff" stroke="none" stroke-width="0"/><path d="M365.47662,282.378l11.10312,-49.94024l20.64196,4.58929l-11.10313,49.94023z" fill="#3c9558" stroke="none" stroke-width="0"/><path d="M362.38608,226.52509c3.41084,-9.58276 13.94424,-14.58609 23.527,-11.17524c9.58276,3.41084 14.58609,13.94424 11.17525,23.527c-3.41084,9.58276 -13.94425,14.58609 -23.52701,11.17524c-9.58276,-3.41084 -14.58608,-13.94424 -11.17524,-23.527z" fill="#4fc775" stroke="none" stroke-width="0"/><path d="M383.35927,231.33293c3.41084,-9.58276 13.94424,-14.58609 23.527,-11.17525c9.58276,3.41084 14.58609,13.94424 11.17524,23.527c-3.41084,9.58276 -13.94424,14.58608 -23.527,11.17524c-9.58276,-3.41084 -14.58609,-13.94423 -11.17524,-23.52699z" fill="#4fc775" stroke="none" stroke-width="0"/><path d="M375.34862,207.72316c3.41084,-9.58276 13.94424,-14.58609 23.527,-11.17524c9.58276,3.41084 14.58609,13.94424 11.17524,23.527c-3.41084,9.58276 -13.94424,14.58608 -23.527,11.17524c-9.58276,-3.41084 -14.58609,-13.94424 -11.17524,-23.527z" fill="#4fc775" stroke="none" stroke-width="0"/><path d="M629.77601,369.29059c0,53.30716 -158.1833,96.52115 -353.31229,96.52115c-195.12899,0 -353.31229,-43.21399 -353.31229,-96.52115c0,-53.30716 158.1833,-96.52115 353.31229,-96.52115c195.12899,0 353.31229,43.21399 353.31229,96.52115z" fill="#66ff96" stroke="none" stroke-width="0"/><path d="M49.15766,303.20624l-6.28605,-50.77196l20.98574,-2.59823l6.28605,50.77196z" fill="#3c9558" stroke="none" stroke-width="0"/><path d="M27.51705,251.62347c0,-10.17168 8.24578,-18.41746 18.41746,-18.41746c10.17168,0 18.41746,8.24578 18.41746,18.41746c0,10.17168 -8.24578,18.41746 -18.41746,18.41746c-10.17168,0 -18.41746,-8.24578 -18.41746,-18.41746z" fill="#4fc775" stroke="none" stroke-width="0"/><path d="M48.88813,249.12006c0,-10.17168 8.24577,-18.41746 18.41746,-18.41746c10.17168,0 18.41746,8.24578 18.41746,18.41746c0,10.17168 -8.24578,18.41746 -18.41746,18.41746c-10.17169,0 -18.41746,-8.24577 -18.41746,-18.41746z" fill="#4fc775" stroke="none" stroke-width="0"/><path d="M33.42429,229.56344c0,-10.17168 8.24578,-18.41746 18.41746,-18.41746c10.17169,0 18.41747,8.24578 18.41747,18.41746c0,10.17168 -8.24578,18.41746 -18.41747,18.41746c-10.17168,0 -18.41746,-8.24578 -18.41746,-18.41746z" fill="#4fc775" stroke="none" stroke-width="0"/><path d="M409.95895,292.32178l17.40751,-48.10702l19.88423,7.1951l-17.40751,48.10702z" fill="#3c9558" stroke="none" stroke-width="0"/><path d="M414.04692,236.53301c4.61001,-9.06702 15.69744,-12.68014 24.76446,-8.07013c9.06702,4.61001 12.68015,15.69744 8.07013,24.76447c-4.61001,9.06702 -15.69745,12.68015 -24.76447,8.07013c-9.06702,-4.61001 -12.68014,-15.69744 -8.07013,-24.76447z" fill="#4fc775" stroke="none" stroke-width="0"/><path d="M434.23166,243.98728c4.61001,-9.06702 15.69744,-12.68015 24.76447,-8.07013c9.06702,4.61001 12.68015,15.69745 8.07013,24.76447c-4.61001,9.06702 -15.69744,12.68014 -24.76447,8.07013c-9.06702,-4.61001 -12.68014,-15.69744 -8.07013,-24.76446z" fill="#4fc775" stroke="none" stroke-width="0"/><path d="M429.31066,219.54601c4.61001,-9.06702 15.69744,-12.68015 24.76447,-8.07013c9.06702,4.61001 12.68015,15.69745 8.07013,24.76447c-4.61001,9.06702 -15.69744,12.68014 -24.76447,8.07013c-9.06702,-4.61001 -12.68014,-15.69744 -8.07013,-24.76446z" fill="#4fc775" stroke="none" stroke-width="0"/></g></g></svg>