<svg version="1.1" xmlns="http://www.w3.org/2000/svg" xmlns:xlink="http://www.w3.org/1999/xlink" width="122.01087" height="112.7349" viewBox="0,0,122.01087,112.7349"><g transform="translate(-180.70913,-109.45312)"><g data-paper-data="{&quot;isPaintingLayer&quot;:true}" fill-rule="nonzero" stroke-linecap="butt" stroke-linejoin="miter" stroke-miterlimit="10" stroke-dasharray="" stroke-dashoffset="0" style="mix-blend-mode: normal"><path d="M248.24868,132.34354c1.7442,0.48314 1.39471,2.32912 1.39471,2.32912l-0.80666,2.86831c-3.50458,3.93084 -7.51715,3.22418 -12.32043,2.42156c-2.42202,-0.40472 -5.3654,-0.96881 -7.38299,-2.5056c-1.50795,-1.14858 -1.42364,-2.22194 -2.66461,-3.42407c-0.92532,-0.89634 -2.33591,-1.09418 -3.45336,-1.73521c-3.64805,-2.09276 -7.28722,-4.12868 -11.57724,-4.87523c-3.53577,0.45636 -9.48676,2.89482 -12.59706,-0.0462c-0.97564,-0.92252 -1.86004,-2.15229 -2.01915,-3.48556c-0.11948,-1.00129 0.56151,-1.95537 1.14366,-2.80295c-0.67972,-0.20387 -1.25843,-0.68858 -1.88367,-1.03418c-0.82368,-0.4553 -1.82835,-0.69974 -2.44647,-1.40945c-1.57933,-1.81342 -2.12789,-4.50637 -0.83088,-6.69096c1.58547,-2.6705 3.24459,-2.20035 5.71388,-2.20047c4.8786,-0.00025 9.45895,0.9734 14.04307,2.63517c2.58674,0.42109 4.6147,1.25534 7.00746,2.17356c6.38169,2.44897 13.66064,3.42774 19.3954,7.44831c1.93882,1.35927 4.07225,3.53374 5.53539,5.40411c1.4086,1.80068 1.98582,3.46927 3.74897,4.92976z" data-paper-data="{&quot;index&quot;:null}" fill="#00a769" stroke="#000000" stroke-width="5"/><path d="M280.12325,165.37112c-0.01925,-0.36494 0.0391,-0.71995 0.16212,-1.04676c0.22512,-0.67842 0.75687,-1.50669 2.01274,-1.65976c0.49309,-0.2817 0.9475,-0.35967 0.9475,-0.35967c4.80278,-0.82424 11.39004,-3.31476 15.567,0.42158c4.61963,4.13231 6.72829,18.55986 -2.81083,18.07429c-3.88768,-0.19789 -4.73902,-1.85567 -6.4108,-4.59375c-0.28373,-0.4647 -0.23715,-1.17822 -0.68999,-1.48054c-1.10512,-0.73779 -2.60378,-0.37535 -3.95804,-0.43847c-0.20491,0.01732 -0.59645,0.02829 -1.02763,-0.07518c-1.45998,-0.11992 -2.0928,-1.63033 -2.0928,-1.63033c-0.75083,-1.8203 -1.31504,-3.73065 -1.65911,-5.66943zM285.50853,167.17795c0.15674,0.68695 0.35137,1.36646 0.58078,2.03315c1.8293,0.2242 4.81688,0.61101 5.75227,1.2321c1.5895,1.05543 2.05425,4.98434 4.31361,5.1643c1.96835,0.15678 1.35753,-1.61746 1.14503,-2.56207c-0.4409,-1.95972 -0.48304,-4.92681 -2.01486,-6.50411c-0.8336,-0.85834 -2.1464,-0.62264 -3.14474,-0.49907c-2.2135,0.27399 -4.4282,0.7285 -6.63209,1.1357z" data-paper-data="{&quot;index&quot;:null}" fill="#000000" stroke="none" stroke-width="0.5"/><path d="M285.46534,167.14908c2.20389,-0.4072 4.46685,-0.88453 6.68035,-1.15852c0.99833,-0.12357 2.33785,-0.34866 3.17145,0.50968c1.53184,1.57729 1.59177,4.60099 2.03267,6.56072c0.21252,0.94463 0.81126,2.73927 -1.15709,2.5825c-2.25935,-0.17995 -2.77466,-4.09449 -4.36417,-5.14994c-0.93538,-0.6211 -3.95861,-1.07633 -5.78793,-1.30051c-0.22941,-0.66669 -0.41853,-1.35699 -0.57527,-2.04394z" data-paper-data="{&quot;noHover&quot;:false,&quot;origItem&quot;:[&quot;Path&quot;,{&quot;applyMatrix&quot;:true,&quot;segments&quot;:[[[474.89993,450.30982],[-0.20872,-4.45591],[0.09414,2.0097]],[[476.9475,456.33983],[-1.97393,-1.3528],[3.62734,2.48593]],[[490.4499,458.11125],[-4.01214,-0.20614],[1.93391,0.09936]],[[495.11287,454.98748],[0.97491,3.82694],[-1.11904,-4.39274]],[[483.47386,448.23155],[2.61818,2.77618],[-1.54072,-1.63369]],[[479.09924,437.30959],[1.06073,3.53007],[-1.39176,-0.22668]],[[474.89505,436.85255],[1.40713,0.07657],[-0.05711,4.48202]]],&quot;closed&quot;:true}],&quot;index&quot;:null}" fill="#00a769" stroke="none" stroke-width="0.5"/><path d="M280.60397,139.47887c0.08853,-0.35456 0.24835,-0.6769 0.46174,-0.95331c0.41406,-0.58267 1.16517,-1.21878 2.41076,-0.99711c0.55399,-0.12483 1.01131,-0.06624 1.01131,-0.06624c4.83346,0.6193 11.86135,0.1684 14.7601,4.9647c3.20592,5.30461 0.9943,19.71671 -7.9838,16.45721c-3.65904,-1.32843 -3.98723,-3.1629 -4.78328,-6.27066c-0.13511,-0.52745 0.11855,-1.19601 -0.22583,-1.61775c-0.84042,-1.02921 -2.3795,-1.12185 -3.65581,-1.57904c-0.20098,-0.04346 -0.57855,-0.14775 -0.96048,-0.37301c-1.36073,-0.5425 -1.52318,-2.17203 -1.52318,-2.17203c-0.18444,-1.9604 -0.16409,-3.95224 0.07506,-5.90671zM291.89722,143.64199c-2.19662,-0.38666 -4.44728,-0.60108 -6.67375,-0.85756c-0.05144,0.70272 -0.06446,1.40944 -0.04048,2.11408c1.68331,0.75037 4.42638,1.99569 5.13871,2.86362c1.21046,1.4749 0.50353,5.3675 2.61097,6.20163c1.836,0.72669 1.77191,-1.14864 1.84553,-2.11407c0.15272,-2.00289 0.98185,-4.85209 -0.02052,-6.80902c-0.54549,-1.06492 -1.86972,-1.22427 -2.86045,-1.39866z" data-paper-data="{&quot;index&quot;:null}" fill="#000000" stroke="none" stroke-width="0.5"/><path d="M285.19062,142.74416c2.22647,0.25649 4.52997,0.46323 6.72659,0.84989c0.99072,0.17441 2.3374,0.3517 2.88288,1.41663c1.00237,1.95693 0.17365,4.86546 0.02094,6.86835c-0.07361,0.96541 -0.02705,2.85674 -1.86305,2.13007c-2.10746,-0.83412 -1.45305,-4.72782 -2.66351,-6.2027c-0.71232,-0.86793 -3.46945,-2.18908 -5.15276,-2.93947c-0.02398,-0.70466 -0.00252,-1.42005 0.04892,-2.12279z" data-paper-data="{&quot;noHover&quot;:false,&quot;origItem&quot;:[&quot;Path&quot;,{&quot;applyMatrix&quot;:true,&quot;segments&quot;:[[[237.44997,225.15491],[-0.10436,-2.22795],[0.04707,1.00485]],[[238.47375,228.16991],[-0.98697,-0.6764],[1.81367,1.24296]],[[245.22495,229.05563],[-2.00607,-0.10307],[0.96696,0.04968]],[[247.55643,227.49374],[0.48745,1.91347],[-0.55952,-2.19637]],[[241.73693,224.11577],[1.30909,1.38809],[-0.77036,-0.81685]],[[239.54962,218.65479],[0.53037,1.76503],[-0.69588,-0.11334]],[[237.44753,218.42628],[0.70357,0.03829],[-0.02856,2.24101]]],&quot;closed&quot;:true}],&quot;index&quot;:null}" fill="#00a769" stroke="none" stroke-width="0.5"/><path d="M248.53174,201.50934c-5.06761,4.83441 -12.11776,6.89273 -18.0605,10.27021c-2.22819,1.26636 -4.10825,2.39506 -6.60269,3.19896c-4.28341,2.32986 -8.66618,3.9788 -13.48973,4.70951c-2.44143,0.36984 -4.01137,1.08326 -5.97907,-1.31952c-1.60967,-1.96561 -1.4708,-4.71034 -0.181,-6.73992c0.50478,-0.79434 1.4615,-1.18653 2.20766,-1.76009c0.56641,-0.43537 1.06594,-1.0013 1.70745,-1.30473c-0.70258,-0.75078 -1.51885,-1.59207 -1.55072,-2.59995c-0.04244,-1.34206 0.64773,-2.69045 1.47412,-3.74876c2.63456,-3.37384 8.88372,-1.85454 12.44795,-1.93309c4.12975,-1.3809 7.4228,-3.93908 10.71609,-6.55479c1.00879,-0.80124 2.37381,-1.20819 3.1544,-2.23305c1.04684,-1.37448 0.80268,-2.42308 2.12151,-3.78464c1.76459,-1.82174 4.5902,-2.82046 6.92425,-3.58349c4.62883,-1.51322 13.66987,-2.10159 12.01774,-1.36257c-1.52441,1.70816 -1.12134,10.58211 -2.24427,12.5735c0,0 -2.94994,4.53803 -4.66321,6.17246z" data-paper-data="{&quot;index&quot;:null}" fill="#00a769" stroke="#000000" stroke-width="5"/><path d="M231.58763,189.33136c-8.09763,0.67001 -34.36899,2.25588 -42.19107,-10.27453c-3.34124,-5.35242 -7.27317,-13.49267 -5.91014,-20.83303c2.0357,-10.96293 11.40887,-20.75429 16.23638,-21.73497c10.02922,-2.03739 19.99273,1.51287 30.73881,0.62373c17.42767,-1.44199 40.35412,-8.30337 47.93165,-0.78347c4.37505,4.34178 4.53064,24.31819 5.1277,31.53416c1.63115,19.71389 -24.4434,19.19359 -51.93333,21.46813z" data-paper-data="{&quot;index&quot;:null}" fill="#00a769" stroke="#000000" stroke-width="5"/><path d="M236.00263,161.67761c0.82084,9.92055 -6.55593,18.62815 -16.47648,19.44899c-9.92055,0.82084 -18.62815,-6.55594 -19.44899,-16.47648c-0.82084,-9.92055 6.55594,-18.62815 16.47648,-19.44899c9.92055,-0.82084 18.62815,6.55594 19.44899,16.47648z" data-paper-data="{&quot;index&quot;:null}" fill="#ffaa83" stroke="#000000" stroke-width="5"/><path d="M218.23581,166.18306c-3.48908,0.28869 -6.44569,-1.0262 -6.60378,-2.93688c-0.1581,-1.9107 2.54219,-3.69362 6.03127,-3.98231c3.48908,-0.28868 6.4457,1.0262 6.60378,2.93688c0.1581,1.9107 -2.5422,3.69362 -6.03128,3.98232z" data-paper-data="{&quot;index&quot;:null}" fill="#000000" stroke="none" stroke-width="0"/><path d="M218.89029,175.68942c-3.48908,0.28869 -6.44568,-1.0262 -6.60377,-2.93689c-0.1581,-1.9107 2.54219,-3.69362 6.03127,-3.98231c3.48908,-0.28868 6.4457,1.0262 6.60379,2.93688c0.15809,1.91069 -2.54221,3.69364 -6.03128,3.98233z" data-paper-data="{&quot;index&quot;:null}" fill="#000000" stroke="none" stroke-width="0"/></g></g></svg>