<svg version="1.1" xmlns="http://www.w3.org/2000/svg" xmlns:xlink="http://www.w3.org/1999/xlink" width="555.31995" height="511.74012" viewBox="0,0,555.31995,511.74012"><g transform="translate(-40.25,116.74012)"><g data-paper-data="{&quot;isPaintingLayer&quot;:true}" fill-rule="nonzero" stroke-linecap="butt" stroke-linejoin="miter" stroke-miterlimit="10" stroke-dasharray="" stroke-dashoffset="0" style="mix-blend-mode: normal"><path d="M40.5,66v-42h103v42z" fill="#ff76ca" stroke="#d82191" stroke-width="0.5"/><path d="M159.5,381v-266h157v266z" fill="#fff866" stroke="#f2eb61" stroke-width="2"/><path d="M426.5,394v-20.83961c0.08237,-10.88352 1.50033,-20.81854 0.91544,-32.18397c-0.07837,-1.52289 -0.1312,-3.24581 -0.91544,-4.53325v-246.44317h78v304z" fill="#fff866" stroke="#f2eb61" stroke-width="2"/><path d="" fill="#f2eb61" stroke="none" stroke-width="0"/><path d="M196.05573,234.12648c0,-23.08586 18.71479,-41.80065 41.80065,-41.80065c23.08586,0 41.80064,18.71479 41.80064,41.80065c0,23.08586 -18.71478,41.80065 -41.80064,41.80065c-23.08586,0 -41.80065,-18.71479 -41.80065,-41.80065z" fill="none" stroke="#f2eb61" stroke-width="28"/><path d="M225.40091,189.1695v-75.45245c12.68284,0.02154 25.36638,0.12949 38.0493,0.16097v75.29148z" fill="#f2eb61" stroke="none" stroke-width="0"/><path d="" fill="#f2eb61" stroke="none" stroke-width="0"/><path d="" fill="#f2eb61" stroke="none" stroke-width="0"/><path d="M281.31195,253.11913v-38.0493h36.33454c-0.16905,12.68186 -0.21474,25.36633 -0.12426,38.0493z" fill="#f2eb61" stroke="none" stroke-width="0"/><path d="M256.30123,281.69898v99.14255h-38.0493v-99.14255z" fill="#f2eb61" stroke="none" stroke-width="0"/><path d="" fill="#f2eb61" stroke="none" stroke-width="0"/><path d="M196.45665,217.56715v38.0493h-37.54226c0.13897,-12.68221 0.17007,-25.36613 0.1021,-38.0493z" fill="#f2eb61" stroke="none" stroke-width="0"/><path d="M487.254,139.73166l-9.74965,21.04352l-51.77033,-23.98566c0.166,-8.5257 0.14417,-17.05673 -0.04579,-25.58184z" fill="#f2eb61" stroke="none" stroke-width="0"/><path d="M456.50426,206.36793l-21.04352,-9.74965l30.68272,-66.22521l21.04352,9.74965z" data-paper-data="{&quot;index&quot;:null}" fill="#f2eb61" stroke="none" stroke-width="0"/><path d="M435.3919,197.30927l9.74965,-21.04352l60.84451,28.18981c-0.19329,4.71179 -0.08841,9.42993 -0.0191,14.14775l-4.34987,9.3887z" data-paper-data="{&quot;index&quot;:null}" fill="#f2eb61" stroke="none" stroke-width="0"/><path d="M450.14156,300.84627l-9.74966,-21.04352l65.88991,-30.52739c0.0214,0.59486 0.03509,1.11867 0.03136,1.5424c-0.07058,8.02634 -0.23259,16.05637 -0.17004,24.08247z" data-paper-data="{&quot;index&quot;:null}" fill="#f2eb61" stroke="none" stroke-width="0"/><path d="M440.45892,280.21381l21.04352,-9.74965l30.68273,66.22521l-21.04352,9.74965z" data-paper-data="{&quot;index&quot;:null}" fill="#f2eb61" stroke="none" stroke-width="0"/><path d="M482.50436,316.33684l9.74965,21.04352l-65.61675,30.40083c0.35144,-8.5887 1.21085,-16.81752 0.81899,-25.94007z" data-paper-data="{&quot;index&quot;:null}" fill="#f2eb61" stroke="none" stroke-width="0"/><path d="M337.43761,-87.7242c0,-15.47277 12.54316,-28.01592 28.01592,-28.01592c15.47277,0 28.01592,12.54316 28.01592,28.01592c0,6.64744 9.62606,19.49021 5.75809,24.29385c-5.13523,6.37746 -24.94868,3.72207 -33.77401,3.72207c-7.73638,0 -28.82487,1.1508 -33.89476,-3.91908c-5.06988,-5.06988 5.87883,-16.36045 5.87883,-24.09684z" fill="#00c4ff" stroke="#0084ac" stroke-width="2"/><path d="M405.70503,-61.20558c0,8.28804 -18.04921,15.00682 -40.31404,15.00682c-22.26483,0 -40.31404,-6.71878 -40.31404,-15.00682c0,-8.28804 18.04921,-15.00682 40.31404,-15.00682c22.26483,0 40.31404,6.71878 40.31404,15.00682z" fill="#b7b7b7" stroke="#0084ac" stroke-width="2"/><path d="M356.07374,-95.74641c0,0 0.6868,-3.22036 3.15419,-5.20853c2.262,-1.82267 6.19897,-2.45903 8.6923,-1.82311c2.39148,0.60995 5.4545,2.88883 6.56939,5.46341c1.3154,3.03759 0.46225,6.38309 0.46225,6.38309c0,0 -4.40049,-1.03994 -9.61354,-2.36952c-5.21305,-1.32959 -9.2646,-2.44533 -9.2646,-2.44533z" fill="#4eff45" stroke="#000000" stroke-width="1.5"/><path d="M365.3778,-93.45583c5.21305,1.32959 9.57407,2.52426 9.57407,2.52426c0,0 -0.85337,3.34544 -3.46292,5.38198c-2.21177,1.72612 -5.9921,2.25961 -8.38358,1.64965c-2.49332,-0.63592 -5.6446,-3.08014 -6.75734,-5.76353c-1.21377,-2.92705 -0.27431,-6.08297 -0.27431,-6.08297c0,0 4.09101,0.96101 9.30406,2.29059z" data-paper-data="{&quot;index&quot;:null}" fill="#ffad78" stroke="#000000" stroke-width="1.5"/><path d="M526.30253,-80.84802c0,-15.47277 12.54316,-28.01592 28.01592,-28.01592c15.47277,0 28.01592,12.54316 28.01592,28.01592c0,6.64744 9.62606,19.49021 5.75809,24.29385c-5.13523,6.37746 -24.94868,3.72207 -33.77401,3.72207c-7.73638,0 -28.82487,1.1508 -33.89476,-3.91908c-5.06988,-5.06988 5.87883,-16.36045 5.87883,-24.09684z" fill="#00c4ff" stroke="#0084ac" stroke-width="2"/><path d="M594.56995,-54.3294c0,8.28804 -18.04921,15.00682 -40.31404,15.00682c-22.26483,0 -40.31404,-6.71878 -40.31404,-15.00682c0,-8.28804 18.04921,-15.00682 40.31404,-15.00682c22.26483,0 40.31404,6.71878 40.31404,15.00682z" fill="#b7b7b7" stroke="#0084ac" stroke-width="2"/><path d="M544.93866,-88.87023c0,0 0.6868,-3.22036 3.15419,-5.20853c2.262,-1.82267 6.19897,-2.45903 8.6923,-1.82311c2.39148,0.60995 5.4545,2.88883 6.56939,5.4634c1.31539,3.03759 0.46225,6.38309 0.46225,6.38309c0,0 -4.40049,-1.03994 -9.61354,-2.36952c-5.21305,-1.32959 -9.2646,-2.44533 -9.2646,-2.44533z" fill="#4eff45" stroke="#000000" stroke-width="1.5"/><path d="M554.24272,-86.57965c5.21306,1.32959 9.57407,2.52426 9.57407,2.52426c0,0 -0.85338,3.34544 -3.46292,5.38199c-2.21177,1.72612 -5.99209,2.25961 -8.38358,1.64966c-2.49333,-0.63593 -5.6446,-3.08015 -6.75734,-5.76353c-1.21377,-2.92705 -0.27431,-6.08297 -0.27431,-6.08297c0,0 4.09101,0.96101 9.30406,2.2906z" data-paper-data="{&quot;index&quot;:null}" fill="#ffad78" stroke="#000000" stroke-width="1.5"/></g></g></svg>