<svg version="1.1" xmlns="http://www.w3.org/2000/svg" xmlns:xlink="http://www.w3.org/1999/xlink" width="549.04276" height="444.05863" viewBox="0,0,549.04276,444.05863"><g transform="translate(28.06983,29.47027)"><g data-paper-data="{&quot;isPaintingLayer&quot;:true}" fill-rule="nonzero" stroke-linecap="butt" stroke-linejoin="miter" stroke-miterlimit="10" stroke-dasharray="" stroke-dashoffset="0" style="mix-blend-mode: normal"><path d="M-28.06983,414.58836v-438.66327h549.04276v438.66328z" fill="#9effff" stroke="#ffffff" stroke-width="0"/><path d="M149.60302,180c0,-49.92487 40.47211,-90.39698 90.39699,-90.39698c49.92487,0 90.39698,40.47211 90.39698,90.39699c0,49.92487 -40.47211,90.39698 -90.39698,90.39698c-49.92487,0 -90.39698,-40.47211 -90.39698,-90.39698z" fill="none" stroke="#17cece" stroke-width="25"/><path d="M43.02973,180c0,-108.78368 88.1866,-196.97027 196.97027,-196.97027c108.78368,0 196.97027,88.1866 196.97027,196.97027c0,108.78368 -88.1866,196.97027 -196.97027,196.97027c-108.78368,0 -196.97027,-88.1866 -196.97027,-196.97027z" fill="none" stroke="#17cece" stroke-width="25"/><text transform="translate(15.23527,65.90309) scale(1.02005,1.02005)" font-size="40" xml:space="preserve" fill="#ff3c3c" fill-rule="nonzero" stroke="#000000" stroke-width="2" stroke-linecap="butt" stroke-linejoin="miter" stroke-miterlimit="10" stroke-dasharray="" stroke-dashoffset="0" font-family="Sans Serif" font-weight="normal" text-anchor="start" style="mix-blend-mode: normal"><tspan x="0" dy="0">Choose Your Character</tspan></text><path d="M363.34655,135.19394v-46.60752h46.60751v46.60752z" fill="#ef6dad" stroke="#000000" stroke-width="5"/><path d="M410.3847,226.09798v-46.60752h46.60751v46.60752z" fill="#00a769" stroke="#000000" stroke-width="5"/><path d="M300.71996,222.44249v-46.60752h46.60751v46.60752z" fill="#4ae7fa" stroke="#000000" stroke-width="5"/><path d="M364.20783,310.6049v-46.60752h46.60751v46.60752z" fill="#635c5e" stroke="#000000" stroke-width="5"/></g></g></svg>