<svg version="1.1" xmlns="http://www.w3.org/2000/svg" xmlns:xlink="http://www.w3.org/1999/xlink" width="1084.11111" height="455.19106" viewBox="0,0,1084.11111,455.19106"><g transform="translate(88.61111,67)"><g data-paper-data="{&quot;isPaintingLayer&quot;:true}" fill-rule="nonzero" stroke-linecap="butt" stroke-linejoin="miter" stroke-miterlimit="10" stroke-dasharray="" stroke-dashoffset="0" style="mix-blend-mode: normal"><path d="M238,372v-79h756.5v79z" fill="#4ba7fa" stroke="#3b85c6" stroke-width="2"/><path d="M189.5,265v-74h70v74z" fill="#fff866" stroke="#f2eb61" stroke-width="2"/><path d="M40.5,147v-35h11.18555c23.93652,0.2615 47.87616,0.35008 71.81445,0.24344v34.67108c-22.56249,-0.14087 -45.1266,-0.10616 -67.6886,0.08547z" fill="#fff866" stroke="#f2eb61" stroke-width="2"/><path d="M-87.61111,52v-26h99.11111v26z" fill="#4ba7fa" stroke="#3b85c6" stroke-width="2"/><path d="M107.5,11v-35h103v35z" fill="#fff866" stroke="#f2eb61" stroke-width="2"/><path d="M306.5,-20v-35h103v35z" fill="#4ba7fa" stroke="#3b85c6" stroke-width="2"/><path d="M506.5,-31v-35h103v35z" fill="#fff866" stroke="#f2eb61" stroke-width="2"/><path d="" fill="#3b85c6" stroke="none" stroke-width="0"/><path d="" fill="#3b85c6" stroke="none" stroke-width="0"/><path d="M196.87455,189.89472c5.36584,0.07312 10.732,0.13201 16.09835,0.17616l-15.07756,64.3696l-9.66995,-2.26503c0.07747,-8.55607 0.10093,-17.11286 0.07355,-25.66944z" fill="#f2eb61" stroke="none" stroke-width="0"/><path d="M223.66661,255.7957l15.37245,-65.62852c6.01355,-0.00555 12.02707,-0.03067 18.04035,-0.07609l-16.32766,69.70653z" fill="#f2eb61" stroke="none" stroke-width="0"/><path d="M55.05712,112.03569c5.36893,0.055 10.738,0.10125 16.10717,0.13849l-8.14431,34.76995c-5.39094,0.03775 -10.78177,0.08457 -16.17246,0.14021z" fill="#f2eb61" stroke="none" stroke-width="0"/><path d="M58.2525,167.29762l-0.17995,-0.04215c0.06316,0.00051 0.12631,0.00101 0.18947,0.00152z" fill="#f2eb61" stroke="none" stroke-width="0"/><path d="M81.75731,112.23591c5.37607,0.02533 10.75219,0.04146 16.12834,0.04815l-8.0924,34.54834c-5.38374,0.00701 -10.76747,0.02348 -16.15113,0.04917z" fill="#f2eb61" stroke="none" stroke-width="0"/><path d="M113.2985,112.27713c3.69103,-0.00796 7.38203,-0.02049 11.07301,-0.03766c-0.01301,7.02721 0.03414,14.05463 0.13759,21.08077l-3.1812,13.58126c-5.37488,-0.03088 -10.74984,-0.05183 -16.12484,-0.0631z" fill="#f2eb61" stroke="none" stroke-width="0"/><path d="M116.46678,167.65478l-1.23265,-0.28873c0.43388,-0.00189 0.86777,-0.00384 1.30165,-0.00586z" fill="#f2eb61" stroke="none" stroke-width="0"/><path d="M125.60317,11.14286v-35h66.78571v35z" fill="#f2eb61" stroke="none" stroke-width="0"/><path d="M530.35714,-31.35714v-33.57143h55.71429v33.57143z" fill="#f2eb61" stroke="none" stroke-width="0"/><path d="M-87.4188,52.00212v-25.76923h11.15385v25.76923z" fill="#3b85c6" stroke="none" stroke-width="0"/><path d="M-16.26496,52.00212v-26.53846h27.69231v26.53846z" fill="#3b85c6" stroke="none" stroke-width="0"/><path d="M307.19658,-19.65385v-35h24.23077v35z" fill="#3b85c6" stroke="none" stroke-width="0"/><path d="M391.81197,-20.03846v-33.84615h17.30769v33.84615z" fill="#3b85c6" stroke="none" stroke-width="0"/><path d="M125.5,371v-118h186v118z" fill="#4ba7fa" stroke="#3b85c6" stroke-width="2"/><path d="M124.76149,301.69c-0.04167,-9.0202 -0.11029,-18.04023 -0.20461,-27.05981l187.68649,-14.00646c-0.07796,9.02948 -0.14037,18.05918 -0.18661,27.08901z" fill="#3b85c6" stroke="none" stroke-width="0"/><path d="M124.7638,342.06296c0.0416,-9.02589 0.05433,-18.05198 0.03944,-27.07802l187.19716,-13.96995c-0.03021,9.02599 -0.04398,18.05206 -0.0407,27.07812z" fill="#3b85c6" stroke="none" stroke-width="0"/><path d="M125.04722,388.19106l-0.9894,-13.25799c0.12833,-0.41313 0.23183,-0.8459 0.30813,-1.29833c0.10099,-0.57011 0.15367,-1.15691 0.15367,-1.75601c0.04231,-3.57719 0.07986,-7.15446 0.11273,-10.73179l187.35987,-13.98208c0.02758,9.02177 0.07262,18.04345 0.13571,27.06495z" fill="#3b85c6" stroke="none" stroke-width="0"/><path d="M282.83542,135.64292v-52.82162h30.57076v52.82162z" data-paper-data="{&quot;index&quot;:null}" fill="#68e9fa" stroke="#3b85c6" stroke-width="2.5"/><path d="M296.96261,80.70031v-5.95936h3.84157v5.95936z" data-paper-data="{&quot;index&quot;:null}" fill="#3b85c6" stroke="#3b85c6" stroke-width="2.5"/><path d="M318.12709,67.80174c10.31364,0 18.6745,2.41297 18.6745,5.38952c0,2.97655 -8.36086,5.38952 -18.6745,5.38952c-10.31364,0 -18.6745,-5.38952 -18.6745,-5.38952c0,0 8.36086,-5.38952 18.6745,-5.38952z" data-paper-data="{&quot;index&quot;:null}" fill="#a9f1fa" stroke="#3b85c6" stroke-width="2.5"/><path d="M299.5899,73.25991c0,0 -8.36086,5.38952 -18.6745,5.38952c-10.31364,0 -18.6745,-2.41297 -18.6745,-5.38952c0,-2.97654 8.36085,-5.38952 18.6745,-5.38952c10.31364,0 18.6745,5.38952 18.6745,5.38952z" data-paper-data="{&quot;index&quot;:null}" fill="#a9f1fa" stroke="#3b85c6" stroke-width="2.5"/><path d="M289.76083,108.22586l12.4741,-15.6987l4.122,3.27532l-12.4741,15.6987z" data-paper-data="{&quot;index&quot;:null}" fill="#3b85c6" stroke="none" stroke-width="2.5"/><path d="M294.10686,104.84916l12.4741,15.6987l-4.122,3.27533l-12.4741,-15.6987z" data-paper-data="{&quot;index&quot;:null}" fill="#3b85c6" stroke="none" stroke-width="2.5"/></g></g></svg>