<svg version="1.1" xmlns="http://www.w3.org/2000/svg" xmlns:xlink="http://www.w3.org/1999/xlink" width="414.97044" height="173.87045" viewBox="0,0,414.97044,173.87045"><g transform="translate(-2.52956,-90.12589)"><g data-paper-data="{&quot;isPaintingLayer&quot;:true}" fill-rule="nonzero" stroke-linecap="butt" stroke-linejoin="miter" stroke-miterlimit="10" stroke-dasharray="" stroke-dashoffset="0" style="mix-blend-mode: normal"><path d="M65,234.5v-109h350v109z" data-paper-data="{&quot;origPos&quot;:null}" fill="#d1f6fa" stroke="#a2bec1" stroke-width="5"/><text transform="translate(191,157.5) scale(0.80336,0.80336)" font-size="40" xml:space="preserve" data-paper-data="{&quot;origPos&quot;:null}" fill="#000000" fill-rule="nonzero" stroke="none" stroke-width="1" stroke-linecap="butt" stroke-linejoin="miter" stroke-miterlimit="10" stroke-dasharray="" stroke-dashoffset="0" font-family="Sans Serif" font-weight="normal" text-anchor="start" style="mix-blend-mode: normal"><tspan x="0" dy="0">Player</tspan></text><text transform="translate(204,220.15905) scale(0.65956,0.65956)" font-size="40" xml:space="preserve" data-paper-data="{&quot;origPos&quot;:null}" fill="#000000" fill-rule="nonzero" stroke="none" stroke-width="1" stroke-linecap="butt" stroke-linejoin="miter" stroke-miterlimit="10" stroke-dasharray="" stroke-dashoffset="0" font-family="Sans Serif" font-weight="normal" text-anchor="start" style="mix-blend-mode: normal"><tspan x="0" dy="0">Won!</tspan></text><path d="M87.30274,233.4107c2.86532,-0.14094 5.76177,0.04 8.59094,0.51522c0,0 2.3507,0.40827 2.99515,2.44288c0.28697,0.57878 0.39857,1.13844 0.4405,1.43509c0.52944,1.90291 0.5014,4.14913 1.90812,5.47912c0.57642,0.54498 1.57469,0.24707 2.32684,0.49916c4.43173,1.48518 7.06271,2.15596 8.6063,7.61326c3.78749,13.39045 -17.38836,15.08098 -24.7576,9.86183c-6.6631,-4.71903 -5.26511,-14.88354 -5.65419,-21.97247c0,0 -0.03682,-0.67071 0.20314,-1.46252c-0.19045,-1.83338 0.81324,-2.85759 1.70367,-3.39766c0.4242,-0.28087 0.90949,-0.47904 1.43404,-0.5702zM89.95551,250.70444c0.14871,1.45803 0.24029,3.39911 1.73007,4.3043c2.73766,1.66338 6.96542,0.75967 9.89195,0.74944c1.41062,-0.00494 4.12889,0.28639 3.267,-2.45829c-0.98932,-3.15047 -6.72036,-2.53462 -8.73557,-4.4494c-1.1859,-1.12679 -2.70551,-5.24435 -3.61799,-7.76965c-1.02138,-0.10932 -2.04968,-0.16508 -3.07624,-0.1646c0.13739,3.26236 0.21108,6.55545 0.54078,9.78821z" fill="#000000" stroke="none" stroke-width="0.5"/><path d="M89.35969,240.8643c1.02657,-0.00048 2.06839,0.04394 3.08977,0.15327c0.91248,2.52532 2.54082,6.6713 3.72671,7.79809c2.01521,1.91478 7.74228,1.37541 8.73159,4.52587c0.8619,2.74468 -1.88145,2.47713 -3.29209,2.48205c-2.92653,0.01023 -7.24046,0.90704 -9.97812,-0.75633c-1.48978,-0.90519 -1.60511,-2.88076 -1.75382,-4.33879c-0.32971,-3.23277 -0.38665,-6.6018 -0.52404,-9.86416z" data-paper-data="{&quot;noHover&quot;:false,&quot;origItem&quot;:[&quot;Path&quot;,{&quot;applyMatrix&quot;:true,&quot;segments&quot;:[[[474.89993,450.30982],[-0.20872,-4.45591],[0.09414,2.0097]],[[476.9475,456.33983],[-1.97393,-1.3528],[3.62734,2.48593]],[[490.4499,458.11125],[-4.01214,-0.20614],[1.93391,0.09936]],[[495.11287,454.98748],[0.97491,3.82694],[-1.11904,-4.39274]],[[483.47386,448.23155],[2.61818,2.77618],[-1.54072,-1.63369]],[[479.09924,437.30959],[1.06073,3.53007],[-1.39176,-0.22668]],[[474.89505,436.85255],[1.40713,0.07657],[-0.05711,4.48202]]],&quot;closed&quot;:true}]}" fill="#4ae7fa" stroke="none" stroke-width="0.5"/><path d="M55.78236,232.73327c2.86874,0.0163 5.75092,0.35569 8.54978,0.98523c0,0 2.32477,0.53648 2.85678,2.60335c0.25481,0.59363 0.33559,1.15858 0.36119,1.45708c0.42436,1.92906 0.27326,4.17037 1.60498,5.57545c0.54569,0.57575 1.5588,0.33301 2.296,0.62591c4.34367,1.72582 6.93393,2.53977 8.17613,8.07346c3.04795,13.5779 -18.18871,14.10539 -25.26085,8.49023c-6.39447,-5.0771 -4.44155,-15.14972 -4.44155,-22.2493c0,0 0,-0.67171 0.28298,-1.44919c-0.08971,-1.84106 0.96863,-2.80873 1.88732,-3.2992c0.43896,-0.25719 0.93437,-0.42848 1.46313,-0.49075zM57.4834,250.14642c0.06858,1.464 0.05364,3.40719 1.49157,4.39264c2.64239,1.8109 6.91331,1.14025 9.83602,1.29041c1.40879,0.07238 4.10699,0.51224 3.39679,-2.27555c-0.81518,-3.19995 -6.57134,-2.89911 -8.47859,-4.92146c-1.12236,-1.19009 -2.41406,-5.38474 -3.18676,-7.95625c-1.01385,-0.16513 -2.03755,-0.27715 -3.06259,-0.33293c-0.04161,3.26499 -0.14849,6.55716 0.00356,9.80312z" fill="#000000" stroke="none" stroke-width="0.5"/><path d="M57.4277,240.28841c1.02505,0.05578 2.06287,0.15723 3.07671,0.32236c0.77271,2.57152 2.1714,6.80052 3.29376,7.99061c1.90725,2.02235 7.65526,1.79763 8.47044,4.9976c0.71018,2.78779 -2.01438,2.37029 -3.42316,2.29791c-2.9227,-0.15016 -7.27929,0.50889 -9.92168,-1.30202c-1.43794,-0.98547 -1.44482,-2.96439 -1.5134,-4.42839c-0.15205,-3.24596 -0.02429,-6.61307 0.01732,-9.87806z" data-paper-data="{&quot;noHover&quot;:false,&quot;origItem&quot;:[&quot;Path&quot;,{&quot;applyMatrix&quot;:true,&quot;segments&quot;:[[[237.44997,225.15491],[-0.10436,-2.22795],[0.04707,1.00485]],[[238.47375,228.16991],[-0.98697,-0.6764],[1.81367,1.24296]],[[245.22495,229.05563],[-2.00607,-0.10307],[0.96696,0.04968]],[[247.55643,227.49374],[0.48745,1.91347],[-0.55952,-2.19637]],[[241.73693,224.11577],[1.30909,1.38809],[-0.77036,-0.81685]],[[239.54962,218.65479],[0.53037,1.76503],[-0.69588,-0.11334]],[[237.44753,218.42628],[0.70357,0.03829],[-0.02856,2.24101]]],&quot;closed&quot;:true}]}" fill="#4ae7fa" stroke="none" stroke-width="0.5"/><path d="M135.52196,160.11109c5.67272,8.48178 6.86543,19.11547 10.22831,28.48926c1.26089,3.51463 2.41116,6.4952 2.94171,10.27645c2.2738,6.73033 3.54543,13.43311 3.38892,20.53914c-0.07922,3.5967 0.55251,6.02836 -3.38801,8.25227c-3.22354,1.81927 -7.12846,0.93407 -9.71931,-1.42438c-1.01398,-0.92302 -1.33787,-2.39423 -1.97468,-3.60855c-0.48338,-0.92177 -1.17086,-1.7802 -1.44607,-2.7768c-1.25319,0.82083 -2.6647,1.78224 -4.11932,1.57613c-1.93691,-0.27444 -3.69987,-1.60199 -5.01238,-3.05259c-4.18428,-4.62452 -0.44205,-13.21457 0.33584,-18.35008c-0.95013,-6.27266 -3.79913,-11.63851 -6.73063,-17.01914c-0.89796,-1.64817 -1.14098,-3.70914 -2.41696,-5.08562c-1.71126,-1.84605 -3.27739,-1.75759 -4.90214,-3.99079c-2.17387,-2.98797 -2.90133,-7.29328 -3.41331,-10.83411c-1.01535,-7.02204 0.39933,-20.14604 1.04724,-17.59c2.07086,2.61488 14.90871,4.25374 17.48644,6.36313c0,0 5.7765,5.36813 7.69436,8.23567z" data-paper-data="{&quot;index&quot;:null}" fill="#4ae7fa" stroke="#000000" stroke-width="5"/><path d="M36.34278,146.50988c0.64791,-2.55604 3.34789,-2.10604 3.34789,-2.10604l4.20375,1.08318c5.83771,4.97889 4.93683,10.8461 3.92148,17.86816c-0.51199,3.54083 -1.23944,7.84613 -3.41331,10.8341c-1.62475,2.23321 -3.19088,2.14475 -4.90214,3.9908c-1.27598,1.37647 -1.51899,3.43744 -2.41695,5.08561c-2.9315,5.38063 -5.7805,10.7465 -6.73063,17.01915c0.7779,5.13551 4.52013,13.72554 0.33585,18.35008c-1.31251,1.4506 -3.07547,2.77816 -5.01239,3.0526c-1.45464,0.2061 -2.86611,-0.7553 -4.11931,-1.57613c-0.2752,0.9966 -0.96269,1.85503 -1.44607,2.7768c-0.63681,1.21432 -0.9607,2.68554 -1.97468,3.60856c-2.59084,2.35844 -6.49577,3.24365 -9.71931,1.42438c-3.94053,-2.22392 -3.30879,-4.65556 -3.38801,-8.25227c-0.1565,-7.10603 1.11511,-13.80882 3.38892,-20.53914c0.53055,-3.78125 1.68082,-6.76182 2.94171,-10.27645c3.36288,-9.3738 4.55558,-20.00747 10.2283,-28.48925c1.91784,-2.86754 5.01685,-6.04463 7.69436,-8.23568c2.57773,-2.10939 4.9897,-3.00355 7.06058,-5.61843z" fill="#4ae7fa" stroke="#000000" stroke-width="5"/><path d="M116.51797,158.73002c0,40.18771 3.88798,77.98457 -24.93187,77.98457c-10.54906,0 -39.57282,2.17401 -46.40255,-3.65681c-11.82898,-10.09888 -4.6208,-44.21164 -4.6208,-69.68926c0,-15.70974 -6.35184,-29.74991 -4.59851,-44.55677c0.84396,-7.12721 13.93461,-21.91304 29.60784,-26.18586c10.49421,-2.86092 22.78595,1.87016 30.95889,6.0785c19.13345,9.85202 19.98699,48.18766 19.98699,60.02565z" fill="#4ae7fa" stroke="#000000" stroke-width="5"/><path d="M50.63617,142.20288c0,-14.50292 11.75693,-26.25984 26.25985,-26.25984c14.50292,0 26.25984,11.75693 26.25984,26.25985c0,14.50292 -11.75692,26.25984 -26.25984,26.25984c-14.50292,0 -26.25985,-11.75692 -26.25985,-26.25984z" fill="#dee0df" stroke="#000000" stroke-width="5"/><path d="M81.30335,142.12464c0,5.10071 -2.26436,9.23564 -5.05761,9.23564c-2.79323,0 -5.05761,-4.13493 -5.05761,-9.23564c0,-5.10071 2.26436,-9.23562 5.05761,-9.23562c2.79323,0 5.05761,4.13492 5.05761,9.23562z" fill="#000000" stroke="none" stroke-width="0"/><path d="M95.18489,141.93281c0,5.10071 -2.26438,9.23564 -5.05763,9.23564c-2.79323,0 -5.05761,-4.13493 -5.05761,-9.23564c0,-5.10071 2.26436,-9.23562 5.05761,-9.23562c2.79325,0 5.05763,4.13492 5.05763,9.23562z" fill="#000000" stroke="none" stroke-width="0"/></g></g></svg>