<svg version="1.1" xmlns="http://www.w3.org/2000/svg" xmlns:xlink="http://www.w3.org/1999/xlink" width="716.51564" height="546.36127" viewBox="0,0,716.51564,546.36127"><g transform="translate(57.49673,136.29085)"><g data-paper-data="{&quot;isPaintingLayer&quot;:true}" fill-rule="nonzero" stroke-linecap="butt" stroke-linejoin="miter" stroke-miterlimit="10" stroke-dasharray="" stroke-dashoffset="0" style="mix-blend-mode: normal"><path d="M-34.52869,219.70835v-354.2492h541.52157v354.24921z" fill="#aefff5" stroke="#000000" stroke-width="3.5"/><path d="M339.4809,209.94797c0,34.13623 -51.62851,61.8091 -115.3155,61.8091c-12.0094,0 -51.08669,-0.46642 -74.89921,-11.90045c-28.12213,-13.50337 -40.41628,-39.02622 -40.41628,-49.90865c0,-34.13623 51.6285,-61.80911 115.3155,-61.80911c63.68699,0 115.3155,27.67288 115.3155,61.80911z" fill="#ffffff" stroke="#ebebeb" stroke-width="3.5"/><path d="M418.28282,250.9264c0,34.13623 -51.62851,61.8091 -115.31549,61.8091c-63.68699,0 -115.3155,-27.67288 -115.3155,-61.8091c0,-34.13623 51.62851,-61.8091 115.3155,-61.8091c63.68699,0 115.3155,27.67288 115.3155,61.8091z" fill="#ffffff" stroke="#ebebeb" stroke-width="3.5"/><path d="M605.02004,218.10292c0,34.13623 -51.62851,61.8091 -115.31549,61.8091c-63.68699,0 -115.31549,-27.67288 -115.31549,-61.8091c0,-34.13623 51.62851,-61.8091 115.3155,-61.8091c63.68699,0 115.3155,27.67288 115.3155,61.8091z" fill="#ffffff" stroke="#ebebeb" stroke-width="3.5"/><path d="M174.88425,217.8633c0,34.13623 -51.6285,61.8091 -115.31549,61.8091c-63.68699,0 -115.31549,-27.67288 -115.31549,-61.8091c0,-34.13623 51.62851,-61.8091 115.3155,-61.8091c63.68699,0 115.3155,27.67288 115.3155,61.8091z" fill="#ffffff" stroke="#ebebeb" stroke-width="3.5"/><path d="M146.83968,168.74226c8.31144,0 15.04919,4.446 15.04919,9.93042c0,5.48442 -6.73775,9.93042 -15.04919,9.93042c-8.31144,0 -15.04919,-4.446 -15.04919,-9.93042c0,-5.48442 6.73775,-9.93042 15.04919,-9.93042z" fill="#ffffff" stroke="none" stroke-width="0"/><path d="M332.88353,193.73019c0,4.03608 -5.09806,7.30798 -11.38685,7.30798c-6.28878,0 -11.38685,-3.27189 -11.38685,-7.30798c0,-4.03608 5.09806,-7.30798 11.38685,-7.30798c6.28878,0 11.38685,3.27189 11.38685,7.30798z" fill="#ffffff" stroke="none" stroke-width="0"/><path d="M380.26092,209.92721c0,3.10895 -2.72745,5.62926 -6.09193,5.62926c-3.36448,0 -6.09193,-2.5203 -6.09193,-5.62926c0,-3.10895 2.72745,-5.62926 6.09193,-5.62926c3.36448,0 6.09193,2.5203 6.09193,5.62926z" fill="#ffffff" stroke="none" stroke-width="0"/><path d="M368.21042,280.14662v-68.0359h66.023v68.0359z" fill="#ffffff" stroke="none" stroke-width="0"/><path d="M183.8291,270.48472v-86.15197h132.85117v86.15197z" fill="#ffffff" stroke="none" stroke-width="0"/><path d="M148.40213,269.27698v-89.77518h51.53015v89.77518z" fill="#ffffff" stroke="none" stroke-width="0"/><path d="M339.76,324.23553c0,47.4053 -87.77907,85.8349 -196.06004,85.8349c-108.28097,0 -196.06004,-38.42959 -196.06004,-85.8349c0,-47.4053 87.77907,-85.8349 196.06004,-85.8349c61.73061,0 131.26735,7.66686 167.20572,27.18944c27.10071,14.72176 28.85432,38.26575 28.85432,58.64545z" fill="#fe9bff" stroke="none" stroke-width="0"/><path d="M659.01891,315.16424c0,47.40531 -87.77906,85.8349 -196.06003,85.8349c-108.28097,0 -196.06004,-38.42959 -196.06004,-85.8349c0,-47.4053 87.77907,-85.8349 196.06004,-85.8349c108.28097,0 196.06003,38.42959 196.06003,85.8349z" fill="#fe9bff" stroke="none" stroke-width="0"/></g></g></svg>