<svg version="1.1" xmlns="http://www.w3.org/2000/svg" xmlns:xlink="http://www.w3.org/1999/xlink" width="25.33334" height="25.33333" viewBox="0,0,25.33334,25.33333"><g transform="translate(-227.33333,-167.33333)"><g data-paper-data="{&quot;isPaintingLayer&quot;:true}" fill-rule="nonzero" stroke="none" stroke-linecap="butt" stroke-linejoin="miter" stroke-miterlimit="10" stroke-dasharray="" stroke-dashoffset="0" style="mix-blend-mode: normal"><path d="M227.33333,190.21778c0,-5.12163 0,-16.74677 0,-19.84445c0,-1.4801 1.85102,-3.04 3.52857,-3.04c3.0592,0 13.36447,0 18.6381,0c1.91511,0 3.16667,1.24609 3.16667,2.49714c0,2.96184 0,15.28231 0,20.49286c0,1.44512 -1.17699,2.34333 -2.375,2.34333c-2.85714,0 -14.83948,0 -20.26667,0c-1.64808,0 -2.69167,-0.94352 -2.69167,-2.44889z" fill="#000000" stroke-width="0"/><path d="M243.76472,184.18299c0,0 -2.48612,2.79303 -3.29859,3.7058c-0.47607,0.53484 -1.87521,0.71855 -2.57548,0.23975c-0.94145,-0.6437 -1.93099,-1.27655 -2.12051,-1.4301l-3.52425,-2.85569c-0.68815,-0.55761 -0.79397,-1.56749 -0.23637,-2.25564l7.61517,-9.39799c0.55767,-0.68819 1.56753,-0.79398 2.25568,-0.23637l5.87374,4.75948c0.68815,0.55761 0.79398,1.5675 0.23637,2.25565zM234.07875,182.51795l2.93687,2.37975c0,0 1.48656,1.30733 2.09083,1.24401c0.6615,-0.06932 1.72201,-1.64356 1.72201,-1.64356l2.00238,-2.47112l-5.04309,-4.08641z" fill="#a5bddb" stroke-width="1"/></g></g></svg>