<svg version="1.1" xmlns="http://www.w3.org/2000/svg" xmlns:xlink="http://www.w3.org/1999/xlink" width="14.93921" height="13.90557" viewBox="0,0,14.93921,13.90557"><g transform="translate(-232.53041,-173.04722)"><g data-paper-data="{&quot;isPaintingLayer&quot;:true}" fill="#66e1ff" fill-rule="nonzero" stroke="none" stroke-width="0.5" stroke-linecap="butt" stroke-linejoin="miter" stroke-miterlimit="10" stroke-dasharray="" stroke-dashoffset="0" style="mix-blend-mode: normal"><path d="M239.67544,186.25401c-0.55902,-1.11803 0.55902,-1.67705 0.55902,-1.67705l0.38184,-0.18171c2.27097,-0.79512 6.8996,-6.40781 2.71851,-7.62061c-1.92256,-0.55767 -4.7061,1.07435 -6.3975,2.03223l0.29019,0.14509c0,0 1.11803,0.55902 0.55902,1.67705c-0.55902,1.11803 -1.67705,0.55902 -1.67705,0.55902l-0.75,-0.375c-3.65983,-1.92682 -3.23552,-3.64039 -1.70394,-7.01029c0,0 0.51725,-1.13796 1.65521,-0.6207c1.13796,0.51725 0.6207,1.65521 0.6207,1.65521c-0.51678,1.13678 -1.02103,1.80352 -1.01021,2.34899c0.18536,-0.22129 0.39486,-0.33651 0.39486,-0.33651c2.3289,-1.27916 5.82369,-3.29582 8.68607,-2.48437c7.07197,2.00481 1.83452,10.74624 -2.53149,12.37939l-0.11816,0.06829c0,0 -1.11803,0.55902 -1.67705,-0.55902z"/></g></g></svg>