<svg version="1.1" xmlns="http://www.w3.org/2000/svg" xmlns:xlink="http://www.w3.org/1999/xlink" width="16.69648" height="16.81005" viewBox="0,0,16.69648,16.81005"><g transform="translate(-231.65177,-171.59498)"><g data-paper-data="{&quot;isPaintingLayer&quot;:true}" fill="#a5bddb" fill-rule="nonzero" stroke="none" stroke-width="1" stroke-linecap="butt" stroke-linejoin="miter" stroke-miterlimit="10" stroke-dasharray="" stroke-dashoffset="0" style="mix-blend-mode: normal"><path d="M243.76472,184.18299c0,0 -2.48612,2.79303 -3.29859,3.7058c-0.47607,0.53484 -1.87521,0.71855 -2.57548,0.23975c-0.94145,-0.6437 -1.93099,-1.27655 -2.12051,-1.4301l-3.52425,-2.85569c-0.68815,-0.55761 -0.79397,-1.56749 -0.23637,-2.25564l7.61517,-9.39799c0.55767,-0.68819 1.56753,-0.79398 2.25568,-0.23637l5.87374,4.75948c0.68815,0.55761 0.79398,1.5675 0.23637,2.25565zM234.07875,182.51795l2.93687,2.37975c0,0 1.48656,1.30733 2.09083,1.24401c0.6615,-0.06932 1.72201,-1.64356 1.72201,-1.64356l2.00238,-2.47112l-5.04309,-4.08641z"/></g></g></svg>