<svg version="1.1" xmlns="http://www.w3.org/2000/svg" xmlns:xlink="http://www.w3.org/1999/xlink" width="87.75001" height="23.25" viewBox="0,0,87.75001,23.25"><g transform="translate(-196.125,-168.375)"><g data-paper-data="{&quot;isPaintingLayer&quot;:true}" fill-rule="nonzero" stroke="none" stroke-linecap="butt" stroke-linejoin="miter" stroke-miterlimit="10" stroke-dasharray="" stroke-dashoffset="0" style="mix-blend-mode: normal"><path d="M196.125,189.88c0,-4.34547 0,-17.47303 0,-20c0,-0.79435 1.69975,-1.505 3.77732,-1.505c8.50526,0 65.54705,0 80.42782,0c2.25768,0 3.54487,0.60556 3.54487,1.305c0,2.02088 0,15.94233 0,20.4c0,0.84691 -2.40526,1.545 -4.00977,1.545c-7.8352,0 -67.2344,0 -80.19536,0c-1.53192,0 -3.54487,-0.89813 -3.54487,-1.745z" fill="#a5c2e6" stroke-width="0"/><path d="M276.49375,177.27862c0.634,2.41827 -1.78427,3.05228 -1.78427,3.05228l-2.05535,0.53201c-5.71934,1.95125 -10.59083,3.48532 -16.70787,2.71576c-6.77238,-0.41625 -13.21223,-2.16413 -19.89418,-3.00396c-3.41081,-0.42869 -17.94491,-0.09604 -20.93683,0.96614c-2.61051,0.92677 -5.52148,2.81662 -7.92644,4.13653c0,0 -2.1923,1.20159 -3.39389,-0.99071c-1.20159,-2.1923 0.99071,-3.39389 0.99071,-3.39389c2.60937,-1.42836 5.90636,-3.55086 8.75968,-4.49907c3.60384,-1.19761 19.32439,-1.6288 23.01299,-1.19331c6.67285,0.78782 13.10774,2.57837 19.86063,3.00066c5.38274,0.70306 9.58164,-0.74672 14.61882,-2.46967l2.40373,-0.63703c0,0 2.41827,-0.63401 3.05228,1.78427z" fill="#ffffff" stroke-width="0.5"/></g></g></svg>