<svg version="1.1" xmlns="http://www.w3.org/2000/svg" xmlns:xlink="http://www.w3.org/1999/xlink" width="25.33334" height="25.33333" viewBox="0,0,25.33334,25.33333"><g transform="translate(-227.33333,-167.33333)"><g data-paper-data="{&quot;isPaintingLayer&quot;:true}" fill-rule="nonzero" stroke="none" stroke-linecap="butt" stroke-linejoin="miter" stroke-miterlimit="10" stroke-dasharray="" stroke-dashoffset="0" style="mix-blend-mode: normal"><path d="M227.33334,190.21779c0,-5.12163 0,-16.74677 0,-19.84445c0,-1.4801 1.85102,-3.04 3.52857,-3.04c3.0592,0 13.36447,0 18.6381,0c1.91511,0 3.16667,1.24609 3.16667,2.49714c0,2.96184 0,15.28231 0,20.49286c0,1.44512 -1.17699,2.34333 -2.375,2.34333c-2.85714,0 -14.83948,0 -20.26667,0c-1.64808,0 -2.69167,-0.94352 -2.69167,-2.44889z" fill="#000000" stroke-width="0"/><path d="M239.97321,183.86251c0.00888,0.09299 0.02693,0.18355 0.02693,0.27838c0,2.33006 -1.44772,3.66462 -3.55406,3.66462c-2.50089,0 -3.55406,-2.20688 -3.55434,-4.71775c0.27183,0.20367 1.22559,1.04734 1.53408,1.04734c0.18298,0 0.33986,-0.11495 0.40511,-0.30429c0.57365,-1.65989 1.58461,-2.12578 2.69859,-2.20444zM247.10826,173.70529c0,0.49211 -0.18104,0.96471 -0.38595,1.40224c-3.13896,6.43313 -4.13853,7.81952 -5.86309,7.81952c-0.21519,0 -0.42149,-0.0375 -0.62168,-0.09239l-1.77203,-1.62147c-0.15216,-0.36405 -0.2424,-0.76226 -0.2424,-1.17997c0,-1.63885 0.59059,-1.76965 6.26625,-7.33716c0.30099,-0.29697 0.69554,-0.50156 1.11647,-0.50156c0.7805,0 1.50242,0.62932 1.50242,1.51079z" fill="#a5bddb" stroke-width="1"/></g></g></svg>