<svg version="1.1" xmlns="http://www.w3.org/2000/svg" xmlns:xlink="http://www.w3.org/1999/xlink" width="87.75001" height="23.25" viewBox="0,0,87.75001,23.25"><g transform="translate(-196.125,-168.375)"><g data-paper-data="{&quot;isPaintingLayer&quot;:true}" fill-rule="nonzero" stroke="none" stroke-linecap="butt" stroke-linejoin="miter" stroke-miterlimit="10" stroke-dasharray="" stroke-dashoffset="0" style="mix-blend-mode: normal"><path d="M196.125,189.88c0,-4.34547 0,-17.47303 0,-20c0,-0.79435 1.69975,-1.505 3.77732,-1.505c8.50526,0 65.54705,0 80.42782,0c2.25768,0 3.54487,0.60556 3.54487,1.305c0,2.02088 0,15.94233 0,20.4c0,0.84691 -2.40526,1.545 -4.00977,1.545c-7.8352,0 -67.2344,0 -80.19536,0c-1.53192,0 -3.54487,-0.89813 -3.54487,-1.745z" fill="#a5c2e6" stroke-width="0"/><path d="M275.13478,176.10806c-0.03048,1.4642 -1.26519,1.8986 -2.02428,2.02726c-4.83542,3.49772 -11.08402,5.49504 -17.44908,6.16378c-2.58176,-0.03927 -4.10435,0.09966 -6.61983,-0.62108c-4.6814,-1.34133 -8.25826,-4.66493 -12.87637,-6.09524c-1.78047,-0.55144 -5.00212,-0.05897 -6.80627,0.17819c-7.91836,1.04094 -14.79888,5.64447 -20.66701,9.97453c0,0 -1.9132,1.4096 -3.61925,-0.17115c-1.70605,-1.58075 0.20715,-2.99034 0.20715,-2.99034c7.56122,-5.5629 15.73182,-10.50048 26.07264,-11.19579c2.13891,-0.14382 4.25096,-0.42218 6.37424,0.1699c6.50853,1.81492 10.46298,6.42859 17.65926,6.52119c5.30876,-0.53967 11.09231,-2.39089 14.89204,-5.52811l2.33783,-0.58721c0,0 2.56301,0.03642 2.51893,2.15405z" fill="#ffffff" stroke-width="0.5"/></g></g></svg>