<svg version="1.1" xmlns="http://www.w3.org/2000/svg" xmlns:xlink="http://www.w3.org/1999/xlink" width="20" height="20" viewBox="0,0,20,20"><g transform="translate(-230,-170)"><g data-paper-data="{&quot;isPaintingLayer&quot;:true}" fill-rule="nonzero" stroke="none" stroke-linecap="butt" stroke-linejoin="miter" stroke-miterlimit="10" stroke-dasharray="" stroke-dashoffset="0" style="mix-blend-mode: normal"><path d="M230,190v-20h20v20z" fill="#9966ff" stroke-width="0"/><path d="M237.32638,182.78824c0.08845,0.08476 0.17734,0.17838 0.26645,0.28143c0.28181,0.32586 0.69342,0.64607 0.7155,1.07632c0.09397,1.83103 -3.90919,3.48408 -5.02828,1.81492c-0.58214,-0.86828 0.45678,-1.53017 0.71001,-2.13671c0.67831,-1.62472 1.09369,-2.88126 3.04097,-1.55985c0,0 0.26213,0.2097 0.29535,0.52389zM234.55862,185.25883c-0.03365,0.02969 -0.03775,0.03462 0.00313,0.00477c-0.00105,-0.00158 -0.00209,-0.00317 -0.00313,-0.00477z" fill="#66e1ff" stroke-width="0.5"/><path d="M245.71604,175.04636c-0.13951,0.05581 -0.26226,0.07248 -0.36935,0.06346c-1.60622,1.32878 -4.63018,3.89466 -5.49822,5.97639l0.045,0.13501c0.0285,0.07926 0.04402,0.16471 0.04402,0.25378c0,0.41421 -0.33579,0.75 -0.75,0.75c-0.18443,0 -0.3533,-0.06657 -0.48392,-0.17699l-0.74622,-0.62185c0,0 -0.57617,-0.48014 -0.09603,-1.0563c0.22956,-0.27547 0.48107,-0.30948 0.68106,-0.26995c0.21615,-0.28892 0.71699,-0.57515 1.02481,-1.0465c1.27318,-1.94953 2.97071,-3.53427 4.73053,-5.0202c-0.09209,-0.06139 -0.18418,-0.12278 -0.27626,-0.18418c0,0 -0.62404,-0.41603 -0.20801,-1.04006c0.41603,-0.62404 1.04006,-0.20801 1.04006,-0.20801c0.25,0.16667 0.5,0.33333 0.75,0.5l0.53033,0.97049c0,0 0.27854,0.69636 -0.41781,0.9749z" fill="#66e1ff" stroke-width="0.5"/></g></g></svg>