<svg version="1.1" xmlns="http://www.w3.org/2000/svg" xmlns:xlink="http://www.w3.org/1999/xlink" width="14.21652" height="15.61099" viewBox="0,0,14.21652,15.61099"><g transform="translate(-232.89174,-172.1945)"><g data-paper-data="{&quot;isPaintingLayer&quot;:true}" fill="#a5bddb" fill-rule="nonzero" stroke="none" stroke-width="1" stroke-linecap="butt" stroke-linejoin="miter" stroke-miterlimit="10" stroke-dasharray="" stroke-dashoffset="0" style="mix-blend-mode: normal"><path d="M239.97321,183.8625c0.00888,0.09299 0.02693,0.18355 0.02693,0.27838c0,2.33006 -1.44772,3.66462 -3.55406,3.66462c-2.50089,0 -3.55406,-2.20688 -3.55434,-4.71775c0.27183,0.20367 1.22559,1.04734 1.53408,1.04734c0.18298,0 0.33986,-0.11495 0.40511,-0.30429c0.57365,-1.65989 1.58461,-2.12578 2.69859,-2.20444zM247.10826,173.70529c0,0.49211 -0.18104,0.96471 -0.38595,1.40224c-3.13896,6.43313 -4.13853,7.81952 -5.86309,7.81952c-0.21519,0 -0.42149,-0.0375 -0.62168,-0.09239l-1.77203,-1.62147c-0.15216,-0.36405 -0.2424,-0.76226 -0.2424,-1.17997c0,-1.63885 0.59059,-1.76965 6.26625,-7.33716c0.30099,-0.29697 0.69554,-0.50156 1.11647,-0.50156c0.7805,0 1.50242,0.62932 1.50242,1.51079z"/></g></g></svg>