<svg version="1.1" xmlns="http://www.w3.org/2000/svg" xmlns:xlink="http://www.w3.org/1999/xlink" width="481" height="478.1024" viewBox="0,0,481,478.1024"><g transform="translate(-125.2963,124.2934)"><g data-paper-data="{&quot;isPaintingLayer&quot;:true}" fill-rule="nonzero" stroke="none" stroke-width="0" stroke-linecap="butt" stroke-linejoin="miter" stroke-miterlimit="10" stroke-dasharray="" stroke-dashoffset="0" style="mix-blend-mode: normal"><path d="M125.29631,114.7578c0,-132.02434 107.67552,-239.0512 240.5,-239.0512c132.82448,0 240.5,107.02687 240.5,239.0512c0,132.02434 -107.67552,239.0512 -240.5,239.0512c-132.82448,0 -240.5,-107.02687 -240.5,-239.0512z" fill="#5c0f01"/><path d="M126.75001,114.4045c0,-116.25594 94.24406,-210.5 210.5,-210.5c116.25594,0 210.5,94.24406 210.5,210.5c0,116.25594 -94.24406,210.5 -210.5,210.5c-116.25594,0 -210.5,-94.24406 -210.5,-210.5z" fill="#6e1b0a"/><path d="M125.50001,119.9045c0,-113.21837 91.78163,-205 205,-205c113.21837,0 205,91.78163 205,205c0,113.21837 -91.78163,205 -205,205c-113.21837,0 -205,-91.78163 -205,-205z" fill="#7d1e0b"/><path d="M125.50001,124.4045c0,-99.6874 80.8126,-180.5 180.5,-180.5c99.6874,0 180.5,80.8126 180.5,180.5c0,99.6874 -80.8126,180.5 -180.5,180.5c-99.6874,0 -180.5,-80.8126 -180.5,-180.5z" fill="#9e260e"/><path d="M126.50001,129.4045c0,-86.98485 70.51515,-157.5 157.5,-157.5c86.98485,0 157.5,70.51515 157.5,157.5c0,86.98485 -70.51515,157.5 -157.5,157.5c-86.98485,0 -157.5,-70.51515 -157.5,-157.5z" fill="#b12b10"/><path d="M125.50001,132.4045c0,-70.96859 57.53141,-128.5 128.5,-128.5c70.96859,0 128.5,57.53141 128.5,128.5c0,70.96859 -57.53141,128.5 -128.5,128.5c-70.96859,0 -128.5,-57.53141 -128.5,-128.5z" fill="#c22f12"/><path d="M126.50001,135.9045c0,-62.96046 51.03954,-114 114,-114c62.96046,0 114,51.03954 114,114c0,62.96046 -51.03954,114 -114,114c-62.96046,0 -114,-51.03954 -114,-114z" fill="#ad2a10"/><path d="M126.50001,137.4045c0,-46.66806 37.83194,-84.5 84.5,-84.5c46.66806,0 84.5,37.83194 84.5,84.5c0,46.66806 -37.83194,84.5 -84.5,84.5c-46.66806,0 -84.5,-37.83194 -84.5,-84.5z" fill="#a3270f"/><path d="M125.50001,137.9045c0,-38.65993 31.34007,-70 70,-70c38.65993,0 70,31.34007 70,70c0,38.65993 -31.34007,70 -70,70c-38.65993,0 -70,-31.34007 -70,-70z" fill="#97240e"/><path d="M126.00001,138.9045c0,-27.06195 21.93805,-49 49,-49c27.06195,0 49,21.93805 49,49c0,27.06195 -21.93805,49 -49,49c-27.06195,0 -49,-21.93805 -49,-49z" fill="#84200c"/><path d="M127.00001,140.4045c0,-18.50154 14.99846,-33.5 33.5,-33.5c18.50154,0 33.5,14.99846 33.5,33.5c0,18.50154 -14.99846,33.5 -33.5,33.5c-18.50154,0 -33.5,-14.99846 -33.5,-33.5z" fill="#701b0a"/></g></g></svg>