<svg version="1.1" xmlns="http://www.w3.org/2000/svg" xmlns:xlink="http://www.w3.org/1999/xlink" width="188" height="313" viewBox="0,0,188,313"><defs><radialGradient cx="240.1402" cy="180.33432" r="46.30984" gradientUnits="userSpaceOnUse" id="color-1"><stop offset="0" stop-color="#ff8826"/><stop offset="1" stop-color="#ffb35d"/></radialGradient></defs><g transform="translate(-146,39)"><g data-paper-data="{&quot;isPaintingLayer&quot;:true}" fill-rule="nonzero" stroke-linecap="butt" stroke-linejoin="miter" stroke-miterlimit="10" stroke-dasharray="" stroke-dashoffset="0" style="mix-blend-mode: normal"><path d="M195.28235,135.98729c0.11784,-0.12208 0.33669,-0.34253 0.45925,-0.45707c3.58826,-3.35336 5.61645,-6.67183 9.34396,-3.48871c0.15058,0.12859 3.71917,3.5646 3.86357,3.70397c0.12315,0.11887 16.12194,15.56757 16.23743,15.69124c3.32129,3.55714 -2.50679,-1.90511 -5.60437,1.81996c-0.15345,0.18453 -3.11235,0.73968 -3.28173,0.91515c-0.09899,0.10255 -3.08548,2.29412 -3.18782,2.39135c-3.60795,3.42787 2.41368,12.02223 -1.33433,8.76164c-0.12711,-0.11057 -16.02941,-15.45382 -16.15203,-15.57217c-0.12208,-0.11784 -3.66139,-3.54016 -3.77594,-3.66273c-3.38341,-3.62042 -0.45062,-5.72576 2.82073,-9.45345c0.10193,-0.11615 0.50282,-0.53682 0.61128,-0.64918z" fill="#ffb35d" stroke="#ffb35d" stroke-width="0"/><path d="M239.48901,117.93544c0.16966,-0.003 0.48028,-0.00413 0.64794,0.00155c4.90847,0.1661 8.68913,-0.74626 9.07407,4.14029c0.01555,0.19741 0.1093,5.15042 0.11285,5.35107c0.00303,0.17113 0.39201,22.40787 0.38621,22.57697c-0.16677,4.86379 -0.42545,-3.11969 -5.2498,-2.67599c-0.239,0.02198 -2.7238,-1.67774 -2.96765,-1.67342c-0.14251,0.00252 -3.80394,-0.55958 -3.94506,-0.56319c-4.97508,-0.12733 -6.79428,10.20774 -7.13893,5.2519c-0.01169,-0.16807 -0.40701,-22.26201 -0.41002,-22.4324c-0.003,-0.16966 -0.08572,-5.09227 -0.08005,-5.25993c0.16759,-4.95245 3.73009,-4.36736 8.67916,-4.69004c0.1542,-0.01006 0.73513,-0.02404 0.89128,-0.0268z" fill="#ffb35d" stroke="#ffb35d" stroke-width="0"/><path d="M283.69549,135.79267c0.12208,0.11784 0.34253,0.3367 0.45707,0.45925c3.35336,3.58826 6.67183,5.61645 3.48872,9.34396c-0.1286,0.15058 -3.5646,3.71918 -3.70398,3.86358c-0.11887,0.12315 -15.56756,16.12194 -15.69124,16.23742c-3.55714,3.32129 1.90512,-2.50679 -1.81996,-5.60437c-0.18453,-0.15345 -0.73968,-3.11235 -0.91516,-3.28173c-0.10256,-0.09899 -2.29411,-3.08548 -2.39134,-3.18782c-3.42787,-3.60795 -12.02224,2.41368 -8.76164,-1.33433c0.11057,-0.12711 15.45381,-16.02941 15.57217,-16.15203c0.11784,-0.12208 3.54016,-3.66139 3.66272,-3.77594c3.62042,-3.38341 5.72577,-0.45062 9.45345,2.82074c0.11615,0.10193 0.53682,0.50282 0.64918,0.61127z" fill="#ffb35d" stroke="#ffb35d" stroke-width="0"/><path d="M302.51972,180.13726c0.003,0.16966 0.00413,0.48028 -0.00155,0.64794c-0.1661,4.90847 0.74626,8.68913 -4.14029,9.07407c-0.19741,0.01555 -5.15041,0.10931 -5.35107,0.11285c-0.17113,0.00303 -22.40786,0.39201 -22.57696,0.38621c-4.86379,-0.16677 3.1197,-0.42545 2.67599,-5.2498c-0.02198,-0.239 1.67774,-2.7238 1.67342,-2.96765c-0.00252,-0.14251 0.55958,-3.80395 0.56319,-3.94507c0.12734,-4.97508 -10.20774,-6.79428 -5.25191,-7.13892c0.16807,-0.01169 22.26201,-0.40702 22.4324,-0.41003c0.16965,-0.003 5.09227,-0.08572 5.25993,-0.08005c4.95245,0.16759 4.36736,3.73009 4.69004,8.67916c0.01005,0.1542 0.02404,0.73513 0.0268,0.89128z" fill="#ffb35d" stroke="#ffb35d" stroke-width="0"/><path d="M284.19354,223.51619c-0.11784,0.12208 -0.3367,0.34253 -0.45925,0.45707c-3.58826,3.35336 -5.61645,6.67183 -9.34396,3.48872c-0.15059,-0.1286 -3.71918,-3.5646 -3.86358,-3.70397c-0.12315,-0.11887 -16.12194,-15.56757 -16.23742,-15.69124c-3.32129,-3.55714 2.5068,1.90512 5.60438,-1.81996c0.15346,-0.18453 3.11235,-0.73968 3.28173,-0.91516c0.09899,-0.10255 3.08548,-2.29412 3.18782,-2.39135c3.60795,-3.42787 -2.41369,-12.02223 1.33433,-8.76164c0.12711,0.11057 16.02941,15.45381 16.15203,15.57217c0.12208,0.11784 3.66139,3.54016 3.77593,3.66272c3.38341,3.62042 0.45063,5.72577 -2.82073,9.45345c-0.10193,0.11615 -0.50282,0.53682 -0.61128,0.64918z" fill="#ffb35d" stroke="#ffb35d" stroke-width="0"/><path d="M239.93171,242.06457c-0.16966,0.003 -0.48028,0.00412 -0.64794,-0.00155c-4.90847,-0.1661 -8.68913,0.74626 -9.07407,-4.14029c-0.01555,-0.19741 -0.10931,-5.15041 -0.11285,-5.35107c-0.00303,-0.17113 -0.39201,-22.40787 -0.38621,-22.57696c0.16677,-4.86379 0.42545,3.1197 5.2498,2.67599c0.239,-0.02198 2.7238,1.67774 2.96765,1.67342c0.14251,-0.00252 3.80395,0.55958 3.94507,0.56319c4.97508,0.12733 6.79428,-10.20774 7.13892,-5.2519c0.01169,0.16807 0.40701,22.26201 0.41002,22.4324c0.003,0.16966 0.08572,5.09227 0.08005,5.25993c-0.16759,4.95245 -3.73009,4.36736 -8.67916,4.69004c-0.1542,0.01005 -0.73513,0.02405 -0.89127,0.02681z" fill="#ffb35d" stroke="#ffb35d" stroke-width="0"/><path d="M196.22176,223.87632c-0.12208,-0.11784 -0.34253,-0.3367 -0.45706,-0.45925c-3.35336,-3.58826 -6.67183,-5.61646 -3.48872,-9.34397c0.1286,-0.15058 3.5646,-3.71917 3.70397,-3.86357c0.11887,-0.12315 15.56757,-16.12194 15.69124,-16.23743c3.55714,-3.32129 -1.90512,2.5068 1.81996,5.60438c0.18453,0.15345 0.73968,3.11235 0.91515,3.28173c0.10255,0.09899 2.29412,3.08548 2.39135,3.18782c3.42787,3.60795 12.02223,-2.41369 8.76164,1.33432c-0.11057,0.12711 -15.45381,16.02941 -15.57216,16.15203c-0.11784,0.12208 -3.54017,3.66139 -3.66273,3.77594c-3.62042,3.38341 -5.72576,0.45062 -9.45345,-2.82074c-0.11615,-0.10193 -0.53682,-0.50282 -0.64918,-0.61128z" fill="#ffb35d" stroke="#ffb35d" stroke-width="0"/><path d="M177.48027,180.44203c-0.003,-0.16966 -0.00412,-0.48028 0.00155,-0.64794c0.1661,-4.90847 -0.74626,-8.68913 4.14029,-9.07407c0.19741,-0.01555 5.15041,-0.1093 5.35106,-0.11284c0.17113,-0.00303 22.40787,-0.39201 22.57697,-0.38621c4.86379,0.16677 -3.1197,0.42545 -2.676,5.2498c0.02198,0.239 -1.67774,2.7238 -1.67342,2.96765c0.00252,0.14251 -0.55958,3.80394 -0.56319,3.94507c-0.12733,4.97508 10.20774,6.79428 5.2519,7.13892c-0.16807,0.01169 -22.262,0.40701 -22.43239,0.41003c-0.16966,0.003 -5.09227,0.08571 -5.25994,0.08005c-4.95245,-0.16759 -4.36736,-3.73009 -4.69004,-8.67916c-0.01005,-0.1542 -0.02405,-0.73513 -0.02681,-0.89128z" fill="#ffb35d" stroke="#ffb35d" stroke-width="0"/><path d="M202.68865,208.78902c0,0 -9.9215,-17.53921 -8.65445,-30.82106c0.66076,-6.92646 1.8771,-13.56743 3.50651,-17.74139c3.58286,-9.178 21.54225,-21.29157 21.54225,-21.29157l4.63318,17.64171c0,0 -5.66742,5.68084 -8.63633,11.72045c-2.15554,4.38499 -2.76841,9.04334 -2.76841,11.44543c0,3.45265 1.47231,10.55894 4.7667,15.84359c3.79767,6.09198 10.38022,10.17347 10.38022,10.17347c0,0 3.97722,2.41417 10.69423,2.21594c4.15869,-0.12273 11.03084,-0.80326 15.35054,-4.47067c1.91106,-1.62248 5.5252,-2.94069 7.83632,-5.56554c2.41453,-2.74231 3.50462,-6.78038 4.41913,-7.84866c0.21381,-0.24977 3.00698,-10.41827 0.41561,-19.33818c-1.72231,-5.92847 -7.41489,-10.60902 -12.03933,-13.9902c-9.74366,-7.12414 -16.08033,-3.80053 -23.37619,-2.51813c-0.03053,0.00536 -2.55469,0.30134 -4.72071,1.56211c-3.13245,1.82331 -6.48834,4.69196 -8.61411,3.47338c-4.1109,-2.35655 -2.25944,-13.87527 -3.04953,-13.44922c-2.10867,1.1371 8.75588,12.37523 7.69648,11.87972c-5.01785,-2.34702 -7.87405,-13.5058 -4.67244,-17.4158c3.78996,-4.62852 22.52183,-7.14419 28.85173,-5.9922c2.47707,0.45081 19.05736,5.0758 24.83394,11.5066c5.69384,6.33869 12.00712,17.33877 12.04733,17.35511c2.49521,1.01394 4.3867,13.13433 2.39091,24.59259c-1.78743,10.26196 -7.36287,19.99284 -7.44918,20.73872c-0.19354,1.6726 -11.86334,13.18234 -25.14119,16.77859c-12.98883,3.51798 -27.58552,-0.85905 -28.34204,-0.76652c-4.19716,0.51332 -21.90118,-15.71824 -21.90118,-15.71824z" fill="url(#color-1)" stroke="none" stroke-width="0"/><path d="M193.64975,180.21064c0,-25.48975 20.66353,-46.15328 46.15328,-46.15328c25.48975,0 46.15328,20.66353 46.15328,46.15328c0,25.48975 -20.66353,46.15328 -46.15328,46.15328c-25.48975,0 -46.15328,-20.66353 -46.15328,-46.15328z" fill="none" stroke="#ffb35d" stroke-width="2"/><path d="M211.73695,180.38884c0,-15.50047 12.56561,-28.06607 28.06607,-28.06607c15.50047,0 28.06607,12.56561 28.06607,28.06607c0,15.50047 -12.56561,28.06607 -28.06607,28.06607c-15.50047,0 -28.06607,-12.56561 -28.06607,-28.06607z" fill="none" stroke="#ffa349" stroke-width="2"/><path d="M146,274v-313h188v313z" fill="none" stroke="none" stroke-width="0"/></g></g></svg>