<svg version="1.1" xmlns="http://www.w3.org/2000/svg" xmlns:xlink="http://www.w3.org/1999/xlink" width="257.90389" height="287.87435" viewBox="0,0,257.90389,287.87435"><g transform="translate(-114.39218,-6.53732)"><g data-paper-data="{&quot;isPaintingLayer&quot;:true}" fill="#f9f4d6" fill-rule="nonzero" stroke="none" stroke-width="0" stroke-linecap="butt" stroke-linejoin="miter" stroke-miterlimit="10" stroke-dasharray="" stroke-dashoffset="0" style="mix-blend-mode: normal"><path d="M328.44158,120.77467c-6.03112,-1.7133 -11.32274,-8.89042 -11.32274,-8.89042l-8.22739,8.6758c0,0 1.91768,-25.61264 6.38445,-22.05545c2.08265,1.65855 5.85484,8.54924 9.56904,7.20852c3.54501,-1.27964 7.01265,-10.77213 9.91494,-10.18599c1.46749,0.29637 0.61144,14.47709 3.21796,10.93452c4.33029,-5.88537 9.08048,-13.44747 10.42297,-10.65477c4.31592,8.97815 5.68356,15.33366 9.02505,14.84336c6.44912,-0.94627 14.87021,3.89825 14.87021,3.89825l-15.73937,8.53917c0,0 -4.9005,-10.98449 -9.49236,-11.18095c-6.74212,-0.28844 -14.47265,10.0469 -18.62277,8.86794z" data-paper-data="{&quot;index&quot;:null}"/><path d="M175.10286,38.11659c-5.5219,-2.11625 -10.36674,-10.98136 -10.36674,-10.98136l-7.53275,10.71625c0,0 1.75577,-31.63647 5.84541,-27.24267c3.72675,4.00391 9.36667,15.98099 14.808,17.4635c3.57574,0.97422 13.55114,-26.32156 15.52014,-20.79569c3.95153,11.08972 5.20369,18.93996 8.26306,18.33436c5.90462,-1.16882 13.6147,4.81506 13.6147,4.81506l-14.41048,10.5475c0,0 -4.48675,-13.56793 -8.69091,-13.81058c-6.17287,-0.35628 -13.25071,12.40984 -17.05043,10.95361z" data-paper-data="{&quot;index&quot;:null}"/><path d="M146.61898,204.94372c-3.04975,1.97242 -8.73059,-15.31891 -13.68508,-14.83634c-3.37436,0.32867 -6.97553,18.70603 -6.97553,18.70603l-11.56619,-14.28629c0,0 6.1883,-8.10499 10.92748,-6.52186c2.45552,0.82027 3.46053,-9.81265 6.63213,-24.83336c1.58036,-7.48463 9.58685,29.4867 12.45683,28.16715c4.36734,-2.00802 8.89407,-18.23062 11.88525,-23.6538c3.28244,-5.95127 4.69166,36.89941 4.69166,36.89941l-6.04596,-14.51485c0,0 -3.88858,12.00752 -8.32059,14.87393z" data-paper-data="{&quot;index&quot;:null}"/><path d="M277.99053,293.04852c-3.85728,-1.00975 -7.24161,-5.23964 -7.24161,-5.23964l-5.26195,5.11314c0,0 1.22647,-15.095 4.08327,-12.99854c2.60329,1.91042 6.54302,7.62515 10.34402,8.33252c2.49781,0.46484 9.46605,-12.55904 10.84148,-9.92244c2.76031,5.29134 3.635,9.03699 5.7721,8.74804c4.12463,-0.55769 9.51045,2.29745 9.51045,2.29745l-10.06633,5.03262c0,0 -3.13419,-6.47379 -6.07097,-6.58957c-4.31201,-0.17 -9.25618,5.92122 -11.91045,5.2264z" data-paper-data="{&quot;index&quot;:null}"/></g></g></svg>