<svg version="1.1" xmlns="http://www.w3.org/2000/svg" xmlns:xlink="http://www.w3.org/1999/xlink" width="169.85" height="172.15" viewBox="0,0,169.85,172.15"><g transform="translate(-155.07499,-93.925)"><g data-paper-data="{&quot;isPaintingLayer&quot;:true}" fill-rule="nonzero" stroke-linecap="butt" stroke-linejoin="miter" stroke-miterlimit="10" stroke-dasharray="" stroke-dashoffset="0" style="mix-blend-mode: normal"><g stroke="none" stroke-width="0"><g><g fill="#7090aa"><path d="M312.925,104.80001c0,-3.31371 2.68629,-6 6,-6c3.31371,0 6,2.68629 6,6c0,3.31371 -2.68629,6 -6,6c-3.31371,0 -6,-2.68629 -6,-6z"/><path d="M155.175,104.80001c0,-3.31371 2.68629,-6 6,-6c3.31371,0 6,2.68629 6,6c0,3.31371 -2.68629,6 -6,6c-3.31371,0 -6,-2.68629 -6,-6z"/><path d="M155.175,254.80001v-150.75h169.75v150.75z"/><path d="M160.925,259.55001v-160.75h159.25v160.75z"/><path d="M290.925,93.92501l12.75,15.5h-126.75l12.75,-15.5z" data-paper-data="{&quot;index&quot;:null}"/></g><g fill="#4a6e8b"><path d="M155.075,255.20001c0,-3.31371 2.68629,-6 6,-6c3.31371,0 6,2.68629 6,6c0,3.31371 -2.68629,6 -6,6c-3.31371,0 -6,-2.68629 -6,-6z"/><path d="M312.825,255.20001c0,-3.31371 2.68629,-6 6,-6c3.31371,0 6,2.68629 6,6c0,3.31371 -2.68629,6 -6,6c-3.31371,0 -6,-2.68629 -6,-6z"/><path d="M312.825,106.45001c0,-3.31371 2.68629,-6 6,-6c3.31371,0 6,2.68629 6,6c0,3.31371 -2.68629,6 -6,6c-3.31371,0 -6,-2.68629 -6,-6z"/><path d="M155.075,106.45001c0,-3.31371 2.68629,-6 6,-6c3.31371,0 6,2.68629 6,6c0,3.31371 -2.68629,6 -6,6c-3.31371,0 -6,-2.68629 -6,-6z"/><path d="M155.075,256.45v-150.75h169.75v150.75z"/><path d="M160.825,261.2v-160.75h159.25v160.75z"/><path d="M189.075,266.075l-12.75,-15.5h126.75l-12.75,15.5z"/><path d="M290.825,95.57501l12.75,15.5h-126.75l12.75,-15.5z" data-paper-data="{&quot;index&quot;:null}"/></g></g><path d="M194.8625,154.5393c0,-2.89949 2.35051,-5.25 5.25,-5.25c2.89949,0 5.25,2.35051 5.25,5.25c0,2.89949 -2.35051,5.25 -5.25,5.25c-2.89949,0 -5.25,-2.35051 -5.25,-5.25z" fill="#003857"/><path d="M274.55298,154.49167c0,-2.8995 2.3505,-5.25 5.25,-5.25c2.8995,0 5.25,2.3505 5.25,5.25c0,2.8995 -2.3505,5.25 -5.25,5.25c-2.8995,0 -5.25,-2.3505 -5.25,-5.25z" fill="#003857"/><path d="M274.52916,138.82501c0,-2.8995 2.3505,-5.25 5.25,-5.25c2.8995,0 5.25,2.3505 5.25,5.25c0,2.8995 -2.3505,5.25 -5.25,5.25c-2.8995,0 -5.25,-2.3505 -5.25,-5.25z" fill="#003857"/><path d="M194.83869,138.8012c0,-2.8995 2.3505,-5.25 5.25,-5.25c2.8995,0 5.25,2.3505 5.25,5.25c0,2.8995 -2.3505,5.25 -5.25,5.25c-2.8995,0 -5.25,-2.3505 -5.25,-5.25z" fill="#003857"/><path d="M200.6244,159.74167v-26.16667h79.40476v26.16667z" fill="#003857"/><path d="M194.8625,154.90834v-16.5h90.16666v16.5z" fill="#003857"/></g><text transform="translate(178.19583,123.41526) scale(0.36583,0.40623)" font-size="40" xml:space="preserve" fill="#fafeff" fill-rule="nonzero" stroke="#fafeff" stroke-width="2" stroke-linecap="butt" stroke-linejoin="miter" stroke-miterlimit="10" stroke-dasharray="" stroke-dashoffset="0" font-family="Sans Serif" font-weight="normal" text-anchor="start" style="mix-blend-mode: normal"><tspan x="0" dy="0">Earned per flight:</tspan></text><g><path d="M186.94787,167.02244h2.32364l1.80165,6.05195h0.03367v-6.05195h1.6501v10.11067h-1.90268l-2.22259,-7.38079h-0.03368v7.38079h-1.6501z" fill="#987139" stroke="#98763a" stroke-width="1"/><path d="M194.1376,167.02244h5.05135v1.44438h-3.1992v2.6721h2.54252v1.44437h-2.54252v3.10541h3.1992v1.44438h-5.05135z" fill="#987139" stroke="#98763a" stroke-width="1"/><path d="M199.81193,167.02244h1.78481l0.82505,7.77076h0.03368l0.87557,-7.77076h2.02055l0.87557,7.77076h0.03368l0.82505,-7.77076h1.59959l-1.1955,10.11067h-2.30679l-0.84188,-6.81749h-0.03368l-0.84189,6.81749h-2.45833z" fill="#987139" stroke="#98763a" stroke-width="1"/><path d="M212.32244,167.02244h2.79509c0.95415,0 1.6501,0.19259 2.08789,0.57776c0.43777,0.37553 0.65667,0.95811 0.65667,1.7477v0.40443c0,0.51998 -0.10102,0.94367 -0.30308,1.27105c-0.19083,0.32738 -0.4883,0.56331 -0.8924,0.70774v0.02894c0.92046,0.26961 1.38069,0.97253 1.38069,2.10879v0.86664c0,0.77997 -0.24133,1.37698 -0.72402,1.79103c-0.47146,0.40443 -1.16744,0.60664 -2.0879,0.60664h-2.91294zM214.89862,171.13893c0.37043,0 0.64545,-0.08186 0.82506,-0.24555c0.19083,-0.16369 0.28625,-0.43812 0.28625,-0.8233v-0.5633c0,-0.36591 -0.0786,-0.63071 -0.23574,-0.79442c-0.14593,-0.16369 -0.38165,-0.24553 -0.70718,-0.24553h-0.8924v2.6721zM215.23539,175.68873c0.32553,0 0.56688,-0.07221 0.72402,-0.21666c0.15714,-0.15407 0.23574,-0.41405 0.23574,-0.77997v-0.88107c0,-0.46219 -0.09541,-0.77997 -0.28624,-0.95329c-0.17961,-0.18294 -0.48269,-0.27443 -0.90925,-0.27443h-0.82505v3.10541z" fill="#987139" stroke="#98763a" stroke-width="1"/><path d="M219.12491,167.02244h5.05136v1.44438h-3.1992v2.6721h2.54252v1.44437h-2.54252v3.10541h3.1992v1.44438h-5.05136z" fill="#987139" stroke="#98763a" stroke-width="1"/><path d="M227.67851,177.27754c-0.89802,0 -1.57716,-0.21666 -2.03738,-0.64997c-0.46024,-0.44295 -0.69035,-1.07365 -0.69035,-1.89214v-0.57775h1.75114v0.69331c0,0.65478 0.31991,0.98217 0.95975,0.98217c0.31429,0 0.55004,-0.07703 0.7072,-0.2311c0.16839,-0.1637 0.25257,-0.42369 0.25257,-0.77997c0,-0.42369 -0.11224,-0.7944 -0.33675,-1.11217c-0.22451,-0.32739 -0.63983,-0.71737 -1.24599,-1.16994c-0.7633,-0.57776 -1.29652,-1.09774 -1.59959,-1.55994c-0.30309,-0.47183 -0.45462,-1.00145 -0.45462,-1.58882c0,-0.79921 0.23573,-1.41548 0.70719,-1.8488c0.47146,-0.44295 1.15619,-0.66442 2.05421,-0.66442c0.8868,0 1.55469,0.22146 2.0037,0.66442c0.46024,0.43331 0.69036,1.05921 0.69036,1.87769v0.41886h-1.75113v-0.51998c0,-0.34665 -0.07858,-0.597 -0.23573,-0.75107c-0.15714,-0.16369 -0.38727,-0.24554 -0.69036,-0.24554c-0.61739,0 -0.92608,0.32258 -0.92608,0.96774c0,0.36589 0.11225,0.70773 0.33676,1.02551c0.23573,0.31777 0.65667,0.70292 1.26284,1.15551c0.77454,0.57775 1.30774,1.10253 1.5996,1.57436c0.29186,0.47183 0.43777,1.02552 0.43777,1.66104c0,0.82811 -0.24134,1.46363 -0.72402,1.90659c-0.47146,0.44295 -1.16179,0.66442 -2.07104,0.66442z" fill="#987139" stroke="#98763a" stroke-width="1"/><path d="M232.98242,168.46683h-1.93636v-1.44438h5.72487v1.44438h-1.93636v8.66628h-1.85215z" fill="#987139" stroke="#98763a" stroke-width="1"/><path d="M186.94787,167.02243h2.32363l1.80165,6.05195h0.03367v-6.05195h1.6501v10.11066h-1.90268l-2.22259,-7.38079h-0.03368v7.38079h-1.6501z" fill="#ffc448" stroke="#6a5228" stroke-width="0"/><path d="M194.1376,167.02243h5.05135v1.44438h-3.1992v2.6721h2.54252v1.44437h-2.54252v3.10542h3.1992v1.44438h-5.05135z" fill="#ffc448" stroke="#6a5228" stroke-width="0"/><path d="M199.81193,167.02243h1.78481l0.82505,7.77075h0.03368l0.87557,-7.77075h2.02055l0.87557,7.77075h0.03367l0.82505,-7.77075h1.59959l-1.1955,10.11066h-2.30679l-0.84188,-6.81749h-0.03368l-0.84189,6.81749h-2.45833z" fill="#ffc448" stroke="#6a5228" stroke-width="0"/><path d="M212.32244,167.02243h2.79509c0.95415,0 1.6501,0.19259 2.08789,0.57775c0.43777,0.37553 0.65668,0.95811 0.65668,1.7477v0.40443c0,0.51998 -0.10103,0.94368 -0.30308,1.27106c-0.19083,0.32738 -0.4883,0.56331 -0.8924,0.70774v0.02893c0.92046,0.26961 1.3807,0.97253 1.3807,2.10879v0.86664c0,0.77997 -0.24133,1.37699 -0.72402,1.79103c-0.47146,0.40443 -1.16743,0.60664 -2.08789,0.60664h-2.91294zM214.89862,171.13892c0.37043,0 0.64545,-0.08186 0.82505,-0.24555c0.19083,-0.16369 0.28625,-0.43812 0.28625,-0.8233v-0.5633c0,-0.36591 -0.0786,-0.63071 -0.23574,-0.79442c-0.14593,-0.16369 -0.38164,-0.24553 -0.70717,-0.24553h-0.8924v2.6721zM215.23539,175.68872c0.32553,0 0.56688,-0.07221 0.72402,-0.21666c0.15714,-0.15407 0.23574,-0.41405 0.23574,-0.77997v-0.88107c0,-0.46219 -0.09541,-0.77997 -0.28624,-0.95329c-0.17961,-0.18294 -0.48269,-0.27443 -0.90925,-0.27443h-0.82505v3.10541z" fill="#ffc448" stroke="#6a5228" stroke-width="0"/><path d="M219.12491,167.02243h5.05136v1.44438h-3.1992v2.6721h2.54252v1.44437h-2.54252v3.10542h3.1992v1.44438h-5.05136z" fill="#ffc448" stroke="#6a5228" stroke-width="0"/><path d="M227.67851,177.27753c-0.89802,0 -1.57716,-0.21666 -2.03738,-0.64997c-0.46024,-0.44295 -0.69035,-1.07365 -0.69035,-1.89214v-0.57775h1.75114v0.69331c0,0.65478 0.31991,0.98217 0.95975,0.98217c0.31429,0 0.55004,-0.07703 0.70719,-0.2311c0.1684,-0.1637 0.25257,-0.42369 0.25257,-0.77997c0,-0.42369 -0.11224,-0.79441 -0.33674,-1.11217c-0.22451,-0.32739 -0.63983,-0.71737 -1.24599,-1.16994c-0.76331,-0.57776 -1.29652,-1.09774 -1.59959,-1.55994c-0.30309,-0.47183 -0.45462,-1.00144 -0.45462,-1.58881c0,-0.79921 0.23573,-1.41549 0.70719,-1.8488c0.47146,-0.44295 1.15619,-0.66441 2.05421,-0.66441c0.8868,0 1.55469,0.22146 2.0037,0.66441c0.46024,0.43331 0.69036,1.05921 0.69036,1.87769v0.41887h-1.75113v-0.51998c0,-0.34665 -0.07858,-0.597 -0.23573,-0.75108c-0.15714,-0.16369 -0.38728,-0.24554 -0.69036,-0.24554c-0.61739,0 -0.92608,0.32258 -0.92608,0.96774c0,0.36589 0.11226,0.70773 0.33676,1.02551c0.23574,0.31777 0.65668,0.70292 1.26284,1.15551c0.77454,0.57775 1.30774,1.10253 1.5996,1.57436c0.29186,0.47183 0.43777,1.02552 0.43777,1.66104c0,0.82811 -0.24133,1.46363 -0.72402,1.90659c-0.47146,0.44295 -1.16179,0.66442 -2.07104,0.66442z" fill="#ffc448" stroke="#6a5228" stroke-width="0"/><path d="M232.98242,168.46682h-1.93636v-1.44438h5.72487v1.44438h-1.93636v8.66629h-1.85215z" fill="#ffc448" stroke="#6a5228" stroke-width="0"/></g></g></g></svg>