<svg version="1.1" xmlns="http://www.w3.org/2000/svg" xmlns:xlink="http://www.w3.org/1999/xlink" width="543" height="646" viewBox="0,0,543,646"><g transform="translate(32.5,37)"><g data-paper-data="{&quot;isPaintingLayer&quot;:true}" fill-rule="nonzero" stroke="none" stroke-linecap="butt" stroke-linejoin="miter" stroke-miterlimit="10" stroke-dasharray="" stroke-dashoffset="0" style="mix-blend-mode: normal"><path d="M187.35834,188.20834c0.9665,0 1.75,0.7835 1.75,1.75c0,0.9665 -0.7835,1.75 -1.75,1.75c-0.9665,0 -1.75,-0.7835 -1.75,-1.75c0,-0.9665 0.7835,-1.75 1.75,-1.75z" data-paper-data="{&quot;index&quot;:null}" fill="#e8e8e8" stroke-width="0.5"/><path d="M196.55834,238.70834c0.69036,0 1.25,0.55964 1.25,1.25c0,0.69036 -0.55964,1.25 -1.25,1.25c-0.69036,0 -1.25,-0.55964 -1.25,-1.25c0,-0.69036 0.55964,-1.25 1.25,-1.25z" data-paper-data="{&quot;index&quot;:null}" fill="#e8e8e8" stroke-width="0.5"/><path d="M330.35834,193.50834c0.69036,0 1.25,0.55964 1.25,1.25c0,0.69036 -0.55964,1.25 -1.25,1.25c-0.69036,0 -1.25,-0.55964 -1.25,-1.25c0,-0.69036 0.55964,-1.25 1.25,-1.25z" data-paper-data="{&quot;index&quot;:null}" fill="#e8e8e8" stroke-width="0.5"/><path d="M132.95834,241.65834c0.82843,0 1.5,0.67157 1.5,1.5c0,0.82843 -0.67157,1.5 -1.5,1.5c-0.82843,0 -1.5,-0.67157 -1.5,-1.5c0,-0.82843 0.67157,-1.5 1.5,-1.5z" data-paper-data="{&quot;index&quot;:null}" fill="#e8e8e8" stroke-width="0.5"/><path d="M245.55834,10.60834c0.9665,0 1.75,0.7835 1.75,1.75c0,0.9665 -0.7835,1.75 -1.75,1.75c-0.9665,0 -1.75,-0.7835 -1.75,-1.75c0,-0.9665 0.7835,-1.75 1.75,-1.75z" data-paper-data="{&quot;index&quot;:null}" fill="#e8e8e8" stroke-width="0.5"/><path d="M251.35834,38.90834c0.69036,0 1.25,0.55964 1.25,1.25c0,0.69036 -0.55964,1.25 -1.25,1.25c-0.69036,0 -1.25,-0.55964 -1.25,-1.25c0,-0.69036 0.55964,-1.25 1.25,-1.25z" data-paper-data="{&quot;index&quot;:null}" fill="#e8e8e8" stroke-width="0.5"/><path d="M308.55834,61.65834c0.82843,0 1.5,0.67157 1.5,1.5c0,0.82843 -0.67157,1.5 -1.5,1.5c-0.82843,0 -1.5,-0.67157 -1.5,-1.5c0,-0.82843 0.67157,-1.5 1.5,-1.5z" data-paper-data="{&quot;index&quot;:null}" fill="#e8e8e8" stroke-width="0.5"/><path d="M312.95834,68.15834c0.55228,0 1,0.44772 1,1c0,0.55228 -0.44772,1 -1,1c-0.55228,0 -1,-0.44772 -1,-1c0,-0.55228 0.44772,-1 1,-1z" data-paper-data="{&quot;index&quot;:null}" fill="#e8e8e8" stroke-width="0.5"/><path d="M267.95834,189.55834c0.55228,0 1,0.44772 1,1c0,0.55228 -0.44772,1 -1,1c-0.55228,0 -1,-0.44772 -1,-1c0,-0.55228 0.44772,-1 1,-1z" data-paper-data="{&quot;index&quot;:null}" fill="#e8e8e8" stroke-width="0.5"/><path d="M220.15834,272.95834c0.55228,0 1,0.44772 1,1c0,0.55228 -0.44772,1 -1,1c-0.55228,0 -1,-0.44772 -1,-1c0,-0.55228 0.44772,-1 1,-1z" data-paper-data="{&quot;index&quot;:null}" fill="#e8e8e8" stroke-width="0.5"/><path d="M183.75834,280.40834c0.41421,0 0.75,0.33579 0.75,0.75c0,0.41421 -0.33579,0.75 -0.75,0.75c-0.41421,0 -0.75,-0.33579 -0.75,-0.75c0,-0.41421 0.33579,-0.75 0.75,-0.75z" data-paper-data="{&quot;index&quot;:null}" fill="#e8e8e8" stroke-width="0.5"/><path d="M266.95834,284.90834c0.69036,0 1.25,0.55964 1.25,1.25c0,0.69036 -0.55964,1.25 -1.25,1.25c-0.69036,0 -1.25,-0.55964 -1.25,-1.25c0,-0.69036 0.55964,-1.25 1.25,-1.25z" data-paper-data="{&quot;index&quot;:null}" fill="#e8e8e8" stroke-width="0.5"/><path d="M271.75834,291.30834c0.69036,0 1.25,0.55964 1.25,1.25c0,0.69036 -0.55964,1.25 -1.25,1.25c-0.69036,0 -1.25,-0.55964 -1.25,-1.25c0,-0.69036 0.55964,-1.25 1.25,-1.25z" data-paper-data="{&quot;index&quot;:null}" fill="#e8e8e8" stroke-width="0.5"/><path d="M252.35834,283.00834c0.41421,0 0.75,0.33579 0.75,0.75c0,0.41421 -0.33579,0.75 -0.75,0.75c-0.41421,0 -0.75,-0.33579 -0.75,-0.75c0,-0.41421 0.33579,-0.75 0.75,-0.75z" data-paper-data="{&quot;index&quot;:null}" fill="#e8e8e8" stroke-width="0.5"/><path d="M252.75834,268.40834c0.41421,0 0.75,0.33579 0.75,0.75c0,0.41421 -0.33579,0.75 -0.75,0.75c-0.41421,0 -0.75,-0.33579 -0.75,-0.75c0,-0.41421 0.33579,-0.75 0.75,-0.75z" data-paper-data="{&quot;index&quot;:null}" fill="#e8e8e8" stroke-width="0.5"/><path d="M321.35834,253.80834c0.41421,0 0.75,0.33579 0.75,0.75c0,0.41421 -0.33579,0.75 -0.75,0.75c-0.41421,0 -0.75,-0.33579 -0.75,-0.75c0,-0.41421 0.33579,-0.75 0.75,-0.75z" data-paper-data="{&quot;index&quot;:null}" fill="#e8e8e8" stroke-width="0.5"/><path d="M336.95834,212.20834c0.41421,0 0.75,0.33579 0.75,0.75c0,0.41421 -0.33579,0.75 -0.75,0.75c-0.41421,0 -0.75,-0.33579 -0.75,-0.75c0,-0.41421 0.33579,-0.75 0.75,-0.75z" data-paper-data="{&quot;index&quot;:null}" fill="#e8e8e8" stroke-width="0.5"/><path d="M331.95834,212.50834c0.69036,0 1.25,0.55964 1.25,1.25c0,0.69036 -0.55964,1.25 -1.25,1.25c-0.69036,0 -1.25,-0.55964 -1.25,-1.25c0,-0.69036 0.55964,-1.25 1.25,-1.25z" data-paper-data="{&quot;index&quot;:null}" fill="#e8e8e8" stroke-width="0.5"/><path d="M358.55834,262.90834c0.69036,0 1.25,0.55964 1.25,1.25c0,0.69036 -0.55964,1.25 -1.25,1.25c-0.69036,0 -1.25,-0.55964 -1.25,-1.25c0,-0.69036 0.55964,-1.25 1.25,-1.25z" data-paper-data="{&quot;index&quot;:null}" fill="#e8e8e8" stroke-width="0.5"/><path d="M323.95834,283.50834c0.69036,0 1.25,0.55964 1.25,1.25c0,0.69036 -0.55964,1.25 -1.25,1.25c-0.69036,0 -1.25,-0.55964 -1.25,-1.25c0,-0.69036 0.55964,-1.25 1.25,-1.25z" data-paper-data="{&quot;index&quot;:null}" fill="#e8e8e8" stroke-width="0.5"/><path d="M212.75834,316.70834c0.69036,0 1.25,0.55964 1.25,1.25c0,0.69036 -0.55964,1.25 -1.25,1.25c-0.69036,0 -1.25,-0.55964 -1.25,-1.25c0,-0.69036 0.55964,-1.25 1.25,-1.25z" data-paper-data="{&quot;index&quot;:null}" fill="#e8e8e8" stroke-width="0.5"/><path d="M290.35834,330.50834c0.69036,0 1.25,0.55964 1.25,1.25c0,0.69036 -0.55964,1.25 -1.25,1.25c-0.69036,0 -1.25,-0.55964 -1.25,-1.25c0,-0.69036 0.55964,-1.25 1.25,-1.25z" data-paper-data="{&quot;index&quot;:null}" fill="#e8e8e8" stroke-width="0.5"/><path d="M237.75834,315.40834c0.41421,0 0.75,0.33579 0.75,0.75c0,0.41421 -0.33579,0.75 -0.75,0.75c-0.41421,0 -0.75,-0.33579 -0.75,-0.75c0,-0.41421 0.33579,-0.75 0.75,-0.75z" data-paper-data="{&quot;index&quot;:null}" fill="#e8e8e8" stroke-width="0.5"/><path d="M98.75834,185.74194c0.41421,0 0.75,0.33579 0.75,0.75c0,0.41421 -0.33579,0.75 -0.75,0.75c-0.41421,0 -0.75,-0.33579 -0.75,-0.75c0,-0.41421 0.33579,-0.75 0.75,-0.75z" data-paper-data="{&quot;index&quot;:null}" fill="#e8e8e8" stroke-width="0.5"/><path d="M100.15834,162.24194c0.69036,0 1.25,0.55964 1.25,1.25c0,0.69036 -0.55964,1.25 -1.25,1.25c-0.69036,0 -1.25,-0.55964 -1.25,-1.25c0,-0.69036 0.55964,-1.25 1.25,-1.25z" data-paper-data="{&quot;index&quot;:null}" fill="#e8e8e8" stroke-width="0.5"/><path d="M114.15834,188.44194c0.69036,0 1.25,0.55964 1.25,1.25c0,0.69036 -0.55964,1.25 -1.25,1.25c-0.69036,0 -1.25,-0.55964 -1.25,-1.25c0,-0.69036 0.55964,-1.25 1.25,-1.25z" data-paper-data="{&quot;index&quot;:null}" fill="#e8e8e8" stroke-width="0.5"/><path d="M146.55834,48.94194c0.41421,0 0.75,0.33579 0.75,0.75c0,0.41421 -0.33579,0.75 -0.75,0.75c-0.41421,0 -0.75,-0.33579 -0.75,-0.75c0,-0.41421 0.33579,-0.75 0.75,-0.75z" data-paper-data="{&quot;index&quot;:null}" fill="#e8e8e8" stroke-width="0.5"/><path d="M134.95834,28.14194c0.41421,0 0.75,0.33579 0.75,0.75c0,0.41421 -0.33579,0.75 -0.75,0.75c-0.41421,0 -0.75,-0.33579 -0.75,-0.75c0,-0.41421 0.33579,-0.75 0.75,-0.75z" data-paper-data="{&quot;index&quot;:null}" fill="#e8e8e8" stroke-width="0.5"/><path d="M178.95834,49.54194c0.41421,0 0.75,0.33579 0.75,0.75c0,0.41421 -0.33579,0.75 -0.75,0.75c-0.41421,0 -0.75,-0.33579 -0.75,-0.75c0,-0.41421 0.33579,-0.75 0.75,-0.75z" data-paper-data="{&quot;index&quot;:null}" fill="#222222" stroke-width="0.5"/><path d="M169.75834,51.14194c0.41421,0 0.75,0.33579 0.75,0.75c0,0.41421 -0.33579,0.75 -0.75,0.75c-0.41421,0 -0.75,-0.33579 -0.75,-0.75c0,-0.41421 0.33579,-0.75 0.75,-0.75z" data-paper-data="{&quot;index&quot;:null}" fill="#222222" stroke-width="0.5"/><path d="M158.95834,48.94194c0.41421,0 0.75,0.33579 0.75,0.75c0,0.41421 -0.33579,0.75 -0.75,0.75c-0.41421,0 -0.75,-0.33579 -0.75,-0.75c0,-0.41421 0.33579,-0.75 0.75,-0.75z" data-paper-data="{&quot;index&quot;:null}" fill="#222222" stroke-width="0.5"/><path d="M156.35834,50.54194c0.41421,0 0.75,0.33579 0.75,0.75c0,0.41421 -0.33579,0.75 -0.75,0.75c-0.41421,0 -0.75,-0.33579 -0.75,-0.75c0,-0.41421 0.33579,-0.75 0.75,-0.75z" data-paper-data="{&quot;index&quot;:null}" fill="#222222" stroke-width="0.5"/><path d="M151.15834,56.84194c0.69036,0 1.25,0.55964 1.25,1.25c0,0.69036 -0.55964,1.25 -1.25,1.25c-0.69036,0 -1.25,-0.55964 -1.25,-1.25c0,-0.69036 0.55964,-1.25 1.25,-1.25z" data-paper-data="{&quot;index&quot;:null}" fill="#222222" stroke-width="0.5"/><path d="M149.75834,75.84194c0.69036,0 1.25,0.55964 1.25,1.25c0,0.69036 -0.55964,1.25 -1.25,1.25c-0.69036,0 -1.25,-0.55964 -1.25,-1.25c0,-0.69036 0.55964,-1.25 1.25,-1.25z" data-paper-data="{&quot;index&quot;:null}" fill="#222222" stroke-width="0.5"/><path d="M129.15834,22.54194c0.41421,0 0.75,0.33579 0.75,0.75c0,0.41421 -0.33579,0.75 -0.75,0.75c-0.41421,0 -0.75,-0.33579 -0.75,-0.75c0,-0.41421 0.33579,-0.75 0.75,-0.75z" data-paper-data="{&quot;index&quot;:null}" fill="#222222" stroke-width="0.5"/><path d="M130.55834,15.74194c0.41421,0 0.75,0.33579 0.75,0.75c0,0.41421 -0.33579,0.75 -0.75,0.75c-0.41421,0 -0.75,-0.33579 -0.75,-0.75c0,-0.41421 0.33579,-0.75 0.75,-0.75z" data-paper-data="{&quot;index&quot;:null}" fill="#222222" stroke-width="0.5"/><path d="M165.35834,117.54194c0.41421,0 0.75,0.33579 0.75,0.75c0,0.41421 -0.33579,0.75 -0.75,0.75c-0.41421,0 -0.75,-0.33579 -0.75,-0.75c0,-0.41421 0.33579,-0.75 0.75,-0.75z" data-paper-data="{&quot;index&quot;:null}" fill="#222222" stroke-width="0.5"/><path d="M168.95834,109.54194c0.41421,0 0.75,0.33579 0.75,0.75c0,0.41421 -0.33579,0.75 -0.75,0.75c-0.41421,0 -0.75,-0.33579 -0.75,-0.75c0,-0.41421 0.33579,-0.75 0.75,-0.75z" data-paper-data="{&quot;index&quot;:null}" fill="#222222" stroke-width="0.5"/><path d="M275.05189,67.17792c-0.11243,0.27235 -0.38061,0.46402 -0.69355,0.46402c-0.41421,0 -0.75,-0.33579 -0.75,-0.75c0,-0.41421 0.33579,-0.75 0.75,-0.75c0.19522,0 0.37301,0.07459 0.50645,0.19682c0.11243,-0.27235 0.38061,-0.46402 0.69355,-0.46402c0.41421,0 0.75,0.33579 0.75,0.75c0,0.41421 -0.33579,0.75 -0.75,0.75c-0.19522,0 -0.37301,-0.07459 -0.50645,-0.19682z" data-paper-data="{&quot;index&quot;:null}" fill="#222222" stroke-width="0.5"/><path d="M272.35834,86.74194c0.41421,0 0.75,0.33579 0.75,0.75c0,0.41421 -0.33579,0.75 -0.75,0.75c-0.41421,0 -0.75,-0.33579 -0.75,-0.75c0,-0.41421 0.33579,-0.75 0.75,-0.75z" data-paper-data="{&quot;index&quot;:null}" fill="#222222" stroke-width="0.5"/><path d="M277.15834,81.14194c0.41421,0 0.75,0.33579 0.75,0.75c0,0.41421 -0.33579,0.75 -0.75,0.75c-0.41421,0 -0.75,-0.33579 -0.75,-0.75c0,-0.41421 0.33579,-0.75 0.75,-0.75z" data-paper-data="{&quot;index&quot;:null}" fill="#222222" stroke-width="0.5"/><path d="M272.15834,102.74194c0.41421,0 0.75,0.33579 0.75,0.75c0,0.41421 -0.33579,0.75 -0.75,0.75c-0.41421,0 -0.75,-0.33579 -0.75,-0.75c0,-0.41421 0.33579,-0.75 0.75,-0.75z" data-paper-data="{&quot;index&quot;:null}" fill="#222222" stroke-width="0.5"/><path d="M269.95834,105.14194c0.41421,0 0.75,0.33579 0.75,0.75c0,0.41421 -0.33579,0.75 -0.75,0.75c-0.41421,0 -0.75,-0.33579 -0.75,-0.75c0,-0.41421 0.33579,-0.75 0.75,-0.75z" data-paper-data="{&quot;index&quot;:null}" fill="#222222" stroke-width="0.5"/><path d="M271.95834,113.94194c0.41421,0 0.75,0.33579 0.75,0.75c0,0.41421 -0.33579,0.75 -0.75,0.75c-0.41421,0 -0.75,-0.33579 -0.75,-0.75c0,-0.41421 0.33579,-0.75 0.75,-0.75z" data-paper-data="{&quot;index&quot;:null}" fill="#222222" stroke-width="0.5"/><path d="M276.75834,118.34194c0.41421,0 0.75,0.33579 0.75,0.75c0,0.41421 -0.33579,0.75 -0.75,0.75c-0.41421,0 -0.75,-0.33579 -0.75,-0.75c0,-0.41421 0.33579,-0.75 0.75,-0.75z" data-paper-data="{&quot;index&quot;:null}" fill="#222222" stroke-width="0.5"/><path d="M286.55834,115.54194c0.41421,0 0.75,0.33579 0.75,0.75c0,0.41421 -0.33579,0.75 -0.75,0.75c-0.41421,0 -0.75,-0.33579 -0.75,-0.75c0,-0.41421 0.33579,-0.75 0.75,-0.75z" data-paper-data="{&quot;index&quot;:null}" fill="#222222" stroke-width="0.5"/><path d="M261.55834,140.54194c0.41421,0 0.75,0.33579 0.75,0.75c0,0.41421 -0.33579,0.75 -0.75,0.75c-0.41421,0 -0.75,-0.33579 -0.75,-0.75c0,-0.41421 0.33579,-0.75 0.75,-0.75z" data-paper-data="{&quot;index&quot;:null}" fill="#222222" stroke-width="0.5"/><path d="M264.15834,140.49194c0.55228,0 1,0.44772 1,1c0,0.55228 -0.44772,1 -1,1c-0.55228,0 -1,-0.44772 -1,-1c0,-0.55228 0.44772,-1 1,-1z" data-paper-data="{&quot;index&quot;:null}" fill="#222222" stroke-width="0.5"/><path d="M266.95834,152.49194c0.55228,0 1,0.44772 1,1c0,0.55228 -0.44772,1 -1,1c-0.55228,0 -1,-0.44772 -1,-1c0,-0.55228 0.44772,-1 1,-1z" data-paper-data="{&quot;index&quot;:null}" fill="#222222" stroke-width="0.5"/><path d="M109.95834,129.54194c0.41421,0 0.75,0.33579 0.75,0.75c0,0.41421 -0.33579,0.75 -0.75,0.75c-0.41421,0 -0.75,-0.33579 -0.75,-0.75c0,-0.41421 0.33579,-0.75 0.75,-0.75z" data-paper-data="{&quot;index&quot;:null}" fill="#222222" stroke-width="0.5"/><path d="M109.95834,121.94194c0.41421,0 0.75,0.33579 0.75,0.75c0,0.41421 -0.33579,0.75 -0.75,0.75c-0.41421,0 -0.75,-0.33579 -0.75,-0.75c0,-0.41421 0.33579,-0.75 0.75,-0.75z" data-paper-data="{&quot;index&quot;:null}" fill="#222222" stroke-width="0.5"/><path d="M106.35834,119.34194c0.41421,0 0.75,0.33579 0.75,0.75c0,0.41421 -0.33579,0.75 -0.75,0.75c-0.41421,0 -0.75,-0.33579 -0.75,-0.75c0,-0.41421 0.33579,-0.75 0.75,-0.75z" data-paper-data="{&quot;index&quot;:null}" fill="#222222" stroke-width="0.5"/><path d="M99.35834,119.74194c0.41421,0 0.75,0.33579 0.75,0.75c0,0.41421 -0.33579,0.75 -0.75,0.75c-0.41421,0 -0.75,-0.33579 -0.75,-0.75c0,-0.41421 0.33579,-0.75 0.75,-0.75z" data-paper-data="{&quot;index&quot;:null}" fill="#222222" stroke-width="0.5"/><path d="M110.75834,109.34194c0.41421,0 0.75,0.33579 0.75,0.75c0,0.41421 -0.33579,0.75 -0.75,0.75c-0.41421,0 -0.75,-0.33579 -0.75,-0.75c0,-0.41421 0.33579,-0.75 0.75,-0.75z" data-paper-data="{&quot;index&quot;:null}" fill="#222222" stroke-width="0.5"/><path d="M110.95834,98.14194c0.41421,0 0.75,0.33579 0.75,0.75c0,0.41421 -0.33579,0.75 -0.75,0.75c-0.41421,0 -0.75,-0.33579 -0.75,-0.75c0,-0.41421 0.33579,-0.75 0.75,-0.75z" data-paper-data="{&quot;index&quot;:null}" fill="#222222" stroke-width="0.5"/><path d="M101.15834,95.94194c0.41421,0 0.75,0.33579 0.75,0.75c0,0.41421 -0.33579,0.75 -0.75,0.75c-0.41421,0 -0.75,-0.33579 -0.75,-0.75c0,-0.41421 0.33579,-0.75 0.75,-0.75z" data-paper-data="{&quot;index&quot;:null}" fill="#222222" stroke-width="0.5"/><path d="M102.95834,88.94194c0.41421,0 0.75,0.33579 0.75,0.75c0,0.41421 -0.33579,0.75 -0.75,0.75c-0.41421,0 -0.75,-0.33579 -0.75,-0.75c0,-0.41421 0.33579,-0.75 0.75,-0.75z" data-paper-data="{&quot;index&quot;:null}" fill="#222222" stroke-width="0.5"/><path d="M144.35834,97.14194c0.41421,0 0.75,0.33579 0.75,0.75c0,0.41421 -0.33579,0.75 -0.75,0.75c-0.41421,0 -0.75,-0.33579 -0.75,-0.75c0,-0.41421 0.33579,-0.75 0.75,-0.75z" data-paper-data="{&quot;index&quot;:null}" fill="#222222" stroke-width="0.5"/><path d="M142.95834,93.54194c0.41421,0 0.75,0.33579 0.75,0.75c0,0.41421 -0.33579,0.75 -0.75,0.75c-0.41421,0 -0.75,-0.33579 -0.75,-0.75c0,-0.41421 0.33579,-0.75 0.75,-0.75z" data-paper-data="{&quot;index&quot;:null}" fill="#222222" stroke-width="0.5"/><path d="M142.35834,85.14194c0.41421,0 0.75,0.33579 0.75,0.75c0,0.41421 -0.33579,0.75 -0.75,0.75c-0.41421,0 -0.75,-0.33579 -0.75,-0.75c0,-0.41421 0.33579,-0.75 0.75,-0.75z" data-paper-data="{&quot;index&quot;:null}" fill="#222222" stroke-width="0.5"/><path d="M140.95834,73.14194c0.41421,0 0.75,0.33579 0.75,0.75c0,0.41421 -0.33579,0.75 -0.75,0.75c-0.41421,0 -0.75,-0.33579 -0.75,-0.75c0,-0.41421 0.33579,-0.75 0.75,-0.75z" data-paper-data="{&quot;index&quot;:null}" fill="#222222" stroke-width="0.5"/><path d="M124.15834,73.54194c0.41421,0 0.75,0.33579 0.75,0.75c0,0.41421 -0.33579,0.75 -0.75,0.75c-0.41421,0 -0.75,-0.33579 -0.75,-0.75c0,-0.41421 0.33579,-0.75 0.75,-0.75z" data-paper-data="{&quot;index&quot;:null}" fill="#222222" stroke-width="0.5"/><path d="M126.55834,78.74194c0.41421,0 0.75,0.33579 0.75,0.75c0,0.41421 -0.33579,0.75 -0.75,0.75c-0.41421,0 -0.75,-0.33579 -0.75,-0.75c0,-0.41421 0.33579,-0.75 0.75,-0.75z" data-paper-data="{&quot;index&quot;:null}" fill="#222222" stroke-width="0.5"/><path d="M132.95834,85.74194c0.41421,0 0.75,0.33579 0.75,0.75c0,0.41421 -0.33579,0.75 -0.75,0.75c-0.41421,0 -0.75,-0.33579 -0.75,-0.75c0,-0.41421 0.33579,-0.75 0.75,-0.75z" data-paper-data="{&quot;index&quot;:null}" fill="#222222" stroke-width="0.5"/><path d="M132.15834,90.94194c0.41421,0 0.75,0.33579 0.75,0.75c0,0.41421 -0.33579,0.75 -0.75,0.75c-0.41421,0 -0.75,-0.33579 -0.75,-0.75c0,-0.41421 0.33579,-0.75 0.75,-0.75z" data-paper-data="{&quot;index&quot;:null}" fill="#222222" stroke-width="0.5"/><path d="M134.75834,95.94194c0.41421,0 0.75,0.33579 0.75,0.75c0,0.41421 -0.33579,0.75 -0.75,0.75c-0.41421,0 -0.75,-0.33579 -0.75,-0.75c0,-0.41421 0.33579,-0.75 0.75,-0.75z" data-paper-data="{&quot;index&quot;:null}" fill="#222222" stroke-width="0.5"/><path d="M139.55834,107.74194c0.41421,0 0.75,0.33579 0.75,0.75c0,0.41421 -0.33579,0.75 -0.75,0.75c-0.41421,0 -0.75,-0.33579 -0.75,-0.75c0,-0.41421 0.33579,-0.75 0.75,-0.75z" data-paper-data="{&quot;index&quot;:null}" fill="#222222" stroke-width="0.5"/><path d="M132.55834,111.14194c0.41421,0 0.75,0.33579 0.75,0.75c0,0.41421 -0.33579,0.75 -0.75,0.75c-0.41421,0 -0.75,-0.33579 -0.75,-0.75c0,-0.41421 0.33579,-0.75 0.75,-0.75z" data-paper-data="{&quot;index&quot;:null}" fill="#222222" stroke-width="0.5"/><path d="M125.15834,103.14194c0.41421,0 0.75,0.33579 0.75,0.75c0,0.41421 -0.33579,0.75 -0.75,0.75c-0.41421,0 -0.75,-0.33579 -0.75,-0.75c0,-0.41421 0.33579,-0.75 0.75,-0.75z" data-paper-data="{&quot;index&quot;:null}" fill="#222222" stroke-width="0.5"/><path d="M118.35834,98.34194c0.41421,0 0.75,0.33579 0.75,0.75c0,0.41421 -0.33579,0.75 -0.75,0.75c-0.41421,0 -0.75,-0.33579 -0.75,-0.75c0,-0.41421 0.33579,-0.75 0.75,-0.75z" data-paper-data="{&quot;index&quot;:null}" fill="#222222" stroke-width="0.5"/><path d="M111.55834,72.54194c0.41421,0 0.75,0.33579 0.75,0.75c0,0.41421 -0.33579,0.75 -0.75,0.75c-0.41421,0 -0.75,-0.33579 -0.75,-0.75c0,-0.41421 0.33579,-0.75 0.75,-0.75z" data-paper-data="{&quot;index&quot;:null}" fill="#222222" stroke-width="0.5"/><path d="M149.75834,67.74194c0.41421,0 0.75,0.33579 0.75,0.75c0,0.41421 -0.33579,0.75 -0.75,0.75c-0.41421,0 -0.75,-0.33579 -0.75,-0.75c0,-0.41421 0.33579,-0.75 0.75,-0.75z" data-paper-data="{&quot;index&quot;:null}" fill="#222222" stroke-width="0.5"/><path d="M172.95834,155.54194c0.41421,0 0.75,0.33579 0.75,0.75c0,0.41421 -0.33579,0.75 -0.75,0.75c-0.41421,0 -0.75,-0.33579 -0.75,-0.75c0,-0.41421 0.33579,-0.75 0.75,-0.75z" data-paper-data="{&quot;index&quot;:null}" fill="#222222" stroke-width="0.5"/><path d="M178.75834,149.94194c0.41421,0 0.75,0.33579 0.75,0.75c0,0.41421 -0.33579,0.75 -0.75,0.75c-0.41421,0 -0.75,-0.33579 -0.75,-0.75c0,-0.41421 0.33579,-0.75 0.75,-0.75z" data-paper-data="{&quot;index&quot;:null}" fill="#222222" stroke-width="0.5"/><path d="M163.35834,151.14194c0.41421,0 0.75,0.33579 0.75,0.75c0,0.41421 -0.33579,0.75 -0.75,0.75c-0.41421,0 -0.75,-0.33579 -0.75,-0.75c0,-0.41421 0.33579,-0.75 0.75,-0.75z" data-paper-data="{&quot;index&quot;:null}" fill="#222222" stroke-width="0.5"/><path d="M155.75834,144.54194c0.41421,0 0.75,0.33579 0.75,0.75c0,0.41421 -0.33579,0.75 -0.75,0.75c-0.41421,0 -0.75,-0.33579 -0.75,-0.75c0,-0.41421 0.33579,-0.75 0.75,-0.75z" data-paper-data="{&quot;index&quot;:null}" fill="#222222" stroke-width="0.5"/><path d="M265.35834,19.67474c0.41421,0 0.75,0.33579 0.75,0.75c0,0.41421 -0.33579,0.75 -0.75,0.75c-0.41421,0 -0.75,-0.33579 -0.75,-0.75c0,-0.41421 0.33579,-0.75 0.75,-0.75z" data-paper-data="{&quot;index&quot;:null}" fill="#222222" stroke-width="0.5"/><path d="M261.35834,17.47474c0.41421,0 0.75,0.33579 0.75,0.75c0,0.41421 -0.33579,0.75 -0.75,0.75c-0.41421,0 -0.75,-0.33579 -0.75,-0.75c0,-0.41421 0.33579,-0.75 0.75,-0.75z" data-paper-data="{&quot;index&quot;:null}" fill="#222222" stroke-width="0.5"/><path d="M260.75834,12.87474c0.41421,0 0.75,0.33579 0.75,0.75c0,0.41421 -0.33579,0.75 -0.75,0.75c-0.41421,0 -0.75,-0.33579 -0.75,-0.75c0,-0.41421 0.33579,-0.75 0.75,-0.75z" data-paper-data="{&quot;index&quot;:null}" fill="#222222" stroke-width="0.5"/><path d="M250.35834,14.67474c0.41421,0 0.75,0.33579 0.75,0.75c0,0.41421 -0.33579,0.75 -0.75,0.75c-0.41421,0 -0.75,-0.33579 -0.75,-0.75c0,-0.41421 0.33579,-0.75 0.75,-0.75z" data-paper-data="{&quot;index&quot;:null}" fill="#222222" stroke-width="0.5"/><path d="M248.75834,18.87474c0.41421,0 0.75,0.33579 0.75,0.75c0,0.41421 -0.33579,0.75 -0.75,0.75c-0.41421,0 -0.75,-0.33579 -0.75,-0.75c0,-0.41421 0.33579,-0.75 0.75,-0.75z" data-paper-data="{&quot;index&quot;:null}" fill="#222222" stroke-width="0.5"/><path d="M253.35834,18.87474c0.41421,0 0.75,0.33579 0.75,0.75c0,0.41421 -0.33579,0.75 -0.75,0.75c-0.41421,0 -0.75,-0.33579 -0.75,-0.75c0,-0.41421 0.33579,-0.75 0.75,-0.75z" data-paper-data="{&quot;index&quot;:null}" fill="#222222" stroke-width="0.5"/><path d="M281.95834,31.87474c0.41421,0 0.75,0.33579 0.75,0.75c0,0.41421 -0.33579,0.75 -0.75,0.75c-0.41421,0 -0.75,-0.33579 -0.75,-0.75c0,-0.41421 0.33579,-0.75 0.75,-0.75z" data-paper-data="{&quot;index&quot;:null}" fill="#222222" stroke-width="0.5"/><path d="M280.15834,40.67474c0.41421,0 0.75,0.33579 0.75,0.75c0,0.41421 -0.33579,0.75 -0.75,0.75c-0.41421,0 -0.75,-0.33579 -0.75,-0.75c0,-0.41421 0.33579,-0.75 0.75,-0.75z" data-paper-data="{&quot;index&quot;:null}" fill="#222222" stroke-width="0.5"/><path d="M286.55834,45.47474c0.41421,0 0.75,0.33579 0.75,0.75c0,0.41421 -0.33579,0.75 -0.75,0.75c-0.41421,0 -0.75,-0.33579 -0.75,-0.75c0,-0.41421 0.33579,-0.75 0.75,-0.75z" data-paper-data="{&quot;index&quot;:null}" fill="#222222" stroke-width="0.5"/><path d="M288.35834,47.67474c0.41421,0 0.75,0.33579 0.75,0.75c0,0.41421 -0.33579,0.75 -0.75,0.75c-0.41421,0 -0.75,-0.33579 -0.75,-0.75c0,-0.41421 0.33579,-0.75 0.75,-0.75z" data-paper-data="{&quot;index&quot;:null}" fill="#222222" stroke-width="0.5"/><path d="M258.95834,53.87474c0.41421,0 0.75,0.33579 0.75,0.75c0,0.41421 -0.33579,0.75 -0.75,0.75c-0.41421,0 -0.75,-0.33579 -0.75,-0.75c0,-0.41421 0.33579,-0.75 0.75,-0.75z" data-paper-data="{&quot;index&quot;:null}" fill="#222222" stroke-width="0.5"/><path d="M271.95834,64.47474c0.41421,0 0.75,0.33579 0.75,0.75c0,0.41421 -0.33579,0.75 -0.75,0.75c-0.41421,0 -0.75,-0.33579 -0.75,-0.75c0,-0.41421 0.33579,-0.75 0.75,-0.75z" data-paper-data="{&quot;index&quot;:null}" fill="#222222" stroke-width="0.5"/><path d="M268.15834,44.67474c0.41421,0 0.75,0.33579 0.75,0.75c0,0.41421 -0.33579,0.75 -0.75,0.75c-0.41421,0 -0.75,-0.33579 -0.75,-0.75c0,-0.41421 0.33579,-0.75 0.75,-0.75z" data-paper-data="{&quot;index&quot;:null}" fill="#222222" stroke-width="0.5"/><path d="M243.15834,308.37474c0.69036,0 1.25,0.55964 1.25,1.25c0,0.69036 -0.55964,1.25 -1.25,1.25c-0.69036,0 -1.25,-0.55964 -1.25,-1.25c0,-0.69036 0.55964,-1.25 1.25,-1.25z" data-paper-data="{&quot;index&quot;:null}" fill="#222222" stroke-width="0.5"/><path d="M249.55834,316.57474c0.69036,0 1.25,0.55964 1.25,1.25c0,0.69036 -0.55964,1.25 -1.25,1.25c-0.69036,0 -1.25,-0.55964 -1.25,-1.25c0,-0.69036 0.55964,-1.25 1.25,-1.25z" data-paper-data="{&quot;index&quot;:null}" fill="#222222" stroke-width="0.5"/><path d="M190.75834,296.67474c0.41421,0 0.75,0.33579 0.75,0.75c0,0.41421 -0.33579,0.75 -0.75,0.75c-0.41421,0 -0.75,-0.33579 -0.75,-0.75c0,-0.41421 0.33579,-0.75 0.75,-0.75z" data-paper-data="{&quot;index&quot;:null}" fill="#222222" stroke-width="0.5"/><path d="M155.95834,302.67474c0.41421,0 0.75,0.33579 0.75,0.75c0,0.41421 -0.33579,0.75 -0.75,0.75c-0.41421,0 -0.75,-0.33579 -0.75,-0.75c0,-0.41421 0.33579,-0.75 0.75,-0.75z" data-paper-data="{&quot;index&quot;:null}" fill="#222222" stroke-width="0.5"/><path d="M151.15834,290.47474c0.41421,0 0.75,0.33579 0.75,0.75c0,0.41421 -0.33579,0.75 -0.75,0.75c-0.41421,0 -0.75,-0.33579 -0.75,-0.75c0,-0.41421 0.33579,-0.75 0.75,-0.75z" data-paper-data="{&quot;index&quot;:null}" fill="#222222" stroke-width="0.5"/><path d="M124.15834,291.07474c0.41421,0 0.75,0.33579 0.75,0.75c0,0.41421 -0.33579,0.75 -0.75,0.75c-0.41421,0 -0.75,-0.33579 -0.75,-0.75c0,-0.41421 0.33579,-0.75 0.75,-0.75z" data-paper-data="{&quot;index&quot;:null}" fill="#222222" stroke-width="0.5"/><path d="M123.75834,301.07474c0.41421,0 0.75,0.33579 0.75,0.75c0,0.41421 -0.33579,0.75 -0.75,0.75c-0.41421,0 -0.75,-0.33579 -0.75,-0.75c0,-0.41421 0.33579,-0.75 0.75,-0.75z" data-paper-data="{&quot;index&quot;:null}" fill="#222222" stroke-width="0.5"/><path d="M115.15834,310.67474c0.41421,0 0.75,0.33579 0.75,0.75c0,0.41421 -0.33579,0.75 -0.75,0.75c-0.41421,0 -0.75,-0.33579 -0.75,-0.75c0,-0.41421 0.33579,-0.75 0.75,-0.75z" data-paper-data="{&quot;index&quot;:null}" fill="#222222" stroke-width="0.5"/><path d="M104.15834,323.27474c0.41421,0 0.75,0.33579 0.75,0.75c0,0.41421 -0.33579,0.75 -0.75,0.75c-0.41421,0 -0.75,-0.33579 -0.75,-0.75c0,-0.41421 0.33579,-0.75 0.75,-0.75z" data-paper-data="{&quot;index&quot;:null}" fill="#222222" stroke-width="0.5"/><path d="M99.15834,326.07474c0.41421,0 0.75,0.33579 0.75,0.75c0,0.41421 -0.33579,0.75 -0.75,0.75c-0.41421,0 -0.75,-0.33579 -0.75,-0.75c0,-0.41421 0.33579,-0.75 0.75,-0.75z" data-paper-data="{&quot;index&quot;:null}" fill="#222222" stroke-width="0.5"/><path d="M99.15834,329.67474c0.41421,0 0.75,0.33579 0.75,0.75c0,0.41421 -0.33579,0.75 -0.75,0.75c-0.41421,0 -0.75,-0.33579 -0.75,-0.75c0,-0.41421 0.33579,-0.75 0.75,-0.75z" data-paper-data="{&quot;index&quot;:null}" fill="#222222" stroke-width="0.5"/><path d="M105.35834,332.27474c0.41421,0 0.75,0.33579 0.75,0.75c0,0.41421 -0.33579,0.75 -0.75,0.75c-0.41421,0 -0.75,-0.33579 -0.75,-0.75c0,-0.41421 0.33579,-0.75 0.75,-0.75z" data-paper-data="{&quot;index&quot;:null}" fill="#222222" stroke-width="0.5"/><path d="M110.35834,334.27474c0.41421,0 0.75,0.33579 0.75,0.75c0,0.41421 -0.33579,0.75 -0.75,0.75c-0.41421,0 -0.75,-0.33579 -0.75,-0.75c0,-0.41421 0.33579,-0.75 0.75,-0.75z" data-paper-data="{&quot;index&quot;:null}" fill="#222222" stroke-width="0.5"/><path d="M147.95834,326.87474c0.41421,0 0.75,0.33579 0.75,0.75c0,0.41421 -0.33579,0.75 -0.75,0.75c-0.41421,0 -0.75,-0.33579 -0.75,-0.75c0,-0.41421 0.33579,-0.75 0.75,-0.75z" data-paper-data="{&quot;index&quot;:null}" fill="#222222" stroke-width="0.5"/><path d="M139.75834,330.27474c0.41421,0 0.75,0.33579 0.75,0.75c0,0.41421 -0.33579,0.75 -0.75,0.75c-0.41421,0 -0.75,-0.33579 -0.75,-0.75c0,-0.41421 0.33579,-0.75 0.75,-0.75z" data-paper-data="{&quot;index&quot;:null}" fill="#222222" stroke-width="0.5"/><path d="M134.75834,326.67474c0.41421,0 0.75,0.33579 0.75,0.75c0,0.41421 -0.33579,0.75 -0.75,0.75c-0.41421,0 -0.75,-0.33579 -0.75,-0.75c0,-0.41421 0.33579,-0.75 0.75,-0.75z" data-paper-data="{&quot;index&quot;:null}" fill="#222222" stroke-width="0.5"/><path d="M155.15834,323.47474c0.41421,0 0.75,0.33579 0.75,0.75c0,0.41421 -0.33579,0.75 -0.75,0.75c-0.41421,0 -0.75,-0.33579 -0.75,-0.75c0,-0.41421 0.33579,-0.75 0.75,-0.75z" data-paper-data="{&quot;index&quot;:null}" fill="#222222" stroke-width="0.5"/><path d="M162.75834,330.07474c0.41421,0 0.75,0.33579 0.75,0.75c0,0.41421 -0.33579,0.75 -0.75,0.75c-0.41421,0 -0.75,-0.33579 -0.75,-0.75c0,-0.41421 0.33579,-0.75 0.75,-0.75z" data-paper-data="{&quot;index&quot;:null}" fill="#222222" stroke-width="0.5"/><path d="M175.35834,333.07474c0.41421,0 0.75,0.33579 0.75,0.75c0,0.41421 -0.33579,0.75 -0.75,0.75c-0.41421,0 -0.75,-0.33579 -0.75,-0.75c0,-0.41421 0.33579,-0.75 0.75,-0.75z" data-paper-data="{&quot;index&quot;:null}" fill="#222222" stroke-width="0.5"/><path d="M190.55834,332.07474c0.41421,0 0.75,0.33579 0.75,0.75c0,0.41421 -0.33579,0.75 -0.75,0.75c-0.41421,0 -0.75,-0.33579 -0.75,-0.75c0,-0.41421 0.33579,-0.75 0.75,-0.75z" data-paper-data="{&quot;index&quot;:null}" fill="#222222" stroke-width="0.5"/><path d="M167.75834,277.67474c0.41421,0 0.75,0.33579 0.75,0.75c0,0.41421 -0.33579,0.75 -0.75,0.75c-0.41421,0 -0.75,-0.33579 -0.75,-0.75c0,-0.41421 0.33579,-0.75 0.75,-0.75z" data-paper-data="{&quot;index&quot;:null}" fill="#222222" stroke-width="0.5"/><path d="M131.55834,282.07474c0.41421,0 0.75,0.33579 0.75,0.75c0,0.41421 -0.33579,0.75 -0.75,0.75c-0.41421,0 -0.75,-0.33579 -0.75,-0.75c0,-0.41421 0.33579,-0.75 0.75,-0.75z" data-paper-data="{&quot;index&quot;:null}" fill="#222222" stroke-width="0.5"/><path d="M121.95834,271.27474c0.41421,0 0.75,0.33579 0.75,0.75c0,0.41421 -0.33579,0.75 -0.75,0.75c-0.41421,0 -0.75,-0.33579 -0.75,-0.75c0,-0.41421 0.33579,-0.75 0.75,-0.75z" data-paper-data="{&quot;index&quot;:null}" fill="#222222" stroke-width="0.5"/><path d="M144.15834,249.87474c0.41421,0 0.75,0.33579 0.75,0.75c0,0.41421 -0.33579,0.75 -0.75,0.75c-0.41421,0 -0.75,-0.33579 -0.75,-0.75c0,-0.41421 0.33579,-0.75 0.75,-0.75z" data-paper-data="{&quot;index&quot;:null}" fill="#222222" stroke-width="0.5"/><path d="M173.15834,251.47474c0.41421,0 0.75,0.33579 0.75,0.75c0,0.41421 -0.33579,0.75 -0.75,0.75c-0.41421,0 -0.75,-0.33579 -0.75,-0.75c0,-0.41421 0.33579,-0.75 0.75,-0.75z" data-paper-data="{&quot;index&quot;:null}" fill="#222222" stroke-width="0.5"/><path d="M289.55834,259.27474c0.41421,0 0.75,0.33579 0.75,0.75c0,0.41421 -0.33579,0.75 -0.75,0.75c-0.41421,0 -0.75,-0.33579 -0.75,-0.75c0,-0.41421 0.33579,-0.75 0.75,-0.75z" data-paper-data="{&quot;index&quot;:null}" fill="#222222" stroke-width="0.5"/><path d="M289.15834,276.67474c0.41421,0 0.75,0.33579 0.75,0.75c0,0.41421 -0.33579,0.75 -0.75,0.75c-0.41421,0 -0.75,-0.33579 -0.75,-0.75c0,-0.41421 0.33579,-0.75 0.75,-0.75z" data-paper-data="{&quot;index&quot;:null}" fill="#222222" stroke-width="0.5"/><path d="M324.55834,305.87474c0.41421,0 0.75,0.33579 0.75,0.75c0,0.41421 -0.33579,0.75 -0.75,0.75c-0.41421,0 -0.75,-0.33579 -0.75,-0.75c0,-0.41421 0.33579,-0.75 0.75,-0.75z" data-paper-data="{&quot;index&quot;:null}" fill="#222222" stroke-width="0.5"/><path d="M304.55834,312.07474c0.41421,0 0.75,0.33579 0.75,0.75c0,0.41421 -0.33579,0.75 -0.75,0.75c-0.41421,0 -0.75,-0.33579 -0.75,-0.75c0,-0.41421 0.33579,-0.75 0.75,-0.75z" data-paper-data="{&quot;index&quot;:null}" fill="#222222" stroke-width="0.5"/><path d="M327.75834,321.47474c0.41421,0 0.75,0.33579 0.75,0.75c0,0.41421 -0.33579,0.75 -0.75,0.75c-0.41421,0 -0.75,-0.33579 -0.75,-0.75c0,-0.41421 0.33579,-0.75 0.75,-0.75z" data-paper-data="{&quot;index&quot;:null}" fill="#222222" stroke-width="0.5"/><path d="M342.55834,315.07474c0.41421,0 0.75,0.33579 0.75,0.75c0,0.41421 -0.33579,0.75 -0.75,0.75c-0.41421,0 -0.75,-0.33579 -0.75,-0.75c0,-0.41421 0.33579,-0.75 0.75,-0.75z" data-paper-data="{&quot;index&quot;:null}" fill="#222222" stroke-width="0.5"/><path d="M357.75834,321.27474c0.41421,0 0.75,0.33579 0.75,0.75c0,0.41421 -0.33579,0.75 -0.75,0.75c-0.41421,0 -0.75,-0.33579 -0.75,-0.75c0,-0.41421 0.33579,-0.75 0.75,-0.75z" data-paper-data="{&quot;index&quot;:null}" fill="#222222" stroke-width="0.5"/><path d="M359.15834,320.07474c0.41421,0 0.75,0.33579 0.75,0.75c0,0.41421 -0.33579,0.75 -0.75,0.75c-0.41421,0 -0.75,-0.33579 -0.75,-0.75c0,-0.41421 0.33579,-0.75 0.75,-0.75z" data-paper-data="{&quot;index&quot;:null}" fill="#222222" stroke-width="0.5"/><path d="M356.55834,319.07474c0.41421,0 0.75,0.33579 0.75,0.75c0,0.41421 -0.33579,0.75 -0.75,0.75c-0.41421,0 -0.75,-0.33579 -0.75,-0.75c0,-0.41421 0.33579,-0.75 0.75,-0.75z" data-paper-data="{&quot;index&quot;:null}" fill="#222222" stroke-width="0.5"/><path d="M355.15834,264.67474c0.41421,0 0.75,0.33579 0.75,0.75c0,0.41421 -0.33579,0.75 -0.75,0.75c-0.41421,0 -0.75,-0.33579 -0.75,-0.75c0,-0.41421 0.33579,-0.75 0.75,-0.75z" data-paper-data="{&quot;index&quot;:null}" fill="#222222" stroke-width="0.5"/><path d="M348.95834,265.27474c0.41421,0 0.75,0.33579 0.75,0.75c0,0.41421 -0.33579,0.75 -0.75,0.75c-0.41421,0 -0.75,-0.33579 -0.75,-0.75c0,-0.41421 0.33579,-0.75 0.75,-0.75z" data-paper-data="{&quot;index&quot;:null}" fill="#222222" stroke-width="0.5"/><path d="M337.55834,253.67474c0.41421,0 0.75,0.33579 0.75,0.75c0,0.41421 -0.33579,0.75 -0.75,0.75c-0.41421,0 -0.75,-0.33579 -0.75,-0.75c0,-0.41421 0.33579,-0.75 0.75,-0.75z" data-paper-data="{&quot;index&quot;:null}" fill="#222222" stroke-width="0.5"/><path d="M339.35834,238.87474c0.41421,0 0.75,0.33579 0.75,0.75c0,0.41421 -0.33579,0.75 -0.75,0.75c-0.41421,0 -0.75,-0.33579 -0.75,-0.75c0,-0.41421 0.33579,-0.75 0.75,-0.75z" data-paper-data="{&quot;index&quot;:null}" fill="#222222" stroke-width="0.5"/><path d="M349.95834,229.47474c0.41421,0 0.75,0.33579 0.75,0.75c0,0.41421 -0.33579,0.75 -0.75,0.75c-0.41421,0 -0.75,-0.33579 -0.75,-0.75c0,-0.41421 0.33579,-0.75 0.75,-0.75z" data-paper-data="{&quot;index&quot;:null}" fill="#222222" stroke-width="0.5"/><path d="M352.95834,231.47474c0.41421,0 0.75,0.33579 0.75,0.75c0,0.41421 -0.33579,0.75 -0.75,0.75c-0.41421,0 -0.75,-0.33579 -0.75,-0.75c0,-0.41421 0.33579,-0.75 0.75,-0.75z" data-paper-data="{&quot;index&quot;:null}" fill="#222222" stroke-width="0.5"/><path d="M313.95834,233.87474c0.41421,0 0.75,0.33579 0.75,0.75c0,0.41421 -0.33579,0.75 -0.75,0.75c-0.41421,0 -0.75,-0.33579 -0.75,-0.75c0,-0.41421 0.33579,-0.75 0.75,-0.75z" data-paper-data="{&quot;index&quot;:null}" fill="#222222" stroke-width="0.5"/><path d="M285.35834,224.47474c0.41421,0 0.75,0.33579 0.75,0.75c0,0.41421 -0.33579,0.75 -0.75,0.75c-0.41421,0 -0.75,-0.33579 -0.75,-0.75c0,-0.41421 0.33579,-0.75 0.75,-0.75z" data-paper-data="{&quot;index&quot;:null}" fill="#222222" stroke-width="0.5"/><path d="M280.75834,217.27474c0.41421,0 0.75,0.33579 0.75,0.75c0,0.41421 -0.33579,0.75 -0.75,0.75c-0.41421,0 -0.75,-0.33579 -0.75,-0.75c0,-0.41421 0.33579,-0.75 0.75,-0.75z" data-paper-data="{&quot;index&quot;:null}" fill="#222222" stroke-width="0.5"/><path d="M277.35834,210.67474c0.41421,0 0.75,0.33579 0.75,0.75c0,0.41421 -0.33579,0.75 -0.75,0.75c-0.41421,0 -0.75,-0.33579 -0.75,-0.75c0,-0.41421 0.33579,-0.75 0.75,-0.75z" data-paper-data="{&quot;index&quot;:null}" fill="#222222" stroke-width="0.5"/><path d="M252.95834,205.67474c0.41421,0 0.75,0.33579 0.75,0.75c0,0.41421 -0.33579,0.75 -0.75,0.75c-0.41421,0 -0.75,-0.33579 -0.75,-0.75c0,-0.41421 0.33579,-0.75 0.75,-0.75z" data-paper-data="{&quot;index&quot;:null}" fill="#222222" stroke-width="0.5"/><path d="M257.55834,211.87474c0.41421,0 0.75,0.33579 0.75,0.75c0,0.41421 -0.33579,0.75 -0.75,0.75c-0.41421,0 -0.75,-0.33579 -0.75,-0.75c0,-0.41421 0.33579,-0.75 0.75,-0.75z" data-paper-data="{&quot;index&quot;:null}" fill="#222222" stroke-width="0.5"/><path d="M257.75834,218.07474c0.41421,0 0.75,0.33579 0.75,0.75c0,0.41421 -0.33579,0.75 -0.75,0.75c-0.41421,0 -0.75,-0.33579 -0.75,-0.75c0,-0.41421 0.33579,-0.75 0.75,-0.75z" data-paper-data="{&quot;index&quot;:null}" fill="#222222" stroke-width="0.5"/><path d="M258.75834,227.47474c0.41421,0 0.75,0.33579 0.75,0.75c0,0.41421 -0.33579,0.75 -0.75,0.75c-0.41421,0 -0.75,-0.33579 -0.75,-0.75c0,-0.41421 0.33579,-0.75 0.75,-0.75z" data-paper-data="{&quot;index&quot;:null}" fill="#222222" stroke-width="0.5"/><path d="M259.95834,235.67474c0.41421,0 0.75,0.33579 0.75,0.75c0,0.41421 -0.33579,0.75 -0.75,0.75c-0.41421,0 -0.75,-0.33579 -0.75,-0.75c0,-0.41421 0.33579,-0.75 0.75,-0.75z" data-paper-data="{&quot;index&quot;:null}" fill="#222222" stroke-width="0.5"/><path d="M274.95834,242.27474c0.41421,0 0.75,0.33579 0.75,0.75c0,0.41421 -0.33579,0.75 -0.75,0.75c-0.41421,0 -0.75,-0.33579 -0.75,-0.75c0,-0.41421 0.33579,-0.75 0.75,-0.75z" data-paper-data="{&quot;index&quot;:null}" fill="#222222" stroke-width="0.5"/><path d="M274.15834,245.47474c0.41421,0 0.75,0.33579 0.75,0.75c0,0.41421 -0.33579,0.75 -0.75,0.75c-0.41421,0 -0.75,-0.33579 -0.75,-0.75c0,-0.41421 0.33579,-0.75 0.75,-0.75z" data-paper-data="{&quot;index&quot;:null}" fill="#222222" stroke-width="0.5"/><path d="M290.55834,164.07474c0.41421,0 0.75,0.33579 0.75,0.75c0,0.41421 -0.33579,0.75 -0.75,0.75c-0.41421,0 -0.75,-0.33579 -0.75,-0.75c0,-0.41421 0.33579,-0.75 0.75,-0.75z" data-paper-data="{&quot;index&quot;:null}" fill="#222222" stroke-width="0.5"/><path d="M273.35834,168.27474c0.41421,0 0.75,0.33579 0.75,0.75c0,0.41421 -0.33579,0.75 -0.75,0.75c-0.41421,0 -0.75,-0.33579 -0.75,-0.75c0,-0.41421 0.33579,-0.75 0.75,-0.75z" data-paper-data="{&quot;index&quot;:null}" fill="#222222" stroke-width="0.5"/><path d="M274.75834,170.27474c0.41421,0 0.75,0.33579 0.75,0.75c0,0.41421 -0.33579,0.75 -0.75,0.75c-0.41421,0 -0.75,-0.33579 -0.75,-0.75c0,-0.41421 0.33579,-0.75 0.75,-0.75z" data-paper-data="{&quot;index&quot;:null}" fill="#222222" stroke-width="0.5"/><path d="M260.15834,174.07474c0.41421,0 0.75,0.33579 0.75,0.75c0,0.41421 -0.33579,0.75 -0.75,0.75c-0.41421,0 -0.75,-0.33579 -0.75,-0.75c0,-0.41421 0.33579,-0.75 0.75,-0.75z" data-paper-data="{&quot;index&quot;:null}" fill="#222222" stroke-width="0.5"/><path d="M256.15834,178.67474c0.41421,0 0.75,0.33579 0.75,0.75c0,0.41421 -0.33579,0.75 -0.75,0.75c-0.41421,0 -0.75,-0.33579 -0.75,-0.75c0,-0.41421 0.33579,-0.75 0.75,-0.75z" data-paper-data="{&quot;index&quot;:null}" fill="#222222" stroke-width="0.5"/><path d="M349.35834,178.07474c0.41421,0 0.75,0.33579 0.75,0.75c0,0.41421 -0.33579,0.75 -0.75,0.75c-0.41421,0 -0.75,-0.33579 -0.75,-0.75c0,-0.41421 0.33579,-0.75 0.75,-0.75z" data-paper-data="{&quot;index&quot;:null}" fill="#222222" stroke-width="0.5"/><path d="M353.15834,179.67474c0.41421,0 0.75,0.33579 0.75,0.75c0,0.41421 -0.33579,0.75 -0.75,0.75c-0.41421,0 -0.75,-0.33579 -0.75,-0.75c0,-0.41421 0.33579,-0.75 0.75,-0.75z" data-paper-data="{&quot;index&quot;:null}" fill="#222222" stroke-width="0.5"/><path d="M355.15834,161.47474c0.41421,0 0.75,0.33579 0.75,0.75c0,0.41421 -0.33579,0.75 -0.75,0.75c-0.41421,0 -0.75,-0.33579 -0.75,-0.75c0,-0.41421 0.33579,-0.75 0.75,-0.75z" data-paper-data="{&quot;index&quot;:null}" fill="#222222" stroke-width="0.5"/><path d="M358.95834,163.67474c0.41421,0 0.75,0.33579 0.75,0.75c0,0.41421 -0.33579,0.75 -0.75,0.75c-0.41421,0 -0.75,-0.33579 -0.75,-0.75c0,-0.41421 0.33579,-0.75 0.75,-0.75z" data-paper-data="{&quot;index&quot;:null}" fill="#222222" stroke-width="0.5"/><path d="M361.35834,168.27474c0.41421,0 0.75,0.33579 0.75,0.75c0,0.41421 -0.33579,0.75 -0.75,0.75c-0.41421,0 -0.75,-0.33579 -0.75,-0.75c0,-0.41421 0.33579,-0.75 0.75,-0.75z" data-paper-data="{&quot;index&quot;:null}" fill="#222222" stroke-width="0.5"/><path d="M187.95834,186.33334c0.55228,0 1,0.44772 1,1c0,0.42375 -0.26357,0.78593 -0.63571,0.93157c0.15964,0.13754 0.26071,0.34118 0.26071,0.56843c0,0.41421 -0.33579,0.75 -0.75,0.75c-0.41421,0 -0.75,-0.33579 -0.75,-0.75c0,-0.27202 0.14482,-0.51022 0.36156,-0.6417c-0.29147,-0.17474 -0.48656,-0.49374 -0.48656,-0.8583c0,-0.55228 0.44772,-1 1,-1z" data-paper-data="{&quot;index&quot;:null}" fill="#222222" stroke-width="0.5"/><path d="M184.83334,208.33334c0.41421,0 0.75,0.33579 0.75,0.75c0,0.41421 -0.33579,0.75 -0.75,0.75c-0.41421,0 -0.75,-0.33579 -0.75,-0.75c0,-0.41421 0.33579,-0.75 0.75,-0.75z" data-paper-data="{&quot;index&quot;:null}" fill="#222222" stroke-width="0.5"/><path d="M161.83334,209.58334c0.41421,0 0.75,0.33579 0.75,0.75c0,0.41421 -0.33579,0.75 -0.75,0.75c-0.41421,0 -0.75,-0.33579 -0.75,-0.75c0,-0.41421 0.33579,-0.75 0.75,-0.75z" data-paper-data="{&quot;index&quot;:null}" fill="#222222" stroke-width="0.5"/><path d="M132.33334,194.08334c0.41421,0 0.75,0.33579 0.75,0.75c0,0.41421 -0.33579,0.75 -0.75,0.75c-0.41421,0 -0.75,-0.33579 -0.75,-0.75c0,-0.41421 0.33579,-0.75 0.75,-0.75z" data-paper-data="{&quot;index&quot;:null}" fill="#222222" stroke-width="0.5"/><path d="M115.33334,210.08334c0.41421,0 0.75,0.33579 0.75,0.75c0,0.41421 -0.33579,0.75 -0.75,0.75c-0.41421,0 -0.75,-0.33579 -0.75,-0.75c0,-0.41421 0.33579,-0.75 0.75,-0.75z" data-paper-data="{&quot;index&quot;:null}" fill="#222222" stroke-width="0.5"/><path d="M198.58334,238.58334c0.69036,0 1.25,0.55964 1.25,1.25c0,0.69036 -0.55964,1.25 -1.25,1.25c-0.69036,0 -1.25,-0.55964 -1.25,-1.25c0,-0.69036 0.55964,-1.25 1.25,-1.25z" data-paper-data="{&quot;index&quot;:null}" fill="#222222" stroke-width="0.5"/><path d="M215.33334,197.58334c0.69036,0 1.25,0.55964 1.25,1.25c0,0.69036 -0.55964,1.25 -1.25,1.25c-0.69036,0 -1.25,-0.55964 -1.25,-1.25c0,-0.69036 0.55964,-1.25 1.25,-1.25z" data-paper-data="{&quot;index&quot;:null}" fill="#222222" stroke-width="0.5"/><path d="M114.08334,180.33334c0.69036,0 1.25,0.55964 1.25,1.25c0,0.69036 -0.55964,1.25 -1.25,1.25c-0.69036,0 -1.25,-0.55964 -1.25,-1.25c0,-0.69036 0.55964,-1.25 1.25,-1.25z" data-paper-data="{&quot;index&quot;:null}" fill="#222222" stroke-width="0.5"/><path d="M216.33334,135.33334c0.69036,0 1.25,0.55964 1.25,1.25c0,0.69036 -0.55964,1.25 -1.25,1.25c-0.69036,0 -1.25,-0.55964 -1.25,-1.25c0,-0.69036 0.55964,-1.25 1.25,-1.25z" data-paper-data="{&quot;index&quot;:null}" fill="#222222" stroke-width="0.5"/><path d="M273.08334,184.08334c0.69036,0 1.25,0.55964 1.25,1.25c0,0.69036 -0.55964,1.25 -1.25,1.25c-0.69036,0 -1.25,-0.55964 -1.25,-1.25c0,-0.69036 0.55964,-1.25 1.25,-1.25z" data-paper-data="{&quot;index&quot;:null}" fill="#222222" stroke-width="0.5"/><path d="M310.33334,219.58334c0.69036,0 1.25,0.55964 1.25,1.25c0,0.69036 -0.55964,1.25 -1.25,1.25c-0.69036,0 -1.25,-0.55964 -1.25,-1.25c0,-0.69036 0.55964,-1.25 1.25,-1.25z" data-paper-data="{&quot;index&quot;:null}" fill="#222222" stroke-width="0.5"/><path d="M335.58334,111.08334c0.69036,0 1.25,0.55964 1.25,1.25c0,0.69036 -0.55964,1.25 -1.25,1.25c-0.69036,0 -1.25,-0.55964 -1.25,-1.25c0,-0.69036 0.55964,-1.25 1.25,-1.25z" data-paper-data="{&quot;index&quot;:null}" fill="#222222" stroke-width="0.5"/><path d="M224.33334,80.33334c0.69036,0 1.25,0.55964 1.25,1.25c0,0.69036 -0.55964,1.25 -1.25,1.25c-0.69036,0 -1.25,-0.55964 -1.25,-1.25c0,-0.69036 0.55964,-1.25 1.25,-1.25z" data-paper-data="{&quot;index&quot;:null}" fill="#222222" stroke-width="0.5"/><path d="M127.83334,48.35834c0.69036,0 1.25,0.55964 1.25,1.25c0,0.69036 -0.55964,1.25 -1.25,1.25c-0.69036,0 -1.25,-0.55964 -1.25,-1.25c0,-0.69036 0.55964,-1.25 1.25,-1.25z" data-paper-data="{&quot;index&quot;:null}" fill="#222222" stroke-width="0.5"/><path d="M321.33334,76.10834c0.27614,0 0.5,0.22386 0.5,0.5c0,0.27614 -0.22386,0.5 -0.5,0.5c-0.27614,0 -0.5,-0.22386 -0.5,-0.5c0,-0.27614 0.22386,-0.5 0.5,-0.5z" data-paper-data="{&quot;index&quot;:null}" fill="#222222" stroke-width="0.5"/><path d="M414.45834,47.33334v-1c0,0 0,-0.5 0.5,-0.5c0.5,0 0.5,0.5 0.5,0.5v1c0,0 0,0.5 -0.5,0.5c-0.5,0 -0.5,-0.5 -0.5,-0.5z" data-paper-data="{&quot;index&quot;:null}" fill="#222222" stroke-width="0.5"/><path d="M380.95834,65.83334c0.27614,0 0.5,0.22386 0.5,0.5c0,0.27614 -0.22386,0.5 -0.5,0.5c-0.27614,0 -0.5,-0.22386 -0.5,-0.5c0,-0.27614 0.22386,-0.5 0.5,-0.5z" data-paper-data="{&quot;index&quot;:null}" fill="#222222" stroke-width="0.5"/><path d="M333.95834,30.83334c0.27614,0 0.5,0.22386 0.5,0.5c0,0.27614 -0.22386,0.5 -0.5,0.5c-0.27614,0 -0.5,-0.22386 -0.5,-0.5c0,-0.27614 0.22386,-0.5 0.5,-0.5z" data-paper-data="{&quot;index&quot;:null}" fill="#222222" stroke-width="0.5"/><path d="M327.95834,76.83334c0.27614,0 0.5,0.22386 0.5,0.5c0,0.27614 -0.22386,0.5 -0.5,0.5c-0.27614,0 -0.5,-0.22386 -0.5,-0.5c0,-0.27614 0.22386,-0.5 0.5,-0.5z" data-paper-data="{&quot;index&quot;:null}" fill="#222222" stroke-width="0.5"/><path d="M392.95834,103.83334c0.27614,0 0.5,0.22386 0.5,0.5c0,0.27614 -0.22386,0.5 -0.5,0.5c-0.27614,0 -0.5,-0.22386 -0.5,-0.5c0,-0.27614 0.22386,-0.5 0.5,-0.5z" data-paper-data="{&quot;index&quot;:null}" fill="#222222" stroke-width="0.5"/><path d="M377.95834,123.83334c0.27614,0 0.5,0.22386 0.5,0.5c0,0.27614 -0.22386,0.5 -0.5,0.5c-0.27614,0 -0.5,-0.22386 -0.5,-0.5c0,-0.27614 0.22386,-0.5 0.5,-0.5z" data-paper-data="{&quot;index&quot;:null}" fill="#222222" stroke-width="0.5"/><path d="M302.95834,157.83334c0.27614,0 0.5,0.22386 0.5,0.5c0,0.27614 -0.22386,0.5 -0.5,0.5c-0.27614,0 -0.5,-0.22386 -0.5,-0.5c0,-0.27614 0.22386,-0.5 0.5,-0.5z" data-paper-data="{&quot;index&quot;:null}" fill="#222222" stroke-width="0.5"/><path d="M322.95834,193.83334c0.27614,0 0.5,0.22386 0.5,0.5c0,0.27614 -0.22386,0.5 -0.5,0.5c-0.27614,0 -0.5,-0.22386 -0.5,-0.5c0,-0.27614 0.22386,-0.5 0.5,-0.5z" data-paper-data="{&quot;index&quot;:null}" fill="#222222" stroke-width="0.5"/><path d="M333.95834,201.83334c0.27614,0 0.5,0.22386 0.5,0.5c0,0.27614 -0.22386,0.5 -0.5,0.5c-0.27614,0 -0.5,-0.22386 -0.5,-0.5c0,-0.27614 0.22386,-0.5 0.5,-0.5z" data-paper-data="{&quot;index&quot;:null}" fill="#222222" stroke-width="0.5"/><path d="M302.95834,313.83334c0.27614,0 0.5,0.22386 0.5,0.5c0,0.27614 -0.22386,0.5 -0.5,0.5c-0.27614,0 -0.5,-0.22386 -0.5,-0.5c0,-0.27614 0.22386,-0.5 0.5,-0.5z" data-paper-data="{&quot;index&quot;:null}" fill="#222222" stroke-width="0.5"/><path d="M194.95834,291.83334c0.27614,0 0.5,0.22386 0.5,0.5c0,0.27614 -0.22386,0.5 -0.5,0.5c-0.27614,0 -0.5,-0.22386 -0.5,-0.5c0,-0.27614 0.22386,-0.5 0.5,-0.5z" data-paper-data="{&quot;index&quot;:null}" fill="#222222" stroke-width="0.5"/><path d="M218.95834,266.83334c0.27614,0 0.5,0.22386 0.5,0.5c0,0.27614 -0.22386,0.5 -0.5,0.5c-0.27614,0 -0.5,-0.22386 -0.5,-0.5c0,-0.27614 0.22386,-0.5 0.5,-0.5z" data-paper-data="{&quot;index&quot;:null}" fill="#222222" stroke-width="0.5"/><path d="M235.95834,266.83334c0.27614,0 0.5,0.22386 0.5,0.5c0,0.27614 -0.22386,0.5 -0.5,0.5c-0.27614,0 -0.5,-0.22386 -0.5,-0.5c0,-0.27614 0.22386,-0.5 0.5,-0.5z" data-paper-data="{&quot;index&quot;:null}" fill="#222222" stroke-width="0.5"/><path d="M102.95834,172.33334c0.55228,0 1,0.44772 1,1c0,0.55228 -0.44772,1 -1,1c-0.55228,0 -1,-0.44772 -1,-1c0,-0.55228 0.44772,-1 1,-1z" data-paper-data="{&quot;index&quot;:null}" fill="#222222" stroke-width="0.5"/><path d="M86.95834,240.33334c0.55228,0 1,0.44772 1,1c0,0.55228 -0.44772,1 -1,1c-0.55228,0 -1,-0.44772 -1,-1c0,-0.55228 0.44772,-1 1,-1z" data-paper-data="{&quot;index&quot;:null}" fill="#222222" stroke-width="0.5"/><path d="M156.95834,249.33334c0.55228,0 1,0.44772 1,1c0,0.55228 -0.44772,1 -1,1c-0.55228,0 -1,-0.44772 -1,-1c0,-0.55228 0.44772,-1 1,-1z" data-paper-data="{&quot;index&quot;:null}" fill="#222222" stroke-width="0.5"/><path d="M151.95834,208.33334c0.55228,0 1,0.44772 1,1c0,0.55228 -0.44772,1 -1,1c-0.55228,0 -1,-0.44772 -1,-1c0,-0.55228 0.44772,-1 1,-1z" data-paper-data="{&quot;index&quot;:null}" fill="#222222" stroke-width="0.5"/><path d="M169.95834,152.33334c0.55228,0 1,0.44772 1,1c0,0.55228 -0.44772,1 -1,1c-0.55228,0 -1,-0.44772 -1,-1c0,-0.55228 0.44772,-1 1,-1z" data-paper-data="{&quot;index&quot;:null}" fill="#222222" stroke-width="0.5"/><path d="M187.95834,260.33334c0.55228,0 1,0.44772 1,1c0,0.55228 -0.44772,1 -1,1c-0.55228,0 -1,-0.44772 -1,-1c0,-0.55228 0.44772,-1 1,-1z" data-paper-data="{&quot;index&quot;:null}" fill="#222222" stroke-width="0.5"/><path d="M202.95834,266.33334c0.55228,0 1,0.44772 1,1c0,0.55228 -0.44772,1 -1,1c-0.55228,0 -1,-0.44772 -1,-1c0,-0.55228 0.44772,-1 1,-1z" data-paper-data="{&quot;index&quot;:null}" fill="#222222" stroke-width="0.5"/><path d="M264.95834,273.33334c0.55228,0 1,0.44772 1,1c0,0.55228 -0.44772,1 -1,1c-0.55228,0 -1,-0.44772 -1,-1c0,-0.55228 0.44772,-1 1,-1z" data-paper-data="{&quot;index&quot;:null}" fill="#222222" stroke-width="0.5"/><path d="M275.95834,316.33334c0.55228,0 1,0.44772 1,1c0,0.55228 -0.44772,1 -1,1c-0.55228,0 -1,-0.44772 -1,-1c0,-0.55228 0.44772,-1 1,-1z" data-paper-data="{&quot;index&quot;:null}" fill="#222222" stroke-width="0.5"/><path d="M173.95834,224.33334c0.55228,0 1,0.44772 1,1c0,0.55228 -0.44772,1 -1,1c-0.55228,0 -1,-0.44772 -1,-1c0,-0.55228 0.44772,-1 1,-1z" data-paper-data="{&quot;index&quot;:null}" fill="#4e4e4e" stroke-width="0.5"/><path d="M92.95834,208.33334c0.55228,0 1,0.44772 1,1c0,0.55228 -0.44772,1 -1,1c-0.55228,0 -1,-0.44772 -1,-1c0,-0.55228 0.44772,-1 1,-1z" data-paper-data="{&quot;index&quot;:null}" fill="#4e4e4e" stroke-width="0.5"/><path d="M170.95834,155.33334c0.55228,0 1,0.44772 1,1c0,0.55228 -0.44772,1 -1,1c-0.55228,0 -1,-0.44772 -1,-1c0,-0.55228 0.44772,-1 1,-1z" data-paper-data="{&quot;index&quot;:null}" fill="#4e4e4e" stroke-width="0.5"/><path d="M215.95834,131.33334c0.55228,0 1,0.44772 1,1c0,0.55228 -0.44772,1 -1,1c-0.55228,0 -1,-0.44772 -1,-1c0,-0.55228 0.44772,-1 1,-1z" data-paper-data="{&quot;index&quot;:null}" fill="#4e4e4e" stroke-width="0.5"/><path d="M205.95834,92.33334c0.55228,0 1,0.44772 1,1c0,0.55228 -0.44772,1 -1,1c-0.55228,0 -1,-0.44772 -1,-1c0,-0.55228 0.44772,-1 1,-1z" data-paper-data="{&quot;index&quot;:null}" fill="#4e4e4e" stroke-width="0.5"/><path d="M207.95834,54.33334c0.55228,0 1,0.44772 1,1c0,0.55228 -0.44772,1 -1,1c-0.55228,0 -1,-0.44772 -1,-1c0,-0.55228 0.44772,-1 1,-1z" data-paper-data="{&quot;index&quot;:null}" fill="#4e4e4e" stroke-width="0.5"/><path d="M197.95834,17.33334c0.55228,0 1,0.44772 1,1c0,0.55228 -0.44772,1 -1,1c-0.55228,0 -1,-0.44772 -1,-1c0,-0.55228 0.44772,-1 1,-1z" data-paper-data="{&quot;index&quot;:null}" fill="#4e4e4e" stroke-width="0.5"/><path d="M170.95834,91.33334c0.55228,0 1,0.44772 1,1c0,0.55228 -0.44772,1 -1,1c-0.55228,0 -1,-0.44772 -1,-1c0,-0.55228 0.44772,-1 1,-1z" data-paper-data="{&quot;index&quot;:null}" fill="#4e4e4e" stroke-width="0.5"/><path d="M246.95834,104.33334c0.55228,0 1,0.44772 1,1c0,0.55228 -0.44772,1 -1,1c-0.55228,0 -1,-0.44772 -1,-1c0,-0.55228 0.44772,-1 1,-1z" data-paper-data="{&quot;index&quot;:null}" fill="#4e4e4e" stroke-width="0.5"/><path d="M332.95834,99.33334c0.55228,0 1,0.44772 1,1c0,0.55228 -0.44772,1 -1,1c-0.55228,0 -1,-0.44772 -1,-1c0,-0.55228 0.44772,-1 1,-1z" data-paper-data="{&quot;index&quot;:null}" fill="#4e4e4e" stroke-width="0.5"/><path d="M346.95834,41.33334c0.55228,0 1,0.44772 1,1c0,0.55228 -0.44772,1 -1,1c-0.55228,0 -1,-0.44772 -1,-1c0,-0.55228 0.44772,-1 1,-1z" data-paper-data="{&quot;index&quot;:null}" fill="#4e4e4e" stroke-width="0.5"/><path d="M361.95834,68.33334c0.55228,0 1,0.44772 1,1c0,0.55228 -0.44772,1 -1,1c-0.55228,0 -1,-0.44772 -1,-1c0,-0.55228 0.44772,-1 1,-1z" data-paper-data="{&quot;index&quot;:null}" fill="#4e4e4e" stroke-width="0.5"/><path d="M359.95834,87.33334c0.55228,0 1,0.44772 1,1c0,0.55228 -0.44772,1 -1,1c-0.55228,0 -1,-0.44772 -1,-1c0,-0.55228 0.44772,-1 1,-1z" data-paper-data="{&quot;index&quot;:null}" fill="#4e4e4e" stroke-width="0.5"/><path d="M305.95834,109.33334c0.55228,0 1,0.44772 1,1c0,0.55228 -0.44772,1 -1,1c-0.55228,0 -1,-0.44772 -1,-1c0,-0.55228 0.44772,-1 1,-1z" data-paper-data="{&quot;index&quot;:null}" fill="#4e4e4e" stroke-width="0.5"/><path d="M311.95834,135.33334c0.55228,0 1,0.44772 1,1c0,0.55228 -0.44772,1 -1,1c-0.55228,0 -1,-0.44772 -1,-1c0,-0.55228 0.44772,-1 1,-1z" data-paper-data="{&quot;index&quot;:null}" fill="#4e4e4e" stroke-width="0.5"/><path d="M338.95834,158.33334c0.55228,0 1,0.44772 1,1c0,0.55228 -0.44772,1 -1,1c-0.55228,0 -1,-0.44772 -1,-1c0,-0.55228 0.44772,-1 1,-1z" data-paper-data="{&quot;index&quot;:null}" fill="#4e4e4e" stroke-width="0.5"/><path d="M331.95834,208.33334c0.55228,0 1,0.44772 1,1c0,0.55228 -0.44772,1 -1,1c-0.55228,0 -1,-0.44772 -1,-1c0,-0.55228 0.44772,-1 1,-1z" data-paper-data="{&quot;index&quot;:null}" fill="#4e4e4e" stroke-width="0.5"/><path d="M369.95834,216.33334c0.55228,0 1,0.44772 1,1c0,0.55228 -0.44772,1 -1,1c-0.55228,0 -1,-0.44772 -1,-1c0,-0.55228 0.44772,-1 1,-1z" data-paper-data="{&quot;index&quot;:null}" fill="#4e4e4e" stroke-width="0.5"/><path d="M318.95834,287.33334c0.55228,0 1,0.44772 1,1c0,0.55228 -0.44772,1 -1,1c-0.55228,0 -1,-0.44772 -1,-1c0,-0.55228 0.44772,-1 1,-1z" data-paper-data="{&quot;index&quot;:null}" fill="#4e4e4e" stroke-width="0.5"/><path d="M205.95834,288.33334c0.55228,0 1,0.44772 1,1c0,0.55228 -0.44772,1 -1,1c-0.55228,0 -1,-0.44772 -1,-1c0,-0.55228 0.44772,-1 1,-1z" data-paper-data="{&quot;index&quot;:null}" fill="#4e4e4e" stroke-width="0.5"/><path d="M247.95834,227.33334c0.55228,0 1,0.44772 1,1c0,0.55228 -0.44772,1 -1,1c-0.55228,0 -1,-0.44772 -1,-1c0,-0.55228 0.44772,-1 1,-1z" data-paper-data="{&quot;index&quot;:null}" fill="#4e4e4e" stroke-width="0.5"/><path d="M83.95834,275.33334c0.55228,0 1,0.44772 1,1c0,0.55228 -0.44772,1 -1,1c-0.55228,0 -1,-0.44772 -1,-1c0,-0.55228 0.44772,-1 1,-1z" data-paper-data="{&quot;index&quot;:null}" fill="#4e4e4e" stroke-width="0.5"/><path d="M218.95834,348.33334c0.55228,0 1,0.44772 1,1c0,0.55228 -0.44772,1 -1,1c-0.55228,0 -1,-0.44772 -1,-1c0,-0.55228 0.44772,-1 1,-1z" data-paper-data="{&quot;index&quot;:null}" fill="#4e4e4e" stroke-width="0.5"/><path d="M275.95834,344.33334c0.55228,0 1,0.44772 1,1c0,0.55228 -0.44772,1 -1,1c-0.55228,0 -1,-0.44772 -1,-1c0,-0.55228 0.44772,-1 1,-1z" data-paper-data="{&quot;index&quot;:null}" fill="#4e4e4e" stroke-width="0.5"/><path d="M319.95834,354.33334c0.55228,0 1,0.44772 1,1c0,0.55228 -0.44772,1 -1,1c-0.55228,0 -1,-0.44772 -1,-1c0,-0.55228 0.44772,-1 1,-1z" data-paper-data="{&quot;index&quot;:null}" fill="#4e4e4e" stroke-width="0.5"/><path d="M257.95834,367.33334c0.55228,0 1,0.44772 1,1c0,0.55228 -0.44772,1 -1,1c-0.55228,0 -1,-0.44772 -1,-1c0,-0.55228 0.44772,-1 1,-1z" data-paper-data="{&quot;index&quot;:null}" fill="#4e4e4e" stroke-width="0.5"/><path d="M252.95834,353.33334c0.55228,0 1,0.44772 1,1c0,0.55228 -0.44772,1 -1,1c-0.55228,0 -1,-0.44772 -1,-1c0,-0.55228 0.44772,-1 1,-1z" data-paper-data="{&quot;index&quot;:null}" fill="#4e4e4e" stroke-width="0.5"/><path d="M176.95834,351.33334c0.55228,0 1,0.44772 1,1c0,0.55228 -0.44772,1 -1,1c-0.55228,0 -1,-0.44772 -1,-1c0,-0.55228 0.44772,-1 1,-1z" data-paper-data="{&quot;index&quot;:null}" fill="#4e4e4e" stroke-width="0.5"/><path d="M170.95834,358.33334c0.55228,0 1,0.44772 1,1c0,0.55228 -0.44772,1 -1,1c-0.55228,0 -1,-0.44772 -1,-1c0,-0.55228 0.44772,-1 1,-1z" data-paper-data="{&quot;index&quot;:null}" fill="#4e4e4e" stroke-width="0.5"/><path d="M143.95834,350.33334c0.55228,0 1,0.44772 1,1c0,0.55228 -0.44772,1 -1,1c-0.55228,0 -1,-0.44772 -1,-1c0,-0.55228 0.44772,-1 1,-1z" data-paper-data="{&quot;index&quot;:null}" fill="#4e4e4e" stroke-width="0.5"/><path d="M135.95834,361.33334c0.55228,0 1,0.44772 1,1c0,0.55228 -0.44772,1 -1,1c-0.55228,0 -1,-0.44772 -1,-1c0,-0.55228 0.44772,-1 1,-1z" data-paper-data="{&quot;index&quot;:null}" fill="#4e4e4e" stroke-width="0.5"/><path d="M233.95834,-9.66666c0.55228,0 1,0.44772 1,1c0,0.55228 -0.44772,1 -1,1c-0.55228,0 -1,-0.44772 -1,-1c0,-0.55228 0.44772,-1 1,-1z" data-paper-data="{&quot;index&quot;:null}" fill="#4e4e4e" stroke-width="0.5"/><path d="M309.95834,-7.66666c0.55228,0 1,0.44772 1,1c0,0.55228 -0.44772,1 -1,1c-0.55228,0 -1,-0.44772 -1,-1c0,-0.55228 0.44772,-1 1,-1z" data-paper-data="{&quot;index&quot;:null}" fill="#4e4e4e" stroke-width="0.5"/><path d="M333.95834,37.33334c0.55228,0 1,0.44772 1,1c0,0.55228 -0.44772,1 -1,1c-0.55228,0 -1,-0.44772 -1,-1c0,-0.55228 0.44772,-1 1,-1z" data-paper-data="{&quot;index&quot;:null}" fill="#4e4e4e" stroke-width="0.5"/><path d="M367.95834,-10.66666c0.55228,0 1,0.44772 1,1c0,0.55228 -0.44772,1 -1,1c-0.55228,0 -1,-0.44772 -1,-1c0,-0.55228 0.44772,-1 1,-1z" data-paper-data="{&quot;index&quot;:null}" fill="#4e4e4e" stroke-width="0.5"/><path d="M383.95834,6.33334c0.55228,0 1,0.44772 1,1c0,0.55228 -0.44772,1 -1,1c-0.55228,0 -1,-0.44772 -1,-1c0,-0.55228 0.44772,-1 1,-1z" data-paper-data="{&quot;index&quot;:null}" fill="#4e4e4e" stroke-width="0.5"/><path d="M75.95834,145.66667c1.38071,0 2.5,1.11929 2.5,2.5c0,1.38071 -1.11929,2.5 -2.5,2.5c-1.38071,0 -2.5,-1.11929 -2.5,-2.5c0,-1.38071 1.11929,-2.5 2.5,-2.5z" data-paper-data="{&quot;index&quot;:null}" fill="#222222" stroke-width="0.5"/><path d="M125.95834,144.50001c0.55228,0 1,0.44772 1,1c0,0.55228 -0.44772,1 -1,1c-0.55228,0 -1,-0.44772 -1,-1c0,-0.55228 0.44772,-1 1,-1z" data-paper-data="{&quot;index&quot;:null}" fill="#222222" stroke-width="0.5"/><path d="M216.29167,153.25001c0.13807,0 0.25,0.11193 0.25,0.25c0,0.13807 -0.11193,0.25 -0.25,0.25c-0.13807,0 -0.25,-0.11193 -0.25,-0.25c0,-0.13807 0.11193,-0.25 0.25,-0.25z" data-paper-data="{&quot;index&quot;:null}" fill="#222222" stroke-width="0.5"/><path d="M213.95834,217.58334c0.13807,0 0.25,0.11193 0.25,0.25c0,0.13807 -0.11193,0.25 -0.25,0.25c-0.13807,0 -0.25,-0.11193 -0.25,-0.25c0,-0.13807 0.11193,-0.25 0.25,-0.25z" data-paper-data="{&quot;index&quot;:null}" fill="#222222" stroke-width="0.5"/><path d="M242.95834,285.58334c0.13807,0 0.25,0.11193 0.25,0.25c0,0.13807 -0.11193,0.25 -0.25,0.25c-0.13807,0 -0.25,-0.11193 -0.25,-0.25c0,-0.13807 0.11193,-0.25 0.25,-0.25z" data-paper-data="{&quot;index&quot;:null}" fill="#222222" stroke-width="0.5"/><path d="M212.95834,306.25001c0.13807,0 0.25,0.11193 0.25,0.25c0,0.13807 -0.11193,0.25 -0.25,0.25c-0.13807,0 -0.25,-0.11193 -0.25,-0.25c0,-0.13807 0.11193,-0.25 0.25,-0.25z" data-paper-data="{&quot;index&quot;:null}" fill="#222222" stroke-width="0.5"/><path d="M230.62501,46.25001c0.13807,0 0.25,0.11193 0.25,0.25c0,0.13807 -0.11193,0.25 -0.25,0.25c-0.13807,0 -0.25,-0.11193 -0.25,-0.25c0,-0.13807 0.11193,-0.25 0.25,-0.25z" data-paper-data="{&quot;index&quot;:null}" fill="#222222" stroke-width="0.5"/><path d="M89.95834,19.91667c0.13807,0 0.25,0.11193 0.25,0.25c0,0.13807 -0.11193,0.25 -0.25,0.25c-0.13807,0 -0.25,-0.11193 -0.25,-0.25c0,-0.13807 0.11193,-0.25 0.25,-0.25z" data-paper-data="{&quot;index&quot;:null}" fill="#222222" stroke-width="0.5"/><path d="M107.95834,24.58334c0.13807,0 0.25,0.11193 0.25,0.25c0,0.13807 -0.11193,0.25 -0.25,0.25c-0.13807,0 -0.25,-0.11193 -0.25,-0.25c0,-0.13807 0.11193,-0.25 0.25,-0.25z" data-paper-data="{&quot;index&quot;:null}" fill="#222222" stroke-width="0.5"/><path d="M100.29167,44.91667c0.13807,0 0.25,0.11193 0.25,0.25c0,0.13807 -0.11193,0.25 -0.25,0.25c-0.13807,0 -0.25,-0.11193 -0.25,-0.25c0,-0.13807 0.11193,-0.25 0.25,-0.25z" data-paper-data="{&quot;index&quot;:null}" fill="#222222" stroke-width="0.5"/><path d="M76.95834,60.91667c0.13807,0 0.25,0.11193 0.25,0.25c0,0.13807 -0.11193,0.25 -0.25,0.25c-0.13807,0 -0.25,-0.11193 -0.25,-0.25c0,-0.13807 0.11193,-0.25 0.25,-0.25z" data-paper-data="{&quot;index&quot;:null}" fill="#222222" stroke-width="0.5"/><path d="M92.62501,66.58334c0.13807,0 0.25,0.11193 0.25,0.25c0,0.13807 -0.11193,0.25 -0.25,0.25c-0.13807,0 -0.25,-0.11193 -0.25,-0.25c0,-0.13807 0.11193,-0.25 0.25,-0.25z" data-paper-data="{&quot;index&quot;:null}" fill="#222222" stroke-width="0.5"/><path d="M294.95834,86.25001c0.13807,0 0.25,0.11193 0.25,0.25c0,0.13807 -0.11193,0.25 -0.25,0.25c-0.13807,0 -0.25,-0.11193 -0.25,-0.25c0,-0.13807 0.11193,-0.25 0.25,-0.25z" data-paper-data="{&quot;index&quot;:null}" fill="#222222" stroke-width="0.5"/><path d="M320.95834,55.91667c0.13807,0 0.25,0.11193 0.25,0.25c0,0.13807 -0.11193,0.25 -0.25,0.25c-0.13807,0 -0.25,-0.11193 -0.25,-0.25c0,-0.13807 0.11193,-0.25 0.25,-0.25z" data-paper-data="{&quot;index&quot;:null}" fill="#222222" stroke-width="0.5"/><path d="M320.95834,34.58334c0.13807,0 0.25,0.11193 0.25,0.25c0,0.13807 -0.11193,0.25 -0.25,0.25c-0.13807,0 -0.25,-0.11193 -0.25,-0.25c0,-0.13807 0.11193,-0.25 0.25,-0.25z" data-paper-data="{&quot;index&quot;:null}" fill="#222222" stroke-width="0.5"/><path d="M350.62501,9.58334c0.13807,0 0.25,0.11193 0.25,0.25c0,0.13807 -0.11193,0.25 -0.25,0.25c-0.13807,0 -0.25,-0.11193 -0.25,-0.25c0,-0.13807 0.11193,-0.25 0.25,-0.25z" data-paper-data="{&quot;index&quot;:null}" fill="#222222" stroke-width="0.5"/><path d="M379.95834,32.58334c0.13807,0 0.25,0.11193 0.25,0.25c0,0.13807 -0.11193,0.25 -0.25,0.25c-0.13807,0 -0.25,-0.11193 -0.25,-0.25c0,-0.13807 0.11193,-0.25 0.25,-0.25z" data-paper-data="{&quot;index&quot;:null}" fill="#222222" stroke-width="0.5"/><path d="M393.95834,85.25001c0.13807,0 0.25,0.11193 0.25,0.25c0,0.13807 -0.11193,0.25 -0.25,0.25c-0.13807,0 -0.25,-0.11193 -0.25,-0.25c0,-0.13807 0.11193,-0.25 0.25,-0.25z" data-paper-data="{&quot;index&quot;:null}" fill="#222222" stroke-width="0.5"/><path d="M357.62501,123.25001c0.13807,0 0.25,0.11193 0.25,0.25c0,0.13807 -0.11193,0.25 -0.25,0.25c-0.13807,0 -0.25,-0.11193 -0.25,-0.25c0,-0.13807 0.11193,-0.25 0.25,-0.25z" data-paper-data="{&quot;index&quot;:null}" fill="#222222" stroke-width="0.5"/><path d="M382.95834,144.91667c0.13807,0 0.25,0.11193 0.25,0.25c0,0.13807 -0.11193,0.25 -0.25,0.25c-0.13807,0 -0.25,-0.11193 -0.25,-0.25c0,-0.13807 0.11193,-0.25 0.25,-0.25z" data-paper-data="{&quot;index&quot;:null}" fill="#222222" stroke-width="0.5"/><path d="M306.95834,175.25001c0.13807,0 0.25,0.11193 0.25,0.25c0,0.13807 -0.11193,0.25 -0.25,0.25c-0.13807,0 -0.25,-0.11193 -0.25,-0.25c0,-0.13807 0.11193,-0.25 0.25,-0.25z" data-paper-data="{&quot;index&quot;:null}" fill="#222222" stroke-width="0.5"/><path d="M217.95834,168.91667c0.13807,0 0.25,0.11193 0.25,0.25c0,0.13807 -0.11193,0.25 -0.25,0.25c-0.13807,0 -0.25,-0.11193 -0.25,-0.25c0,-0.13807 0.11193,-0.25 0.25,-0.25z" data-paper-data="{&quot;index&quot;:null}" fill="#222222" stroke-width="0.5"/><path d="M153.95834,175.25001c0.13807,0 0.25,0.11193 0.25,0.25c0,0.13807 -0.11193,0.25 -0.25,0.25c-0.13807,0 -0.25,-0.11193 -0.25,-0.25c0,-0.13807 0.11193,-0.25 0.25,-0.25z" data-paper-data="{&quot;index&quot;:null}" fill="#222222" stroke-width="0.5"/><path d="M204.29167,209.58334c0.13807,0 0.25,0.11193 0.25,0.25c0,0.13807 -0.11193,0.25 -0.25,0.25c-0.13807,0 -0.25,-0.11193 -0.25,-0.25c0,-0.13807 0.11193,-0.25 0.25,-0.25z" data-paper-data="{&quot;index&quot;:null}" fill="#222222" stroke-width="0.5"/><path d="M243.29167,241.58334c0.13807,0 0.25,0.11193 0.25,0.25c0,0.13807 -0.11193,0.25 -0.25,0.25c-0.13807,0 -0.25,-0.11193 -0.25,-0.25c0,-0.13807 0.11193,-0.25 0.25,-0.25z" data-paper-data="{&quot;index&quot;:null}" fill="#222222" stroke-width="0.5"/><path d="M316.29167,269.91667c0.13807,0 0.25,0.11193 0.25,0.25c0,0.13807 -0.11193,0.25 -0.25,0.25c-0.13807,0 -0.25,-0.11193 -0.25,-0.25c0,-0.13807 0.11193,-0.25 0.25,-0.25z" data-paper-data="{&quot;index&quot;:null}" fill="#222222" stroke-width="0.5"/><path d="M213.62501,313.58334c0.13807,0 0.25,0.11193 0.25,0.25c0,0.13807 -0.11193,0.25 -0.25,0.25c-0.13807,0 -0.25,-0.11193 -0.25,-0.25c0,-0.13807 0.11193,-0.25 0.25,-0.25z" data-paper-data="{&quot;index&quot;:null}" fill="#222222" stroke-width="0.5"/><path d="M234.29167,334.25001c0.13807,0 0.25,0.11193 0.25,0.25c0,0.13807 -0.11193,0.25 -0.25,0.25c-0.13807,0 -0.25,-0.11193 -0.25,-0.25c0,-0.13807 0.11193,-0.25 0.25,-0.25z" data-paper-data="{&quot;index&quot;:null}" fill="#222222" stroke-width="0.5"/><path d="M114.62501,364.91667c0.13807,0 0.25,0.11193 0.25,0.25c0,0.13807 -0.11193,0.25 -0.25,0.25c-0.13807,0 -0.25,-0.11193 -0.25,-0.25c0,-0.13807 0.11193,-0.25 0.25,-0.25z" data-paper-data="{&quot;index&quot;:null}" fill="#222222" stroke-width="0.5"/><path d="M85.29167,355.91667c0.13807,0 0.25,0.11193 0.25,0.25c0,0.13807 -0.11193,0.25 -0.25,0.25c-0.13807,0 -0.25,-0.11193 -0.25,-0.25c0,-0.13807 0.11193,-0.25 0.25,-0.25z" data-paper-data="{&quot;index&quot;:null}" fill="#222222" stroke-width="0.5"/><path d="M75.29167,336.91667c0.13807,0 0.25,0.11193 0.25,0.25c0,0.13807 -0.11193,0.25 -0.25,0.25c-0.13807,0 -0.25,-0.11193 -0.25,-0.25c0,-0.13807 0.11193,-0.25 0.25,-0.25z" data-paper-data="{&quot;index&quot;:null}" fill="#222222" stroke-width="0.5"/><path d="M82.95834,316.91667c0.13807,0 0.25,0.11193 0.25,0.25c0,0.13807 -0.11193,0.25 -0.25,0.25c-0.13807,0 -0.25,-0.11193 -0.25,-0.25c0,-0.13807 0.11193,-0.25 0.25,-0.25z" data-paper-data="{&quot;index&quot;:null}" fill="#222222" stroke-width="0.5"/><path d="M71.95834,301.91667c0.13807,0 0.25,0.11193 0.25,0.25c0,0.13807 -0.11193,0.25 -0.25,0.25c-0.13807,0 -0.25,-0.11193 -0.25,-0.25c0,-0.13807 0.11193,-0.25 0.25,-0.25z" data-paper-data="{&quot;index&quot;:null}" fill="#222222" stroke-width="0.5"/><path d="M66.29167,261.25001c0.13807,0 0.25,0.11193 0.25,0.25c0,0.13807 -0.11193,0.25 -0.25,0.25c-0.13807,0 -0.25,-0.11193 -0.25,-0.25c0,-0.13807 0.11193,-0.25 0.25,-0.25z" data-paper-data="{&quot;index&quot;:null}" fill="#222222" stroke-width="0.5"/><path d="M80.62501,236.58334c0.13807,0 0.25,0.11193 0.25,0.25c0,0.13807 -0.11193,0.25 -0.25,0.25c-0.13807,0 -0.25,-0.11193 -0.25,-0.25c0,-0.13807 0.11193,-0.25 0.25,-0.25z" data-paper-data="{&quot;index&quot;:null}" fill="#222222" stroke-width="0.5"/><path d="M72.95834,212.25001c0.13807,0 0.25,0.11193 0.25,0.25c0,0.13807 -0.11193,0.25 -0.25,0.25c-0.13807,0 -0.25,-0.11193 -0.25,-0.25c0,-0.13807 0.11193,-0.25 0.25,-0.25z" data-paper-data="{&quot;index&quot;:null}" fill="#222222" stroke-width="0.5"/><path d="M84.62501,183.91667c0.13807,0 0.25,0.11193 0.25,0.25c0,0.13807 -0.11193,0.25 -0.25,0.25c-0.13807,0 -0.25,-0.11193 -0.25,-0.25c0,-0.13807 0.11193,-0.25 0.25,-0.25z" data-paper-data="{&quot;index&quot;:null}" fill="#222222" stroke-width="0.5"/><path d="M129.62501,235.91667c0.13807,0 0.25,0.11193 0.25,0.25c0,0.13807 -0.11193,0.25 -0.25,0.25c-0.13807,0 -0.25,-0.11193 -0.25,-0.25c0,-0.13807 0.11193,-0.25 0.25,-0.25z" data-paper-data="{&quot;index&quot;:null}" fill="#222222" stroke-width="0.5"/><path d="M365.29167,334.25001c0.13807,0 0.25,0.11193 0.25,0.25c0,0.13807 -0.11193,0.25 -0.25,0.25c-0.13807,0 -0.25,-0.11193 -0.25,-0.25c0,-0.13807 0.11193,-0.25 0.25,-0.25z" data-paper-data="{&quot;index&quot;:null}" fill="#222222" stroke-width="0.5"/><path d="M365.95834,347.25001c0.13807,0 0.25,0.11193 0.25,0.25c0,0.13807 -0.11193,0.25 -0.25,0.25c-0.13807,0 -0.25,-0.11193 -0.25,-0.25c0,-0.13807 0.11193,-0.25 0.25,-0.25z" data-paper-data="{&quot;index&quot;:null}" fill="#222222" stroke-width="0.5"/><path d="M384.62501,340.25001c0.13807,0 0.25,0.11193 0.25,0.25c0,0.13807 -0.11193,0.25 -0.25,0.25c-0.13807,0 -0.25,-0.11193 -0.25,-0.25c0,-0.13807 0.11193,-0.25 0.25,-0.25z" data-paper-data="{&quot;index&quot;:null}" fill="#222222" stroke-width="0.5"/><path d="M384.29167,303.58334c0.13807,0 0.25,0.11193 0.25,0.25c0,0.13807 -0.11193,0.25 -0.25,0.25c-0.13807,0 -0.25,-0.11193 -0.25,-0.25c0,-0.13807 0.11193,-0.25 0.25,-0.25z" data-paper-data="{&quot;index&quot;:null}" fill="#222222" stroke-width="0.5"/><path d="M385.29167,264.91667c0.13807,0 0.25,0.11193 0.25,0.25c0,0.13807 -0.11193,0.25 -0.25,0.25c-0.13807,0 -0.25,-0.11193 -0.25,-0.25c0,-0.13807 0.11193,-0.25 0.25,-0.25z" data-paper-data="{&quot;index&quot;:null}" fill="#222222" stroke-width="0.5"/><path d="M395.29167,220.25001c0.13807,0 0.25,0.11193 0.25,0.25c0,0.13807 -0.11193,0.25 -0.25,0.25c-0.13807,0 -0.25,-0.11193 -0.25,-0.25c0,-0.13807 0.11193,-0.25 0.25,-0.25z" data-paper-data="{&quot;index&quot;:null}" fill="#222222" stroke-width="0.5"/><path d="M222.29167,280.00001c0.27614,0 0.5,0.22386 0.5,0.5c0,0.27614 -0.22386,0.5 -0.5,0.5c-0.27614,0 -0.5,-0.22386 -0.5,-0.5c0,-0.27614 0.22386,-0.5 0.5,-0.5z" data-paper-data="{&quot;index&quot;:null}" fill="#222222" stroke-width="0.5"/><path d="M234.95834,321.66667c0.27614,0 0.5,0.22386 0.5,0.5c0,0.27614 -0.22386,0.5 -0.5,0.5c-0.27614,0 -0.5,-0.22386 -0.5,-0.5c0,-0.27614 0.22386,-0.5 0.5,-0.5z" data-paper-data="{&quot;index&quot;:null}" fill="#222222" stroke-width="0.5"/><path d="M276.95834,335.33334c0.27614,0 0.5,0.22386 0.5,0.5c0,0.27614 -0.22386,0.5 -0.5,0.5c-0.27614,0 -0.5,-0.22386 -0.5,-0.5c0,-0.27614 0.22386,-0.5 0.5,-0.5z" data-paper-data="{&quot;index&quot;:null}" fill="#222222" stroke-width="0.5"/><path d="M312.62501,330.33334c0.27614,0 0.5,0.22386 0.5,0.5c0,0.27614 -0.22386,0.5 -0.5,0.5c-0.27614,0 -0.5,-0.22386 -0.5,-0.5c0,-0.27614 0.22386,-0.5 0.5,-0.5z" data-paper-data="{&quot;index&quot;:null}" fill="#222222" stroke-width="0.5"/><path d="M299.95834,361.66667c0.27614,0 0.5,0.22386 0.5,0.5c0,0.27614 -0.22386,0.5 -0.5,0.5c-0.27614,0 -0.5,-0.22386 -0.5,-0.5c0,-0.27614 0.22386,-0.5 0.5,-0.5z" data-paper-data="{&quot;index&quot;:null}" fill="#222222" stroke-width="0.5"/><path d="M280.29167,377.00001c0.27614,0 0.5,0.22386 0.5,0.5c0,0.27614 -0.22386,0.5 -0.5,0.5c-0.27614,0 -0.5,-0.22386 -0.5,-0.5c0,-0.27614 0.22386,-0.5 0.5,-0.5z" data-paper-data="{&quot;index&quot;:null}" fill="#222222" stroke-width="0.5"/><path d="M210.95834,372.33334c0.27614,0 0.5,0.22386 0.5,0.5c0,0.27614 -0.22386,0.5 -0.5,0.5c-0.27614,0 -0.5,-0.22386 -0.5,-0.5c0,-0.27614 0.22386,-0.5 0.5,-0.5z" data-paper-data="{&quot;index&quot;:null}" fill="#222222" stroke-width="0.5"/><path d="M207.29167,361.66667c0.27614,0 0.5,0.22386 0.5,0.5c0,0.27614 -0.22386,0.5 -0.5,0.5c-0.27614,0 -0.5,-0.22386 -0.5,-0.5c0,-0.27614 0.22386,-0.5 0.5,-0.5z" data-paper-data="{&quot;index&quot;:null}" fill="#222222" stroke-width="0.5"/><path d="M165.62501,374.33334c0.27614,0 0.5,0.22386 0.5,0.5c0,0.27614 -0.22386,0.5 -0.5,0.5c-0.27614,0 -0.5,-0.22386 -0.5,-0.5c0,-0.27614 0.22386,-0.5 0.5,-0.5z" data-paper-data="{&quot;index&quot;:null}" fill="#222222" stroke-width="0.5"/><path d="M144.62501,361.66667c0.27614,0 0.5,0.22386 0.5,0.5c0,0.27614 -0.22386,0.5 -0.5,0.5c-0.27614,0 -0.5,-0.22386 -0.5,-0.5c0,-0.27614 0.22386,-0.5 0.5,-0.5z" data-paper-data="{&quot;index&quot;:null}" fill="#222222" stroke-width="0.5"/><path d="M116.62501,355.66667c0.27614,0 0.5,0.22386 0.5,0.5c0,0.27614 -0.22386,0.5 -0.5,0.5c-0.27614,0 -0.5,-0.22386 -0.5,-0.5c0,-0.27614 0.22386,-0.5 0.5,-0.5z" data-paper-data="{&quot;index&quot;:null}" fill="#222222" stroke-width="0.5"/><path d="M117.95834,372.00001c0.27614,0 0.5,0.22386 0.5,0.5c0,0.27614 -0.22386,0.5 -0.5,0.5c-0.27614,0 -0.5,-0.22386 -0.5,-0.5c0,-0.27614 0.22386,-0.5 0.5,-0.5z" data-paper-data="{&quot;index&quot;:null}" fill="#222222" stroke-width="0.5"/><path d="M93.62501,369.00001c0.27614,0 0.5,0.22386 0.5,0.5c0,0.27614 -0.22386,0.5 -0.5,0.5c-0.27614,0 -0.5,-0.22386 -0.5,-0.5c0,-0.27614 0.22386,-0.5 0.5,-0.5z" data-paper-data="{&quot;index&quot;:null}" fill="#222222" stroke-width="0.5"/><path d="M110.29167,344.33334c0.27614,0 0.5,0.22386 0.5,0.5c0,0.27614 -0.22386,0.5 -0.5,0.5c-0.27614,0 -0.5,-0.22386 -0.5,-0.5c0,-0.27614 0.22386,-0.5 0.5,-0.5z" data-paper-data="{&quot;index&quot;:null}" fill="#222222" stroke-width="0.5"/><path d="M339.62501,365.00001c0.27614,0 0.5,0.22386 0.5,0.5c0,0.27614 -0.22386,0.5 -0.5,0.5c-0.27614,0 -0.5,-0.22386 -0.5,-0.5c0,-0.27614 0.22386,-0.5 0.5,-0.5z" data-paper-data="{&quot;index&quot;:null}" fill="#222222" stroke-width="0.5"/><path d="M339.62501,351.33334c0.27614,0 0.5,0.22386 0.5,0.5c0,0.27614 -0.22386,0.5 -0.5,0.5c-0.27614,0 -0.5,-0.22386 -0.5,-0.5c0,-0.27614 0.22386,-0.5 0.5,-0.5z" data-paper-data="{&quot;index&quot;:null}" fill="#222222" stroke-width="0.5"/><path d="M342.29167,345.33334c0.27614,0 0.5,0.22386 0.5,0.5c0,0.27614 -0.22386,0.5 -0.5,0.5c-0.27614,0 -0.5,-0.22386 -0.5,-0.5c0,-0.27614 0.22386,-0.5 0.5,-0.5z" data-paper-data="{&quot;index&quot;:null}" fill="#222222" stroke-width="0.5"/><path d="M362.29167,362.00001c0.27614,0 0.5,0.22386 0.5,0.5c0,0.27614 -0.22386,0.5 -0.5,0.5c-0.27614,0 -0.5,-0.22386 -0.5,-0.5c0,-0.27614 0.22386,-0.5 0.5,-0.5z" data-paper-data="{&quot;index&quot;:null}" fill="#222222" stroke-width="0.5"/><path d="M371.95834,278.00001c0.27614,0 0.5,0.22386 0.5,0.5c0,0.27614 -0.22386,0.5 -0.5,0.5c-0.27614,0 -0.5,-0.22386 -0.5,-0.5c0,-0.27614 0.22386,-0.5 0.5,-0.5z" data-paper-data="{&quot;index&quot;:null}" fill="#222222" stroke-width="0.5"/><path d="M355.62501,282.33334c0.27614,0 0.5,0.22386 0.5,0.5c0,0.27614 -0.22386,0.5 -0.5,0.5c-0.27614,0 -0.5,-0.22386 -0.5,-0.5c0,-0.27614 0.22386,-0.5 0.5,-0.5z" data-paper-data="{&quot;index&quot;:null}" fill="#222222" stroke-width="0.5"/><path d="M281.29167,294.00001c0.27614,0 0.5,0.22386 0.5,0.5c0,0.27614 -0.22386,0.5 -0.5,0.5c-0.27614,0 -0.5,-0.22386 -0.5,-0.5c0,-0.27614 0.22386,-0.5 0.5,-0.5z" data-paper-data="{&quot;index&quot;:null}" fill="#222222" stroke-width="0.5"/><path d="M230.62501,219.33334c0.27614,0 0.5,0.22386 0.5,0.5c0,0.27614 -0.22386,0.5 -0.5,0.5c-0.27614,0 -0.5,-0.22386 -0.5,-0.5c0,-0.27614 0.22386,-0.5 0.5,-0.5z" data-paper-data="{&quot;index&quot;:null}" fill="#222222" stroke-width="0.5"/><path d="M154.29167,177.33334c0.27614,0 0.5,0.22386 0.5,0.5c0,0.27614 -0.22386,0.5 -0.5,0.5c-0.27614,0 -0.5,-0.22386 -0.5,-0.5c0,-0.27614 0.22386,-0.5 0.5,-0.5z" data-paper-data="{&quot;index&quot;:null}" fill="#222222" stroke-width="0.5"/><path d="M212.62501,167.33334c0.27614,0 0.5,0.22386 0.5,0.5c0,0.27614 -0.22386,0.5 -0.5,0.5c-0.27614,0 -0.5,-0.22386 -0.5,-0.5c0,-0.27614 0.22386,-0.5 0.5,-0.5z" data-paper-data="{&quot;index&quot;:null}" fill="#222222" stroke-width="0.5"/><path d="M196.62501,111.00001c0.27614,0 0.5,0.22386 0.5,0.5c0,0.27614 -0.22386,0.5 -0.5,0.5c-0.27614,0 -0.5,-0.22386 -0.5,-0.5c0,-0.27614 0.22386,-0.5 0.5,-0.5z" data-paper-data="{&quot;index&quot;:null}" fill="#222222" stroke-width="0.5"/><path d="M225.62501,103.66667c0.27614,0 0.5,0.22386 0.5,0.5c0,0.27614 -0.22386,0.5 -0.5,0.5c-0.27614,0 -0.5,-0.22386 -0.5,-0.5c0,-0.27614 0.22386,-0.5 0.5,-0.5z" data-paper-data="{&quot;index&quot;:null}" fill="#222222" stroke-width="0.5"/><path d="M241.62501,71.66667c0.27614,0 0.5,0.22386 0.5,0.5c0,0.27614 -0.22386,0.5 -0.5,0.5c-0.27614,0 -0.5,-0.22386 -0.5,-0.5c0,-0.27614 0.22386,-0.5 0.5,-0.5z" data-paper-data="{&quot;index&quot;:null}" fill="#222222" stroke-width="0.5"/><path d="M187.29167,130.00001c0.27614,0 0.5,0.22386 0.5,0.5c0,0.27614 -0.22386,0.5 -0.5,0.5c-0.27614,0 -0.5,-0.22386 -0.5,-0.5c0,-0.27614 0.22386,-0.5 0.5,-0.5z" data-paper-data="{&quot;index&quot;:null}" fill="#222222" stroke-width="0.5"/><path d="M199.29167,74.33334c0.27614,0 0.5,0.22386 0.5,0.5c0,0.27614 -0.22386,0.5 -0.5,0.5c-0.27614,0 -0.5,-0.22386 -0.5,-0.5c0,-0.27614 0.22386,-0.5 0.5,-0.5z" data-paper-data="{&quot;index&quot;:null}" fill="#222222" stroke-width="0.5"/><path d="M234.95834,47.33334c0.27614,0 0.5,0.22386 0.5,0.5c0,0.27614 -0.22386,0.5 -0.5,0.5c-0.27614,0 -0.5,-0.22386 -0.5,-0.5c0,-0.27614 0.22386,-0.5 0.5,-0.5z" data-paper-data="{&quot;index&quot;:null}" fill="#222222" stroke-width="0.5"/><path d="M198.62501,23.66667c0.27614,0 0.5,0.22386 0.5,0.5c0,0.27614 -0.22386,0.5 -0.5,0.5c-0.27614,0 -0.5,-0.22386 -0.5,-0.5c0,-0.27614 0.22386,-0.5 0.5,-0.5z" data-paper-data="{&quot;index&quot;:null}" fill="#222222" stroke-width="0.5"/><path d="M155.62501,26.33334c0.27614,0 0.5,0.22386 0.5,0.5c0,0.27614 -0.22386,0.5 -0.5,0.5c-0.27614,0 -0.5,-0.22386 -0.5,-0.5c0,-0.27614 0.22386,-0.5 0.5,-0.5z" data-paper-data="{&quot;index&quot;:null}" fill="#222222" stroke-width="0.5"/><path d="M160.95834,0.33334c0.27614,0 0.5,0.22386 0.5,0.5c0,0.27614 -0.22386,0.5 -0.5,0.5c-0.27614,0 -0.5,-0.22386 -0.5,-0.5c0,-0.27614 0.22386,-0.5 0.5,-0.5z" data-paper-data="{&quot;index&quot;:null}" fill="#222222" stroke-width="0.5"/><path d="M208.29167,-6.66666c0.27614,0 0.5,0.22386 0.5,0.5c0,0.27614 -0.22386,0.5 -0.5,0.5c-0.27614,0 -0.5,-0.22386 -0.5,-0.5c0,-0.27614 0.22386,-0.5 0.5,-0.5z" data-paper-data="{&quot;index&quot;:null}" fill="#222222" stroke-width="0.5"/><path d="M153.29167,-15.33333c0.27614,0 0.5,0.22386 0.5,0.5c0,0.27614 -0.22386,0.5 -0.5,0.5c-0.27614,0 -0.5,-0.22386 -0.5,-0.5c0,-0.27614 0.22386,-0.5 0.5,-0.5z" data-paper-data="{&quot;index&quot;:null}" fill="#222222" stroke-width="0.5"/><path d="M116.62501,-2.33333c0.27614,0 0.5,0.22386 0.5,0.5c0,0.27614 -0.22386,0.5 -0.5,0.5c-0.27614,0 -0.5,-0.22386 -0.5,-0.5c0,-0.27614 0.22386,-0.5 0.5,-0.5z" data-paper-data="{&quot;index&quot;:null}" fill="#222222" stroke-width="0.5"/><path d="M95.29167,28.33334c0.27614,0 0.5,0.22386 0.5,0.5c0,0.27614 -0.22386,0.5 -0.5,0.5c-0.27614,0 -0.5,-0.22386 -0.5,-0.5c0,-0.27614 0.22386,-0.5 0.5,-0.5z" data-paper-data="{&quot;index&quot;:null}" fill="#222222" stroke-width="0.5"/><path d="M112.62501,34.33334c0.27614,0 0.5,0.22386 0.5,0.5c0,0.27614 -0.22386,0.5 -0.5,0.5c-0.27614,0 -0.5,-0.22386 -0.5,-0.5c0,-0.27614 0.22386,-0.5 0.5,-0.5z" data-paper-data="{&quot;index&quot;:null}" fill="#222222" stroke-width="0.5"/><path d="M110.62501,55.00001c0.27614,0 0.5,0.22386 0.5,0.5c0,0.27614 -0.22386,0.5 -0.5,0.5c-0.27614,0 -0.5,-0.22386 -0.5,-0.5c0,-0.27614 0.22386,-0.5 0.5,-0.5z" data-paper-data="{&quot;index&quot;:null}" fill="#222222" stroke-width="0.5"/><path d="M88.62501,54.66667c0.27614,0 0.5,0.22386 0.5,0.5c0,0.27614 -0.22386,0.5 -0.5,0.5c-0.27614,0 -0.5,-0.22386 -0.5,-0.5c0,-0.27614 0.22386,-0.5 0.5,-0.5z" data-paper-data="{&quot;index&quot;:null}" fill="#222222" stroke-width="0.5"/><path d="M86.95834,80.66667c0.27614,0 0.5,0.22386 0.5,0.5c0,0.27614 -0.22386,0.5 -0.5,0.5c-0.27614,0 -0.5,-0.22386 -0.5,-0.5c0,-0.27614 0.22386,-0.5 0.5,-0.5z" data-paper-data="{&quot;index&quot;:null}" fill="#222222" stroke-width="0.5"/><path d="M87.62501,113.00001c0.27614,0 0.5,0.22386 0.5,0.5c0,0.27614 -0.22386,0.5 -0.5,0.5c-0.27614,0 -0.5,-0.22386 -0.5,-0.5c0,-0.27614 0.22386,-0.5 0.5,-0.5z" data-paper-data="{&quot;index&quot;:null}" fill="#222222" stroke-width="0.5"/><path d="M88.62501,137.33334c0.27614,0 0.5,0.22386 0.5,0.5c0,0.27614 -0.22386,0.5 -0.5,0.5c-0.27614,0 -0.5,-0.22386 -0.5,-0.5c0,-0.27614 0.22386,-0.5 0.5,-0.5z" data-paper-data="{&quot;index&quot;:null}" fill="#222222" stroke-width="0.5"/><path d="M110.29167,152.66667c0.27614,0 0.5,0.22386 0.5,0.5c0,0.27614 -0.22386,0.5 -0.5,0.5c-0.27614,0 -0.5,-0.22386 -0.5,-0.5c0,-0.27614 0.22386,-0.5 0.5,-0.5z" data-paper-data="{&quot;index&quot;:null}" fill="#222222" stroke-width="0.5"/><path d="M290.62501,85.16667c0.55228,0 1,0.44772 1,1c0,0.55228 -0.44772,1 -1,1c-0.55228,0 -1,-0.44772 -1,-1c0,-0.55228 0.44772,-1 1,-1z" data-paper-data="{&quot;index&quot;:null}" fill="#222222" stroke-width="0.5"/><path d="M287.95834,148.50001c0.55228,0 1,0.44772 1,1c0,0.55228 -0.44772,1 -1,1c-0.55228,0 -1,-0.44772 -1,-1c0,-0.55228 0.44772,-1 1,-1z" data-paper-data="{&quot;index&quot;:null}" fill="#222222" stroke-width="0.5"/><path d="M358.29167,132.50001c0.55228,0 1,0.44772 1,1c0,0.55228 -0.44772,1 -1,1c-0.55228,0 -1,-0.44772 -1,-1c0,-0.55228 0.44772,-1 1,-1z" data-paper-data="{&quot;index&quot;:null}" fill="#222222" stroke-width="0.5"/><path d="M378.29167,96.50001c0.55228,0 1,0.44772 1,1c0,0.55228 -0.44772,1 -1,1c-0.55228,0 -1,-0.44772 -1,-1c0,-0.55228 0.44772,-1 1,-1z" data-paper-data="{&quot;index&quot;:null}" fill="#222222" stroke-width="0.5"/><path d="M392.29167,47.83334c0.55228,0 1,0.44772 1,1c0,0.55228 -0.44772,1 -1,1c-0.55228,0 -1,-0.44772 -1,-1c0,-0.55228 0.44772,-1 1,-1z" data-paper-data="{&quot;index&quot;:null}" fill="#222222" stroke-width="0.5"/><path d="M366.95834,18.83334c0.55228,0 1,0.44772 1,1c0,0.55228 -0.44772,1 -1,1c-0.55228,0 -1,-0.44772 -1,-1c0,-0.55228 0.44772,-1 1,-1z" data-paper-data="{&quot;index&quot;:null}" fill="#222222" stroke-width="0.5"/><path d="M224.29167,150.50001c0.55228,0 1,0.44772 1,1c0,0.55228 -0.44772,1 -1,1c-0.55228,0 -1,-0.44772 -1,-1c0,-0.55228 0.44772,-1 1,-1z" data-paper-data="{&quot;index&quot;:null}" fill="#222222" stroke-width="0.5"/><path d="M174.95834,168.16667c0.55228,0 1,0.44772 1,1c0,0.55228 -0.44772,1 -1,1c-0.55228,0 -1,-0.44772 -1,-1c0,-0.55228 0.44772,-1 1,-1z" data-paper-data="{&quot;index&quot;:null}" fill="#222222" stroke-width="0.5"/><path d="M229.62501,237.50001c0.55228,0 1,0.44772 1,1c0,0.55228 -0.44772,1 -1,1c-0.55228,0 -1,-0.44772 -1,-1c0,-0.55228 0.44772,-1 1,-1z" data-paper-data="{&quot;index&quot;:null}" fill="#222222" stroke-width="0.5"/><path d="M132.95834,235.16667c0.55228,0 1,0.44772 1,1c0,0.55228 -0.44772,1 -1,1c-0.55228,0 -1,-0.44772 -1,-1c0,-0.55228 0.44772,-1 1,-1z" data-paper-data="{&quot;index&quot;:null}" fill="#222222" stroke-width="0.5"/><path d="M292.95834,203.16667c0.55228,0 1,0.44772 1,1c0,0.55228 -0.44772,1 -1,1c-0.55228,0 -1,-0.44772 -1,-1c0,-0.55228 0.44772,-1 1,-1z" data-paper-data="{&quot;index&quot;:null}" fill="#717171" stroke-width="0.5"/><path d="M312.62501,246.16667c0.55228,0 1,0.44772 1,1c0,0.55228 -0.44772,1 -1,1c-0.55228,0 -1,-0.44772 -1,-1c0,-0.55228 0.44772,-1 1,-1z" data-paper-data="{&quot;index&quot;:null}" fill="#717171" stroke-width="0.5"/><path d="M175.62501,301.16667c0.55228,0 1,0.44772 1,1c0,0.55228 -0.44772,1 -1,1c-0.55228,0 -1,-0.44772 -1,-1c0,-0.55228 0.44772,-1 1,-1z" data-paper-data="{&quot;index&quot;:null}" fill="#717171" stroke-width="0.5"/><path d="M214.95834,322.16667c0.55228,0 1,0.44772 1,1c0,0.55228 -0.44772,1 -1,1c-0.55228,0 -1,-0.44772 -1,-1c0,-0.55228 0.44772,-1 1,-1z" data-paper-data="{&quot;index&quot;:null}" fill="#717171" stroke-width="0.5"/><path d="M117.62501,287.58334c0.13807,0 0.25,0.11193 0.25,0.25c0,0.13807 -0.11193,0.25 -0.25,0.25c-0.13807,0 -0.25,-0.11193 -0.25,-0.25c0,-0.13807 0.11193,-0.25 0.25,-0.25z" data-paper-data="{&quot;index&quot;:null}" fill="#717171" stroke-width="0.5"/><path d="M144.29167,269.91667c0.13807,0 0.25,0.11193 0.25,0.25c0,0.13807 -0.11193,0.25 -0.25,0.25c-0.13807,0 -0.25,-0.11193 -0.25,-0.25c0,-0.13807 0.11193,-0.25 0.25,-0.25z" data-paper-data="{&quot;index&quot;:null}" fill="#717171" stroke-width="0.5"/><path d="M281.95834,327.58334c0.13807,0 0.25,0.11193 0.25,0.25c0,0.13807 -0.11193,0.25 -0.25,0.25c-0.13807,0 -0.25,-0.11193 -0.25,-0.25c0,-0.13807 0.11193,-0.25 0.25,-0.25z" data-paper-data="{&quot;index&quot;:null}" fill="#717171" stroke-width="0.5"/><path d="M297.29167,344.58334c0.13807,0 0.25,0.11193 0.25,0.25c0,0.13807 -0.11193,0.25 -0.25,0.25c-0.13807,0 -0.25,-0.11193 -0.25,-0.25c0,-0.13807 0.11193,-0.25 0.25,-0.25z" data-paper-data="{&quot;index&quot;:null}" fill="#717171" stroke-width="0.5"/><path d="M66.29167,94.75c0.9665,0 1.75,0.7835 1.75,1.75c0,0.9665 -0.7835,1.75 -1.75,1.75c-0.9665,0 -1.75,-0.7835 -1.75,-1.75c0,-0.9665 0.7835,-1.75 1.75,-1.75z" data-paper-data="{&quot;index&quot;:null}" fill="#e2e2e2" stroke-width="0.5"/><path d="M127.62501,94.75c0.9665,0 1.75,0.7835 1.75,1.75c0,0.9665 -0.7835,1.75 -1.75,1.75c-0.9665,0 -1.75,-0.7835 -1.75,-1.75c0,-0.9665 0.7835,-1.75 1.75,-1.75z" data-paper-data="{&quot;index&quot;:null}" fill="#e2e2e2" stroke-width="0.5"/><path d="M324.62501,133.08333c0.9665,0 1.75,0.7835 1.75,1.75c0,0.9665 -0.7835,1.75 -1.75,1.75c-0.9665,0 -1.75,-0.7835 -1.75,-1.75c0,-0.9665 0.7835,-1.75 1.75,-1.75z" data-paper-data="{&quot;index&quot;:null}" fill="#e2e2e2" stroke-width="0.5"/><path d="M233.29167,237.08333c0.9665,0 1.75,0.7835 1.75,1.75c0,0.9665 -0.7835,1.75 -1.75,1.75c-0.9665,0 -1.75,-0.7835 -1.75,-1.75c0,-0.9665 0.7835,-1.75 1.75,-1.75z" data-paper-data="{&quot;index&quot;:null}" fill="#e2e2e2" stroke-width="0.5"/><path d="M258.62501,327.41667c0.9665,0 1.75,0.7835 1.75,1.75c0,0.9665 -0.7835,1.75 -1.75,1.75c-0.9665,0 -1.75,-0.7835 -1.75,-1.75c0,-0.9665 0.7835,-1.75 1.75,-1.75z" data-paper-data="{&quot;index&quot;:null}" fill="#e2e2e2" stroke-width="0.5"/><path d="M197.62501,304.25001c0.13807,0 0.25,0.11193 0.25,0.25c0,0.13807 -0.11193,0.25 -0.25,0.25c-0.13807,0 -0.25,-0.11193 -0.25,-0.25c0,-0.13807 0.11193,-0.25 0.25,-0.25z" data-paper-data="{&quot;index&quot;:null}" fill="#666666" stroke-width="0.5"/><path d="M216.29167,329.91667c0.13807,0 0.25,0.11193 0.25,0.25c0,0.13807 -0.11193,0.25 -0.25,0.25c-0.13807,0 -0.25,-0.11193 -0.25,-0.25c0,-0.13807 0.11193,-0.25 0.25,-0.25z" data-paper-data="{&quot;index&quot;:null}" fill="#666666" stroke-width="0.5"/><path d="M226.62501,337.25001c0.13807,0 0.25,0.11193 0.25,0.25c0,0.13807 -0.11193,0.25 -0.25,0.25c-0.13807,0 -0.25,-0.11193 -0.25,-0.25c0,-0.13807 0.11193,-0.25 0.25,-0.25z" data-paper-data="{&quot;index&quot;:null}" fill="#666666" stroke-width="0.5"/><path d="M243.62501,320.58334c0.13807,0 0.25,0.11193 0.25,0.25c0,0.13807 -0.11193,0.25 -0.25,0.25c-0.13807,0 -0.25,-0.11193 -0.25,-0.25c0,-0.13807 0.11193,-0.25 0.25,-0.25z" data-paper-data="{&quot;index&quot;:null}" fill="#666666" stroke-width="0.5"/><path d="M248.95834,294.25001c0.13807,0 0.25,0.11193 0.25,0.25c0,0.13807 -0.11193,0.25 -0.25,0.25c-0.13807,0 -0.25,-0.11193 -0.25,-0.25c0,-0.13807 0.11193,-0.25 0.25,-0.25z" data-paper-data="{&quot;index&quot;:null}" fill="#666666" stroke-width="0.5"/><path d="M273.29167,284.91667c0.13807,0 0.25,0.11193 0.25,0.25c0,0.13807 -0.11193,0.25 -0.25,0.25c-0.13807,0 -0.25,-0.11193 -0.25,-0.25c0,-0.13807 0.11193,-0.25 0.25,-0.25z" data-paper-data="{&quot;index&quot;:null}" fill="#666666" stroke-width="0.5"/><path d="M303.62501,161.58334c0.13807,0 0.25,0.11193 0.25,0.25c0,0.13807 -0.11193,0.25 -0.25,0.25c-0.13807,0 -0.25,-0.11193 -0.25,-0.25c0,-0.13807 0.11193,-0.25 0.25,-0.25z" data-paper-data="{&quot;index&quot;:null}" fill="#666666" stroke-width="0.5"/><path d="M330.95834,147.58334c0.13807,0 0.25,0.11193 0.25,0.25c0,0.13807 -0.11193,0.25 -0.25,0.25c-0.13807,0 -0.25,-0.11193 -0.25,-0.25c0,-0.13807 0.11193,-0.25 0.25,-0.25z" data-paper-data="{&quot;index&quot;:null}" fill="#666666" stroke-width="0.5"/><path d="M326.29167,139.58334c0.13807,0 0.25,0.11193 0.25,0.25c0,0.13807 -0.11193,0.25 -0.25,0.25c-0.13807,0 -0.25,-0.11193 -0.25,-0.25c0,-0.13807 0.11193,-0.25 0.25,-0.25z" data-paper-data="{&quot;index&quot;:null}" fill="#666666" stroke-width="0.5"/><path d="M332.29167,123.25001c0.13807,0 0.25,0.11193 0.25,0.25c0,0.13807 -0.11193,0.25 -0.25,0.25c-0.13807,0 -0.25,-0.11193 -0.25,-0.25c0,-0.13807 0.11193,-0.25 0.25,-0.25z" data-paper-data="{&quot;index&quot;:null}" fill="#666666" stroke-width="0.5"/><path d="M222.04167,38.5v-0.5c0,-0.16667 0,-0.33333 0,-0.5c0,0 0,-0.25 0.25,-0.25c0.25,0 0.25,0.25 0.25,0.25c0,0.16667 0,0.83333 0,1c0,0 0,0.25 -0.25,0.25c-0.25,0 -0.25,-0.25 -0.25,-0.25z" data-paper-data="{&quot;index&quot;:null}" fill="#666666" stroke-width="0.5"/><path d="M189.62501,92.41667c0.41421,0 0.75,0.33579 0.75,0.75c0,0.41421 -0.33579,0.75 -0.75,0.75c-0.41421,0 -0.75,-0.33579 -0.75,-0.75c0,-0.41421 0.33579,-0.75 0.75,-0.75z" data-paper-data="{&quot;index&quot;:null}" fill="#666666" stroke-width="0.5"/><path d="M184.62501,108.41667c0.41421,0 0.75,0.33579 0.75,0.75c0,0.41421 -0.33579,0.75 -0.75,0.75c-0.41421,0 -0.75,-0.33579 -0.75,-0.75c0,-0.41421 0.33579,-0.75 0.75,-0.75z" data-paper-data="{&quot;index&quot;:null}" fill="#666666" stroke-width="0.5"/><path d="M186.95834,80.75c0.41421,0 0.75,0.33579 0.75,0.75c0,0.41421 -0.33579,0.75 -0.75,0.75c-0.41421,0 -0.75,-0.33579 -0.75,-0.75c0,-0.41421 0.33579,-0.75 0.75,-0.75z" data-paper-data="{&quot;index&quot;:null}" fill="#666666" stroke-width="0.5"/><path d="M139.62501,71.41667c0.41421,0 0.75,0.33579 0.75,0.75c0,0.41421 -0.33579,0.75 -0.75,0.75c-0.41421,0 -0.75,-0.33579 -0.75,-0.75c0,-0.41421 0.33579,-0.75 0.75,-0.75z" data-paper-data="{&quot;index&quot;:null}" fill="#666666" stroke-width="0.5"/><path d="M123.29167,70.41667c0.41421,0 0.75,0.33579 0.75,0.75c0,0.41421 -0.33579,0.75 -0.75,0.75c-0.41421,0 -0.75,-0.33579 -0.75,-0.75c0,-0.41421 0.33579,-0.75 0.75,-0.75z" data-paper-data="{&quot;index&quot;:null}" fill="#666666" stroke-width="0.5"/><path d="M122.62501,84.08333c0.41421,0 0.75,0.33579 0.75,0.75c0,0.41421 -0.33579,0.75 -0.75,0.75c-0.41421,0 -0.75,-0.33579 -0.75,-0.75c0,-0.41421 0.33579,-0.75 0.75,-0.75z" data-paper-data="{&quot;index&quot;:null}" fill="#666666" stroke-width="0.5"/><path d="M142.29167,102.08333c0.41421,0 0.75,0.33579 0.75,0.75c0,0.41421 -0.33579,0.75 -0.75,0.75c-0.41421,0 -0.75,-0.33579 -0.75,-0.75c0,-0.41421 0.33579,-0.75 0.75,-0.75z" data-paper-data="{&quot;index&quot;:null}" fill="#666666" stroke-width="0.5"/><path d="M161.29167,121.08333c0.41421,0 0.75,0.33579 0.75,0.75c0,0.41421 -0.33579,0.75 -0.75,0.75c-0.41421,0 -0.75,-0.33579 -0.75,-0.75c0,-0.41421 0.33579,-0.75 0.75,-0.75z" data-paper-data="{&quot;index&quot;:null}" fill="#666666" stroke-width="0.5"/><path d="M221.95834,135.75c0.41421,0 0.75,0.33579 0.75,0.75c0,0.41421 -0.33579,0.75 -0.75,0.75c-0.41421,0 -0.75,-0.33579 -0.75,-0.75c0,-0.41421 0.33579,-0.75 0.75,-0.75z" data-paper-data="{&quot;index&quot;:null}" fill="#666666" stroke-width="0.5"/><path d="M221.62501,155.41667c0.41421,0 0.75,0.33579 0.75,0.75c0,0.41421 -0.33579,0.75 -0.75,0.75c-0.41421,0 -0.75,-0.33579 -0.75,-0.75c0,-0.41421 0.33579,-0.75 0.75,-0.75z" data-paper-data="{&quot;index&quot;:null}" fill="#666666" stroke-width="0.5"/><path d="M237.95834,161.08333c0.41421,0 0.75,0.33579 0.75,0.75c0,0.41421 -0.33579,0.75 -0.75,0.75c-0.41421,0 -0.75,-0.33579 -0.75,-0.75c0,-0.41421 0.33579,-0.75 0.75,-0.75z" data-paper-data="{&quot;index&quot;:null}" fill="#666666" stroke-width="0.5"/><path d="M200.95834,219.41667c0.41421,0 0.75,0.33579 0.75,0.75c0,0.41421 -0.33579,0.75 -0.75,0.75c-0.41421,0 -0.75,-0.33579 -0.75,-0.75c0,-0.41421 0.33579,-0.75 0.75,-0.75z" data-paper-data="{&quot;index&quot;:null}" fill="#666666" stroke-width="0.5"/><path d="M224.62501,244.75c0.41421,0 0.75,0.33579 0.75,0.75c0,0.41421 -0.33579,0.75 -0.75,0.75c-0.41421,0 -0.75,-0.33579 -0.75,-0.75c0,-0.41421 0.33579,-0.75 0.75,-0.75z" data-paper-data="{&quot;index&quot;:null}" fill="#666666" stroke-width="0.5"/><path d="M269.62501,256.41667c0.41421,0 0.75,0.33579 0.75,0.75c0,0.41421 -0.33579,0.75 -0.75,0.75c-0.41421,0 -0.75,-0.33579 -0.75,-0.75c0,-0.41421 0.33579,-0.75 0.75,-0.75z" data-paper-data="{&quot;index&quot;:null}" fill="#666666" stroke-width="0.5"/><path d="M248.62501,279.75c0.41421,0 0.75,0.33579 0.75,0.75c0,0.41421 -0.33579,0.75 -0.75,0.75c-0.41421,0 -0.75,-0.33579 -0.75,-0.75c0,-0.41421 0.33579,-0.75 0.75,-0.75z" data-paper-data="{&quot;index&quot;:null}" fill="#666666" stroke-width="0.5"/><path d="M282.95834,289.41667c0.41421,0 0.75,0.33579 0.75,0.75c0,0.41421 -0.33579,0.75 -0.75,0.75c-0.41421,0 -0.75,-0.33579 -0.75,-0.75c0,-0.41421 0.33579,-0.75 0.75,-0.75z" data-paper-data="{&quot;index&quot;:null}" fill="#666666" stroke-width="0.5"/><path d="M304.62501,331.75001c0.41421,0 0.75,0.33579 0.75,0.75c0,0.41421 -0.33579,0.75 -0.75,0.75c-0.41421,0 -0.75,-0.33579 -0.75,-0.75c0,-0.41421 0.33579,-0.75 0.75,-0.75z" data-paper-data="{&quot;index&quot;:null}" fill="#666666" stroke-width="0.5"/><path d="M299.29167,348.75001c0.41421,0 0.75,0.33579 0.75,0.75c0,0.41421 -0.33579,0.75 -0.75,0.75c-0.41421,0 -0.75,-0.33579 -0.75,-0.75c0,-0.41421 0.33579,-0.75 0.75,-0.75z" data-paper-data="{&quot;index&quot;:null}" fill="#666666" stroke-width="0.5"/><path d="M81.95834,92.08333c0.41421,0 0.75,0.33579 0.75,0.75c0,0.41421 -0.33579,0.75 -0.75,0.75c-0.41421,0 -0.75,-0.33579 -0.75,-0.75c0,-0.41421 0.33579,-0.75 0.75,-0.75z" data-paper-data="{&quot;index&quot;:null}" fill="#ffffff" stroke-width="0.5"/><path d="M108.62501,69.08333c0.41421,0 0.75,0.33579 0.75,0.75c0,0.41421 -0.33579,0.75 -0.75,0.75c-0.41421,0 -0.75,-0.33579 -0.75,-0.75c0,-0.41421 0.33579,-0.75 0.75,-0.75z" data-paper-data="{&quot;index&quot;:null}" fill="#ffffff" stroke-width="0.5"/><path d="M154.95834,82.75c0.41421,0 0.75,0.33579 0.75,0.75c0,0.41421 -0.33579,0.75 -0.75,0.75c-0.41421,0 -0.75,-0.33579 -0.75,-0.75c0,-0.41421 0.33579,-0.75 0.75,-0.75z" data-paper-data="{&quot;index&quot;:null}" fill="#ffffff" stroke-width="0.5"/><path d="M103.62501,252.41667c0.41421,0 0.75,0.33579 0.75,0.75c0,0.41421 -0.33579,0.75 -0.75,0.75c-0.41421,0 -0.75,-0.33579 -0.75,-0.75c0,-0.41421 0.33579,-0.75 0.75,-0.75z" data-paper-data="{&quot;index&quot;:null}" fill="#ffffff" stroke-width="0.5"/><path d="M140.95834,311.75001c0.41421,0 0.75,0.33579 0.75,0.75c0,0.41421 -0.33579,0.75 -0.75,0.75c-0.41421,0 -0.75,-0.33579 -0.75,-0.75c0,-0.41421 0.33579,-0.75 0.75,-0.75z" data-paper-data="{&quot;index&quot;:null}" fill="#ffffff" stroke-width="0.5"/><path d="M105.62501,310.41667c0.41421,0 0.75,0.33579 0.75,0.75c0,0.41421 -0.33579,0.75 -0.75,0.75c-0.41421,0 -0.75,-0.33579 -0.75,-0.75c0,-0.41421 0.33579,-0.75 0.75,-0.75z" data-paper-data="{&quot;index&quot;:null}" fill="#ffffff" stroke-width="0.5"/><path d="M133.62501,340.08334c0.41421,0 0.75,0.33579 0.75,0.75c0,0.41421 -0.33579,0.75 -0.75,0.75c-0.41421,0 -0.75,-0.33579 -0.75,-0.75c0,-0.41421 0.33579,-0.75 0.75,-0.75z" data-paper-data="{&quot;index&quot;:null}" fill="#ffffff" stroke-width="0.5"/><path d="M170.29167,282.75001c0.41421,0 0.75,0.33579 0.75,0.75c0,0.41421 -0.33579,0.75 -0.75,0.75c-0.41421,0 -0.75,-0.33579 -0.75,-0.75c0,-0.41421 0.33579,-0.75 0.75,-0.75z" data-paper-data="{&quot;index&quot;:null}" fill="#ffffff" stroke-width="0.5"/><path d="M140.29167,269.41667c0.41421,0 0.75,0.33579 0.75,0.75c0,0.41421 -0.33579,0.75 -0.75,0.75c-0.41421,0 -0.75,-0.33579 -0.75,-0.75c0,-0.41421 0.33579,-0.75 0.75,-0.75z" data-paper-data="{&quot;index&quot;:null}" fill="#ffffff" stroke-width="0.5"/><path d="M257.29167,211.08334c0.41421,0 0.75,0.33579 0.75,0.75c0,0.41421 -0.33579,0.75 -0.75,0.75c-0.41421,0 -0.75,-0.33579 -0.75,-0.75c0,-0.41421 0.33579,-0.75 0.75,-0.75z" data-paper-data="{&quot;index&quot;:null}" fill="#ffffff" stroke-width="0.5"/><path d="M219.62501,338.41667c0.41421,0 0.75,0.33579 0.75,0.75c0,0.41421 -0.33579,0.75 -0.75,0.75c-0.41421,0 -0.75,-0.33579 -0.75,-0.75c0,-0.41421 0.33579,-0.75 0.75,-0.75z" data-paper-data="{&quot;index&quot;:null}" fill="#a0a0a0" stroke-width="0.5"/><path d="M296.62501,282.08334c0.41421,0 0.75,0.33579 0.75,0.75c0,0.41421 -0.33579,0.75 -0.75,0.75c-0.41421,0 -0.75,-0.33579 -0.75,-0.75c0,-0.41421 0.33579,-0.75 0.75,-0.75z" data-paper-data="{&quot;index&quot;:null}" fill="#a0a0a0" stroke-width="0.5"/><path d="M265.95834,258.75001c0.41421,0 0.75,0.33579 0.75,0.75c0,0.41421 -0.33579,0.75 -0.75,0.75c-0.41421,0 -0.75,-0.33579 -0.75,-0.75c0,-0.41421 0.33579,-0.75 0.75,-0.75z" data-paper-data="{&quot;index&quot;:null}" fill="#a0a0a0" stroke-width="0.5"/><path d="M255.37501,230.16667l-0.03849,0.5705c-0.11111,0.33333 -0.22222,0.66667 -0.33333,1c0,0 -0.23717,0.71151 -0.94868,0.47434c-0.71151,-0.23717 -0.47434,-0.94868 -0.47434,-0.94868c0.11111,-0.33333 0.22222,-0.66667 0.33333,-1l-0.03849,-0.09616c0,0 0,-0.75 0.75,-0.75c0.75,0 0.75,0.75 0.75,0.75z" data-paper-data="{&quot;index&quot;:null}" fill="#a0a0a0" stroke-width="0.5"/><path d="M285.62501,210.75001c0.41421,0 0.75,0.33579 0.75,0.75c0,0.41421 -0.33579,0.75 -0.75,0.75c-0.41421,0 -0.75,-0.33579 -0.75,-0.75c0,-0.41421 0.33579,-0.75 0.75,-0.75z" data-paper-data="{&quot;index&quot;:null}" fill="#a0a0a0" stroke-width="0.5"/><path d="M251.62501,113.75001c0.41421,0 0.75,0.33579 0.75,0.75c0,0.41421 -0.33579,0.75 -0.75,0.75c-0.41421,0 -0.75,-0.33579 -0.75,-0.75c0,-0.41421 0.33579,-0.75 0.75,-0.75z" data-paper-data="{&quot;index&quot;:null}" fill="#a0a0a0" stroke-width="0.5"/><path d="M220.62501,137.41667c0.41421,0 0.75,0.33579 0.75,0.75c0,0.41421 -0.33579,0.75 -0.75,0.75c-0.41421,0 -0.75,-0.33579 -0.75,-0.75c0,-0.41421 0.33579,-0.75 0.75,-0.75z" data-paper-data="{&quot;index&quot;:null}" fill="#a0a0a0" stroke-width="0.5"/><path d="M211.95834,112.41667c0.41421,0 0.75,0.33579 0.75,0.75c0,0.41421 -0.33579,0.75 -0.75,0.75c-0.41421,0 -0.75,-0.33579 -0.75,-0.75c0,-0.41421 0.33579,-0.75 0.75,-0.75z" data-paper-data="{&quot;index&quot;:null}" fill="#a0a0a0" stroke-width="0.5"/><path d="M190.95834,156.75001c0.41421,0 0.75,0.33579 0.75,0.75c0,0.41421 -0.33579,0.75 -0.75,0.75c-0.41421,0 -0.75,-0.33579 -0.75,-0.75c0,-0.41421 0.33579,-0.75 0.75,-0.75z" data-paper-data="{&quot;index&quot;:null}" fill="#a0a0a0" stroke-width="0.5"/><path d="M199.29167,175.08334c0.41421,0 0.75,0.33579 0.75,0.75c0,0.41421 -0.33579,0.75 -0.75,0.75c-0.41421,0 -0.75,-0.33579 -0.75,-0.75c0,-0.41421 0.33579,-0.75 0.75,-0.75z" data-paper-data="{&quot;index&quot;:null}" fill="#a0a0a0" stroke-width="0.5"/><path d="M171.95834,193.75001c0.41421,0 0.75,0.33579 0.75,0.75c0,0.41421 -0.33579,0.75 -0.75,0.75c-0.41421,0 -0.75,-0.33579 -0.75,-0.75c0,-0.41421 0.33579,-0.75 0.75,-0.75z" data-paper-data="{&quot;index&quot;:null}" fill="#a0a0a0" stroke-width="0.5"/><path d="M222.29167,175.41667c0.41421,0 0.75,0.33579 0.75,0.75c0,0.41421 -0.33579,0.75 -0.75,0.75c-0.41421,0 -0.75,-0.33579 -0.75,-0.75c0,-0.41421 0.33579,-0.75 0.75,-0.75z" data-paper-data="{&quot;index&quot;:null}" fill="#a0a0a0" stroke-width="0.5"/><path d="M299.29167,117.41667c0.41421,0 0.75,0.33579 0.75,0.75c0,0.41421 -0.33579,0.75 -0.75,0.75c-0.41421,0 -0.75,-0.33579 -0.75,-0.75c0,-0.41421 0.33579,-0.75 0.75,-0.75z" data-paper-data="{&quot;index&quot;:null}" fill="#a0a0a0" stroke-width="0.5"/><path d="M334.95834,54.08333c0.41421,0 0.75,0.33579 0.75,0.75c0,0.41421 -0.33579,0.75 -0.75,0.75c-0.41421,0 -0.75,-0.33579 -0.75,-0.75c0,-0.41421 0.33579,-0.75 0.75,-0.75z" data-paper-data="{&quot;index&quot;:null}" fill="#a0a0a0" stroke-width="0.5"/><path d="M309.95834,41.75c0.41421,0 0.75,0.33579 0.75,0.75c0,0.41421 -0.33579,0.75 -0.75,0.75c-0.41421,0 -0.75,-0.33579 -0.75,-0.75c0,-0.41421 0.33579,-0.75 0.75,-0.75z" data-paper-data="{&quot;index&quot;:null}" fill="#a0a0a0" stroke-width="0.5"/><path d="M349.29167,37.08333c0.41421,0 0.75,0.33579 0.75,0.75c0,0.41421 -0.33579,0.75 -0.75,0.75c-0.41421,0 -0.75,-0.33579 -0.75,-0.75c0,-0.41421 0.33579,-0.75 0.75,-0.75z" data-paper-data="{&quot;index&quot;:null}" fill="#a0a0a0" stroke-width="0.5"/><path d="M365.29167,43.75c0.41421,0 0.75,0.33579 0.75,0.75c0,0.41421 -0.33579,0.75 -0.75,0.75c-0.41421,0 -0.75,-0.33579 -0.75,-0.75c0,-0.41421 0.33579,-0.75 0.75,-0.75z" data-paper-data="{&quot;index&quot;:null}" fill="#a0a0a0" stroke-width="0.5"/><path d="M240.62501,34.66667c0.82843,0 1.5,0.67157 1.5,1.5c0,0.82843 -0.67157,1.5 -1.5,1.5c-0.82843,0 -1.5,-0.67157 -1.5,-1.5c0,-0.82843 0.67157,-1.5 1.5,-1.5z" data-paper-data="{&quot;index&quot;:null}" fill="#a0a0a0" stroke-width="0.5"/><path d="M297.29167,57c0.82843,0 1.5,0.67157 1.5,1.5c0,0.82843 -0.67157,1.5 -1.5,1.5c-0.82843,0 -1.5,-0.67157 -1.5,-1.5c0,-0.82843 0.67157,-1.5 1.5,-1.5z" data-paper-data="{&quot;index&quot;:null}" fill="#a0a0a0" stroke-width="0.5"/><path d="M197.29167,92c0.82843,0 1.5,0.67157 1.5,1.5c0,0.82843 -0.67157,1.5 -1.5,1.5c-0.82843,0 -1.5,-0.67157 -1.5,-1.5c0,-0.82843 0.67157,-1.5 1.5,-1.5z" data-paper-data="{&quot;index&quot;:null}" fill="#a0a0a0" stroke-width="0.5"/><path d="M171.29167,58.66667c0.82843,0 1.5,0.67157 1.5,1.5c0,0.82843 -0.67157,1.5 -1.5,1.5c-0.82843,0 -1.5,-0.67157 -1.5,-1.5c0,-0.82843 0.67157,-1.5 1.5,-1.5z" data-paper-data="{&quot;index&quot;:null}" fill="#a0a0a0" stroke-width="0.5"/><path d="M125.29167,35.66667c0.82843,0 1.5,0.67157 1.5,1.5c0,0.82843 -0.67157,1.5 -1.5,1.5c-0.82843,0 -1.5,-0.67157 -1.5,-1.5c0,-0.82843 0.67157,-1.5 1.5,-1.5z" data-paper-data="{&quot;index&quot;:null}" fill="#a0a0a0" stroke-width="0.5"/><path d="M132.62501,9.33333c0.82843,0 1.5,0.67157 1.5,1.5c0,0.82843 -0.67157,1.5 -1.5,1.5c-0.82843,0 -1.5,-0.67157 -1.5,-1.5c0,-0.82843 0.67157,-1.5 1.5,-1.5z" data-paper-data="{&quot;index&quot;:null}" fill="#a0a0a0" stroke-width="0.5"/><path d="M112.29167,-7.33333c0.82843,0 1.5,0.67157 1.5,1.5c0,0.82843 -0.67157,1.5 -1.5,1.5c-0.82843,0 -1.5,-0.67157 -1.5,-1.5c0,-0.82843 0.67157,-1.5 1.5,-1.5z" data-paper-data="{&quot;index&quot;:null}" fill="#a0a0a0" stroke-width="0.5"/><path d="M143.95834,-15c0.82843,0 1.5,0.67157 1.5,1.5c0,0.82843 -0.67157,1.5 -1.5,1.5c-0.82843,0 -1.5,-0.67157 -1.5,-1.5c0,-0.82843 0.67157,-1.5 1.5,-1.5z" data-paper-data="{&quot;index&quot;:null}" fill="#a0a0a0" stroke-width="0.5"/><path d="M223.62501,-18c0.82843,0 1.5,0.67157 1.5,1.5c0,0.82843 -0.67157,1.5 -1.5,1.5c-0.82843,0 -1.5,-0.67157 -1.5,-1.5c0,-0.82843 0.67157,-1.5 1.5,-1.5z" data-paper-data="{&quot;index&quot;:null}" fill="#a0a0a0" stroke-width="0.5"/><path d="M280.62501,-14.33333c0.82843,0 1.5,0.67157 1.5,1.5c0,0.82843 -0.67157,1.5 -1.5,1.5c-0.82843,0 -1.5,-0.67157 -1.5,-1.5c0,-0.82843 0.67157,-1.5 1.5,-1.5z" data-paper-data="{&quot;index&quot;:null}" fill="#a0a0a0" stroke-width="0.5"/><path d="M345.29167,-2.33333c0.82843,0 1.5,0.67157 1.5,1.5c0,0.82843 -0.67157,1.5 -1.5,1.5c-0.82843,0 -1.5,-0.67157 -1.5,-1.5c0,-0.82843 0.67157,-1.5 1.5,-1.5z" data-paper-data="{&quot;index&quot;:null}" fill="#a0a0a0" stroke-width="0.5"/><path d="M315.95834,12.5c0.55228,0 1,0.44772 1,1c0,0.55228 -0.44772,1 -1,1c-0.55228,0 -1,-0.44772 -1,-1c0,-0.55228 0.44772,-1 1,-1z" data-paper-data="{&quot;index&quot;:null}" fill="#a0a0a0" stroke-width="0.5"/><path d="M267.29167,128.83333c0.55228,0 1,0.44772 1,1c0,0.55228 -0.44772,1 -1,1c-0.55228,0 -1,-0.44772 -1,-1c0,-0.55228 0.44772,-1 1,-1z" data-paper-data="{&quot;index&quot;:null}" fill="#a0a0a0" stroke-width="0.5"/><path d="M102.95834,295.83333c0.55228,0 1,0.44772 1,1c0,0.55228 -0.44772,1 -1,1c-0.55228,0 -1,-0.44772 -1,-1c0,-0.55228 0.44772,-1 1,-1z" data-paper-data="{&quot;index&quot;:null}" fill="#a0a0a0" stroke-width="0.5"/><path d="M113.75,267.79246c0,-1.38071 1.11929,-2.5 2.5,-2.5c1.38071,0 2.5,1.11929 2.5,2.5c0,1.38071 -1.11929,2.5 -2.5,2.5c-1.38071,0 -2.5,-1.11929 -2.5,-2.5z" fill="#ffffff" stroke-width="0.5"/><path d="M-32.5,609.00001v-646h543v646z" fill="none" stroke-width="0"/></g></g></svg>