<svg version="1.1" xmlns="http://www.w3.org/2000/svg" xmlns:xlink="http://www.w3.org/1999/xlink" width="88.66667" height="247.82453" viewBox="0,0,88.66667,247.82453"><defs><linearGradient x1="227.38921" y1="289.20627" x2="227.38921" y2="293.20991" gradientUnits="userSpaceOnUse" id="color-1"><stop offset="0" stop-color="#fa0000"/><stop offset="1" stop-color="#cd0000"/></linearGradient><linearGradient x1="227.32423" y1="285.60302" x2="227.32423" y2="289.94028" gradientUnits="userSpaceOnUse" id="color-2"><stop offset="0" stop-color="#ff0000"/><stop offset="1" stop-color="#ef0000"/></linearGradient></defs><g transform="translate(-196.53335,-79.43598)"><g data-paper-data="{&quot;isPaintingLayer&quot;:true}" fill-rule="nonzero" stroke-linejoin="miter" stroke-miterlimit="10" stroke-dasharray="" stroke-dashoffset="0" style="mix-blend-mode: normal"><path d="M232.51759,319.17639c0,0 0.01884,-3.55488 1.15499,-6.31141c0.71941,-1.74545 2.4436,-3.17079 3.12056,-3.17079c1.31396,0 3.79838,0 6.04152,0c0.99559,0 2.78016,1.5406 3.55724,3.37984c1.15076,2.72371 1.09008,6.10236 1.09008,6.10236z" fill="#2c3132" stroke="none" stroke-width="0" stroke-linecap="butt"/><path d="M235.81155,310.15648l-4.29482,-4.28773h16.96667l-4.29482,4.28773z" fill="#0e0b12" stroke="none" stroke-width="0" stroke-linecap="butt"/><path d="M253.24394,309.475l-2.94531,-2.33333c0,0 5.58517,-34.85714 8.34428,-34.85714c2.71519,0 8.08072,34.85714 8.08072,34.85714l-2.94531,2.33333z" data-paper-data="{&quot;index&quot;:null}" fill="#0e0b12" stroke="none" stroke-width="0" stroke-linecap="butt"/><path d="M216.21334,316.79339c0,0 0.01317,-2.48592 0.80768,-4.41355c0.50308,-1.22059 1.7088,-2.21733 2.1822,-2.21733c0.91885,0 2.65619,0 4.22482,0c0.69621,0 1.94416,1.07734 2.48756,2.36351c0.80472,1.90468 0.76229,4.26736 0.76229,4.26736z" fill="#2c3132" stroke="none" stroke-width="0" stroke-linecap="butt"/><path d="M218.22779,311.23333l-1.86939,-1.92491h10.425l-1.86939,1.92491z" fill="#241b2d" stroke="none" stroke-width="0" stroke-linecap="butt"/><path d="M216.30369,309.48333l-2.9453,-2.33333c0,0 4.7781,-35.14286 7.42738,-35.14286c2.81559,0 8.99762,35.14286 8.99762,35.14286l-2.9453,2.33333z" fill="#0e0b12" stroke="none" stroke-width="0" stroke-linecap="butt"/><g data-paper-data="{&quot;index&quot;:null}" stroke="none" stroke-width="0" stroke-linecap="butt"><path d="M268.22578,314.91839c0,0 -0.04243,-2.36268 0.76229,-4.26736c0.54341,-1.28618 1.79136,-2.36351 2.48757,-2.36351c1.56862,0 3.30597,0 4.22481,0c0.47339,0 1.67911,0.99674 2.18219,2.21733c0.79451,1.92763 0.80768,4.41355 0.80768,4.41355z" fill="#2c3132"/><path d="M269.7745,308.8l-0.56257,-1.83333h8.63333l-0.56257,1.83333z" fill="#1f1827"/><path d="M267.61195,307.73333l-0.86667,-1.83333h13.3l-0.86667,1.83333z" fill="#0e0b12"/></g><path d="M201.33834,314.91839c0,0 0.01317,-2.48592 0.80768,-4.41355c0.50308,-1.22059 1.7088,-2.21733 2.1822,-2.21733c0.91885,0 2.65619,0 4.22482,0c0.69621,0 1.94416,1.07734 2.48756,2.36351c0.80472,1.90468 0.76229,4.26736 0.76229,4.26736z" fill="#2c3132" stroke="none" stroke-width="0" stroke-linecap="butt"/><path d="M202.74598,308.8l-0.56257,-1.83333h8.63333l-0.56257,1.83333z" fill="#1f1827" stroke="none" stroke-width="0" stroke-linecap="butt"/><path d="M200.85007,307.73333l-0.86667,-1.83333h13.3l-0.86667,1.83333z" fill="#0e0b12" stroke="none" stroke-width="0" stroke-linecap="butt"/><path d="M257.66211,294.78393l-0.25,-48.375h10.125c0,0 1.48641,3.67378 2.99502,8.66429c1.67018,5.52496 3.42397,12.63555 4.45304,17.54419c2.18357,10.41562 3.55194,22.33319 3.55194,22.33319z" fill="#b2bfc9" stroke="#422109" stroke-width="0" stroke-linecap="butt"/><path d="M199.96933,305.9506c0,0 2.86837,-23.0009 5.05194,-33.41652c1.02907,-4.90864 1.98286,9.38077 3.65303,3.85581c1.50861,-4.99051 2.39502,1.73571 2.39502,1.73571l11.625,-4.5l-0.1,32.325z" fill="#19161c" stroke="#422109" stroke-width="0" stroke-linecap="butt"/><path d="M201.46934,294.9506c0,0 1.36837,-11.91757 3.55194,-22.33319c1.02907,-4.90864 2.78286,-12.01923 4.45304,-17.54419c1.50861,-4.99051 2.99502,-8.66429 2.99502,-8.66429h10.125l-0.25,48.375z" fill="#b2bfc9" stroke="#422109" stroke-width="0" stroke-linecap="butt"/><path d="M207.93759,260.775l0.75,-2.875h4.125l0.125,2.875z" fill="#fc8504" stroke="#000000" stroke-width="0" stroke-linecap="butt"/><g fill="#c0cddf" stroke="none" stroke-width="0" stroke-linecap="butt"><path d="M218.60008,233.8l9.6,-42.6l2.4,5.4l-2.2,37.2z" data-paper-data="{&quot;index&quot;:null}"/><path d="M251.60008,233.8l-2.2,-37.2l2.4,-5.4l9.6,42.6z"/></g><path d="M227.30009,254.875v-50.825h25.2v50.825z" fill="#9cacbf" stroke="none" stroke-width="0" stroke-linecap="butt"/><path d="M227.30009,214.9v-36.8h25.2v36.8z" fill="#f9850e" stroke="none" stroke-width="0" stroke-linecap="butt"/><path d="M219.34509,175.36563c0,0 0.35455,-4.75559 1.4649,-10.05327c1.04119,-4.9677 2.79523,-10.38793 4.13334,-13.51635c2.46612,-5.7656 10.19836,-13.36162 10.19836,-13.36162l0.45784,14.90233c0,0 -6.05677,7.86636 -8.81156,11.5998c-1.55517,2.10765 -4.63084,6.97378 -6.08684,8.99111c-1.03441,1.43321 -1.35605,1.438 -1.35605,1.438z" fill="#50414a" stroke="none" stroke-width="0" stroke-linecap="butt"/><path d="M259.29895,173.92763c-1.45599,-2.01733 -4.53167,-6.88346 -6.08684,-8.99111c-2.75479,-3.73344 -8.81156,-11.5998 -8.81156,-11.5998l0.45784,-14.90233c0,0 7.73224,7.59602 10.19836,13.36162c1.33812,3.12842 3.09215,8.54865 4.13334,13.51635c1.11035,5.29769 1.4649,10.05327 1.4649,10.05327c0,0 -0.32163,-0.00479 -1.35604,-1.438z" data-paper-data="{&quot;index&quot;:null}" fill="#50414a" stroke="none" stroke-width="0" stroke-linecap="butt"/><path d="M226.10008,176.4v-34.6h27.8v34.6z" fill="#9aabbe" stroke="none" stroke-width="0" stroke-linecap="butt"/><path d="M226.10008,142.56429v-20.2h27.8v20.2z" fill="#4b4249" stroke="none" stroke-width="0" stroke-linecap="butt"/><path d="M226.00009,122.87778c0,0 5.99779,-18.38889 9.875,-20.5c1.19265,-0.64939 2.7235,-1.05556 4,-1.05556c1.75029,0 3.4592,0.52825 4.5,1.05556c4.16695,2.11111 9.625,20.5 9.625,20.5z" fill="#28252b" stroke="none" stroke-width="NaN" stroke-linecap="butt"/><path d="M242.12509,130.15v-2.5h4.25v2.5z" fill="#28252b" stroke="none" stroke-width="0" stroke-linecap="butt"/><path d="M226.00009,141.7v-4.6h28v4.6z" fill="#cfa661" stroke="none" stroke-width="0" stroke-linecap="butt"/><g fill="#290900" stroke="none" stroke-width="0" stroke-linecap="butt"><path d="M227.79652,139.39329v-2.28571h1.71428v2.28571z"/><path d="M226.09174,141.68852v-2.28571h1.71429v2.28571z"/></g><g fill="#290900" stroke="none" stroke-width="0" stroke-linecap="butt"><path d="M231.19651,139.39329v-2.28571h1.71428v2.28571z"/><path d="M229.49174,141.68852v-2.28571h1.71429v2.28571z"/></g><g fill="#290900" stroke="none" stroke-width="0" stroke-linecap="butt"><path d="M234.59652,139.39329v-2.28571h1.71428v2.28571z"/><path d="M232.89175,141.68852v-2.28571h1.71429v2.28571z"/></g><g fill="#290900" stroke="none" stroke-width="0" stroke-linecap="butt"><path d="M237.99652,139.39329v-2.28571h1.71428v2.28571z"/><path d="M236.29175,141.68852v-2.28571h1.71429v2.28571z"/></g><g fill="#290900" stroke="none" stroke-width="0" stroke-linecap="butt"><path d="M241.39652,139.39329v-2.28571h1.71428v2.28571z"/><path d="M239.69175,141.68852v-2.28571h1.71429v2.28571z"/></g><g fill="#290900" stroke="none" stroke-width="0" stroke-linecap="butt"><path d="M244.79652,139.39329v-2.28571h1.71428v2.28571z"/><path d="M243.09174,141.68852v-2.28571h1.71429v2.28571z"/></g><g fill="#290900" stroke="none" stroke-width="0" stroke-linecap="butt"><path d="M248.19651,139.39329v-2.28571h1.71428v2.28571z"/><path d="M246.49174,141.68852v-2.28571h1.71429v2.28571z"/></g><g fill="#290900" stroke="none" stroke-width="0" stroke-linecap="butt"><path d="M251.79597,139.39329v-2.28571h1.91484v2.28571z"/><path d="M249.89175,141.68852v-2.28571h1.91484v2.28571z"/></g><path d="M227.41081,178.18572l-1.28572,-2h27.75l-1.28572,2z" fill="#7c8189" stroke="none" stroke-width="0" stroke-linecap="butt"/><path d="M237.30009,189.1v-2h5.4v2z" fill="#e27302" stroke="none" stroke-width="0" stroke-linecap="butt"/><path d="M237.30009,192.9v-2h5.4v2z" fill="#f17a02" stroke="none" stroke-width="0" stroke-linecap="butt"/><path d="M234.60008,212v-5h10.8v5z" fill="#909eb6" stroke="none" stroke-width="0" stroke-linecap="butt"/><path d="M248.70009,212v-5h3.8v5z" fill="#909eb6" stroke="none" stroke-width="0" stroke-linecap="butt"/><path d="M227.30009,212v-5h3.8v5z" fill="#909eb6" stroke="none" stroke-width="0" stroke-linecap="butt"/><path d="M227.30009,216.5v-1.8h25.2v1.8z" fill="#eae0db" stroke="none" stroke-width="0" stroke-linecap="butt"/><path d="M212.32509,245.775l6.2,-12h8.86666l2.53334,12z" fill="#b4bccd" stroke="none" stroke-width="0" stroke-linecap="butt"/><path d="M250.07509,245.775l2.42222,-12h8.97778l6.2,12z" data-paper-data="{&quot;index&quot;:null}" fill="#b4bccd" stroke="none" stroke-width="0" stroke-linecap="butt"/><path d="M225.50009,261.5v-13.2h25.6v13.2z" fill="#7d8998" stroke="none" stroke-width="0" stroke-linecap="butt"/><path d="M223.50009,306.1v-46.2h31.44848v46.2z" fill="#403e44" stroke="none" stroke-width="0" stroke-linecap="butt"/><path d="M212.37509,250.15v-4.5h17.5v4.5z" fill="#fc8504" stroke="none" stroke-width="0" stroke-linecap="butt"/><path d="M250.09326,250.15v-4.5h17.5v4.5z" fill="#fc8504" stroke="none" stroke-width="0" stroke-linecap="butt"/><path d="M201.3473,295.43571c0,0 1.3006,-9.19249 2.0326,-13.58451c0.25477,-1.52861 0.53853,-3.55327 0.90491,-5.52314c0.65738,-3.53437 1.39582,-6.89235 1.39582,-6.89235h14.94444v26z" fill="#4e494f" stroke="none" stroke-width="0" stroke-linecap="butt"/><path d="M201.80181,292.59406l0.4,-2.74721c0,0 2.91353,0 5.56121,0c0.77214,0 1.53017,1.09889 2.20021,1.09889c4.11536,0 14.73347,0.09157 14.73347,0.09157v1.55676z" data-paper-data="{&quot;index&quot;:null}" fill="#312c31" stroke="none" stroke-width="0" stroke-linecap="butt"/><path d="M235.83333,305.92072v-46h8.33333v46z" fill="#5c5962" stroke="none" stroke-width="0" stroke-linecap="butt"/><path d="M215.37509,264.65c0,0 -3,-2.4396 -3,-4.13775c0,-2.71954 0,-10.61225 0,-10.61225h17.5v10.35z" fill="#8b8e9a" stroke="none" stroke-width="0" stroke-linecap="butt"/><path d="M213.08937,299.66786c0,0 0,-24.01197 0,-31.10648c0,-3.68917 -0.71429,-8.41138 -0.71429,-8.41138h17.5v39.51785z" fill="#37353a" stroke="none" stroke-width="0" stroke-linecap="butt"/><path d="M212.38759,260.41705v-0.5h17.5v0.5z" fill="#45454d" stroke="none" stroke-width="0" stroke-linecap="butt"/><path d="M250.09214,260.3117v-0.41805h17.5v0.41805z" fill="#45454d" stroke="none" stroke-width="0" stroke-linecap="butt"/><path d="M235.06229,227.33448c0,0 3.38124,-1.46846 4.99829,-1.50192c1.60803,-0.03327 4.8773,1.63537 4.8773,1.63537" fill="none" stroke="#b1c0d3" stroke-width="1.5" stroke-linecap="round"/><path d="M199.9796,305.90518l0.11111,-1.33009c0,0 6.27697,-0.07824 8.66673,-0.07824c0.38908,0 0.82926,-0.93889 1.27764,-0.93889c1.53749,0 3.22935,0 3.22935,0l0.23228,2.34722z" data-paper-data="{&quot;index&quot;:null}" fill="#322d35" stroke="none" stroke-width="0" stroke-linecap="butt"/><path d="M257.41211,305.9506l-0.1,-32.325l11.625,4.5c0,0 0.88641,-6.72622 2.39502,-1.73571c1.67017,5.52496 2.62396,-8.76445 3.65303,-3.85581c2.18357,10.41562 5.05194,33.41652 5.05194,33.41652z" fill="#19161c" stroke="#422109" stroke-width="0" stroke-linecap="butt"/><path d="M267.06888,260.775l0.125,-2.875h4.125l0.75,2.875z" fill="#fc8504" stroke="#000000" stroke-width="0" stroke-linecap="butt"/><path d="M259.38138,295.43571v-26h14.94444c0,0 0.73844,3.35798 1.39582,6.89235c0.36638,1.96987 0.65014,3.99453 0.90491,5.52314c0.732,4.39202 2.0326,13.58451 2.0326,13.58451z" fill="#4e494f" stroke="none" stroke-width="0" stroke-linecap="butt"/><path d="M255.30977,292.59407v-1.55676c0,0 10.61811,-0.09157 14.73347,-0.09157c0.67004,0 1.42806,-1.09889 2.2002,-1.09889c2.64768,0 5.56121,0 5.56121,0l0.4,2.74721z" data-paper-data="{&quot;index&quot;:null}" fill="#312c31" stroke="none" stroke-width="0" stroke-linecap="butt"/><path d="M250.1314,260.15v-10.25h17.5c0,0 0,7.89271 0,10.61225c0,1.69815 -3,4.13775 -3,4.13775z" fill="#8b8e9a" stroke="none" stroke-width="0" stroke-linecap="butt"/><path d="M250.1314,302.79286v-42.64285h17.5c0,0 -0.71428,5.09561 -0.71428,9.07653c0,7.65553 0,33.56633 0,33.56633z" fill="#37353a" stroke="none" stroke-width="0" stroke-linecap="butt"/><path d="M250.11889,260.41705v-0.5h17.5v0.5z" fill="#45454d" stroke="none" stroke-width="0" stroke-linecap="butt"/><path d="M266.50973,305.90518l0.23228,-2.34722c0,0 1.69187,0 3.22935,0c0.44838,0 0.88855,0.93889 1.27764,0.93889c2.38976,0 8.66673,0.07824 8.66673,0.07824l0.11111,1.33009z" data-paper-data="{&quot;index&quot;:null}" fill="#333036" stroke="none" stroke-width="0" stroke-linecap="butt"/><path d="M213.00182,302.59406l0.09269,-5.74721c0,0 2.3319,0 4.26926,0c0.565,0 1.11966,1.57889 1.60995,1.57889c3.0113,0 10.86906,0.13157 10.86906,0.13157v4.07009z" data-paper-data="{&quot;index&quot;:null}" fill="#19171d" stroke="none" stroke-width="0" stroke-linecap="butt"/><path d="M213.22546,307.27302v-5.45714h16.6381v5.45714z" fill="#19171d" stroke="none" stroke-width="0" stroke-linecap="butt"/><path d="M253.40415,316.78506c0,0 -0.04243,-2.36268 0.76229,-4.26736c0.54341,-1.28618 1.79135,-2.36351 2.48756,-2.36351c1.56862,0 3.30597,0 4.22481,0c0.4734,0 1.67912,0.99674 2.1822,2.21733c0.79451,1.92763 0.80768,4.41355 0.80768,4.41355z" data-paper-data="{&quot;index&quot;:null}" fill="#2c3132" stroke="none" stroke-width="0" stroke-linecap="butt"/><path d="M255.16803,311.225l-1.86939,-1.92491h10.425l-1.86939,1.92491z" data-paper-data="{&quot;index&quot;:null}" fill="#241b2d" stroke="none" stroke-width="0" stroke-linecap="butt"/><path d="M250.23926,302.61907v-4.07009c0,0 7.85776,-0.13157 10.86906,-0.13157c0.49028,0 1.04495,-1.57889 1.60994,-1.57889c1.93737,0 4.26927,0 4.26927,0l0.09269,5.74721z" data-paper-data="{&quot;index&quot;:null}" fill="#19171d" stroke="none" stroke-width="0" stroke-linecap="butt"/><path d="M250.21848,307.26468v-5.45714h16.63809v5.45714z" data-paper-data="{&quot;index&quot;:null}" fill="#19171d" stroke="none" stroke-width="0" stroke-linecap="butt"/><path d="M196.53336,327.26051v-247.82453h88.66667v247.82453z" fill="none" stroke="none" stroke-width="NaN" stroke-linecap="butt"/><path d="M248.59323,279.13048c0,0 1.16407,0.78475 1.97228,2.90594c0.51591,1.35402 0.61006,3.72705 1.06426,5.2446c0.6864,2.29333 0.77961,4.46158 1.03941,5.56241c0.22028,0.93335 0.04442,2.2593 -0.06857,2.82272c-0.05738,0.28612 -6.68937,0.24067 -8.74505,0.21969c-0.16509,-0.00168 -0.94792,-0.30539 -1.55114,-1.0969c-0.77547,-1.01755 -1.18458,-2.57996 -1.18458,-2.57996z" data-paper-data="{&quot;index&quot;:null}" fill="#19161c" stroke="#3a3341" stroke-width="0.5" stroke-linecap="round"/><path d="M238.88506,292.07553c0,0 -0.40911,1.56241 -1.18458,2.57996c-0.60322,0.79152 -1.38605,1.09522 -1.55114,1.0969c-2.05568,0.02098 -8.68768,0.06643 -8.74505,-0.21969c-0.11299,-0.56342 -0.28885,-1.88937 -0.06857,-2.82272c0.25979,-1.10083 0.35301,-3.26908 1.03941,-5.56241c0.4542,-1.51755 0.54834,-3.89058 1.06426,-5.2446c0.80821,-2.12119 1.97228,-2.90594 1.97228,-2.90594z" fill="#19161c" stroke="#3a3341" stroke-width="0.5" stroke-linecap="round"/><path d="M226.49789,290.07373c0,0 -0.10049,-2.45054 0.20856,-3.7298c0.13736,-0.56858 0.54343,-0.60745 0.65889,-0.60745c0.09898,0 0.44041,0.14018 0.5898,0.68411c0.35006,1.2746 0.34438,3.65315 0.34438,3.65315" fill="none" stroke="#3a3341" stroke-width="1" stroke-linecap="round"/><path d="M225.38741,291.20808c0,-1.10556 0.89624,-2.00181 2.00181,-2.00181c1.10556,0 2.00181,0.89624 2.00181,2.00181c0,1.10556 -0.89624,2.00181 -2.00181,2.00181c-1.10556,0 -2.00181,-0.89624 -2.00181,-2.00181z" fill="url(#color-1)" stroke="#3a3341" stroke-width="0.5" stroke-linecap="butt"/><path d="M226.43121,289.94028c0,0 -0.10049,-2.45054 0.20856,-3.7298c0.13736,-0.56858 0.54343,-0.60745 0.65889,-0.60745c0.09898,0 0.44041,0.14018 0.5898,0.68411c0.35006,1.2746 0.34438,3.65315 0.34438,3.65315" fill="none" stroke="url(#color-2)" stroke-width="0.5" stroke-linecap="round"/><path d="M249.97203,290.33497c0,-0.74832 0.72089,-1.82442 1.26773,-2.8355c0.47878,-0.88524 0.73938,-1.763 1.39457,-1.763c0.67082,0 0.5272,1.09293 0.95253,2.00823c0.46456,0.99972 1.46773,1.85759 1.46773,2.59027c0,1.40352 -1.13776,2.54128 -2.54128,2.54128c-1.40352,0 -2.54128,-1.13778 -2.54128,-2.54128z" fill="#ffffff" stroke="#3a3341" stroke-width="0.5" stroke-linecap="butt"/><path d="M232.61669,258.56668c0,0 -0.36898,-16.7311 -0.39084,-25.56743c-0.04975,-20.10662 -0.20076,-53.18453 -0.65621,-54.1595c-0.59103,-1.2652 -1.15295,-2.64957 -1.15295,-3.33974c0,-5.70581 0,-42.48377 0,-52.16667c0,-1.48554 6.66667,-16.16667 6.66667,-16.16667" fill="none" stroke-opacity="0.16078" stroke="#ffffff" stroke-width="3" stroke-linecap="round"/><path d="M216.08336,305.66666c0,0 0.64193,-40.73613 0.45427,-42.16064c-0.19715,-1.49652 -0.72349,-3.55156 -0.68608,-5.00341c0.12933,-5.01992 0.23159,-12.14311 0.7289,-13.06892c1.62236,-3.02025 4.22588,-8.2025 4.84848,-11.43133c1.32067,-6.84903 4.82109,-25.00236 4.82109,-25.00236" fill="none" stroke-opacity="0.16078" stroke="#ffffff" stroke-width="2" stroke-linecap="round"/><path d="M202.80025,305.33334c0,0 2.26177,-19.8316 3.73155,-28.76784c1.28235,-7.79672 4.60178,-21.89883 4.60178,-21.89883" fill="none" stroke-opacity="0.16078" stroke="#ffffff" stroke-width="1.5" stroke-linecap="round"/><path d="M254.08333,208.5c0,0 1.64133,18.54704 2.25594,25.4921c0.23775,2.68662 -1.33863,9.10251 -1.15848,13.49707c0.14168,3.45614 0.73587,58.01083 0.73587,58.01083" fill="none" stroke-opacity="0.16078" stroke="#ffffff" stroke-width="2" stroke-linecap="round"/><path d="M269.50001,305.8c0,0 -0.6,-26.91897 -0.6,-36.4c0,-5.97184 0.6,-15 0.6,-15" fill="none" stroke-opacity="0.16078" stroke="#ffffff" stroke-width="1.5" stroke-linecap="round"/></g></g></svg>