<svg version="1.1" xmlns="http://www.w3.org/2000/svg" xmlns:xlink="http://www.w3.org/1999/xlink" width="482.24206" height="465.00002" viewBox="0,0,482.24206,465.00002"><defs><linearGradient x1="238.00003" y1="-48.99998" x2="238.00003" y2="4.43181" gradientUnits="userSpaceOnUse" id="color-1"><stop offset="0" stop-color="#000000"/><stop offset="1" stop-color="#000000" stop-opacity="0"/></linearGradient><linearGradient x1="239.00003" y1="416.00007" x2="239.00003" y2="353.48837" gradientUnits="userSpaceOnUse" id="color-2"><stop offset="0" stop-color="#000000"/><stop offset="1" stop-color="#000000" stop-opacity="0"/></linearGradient></defs><g transform="translate(1.12103,48.99997)"><g data-paper-data="{&quot;isPaintingLayer&quot;:true}" fill-rule="nonzero" stroke="none" stroke-width="0" stroke-linecap="butt" stroke-linejoin="miter" stroke-miterlimit="10" stroke-dasharray="" stroke-dashoffset="0" style="mix-blend-mode: normal"><path d="M85.50003,4.43181v-53.43178h305v53.43178c0,0 -53.82056,99.56822 -101,99.56822c-36.72433,0 -11.35366,-0.79787 -126.11206,-2.4543c-42.71506,-0.61655 -77.88794,-97.11391 -77.88794,-97.11391z" fill="url(#color-1)"/><path d="M164.38796,239.87143c114.7584,-1.93792 89.38774,-2.87137 126.11206,-2.87137c47.17944,0 101,116.4883 101,116.4883v62.5117h-305v-62.5117c0,0 35.17288,-112.89561 77.88794,-113.61693z" data-paper-data="{&quot;index&quot;:null}" fill="url(#color-2)"/><path d="M-1.12103,396.77072v-434.5414h121.24204v434.5414z" fill="#333333"/><path d="M359.87899,397.77072v-434.5414h121.24204v434.5414z" fill="#333333"/></g></g></svg>