<svg version="1.1" xmlns="http://www.w3.org/2000/svg" xmlns:xlink="http://www.w3.org/1999/xlink" width="20.375" height="19" viewBox="0,0,20.375,19"><g transform="translate(-229.8125,-170.5)"><g data-paper-data="{&quot;isPaintingLayer&quot;:true}" fill-rule="nonzero" stroke="none" stroke-linecap="butt" stroke-linejoin="miter" stroke-miterlimit="10" stroke-dasharray="" stroke-dashoffset="0" style="mix-blend-mode: normal"><path d="M229.8125,189.5v-19h20.375v19z" fill="none" stroke-width="0"/><path d="M239.99996,183.75707c-0.56444,0 -0.99483,-0.15875 -1.29116,-0.47625c-0.29633,-0.32455 -0.4445,-0.78669 -0.4445,-1.38641v-0.58208h1.10067v0.66675c0,0.47978 0.20108,0.71967 0.60324,0.71967c0.40217,0 0.60325,-0.23989 0.60325,-0.71967v-1.66158c0,-0.48683 -0.20108,-0.73025 -0.60325,-0.73025c-0.40216,0 -0.60324,0.24342 -0.60324,0.73025v0.0635h-1.10067l0.21167,-4.13807h3.06916v1.05833h-2.032l-0.0952,1.76741h0.0212c0.21872,-0.35983 0.55386,-0.53975 1.00541,-0.53975c0.42333,0 0.74436,0.14464 0.96308,0.43392c0.21872,0.28928 0.32808,0.70908 0.32808,1.25941v1.67216c0,0.59972 -0.14816,1.06186 -0.44449,1.38641c-0.29633,0.3175 -0.72672,0.47625 -1.29117,0.47625z" fill="#ffc448" stroke-width="0.26458"/></g></g></svg>