<svg version="1.1" xmlns="http://www.w3.org/2000/svg" xmlns:xlink="http://www.w3.org/1999/xlink" width="51.77639" height="64.33827" viewBox="0,0,51.77639,64.33827"><g transform="translate(-214.11189,-147.83094)"><g data-paper-data="{&quot;isPaintingLayer&quot;:true}" fill-rule="nonzero" stroke-linecap="butt" stroke-linejoin="miter" stroke-miterlimit="10" stroke-dasharray="" stroke-dashoffset="0" style="mix-blend-mode: normal"><path d="M214.11189,205.82322c0,-13.44895 0,-44.19668 0,-51.64628c0,-3.17904 1.90861,-6.346 4.96462,-6.346c10.74686,0 35.68329,0 41.70481,0c2.55834,0 5.10696,3.16696 5.10696,6.346c0,7.51567 0,38.74459 0,52.00002c0,3.69408 -2.46794,5.99225 -4.96462,5.99225c-5.94769,0 -30.84152,0 -41.70479,0c-3.13935,0 -5.10696,-2.44546 -5.10696,-6.34599z" fill="#272727" stroke="none" stroke-width="0"/><path d="M221.75002,207.5c0,0 -3.2522,-0.02611 -3.64138,-3.51076c-1.31455,-11.7703 -0.02529,-40.27987 -0.02529,-46.80947c0,-2.76923 0.66667,-3.84644 0.66667,-3.84644c0,0 1.66989,-1.83333 4.81162,-1.83333c7.66197,0 35.85505,0.66667 35.85505,0.66667c0,0 2.73594,0.8522 3.05926,5.81947c0.65074,9.99772 0.10741,46.18053 0.10741,46.18053c0,0 -2.34693,3.43515 -4.85572,3.37446c-6.62125,-0.16019 -35.97761,-0.04112 -35.97761,-0.04112z" fill="#ffb424" stroke="none" stroke-width="NaN"/><path d="M229.2027,208.13342l-11.45175,-17.41118l-0.24707,-9.57944l20.95175,26.91118z" fill="#3b2909" stroke="none" stroke-width="0"/><path d="M250.92348,151.97613l11.45175,17.41118l0.24707,9.57944l-20.95175,-26.91118z" data-paper-data="{&quot;index&quot;:null}" fill="#3b2909" stroke="none" stroke-width="0"/><path d="M217.64878,202.29507c0,-11.61149 0,-38.15832 0,-44.59012c0,-2.7447 1.64785,-5.47898 4.28633,-5.47898c9.27857,0 30.80807,0 36.0069,0c2.20881,0 4.40922,2.73428 4.40922,5.47898c0,6.48884 0,33.45112 0,44.89553c0,3.18938 -2.13076,5.17356 -4.28633,5.17356c-5.13509,0 -26.6278,0 -36.00688,0c-2.71044,0 -4.40922,-2.11135 -4.40922,-5.47897z" fill="none" stroke="#000000" stroke-width="2"/><g font-family="Sans Serif" font-weight="normal" font-size="40" text-anchor="start"><text transform="translate(231.49841,189.04109) scale(0.24437,0.24437)" font-size="40" xml:space="preserve" fill="#000000" fill-rule="nonzero" stroke="#000000" stroke-width="4" stroke-linecap="butt" stroke-linejoin="miter" stroke-miterlimit="10" stroke-dasharray="" stroke-dashoffset="0" font-family="Sans Serif" font-weight="normal" text-anchor="start" style="mix-blend-mode: normal"><tspan x="0" dy="0">SOON</tspan></text><text transform="translate(231.5024,189.07375) scale(0.24437,0.24437)" font-size="40" xml:space="preserve" fill="#248fff" fill-rule="nonzero" stroke="#248fff" stroke-width="2" stroke-linecap="butt" stroke-linejoin="miter" stroke-miterlimit="10" stroke-dasharray="" stroke-dashoffset="0" font-family="Sans Serif" font-weight="normal" text-anchor="start" style="mix-blend-mode: normal"><tspan x="0" dy="0">SOON</tspan></text></g><g font-family="Sans Serif" font-weight="normal" font-size="40" text-anchor="start"><text transform="translate(219.66508,179.24445) scale(0.21873,0.22761)" font-size="40" xml:space="preserve" fill="#000000" fill-rule="nonzero" stroke="#000000" stroke-width="4" stroke-linecap="butt" stroke-linejoin="miter" stroke-miterlimit="10" stroke-dasharray="" stroke-dashoffset="0" font-family="Sans Serif" font-weight="normal" text-anchor="start" style="mix-blend-mode: normal"><tspan x="0" dy="0">COMING</tspan></text><text transform="translate(219.66865,179.27487) scale(0.21873,0.22761)" font-size="40" xml:space="preserve" fill="#248fff" fill-rule="nonzero" stroke="#248fff" stroke-width="2" stroke-linecap="butt" stroke-linejoin="miter" stroke-miterlimit="10" stroke-dasharray="" stroke-dashoffset="0" font-family="Sans Serif" font-weight="normal" text-anchor="start" style="mix-blend-mode: normal"><tspan x="0" dy="0">COMING</tspan></text></g></g></g></svg>