<svg version="1.1" xmlns="http://www.w3.org/2000/svg" xmlns:xlink="http://www.w3.org/1999/xlink" width="177" height="215" viewBox="0,0,177,215"><g transform="translate(-162.5,2)"><g data-paper-data="{&quot;isPaintingLayer&quot;:true}" fill-rule="nonzero" stroke-linejoin="miter" stroke-miterlimit="10" stroke-dasharray="" stroke-dashoffset="0" style="mix-blend-mode: normal"><g stroke="none" stroke-width="0" stroke-linecap="butt"><path d="M238.8158,196.28327v-28.6304h79.4536v28.6304z" fill-opacity="0.56471" fill="#19456c"/><path d="M224.92472,181.95367c-0.07277,-7.90573 22.79476,-17.15177 22.89668,-9.38671c0.17712,13.49459 -9.33518,1.90888 -9.26242,9.81461c0.03802,4.13097 4.40771,5.49776 4.43987,6.97077c0.01412,0.6471 -1.99285,-5.3727 -3.01181,-4.44123c-1.10052,1.00602 -1.21796,9.15262 -1.16084,11.08079c0.01673,0.56487 -0.83195,0.12188 -1.38023,0.06101c-6.98593,-0.77576 -12.45379,-6.76883 -12.52126,-14.09925z" fill-opacity="0.56471" fill="#19456c"/><path d="M238.289,193.01381v-28.6304h79.4536v28.6304z" fill="#94c1eb"/><path d="M224.39793,178.82957c-0.07277,-7.90573 6.16332,-14.37321 13.92871,-14.44554c7.76539,-0.07234 14.11947,6.27789 14.19224,14.18363c0.07277,7.90573 -6.16332,14.37321 -13.92871,14.44554c-7.76539,0.07234 -14.11947,-6.27789 -14.19224,-14.18362z" fill="#94c1eb"/><path d="M238.45841,194.87732v-28.6304h79.4536v28.6304z" fill="#21567e"/><path d="M224.56735,180.69309c-0.07277,-7.90573 6.16332,-14.37321 13.92871,-14.44554c7.76539,-0.07234 14.11947,6.2779 14.19224,14.18363c0.07277,7.90573 -6.16332,14.37321 -13.92871,14.44554c-7.76539,0.07233 -14.11947,-6.27789 -14.19224,-14.18362z" fill="#21567e"/><path d="M238.45841,193.86086v-28.6304h79.4536v28.6304z" fill="#3491e3"/><path d="M224.56734,179.67663c-0.07277,-7.90573 6.16333,-14.37323 13.92873,-14.44555c7.76539,-0.07233 14.11947,6.27789 14.19224,14.18362c0.07277,7.90573 -6.16333,14.37323 -13.92873,14.44555c-7.76539,0.07233 -14.11947,-6.27789 -14.19224,-14.18362z" fill="#3491e3"/></g><path d="M226.08335,180.00001c0,-7.68597 6.2307,-13.91666 13.91666,-13.91666c7.68597,0 13.91666,6.2307 13.91666,13.91666c0,7.68597 -6.2307,13.91666 -13.91666,13.91666c-7.68597,0 -13.91666,-6.2307 -13.91666,-13.91666z" fill="#3491e3" stroke="#f5f5f5" stroke-width="2.5" stroke-linecap="butt"/><g stroke="#ffffff" stroke-width="1" stroke-linecap="round"><path d="M238.68955,185.06442v-2.69371l-5.02341,-4.805c0,0 0,-3.37456 0,-4.02815c0,-0.23747 0.05824,-0.07794 0.05824,-0.07794l2.27145,-0.01942c0,0 0,-1.06982 0,-1.22281c0,-0.16198 0,-0.11192 0,-0.11192h7.93553c0,0 0,-0.06395 0,0.14561c0,0.24574 0,1.23765 0,1.23765h2.4025c0,0 0,-0.04619 0,0.39827c0,0.83979 0,4.26112 0,4.26112l-5.16901,4.22257v2.69371l2.4025,2.83932c0,0 0.05492,0 -0.43682,0c-1.68847,0 -5.89436,0 -6.77068,0c-0.39559,0 -0.0364,-0.1092 -0.0364,-0.1092z" fill="#ffb900"/><path d="M236.19483,173.45989c0,0 -0.02314,1.74721 -0.03548,2.67868c-0.01345,1.0156 -0.6246,3.18439 -0.6246,3.18439" fill="none"/><path d="M244.11979,179.36179c0,0 -0.53349,-2.16879 -0.54694,-3.18439c-0.01234,-0.93147 0.19749,-2.67868 0.19749,-2.67868" data-paper-data="{&quot;index&quot;:null}" fill="none"/></g><path d="M162.5,213v-215h177v215z" fill="none" stroke="#000000" stroke-width="0" stroke-linecap="butt"/></g></g></svg>