<svg version="1.1" xmlns="http://www.w3.org/2000/svg" xmlns:xlink="http://www.w3.org/1999/xlink" width="20.375" height="19" viewBox="0,0,20.375,19"><g transform="translate(-230.4375,-170.5)"><g data-paper-data="{&quot;isPaintingLayer&quot;:true}" fill-rule="nonzero" stroke="none" stroke-linecap="butt" stroke-linejoin="miter" stroke-miterlimit="10" stroke-dasharray="" stroke-dashoffset="0" style="mix-blend-mode: normal"><path d="M230.4375,189.5v-19h20.375v19z" fill="none" stroke-width="0"/><path d="M240.00001,183.80998c-0.5715,0 -1.00894,-0.16228 -1.31233,-0.48683c-0.30339,-0.32455 -0.45509,-0.78316 -0.45509,-1.37583v-3.89465c0,-0.59266 0.1517,-1.05127 0.45509,-1.37583c0.30339,-0.32455 0.74083,-0.48683 1.31233,-0.48683c0.57149,0 1.00893,0.16228 1.31232,0.48683c0.30339,0.32455 0.45509,0.78316 0.45509,1.37583v3.89466c0,0.59266 -0.1517,1.05127 -0.45509,1.37583c-0.30339,0.32455 -0.74083,0.48683 -1.31232,0.48683zM240.00001,182.75165c0.40216,0 0.60324,-0.24342 0.60324,-0.73025v-4.04282c0,-0.48683 -0.20108,-0.73025 -0.60324,-0.73025c-0.40217,0 -0.60325,0.24342 -0.60325,0.73025v4.04282c0,0.48683 0.20108,0.73025 0.60325,0.73025z" fill="#ffc448" stroke-width="0.26458"/></g></g></svg>