<svg version="1.1" xmlns="http://www.w3.org/2000/svg" xmlns:xlink="http://www.w3.org/1999/xlink" width="93.51471" height="30.78326" viewBox="0,0,93.51471,30.78326"><g transform="translate(-224.39729,-164.3834)"><g data-paper-data="{&quot;isPaintingLayer&quot;:true}" fill-rule="nonzero" stroke-linejoin="miter" stroke-miterlimit="10" stroke-dasharray="" stroke-dashoffset="0" style="mix-blend-mode: normal"><path d="M238.28899,193.0138v-28.6304h79.4536v28.6304z" fill="#57b998" stroke="none" stroke-width="0" stroke-linecap="butt"/><path d="M224.39792,178.82956c-0.07277,-7.90573 6.16332,-14.37321 13.92871,-14.44554c7.76539,-0.07234 14.11947,6.27789 14.19224,14.18363c0.07277,7.90573 -6.16332,14.37321 -13.92871,14.44554c-7.76539,0.07234 -14.11947,-6.27789 -14.19224,-14.18362z" fill="#57b998" stroke="none" stroke-width="0" stroke-linecap="butt"/><path d="M238.4584,194.87731v-28.6304h79.4536v28.6304z" fill="#459379" stroke="none" stroke-width="0" stroke-linecap="butt"/><path d="M224.56734,180.69308c-0.07277,-7.90573 6.16332,-14.37321 13.92871,-14.44554c7.76539,-0.07234 14.11947,6.2779 14.19224,14.18363c0.07277,7.90573 -6.16332,14.37321 -13.92871,14.44554c-7.76539,0.07233 -14.11947,-6.27789 -14.19224,-14.18362z" fill="#459379" stroke="none" stroke-width="0" stroke-linecap="butt"/><path d="M238.4584,193.86085v-28.6304h79.4536v28.6304z" fill="#4a9f83" stroke="none" stroke-width="0" stroke-linecap="butt"/><path d="M224.56733,179.67662c-0.07277,-7.90573 6.16333,-14.37323 13.92873,-14.44555c7.76539,-0.07233 14.11947,6.27789 14.19224,14.18362c0.07277,7.90573 -6.16333,14.37323 -13.92873,14.44555c-7.76539,0.07233 -14.11947,-6.27789 -14.19224,-14.18362z" fill="#4a9f83" stroke="none" stroke-width="0" stroke-linecap="butt"/><path d="M226.08334,180c0,-7.68597 6.2307,-13.91666 13.91666,-13.91666c7.68597,0 13.91666,6.2307 13.91666,13.91666c0,7.68597 -6.2307,13.91666 -13.91666,13.91666c-7.68597,0 -13.91666,-6.2307 -13.91666,-13.91666z" fill="#4da487" stroke="#f5f5f5" stroke-width="2.5" stroke-linecap="butt"/><path d="M239.80403,182.0098l6.18789,2.45181v4.78687l-6.18789,-2.56856l-5.83763,2.80207v-5.13711z" fill="#306755" stroke="#59a7eb" stroke-width="0" stroke-linecap="round"/><path d="M239.779,175.64714l6.30464,2.45181v4.78687l-6.18789,-2.56856l-5.83763,2.80207v-5.13711z" fill="#3d816a" stroke="#59a7eb" stroke-width="0" stroke-linecap="round"/><path d="M239.75399,169.35134l6.18789,2.45181v4.78687l-6.18789,-2.56856l-5.83763,2.80206v-5.13711z" fill="#47977c" stroke="#59a7eb" stroke-width="0" stroke-linecap="round"/></g></g></svg>