<svg version="1.1" xmlns="http://www.w3.org/2000/svg" xmlns:xlink="http://www.w3.org/1999/xlink" width="78.30812" height="61.45701" viewBox="0,0,78.30812,61.45701"><g transform="translate(-200.84594,-149.2715)"><g data-paper-data="{&quot;isPaintingLayer&quot;:true}" fill-rule="nonzero" stroke-linecap="butt" stroke-linejoin="miter" stroke-miterlimit="10" stroke-dasharray="" stroke-dashoffset="0" style="mix-blend-mode: normal"><g fill="#bcbcbc" stroke="none" stroke-width="0"><path d="M222.775,170.52762c0,-2.92711 2.37289,-5.3 5.3,-5.3c2.92711,0 5.3,2.37289 5.3,5.3c0,2.92711 -2.37289,5.3 -5.3,5.3c-2.92711,0 -5.3,-2.37289 -5.3,-5.3z"/><path d="M246.575,170.52762c0,-2.92711 2.37289,-5.3 5.3,-5.3c2.92711,0 5.3,2.37289 5.3,5.3c0,2.92711 -2.37289,5.3 -5.3,5.3c-2.92711,0 -5.3,-2.37289 -5.3,-5.3z"/><path d="M222.775,186.42762c0,-2.92711 2.37289,-5.3 5.3,-5.3c2.92711,0 5.3,2.37289 5.3,5.3c0,2.92711 -2.37289,5.3 -5.3,5.3c-2.92711,0 -5.3,-2.37289 -5.3,-5.3z"/><path d="M246.675,186.32762c0,-2.92711 2.37289,-5.3 5.3,-5.3c2.92711,0 5.3,2.37289 5.3,5.3c0,2.92711 -2.37289,5.3 -5.3,5.3c-2.92711,0 -5.3,-2.37289 -5.3,-5.3z"/><path d="M227.425,191.67238v-26.5h24.5v26.5z"/><path d="M222.725,186.57238v-15.9h34.5v15.9z"/></g><g fill="#8f8f8f" stroke="none" stroke-width="0"><path d="M222.775,173.62762c0,-2.92711 2.37289,-5.3 5.3,-5.3c2.92711,0 5.3,2.37289 5.3,5.3c0,2.92711 -2.37289,5.3 -5.3,5.3c-2.92711,0 -5.3,-2.37289 -5.3,-5.3z"/><path d="M246.575,173.62762c0,-2.92711 2.37289,-5.3 5.3,-5.3c2.92711,0 5.3,2.37289 5.3,5.3c0,2.92711 -2.37289,5.3 -5.3,5.3c-2.92711,0 -5.3,-2.37289 -5.3,-5.3z"/><path d="M222.775,189.52762c0,-2.92711 2.37289,-5.3 5.3,-5.3c2.92711,0 5.3,2.37289 5.3,5.3c0,2.92711 -2.37289,5.3 -5.3,5.3c-2.92711,0 -5.3,-2.37289 -5.3,-5.3z"/><path d="M246.675,189.42762c0,-2.92711 2.37289,-5.3 5.3,-5.3c2.92711,0 5.3,2.37289 5.3,5.3c0,2.92711 -2.37289,5.3 -5.3,5.3c-2.92711,0 -5.3,-2.37289 -5.3,-5.3z"/><path d="M227.425,194.77238v-26.5h24.5v26.5z"/><path d="M222.725,189.67238v-15.9h34.5v15.9z"/></g><g fill="#adadad" stroke="none" stroke-width="0"><path d="M222.775,172.32762c0,-2.92711 2.37289,-5.3 5.3,-5.3c2.92711,0 5.3,2.37289 5.3,5.3c0,2.92711 -2.37289,5.3 -5.3,5.3c-2.92711,0 -5.3,-2.37289 -5.3,-5.3z"/><path d="M246.575,172.32762c0,-2.92711 2.37289,-5.3 5.3,-5.3c2.92711,0 5.3,2.37289 5.3,5.3c0,2.92711 -2.37289,5.3 -5.3,5.3c-2.92711,0 -5.3,-2.37289 -5.3,-5.3z"/><path d="M222.775,188.22762c0,-2.92711 2.37289,-5.3 5.3,-5.3c2.92711,0 5.3,2.37289 5.3,5.3c0,2.92711 -2.37289,5.3 -5.3,5.3c-2.92711,0 -5.3,-2.37289 -5.3,-5.3z"/><path d="M246.675,188.12762c0,-2.92711 2.37289,-5.3 5.3,-5.3c2.92711,0 5.3,2.37289 5.3,5.3c0,2.92711 -2.37289,5.3 -5.3,5.3c-2.92711,0 -5.3,-2.37289 -5.3,-5.3z"/><path d="M227.425,193.47238v-26.5h24.5v26.5z"/><path d="M222.725,188.37238v-15.9h34.5v15.9z"/></g><text transform="translate(231.48365,184.98052) scale(0.30191,0.34421)" font-size="40" xml:space="preserve" fill="#ffffff" fill-rule="nonzero" stroke="#ffffff" stroke-width="2" stroke-linecap="butt" stroke-linejoin="miter" stroke-miterlimit="10" stroke-dasharray="" stroke-dashoffset="0" font-family="Sans Serif" font-weight="normal" text-anchor="start" style="mix-blend-mode: normal"><tspan x="0" dy="0">Ok</tspan></text><path d="M200.84594,210.7285v-61.45701h78.30812v61.45701z" fill="none" stroke="none" stroke-width="0"/></g></g></svg>