<svg version="1.1" xmlns="http://www.w3.org/2000/svg" xmlns:xlink="http://www.w3.org/1999/xlink" width="186.58529" height="129.95511" viewBox="0,0,186.58529,129.95511"><g transform="translate(-14.03327,-314.90332)"><g data-paper-data="{&quot;isPaintingLayer&quot;:true}" fill-rule="nonzero" stroke-linecap="butt" stroke-linejoin="miter" stroke-miterlimit="10" stroke-dasharray="" stroke-dashoffset="0" style="mix-blend-mode: normal"><path d="M102.45585,378.26953v-63.33333h96.17041v63.33333z" fill="#1d0c0b" stroke="none" stroke-width="0"/><path d="M14.03327,365.4643v-50.56098h136.8176v50.56098z" fill="#9d1a01" stroke="#000000" stroke-width="0"/><path d="M174.87886,321.04269v-5.66341h25.17582v5.66341z" fill="#3d1917" stroke="none" stroke-width="0"/><path d="M151.22054,443.45843v-128c0,0 13.30719,0 28.45753,0c7.73446,0 -28.45753,128 -28.45753,128z" fill="#3d1917" stroke="none" stroke-width="0"/><path d="M151.22054,444.85843v-128c0,0 13.30719,0 28.45753,0c0.43854,0 0.88803,9.74056 1.05874,10.5169c2.84006,12.91584 -29.51627,117.4831 -29.51627,117.4831z" fill="#1d0c0b" stroke="none" stroke-width="0"/><path d="M163.99586,360.29674v-43.5021h36.6227v43.5021z" fill="#1d0c0b" stroke="none" stroke-width="0"/><path d="M134.32879,317.18091c5.43431,-1.08074 10.6443,-0.46498 11.63689,1.37533c0.99257,1.84033 -2.60815,4.2083 -8.04245,5.28903c-5.43431,1.08074 -10.6443,0.46498 -11.63689,-1.37533c-0.99257,-1.84033 2.60815,-4.2083 8.04245,-5.28903z" data-paper-data="{&quot;index&quot;:null}" fill="#8a1801" stroke="#af2007" stroke-width="1.5"/></g></g></svg>