<svg version="1.1" xmlns="http://www.w3.org/2000/svg" xmlns:xlink="http://www.w3.org/1999/xlink" width="3.59832" height="7.40831" viewBox="0,0,3.59832,7.40831"><g transform="translate(-238.20084,-176.29584)"><g data-paper-data="{&quot;isPaintingLayer&quot;:true}" fill="#000000" fill-rule="nonzero" stroke="none" stroke-width="0.26459" stroke-linecap="butt" stroke-linejoin="miter" stroke-miterlimit="10" stroke-dasharray="" stroke-dashoffset="0" style="mix-blend-mode: normal"><path d="M238.20084,176.29585h1.75683c0.59972,0 1.03717,0.14111 1.31233,0.42333c0.27517,0.27516 0.41275,0.70202 0.41275,1.28058v0.29633c0,0.381 -0.0635,0.69144 -0.1905,0.93133c-0.11994,0.23989 -0.30692,0.41275 -0.56092,0.51858v0.02117c0.57855,0.19755 0.86783,0.71261 0.86783,1.54516v0.635c0,0.5715 -0.1517,1.00894 -0.45508,1.31233c-0.29633,0.29633 -0.73377,0.4445 -1.31233,0.4445h-1.83091zM239.82009,179.31209c0.23284,0 0.4057,-0.05997 0.51858,-0.17991c0.11994,-0.11995 0.17992,-0.32103 0.17992,-0.60325v-0.41275c0,-0.26811 -0.04939,-0.46214 -0.14817,-0.58208c-0.09172,-0.11995 -0.23989,-0.17991 -0.4445,-0.17991h-0.56091v1.95791zM240.03175,182.64583c0.20461,0 0.35631,-0.05291 0.45509,-0.15875c0.09877,-0.11289 0.14816,-0.30339 0.14816,-0.5715v-0.64558c0,-0.33866 -0.05997,-0.5715 -0.17991,-0.6985c-0.11289,-0.13406 -0.3034,-0.20108 -0.5715,-0.20108h-0.51858v2.27541z"/></g></g></svg>