<svg version="1.1" xmlns="http://www.w3.org/2000/svg" xmlns:xlink="http://www.w3.org/1999/xlink" width="78" height="247.82453" viewBox="0,0,78,247.82453"><defs><linearGradient x1="227.46419" y1="289.33126" x2="227.46419" y2="293.33491" gradientUnits="userSpaceOnUse" id="color-1"><stop offset="0" stop-color="#fa0000"/><stop offset="1" stop-color="#cd0000"/></linearGradient><linearGradient x1="227.3992" y1="285.72802" x2="227.3992" y2="290.06528" gradientUnits="userSpaceOnUse" id="color-2"><stop offset="0" stop-color="#ff0000"/><stop offset="1" stop-color="#ef0000"/></linearGradient></defs><g transform="translate(-201,-75.73598)"><g data-paper-data="{&quot;isPaintingLayer&quot;:true}" fill-rule="nonzero" stroke-linejoin="miter" stroke-miterlimit="10" stroke-dasharray="" stroke-dashoffset="0" style="mix-blend-mode: normal"><path d="M256.56666,312.16666v-10h5.46667v10z" fill="#37383c" stroke="none" stroke-width="0" stroke-linecap="butt"/><path d="M217.76667,311.46667v-10h5.46667v10z" fill="#37383c" stroke="none" stroke-width="0" stroke-linecap="butt"/><path d="M236.06873,312.66753c0,0 0.01026,-1.9356 0.62888,-3.4365c0.39171,-0.95038 1.33052,-1.72647 1.69911,-1.72647c0.71544,0 2.06818,0 3.28955,0c0.54209,0 1.51377,0.83884 1.93688,1.84029c0.62658,1.48304 0.59354,3.32268 0.59354,3.32268z" fill="#2c3132" stroke="none" stroke-width="0" stroke-linecap="butt"/><path d="M252.01526,316.78882c0,0 0.01863,-3.5136 1.14157,-6.2381c0.71105,-1.72519 2.41523,-3.13397 3.08431,-3.13397c1.29869,0 3.75427,0 5.97134,0c0.98402,0 2.74787,1.5227 3.51592,3.34058c1.1374,2.69209 1.07741,6.03149 1.07741,6.03149z" fill="#2c3132" stroke="none" stroke-width="0" stroke-linecap="butt"/><path d="M213.15812,316.78882c0,0 0.01863,-3.51359 1.14158,-6.2381c0.71106,-1.72518 2.41522,-3.13397 3.08431,-3.13397c1.29869,0 3.75427,0 5.97134,0c0.98402,0 2.74788,1.5227 3.51593,3.34057c1.13741,2.69209 1.07742,6.03149 1.07742,6.03149z" fill="#2c3132" stroke="none" stroke-width="0" stroke-linecap="butt"/><path d="M236.94157,307.97057v-11.5h6.33333v11.5z" fill="#1b191b" stroke="none" stroke-width="0" stroke-linecap="butt"/><path d="M252.8,306.40615l-2.6,-2.4h18.2l-2.4,2.4z" data-paper-data="{&quot;index&quot;:null}" fill="#671603" stroke="none" stroke-width="0" stroke-linecap="butt"/><path d="M214,306.40615l-2.4,-2.4h18.2l-2.6,2.4z" fill="#671603" stroke="none" stroke-width="0" stroke-linecap="butt"/><path d="M225.24436,166.35635l-0.25801,-2.46127c0,0 3.61989,-4.15763 5.67947,-5.8779c2.12795,-1.77738 6.88981,-4.62064 6.88981,-4.62064l-0.14199,8.26127c0,0 -3.56309,0.89848 -5.42933,1.61903c-2.14992,0.83008 -6.73996,3.0795 -6.73996,3.0795z" fill="#813504" stroke="none" stroke-width="0" stroke-linecap="butt"/><path d="M247.75766,163.07685c-1.86623,-0.72055 -5.42932,-1.61903 -5.42932,-1.61903l-0.14199,-8.26127c0,0 4.76187,2.84326 6.88981,4.62063c2.05958,1.72027 5.67947,5.87789 5.67947,5.87789l-0.25802,2.46127c0,0 -4.59004,-2.24942 -6.73996,-3.0795z" data-paper-data="{&quot;index&quot;:null}" fill="#813504" stroke="none" stroke-width="0" stroke-linecap="butt"/><path d="M225.21765,227.24972l10.76577,-10.44501l7.79894,8.03844l-10.76577,10.44501z" data-paper-data="{&quot;index&quot;:null}" fill="#823708" stroke="none" stroke-width="0" stroke-linecap="butt"/><path d="M213.89091,265.23389v-94.45455h13v94.45455z" fill="#c2a49d" stroke="none" stroke-width="0" stroke-linecap="butt"/><path d="M246.78341,235.28816l-10.76577,-10.44501l7.79894,-8.03844l10.76577,10.44501z" fill="#823708" stroke="none" stroke-width="0" stroke-linecap="butt"/><path d="M235.4625,229.03617v-106.625h8.875v106.625z" fill="#925e3c" stroke="none" stroke-width="0" stroke-linecap="butt"/><path d="M235.5625,134.30144v-3.5h8.875v3.5z" fill="#f6884c" stroke="none" stroke-width="0" stroke-linecap="butt"/><path d="M261.98159,121.03232c0,0 1.19664,2.96419 1.88545,4.83837c0.95528,2.59921 3.31295,9.30592 3.31295,9.30592l-15.40933,-0.02114c0,0 2.2898,-6.69771 3.2498,-9.29309c0.6921,-1.87111 1.97421,-4.83008 1.97421,-4.83008c0,0 0.35807,-0.91811 0.92852,-1.38039c0.46603,-0.37764 1.11534,-0.55909 1.48268,-0.55909c0.37139,0 1.10161,0.16665 1.59336,0.53445c0.62634,0.46846 0.98236,1.40505 0.98236,1.40505z" fill="#e86c0a" stroke="#ff3600" stroke-width="0" stroke-linecap="round"/><path d="M252.44215,153.70719l-0.58264,-0.9225h15.3427l-0.53408,0.9225z" data-paper-data="{&quot;index&quot;:null}" fill="#7b2f00" stroke="none" stroke-width="0" stroke-linecap="butt"/><path d="M251.86693,152.86347v-17.85549h15.38155v17.85549z" data-paper-data="{&quot;index&quot;:null}" fill="#af550a" stroke="none" stroke-width="0" stroke-linecap="butt"/><path d="M213.38064,153.76007l-0.53408,-0.9225h15.3427l-0.58264,0.9225z" fill="#7b2f00" stroke="none" stroke-width="0" stroke-linecap="butt"/><path d="M212.8003,152.91635v-17.85549h15.38155v17.85549z" fill="#af550a" stroke="none" stroke-width="0" stroke-linecap="butt"/><path d="M222.96245,121.06622c0,0 1.19664,2.96419 1.88545,4.83837c0.95528,2.59921 3.31295,9.30592 3.31295,9.30592l-15.40933,-0.02114c0,0 2.2898,-6.69771 3.2498,-9.29309c0.6921,-1.87111 1.97421,-4.83008 1.97421,-4.83008c0,0 0.35806,-0.91812 0.92852,-1.38039c0.46603,-0.37764 1.11534,-0.55909 1.48268,-0.55909c0.37139,0 1.10161,0.16665 1.59336,0.53445c0.62634,0.46844 0.98237,1.40505 0.98237,1.40505z" fill="#e86c0a" stroke="#ff3600" stroke-width="0" stroke-linecap="round"/><path d="M243.98303,109.05691c0.75955,2.85778 0.38252,10.23166 0.38252,10.23166l-8.7311,-0.02324c0,0 -0.44866,-7.03415 0.31464,-10.32751c0.16373,-1.42573 0.81544,-3.0282 1.36845,-4.37123c0.60089,-1.45931 1.20332,-2.08244 1.43952,-2.34711c0.37054,-0.41521 0.88681,-0.61471 1.17888,-0.61471c0.29529,0 0.87589,0.18323 1.26688,0.58762c0.23242,0.24037 1.11237,1.27875 1.57321,2.53857c0.5266,1.43961 1.12824,3.16837 1.207,4.32594z" fill="#803808" stroke="#ff3600" stroke-width="0" stroke-linecap="round"/><path d="M235.5625,120.35352v-2.10417h8.875v2.10417z" fill="#b45f19" stroke="none" stroke-width="0" stroke-linecap="butt"/><path d="M235.5625,122.60353v-2.47917h8.875v2.47917z" fill="#b79080" stroke="none" stroke-width="0" stroke-linecap="butt"/><g fill="#a52100" stroke="none" stroke-width="0" stroke-linecap="butt"><path d="M237.1595,132.55753v-1.78675h1.52626v1.78675z"/><path d="M235.64171,134.35172v-1.78675h1.52627v1.78675z"/></g><g fill="#a52100" stroke="none" stroke-width="0" stroke-linecap="butt"><path d="M240.1595,132.55753v-1.78675h1.52626v1.78675z"/><path d="M238.64171,134.35172v-1.78675h1.52627v1.78675z"/></g><g fill="#a52100" stroke="none" stroke-width="0" stroke-linecap="butt"><path d="M243.03485,132.55753v-1.78675h1.40091v1.78675z"/><path d="M241.64171,134.35172v-1.78675h1.40092v1.78675z"/></g><path d="M235.5625,165.67645v-17.75h8.875v17.75z" fill="#b39384" stroke="none" stroke-width="0" stroke-linecap="butt"/><g stroke="none" stroke-width="0" stroke-linecap="butt"><path d="M235.5625,167.05145v-3.5h8.875v3.5z" fill="#f6884c"/><g fill="#a52100"><path d="M237.1595,165.30754v-1.78675h1.52626v1.78675z"/><path d="M235.64171,167.10173v-1.78675h1.52627v1.78675z"/></g><g fill="#a52100"><path d="M240.1595,165.30754v-1.78675h1.52626v1.78675z"/><path d="M238.64171,167.10173v-1.78675h1.52627v1.78675z"/></g><g fill="#a52100"><path d="M243.03485,165.30754v-1.78675h1.40091v1.78675z"/><path d="M241.64171,167.10173v-1.78675h1.40091v1.78675z"/></g></g><path d="M235.5625,194.00978v-15.29167h8.875v15.29167z" fill="#b39384" stroke="none" stroke-width="0" stroke-linecap="butt"/><path d="M235.8,217.16171v-12.6h8.4v12.6z" fill="#7d5133" stroke="none" stroke-width="NaN" stroke-linecap="butt"/><path d="M222.26667,294.85139v-67.9h35.43333v67.9z" fill="#62310d" stroke="none" stroke-width="0" stroke-linecap="butt"/><g stroke="none" stroke-width="0" stroke-linecap="butt"><path d="M213.95066,170.95494l-0.49234,-0.8504h14.14351l-0.5371,0.8504z" fill="#692d04"/><path d="M213.41568,170.17717v-16.4599h14.17932v16.4599z" fill="#dd680a"/></g><g stroke="none" stroke-width="0" stroke-linecap="butt"><path d="M253.01116,170.95494l-0.49233,-0.8504h14.14351l-0.5371,0.8504z" fill="#692d04"/><path d="M252.47618,170.17717v-16.4599h14.17932v16.4599z" fill="#dd680a"/></g><path d="M220.875,174.17645v-2h4.25v2z" fill="#b09186" stroke="none" stroke-width="0" stroke-linecap="butt"/><path d="M214.125,200.17645v-3.25h2.25v3.25z" fill="#b09186" stroke="none" stroke-width="0" stroke-linecap="butt"/><path d="M223.625,211.42645v-2h2v2z" fill="#b09186" stroke="none" stroke-width="0" stroke-linecap="butt"/><g stroke="none" stroke-width="0" stroke-linecap="butt"><path d="M252.97424,265.40055v-94.45454h13v94.45454z" data-paper-data="{&quot;index&quot;:null}" fill="#c2a49d"/><path d="M254.84015,174.32784v-2h4.25v2z" data-paper-data="{&quot;index&quot;:null}" fill="#b09186"/><path d="M263.59015,200.32784v-3.25h2.25v3.25z" data-paper-data="{&quot;index&quot;:null}" fill="#b09186"/><path d="M254.34015,211.57784v-2h2v2z" data-paper-data="{&quot;index&quot;:null}" fill="#b09186"/></g><path d="M227.06474,219.63662l0.5371,0.99212h-14.14351l0.49233,-0.99212z" fill="#692d04" stroke="none" stroke-width="0" stroke-linecap="butt"/><path d="M227.58838,220.55671v81.29324h-14.17932v-81.29324z" fill="#dd680a" stroke="none" stroke-width="0" stroke-linecap="butt"/><g stroke="none" stroke-width="0" stroke-linecap="butt"><path d="M266.01168,219.52554l0.5371,1.14803h-14.1435l0.49234,-1.14803z" fill="#692d04"/><path d="M266.54195,220.57554v78.921h-14.17932v-78.921z" fill="#dd680a"/></g><path d="M213.52911,286.28984v-40.73592h13.98943v40.73592z" fill="#9a4006" stroke="none" stroke-width="0" stroke-linecap="butt"/><path d="M213.36813,250.69673v-3.54721c0,0 1.78333,0 3.46156,0c0.48942,0 0.96989,1.41888 1.39459,1.41888c2.6085,0 9.33874,0.11824 9.33874,0.11824v2.01009z" fill="#c1a49f" stroke="none" stroke-width="0" stroke-linecap="butt"/><path d="M213.36244,281.05678v-31.20313h14.1561v31.20313z" fill="#c1a49f" stroke="none" stroke-width="0" stroke-linecap="butt"/><path d="M227.49663,280.94685v2.01009c0,0 -6.73024,0.11824 -9.33874,0.11824c-0.4247,0 -0.90517,1.41889 -1.39459,1.41889c-1.67822,0 -3.46156,0 -3.46156,0v-3.54721z" data-paper-data="{&quot;index&quot;:null}" fill="#c1a49f" stroke="none" stroke-width="0" stroke-linecap="butt"/><path d="M215.15058,244.80887v-1.49011h3.57627v1.49011z" fill="#ca5d00" stroke="none" stroke-width="0" stroke-linecap="butt"/><path d="M262.78527,223.06846v-1.49012h2.5332v1.49012z" fill="#ca5d00" stroke="none" stroke-width="0" stroke-linecap="butt"/><path d="M252.35475,285.81681v-40.23592h14.16264v40.23592z" fill="#9a4006" stroke="none" stroke-width="0" stroke-linecap="butt"/><path d="M252.36698,250.7237v-2.01009c0,0 6.73025,-0.11824 9.33875,-0.11824c0.42469,0 0.90517,-1.41889 1.39459,-1.41889c1.67822,0 3.46156,0 3.46156,0v3.54722z" data-paper-data="{&quot;index&quot;:null}" fill="#c1a49f" stroke="none" stroke-width="0" stroke-linecap="butt"/><path d="M252.36129,281.08375v-31.23646h14.1561v31.23646z" data-paper-data="{&quot;index&quot;:null}" fill="#c1a49f" stroke="none" stroke-width="0" stroke-linecap="butt"/><path d="M266.5543,280.47381v3.54722c0,0 -1.78333,0 -3.46156,0c-0.48942,0 -0.96989,-1.41889 -1.39459,-1.41889c-2.6085,0 -9.33875,-0.11824 -9.33875,-0.11824v-2.01009z" data-paper-data="{&quot;index&quot;:null}" fill="#c1a49f" stroke="none" stroke-width="0" stroke-linecap="butt"/><path d="M211.6,304.40615l1.8,-7.8h14.2l2.2,7.8z" fill="#be5c0d" stroke="none" stroke-width="0" stroke-linecap="butt"/><path d="M250.2,304.40615l2.2,-7.8h14.2l1.8,7.8z" data-paper-data="{&quot;index&quot;:null}" fill="#be5c0d" stroke="none" stroke-width="0" stroke-linecap="butt"/><path d="M261.8,293.85139v-1.2h2.6v1.2z" fill="#ca5d00" stroke="none" stroke-width="0" stroke-linecap="butt"/><path d="M215,289.15139v-0.8h2.2v0.8z" fill="#ca5d00" stroke="none" stroke-width="0" stroke-linecap="butt"/><path d="M219.56667,148.72645v-7.6h1v7.6z" fill="#ca5d00" stroke="none" stroke-width="0" stroke-linecap="butt"/><path d="M227.06667,148.72645v-7.6h1v7.6z" fill="#ca5d00" stroke="none" stroke-width="0" stroke-linecap="butt"/><path d="M212.81666,148.72645v-7.6h1v7.6z" fill="#ca5d00" stroke="none" stroke-width="0" stroke-linecap="butt"/><g fill="#ca5d00" stroke="none" stroke-width="0" stroke-linecap="butt"><path d="M258.73333,148.47645v-7.6h1v7.6z"/><path d="M266.23333,148.47645v-7.6h1v7.6z"/><path d="M251.98333,148.47645v-7.6h1v7.6z"/></g><path d="M234.91539,297.1039l-1.87253,-2.4h14.2l-2.02857,2.4z" fill="#671603" stroke="none" stroke-width="0" stroke-linecap="butt"/><path d="M236.2749,306.63724v-6.5h7.66667v6.5z" fill="#37383c" stroke="none" stroke-width="0" stroke-linecap="butt"/><path d="M235.06221,223.43448c0,0 3.38124,-1.46846 4.99829,-1.50192c1.60803,-0.03327 4.8773,1.63537 4.8773,1.63537" fill="none" stroke="#422109" stroke-width="1.5" stroke-linecap="round"/><path d="M201,323.56051v-247.82453h78v247.82453z" fill="none" stroke="none" stroke-width="NaN" stroke-linecap="butt"/><path d="M215.17006,303.71328c0,0 0.49508,-1.00013 1.1058,-3.08328c0.22563,-0.7696 1.01694,-1.87033 1.01694,-2.8604c0,-28.78658 0,-156.54044 0,-164.72478c0,-1.98065 3.39639,-10.18917 3.39639,-10.18917" fill="none" stroke-opacity="0.16078" stroke="#ffffff" stroke-width="2.5" stroke-linecap="round"/><path d="M237.55884,225.18711c0,0 0,-95.53319 0,-109.95804c0,-1.52583 -0.1462,-3.7986 0.16955,-5.88592c0.41379,-2.73541 1.74092,-5.15234 1.74092,-5.15234" fill="none" stroke-opacity="0.16078" stroke="#ffffff" stroke-width="1.5" stroke-linecap="round"/><path d="M253.70938,303.40641c0,0 0.49508,-1.00012 1.1058,-3.08327c0.22563,-0.76961 1.01694,-1.87033 1.01694,-2.8604c0,-28.78658 0,-156.54044 0,-164.72478c0,-1.98065 3.39639,-10.18917 3.39639,-10.18917" fill="none" stroke-opacity="0.16078" stroke="#ffffff" stroke-width="2.5" stroke-linecap="round"/><g><path d="M248.6682,279.25548c0,0 1.16407,0.78475 1.97228,2.90594c0.51591,1.35402 0.61006,3.72705 1.06426,5.2446c0.6864,2.29333 0.77961,4.46158 1.03941,5.56241c0.22028,0.93335 0.04442,2.2593 -0.06857,2.82272c-0.05738,0.28612 -6.68937,0.24067 -8.74505,0.21969c-0.16509,-0.00168 -0.94792,-0.30539 -1.55114,-1.0969c-0.77547,-1.01755 -1.18458,-2.57996 -1.18458,-2.57996z" data-paper-data="{&quot;index&quot;:null}" fill="#3b1c03" stroke="#833e07" stroke-width="0.5" stroke-linecap="round"/><path d="M238.96003,292.20053c0,0 -0.40911,1.56241 -1.18458,2.57996c-0.60322,0.79152 -1.38605,1.09522 -1.55114,1.0969c-2.05568,0.02098 -8.68768,0.06643 -8.74505,-0.21969c-0.11299,-0.56342 -0.28885,-1.88937 -0.06857,-2.82272c0.25979,-1.10083 0.35301,-3.26908 1.03941,-5.56241c0.4542,-1.51755 0.54834,-3.89058 1.06426,-5.2446c0.80821,-2.12119 1.97228,-2.90594 1.97228,-2.90594z" fill="#3b1c03" stroke="#833e07" stroke-width="0.5" stroke-linecap="round"/><path d="M226.57286,290.19873c0,0 -0.10049,-2.45054 0.20856,-3.7298c0.13736,-0.56858 0.54343,-0.60745 0.65889,-0.60745c0.09898,0 0.44041,0.14018 0.5898,0.68411c0.35006,1.2746 0.34438,3.65315 0.34438,3.65315" fill="none" stroke="#833e07" stroke-width="1" stroke-linecap="round"/><path d="M225.46238,291.33308c0,-1.10556 0.89624,-2.00181 2.00181,-2.00181c1.10556,0 2.00181,0.89624 2.00181,2.00181c0,1.10556 -0.89624,2.00181 -2.00181,2.00181c-1.10556,0 -2.00181,-0.89624 -2.00181,-2.00181z" fill="url(#color-1)" stroke="#833e07" stroke-width="0.5" stroke-linecap="butt"/><path d="M226.50619,290.06528c0,0 -0.10049,-2.45054 0.20856,-3.7298c0.13736,-0.56858 0.54343,-0.60745 0.65889,-0.60745c0.09898,0 0.44041,0.14018 0.5898,0.68411c0.35006,1.2746 0.34438,3.65315 0.34438,3.65315" fill="none" stroke="url(#color-2)" stroke-width="0.5" stroke-linecap="round"/><path d="M250.04701,290.45997c0,-0.74832 0.72089,-1.82442 1.26773,-2.8355c0.47878,-0.88524 0.73938,-1.763 1.39457,-1.763c0.67082,0 0.5272,1.09293 0.95253,2.00823c0.46456,0.99972 1.46773,1.85759 1.46773,2.59027c0,1.40352 -1.13776,2.54128 -2.54128,2.54128c-1.40352,0 -2.54128,-1.13778 -2.54128,-2.54128z" fill="#ffffff" stroke="#833e07" stroke-width="0.5" stroke-linecap="butt"/></g></g></g></svg>