<svg version="1.1" xmlns="http://www.w3.org/2000/svg" xmlns:xlink="http://www.w3.org/1999/xlink" width="28.84616" height="50.81406" viewBox="0,0,28.84616,50.81406"><g transform="translate(-225.57693,-143.60904)"><g data-paper-data="{&quot;isPaintingLayer&quot;:true}" fill-rule="nonzero" stroke="none" stroke-linecap="butt" stroke-linejoin="miter" stroke-miterlimit="10" stroke-dasharray="" stroke-dashoffset="0" style="mix-blend-mode: normal"><path d="M240.12501,183.81001c-0.58561,0 -1.03716,-0.15522 -1.35466,-0.46567c-0.31044,-0.3175 -0.46566,-0.77258 -0.46566,-1.36525v-0.65617c0,-0.36689 0.05997,-0.6738 0.17991,-0.92075c0.11995,-0.254 0.31397,-0.45155 0.58208,-0.59266v-0.02117c-0.24694,-0.13406 -0.43038,-0.3175 -0.55033,-0.55033c-0.11289,-0.23989 -0.16933,-0.54328 -0.16933,-0.91016v-0.30692c0,-0.59267 0.15169,-1.04422 0.45508,-1.35466c0.31045,-0.3175 0.75142,-0.47625 1.32291,-0.47625c0.5715,0 1.00894,0.15875 1.31233,0.47625c0.31045,0.31044 0.46567,0.762 0.46567,1.35466v0.30692c0,0.70555 -0.23989,1.19239 -0.71967,1.4605v0.02117c0.26811,0.14111 0.46214,0.33867 0.58209,0.59266c0.11994,0.24694 0.17991,0.55386 0.17991,0.92075v0.65617c0,0.59266 -0.15875,1.04775 -0.47625,1.36525c-0.31044,0.31044 -0.75847,0.46566 -1.34408,0.46566zM240.12501,179.31209c0.40923,0 0.61384,-0.24694 0.61384,-0.74083v-0.58208c0,-0.49389 -0.20461,-0.74083 -0.61384,-0.74083c-0.40922,0 -0.61383,0.24694 -0.61383,0.74083v0.58208c0,0.49389 0.20461,0.74083 0.61383,0.74083zM240.12501,182.75165c0.43745,0 0.65617,-0.27869 0.65617,-0.83608v-0.70908c0,-0.55739 -0.21872,-0.83608 -0.65617,-0.83608c-0.43744,0 -0.65616,0.27869 -0.65616,0.83608v0.70908c0,0.55739 0.21872,0.83608 0.65616,0.83608z" fill="#000000" stroke-width="0.26458"/><path d="M229.56251,189.50001v-19h20.375v19z" fill="none" stroke-width="0"/><path d="M225.57694,194.42309v-28.84615h28.84615v28.84615z" fill="none" stroke-width="0"/><path d="M225.57695,194.42309v-50.81405h28.84615v50.81406z" fill="none" stroke-width="0"/></g></g></svg>