<svg version="1.1" xmlns="http://www.w3.org/2000/svg" xmlns:xlink="http://www.w3.org/1999/xlink" width="130.75" height="105" viewBox="0,0,130.75,105"><g transform="translate(-174.625,-118)"><g data-paper-data="{&quot;isPaintingLayer&quot;:true}" fill-rule="nonzero" stroke-linejoin="miter" stroke-miterlimit="10" stroke-dasharray="" stroke-dashoffset="0" style="mix-blend-mode: normal"><path d="M218.31923,205.9655v-51.931h62.21437v51.931z" fill="#4b9de7" stroke="none" stroke-width="0" stroke-linecap="butt"/><path d="M204.09391,205.9655v-51.931h16.28199v51.931z" fill="#5dadf1" stroke="none" stroke-width="0" stroke-linecap="butt"/><path d="M199.4664,158.23354c0,-2.31907 1.87997,-4.19904 4.19904,-4.19904c2.31907,0 4.19904,1.87997 4.19904,4.19904c0,2.31907 -1.87997,4.19904 -4.19904,4.19904c-2.31907,0 -4.19904,-1.87997 -4.19904,-4.19904z" fill="#77bfff" stroke="none" stroke-width="0" stroke-linecap="butt"/><path d="M199.4664,200.82382v-42.1618h20.05257v42.1618z" fill="#77bfff" stroke="none" stroke-width="0" stroke-linecap="butt"/><path d="M203.40835,205.9655v-51.931h16.28199v51.931z" fill="#77bfff" stroke="none" stroke-width="0" stroke-linecap="butt"/><g fill="#1d3649" stroke="none" stroke-width="0.26459" stroke-linecap="butt"><path d="M226.11183,168.30152c-0.77581,0 -1.36251,-0.2182 -1.7601,-0.65457c-0.39759,-0.44609 -0.5964,-1.0813 -0.5964,-1.90557v-0.58185h1.51282v0.69822c0,0.65944 0.27638,0.98914 0.82914,0.98914c0.27154,0 0.47518,-0.07759 0.61095,-0.23273c0.14546,-0.16486 0.2182,-0.42669 0.2182,-0.78551c0,-0.42669 -0.09697,-0.80005 -0.29094,-1.12006c-0.19395,-0.32972 -0.55277,-0.72246 -1.07642,-1.17825c-0.65944,-0.58185 -1.12006,-1.10551 -1.38189,-1.57099c-0.26183,-0.47518 -0.39274,-1.00856 -0.39274,-1.60011c0,-0.8049 0.20364,-1.42553 0.61094,-1.86192c0.40731,-0.44609 0.99885,-0.66912 1.77465,-0.66912c0.76611,0 1.34311,0.22305 1.73102,0.66912c0.39759,0.4364 0.5964,1.06673 0.5964,1.89103v0.42184h-1.51282v-0.52367c0,-0.34912 -0.06788,-0.60126 -0.20367,-0.75642c-0.13576,-0.16486 -0.33457,-0.24728 -0.5964,-0.24728c-0.53336,0 -0.80005,0.32487 -0.80005,0.97461c0,0.3685 0.09697,0.71275 0.29094,1.03278c0.20364,0.32001 0.56731,0.70792 1.09098,1.16372c0.66912,0.58185 1.12976,1.11038 1.38189,1.58556c0.25213,0.47518 0.37821,1.03279 0.37821,1.67283c0,0.83398 -0.20849,1.47401 -0.62551,1.92012c-0.4073,0.44609 -1.00369,0.66912 -1.7892,0.66912z"/><path d="M229.44294,157.97363h2.3565c0.79519,0 1.3916,0.21335 1.7892,0.64005c0.39759,0.42669 0.5964,1.05217 0.5964,1.87647v1.00371c0,0.82429 -0.19879,1.44979 -0.5964,1.87649c-0.39759,0.42669 -0.99399,0.64004 -1.7892,0.64004h-0.75641v4.1457h-1.60009zM231.79944,162.55573c0.26183,0 0.45579,-0.07274 0.58185,-0.2182c0.13576,-0.14546 0.20364,-0.39275 0.20364,-0.74185v-1.20734c0,-0.34912 -0.06788,-0.5964 -0.20364,-0.74185c-0.12608,-0.14546 -0.32001,-0.2182 -0.58185,-0.2182h-0.75641v3.12747z"/><path d="M235.05781,157.97363h4.3639v1.45463h-2.76381v2.69107h2.19649v1.45463h-2.19649v3.12747h2.76381v1.45463h-4.3639z"/><path d="M240.33812,157.97363h4.3639v1.45463h-2.76381v2.69107h2.19649v1.45463h-2.19649v3.12747h2.76381v1.45463h-4.3639z"/><path d="M245.61842,157.97363h2.44379c0.79519,0 1.3916,0.21335 1.7892,0.64005c0.39759,0.42669 0.5964,1.05217 0.5964,1.87647v5.14941c0,0.82429 -0.19879,1.44979 -0.5964,1.87649c-0.39759,0.42669 -0.99399,0.64004 -1.7892,0.64004h-2.44379zM248.03312,166.70143c0.26183,0 0.46065,-0.07759 0.5964,-0.23273c0.14546,-0.15515 0.2182,-0.4073 0.2182,-0.75641v-5.29487c0,-0.34912 -0.07274,-0.60126 -0.2182,-0.75642c-0.13576,-0.15515 -0.33457,-0.23273 -0.5964,-0.23273h-0.8146v7.27317z"/></g><path d="M199.55209,201.76646c0,-2.31907 1.87997,-4.19904 4.19904,-4.19904c2.31907,0 4.19904,1.87997 4.19904,4.19904c0,2.31907 -1.87997,4.19904 -4.19904,4.19904c-2.31907,0 -4.19904,-1.87997 -4.19904,-4.19904z" fill="#77bfff" stroke="none" stroke-width="0" stroke-linecap="butt"/><text transform="translate(253.61967,180.09178) scale(0.28229,0.26337)" font-size="40" xml:space="preserve" fill="#ffffff" fill-rule="nonzero" stroke="#ffffff" stroke-width="1" stroke-linecap="butt" stroke-linejoin="miter" stroke-miterlimit="10" stroke-dasharray="" stroke-dashoffset="0" font-family="&quot;ヒラギノ角ゴ Pro W3&quot;, &quot;Hiragino Kaku Gothic Pro&quot;, Osaka, &quot;メイリオ&quot;, Meiryo, &quot;ＭＳ Ｐゴシック&quot;, &quot;MS PGothic&quot;" font-weight="normal" text-anchor="start" style="mix-blend-mode: normal"><tspan x="0" dy="0">mph</tspan></text><g fill="#1a68aa" stroke-width="0" stroke-linecap="butt"><path d="M271.89736,189.73206c0,-1.31061 1.06246,-2.37309 2.37309,-2.37309c1.31061,0 2.37309,1.06246 2.37309,2.37309c0,1.31061 -1.06246,2.37309 -2.37309,2.37309c-1.31061,0 -2.37309,-1.06246 -2.37309,-2.37309z" stroke="#ffffff"/><path d="M271.85781,199.7979c0,-1.31061 1.06246,-2.37309 2.37308,-2.37309c1.31061,0 2.37309,1.06248 2.37309,2.37309c0,1.31061 -1.06248,2.37309 -2.37309,2.37309c-1.31061,0 -2.37308,-1.06246 -2.37308,-2.37309z" stroke="#ffffff"/><path d="M223.42052,189.64636c0,-1.31061 1.06246,-2.37309 2.37308,-2.37309c1.31061,0 2.37309,1.06248 2.37309,2.37309c0,1.31061 -1.06248,2.37308 -2.37309,2.37308c-1.31061,0 -2.37308,-1.06246 -2.37308,-2.37308z" stroke="#ffffff"/><path d="M223.38096,199.76494c0,-1.31061 1.06246,-2.37309 2.37308,-2.37309c1.31061,0 2.37309,1.06248 2.37309,2.37309c0,1.31061 -1.06248,2.37309 -2.37309,2.37309c-1.31061,0 -2.37308,-1.06248 -2.37308,-2.37309z" stroke="#ffffff"/><path d="M225.49037,202.11826v-14.80541h49.30742v14.80541z" stroke="none"/><path d="M270.12542,199.8577v-9.94059h6.5128v9.94059z" stroke="none"/><path d="M223.42181,199.8577v-9.94059h6.5128v9.94059z" stroke="none"/></g><g stroke="#314e68" stroke-width="1" stroke-linecap="round"><path d="M203.04398,176.93357l6.98741,-6.59189l6.72375,6.72375z" fill="#314e68"/><path d="M204.62602,177.06542v13.57932" fill="none"/><path d="M207.52646,177.19726v10.41519" fill="none"/><path d="M210.03139,177.06543v8.83315" fill="none"/><path d="M212.53631,187.87614v-10.67888" fill="none"/><path d="M214.38204,177.19726v13.31564" fill="none"/></g><path d="M230.37065,199.37085c-0.69846,-0.11083 -1.23438,-0.3648 -1.6077,-0.76196c-0.36129,-0.39716 -0.54192,-0.90512 -0.54192,-1.52392v-0.63728h1.87865v0.73424c0,0.56339 0.3432,0.84509 1.02966,0.84509c0.68645,0 1.02963,-0.29094 1.02963,-0.87281c0,-0.3602 -0.12043,-0.68347 -0.36129,-0.96977c-0.24086,-0.29556 -0.68643,-0.63728 -1.33672,-1.02518c-0.80687,-0.48951 -1.37286,-0.94669 -1.69803,-1.37155c-0.32515,-0.42484 -0.48773,-0.90512 -0.48773,-1.44081c0,-0.60034 0.17462,-1.09446 0.52387,-1.48237c0.36129,-0.38791 0.88514,-0.64189 1.57158,-0.76196v-0.84509h1.62575v0.84509c0.69846,0.11083 1.22835,0.3648 1.58964,0.76196c0.36129,0.38791 0.54192,0.89128 0.54192,1.51008v0.27709h-1.87865v-0.37406c0,-0.57261 -0.33116,-0.85894 -0.99351,-0.85894c-0.66235,0 -0.99351,0.27709 -0.99351,0.83124c0,0.3325 0.12043,0.6419 0.36129,0.92822c0.24086,0.27709 0.68645,0.61418 1.33674,1.01133c0.80687,0.49874 1.37286,0.96514 1.69803,1.39924c0.32515,0.42484 0.48773,0.91436 0.48773,1.46851c0,0.62803 -0.18666,1.14526 -0.55998,1.55164c-0.36129,0.39716 -0.89117,0.65114 -1.58964,0.76196v0.96977h-1.62576z" fill="#ffffff" stroke="none" stroke-width="0.26458" stroke-linecap="butt"/><path d="M174.625,217.75v-75.5h130.75v75.5z" fill="none" stroke="none" stroke-width="0" stroke-linecap="butt"/><path d="M178.5,223v-105h122v105z" fill="none" stroke="none" stroke-width="0" stroke-linecap="butt"/></g></g></svg>