<svg version="1.1" xmlns="http://www.w3.org/2000/svg" xmlns:xlink="http://www.w3.org/1999/xlink" width="130.75" height="105" viewBox="0,0,130.75,105"><g transform="translate(-174.625,-118)"><g data-paper-data="{&quot;isPaintingLayer&quot;:true}" fill-rule="nonzero" stroke-linecap="butt" stroke-linejoin="miter" stroke-miterlimit="10" stroke-dasharray="" stroke-dashoffset="0" style="mix-blend-mode: normal"><path d="M174.625,217.75v-75.5h130.75v75.5z" fill="none" stroke="none" stroke-width="0"/><path d="M178.5,223v-105h122v105z" fill="none" stroke="none" stroke-width="0"/><path d="" fill="#ebb706" stroke="none" stroke-width="0"/><path d="" fill="#ebc441" stroke="none" stroke-width="0"/><path d="" fill="#ebd96b" stroke="none" stroke-width="0"/><path d="" fill="#ebd96b" stroke="none" stroke-width="0"/><path d="" fill="#ebd96b" stroke="none" stroke-width="0"/><path d="" fill="#ebd96b" stroke="none" stroke-width="0"/><g fill="#a6910a" stroke-width="0"><path d="" stroke="#ffffff"/><path d="" stroke="#ffffff"/><path d="" stroke="#ffffff"/><path d="" stroke="#ffffff"/><path d="" stroke="none"/><path d="" stroke="none"/><path d="" stroke="none"/></g><g fill="#503f10" stroke="none" stroke-width="0.26459"><path d=""/><path d=""/><path d=""/><path d=""/></g><path d="" fill="#ffffff" stroke="none" stroke-width="0.26458"/><path d="M218.31923,205.9655v-51.931h62.21437v51.931z" fill="#bf3df1" stroke="none" stroke-width="0"/><path d="M204.09391,205.9655v-51.931h16.28199v51.931z" fill="#d15dff" stroke="none" stroke-width="0"/><path d="M199.4664,158.23354c0,-2.31907 1.87997,-4.19904 4.19904,-4.19904c2.31907,0 4.19904,1.87997 4.19904,4.19904c0,2.31907 -1.87997,4.19904 -4.19904,4.19904c-2.31907,0 -4.19904,-1.87997 -4.19904,-4.19904z" fill="#a534d2" stroke="none" stroke-width="0"/><path d="M199.4664,200.82382v-42.1618h20.05257v42.1618z" fill="#a534d2" stroke="none" stroke-width="0"/><path d="M203.40835,205.9655v-51.931h16.28199v51.931z" fill="#a534d2" stroke="none" stroke-width="0"/><path d="M199.55209,201.76646c0,-2.31907 1.87997,-4.19904 4.19904,-4.19904c2.31907,0 4.19904,1.87997 4.19904,4.19904c0,2.31907 -1.87997,4.19904 -4.19904,4.19904c-2.31907,0 -4.19904,-1.87997 -4.19904,-4.19904z" fill="#a534d2" stroke="none" stroke-width="0"/><g fill="#c656f2" stroke-width="0"><path d="M271.89736,189.73206c0,-1.31061 1.06246,-2.37309 2.37309,-2.37309c1.31061,0 2.37309,1.06246 2.37309,2.37309c0,1.31061 -1.06246,2.37309 -2.37309,2.37309c-1.31061,0 -2.37309,-1.06246 -2.37309,-2.37309z" stroke="#ffffff"/><path d="M271.85781,199.7979c0,-1.31061 1.06246,-2.37309 2.37308,-2.37309c1.31061,0 2.37309,1.06248 2.37309,2.37309c0,1.31061 -1.06248,2.37309 -2.37309,2.37309c-1.31061,0 -2.37308,-1.06246 -2.37308,-2.37309z" stroke="#ffffff"/><path d="M223.42052,189.64636c0,-1.31061 1.06246,-2.37309 2.37308,-2.37309c1.31061,0 2.37309,1.06248 2.37309,2.37309c0,1.31061 -1.06248,2.37308 -2.37309,2.37308c-1.31061,0 -2.37308,-1.06246 -2.37308,-2.37308z" stroke="#ffffff"/><path d="M223.38096,199.76494c0,-1.31061 1.06246,-2.37309 2.37308,-2.37309c1.31061,0 2.37309,1.06248 2.37309,2.37309c0,1.31061 -1.06248,2.37309 -2.37309,2.37309c-1.31061,0 -2.37308,-1.06248 -2.37308,-2.37309z" stroke="#ffffff"/><path d="M225.49037,202.11826v-14.80541h49.30742v14.80541z" stroke="none"/><path d="M270.12541,199.8577v-9.94059h6.5128v9.94059z" stroke="none"/><path d="M223.42181,199.8577v-9.94059h6.5128v9.94059z" stroke="none"/></g><path d="M230.37065,199.37085c-0.69846,-0.11083 -1.23438,-0.3648 -1.6077,-0.76196c-0.36129,-0.39716 -0.54192,-0.90512 -0.54192,-1.52392v-0.63728h1.87865v0.73424c0,0.56339 0.3432,0.84509 1.02966,0.84509c0.68645,0 1.02963,-0.29094 1.02963,-0.87281c0,-0.3602 -0.12043,-0.68347 -0.36129,-0.96977c-0.24086,-0.29556 -0.68643,-0.63728 -1.33672,-1.02518c-0.80687,-0.48951 -1.37286,-0.94669 -1.69803,-1.37155c-0.32515,-0.42484 -0.48773,-0.90512 -0.48773,-1.44081c0,-0.60034 0.17462,-1.09446 0.52387,-1.48237c0.36129,-0.38791 0.88514,-0.64189 1.57158,-0.76196v-0.84509h1.62575v0.84509c0.69846,0.11083 1.22835,0.3648 1.58964,0.76196c0.36129,0.38791 0.54192,0.89128 0.54192,1.51008v0.27709h-1.87865v-0.37406c0,-0.57261 -0.33116,-0.85894 -0.99351,-0.85894c-0.66235,0 -0.99351,0.27709 -0.99351,0.83124c0,0.3325 0.12043,0.6419 0.36129,0.92822c0.24086,0.27709 0.68645,0.61418 1.33674,1.01133c0.80687,0.49874 1.37286,0.96514 1.69803,1.39924c0.32515,0.42484 0.48773,0.91436 0.48773,1.46851c0,0.62803 -0.18666,1.14526 -0.55998,1.55164c-0.36129,0.39716 -0.89117,0.65114 -1.58964,0.76196v0.96977h-1.62576z" fill="#ffffff" stroke="none" stroke-width="0.26458"/><g fill="#703189" stroke="none" stroke-width="0.26459"><path d="M223.88368,157.92681h4.73211v1.57737h-2.99701v2.91813h2.38184v1.57736h-2.38184v3.39135h2.99701v1.57736h-4.73211z"/><path d="M230.95028,157.92681h2.3503l1.7982,11.04162h-1.73511l-0.31547,-2.19254v0.03154h-1.97171l-0.31548,2.161h-1.60892zM232.84314,165.30893l-0.77291,-5.4577h-0.03155l-0.75714,5.4577z"/><path d="M235.93477,157.92681h2.57111c0.89384,0 1.54584,0.21034 1.95596,0.63096c0.41011,0.41011 0.61518,1.04631 0.61518,1.90863v0.67826c0,1.14623 -0.37856,1.87182 -1.13572,2.17678v0.03155c0.42063,0.12619 0.71508,0.38383 0.88333,0.77291c0.17876,0.38907 0.26816,0.90962 0.26816,1.56161v1.94016c0,0.31547 0.0105,0.5731 0.03154,0.77291c0.02104,0.18929 0.07361,0.37857 0.15772,0.56786h-1.76665c-0.0631,-0.17876 -0.10515,-0.34701 -0.12619,-0.50476c-0.02104,-0.15775 -0.03155,-0.44167 -0.03155,-0.85178v-2.01905c0,-0.50476 -0.08412,-0.85705 -0.25238,-1.05684c-0.15775,-0.1998 -0.43639,-0.29971 -0.836,-0.29971h-0.59941v4.73211h-1.73511zM238.30084,162.65897c0.34702,0 0.60466,-0.08938 0.77291,-0.26815c0.17876,-0.17876 0.26815,-0.47848 0.26815,-0.8991v-0.85178c0,-0.39961 -0.07361,-0.68879 -0.22082,-0.86756c-0.13671,-0.17876 -0.35755,-0.26817 -0.66251,-0.26817h-0.78868v3.15475z"/><path d="M242.29158,157.92681h2.17677l1.68779,6.6092h0.03154v-6.60919h1.54584v11.04162h-1.78243l-2.08213,-8.06036h-0.03155v8.06036h-1.54584z"/><path d="M249.02693,157.92681h1.73511v11.04162h-1.73511z"/><path d="M252.05549,157.92681h2.17677l1.68778,6.6092h0.03155v-6.60919h1.54584v11.04162h-1.78243l-2.08213,-8.06036h-0.03155v8.06036h-1.54581z"/><path d="M261.25154,169.12617c-0.84127,0 -1.48273,-0.2366 -1.9244,-0.70981c-0.44167,-0.48372 -0.66251,-1.17251 -0.66251,-2.06635v-5.80474c0,-0.89384 0.22083,-1.57737 0.66251,-2.05058c0.44167,-0.48372 1.08313,-0.72558 1.9244,-0.72558c0.84127,0 1.48274,0.24186 1.92439,0.72558c0.44167,0.47321 0.66251,1.15674 0.66251,2.05058v0.94643h-1.64047v-1.05683c0,-0.72558 -0.2997,-1.08838 -0.89911,-1.08838c-0.59941,0 -0.8991,0.3628 -0.8991,1.08838v6.04134c0,0.71508 0.29971,1.07262 0.8991,1.07262c0.59941,0 0.89911,-0.35754 0.89911,-1.07262v-2.161h-0.86756v-1.57737h2.50802v3.61219c0,0.89384 -0.22083,1.58263 -0.66251,2.06636c-0.44167,0.47321 -1.08312,0.70981 -1.92439,0.70981z"/><path d="M267.21398,169.12617c-0.84127,0 -1.47748,-0.2366 -1.90863,-0.70981c-0.43115,-0.48372 -0.64671,-1.17251 -0.64671,-2.06635v-0.63096h1.64047v0.75713c0,0.71508 0.29971,1.07262 0.8991,1.07262c0.29445,0 0.51528,-0.08414 0.66251,-0.25239c0.15774,-0.17876 0.23659,-0.46268 0.23659,-0.85178c0,-0.4627 -0.10515,-0.86756 -0.31548,-1.21457c-0.21031,-0.35755 -0.5994,-0.78343 -1.16726,-1.27767c-0.71508,-0.63094 -1.21457,-1.1988 -1.49851,-1.70356c-0.28392,-0.51528 -0.42589,-1.09364 -0.42589,-1.73511c0,-0.87282 0.22082,-1.54584 0.6625,-2.01905c0.44167,-0.48372 1.08312,-0.72559 1.92439,-0.72559c0.83074,0 1.45646,0.24186 1.87709,0.72559c0.43115,0.47321 0.64671,1.15674 0.64671,2.05058v0.45744h-1.64047v-0.56786c0,-0.37857 -0.0736,-0.65198 -0.22082,-0.82023c-0.14722,-0.17876 -0.3628,-0.26815 -0.64672,-0.26815c-0.57837,0 -0.86755,0.35228 -0.86755,1.05683c0,0.39961 0.10516,0.77291 0.31547,1.11993c0.22082,0.34702 0.61516,0.76766 1.18302,1.26189c0.72559,0.63094 1.2251,1.20406 1.49851,1.71934c0.27341,0.51528 0.41012,1.11993 0.41012,1.81399c0,0.90437 -0.22609,1.5984 -0.67826,2.08214c-0.44167,0.48372 -1.08838,0.72559 -1.94016,0.72559z"/></g><path d="M207.5622,188.80595c-1.35358,-0.19594 -2.39213,-0.64497 -3.11559,-1.34708c-0.70013,-0.70213 -1.05019,-1.60018 -1.05019,-2.69417v-1.12665h3.64069v1.2981c0,0.99603 0.66513,1.49404 1.99539,1.49404c1.33025,0 1.99537,-0.51434 1.99537,-1.54301c0,-0.6368 -0.23338,-1.20831 -0.70013,-1.71448c-0.46675,-0.5225 -1.33025,-1.12665 -2.5905,-1.81243c-1.56362,-0.8654 -2.66051,-1.67366 -3.29063,-2.42476c-0.63012,-0.7511 -0.94518,-1.60016 -0.94518,-2.5472c0,-1.06134 0.3384,-1.93492 1.01518,-2.62069c0.70013,-0.68579 1.71533,-1.13482 3.04558,-1.34708v-1.49404h3.15058v1.49404c1.35358,0.19594 2.38044,0.64497 3.08057,1.34708c0.70013,0.68579 1.05019,1.57568 1.05019,2.66968v0.48985h-3.64067v-0.6613c0,-1.01235 -0.6418,-1.51853 -1.92538,-1.51853c-1.28358,0 -1.92536,0.48985 -1.92536,1.46955c0,0.58783 0.23338,1.13481 0.70013,1.64099c0.46675,0.48985 1.33026,1.08583 2.5905,1.78794c1.56362,0.88173 2.66051,1.70632 3.29063,2.47375c0.63012,0.7511 0.94517,1.6165 0.94517,2.59621c0,1.11033 -0.36175,2.0247 -1.08521,2.74316c-0.70013,0.70213 -1.72699,1.15114 -3.08057,1.34708v1.71447h-3.15058z" fill="#703189" stroke="none" stroke-width="0.26459"/></g></g></svg>