<svg version="1.1" xmlns="http://www.w3.org/2000/svg" xmlns:xlink="http://www.w3.org/1999/xlink" width="343.12498" height="413.63178" viewBox="0,0,343.12498,413.63178"><defs><radialGradient cx="222.625" cy="153.33337" r="63.75" gradientUnits="userSpaceOnUse" id="color-1"><stop offset="0" stop-color="#dfcc6c"/><stop offset="1" stop-color="#dfcc6c" stop-opacity="0"/></radialGradient><linearGradient x1="238.3352" y1="-26.98251" x2="238.3352" y2="277.46358" gradientUnits="userSpaceOnUse" id="color-2"><stop offset="0" stop-color="#e5cd65"/><stop offset="1" stop-color="#d0c87c"/></linearGradient><linearGradient x1="234" y1="92.83337" x2="234" y2="156.83337" gradientUnits="userSpaceOnUse" id="color-3"><stop offset="0" stop-color="#ffeebe"/><stop offset="1" stop-color="#d9ca73"/></linearGradient><radialGradient cx="182.125" cy="155.08337" r="63.75" gradientUnits="userSpaceOnUse" id="color-4"><stop offset="0" stop-color="#dfcc6c"/><stop offset="1" stop-color="#dfcc6c" stop-opacity="0"/></radialGradient><radialGradient cx="220.62655" cy="168.83337" r="63.75" gradientUnits="userSpaceOnUse" id="color-5"><stop offset="0" stop-color="#dfcc6c"/><stop offset="1" stop-color="#dfcc6c" stop-opacity="0"/></radialGradient><radialGradient cx="197.875" cy="128.08337" r="63.75" gradientUnits="userSpaceOnUse" id="color-6"><stop offset="0" stop-color="#dfcc6c"/><stop offset="1" stop-color="#dfcc6c" stop-opacity="0"/></radialGradient></defs><g transform="translate(-65.50002,26.98252)"><g data-paper-data="{&quot;isPaintingLayer&quot;:true}" fill-rule="nonzero" stroke-width="0" stroke-linecap="butt" stroke-linejoin="miter" stroke-miterlimit="10" stroke-dasharray="" stroke-dashoffset="0" style="mix-blend-mode: normal"><path d="M158.875,153.33337c0,-35.20816 28.54184,-63.75 63.75,-63.75c35.20816,0 63.75,28.54184 63.75,63.75c0,35.20816 -28.54184,63.75 -63.75,63.75c-35.20816,0 -63.75,-28.54184 -63.75,-63.75z" fill="url(#color-1)" stroke="none"/><path d="M71.99747,277.46358v-304.4461h332.67537v304.4461z" fill="url(#color-2)" stroke="none"/><path d="M164.83333,263.5l17.33333,-26.33333c0,0 15.20454,-8.52564 20.70181,-9.85465c4.33534,-1.04811 9.63153,2.52132 9.63153,2.52132c0,0 -7.43352,2.59789 -14.5053,7.10887c-5.02623,3.20615 -9.86972,8.03851 -11.73169,10.6271c-4.6249,6.42974 -10.42968,18.9307 -10.42968,18.9307z" fill="#7d6c44" stroke="none"/><path d="M112.50002,277.16666l-3.33333,-51.33333c0,0 13.31639,-5 17.99999,-5c2.47252,0 10.00001,5 10.00001,5c0,0 -7.44752,6.80381 -6.25508,14.26758c1.6539,10.35217 16.58841,37.06575 16.58841,37.06575z" fill="#a0957d" stroke="none"/><path d="M108.16669,277.16666l-3.33333,-51.33333c0,0 17.31639,-5 21.99998,-5c2.47252,0 6.66668,5 6.66668,5c0,0 -5.44752,8.80381 -4.25508,16.26758c1.6539,10.35217 13.92175,35.06575 13.92175,35.06575z" fill="#948a74" stroke="none"/><path d="M320.16668,261.83333c0,0 23.28187,-14.33706 27.89358,-22.65028c3.55411,-6.40676 4.10642,-18.68306 4.10642,-18.68306l15.66667,-2.66667l6.33333,45.66667z" fill="#7a705a" stroke="none"/><path d="M301.75633,267.01608c0,0 8.88207,-6.87502 13.82529,-19.81826c4.94614,-12.95089 3.50948,-30.19749 3.50948,-30.19749l15.15264,6.31691c0,0 -0.67858,23.25624 1.93514,32.0804c3.39923,11.47615 11.39676,16.26867 11.39676,16.26867c0,0 -17.27922,1.91299 -25.26709,1.10229c-7.20415,-0.73115 -20.55222,-5.75253 -20.55222,-5.75253z" fill="#a0957d" stroke="none"/><path d="M297.08967,263.68276c0,0 8.88207,-6.87502 13.82529,-19.81826c4.94614,-12.95089 7.50948,-30.19749 7.50948,-30.19749l11.48597,7.65024c0,0 -1.01191,21.92291 1.60181,30.74707c3.39923,11.47615 11.39676,16.26867 11.39676,16.26867c0,0 -17.27922,1.91299 -25.26709,1.10229c-7.20415,-0.73115 -20.55222,-5.75253 -20.55222,-5.75253z" fill="#948a74" stroke="none"/><path d="M297.16665,252.5c0,0 -4.75283,-12.57323 -10.61247,-17.55394c-7.19687,-6.11734 -29.38753,-16.44606 -29.38753,-16.44606l24.66667,5c0,0 10.87798,5.4569 16.21706,9.48738c5.93175,4.47789 17.78295,16.17928 17.78295,16.17928z" data-paper-data="{&quot;index&quot;:null}" fill="#a68d55" stroke="none"/><path d="M289.5619,245.49961c0,0 -10.64229,-14.86202 -20.93921,-15.27725c-6.3143,-0.25463 -21.52444,-4.27101 -34.12435,-2.80654c-12.12386,1.40914 -26.66018,2.3807 -36.32425,5.61635c-1.43609,0.48082 -2.90456,1.20096 -4.37735,2.09663c-10.90079,6.62928 -22.03853,22.87461 -22.03853,22.87461c0,0 -1.06355,5.93018 -1.84908,6.371c-1.37983,0.77434 -10.03875,-3.79823 -10.03875,-3.79823c0,0 17.93926,-29.13373 19.35594,-29.07306c1.86144,0.07971 4.45648,1.91954 6.4992,0.75151c1.79055,-1.02384 1.52371,-4.25655 3.40795,-5.88086c2.81644,-2.42792 8.06973,-3.31935 13.15435,-4.39148c4.11356,-1.30981 10.36493,-2.07203 14.26053,-2.19991c10.65028,-0.34961 22.13929,-3.27417 32.29988,-2.33434c12.19589,1.1281 22.68965,4.03797 28.10585,5.30469c6.92015,1.61847 20.23426,19.32139 20.23426,19.32139z" fill="#958151" stroke="none"/><path d="M109.5,358.5v-100.66667c0,0 -26.24816,-13 15.33334,-13c2.62977,0 42.00019,21.58182 69.7026,22.92649c26.89965,1.30571 57.7717,-2.19171 85.65638,-3.82108c12.72691,-0.74366 22.2808,0.2381 35.12026,-2.39362c12.70501,-2.60416 28.05074,-2.15626 36.56441,-2.72387c17.78741,-1.1859 22.95636,-0.98793 22.95636,-0.98793v100.66667z" fill="#88703c" stroke="none"/><path d="M269.83333,282.16667l17.66667,-30.33334l10.66667,0.66667l5.33333,41.66667z" fill="#917d4e" stroke="none"/><path d="M296.11609,284.83333c0,0 -1.26456,-11.80401 -1.12517,-16.32669c0.11148,-3.61724 1.63372,4.50447 2.21504,1.02123c0.36522,-2.18837 -0.09334,-17.02787 -0.09334,-17.02787l18.1869,-4c0,0 15.20882,6.58358 18.35008,10.23345c1.14955,1.33567 12.56372,-3.66733 19.49889,-5.44452c2.62054,-0.67153 10.26823,-0.26341 10.8143,0.37108c1.99386,2.3167 -6.06108,19.50664 -6.06108,19.50664z" fill="#9f8651" stroke="none"/><path d="M106.83336,334.16668l-15.66667,-82.99999c0,0 16.90814,18.52523 18.48782,5.38802c0.1643,-1.36641 4.80919,12.1606 23.63587,8.57887c21.75515,-4.13886 35.21534,7.86499 35.01918,-5.50151c-0.02383,-1.62424 9.34165,10.94227 26.37425,6.61201c14.30018,-3.63559 0.26662,19.43856 20.18933,13.58938c18.84044,-5.53143 4.37664,11.62609 27.35644,2.09151c17.65219,-7.32409 5.47152,7.07939 11.7974,-10.35994c3.44554,-9.49874 44.98775,6.51743 45.96601,4.3393c3.58412,6.24448 10.82897,-2.27184 17.20094,-1.71777c5.69572,0.49526 10.36625,3.44636 17.90672,1.21797c1.78545,-0.52764 4.36109,1.48613 6.4276,-0.13971c1.63243,-1.28432 3.16357,-3.43576 4.55805,-5.81198c3.12499,-5.32504 5.56367,-11.77887 6.91807,-12.13248c16.32876,-4.26308 28.16232,2.84631 28.16232,2.84631l-1.66667,74z" fill="#8f7641" stroke="none"/><path d="M108.50002,337.50002l-43,-80c0,0 30.26872,25.85487 55.69756,26.57305c14.74435,0.41642 11.98034,-23.65617 30.95863,-23.74804c5.40019,0.12041 7.64714,32.15359 42.68052,33.04227c20.68902,0.52481 36.55299,-18.85265 38.91102,-13.84127c12.88962,27.3936 5.18295,11.16253 27.05211,9.25642c11.59399,-1.01053 26.04812,3.69223 40.13467,1.332c16.68146,-2.79502 14.65859,-16.00688 21.57922,-13.56898c18.52182,6.52459 61.65295,-10.04544 61.65295,-10.04544v71z" fill="#9e8242" stroke="none"/><path d="M107.6802,386.64926v-59.33334h274v59.33334z" fill="#9b7e3e" stroke="#000000"/><path d="M287.16666,252.49999l1.33334,-10.33333l8.66667,-0.33333v11z" fill="#958151" stroke="none"/><path d="M202,124.83337c0,-17.67311 14.32689,-32 32,-32c17.67311,0 32,14.32689 32,32c0,17.67311 -14.32689,32 -32,32c-17.67311,0 -32,-14.32689 -32,-32z" fill="url(#color-3)" stroke="none"/><path d="M118.375,155.08337c0,-35.20815 28.54185,-63.75 63.75,-63.75c35.20815,0 63.75,28.54185 63.75,63.75c0,35.20815 -28.54185,63.75 -63.75,63.75c-35.20815,0 -63.75,-28.54185 -63.75,-63.75z" fill="url(#color-4)" stroke="none"/><path d="M156.87655,168.83337c0,-35.20816 28.54184,-63.75 63.75,-63.75c35.20815,0 63.75,28.54184 63.75,63.75c0,35.20816 -28.54185,63.75 -63.75,63.75c-35.20816,0 -63.75,-28.54184 -63.75,-63.75z" fill="url(#color-5)" stroke="none"/><path d="M134.125,128.08337c0,-35.20816 28.54184,-63.75 63.75,-63.75c35.20816,0 63.75,28.54184 63.75,63.75c0,35.20816 -28.54184,63.75 -63.75,63.75c-35.20816,0 -63.75,-28.54185 -63.75,-63.75z" fill="url(#color-6)" stroke="none"/><path d="M91.79166,77.4167l-15.33333,10.58333c0,0 3.57397,-31.24403 11.89865,-26.90474c7.58602,3.95425 19.06639,15.78276 30.14252,17.24688c7.27862,0.96214 27.5841,-25.99505 31.5921,-20.53773c8.04355,10.95215 10.59239,18.70502 16.81991,18.10693c12.01918,-1.15432 27.71349,4.75534 27.71349,4.75534l-29.33333,10.41667c0,0 -9.13303,-13.39962 -17.69083,-13.63927c-12.56522,-0.35186 -26.97255,12.2559 -34.7071,10.81773c-11.24014,-2.09001 -21.10208,-10.84514 -21.10208,-10.84514z" fill="#f9f4d6" stroke="none"/><path d="M393.29166,19.41672c0,0 -9.86194,8.75513 -21.10208,10.84513c-7.73454,1.43817 -22.14188,-11.16959 -34.70709,-10.81773c-8.5578,0.23964 -17.69083,13.63927 -17.69083,13.63927l-29.33333,-10.41667c0,0 15.69431,-5.90966 27.71349,-4.75534c6.22752,0.59809 8.77636,-7.15478 16.81991,-18.10693c4.008,-5.45732 24.31348,21.49987 31.5921,20.53773c11.07613,-1.46412 22.5565,-13.29263 30.14252,-17.24688c8.32469,-4.33928 11.89865,26.90474 11.89865,26.90474l-15.33333,-10.58333z" data-paper-data="{&quot;index&quot;:null}" fill="#f9f4d6" stroke="none"/></g></g></svg>