<svg version="1.1" xmlns="http://www.w3.org/2000/svg" xmlns:xlink="http://www.w3.org/1999/xlink" width="169.85" height="172.15" viewBox="0,0,169.85,172.15"><g transform="translate(-155.075,-93.925)"><g data-paper-data="{&quot;isPaintingLayer&quot;:true}" fill-rule="nonzero" stroke-linecap="butt" stroke-linejoin="miter" stroke-miterlimit="10" stroke-dasharray="" stroke-dashoffset="0" style="mix-blend-mode: normal"><g stroke="none" stroke-width="0"><g><g fill="#7090aa"><path d="M312.925,104.8c0,-3.31371 2.68629,-6 6,-6c3.31371,0 6,2.68629 6,6c0,3.31371 -2.68629,6 -6,6c-3.31371,0 -6,-2.68629 -6,-6z"/><path d="M155.175,104.8c0,-3.31371 2.68629,-6 6,-6c3.31371,0 6,2.68629 6,6c0,3.31371 -2.68629,6 -6,6c-3.31371,0 -6,-2.68629 -6,-6z"/><path d="M155.175,254.8v-150.75h169.75v150.75z"/><path d="M160.925,259.55v-160.75h159.25v160.75z"/><path d="M290.925,93.925l12.75,15.5h-126.75l12.75,-15.5z" data-paper-data="{&quot;index&quot;:null}"/></g><g fill="#4a6e8b"><path d="M155.075,255.2c0,-3.31371 2.68629,-6 6,-6c3.31371,0 6,2.68629 6,6c0,3.31371 -2.68629,6 -6,6c-3.31371,0 -6,-2.68629 -6,-6z"/><path d="M312.825,255.2c0,-3.31371 2.68629,-6 6,-6c3.31371,0 6,2.68629 6,6c0,3.31371 -2.68629,6 -6,6c-3.31371,0 -6,-2.68629 -6,-6z"/><path d="M312.825,106.45c0,-3.31371 2.68629,-6 6,-6c3.31371,0 6,2.68629 6,6c0,3.31371 -2.68629,6 -6,6c-3.31371,0 -6,-2.68629 -6,-6z"/><path d="M155.075,106.45c0,-3.31371 2.68629,-6 6,-6c3.31371,0 6,2.68629 6,6c0,3.31371 -2.68629,6 -6,6c-3.31371,0 -6,-2.68629 -6,-6z"/><path d="M155.075,256.45v-150.75h169.75v150.75z"/><path d="M160.825,261.2v-160.75h159.25v160.75z"/><path d="M189.075,266.075l-12.75,-15.5h126.75l-12.75,15.5z"/><path d="M290.825,95.575l12.75,15.5h-126.75l12.75,-15.5z" data-paper-data="{&quot;index&quot;:null}"/></g></g><path d="M194.8625,154.53929c0,-2.89949 2.35051,-5.25 5.25,-5.25c2.89949,0 5.25,2.35051 5.25,5.25c0,2.89949 -2.35051,5.25 -5.25,5.25c-2.89949,0 -5.25,-2.35051 -5.25,-5.25z" fill="#003857"/><path d="M274.55298,154.49167c0,-2.8995 2.3505,-5.25 5.25,-5.25c2.8995,0 5.25,2.3505 5.25,5.25c0,2.8995 -2.3505,5.25 -5.25,5.25c-2.8995,0 -5.25,-2.3505 -5.25,-5.25z" fill="#003857"/><path d="M274.52917,138.825c0,-2.8995 2.3505,-5.25 5.25,-5.25c2.8995,0 5.25,2.3505 5.25,5.25c0,2.8995 -2.3505,5.25 -5.25,5.25c-2.8995,0 -5.25,-2.3505 -5.25,-5.25z" fill="#003857"/><path d="M194.83869,138.80119c0,-2.8995 2.3505,-5.25 5.25,-5.25c2.8995,0 5.25,2.3505 5.25,5.25c0,2.8995 -2.3505,5.25 -5.25,5.25c-2.8995,0 -5.25,-2.3505 -5.25,-5.25z" fill="#003857"/><path d="M200.6244,159.74167v-26.16667h79.40476v26.16667z" fill="#003857"/><path d="M194.8625,154.90833v-16.5h90.16666v16.5z" fill="#003857"/></g><text transform="translate(178.19583,123.00406) scale(0.36583,0.40623)" font-size="40" xml:space="preserve" fill="#fafeff" fill-rule="nonzero" stroke="#fafeff" stroke-width="2" stroke-linecap="butt" stroke-linejoin="miter" stroke-miterlimit="10" stroke-dasharray="" stroke-dashoffset="0" font-family="Sans Serif" font-weight="normal" text-anchor="start" style="mix-blend-mode: normal"><tspan x="0" dy="0">Earned per flight:</tspan></text></g></g></svg>