<svg version="1.1" xmlns="http://www.w3.org/2000/svg" xmlns:xlink="http://www.w3.org/1999/xlink" width="78.30812" height="61.45701" viewBox="0,0,78.30812,61.45701"><g transform="translate(-200.84594,-149.27149)"><g data-paper-data="{&quot;isPaintingLayer&quot;:true}" fill-rule="nonzero" stroke-linejoin="miter" stroke-miterlimit="10" stroke-dasharray="" stroke-dashoffset="0" style="mix-blend-mode: normal"><path d="M221.68818,176.55682c0,-3.31371 2.68629,-6 6,-6c3.31371,0 6,2.68629 6,6c0,3.31371 -2.68629,6 -6,6c-3.31371,0 -6,-2.68629 -6,-6z" fill="#314d62" stroke="none" stroke-width="0" stroke-linecap="butt"/><path d="M221.68818,187.19318c0,-3.31371 2.68629,-6 6,-6c3.31371,0 6,2.68629 6,6c0,3.31371 -2.68629,6 -6,6c-3.31371,0 -6,-2.68629 -6,-6z" fill="#aa6f33" stroke="none" stroke-width="0" stroke-linecap="butt"/><path d="M221.68818,172.80682c0,-3.31371 2.68629,-6 6,-6c3.31371,0 6,2.68629 6,6c0,3.31371 -2.68629,6 -6,6c-3.31371,0 -6,-2.68629 -6,-6z" fill="#ffb974" stroke="none" stroke-width="0" stroke-linecap="butt"/><path d="M221.68818,183.44318c0,-3.31371 2.68629,-6 6,-6c3.31371,0 6,2.68629 6,6c0,3.31371 -2.68629,6 -6,6c-3.31371,0 -6,-2.68629 -6,-6z" fill="#98bddd" stroke="none" stroke-width="0" stroke-linecap="butt"/><path d="M227.51178,193.175v-22.6h25.01256v22.6z" fill="#aa6f33" stroke="none" stroke-width="0" stroke-linecap="butt"/><path d="M221.68818,187.84773v-11.67272h36.62367v11.67272z" fill="#aa6f33" stroke="none" stroke-width="0" stroke-linecap="butt"/><path d="M227.71163,189.32509v-22.50009h23.91353v22.50009z" fill="#ffb974" stroke="none" stroke-width="0" stroke-linecap="butt"/><path d="M221.68818,184.09773v-11.67272h36.62367v11.67272z" fill="#ffb974" stroke="none" stroke-width="0" stroke-linecap="butt"/><path d="M246.21195,176.55682c0,-3.31371 2.68629,-6 6,-6c3.31371,0 6,2.68629 6,6c0,3.31371 -2.68629,6 -6,6c-3.31371,0 -6,-2.68629 -6,-6z" fill="#314d62" stroke="none" stroke-width="0" stroke-linecap="butt"/><path d="M246.23009,187.175c0,-3.31371 2.68629,-6 6,-6c3.31371,0 6,2.68629 6,6c0,3.31371 -2.68629,6 -6,6c-3.31371,0 -6,-2.68629 -6,-6z" fill="#aa6f33" stroke="none" stroke-width="0" stroke-linecap="butt"/><path d="M246.21195,172.80682c0,-3.31371 2.68629,-6 6,-6c3.31371,0 6,2.68629 6,6c0,3.31371 -2.68629,6 -6,6c-3.31371,0 -6,-2.68629 -6,-6z" fill="#ffb974" stroke="none" stroke-width="0" stroke-linecap="butt"/><path d="M246.23009,183.425c0,-3.31371 2.68629,-6 6,-6c3.31371,0 6,2.68629 6,6c0,3.31371 -2.68629,6 -6,6c-3.31371,0 -6,-2.68629 -6,-6z" fill="#98bddd" stroke="none" stroke-width="0" stroke-linecap="butt"/><path d="M246.21191,175.05682c0,-3.31371 2.68629,-6 6,-6c3.31371,0 6,2.68629 6,6c0,3.31371 -2.68629,6 -6,6c-3.31371,0 -6,-2.68629 -6,-6z" fill="#ffa64d" stroke="none" stroke-width="0" stroke-linecap="butt"/><path d="M246.23013,185.675c0,-3.31371 2.68629,-6 6,-6c3.31371,0 6,2.68629 6,6c0,3.31371 -2.68629,6 -6,6c-3.31371,0 -6,-2.68629 -6,-6z" fill="#ffa64d" stroke="none" stroke-width="0" stroke-linecap="butt"/><path d="M227.81155,191.675v-22.6h24.41309v22.6z" fill="#ffa64d" stroke="none" stroke-width="0" stroke-linecap="butt"/><path d="M221.68818,186.34773v-11.67273h36.62367v11.67273z" fill="#ffa64d" stroke="none" stroke-width="0" stroke-linecap="butt"/><path d="M221.68818,175.05682c0,-3.31371 2.68629,-6 6,-6c3.31371,0 6,2.68629 6,6c0,3.31371 -2.68629,6 -6,6c-3.31371,0 -6,-2.68629 -6,-6z" fill="#ffa64d" stroke="none" stroke-width="0" stroke-linecap="butt"/><path d="M221.68818,185.69318c0,-3.31371 2.68629,-6 6,-6c3.31371,0 6,2.68629 6,6c0,3.31371 -2.68629,6 -6,6c-3.31371,0 -6,-2.68629 -6,-6z" fill="#ffa64d" stroke="none" stroke-width="0" stroke-linecap="butt"/><g><path d="M229.53507,182.94437v-5.87209h4.28226v5.87209z" fill="#ffffff" stroke="none" stroke-width="0" stroke-linecap="butt"/><path d="M228.32991,181.73918v-3.38478h7.43627v3.38478z" fill="#ffffff" stroke="none" stroke-width="0" stroke-linecap="butt"/><path d="M228.32991,178.36722c0,-0.70101 0.56829,-1.26929 1.26929,-1.26929c0.70101,0 1.26929,0.56828 1.26929,1.26929c0,0.70101 -0.56829,1.26929 -1.26929,1.26929c-0.70101,0 -1.26929,-0.56829 -1.26929,-1.26929z" fill="#ffffff" stroke="#000000" stroke-width="0" stroke-linecap="butt"/><path d="M228.32991,181.70072c0,-0.70101 0.56829,-1.26929 1.26929,-1.26929c0.70101,0 1.26929,0.56829 1.26929,1.26929c0,0.70101 -0.56829,1.26929 -1.26929,1.26929c-0.70101,0 -1.26929,-0.56829 -1.26929,-1.26929z" fill="#ffffff" stroke="#000000" stroke-width="0" stroke-linecap="butt"/><path d="M232.79167,177.17485l5.41053,-5.48745" fill="none" stroke="#ffffff" stroke-width="1.5" stroke-linecap="round"/><path d="M238.12493,188.25199l-5.41018,-5.38455" fill="none" stroke="#ffffff" stroke-width="1.5" stroke-linecap="round"/><path d="M239.79202,172.40538v15.35974" fill="none" stroke="#ffffff" stroke-width="1.5" stroke-linecap="round"/><path d="M237.9714,172.31563c0,-0.50275 0.40755,-0.9103 0.9103,-0.9103c0.50275,0 0.9103,0.40756 0.9103,0.9103c0,0.50275 -0.40756,0.9103 -0.9103,0.9103c-0.50275,0 -0.9103,-0.40756 -0.9103,-0.9103z" fill="#000000" stroke="#ffffff" stroke-width="1.5" stroke-linecap="butt"/><path d="M237.97252,187.69917c0,-0.49457 0.40093,-0.8955 0.8955,-0.8955c0.49457,0 0.89551,0.40093 0.89551,0.8955c0,0.49457 -0.40094,0.89551 -0.89551,0.89551c-0.49457,0 -0.8955,-0.40094 -0.8955,-0.89551z" fill="#000000" stroke="#ffffff" stroke-width="1.5" stroke-linecap="butt"/><path d="M232.26688,182.45408l0.7164,-5.42419c0,0 2.03688,-2.1958 2.99571,-3.14558c0.34752,-0.34425 1.48033,-1.75867 2.20438,-2.0673c1.00695,-0.4292 1.60573,0.30041 1.60573,0.30041v15.55616c0,0 -0.71174,1.18002 -1.34752,0.68287c-0.11934,-0.09332 -0.2758,-0.2194 -0.45925,-0.37227c-0.72343,-0.60284 -1.8665,-1.62225 -2.80719,-2.69183c-1.26331,-1.4364 -2.90826,-2.83826 -2.90826,-2.83826z" fill="#ffffff" stroke="#000000" stroke-width="0" stroke-linecap="butt"/><path d="M241.63248,176.5271c0,0 1.00413,0.38361 1.88005,1.42638c0.67757,0.80664 0.7257,2.14141 0.7257,2.49014c0,0.40198 -0.18614,1.92875 -0.94915,2.7622c-0.81455,0.88974 -1.6566,1.2017 -1.6566,1.2017" fill="none" stroke="#ffffff" stroke-width="1" stroke-linecap="round"/><path d="M243.01525,174.14595c0,0 1.53914,0.588 2.88178,2.18638c1.03861,1.23644 1.11238,3.28241 1.11238,3.81695c0,0.61617 -0.28533,2.95643 -1.45489,4.23397c-1.24856,1.36382 -2.53927,1.84199 -2.53927,1.84199" fill="none" stroke="#ffffff" stroke-width="1" stroke-linecap="round"/><path d="M245.29351,172.45982c0,0 1.92366,0.7349 3.60172,2.73259c1.29808,1.54533 1.39028,4.10245 1.39028,4.77053c0,0.77011 -0.3566,3.69503 -1.81835,5.29173c-1.56048,1.70454 -3.17365,2.30216 -3.17365,2.30216" fill="none" stroke="#ffffff" stroke-width="1" stroke-linecap="round"/></g><path d="M200.84594,210.72851v-61.45701h78.30812v61.45701z" fill="none" stroke="none" stroke-width="0" stroke-linecap="butt"/></g></g></svg>