<svg version="1.1" xmlns="http://www.w3.org/2000/svg" xmlns:xlink="http://www.w3.org/1999/xlink" width="302.45617" height="323.97636" viewBox="0,0,302.45617,323.97636"><g transform="translate(-96.96297,-21.06501)"><g data-paper-data="{&quot;isPaintingLayer&quot;:true}" fill="#f9f4d6" fill-rule="nonzero" stroke="none" stroke-width="0" stroke-linecap="butt" stroke-linejoin="miter" stroke-miterlimit="10" stroke-dasharray="" stroke-dashoffset="0" style="mix-blend-mode: normal"><path d="M109.73795,156.28073l-12.77498,10.58333c0,0 2.97766,-31.24403 9.91337,-26.90474c6.3203,3.95425 15.88518,15.78276 25.11327,17.24688c6.06419,0.96214 22.98172,-25.99505 26.32099,-20.53773c6.70149,10.95215 8.82506,18.70502 14.01352,18.10693c10.01379,-1.15432 23.08952,4.75534 23.08952,4.75534l-24.43909,10.41667c0,0 -7.60919,-13.39962 -14.73913,-13.63927c-10.46872,-0.35186 -22.4722,12.2559 -28.91625,10.81773c-9.36473,-2.09001 -17.58122,-10.84514 -17.58122,-10.84514z"/><path d="M306.39383,43.57401c-4.12114,1.03797 -11.79769,-8.06144 -18.49272,-7.80749c-4.55979,0.17296 -9.42607,9.84388 -9.42607,9.84388l-15.62946,-7.51803c0,0 8.36228,-4.26518 14.76637,-3.43207c3.31816,0.43166 4.67624,-5.16382 8.96203,-13.06833c2.13555,-3.93872 12.95477,15.51711 16.83298,14.82271c5.90161,-1.0567 12.01861,-9.5937 16.06061,-12.4476c4.43558,-3.1318 6.33987,19.41798 6.33987,19.41798l-8.16994,-7.63831c0,0 -5.25466,6.31885 -11.24366,7.82727z" data-paper-data="{&quot;index&quot;:null}"/><path d="M371.25146,256.97831c-5.97946,1.73832 -17.11756,-13.50071 -26.83154,-13.07541c-6.61591,0.28967 -13.67652,16.48582 -13.67652,16.48582l-22.67716,-12.59065c0,0 12.13303,-7.14302 21.42488,-5.74779c4.8144,0.72291 6.78488,-8.648 13.00323,-21.88588c3.09852,-6.59627 18.79639,25.98693 24.42338,24.82399c8.56279,-1.76968 17.4381,-16.06682 23.30274,-20.84634c6.43569,-5.24491 9.19867,32.51981 9.19867,32.51981l-11.85397,-12.7921c0,0 -7.62412,10.58234 -16.31371,13.10854z" data-paper-data="{&quot;index&quot;:null}"/><path d="M122.23966,331.05778l-11.85396,10.82875c0,0 2.76298,-31.96855 9.19867,-27.52864c5.86464,4.04595 14.73995,16.14874 23.30274,17.64682c5.62699,0.98445 21.32486,-26.59785 24.42338,-21.01398c6.21835,11.20612 8.18883,19.13877 13.00323,18.52681c9.29185,-1.18109 21.42488,4.86561 21.42488,4.86561l-22.67716,10.65822c0,0 -7.06061,-13.71034 -13.67651,-13.95555c-9.71398,-0.36002 -20.85208,12.5401 -26.83154,11.06858c-8.68959,-2.13848 -16.31371,-11.09663 -16.31371,-11.09663z" data-paper-data="{&quot;index&quot;:null}"/></g></g></svg>