<svg version="1.1" xmlns="http://www.w3.org/2000/svg" xmlns:xlink="http://www.w3.org/1999/xlink" width="130.75" height="105" viewBox="0,0,130.75,105"><g transform="translate(-174.625,-118)"><g data-paper-data="{&quot;isPaintingLayer&quot;:true}" fill-rule="nonzero" stroke-linejoin="miter" stroke-miterlimit="10" stroke-dasharray="" stroke-dashoffset="0" style="mix-blend-mode: normal"><path d="" fill="#ebb706" stroke="none" stroke-width="0" stroke-linecap="butt"/><path d="" fill="#ebc441" stroke="none" stroke-width="0" stroke-linecap="butt"/><path d="" fill="#ebd96b" stroke="none" stroke-width="0" stroke-linecap="butt"/><path d="" fill="#ebd96b" stroke="none" stroke-width="0" stroke-linecap="butt"/><path d="" fill="#ebd96b" stroke="none" stroke-width="0" stroke-linecap="butt"/><path d="" fill="#ebd96b" stroke="none" stroke-width="0" stroke-linecap="butt"/><g fill="#a6910a" stroke-width="0" stroke-linecap="butt"><path d="" stroke="#ffffff"/><path d="" stroke="#ffffff"/><path d="" stroke="#ffffff"/><path d="" stroke="#ffffff"/><path d="" stroke="none"/><path d="" stroke="none"/><path d="" stroke="none"/></g><g fill="#503f10" stroke="none" stroke-width="0.26459" stroke-linecap="butt"><path d=""/><path d=""/><path d=""/><path d=""/></g><path d="" fill="#ffffff" stroke="none" stroke-width="0.26458" stroke-linecap="butt"/><path d="M218.31924,205.9655v-51.931h62.21437v51.931z" fill="#ebb706" stroke="none" stroke-width="0" stroke-linecap="butt"/><path d="M204.09392,205.9655v-51.931h16.28199v51.931z" fill="#ebc441" stroke="none" stroke-width="0" stroke-linecap="butt"/><path d="M199.46641,158.23354c0,-2.31907 1.87997,-4.19904 4.19904,-4.19904c2.31907,0 4.19904,1.87997 4.19904,4.19904c0,2.31907 -1.87997,4.19904 -4.19904,4.19904c-2.31907,0 -4.19904,-1.87997 -4.19904,-4.19904z" fill="#ebd96b" stroke="none" stroke-width="0" stroke-linecap="butt"/><path d="M199.46641,200.82382v-42.1618h20.05257v42.1618z" fill="#ebd96b" stroke="none" stroke-width="0" stroke-linecap="butt"/><path d="M203.40836,205.9655v-51.931h16.28199v51.931z" fill="#ebd96b" stroke="none" stroke-width="0" stroke-linecap="butt"/><path d="M199.5521,201.76646c0,-2.31907 1.87997,-4.19904 4.19904,-4.19904c2.31907,0 4.19904,1.87997 4.19904,4.19904c0,2.31907 -1.87997,4.19904 -4.19904,4.19904c-2.31907,0 -4.19904,-1.87997 -4.19904,-4.19904z" fill="#ebd96b" stroke="none" stroke-width="0" stroke-linecap="butt"/><text transform="translate(253.61968,180.09178) scale(0.28229,0.26337)" font-size="40" xml:space="preserve" fill="#ffffff" fill-rule="nonzero" stroke="#ffffff" stroke-width="1" stroke-linecap="butt" stroke-linejoin="miter" stroke-miterlimit="10" stroke-dasharray="" stroke-dashoffset="0" font-family="&quot;ヒラギノ角ゴ Pro W3&quot;, &quot;Hiragino Kaku Gothic Pro&quot;, Osaka, &quot;メイリオ&quot;, Meiryo, &quot;ＭＳ Ｐゴシック&quot;, &quot;MS PGothic&quot;" font-weight="normal" text-anchor="start" style="mix-blend-mode: normal"><tspan x="0" dy="0">kgal</tspan></text><g fill="#a6910a" stroke-width="0" stroke-linecap="butt"><path d="M271.89737,189.73206c0,-1.31061 1.06246,-2.37309 2.37309,-2.37309c1.31061,0 2.37309,1.06246 2.37309,2.37309c0,1.31061 -1.06246,2.37309 -2.37309,2.37309c-1.31061,0 -2.37309,-1.06246 -2.37309,-2.37309z" stroke="#ffffff"/><path d="M271.85781,199.7979c0,-1.31061 1.06246,-2.37309 2.37308,-2.37309c1.31061,0 2.37309,1.06248 2.37309,2.37309c0,1.31061 -1.06248,2.37309 -2.37309,2.37309c-1.31061,0 -2.37308,-1.06246 -2.37308,-2.37309z" stroke="#ffffff"/><path d="M223.42053,189.64636c0,-1.31061 1.06246,-2.37309 2.37308,-2.37309c1.31061,0 2.37309,1.06248 2.37309,2.37309c0,1.31061 -1.06248,2.37308 -2.37309,2.37308c-1.31061,0 -2.37308,-1.06246 -2.37308,-2.37308z" stroke="#ffffff"/><path d="M223.38097,199.76494c0,-1.31061 1.06246,-2.37309 2.37308,-2.37309c1.31061,0 2.37309,1.06248 2.37309,2.37309c0,1.31061 -1.06248,2.37309 -2.37309,2.37309c-1.31061,0 -2.37308,-1.06248 -2.37308,-2.37309z" stroke="#ffffff"/><path d="M225.49038,202.11826v-14.80541h49.30742v14.80541z" stroke="none"/><path d="M270.12541,199.8577v-9.94059h6.5128v9.94059z" stroke="none"/><path d="M223.42182,199.8577v-9.94059h6.5128v9.94059z" stroke="none"/></g><path d="M230.37066,199.37085c-0.69846,-0.11083 -1.23438,-0.3648 -1.6077,-0.76196c-0.36129,-0.39716 -0.54192,-0.90512 -0.54192,-1.52392v-0.63728h1.87865v0.73424c0,0.56339 0.3432,0.84509 1.02966,0.84509c0.68645,0 1.02963,-0.29094 1.02963,-0.87281c0,-0.3602 -0.12043,-0.68347 -0.36129,-0.96977c-0.24086,-0.29556 -0.68643,-0.63728 -1.33672,-1.02518c-0.80687,-0.48951 -1.37286,-0.94669 -1.69803,-1.37155c-0.32515,-0.42484 -0.48773,-0.90512 -0.48773,-1.44081c0,-0.60034 0.17462,-1.09446 0.52387,-1.48237c0.36129,-0.38791 0.88514,-0.64189 1.57158,-0.76196v-0.84509h1.62575v0.84509c0.69846,0.11083 1.22835,0.3648 1.58964,0.76196c0.36129,0.38791 0.54192,0.89128 0.54192,1.51008v0.27709h-1.87865v-0.37406c0,-0.57261 -0.33116,-0.85894 -0.99351,-0.85894c-0.66235,0 -0.99351,0.27709 -0.99351,0.83124c0,0.3325 0.12043,0.6419 0.36129,0.92822c0.24086,0.27709 0.68645,0.61418 1.33674,1.01133c0.80687,0.49874 1.37286,0.96514 1.69803,1.39924c0.32515,0.42484 0.48773,0.91436 0.48773,1.46851c0,0.62803 -0.18666,1.14526 -0.55998,1.55164c-0.36129,0.39716 -0.89117,0.65114 -1.58964,0.76196v0.96977h-1.62576z" fill="#ffffff" stroke="none" stroke-width="0.26458" stroke-linecap="butt"/><g fill="#503f10" stroke="none" stroke-width="0.26459" stroke-linecap="butt"><path d="M223.77311,158.03501h4.28124v1.47121h-2.66291v2.86889h2.08914v1.47122h-2.08914v4.48719h-1.61835z"/><path d="M231.18804,168.48066c-0.78465,0 -1.38296,-0.22068 -1.7949,-0.66206c-0.41195,-0.45118 -0.6179,-1.0936 -0.6179,-1.92728v-7.85631h1.61835v7.97401c0,0.35309 0.06866,0.6081 0.20597,0.76503c0.14712,0.15694 0.35308,0.23541 0.61791,0.23541c0.26483,0 0.46589,-0.07847 0.6032,-0.23541c0.14712,-0.15693 0.22068,-0.41195 0.22068,-0.76503v-7.97401h1.55949v7.85631c0,0.83368 -0.20596,1.47612 -0.61791,1.92728c-0.41195,0.44136 -1.01022,0.66206 -1.79487,0.66206z"/><path d="M234.74836,158.03501h4.41365v1.47121h-2.79532v2.72176h2.22155v1.4712h-2.22155v3.16311h2.79532v1.4712h-4.41365z"/><path d="M240.08886,158.03501h1.61835v8.8273h2.6629v1.4712h-4.28126z"/></g><g stroke-width="1"><path d="M202.69327,189.38659v-16.75205h11.11435v16.75205z" fill="#60592c" stroke="none" stroke-linecap="butt"/><path d="M216.06268,174.4064c0,0 1.244,2.95371 0.98704,4.45867c-0.16942,0.99229 0.54903,5.20707 -0.06698,6.79879c-0.89491,2.31241 -3.17514,1.95088 -3.17514,1.95088" fill="none" stroke="#60592c" stroke-linecap="round"/><path d="M217.20569,175.41144l-1.63394,-1.59585" fill="none" stroke="#60592c" stroke-linecap="round"/><path d="M204.6262,178.27224v-4.18802h7.40957v4.18802z" fill="#ebd96b" stroke="none" stroke-linecap="butt"/></g><path d="M174.625,217.75v-75.5h130.75v75.5z" fill="none" stroke="none" stroke-width="0" stroke-linecap="butt"/><path d="M178.5,223v-105h122v105z" fill="none" stroke="none" stroke-width="0" stroke-linecap="butt"/></g></g></svg>