<svg version="1.1" xmlns="http://www.w3.org/2000/svg" xmlns:xlink="http://www.w3.org/1999/xlink" width="211" height="336.43021" viewBox="0,0,211,336.43021"><defs><linearGradient x1="240" y1="122.19809" x2="240" y2="237.80191" gradientUnits="userSpaceOnUse" id="color-1"><stop offset="0" stop-color="#01ff00"/><stop offset="1" stop-color="#00a900"/></linearGradient><linearGradient x1="239.69004" y1="132.54944" x2="239.69004" y2="221.32065" gradientUnits="userSpaceOnUse" id="color-2"><stop offset="0" stop-color="#cdffb9"/><stop offset="1" stop-color="#02c205"/></linearGradient><linearGradient x1="240.30996" y1="138.67932" x2="240.30996" y2="227.45056" gradientUnits="userSpaceOnUse" id="color-3"><stop offset="0" stop-color="#02c205"/><stop offset="1" stop-color="#06940f"/></linearGradient><linearGradient x1="239.98839" y1="136.21498" x2="239.98839" y2="223.14956" gradientUnits="userSpaceOnUse" id="color-4"><stop offset="0" stop-color="#00a900"/><stop offset="1" stop-color="#01ff00"/></linearGradient></defs><g transform="translate(-134.5,50.93021)"><g data-paper-data="{&quot;isPaintingLayer&quot;:true}" fill-rule="nonzero" stroke-width="0" stroke-linejoin="miter" stroke-miterlimit="10" stroke-dasharray="" stroke-dashoffset="0" style="mix-blend-mode: normal"><path d="M170.05441,180c0,-38.62989 31.3157,-69.94559 69.94559,-69.94559c38.62989,0 69.94559,31.3157 69.94559,69.94559c0,38.62989 -31.3157,69.94559 -69.94559,69.94559c-38.62989,0 -69.94559,-31.3157 -69.94559,-69.94559z" fill="#adb2b9" stroke="none" stroke-linecap="butt"/><path d="M182.19809,180c0,-31.92311 25.87881,-57.80191 57.80191,-57.80191c31.92311,0 57.80191,25.87881 57.80191,57.80191c0,31.92311 -25.87881,57.80191 -57.80191,57.80191c-31.92311,0 -57.80191,-25.87881 -57.80191,-57.80191z" fill="url(#color-1)" stroke="none" stroke-linecap="butt"/><path d="M195.30443,176.93505c0,-24.51349 19.87212,-44.38561 44.38561,-44.38561c24.51349,0 44.38561,19.87212 44.38561,44.38561c0,24.51349 -19.87212,44.38561 -44.38561,44.38561c-24.51349,0 -44.38561,-19.87212 -44.38561,-44.38561z" fill="url(#color-2)" stroke="none" stroke-linecap="butt"/><path d="M195.92437,183.06492c0,-24.51349 19.87214,-44.38561 44.38561,-44.38561c24.51349,0 44.38557,19.87212 44.38557,44.38561c0,24.51349 -19.87208,44.38561 -44.38557,44.38561c-24.51349,0 -44.38561,-19.87212 -44.38561,-44.38561z" data-paper-data="{&quot;index&quot;:null}" fill="url(#color-3)" stroke="none" stroke-linecap="butt"/><path d="M196.52111,179.68228c0,-24.00632 19.46096,-43.46728 43.46728,-43.46728c24.00632,0 43.46728,19.46095 43.46728,43.46728c0,24.00632 -19.46096,43.46728 -43.46728,43.46728c-24.00632,0 -43.46728,-19.46096 -43.46728,-43.46728z" fill="url(#color-4)" stroke="none" stroke-linecap="butt"/><path d="M230.19292,202.02817c0,0 -6.80821,9.23786 -8.67069,11.55185c-1.28783,1.60003 -1.43086,0.99854 -1.43086,0.99854c0,0 2.71821,-12.08166 4.49832,-17.26019c1.55716,-4.52983 5.60326,-12.12615 5.60326,-12.12615z" fill="#043a04" stroke="#043a04" stroke-linecap="round"/><path d="M248.87325,185.19993c0,0 4.04609,7.59628 5.60322,12.12615c1.78012,5.17853 4.49832,17.26021 4.49832,17.26021c0,0 -0.14302,0.60149 -1.43086,-0.99857c-1.86251,-2.31399 -8.67069,-11.55185 -8.67069,-11.55185z" data-paper-data="{&quot;index&quot;:null}" fill="#043a04" stroke="#043a04" stroke-linecap="round"/><path d="M233.56012,204.47698v-32.7535h12.24431v32.7535c0,0 -4.56457,7.3466 -6.73438,7.3466c-1.86544,0 -5.50994,-7.3466 -5.50994,-7.3466z" fill="#043a04" stroke="none" stroke-linecap="butt"/><path d="M233.25402,168.66241v-21.42753c0,0 1.24288,-2.55646 2.94719,-4.58842c1.12401,-1.34008 2.31559,-2.45203 3.17496,-2.45203c0.77631,0 1.98379,1.45184 3.07074,3.03692c1.30667,1.90547 2.74531,4.00355 2.74531,4.00355v21.42753z" fill="#043a04" stroke="none" stroke-linecap="butt"/><path d="M236.92733,162.23415v-7.3466h4.2855v7.3466z" fill="#0abe0e" stroke="none" stroke-linecap="butt"/><path d="M134.5,285.5v-211h211v211z" fill="none" stroke="none" stroke-linecap="butt"/><path d="M134.5,285.50001v-336.43021h211v336.43021z" fill="none" stroke="none" stroke-linecap="butt"/></g></g></svg>