<svg version="1.1" xmlns="http://www.w3.org/2000/svg" xmlns:xlink="http://www.w3.org/1999/xlink" width="358.31013" height="266.67504" viewBox="0,0,358.31013,266.67504"><g transform="translate(-108.34306,-50.0515)"><g data-paper-data="{&quot;isPaintingLayer&quot;:true}" fill-rule="nonzero" stroke-linejoin="miter" stroke-miterlimit="10" stroke-dasharray="" stroke-dashoffset="0" style="mix-blend-mode: normal"><g><path d="M194.96383,139.96576l264.0853,-0.5541l7.60406,23.54653z" fill="#c6f5ff" stroke="none" stroke-width="0" stroke-linecap="butt"/><path d="M204.09686,140.11251c0,0 1.05555,-0.30979 1.58445,-0.55869c0.5304,-0.2496 1.59345,-0.56293 1.59345,-0.56293v2.43016l-7.29047,-0.37387l1.30855,1.68242c0,0 -1.16527,0.28566 -2.46322,-0.06432c-1.59527,-0.43014 -3.48644,-1.53413 -4.8244,-1.81845c-2.55205,-0.54231 -7.66719,-1.29514 -7.66719,-1.29514z" fill="#f9fdff" stroke="#f9fdff" stroke-width="0.5" stroke-linecap="round"/></g><g data-paper-data="{&quot;index&quot;:null}" stroke-width="0.5" stroke-linecap="round"><path d="M183.30519,66.47653l1.42387,-1.30198l39.58371,-6.50994l25.91452,-8.35443l24.20587,5.31645l16.51695,-1.1935l13.95397,5.64195l22.78198,6.40145z" fill="#ffffff" stroke="#ffffff"/><path d="M185.86815,66.47653l38.72938,-4.77395l16.80171,-5.75044l21.92766,5.96744l7.40414,-2.16999l6.8346,2.60397l13.95397,-5.53344l9.68235,5.20795l26.19929,4.44846z" fill="#e9f8ff" stroke="#e9f8ff"/></g><g stroke-width="0.5" stroke-linecap="round"><path d="M109.3052,191.47651l9.733,-7.84844l5.96147,-6.91727l7.05643,1.46328l10.34131,-6.5182l11.07129,10.24289l16.91108,7.98146l0.60832,1.59629z" fill="#ffffff" stroke="#ffffff"/><path d="M109.42685,191.47651l11.19295,-5.454l4.13652,-6.38518l5.96147,6.78425l2.9199,-3.19258l3.16322,2.66048l9.36801,-7.31635l7.17809,7.05029l16.5461,5.85308z" fill="#e9f8ff" stroke="#e9f8ff"/></g><g data-paper-data="{&quot;index&quot;:null}" stroke-width="0.5" stroke-linecap="round"><path d="M266.30519,225.47652l12.36779,-6.40144l7.57528,-5.64195l8.96665,1.1935l13.14078,-5.31645l14.06836,8.35443l21.48904,6.50994l0.77298,1.30199z" fill="#ffffff" stroke="#ffffff"/><path d="M266.4598,225.47654l14.22296,-4.44846l5.25631,-5.20795l7.57528,5.53344l3.71034,-2.60397l4.01953,2.16998l11.90399,-5.96744l9.12124,5.75044l21.02525,4.77396z" fill="#e9f8ff" stroke="#e9f8ff"/></g><g data-paper-data="{&quot;index&quot;:null}" stroke-width="0.5" stroke-linecap="round"><path d="M197.3052,316.47654l21.04628,-6.40145l12.89085,-5.64195l15.25856,1.1935l22.36168,-5.31645l23.94016,8.35443l36.56793,6.50994l1.31539,1.30198z" fill="#ffffff" stroke="#ffffff"/><path d="M197.5683,316.47654l24.20324,-4.44846l8.94468,-5.20795l12.89085,5.53344l6.31389,-2.60397l6.84004,2.16999l20.25705,-5.96744l15.52163,5.75044l35.77869,4.77395z" fill="#e9f8ff" stroke="#e9f8ff"/></g></g></g></svg>