<svg version="1.1" xmlns="http://www.w3.org/2000/svg" xmlns:xlink="http://www.w3.org/1999/xlink" width="224.8091" height="291.87435" viewBox="0,0,224.8091,291.87435"><g transform="translate(-113.98697,-9.53731)"><g data-paper-data="{&quot;isPaintingLayer&quot;:true}" fill="#f9f4d6" fill-rule="nonzero" stroke="none" stroke-width="0" stroke-linecap="butt" stroke-linejoin="miter" stroke-miterlimit="10" stroke-dasharray="" stroke-dashoffset="0" style="mix-blend-mode: normal"><path d="M294.94158,195.8947c-6.03112,-0.88367 -11.32274,-4.58541 -11.32274,-4.58541l-8.22739,4.47472c0,0 1.91768,-13.21023 6.38445,-11.37554c2.08265,0.85543 5.85484,4.40944 9.56904,3.71794c3.54501,-0.66 7.01265,-5.55594 9.91494,-5.25363c1.46749,0.15286 0.61144,7.46685 3.21796,5.6397c4.33029,-3.0355 9.08048,-6.9358 10.42297,-5.49541c4.31592,4.63066 5.68356,7.90864 9.02505,7.65576c6.44912,-0.48806 14.87021,2.0106 14.87021,2.0106l-15.73937,4.40425c0,0 -4.9005,-5.66547 -9.49236,-5.7668c-6.74212,-0.14877 -14.47265,5.18189 -18.62277,4.57382z" data-paper-data="{&quot;index&quot;:null}"/><path d="M261.10286,41.11659c-5.5219,-2.11625 -10.36674,-10.98136 -10.36674,-10.98136l-7.53275,10.71625c0,0 1.75577,-31.63647 5.84541,-27.24267c3.72675,4.00391 9.36667,15.98099 14.808,17.4635c3.57574,0.97422 13.55114,-26.32156 15.52014,-20.79569c3.95153,11.08972 5.20369,18.93996 8.26306,18.33436c5.90462,-1.16882 13.6147,4.81506 13.6147,4.81506l-14.41048,10.5475c0,0 -4.48675,-13.56793 -8.69091,-13.81058c-6.17287,-0.35628 -13.25071,12.40984 -17.05043,10.95361z" data-paper-data="{&quot;index&quot;:null}"/><path d="M151.11898,117.94372c-3.04975,1.97242 -8.73059,-15.31891 -13.68508,-14.83634c-3.37436,0.32867 -6.97553,18.70603 -6.97553,18.70603l-11.56619,-14.28629c0,0 6.1883,-8.10499 10.92748,-6.52186c2.45552,0.82027 3.46053,-9.81265 6.63213,-24.83336c1.58036,-7.48463 9.58685,29.4867 12.45683,28.16715c4.36734,-2.00802 8.89407,-18.23062 11.88525,-23.6538c3.28244,-5.95127 4.69166,36.89941 4.69166,36.89941l-6.04596,-14.51485c0,0 -3.88858,12.00752 -8.32059,14.87393z" data-paper-data="{&quot;index&quot;:null}"/><path d="M131.88646,300.04852c-5.5219,-1.00975 -10.36674,-5.23964 -10.36674,-5.23964l-7.53275,5.11314c0,0 1.75576,-15.095 5.84541,-12.99854c3.72675,1.91042 9.36667,7.62515 14.808,8.33252c3.57574,0.46484 13.55114,-12.55904 15.52014,-9.92244c3.95153,5.29134 5.20369,9.03699 8.26306,8.74804c5.90462,-0.55769 13.6147,2.29745 13.6147,2.29745l-14.41048,5.03262c0,0 -4.48675,-6.47379 -8.69091,-6.58957c-6.17287,-0.17 -13.25071,5.92122 -17.05043,5.2264z" data-paper-data="{&quot;index&quot;:null}"/></g></g></svg>