<svg version="1.1" xmlns="http://www.w3.org/2000/svg" xmlns:xlink="http://www.w3.org/1999/xlink" width="78" height="66" viewBox="0,0,78,66"><g transform="translate(-200.83344,-56.66674)"><g data-paper-data="{&quot;isPaintingLayer&quot;:true}" fill-rule="nonzero" stroke-linejoin="miter" stroke-miterlimit="10" stroke-dasharray="" stroke-dashoffset="0" style="mix-blend-mode: normal"><path d="M200.83345,122.66675v-66h78v66z" fill="none" stroke="none" stroke-width="NaN" stroke-linecap="butt"/><path d="M239.8537,103.88658l-0.07934,-12.53721" fill="none" stroke="#52a9b7" stroke-width="0.5" stroke-linecap="round"/><path d="M232.08381,91.59375v-5.50368c0,0 2.45475,-1.86776 3.78564,-1.86776c1.36607,0 4.308,1.86776 4.308,1.86776v5.50368c0,0 -0.57477,-0.07619 -0.9644,-0.33406c-0.42629,-0.28214 -0.2461,-0.73019 -0.78151,-1.06959c-0.60836,-0.38565 -1.93644,-0.64672 -2.46278,-0.64672c-0.47985,0 -1.40614,0.27164 -2.04221,0.76593c-0.54612,0.42441 -0.80741,1.05551 -1.19864,1.33363c-0.35865,0.25498 -0.64411,-0.04919 -0.64411,-0.04919z" fill="#d71304" stroke="none" stroke-width="0" stroke-linecap="butt"/><path d="M247.1919,91.48585v-5.50368c0,0 2.40392,-1.45272 3.67149,-1.45272c1.28615,0 3.99049,1.45272 3.99049,1.45272v5.50368c0,0 -0.54413,-0.07619 -0.91298,-0.33406c-0.40356,-0.28214 -0.23297,-0.73019 -0.73982,-1.06959c-0.57592,-0.38565 -1.83316,-0.64672 -2.33143,-0.64672c-0.45424,0 -1.33114,0.27163 -1.93328,0.76592c-0.517,0.42441 -0.76433,1.05551 -1.13471,1.33363c-0.33953,0.25498 -0.60975,-0.04918 -0.60975,-0.04918z" fill="#d71304" stroke="none" stroke-width="0" stroke-linecap="butt"/><path d="M217.24965,91.70113l20.76899,11.96268" fill="none" stroke="#52a9b7" stroke-width="0.5" stroke-linecap="round"/><path d="M238.29139,103.6785l-13.59345,-12.17045" fill="none" stroke="#52a9b7" stroke-width="0.5" stroke-linecap="round"/><path d="M232.4742,91.82545l6.19083,11.20668" fill="none" stroke="#52a9b7" stroke-width="0.5" stroke-linecap="round"/><path d="M247.43419,91.60327l-6.67455,10.74784" fill="none" stroke="#52a9b7" stroke-width="0.5" stroke-linecap="round"/><path d="M254.53332,91.66674l-13.33228,11.99862" fill="none" stroke="#52a9b7" stroke-width="0.5" stroke-linecap="round"/><path d="M216.97564,91.80959v-5.50368c0,0 2.40748,-3.37235 3.69224,-3.37235c1.40274,0 4.4014,3.37235 4.4014,3.37235v5.50368c0,0 -0.57476,-0.07619 -0.96439,-0.33406c-0.42629,-0.28214 -0.2461,-0.73019 -0.78151,-1.06959c-0.60836,-0.38565 -1.93643,-0.64672 -2.46277,-0.64672c-0.47985,0 -1.40614,0.27164 -2.04221,0.76593c-0.54612,0.42441 -0.80741,1.05551 -1.19864,1.33363c-0.35865,0.25498 -0.6441,-0.04918 -0.6441,-0.04918z" fill="#d71304" stroke="none" stroke-width="0" stroke-linecap="butt"/><path d="M232.16682,86.20214l0.1173,-4.5366c0,0 2.34679,-1.40082 3.53346,-1.40082c1.32191,0 4.03614,1.40082 4.03614,1.40082v4.64036c0,0 -2.68079,-0.77824 -4.03614,-0.77824c-1.41214,0 -3.65075,0.67448 -3.65075,0.67448z" fill="#ffffff" stroke="none" stroke-width="0" stroke-linecap="butt"/><path d="M261.83346,91.5874l-20.62087,12.1673" fill="none" stroke="#52a9b7" stroke-width="0.5" stroke-linecap="round"/><path d="M224.5837,91.64771v-5.50368c0,0 2.58371,-3.42423 3.86658,-3.42423c1.27101,0 3.79542,3.42423 3.79542,3.42423v5.50368c0,0 -0.54412,-0.07619 -0.91296,-0.33407c-0.40356,-0.28214 -0.23298,-0.73019 -0.73982,-1.0696c-0.57592,-0.38565 -1.83317,-0.64673 -2.33143,-0.64673c-0.45425,0 -1.33114,0.27164 -1.93328,0.76593c-0.517,0.42441 -0.76433,1.05551 -1.13471,1.33364c-0.33953,0.25498 -0.60975,-0.04918 -0.60975,-0.04918z" fill="#8f0a01" stroke="none" stroke-width="0" stroke-linecap="butt"/><path d="M224.85376,91.42713c0,0 0.33794,0.03118 0.67195,-0.26774c0.1771,-0.1585 0.39103,-0.46886 0.63106,-0.6347c0.62443,-0.43144 1.66872,-0.73108 2.15134,-0.73108c0.53604,0 1.60682,0.26226 2.25959,0.73028c0.31035,0.22252 0.51941,0.48286 0.65071,0.68715c0.06136,0.09547 0.59328,0.39361 0.94934,0.44452c0.40182,0.05745 0.62889,-0.13849 0.62889,-0.13849" fill="none" stroke="#8f0a01" stroke-width="0.5" stroke-linecap="round"/><path d="M239.85369,91.64564v-5.50368c0,0 1.63594,-2.12717 2.91609,-2.12717c1.27382,0 4.7459,2.12717 4.7459,2.12717v5.50368c0,0 -0.54412,-0.07619 -0.91298,-0.33406c-0.40355,-0.28214 -0.23297,-0.73019 -0.73982,-1.06959c-0.57591,-0.38565 -1.83318,-0.64672 -2.33145,-0.64672c-0.45425,0 -1.33115,0.27164 -1.93329,0.76593c-0.517,0.42441 -0.76434,1.05551 -1.13472,1.33364c-0.33953,0.25498 -0.60975,-0.04918 -0.60975,-0.04918z" fill="#8f0a01" stroke="none" stroke-width="0" stroke-linecap="butt"/><path d="M254.63807,91.5398v-5.50368c0,0 3.03644,-2.07529 4.37088,-2.07529c1.20668,0 3.2911,2.07529 3.2911,2.07529v5.50368c0,0 -0.54413,-0.07619 -0.91298,-0.33407c-0.40355,-0.28214 -0.23298,-0.73018 -0.73982,-1.06958c-0.5759,-0.38565 -1.83316,-0.64673 -2.33143,-0.64673c-0.45424,0 -1.33114,0.27164 -1.93329,0.76593c-0.517,0.42441 -0.76435,1.0555 -1.13472,1.33363c-0.33953,0.25498 -0.60975,-0.04918 -0.60975,-0.04918z" fill="#8f0a01" stroke="none" stroke-width="0" stroke-linecap="butt"/><path d="M240.53609,91.3462c0,0 0.25062,-0.55873 0.94329,-1.03734c0.62443,-0.43144 1.66874,-0.62582 2.15135,-0.62582c0.53604,0 1.60681,0.157 2.25957,0.62502c0.29057,0.20835 0.49233,0.44981 0.62465,0.64741c0.05826,0.087 0.31174,0.43532 0.54462,0.49874c0.36501,0.09941 0.74493,-0.10801 0.74493,-0.10801" fill="none" stroke="#8f0a01" stroke-width="0.5" stroke-linecap="round"/><path d="M254.72663,86.35087l-0.25941,-4.64035c0,0 2.07272,-2.17907 3.29656,-2.17907c1.16543,0 3.87981,2.17907 3.87981,2.17907l0.70145,4.64035c0,0 -2.34465,-0.93389 -3.59548,-0.93389c-1.3651,0 -4.02292,0.93389 -4.02292,0.93389z" data-paper-data="{&quot;index&quot;:null}" fill="#d3d9e3" stroke="none" stroke-width="0" stroke-linecap="butt"/><path d="M247.11308,86.25404l0.06543,-4.58848c0,0 2.16736,-1.45271 3.37365,-1.45271c1.30858,0 4.19595,1.45271 4.19595,1.45271v4.64035c0,0 -2.31837,-0.98576 -3.62523,-0.98576c-1.4484,0 -4.00978,0.93388 -4.00978,0.93388z" fill="#ffffff" stroke="none" stroke-width="0" stroke-linecap="butt"/><path d="M247.82038,91.3462c0,0 0.25062,-0.55873 0.94329,-1.03734c0.62443,-0.43144 1.61609,-0.73109 2.09871,-0.73109c0.53604,0 1.65945,0.26227 2.3122,0.73029c0.61907,0.44387 0.83506,1.03814 0.83506,1.03814" fill="none" stroke="#d71304" stroke-width="0.5" stroke-linecap="round"/><path d="M239.71463,86.30592l-0.03835,-4.64035c0,0 2.30628,-1.66023 3.50854,-1.66023c1.31143,0 4.06104,1.66024 4.06104,1.66024v4.64035c0,0 -2.52239,-0.83012 -3.85351,-0.83012c-1.43141,0 -3.67773,0.83012 -3.67773,0.83012z" fill="#d3d9e3" stroke="none" stroke-width="0" stroke-linecap="butt"/><path d="M254.11542,91.49907c0,0 0.37312,0.08266 0.74534,0.00374c0.32836,-0.06964 0.65601,-0.29496 0.72616,-0.38867c0.14927,-0.19942 0.38493,-0.45838 0.73082,-0.69739c0.62442,-0.43144 1.6161,-0.78371 2.09871,-0.78371c0.53604,0 1.65945,0.31489 2.3122,0.78291c0.61907,0.44387 1.32965,1.17305 1.32965,1.17305" fill="none" stroke="#8f0a01" stroke-width="0.5" stroke-linecap="round"/><path d="M224.76836,86.25404l-0.03835,-4.58848c0,0 2.52734,-1.19328 3.72021,-1.19328c1.31785,0 3.84937,1.19328 3.84937,1.19328v4.64035c0,0 -2.43543,-0.98576 -3.74559,-0.98576c-1.4462,0 -3.78564,0.93388 -3.78564,0.93388z" fill="#d3d9e3" stroke="none" stroke-width="0" stroke-linecap="butt"/><path d="M216.92167,86.25404l0.70145,-4.64035c0,0 2.06756,-1.24517 3.14852,-1.24517c1.27802,0 4.02785,1.24517 4.02785,1.24517l-0.05188,4.64035c0,0 -2.59662,-0.83011 -3.92407,-0.83011c-1.29781,0 -3.90186,0.83011 -3.90186,0.83011z" fill="#ffffff" stroke="none" stroke-width="0" stroke-linecap="butt"/><path d="M217.19941,91.82283c0,0 0.92509,-0.91845 1.61776,-1.39706c0.62443,-0.43144 1.66873,-0.62582 2.15134,-0.62582c0.53604,0 1.60681,0.157 2.25957,0.62501c0.31782,0.22787 0.5294,0.4954 0.66007,0.7018c0.06046,0.09551 0.37149,0.31282 0.67403,0.37216c0.31719,0.06221 0.62507,-0.0358 0.62507,-0.0358" fill="none" stroke="#d71304" stroke-width="0.5" stroke-linecap="round"/><g stroke="none" stroke-width="0" stroke-linecap="butt"><path d="M254.50134,81.68908l-1.25901,-2.96767c0,0 1.06908,-2.82281 2.23449,-2.80767c1.14233,0.01484 4.69008,2.89759 4.69008,2.89759l1.48383,2.87773c0,0 -2.47918,-0.72635 -3.67942,-0.72635c-1.18263,0 -3.46996,0.72635 -3.46996,0.72635z" data-paper-data="{&quot;index&quot;:null}" fill="#8f0a01"/><path d="M247.21705,81.64409l-0.62951,-2.83277c0,0 1.42844,-3.89118 2.77129,-3.89118c1.22411,0 4.96264,3.89118 4.96264,3.89118l0.49462,2.87773c0,0 -2.72885,-0.63965 -4.05641,-0.64751c-1.19046,-0.00704 -3.54262,0.60254 -3.54262,0.60254z" data-paper-data="{&quot;index&quot;:null}" fill="#d71304"/><path d="M239.7979,81.64409c0,0 -1.09436,-0.51186 -1.09826,-0.75796c-0.00796,-0.50113 1.05329,-2.07482 1.05329,-2.07482c0,0 1.75573,-2.59412 2.91311,-2.59412c1.22222,0 4.23628,2.59412 4.23628,2.59412l0.49462,2.87773c0,0 -2.595,-0.58912 -3.95265,-0.59716c-1.13543,-0.00672 -3.64639,0.5522 -3.64639,0.5522z" data-paper-data="{&quot;index&quot;:null}" fill="#8f0a01"/><path d="M232.13656,81.6303l-0.20754,-2.81893c0,0 2.53583,-3.32048 3.8885,-3.32048c1.26431,0 3.98033,3.32048 3.98033,3.32048v2.92271c0,0 -2.49882,-0.5707 -3.7728,-0.5707c-1.34509,0 -3.88849,0.46694 -3.88849,0.46694z" fill="#d71304"/><path d="M224.59983,81.73404l1.48383,-2.87773c0,0 1.86415,-2.59412 2.78168,-2.59412c1.10191,0 3.3785,2.59412 3.3785,2.59412l-0.04496,2.83277c0,0 -2.36223,-0.60862 -3.59238,-0.60133c-1.29913,0.00769 -4.00666,0.64631 -4.00666,0.64631z" fill="#8f0a01"/><path d="M217.63028,81.68908l1.48383,-2.87774c0,0 3.46912,-3.57989 4.61485,-3.57989c1.23125,0 2.53455,3.57989 2.53455,3.57989l-1.48383,2.87774c0,0 -2.37382,-0.62259 -3.59294,-0.62259c-1.16119,0 -3.55644,0.62259 -3.55644,0.62259z" fill="#d71304"/></g><path d="M232.8741,91.45411c0,0 0.25062,-0.55873 0.94329,-1.03735c0.62443,-0.43144 1.66874,-0.78372 2.15135,-0.78372c0.53604,0 1.7647,0.26226 2.41746,0.73028c0.28348,0.20326 0.53508,0.43806 0.66748,0.6329c0.08122,0.11951 0.28909,0.4773 0.67339,0.52696c0.35734,0.04618 0.68522,-0.15899 0.68522,-0.15899" fill="none" stroke="#d71304" stroke-width="0.5" stroke-linecap="round"/><path d="M246.9555,78.79031l-0.41702,-4.59582c0,0 0.18301,-1.40084 1.10822,-1.40084c1.26198,0 5.772,1.40084 5.772,1.40084l0.77824,4.6477c0,0 -3.26404,-0.72635 -4.52683,-0.72635c-1.25475,0 -2.71463,0.67447 -2.71463,0.67447z" fill="#ffffff" stroke="none" stroke-width="0" stroke-linecap="butt"/><path d="M239.67434,78.79031l-0.00197,-4.54395c0,0 1.33339,-1.5046 2.47481,-1.5046c1.1519,0 4.40541,1.5046 4.40541,1.5046l0.49115,4.59581c0,0 -2.45467,-0.62259 -3.85891,-0.62259c-1.39807,0 -3.51048,0.57071 -3.51048,0.57071z" fill="#d3d9e3" stroke="none" stroke-width="0" stroke-linecap="butt"/><path d="M232.28089,78.79031l0.6725,-4.59582c0,0 2.255,-1.45271 3.38297,-1.45271c1.16429,0 3.49725,1.45271 3.49725,1.45271v4.59582c0,0 -2.58032,-0.67447 -3.80854,-0.67447c-1.28663,0 -3.74418,0.67447 -3.74418,0.67447z" fill="#ffffff" stroke="none" stroke-width="0" stroke-linecap="butt"/><path d="M218.99006,78.84216l2.97573,-4.59581c0,0 2.24372,-1.6415 3.16392,-1.6623c1.26337,-0.02857 3.7186,1.50666 3.7186,1.50666l-2.69788,4.75147c0,0 -2.4592,-0.67447 -3.66665,-0.67447c-1.17864,0 -3.49372,0.67447 -3.49372,0.67447z" fill="#ffffff" stroke="none" stroke-width="0" stroke-linecap="butt"/><path d="M226.09617,78.89405l1.45073,-4.69958c0,0 2.57773,-1.69976 3.34212,-1.69239c0.97548,0.00941 2.03351,1.74426 2.03351,1.74426l-0.58453,4.59581c0,0 -2.13296,-0.62259 -3.26517,-0.62259c-1.18785,0 -2.97666,0.67447 -2.97666,0.67447z" fill="#d3d9e3" stroke="none" stroke-width="0" stroke-linecap="butt"/><path d="M254.20577,78.83481l-2.21364,-4.54393c0,0 0.10615,-1.81589 0.99843,-1.81589c0.8092,0 4.13046,1.81589 4.13046,1.81589l3.15559,4.59582c0,0 -2.29537,-0.882 -3.39486,-0.882c-1.26423,0 -2.67597,0.83011 -2.67597,0.83011z" data-paper-data="{&quot;index&quot;:null}" fill="#d3d9e3" stroke="none" stroke-width="0" stroke-linecap="butt"/><g stroke="none" stroke-width="0" stroke-linecap="butt"><path d="M251.98345,74.17306l-1.62697,-2.91579c0,0 0.93876,-0.697 1.703,-0.68213c0.77714,0.01511 2.92179,0.77206 2.92179,0.77206l2.08303,2.87775c0,0 -2.13265,-0.62259 -3.08797,-0.62259c-0.94574,0 -1.99289,0.57071 -1.99289,0.57071z" data-paper-data="{&quot;index&quot;:null}" fill="#8f0a01"/><path d="M246.43184,74.23187l-1.38419,-2.88466c0,0 1.35614,-1.19328 2.28779,-1.19328c0.95926,0 3.38735,1.19328 3.38735,1.19328l1.40802,2.87775c0,0 -2.67975,-0.53446 -3.70705,-0.54209c-0.99221,-0.00737 -1.99193,0.54899 -1.99193,0.54899z" data-paper-data="{&quot;index&quot;:null}" fill="#d71304"/><path d="M239.63117,74.17997l-0.03588,-2.83278c0,0 1.91699,-1.19328 2.91509,-1.19328c0.89084,0 2.78835,1.19328 2.78835,1.19328l1.12093,2.98151c0,0 -2.72973,-0.74007 -3.7026,-0.74728c-1.04296,-0.00773 -3.08589,0.59855 -3.08589,0.59855z" data-paper-data="{&quot;index&quot;:null}" fill="#8f0a01"/><path d="M233.04246,74.2699l0.3113,-2.92271c0,0 2.35005,-1.03764 3.44952,-1.03764c0.97896,0 2.82785,1.03764 2.82785,1.03764v2.92271c0,0 -2.12801,-0.46695 -3.19103,-0.46695c-1.02829,0 -3.39765,0.46695 -3.39765,0.46695z" fill="#d71304"/><path d="M227.50682,74.2699l1.18373,-2.87774c0,0 1.77074,-1.24518 2.50943,-1.24518c0.87592,0 2.40487,1.24518 2.40487,1.24518l-0.50281,2.88466c0,0 -1.51746,-0.65743 -2.57573,-0.64958c-0.95095,0.00706 -3.01949,0.64267 -3.01949,0.64267z" fill="#8f0a01"/><path d="M221.9469,74.22492l2.37357,-2.87774c0,0 2.64706,-1.45271 3.40343,-1.45271c0.79783,0 1.11016,1.45271 1.11016,1.45271l-1.18373,2.87774c0,0 -1.78592,-0.51881 -2.77997,-0.51881c-0.89715,0 -2.92348,0.51881 -2.92348,0.51881z" fill="#d71304"/></g><path d="M245.36955,71.44289l-1.67207,-2.49541l6.32817,-0.05188l0.89238,2.59918c0,0 -1.72038,-0.62259 -2.90815,-0.62259c-1.24687,0 -2.64032,0.5707 -2.64032,0.5707z" fill="#ffffff" stroke="none" stroke-width="0" stroke-linecap="butt"/><path d="M239.72647,71.44289l-0.21938,-2.54729h4.35664l1.62982,2.54729c0,0 -2.2622,-0.46694 -3.34641,-0.46694c-1.02508,0 -2.42069,0.46694 -2.42069,0.46694z" fill="#d3d9e3" stroke="none" stroke-width="0" stroke-linecap="butt"/><path d="M233.62366,71.54663l0.97392,-2.65106l4.82359,0.05188l0.36318,2.4954c0,0 -2.24159,-0.46693 -3.24044,-0.46693c-0.88537,0 -2.92025,0.57071 -2.92025,0.57071z" fill="#ffffff" stroke="none" stroke-width="0" stroke-linecap="butt"/><path d="M224.0711,71.44289l4.17678,-2.54729l4.74918,-0.36317l-4.04682,2.91047c0,0 -1.18719,-0.62259 -2.10832,-0.62259c-0.87592,0 -2.77082,0.62259 -2.77082,0.62259z" fill="#ffffff" stroke="none" stroke-width="0" stroke-linecap="butt"/><path d="M229.01548,71.39096l2.81054,-2.65106l3.16336,0.15564l-1.32266,2.59918c0,0 -1.21572,-0.57071 -2.20727,-0.57071c-1.14264,0 -2.44397,0.46693 -2.44397,0.46693z" fill="#d3d9e3" stroke="none" stroke-width="0" stroke-linecap="butt"/><path d="M250.83875,71.46751l-3.91195,-2.65106l3.37188,0.10376l4.89692,2.5473c0,0 -2.14113,-0.3113 -2.9314,-0.3113c-0.65294,0 -1.42546,0.3113 -1.42546,0.3113z" data-paper-data="{&quot;index&quot;:null}" fill="#d3d9e3" stroke="none" stroke-width="0" stroke-linecap="butt"/><g stroke="none" stroke-width="0" stroke-linecap="butt"><path d="M246.6283,68.89131l-1.66048,-1.83152l1.44497,0.0555l3.77195,1.77603z" data-paper-data="{&quot;index&quot;:null}" fill="#8f0a01"/><path d="M243.0497,68.8636l-0.31315,-1.74827h2.41467l1.67858,1.77603z" data-paper-data="{&quot;index&quot;:null}" fill="#d71304"/><path d="M239.31411,68.8636l-0.02237,-1.74827h3.55643l0.74066,1.77603z" data-paper-data="{&quot;index&quot;:null}" fill="#8f0a01"/><path d="M234.63539,68.91912l0.76441,-1.80378h3.91432v1.80378z" fill="#d71304"/><path d="M231.75386,68.91912l1.50253,-1.77602h2.29996l-0.51698,1.74827z" fill="#8f0a01"/><path d="M228.28689,68.89131l3.90103,-1.77603h1.60759l-1.95219,1.77603z" fill="#d71304"/></g><g stroke="none" stroke-width="0" stroke-linecap="butt"><path d="M241.45345,67.14225l0.22794,-0.89529h2.33187l0.72776,0.89529z" fill="#ffffff"/><path d="M239.12636,67.14225l0.22793,-0.89529h2.33187l0.28955,0.89529z" fill="#d3d9e3"/><path d="M236.84914,67.14225l0.22793,-0.89529h2.33187v0.89529z" fill="#ffffff"/><path d="M232.34456,67.14225l1.8778,-0.89529h0.54901v0.89529z" fill="#ffffff"/><path d="M233.96105,67.14225l0.77374,-0.89529h2.33187l-0.1981,0.89529z" fill="#d3d9e3"/><path d="M244.35548,67.15089l-0.82571,-0.89531h0.60624l2.20156,0.89531z" data-paper-data="{&quot;index&quot;:null}" fill="#d3d9e3"/></g></g></g></svg>