<svg version="1.1" xmlns="http://www.w3.org/2000/svg" xmlns:xlink="http://www.w3.org/1999/xlink" width="97.33334" height="247.82453" viewBox="0,0,97.33334,247.82453"><defs><linearGradient x1="226.95091" y1="295.63004" x2="226.95091" y2="299.72279" gradientUnits="userSpaceOnUse" id="color-1"><stop offset="0" stop-color="#fa0000"/><stop offset="1" stop-color="#cd0000"/></linearGradient><linearGradient x1="226.88447" y1="291.94656" x2="226.88447" y2="296.38039" gradientUnits="userSpaceOnUse" id="color-2"><stop offset="0" stop-color="#ff0000"/><stop offset="1" stop-color="#ef0000"/></linearGradient></defs><g transform="translate(-191.86668,-79.43598)"><g data-paper-data="{&quot;isPaintingLayer&quot;:true}" fill-rule="nonzero" stroke-linejoin="miter" stroke-miterlimit="10" stroke-dasharray="" stroke-dashoffset="0" style="mix-blend-mode: normal"><path d="M232.92598,316.80165c0,0 0.01763,-4.18393 1.08208,-7.42824c0.67399,-2.05432 2.28933,-3.73188 2.92357,-3.73188c1.23101,0 3.5586,0 5.66014,0c0.93274,0 2.60465,1.81321 3.33267,3.97791c1.07811,3.20567 1.02128,7.1822 1.02128,7.1822z" fill="#2c3132" stroke="none" stroke-width="0" stroke-linecap="butt"/><path d="M252.93244,313.63905c0,0 0.01415,-3.3559 0.86793,-5.95814c0.5406,-1.64776 1.83625,-2.99332 2.34497,-2.99332c0.98739,0 2.85432,0 4.53996,0c0.74814,0 2.08917,1.45437 2.67311,3.19066c0.86474,2.57125 0.81916,5.76079 0.81916,5.76079z" fill="#2c3132" stroke="none" stroke-width="0" stroke-linecap="butt"/><path d="M216.27714,313.78509c0,0 0.01415,-3.3559 0.86793,-5.95814c0.5406,-1.64776 1.83625,-2.99332 2.34497,-2.99332c0.98739,0 2.85432,0 4.53996,0c0.74814,0 2.08917,1.45437 2.67311,3.19066c0.86474,2.57125 0.81916,5.76079 0.81916,5.76079z" fill="#2c3132" stroke="none" stroke-width="0" stroke-linecap="butt"/><path d="M231.04206,306.30067l-1.33281,-2.96074h20.4537l-1.33281,2.96074z" fill="#347f72" stroke="none" stroke-width="0" stroke-linecap="butt"/><path d="M252.97667,305.97941l-0.84154,-2.53778h12.91454l-0.84154,2.53778z" fill="#347f72" stroke="none" stroke-width="0" stroke-linecap="butt"/><path d="M216.30312,305.94843l-0.84154,-2.53778h12.91454l-0.84154,2.53778z" fill="#347f72" stroke="none" stroke-width="0" stroke-linecap="butt"/><path d="M215.54697,303.56316l-3.7059,-4.68534h56.87169l-3.7059,4.68534z" fill="#046051" stroke="none" stroke-width="0" stroke-linecap="butt"/><path d="M272.41982,219.08195c0,0 -0.76653,-2.80966 -3.47736,-6.88189c-0.89306,-1.34157 -1.45036,-3.1847 -2.98457,-4.62702c-2.32798,-2.18855 -5.23168,-5.99661 -8.68757,-8.29273c-3.30301,-2.19455 -7.19888,-2.90182 -7.83759,-3.98326c-1.37369,-2.32592 4.99532,-8.10958 4.99532,-8.10958l10.83595,12.26711l8.99588,18.60512z" data-paper-data="{&quot;index&quot;:null}" fill="#00876d" stroke="none" stroke-width="0" stroke-linecap="butt"/><path d="M205.07706,219.08195l8.99588,-18.60512l10.83595,-12.26711c0,0 6.36902,5.78366 4.99532,8.10958c-0.63871,1.08145 -4.53459,1.78872 -7.83759,3.98326c-3.45589,2.29612 -6.35958,6.10419 -8.68757,8.29273c-1.53421,1.44232 -2.09151,3.28545 -2.98457,4.62702c-2.71083,4.07224 -3.47736,6.88189 -3.47736,6.88189z" fill="#00876d" stroke="none" stroke-width="0" stroke-linecap="butt"/><path d="M263.14139,286.34661l-6.54246,-13.08492c0,0 7.50996,-4.06244 10.28716,-8.90191c1.18588,-2.0665 3.52298,-5.16916 5.05064,-8.73742c3.35139,-7.8281 5.51631,-19.57091 5.51631,-19.57091l0.81781,19.01402c0,0 -1.32217,7.30119 -3.48096,14.37243c-1.57168,5.14817 -3.87506,10.07838 -5.02264,12.45109c-2.212,4.57345 -6.62585,4.45761 -6.62585,4.45761z" fill="#00876d" stroke="none" stroke-width="0" stroke-linecap="butt"/><path d="M213.66403,286.95997c0,0 -1.5279,-1.44732 -3.40001,-4.85623c-2.39086,-4.35349 -5.34312,-11.26123 -6.3913,-15.49137c-1.03227,-4.16592 -1.64025,-11.19608 -1.79167,-16.87543c-0.13382,-5.01902 0.13369,-8.98309 0.13369,-8.98309l1.22671,-3.06678c0,0 0.13745,10.14157 3.64521,17.08624c1.33428,2.64161 3.76624,6.82715 6.63245,10.34073c4.03637,4.94803 8.5319,8.96547 8.5319,8.96547z" fill="#00876d" stroke="#11a184" stroke-width="0" stroke-linecap="butt"/><path d="M278.14304,244.27645c0,17.27151 -4.6579,32.83656 -12.11081,43.77307c-6.82953,10.02176 -16.00607,1.84525 -26.09612,1.84525c-10.11141,0 -19.30542,8.15052 -26.13945,-1.90892c-7.42763,-10.93322 -12.0675,-26.47138 -12.0675,-43.70942c0,-33.09841 17.10583,-59.92995 38.20694,-59.92995c21.10112,0 38.20694,26.83155 38.20694,59.92995z" fill="none" stroke="#00876d" stroke-width="2" stroke-linecap="butt"/><path d="M203.64589,236.59666c0,-22.86542 16.24768,-41.4015 36.29021,-41.4015c20.04253,0 36.29021,18.53609 36.29021,41.4015c0,22.86542 -16.24768,41.4015 -36.29021,41.4015c-20.04253,0 -36.29021,-18.53609 -36.29021,-41.4015z" fill="none" stroke="#00876d" stroke-width="2" stroke-linecap="butt"/><g data-paper-data="{&quot;index&quot;:null}" stroke="none" stroke-width="0" stroke-linecap="butt"><path d="M211.73311,286.31668c0,-12.44638 12.70236,-22.53616 28.37151,-22.53616c15.66915,0 28.37147,10.08978 28.37147,22.53617c0,12.44639 -12.08898,8.22455 -27.75811,8.22455c-15.66913,0 -28.98486,4.22184 -28.98486,-8.22455z" fill="#04856e"/><path d="M248.5562,264.97301c0,0 2.11567,0.25312 4.64064,1.28089c1.38259,0.56277 2.92405,1.47244 4.38387,2.29523c1.40951,0.79441 3.46472,2.38254 5.06381,4.03655c1.47576,1.52646 2.59835,3.13127 3.02986,3.954c0.76788,1.46402 1.92184,3.1922 2.31539,4.85654c0.81317,3.43882 0.9654,7.42284 0.9654,7.42284c0,0 -0.73011,3.16775 -2.59267,3.93186c-5.50186,2.25716 -17.72612,4.07499 -25.14704,4.181c-9.07113,0.12958 -29.61046,-7.29506 -29.61046,-7.29506c0,0 -0.72387,-5.98606 1.55669,-10.44434c0.17009,-0.33255 0.39065,-1.06224 0.80697,-1.79197c0.8618,-1.51058 2.16615,-3.2595 2.82082,-3.98996c1.79827,-2.00649 4.39828,-4.09456 6.54282,-5.30495c3.91387,-2.20902 7.86401,-3.13262 7.86401,-3.13262z" fill="#34dabb"/><path d="M219.73384,270.62931c0,0 2.6808,-2.12862 3.36047,-2.52584c0.75553,-0.4416 2.73502,-1.39873 2.73502,-1.39873h28.32266c0,0 1.4681,0.65346 2.19121,1.05496c0.79017,0.43872 4.13217,2.86961 4.13217,2.86961z" data-paper-data="{&quot;index&quot;:null}" fill="#23bca2"/></g><g data-paper-data="{&quot;index&quot;:null}" stroke="none" stroke-width="0" stroke-linecap="butt"><path d="M219.06886,230.1905c0,-10.58557 9.33076,-19.16685 20.84084,-19.16685c11.51008,0 20.84082,8.58128 20.84082,19.16686c0,10.58557 -9.33075,19.16687 -20.84082,19.16687c-11.51007,0 -20.84084,-8.5813 -20.84084,-19.16687z" fill="#04856e"/><path d="M246.11798,212.03784c0,0 1.55411,0.21528 3.40888,1.08939c1.0156,0.47863 2.14792,1.2523 3.22026,1.95208c1.03539,0.67564 2.54508,2.02633 3.71973,3.43306c1.08405,1.29825 1.90866,2.66313 2.22564,3.36284c0.56406,1.24513 1.41172,2.71495 1.70081,4.13046c0.59733,2.92469 0.2586,5.61754 0.2586,5.61754h-41.37676c0,0 -0.8321,-3.70003 0.84313,-7.49176c0.12495,-0.28284 0.28696,-0.90343 0.59278,-1.52407c0.63304,-1.28473 1.59119,-2.77218 2.07209,-3.39343c1.32095,-1.70651 3.23084,-3.4824 4.80615,-4.51182c2.87501,-1.87876 5.77665,-2.66427 5.77665,-2.66427z" fill="#34dabb"/><path d="M253.56445,244.61049c0,0 -0.67221,0.62479 -1.17147,0.96263c-0.55499,0.37556 -2.00906,1.1896 -2.00906,1.1896h-20.80496c0,0 -1.07842,-0.55577 -1.6096,-0.89724c-0.58043,-0.37312 -1.73833,-1.255 -1.73833,-1.255z" fill="#005f4e"/><path d="M260.48687,227.06438c0,0 0.20417,0.48496 0.2827,1.07922c0.0728,0.55086 0.01997,1.1957 0.02994,1.63519c0.00899,0.39669 0.10196,0.96726 0.06156,1.49172c-0.05446,0.70719 -0.24865,1.33051 -0.24865,1.33051h-41.40546c0,0 -0.07908,-0.47857 -0.15744,-1.07909c-0.08201,-0.62841 -0.03766,-1.3904 -0.02663,-1.87716c0.00879,-0.38793 -0.03283,-0.92841 0.059,-1.41451c0.11871,-0.62832 0.25062,-1.16587 0.25062,-1.16587z" fill="#48edce"/><path d="M226.243,215.66289c0,0 0.6722,-0.62479 1.17146,-0.96263c0.55499,-0.37557 2.00907,-1.1896 2.00907,-1.1896h20.80496c0,0 1.07842,0.55576 1.6096,0.89724c0.58043,0.37312 1.73832,1.25501 1.73832,1.25501z" data-paper-data="{&quot;index&quot;:null}" fill="#23bca2"/></g><path d="M239.91454,170.6784c9.40243,0 17.02461,7.00996 17.02461,15.65718c0,8.64722 -7.62218,15.65717 -17.02461,15.65717c-9.40243,0 -17.02462,-7.00995 -17.02462,-15.65717c0,-8.64722 7.62219,-15.65718 17.02462,-15.65718z" fill="#04856e" stroke="none" stroke-width="0" stroke-linecap="butt"/><path d="M239.93612,136.18808c7.81,0 14.14126,5.82272 14.14126,13.00541c0,7.18269 -6.33126,13.00541 -14.14126,13.00541c-7.81,0 -14.14126,-5.82272 -14.14126,-13.00541c0,-7.18269 6.33126,-13.00541 14.14126,-13.00541z" fill="#04856e" stroke="none" stroke-width="0" stroke-linecap="butt"/><path d="M234.92704,127.11268v-2.86233h10.01814v2.86233z" fill="#43a08d" stroke="none" stroke-width="0" stroke-linecap="butt"/><path d="M244.9517,124.34167h-10.0312l5.0156,-19.80999z" fill="#016150" stroke="none" stroke-width="0" stroke-linecap="butt"/><path d="M234.93906,128.06835v-0.97995h10.01814v0.97995z" fill="#016150" stroke="none" stroke-width="0" stroke-linecap="butt"/><path d="M234.41591,130.81836l0.51113,-2.86233h10.01814l0.51113,2.86233z" fill="#43a08d" stroke="none" stroke-width="0" stroke-linecap="butt"/><path d="M234.0239,132.58246l0.43811,-2.01172h10.97225l0.43811,2.01172z" fill="#016150" stroke="none" stroke-width="0" stroke-linecap="butt"/><path d="M233.44676,134.72154l0.60253,-2.259h11.80968l0.60253,2.259z" fill="#43a08d" stroke="none" stroke-width="0" stroke-linecap="butt"/><path d="M232.91077,136.1336l0.52211,-1.45018h13.07593l0.52211,1.45018z" fill="#016150" stroke="none" stroke-width="0" stroke-linecap="butt"/><path d="M232.92173,137.90932v-1.83483h14.08446v1.83483z" fill="#43a08d" stroke="none" stroke-width="0" stroke-linecap="butt"/><path d="M235.49594,161.51071c0,0 -1.96887,-0.533 -3.91968,-1.80781c-1.06891,-0.69851 -2.36482,-1.9035 -3.26115,-3.06143c-0.32631,-0.42154 -0.97645,-1.43083 -1.406,-2.30257c-0.20751,-0.42113 -0.31743,-0.84222 -0.40222,-1.03414c-1.1367,-2.57282 -0.57209,-5.08342 -0.57209,-5.08342h28.07562c0,0 0.22983,1.8272 -0.17547,3.8117c-0.19616,0.96047 -0.77133,1.9578 -1.15406,2.80267c-0.21508,0.47478 -0.77461,1.4009 -1.51018,2.28181c-0.79705,0.95451 -1.82142,1.87101 -2.52397,2.32946c-0.72762,0.47482 -1.49593,0.99978 -2.18506,1.32454c-1.25852,0.59311 -2.31306,0.7392 -2.31306,0.7392z" fill="#34dabb" stroke="none" stroke-width="0" stroke-linecap="butt"/><path d="M230.65465,139.409c0,0 0.78567,-0.59838 1.17951,-0.85156c0.36042,-0.2317 1.09217,-0.60881 1.09217,-0.60881h14.11692c0,0 0.98662,0.55236 1.36321,0.80719c0.33877,0.22924 0.79489,0.65318 0.79489,0.65318z" fill="#005f4e" stroke="none" stroke-width="0" stroke-linecap="butt"/><path d="M225.97375,151.31467c0,0 -0.08951,-0.36474 -0.17005,-0.79108c-0.06232,-0.32985 -0.03406,-0.69657 -0.04003,-0.9598c-0.00749,-0.33029 -0.03757,-0.84731 0.01806,-1.27371c0.05317,-0.40747 0.10683,-0.7322 0.10683,-0.7322h28.09509c0,0 0.13177,0.42295 0.16872,0.9028c0.02741,0.35587 -0.03567,0.74302 -0.04177,1.01219c-0.00677,0.29822 0.02907,0.73575 -0.02032,1.10953c-0.05328,0.40322 -0.19182,0.73228 -0.19182,0.73228z" fill="#48edce" stroke="none" stroke-width="0" stroke-linecap="butt"/><g fill="#30baa1" stroke="none" stroke-width="0" stroke-linecap="butt"><path d="M243.82721,146.6877v-1.42243h1.42244v1.42243z"/><path d="M245.7444,146.6877v-1.42243h1.42244v1.42243z"/><path d="M247.70525,146.66951v-1.42243h1.42243v1.42243z"/><path d="M249.62245,146.66951v-1.42243h1.42243v1.42243z"/></g><path d="M249.20946,159.05099c0,0 -0.78567,0.59837 -1.17951,0.85155c-0.36042,0.2317 -1.09217,0.60881 -1.09217,0.60881h-14.11692c0,0 -0.98662,-0.55235 -1.36321,-0.80719c-0.33877,-0.22924 -0.79489,-0.65318 -0.79489,-0.65318z" data-paper-data="{&quot;index&quot;:null}" fill="#23bca2" stroke="none" stroke-width="0" stroke-linecap="butt"/><path d="M232.05011,172.68111l1.02226,-12.16975h13.72748l1.02226,12.16975z" fill="#1f8873" stroke="none" stroke-width="0" stroke-linecap="butt"/><path d="M232.7129,165.29688l0.22935,-2.48263h13.99896l0.22935,2.48263z" fill="#005f4e" stroke="none" stroke-width="0" stroke-linecap="butt"/><path d="M232.34218,170.22282l0.24094,-2.48263h14.70598l0.24094,2.48263z" fill="#005f4e" stroke="none" stroke-width="0" stroke-linecap="butt"/><path d="M234.56902,201.16425c0,0 -2.37032,-0.64167 -4.71888,-2.17641c-1.28685,-0.84093 -2.84701,-2.29163 -3.92609,-3.68565c-0.39284,-0.50749 -1.17555,-1.72257 -1.69267,-2.77205c-0.24982,-0.50699 -0.38216,-1.01394 -0.48423,-1.24499c-1.36847,-3.09742 -0.68874,-6.11993 -0.68874,-6.11993h33.80017c0,0 0.27669,2.19976 -0.21125,4.5889c-0.23616,1.15632 -0.9286,2.35699 -1.38937,3.37412c-0.25894,0.57159 -0.93255,1.68654 -1.8181,2.74707c-0.95955,1.14913 -2.1928,2.2525 -3.03859,2.80443c-0.87598,0.57164 -1.80096,1.20364 -2.63059,1.59462c-1.51514,0.71405 -2.78468,0.88991 -2.78468,0.88991z" fill="#34dabb" stroke="none" stroke-width="0" stroke-linecap="butt"/><path d="M228.7406,174.55607c0,0 0.94588,-0.72039 1.42002,-1.02519c0.43391,-0.27894 1.31486,-0.73294 1.31486,-0.73294h16.99532c0,0 1.1878,0.66498 1.64118,0.97177c0.40784,0.27598 0.95696,0.78636 0.95696,0.78636z" fill="#005f4e" stroke="none" stroke-width="0" stroke-linecap="butt"/><path d="M223.10528,188.88927c0,0 -0.10776,-0.43911 -0.20473,-0.95238c-0.07502,-0.3971 -0.04101,-0.83861 -0.0482,-1.1555c-0.00902,-0.39764 -0.04523,-1.02008 0.02175,-1.53343c0.064,-0.49055 0.12861,-0.88149 0.12861,-0.88149h33.82361c0,0 0.15863,0.50919 0.20312,1.08688c0.033,0.42842 -0.04295,0.89452 -0.05028,1.21856c-0.00815,0.35902 0.035,0.88577 -0.02446,1.33577c-0.06415,0.48544 -0.23093,0.8816 -0.23093,0.8816z" fill="#48edce" stroke="none" stroke-width="0" stroke-linecap="butt"/><path d="M251.07869,198.203c0,0 -0.94587,0.72039 -1.42001,1.02519c-0.43391,0.27894 -1.31486,0.73294 -1.31486,0.73294h-16.99532c0,0 -1.1878,-0.66497 -1.64118,-0.97177c-0.40784,-0.27598 -0.95696,-0.78636 -0.95696,-0.78636z" data-paper-data="{&quot;index&quot;:null}" fill="#23bca2" stroke="none" stroke-width="0" stroke-linecap="butt"/><g fill="#22af9a" stroke="none" stroke-width="0" stroke-linecap="butt"><path d="M225.25617,187.57808v-1.42243h1.42244v1.42243z"/><path d="M227.17336,187.57808v-1.42243h1.42244v1.42243z"/><path d="M229.13421,187.55988v-1.42243h1.42244v1.42243z"/><path d="M231.05141,187.55988v-1.42243h1.42244v1.42243z"/></g><g fill="#20c9a9" stroke="none" stroke-width="0" stroke-linecap="butt"><path d="M244.33834,190.9856v-1.42243h1.42244v1.42243z"/><path d="M246.25553,190.9856v-1.42243h1.42244v1.42243z"/><path d="M248.21638,190.96742v-1.42243h1.42243v1.42243z"/><path d="M250.13357,190.96742v-1.42243h1.42243v1.42243z"/></g><g stroke="none" stroke-width="0" stroke-linecap="butt"><path d="M230.0056,213.5402l1.28729,-14.06409h17.28646l1.28729,14.06409z" fill="#1f8873"/><path d="M230.84021,205.00654l0.28882,-2.86907h17.62832l0.28881,2.86907z" fill="#005f4e"/><path d="M230.37338,210.69926l0.3034,-2.86907h18.51865l0.3034,2.86907z" fill="#005f4e"/></g><g stroke="none" stroke-width="0" stroke-linecap="butt"><path d="M225.50764,267.07736l3.71042,-20.47994h21.43607l3.71042,20.47994z" fill="#1f8873"/><path d="M227.74255,254.65077l1.03299,-4.17791h22.34168l1.03298,4.17791z" fill="#005f4e"/><path d="M226.24647,262.94042l0.84972,-4.1779h25.67979l0.84972,4.1779z" fill="#005f4e"/></g><path d="M211.82397,299.12486l-0.20445,-9.09811h57.24652l-0.20445,9.09811z" fill="#018871" stroke="none" stroke-width="0" stroke-linecap="butt"/><path d="M211.72174,295.24027l-0.20445,-6.13356c0,0 6.91161,-0.0646 10.47772,-0.09792c0.70568,-0.00659 1.55389,1.13572 2.46513,1.16894c3.89179,0.1419 8.9335,0.05346 8.9335,0.05346v5.00907z" fill="#018871" stroke="none" stroke-width="0" stroke-linecap="butt"/><path d="M247.09191,295.03582v-5.00907c0,0 5.04171,0.08843 8.9335,-0.05346c0.91125,-0.03322 1.75945,-1.17554 2.46513,-1.16894c3.56612,0.03333 10.47772,0.09792 10.47772,0.09792l-0.20445,6.13356z" data-paper-data="{&quot;index&quot;:null}" fill="#018871" stroke="none" stroke-width="0" stroke-linecap="butt"/><g fill="#20c9a9" stroke="none" stroke-width="0" stroke-linecap="butt"><path d="M247.40511,225.55987v-1.42243h1.42244v1.42243z"/><path d="M249.32231,225.55987v-1.42243h1.42244v1.42243z"/><path d="M251.28316,225.54168v-1.42243h1.42243v1.42243z"/><path d="M253.20035,225.54168v-1.42243h1.42243v1.42243z"/></g><g><path d="M248.62691,285.32996c0,0 1.18998,0.80222 2.01618,2.97062c0.52739,1.38416 0.62364,3.81001 1.08795,5.36134c0.70168,2.34438 0.79696,4.56089 1.06255,5.68623c0.22518,0.95413 0.04541,2.30959 -0.0701,2.88555c-0.05866,0.29249 -6.83827,0.24603 -8.93971,0.22458c-0.16876,-0.00172 -0.96902,-0.31219 -1.58567,-1.12132c-0.79273,-1.0402 -1.21095,-2.63739 -1.21095,-2.63739z" data-paper-data="{&quot;index&quot;:null}" fill="#195144" stroke="#3f877b" stroke-width="0.5" stroke-linecap="round"/><path d="M238.70263,298.56315c0,0 -0.41822,1.59719 -1.21095,2.63739c-0.61665,0.80914 -1.4169,1.1196 -1.58567,1.12132c-2.10144,0.02145 -8.88106,0.06791 -8.93971,-0.22458c-0.11551,-0.57596 -0.29528,-1.93143 -0.0701,-2.88555c0.26557,-1.12533 0.36087,-3.34185 1.06255,-5.68623c0.46431,-1.55133 0.56055,-3.97718 1.08795,-5.36134c0.8262,-2.16841 2.01618,-2.97062 2.01618,-2.97062z" fill="#195144" stroke="#3f877b" stroke-width="0.5" stroke-linecap="round"/><path d="M226.03973,296.51679c0,0 -0.10273,-2.50509 0.2132,-3.81282c0.14042,-0.58124 0.55553,-0.62097 0.67356,-0.62097c0.10118,0 0.45021,0.1433 0.60293,0.69934c0.35785,1.30297 0.35205,3.73447 0.35205,3.73447" fill="none" stroke="#3f877b" stroke-width="1" stroke-linecap="round"/><path d="M224.90454,297.67641c0,-1.13017 0.91619,-2.04637 2.04637,-2.04637c1.13017,0 2.04637,0.91619 2.04637,2.04637c0,1.13017 -0.91619,2.04637 -2.04637,2.04637c-1.13017,0 -2.04637,-0.91619 -2.04637,-2.04637z" fill="url(#color-1)" stroke="#3f877b" stroke-width="0.5" stroke-linecap="butt"/><path d="M225.97159,296.38039c0,0 -0.10273,-2.50509 0.2132,-3.81282c0.14042,-0.58124 0.55553,-0.62097 0.67356,-0.62097c0.10118,0 0.45021,0.1433 0.60293,0.69934c0.35785,1.30297 0.35205,3.73447 0.35205,3.73447" fill="none" stroke="url(#color-2)" stroke-width="0.5" stroke-linecap="round"/><path d="M250.03641,296.78386c0,-0.76498 0.73694,-1.86503 1.29595,-2.89862c0.48944,-0.90494 0.75584,-1.80224 1.42561,-1.80224c0.68575,0 0.53894,1.11726 0.97373,2.05293c0.4749,1.02197 1.5004,1.89894 1.5004,2.64793c0,1.43476 -1.16309,2.59785 -2.59785,2.59785c-1.43476,0 -2.59785,-1.16311 -2.59785,-2.59785z" fill="#ffffff" stroke="#3f877b" stroke-width="0.5" stroke-linecap="butt"/></g><path d="M191.86668,327.26051v-247.82453h97.33334v247.82453z" fill="none" stroke="none" stroke-width="NaN" stroke-linecap="butt"/><path d="M191.86668,327.26051v-247.82453h97.33334v247.82453z" fill="none" stroke="none" stroke-width="NaN" stroke-linecap="butt"/><path d="M217.73811,303.90478c0,0 -3.10249,-3.52685 -3.40981,-7.415c-0.32679,-4.1344 -0.31251,-9.2313 0.88656,-13.50467c0.81308,-2.8977 2.55678,-5.41675 3.6202,-7.00028c2.82641,-4.20877 9.44466,-7.21107 9.747,-9.69368c0.64636,-5.30758 3.44727,-10.1699 2.57692,-18.33479c-0.43205,-4.05317 -5.28726,-7.28426 -7.78786,-11.48845c-1.5971,-2.68515 -1.38788,-6.10559 -1.20802,-9.28838c0.16805,-2.97386 2.01627,-6.36924 4.91798,-8.80757c1.19324,-1.00269 3.63293,-0.65655 4.52525,-1.92153c1.81965,-2.57959 2.04264,-5.82881 2.30331,-9.12986c0.16233,-2.05563 0.60164,-4.21882 0.64848,-5.98569c0.04611,-1.73926 -4.38264,-4.17812 -6.391,-8.32465c-1.7898,-3.69531 -1.18695,-9.12903 -1.11813,-10.67152c0.07423,-1.66374 1.2958,-3.77786 3.26438,-5.53467c1.07514,-0.95949 3.07482,-1.21092 3.60802,-2.61629c1.83391,-4.83375 1.55694,-10.51894 1.66414,-13.43845c0.06068,-1.65239 -3.49603,-3.93593 -5.24917,-6.9754c-1.60492,-2.78249 -1.42074,-6.33728 -1.34749,-7.73062c0.06442,-1.22529 0.50959,-2.95021 1.83097,-4.09928c1.45558,-1.26576 3.82194,-1.95474 4.42323,-3.29984c0.97268,-2.1759 1.78154,-7.544 2.12807,-12.85337c0.45692,-7.00068 2.60505,-13.0765 2.60505,-13.0765" fill="none" stroke-opacity="0.16078" stroke="#ffffff" stroke-width="2" stroke-linecap="round"/><path d="M235.06221,223.43448c0,0 3.38124,-1.46846 4.99829,-1.50192c1.60803,-0.03327 4.8773,1.63537 4.8773,1.63537" fill="none" stroke="#41c7b2" stroke-width="1.5" stroke-linecap="round"/></g></g></svg>