<svg version="1.1" xmlns="http://www.w3.org/2000/svg" xmlns:xlink="http://www.w3.org/1999/xlink" width="32.18964" height="69.98164" viewBox="0,0,32.18964,69.98164"><g transform="translate(-223.9052,-145.00921)"><g data-paper-data="{&quot;isPaintingLayer&quot;:true}" fill-rule="nonzero" stroke-linejoin="miter" stroke-miterlimit="10" stroke-dasharray="" stroke-dashoffset="0" style="mix-blend-mode: normal"><path d="M223.90521,208.32315c0,-13.44895 0,-44.19668 0,-51.64628c0,-3.17904 1.18659,-6.346 3.08653,-6.346c6.68138,0 22.18448,0 25.92809,0c1.59053,0 3.17502,3.16696 3.17502,6.346c0,7.51567 0,38.74459 0,52.00002c0,3.69408 -1.53433,5.99225 -3.08653,5.99225c-3.69771,0 -19.17433,0 -25.92808,0c-1.95175,0 -3.17502,-2.44546 -3.17502,-6.34599z" fill="#272727" stroke="none" stroke-width="0" stroke-linecap="butt"/><path d="M225.98722,214.99085v-64.78867h28.02563v64.78867z" fill-opacity="0.00784" fill="#454545" stroke="none" stroke-width="0" stroke-linecap="butt"/><path d="M237.85411,210.7285c0,0 0.06258,-1.15875 0.12627,-1.56404c0.06779,-0.43139 0.35876,-1.04073 0.35876,-1.04073l3.21554,-0.01796c0,0 0.17685,0.69359 0.25728,1.0689c0.09633,0.44954 0.17386,1.55383 0.17386,1.55383z" fill="#2c3132" stroke="none" stroke-width="0" stroke-linecap="butt"/><path d="M238.19606,208.21109l-0.08522,-0.53767l3.66464,-0.02068l-0.06392,0.55834z" fill="#4d1c00" stroke="none" stroke-width="0" stroke-linecap="butt"/><path d="M237.35052,181.83483l-0.18134,-5.96402l5.32116,-0.07186c0,0 0.18826,0.08339 0.18372,0.19147c-0.02512,0.59714 -0.24583,5.84441 -0.24583,5.84441z" fill="#ff6302" stroke="none" stroke-width="0" stroke-linecap="butt"/><path d="M237.423,172.70916v-15.08969h4.95804v15.08969z" fill="#ff6302" stroke="none" stroke-width="0" stroke-linecap="butt"/><path d="M237.42733,158.87695v-0.57485h4.94505v0.57485z" fill="#ff9c02" stroke="#000000" stroke-width="0" stroke-linecap="butt"/><path d="M237.41866,170.19421v-4.3832h4.95988v4.3832z" fill="#ffb601" stroke="none" stroke-width="0" stroke-linecap="butt"/><path d="M239.00857,154.31411c0,0 0.34002,-0.89156 0.50816,-1.27587c0.14747,-0.33707 0.44681,-0.90693 0.44681,-0.90693c0,0 0.25196,0.5771 0.37589,0.90759c0.14545,0.38788 0.44266,1.27521 0.44266,1.27521z" fill="#cd2d04" stroke="#cd2d04" stroke-width="0" stroke-linecap="round"/><path d="M240.71106,154.10852c0,0 0.38619,0.73898 0.60849,1.20621c0.3083,0.64799 1.06919,2.31998 1.06919,2.31998l-4.97307,-0.00527c0,0 0.73899,-1.66975 1.04881,-2.31678c0.22336,-0.46647 0.63714,-1.20415 0.63714,-1.20415z" fill="#ff3600" stroke="#ff3600" stroke-width="0" stroke-linecap="round"/><g data-paper-data="{&quot;index&quot;:null}" stroke-linecap="round"><path d="M243.20098,195.87538c0,0 1.7255,3.93516 2.46516,6.1934c0.84206,2.57089 2.10821,8.54299 2.10821,8.54299" fill="none" stroke="#c34e00" stroke-width="1"/><path d="M243.28568,196.21415c0,0 2.14505,5.11269 2.98055,7.88828c0.33278,1.10551 0.84985,2.72477 1.19772,4.26816c0.13516,0.59965 0.25538,1.18785 0.35927,1.73001c0.2957,1.54303 0.45927,2.71316 0.45927,2.71316h-0.38111c0,0 -1.11622,-2.20817 -1.78361,-3.09803c-0.64453,-0.85938 -2.15456,-2.15287 -2.15456,-2.15287c0,0 -0.06612,-0.6873 -0.1254,-1.0166c-0.06685,-0.37139 -0.25572,-1.1007 -0.25572,-1.1007z" fill="#8d3701" stroke="#8e3802" stroke-width="0.5"/></g><g stroke-linecap="round"><path d="M231.94369,210.56338c0,0 1.26615,-5.9721 2.10821,-8.54299c0.73966,-2.25824 2.46516,-6.1934 2.46516,-6.1934" fill="none" stroke="#c34e00" stroke-width="1"/><path d="M236.13593,205.39717c0,0 -0.18887,0.72931 -0.25572,1.1007c-0.05927,0.32929 -0.1254,1.0166 -0.1254,1.0166c0,0 -1.51003,1.29349 -2.15456,2.15287c-0.66739,0.88986 -1.78361,3.09803 -1.78361,3.09803h-0.38111c0,0 0.16356,-1.17013 0.45927,-2.71316c0.1039,-0.54216 0.22411,-1.13036 0.35927,-1.73001c0.34788,-1.54338 0.86494,-3.16264 1.19772,-4.26816c0.83551,-2.77559 2.98055,-7.88828 2.98055,-7.88828z" fill="#8d3701" stroke="#8e3802" stroke-width="0.5"/></g><path d="M237.423,164.69725v-1.18562h0.57485v1.18562z" fill="#feb501" stroke="none" stroke-width="0" stroke-linecap="butt"/><path d="M238.82939,164.70248v-1.18562h0.79041v1.18562z" fill="#feb501" stroke="none" stroke-width="0" stroke-linecap="butt"/><path d="M240.20609,164.70771v-1.18562h0.79041v1.18562z" fill="#feb501" stroke="none" stroke-width="0" stroke-linecap="butt"/><path d="M241.76845,164.71295v-1.18562h0.61077v1.18562z" fill="#feb501" stroke="none" stroke-width="0" stroke-linecap="butt"/><path d="M237.1731,176.15823c0,0 -0.03121,-1.94599 0.01555,-2.58316c0.02524,-0.34383 0.24283,-0.93777 0.24283,-0.93777h4.94607c0,0 0.23918,0.50767 0.27557,0.94155c0.02324,0.27707 0.03024,0.78661 0.03064,1.28008c0.00053,0.66419 -0.01092,1.29929 -0.01092,1.29929z" fill="#ff9b01" stroke="none" stroke-width="0" stroke-linecap="butt"/><path d="M236.40002,186.39767l0.95839,-4.70655h5.05889l0.82601,4.70655c0,0 -1.82302,0 -2.85377,0c-1.21872,0 -3.98953,0 -3.98953,0z" fill="#ff7f02" stroke="none" stroke-width="0" stroke-linecap="butt"/><path d="M236.16552,187.61921c0,0 0.00978,-0.62142 0.05592,-0.86528c0.03378,-0.17858 0.19558,-0.46405 0.19558,-0.46405h6.81987c0,0 0.19046,0.36715 0.23072,0.57999c0.04334,0.22907 0.06311,0.74934 0.06311,0.74934z" fill="#e25904" stroke="none" stroke-width="0" stroke-linecap="butt"/><path d="M236.15909,191.212v-3.62871h7.37162l-0.01255,3.62871z" fill="#c64e01" stroke="none" stroke-width="0" stroke-linecap="butt"/><path d="M236.95592,207.7388l-0.14371,-0.93413l6.17959,-0.03593l-0.10778,0.97005z" fill="#692700" stroke="none" stroke-width="0" stroke-linecap="butt"/><path d="M236.16585,207.09209c0,0 -0.10811,-0.20638 -0.10811,-0.50299c0,-0.1792 0.10811,-0.39133 0.10811,-0.61077c0,-2.1242 0,-14.80227 0,-14.80227h7.35175c0,0 0,12.92293 0,14.94598c0,0.18081 0.10811,0.35414 0.10811,0.50299c0,0.27545 -0.10811,0.46706 -0.10811,0.46706z" fill="#a94202" stroke="none" stroke-width="0" stroke-linecap="butt"/><path d="M237.08449,203.92854c0,0 -0.13983,-16.81481 -0.06599,-16.90417c0.03302,-0.03996 0.00017,-0.17902 0.05931,-0.31301c0.05515,-0.12495 0.20335,-0.24549 0.20985,-0.27716c0.19206,-0.93611 0.92267,-4.50783 0.917,-4.64251c-0.0461,-1.09396 -0.23166,-5.50657 -0.22989,-5.60907c0.01092,-0.63115 0.04922,-2.64659 0.09276,-2.80189c0.07263,-0.25909 0.15982,-0.60115 0.15871,-0.74654c-0.01821,-2.37159 -0.11121,-14.87218 -0.04978,-15.01055c0.1809,-0.40744 1.01052,-2.27603 1.29881,-2.92536c0.06207,-0.13981 0.24214,-0.681 0.24214,-0.681" fill="none" stroke-opacity="0.16078" stroke="#ffffff" stroke-width="0.5" stroke-linecap="round"/><path d="M229.00004,214.90844v-69.89923h22v69.89923z" fill="none" stroke="none" stroke-width="NaN" stroke-linecap="butt"/></g></g></svg>