<svg version="1.1" xmlns="http://www.w3.org/2000/svg" xmlns:xlink="http://www.w3.org/1999/xlink" width="32.18964" height="64.33827" viewBox="0,0,32.18964,64.33827"><g transform="translate(-223.6524,-150.33087)"><g data-paper-data="{&quot;isPaintingLayer&quot;:true}" fill-rule="nonzero" stroke-linejoin="miter" stroke-miterlimit="10" stroke-dasharray="" stroke-dashoffset="0" style="mix-blend-mode: normal"><path d="M223.6524,208.32315c0,-13.44895 0,-44.19668 0,-51.64628c0,-3.17904 1.18659,-6.346 3.08653,-6.346c6.68138,0 22.18448,0 25.92809,0c1.59053,0 3.17502,3.16696 3.17502,6.346c0,7.51567 0,38.74459 0,52.00002c0,3.69408 -1.53433,5.99225 -3.08653,5.99225c-3.69771,0 -19.17433,0 -25.92808,0c-1.95175,0 -3.17502,-2.44546 -3.17502,-6.34599z" fill="#272727" stroke="none" stroke-width="0" stroke-linecap="butt"/><g><path d="M237.70144,210.02322c0,0 0.0058,-1.09439 0.35557,-1.94299c0.22147,-0.53734 0.75227,-0.97614 0.96067,-0.97614c0.40451,0 1.16934,0 1.8599,0c0.3065,0 0.85589,0.47428 1.09511,1.04049c0.35426,0.8385 0.33559,1.87864 0.33559,1.87864z" fill="#2c3132" stroke="none" stroke-width="0" stroke-linecap="butt"/><path d="M238.67494,208.93727c0,0 0.00334,-0.53002 0.20529,-0.94102c0.12787,-0.26024 0.43435,-0.47276 0.55468,-0.47276c0.23355,0 0.67516,0 1.07387,0c0.17696,0 0.49417,0.2297 0.63229,0.50393c0.20454,0.4061 0.19376,0.90985 0.19376,0.90985z" fill="#4b5555" stroke="none" stroke-width="0" stroke-linecap="butt"/><path d="M235.0333,179.40892v-1.46704h10.48666v1.46704z" fill="#1a231d" stroke="none" stroke-width="0" stroke-linecap="butt"/><path d="M234.59862,187.88519v-1.46704h10.48666v1.46704z" fill="#1a231d" stroke="none" stroke-width="0" stroke-linecap="butt"/><path d="M235.1963,197.6655v-1.46705h10.48667v1.46705z" fill="#1a231d" stroke="none" stroke-width="0" stroke-linecap="butt"/><path d="M244.43158,209.7459c0,0 0.00438,-0.82702 0.2687,-1.46831c0.16736,-0.40607 0.56849,-0.73766 0.72598,-0.73766c0.30569,0 0.88367,0 1.40553,0c0.23162,0 0.64678,0.35841 0.82756,0.7863c0.26772,0.63366 0.2536,1.41967 0.2536,1.41967z" fill="#2c3132" stroke="none" stroke-width="0" stroke-linecap="butt"/><path d="M236.11224,168.60622c0,0 0.22961,-4.28437 1.24695,-7.47015c0.68507,-2.14527 2.10466,-3.6142 2.62682,-3.6142c0.5498,0 1.87065,1.46233 2.59542,3.72754c1.0026,3.13358 1.35506,7.35681 1.35506,7.35681z" fill="#6e9767" stroke="none" stroke-width="0" stroke-linecap="butt"/><path d="M244.98155,207.70142l-0.14818,-0.41986h2.66735l-0.14818,0.41986z" fill="#1a2424" stroke="none" stroke-width="0" stroke-linecap="butt"/><path d="M244.06773,206.98519h4.09983c0,0 -0.10646,0.39517 -0.42241,0.39517c-0.90877,0 -2.82784,0 -3.27987,0c-0.19962,0 -0.39755,-0.39517 -0.39755,-0.39517z" fill="#222f2d" stroke="none" stroke-width="0" stroke-linecap="butt"/><path d="M239.94496,152.49797v3.63627" fill="none" stroke="#323b3a" stroke-width="0.5" stroke-linecap="round"/><path d="M236.10965,169.1921v-0.73741h7.82166v0.73741c0,0 -0.66043,0 -1.23496,0c-1.32685,0 -6.5867,0 -6.5867,0z" fill="#395138" stroke="#323b3a" stroke-width="0" stroke-linecap="butt"/><path d="M239.62886,154.89341c0,0 0.19832,-0.30563 0.31609,-0.30563c0.15203,0 0.35004,0.30563 0.35004,0.30563" fill="none" stroke="#323b3a" stroke-width="1" stroke-linecap="round"/><path d="M238.06412,159.46121c0,0 1.01503,-3.35205 1.59468,-3.35205c0.16119,0 0.37092,0 0.59801,0c0.75202,0 1.69436,3.35205 1.69436,3.35205z" fill="#253425" stroke="none" stroke-width="0" stroke-linecap="butt"/><path d="M237.86908,159.8945l0.23546,-0.54335h3.80345l0.163,0.54335z" fill="#375332" stroke="none" stroke-width="0" stroke-linecap="butt"/><path d="M236.09963,175.91789v-6.75112h7.82877v6.75112z" fill="#272429" stroke="none" stroke-width="0" stroke-linecap="butt"/><path d="M240.37365,170.44406h-0.7374v-1.36937h0.7374c0,0 0,0.11562 0,0.21621c0,0.23229 0,1.15317 0,1.15317z" fill="#395138" stroke="#323b3a" stroke-width="0" stroke-linecap="butt"/><path d="M236.09737,206.61719v-30.76042h7.82424v30.76043z" fill="#000003" stroke="none" stroke-width="0" stroke-linecap="butt"/><path d="M236.10641,176.34297v-0.54335h7.80335v0.54335z" fill="#0f140d" stroke="none" stroke-width="0" stroke-linecap="butt"/><path d="M232.26222,201.66591v-25.53747h3.26011v25.53747z" fill="#709665" stroke="none" stroke-width="0" stroke-linecap="butt"/><path d="M232.25185,181.75364v-2.87976h3.27563v2.87976z" fill="#4e6f46" stroke="none" stroke-width="0" stroke-linecap="butt"/><path d="M232.26205,182.01415v-0.27167h3.2601v0.27167z" fill="#426439" stroke="none" stroke-width="0" stroke-linecap="butt"/><path d="M232.26205,178.92385v-0.27167h3.2601v0.27167z" fill="#426439" stroke="none" stroke-width="0" stroke-linecap="butt"/><g stroke="none" stroke-width="0" stroke-linecap="butt"><path d="M232.25639,188.16517v-2.87975h3.27563v2.87975z" fill="#4e6f46"/><path d="M232.26657,188.42569v-0.27168h3.2601v0.27168z" fill="#426439"/><path d="M232.26657,185.33538v-0.27168h3.2601v0.27168z" fill="#426439"/></g><g stroke="none" stroke-width="0" stroke-linecap="butt"><path d="M232.28205,194.52841v-2.87976h3.27563v2.87976z" fill="#4e6f46"/><path d="M232.29224,194.78892v-0.27168h3.2601v0.27168z" fill="#426439"/><path d="M232.29224,191.69862v-0.27168h3.2601v0.27168z" fill="#426439"/></g><path d="M234.43042,173.18538c0,0 0.25337,0.62762 0.39921,1.02444c0.20226,0.55033 0.70146,1.97035 0.70146,1.97035l-3.26264,-0.00448c0,0 0.48483,-1.41811 0.68809,-1.96764c0.14654,-0.39617 0.418,-1.02268 0.418,-1.02268c0,0 0.07581,-0.1944 0.1966,-0.29227c0.09867,-0.07996 0.23615,-0.11837 0.31393,-0.11837c0.07863,0 0.23325,0.03528 0.33737,0.11316c0.13261,0.09919 0.20799,0.29749 0.20799,0.29749z" fill="#3a5335" stroke="#ff3600" stroke-width="0" stroke-linecap="round"/><path d="M244.49387,200.82372v-24.66811h3.2601v24.66811z" fill="#709665" stroke="none" stroke-width="0" stroke-linecap="butt"/><path d="M244.48352,181.7808v-2.87976h3.27563v2.87976z" fill="#4e6f46" stroke="none" stroke-width="0" stroke-linecap="butt"/><path d="M244.4937,182.04132v-0.27167h3.2601v0.27167z" fill="#426439" stroke="none" stroke-width="0" stroke-linecap="butt"/><path d="M244.4937,178.95102v-0.27167h3.2601v0.27167z" fill="#426439" stroke="none" stroke-width="0" stroke-linecap="butt"/><path d="M244.48805,188.19234v-2.87976h3.27563v2.87976z" fill="#4e6f46" stroke="none" stroke-width="0" stroke-linecap="butt"/><path d="M244.49824,188.45286v-0.27167h3.2601v0.27167z" fill="#426439" stroke="none" stroke-width="0" stroke-linecap="butt"/><path d="M244.49824,185.36255v-0.27167h3.2601v0.27167z" fill="#426439" stroke="none" stroke-width="0" stroke-linecap="butt"/><path d="M244.51369,194.55558v-2.87976h3.27562v2.87976z" fill="#4e6f46" stroke="none" stroke-width="0" stroke-linecap="butt"/><path d="M244.5239,194.81609v-0.27167h3.2601v0.27167z" fill="#426439" stroke="none" stroke-width="0" stroke-linecap="butt"/><path d="M244.5239,191.72579v-0.27167h3.2601v0.27167z" fill="#426439" stroke="none" stroke-width="0" stroke-linecap="butt"/><path d="M246.66206,173.21255c0,0 0.25337,0.62762 0.39921,1.02444c0.20226,0.55033 0.70146,1.97035 0.70146,1.97035l-3.26263,-0.00448c0,0 0.48483,-1.41812 0.68809,-1.96764c0.14654,-0.39617 0.418,-1.02267 0.418,-1.02267c0,0 0.07581,-0.1944 0.1966,-0.29228c0.09867,-0.07996 0.23615,-0.11837 0.31393,-0.11837c0.07863,0 0.23325,0.03528 0.33737,0.11316c0.13261,0.09919 0.208,0.29749 0.208,0.29749z" fill="#3a5335" stroke="#ff3600" stroke-width="0" stroke-linecap="round"/><path d="M238.3624,206.28338v-30.14727h3.26011v30.14727z" fill="#709665" stroke="none" stroke-width="0" stroke-linecap="butt"/><path d="M238.35204,181.76131v-2.87976h3.27562v2.87976z" fill="#4e6f46" stroke="none" stroke-width="0" stroke-linecap="butt"/><path d="M238.36224,182.02183v-0.27168h3.26011v0.27168z" fill="#426439" stroke="none" stroke-width="0" stroke-linecap="butt"/><path d="M238.36224,178.93153v-0.27168h3.26011v0.27168z" fill="#426439" stroke="none" stroke-width="0" stroke-linecap="butt"/><path d="M238.35658,188.17285v-2.87976h3.27563v2.87976z" fill="#4e6f46" stroke="none" stroke-width="0" stroke-linecap="butt"/><path d="M238.36676,188.43336v-0.27168h3.2601v0.27168z" fill="#426439" stroke="none" stroke-width="0" stroke-linecap="butt"/><path d="M238.36676,185.34306v-0.27168h3.2601v0.27168z" fill="#426439" stroke="none" stroke-width="0" stroke-linecap="butt"/><path d="M238.38223,194.53608v-2.87975h3.27562v2.87975z" fill="#4e6f46" stroke="none" stroke-width="0" stroke-linecap="butt"/><path d="M238.39243,194.7966v-0.27168h3.26011v0.27168z" fill="#426439" stroke="none" stroke-width="0" stroke-linecap="butt"/><path d="M238.39243,191.7063v-0.27167h3.26011v0.27167z" fill="#426439" stroke="none" stroke-width="0" stroke-linecap="butt"/><path d="M240.5306,173.19306c0,0 0.25337,0.62762 0.39921,1.02444c0.20226,0.55033 0.70145,1.97035 0.70145,1.97035l-3.26263,-0.00448c0,0 0.48483,-1.41811 0.68809,-1.96764c0.14654,-0.39617 0.418,-1.02268 0.418,-1.02268c0,0 0.07581,-0.1944 0.1966,-0.29227c0.09867,-0.07996 0.23615,-0.11837 0.31393,-0.11837c0.07863,0 0.23325,0.03528 0.33737,0.11316c0.13261,0.09919 0.208,0.29749 0.208,0.29749z" fill="#3a5335" stroke="#ff3600" stroke-width="0" stroke-linecap="round"/><path d="M232.45626,177.53048v-0.50454h0.23287v0.50454z" fill="#4e6f46" stroke="none" stroke-width="0" stroke-linecap="butt"/><path d="M234.66848,184.32236v-0.27167h0.50454v0.27167z" fill="#4e6f46" stroke="none" stroke-width="0" stroke-linecap="butt"/><path d="M233.42654,191.3083v-0.15525h0.38811v0.15525z" fill="#4e6f46" stroke="none" stroke-width="0" stroke-linecap="butt"/><path d="M247.32078,177.6081v-0.7374h0.27167v0.7374z" fill="#4e6f46" stroke="none" stroke-width="0" stroke-linecap="butt"/><path d="M240.60652,178.34551v-0.27167h0.19406v0.27167z" fill="#4e6f46" stroke="none" stroke-width="0" stroke-linecap="butt"/><path d="M245.10857,184.94333v-0.23287h0.46573v0.23287z" fill="#4e6f46" stroke="none" stroke-width="0" stroke-linecap="butt"/><path d="M244.8369,180.94582v-0.31048h0.31048v0.31048z" fill="#426439" stroke="none" stroke-width="0" stroke-linecap="butt"/><path d="M238.54956,179.47102v-0.3881h0.15525v0.3881z" fill="#426439" stroke="none" stroke-width="0" stroke-linecap="butt"/><path d="M232.5727,186.14647v-0.15524h0.62098v0.15524z" fill="#426439" stroke="none" stroke-width="0" stroke-linecap="butt"/><path d="M245.28969,192.33602v-0.30136h0.46573v0.30136z" fill="#426439" stroke="none" stroke-width="0" stroke-linecap="butt"/><path d="M246.79251,196.82789v-0.46328h0.91636v0.46328z" fill="#4e6f46" stroke="none" stroke-width="0" stroke-linecap="butt"/><path d="M244.47987,206.13003v-7.01107h3.26936v7.01107z" fill="#29463b" stroke="none" stroke-width="0" stroke-linecap="butt"/><path d="M244.06773,207.00988c0,0 0.23915,-2.0993 0.46926,-2.0993c0.47257,0 2.22638,0 3.11191,0c0.31386,0 0.51866,2.0993 0.51866,2.0993z" fill="#344440" stroke="none" stroke-width="0" stroke-linecap="butt"/><path d="M244.4876,201.65048v-0.22228h3.2107v0.22228z" fill="#22392f" stroke="none" stroke-width="0" stroke-linecap="butt"/><path d="M244.51229,202.4902v-0.22228h3.21071v0.22228z" fill="#22392f" stroke="none" stroke-width="0" stroke-linecap="butt"/><path d="M244.4876,203.30522v-0.22228h3.2107v0.22228z" fill="#22392f" stroke="none" stroke-width="0" stroke-linecap="butt"/><path d="M244.4876,204.09555v-0.22228h3.2107v0.22228z" fill="#22392f" stroke="none" stroke-width="0" stroke-linecap="butt"/><path d="M244.4876,204.88588v-0.22228h3.2107v0.22228z" fill="#22392f" stroke="none" stroke-width="0" stroke-linecap="butt"/><path d="M238.8956,206.24774c0,0 0,-0.23488 0,-0.67919c0,-2.31033 0,-21.70971 0,-29.1598c0,-0.69849 0.29751,-1.19189 0.43978,-1.58943c0.22359,-0.62477 0.32997,-0.9462 0.32997,-0.9462" fill="none" stroke-opacity="0.16078" stroke="#ffffff" stroke-width="0.5" stroke-linecap="round"/><path d="M232.08704,209.74138c0,0 -0.01412,-0.78602 0.2536,-1.41967c0.18078,-0.42789 0.59596,-0.7863 0.82757,-0.7863c0.52185,0 1.09984,0 1.40552,0c0.15749,0 0.55861,0.33159 0.72598,0.73766c0.26432,0.64129 0.2687,1.46831 0.2687,1.46831z" fill="#2c3132" stroke="none" stroke-width="0" stroke-linecap="butt"/><path d="M232.64747,207.6969l-0.14819,-0.41986h2.66736l-0.14818,0.41986z" fill="#1a2424" stroke="none" stroke-width="0" stroke-linecap="butt"/><path d="M235.5347,207.37582c-0.45202,0 -2.37108,0 -3.27986,0c-0.31594,0 -0.4224,-0.39516 -0.4224,-0.39516h4.09982c0,0 -0.19794,0.39516 -0.39756,0.39516z" fill="#222f2d" stroke="none" stroke-width="0" stroke-linecap="butt"/><path d="M232.25075,206.1255v-7.01108h3.26936v7.01108z" fill="#29463b" stroke="none" stroke-width="0" stroke-linecap="butt"/><path d="M231.83243,207.00536c0,0 0.20478,-2.0993 0.51865,-2.0993c0.88554,0 2.63935,0 3.11192,0c0.23011,0 0.46926,2.0993 0.46926,2.0993z" fill="#344440" stroke="none" stroke-width="0" stroke-linecap="butt"/><path d="M232.3017,201.64595v-0.22228h3.2107v0.22228z" fill="#22392f" stroke="none" stroke-width="0" stroke-linecap="butt"/><path d="M232.277,202.48567v-0.22228h3.2107v0.22228z" fill="#22392f" stroke="none" stroke-width="0" stroke-linecap="butt"/><path d="M232.3017,203.30069v-0.22227h3.2107v0.22227z" fill="#22392f" stroke="none" stroke-width="0" stroke-linecap="butt"/><path d="M232.3017,204.09102v-0.22228h3.2107v0.22228z" fill="#22392f" stroke="none" stroke-width="0" stroke-linecap="butt"/><path d="M232.3017,204.88135v-0.22228h3.2107v0.22228z" fill="#22392f" stroke="none" stroke-width="0" stroke-linecap="butt"/><path d="M236.09637,206.4627h7.82424c0,0 0.08344,0.19086 -0.2287,0.38137c-0.31101,0.18983 -1.01669,0.37932 -1.51002,0.37932c-1.46233,0 -3.44592,0 -4.29247,0c-0.51869,0 -1.31094,-0.17899 -1.66929,-0.40436c-0.1761,-0.11075 -0.12377,-0.35634 -0.12377,-0.35634z" fill="#000003" stroke="none" stroke-width="0" stroke-linecap="butt"/><path d="M238.43998,207.74114l-0.19562,-0.55426h3.5212l-0.19562,0.55426z" fill="#1a2424" stroke="none" stroke-width="0" stroke-linecap="butt"/><path d="M237.12973,200.2709c0,0 0,-25.62027 0,-30.92569c0,-0.69668 -0.02883,-2.78978 0.36996,-5.00833c0.2736,-1.52209 0.73512,-2.46667 1.05559,-3.84016c0.44496,-1.90706 1.24592,-3.6033 1.24592,-3.6033" fill="none" stroke-opacity="0.16078" stroke="#ffffff" stroke-width="0.5" stroke-linecap="round"/><path d="M232.51124,206.70053c0,0 0.31696,-0.86878 0.31696,-1.31309c0,-2.31034 0,-21.70972 0,-29.15981c0,-0.69849 0.29751,-1.19189 0.43978,-1.58943c0.22359,-0.62477 0.32996,-0.9462 0.32996,-0.9462" fill="none" stroke-opacity="0.16078" stroke="#ffffff" stroke-width="0.5" stroke-linecap="round"/><path d="M244.78192,206.60998c0,0 0.27167,-0.82351 0.27167,-1.26782c0,-2.31034 0,-21.70972 0,-29.15981c0,-0.69849 0.29751,-1.19189 0.43978,-1.58943c0.22359,-0.62477 0.32996,-0.9462 0.32996,-0.9462" fill="none" stroke-opacity="0.16078" stroke="#ffffff" stroke-width="0.5" stroke-linecap="round"/></g></g></g></svg>