<svg version="1.1" xmlns="http://www.w3.org/2000/svg" xmlns:xlink="http://www.w3.org/1999/xlink" width="78" height="247.82453" viewBox="0,0,78,247.82453"><defs><linearGradient x1="227.46419" y1="289.33127" x2="227.46419" y2="293.33491" gradientUnits="userSpaceOnUse" id="color-1"><stop offset="0" stop-color="#fa0000"/><stop offset="1" stop-color="#cd0000"/></linearGradient><linearGradient x1="227.3992" y1="285.72802" x2="227.3992" y2="290.06528" gradientUnits="userSpaceOnUse" id="color-2"><stop offset="0" stop-color="#ff0000"/><stop offset="1" stop-color="#ef0000"/></linearGradient></defs><g transform="translate(-201,-75.73598)"><g data-paper-data="{&quot;isPaintingLayer&quot;:true}" fill-rule="nonzero" stroke-linejoin="miter" stroke-miterlimit="10" stroke-dasharray="" stroke-dashoffset="0" style="mix-blend-mode: normal"><path d="M245.13176,318.38702c0,0 0.01701,-3.55525 1.04284,-6.31205c0.64956,-1.74563 2.20634,-3.17111 2.81756,-3.17111c1.18637,0 3.42958,0 5.45491,0c0.89891,0 2.51022,1.54075 3.21185,3.38017c1.03904,2.724 0.98424,6.10298 0.98424,6.10298z" fill="#2c3132" stroke="none" stroke-width="0" stroke-linecap="butt"/><path d="M219.78176,318.41202c0,0 0.01701,-3.55525 1.04284,-6.31205c0.64956,-1.74563 2.20634,-3.17111 2.81756,-3.17111c1.18637,0 3.42958,0 5.45491,0c0.89892,0 2.51022,1.54076 3.21184,3.38018c1.03904,2.724 0.98424,6.10298 0.98424,6.10298z" fill="#2c3132" stroke="none" stroke-width="0" stroke-linecap="butt"/><path d="M259.22572,255.33589c0,0 1.82694,0.55945 3.02934,3.09978c2.23091,4.7133 4.72118,13.56868 6.38664,19.45183c3.11838,11.01546 8.286,37.50283 8.286,37.50283c0,0 -1.51537,0.03257 -4.06086,0.01165c-0.16782,-0.00138 -0.42739,0.09627 -0.4848,-0.05217c-2.04871,-5.29802 -3.8109,-7.79181 -9.61456,-17.17018c-6.01801,-9.72476 -17.79516,-21.91251 -17.79516,-21.91251z" data-paper-data="{&quot;index&quot;:null}" fill="#4d0115" stroke="none" stroke-width="0" stroke-linecap="butt"/><path d="M234.52769,276.36712c0,0 -11.77715,12.18775 -17.79516,21.91251c-5.80366,9.37837 -7.56585,11.87216 -9.61456,17.17018c-0.05741,0.14845 -0.31697,0.05079 -0.4848,0.05217c-2.54549,0.02092 -4.06086,-0.01165 -4.06086,-0.01165c0,0 5.16762,-26.48737 8.286,-37.50283c1.66546,-5.88315 4.15573,-14.73853 6.38664,-19.45183c1.2024,-2.54033 3.02934,-3.09978 3.02934,-3.09978z" fill="#4d0115" stroke="none" stroke-width="0" stroke-linecap="butt"/><path d="M240.51711,305.70394l4.22707,-9.54046h14.72183l3.93554,9.54046z" fill="#21000d" stroke="none" stroke-width="0" stroke-linecap="butt"/><path d="M258.77061,307.74743l-0.98621,2.5332h-11.83446l-0.84531,-2.68221z" data-paper-data="{&quot;index&quot;:null}" fill="#2b0011" stroke="none" stroke-width="0" stroke-linecap="butt"/><path d="M233.34204,307.676l-0.9862,2.5332h-11.83446l-0.84532,-2.68221z" data-paper-data="{&quot;index&quot;:null}" fill="#2b0011" stroke="none" stroke-width="0" stroke-linecap="butt"/><path d="M215.38461,305.62844l4.22707,-9.54046h14.72183l3.93554,9.54046z" fill="#21000d" stroke="none" stroke-width="0" stroke-linecap="butt"/><path d="M219.44241,296.2327v-15.36317h40.12016v15.36317z" fill="#390013" stroke="#4d0014" stroke-width="0" stroke-linecap="butt"/><path d="M234.48565,170.82589v-10.66667c0,0 3.38612,1.25 5.11458,1.25c1.82215,0 5.55208,-1.25 5.55208,-1.25v10.66667c0,0 -3.64413,-1.1875 -5.42708,-1.1875c-1.77254,0 -5.23958,1.1875 -5.23958,1.1875z" fill="#592868" stroke="#261b4c" stroke-width="0" stroke-linecap="butt"/><path d="M254.8539,104.53303c0,0 1.36923,3.39171 2.15738,5.5362c1.09306,2.97409 3.79077,10.6481 3.79077,10.6481l-17.63179,-0.02419c0,0 2.62005,-7.66371 3.71851,-10.63342c0.79192,-2.14098 2.25895,-5.52672 2.25895,-5.52672c0,0 0.40971,-1.05053 1.06244,-1.57948c0.53324,-0.43211 1.2762,-0.63973 1.69652,-0.63973c0.42495,0 1.26049,0.19069 1.82317,0.61153c0.71668,0.53602 1.12404,1.6077 1.12404,1.6077z" fill="#c6c0c8" stroke="#ff3600" stroke-width="0" stroke-linecap="round"/><path d="M244.00238,256.80553v-51.75h16.10714v51.75z" data-paper-data="{&quot;index&quot;:null}" fill="#804a90" stroke="none" stroke-width="0" stroke-linecap="butt"/><path d="M243.9535,204.40348v-30.27143h16.23226v30.27143z" data-paper-data="{&quot;index&quot;:null}" fill="#9b5cac" stroke="none" stroke-width="0" stroke-linecap="butt"/><path d="M243.93683,174.29872v-32.51111h16.26667v32.51111z" data-paper-data="{&quot;index&quot;:null}" fill="#9e8aa1" stroke="none" stroke-width="0" stroke-linecap="butt"/><path d="M243.93861,141.92053l-0.66667,-1.05555h17.55555l-0.61111,1.05555z" data-paper-data="{&quot;index&quot;:null}" fill="#755880" stroke="none" stroke-width="0" stroke-linecap="butt"/><path d="M243.28042,140.95512v-20.43076h17.6v20.43076z" data-paper-data="{&quot;index&quot;:null}" fill="#c2aec7" stroke="none" stroke-width="0" stroke-linecap="butt"/><path d="M259.13854,140.32692v-4.92308h1.30769v4.92308z" data-paper-data="{&quot;index&quot;:null}" fill="#867194" stroke="none" stroke-width="0" stroke-linecap="butt"/><path d="M256.44623,140.32692v-4.92308h1.30769v4.92308z" data-paper-data="{&quot;index&quot;:null}" fill="#867194" stroke="none" stroke-width="0" stroke-linecap="butt"/><path d="M253.83085,140.32692v-4.92308h1.30769v4.92308z" data-paper-data="{&quot;index&quot;:null}" fill="#867194" stroke="none" stroke-width="0" stroke-linecap="butt"/><path d="M251.29239,140.32692v-4.92308h1.30769v4.92308z" data-paper-data="{&quot;index&quot;:null}" fill="#867194" stroke="none" stroke-width="0" stroke-linecap="butt"/><path d="M248.75393,140.32692v-4.92308h1.30769v4.92308z" data-paper-data="{&quot;index&quot;:null}" fill="#867194" stroke="none" stroke-width="0" stroke-linecap="butt"/><path d="M246.18616,140.32692v-4.92308h1.30769v4.92308z" data-paper-data="{&quot;index&quot;:null}" fill="#867194" stroke="none" stroke-width="0" stroke-linecap="butt"/><path d="M243.75393,140.32692v-4.92308h1.30769v4.92308z" data-paper-data="{&quot;index&quot;:null}" fill="#867194" stroke="none" stroke-width="0" stroke-linecap="butt"/><path d="M243.95906,165.03205v-9.44444h16.22222v9.44444z" data-paper-data="{&quot;index&quot;:null}" fill="#845098" stroke="none" stroke-width="0" stroke-linecap="butt"/><path d="M244.0035,174.32729v-2.34286h8.81905v2.34286z" data-paper-data="{&quot;index&quot;:null}" fill="#825395" stroke="none" stroke-width="0" stroke-linecap="butt"/><path d="M251.33683,174.31192l1.47619,-2.27988c0,0 0.53834,1.20757 1.50476,1.20757c1.62021,0 5.8381,0 5.8381,0v1.07232z" data-paper-data="{&quot;index&quot;:null}" fill="#825395" stroke="none" stroke-width="0" stroke-linecap="butt"/><path d="M243.90631,205.20938v-1.38462h16.23077v1.38462z" data-paper-data="{&quot;index&quot;:null}" fill="#632676" stroke="none" stroke-width="0" stroke-linecap="butt"/><path d="M257.82711,183.6015v-4.31944h2.375v4.31944z" data-paper-data="{&quot;index&quot;:null}" fill="#b779c2" stroke="none" stroke-width="0" stroke-linecap="butt"/><path d="M219.875,256.86604v-51.75h16.10714v51.75z" fill="#804a90" stroke="none" stroke-width="0" stroke-linecap="butt"/><path d="M219.87308,281.26116v-28.30769h40.23077v28.30769z" fill="#5e2340" stroke="none" stroke-width="0" stroke-linecap="butt"/><path d="M219.87006,204.46399v-30.27143h16.23226v30.27143z" fill="#9b5cac" stroke="none" stroke-width="0" stroke-linecap="butt"/><path d="M219.85232,174.35923v-32.51111h16.26667v32.51111z" fill="#9e8aa1" stroke="none" stroke-width="0" stroke-linecap="butt"/><path d="M219.83944,141.98104l-0.61111,-1.05555h17.55555l-0.66667,1.05555z" fill="#755880" stroke="none" stroke-width="0" stroke-linecap="butt"/><path d="M219.1754,141.01563v-20.43076h17.6v20.43076z" fill="#c2aec7" stroke="none" stroke-width="0" stroke-linecap="butt"/><path d="M230.80322,104.57182c0,0 1.36923,3.39171 2.15738,5.5362c1.09306,2.97409 3.79077,10.6481 3.79077,10.6481l-17.63179,-0.02419c0,0 2.62005,-7.66371 3.71851,-10.63342c0.79192,-2.14098 2.25895,-5.52672 2.25895,-5.52672c0,0 0.4097,-1.05054 1.06244,-1.57948c0.53324,-0.43211 1.2762,-0.63973 1.69652,-0.63973c0.42495,0 1.26049,0.19069 1.82317,0.61153c0.71668,0.536 1.12405,1.6077 1.12405,1.6077z" fill="#c6c0c8" stroke="#ff3600" stroke-width="0" stroke-linecap="round"/><path d="M219.60959,140.38743v-4.92308h1.30769v4.92308z" fill="#867194" stroke="none" stroke-width="0" stroke-linecap="butt"/><path d="M222.3019,140.38743v-4.92308h1.30769v4.92308z" fill="#867194" stroke="none" stroke-width="0" stroke-linecap="butt"/><path d="M224.91728,140.38743v-4.92308h1.30769v4.92308z" fill="#867194" stroke="none" stroke-width="0" stroke-linecap="butt"/><path d="M227.45574,140.38743v-4.92308h1.30769v4.92308z" fill="#867194" stroke="none" stroke-width="0" stroke-linecap="butt"/><path d="M229.9942,140.38743v-4.92308h1.30769v4.92308z" fill="#867194" stroke="none" stroke-width="0" stroke-linecap="butt"/><path d="M232.56197,140.38743v-4.92308h1.30769v4.92308z" fill="#867194" stroke="none" stroke-width="0" stroke-linecap="butt"/><path d="M234.9942,140.38743v-4.92308h1.30769v4.92308z" fill="#867194" stroke="none" stroke-width="0" stroke-linecap="butt"/><path d="M219.87454,165.09256v-9.44444h16.22222v9.44444z" fill="#845098" stroke="none" stroke-width="0" stroke-linecap="butt"/><path d="M227.23327,174.3878v-2.34286h8.81905v2.34286z" fill="#825395" stroke="none" stroke-width="0" stroke-linecap="butt"/><path d="M219.89994,174.37244v-1.07232c0,0 4.21789,0 5.8381,0c0.96642,0 1.50476,-1.20757 1.50476,-1.20757l1.47619,2.27988z" fill="#825395" stroke="none" stroke-width="0" stroke-linecap="butt"/><path d="M219.84744,205.26989v-1.38462h16.23077v1.38462z" fill="#632676" stroke="none" stroke-width="0" stroke-linecap="butt"/><path d="M219.96482,195.71756v-3.875h2.375v3.875z" fill="#b779c2" stroke="none" stroke-width="0" stroke-linecap="butt"/><path d="M235.02482,223.51764c0,0 3.38124,-1.46846 4.99829,-1.50192c1.60803,-0.03327 4.8773,1.63537 4.8773,1.63537" fill="none" stroke="#c68dd0" stroke-width="1.5" stroke-linecap="round"/><g data-paper-data="{&quot;index&quot;:null}" fill="#4d0e57" stroke="none" stroke-width="0" stroke-linecap="butt"><path d="M219.93023,253.2849v-2.65055h8.72906v2.65055z"/><path d="M227.18872,253.26751l1.46112,-2.5793c0,0 0.53284,1.36616 1.48941,1.36616c1.60368,0 5.77853,0 5.77853,0v1.21315z"/></g><g data-paper-data="{&quot;index&quot;:null}" fill="#4d0e57" stroke="none" stroke-width="0" stroke-linecap="butt"><path d="M251.34257,253.2849v-2.65056h8.72906v2.65056z"/><path d="M244.08408,253.26752v-1.21315c0,0 4.17485,0 5.77853,0c0.95657,0 1.4894,-1.36616 1.4894,-1.36616l1.46113,2.5793z"/></g><path d="M217.70203,307.89295l-2.17257,-2.31741h22.73959l-2.75192,2.31741z" fill="#1c030f" stroke="none" stroke-width="0" stroke-linecap="butt"/><path d="M242.70485,307.91564l-2.18773,-2.31741h22.89828l-2.77113,2.31741z" fill="#1c030f" stroke="none" stroke-width="0" stroke-linecap="butt"/><path d="M201,323.56051v-247.82453h78v247.82453z" fill="none" stroke="none" stroke-width="NaN" stroke-linecap="butt"/><path d="M222.68795,293.58731c0,0 -0.64843,-116.7018 -0.64843,-152.77099c0,-0.66088 -0.51875,-1.43924 -0.51875,-2.07499c0,-9.97302 0,-16.76313 0,-17.50771c0,-0.65232 5.57653,-15.95147 5.57653,-15.95147" fill="none" stroke-opacity="0.16078" stroke="#ffffff" stroke-width="2" stroke-linecap="round"/><g><path d="M248.6682,279.25548c0,0 1.16407,0.78475 1.97228,2.90594c0.51591,1.35402 0.61006,3.72705 1.06426,5.2446c0.6864,2.29333 0.77961,4.46158 1.03941,5.56241c0.22028,0.93335 0.04442,2.2593 -0.06857,2.82272c-0.05738,0.28612 -6.68937,0.24067 -8.74505,0.21969c-0.16509,-0.00168 -0.94792,-0.30539 -1.55114,-1.0969c-0.77547,-1.01755 -1.18458,-2.57996 -1.18458,-2.57996z" data-paper-data="{&quot;index&quot;:null}" fill="#2e0016" stroke="#95687f" stroke-width="0.5" stroke-linecap="round"/><path d="M238.96003,292.20053c0,0 -0.40911,1.56241 -1.18458,2.57996c-0.60322,0.79152 -1.38605,1.09522 -1.55114,1.0969c-2.05568,0.02098 -8.68768,0.06643 -8.74505,-0.21969c-0.11299,-0.56342 -0.28885,-1.88937 -0.06857,-2.82272c0.25979,-1.10083 0.35301,-3.26908 1.03941,-5.56241c0.4542,-1.51755 0.54834,-3.89058 1.06426,-5.2446c0.80821,-2.12119 1.97228,-2.90594 1.97228,-2.90594z" fill="#2e0016" stroke="#95687f" stroke-width="0.5" stroke-linecap="round"/><path d="M226.57286,290.19873c0,0 -0.10049,-2.45054 0.20856,-3.7298c0.13736,-0.56858 0.54343,-0.60745 0.65889,-0.60745c0.09898,0 0.44041,0.14018 0.5898,0.68411c0.35006,1.2746 0.34438,3.65315 0.34438,3.65315" fill="none" stroke="#95687f" stroke-width="1" stroke-linecap="round"/><path d="M225.46238,291.33308c0,-1.10556 0.89624,-2.00181 2.00181,-2.00181c1.10556,0 2.00181,0.89624 2.00181,2.00181c0,1.10556 -0.89624,2.00181 -2.00181,2.00181c-1.10556,0 -2.00181,-0.89624 -2.00181,-2.00181z" fill="url(#color-1)" stroke="#95687f" stroke-width="0.5" stroke-linecap="butt"/><path d="M226.50619,290.06528c0,0 -0.10049,-2.45054 0.20856,-3.7298c0.13736,-0.56858 0.54343,-0.60745 0.65889,-0.60745c0.09898,0 0.44041,0.14018 0.5898,0.68411c0.35006,1.2746 0.34438,3.65315 0.34438,3.65315" fill="none" stroke="url(#color-2)" stroke-width="0.5" stroke-linecap="round"/><path d="M250.04701,290.45997c0,-0.74832 0.72089,-1.82442 1.26773,-2.8355c0.47878,-0.88524 0.73938,-1.763 1.39457,-1.763c0.67082,0 0.5272,1.09293 0.95253,2.00823c0.46456,0.99972 1.46773,1.85759 1.46773,2.59027c0,1.40352 -1.13776,2.54128 -2.54128,2.54128c-1.40352,0 -2.54128,-1.13778 -2.54128,-2.54128z" fill="#ffffff" stroke="#95687f" stroke-width="0.5" stroke-linecap="butt"/></g><path d="M247.02128,293.25398c0,0 -0.64843,-116.7018 -0.64843,-152.77099c0,-0.66088 -0.51875,-1.43924 -0.51875,-2.07499c0,-9.97302 0,-16.76313 0,-17.50771c0,-0.65232 5.57653,-15.95147 5.57653,-15.95147" fill="none" stroke-opacity="0.16078" stroke="#ffffff" stroke-width="2" stroke-linecap="round"/></g></g></svg>