<svg version="1.1" xmlns="http://www.w3.org/2000/svg" xmlns:xlink="http://www.w3.org/1999/xlink" width="32.18964" height="69.16132" viewBox="0,0,32.18964,69.16132"><g transform="translate(-225.5302,-145.82952)"><g data-paper-data="{&quot;isPaintingLayer&quot;:true}" fill-rule="nonzero" stroke-linejoin="miter" stroke-miterlimit="10" stroke-dasharray="" stroke-dashoffset="0" style="mix-blend-mode: normal"><path d="M225.53021,208.32315c0,-13.44895 0,-44.19668 0,-51.64628c0,-3.17904 1.18659,-6.346 3.08653,-6.346c6.68138,0 22.18448,0 25.92809,0c1.59053,0 3.17502,3.16696 3.17502,6.346c0,7.51567 0,38.74459 0,52.00002c0,3.69408 -1.53433,5.99225 -3.08653,5.99225c-3.69771,0 -19.17433,0 -25.92808,0c-1.95175,0 -3.17502,-2.44546 -3.17502,-6.34599z" fill="#272727" stroke="none" stroke-width="0" stroke-linecap="butt"/><path d="M246.95465,209.6543l-0.25206,0.69856h-3.02471l-0.21605,-0.73966z" data-paper-data="{&quot;index&quot;:null}" fill="#272a3a" stroke="none" stroke-width="0" stroke-linecap="butt"/><path d="M239.82297,209.6726l-0.25206,0.69856h-3.02471l-0.21605,-0.73966z" data-paper-data="{&quot;index&quot;:null}" fill="#272a3a" stroke="none" stroke-width="0" stroke-linecap="butt"/><path d="M242.45972,209.90085c0,0 -0.22308,-0.36417 -0.2305,-0.53489c-0.00594,-0.13667 0.18941,-0.41022 0.18941,-0.41022l5.6296,0.20546c0,0 -0.02617,0.28324 -0.06017,0.40562c-0.03449,0.12415 -0.14529,0.33403 -0.14529,0.33403z" data-paper-data="{&quot;index&quot;:null}" fill="#1d1c1c" stroke="none" stroke-width="0" stroke-linecap="butt"/><path d="M235.50832,209.91916c0,0 -0.11081,-0.20989 -0.14529,-0.33403c-0.03399,-0.12238 -0.06017,-0.40562 -0.06017,-0.40562l5.6296,-0.20546c0,0 0.19535,0.27355 0.18941,0.41022c-0.00742,0.17073 -0.2305,0.53489 -0.2305,0.53489z" fill="#1d1c1c" stroke="none" stroke-width="0" stroke-linecap="butt"/><path d="M236.30663,212.93796c0,0 0.06118,-1.17401 0.12345,-1.57026c0.06628,-0.42178 0.47404,-1.01753 0.47404,-1.01753l3.02058,-0.01756c0,0 0.37837,0.51376 0.457,0.8807c0.09418,0.43952 0.0878,1.68356 0.0878,1.68356z" fill="#2c3132" stroke="none" stroke-width="0" stroke-linecap="butt"/><path d="M234.68313,209.44922c0,0 0.88877,-7.7366 1.4157,-11.10637c0.44519,-2.84701 1.54221,-7.8096 1.54221,-7.8096l8.05926,-0.04607c0,0 1.3725,4.68846 1.74486,7.48355c0.20224,1.51811 0.50201,3.94011 0.77212,6.15806c0.33565,2.75612 0.46114,5.23825 0.46114,5.23825z" fill="#354b92" stroke-opacity="0.16078" stroke="#ffffff" stroke-width="0" stroke-linecap="butt"/><path d="M234.89194,207.86456l0.57529,-4.68448l12.57414,-0.12328c0,0 0.19176,1.32127 0.27449,2.04673c0.09391,0.82356 0.21861,2.63775 0.21861,2.63775z" fill="#1b2b2f" stroke="none" stroke-width="0" stroke-linecap="butt"/><path d="M235.45367,203.22174c0,0 0.0358,-0.45115 0.07027,-0.658c0.03076,-0.18456 0.08731,-0.52384 0.08731,-0.52384h12.33057l0.15758,1.18184z" fill="#565c63" stroke="none" stroke-width="0" stroke-linecap="butt"/><path d="M237.62777,190.54154c0,0 0.39908,-1.91728 0.67209,-2.70528c0.22188,-0.64043 0.84461,-1.67246 0.84461,-1.67246l5.20504,0.03447c0,0 0.46899,0.89995 0.65442,1.48403c0.2529,0.79664 0.7244,2.85924 0.7244,2.85924z" fill="#1799e5" stroke="none" stroke-width="0" stroke-linecap="butt"/><path d="M235.57186,202.15808l0.07879,-0.78789h12.21238l0.07879,0.78789z" fill="#2d385e" stroke-opacity="0.16078" stroke="#ffffff" stroke-width="0" stroke-linecap="butt"/><path d="M231.06116,214.17047v-68.34095h21.50955v68.34095z" fill="none" stroke="none" stroke-width="NaN" stroke-linecap="butt"/><path d="M239.61049,181.74696v-16.51818h4.22704c0,0 0,0.13019 0,0.31387c0,1.3198 0,16.20431 0,16.20431z" fill="#b0b4c5" stroke="none" stroke-width="0" stroke-linecap="butt"/><path d="M239.30056,159.38811v-0.56203h4.83481v0.56203z" fill="#ff9c02" stroke="#000000" stroke-width="0" stroke-linecap="butt"/><path d="M239.60464,170.45307v-4.28548h4.25182v4.28548z" fill="#848896" stroke="none" stroke-width="0" stroke-linecap="butt"/><path d="M240.84658,154.92699c0,0 0.33244,-0.87168 0.49683,-1.24743c0.14418,-0.32956 0.43685,-0.88671 0.43685,-0.88671c0,0 0.24634,0.56423 0.36751,0.88736c0.14221,0.37924 0.43279,1.24678 0.43279,1.24678z" fill="#0c486d" stroke="#cd2d04" stroke-width="0" stroke-linecap="round"/><path d="M242.5111,154.72599c0,0 0.37758,0.7225 0.59493,1.17932c0.30143,0.63354 1.04536,2.26826 1.04536,2.26826l-4.8622,-0.00515c0,0 0.72251,-1.63253 1.02543,-2.26513c0.21838,-0.45607 0.62294,-1.1773 0.62294,-1.1773z" fill="#1a9ae9" stroke="#ff3600" stroke-width="0" stroke-linecap="round"/><path d="M239.29634,165.07866v-1.15919h0.56203v1.15919z" fill="#feb501" stroke="none" stroke-width="0" stroke-linecap="butt"/><path d="M240.6714,165.08378v-1.15919h0.77279v1.15919z" fill="#feb501" stroke="none" stroke-width="0" stroke-linecap="butt"/><path d="M242.0174,165.08889v-1.15919h0.77279v1.15919z" fill="#feb501" stroke="none" stroke-width="0" stroke-linecap="butt"/><path d="M243.54491,165.09401v-1.15919h0.59715v1.15919z" fill="#feb501" stroke="none" stroke-width="0" stroke-linecap="butt"/><path d="M239.36023,176.8269c0,0 -0.02693,-1.90261 0.01342,-2.52557c0.02177,-0.33617 0.20952,-0.91686 0.20952,-0.91686h4.26759c0,0 0.20637,0.49635 0.23777,0.92056c0.02005,0.27089 0.0261,0.76907 0.02644,1.25154c0.00046,0.64939 -0.00942,1.27033 -0.00942,1.27033z" fill="#858796" stroke="none" stroke-width="0" stroke-linecap="butt"/><path d="M239.12344,186.19189c0,0 0.09546,-0.88619 0.15739,-1.46117c0.08921,-0.82827 0.3266,-3.03212 0.3266,-3.03212l4.23701,-0.0394l0.5382,4.60365c0,0 -1.17814,-0.00203 -2.1859,-0.00203c-1.19155,0 -3.10777,0.03447 -3.10777,0.03447z" fill="#9ea9c2" stroke="none" stroke-width="0" stroke-linecap="butt"/><path d="M239.22623,165.24269v-7.09325h4.97883v7.09325z" fill="#5b99bf" stroke="none" stroke-width="0" stroke-linecap="butt"/><path d="M239.23563,158.61966v-0.4953h4.97883v0.4953z" fill="#64a6d0" stroke="none" stroke-width="0" stroke-linecap="butt"/><path d="M239.2292,164.77582v-1.18923h0.62047v1.18923z" data-paper-data="{&quot;index&quot;:null}" fill="#328abc" stroke="#3186b7" stroke-width="0" stroke-linecap="butt"/><path d="M244.10553,174.37721c0,0 0.00988,0.62094 0.00942,1.27033c-0.00034,0.48247 -0.00639,0.98065 -0.02644,1.25154c-0.0314,0.42422 -0.23777,0.92056 -0.23777,0.92056h-4.26759c0,0 -0.18775,-0.5807 -0.20952,-0.91686c-0.04034,-0.62296 -0.01342,-2.52557 -0.01342,-2.52557z" data-paper-data="{&quot;index&quot;:null}" fill="#858796" stroke="none" stroke-width="0" stroke-linecap="butt"/><path d="M239.2184,158.86095v-0.30571h5.0133v0.30571z" fill="#7fbbdf" stroke="none" stroke-width="0" stroke-linecap="butt"/><path d="M241.53962,154.6368c0,0 -0.17606,0.52912 -0.23675,0.66581c-0.28186,0.63485 -1.09299,2.46179 -1.26985,2.86014c-0.06006,0.13528 0.03087,12.74326 0.04867,15.06199c0.00109,0.14215 -0.08416,0.35249 -0.15517,0.6058c-0.04257,0.15184 -0.08002,1.86037 -0.09069,2.47746c-0.00044,0.02524 0.02454,0.34441 0.11305,0.79068c0.04458,0.22476 0.17388,0.46805 0.18545,0.75c0.05664,1.38064 0.00858,3.24213 0.03657,3.90658c0.00555,0.13168 -0.19862,3.66054 -0.38639,4.57578c-0.00635,0.03096 -0.32563,0.65776 -0.37955,0.77993c-0.05782,0.131 -0.43935,1.52615 -0.47164,1.56521c-0.03752,0.0454 -1.03526,5.4285 -1.82713,10.58892c-0.7318,4.76901 -1.26379,9.34785 -1.26379,9.34785" fill="none" stroke-opacity="0.16078" stroke="#ffffff" stroke-width="0.5" stroke-linecap="round"/><path d="M240.52185,164.77582v-1.18923h2.11993v1.18923z" fill="#328abc" stroke="#3186b7" stroke-width="0" stroke-linecap="butt"/><path d="M243.50354,164.77582v-1.18923h0.68941v1.18923z" fill="#328abc" stroke="#3186b7" stroke-width="0" stroke-linecap="butt"/><path d="M239.59833,165.57346l-0.38147,-0.34011h5.0143l-0.38607,0.33551z" fill="#656d83" stroke="none" stroke-width="0" stroke-linecap="butt"/><path d="M237.58526,169.9786c0,0 -0.01369,-0.27114 0.16813,-0.61635c0.17713,-0.3363 0.54732,-0.74385 0.73789,-0.96968c0.19075,-0.22605 0.52301,-0.58665 0.82367,-0.80959c0.27579,-0.2045 0.52935,-0.2815 0.52935,-0.2815l-0.0097,1.56589c0,0 -0.6845,0.31582 -0.99891,0.44031c-0.26064,0.1032 -0.7065,0.43493 -0.98316,0.60922c-0.15834,0.09975 -0.26728,0.0617 -0.26728,0.0617z" fill="#5b5d67" stroke="none" stroke-width="0" stroke-linecap="butt"/><path d="M245.64358,169.88013c-0.27666,-0.17429 -0.72253,-0.50602 -0.98316,-0.60922c-0.31441,-0.12449 -0.99891,-0.44031 -0.99891,-0.44031l-0.0097,-1.5659c0,0 0.25356,0.077 0.52935,0.2815c0.30066,0.22294 0.63292,0.58354 0.82367,0.80959c0.19057,0.22584 0.56075,0.63338 0.73789,0.96968c0.18183,0.34522 0.16813,0.61635 0.16813,0.61635c0,0 -0.10894,0.03804 -0.26728,-0.0617z" data-paper-data="{&quot;index&quot;:null}" fill="#5b5d67" stroke="none" stroke-width="0" stroke-linecap="butt"/><path d="M243.52059,212.83746c0,0 -0.00639,-1.24405 0.0878,-1.68356c0.07863,-0.36694 0.457,-0.8807 0.457,-0.8807l3.02058,0.01756c0,0 0.40776,0.59575 0.47404,1.01753c0.06227,0.39626 0.12345,1.57026 0.12345,1.57026z" data-paper-data="{&quot;index&quot;:null}" fill="#2c3132" stroke="none" stroke-width="0" stroke-linecap="butt"/><path d="M227.80313,214.99084v-64.78867h28.02563v64.78867z" fill-opacity="0.00784" fill="#454545" stroke="none" stroke-width="0" stroke-linecap="butt"/></g></g></svg>