<svg version="1.1" xmlns="http://www.w3.org/2000/svg" xmlns:xlink="http://www.w3.org/1999/xlink" width="51.77639" height="64.33827" viewBox="0,0,51.77639,64.33827"><defs><linearGradient x1="240.60227" y1="152.75532" x2="240.60227" y2="189.99521" gradientUnits="userSpaceOnUse" id="color-1"><stop offset="0" stop-color="#e15634"/><stop offset="1" stop-color="#cb9e64"/></linearGradient><radialGradient cx="237.46672" cy="171.64116" r="13.37662" gradientUnits="userSpaceOnUse" id="color-2"><stop offset="0" stop-color="#fcca00"/><stop offset="1" stop-color="#fcca00" stop-opacity="0"/></radialGradient></defs><g transform="translate(-214.11185,-147.83092)"><g data-paper-data="{&quot;isPaintingLayer&quot;:true}" fill-rule="nonzero" stroke-linecap="butt" stroke-linejoin="miter" stroke-miterlimit="10" stroke-dasharray="" stroke-dashoffset="0" style="mix-blend-mode: normal"><path d="M214.11186,205.82321c0,-13.44895 0,-44.19668 0,-51.64628c0,-3.17904 1.90861,-6.346 4.96462,-6.346c10.74686,0 35.68329,0 41.70481,0c2.55834,0 5.10696,3.16696 5.10696,6.346c0,7.51567 0,38.74459 0,52.00002c0,3.69408 -2.46794,5.99225 -4.96462,5.99225c-5.94769,0 -30.84152,0 -41.70479,0c-3.13935,0 -5.10696,-2.44546 -5.10696,-6.34599z" fill="#272727" stroke="none" stroke-width="0"/><g><path d="M218.94742,189.99521v-37.23988c0,0 34.3352,0 40.11421,0c1.58468,0 2.11216,1.08333 2.11216,1.08333c0,0 1.08333,0.42365 1.08333,2.00778c0,5.26529 0,34.14877 0,34.14877c0,0 -30.67556,0 -37.67882,0c-1.14741,0 -2.33367,0 -3.31975,0c-1.34056,0 -2.31113,0 -2.31113,0z" fill="url(#color-1)" stroke="none" stroke-width="0"/><g fill="#573007" stroke="none" stroke-width="0"><path d="M228.36671,178.6139c0,0.27081 -0.27686,0.49034 -0.61838,0.49034c-0.34152,0 -0.61838,-0.21953 -0.61838,-0.49034c0,-0.27081 0.27686,-0.41974 0.61838,-0.41974c0.20477,0 0.38629,0.05354 0.49883,0.15478c0.07516,0.06761 0.11955,0.15651 0.11955,0.26495z"/><path d="M228.30162,179.0552c0,0.30872 -0.27686,0.55899 -0.61838,0.55899c-0.34152,0 -0.61839,-0.25027 -0.61839,-0.55899c0,-0.1775 0.10455,-0.79464 0.23425,-0.43808c0.04208,0.11567 0.23898,-0.12091 0.38414,-0.12091c0.34152,0 0.61838,0.25027 0.61838,0.55899z"/><path d="M229.10443,179.624c0,0.30872 -0.37886,0.55898 -0.84621,0.55898c-0.46735,0 -0.89828,-0.26203 -0.89828,-0.57075c0,-0.05799 -0.14286,-0.23158 -0.11805,-0.28418c0.10727,-0.22741 0.63676,-0.26304 1.01633,-0.26304c0.46735,0 0.84621,0.25027 0.84621,0.55899z"/><path d="M228.82236,179.72207c0,0.08224 -0.01344,0.16033 -0.03758,0.23065c-0.06648,0.19365 -0.2141,0.32833 -0.38553,0.32833c-0.10089,0 -0.41484,-0.08196 -0.48755,-0.15982c-0.0957,-0.10249 0.06445,-0.22373 0.06445,-0.39916c0,-0.30872 0.18942,-0.55899 0.4231,-0.55899c0.23368,0 0.4231,0.25027 0.4231,0.55899z"/><path d="M228.54897,178.59428c0,0.19498 -0.18943,0.35305 -0.42311,0.35305c-0.23368,0 -0.4231,-0.15807 -0.4231,-0.35305c0,-0.14487 0.13466,-0.27546 0.30641,-0.36328c0.05942,-0.03038 0.13474,-0.10744 0.19481,-0.10744c0.15707,0 0.21981,0.12459 0.26967,0.2655c0.02431,0.06871 0.07533,0.1413 0.07533,0.20522z"/><path d="M229.06104,178.82965c0,0.19498 -0.18943,0.35305 -0.4231,0.35305c-0.23368,0 -0.42311,-0.15807 -0.42311,-0.35305c0,-0.19498 0.18943,-0.35305 0.42311,-0.35305c0.11727,0 0.18434,0.07512 0.26098,0.13942c0.07606,0.06383 0.16213,0.1165 0.16213,0.21363z"/><path d="M229.4082,179.28227c0,0.1344 -0.15314,0.19107 -0.22919,0.32045c-0.07671,0.1305 -0.07701,0.33314 -0.23949,0.33314c-0.32355,0 -0.703,-0.38361 -0.703,-0.65358c0,-0.26997 0.26229,-0.48883 0.58584,-0.48883c0.04029,0 0.15774,-0.04368 0.19574,-0.03721c0.12863,0.02188 0.21081,0.10161 0.27495,0.19258c0.06908,0.09798 0.11515,0.2109 0.11515,0.33346z"/></g><path d="M262.66417,198.91899c0,1.47626 -0.67794,2.66313 -0.54156,3.73173c0.07765,0.60844 2.22145,1.17854 0.38902,1.74188c-5.36332,1.64884 -12.92422,2.67598 -21.30206,2.67598c-16.26732,0 -24.4546,-3.87256 -24.4546,-8.6496c0,-4.77704 8.18728,-8.6496 24.4546,-8.6496c8.22132,0 15.65595,0.98912 20.99918,2.58422c0.62136,0.18549 0.26767,0.77927 0.38654,1.08042c0.32525,0.82406 -0.13626,1.61963 -0.37691,2.35201c-0.41155,1.2525 0.44579,1.81914 0.44579,3.13294z" fill="#931a00" stroke="none" stroke-width="0"/><path d="M218.0182,206.00048l-0.5,-16.23109h45.39847l-1.5,16.39775c0,0 -1.41783,1.59927 -4.38449,1.74452c-8.20747,0.40185 -24.94256,-0.34434 -30.80401,-0.36685c-4.80379,-0.01845 -8.20997,-1.54433 -8.20997,-1.54433z" fill="#931a00" stroke="none" stroke-width="0"/><path d="M262.79005,199.13508c0,3.33674 -1.9136,6.93087 -8.8,8.57902c-3.74378,0.89601 -8.33581,0.08058 -13.07735,0.08058c-5.14104,0 -9.74371,0.72448 -13.67558,-0.31503c-6.36482,-1.68274 -10.5351,-4.494 -10.5351,-7.6779c0,-5.15076 10.91411,-9.32627 24.37734,-9.32627c13.46323,0 21.71068,3.50884 21.71068,8.6596z" fill="#9d1a01" stroke="none" stroke-width="0"/><path d="M253.20838,198.54122c0,3.89962 -5.47891,7.0609 -12.23749,7.0609c-6.75858,0 -12.23749,-3.16128 -12.23749,-7.0609c0,-3.89962 5.47892,-7.06089 12.23749,-7.06089c6.75858,0 12.23749,3.16127 12.23749,7.06089z" fill="#af2000" stroke="none" stroke-width="0"/><path d="M256.57558,195.78356c-0.16327,0.34368 -1.02027,0.45867 -1.91416,0.25684c-0.89389,-0.20183 -1.48618,-0.64406 -1.3229,-0.98774c0.16327,-0.34368 1.02026,-0.45867 1.91415,-0.25684c0.89389,0.20183 1.48618,0.64406 1.32291,0.98774z" fill="#8a1801" stroke="#af2007" stroke-width="1.5"/><path d="M249.82544,192.05236c-0.07631,0.17606 -0.50727,0.24677 -0.96258,0.15793c-0.45531,-0.08884 -0.76254,-0.30358 -0.68623,-0.47965c0.07631,-0.17606 0.50728,-0.24677 0.96259,-0.15793c0.45531,0.08884 0.76253,0.30358 0.68622,0.47965z" fill="#941a01" stroke="#a81f07" stroke-width="1.5"/><path d="M255.88215,191.06194c-0.11266,0.14249 -0.79303,0.17218 -1.51964,0.0663c-0.72662,-0.10587 -1.22432,-0.3072 -1.11167,-0.44969c0.11266,-0.14249 0.79303,-0.17218 1.51964,-0.0663c0.72662,0.10587 1.22432,0.3072 1.11167,0.44969z" fill="#8a1801" stroke="#9c1d00" stroke-width="1.5"/><g fill="#573007" stroke="none" stroke-width="0"><path d="M245.99246,165.16919c-0.07863,-0.08897 -0.07734,-0.20753 0.00291,-0.2648c0.08024,-0.05728 0.20905,-0.03158 0.28768,0.05739c0.07863,0.08897 0.05683,0.18433 -0.02341,0.24161c-0.04811,0.03434 -0.10631,0.04719 -0.16215,0.0328c-0.0373,-0.00961 -0.07353,-0.03137 -0.10502,-0.06699z"/><path d="M245.87961,165.01328c-0.08964,-0.10143 -0.09727,-0.23008 -0.01702,-0.28736c0.08024,-0.05728 0.21796,-0.02148 0.30761,0.07995c0.05155,0.05832 0.20619,0.2786 0.07218,0.18321c-0.04348,-0.03095 -0.02104,0.0798 -0.05515,0.10415c-0.08024,0.05728 -0.21797,0.02148 -0.30761,-0.07995z"/><path d="M245.52582,164.96104c-0.08964,-0.10143 -0.0733,-0.24719 0.0365,-0.32556c0.1098,-0.07837 0.28715,-0.06455 0.37679,0.03687c0.01684,0.01905 0.10081,0.05212 0.11025,0.07357c0.04083,0.0927 -0.07323,0.19321 -0.16241,0.25687c-0.1098,0.07837 -0.2715,0.05969 -0.36114,-0.04174z"/><path d="M245.56361,164.88151c-0.02388,-0.02702 -0.0434,-0.05493 -0.05815,-0.08208c-0.04061,-0.07477 -0.04504,-0.14378 -0.00476,-0.17253c0.02371,-0.01692 0.12126,-0.04264 0.16096,-0.02926c0.05224,0.01763 0.04982,0.08432 0.10076,0.14196c0.08964,0.10143 0.11782,0.21542 0.06291,0.2546c-0.0549,0.03919 -0.17209,-0.01127 -0.26173,-0.1127z"/><path d="M245.95533,165.20619c-0.05662,-0.06406 -0.05801,-0.14776 -0.00311,-0.18694c0.0549,-0.03919 0.14531,-0.01903 0.20193,0.04503c0.04207,0.0476 0.04835,0.11308 0.0335,0.17074c-0.00514,0.01995 -0.00046,0.0579 -0.01457,0.06797c-0.0369,0.02634 -0.08783,-0.00408 -0.14046,-0.04201c-0.02567,-0.0185 -0.05873,-0.03379 -0.07729,-0.05479z"/><path d="M245.76667,165.21473c-0.05662,-0.06406 -0.05801,-0.14775 -0.00311,-0.18694c0.0549,-0.03919 0.14531,-0.01903 0.20193,0.04503c0.05662,0.06406 0.05801,0.14776 0.00311,0.18695c-0.02756,0.01967 -0.06513,0.00623 -0.10181,-0.00204c-0.03641,-0.00822 -0.07192,-0.01109 -0.10012,-0.043z"/><path d="M245.55367,165.12425c-0.03903,-0.04416 -0.0195,-0.08845 -0.0392,-0.14371c-0.01987,-0.05574 -0.07864,-0.12237 -0.04047,-0.14961c0.07602,-0.05426 0.27657,0.00814 0.35497,0.09683c0.0784,0.0887 0.08032,0.20459 0.0043,0.25885c-0.00947,0.00675 -0.02438,0.0408 -0.03519,0.04505c-0.03657,0.01439 -0.07903,0.00197 -0.12052,-0.01716c-0.04468,-0.02061 -0.0883,-0.04998 -0.12389,-0.09025z"/></g><path d="M226.43112,194.08342c0.73478,-0.13209 1.43923,-0.05684 1.57344,0.16809c0.13421,0.22493 -0.35265,0.51436 -1.08743,0.64645c-0.73478,0.13209 -1.43922,0.05683 -1.57343,-0.1681c-0.13421,-0.22493 0.35265,-0.51435 1.08743,-0.64644z" data-paper-data="{&quot;index&quot;:null}" fill="#8a1801" stroke="#af2007" stroke-width="1.5"/><g fill="#573007" stroke="none" stroke-width="0"><path d="M229.54708,178.32297c-0.02823,-0.09078 0.04169,-0.18796 0.15617,-0.21706c0.11449,-0.0291 0.23019,0.02091 0.25842,0.11169c0.02823,0.09078 -0.04905,0.16429 -0.16353,0.19339c-0.06864,0.01745 -0.13508,0.01496 -0.18336,-0.00939c-0.03224,-0.01627 -0.0564,-0.04228 -0.0677,-0.07863z"/><path d="M229.52289,178.16949c-0.03218,-0.10349 0.03453,-0.21097 0.14901,-0.24007c0.11449,-0.0291 0.23339,0.03121 0.26558,0.1347c0.01851,0.0595 0.04781,0.27528 -0.03285,0.16681c-0.02616,-0.03519 -0.06751,0.06089 -0.11617,0.07325c-0.11449,0.0291 -0.23339,-0.03121 -0.26557,-0.1347z"/><path d="M229.19447,178.04721c-0.03218,-0.10349 0.06872,-0.21966 0.22538,-0.25948c0.15667,-0.03982 0.32844,0.01131 0.36063,0.1148c0.00605,0.01943 0.07203,0.06546 0.0692,0.08521c-0.01225,0.08537 -0.18603,0.14243 -0.31327,0.17477c-0.15667,0.03982 -0.30976,-0.01181 -0.34194,-0.1153z"/><path d="M229.2788,177.99031c-0.00858,-0.02757 -0.01221,-0.05489 -0.01145,-0.08052c0.00209,-0.07057 0.03753,-0.12831 0.095,-0.14291c0.03382,-0.0086 0.14761,-0.00787 0.1801,0.01204c0.04277,0.0262 0.00172,0.08049 0.02001,0.13929c0.03218,0.10349 -0.00521,0.20353 -0.08355,0.22343c-0.07833,0.01991 -0.16793,-0.04784 -0.20012,-0.15133z"/><path d="M229.48803,178.34507c-0.02033,-0.06536 0.0267,-0.13448 0.10503,-0.15439c0.07833,-0.01991 0.15831,0.01694 0.17864,0.0823c0.01511,0.04856 -0.01642,0.10381 -0.06484,0.14789c-0.01675,0.01524 -0.03396,0.04749 -0.0541,0.05262c-0.05265,0.01338 -0.08668,-0.02304 -0.11808,-0.06603c-0.01531,-0.02096 -0.03999,-0.04095 -0.04665,-0.06238z"/><path d="M229.29184,178.3098c-0.02033,-0.06536 0.02668,-0.13449 0.10502,-0.1544c0.07833,-0.01991 0.15832,0.01694 0.17865,0.0823c0.02033,0.06536 -0.0267,0.13449 -0.10503,0.1544c-0.03931,0.00999 -0.06962,-0.00948 -0.10202,-0.02451c-0.03215,-0.01492 -0.0665,-0.02524 -0.07662,-0.05779z"/><path d="M229.12827,178.18765c-0.01402,-0.04505 0.03142,-0.0771 0.04342,-0.12695c0.0121,-0.05028 -0.00892,-0.11823 0.04555,-0.13207c0.10846,-0.02757 0.27565,0.0687 0.3038,0.1592c0.02815,0.0905 -0.03695,0.18621 -0.14541,0.21377c-0.01351,0.00343 -0.04833,0.02808 -0.06173,0.02915c-0.0454,0.00362 -0.08126,-0.0161 -0.11225,-0.04113c-0.03337,-0.02696 -0.06059,-0.06089 -0.07337,-0.10198z"/></g><g fill="#573007" stroke="none" stroke-width="0"><path d="M247.45063,164.98878c0.01475,-0.1131 0.10896,-0.19558 0.21043,-0.18424c0.10147,0.01135 0.17177,0.11222 0.15702,0.22532c-0.01475,0.1131 -0.10512,0.1661 -0.20659,0.15475c-0.06084,-0.00681 -0.11185,-0.03519 -0.13977,-0.08122c-0.01865,-0.03073 -0.027,-0.06934 -0.02109,-0.11462z"/><path d="M247.49401,164.80664c0.01682,-0.12893 0.1127,-0.22425 0.21417,-0.21291c0.10147,0.01135 0.1701,0.12507 0.15328,0.254c-0.00967,0.07413 -0.07434,0.32839 -0.09346,0.17517c-0.0062,-0.0497 -0.07758,0.04256 -0.12071,0.03773c-0.10147,-0.01135 -0.1701,-0.12507 -0.15328,-0.254z"/><path d="M247.28646,164.54242c0.01682,-0.12893 0.143,-0.22087 0.28186,-0.20534c0.13886,0.01552 0.25262,0.13928 0.2358,0.26821c-0.00316,0.02421 0.02983,0.10146 0.01959,0.1226c-0.04425,0.09141 -0.20351,0.0887 -0.31628,0.07609c-0.13886,-0.01552 -0.23779,-0.13263 -0.22097,-0.26156z"/><path d="M247.37561,164.51083c0.00448,-0.03435 0.01272,-0.06652 0.02373,-0.09508c0.0303,-0.07867 0.08149,-0.13001 0.13242,-0.12431c0.02998,0.00335 0.11879,0.04801 0.13615,0.08294c0.02285,0.04598 -0.03134,0.0913 -0.04089,0.16457c-0.01682,0.12893 -0.08673,0.22715 -0.15615,0.21939c-0.06942,-0.00777 -0.11208,-0.11858 -0.09526,-0.24751z"/><path d="M247.39541,164.99092c0.01062,-0.08143 0.07551,-0.14115 0.14494,-0.13339c0.06942,0.00777 0.1171,0.08007 0.10648,0.1615c-0.00789,0.0605 -0.05501,0.11057 -0.11082,0.14154c-0.01931,0.01072 -0.04588,0.04039 -0.06373,0.0384c-0.04667,-0.00522 -0.05853,-0.05934 -0.06566,-0.11984c-0.00348,-0.02951 -0.01468,-0.06151 -0.0112,-0.0882z"/><path d="M247.2561,164.87561c0.01062,-0.08143 0.07551,-0.14115 0.14494,-0.13339c0.06942,0.00777 0.1171,0.08007 0.10648,0.1615c-0.01062,0.08143 -0.07551,0.14115 -0.14494,0.13339c-0.03484,-0.00389 -0.05068,-0.03749 -0.06995,-0.06689c-0.01913,-0.02919 -0.04182,-0.05404 -0.03653,-0.09461z"/><path d="M247.1776,164.67504c0.00732,-0.05613 0.0559,-0.0747 0.08554,-0.12621c0.0299,-0.05195 0.04103,-0.13657 0.0893,-0.13118c0.09613,0.01075 0.18797,0.18356 0.17327,0.29631c-0.0147,0.11275 -0.10455,0.19544 -0.20068,0.18469c-0.01197,-0.00134 -0.04924,0.01301 -0.06018,0.00905c-0.03702,-0.01341 -0.0571,-0.04944 -0.0712,-0.08956c-0.01519,-0.04322 -0.02272,-0.09191 -0.01605,-0.1431z"/></g><g fill="#573007" stroke="none" stroke-width="0"><path d="M230.56954,179.31228c-0.07217,-0.06809 -0.06107,-0.18358 0.0248,-0.25796c0.08587,-0.07438 0.21399,-0.07947 0.28616,-0.01138c0.07217,0.06809 0.04226,0.16583 -0.04361,0.2402c-0.05149,0.04459 -0.11139,0.07066 -0.16667,0.06972c-0.03692,-0.00063 -0.07177,-0.01332 -0.10067,-0.04058z"/><path d="M230.46829,179.18714c-0.08228,-0.07762 -0.07936,-0.20083 0.00651,-0.27521c0.08587,-0.07438 0.22218,-0.07174 0.30445,0.00588c0.0473,0.04463 0.18549,0.22256 0.05786,0.16116c-0.0414,-0.01992 -0.02787,0.08244 -0.06436,0.11405c-0.08587,0.07438 -0.22217,0.07174 -0.30445,-0.00588z"/><path d="M230.11486,179.21896c-0.08228,-0.07762 -0.05372,-0.22305 0.06378,-0.32483c0.1175,-0.10178 0.29568,-0.12974 0.37796,-0.05212c0.01546,0.01458 0.09764,0.02712 0.10542,0.04574c0.03364,0.08053 -0.09,0.20481 -0.18543,0.28747c-0.1175,0.10178 -0.27946,0.12135 -0.36173,0.04373z"/><path d="M230.15964,179.13288c-0.02192,-0.02068 -0.03935,-0.04324 -0.05202,-0.06618c-0.0349,-0.06316 -0.03368,-0.12918 0.00942,-0.16651c0.02536,-0.02197 0.12614,-0.06974 0.16518,-0.06599c0.05138,0.00492 0.04343,0.07029 0.09018,0.1144c0.08228,0.07762 0.10134,0.18179 0.04259,0.23268c-0.05875,0.05089 -0.17307,0.02922 -0.25535,-0.0484z"/><path d="M230.52894,179.3569c-0.05196,-0.04903 -0.04646,-0.13001 0.01229,-0.1809c0.05875,-0.05089 0.14851,-0.0524 0.20047,-0.00338c0.0386,0.03642 0.03956,0.09859 0.01978,0.15807c-0.00684,0.02058 -0.00525,0.05635 -0.02035,0.06943c-0.03949,0.0342 -0.08847,0.01654 -0.13856,-0.00803c-0.02443,-0.01198 -0.05659,-0.01912 -0.07363,-0.03519z"/><path d="M230.33747,179.40923c-0.05196,-0.04903 -0.04646,-0.13002 0.01229,-0.1809c0.05875,-0.05089 0.14851,-0.0524 0.20047,-0.00338c0.05196,0.04903 0.04646,0.13001 -0.01229,0.1809c-0.02948,0.02554 -0.06637,0.02126 -0.10278,0.02178c-0.03614,0.00052 -0.07181,0.00601 -0.09769,-0.01841z"/><path d="M230.12955,179.37103c-0.03582,-0.03379 -0.01242,-0.08138 -0.02777,-0.13047c-0.01549,-0.04952 -0.06942,-0.10054 -0.02857,-0.13592c0.08135,-0.07046 0.279,-0.05665 0.35094,0.01123c0.07195,0.06788 0.06433,0.18003 -0.01702,0.25048c-0.01013,0.00878 -0.02802,0.04533 -0.0393,0.05199c-0.03817,0.02251 -0.08008,0.02036 -0.12045,0.01145c-0.04348,-0.00959 -0.08516,-0.02795 -0.11783,-0.05877z"/></g><path d="M234.4122,191.44871c0.45531,-0.07421 0.88626,-0.01515 0.96258,0.1319c0.07631,0.14705 -0.23091,0.32641 -0.68622,0.40062c-0.45531,0.07421 -0.88627,0.01515 -0.96258,-0.1319c-0.07631,-0.14705 0.23092,-0.32642 0.68623,-0.40062z" data-paper-data="{&quot;index&quot;:null}" fill="#941a01" stroke="#a81f07" stroke-width="1.5"/><g fill="#573007" stroke="none" stroke-width="0"><path d="M231.87571,176.72175c0.13845,-0.112 0.3652,-0.08713 0.50645,0.05555c0.14125,0.14268 0.14351,0.34914 0.00505,0.46114c-0.13845,0.112 -0.3291,0.05793 -0.47035,-0.08475c-0.08469,-0.08554 -0.1324,-0.18353 -0.12717,-0.27242c0.00349,-0.05937 0.03057,-0.11468 0.08602,-0.15953z"/><path d="M232.12826,176.56643c0.15784,-0.12768 0.4003,-0.11553 0.54155,0.02715c0.14125,0.14268 0.1278,0.36185 -0.03004,0.48953c-0.09076,0.07341 -0.44952,0.28498 -0.32086,0.08333c0.04173,-0.06542 -0.16066,-0.04984 -0.22069,-0.11048c-0.14125,-0.14268 -0.1278,-0.36185 0.03004,-0.48953z"/><path d="M232.08703,175.99579c0.15784,-0.12768 0.44249,-0.07291 0.63578,0.12233c0.19329,0.19524 0.23754,0.48365 0.0797,0.61133c-0.02964,0.02398 -0.05933,0.15547 -0.09647,0.16685c-0.16063,0.04924 -0.39784,-0.15723 -0.55483,-0.31581c-0.19329,-0.19524 -0.22203,-0.45703 -0.06419,-0.58471z"/><path d="M232.25383,176.07307c0.04205,-0.03402 0.08754,-0.0607 0.13347,-0.0797c0.1265,-0.05231 0.25642,-0.04635 0.32732,0.02527c0.04173,0.04215 0.12967,0.20721 0.11993,0.26979c-0.01282,0.08237 -0.14105,0.06561 -0.23074,0.13816c-0.15784,0.12768 -0.36414,0.15205 -0.46079,0.05443c-0.09664,-0.09762 -0.04703,-0.28027 0.1108,-0.40795z"/><path d="M231.7903,176.65372c0.09969,-0.08065 0.25885,-0.06688 0.35549,0.03074c0.09664,0.09762 0.09418,0.24214 -0.00551,0.32278c-0.07406,0.05991 -0.19653,0.05768 -0.31247,0.02224c-0.04011,-0.01226 -0.11066,-0.01185 -0.1355,-0.03695c-0.06497,-0.06563 -0.02721,-0.14337 0.02421,-0.22247c0.02507,-0.03858 0.04109,-0.08991 0.07377,-0.11635z"/><path d="M231.69885,176.34245c0.09969,-0.08065 0.25885,-0.06688 0.35549,0.03074c0.09664,0.09762 0.09418,0.24213 -0.00551,0.32277c-0.09969,0.08065 -0.25885,0.06688 -0.3555,-0.03074c-0.0485,-0.04899 -0.03783,-0.10809 -0.03665,-0.1667c0.00117,-0.05818 -0.0075,-0.11591 0.04216,-0.15608z"/><path d="M231.78668,176.01022c0.06872,-0.05559 0.16102,-0.01504 0.25862,-0.03678c0.09844,-0.02193 0.20218,-0.1056 0.26937,-0.03773c0.13381,0.13517 0.09462,0.45235 -0.04341,0.56401c-0.13803,0.11166 -0.3584,0.09259 -0.49222,-0.04257c-0.01666,-0.01683 -0.08758,-0.04783 -0.09999,-0.06638c-0.04201,-0.06278 -0.03524,-0.1301 -0.01525,-0.19452c0.02153,-0.06939 0.0602,-0.13533 0.12286,-0.18603z"/></g><g fill="#573007" stroke="none" stroke-width="0"><path d="M230.95861,177.39532c0.14011,0.08107 0.1708,0.26384 0.06855,0.40822c-0.10225,0.14438 -0.29872,0.1957 -0.43882,0.11462c-0.14011,-0.08107 -0.13426,-0.2427 -0.03202,-0.38708c0.06131,-0.08657 0.14335,-0.14728 0.22942,-0.16455c0.05749,-0.01153 0.11677,-0.00368 0.17287,0.02878z"/><path d="M231.16744,177.55496c0.15972,0.09242 0.20631,0.28439 0.10406,0.42878c-0.10225,0.14438 -0.31462,0.18649 -0.47433,0.09407c-0.09184,-0.05314 -0.37982,-0.2821 -0.15652,-0.23018c0.07244,0.01684 0.00899,-0.13723 0.05245,-0.1986c0.10225,-0.14438 0.31462,-0.18649 0.47434,-0.09407z"/><path d="M231.70206,177.38586c0.15972,0.09242 0.17578,0.32752 0.03586,0.52509c-0.13992,0.19757 -0.4045,0.3013 -0.56422,0.20887c-0.03,-0.01736 -0.16259,-0.00894 -0.18237,-0.03517c-0.08554,-0.11343 0.05455,-0.34795 0.16818,-0.50841c0.13992,-0.19757 0.38282,-0.2828 0.54254,-0.19038z"/><path d="M231.66835,177.53446c0.04254,0.02462 0.07892,0.05368 0.10808,0.08494c0.08028,0.08608 0.10577,0.18881 0.05445,0.26128c-0.0302,0.04265 -0.1666,0.15084 -0.22866,0.15827c-0.08167,0.00977 -0.09646,-0.09423 -0.18722,-0.14675c-0.15972,-0.09242 -0.23249,-0.24744 -0.16253,-0.34622c0.06996,-0.09878 0.25615,-0.10394 0.41587,-0.01152z"/><path d="M231.00303,177.3124c0.10088,0.05838 0.12595,0.18578 0.05598,0.28456c-0.06996,0.09878 -0.20845,0.13155 -0.30933,0.07317c-0.07495,-0.04337 -0.1022,-0.1394 -0.09622,-0.2383c0.00207,-0.03421 -0.01525,-0.08913 0.00274,-0.11452c0.04702,-0.06641 0.13027,-0.05562 0.2181,-0.03451c0.04283,0.0103 0.09566,0.01046 0.12873,0.0296z"/><path d="M231.2781,177.16638c0.10088,0.05838 0.12595,0.18578 0.05598,0.28456c-0.06996,0.09878 -0.20845,0.13155 -0.30933,0.07317c-0.10088,-0.05838 -0.12595,-0.18578 -0.05598,-0.28456c0.03511,-0.04958 0.09405,-0.05544 0.15027,-0.06859c0.05579,-0.01305 0.1088,-0.03366 0.15905,-0.00458z"/><path d="M231.61621,177.15513c0.06954,0.04024 0.053,0.12194 0.09717,0.19282c0.04455,0.07149 0.1493,0.1323 0.10066,0.20098c-0.09687,0.13678 -0.40893,0.18234 -0.54861,0.10152c-0.13968,-0.08083 -0.17438,-0.25723 -0.07752,-0.39401c0.01206,-0.01703 0.02463,-0.07976 0.03935,-0.09389c0.04983,-0.04783 0.11568,-0.0587 0.18195,-0.05858c0.07137,0.00013 0.14359,0.01446 0.207,0.05115z"/></g><g fill="#573007" stroke="none" stroke-width="0"><path d="M245.17155,167.12482c-0.31292,-0.05339 -0.4891,-0.28082 -0.39352,-0.50798c0.09558,-0.22716 0.42673,-0.36803 0.73965,-0.31464c0.31292,0.05339 0.40751,0.2669 0.31193,0.49406c-0.05731,0.1362 -0.16997,0.24638 -0.31846,0.30128c-0.09916,0.03666 -0.2143,0.04866 -0.33961,0.02729z"/><path d="M244.67984,166.99452c-0.35673,-0.06087 -0.56843,-0.29436 -0.47285,-0.52152c0.09558,-0.22716 0.46225,-0.36197 0.81897,-0.30111c0.20511,0.035 0.88894,0.2262 0.44064,0.24218c-0.14542,0.00518 0.07283,0.18279 0.03221,0.27934c-0.09558,0.22716 -0.46225,0.36197 -0.81898,0.30111z"/><path d="M243.79792,167.41636c-0.35673,-0.06087 -0.53987,-0.3622 -0.40908,-0.67306c0.1308,-0.31085 0.55418,-0.54583 0.91091,-0.48496c0.067,0.01143 0.30758,-0.04936 0.3614,-0.02249c0.23275,0.11618 0.12574,0.4754 0.01951,0.72787c-0.1308,0.31085 -0.52601,0.51351 -0.88273,0.45265z"/><path d="M243.76354,167.20941c-0.09503,-0.01621 -0.1815,-0.04055 -0.256,-0.07047c-0.20515,-0.0824 -0.31948,-0.20713 -0.2715,-0.32116c0.02823,-0.0671 0.21081,-0.25978 0.32113,-0.29279c0.1452,-0.04344 0.24048,0.08698 0.44319,0.12157c0.35673,0.06087 0.5929,0.2362 0.5275,0.39163c-0.0654,0.15543 -0.40759,0.23209 -0.76432,0.17122z"/><path d="M245.14321,167.24991c-0.2253,-0.03844 -0.35493,-0.1956 -0.28953,-0.35103c0.0654,-0.15543 0.30105,-0.25026 0.52635,-0.21182c0.16739,0.02856 0.28061,0.14388 0.33402,0.27543c0.01847,0.04551 0.08644,0.1108 0.06963,0.15076c-0.04396,0.10448 -0.20549,0.12164 -0.38226,0.12702c-0.08621,0.00262 -0.18436,0.02224 -0.25822,0.00964z"/><path d="M244.72794,167.54411c-0.2253,-0.03844 -0.35493,-0.1956 -0.28953,-0.35102c0.0654,-0.15543 0.30106,-0.25026 0.52636,-0.21182c0.2253,0.03844 0.35493,0.1956 0.28953,0.35103c-0.03282,0.078 -0.13839,0.1078 -0.23414,0.1461c-0.09504,0.03801 -0.17999,0.08487 -0.29222,0.06572z"/><path d="M244.10777,167.68578c-0.1553,-0.0265 -0.17791,-0.13952 -0.30613,-0.21561c-0.12932,-0.07674 -0.36339,-0.11691 -0.31792,-0.22497c0.09055,-0.2152 0.64001,-0.39197 0.95197,-0.33874c0.31196,0.05322 0.49144,0.27084 0.40089,0.48604c-0.01128,0.0268 0.00632,0.11354 -0.01178,0.13754c-0.06128,0.08124 -0.1764,0.12018 -0.29948,0.1449c-0.13255,0.02663 -0.27592,0.03502 -0.41754,0.01085z"/></g><g stroke="none" stroke-width="0"><path d="M250.03849,189.11536c0,0 3.31221,-0.56887 3.60971,-1.18092c0.37968,-0.78111 1.5128,-3.12349 1.5128,-3.12349c0,0 0.27285,1.17912 0.49891,1.85348c0.25208,0.75197 1.44909,2.45092 1.44909,2.45092z" fill="#521a0a"/><path d="M255.20785,188.93757l-4.7833,0.02948c0,0 1.06723,-1.09653 1.40171,-1.59561c0.2745,-0.40956 0.46106,-1.18373 0.46106,-1.18373c0,0 0.45519,1.15955 0.90542,1.58347c0.27884,0.26254 1.20782,-0.06918 1.67001,0.16936c0.39085,0.20172 0.3451,0.99703 0.3451,0.99703z" fill="#521a0a"/><path d="M236.92372,189.60449c0,0 1.57875,-1.37964 2.12011,-2.30541c0.54743,-0.93615 1.14644,-3.28071 1.14644,-3.28071c0,0 0.55701,2.31677 1.13313,3.30199c0.50269,0.85964 2.13343,2.28413 2.13343,2.28413z" fill="#521a0a"/><path d="M239.64146,188.95618c0,0 1.54594,-0.80786 2.17457,-1.44208c0.63566,-0.64132 1.61853,-2.38477 1.61853,-2.38477c0,0 -0.06466,1.92709 0.17553,2.80692c0.20957,0.76769 1.18631,2.18165 1.18631,2.18165z" fill="#521a0a"/><path d="M223.48799,187.02837c0,0 1.59864,-1.65835 2.11814,-2.32062c0.33889,-0.43202 0.69563,-1.26639 0.69563,-1.26639c0,0 0.04624,2.24394 1.02111,2.99928c0.44807,0.34717 2.59029,-0.55362 3.64517,-0.30845c0.9777,0.22724 0.88913,1.61357 0.88913,1.61357z" fill="#521a0a"/><path d="M245.63746,189.6371c0,0 3.73126,-1.91669 4.00409,-2.51844c0.32065,-0.70724 0.68554,-2.43815 0.68554,-2.43815c0,0 0.10368,1.48791 0.326,2.16895c0.20986,0.64287 0.97268,2.20067 0.97268,2.20067c0,0 -0.39349,0.17319 -0.94139,0.15614c-0.38726,-0.01205 -0.85165,-0.24967 -1.30878,-0.13524c-0.97006,0.24284 -1.87448,0.62385 -2.39104,0.70824c-0.75994,0.12414 -1.34709,-0.14217 -1.34709,-0.14217z" fill="#6b1d08"/><path d="M227.38398,188.00665c0,0 2.98756,-1.62523 3.33294,-2.32769c0.41229,-0.83855 1.14024,-3.02021 1.14024,-3.02021c0,0 0.32021,2.0382 0.71465,2.89391c0.30217,0.65553 1.44979,1.80179 1.44979,1.80179c0,0 -1.2197,0.65577 -2.08943,0.74123c-1.22121,0.11999 -4.54819,-0.08904 -4.54819,-0.08904z" fill="#6b1d08"/><path d="M254.00664,188.78926c0,0 1.07213,-0.83854 1.47428,-1.34944c0.47537,-0.60392 1.1952,-2.0419 1.1952,-2.0419l2.02015,3.19569z" data-paper-data="{&quot;index&quot;:null}" fill="#931e03"/><path d="M219.33139,191.13712l5.09452,-7.30445c0,0 1.50903,2.36928 3.04877,2.82269c1.62967,0.47989 6.18619,0.11213 6.18619,0.11213c0,0 0.28519,0.56888 0.91984,1.18471c0.8805,0.85439 5.19698,-0.0971 4.94213,0.14359c-0.08387,0.07921 1.43987,0.70024 4.24276,0.98732c2.52393,0.25851 5.99183,-2.2174 8.22096,-0.81617c1.31972,0.82958 4.35845,-4.25961 5.51779,-3.7114c1.39312,0.65876 0.4565,5.72851 0.18716,5.81277c-3.18553,0.9966 -28.86454,0.96446 -28.86454,0.96446z" fill="#8b1c03"/><path d="M217.89346,191.39799l-0.16667,-5.21746c0,0 9.65288,2.21742 12.18237,2.21742c1.83938,0 2.85701,-0.73468 6.77131,-1.02857c1.86283,2.82789 5.56424,2.73675 9.09007,2.55075c1.57892,-0.34921 3.19719,-0.76327 4.73221,-1.18648c1.2433,-0.34277 1.84412,0.42235 2.68895,0.01039c2.2053,-1.07535 3.55655,-3.34613 3.55655,-3.34613c0,0 5.68766,1.66533 5.99811,2.5874c0.35654,1.05895 0.68871,3.41267 0.68871,3.41267z" fill="#961a00"/></g><g stroke="none" stroke-width="0"><path d="M224.0901,171.64116c0,-6.67811 5.98891,-12.09179 13.37662,-12.09179c7.38771,0 13.37662,5.41368 13.37662,12.09179c0,6.67811 -5.98891,12.09179 -13.37662,12.09179c-3.47252,0 -6.63601,-1.19609 -9.01376,-3.15738c-2.68084,-2.21129 -4.36286,-5.39529 -4.36286,-8.9344z" fill="url(#color-2)"/><path d="M230.29574,171.64116c0,-3.58002 3.21055,-6.48219 7.17097,-6.48219c3.96042,0 7.17097,2.90218 7.17097,6.48219c0,3.58002 -3.21055,6.48219 -7.17097,6.48219c-3.96042,0 -7.17097,-2.90218 -7.17097,-6.48219z" fill="#e09b39"/><path d="M230.77841,171.64116c0,-3.33906 2.99446,-6.04589 6.68831,-6.04589c3.69385,0 6.68831,2.70684 6.68831,6.04589c0,3.33906 -2.99446,6.04589 -6.68831,6.04589c-3.69385,0 -6.68831,-2.70684 -6.68831,-6.04589z" fill="#fcfffd"/></g><g fill="#573007" stroke="none" stroke-width="0"><path d="M226.73956,180.89438c-0.16174,0.05076 -0.34475,-0.04321 -0.40877,-0.20988c-0.06402,-0.16667 0.01521,-0.34294 0.17695,-0.3937c0.16174,-0.05076 0.30258,0.05644 0.36659,0.22312c0.03838,0.09993 0.04043,0.19855 0.00106,0.27246c-0.0263,0.04935 -0.07107,0.08768 -0.13583,0.108z"/><path d="M226.46379,180.94533c-0.18438,0.05786 -0.38575,-0.03034 -0.44976,-0.19701c-0.06402,-0.16667 0.03356,-0.3487 0.21794,-0.40657c0.10602,-0.03327 0.4942,-0.09793 0.30555,0.03221c-0.06119,0.04221 0.11701,0.09397 0.14422,0.16481c0.06402,0.16667 -0.03356,0.3487 -0.21795,0.40657z"/><path d="M226.27456,181.44374c-0.18438,0.05786 -0.40487,-0.08012 -0.49247,-0.3082c-0.0876,-0.22808 -0.01187,-0.4875 0.17251,-0.54537c0.03463,-0.01087 0.11154,-0.11313 0.14759,-0.11088c0.15592,0.00973 0.27646,0.26146 0.3476,0.4467c0.0876,0.22808 0.00914,0.45989 -0.17524,0.51775z"/><path d="M226.16311,181.32446c-0.04912,0.01541 -0.09827,0.02349 -0.1448,0.02489c-0.12812,0.00385 -0.23623,-0.04294 -0.26836,-0.1266c-0.01891,-0.04924 -0.02882,-0.21782 0.00406,-0.2679c0.04327,-0.06591 0.14571,-0.01048 0.25048,-0.04336c0.18438,-0.05786 0.36936,-0.01233 0.41316,0.10171c0.0438,0.11404 -0.07017,0.2534 -0.25455,0.31126z"/><path d="M226.78544,180.97965c-0.11646,0.03654 -0.24636,-0.02627 -0.29017,-0.14031c-0.0438,-0.11404 0.0151,-0.23612 0.13155,-0.27266c0.08652,-0.02715 0.18976,0.01408 0.27441,0.08144c0.02928,0.0233 0.08943,0.04562 0.10068,0.07494c0.02945,0.07666 -0.03322,0.13063 -0.10803,0.18137c-0.03648,0.02474 -0.07027,0.06325 -0.10844,0.07523z"/><path d="M226.74085,181.27367c-0.11646,0.03654 -0.24636,-0.02627 -0.29016,-0.14031c-0.0438,-0.11404 0.01509,-0.23612 0.13155,-0.27266c0.11646,-0.03654 0.24636,0.02627 0.29017,0.14031c0.02198,0.05723 -0.01031,0.10404 -0.03435,0.1535c-0.02387,0.04908 -0.03919,0.10096 -0.0972,0.11916z"/><path d="M226.53559,181.52793c-0.08028,0.02519 -0.14282,-0.03893 -0.23435,-0.05178c-0.09232,-0.01298 -0.2134,0.02486 -0.24385,-0.05443c-0.06064,-0.1579 0.09734,-0.41499 0.25858,-0.4656c0.16124,-0.0506 0.34112,0.03638 0.40177,0.19428c0.00755,0.01966 0.05566,0.06879 0.05892,0.08855c0.01104,0.06688 -0.02117,0.12193 -0.06349,0.17028c-0.04558,0.05208 -0.10438,0.09572 -0.17758,0.1187z"/></g><g fill="#573007" stroke="none" stroke-width="0"><path d="M247.17286,163.34885c0.02659,-0.20394 0.19648,-0.35269 0.37946,-0.33222c0.18297,0.02046 0.30973,0.20237 0.28314,0.40632c-0.02659,0.20394 -0.18955,0.29951 -0.37252,0.27905c-0.1097,-0.01227 -0.2017,-0.06346 -0.25205,-0.14645c-0.03363,-0.05543 -0.04868,-0.12503 -0.03803,-0.20669z"/><path d="M247.25107,163.02041c0.03032,-0.2325 0.20322,-0.40438 0.38619,-0.38392c0.18297,0.02046 0.30673,0.22553 0.27641,0.45802c-0.01744,0.13368 -0.13405,0.59217 -0.16852,0.31588c-0.01118,-0.08963 -0.13991,0.07673 -0.21768,0.06804c-0.18297,-0.02046 -0.30672,-0.22552 -0.2764,-0.45801z"/><path d="M246.87682,162.54396c0.03032,-0.2325 0.25787,-0.39827 0.50825,-0.37027c0.25038,0.028 0.45552,0.25115 0.4252,0.48364c-0.0057,0.04367 0.0538,0.18296 0.03534,0.22108c-0.0798,0.16483 -0.36698,0.15995 -0.57033,0.13721c-0.25038,-0.028 -0.42878,-0.23917 -0.39846,-0.47166z"/><path d="M247.03757,162.48701c0.00807,-0.06194 0.02295,-0.11994 0.04279,-0.17145c0.05463,-0.14185 0.14694,-0.23444 0.23878,-0.22417c0.05405,0.00605 0.21421,0.08658 0.24552,0.14957c0.0412,0.08291 -0.0565,0.16463 -0.07373,0.29674c-0.03032,0.2325 -0.15639,0.40962 -0.28158,0.39562c-0.12519,-0.014 -0.2021,-0.21382 -0.17178,-0.44631z"/><path d="M247.07328,163.3527c0.01915,-0.14684 0.13616,-0.25453 0.26135,-0.24052c0.12519,0.014 0.21115,0.14438 0.192,0.29122c-0.01423,0.10909 -0.0992,0.19939 -0.19984,0.25523c-0.03482,0.01932 -0.08274,0.07285 -0.11492,0.06924c-0.08415,-0.00941 -0.10553,-0.107 -0.1184,-0.21611c-0.00628,-0.0532 -0.02648,-0.11093 -0.0202,-0.15906z"/><path d="M246.82206,163.14478c0.01915,-0.14684 0.13616,-0.25453 0.26135,-0.24053c0.12519,0.014 0.21115,0.14438 0.192,0.29122c-0.01915,0.14684 -0.13616,0.25453 -0.26135,0.24052c-0.06283,-0.00702 -0.09139,-0.06761 -0.12613,-0.12063c-0.03448,-0.05263 -0.07542,-0.09744 -0.06588,-0.17059z"/><path d="M246.68052,162.78312c0.0132,-0.10122 0.1008,-0.13471 0.15425,-0.2276c0.05391,-0.09368 0.07398,-0.24627 0.16102,-0.23654c0.17334,0.01938 0.33896,0.33101 0.31245,0.53432c-0.02651,0.20332 -0.18853,0.35242 -0.36187,0.33304c-0.02158,-0.00242 -0.0888,0.02345 -0.10853,0.0163c-0.06677,-0.02418 -0.10296,-0.08915 -0.12838,-0.1615c-0.02739,-0.07793 -0.04098,-0.16573 -0.02894,-0.25803z"/></g><g fill="#573007" stroke="none" stroke-width="0"><path d="M248.54443,161.36631c0.10414,-0.05937 0.28598,-0.006 0.40614,0.1192c0.12016,0.1252 0.13315,0.27484 0.02901,0.33421c-0.10414,0.05937 -0.25882,-0.00949 -0.37898,-0.13469c-0.07205,-0.07507 -0.11532,-0.15336 -0.11598,-0.21681c-0.00044,-0.04238 0.01812,-0.07814 0.05982,-0.10191z"/><path d="M248.73704,161.29343c0.11872,-0.06768 0.31238,-0.02105 0.43254,0.10415c0.12016,0.1252 0.12133,0.28158 0.00261,0.34925c-0.06826,0.03892 -0.34237,0.13589 -0.25089,0.01017c0.02967,-0.04078 -0.13057,-0.0611 -0.18165,-0.11432c-0.12016,-0.1252 -0.12133,-0.28158 -0.00261,-0.34926z"/><path d="M248.67332,160.8744c0.11872,-0.06768 0.34826,0.01635 0.5127,0.18768c0.16443,0.17133 0.21528,0.38678 0.09656,0.45445c-0.0223,0.01271 -0.0388,0.10315 -0.06775,0.10558c-0.12519,0.01053 -0.3252,-0.17578 -0.45874,-0.31493c-0.16443,-0.17133 -0.20148,-0.3651 -0.08276,-0.43278z"/><path d="M248.81027,160.95631c0.03162,-0.01803 0.06639,-0.03023 0.10192,-0.03679c0.09786,-0.01808 0.20159,0.00651 0.26191,0.06936c0.03549,0.03698 0.11444,0.17005 0.11008,0.21379c-0.00574,0.05755 -0.10871,0.02542 -0.17618,0.06388c-0.11872,0.06768 -0.28162,0.0531 -0.36383,-0.03257c-0.08221,-0.08567 -0.05262,-0.20998 0.0661,-0.27766z"/><path d="M248.47276,161.30379c0.07498,-0.04275 0.20242,-0.00795 0.28463,0.07772c0.08221,0.08567 0.08808,0.18976 0.0131,0.23252c-0.05571,0.03176 -0.15331,0.01102 -0.24751,-0.03269c-0.03259,-0.01513 -0.08873,-0.02585 -0.10986,-0.04787c-0.05526,-0.05758 -0.02942,-0.1079 0.00723,-0.15707c0.01787,-0.02398 0.02784,-0.0586 0.05242,-0.07261z"/><path d="M248.38311,161.06446c0.07498,-0.04275 0.20242,-0.00795 0.28464,0.07772c0.08221,0.08567 0.08808,0.18977 0.01309,0.23252c-0.07498,0.04275 -0.20242,0.00795 -0.28464,-0.07772c-0.04126,-0.04299 -0.03596,-0.08405 -0.0382,-0.12624c-0.00222,-0.04188 -0.01225,-0.08498 0.0251,-0.10628z"/><path d="M248.43503,160.83796c0.05169,-0.02946 0.12735,0.01425 0.20387,0.01377c0.07717,-0.00049 0.15521,-0.0448 0.21237,0.01477c0.11383,0.11862 0.09982,0.34183 -0.004,0.40102c-0.10382,0.05919 -0.28028,0.01101 -0.39411,-0.10761c-0.01417,-0.01477 -0.07229,-0.04825 -0.08318,-0.0636c-0.03684,-0.05195 -0.03509,-0.09956 -0.02267,-0.14302c0.01338,-0.04681 0.04059,-0.08846 0.08772,-0.11533z"/></g><g fill="#573007" stroke="none" stroke-width="0"><path d="M250.91688,160.97975c0.02251,-0.07257 0.14068,-0.12038 0.26395,-0.10678c0.12327,0.0136 0.20494,0.08346 0.18242,0.15603c-0.02251,0.07257 -0.13482,0.10145 -0.25807,0.08785c-0.0739,-0.00815 -0.13497,-0.02973 -0.16717,-0.06134c-0.0215,-0.02112 -0.03014,-0.0467 -0.02113,-0.07576z"/><path d="M250.97706,160.86408c0.02566,-0.08273 0.14638,-0.13878 0.26965,-0.12518c0.12327,0.0136 0.20238,0.09169 0.17672,0.17442c-0.01476,0.04757 -0.10378,0.20879 -0.12096,0.10807c-0.00557,-0.03267 -0.09631,0.02288 -0.1487,0.0171c-0.12327,-0.0136 -0.20238,-0.09169 -0.17672,-0.17442z"/><path d="M250.73459,160.67968c0.02566,-0.08273 0.1832,-0.13471 0.35187,-0.11611c0.16868,0.01861 0.30242,0.10599 0.27677,0.18873c-0.00482,0.01554 0.03231,0.06775 0.01898,0.08086c-0.05761,0.05667 -0.25168,0.04514 -0.38868,0.03002c-0.16868,-0.01861 -0.2846,-0.10077 -0.25894,-0.1835z"/><path d="M250.84454,160.66463c0.00683,-0.02204 0.01818,-0.04243 0.03274,-0.06031c0.04009,-0.04925 0.10456,-0.07946 0.16643,-0.07264c0.03642,0.00402 0.14291,0.03848 0.16268,0.06225c0.02602,0.03127 -0.04186,0.05739 -0.05644,0.1044c-0.02566,0.08273 -0.11483,0.14226 -0.19917,0.13295c-0.08434,-0.00931 -0.1319,-0.08392 -0.10625,-0.16665z"/><path d="M250.84947,160.97775c0.01621,-0.05225 0.09771,-0.08707 0.18205,-0.07776c0.08434,0.00931 0.13957,0.0592 0.12336,0.11146c-0.01204,0.03882 -0.0715,0.06846 -0.14078,0.08516c-0.02397,0.00577 -0.05756,0.02342 -0.07924,0.02103c-0.05669,-0.00626 -0.06898,-0.04214 -0.07526,-0.08189c-0.00306,-0.01938 -0.01544,-0.04087 -0.01013,-0.058z"/><path d="M250.68422,160.89428c0.01621,-0.05225 0.09771,-0.08707 0.18205,-0.07776c0.08434,0.00931 0.13957,0.0592 0.12336,0.11146c-0.01621,0.05225 -0.09771,0.08707 -0.18205,0.07776c-0.04233,-0.00467 -0.06029,-0.02747 -0.0826,-0.04775c-0.02214,-0.02014 -0.04883,-0.03768 -0.04076,-0.0637z"/><path d="M250.59655,160.75916c0.01118,-0.03602 0.07115,-0.04511 0.10935,-0.07675c0.03853,-0.03191 0.05549,-0.08621 0.11413,-0.07974c0.11677,0.01289 0.22184,0.1308 0.1994,0.20315c-0.02244,0.07235 -0.1353,0.12056 -0.25208,0.10767c-0.01454,-0.00161 -0.06056,0.00542 -0.07374,0.00218c-0.0446,-0.01099 -0.06764,-0.03562 -0.08322,-0.06256c-0.01678,-0.02901 -0.02403,-0.0611 -0.01385,-0.09394z"/></g><g fill="#573007" stroke="none" stroke-width="0"><path d="M253.06324,161.42104c0.01375,-0.03708 0.08594,-0.06152 0.16124,-0.05457c0.0753,0.00695 0.12519,0.04265 0.11144,0.07973c-0.01375,0.03708 -0.08236,0.05185 -0.15765,0.0449c-0.04514,-0.00417 -0.08245,-0.0152 -0.10212,-0.03135c-0.01314,-0.01079 -0.01841,-0.02387 -0.01291,-0.03871z"/><path d="M253.1,161.36193c0.01567,-0.04228 0.08943,-0.07092 0.16473,-0.06397c0.0753,0.00695 0.12362,0.04686 0.10795,0.08914c-0.00902,0.02431 -0.0634,0.1067 -0.07389,0.05523c-0.0034,-0.01669 -0.05882,0.01169 -0.09083,0.00874c-0.0753,-0.00695 -0.12363,-0.04686 -0.10796,-0.08914z"/><path d="M252.95188,161.26769c0.01567,-0.04228 0.11191,-0.06884 0.21495,-0.05933c0.10304,0.00951 0.18474,0.05416 0.16906,0.09644c-0.00295,0.00794 0.01974,0.03463 0.0116,0.04132c-0.03519,0.02896 -0.15375,0.02307 -0.23744,0.01534c-0.10304,-0.00951 -0.17386,-0.0515 -0.15819,-0.09378z"/><path d="M253.01905,161.26c0.00418,-0.01126 0.0111,-0.02168 0.02,-0.03082c0.02449,-0.02516 0.06388,-0.04062 0.10167,-0.03713c0.02224,0.00206 0.0873,0.01967 0.09938,0.03181c0.0159,0.01598 -0.02558,0.02933 -0.03448,0.05335c-0.01567,0.04228 -0.07014,0.0727 -0.12167,0.06795c-0.05152,-0.00475 -0.08057,-0.04289 -0.0649,-0.08517z"/><path d="M253.02206,161.42002c0.0099,-0.0267 0.0597,-0.04449 0.11122,-0.03974c0.05152,0.00475 0.08525,0.03025 0.07536,0.05696c-0.00735,0.01984 -0.04368,0.03499 -0.08601,0.04352c-0.01465,0.00295 -0.03516,0.01198 -0.04841,0.01075c-0.03463,-0.0032 -0.04214,-0.02154 -0.04597,-0.04185c-0.00187,-0.00991 -0.00943,-0.02088 -0.00619,-0.02964z"/><path d="M252.92111,161.37736c0.0099,-0.0267 0.05969,-0.0445 0.11121,-0.03974c0.05152,0.00475 0.08526,0.03026 0.07536,0.05697c-0.0099,0.0267 -0.05969,0.04449 -0.11121,0.03974c-0.02586,-0.00239 -0.03683,-0.01404 -0.05046,-0.02441c-0.01353,-0.01029 -0.02983,-0.01925 -0.0249,-0.03256z"/><path d="M252.86756,161.30831c0.00682,-0.01841 0.04346,-0.02305 0.0668,-0.03922c0.02354,-0.01631 0.0339,-0.04406 0.06972,-0.04075c0.07134,0.00659 0.13552,0.06684 0.12181,0.10381c-0.01371,0.03698 -0.08265,0.06161 -0.15399,0.05503c-0.00888,-0.00082 -0.03699,0.00277 -0.04504,0.00111c-0.02725,-0.00562 -0.04132,-0.0182 -0.05084,-0.03197c-0.01026,-0.01483 -0.01468,-0.03123 -0.00845,-0.04801z"/></g></g><path d="M217.73215,202.29511c0,-11.61149 0,-38.15832 0,-44.59012c0,-2.7447 1.64785,-5.47898 4.28633,-5.47898c9.27857,0 30.80807,0 36.0069,0c2.20881,0 4.40922,2.73428 4.40922,5.47898c0,6.48884 0,33.45112 0,44.89553c0,3.18938 -2.13076,5.17356 -4.28633,5.17356c-5.13509,0 -26.6278,0 -36.00688,0c-2.71044,0 -4.40922,-2.11135 -4.40922,-5.47897z" fill="none" stroke="#000000" stroke-width="2"/></g></g></svg>