<svg version="1.1" xmlns="http://www.w3.org/2000/svg" xmlns:xlink="http://www.w3.org/1999/xlink" width="51.77639" height="64.33827" viewBox="0,0,51.77639,64.33827"><defs><linearGradient x1="240.16744" y1="153.07129" x2="240.16744" y2="194.26858" gradientUnits="userSpaceOnUse" id="color-1"><stop offset="0" stop-color="#48d296"/><stop offset="1" stop-color="#77e1bb"/></linearGradient><linearGradient x1="232.9654" y1="169.30719" x2="232.9654" y2="176.5242" gradientUnits="userSpaceOnUse" id="color-2"><stop offset="0" stop-color="#b7ebdc"/><stop offset="1" stop-color="#60daa9"/></linearGradient><radialGradient cx="230.02018" cy="174.06777" r="4.2351" gradientUnits="userSpaceOnUse" id="color-3"><stop offset="0" stop-color="#62dbab"/><stop offset="1" stop-color="#62dbab" stop-opacity="0"/></radialGradient><radialGradient cx="229.89119" cy="172.84991" r="4.2351" gradientUnits="userSpaceOnUse" id="color-4"><stop offset="0" stop-color="#62dbab"/><stop offset="1" stop-color="#62dbab" stop-opacity="0"/></radialGradient><radialGradient cx="231.43905" cy="174.42862" r="4.23511" gradientUnits="userSpaceOnUse" id="color-5"><stop offset="0" stop-color="#62dbab"/><stop offset="1" stop-color="#62dbab" stop-opacity="0"/></radialGradient><linearGradient x1="229.13876" y1="166.91655" x2="229.13876" y2="169.17188" gradientUnits="userSpaceOnUse" id="color-6"><stop offset="0" stop-color="#b7ebdc"/><stop offset="1" stop-color="#60daa9"/></linearGradient><radialGradient cx="226.45152" cy="170.14354" r="4.2351" gradientUnits="userSpaceOnUse" id="color-7"><stop offset="0" stop-color="#62dbab"/><stop offset="1" stop-color="#62dbab" stop-opacity="0"/></radialGradient><radialGradient cx="248.23413" cy="162.71248" r="3.93972" gradientUnits="userSpaceOnUse" id="color-8"><stop offset="0" stop-color="#d2f7f4" stop-opacity="0"/><stop offset="1" stop-color="#d2f7f4"/></radialGradient><radialGradient cx="225.06468" cy="158.34139" r="1.27935" gradientUnits="userSpaceOnUse" id="color-9"><stop offset="0" stop-color="#d2f7f4" stop-opacity="0"/><stop offset="1" stop-color="#d2f7f4"/></radialGradient></defs><g transform="translate(-214.11186,-147.83093)"><g data-paper-data="{&quot;isPaintingLayer&quot;:true}" fill-rule="nonzero" stroke-linecap="butt" stroke-linejoin="miter" stroke-miterlimit="10" stroke-dasharray="" stroke-dashoffset="0" style="mix-blend-mode: normal"><path d="M214.11186,205.82321c0,-13.44895 0,-44.19668 0,-51.64628c0,-3.17904 1.90861,-6.346 4.96462,-6.346c10.74686,0 35.68329,0 41.70481,0c2.55834,0 5.10696,3.16696 5.10696,6.346c0,7.51567 0,38.74459 0,52.00002c0,3.69408 -2.46794,5.99225 -4.96462,5.99225c-5.94769,0 -30.84152,0 -41.70479,0c-3.13935,0 -5.10696,-2.44546 -5.10696,-6.34599z" fill="#272727" stroke="none" stroke-width="0"/><g stroke-width="0"><path d="M218.08692,194.51858c0,0 -0.625,-21.41964 -0.625,-29.00847c0,-4.66943 1.25,-12.43881 1.25,-12.43881c0,0 20.02635,-0.875 27.94438,-0.875c4.0121,0 11.14325,0.55645 13.8673,0.78186c0.69184,0.05724 1.97441,3.59314 1.97441,3.59314l-0.875,37.69728z" fill="url(#color-1)" stroke="none"/><path d="M218.28766,188.35689l-0.73094,-2.86425c0,0 -0.73072,-3.32095 1.33919,-3.44224c1.49134,-0.08738 1.94522,-0.12706 5.80334,-0.18126c3.62438,-0.05091 -0.40081,1.92395 4.81784,2.05821c3.55366,0.09142 1.27518,-1.01372 5.80667,-1.15021c3.65248,-0.11002 0.56784,0.86587 4.89695,0.88933c2.82585,0.01531 1.44538,-0.71402 3.61046,-2.21705c0.88065,-0.61136 2.19505,-0.49534 3.60155,-0.30866c0.85496,0.11348 1.54198,0.89166 2.28927,1.30871c2.03337,1.13479 1.26797,1.80118 3.39614,1.75528c1.3767,-0.0297 0.45748,-0.31576 1.42843,-1.26108c0.53459,-0.52048 1.71501,-0.13138 2.78445,-0.15806c2.30453,-0.05749 4.87703,0.09085 4.87703,0.09085v5.48041z" fill="#92cbb8" stroke="none"/><path d="M219.22518,193.86519l0.04299,-8.29955c0,0 3.54159,-0.7217 5.80445,-0.7217c2.09056,0 6.56161,-0.05115 11.47993,-0.00051c1.86479,0.0192 3.89699,0.71906 5.19374,-0.64006c1.33034,-1.39433 1.23483,-4.3981 2.63197,-5.37592c1.27525,0.78422 -0.02828,5.21715 1.55359,5.97443c1.59235,0.7623 4.33055,0.58205 6.70781,0.75205c2.47036,0.17666 4.55095,0.6883 4.55095,0.6883c0,0 5.0668,0.59399 5.01157,1.03909c-0.14963,1.20583 0.16751,8.83387 0.16751,8.83387z" fill="#6aad97" stroke="none"/><path d="M219.0102,199.66371l-0.90292,-12.17869c0,0 2.91418,-1.4019 5.83659,-1.63851c0.99008,-0.08016 2.42011,0.38143 4.13717,0.3969c2.09854,0.01891 4.62582,-0.40584 7.30272,-0.52868c3.313,-0.15203 6.67866,0.85241 9.98349,0.98665c2.06416,0.08385 4.26193,-0.63944 5.924,-0.75637c3.58693,-0.25235 10.97027,5.04149 10.97027,5.04149c0,0 0.74317,4.5811 -0.12372,6.03977c-0.85181,1.43329 -5.03319,2.63744 -5.03319,2.63744z" fill="#4a9f83" stroke="none"/><path d="M218.27926,205.00643l-0.60194,-18.80931c0,0 0.45312,-0.70176 1.89228,-1.13436c2.65598,-0.79836 4.19494,4.93985 4.8457,7.61902c0.53669,2.20955 4.14988,2.54586 5.04097,0.38277c0.75874,-1.8418 0.23509,-4.55108 0.73545,-6.4318c0.16852,-0.6334 -0.00426,-1.83266 0.64112,-1.98761c1.24964,-0.35421 0.63234,3.27872 2.67502,5.02255c0.19386,0.16549 3.20792,2.75057 4.63827,0.92831c1.3944,-1.77645 1.20045,-7.95863 1.79881,-8.01368c1.59937,-0.14713 2.32771,9.09619 2.56893,9.36699c0.97473,1.09421 1.18282,1.28879 1.9976,1.36457c3.55066,0.33024 1.66653,-5.322 3.5316,-6.41102c1.08022,-0.63074 3.57638,5.31349 5.30581,6.07088c1.50589,0.65948 5.08861,1.61316 5.08861,1.61316l-2.75174,10.41954z" fill="#51ba98" stroke="none"/><path d="M222.23491,202.66092l-3.05272,-8.6604c0,0 1.53014,0.57164 3.93816,-0.02122c4.24194,-1.04439 10.93685,-3.52053 14.8509,-3.50188c3.55702,0.01694 8.71198,2.081 12.86674,3.08369c3.40548,0.82187 6.22365,0.61983 6.22365,0.61983l-3.1817,8.47998z" fill="#51c6a3" stroke="none"/><path d="M221.71296,208.42877c0,0 -3.29851,-1.36624 -3.67425,-3.07281c-0.58722,-2.66709 0.49255,-11.37801 0.49255,-11.37801c0,0 5.99021,1.12766 7.53029,1.12766c1.84619,0 5.63553,-0.90867 10.78772,-1.03132c3.86869,-0.0921 7.70977,0.67833 11.35503,0.71195c3.1402,0.02896 4.96162,-0.60069 6.42251,-0.75624c0.75317,-0.08019 7.30382,0.12837 7.30382,0.12837c0,0 0.375,1.9135 0.375,3.97673c0,1.08801 0.0692,6.5196 -1.09546,8.45726c-1.43243,2.38316 -4.15454,1.2114 -4.15454,1.2114z" fill="#57cfaa" stroke="#000000"/><path d="M250.73812,193.77674c0,0.52412 -0.58568,0.71993 -0.85349,0.71993c-0.26781,0 -0.11633,-0.19581 -0.11633,-0.71993c0,-0.52412 0.2171,-0.949 0.48491,-0.949c0.26781,0 0.48491,0.42488 0.48491,0.949z" fill="#5ddeb5" stroke="none"/><path d="M244.60454,177.61872c0,0.52314 -0.09583,0.93664 -0.22866,0.94314c-0.12035,0.00589 -0.26775,-0.43229 -0.26775,-0.95543c0,-0.52314 0.09718,-0.63149 0.22866,-0.63149c0.11975,0 0.26775,0.12065 0.26775,0.64379z" fill="#6aad97" stroke="none"/><path d="M244.4938,176.16238c0,0.18684 -0.06563,0.3383 -0.14658,0.3383c-0.08095,0 -0.14658,-0.15147 -0.14658,-0.3383c0,-0.18684 0.06563,-0.33829 0.14658,-0.33829c0.08095,0 0.14658,0.15146 0.14658,0.33829z" fill="#6aad97" stroke="none"/><path d="M253.38848,188.36937c0,0.93239 -1.014,2.07011 -1.31796,2.07011c-0.19801,0 -0.2341,-0.50295 -0.10397,-1.09733c0.06963,-0.31799 0.32122,-0.64781 0.32122,-0.97278c0,-0.93239 0.2464,-1.68823 0.55035,-1.68823c0.30396,0 0.55035,0.75584 0.55035,1.68823z" fill="#55c39f" stroke="none"/><path d="M250.47013,187.58087c0,0.28959 -0.10106,0.52436 -0.22573,0.52436c-0.12466,0 -0.22573,-0.23477 -0.22573,-0.52436c0,-0.28959 0.10107,-0.52436 0.22573,-0.52436c0.12466,0 0.22573,0.23477 0.22573,0.52436z" fill="#58c19e" stroke="none"/><path d="M231.2186,182.5303c0,0.78521 -0.19742,1.7732 -0.38692,1.42175c-0.12399,-0.22994 -0.38691,-0.63654 -0.38691,-1.42175c0,-0.78521 0.14905,-2.25245 0.4111,-1.901c0.08523,0.11429 0.11819,0.45904 0.1934,0.87951c0.05713,0.31941 0.16933,0.68251 0.16933,1.02149z" fill="#55c9a2" stroke="none"/><path d="M230.8962,179.59567c0,0.21761 -0.08662,0.39402 -0.19348,0.39402c-0.10685,0 -0.19348,-0.17641 -0.19348,-0.39402c0,-0.21761 0.08662,-0.39401 0.19348,-0.39401c0.10685,0 0.19348,0.1764 0.19348,0.39401z" fill="#55c9a2" stroke="none"/><path d="M229.52573,172.9157c0,-1.99292 1.54,-3.6085 3.43967,-3.6085c1.89968,0 3.43968,1.61558 3.43968,3.6085c0,1.99292 -1.54,3.6085 -3.43968,3.6085c-1.89968,0 -3.43967,-1.61558 -3.43967,-3.6085z" fill="url(#color-2)" stroke="none"/><path d="M234.25526,174.06777c0,2.2794 -1.89612,4.12723 -4.2351,4.12723c-2.33898,0 -4.2351,-1.84783 -4.2351,-4.12723c0,-2.2794 1.89612,-4.12722 4.2351,-4.12722c2.33898,0 4.2351,1.84782 4.2351,4.12722z" fill="url(#color-3)" stroke="none"/><path d="M234.1263,172.84991c0,2.2794 -1.89612,4.12722 -4.2351,4.12722c-2.33898,0 -4.2351,-1.84782 -4.2351,-4.12722c0,-2.2794 1.89612,-4.12723 4.2351,-4.12723c2.33898,0 4.2351,1.84783 4.2351,4.12723z" fill="url(#color-4)" stroke="none"/><path d="M235.67414,174.42862c0,2.2794 -1.89612,4.12723 -4.23511,4.12723c-2.33898,0 -4.2351,-1.84783 -4.2351,-4.12723c0,-2.2794 1.89612,-4.12722 4.2351,-4.12722c2.33898,0 4.23511,1.84782 4.23511,4.12722z" fill="url(#color-5)" stroke="none"/><path d="M228.06387,168.04421c0,-0.62278 0.48125,-1.12766 1.07489,-1.12766c0.59365,0 1.0749,0.50486 1.0749,1.12766c0,0.62278 -0.48125,1.12766 -1.0749,1.12766c-0.59365,0 -1.07489,-0.50487 -1.07489,-1.12766z" fill="url(#color-6)" stroke="none"/><path d="M230.6866,170.14354c0,2.2794 -1.89612,4.12722 -4.2351,4.12722c-2.33898,0 -4.2351,-1.84782 -4.2351,-4.12722c0,-2.2794 1.89612,-4.12723 4.2351,-4.12723c2.33898,0 4.2351,1.84783 4.2351,4.12723z" fill="url(#color-7)" stroke="none"/><path d="M244.29439,162.71248c0,-1.60564 1.76387,-2.90727 3.93972,-2.90727c2.17585,0 3.93972,1.30163 3.93972,2.90727c0,1.60564 -1.76387,2.90726 -3.93972,2.90726c-2.17585,0 -3.93972,-1.30163 -3.93972,-2.90726z" fill="url(#color-8)" stroke="#ffffff"/><path d="M223.78533,158.34139c0,-0.63798 0.57279,-1.15518 1.27935,-1.15518c0.70657,0 1.27935,0.51719 1.27935,1.15518c0,0.63798 -0.57278,1.15517 -1.27935,1.15517c-0.70657,0 -1.27935,-0.51719 -1.27935,-1.15517z" fill="url(#color-9)" stroke="#ffffff"/></g><path d="M217.73216,202.29511c0,-11.61149 0,-38.15832 0,-44.59012c0,-2.7447 1.64785,-5.47898 4.28633,-5.47898c9.27857,0 30.80807,0 36.0069,0c2.20881,0 4.40922,2.73428 4.40922,5.47898c0,6.48884 0,33.45112 0,44.89553c0,3.18938 -2.13076,5.17356 -4.28633,5.17356c-5.13509,0 -26.6278,0 -36.00688,0c-2.71044,0 -4.40922,-2.11135 -4.40922,-5.47897z" fill="none" stroke="#000000" stroke-width="2"/><path d="M215.55314,209.171v-58.14108h48.77563v58.14108z" fill-opacity="0.69412" fill="#262626" stroke="none" stroke-width="0"/><g font-family="Sans Serif" font-weight="normal" font-size="40" text-anchor="start"><text transform="translate(224.33173,175.5411) scale(0.24437,0.24437)" font-size="40" xml:space="preserve" fill="#000000" fill-rule="nonzero" stroke="#000000" stroke-width="4" stroke-linecap="butt" stroke-linejoin="miter" stroke-miterlimit="10" stroke-dasharray="" stroke-dashoffset="0" font-family="Sans Serif" font-weight="normal" text-anchor="start" style="mix-blend-mode: normal"><tspan x="0" dy="0">REACH</tspan></text><text transform="translate(224.3357,175.57376) scale(0.24437,0.24437)" font-size="40" xml:space="preserve" fill="#ffb424" fill-rule="nonzero" stroke="#ffb424" stroke-width="2" stroke-linecap="butt" stroke-linejoin="miter" stroke-miterlimit="10" stroke-dasharray="" stroke-dashoffset="0" font-family="Sans Serif" font-weight="normal" text-anchor="start" style="mix-blend-mode: normal"><tspan x="0" dy="0">REACH</tspan></text></g><g fill="#ffb424" stroke-width="0"><path d="M252.97551,190.36169v-11.69031l8.65033,5.84515z" stroke="#000000"/><path d="M218.7075,190.2949v-11.55674h34.43363v11.55674z" stroke="none"/></g><text transform="translate(229.31089,187.29979) scale(0.20316,0.20316)" font-size="40" xml:space="preserve" fill="#000000" fill-rule="nonzero" stroke="#000000" stroke-width="2" stroke-linecap="butt" stroke-linejoin="miter" stroke-miterlimit="10" stroke-dasharray="" stroke-dashoffset="0" font-family="Sans Serif" font-weight="normal" text-anchor="start" style="mix-blend-mode: normal"><tspan x="0" dy="0">1250</tspan></text></g></g></svg>