<svg version="1.1" xmlns="http://www.w3.org/2000/svg" xmlns:xlink="http://www.w3.org/1999/xlink" width="78" height="247.82453" viewBox="0,0,78,247.82453"><defs><linearGradient x1="227.25784" y1="289.11669" x2="227.25784" y2="293.12032" gradientUnits="userSpaceOnUse" id="color-1"><stop offset="0" stop-color="#fa0000"/><stop offset="1" stop-color="#cd0000"/></linearGradient><linearGradient x1="227.21666" y1="285.51344" x2="227.21666" y2="289.85069" gradientUnits="userSpaceOnUse" id="color-2"><stop offset="0" stop-color="#ff0000"/><stop offset="1" stop-color="#ef0000"/></linearGradient></defs><g transform="translate(-201,-83.83773)"><g data-paper-data="{&quot;isPaintingLayer&quot;:true}" fill-rule="nonzero" stroke-linejoin="miter" stroke-miterlimit="10" stroke-dasharray="" stroke-dashoffset="0" style="mix-blend-mode: normal"><path d="M245.50151,316.53103c0,0 0.01843,-3.85126 1.12967,-6.83759c0.70364,-1.89097 2.39004,-3.43514 3.05215,-3.43514c1.28515,0 3.71513,0 5.90909,0c0.97376,0 2.71921,1.66904 3.47926,3.66161c1.12555,2.9508 1.06619,6.61111 1.06619,6.61111z" data-paper-data="{&quot;origPos&quot;:[&quot;Point&quot;,505.63992,611.58579]}" fill="#2c3132" stroke="none" stroke-width="0" stroke-linecap="butt"/><path d="M219.66818,316.53103c0,0 0.01843,-3.85126 1.12967,-6.83759c0.70364,-1.89097 2.39004,-3.43514 3.05215,-3.43514c1.28515,0 3.71513,0 5.90909,0c0.97376,0 2.71922,1.66904 3.47926,3.66161c1.12555,2.9508 1.06619,6.61111 1.06619,6.61111z" data-paper-data="{&quot;origPos&quot;:[&quot;Point&quot;,453.97326,611.58579]}" fill="#2c3132" stroke="none" stroke-width="0" stroke-linecap="butt"/><path d="M259.14365,304.93904l-0.91404,2.5332h-10.96848l-0.78346,-2.68221z" data-paper-data="{&quot;index&quot;:null,&quot;origPos&quot;:[&quot;Point&quot;,505.62132,601.05875]}" fill="#272a3a" stroke="none" stroke-width="0" stroke-linecap="butt"/><path d="M233.28203,305.00542l-0.91404,2.5332h-10.96848l-0.78346,-2.68221z" data-paper-data="{&quot;index&quot;:null,&quot;origPos&quot;:[&quot;Point&quot;,453.89808,601.19153]}" fill="#272a3a" stroke="none" stroke-width="0" stroke-linecap="butt"/><path d="M242.84367,305.8331c0,0 -0.80895,-1.32058 -0.83587,-1.93968c-0.02155,-0.49562 0.68686,-1.48759 0.68686,-1.48759l20.41459,0.74506c0,0 -0.09491,1.02712 -0.21818,1.47091c-0.12506,0.45019 -0.52688,1.2113 -0.52688,1.2113z" data-paper-data="{&quot;index&quot;:null,&quot;origPos&quot;:[&quot;Point&quot;,505.11657,597.03543]}" fill="#1d1c1c" stroke="none" stroke-width="0" stroke-linecap="butt"/><path d="M217.63581,305.8995c0,0 -0.40182,-0.76111 -0.52688,-1.2113c-0.12327,-0.44379 -0.21818,-1.47091 -0.21818,-1.47091l20.41459,-0.74506c0,0 0.70841,0.99197 0.68686,1.48759c-0.02692,0.6191 -0.83587,1.93968 -0.83587,1.93968z" data-paper-data="{&quot;origPos&quot;:[&quot;Point&quot;,454.88343,597.16821]}" fill="#1d1c1c" stroke="none" stroke-width="0" stroke-linecap="butt"/><path d="M214.62445,304.10025c0,0 3.22293,-28.05519 5.13375,-40.27497c1.61439,-10.32411 5.59252,-28.31994 5.59252,-28.31994l29.22528,-0.16707c0,0 4.9771,17.00176 6.32739,27.13756c0.73339,5.50512 1.82045,14.288 2.79995,22.33095c1.21717,9.99451 1.67222,18.99545 1.67222,18.99545z" data-paper-data="{&quot;origPos&quot;:[&quot;Point&quot;,480.00001,528.23504]}" fill="#354b92" stroke-opacity="0.16078" stroke="#ffffff" stroke-width="0" stroke-linecap="butt"/><path d="M215.38163,298.35381l2.08616,-16.98732l45.59754,-0.44704c0,0 0.69539,4.79133 0.99538,7.42204c0.34056,2.98648 0.79275,9.56528 0.79275,9.56528z" fill="#1b2b2f" stroke="none" stroke-width="0" stroke-linecap="butt"/><path d="M217.41865,281.51757c0,0 0.12981,-1.63602 0.25483,-2.3861c0.11154,-0.66926 0.3166,-1.89961 0.3166,-1.89961h44.71429l0.57143,4.28572z" data-paper-data="{&quot;origPos&quot;:[&quot;Point&quot;,480.69445,547.5459]}" fill="#565c63" stroke="none" stroke-width="0" stroke-linecap="butt"/><path d="M225.5487,235.60438c0,0 1.44717,-6.95264 2.43718,-9.81015c0.80461,-2.3224 2.64615,-6.06485 2.64615,-6.06485l18.95833,0.125c0,0 1.70071,3.18014 2.37311,5.29821c0.9171,2.88885 2.96023,10.45179 2.96023,10.45179z" data-paper-data="{&quot;origPos&quot;:[&quot;Point&quot;,480.4724,444.13024]}" fill="#1799e5" stroke="none" stroke-width="0" stroke-linecap="butt"/><path d="M217.84722,277.66041l0.28571,-2.85714h44.28571l0.28571,2.85714z" data-paper-data="{&quot;origPos&quot;:[&quot;Point&quot;,480.55157,541.26018]}" fill="#2d385e" stroke-opacity="0.16078" stroke="#ffffff" stroke-width="0" stroke-linecap="butt"/><path d="M201,331.66226v-247.82453h78v247.82453z" fill="none" stroke="none" stroke-width="NaN" stroke-linecap="butt"/><path d="M232.24854,203.65398v-59.89981h15.32851c0,0 0,0.47209 0,1.13818c0,4.78598 0,58.76163 0,58.76163z" data-paper-data="{&quot;origPos&quot;:[&quot;Point&quot;,479.82559,336.20461]}" fill="#b0b4c5" stroke="none" stroke-width="0" stroke-linecap="butt"/><path d="M231.12469,122.57416v-2.0381h17.53246v2.0381z" data-paper-data="{&quot;origPos&quot;:[&quot;Point&quot;,479.78184,231.90668]}" fill="#ff9c02" stroke="#000000" stroke-width="0" stroke-linecap="butt"/><path d="M232.22736,162.69899v-15.54042h15.41836v15.54042z" data-paper-data="{&quot;origPos&quot;:[&quot;Point&quot;,479.87308,298.65402]}" fill="#848896" stroke="none" stroke-width="0" stroke-linecap="butt"/><path d="M236.731,106.85517c0,0 1.20554,-3.16097 1.80166,-4.52354c0.52284,-1.19508 1.58416,-3.21549 1.58416,-3.21549c0,0 0.89331,2.04608 1.33271,3.21783c0.5157,1.37522 1.56942,4.5212 1.56942,4.5212z" fill="#0c486d" stroke="#cd2d04" stroke-width="0" stroke-linecap="round"/><path d="M242.76702,106.00126c0,0 1.36923,2.62001 2.15738,4.27657c1.09306,2.29741 3.79077,8.22538 3.79077,8.22538l-17.63179,-0.01868c0,0 2.62005,-5.92002 3.71851,-8.21404c0.79192,-1.65385 2.25895,-4.26925 2.25895,-4.26925z" fill="#1a9ae9" stroke="#ff3600" stroke-width="0" stroke-linecap="round"/><path d="M231.10935,143.20979v-4.20356h2.03809v4.20356z" data-paper-data="{&quot;origPos&quot;:[&quot;Point&quot;,464.25679,271.01248]}" fill="#feb501" stroke="none" stroke-width="0" stroke-linecap="butt"/><path d="M236.09573,143.22834v-4.20356h2.80237v4.20356z" data-paper-data="{&quot;origPos&quot;:[&quot;Point&quot;,474.99383,271.0496]}" fill="#feb501" stroke="none" stroke-width="0" stroke-linecap="butt"/><path d="M240.97673,143.24687v-4.20356h2.80236v4.20356z" data-paper-data="{&quot;origPos&quot;:[&quot;Point&quot;,484.75582,271.08666]}" fill="#feb501" stroke="none" stroke-width="0" stroke-linecap="butt"/><path d="M246.51595,143.26545v-4.20356h2.16546v4.20356z" data-paper-data="{&quot;origPos&quot;:[&quot;Point&quot;,495.19736,271.12378]}" fill="#feb501" stroke="none" stroke-width="0" stroke-linecap="butt"/><path d="M231.34103,185.81239c0,0 -0.09764,-6.89943 0.04865,-9.15847c0.07896,-1.21904 0.75978,-3.32482 0.75978,-3.32482h15.47554c0,0 0.74837,1.79991 0.86223,3.33824c0.0727,0.98234 0.09463,2.78888 0.09587,4.53847c0.00165,2.35487 -0.03417,4.60658 -0.03417,4.60658z" data-paper-data="{&quot;origPos&quot;:[&quot;Point&quot;,479.89227,347.93795]}" fill="#858796" stroke="none" stroke-width="0" stroke-linecap="butt"/><path d="M230.48241,219.77261c0,0 0.34615,-3.2136 0.57073,-5.29862c0.32352,-3.00354 1.18434,-10.99537 1.18434,-10.99537l15.36464,-0.14286l1.95169,16.6942c0,0 -4.27227,-0.00735 -7.92673,-0.00735c-4.3209,0 -11.26968,0.125 -11.26968,0.125z" data-paper-data="{&quot;origPos&quot;:[&quot;Point&quot;,479.91121,412.27985]}" fill="#9ea9c2" stroke="none" stroke-width="0" stroke-linecap="butt"/><path d="M235.06221,221.10768c0,0 3.38124,-1.46846 4.99829,-1.50192c1.60803,-0.03327 4.8773,1.63537 4.8773,1.63537" data-paper-data="{&quot;origPos&quot;:[&quot;Point&quot;,480.00001,429.64286]}" fill="none" stroke="#37adf2" stroke-width="1.5" stroke-linecap="round"/><path d="M248.69994,279.04089c0,0 1.16407,0.78475 1.97228,2.90594c0.51591,1.35402 0.61006,3.72705 1.06426,5.2446c0.6864,2.29333 0.77961,4.46158 1.03941,5.56241c0.22028,0.93335 0.04442,2.2593 -0.06857,2.82272c-0.05738,0.28612 -6.68937,0.24067 -8.74505,0.21969c-0.16509,-0.00168 -0.94792,-0.30539 -1.55114,-1.0969c-0.77547,-1.01755 -1.18458,-2.57996 -1.18458,-2.57996z" data-paper-data="{&quot;index&quot;:null}" fill="#324780" stroke="#4e5a7e" stroke-width="0.5" stroke-linecap="round"/><path d="M238.80131,291.98596c0,0 -0.40911,1.56241 -1.18458,2.57996c-0.60322,0.79152 -1.38605,1.09522 -1.55114,1.0969c-2.05568,0.02098 -8.68768,0.06643 -8.74505,-0.21969c-0.11299,-0.56342 -0.28885,-1.88937 -0.06857,-2.82272c0.25979,-1.10083 0.35301,-3.26908 1.03941,-5.56241c0.4542,-1.51755 0.54834,-3.89058 1.06426,-5.2446c0.80821,-2.12119 1.97228,-2.90594 1.97228,-2.90594z" fill="#324780" stroke="#4e5a7e" stroke-width="0.5" stroke-linecap="round"/><path d="M226.32365,289.98416c0,0 -0.10049,-2.45054 0.20856,-3.7298c0.13736,-0.56858 0.54343,-0.60745 0.65889,-0.60745c0.09898,0 0.44041,0.14018 0.5898,0.68411c0.35006,1.2746 0.34438,3.65315 0.34438,3.65315" fill="none" stroke="#4e5a7e" stroke-width="1" stroke-linecap="round"/><path d="M225.25603,291.11849c0,-1.10556 0.89624,-2.00181 2.00181,-2.00181c1.10556,0 2.00181,0.89624 2.00181,2.00181c0,1.10556 -0.89624,2.00181 -2.00181,2.00181c-1.10556,0 -2.00181,-0.89624 -2.00181,-2.00181z" fill="url(#color-1)" stroke="#4e5a7e" stroke-width="0.5" stroke-linecap="butt"/><path d="M226.32365,289.85069c0,0 -0.10049,-2.45054 0.20856,-3.7298c0.13736,-0.56858 0.54343,-0.60745 0.65889,-0.60745c0.09898,0 0.44041,0.14018 0.5898,0.68411c0.35006,1.2746 0.34438,3.65315 0.34438,3.65315" fill="none" stroke="url(#color-2)" stroke-width="0.5" stroke-linecap="round"/><path d="M250.01209,290.24538c0,-0.74832 0.72089,-1.82442 1.26773,-2.8355c0.47878,-0.88524 0.73938,-1.763 1.39457,-1.763c0.67082,0 0.5272,1.09293 0.95253,2.00823c0.46456,0.99972 1.46773,1.85759 1.46773,2.59027c0,1.40352 -1.13776,2.54128 -2.54128,2.54128c-1.40352,0 -2.54128,-1.13778 -2.54128,-2.54128z" fill="#ffffff" stroke="#4e5a7e" stroke-width="0.5" stroke-linecap="butt"/><path d="M230.85513,143.80458v-25.72224h18.05472v25.72224z" data-paper-data="{&quot;origPos&quot;:[&quot;Point&quot;,479.76498,250.68338]}" fill="#5b99bf" stroke="none" stroke-width="0" stroke-linecap="butt"/><path d="M230.88922,119.78754v-1.7961h18.05472v1.7961z" data-paper-data="{&quot;origPos&quot;:[&quot;Point&quot;,479.83316,226.57544]}" fill="#64a6d0" stroke="none" stroke-width="0" stroke-linecap="butt"/><path d="M230.8659,142.11161v-4.3125h2.25v4.3125z" data-paper-data="{&quot;index&quot;:null,&quot;origPos&quot;:[&quot;Point&quot;,463.9818,268.70716]}" fill="#328abc" stroke="#3186b7" stroke-width="0" stroke-linecap="butt"/><path d="M248.54893,176.92911c0,0 0.03582,2.25171 0.03417,4.60658c-0.00124,1.74959 -0.02317,3.55613 -0.09587,4.53847c-0.11386,1.53833 -0.86223,3.33824 -0.86223,3.33824h-15.47554c0,0 -0.68082,-2.10578 -0.75978,-3.32482c-0.14629,-2.25904 -0.04865,-9.15847 -0.04865,-9.15847z" data-paper-data="{&quot;index&quot;:null,&quot;origPos&quot;:[&quot;Point&quot;,479.89227,355.13795]}" fill="#858796" stroke="none" stroke-width="0" stroke-linecap="butt"/><path d="M230.82672,120.66254v-1.1086h18.17972v1.1086z" data-paper-data="{&quot;origPos&quot;:[&quot;Point&quot;,479.83316,229.01294]}" fill="#7fbbdf" stroke="none" stroke-width="0" stroke-linecap="butt"/><path d="M239.49802,105.27553c0,0 -0.63843,1.91875 -0.85851,2.41444c-1.02212,2.30215 -3.96351,8.92717 -4.60487,10.37172c-0.21781,0.49058 0.11193,46.21085 0.17649,54.61923c0.00395,0.51546 -0.30518,1.27822 -0.56269,2.19682c-0.15436,0.55062 -0.29017,6.74626 -0.32887,8.98399c-0.00158,0.09154 0.08898,1.24892 0.40995,2.86723c0.16166,0.81505 0.63054,1.69727 0.67249,2.71973c0.20541,5.00661 0.0311,11.75693 0.13263,14.1664c0.02012,0.4775 -0.72024,13.27421 -1.40118,16.59313c-0.02304,0.11228 -1.18084,2.38524 -1.37637,2.82824c-0.20968,0.47506 -1.59321,5.53426 -1.71029,5.67593c-0.13607,0.16464 -3.75417,19.68534 -6.62571,38.39857c-2.65373,17.29385 -4.58287,33.89808 -4.58287,33.89808" data-paper-data="{&quot;origPos&quot;:[&quot;Point&quot;,458.33624,395.08103]}" fill="none" stroke-opacity="0.16078" stroke="#ffffff" stroke-width="2" stroke-linecap="round"/><path d="M235.5534,142.11161v-4.3125h7.6875v4.3125z" data-paper-data="{&quot;origPos&quot;:[&quot;Point&quot;,478.7943,268.70716]}" fill="#328abc" stroke="#3186b7" stroke-width="0" stroke-linecap="butt"/><path d="M246.3659,142.11161v-4.3125h2.5v4.3125z" data-paper-data="{&quot;origPos&quot;:[&quot;Point&quot;,495.2318,268.70716]}" fill="#328abc" stroke="#3186b7" stroke-width="0" stroke-linecap="butt"/><path d="M232.20446,145.00408l-1.38333,-1.23333h18.18333l-1.4,1.21667z" data-paper-data="{&quot;origPos&quot;:[&quot;Point&quot;,479.82559,277.57127]}" fill="#656d83" stroke="none" stroke-width="0" stroke-linecap="butt"/><path d="M224.90445,160.97841c0,0 -0.04966,-0.98323 0.6097,-2.23508c0.64234,-1.21954 1.98474,-2.69741 2.67579,-3.51636c0.69171,-0.81972 1.8966,-2.12736 2.98688,-2.9358c1.00009,-0.74157 1.91959,-1.0208 1.91959,-1.0208l-0.03517,5.67839c0,0 -2.48219,1.14525 -3.62233,1.59668c-0.94514,0.37423 -2.56197,1.57719 -3.56524,2.20922c-0.57417,0.36171 -0.96922,0.22376 -0.96922,0.22376z" data-paper-data="{&quot;origPos&quot;:[&quot;Point&quot;,458.00001,301.0711]}" fill="#5b5d67" stroke="none" stroke-width="0" stroke-linecap="butt"/><path d="M254.12634,160.62133c-1.00326,-0.63202 -2.62009,-1.83498 -3.56524,-2.20922c-1.14014,-0.45144 -3.62233,-1.59668 -3.62233,-1.59668l-0.03517,-5.6784c0,0 0.9195,0.27924 1.91959,1.0208c1.09027,0.80844 2.29517,2.11609 2.98688,2.93581c0.69105,0.81895 2.03346,2.29682 2.67579,3.51636c0.65936,1.25186 0.6097,2.23508 0.6097,2.23508c0,0 -0.39505,0.13795 -0.96922,-0.22376z" data-paper-data="{&quot;index&quot;:null,&quot;origPos&quot;:[&quot;Point&quot;,502.00001,300.8044]}" fill="#5b5d67" stroke="none" stroke-width="0" stroke-linecap="butt"/></g></g></svg>