<svg version="1.1" xmlns="http://www.w3.org/2000/svg" xmlns:xlink="http://www.w3.org/1999/xlink" width="188.8939" height="321.98423" viewBox="0,0,188.8939,321.98423"><defs><radialGradient cx="306.46036" cy="33.39437" r="23.22615" gradientUnits="userSpaceOnUse" id="color-1"><stop offset="0" stop-color="#d2f7f4" stop-opacity="0"/><stop offset="1" stop-color="#d2f7f4"/></radialGradient><radialGradient cx="247.31721" cy="202.68337" r="19.25827" gradientUnits="userSpaceOnUse" id="color-2"><stop offset="0" stop-color="#d2f7f4" stop-opacity="0"/><stop offset="1" stop-color="#d2f7f4"/></radialGradient><radialGradient cx="160.726" cy="310.10692" r="19.9334" gradientUnits="userSpaceOnUse" id="color-3"><stop offset="0" stop-color="#d2f7f4" stop-opacity="0"/><stop offset="1" stop-color="#d2f7f4"/></radialGradient><radialGradient cx="176.94593" cy="96.688" r="19.9334" gradientUnits="userSpaceOnUse" id="color-4"><stop offset="0" stop-color="#d2f7f4" stop-opacity="0"/><stop offset="1" stop-color="#d2f7f4"/></radialGradient></defs><g transform="translate(-140.79261,-5.08768)"><g data-paper-data="{&quot;isPaintingLayer&quot;:true}" fill-rule="nonzero" stroke="#ffffff" stroke-width="0" stroke-linecap="butt" stroke-linejoin="miter" stroke-miterlimit="10" stroke-dasharray="" stroke-dashoffset="0" style="mix-blend-mode: normal"><path d="M306.46037,61.70106c-12.82744,0 -23.22614,-12.67333 -23.22614,-28.30669c0,-15.63335 10.3987,-28.30669 23.22614,-28.30669c12.82744,0 23.22614,12.67333 23.22614,28.30669c0,15.63335 -10.3987,28.30669 -23.22614,28.30669z" data-paper-data="{&quot;index&quot;:null}" fill="url(#color-1)"/><path d="M247.31721,217.81907c-10.63604,0 -19.25827,-6.77647 -19.25827,-15.1357c0,-8.3592 8.62221,-15.1357 19.25827,-15.1357c10.63605,0 19.25827,6.77647 19.25827,15.1357c0,8.35921 -8.62222,15.1357 -19.25827,15.1357z" data-paper-data="{&quot;index&quot;:null}" fill="url(#color-2)"/><path d="M160.726,327.07192c-11.00891,0 -19.93339,-7.59548 -19.93339,-16.965c0,-9.36951 8.92448,-16.965 19.93339,-16.965c11.00891,0 19.9334,7.59548 19.9334,16.965c0,9.36951 -8.92449,16.965 -19.9334,16.965z" data-paper-data="{&quot;index&quot;:null}" fill="url(#color-3)"/><path d="M196.87933,96.688c0,8.61378 -8.92449,15.59661 -19.9334,15.59661c-11.00891,0 -19.93339,-6.98284 -19.93339,-15.59661c0,-8.61378 8.92448,-15.59661 19.93339,-15.59661c11.00891,0 19.9334,6.98284 19.9334,15.59661z" data-paper-data="{&quot;index&quot;:null}" fill="url(#color-4)"/></g></g></svg>