<svg version="1.1" xmlns="http://www.w3.org/2000/svg" xmlns:xlink="http://www.w3.org/1999/xlink" width="6.04044" height="6.03543" viewBox="0,0,6.04044,6.03543"><g transform="translate(-236.97977,-301.41086)"><g data-paper-data="{&quot;isPaintingLayer&quot;:true}" fill="#ecd850" fill-rule="nonzero" stroke="none" stroke-width="0" stroke-linecap="butt" stroke-linejoin="miter" stroke-miterlimit="10" stroke-dasharray="" stroke-dashoffset="0" style="mix-blend-mode: normal"><path d="M236.9798,306.3897c0,-1.24579 0,-3.23043 0,-3.93015c0,-0.23696 0.09215,-0.54992 0.30589,-0.74906c0.22515,-0.20977 0.57886,-0.29963 0.84362,-0.29963c0.68621,0 2.51979,0 3.73654,0c0.32424,0 0.68212,0.08058 0.88537,0.27958c0.21734,0.21282 0.26899,0.55273 0.26899,0.80781c0,0.68928 0,2.59674 0,3.83336c0,0.65352 -0.43636,1.11754 -1.05726,1.11467c-1.24502,-0.00574 -3.23203,-0.01435 -3.93046,-0.01435c-0.48089,0 -1.05272,-0.41898 -1.05272,-1.04223z"/></g></g></svg>