<svg version="1.1" xmlns="http://www.w3.org/2000/svg" xmlns:xlink="http://www.w3.org/1999/xlink" width="169.3079" height="51.96981" viewBox="0,0,169.3079,51.96981"><g transform="translate(-157.78213,-204.36085)"><g data-paper-data="{&quot;isPaintingLayer&quot;:true}" fill-rule="nonzero" stroke-linecap="butt" stroke-linejoin="miter" stroke-miterlimit="10" stroke-dasharray="" stroke-dashoffset="0" style="mix-blend-mode: normal"><g><g fill="#ef3eff" stroke="none" stroke-width="0"><path d="M175.81213,220.22189c0,-4.10794 3.33014,-7.43809 7.43809,-7.43809c4.10794,0 7.43809,3.33014 7.43809,7.43809c0,4.10794 -3.33014,7.43809 -7.43809,7.43809c-4.10794,0 -7.43809,-3.33014 -7.43809,-7.43809z"/><path d="M289.28916,220.22189c0,-4.10794 3.33014,-7.43809 7.43809,-7.43809c4.10794,0 7.43809,3.33014 7.43809,7.43809c0,4.10794 -3.33014,7.43809 -7.43809,7.43809c-4.10794,0 -7.43809,-3.33014 -7.43809,-7.43809z"/><path d="M289.3117,235.88505c0,-4.10794 3.33014,-7.43809 7.43809,-7.43809c4.10794,0 7.43809,3.33014 7.43809,7.43809c0,4.10794 -3.33014,7.43809 -7.43809,7.43809c-4.10794,0 -7.43809,-3.33014 -7.43809,-7.43809z"/><path d="M175.81213,235.90758c0,-4.10794 3.33014,-7.43809 7.43809,-7.43809c4.10794,0 7.43809,3.33014 7.43809,7.43809c0,4.10794 -3.33014,7.43809 -7.43809,7.43809c-4.10794,0 -7.43809,-3.33014 -7.43809,-7.43809z"/><path d="M183.85878,243.32312v-30.51679h113.51672v30.51679z"/><path d="M175.81213,235.21902v-14.47046h128.35322v14.47046z"/></g><g fill="#591c71" stroke="none" stroke-width="0"><path d="M175.81213,223.97189c0,-4.10794 3.33014,-7.43809 7.43809,-7.43809c4.10794,0 7.43809,3.33014 7.43809,7.43809c0,4.10794 -3.33014,7.43809 -7.43809,7.43809c-4.10794,0 -7.43809,-3.33014 -7.43809,-7.43809z"/><path d="M289.28917,223.97189c0,-4.10794 3.33014,-7.43809 7.43809,-7.43809c4.10794,0 7.43809,3.33014 7.43809,7.43809c0,4.10794 -3.33014,7.43809 -7.43809,7.43809c-4.10794,0 -7.43809,-3.33014 -7.43809,-7.43809z"/><path d="M289.31172,239.63505c0,-4.10794 3.33014,-7.43809 7.43809,-7.43809c4.10794,0 7.43809,3.33014 7.43809,7.43809c0,4.10794 -3.33014,7.43809 -7.43809,7.43809c-4.10794,0 -7.43809,-3.33014 -7.43809,-7.43809z"/><path d="M175.81213,239.65758c0,-4.10794 3.33014,-7.43809 7.43809,-7.43809c4.10794,0 7.43809,3.33014 7.43809,7.43809c0,4.10794 -3.33014,7.43809 -7.43809,7.43809c-4.10794,0 -7.43809,-3.33014 -7.43809,-7.43809z"/><path d="M183.85878,247.07312v-30.51679h113.51673v30.51679z"/><path d="M175.81213,238.96902v-14.47046h128.35322v14.47046z"/></g><g fill="#bf3df1" stroke="none" stroke-width="0"><path d="M175.81213,222.72189c0,-4.10794 3.33014,-7.43809 7.43809,-7.43809c4.10794,0 7.43809,3.33014 7.43809,7.43809c0,4.10794 -3.33014,7.43809 -7.43809,7.43809c-4.10794,0 -7.43809,-3.33014 -7.43809,-7.43809z"/><path d="M289.28916,222.72189c0,-4.10794 3.33014,-7.43809 7.43809,-7.43809c4.10794,0 7.43809,3.33014 7.43809,7.43809c0,4.10794 -3.33014,7.43809 -7.43809,7.43809c-4.10794,0 -7.43809,-3.33014 -7.43809,-7.43809z"/><path d="M289.3117,238.38505c0,-4.10794 3.33014,-7.43809 7.43809,-7.43809c4.10794,0 7.43809,3.33014 7.43809,7.43809c0,4.10794 -3.33014,7.43809 -7.43809,7.43809c-4.10794,0 -7.43809,-3.33014 -7.43809,-7.43809z"/><path d="M175.81213,238.40758c0,-4.10794 3.33014,-7.43809 7.43809,-7.43809c4.10794,0 7.43809,3.33014 7.43809,7.43809c0,4.10794 -3.33014,7.43809 -7.43809,7.43809c-4.10794,0 -7.43809,-3.33014 -7.43809,-7.43809z"/><path d="M183.85878,245.82312v-30.51679h113.51672v30.51679z"/><path d="M175.81213,237.71902v-14.47046h128.35322v14.47046z"/></g><text transform="translate(219.06136,236.82757) scale(0.38468,0.43857)" font-size="40" xml:space="preserve" fill="#fffcff" fill-rule="nonzero" stroke="#fffcff" stroke-width="2" stroke-linecap="butt" stroke-linejoin="miter" stroke-miterlimit="10" stroke-dasharray="" stroke-dashoffset="0" font-family="Sans Serif" font-weight="normal" text-anchor="start" style="mix-blend-mode: normal"><tspan x="0" dy="0">Collect x2</tspan></text><g fill="#6f238d" stroke="none" stroke-width="0.26459"><path d="M184.83407,221.96283h3.17609l2.06017,13.34525h0.05724l2.06016,-13.34525h2.88996l-3.03303,17.20379h-4.17757z"/><path d="M196.59419,221.96283h3.14748v17.20379h-3.14748z"/><path d="M202.08796,221.96283h4.63537c1.56421,0 2.73737,0.36047 3.51947,1.08139c0.7821,0.72091 1.17315,1.77771 1.17315,3.1704v1.69581c0,1.39269 -0.39105,2.4495 -1.17315,3.17042c-0.7821,0.72091 -1.95526,1.08137 -3.51947,1.08137h-1.4879v7.0044h-3.14747zM206.72333,229.70454c0.51504,0 0.89657,-0.12288 1.14455,-0.36865c0.26707,-0.24577 0.40059,-0.66357 0.40059,-1.2534v-2.03989c0,-0.58985 -0.13352,-1.00765 -0.40059,-1.25342c-0.24798,-0.24577 -0.6295,-0.36865 -1.14455,-0.36865h-1.4879v5.28402z"/></g></g><path d="M157.78213,256.33066v-51.96981h169.3079v51.96981z" fill="none" stroke="none" stroke-width="0"/></g></g></svg>