<svg version="1.1" xmlns="http://www.w3.org/2000/svg" xmlns:xlink="http://www.w3.org/1999/xlink" width="314.0422" height="266.67504" viewBox="0,0,314.0422,266.67504"><defs><linearGradient x1="178.72977" y1="234.96428" x2="178.72977" y2="268.7513" gradientUnits="userSpaceOnUse" id="color-1"><stop offset="0" stop-color="#d53500"/><stop offset="1" stop-color="#e51703"/></linearGradient></defs><g transform="translate(-108.34306,-21.15083)"><g data-paper-data="{&quot;isPaintingLayer&quot;:true}" fill-rule="nonzero" stroke-linejoin="miter" stroke-miterlimit="10" stroke-dasharray="" stroke-dashoffset="0" style="mix-blend-mode: normal"><g data-paper-data="{&quot;index&quot;:null}" stroke-width="0.5" stroke-linecap="round"><path d="M183.30519,37.57585l1.42387,-1.30198l39.58371,-6.50994l25.91452,-8.35443l24.20587,5.31645l16.51695,-1.1935l13.95397,5.64195l22.78198,6.40145z" fill="#ffffff" stroke="#ffffff"/><path d="M185.86815,37.57585l38.72938,-4.77395l16.80171,-5.75044l21.92766,5.96744l7.40414,-2.16999l6.8346,2.60397l13.95397,-5.53344l9.68235,5.20795l26.19929,4.44846z" fill="#e9f8ff" stroke="#e9f8ff"/></g><g stroke-width="0.5" stroke-linecap="round"><path d="M109.3052,162.57583l9.733,-7.84844l5.96147,-6.91727l7.05643,1.46328l10.34131,-6.5182l11.07129,10.24289l16.91108,7.98146l0.60832,1.59629z" fill="#ffffff" stroke="#ffffff"/><path d="M109.42685,162.57583l11.19295,-5.454l4.13652,-6.38518l5.96147,6.78425l2.9199,-3.19258l3.16322,2.66048l9.36801,-7.31635l7.17809,7.05029l16.5461,5.85308z" fill="#e9f8ff" stroke="#e9f8ff"/></g><g data-paper-data="{&quot;index&quot;:null}" stroke-width="0.5" stroke-linecap="round"><path d="M266.30519,196.57584l12.36779,-6.40144l7.57528,-5.64195l8.96665,1.1935l13.14078,-5.31645l14.06836,8.35443l21.48904,6.50994l0.77298,1.30199z" fill="#ffffff" stroke="#ffffff"/><path d="M266.4598,196.57586l14.22296,-4.44846l5.25631,-5.20795l7.57528,5.53344l3.71034,-2.60397l4.01953,2.16998l11.90399,-5.96744l9.12124,5.75044l21.02525,4.77396z" fill="#e9f8ff" stroke="#e9f8ff"/></g><g data-paper-data="{&quot;index&quot;:null}" stroke-width="0.5" stroke-linecap="round"><path d="M197.3052,287.57586l21.04628,-6.40145l12.89085,-5.64195l15.25856,1.1935l22.36168,-5.31645l23.94016,8.35443l36.56793,6.50994l1.31539,1.30198z" fill="#ffffff" stroke="#ffffff"/><path d="M197.5683,287.57586l24.20324,-4.44846l8.94468,-5.20795l12.89085,5.53344l6.31389,-2.60397l6.84004,2.16999l20.25705,-5.96744l15.52163,5.75044l35.77869,4.77395z" fill="#e9f8ff" stroke="#e9f8ff"/></g><g><path d="M177.78195,266.84994v4.52038" fill="none" stroke="#5f807b" stroke-width="0.5" stroke-linecap="round"/><path d="M179.53177,263.05866v8.16584" fill="none" stroke="#5f807b" stroke-width="0.5" stroke-linecap="round"/><path d="M164.075,247.72341c0,-6.644 6.56116,-12.75912 14.65477,-12.75912c8.0936,0 14.65477,5.38603 14.65477,12.03003c0,6.644 -5.3902,13.90771 -12.90494,20.92496c-1.34289,1.25398 -2.64273,0.9814 -3.95516,-0.0926c-3.57392,-2.92465 -12.44943,-14.86238 -12.44943,-20.10327z" fill="url(#color-1)" stroke="none" stroke-width="0" stroke-linecap="butt"/><path d="M180.07338,247.98727c0,-3.75462 -6.71031,-6.23168 -7.27005,-8.72082c-0.1222,-0.54345 -1.77635,-2.35712 -0.95577,-2.76029c2.0718,-1.01792 4.44431,-1.61131 6.96553,-1.61131c8.0936,0 14.65477,5.38603 14.65477,12.03003c0,6.644 -4.22366,-5.67364 -11.73839,1.34361c-1.34289,1.25398 7.18961,-0.51845 5.87718,-1.59245c-3.57392,-2.92465 -7.53326,6.55212 -7.53326,1.31123z" fill="#fb3e00" stroke="none" stroke-width="0" stroke-linecap="butt"/><path d="M177.49031,272.97432v-1.89564h2.3331v1.89564z" fill="#554017" stroke="none" stroke-width="0" stroke-linecap="butt"/><path d="M192.34297,251.97645c0,0 -15.00567,-1.61119 -18.35231,-4.95783c-2.15703,-2.15703 -2.67583,-7.46444 -2.57319,-9.76755c0.01435,-0.32197 0.16881,-0.40676 0.34905,-0.49257c0.2706,-0.12883 0.59931,-0.1555 0.59931,-0.1555c0,0 2.65301,5.96422 5.75033,7.09052c3.73374,1.35772 14.6851,0.40872 14.6851,0.40872c0,0 0.67413,1.79653 0.63074,2.96797c-0.05219,1.40913 -1.08903,4.90623 -1.08903,4.90623z" fill="#f45600" stroke="#f45702" stroke-width="0.5" stroke-linecap="round"/></g><g stroke-width="0.5" stroke-linecap="round"><path d="M360.33955,110.99429l9.733,-7.84844l5.96147,-6.91727l7.05643,1.46328l10.34131,-6.5182l11.07129,10.24289l16.91108,7.98146l0.60832,1.59629z" fill="#ffffff" stroke="#ffffff"/><path d="M360.4612,110.99429l11.19295,-5.454l4.13652,-6.38518l5.96147,6.78425l2.9199,-3.19258l3.16322,2.66048l9.36801,-7.31635l7.17809,7.05029l16.5461,5.85308z" fill="#e9f8ff" stroke="#e9f8ff"/></g></g></g></svg>