<svg version="1.1" xmlns="http://www.w3.org/2000/svg" xmlns:xlink="http://www.w3.org/1999/xlink" width="78" height="247.82453" viewBox="0,0,78,247.82453"><defs><linearGradient x1="227.33919" y1="289.20627" x2="227.33919" y2="293.20991" gradientUnits="userSpaceOnUse" id="color-1"><stop offset="0" stop-color="#fa0000"/><stop offset="1" stop-color="#cd0000"/></linearGradient><linearGradient x1="227.2742" y1="285.60302" x2="227.2742" y2="289.94028" gradientUnits="userSpaceOnUse" id="color-2"><stop offset="0" stop-color="#ff0000"/><stop offset="1" stop-color="#ef0000"/></linearGradient></defs><g transform="translate(-201,-75.73598)"><g data-paper-data="{&quot;isPaintingLayer&quot;:true}" fill-rule="nonzero" stroke-linejoin="miter" stroke-miterlimit="10" stroke-dasharray="" stroke-dashoffset="0" style="mix-blend-mode: normal"><path d="M232.40909,308.77549c0,0 0.01843,-3.85126 1.12966,-6.83759c0.70364,-1.89097 2.39004,-3.43514 3.05216,-3.43514c1.28515,0 3.71513,0 5.90909,0c0.97376,0 2.71921,1.66904 3.47926,3.66161c1.12555,2.9508 1.0662,6.61112 1.0662,6.61112z" fill="#2c3132" stroke="none" stroke-width="0" stroke-linecap="butt"/><path d="M233.60415,299.81537l-0.30216,-1.90627l12.9928,-0.07331l-0.22662,1.97958z" fill="#4d1c00" stroke="none" stroke-width="0" stroke-linecap="butt"/><path d="M231.17237,205.99011l-0.64295,-21.14515l18.86593,-0.25476c0,0 0.66748,0.29564 0.65137,0.67884c-0.08905,2.11713 -0.87159,20.72108 -0.87159,20.72108z" fill="#ff6302" stroke="none" stroke-width="0" stroke-linecap="butt"/><path d="M231.42927,173.63546v-53.49981h17.57851v53.49981z" fill="#ff6302" stroke="none" stroke-width="0" stroke-linecap="butt"/><path d="M231.44461,124.59398v-2.0381h17.53246v2.0381z" fill="#ff9c02" stroke="#000000" stroke-width="0" stroke-linecap="butt"/><path d="M231.41395,164.71881v-15.54042h17.58503v15.54042z" fill="#ffb601" stroke="none" stroke-width="0" stroke-linecap="butt"/><path d="M237.05092,108.41666c0,0 1.20554,-3.16097 1.80166,-4.52354c0.52284,-1.19508 1.58416,-3.21549 1.58416,-3.21549c0,0 0.89331,2.04608 1.33271,3.21783c0.5157,1.37522 1.56942,4.5212 1.56942,4.5212z" fill="#cd2d04" stroke="#cd2d04" stroke-width="0" stroke-linecap="round"/><path d="M243.08694,107.68775c0,0 1.36923,2.62001 2.15738,4.27657c1.09306,2.29741 3.79077,8.22538 3.79077,8.22538l-17.63179,-0.01868c0,0 2.62005,-5.92002 3.71851,-8.21404c0.79192,-1.65385 2.25895,-4.26925 2.25895,-4.26925z" fill="#ff3600" stroke="#ff3600" stroke-width="0" stroke-linecap="round"/><g data-paper-data="{&quot;index&quot;:null}" stroke-linecap="round"><path d="M251.3488,256.0797c0,0 6.11768,13.95193 8.74011,21.95842c2.98548,9.11498 7.47455,30.28879 7.47455,30.28879" fill="none" stroke="#c34e00" stroke-width="1"/><path d="M251.64907,257.28079c0,0 7.60516,18.12682 10.56742,27.96755c1.17986,3.91954 3.01309,9.66056 4.24647,15.13256c0.47921,2.12604 0.90543,4.21147 1.27379,6.13368c1.0484,5.47075 1.62831,9.6194 1.62831,9.6194h-1.35122c0,0 -3.9575,-7.82897 -6.32371,-10.98393c-2.28516,-3.04689 -7.6389,-7.6329 -7.6389,-7.6329c0,0 -0.23444,-2.4368 -0.44459,-3.6043c-0.23702,-1.31675 -0.90663,-3.90248 -0.90663,-3.90248z" fill="#8d3701" stroke="#8e3802" stroke-width="0.5"/></g><g stroke-linecap="round"><path d="M212.41275,308.44103c0,0 4.48906,-21.17381 7.47455,-30.28879c2.62243,-8.00649 8.74011,-21.95842 8.74011,-21.95842" fill="none" stroke="#c34e00" stroke-width="1"/><path d="M227.27618,290.12448c0,0 -0.66962,2.58572 -0.90663,3.90248c-0.21015,1.1675 -0.44459,3.6043 -0.44459,3.6043c0,0 -5.35374,4.58601 -7.6389,7.6329c-2.36621,3.15495 -6.32371,10.98393 -6.32371,10.98393h-1.35122c0,0 0.57991,-4.14866 1.62831,-9.6194c0.36837,-1.92222 0.79458,-4.00764 1.27379,-6.13368c1.23339,-5.472 3.06661,-11.21301 4.24647,-15.13256c2.96226,-9.84073 10.56742,-27.96755 10.56742,-27.96755z" fill="#8d3701" stroke="#8e3802" stroke-width="0.5"/></g><path d="M231.42927,145.22961v-4.20356h2.03809v4.20356z" fill="#feb501" stroke="none" stroke-width="0" stroke-linecap="butt"/><path d="M236.41565,145.24817v-4.20356h2.80237v4.20356z" fill="#feb501" stroke="none" stroke-width="0" stroke-linecap="butt"/><path d="M241.29665,145.2667v-4.20356h2.80236v4.20356z" fill="#feb501" stroke="none" stroke-width="0" stroke-linecap="butt"/><path d="M246.83587,145.28526v-4.20356h2.16546v4.20356z" fill="#feb501" stroke="none" stroke-width="0" stroke-linecap="butt"/><path d="M230.54327,185.86398c0,0 -0.11064,-6.89943 0.05513,-9.15847c0.08947,-1.21904 0.86094,-3.32482 0.86094,-3.32482h17.53607c0,0 0.84801,1.79991 0.97703,3.33824c0.08238,0.98234 0.10723,2.78888 0.10863,4.53847c0.00187,2.35487 -0.03872,4.60658 -0.03872,4.60658z" fill="#ff9b01" stroke="none" stroke-width="0" stroke-linecap="butt"/><path d="M227.79756,222.53285l3.39793,-16.68685h17.93607l2.92858,16.68685c0,0 -6.46345,0 -10.11791,0c-4.3209,0 -14.14468,0 -14.14468,0z" fill="#ff7f02" stroke="none" stroke-width="0" stroke-linecap="butt"/><path d="M226.96618,226.86379c0,0 0.03469,-2.20323 0.19825,-3.06782c0.11978,-0.63315 0.69341,-1.64526 0.69341,-1.64526h24.17954c0,0 0.67526,1.3017 0.81802,2.05633c0.15365,0.81216 0.22377,2.65675 0.22377,2.65675z" fill="#e25904" stroke="none" stroke-width="0" stroke-linecap="butt"/><path d="M226.94342,239.60184v-12.86544h26.13576l-0.04449,12.86544z" fill="#c64e01" stroke="none" stroke-width="0" stroke-linecap="butt"/><path d="M229.20728,298.14089l-0.50952,-3.3119l21.90944,-0.12738l-0.38214,3.43927z" fill="#692700" stroke="none" stroke-width="0" stroke-linecap="butt"/><path d="M226.96735,295.90399c0,0 -0.38331,-0.73171 -0.38331,-1.78332c0,-0.63534 0.38331,-1.38743 0.38331,-2.16547c0,-7.53126 0,-52.48076 0,-52.48076h26.0653c0,0 0,45.81766 0,52.99029c0,0.64104 0.38331,1.25559 0.38331,1.78332c0,0.9766 -0.38331,1.65595 -0.38331,1.65595z" fill="#a94202" stroke="none" stroke-width="0" stroke-linecap="butt"/><path d="M235.06221,223.18448c0,0 3.38124,-1.46846 4.99829,-1.50192c1.60803,-0.03327 4.8773,1.63537 4.8773,1.63537" fill="none" stroke="#94908d" stroke-width="1" stroke-linecap="round"/><path d="M230.22915,284.32237c0,0 -0.49577,-59.61616 -0.23395,-59.93295c0.11708,-0.14167 0.00061,-0.63469 0.21029,-1.10975c0.19553,-0.443 0.72098,-0.87037 0.74402,-0.98265c0.68094,-3.31892 3.2713,-15.9823 3.25118,-16.4598c-0.16344,-3.87857 -0.82134,-19.52329 -0.81506,-19.88669c0.0387,-2.23773 0.17451,-9.38337 0.32887,-9.93399c0.25751,-0.9186 0.56664,-2.13136 0.56269,-2.64682c-0.06456,-8.40838 -0.3943,-52.72865 -0.17649,-53.21923c0.64136,-1.44455 3.58275,-8.06957 4.60487,-10.37172c0.22008,-0.49569 0.85851,-2.41444 0.85851,-2.41444" fill="none" stroke-opacity="0.16078" stroke="#ffffff" stroke-width="2" stroke-linecap="round"/><path d="M248.5432,279.13048c0,0 1.16407,0.78475 1.97228,2.90594c0.51591,1.35402 0.61006,3.72705 1.06426,5.2446c0.6864,2.29333 0.77961,4.46158 1.03941,5.56241c0.22028,0.93335 0.04442,2.2593 -0.06857,2.82272c-0.05738,0.28612 -6.68937,0.24067 -8.74505,0.21969c-0.16509,-0.00168 -0.94792,-0.30539 -1.55114,-1.0969c-0.77547,-1.01755 -1.18458,-2.57996 -1.18458,-2.57996z" data-paper-data="{&quot;index&quot;:null}" fill="#983b02" stroke="#90705e" stroke-width="0.5" stroke-linecap="round"/><path d="M238.83503,292.07553c0,0 -0.40911,1.56241 -1.18458,2.57996c-0.60322,0.79152 -1.38605,1.09522 -1.55114,1.0969c-2.05568,0.02098 -8.68768,0.06643 -8.74505,-0.21969c-0.11299,-0.56342 -0.28885,-1.88937 -0.06857,-2.82272c0.25979,-1.10083 0.35301,-3.26908 1.03941,-5.56241c0.4542,-1.51755 0.54834,-3.89058 1.06426,-5.2446c0.80821,-2.12119 1.97228,-2.90594 1.97228,-2.90594z" fill="#983b02" stroke="#90705e" stroke-width="0.5" stroke-linecap="round"/><path d="M226.44786,290.07373c0,0 -0.10049,-2.45054 0.20856,-3.7298c0.13736,-0.56858 0.54343,-0.60745 0.65889,-0.60745c0.09898,0 0.44041,0.14018 0.5898,0.68411c0.35006,1.2746 0.34438,3.65315 0.34438,3.65315" fill="none" stroke="#90705e" stroke-width="1" stroke-linecap="round"/><path d="M225.33738,291.20808c0,-1.10556 0.89624,-2.00181 2.00181,-2.00181c1.10556,0 2.00181,0.89624 2.00181,2.00181c0,1.10556 -0.89624,2.00181 -2.00181,2.00181c-1.10556,0 -2.00181,-0.89624 -2.00181,-2.00181z" fill="url(#color-1)" stroke="#90705e" stroke-width="0.5" stroke-linecap="butt"/><path d="M226.38119,289.94028c0,0 -0.10049,-2.45054 0.20856,-3.7298c0.13736,-0.56858 0.54343,-0.60745 0.65889,-0.60745c0.09898,0 0.44041,0.14018 0.5898,0.68411c0.35006,1.2746 0.34438,3.65315 0.34438,3.65315" fill="none" stroke="url(#color-2)" stroke-width="0.5" stroke-linecap="round"/><path d="M249.92201,290.33497c0,-0.74832 0.72089,-1.82442 1.26773,-2.8355c0.47878,-0.88524 0.73938,-1.763 1.39457,-1.763c0.67082,0 0.5272,1.09293 0.95253,2.00823c0.46456,0.99972 1.46773,1.85759 1.46773,2.59027c0,1.40352 -1.13776,2.54128 -2.54128,2.54128c-1.40352,0 -2.54128,-1.13778 -2.54128,-2.54128z" fill="#ffffff" stroke="#90705e" stroke-width="0.5" stroke-linecap="butt"/><path d="M201,323.56051v-247.82453h78v247.82453z" fill="none" stroke="none" stroke-width="NaN" stroke-linecap="butt"/></g></g></svg>