<svg version="1.1" xmlns="http://www.w3.org/2000/svg" xmlns:xlink="http://www.w3.org/1999/xlink" width="211" height="336.43021" viewBox="0,0,211,336.43021"><defs><linearGradient x1="240" y1="122.19809" x2="240" y2="237.80191" gradientUnits="userSpaceOnUse" id="color-1"><stop offset="0" stop-color="#01ff00"/><stop offset="1" stop-color="#00a900"/></linearGradient><linearGradient x1="239.69004" y1="132.54944" x2="239.69004" y2="221.32065" gradientUnits="userSpaceOnUse" id="color-2"><stop offset="0" stop-color="#cdffb9"/><stop offset="1" stop-color="#02c205"/></linearGradient><linearGradient x1="240.30996" y1="138.67932" x2="240.30996" y2="227.45056" gradientUnits="userSpaceOnUse" id="color-3"><stop offset="0" stop-color="#02c205"/><stop offset="1" stop-color="#06940f"/></linearGradient><linearGradient x1="239.98839" y1="136.21498" x2="239.98839" y2="223.14956" gradientUnits="userSpaceOnUse" id="color-4"><stop offset="0" stop-color="#00a900"/><stop offset="1" stop-color="#01ff00"/></linearGradient><linearGradient x1="240.63427" y1="161.56996" x2="240.63427" y2="196.24087" gradientUnits="userSpaceOnUse" id="color-5"><stop offset="0" stop-color="#00bf00"/><stop offset="1" stop-color="#01e300"/></linearGradient><linearGradient x1="236.95617" y1="172.10589" x2="236.95617" y2="196.23323" gradientUnits="userSpaceOnUse" id="color-6"><stop offset="0" stop-color="#03c603"/><stop offset="1" stop-color="#01e500"/></linearGradient></defs><g transform="translate(-134.5,50.93017)"><g data-paper-data="{&quot;isPaintingLayer&quot;:true}" fill-rule="nonzero" stroke-linejoin="miter" stroke-miterlimit="10" stroke-dasharray="" stroke-dashoffset="0" style="mix-blend-mode: normal"><path d="M170.05441,180c0,-38.62989 31.3157,-69.94559 69.94559,-69.94559c38.62989,0 69.94559,31.3157 69.94559,69.94559c0,38.62989 -31.3157,69.94559 -69.94559,69.94559c-38.62989,0 -69.94559,-31.3157 -69.94559,-69.94559z" fill="#adb2b9" stroke="none" stroke-width="0" stroke-linecap="butt"/><path d="M182.19809,180c0,-31.92311 25.87881,-57.80191 57.80191,-57.80191c31.92311,0 57.80191,25.87881 57.80191,57.80191c0,31.92311 -25.87881,57.80191 -57.80191,57.80191c-31.92311,0 -57.80191,-25.87881 -57.80191,-57.80191z" fill="url(#color-1)" stroke="none" stroke-width="0" stroke-linecap="butt"/><path d="M195.30443,176.93505c0,-24.51349 19.87212,-44.38561 44.38561,-44.38561c24.51349,0 44.38561,19.87212 44.38561,44.38561c0,24.51349 -19.87212,44.38561 -44.38561,44.38561c-24.51349,0 -44.38561,-19.87212 -44.38561,-44.38561z" fill="url(#color-2)" stroke="none" stroke-width="0" stroke-linecap="butt"/><path d="M195.92437,183.06492c0,-24.51349 19.87214,-44.38561 44.38561,-44.38561c24.51349,0 44.38557,19.87212 44.38557,44.38561c0,24.51349 -19.87208,44.38561 -44.38557,44.38561c-24.51349,0 -44.38561,-19.87212 -44.38561,-44.38561z" data-paper-data="{&quot;index&quot;:null}" fill="url(#color-3)" stroke="none" stroke-width="0" stroke-linecap="butt"/><path d="M196.52111,179.68228c0,-24.00632 19.46096,-43.46728 43.46728,-43.46728c24.00632,0 43.46728,19.46095 43.46728,43.46728c0,24.00632 -19.46096,43.46728 -43.46728,43.46728c-24.00632,0 -43.46728,-19.46096 -43.46728,-43.46728z" fill="url(#color-4)" stroke="none" stroke-width="0" stroke-linecap="butt"/><g><path d="M270.18262,197.0129c-5.34987,5.67493 -18.45821,4.22354 -37.91324,-5.98301c-6.70571,-3.51797 -11.57186,-8.71482 -16.3071,-12.79136c-9.00293,-7.75057 -9.18288,-13.13459 -5.677,-16.85349c5.34987,-5.67493 19.56932,-2.44576 39.02435,7.76079c5.26185,2.76048 7.19173,5.77034 11.15423,8.64291c10.68834,7.74839 13.62169,15.08408 9.71876,19.22415z" fill="#054505" stroke="#054505" stroke-width="0" stroke-linecap="butt"/><path d="M262.60304,191.61089c-1.91938,3.38853 -4.94759,4.88986 -9.61169,4.59335c-4.63373,-0.29458 -10.88787,-2.36366 -17.51876,-6.11962c-13.30527,-7.53655 -20.76731,-18.23324 -16.94106,-24.98822c3.82625,-6.75498 15.26964,-3.01029 28.57491,4.52626c13.30527,7.53655 19.32286,15.23324 15.49661,21.98822z" fill="none" stroke="url(#color-5)" stroke-width="4" stroke-linecap="butt"/><path d="M218.19228,180.01841c0,-11.80508 9.56991,-21.375 21.375,-21.375c11.80509,0 21.375,9.56992 21.375,21.375c0,11.80508 -9.56991,21.375 -21.375,21.375c-11.80509,0 -21.375,-9.56992 -21.375,-21.375z" fill="#043a04" stroke="none" stroke-width="0" stroke-linecap="butt"/><path d="M255.90063,196.10589c0,0 -1.99029,0.25065 -3.5179,0.04862c-2.43647,-0.32223 -6.1287,-1.28141 -9.46107,-2.35968c-4.35476,-1.40909 -9.06893,-4.34188 -11.61909,-5.95508c-3.89124,-2.46155 -8.69952,-7.36728 -11.34024,-11.66915c-1.34321,-2.18816 -1.9506,-4.06471 -1.9506,-4.06471" fill="none" stroke="url(#color-6)" stroke-width="4" stroke-linecap="round"/></g><path d="M134.5,285.5v-211h211v211z" fill="none" stroke="none" stroke-width="0" stroke-linecap="butt"/><path d="M134.5,285.50005v-336.43021h211v336.43021z" fill="none" stroke="none" stroke-width="0" stroke-linecap="butt"/></g></g></svg>