<svg version="1.1" xmlns="http://www.w3.org/2000/svg" xmlns:xlink="http://www.w3.org/1999/xlink" width="32.18964" height="67.93882" viewBox="0,0,32.18964,67.93882"><g transform="translate(-225.5856,-147.00995)"><g data-paper-data="{&quot;isPaintingLayer&quot;:true}" fill-rule="nonzero" stroke-linejoin="miter" stroke-miterlimit="10" stroke-dasharray="" stroke-dashoffset="0" style="mix-blend-mode: normal"><path d="M225.58561,208.32315c0,-13.44895 0,-44.19668 0,-51.64628c0,-3.17904 1.18659,-6.346 3.08653,-6.346c6.68138,0 22.18448,0 25.92809,0c1.59053,0 3.17502,3.16696 3.17502,6.346c0,7.51567 0,38.74459 0,52.00002c0,3.69408 -1.53433,5.99225 -3.08653,5.99225c-3.69771,0 -19.17433,0 -25.92808,0c-1.95175,0 -3.17502,-2.44546 -3.17502,-6.34599z" fill="#272727" stroke="none" stroke-width="0" stroke-linecap="butt"/><path d="M239.55756,211.49902c0,0 0.00483,-1.14699 0.29664,-2.03638c0.18477,-0.56318 0.6276,-1.02306 0.80147,-1.02306c0.33747,0 0.97556,0 1.55168,0c0.2557,0 0.71404,0.49707 0.91362,1.09051c0.29556,0.8788 0.27997,1.96894 0.27997,1.96894z" fill="#2c3132" stroke="none" stroke-width="0" stroke-linecap="butt"/><path d="M238.65427,209.02848l-0.96358,-1.41325h7.6123l-0.93147,1.41325z" fill="#2b1d19" stroke="none" stroke-width="0" stroke-linecap="butt"/><path d="M236.13395,207.64689v-1.13083h10.9999v1.13083z" fill="#4b3c36" stroke="none" stroke-width="0" stroke-linecap="butt"/><path d="M235.57996,210.41114v-2.8937h2.89371z" data-paper-data="{&quot;index&quot;:null}" fill="#261c18" stroke="none" stroke-width="0" stroke-linecap="butt"/><path d="M244.52,207.48698h2.89371v2.89371z" fill="#261c18" stroke="none" stroke-width="0" stroke-linecap="butt"/><path d="M246.95218,212.18669c0,0 -0.0125,-0.87439 0.22456,-1.57927c0.16008,-0.47599 0.52771,-0.87469 0.73281,-0.87469c0.46211,0 0.97391,0 1.24459,0c0.13946,0 0.49465,0.36888 0.64285,0.8206c0.23406,0.71338 0.23794,1.63336 0.23794,1.63336z" data-paper-data="{&quot;index&quot;:null}" fill="#2c3132" stroke="none" stroke-width="0" stroke-linecap="butt"/><path d="M232.9922,212.18669c0,0 0.00388,-0.91998 0.23793,-1.63336c0.1482,-0.45172 0.50339,-0.8206 0.64285,-0.8206c0.27068,0 0.78249,0 1.24459,0c0.2051,0 0.57273,0.3987 0.73281,0.87469c0.23706,0.70488 0.22457,1.57927 0.22457,1.57927z" fill="#2c3132" stroke="none" stroke-width="0" stroke-linecap="butt"/><path d="M246.20497,210.59273l0.52854,-2.34542h3.5443l0.43526,2.34542z" data-paper-data="{&quot;index&quot;:null}" fill="#4f4036" stroke="none" stroke-width="0" stroke-linecap="butt"/><path d="M232.28776,210.59273l0.43526,-2.34542h3.5443l0.52854,2.34542z" fill="#4f4036" stroke="none" stroke-width="0" stroke-linecap="butt"/><path d="M234.56706,205.33034v-11.85659h14.80361v11.85659z" fill="#7b5025" stroke="none" stroke-width="0" stroke-linecap="butt"/><path d="M244.62204,193.99468v-8.49837l2.67288,8.49837z" fill="#a86424" stroke="none" stroke-width="0" stroke-linecap="butt"/><path d="M235.38949,196.4893v-0.89095h13.02169v0.89095z" fill="#5d3518" stroke="none" stroke-width="0" stroke-linecap="butt"/><path d="M235.69876,193.92614l2.67287,-8.49837v8.49837z" data-paper-data="{&quot;index&quot;:null}" fill="#a86424" stroke="none" stroke-width="0" stroke-linecap="butt"/><path d="M235.25242,206.70104v-8.08715h12.81608v8.08715z" fill="#643918" stroke="none" stroke-width="0" stroke-linecap="butt"/><path d="M238.78302,206.72008c0,0 0.09226,-6.86716 0.01377,-10.50598c-0.00885,-0.41013 -0.49352,-0.8013 -0.49352,-1.16404c0,-4.21648 0,-13.77162 0,-13.77162h6.38714c0,0 0,9.43328 0,13.63456c0,0.42255 -0.48632,0.88412 -0.49792,1.3698c-0.08754,3.66447 0.01818,10.40682 0.01818,10.40682z" fill="#847261" stroke="none" stroke-width="0" stroke-linecap="butt"/><path d="M238.30327,185.29352v-13.19211h6.38713v13.19212z" fill="#a76421" stroke="none" stroke-width="0" stroke-linecap="butt"/><path d="M238.27342,176.07098l-1.7311,-0.95508h9.90902l-1.85048,0.95508z" fill="#5d3d17" stroke="none" stroke-width="0" stroke-linecap="butt"/><path d="M238.66143,170.37031v-12.35641c0,0 1.89506,-0.29846 2.84115,-0.29846c0.94418,0 2.82967,0.29846 2.82967,0.29846v12.35642z" fill="#42332b" stroke="none" stroke-width="NaN" stroke-linecap="butt"/><path d="M236.54807,175.17559v-7.99884h9.84932v7.99884z" fill="#7d4e27" stroke="none" stroke-width="0" stroke-linecap="butt"/><path d="M239.17455,167.23644v-4.89481h4.1785v4.89481z" fill="#48392f" stroke="none" stroke-width="0" stroke-linecap="butt"/><g stroke="none" stroke-width="0" stroke-linecap="butt"><path d="M237.52182,171.5494v-1.26104h7.67594v1.26104z" fill="#b67f3a"/><g fill="#290900"><path d="M238.01429,170.91704v-0.62661h0.46996v0.62661z"/><path d="M237.54694,171.54626v-0.62661h0.46996v0.62661z"/></g><g fill="#290900"><path d="M238.94637,170.91704v-0.62661h0.46995v0.62661z"/><path d="M238.47902,171.54626v-0.62661h0.46996v0.62661z"/></g><g><path d="M239.87845,170.91704v-0.62661h0.46995v0.62661z" fill="#5b3100"/><path d="M239.4111,171.54626v-0.62661h0.46995v0.62661z" fill="#290900"/></g><g fill="#5b3100"><path d="M240.81053,170.91704v-0.62661h0.46995v0.62661z"/><path d="M240.34318,171.54626v-0.62661h0.46995v0.62661z"/></g><g fill="#5b3100"><path d="M241.74261,170.91704v-0.62661h0.46995v0.62661z"/><path d="M241.27526,171.54626v-0.62661h0.46996v0.62661z"/></g><g fill="#5b3100"><path d="M242.67469,170.91704v-0.62661h0.46995v0.62661z"/><path d="M242.20734,171.54626v-0.62661h0.46996v0.62661z"/></g><g fill="#290900"><path d="M243.60676,170.91704v-0.62661h0.46995v0.62661z"/><path d="M243.13942,171.54626v-0.62661h0.46995v0.62661z"/></g><g fill="#290900"><path d="M244.59352,170.91704v-0.62661h0.52493v0.62661z"/><path d="M244.0715,171.54626v-0.62661h0.52493v0.62661z"/></g></g><path d="M239.29394,168.01245v-1.7311h4.71574v1.7311z" fill="#613c19" stroke="none" stroke-width="0" stroke-linecap="butt"/><path d="M243.04885,164.32034v-10.74472c0,0 0.27491,0.04873 0.43576,0.53127c0.51674,1.55021 3.14581,10.21345 3.14581,10.21345z" fill="#524339" stroke="none" stroke-width="0" stroke-linecap="butt"/><path d="M239.71179,166.57982v-0.47754h3.70095v0.47754z" fill="#6a4b31" stroke="none" stroke-width="0" stroke-linecap="butt"/><path d="M236.36325,164.32034c0,0 2.62908,-8.66324 3.14581,-10.21345c0.16084,-0.48254 0.43576,-0.53127 0.43576,-0.53127v10.74471z" data-paper-data="{&quot;index&quot;:null}" fill="#524339" stroke="none" stroke-width="0" stroke-linecap="butt"/><path d="M236.36899,175.29497v-11.04318h3.58157v11.04318z" fill="#cb8c4e" stroke="none" stroke-width="0" stroke-linecap="butt"/><path d="M243.05236,175.29274v-11.04317h3.58157v11.04317z" fill="#cb8c4e" stroke="none" stroke-width="0" stroke-linecap="butt"/><path d="M236.36899,175.41436v-0.29846h10.26717v0.29846z" fill="#583717" stroke="none" stroke-width="0" stroke-linecap="butt"/><path d="M238.30774,185.68153v-0.47754h6.38206v0.47754z" fill="#624226" stroke="none" stroke-width="0" stroke-linecap="butt"/><path d="M236.59657,166.14882v-1.1651h0.68535v1.1651z" fill="#a26a2f" stroke="none" stroke-width="0" stroke-linecap="butt"/><path d="M245.42238,166.76564v-1.3707h0.64728v1.3707z" fill="#a26a2f" stroke="none" stroke-width="0" stroke-linecap="butt"/><path d="M236.36899,170.35016v-2.49684h3.58157v2.49684z" fill="#847363" stroke="none" stroke-width="0" stroke-linecap="butt"/><path d="M243.0267,170.35016v-2.49684h3.58157v2.49684z" fill="#847363" stroke="none" stroke-width="0" stroke-linecap="butt"/><path d="M243.0267,168.03954v-0.3037h3.58157v0.3037z" fill="#865f3e" stroke="none" stroke-width="0" stroke-linecap="butt"/><path d="M243.0267,170.50681v-0.30371h3.58157v0.30371z" fill="#865f3e" stroke="none" stroke-width="0" stroke-linecap="butt"/><path d="M236.36899,170.50681v-0.30371h3.58157v0.30371z" fill="#865f3e" stroke="none" stroke-width="0" stroke-linecap="butt"/><path d="M236.36899,168.03954v-0.3037h3.58157v0.3037z" fill="#865f3e" stroke="none" stroke-width="0" stroke-linecap="butt"/><path d="M236.87071,169.84973v-1.09656h0.54828v1.09656z" fill="#6b574e" stroke="none" stroke-width="0" stroke-linecap="butt"/><path d="M245.64321,169.43851v-1.02803h0.54828v1.02803z" fill="#6b574e" stroke="none" stroke-width="0" stroke-linecap="butt"/><path d="M237.76167,171.22043v-0.41121h1.1651v0.41121z" fill="#a26a2f" stroke="none" stroke-width="0" stroke-linecap="butt"/><path d="M244.95786,171.35751v-0.34268h0.89095v0.34268z" fill="#a26a2f" stroke="none" stroke-width="0" stroke-linecap="butt"/><path d="M240.70868,178.03969v-0.47974h1.57631v0.47974z" fill="#6d3a03" stroke="none" stroke-width="0" stroke-linecap="butt"/><path d="M240.70868,178.72504v-0.47974h1.57631v0.47974z" fill="#7d4c1c" stroke="none" stroke-width="0" stroke-linecap="butt"/><path d="M240.70868,179.41039v-0.47975h1.57631v0.47975z" fill="#8c5a27" stroke="none" stroke-width="0" stroke-linecap="butt"/><path d="M232.71062,203.04818v-12.11703h3.56383v12.11703z" fill="#cb8c4e" stroke="none" stroke-width="0" stroke-linecap="butt"/><path d="M246.71922,203.04818v-12.11703h3.56383v12.11703z" fill="#cb8c4e" stroke="none" stroke-width="0" stroke-linecap="butt"/><path d="M246.74975,190.98053v-10.74471c0,0 0.27492,0.04872 0.43576,0.53126c0.51674,1.55021 3.14581,10.21345 3.14581,10.21345z" fill="#524339" stroke="none" stroke-width="0" stroke-linecap="butt"/><path d="M232.70003,190.98053c0,0 2.62908,-8.66324 3.14581,-10.21345c0.16084,-0.48254 0.43576,-0.53126 0.43576,-0.53126v10.74471z" data-paper-data="{&quot;index&quot;:null}" fill="#524339" stroke="none" stroke-width="0" stroke-linecap="butt"/><path d="M232.73663,197.07889v-2.49684h3.58157v2.49684z" fill="#847363" stroke="none" stroke-width="0" stroke-linecap="butt"/><path d="M232.73663,197.23554v-0.30371h3.58157v0.30371z" fill="#865f3e" stroke="none" stroke-width="0" stroke-linecap="butt"/><path d="M232.73663,194.76827v-0.30371h3.58157v0.30371z" fill="#865f3e" stroke="none" stroke-width="0" stroke-linecap="butt"/><path d="M233.23834,196.57846v-1.09656h0.54828v1.09656z" fill="#6b574e" stroke="none" stroke-width="0" stroke-linecap="butt"/><g data-paper-data="{&quot;index&quot;:null}" stroke="none" stroke-width="0" stroke-linecap="butt"><path d="M246.70606,197.07889v-2.49684h3.58157v2.49684z" fill="#847363"/><path d="M246.70606,197.23554v-0.30371h3.58157v0.30371z" fill="#865f3e"/><path d="M246.70606,194.76827v-0.30371h3.58157v0.30371z" fill="#865f3e"/><path d="M249.23763,196.57846v-1.09656h0.54828v1.09656z" fill="#6b574e"/></g><path d="M232.72575,208.24315v-6.19558h3.56383v6.19558z" fill="#3a2b23" stroke="none" stroke-width="0" stroke-linecap="butt"/><path d="M246.71607,208.24315v-6.19558h3.56383v6.19558z" fill="#3a2b23" stroke="none" stroke-width="0" stroke-linecap="butt"/><path d="M232.64595,208.57491v-3.26891h3.71864v3.26891z" fill="#2b211a" stroke="none" stroke-width="0" stroke-linecap="butt"/><path d="M246.64119,208.57491v-3.26891h3.71864v3.26891z" fill="#2b211a" stroke="none" stroke-width="0" stroke-linecap="butt"/><path d="M232.89567,192.74049v-0.9595h0.61682v0.9595z" fill="#b77a3f" stroke="none" stroke-width="0" stroke-linecap="butt"/><path d="M249.82386,193.97412v-1.02803h0.41121v1.02803z" fill="#b77a3f" stroke="none" stroke-width="0" stroke-linecap="butt"/><path d="M233.85516,199.86815v-1.09656h0.9595v1.09656z" fill="#b77a3f" stroke="none" stroke-width="0" stroke-linecap="butt"/><path d="M248.7273,199.66254v-0.9595h0.34268v0.9595z" fill="#b77a3f" stroke="none" stroke-width="0" stroke-linecap="butt"/><path d="M239.23974,194.29852l-0.18979,-17.94146c0,0 -0.27617,-0.29459 -1.89368,-2.18048c-0.09822,-0.11451 0,-10.34425 0,-10.34425l1.88243,-7.49319" fill="none" stroke-opacity="0.16078" stroke="#ffffff" stroke-width="0.5" stroke-linecap="round"/><path d="M233.10127,210.21696l0.27414,-1.09656v-18.0933l1.71338,-7.33326" fill="none" stroke-opacity="0.16078" stroke="#ffffff" stroke-width="0.5" stroke-linecap="round"/><path d="M248.02824,183.69384l1.71338,7.33326v18.0933l0.27415,1.09656" data-paper-data="{&quot;index&quot;:null}" fill="none" stroke-opacity="0.16078" stroke="#ffffff" stroke-width="0.5" stroke-linecap="round"/><path d="M228.30153,214.94877v-67.93882h26.68304v67.93882z" fill="none" stroke="none" stroke-width="NaN" stroke-linecap="butt"/><path d="M228.30153,214.94877v-67.93882h26.68304v67.93882z" fill="none" stroke="none" stroke-width="NaN" stroke-linecap="butt"/></g></g></svg>