<svg version="1.1" xmlns="http://www.w3.org/2000/svg" xmlns:xlink="http://www.w3.org/1999/xlink" width="481.08176" height="478.1024" viewBox="0,0,481.08176,478.1024"><defs><linearGradient x1="365.79627" y1="-124.29341" x2="365.79627" y2="353.809" gradientUnits="userSpaceOnUse" id="color-1"><stop offset="0" stop-color="#473d22"/><stop offset="1" stop-color="#4b3b1f"/></linearGradient></defs><g transform="translate(-125.2145,124.2934)"><g data-paper-data="{&quot;isPaintingLayer&quot;:true}" fill-rule="nonzero" stroke="none" stroke-width="0" stroke-linecap="butt" stroke-linejoin="miter" stroke-miterlimit="10" stroke-dasharray="" stroke-dashoffset="0" style="mix-blend-mode: normal"><path d="M125.29627,114.7578c0,-132.02434 107.67552,-239.0512 240.5,-239.0512c132.82448,0 240.5,107.02687 240.5,239.0512c0,132.02434 -107.67552,239.0512 -240.5,239.0512c-132.82448,0 -240.5,-107.02687 -240.5,-239.0512z" fill="url(#color-1)"/><path d="M260.94352,-75.56373c0,0 -26.54468,-7.5044 -18.71277,-10.73912c5.07998,-2.09812 10.97317,-9.26162 12.5732,-8.8787c8.27805,1.98116 3.42152,22.5632 11.80432,17.3404c3.71241,-2.31297 4.37097,-2.05772 8.19957,-1.54867c4.94338,0.65726 14.023,11.92753 12.18991,4.72054c0.04703,-14.01044 4.18885,-2.58973 7.69095,-4.51898c2.73613,-1.5073 7.46861,-1.74676 8.9559,-0.51023c4.4926,3.73508 3.74266,9.36542 10.1147,10.89041c1.11346,0.26648 6.43822,-10.72301 7.57387,-10.45121c1.59242,0.38111 2.91318,8.62217 7.23953,6.37109c2.01952,-1.05079 1.79107,-6.21706 4.33673,-9.34771c3.38455,-4.16234 9.51159,-6.39305 11.32034,-6.78263c6.13423,-1.32125 4.77158,5.78096 9.01533,6.72906c6.19054,1.38302 4.13359,15.44885 11.35508,13.60157c4.11982,-1.05386 8.50506,-4.50457 12.81255,-8.30114c1.85048,-1.631 1.58772,5.80752 5.08193,5.78045c6.38511,-0.04945 10.38158,-19.06861 14.20878,-18.15266c3.51757,0.84185 3.06014,11.24804 6.10224,12.66931c3.50903,1.63942 6.91013,-7.6361 9.96034,-5.85941c4.20009,2.44648 -1.40733,10.87406 1.84305,14.30431c9.65774,10.19217 24.31374,17.13019 24.31374,17.13019l-39.65145,39.75567c0,0 -9.47561,-15.94731 -25.49246,-20.30252c-14.57167,-3.96224 -34.15096,0.52779 -53.29552,-2.07999c-28.29028,-3.85357 -56.22309,-14.32893 -70.46381,-18.20119c-18.2715,-4.96828 -37.0679,-13.87155 -37.0679,-13.87155c0,0 5.72609,-6.07359 12.80201,-11.27857c3.97697,-2.92542 8.4222,-6.9346 11.70649,-7.44719c1.27032,-2.64926 10.72778,-1.02919 11.85569,-2.27131c2.03985,-2.24641 13.02767,0.84979 13.02767,0.84979z" data-paper-data="{&quot;index&quot;:null}" fill="#473d22"/><path d="M267.00005,195.66671c45.1953,0 81.83333,26.93754 81.83333,60.16667c0,33.22912 -36.63803,60.16666 -81.83333,60.16666c-45.1953,0 -81.83334,-26.93753 -81.83334,-60.16666c0,-33.22913 36.63804,-60.16667 81.83334,-60.16667z" fill="none"/><path d="M238.46355,317.53603c0,0 -5.79592,-4.62517 -9.7541,-7.92366c-4.04014,-3.36678 -8.6459,-6.3192 -8.6459,-6.3192l222.21428,-67.42857c0,0 30.75,35.91766 30.75,45.14286c0,6.28692 -49.25,16.10714 -49.25,16.10714c0,0 -4.11752,13.66366 -7.98384,11.78506c-5.86839,-2.85138 -14.11375,-10.87606 -20.95008,-10.549c-6.68625,0.31988 -7.7952,10.03253 -12.7062,12.28468c-7.87543,3.61162 -5.61105,-4.70154 -12.20341,-3.90918c-8.38544,1.00787 0.472,9.44408 -6.07612,8.54706c-8.27395,-1.13344 -9.63003,-15.47824 -10.46136,-16.31772c-3.36426,-3.39724 -3.9409,10.95439 -7.9867,6.75263c-4.67455,-4.85475 -7.56711,-9.5733 -10.33042,-9.6764c-6.44302,-0.2404 0.29254,25.8554 -6.95376,25.18665c-2.93664,-0.27102 -5.6015,-2.94096 -8.01921,-2.9502c-4.07288,-0.01556 -7.44439,2.46546 -10.23234,-0.1622c-8.16826,-5.28104 -14.75467,7.83446 -22.0265,7.86961c-2.54161,0.01229 -8.34246,-9.53979 -11.26185,-9.63664c-6.66801,-0.22122 -10.43241,6.22718 -16.05239,7.69928c-7.85204,2.05676 -10.37011,0.29781 -10.37011,0.29781z" fill="#604c28"/><path d="M235.82325,315.91262c0,0 -2.46797,-1.60838 -5.42291,-3.6406c-2.0254,-1.39294 -4.27959,-2.98498 -6.12463,-4.3947c-2.78719,-2.12957 -9.05867,-6.44474 -13.84131,-10.65058c-9.00566,-7.91958 -17.05999,-16.46979 -17.05999,-16.46979c0,0 38.58312,-8.34552 60.6534,-14.37766c41.63708,-11.38004 180.28235,-49.27386 180.28235,-49.27386l50.3155,37.38899c0,0 -17.56168,7.78797 -28.86501,18.53379c-3.80421,3.61657 3.44565,11.70625 -1.5652,14.39578c-3.63901,1.9532 -8.2357,-7.11259 -12.44147,-5.26964c-3.64612,1.59771 -2.5893,11.96518 -6.84368,13.01197c-4.62887,1.13893 -10.4191,-17.62446 -18.21723,-17.3001c-4.26748,0.1775 -3.59044,7.5921 -5.92785,6.0713c-5.44095,-3.54007 -10.96027,-6.73012 -16.04075,-7.54161c-8.9054,-1.42244 -5.72039,12.50685 -13.21237,14.25066c-5.13592,1.19542 -3.13211,8.20972 -10.68484,7.24907c-2.22701,-0.28326 -9.81452,-2.15275 -14.14615,-6.11219c-3.25799,-2.97805 -3.22648,-8.15176 -5.74249,-9.08313c-5.38997,-1.99525 -6.60787,6.31367 -8.53384,6.78756c-1.37353,0.33796 -8.40097,-10.32722 -9.74767,-9.99587c-7.70678,1.89625 -6.52152,7.47622 -11.82779,11.47c-1.75666,1.32216 -7.54615,1.36001 -10.95896,0.0146c-4.3682,-1.72204 -8.87813,9.92802 -9.60652,-4.06359c1.89294,-7.30603 -8.6529,4.48279 -14.65695,5.42868c-4.65008,0.73258 -5.4419,1.0261 -10.08526,-1.06691c-10.48491,-4.72611 -3.56979,15.54803 -13.58182,18.01149c-1.93518,0.47615 -9.47341,-6.33417 -15.77618,-8.13252c-9.71711,-2.77255 -5.54038,17.65887 -5.54038,17.65887z" fill="#6d572e"/><path d="M204.5834,291.99235c0,0 -5.59613,-5.15116 -9.07765,-8.54249c-2.27748,-2.21848 -6.05991,-6.28803 -9.25911,-9.90335c-3.42525,-3.87077 -6.19657,-7.22083 -6.19657,-7.22083l245.2,-47.26667v29c0,0 -7.38521,-6.27413 -12.32115,-3.64379c-4.68224,2.49515 -5.12661,18.53761 -9.8648,19.62146c-8.64965,1.97859 -14.3104,-7.73762 -19.94821,-4.90965c-9.99535,5.01374 -3.19172,29.32763 -14.30548,30.73052c-9.37702,1.18366 -9.68079,-24.90118 -18.39678,-22.7899c-3.83941,0.93002 -7.82845,3.77375 -11.19827,4.49624c-1.94251,0.41647 -0.80184,-3.52361 -2.5599,-3.15814c-13.91338,2.89233 0.92289,-3.25048 -9.70869,-0.11469c-17.44884,5.14654 0.12554,9.90338 -16.54597,13.47222c-4.88468,1.04565 -10.15759,-2.86246 -15.09211,-6.31126c-0.7429,-0.51922 -3.47812,0.3053 -4.2032,-0.17463c-3.34365,-2.21316 -4.47146,-5.14546 -7.1403,-4.31889c-22.11179,6.84828 0.42514,24.08587 -20.44268,28.478c-12.05147,2.53652 -12.26129,-19.59095 -21.87834,-17.13903c-19.28775,4.91751 -8.82064,16.06933 -16.23319,17.58528c-8.87091,1.8142 -16.02761,-3.69039 -16.02761,-3.69039z" fill="#765e32"/><path d="M214.85138,149.52326c45.18257,1.0726 81.17098,28.87207 80.38237,62.09184c-0.78861,33.21976 -38.05563,59.2802 -83.23819,58.20759c-45.18257,-1.0726 -81.17099,-28.87206 -80.38237,-62.09183c0.78861,-33.21977 38.05564,-59.28021 83.2382,-58.20761z" fill="none"/><path d="M188.08903,275.11225c0,0 -4.25311,-5.50851 -8.13189,-8.90002c-3.9591,-3.46172 -4.98331,-16.60676 -4.98331,-16.60676l214.15195,-55.93585c0,0 29.88892,36.63732 29.66998,45.85993c-0.14921,6.28515 -49.6184,14.93377 -49.6184,14.93377c0,0 -4.44063,13.56209 -8.26128,11.59226c-5.79907,-2.98985 -13.85166,-11.20795 -20.69382,-11.04323c-6.69196,0.16111 -8.0311,9.8447 -12.99417,11.97967c-7.95893,3.4237 -5.49789,-4.83338 -12.1072,-4.1977c-8.407,0.80858 0.24774,9.45262 -6.27725,8.40045c-8.24472,-1.32948 -9.25998,-15.70243 -10.07115,-16.5614c-3.28269,-3.47613 -4.19976,10.85778 -8.14471,6.56118c-4.55802,-4.96432 -7.33778,-9.75019 -10.09786,-9.91884c-6.4355,-0.39324 -0.32116,25.85506 -7.54955,25.01452c-2.92938,-0.34064 -5.53012,-3.07307 -7.94693,-3.13969c-4.07136,-0.11222 -7.50081,2.28809 -10.22561,-0.40499c-8.04063,-5.47341 -14.93645,7.48209 -22.20706,7.34465c-2.54118,-0.04803 -8.1137,-9.73509 -11.02997,-9.9012c-6.66088,-0.37941 -10.57726,5.97784 -16.2306,7.31615c-7.89864,1.86983 -15.05118,-0.5929 -15.05118,-0.5929z" fill="#866b38"/><path d="M177.83248,263.85271c0,0 -8.13145,-10.42981 -10.75712,-14.61751c-0.38227,-0.60969 -0.82401,-1.25974 -1.30182,-1.94267c-1.16863,-1.67035 -2.45301,-3.53742 -3.71072,-5.49177c-1.2562,-1.95201 -2.28656,-4.09059 -3.29238,-5.76414c-1.67242,-2.78268 -2.56682,-4.88508 -2.56682,-4.88508c0,0 21.78902,-5.53686 43.99624,-11.04352c41.89543,-10.38868 181.40097,-44.98141 181.40097,-44.98141l49.41399,38.57258c0,0 -17.74157,7.36899 -29.29674,17.84353c-3.88897,3.52527 3.16686,11.78473 -1.9064,14.35458c-3.68434,1.86629 -8.06458,-7.30604 -12.3129,-5.56342c-3.68301,1.51073 -2.87254,11.90036 -7.15056,12.84589c-4.6546,1.02875 -9.99789,-17.86677 -17.80152,-17.72757c-4.27049,0.07617 -3.76961,7.50475 -6.07027,5.9289c-5.3554,-3.6682 -10.79746,-6.98834 -15.85725,-7.92018c-8.86913,-1.63339 -6.0156,12.36757 -13.54686,13.93309c-5.16285,1.0732 -3.32607,8.13307 -10.85387,6.99345c-2.21966,-0.33603 -9.76066,-2.38507 -13.99711,-6.4462c-3.18639,-3.05453 -3.03211,-8.22604 -5.52531,-9.21685c-5.3411,-2.12261 -6.75585,6.15507 -8.69252,6.58312c-1.38116,0.30527 -8.15351,-10.52369 -9.5077,-10.22439c-7.74961,1.71281 -6.69712,7.31934 -12.09668,11.18606c-1.78755,1.2801 -7.5763,1.18054 -10.95622,-0.24549c-4.3261,-1.82522 -9.11125,9.71452 -9.50737,-4.29043c2.0658,-7.25905 -8.75685,4.27617 -14.78166,5.07931c-4.66616,0.62201 -5.46472,0.89666 -10.0571,-1.30596c-10.36979,-4.97361 -3.93778,15.45893 -14.00545,17.68408c-1.94594,0.43009 -9.32042,-6.55722 -15.57873,-8.50464c-9.64857,-3.00238 -5.58011,18.76667 -5.58011,18.76667c0,0 -3.32528,-3.94496 -4.83511,-5.63454c-1.23427,-1.38121 -3.2649,-3.96549 -3.2649,-3.96549z" fill="#997a40"/><g data-paper-data="{&quot;index&quot;:null}"><path d="M373.83347,222.51322c0,0 -8.18752,3.78228 -16.24344,2.78886c-5.7659,-0.71103 -10.35505,-6.60106 -16.93429,-5.49435c-2.88053,0.48453 -7.35847,10.72368 -9.87911,11.04977c-7.21182,0.93298 -15.48519,-11.18924 -22.87792,-4.86806c-2.41343,2.97534 -6.08515,0.9651 -10.11973,1.52259c-2.39497,0.33094 -4.68078,3.33179 -7.55522,3.99124c-7.09283,1.62722 -3.89033,-25.13287 -10.24403,-24.03709c-2.72501,0.46995 -4.96383,5.5315 -8.95067,10.96521c-3.45059,4.70284 -5.93218,-9.44437 -8.81436,-5.62959c-0.7122,0.94266 -0.14705,15.34032 -8.19654,17.56487c-6.37048,1.76054 1.28537,-7.77947 -7.15961,-7.66234c-6.63917,0.09207 -3.28852,8.02991 -11.57457,5.49857c-5.16706,-1.5785 -7.55881,-11.05715 -14.22815,-10.4843c-6.81904,0.58571 -13.92303,9.63639 -19.35972,13.24343c-3.5819,2.37646 -10.81464,-7.61764 -10.81464,-7.61764c0,0 -0.40491,5.3232 -3.90914,7.11199c-9.23541,4.71436 -21.50653,12.56266 -26.21311,8.8456c-0.56557,-0.50752 -4.68428,-7.40036 -8.2311,-14.03474c-2.77483,-5.19036 -5.08324,-10.22252 -5.83731,-11.91517c-2.70656,-6.0754 -2.70054,-5.31439 -5.70054,-13.37855c-4.49402,-12.08017 -10.97956,-31.49244 -8.94913,-36.04844c5.53043,-12.40948 33.68639,-1.82359 33.68639,-1.82359l229.21158,37.25386c0,0 -7.12759,8.57735 -10.6837,12.45189c-3.48397,3.79594 -10.42194,10.70597 -10.42194,10.70597z" fill="#a38244"/><path d="M382.76981,213.62137c0,0 -4.69507,-16.75561 -13.95673,-12.71446c-6.00736,2.6212 -12.57213,10.37421 -14.55346,10.15985c-10.25083,-1.10903 -6.09554,-22.12315 -15.85817,-16.04363c-4.32349,2.69238 -5.14733,2.50686 -9.85354,2.39968c-6.07653,-0.13838 -18.09754,-10.41877 -15.24907,-3.42967c1.14026,13.96408 -4.88008,3.0179 -8.98023,5.30599c-3.20339,1.78766 -8.94641,2.52068 -10.86341,1.44408c-5.79061,-3.25203 -5.35853,-8.94011 -13.24912,-9.79378c-1.37882,-0.14917 -6.9243,11.35643 -8.33059,11.20428c-1.9719,-0.21335 -4.28482,-8.28626 -9.36129,-5.5914c-2.36967,1.25795 -1.64986,6.38143 -4.48252,9.7666c-1.64961,1.97138 -3.9717,3.62849 -6.24297,4.91692c-2.91413,1.6531 -5.74462,2.69929 -6.96385,3.02363c-7.35769,1.95731 -6.30525,-5.26128 -11.55457,-5.76252c-7.65741,-0.73118 -6.35461,-14.96045 -14.99148,-12.36543c-4.92728,1.48044 -9.97293,5.37669 -14.89432,9.60941c-2.11421,1.81836 -2.43001,-5.62038 -6.68315,-5.22834c-7.77193,0.71639 -11.0134,20.08349 -15.75267,19.57075c-4.35585,-0.47126 -4.68825,-10.88715 -8.51458,-11.98538c-4.41363,-1.2668 -7.76285,8.33012 -11.62944,6.87861c-5.32423,-1.9987 0.78446,-10.9813 -3.46724,-14.05939c-12.63295,-9.14585 -21.24157,-15.52722 -21.24157,-15.52722c0,0 -1.86349,-4.92126 -3.50907,-11.95305c-3.6722,-15.69187 -8.14716,-41.49591 -5.82998,-43.75431c0.43166,-0.4207 44.39743,12.95443 44.39743,12.95443c0,0 142.4552,19.10419 185.23645,24.84145c22.67676,3.04111 63.12493,6.83709 63.12493,6.83709l-36.74579,39.2958z" fill="#997a40"/><path d="M409.95496,187.44928c0,0 -11.73617,9.95514 -20.76961,9.33773c-7.54836,-0.51592 1.34141,-12.96161 -18.42923,-15.26834c-9.85782,-1.15016 -7.1208,20.80839 -19.40265,19.89838c-21.26673,-1.57573 -1.22447,-21.65943 -24.051,-25.5039c-2.75511,-0.46401 -3.48262,2.5923 -6.50197,5.23078c-0.65476,0.57216 -3.47538,0.11901 -4.14256,0.73248c-4.43162,4.07486 -9.13748,8.64999 -14.11787,8.26375c-16.99818,-1.31825 -0.21324,-8.37178 -18.19181,-11.15024c-10.95434,-1.69292 12.5675,12.75399 -1.60706,11.73915c-1.79106,-0.12823 -8.13614,-6.70835 -10.1168,-6.86259c-3.436,-0.26757 -7.76803,-2.55509 -11.69706,-2.96585c-8.91944,-0.93248 -5.74884,24.96074 -15.19997,25.03561c-11.2016,0.08874 -7.69447,-24.91435 -18.26818,-28.55319c-5.96403,-2.05247 -10.28128,8.3307 -19.11732,7.52092c-4.84029,-0.44359 -7.41582,-16.2842 -12.38849,-18.13398c-1.39455,-0.51876 -7.36966,24.68581 -17.94511,29.27427c-8.5539,3.71136 -21.27004,-12.98036 -27.96442,-13.42979c-16.14027,-1.0836 -19.41705,-17.8266 -19.41705,-17.8266c0,0 -1.09212,-4.22063 -2.07175,-9.99668c-1.34852,-7.95108 -0.35238,-20.26007 -0.83451,-26.25322c-0.78471,-9.75441 -1.35339,-27.25878 -1.35339,-27.25878l304.15555,56.50209l-20.56775,29.668z" fill="#a98747"/></g><path d="M125.64293,132.53876c0,0 -0.52955,-9.22958 -0.15328,-13.20142c2.81366,-4.15822 32.22106,6.63414 32.22106,6.63414l231.97656,-10.61472c0,0 20.95523,42.38537 18.68286,51.32632c-1.54861,6.09321 -51.70005,3.47949 -51.70005,3.47949c0,0 -7.35631,12.22842 -10.64076,9.45534c-4.98522,-4.20904 -10.99987,-14.01747 -17.70612,-15.38443c-6.55903,-1.33695 -10.02625,7.80328 -15.34068,8.77635c-8.52239,1.56045 -4.28007,-5.9388 -10.86448,-6.7947c-8.37533,-1.0887 -1.86883,9.26935 -7.99423,6.78703c-7.73982,-3.13657 -5.52068,-17.37341 -6.11961,-18.3918c-2.42379,-4.12126 -6.51778,9.64613 -9.40394,4.57727c-3.33469,-5.85661 -4.97584,-11.14227 -7.62861,-11.92286c-6.18528,-1.82005 -6.08523,25.1308 -12.94353,22.69774c-2.7794,-0.98603 -4.70448,-4.23012 -7.04542,-4.83461c-3.94355,-1.01832 -7.82231,0.55578 -9.87711,-2.67765c-6.61574,-7.13034 -16.22985,3.95867 -23.28628,2.20152c-2.46633,-0.61414 -5.73555,-11.30078 -8.54113,-12.11376c-6.40806,-1.85688 -11.64486,3.46558 -17.45429,3.50799c-8.11673,0.05926 -63.14763,-0.77392 -63.14763,-0.77392c0,0 -0.98909,-7.59692 -1.54016,-11.28908c-0.5599,-3.75134 -1.49317,-11.44424 -1.49317,-11.44424z" fill="#b2944f"/><path d="M168.15647,141.79378c0,0 -20.48577,-5.91228 -22.48052,-8.61122c-1.10297,-1.49234 -18.90108,2.94019 -19.89372,0.03429c-0.24393,-1.23665 5.47262,-1.29477 5.45632,-2.90672c-0.02023,-2.00036 -5.73703,-5.6376 -5.72875,-7.98244c0.00495,-1.40107 -0.22741,-2.85153 -0.26724,-4.32658c-0.07653,-2.83383 0.01932,-5.75841 0.09895,-8.59794c0.2377,-8.47566 0.9714,-15.90806 0.9714,-15.90806c0,0 50.4829,5.91979 73.359,5.50991c43.15731,-0.77327 186.86473,-3.34814 186.86473,-3.34814l39.55545,48.63077c0,0 -18.93892,3.22218 -32.5409,10.85264c-4.57784,2.56808 0.45598,12.1943 -5.06297,13.56668c-4.008,0.99665 -6.22996,-8.92207 -10.7601,-8.17188c-3.92733,0.65036 -5.4568,10.95871 -9.83795,10.9253c-4.76679,-0.03635 -5.75678,-19.64787 -13.39453,-21.25435c-4.17971,-0.87914 -5.34991,6.47377 -7.2407,4.42407c-4.40131,-4.77122 -8.96479,-9.22251 -13.68884,-11.26043c-8.28063,-3.57221 -8.62485,10.71243 -16.31552,10.55707c-5.27213,-0.1065 -5.05784,7.18526 -12.14122,4.3938c-2.08862,-0.82309 -8.98185,-4.50395 -12.20471,-9.40837c-2.42405,-3.6888 -1.11911,-8.69534 -3.32818,-10.21776c-4.73242,-3.26144 -7.95946,4.49147 -9.94282,4.47635c-1.41446,-0.01078 -5.5983,-12.07836 -6.98512,-12.08894c-7.93641,-0.06053 -8.16214,5.63947 -14.28867,8.20314c-2.02821,0.84872 -7.64864,-0.54068 -10.62489,-2.68528c-3.80943,-2.74496 -11.05007,7.43524 -8.30957,-6.30468c3.63425,-6.61464 -9.4905,2.21327 -15.54254,1.65108c-4.68725,-0.43541 -5.52698,-0.34598 -9.51171,-3.51826c-8.99771,-7.16315 -7.28962,14.18965 -17.59996,14.11102c-1.99284,-0.0152 -7.62127,-8.47251 -13.28687,-11.76796c-8.73477,-5.08066 -15.32785,11.02292 -15.32785,11.02292z" fill="#b09a5c"/><path d="M126.51045,107.56633c0,0 -0.44224,-3.8481 -0.17402,-6.58312c0.4825,-4.91998 2.8257,-20.45574 2.8257,-20.45574c0,0 90.49393,-9.27777 133.43752,-6.80629c40.27188,2.31772 114.72409,21.40353 114.72409,21.40353l-7.14334,28.10645c0,0 -5.6122,-7.89995 -11.04397,-6.56649c-5.15258,1.26493 -9.53487,16.70363 -14.39404,16.58697c-8.87051,-0.21297 -11.96352,-11.02417 -18.12421,-9.67206c-10.92237,2.39718 -10.31742,27.6378 -21.4343,26.2599c-9.37966,-1.16258 -3.2488,-26.51852 -12.21629,-26.61923c-3.95019,-0.04437 -8.5168,1.72915 -11.96075,1.59932c-1.98524,-0.07485 0.09081,-3.61255 -1.70311,-3.69139c-14.19713,-0.62396 1.69512,-2.923 -9.3813,-2.50262c-18.17891,0.68993 -2.31775,9.62916 -19.35466,8.98148c-4.99174,-0.18977 -9.13953,-5.2763 -13.07249,-9.83432c-0.59211,-0.68621 -3.44615,-0.56084 -4.03068,-1.20459c-2.69548,-2.96858 -3.06625,-6.08834 -5.85646,-5.94463c-23.11736,1.19065 -5.52084,23.44846 -26.82756,22.56506c-12.30494,-0.51018 -7.05782,-22.00754 -16.98251,-22.00006c-19.90475,0.015 -12.50709,13.40149 -20.06465,13.04485c-9.04446,-0.4268 -21.88967,1.99964 -21.88967,1.99964c0,0 -8.21137,-6.51266 -11.47203,-7.43549c-2.2004,-0.62276 -3.86129,-11.23119 -3.86129,-11.23119z" fill="#a8915a"/><path d="M401.46581,119.73357c0,0 -53.6483,-6.50113 -61.67769,-7.69013c-5.74692,-0.85101 -10.1915,-6.85088 -16.7957,-5.90447c-2.89146,0.41436 -7.61703,10.54161 -10.14485,10.80631c-7.23237,0.75736 -15.20857,-11.56244 -22.7528,-5.42288c-2.48506,2.91577 -6.10681,0.81687 -10.15375,1.27609c-2.40231,0.2726 -4.7604,3.21699 -7.65003,3.80636c-7.13029,1.45428 -3.2781,-25.22003 -9.65656,-24.27907c-2.73563,0.40357 -5.09686,5.40918 -9.21463,10.74434c-3.56392,4.61755 -5.70079,-9.58582 -8.67488,-5.84225c-0.73492,0.92506 -0.52,15.33221 -8.62119,17.36039c-6.4114,1.60512 1.47415,-7.74592 -6.97118,-7.83416c-6.63944,-0.06937 -3.48279,7.94759 -11.70484,5.21553c-5.12714,-1.70367 -7.28773,-11.23768 -13.96903,-10.82715c-6.83127,0.41974 -14.15321,9.29501 -19.676,12.76881c-3.63862,2.28867 -9.22035,-10.84502 -9.22035,-10.84502c0,0 -47.62675,-3.49574 -48.31174,-9.74524c-0.22756,-2.07618 2.28833,-21.80468 3.99632,-26.17617c5.83599,-14.93689 19.25211,-22.94829 19.25211,-22.94829c0,0 173.17448,18.17371 207.30629,24.57661c11.31475,2.12257 20.93173,18.23931 20.93173,18.23931c0,0 35.68027,-3.05334 32.03101,0.73359c-3.57523,3.71011 -1.91127,10.33598 -1.91127,10.33598z" data-paper-data="{&quot;index&quot;:null}" fill="#9a8553"/><path d="M368.5778,96.41175c0,0 -5.28628,-24.53147 -14.64347,-20.71671c-6.06932,2.47436 -11.82064,17.73212 -13.79618,17.46966c-10.22082,-1.35793 -6.2225,-17.93148 -16.13006,-12.09113c-4.38767,2.58647 -4.5401,-1.95237 -9.24231,-2.17394c-6.07136,-0.28608 -17.83886,-10.8557 -15.16117,-3.79941c0.8004,13.98767 -4.95201,2.89835 -9.10658,5.08607c-3.2459,1.70924 -9.00506,2.30241 -10.89531,1.17952c-5.70982,-3.39186 -5.13958,-9.06776 -13.00709,-10.11303c-1.37478,-0.18265 -7.19836,11.18471 -8.60054,10.99841c-1.96614,-0.26122 -4.08208,-8.38798 -9.22257,-5.81735c-2.39955,1.19996 -1.80453,6.33943 -4.71865,9.65472c-3.87444,4.40782 -11.2131,7.09288 -13.39598,7.6171c-7.4031,1.77784 -6.17545,-5.41303 -11.41105,-6.04176c-7.63737,-0.91714 -5.98898,-15.11052 -14.68639,-12.72627c-4.96182,1.3602 -10.10071,5.13262 -15.12356,9.24443c-2.1578,1.76642 -2.29265,-5.67781 -6.55406,-5.38929c-7.78705,0.52721 -11.49846,19.80978 -16.22386,19.18196c-4.34312,-0.57703 -4.42216,-10.99793 -8.22065,-12.18886c-4.38153,-1.37374 -7.9631,8.13891 -11.79326,6.59382c-5.27406,-2.12757 1.05124,-10.95898 -3.12437,-14.13954c-12.40684,-9.45029 -14.1125,-7.67848 -14.1125,-7.67848c0,0 1.963,-9.74268 4.47852,-18.87012c1.28264,-4.65398 2.87894,-9.30001 3.86935,-12.41802c2.41222,-7.59412 7.89439,-20.76036 7.89439,-20.76036c0,0 155.04858,24.36222 197.67768,31.13796c22.59612,3.59157 71.98645,6.27594 71.98645,6.27594c0,0 2.1543,27.68351 -2.95902,37.7778c-1.38764,2.73935 -19.01706,-4.01402 -20.31711,-2.68982c-2.35116,2.39486 -23.46065,5.39671 -23.46065,5.39671z" data-paper-data="{&quot;index&quot;:null}" fill="#8b774a"/><path d="M406.91784,58.98399c0,0 -3.12202,10.27377 -5.3877,10.58404c-3.3574,0.45977 -12.3957,5.76547 -12.3957,5.76547c0,0 -12.38215,-4.19159 -21.39792,-5.02847c-7.53359,-0.69929 1.65617,-12.92516 -18.05254,-15.71191c-9.82695,-1.3895 -7.62463,20.6291 -19.88072,19.42074c-21.22213,-2.09234 -0.69749,-21.68282 -23.42379,-26.08115c-2.74301,-0.53087 -3.54462,2.50687 -6.62724,5.07115c-0.66848,0.55607 -3.47726,0.03448 -4.15915,0.63154c-4.52938,3.96591 -9.34509,8.42526 -14.31462,7.91804c-16.9611,-1.73116 -0.00963,-8.37449 -17.91533,-11.58926c-10.90995,-1.95876 4.50729,2.531 -9.6384,1.17181c-1.78742,-0.17175 -0.22425,3.62059 -2.20057,3.41825c-3.42847,-0.35104 -7.70361,-2.74321 -11.62149,-3.24937c-8.89414,-1.14907 -6.35404,24.81358 -15.8042,24.65864c-11.20044,-0.18364 -7.08643,-25.09408 -17.56854,-28.98892c-5.91237,-2.19686 -10.48078,8.07826 -19.29452,7.05387c-4.82807,-0.56115 -7.01769,-16.45969 -11.94391,-18.42983c-5.19315,-2.07688 -35.88413,-1.33545 -35.88413,-1.33545c0,0 1.5375,-4.90017 4.19322,-10.77651c1.29035,-2.85517 2.67943,-6.3644 3.95857,-9.30053c1.44464,-3.31601 3.01723,-6.39759 4.06756,-8.61935c3.08356,-6.52269 10.98763,-16.49761 10.98763,-16.49761l247.39567,43.24677l-3.0922,26.66809z" data-paper-data="{&quot;index&quot;:null}" fill="#806e44"/><path d="M214.5759,-71.23469c0,0 3.24895,0.49262 4.52051,2.87031c1.87546,3.50691 2.50534,9.58657 7.00516,11.76445c7.91075,3.82874 19.50226,0.35844 23.56549,1.21717c5.68403,1.20126 9.75293,7.462 16.40269,6.9217c2.9114,-0.23655 8.24815,-10.05548 10.78743,-10.16491c7.26517,-0.31314 14.47212,12.47189 22.3781,6.80574c2.65891,-2.75816 6.14538,-0.44144 10.21283,-0.65203c2.41449,-0.12501 4.94843,-2.91951 7.86872,-3.33085c7.20596,-1.01499 1.72785,25.37342 8.15196,24.82474c2.7552,-0.23532 5.41847,-5.08697 9.85517,-10.16001c3.83994,-4.39068 5.10321,9.91687 8.30092,6.36241c0.79017,-0.87833 1.45774,-15.27161 9.66791,-16.79998c6.49764,-1.20957 -1.94563,7.64113 6.47846,8.24627c6.62274,0.47575 3.96285,-7.71944 12.0022,-4.48911c5.01322,2.01438 6.58603,11.66279 13.27992,11.6621c6.84415,-0.00071 14.69575,-8.41104 20.42086,-11.54018c3.77192,-2.0616 8.53906,11.38919 8.53906,11.38919c0,0 49.66377,7.45039 49.96485,13.7301c0.44179,9.21461 -28.55285,46.56367 -28.55285,46.56367c0,0 -179.75506,-34.33968 -212.0315,-42.46789c-9.93526,-2.50201 -18.49026,-10.57492 -18.49026,-10.57492c0,0 -30.46694,-1.40358 -26.59267,-4.95998c1.34389,-1.23362 3.66258,-6.37768 7.64762,-10.4415c7.27034,-7.41405 15.99289,-16.05807 15.99289,-16.05807z" data-paper-data="{&quot;index&quot;:null}" fill="#564929"/><path d="M207.081,-43.06373c0,0 3.24569,17.0956 12.81888,13.86088c6.20942,-2.09812 13.41285,-9.26162 15.36862,-8.8787c10.11852,1.98116 4.18224,22.5632 14.4288,17.3404c4.53779,-2.31297 5.34277,-2.05772 10.0226,-1.54867c6.04246,0.65726 17.14076,11.92753 14.9001,4.72053c0.0575,-14.01044 5.12017,-2.58973 9.40089,-4.51898c3.34446,-1.5073 9.12912,-1.74676 10.94708,-0.51024c5.49144,3.73508 4.57477,9.36542 12.36352,10.89042c1.36102,0.26647 7.86964,-10.72301 9.25779,-10.45121c1.94646,0.38112 3.56087,8.62218 8.8491,6.37109c2.46852,-1.05079 2.18927,-6.21706 5.30091,-9.34771c4.13704,-4.16234 11.62632,-6.39305 13.83721,-6.78263c7.49806,-1.32125 5.83245,5.78097 11.01973,6.72906c7.56689,1.38302 5.0526,15.44886 13.87967,13.60157c5.03578,-1.05386 10.396,-4.50457 15.66118,-8.30114c2.26191,-1.63099 1.94073,5.80753 6.21181,5.78046c7.80471,-0.04946 12.68974,-19.06861 17.36784,-18.15266c4.29964,0.84185 3.74051,11.24804 7.45896,12.66931c4.2892,1.63942 8.44647,-7.6361 12.17484,-5.85941c5.13391,2.44648 -1.72024,10.87407 2.25281,14.30431c11.80497,10.19218 29.71946,17.13019 29.71946,17.13019l-48.46722,39.75567c0,0 -11.58234,-15.94731 -31.16024,-20.30252c-44.13166,-9.81733 -122.0885,-13.78849 -151.27495,-20.28118c-22.33383,-4.96828 -70.66716,-9.67154 -70.66716,-9.67154c0,0 4.9251,-9.65975 9.51087,-16.86703c3.25981,-5.12332 6.63862,-9.05969 9.33786,-12.57666c0.86316,-1.12465 1.74661,-1.9371 2.41768,-3.08206c3.05275,-1.84926 1.93563,-0.82919 3.31431,-2.07131c2.49337,-2.24641 23.74705,-3.95021 23.74705,-3.95021z" data-paper-data="{&quot;index&quot;:null}" fill="#605333"/><path d="M166.97385,-19.73878c0,0 3.34518,-5.36335 5.62561,-5.53432c3.37925,-0.25334 9.32543,12.00428 9.32543,12.00428c0,0 2.37892,0.64498 4.16199,-1.0778c2.52042,-2.43519 5.24758,-7.40556 10.48791,-6.59307c7.47664,1.15922 -2.44441,12.79951 17.05671,16.7877c9.72343,1.98855 8.87335,-20.12357 21.03246,-18.1671c21.05422,3.38774 -0.63135,21.68484 21.78303,27.46634c2.70536,0.69782 3.69145,-2.28514 6.92528,-4.65588c0.70128,-0.5141 3.47285,0.17848 4.19002,-0.37572c4.76369,-3.68116 9.8434,-7.8373 14.77255,-7.02677c16.82329,2.76636 -0.50312,8.35937 17.17216,12.66439c10.76956,2.62306 -4.34386,-2.80221 9.69207,-0.57951c1.77355,0.28086 0.4455,-3.60007 2.40573,-3.2771c3.40055,0.56028 7.5212,3.20972 11.40074,3.9548c8.8071,1.69145 7.86132,-24.378 17.28427,-23.64476c11.16818,0.86904 5.53674,25.48087 15.76074,30.01018c5.76677,2.55472 10.95572,-7.42143 19.6902,-5.85933c4.78465,0.8557 5.99678,16.85848 10.79314,19.12653c5.05625,2.39094 12.13252,-4.22967 12.13252,-4.22967l1.3888,28.96672c0,0 -15.08925,-10.22458 -22.10807,-10.45843c-7.91427,-0.26368 -8.37235,9.37039 -18.46684,7.5885c-10.43752,-1.84245 -19.43024,-9.27383 -25.35636,-8.25836c-11.86329,2.03284 10.32491,21.82775 -1.10009,19.74836c-11.97834,-2.1801 -13.04971,-25.18566 -22.07359,-25.49612c-17.95402,-0.61769 -5.22223,14.97465 -18.72475,12.04898c-22.24265,-4.81945 -6.41745,-20.74003 -24.21922,-22.95689c-21.65143,-2.69627 -4.82803,7.25457 -21.37694,8.01536c-23.09533,1.06174 1.50881,29.98366 -15.99382,28.50906c-29.17628,-2.45812 -2.01105,-21.0386 -24.52539,-25.23845c-28.70152,-5.35402 1.14675,-21.74952 -20.63358,-24.31606c-23.00118,-2.7104 -16.43099,14.36414 -25.04674,13.11934c-11.04985,-1.59649 -8.37509,-8.13644 -8.37509,-8.13644c0,0 2.18024,-11.57289 3.64186,-15.71249c0.98616,-2.79302 3.9773,-7.11624 3.9773,-7.11624z" data-paper-data="{&quot;index&quot;:null}" fill="#75653e"/></g></g></svg>