<svg version="1.1" xmlns="http://www.w3.org/2000/svg" xmlns:xlink="http://www.w3.org/1999/xlink" width="78" height="247.82453" viewBox="0,0,78,247.82453"><defs><linearGradient x1="227.46419" y1="289.33126" x2="227.46419" y2="293.33493" gradientUnits="userSpaceOnUse" id="color-1"><stop offset="0" stop-color="#fa0000"/><stop offset="1" stop-color="#cd0000"/></linearGradient><linearGradient x1="227.3992" y1="285.72803" x2="227.3992" y2="290.0653" gradientUnits="userSpaceOnUse" id="color-2"><stop offset="0" stop-color="#ff0000"/><stop offset="1" stop-color="#ef0000"/></linearGradient></defs><g transform="translate(-201,-75.73598)"><g data-paper-data="{&quot;isPaintingLayer&quot;:true}" fill-rule="nonzero" stroke-linejoin="miter" stroke-miterlimit="10" stroke-dasharray="" stroke-dashoffset="0" style="mix-blend-mode: normal"><path d="M231.5211,313.20581c0,0 0.02134,-4.02827 1.30879,-7.15188c0.81521,-1.97789 2.76901,-3.59305 3.53612,-3.59305c1.48893,0 4.3042,0 6.84606,0c1.12817,0 3.15039,1.74576 4.03095,3.82993c1.304,3.08643 1.23525,6.915 1.23525,6.915z" fill="#2c3132" stroke="none" stroke-width="0" stroke-linecap="butt"/><path d="M235.10444,309.20858c0,0 0.01232,-1.95095 0.75567,-3.46376c0.47069,-0.95792 1.59878,-1.74017 2.04169,-1.74017c0.85968,0 2.48517,0 3.95279,0c0.65139,0 1.81898,0.8455 2.3274,1.85489c0.75291,1.4948 0.71321,3.34904 0.71321,3.34904z" fill="#4b5555" stroke="none" stroke-width="0" stroke-linecap="butt"/><path d="M221.7,200.51869v-5.4h38.6v5.4z" fill="#1a231d" stroke="none" stroke-width="0" stroke-linecap="butt"/><path d="M220.1,231.71871v-5.4h38.6v5.4z" fill="#1a231d" stroke="none" stroke-width="0" stroke-linecap="butt"/><path d="M222.3,267.71871v-5.4h38.6v5.4z" fill="#1a231d" stroke="none" stroke-width="0" stroke-linecap="butt"/><path d="M256.29383,316.58505c0,0 0.01613,-3.04415 0.98905,-5.40465c0.61605,-1.49468 2.09253,-2.71525 2.67223,-2.71525c1.12518,0 3.25267,0 5.17354,0c0.85255,0 2.38074,1.31926 3.04617,2.89426c0.98543,2.3324 0.93347,5.22564 0.93347,5.22564z" fill="#2c3132" stroke="none" stroke-width="0" stroke-linecap="butt"/><path d="M225.67146,160.75538c0,0 0.84517,-15.77018 4.58986,-27.49659c2.52164,-7.89647 7.74695,-13.30341 9.66896,-13.30341c2.02375,0 6.88563,5.38265 9.55337,13.72059c3.69042,11.53429 4.9878,27.07941 4.9878,27.07941z" fill="#6e9767" stroke="none" stroke-width="0" stroke-linecap="butt"/><path d="M258.31819,309.05961l-0.54545,-1.54545h9.81818l-0.54545,1.54545z" fill="#1a2424" stroke="none" stroke-width="0" stroke-linecap="butt"/><path d="M254.95457,306.42324h15.09091c0,0 -0.39186,1.45455 -1.55482,1.45455c-3.34508,0 -10.40888,0 -12.07273,0c-0.73479,0 -1.46336,-1.45455 -1.46336,-1.45455z" fill="#222f2d" stroke="none" stroke-width="0" stroke-linecap="butt"/><path d="M239.77916,114.84774v-13.38462" fill="none" stroke="#323b3a" stroke-width="1.5" stroke-linecap="round"/><path d="M225.66194,162.91195v-2.71429h28.79047v2.71429c0,0 -2.43094,0 -4.5457,0c-4.88395,0 -24.24476,0 -24.24476,0z" fill="#395138" stroke="#323b3a" stroke-width="0" stroke-linecap="butt"/><path d="M238.6157,110.28042c0,0 0.72999,-1.125 1.16346,-1.125c0.55961,0 1.28847,1.125 1.28847,1.125" fill="none" stroke="#323b3a" stroke-width="1.5" stroke-linecap="round"/><path d="M232.85609,127.09389c0,0 3.73618,-12.33846 5.86982,-12.33846c0.59332,0 1.36531,0 2.20118,0c2.76807,0 6.23669,12.33846 6.23669,12.33846z" fill="#253425" stroke="none" stroke-width="0" stroke-linecap="butt"/><path d="M232.13813,128.68874l0.86667,-2h14l0.6,2z" fill="#375332" stroke="none" stroke-width="0" stroke-linecap="butt"/><path d="M225.62503,187.66872v-24.85h28.81667v24.85z" fill="#272429" stroke="none" stroke-width="0" stroke-linecap="butt"/><path d="M241.35717,167.52024h-2.71429v-5.04047h2.71429c0,0 0,0.42559 0,0.79584c0,0.85505 0,4.24463 0,4.24463z" fill="#395138" stroke="#323b3a" stroke-width="0" stroke-linecap="butt"/><path d="M225.6167,300.66871v-113.225h28.8v113.225z" fill="#000003" stroke="none" stroke-width="0" stroke-linecap="butt"/><path d="M225.65003,189.23338v-2h28.72307v2z" fill="#0f140d" stroke="none" stroke-width="0" stroke-linecap="butt"/><g stroke-width="0"><path d="M211.50003,282.4437v-94h12v94z" fill="#709665" stroke="none" stroke-linecap="butt"/><path d="M211.46192,209.1493v-10.6h12.05714v10.6z" fill="#4e6f46" stroke="none" stroke-linecap="butt"/><path d="M211.49943,210.10823v-1h12v1z" fill="#426439" stroke="none" stroke-linecap="butt"/><path d="M211.49943,198.73323v-1h12v1z" fill="#426439" stroke="none" stroke-linecap="butt"/><g stroke="none" stroke-linecap="butt"><path d="M211.47859,232.74929v-10.6h12.05715v10.6z" fill="#4e6f46"/><path d="M211.51609,233.70823v-1h12v1z" fill="#426439"/><path d="M211.51609,222.33323v-1h12v1z" fill="#426439"/></g><g stroke="none" stroke-linecap="butt"><path d="M211.57304,256.1715v-10.6h12.05715v10.6z" fill="#4e6f46"/><path d="M211.61055,257.13043v-1h12v1z" fill="#426439"/><path d="M211.61055,245.75543v-1h12v1z" fill="#426439"/></g><path d="M219.4809,177.61071c0,0 0.93261,2.31016 1.46943,3.7708c0.7445,2.0257 2.58196,7.25261 2.58196,7.25261l-12.00933,-0.01648c0,0 1.78456,-5.21989 2.53274,-7.24261c0.53939,-1.45826 1.53861,-3.76435 1.53861,-3.76435c0,0 0.27905,-0.71554 0.72365,-1.07581c0.3632,-0.29432 0.86925,-0.43573 1.15554,-0.43573c0.28945,0 0.85854,0.12989 1.24179,0.41653c0.48814,0.36508 0.76561,1.09503 0.76561,1.09503z" fill="#3a5335" stroke="#ff3600" stroke-linecap="round"/></g><path d="M256.52308,279.34371v-90.8h12v90.8z" fill="#709665" stroke="none" stroke-width="0" stroke-linecap="butt"/><path d="M256.485,209.24929v-10.6h12.05714v10.6z" fill="#4e6f46" stroke="none" stroke-width="0" stroke-linecap="butt"/><path d="M256.52249,210.20823v-1h12v1z" fill="#426439" stroke="none" stroke-width="0" stroke-linecap="butt"/><path d="M256.52249,198.83323v-1h12v1z" fill="#426439" stroke="none" stroke-width="0" stroke-linecap="butt"/><g stroke="none" stroke-width="0" stroke-linecap="butt"><path d="M256.50166,232.84927v-10.6h12.05715v10.6z" fill="#4e6f46"/><path d="M256.53917,233.80823v-1h12v1z" fill="#426439"/><path d="M256.53917,222.43323v-1h12v1z" fill="#426439"/></g><g stroke="none" stroke-width="0" stroke-linecap="butt"><path d="M256.59611,256.27151v-10.6h12.05715v10.6z" fill="#4e6f46"/><path d="M256.63362,257.23044v-1h12v1z" fill="#426439"/><path d="M256.63362,245.85544v-1h12v1z" fill="#426439"/></g><path d="M264.50398,177.7107c0,0 0.93261,2.31016 1.46943,3.7708c0.7445,2.0257 2.58197,7.25261 2.58197,7.25261l-12.00933,-0.01648c0,0 1.78457,-5.21989 2.53275,-7.24261c0.53939,-1.45826 1.53861,-3.76434 1.53861,-3.76434c0,0 0.27905,-0.71554 0.72364,-1.07582c0.3632,-0.29432 0.86924,-0.43573 1.15553,-0.43573c0.28945,0 0.85854,0.12989 1.24179,0.41653c0.48814,0.36508 0.76561,1.09503 0.76561,1.09503z" fill="#3a5335" stroke="#ff3600" stroke-width="0" stroke-linecap="round"/><path d="M233.95399,299.43998v-110.96804h12v110.96804z" fill="#709665" stroke="none" stroke-width="0" stroke-linecap="butt"/><path d="M233.91589,209.17753v-10.6h12.05714v10.6z" fill="#4e6f46" stroke="none" stroke-width="0" stroke-linecap="butt"/><path d="M233.95339,210.13649v-1h12v1z" fill="#426439" stroke="none" stroke-width="0" stroke-linecap="butt"/><path d="M233.95339,198.76149v-1h12v1z" fill="#426439" stroke="none" stroke-width="0" stroke-linecap="butt"/><g stroke="none" stroke-width="0" stroke-linecap="butt"><path d="M233.93255,232.77754v-10.6h12.05715v10.6z" fill="#4e6f46"/><path d="M233.97006,233.73648v-1h12v1z" fill="#426439"/><path d="M233.97006,222.36148v-1h12v1z" fill="#426439"/></g><g stroke="none" stroke-width="0" stroke-linecap="butt"><path d="M234.02701,256.19973v-10.6h12.05715v10.6z" fill="#4e6f46"/><path d="M234.06451,257.15869v-1h12v1z" fill="#426439"/><path d="M234.06451,245.78371v-1h12v1z" fill="#426439"/></g><path d="M241.93486,177.63894c0,0 0.93261,2.31016 1.46944,3.7708c0.7445,2.0257 2.58196,7.25261 2.58196,7.25261l-12.00933,-0.01648c0,0 1.78457,-5.21989 2.53275,-7.24261c0.53939,-1.45826 1.53861,-3.76435 1.53861,-3.76435c0,0 0.27905,-0.71554 0.72365,-1.07581c0.3632,-0.29432 0.86925,-0.43573 1.15554,-0.43573c0.28945,0 0.85854,0.12989 1.24179,0.41653c0.48814,0.36508 0.76562,1.09503 0.76562,1.09503z" fill="#3a5335" stroke="#ff3600" stroke-width="0" stroke-linecap="round"/><path d="M212.21431,193.60444v-1.85715h0.85715v1.85715z" fill="#4e6f46" stroke="none" stroke-width="0" stroke-linecap="butt"/><path d="M220.35716,218.60444v-1h1.85714v1z" fill="#4e6f46" stroke="none" stroke-width="0" stroke-linecap="butt"/><path d="M215.78574,244.31872v-0.57143h1.42857v0.57143z" fill="#4e6f46" stroke="none" stroke-width="0" stroke-linecap="butt"/><path d="M266.92858,193.89014v-2.71428h1v2.71428z" fill="#4e6f46" stroke="none" stroke-width="0" stroke-linecap="butt"/><path d="M242.21431,196.60444v-1h0.71429v1z" fill="#4e6f46" stroke="none" stroke-width="0" stroke-linecap="butt"/><path d="M258.78574,220.89014v-0.85714h1.71429v0.85714z" fill="#4e6f46" stroke="none" stroke-width="0" stroke-linecap="butt"/><path d="M257.78574,206.17584v-1.14286h1.14285v1.14286z" fill="#426439" stroke="none" stroke-width="0" stroke-linecap="butt"/><path d="M234.64288,200.74728v-1.42857h0.57143v1.42857z" fill="#426439" stroke="none" stroke-width="0" stroke-linecap="butt"/><path d="M212.64288,225.31872v-0.57143h2.28572v0.57143z" fill="#426439" stroke="none" stroke-width="0" stroke-linecap="butt"/><path d="M259.4524,248.10161v-1.10924h1.71429v1.10924z" fill="#426439" stroke="none" stroke-width="0" stroke-linecap="butt"/><path d="M264.98413,264.63561v-1.70525h3.37301v1.70525z" fill="#4e6f46" stroke="none" stroke-width="0" stroke-linecap="butt"/><path d="M256.47159,303.2755v-25.80682h12.03409v25.80682z" fill="#29463b" stroke="none" stroke-width="0" stroke-linecap="butt"/><path d="M254.95457,306.51413c0,0 0.88026,-7.72727 1.72727,-7.72727c1.73944,0 8.19501,0 11.45455,0c1.15529,0 1.90909,7.72727 1.90909,7.72727z" fill="#344440" stroke="none" stroke-width="0" stroke-linecap="butt"/><path d="M256.50002,286.78687v-0.81818h11.81818v0.81818z" fill="#22392f" stroke="none" stroke-width="0" stroke-linecap="butt"/><path d="M256.59093,289.87776v-0.81818h11.81818v0.81818z" fill="#22392f" stroke="none" stroke-width="0" stroke-linecap="butt"/><path d="M256.50002,292.87776v-0.81818h11.81818v0.81818z" fill="#22392f" stroke="none" stroke-width="0" stroke-linecap="butt"/><path d="M256.50002,295.78687v-0.81818h11.81818v0.81818z" fill="#22392f" stroke="none" stroke-width="0" stroke-linecap="butt"/><path d="M256.50002,298.69598v-0.81818h11.81818v0.81818z" fill="#22392f" stroke="none" stroke-width="0" stroke-linecap="butt"/><path d="M235.91666,299.30883c0,0 0,-0.86454 0,-2.5c0,-8.50403 0,-79.91056 0,-107.33334c0,-2.57105 1.0951,-4.38719 1.61877,-5.85047c0.82301,-2.29971 1.21457,-3.48286 1.21457,-3.48286" fill="none" stroke-opacity="0.16078" stroke="#ffffff" stroke-width="1.5" stroke-linecap="round"/><g data-paper-data="{&quot;index&quot;:null}" stroke="none" stroke-width="0" stroke-linecap="butt"><path d="M210.85527,316.56839c0,0 -0.05196,-2.89324 0.93347,-5.22564c0.66544,-1.575 2.19362,-2.89426 3.04617,-2.89426c1.92087,0 4.04836,0 5.17354,0c0.57969,0 2.05618,1.22057 2.67223,2.71525c0.97292,2.3605 0.98905,5.40465 0.98905,5.40465z" fill="#2c3132"/><path d="M212.91809,309.04295l-0.54545,-1.54545h9.81818l-0.54545,1.54545z" fill="#1a2424"/><path d="M223.54563,307.8611c-1.66385,0 -8.72765,0 -12.07273,0c-1.16296,0 -1.55482,-1.45455 -1.55482,-1.45455h15.09091c0,0 -0.72857,1.45455 -1.46336,1.45455z" fill="#222f2d"/><path d="M211.45787,303.25884v-25.80682h12.03409v25.80682z" fill="#29463b"/><path d="M209.91808,306.49747c0,0 0.7538,-7.72727 1.90909,-7.72727c3.25954,0 9.71511,0 11.45455,0c0.84701,0 1.72727,7.72727 1.72727,7.72727z" fill="#344440"/><path d="M211.64536,286.77021v-0.81818h11.81818v0.81818z" fill="#22392f"/><path d="M211.55445,289.8611v-0.81818h11.81818v0.81818z" fill="#22392f"/><path d="M211.64536,292.8611v-0.81818h11.81818v0.81818z" fill="#22392f"/><path d="M211.64536,295.77021v-0.81818h11.81818v0.81818z" fill="#22392f"/><path d="M211.64536,298.6793v-0.81818h11.81818v0.81818z" fill="#22392f"/></g><path d="M225.61304,300.10004h28.8c0,0 0.30709,0.70253 -0.84183,1.40379c-1.14478,0.69874 -3.74229,1.39621 -5.55817,1.39621c-5.38264,0 -12.68397,0 -15.8,0c-1.90923,0 -4.82539,-0.65883 -6.14442,-1.48837c-0.64818,-0.40764 -0.45558,-1.31163 -0.45558,-1.31163z" fill="#000003" stroke="none" stroke-width="0" stroke-linecap="butt"/><g><path d="M248.6682,279.2555c0,0 1.16407,0.78475 1.97228,2.90594c0.51591,1.35402 0.61006,3.72705 1.06426,5.2446c0.6864,2.29333 0.77961,4.46158 1.03941,5.56241c0.22028,0.93335 0.04442,2.2593 -0.06857,2.82272c-0.05738,0.28612 -6.68937,0.24067 -8.74505,0.21969c-0.16509,-0.00168 -0.94792,-0.30539 -1.55114,-1.0969c-0.77547,-1.01755 -1.18458,-2.57996 -1.18458,-2.57996z" data-paper-data="{&quot;index&quot;:null}" fill="#1e322a" stroke="#65885b" stroke-width="0.5" stroke-linecap="round"/><path d="M238.96003,292.20054c0,0 -0.40911,1.56241 -1.18458,2.57996c-0.60322,0.79152 -1.38605,1.09522 -1.55114,1.0969c-2.05568,0.02098 -8.68768,0.06643 -8.74505,-0.21969c-0.11299,-0.56342 -0.28885,-1.88937 -0.06857,-2.82272c0.25979,-1.10083 0.35301,-3.26908 1.03941,-5.56241c0.4542,-1.51755 0.54834,-3.89058 1.06426,-5.2446c0.80821,-2.12119 1.97228,-2.90594 1.97228,-2.90594z" fill="#1e322a" stroke="#65885b" stroke-width="0.5" stroke-linecap="round"/><path d="M226.57286,290.19874c0,0 -0.10049,-2.45054 0.20856,-3.7298c0.13736,-0.56858 0.54343,-0.60745 0.65889,-0.60745c0.09898,0 0.44041,0.14018 0.5898,0.68411c0.35006,1.2746 0.34438,3.65315 0.34438,3.65315" fill="none" stroke="#65885b" stroke-width="1" stroke-linecap="round"/><path d="M225.46238,291.33311c0,-1.10556 0.89624,-2.00181 2.00181,-2.00181c1.10556,0 2.00181,0.89624 2.00181,2.00181c0,1.10556 -0.89624,2.00181 -2.00181,2.00181c-1.10556,0 -2.00181,-0.89624 -2.00181,-2.00181z" fill="url(#color-1)" stroke="#65885b" stroke-width="0.5" stroke-linecap="butt"/><path d="M226.50619,290.0653c0,0 -0.10049,-2.45054 0.20856,-3.7298c0.13736,-0.56858 0.54343,-0.60745 0.65889,-0.60745c0.09898,0 0.44041,0.14018 0.5898,0.68411c0.35006,1.2746 0.34438,3.65315 0.34438,3.65315" fill="none" stroke="url(#color-2)" stroke-width="0.5" stroke-linecap="round"/><path d="M250.04701,290.45998c0,-0.74832 0.72089,-1.82442 1.26773,-2.8355c0.47878,-0.88524 0.73938,-1.763 1.39457,-1.763c0.67082,0 0.5272,1.09293 0.95253,2.00823c0.46456,0.99972 1.46773,1.85759 1.46773,2.59027c0,1.40352 -1.13776,2.54128 -2.54128,2.54128c-1.40352,0 -2.54128,-1.13778 -2.54128,-2.54128z" fill="#ffffff" stroke="#65885b" stroke-width="0.5" stroke-linecap="butt"/></g><path d="M234.23953,304.8058l-0.72005,-2.04016h12.96104l-0.72005,2.04016z" fill="#1a2424" stroke="none" stroke-width="0" stroke-linecap="butt"/><path d="M229.41667,277.30884c0,0 0,-94.30478 0,-113.83334c0,-2.56438 -0.10611,-10.26878 1.36177,-18.43497c1.00708,-5.60261 2.70588,-9.07948 3.88548,-14.13512c1.63783,-7.01961 4.58608,-13.26325 4.58608,-13.26325" fill="none" stroke-opacity="0.16078" stroke="#ffffff" stroke-width="2" stroke-linecap="round"/><path d="M212.41667,300.97547c0,0 1.16667,-3.19787 1.16667,-4.83333c0,-8.50403 0,-79.91056 0,-107.33333c0,-2.57105 1.0951,-4.38719 1.61877,-5.85047c0.823,-2.29971 1.21456,-3.48286 1.21456,-3.48286" fill="none" stroke-opacity="0.16078" stroke="#ffffff" stroke-width="1.5" stroke-linecap="round"/><path d="M257.58334,300.64216c0,0 1,-3.03121 1,-4.66667c0,-8.50403 0,-79.91056 0,-107.33334c0,-2.57105 1.0951,-4.38719 1.61877,-5.85047c0.823,-2.29971 1.21456,-3.48286 1.21456,-3.48286" fill="none" stroke-opacity="0.16078" stroke="#ffffff" stroke-width="1.5" stroke-linecap="round"/><path d="M235.06221,223.43449c0,0 3.38124,-1.46846 4.99829,-1.50192c1.60803,-0.03327 4.8773,1.63537 4.8773,1.63537" fill="none" stroke="#2f432a" stroke-width="1.5" stroke-linecap="round"/><path d="M201,323.56051v-247.82453h78v247.82453z" fill="none" stroke="none" stroke-width="NaN" stroke-linecap="butt"/><path d="M215.98413,275.63561v-1.70525h3.37301v1.70525z" fill="#4e6f46" stroke="none" stroke-width="0" stroke-linecap="butt"/></g></g></svg>