<svg version="1.1" xmlns="http://www.w3.org/2000/svg" xmlns:xlink="http://www.w3.org/1999/xlink" width="94.71429" height="69.61904" viewBox="0,0,94.71429,69.61904"><g transform="translate(-158.80952,-145.52382)"><g data-paper-data="{&quot;isPaintingLayer&quot;:true}" fill-rule="nonzero" stroke-linejoin="miter" stroke-miterlimit="10" stroke-dasharray="" stroke-dashoffset="0" style="mix-blend-mode: normal"><path d="M158.80952,215.14286v-69.61904h94.71429v69.61904z" fill="none" stroke="none" stroke-width="0" stroke-linecap="butt"/><path d="M230.02715,186.35644l-12.04619,12.04621" fill="none" stroke="#411f1f" stroke-width="2.5" stroke-linecap="round"/><path d="M218.64466,185.9914l-12.47759,12.47762" fill="none" stroke="#411f1f" stroke-width="2.5" stroke-linecap="round"/><path d="M206.39935,185.89184l-12.77627,12.77628" fill="none" stroke="#411f1f" stroke-width="2.5" stroke-linecap="round"/><path d="M194.71817,185.95822l-12.64352,12.64353" fill="none" stroke="#411f1f" stroke-width="2.5" stroke-linecap="round"/><g stroke="none" stroke-width="0" stroke-linecap="butt"><path d="M235.93236,183.56969c0,-0.84306 0.68344,-1.52652 1.52652,-1.52652c0.84308,0 1.52652,0.68345 1.52652,1.52652c0,0.84306 -0.68344,1.52652 -1.52652,1.52652c-0.84308,0 -1.52652,-0.68345 -1.52652,-1.52652z" fill="#411f1f"/><path d="M235.93236,200.02602c0,-0.84308 0.68344,-1.52652 1.52652,-1.52652c0.84308,0 1.52652,0.68344 1.52652,1.52652c0,0.84306 -0.68344,1.52652 -1.52652,1.52652c-0.84308,0 -1.52652,-0.68345 -1.52652,-1.52652z" fill="#411f1f"/><path d="M227.81772,199.9876c0,-0.84308 0.68344,-1.52652 1.52652,-1.52652c0.84308,0 1.52652,0.68344 1.52652,1.52652c0,0.84308 -0.68344,1.52652 -1.52652,1.52652c-0.84308,0 -1.52652,-0.68344 -1.52652,-1.52652z" fill="#74909e"/><path d="M227.81772,199.785v-15.9079h11.16767v15.9079z" fill="#411f1f"/><path d="M229.463,201.53126l-0.76326,-18.72562l8.66131,-0.72087v19.44648z" fill="#74909e"/></g><path d="M182.53923,186.02459l12.04619,12.04619" fill="none" stroke="#411f1f" stroke-width="2.5" stroke-linecap="round"/><path d="M194.25359,185.9914l11.61479,11.6148" fill="none" stroke="#411f1f" stroke-width="2.5" stroke-linecap="round"/><path d="M218.14687,198.07078l-12.04619,-12.04619" fill="none" stroke="#411f1f" stroke-width="2.5" stroke-linecap="round"/><path d="M219.10925,186.62191l12.04621,12.04621" fill="none" stroke="#411f1f" stroke-width="2.5" stroke-linecap="round"/><path d="M178.00102,186.55556v-2.32296h50.20095v2.32296z" fill="#411f1f" stroke="none" stroke-width="0" stroke-linecap="butt"/><path d="M178.29895,200.16145v-2.92029h50.36761v2.92029z" fill="#411f1f" stroke="none" stroke-width="0" stroke-linecap="butt"/><path d="M227.02128,183.55572c0,-0.84306 0.68345,-1.52652 1.52652,-1.52652c0.84306,0 1.52652,0.68345 1.52652,1.52652c0,0.84306 -0.68345,1.52652 -1.52652,1.52652c-0.84306,0 -1.52652,-0.68345 -1.52652,-1.52652z" fill="#411f1f" stroke="none" stroke-width="0" stroke-linecap="butt"/><path d="M235.13591,183.52729c0,-0.84306 0.68344,-1.52652 1.52652,-1.52652c0.84308,0 1.52652,0.68345 1.52652,1.52652c0,0.84306 -0.68344,1.52652 -1.52652,1.52652c-0.84308,0 -1.52652,-0.68345 -1.52652,-1.52652z" fill="#411f1f" stroke="none" stroke-width="0" stroke-linecap="butt"/><path d="M235.13591,199.98361c0,-0.84308 0.68344,-1.52652 1.52652,-1.52652c0.84308,0 1.52652,0.68344 1.52652,1.52652c0,0.84306 -0.68344,1.52652 -1.52652,1.52652c-0.84308,0 -1.52652,-0.68345 -1.52652,-1.52652z" fill="#411f1f" stroke="none" stroke-width="0" stroke-linecap="butt"/><path d="M227.02128,199.94519c0,-0.84308 0.68344,-1.52652 1.52652,-1.52652c0.84308,0 1.52652,0.68344 1.52652,1.52652c0,0.84308 -0.68344,1.52652 -1.52652,1.52652c-0.84308,0 -1.52652,-0.68344 -1.52652,-1.52652z" fill="#411f1f" stroke="none" stroke-width="0" stroke-linecap="butt"/><path d="M227.02128,199.74259v-16.16232h11.16767v16.16232z" fill="#411f1f" stroke="none" stroke-width="0" stroke-linecap="butt"/><path d="M228.66656,201.48887v-19.44648h7.89806v19.44648z" fill="#411f1f" stroke="none" stroke-width="0" stroke-linecap="butt"/></g></g></svg>