<svg version="1.1" xmlns="http://www.w3.org/2000/svg" xmlns:xlink="http://www.w3.org/1999/xlink" width="32.18964" height="64.33827" viewBox="0,0,32.18964,64.33827"><g transform="translate(-225.58552,-150.33087)"><g data-paper-data="{&quot;isPaintingLayer&quot;:true}" fill-rule="nonzero" stroke-linejoin="miter" stroke-miterlimit="10" stroke-dasharray="" stroke-dashoffset="0" style="mix-blend-mode: normal"><path d="M225.58552,208.32315c0,-13.44895 0,-44.19668 0,-51.64628c0,-3.17904 1.18659,-6.346 3.08653,-6.346c6.68138,0 22.18448,0 25.92809,0c1.59053,0 3.17502,3.16696 3.17502,6.346c0,7.51567 0,38.74459 0,52.00002c0,3.69408 -1.53433,5.99225 -3.08653,5.99225c-3.69771,0 -19.17433,0 -25.92808,0c-1.95175,0 -3.17502,-2.44546 -3.17502,-6.34599z" fill="#272727" stroke="none" stroke-width="0" stroke-linecap="butt"/><path d="M245.57923,212.41714c0,0 -0.0051,-1.01308 0.07005,-1.37099c0.06273,-0.29881 0.36462,-0.71719 0.36462,-0.71719l2.41002,0.0143c0,0 0.32534,0.48515 0.37822,0.82862c0.04968,0.32268 0.0985,1.27873 0.0985,1.27873z" data-paper-data="{&quot;index&quot;:null}" fill="#2c3132" stroke="none" stroke-width="0" stroke-linecap="butt"/><path d="M235.15405,212.4506c0,0 0.04881,-0.95604 0.0985,-1.27873c0.05288,-0.34347 0.37822,-0.82862 0.37822,-0.82862l2.41002,-0.0143c0,0 0.30189,0.41837 0.36462,0.71719c0.07514,0.35792 0.07005,1.37099 0.07005,1.37099z" fill="#2c3132" stroke="none" stroke-width="0" stroke-linecap="butt"/><path d="M239.89814,212.84861c0,0 0.06087,-1.1444 0.12281,-1.54467c0.06594,-0.42606 0.34896,-1.02785 0.34896,-1.02785l3.12768,-0.01774c0,0 0.17202,0.685 0.25025,1.05566c0.09369,0.44397 0.1691,1.5346 0.1691,1.5346z" fill="#2c3132" stroke="none" stroke-width="0" stroke-linecap="butt"/><path d="M245.85123,210.54513l-0.61728,-1.30313h3.978l-0.61728,1.30313z" fill="#222627" stroke="none" stroke-width="0" stroke-linecap="butt"/><path d="M235.49474,210.81947l-0.61728,-1.30313h3.978l-0.61728,1.30313z" fill="#222627" stroke="none" stroke-width="0" stroke-linecap="butt"/><path d="M236.59212,189.62637l1.85182,-11.3853h0.41152v11.3853z" data-paper-data="{&quot;index&quot;:null}" fill="#97af98" stroke="none" stroke-width="NaN" stroke-linecap="butt"/><path d="M245.02821,189.62637v-11.3853h0.41152l1.85182,11.3853z" fill="#97af98" stroke="none" stroke-width="NaN" stroke-linecap="butt"/><path d="M238.51253,193.67294v-10.49368h6.85862v10.49368z" fill="#20b847" stroke="none" stroke-width="0" stroke-linecap="butt"/><path d="M238.5011,183.05443v-9.23627h6.95006v9.23627z" fill="#4db881" stroke="none" stroke-width="0" stroke-linecap="butt"/><path d="M238.51024,174.40025l-0.42066,-0.36579h7.77309l-0.38408,0.36579z" fill="#108c19" stroke="none" stroke-width="0" stroke-linecap="butt"/><path d="M238.11564,163.71265v-4.56749h7.74555v4.56749z" fill="#169114" stroke="none" stroke-width="0" stroke-linecap="butt"/><path d="M243.23291,153.88094c0,0 0.60258,1.11501 0.94944,1.82c0.48104,0.97772 1.66827,3.50052 1.66827,3.50052l-7.75954,-0.00795c0,0 1.15305,-2.51941 1.63647,-3.49569c0.34852,-0.70384 0.99414,-1.81689 0.99414,-1.81689c0,0 0.18031,-0.34536 0.46757,-0.51925c0.23467,-0.14205 0.56164,-0.21031 0.74662,-0.21031c0.18701,0 0.55472,0.06269 0.80235,0.20103c0.3154,0.17621 0.49468,0.52853 0.49468,0.52853z" fill="#145b13" stroke="#ff3600" stroke-width="0" stroke-linecap="round"/><path d="M242.79917,160.53532v-0.91449h1.28027v0.91449z" fill="#066d06" stroke="none" stroke-width="0" stroke-linecap="butt"/><path d="M238.10101,173.50863v-9.73923h7.75023v9.73923z" fill="#1db61c" stroke="none" stroke-width="0" stroke-linecap="butt"/><path d="M238.11243,164.13518v-0.54869h7.75023v0.54869z" fill="#39f834" stroke="none" stroke-width="0" stroke-linecap="butt"/><path d="M240.31863,165.82698v-1.44031h2.9492v1.44031z" fill="#169114" stroke="none" stroke-width="0" stroke-linecap="butt"/><path d="M244.68528,165.82698v-1.44031h1.14726v1.44031z" fill="#169114" stroke="none" stroke-width="0" stroke-linecap="butt"/><path d="M238.12594,165.82698v-1.44031h1.14726v1.44031z" data-paper-data="{&quot;index&quot;:null}" fill="#169114" stroke="none" stroke-width="0" stroke-linecap="butt"/><path d="M238.08958,174.12916v-1.26982h7.77309v1.26982z" fill="#4df34e" stroke="none" stroke-width="0" stroke-linecap="butt"/><path d="M238.56511,173.49948v-0.62707h0.4703v0.62707z" fill="#006f00" stroke="none" stroke-width="0" stroke-linecap="butt"/><path d="M238.09743,174.12916v-0.62707h0.4703v0.62707z" fill="#006f00" stroke="none" stroke-width="0" stroke-linecap="butt"/><path d="M245.68501,174.12656v-0.62708h0.18289v0.62708z" fill="#006f00" stroke="none" stroke-width="0" stroke-linecap="butt"/><g fill="#006f00" stroke="none" stroke-width="0" stroke-linecap="butt"><path d="M239.51226,173.49948v-0.62707h0.4703v0.62707z"/><path d="M239.04455,174.12916v-0.62707h0.4703v0.62707z"/></g><g fill="#006f00" stroke="none" stroke-width="0" stroke-linecap="butt"><path d="M240.45939,173.49948v-0.62707h0.4703v0.62707z"/><path d="M239.9917,174.12916v-0.62707h0.4703v0.62707z"/></g><g fill="#006f00" stroke="none" stroke-width="0" stroke-linecap="butt"><path d="M241.41307,173.49948v-0.62707h0.4703v0.62707z"/><path d="M240.94538,174.12916v-0.62707h0.4703v0.62707z"/></g><g fill="#006f00" stroke="none" stroke-width="0" stroke-linecap="butt"><path d="M242.35368,173.49948v-0.62707h0.4703v0.62707z"/><path d="M241.88598,174.12916v-0.62707h0.4703v0.62707z"/></g><g fill="#006f00" stroke="none" stroke-width="0" stroke-linecap="butt"><path d="M243.30734,173.48642v-0.62708h0.4703v0.62708z"/><path d="M242.83966,174.1161v-0.62707h0.4703v0.62707z"/></g><g fill="#006f00" stroke="none" stroke-width="0" stroke-linecap="butt"><path d="M244.26103,173.49948v-0.62707h0.4703v0.62707z"/><path d="M243.79333,174.12916v-0.62707h0.4703v0.62707z"/></g><g fill="#006f00" stroke="none" stroke-width="0" stroke-linecap="butt"><path d="M245.2147,173.49948v-0.62707h0.4703v0.62707z"/><path d="M244.747,174.12916v-0.62707h0.4703v0.62707z"/></g><path d="M241.01592,177.28405v-0.54869h1.92041v0.54869z" fill="#006309" stroke="none" stroke-width="0" stroke-linecap="butt"/><path d="M241.01592,178.16195v-0.54869h1.92041v0.54869z" fill="#077410" stroke="none" stroke-width="0" stroke-linecap="butt"/><path d="M241.01592,179.03985v-0.54869h1.92041v0.54869z" fill="#158f24" stroke="none" stroke-width="0" stroke-linecap="butt"/><path d="M241.01592,179.97262v-0.54869h1.92041v0.54869z" fill="#27ab2d" stroke="none" stroke-width="0" stroke-linecap="butt"/><path d="M238.49196,183.3393v-0.32921h6.96835v0.32921z" fill="#19a259" stroke="none" stroke-width="0" stroke-linecap="butt"/><path d="M244.75387,193.05567l0.54869,-3.56648h2.05759c0,0 0.78788,1.07215 1.12707,1.71875c0.38626,0.7363 0.72475,1.84773 0.72475,1.84773z" fill="#78b174" stroke="none" stroke-width="0" stroke-linecap="butt"/><path d="M234.6717,193.05567c0,0 0.33849,-1.11143 0.72475,-1.84773c0.3392,-0.6466 1.12708,-1.71876 1.12708,-1.71876h2.05759l0.54869,3.56648z" data-paper-data="{&quot;index&quot;:null}" fill="#78b174" stroke="none" stroke-width="0" stroke-linecap="butt"/><path d="M234.36618,194.15305c0,0 0.03908,-0.43206 0.09281,-0.62234c0.04916,-0.17407 0.2171,-0.47504 0.2171,-0.47504h4.52229v1.09738z" fill="#30eba1" stroke="none" stroke-width="0" stroke-linecap="butt"/><path d="M241.84028,209.45751c0,0 -2.12275,-4.69245 -1.39471,-9.43692c0.78779,-5.13387 -0.91733,-7.42575 -0.88,-7.47092c0.03212,-0.03887 -0.41135,-3.66731 -0.35383,-3.79764c0.05365,-0.12153 -0.08596,-1.47669 -0.07964,-1.50749c0.18681,-0.91053 0.38993,-4.42123 0.38441,-4.55224c-0.02785,-0.66102 0.01996,-2.51294 -0.03639,-3.88647c-0.01151,-0.28051 -0.00297,-0.52253 -0.04732,-0.74614c-0.08806,-0.44397 -0.02145,-0.80722 -0.02102,-0.83233c0.01062,-0.61391 -0.04357,-2.26793 -0.00122,-2.41899c0.07065,-0.25202 0.01829,-0.46127 0.0172,-0.60269c-0.01771,-2.3068 -0.10817,-14.8499 -0.04842,-14.98449c0.17595,-0.39631 0.98291,-2.21385 1.26332,-2.84543c0.06038,-0.13599 1.05856,-2.26273 1.05856,-2.26273" fill="none" stroke-opacity="0.16078" stroke="#ffffff" stroke-width="1" stroke-linecap="round"/><path d="M244.73641,194.09818v-1.09738h4.4581c0,0 0.16556,0.30097 0.21402,0.47504c0.05298,0.19028 0.0915,0.62234 0.0915,0.62234z" data-paper-data="{&quot;index&quot;:null}" fill="#30eba1" stroke="none" stroke-width="0" stroke-linecap="butt"/><path d="M234.37678,196.96508v-2.85318h10.47996v2.85318z" fill="#1fc182" stroke="none" stroke-width="0" stroke-linecap="butt"/><path d="M244.747,196.91021v-2.85318h4.71872v2.85318z" fill="#1fc182" stroke="none" stroke-width="0" stroke-linecap="butt"/><path d="M240.22836,210.88806l-0.75563,-1.59522h4.86962l-0.75563,1.59522z" fill="#222627" stroke="none" stroke-width="0" stroke-linecap="butt"/><path d="M234.39735,209.66723v-12.83932h15.02037v12.83932z" fill="#168b5b" stroke="none" stroke-width="0" stroke-linecap="butt"/><path d="M239.06121,194.08447v-1.09738h5.76124v1.09738z" fill="#30eba1" stroke="none" stroke-width="0" stroke-linecap="butt"/><path d="M234.41108,209.7221v-1.64607c0,0 0.98229,0 1.90669,0c0.26958,0 0.53424,0.65843 0.76816,0.65843c1.43681,0 5.14396,0.05487 5.14396,0.05487v0.93277z" fill="#0d4408" stroke="none" stroke-width="0" stroke-linecap="butt"/><path d="M241.59889,209.7221v-0.93277c0,0 3.70715,-0.05487 5.14396,-0.05487c0.23393,0 0.49858,-0.65843 0.76816,-0.65843c0.9244,0 1.90669,0 1.90669,0v1.64607z" data-paper-data="{&quot;index&quot;:null}" fill="#0d4408" stroke="none" stroke-width="0" stroke-linecap="butt"/><path d="M240.28433,209.12363v-12.29978h3.38358v12.29978z" fill="#0d4408" stroke="#817d7b" stroke-width="0" stroke-linecap="butt"/><path d="M248.97191,200.26722v-0.93277h0.32921v0.93277z" fill="#0d4408" stroke="none" stroke-width="0" stroke-linecap="butt"/><path d="M234.53717,205.24762v-0.93277h0.32921v0.93277z" fill="#0d4408" stroke="none" stroke-width="0" stroke-linecap="butt"/><path d="M235.25469,208.94341c0,0 -0.61314,-9.27884 0.0622,-15.52117c0.11032,-1.01981 2.0174,-3.72092 2.09235,-4.4125c0.31566,-2.9124 0.7535,-6.89723 0.7535,-6.89723" fill="none" stroke-opacity="0.16078" stroke="#ffffff" stroke-width="0.5" stroke-linecap="round"/><path d="M245.69915,182.00278c0,0 0.43784,3.98483 0.7535,6.89723c0.07495,0.69158 1.98202,3.39269 2.09235,4.4125c0.67533,6.24233 0.0622,15.52117 0.0622,15.52117" data-paper-data="{&quot;index&quot;:null}" fill="none" stroke-opacity="0.16078" stroke="#ffffff" stroke-width="0.5" stroke-linecap="round"/></g></g></svg>