<svg version="1.1" xmlns="http://www.w3.org/2000/svg" xmlns:xlink="http://www.w3.org/1999/xlink" width="97.33334" height="247.82453" viewBox="0,0,97.33334,247.82453"><defs><linearGradient x1="226.95091" y1="295.63005" x2="226.95091" y2="299.72279" gradientUnits="userSpaceOnUse" id="color-1"><stop offset="0" stop-color="#fa0000"/><stop offset="1" stop-color="#cd0000"/></linearGradient><linearGradient x1="226.88447" y1="291.94656" x2="226.88447" y2="296.38039" gradientUnits="userSpaceOnUse" id="color-2"><stop offset="0" stop-color="#ff0000"/><stop offset="1" stop-color="#ef0000"/></linearGradient></defs><g transform="translate(-191.86668,-79.43598)"><g data-paper-data="{&quot;isPaintingLayer&quot;:true}" fill-rule="nonzero" stroke-linejoin="miter" stroke-miterlimit="10" stroke-dasharray="" stroke-dashoffset="0" style="mix-blend-mode: normal"><path d="M232.92598,314.67665c0,0 0.01763,-4.18393 1.08208,-7.42824c0.67399,-2.05432 2.28933,-3.73188 2.92357,-3.73188c1.23101,0 3.5586,0 5.66014,0c0.93274,0 2.60465,1.81321 3.33267,3.97791c1.07811,3.20567 1.02128,7.1822 1.02128,7.1822z" fill="#2c3132" stroke="none" stroke-width="0" stroke-linecap="butt"/><path d="M229.63099,305.6647l-3.51492,-5.15521h27.76786l-3.39775,5.15521z" fill="#2b1d19" stroke="none" stroke-width="0" stroke-linecap="butt"/><path d="M220.4375,300.62501v-4.125h40.125v4.125z" fill="#4b3c36" stroke="none" stroke-width="0" stroke-linecap="butt"/><path d="M218.41667,310.70833v-10.55555h10.55555z" data-paper-data="{&quot;index&quot;:null}" fill="#261c18" stroke="none" stroke-width="0" stroke-linecap="butt"/><path d="M251.02778,300.04168h10.55555v10.55555z" fill="#261c18" stroke="none" stroke-width="0" stroke-linecap="butt"/><path d="M259.89978,317.18509c0,0 -0.04558,-3.18954 0.81916,-5.76079c0.58394,-1.73629 1.92497,-3.19066 2.67311,-3.19066c1.68564,0 3.55257,0 4.53996,0c0.50872,0 1.80437,1.34556 2.34497,2.99332c0.85378,2.60224 0.86793,5.95814 0.86793,5.95814z" data-paper-data="{&quot;index&quot;:null}" fill="#2c3132" stroke="none" stroke-width="0" stroke-linecap="butt"/><path d="M208.97714,317.1851c0,0 0.01415,-3.3559 0.86793,-5.95814c0.5406,-1.64776 1.83625,-2.99332 2.34497,-2.99332c0.98739,0 2.85432,0 4.53996,0c0.74814,0 2.08917,1.45437 2.67311,3.19066c0.86474,2.57125 0.81916,5.76079 0.81916,5.76079z" fill="#2c3132" stroke="none" stroke-width="0" stroke-linecap="butt"/><path d="M257.17416,311.37073l1.92797,-8.55555h12.92874l1.58774,8.55555z" data-paper-data="{&quot;index&quot;:null}" fill="#4f4036" stroke="none" stroke-width="0" stroke-linecap="butt"/><path d="M206.40749,311.37073l1.58774,-8.55556h12.92874l1.92797,8.55556z" fill="#4f4036" stroke="none" stroke-width="0" stroke-linecap="butt"/><path d="M214.72186,292.17479v-43.25h54v43.25z" fill="#7b5025" stroke="none" stroke-width="0" stroke-linecap="butt"/><path d="M251.4,250.825v-31l9.75,31z" fill="#a86424" stroke="none" stroke-width="0" stroke-linecap="butt"/><path d="M217.72186,259.92478v-3.25h47.5v3.25z" fill="#5d3518" stroke="none" stroke-width="0" stroke-linecap="butt"/><path d="M218.85,250.575l9.75,-31v31z" data-paper-data="{&quot;index&quot;:null}" fill="#a86424" stroke="none" stroke-width="0" stroke-linecap="butt"/><path d="M217.22186,297.17478v-29.5h46.75v29.5z" fill="#643918" stroke="none" stroke-width="0" stroke-linecap="butt"/><path d="M230.10064,297.2442c0,0 0.33657,-25.04971 0.05023,-38.32328c-0.03227,-1.49605 -1.80023,-2.92296 -1.80023,-4.24614c0,-15.3807 0,-50.2356 0,-50.2356h23.29873c0,0 0,34.41034 0,49.7356c0,1.54136 -1.77397,3.22506 -1.81629,4.99668c-0.31933,13.36709 0.06629,37.96161 0.06629,37.96161z" fill="#847261" stroke="none" stroke-width="0" stroke-linecap="butt"/><path d="M228.35063,219.08528v-48.12168h23.29873v48.12168z" fill="#a76421" stroke="none" stroke-width="0" stroke-linecap="butt"/><path d="M228.24176,185.44365l-6.31461,-3.48392h36.1457l-6.7501,3.48392z" fill="#5d3d17" stroke="none" stroke-width="0" stroke-linecap="butt"/><path d="M229.65711,164.64898v-45.07324c0,0 6.91273,-1.08873 10.36384,-1.08873c3.44413,0 10.32195,1.08873 10.32195,1.08873v45.07325z" fill="#42332b" stroke="none" stroke-width="NaN" stroke-linecap="butt"/><path d="M221.9481,182.17747v-29.17785h35.92795v29.17785z" fill="#7d4e27" stroke="none" stroke-width="0" stroke-linecap="butt"/><path d="M231.52888,153.21737v-17.8551h15.24216v17.8551z" fill="#48392f" stroke="none" stroke-width="0" stroke-linecap="butt"/><g stroke="none" stroke-width="0" stroke-linecap="butt"><path d="M225.50009,168.95v-4.6h28v4.6z" fill="#b67f3a"/><g fill="#290900"><path d="M227.29652,166.64331v-2.28571h1.71428v2.28571z"/><path d="M225.59175,168.93854v-2.28571h1.71429v2.28571z"/></g><g fill="#290900"><path d="M230.69652,166.64331v-2.28571h1.71428v2.28571z"/><path d="M228.99175,168.93854v-2.28571h1.71429v2.28571z"/></g><g><path d="M234.09652,166.64331v-2.28571h1.71428v2.28571z" fill="#5b3100"/><path d="M232.39175,168.93854v-2.28571h1.71429v2.28571z" fill="#290900"/></g><g fill="#5b3100"><path d="M237.49652,166.64331v-2.28571h1.71428v2.28571z"/><path d="M235.79175,168.93854v-2.28571h1.71429v2.28571z"/></g><g fill="#5b3100"><path d="M240.89652,166.64331v-2.28571h1.71428v2.28571z"/><path d="M239.19175,168.93854v-2.28571h1.71429v2.28571z"/></g><g fill="#5b3100"><path d="M244.29652,166.64331v-2.28571h1.71428v2.28571z"/><path d="M242.59175,168.93854v-2.28571h1.71429v2.28571z"/></g><g fill="#290900"><path d="M247.69652,166.64331v-2.28571h1.71428v2.28571z"/><path d="M245.99175,168.93854v-2.28571h1.71429v2.28571z"/></g><g fill="#290900"><path d="M251.29597,166.64331v-2.28571h1.91484v2.28571z"/><path d="M249.39175,168.93854v-2.28571h1.91484v2.28571z"/></g></g><path d="M231.96438,156.04805v-6.31461h17.20187v6.31461z" fill="#613c19" stroke="none" stroke-width="0" stroke-linecap="butt"/><path d="M245.66137,142.58011v-39.19413c0,0 1.00281,0.17774 1.58954,1.93793c1.88493,5.65479 11.47517,37.2562 11.47517,37.2562z" fill="#524339" stroke="none" stroke-width="0" stroke-linecap="butt"/><path d="M233.48859,150.82216v-1.74196h13.5002v1.74196z" fill="#6a4b31" stroke="none" stroke-width="0" stroke-linecap="butt"/><path d="M221.27392,142.58011c0,0 9.59024,-31.60141 11.47517,-37.2562c0.58673,-1.7602 1.58954,-1.93794 1.58954,-1.93794v39.19413z" data-paper-data="{&quot;index&quot;:null}" fill="#524339" stroke="none" stroke-width="0" stroke-linecap="butt"/><path d="M221.29486,182.61296v-40.28285h13.06471v40.28285z" fill="#cb8c4e" stroke="none" stroke-width="0" stroke-linecap="butt"/><path d="M245.67418,182.60481v-40.28285h13.06471v40.28285z" fill="#cb8c4e" stroke="none" stroke-width="0" stroke-linecap="butt"/><path d="M221.29486,183.04845v-1.08873h37.45217v1.08873z" fill="#583717" stroke="none" stroke-width="0" stroke-linecap="butt"/><path d="M228.36696,220.50062v-1.74196h23.28023v1.74196z" fill="#624226" stroke="none" stroke-width="0" stroke-linecap="butt"/><path d="M222.125,149.25v-4.25h2.5v4.25z" fill="#a26a2f" stroke="none" stroke-width="0" stroke-linecap="butt"/><path d="M254.31944,151.5v-5h2.36111v5z" fill="#a26a2f" stroke="none" stroke-width="0" stroke-linecap="butt"/><path d="M221.29486,164.57545v-9.10785h13.06471v9.10785z" fill="#847363" stroke="none" stroke-width="0" stroke-linecap="butt"/><path d="M245.58057,164.57545v-9.10785h13.06471v9.10785z" fill="#847363" stroke="none" stroke-width="0" stroke-linecap="butt"/><path d="M245.58058,156.14689v-1.10785h13.06471v1.10785z" fill="#865f3e" stroke="none" stroke-width="0" stroke-linecap="butt"/><path d="M245.58058,165.14689v-1.10785h13.06471v1.10785z" fill="#865f3e" stroke="none" stroke-width="0" stroke-linecap="butt"/><path d="M221.29486,165.14689v-1.10785h13.06471v1.10785z" fill="#865f3e" stroke="none" stroke-width="0" stroke-linecap="butt"/><path d="M221.29486,156.14689v-1.10785h13.06471v1.10785z" fill="#865f3e" stroke="none" stroke-width="0" stroke-linecap="butt"/><path d="M223.125,162.75v-4h2v4z" fill="#6b574e" stroke="none" stroke-width="0" stroke-linecap="butt"/><path d="M255.125,161.25v-3.75h2v3.75z" fill="#6b574e" stroke="none" stroke-width="0" stroke-linecap="butt"/><path d="M226.375,167.75v-1.5h4.25v1.5z" fill="#a26a2f" stroke="none" stroke-width="0" stroke-linecap="butt"/><path d="M252.625,168.25002v-1.25h3.25v1.25z" fill="#a26a2f" stroke="none" stroke-width="0" stroke-linecap="butt"/><path d="M237.125,192.62502v-1.75h5.75v1.75z" fill="#6d3a03" stroke="none" stroke-width="0" stroke-linecap="butt"/><path d="M237.125,195.12502v-1.75h5.75v1.75z" fill="#7d4c1c" stroke="none" stroke-width="0" stroke-linecap="butt"/><path d="M237.125,197.62502v-1.75h5.75v1.75z" fill="#8c5a27" stroke="none" stroke-width="0" stroke-linecap="butt"/><path d="M207.95,283.85002v-44.2h13v44.2z" fill="#cb8c4e" stroke="none" stroke-width="0" stroke-linecap="butt"/><path d="M259.05,283.85002v-44.2h13v44.2z" fill="#cb8c4e" stroke="none" stroke-width="0" stroke-linecap="butt"/><path d="M259.16137,239.83011v-39.19413c0,0 1.00281,0.17774 1.58954,1.93793c1.88493,5.65479 11.47517,37.2562 11.47517,37.2562z" fill="#524339" stroke="none" stroke-width="0" stroke-linecap="butt"/><path d="M207.91137,239.83011c0,0 9.59024,-31.60141 11.47517,-37.2562c0.58673,-1.76019 1.58954,-1.93793 1.58954,-1.93793v39.19413z" data-paper-data="{&quot;index&quot;:null}" fill="#524339" stroke="none" stroke-width="0" stroke-linecap="butt"/><path d="M208.04486,262.07545v-9.10785h13.06471v9.10785z" fill="#847363" stroke="none" stroke-width="0" stroke-linecap="butt"/><path d="M208.04486,262.64689v-1.10785h13.06471v1.10785z" fill="#865f3e" stroke="none" stroke-width="0" stroke-linecap="butt"/><path d="M208.04486,253.64688v-1.10785h13.06471v1.10785z" fill="#865f3e" stroke="none" stroke-width="0" stroke-linecap="butt"/><path d="M209.875,260.25001v-4h2v4z" fill="#6b574e" stroke="none" stroke-width="0" stroke-linecap="butt"/><g data-paper-data="{&quot;index&quot;:null}" stroke="none" stroke-width="0" stroke-linecap="butt"><path d="M259.002,262.07545v-9.10785h13.06471v9.10785z" fill="#847363"/><path d="M259.002,262.64689v-1.10785h13.06471v1.10785z" fill="#865f3e"/><path d="M259.002,253.64689v-1.10785h13.06471v1.10785z" fill="#865f3e"/><path d="M268.23657,260.25001v-4h2v4z" fill="#6b574e"/></g><path d="M208.0052,302.80001v-22.6h13v22.6z" fill="#3a2b23" stroke="none" stroke-width="0" stroke-linecap="butt"/><path d="M259.03853,302.80001v-22.6h13v22.6z" fill="#3a2b23" stroke="none" stroke-width="0" stroke-linecap="butt"/><path d="M207.71409,304.01018v-11.92419h13.56471v11.92419z" fill="#2b211a" stroke="none" stroke-width="0" stroke-linecap="butt"/><path d="M258.76537,304.01018v-11.92419h13.56471v11.92419z" fill="#2b211a" stroke="none" stroke-width="0" stroke-linecap="butt"/><path d="M208.625,246.25001v-3.5h2.25v3.5z" fill="#b77a3f" stroke="none" stroke-width="0" stroke-linecap="butt"/><path d="M270.375,250.75001v-3.75h1.5v3.75z" fill="#b77a3f" stroke="none" stroke-width="0" stroke-linecap="butt"/><path d="M212.125,272.25001v-4h3.5v4z" fill="#b77a3f" stroke="none" stroke-width="0" stroke-linecap="butt"/><path d="M266.375,271.50001v-3.5h1.25v3.5z" fill="#b77a3f" stroke="none" stroke-width="0" stroke-linecap="butt"/><g><path d="M248.62691,285.32997c0,0 1.18998,0.80222 2.01618,2.97062c0.52739,1.38416 0.62364,3.81001 1.08795,5.36134c0.70168,2.34438 0.79696,4.56089 1.06255,5.68623c0.22518,0.95413 0.04541,2.30959 -0.0701,2.88555c-0.05866,0.29249 -6.83827,0.24603 -8.93971,0.22458c-0.16876,-0.00172 -0.96902,-0.31219 -1.58567,-1.12132c-0.79273,-1.0402 -1.21095,-2.63739 -1.21095,-2.63739z" data-paper-data="{&quot;index&quot;:null}" fill="#583d21" stroke="#907056" stroke-width="0.5" stroke-linecap="round"/><path d="M238.70263,298.56316c0,0 -0.41822,1.59719 -1.21095,2.63739c-0.61665,0.80914 -1.4169,1.1196 -1.58567,1.12132c-2.10144,0.02145 -8.88106,0.06791 -8.93971,-0.22458c-0.11551,-0.57596 -0.29528,-1.93143 -0.0701,-2.88555c0.26557,-1.12533 0.36087,-3.34185 1.06255,-5.68623c0.46431,-1.55133 0.56055,-3.97718 1.08795,-5.36134c0.8262,-2.16841 2.01618,-2.97062 2.01618,-2.97062z" fill="#583d21" stroke="#907056" stroke-width="0.5" stroke-linecap="round"/><path d="M226.03973,296.5168c0,0 -0.10273,-2.50509 0.2132,-3.81282c0.14042,-0.58124 0.55553,-0.62097 0.67356,-0.62097c0.10118,0 0.45021,0.1433 0.60293,0.69934c0.35785,1.30297 0.35205,3.73447 0.35205,3.73447" fill="none" stroke="#907056" stroke-width="1" stroke-linecap="round"/><path d="M224.90454,297.67641c0,-1.13017 0.91619,-2.04637 2.04637,-2.04637c1.13017,0 2.04637,0.91619 2.04637,2.04637c0,1.13017 -0.91619,2.04637 -2.04637,2.04637c-1.13017,0 -2.04637,-0.91619 -2.04637,-2.04637z" fill="url(#color-1)" stroke="#907056" stroke-width="0.5" stroke-linecap="butt"/><path d="M225.97159,296.38039c0,0 -0.10273,-2.50509 0.2132,-3.81282c0.14042,-0.58124 0.55553,-0.62097 0.67356,-0.62097c0.10118,0 0.45021,0.1433 0.60293,0.69934c0.35785,1.30297 0.35205,3.73447 0.35205,3.73447" fill="none" stroke="url(#color-2)" stroke-width="0.5" stroke-linecap="round"/><path d="M250.03641,296.78387c0,-0.76498 0.73694,-1.86503 1.29595,-2.89862c0.48944,-0.90494 0.75584,-1.80224 1.42561,-1.80224c0.68575,0 0.53894,1.11726 0.97373,2.05293c0.4749,1.02197 1.5004,1.89894 1.5004,2.64793c0,1.43476 -1.16309,2.59785 -2.59785,2.59785c-1.43476,0 -2.59785,-1.16311 -2.59785,-2.59785z" fill="#ffffff" stroke="#907056" stroke-width="0.5" stroke-linecap="butt"/></g><path d="M231.76667,251.93335l-0.6923,-65.44616c0,0 -1.00743,-1.07457 -6.9077,-7.95385c-0.35826,-0.41771 0,-37.73333 0,-37.73333l6.86667,-27.33334" fill="none" stroke-opacity="0.16078" stroke="#ffffff" stroke-width="2" stroke-linecap="round"/><path d="M209.375,310l1,-4v-66l6.25,-26.75" fill="none" stroke-opacity="0.16078" stroke="#ffffff" stroke-width="1.5" stroke-linecap="round"/><path d="M263.825,213.25l6.25,26.75v66l1,4" data-paper-data="{&quot;index&quot;:null}" fill="none" stroke-opacity="0.16078" stroke="#ffffff" stroke-width="1.5" stroke-linecap="round"/><path d="M191.86668,327.26051v-247.82453h97.33334v247.82453z" fill="none" stroke="none" stroke-width="NaN" stroke-linecap="butt"/><path d="M191.86668,327.26051v-247.82453h97.33334v247.82453z" fill="none" stroke="none" stroke-width="NaN" stroke-linecap="butt"/><path d="M235.06221,223.43448c0,0 3.38124,-1.46846 4.99829,-1.50192c1.60803,-0.03327 4.8773,1.63537 4.8773,1.63537" fill="none" stroke="#96837c" stroke-width="1.5" stroke-linecap="round"/></g></g></svg>