<svg version="1.1" xmlns="http://www.w3.org/2000/svg" xmlns:xlink="http://www.w3.org/1999/xlink" width="51.77639" height="64.33827" viewBox="0,0,51.77639,64.33827"><defs><linearGradient x1="240.05597" y1="152.31573" x2="240.05597" y2="193.00565" gradientUnits="userSpaceOnUse" id="color-1"><stop offset="0" stop-color="#6fdcfb"/><stop offset="1" stop-color="#b6effd"/></linearGradient></defs><g transform="translate(-214.11182,-147.83089)"><g data-paper-data="{&quot;isPaintingLayer&quot;:true}" fill-rule="nonzero" stroke-linejoin="miter" stroke-miterlimit="10" stroke-dasharray="" stroke-dashoffset="0" style="mix-blend-mode: normal"><path d="M214.11183,205.82318c0,-13.44895 0,-44.19668 0,-51.64628c0,-3.17904 1.90861,-6.346 4.96462,-6.346c10.74686,0 35.68329,0 41.70481,0c2.55834,0 5.10696,3.16696 5.10696,6.346c0,7.51567 0,38.74459 0,52.00002c0,3.69408 -2.46794,5.99225 -4.96462,5.99225c-5.94769,0 -30.84152,0 -41.70479,0c-3.13935,0 -5.10696,-2.44546 -5.10696,-6.34599z" fill="#272727" stroke="none" stroke-width="0" stroke-linecap="butt"/><g><g><path d="M218.22788,193.00565c0,0 -0.62882,-32.41123 -0.44349,-37.82386c0.05125,-1.49678 1.82488,-2.52069 1.82488,-2.52069c0,0 32.60748,-0.26638 38.64895,-0.31573c1.85046,-0.01512 4.31656,3.59656 4.31656,3.59656l-0.6907,37.06372z" fill="url(#color-1)" stroke="none" stroke-width="0" stroke-linecap="butt"/><path d="M217.25603,192.90939l0.64925,-4.2824l15.02219,0.53462l2.49332,3.83136z" fill="#f38906" stroke="none" stroke-width="0" stroke-linecap="butt"/><path d="M217.41981,189.98596l-0.08519,-6.15354c0,0 0.10394,-0.62657 2.53084,-0.15152c2.42853,0.47537 7.20052,2.13939 7.20052,2.13939l1.09356,3.38585z" fill="#f38906" stroke="none" stroke-width="0" stroke-linecap="butt"/><path d="M242.24465,192.9484l3.19321,-2.9849l12.3354,-0.49006l0.21871,3.56406z" data-paper-data="{&quot;index&quot;:null}" fill="#f38906" stroke="none" stroke-width="0" stroke-linecap="butt"/><path d="M246.79387,190.00807l2.49332,-3.65316l12.90405,-1.69292l0.34994,5.43519z" data-paper-data="{&quot;index&quot;:null}" fill="#f38906" stroke="none" stroke-width="0" stroke-linecap="butt"/><path d="M245.86839,193.34319l0.95268,-2.91084l2.92608,-0.69306c0,0 11.66077,-4.14172 12.75358,-3.61928c0.44671,0.21356 0.16621,1.89814 0.11384,3.60498c-0.0368,1.19912 0.47625,2.40921 -0.45509,3.12793c-1.09322,0.84363 -4.17847,0.07444 -4.17847,0.07444z" data-paper-data="{&quot;index&quot;:null}" fill="#d87f14" stroke="none" stroke-width="0" stroke-linecap="butt"/><path d="M228.06406,189.55619l2.1095,1.45542l1.8373,-0.62375l2.44974,3.88111c0,0 -10.92816,1.28898 -15.54791,0.07702c-2.49117,-0.65355 0.23031,-3.95128 -0.15341,-4.234c-0.6126,-0.45135 4.36205,-1.10182 7.1944,-0.71749c1.96204,0.26623 2.11038,0.16168 2.11038,0.16168z" fill="#d87f14" stroke="#000000" stroke-width="0" stroke-linecap="butt"/><path d="M221.27009,207.68428c0,0 -2.17245,-0.34497 -2.67399,-2.31536c-0.69838,-2.74371 -1.12486,-12.60913 -1.12486,-12.60913h45.10815c0,0 0.06753,10.89501 -0.91178,13.62542c-0.56393,1.57229 -4.44115,1.29908 -4.44115,1.29908z" fill="#f3ad26" stroke="#000000" stroke-width="0" stroke-linecap="butt"/><path d="M222.86669,195.7254c0,0 -5.54883,0.1972 -5.59481,-0.01686c-0.10451,-0.48658 0.20745,-2.87893 0.20745,-2.87893l15.4044,-0.08911l-4.02431,0.80191z" fill="#eba31a" stroke="none" stroke-width="0" stroke-linecap="butt"/><path d="M248.54357,193.52261l-4.02431,-0.80191l10.62944,0.13365c0,0 0.6437,0.93856 0.28852,1.05807c-0.82806,0.27861 -5.84382,0.10025 -5.84382,0.10025z" data-paper-data="{&quot;index&quot;:null}" fill="#eba31a" stroke="none" stroke-width="0" stroke-linecap="butt"/><path d="M217.50042,188.65522l0.16757,-4.19357l8.21853,1.69858l0.95268,2.91084z" fill="#d87f14" stroke="none" stroke-width="0" stroke-linecap="butt"/><path d="M248.75076,189.6255l1.15682,-2.84153l9.86701,-1.59403v4.43556z" fill="#d87f14" stroke="none" stroke-width="0" stroke-linecap="butt"/><g stroke-width="0.5" stroke-linecap="round"><path d="M220.43352,172.53803l2.22348,-1.54799l1.36189,-1.36433l1.61203,0.28861l2.36245,-1.28562l2.52921,2.02026l3.86331,1.57423l0.13897,0.31484z" fill="#ffffff" stroke="#ffffff"/><path d="M220.46131,172.53803l2.55701,-1.07572l0.94498,-1.25938l1.36189,1.33809l0.66705,-0.62969l0.72263,0.52474l2.1401,-1.44304l1.63982,1.39057l3.77993,1.15443z" fill="#e9f8ff" stroke="#e9f8ff"/></g><g data-paper-data="{&quot;index&quot;:null}" stroke-width="0.5" stroke-linecap="round"><path d="M236.12701,161.30953l0.21533,-0.26013l5.98598,-1.30062l3.91888,-1.66914l3.6605,1.06217l2.49774,-0.23845l2.11017,1.12721l3.44517,1.27895z" fill="#ffffff" stroke="#ffffff"/><path d="M236.51458,161.30953l5.85679,-0.95379l2.54081,-1.14889l3.31598,1.19224l1.11968,-0.43354l1.03355,0.52025l2.11018,-1.10553l1.46419,1.0405l3.96195,0.88876z" fill="#e9f8ff" stroke="#e9f8ff"/></g></g><path d="M217.73211,202.29508c0,-11.61149 0,-38.15832 0,-44.59012c0,-2.7447 1.64785,-5.47898 4.28633,-5.47898c9.27857,0 30.80807,0 36.0069,0c2.20881,0 4.40922,2.73428 4.40922,5.47898c0,6.48884 0,33.45112 0,44.89553c0,3.18938 -2.13076,5.17356 -4.28633,5.17356c-5.13509,0 -26.6278,0 -36.00688,0c-2.71044,0 -4.40922,-2.11135 -4.40922,-5.47897z" fill="none" stroke="#000000" stroke-width="2" stroke-linecap="butt"/></g></g></g></svg>