<svg version="1.1" xmlns="http://www.w3.org/2000/svg" xmlns:xlink="http://www.w3.org/1999/xlink" width="219.16968" height="308.91534" viewBox="0,0,219.16968,308.91534"><g transform="translate(-114.54217,-3.4884)"><g data-paper-data="{&quot;isPaintingLayer&quot;:true}" fill-rule="nonzero" stroke="none" stroke-width="0" stroke-linecap="butt" stroke-linejoin="miter" stroke-miterlimit="10" stroke-dasharray="" stroke-dashoffset="0" style="mix-blend-mode: normal"><g data-paper-data="{&quot;index&quot;:null}" fill="#573007"><path d="M290.24114,280.78396c0.79347,0.18394 1.48142,0.6461 1.96715,1.42913c1.21303,1.95551 0.38921,4.66179 -1.84007,6.04465c-2.22928,1.38286 -5.01982,0.91864 -6.23286,-1.03687c-1.21303,-1.95551 -0.07293,-4.15192 2.15635,-5.53478c1.33662,-0.82914 2.76132,-1.17754 3.94942,-0.90213z"/><path d="M293.76014,285.66333c1.38286,2.22927 0.69671,5.15749 -1.53257,6.54035c-2.22928,1.38287 -5.15749,0.6967 -6.54035,-1.53257c-0.7951,-1.28175 -2.87706,-6.16143 -0.4333,-4.11186c0.79274,0.66487 1.01835,-1.84072 1.96587,-2.42849c2.22928,-1.38287 5.15749,-0.6967 6.54035,1.53257z"/><path d="M301.54828,286.51993c1.38286,2.22928 0.03091,5.5705 -3.01969,7.46284c-3.05059,1.89234 -7.03724,1.74506 -8.4201,-0.48421c-0.25973,-0.41871 -1.96986,-1.09386 -2.0435,-1.57404c-0.31846,-2.07645 2.97819,-4.47776 5.45582,-6.01468c3.0506,-1.89234 6.64461,-1.61918 8.02747,0.61009z"/><path d="M294.88069,286.04694c1.5253,-0.94617 3.88282,0.094 5.26568,2.32327c0.36839,0.59387 0.63045,1.21221 0.78785,1.81773c0.43346,1.66751 0.07323,3.23781 -1.04574,3.93193c-0.65856,0.40851 -3.07503,1.08794 -3.89842,0.82007c-1.08371,-0.35256 -0.58146,-1.87656 -1.36727,-3.14334c-1.38286,-2.22927 -1.2674,-4.80348 0.2579,-5.74965z"/><path d="M293.31012,281.33345c0.87338,1.40797 0.34491,3.31636 -1.18039,4.26253c-1.52529,0.94617 -3.4698,0.57181 -4.34319,-0.83616c-0.64889,-1.04605 -0.35491,-2.53439 0.3728,-3.86396c0.25177,-0.46 0.39825,-1.32143 0.79031,-1.56463c1.02532,-0.63602 1.99292,0.00969 2.94952,0.82534c0.46649,0.39775 1.12466,0.71537 1.41095,1.17689z"/><path d="M297.70687,280.95962c0.87338,1.40797 0.34491,3.31636 -1.18039,4.26253c-1.52529,0.94617 -3.4698,0.57181 -4.34319,-0.83616c-0.87338,-1.40797 -0.34491,-3.31636 1.18039,-4.26253c0.76548,-0.47484 1.53975,-0.20402 2.32803,-0.04995c0.78243,0.15294 1.58009,0.18474 2.01516,0.88611z"/><path d="M302.00038,282.82232c0.60204,0.97054 -0.14376,1.99973 -0.06061,3.2419c0.08386,1.25291 0.98953,2.71748 -0.07098,3.37533c-2.11194,1.31008 -6.30714,0.07646 -7.51644,-1.87302c-1.2093,-1.94949 -0.47757,-4.59189 1.63438,-5.90197c0.26299,-0.16313 0.83399,-0.95412 1.111,-1.06131c0.93764,-0.36286 1.83116,-0.11986 2.65733,0.27738c0.88982,0.42785 1.69634,1.05668 2.24534,1.9417z"/></g><g data-paper-data="{&quot;index&quot;:null}" fill="#4e2c06"><path d="M284.98461,304.35913c0.04095,0.46645 -0.08896,0.92484 -0.4303,1.32992c-0.85245,1.01164 -2.4784,1.04394 -3.63167,0.07215c-1.15327,-0.97179 -1.39713,-2.57967 -0.54468,-3.59131c0.85245,-1.01163 2.25613,-0.78017 3.4094,0.19162c0.69146,0.58266 1.13591,1.29918 1.19724,1.99762z"/><path d="M282.94536,307.15238c-0.97179,1.15326 -2.69448,1.30038 -3.84775,0.32859c-1.15327,-0.97179 -1.30038,-2.69448 -0.32859,-3.84775c0.55874,-0.66309 2.8544,-2.67102 2.16998,-0.96998c-0.22202,0.55181 1.18759,0.22835 1.67777,0.64139c1.15327,0.97179 1.30038,2.69448 0.32859,3.84775z"/><path d="M282.76794,307.06554c1.57815,1.32982 2.0697,3.34276 1.09791,4.49603c-0.97179,1.15326 -3.03893,1.01014 -4.61708,-0.31968c-1.57815,-1.32981 -2.2085,-3.53489 -1.23671,-4.68816c0.18252,-0.2166 0.24659,-1.27162 0.49589,-1.39749c1.07805,-0.54429 2.97826,0.82925 4.26,1.9093z"/><path d="M282.60467,311.12531c-0.25887,0.30722 -0.5501,0.56069 -0.85297,0.75469c-0.83405,0.53423 -1.7565,0.61734 -2.33537,0.12956c-0.34069,-0.28708 -1.1429,-1.48661 -1.1433,-1.98438c-0.00054,-0.65514 0.92192,-0.65239 1.47414,-1.30773c0.9718,-1.15327 2.39926,-1.54916 3.18833,-0.88425c0.78907,0.66491 0.64095,2.13883 -0.33083,3.29209z"/><path d="M285.23152,306.13439c-0.61377,0.72837 -1.751,0.77983 -2.54007,0.11492c-0.78908,-0.66491 -0.9312,-1.79439 -0.31744,-2.52277c0.456,-0.54116 1.32183,-0.64587 2.17824,-0.48523c0.29629,0.05558 0.7932,-0.01796 0.99602,0.15295c0.53043,0.44695 0.35005,1.09091 0.07485,1.75916c-0.1342,0.32587 -0.19044,0.74221 -0.39163,0.98097z"/><path d="M286.21979,308.47068c-0.61377,0.72837 -1.751,0.77983 -2.54007,0.11492c-0.78908,-0.66491 -0.9312,-1.79439 -0.31744,-2.52277c0.61377,-0.72837 1.75099,-0.77983 2.54007,-0.11492c0.396,0.33368 0.38605,0.80513 0.4424,1.26342c0.05593,0.45489 0.18077,0.8965 -0.12496,1.25934z"/><path d="M285.96732,311.14934c-0.42308,0.50208 -1.11855,0.278 -1.7826,0.54493c-0.66981,0.26924 -1.30874,1.02535 -1.85737,0.56305c-1.09257,-0.92063 -1.16639,-3.4334 -0.31657,-4.44192c0.84983,-1.00852 2.42445,-1.07976 3.51702,-0.15911c0.13605,0.11464 0.67016,0.28568 0.77814,0.41795c0.36549,0.44775 0.39201,0.9794 0.32222,1.50176c-0.07517,0.56261 -0.27503,1.11551 -0.66084,1.57336z"/></g><g data-paper-data="{&quot;index&quot;:null}" fill="#573007"><path d="M316.28331,288.38941c2.16159,-0.38163 3.83214,1.05051 3.73126,3.19879c-0.10088,2.14828 -1.93497,4.19916 -4.09656,4.58079c-2.16159,0.38163 -3.26853,-1.15002 -3.16765,-3.2983c0.06049,-1.28806 0.54145,-2.50534 1.38283,-3.35591c0.56192,-0.56806 1.28459,-0.97256 2.15014,-1.12537z"/><path d="M319.7866,288.17697c2.4642,-0.43506 4.38007,0.95377 4.27919,3.10205c-0.10088,2.14827 -2.18029,4.24247 -4.64451,4.67753c-1.41683,0.25015 -6.31196,0.46222 -3.42757,-0.8561c0.93568,-0.42765 -0.89449,-1.33285 -0.85161,-2.24595c0.10088,-2.14827 2.18029,-4.24247 4.64451,-4.67753z"/><path d="M324.56387,282.32549c2.46421,-0.43505 4.34995,1.59539 4.2119,4.53513c-0.13804,2.93975 -2.35691,6.01971 -4.82112,6.45476c-0.46283,0.08172 -1.89074,1.22498 -2.30317,1.14305c-1.78349,-0.35427 -1.91152,-3.63472 -1.7994,-6.02233c0.13805,-2.93975 2.24759,-5.67556 4.7118,-6.11061z"/><path d="M325.26333,283.96158c0.65645,-0.1159 1.27582,-0.14139 1.82998,-0.08863c1.52605,0.14529 2.55755,0.88401 2.50691,1.96233c-0.0298,0.63462 -0.77673,2.72501 -1.41974,3.2921c-0.8463,0.74636 -1.76681,-0.09014 -3.16709,0.15708c-2.46421,0.43506 -4.4059,-0.40382 -4.33688,-1.87369c0.06901,-1.46987 2.12261,-3.01412 4.58682,-3.44917z"/><path d="M316.1806,287.27059c1.55635,-0.27478 2.76206,0.69404 2.69304,2.16391c-0.06902,1.46987 -1.38664,2.88418 -2.94299,3.15895c-1.1563,0.20414 -2.159,-0.45886 -2.80924,-1.41544c-0.22498,-0.33095 -0.8178,-0.69614 -0.80006,-1.07396c0.04639,-0.98805 1.05947,-1.55825 2.19894,-2.07042c0.55567,-0.24976 1.15016,-0.67297 1.66033,-0.76304z"/><path d="M316.45749,285.03873c0.53197,-0.56843 0.97775,-1.18399 1.75303,-1.32086c1.55635,-0.27478 2.76206,0.69404 2.69304,2.16391c-0.06901,1.46987 -1.38664,2.88419 -2.94299,3.15896c-1.55635,0.27478 -2.76206,-0.69404 -2.69304,-2.16391c0.03463,-0.73766 0.65402,-1.26542 1.18996,-1.83809z"/><path d="M321.92591,280.8963c1.07282,-0.18941 1.47983,0.69402 2.49008,0.99004c1.01898,0.29858 2.6364,0.01498 2.58841,1.03696c-0.09557,2.0352 -3.26965,4.96266 -5.42459,5.34312c-2.15494,0.38046 -3.82439,-0.96099 -3.72882,-2.99619c0.0119,-0.25343 -0.30206,-0.93068 -0.23924,-1.17882c0.21263,-0.83996 0.87329,-1.4692 1.61842,-2.00086c0.80254,-0.57261 1.71745,-1.02154 2.69574,-1.19426z"/></g><g data-paper-data="{&quot;index&quot;:null}" fill="#573007"><path d="M250.46202,292.4473c0.4362,-0.32678 0.96895,-0.44905 1.57833,-0.29236c1.52183,0.39135 2.54844,2.2723 2.29297,4.20124c-0.25547,1.92894 -1.69624,3.17541 -3.21808,2.78407c-1.52183,-0.39135 -2.15164,-2.17026 -1.89617,-4.09921c0.15316,-1.15655 0.58982,-2.10444 1.24296,-2.59375z"/><path d="M254.47165,293.1603c1.73488,0.44613 2.9342,2.3715 2.67874,4.30045c-0.25547,1.92894 -1.86896,3.131 -3.60386,2.68487c-0.99749,-0.25651 -4.38737,-1.73881 -2.28662,-1.95608c0.68146,-0.07048 -0.5007,-1.52449 -0.39211,-2.34436c0.25547,-1.92894 1.86896,-3.131 3.60385,-2.68486z"/><path d="M260.77688,295.03515c-0.34958,2.63961 -2.14446,4.69488 -3.87935,4.24874c-0.32585,-0.08379 -1.4083,0.4722 -1.68527,0.2561c-1.1977,-0.93447 -1.00189,-3.97658 -0.71797,-6.12042c0.34959,-2.63961 2.03939,-4.41776 3.77427,-3.97163c1.73488,0.44613 2.85791,2.9476 2.50832,5.58721z"/><path d="M259.87675,291.72839c1.03849,0.65532 1.68497,1.6837 1.55674,2.65192c-0.07547,0.56983 -0.77089,2.22464 -1.26285,2.52279c-0.64751,0.39239 -1.20909,-0.68735 -2.19493,-0.94087c-1.73488,-0.44613 -2.9996,-1.87769 -2.82481,-3.1975c0.17479,-1.31981 1.72289,-2.02806 3.45778,-1.58192c0.46216,0.11885 0.89096,0.30762 1.26807,0.54558z"/><path d="M252.06647,291.09717c1.09573,0.28177 1.84228,1.58008 1.66749,2.89989c-0.17479,1.31981 -1.20474,2.1613 -2.30047,1.87953c-0.81407,-0.20935 -1.44728,-1.15864 -1.81232,-2.2556c-0.12628,-0.37952 -0.50299,-0.91628 -0.45806,-1.25553c0.1175,-0.88718 0.86461,-1.06145 1.69376,-1.1394c0.40434,-0.03801 0.85043,-0.22125 1.2096,-0.12889z"/><path d="M252.45041,289.15211c0.41559,-0.33737 0.77593,-0.74735 1.32175,-0.60699c1.09573,0.28177 1.84228,1.58008 1.66749,2.89989c-0.17479,1.31981 -1.20475,2.16131 -2.30047,1.87953c-1.09573,-0.28177 -1.84228,-1.58008 -1.66749,-2.89989c0.08771,-0.66235 0.56001,-0.93263 0.97871,-1.27253z"/><path d="M256.57539,287.23841c0.75531,0.19423 0.95915,1.14102 1.62933,1.75749c0.67597,0.62181 1.81453,0.91641 1.693,1.83405c-0.24201,1.82741 -2.6816,3.41624 -4.19875,3.02611c-1.51715,-0.39014 -2.55085,-2.18783 -2.30883,-4.01524c0.03014,-0.22755 -0.12748,-0.95404 -0.06272,-1.15934c0.21917,-0.6949 0.72869,-1.04381 1.28791,-1.27459c0.60233,-0.24856 1.27133,-0.3456 1.96008,-0.16848z"/></g><g data-paper-data="{&quot;index&quot;:null}" fill="#573007"><path d="M165.2541,33.44017c-1.08099,-0.56475 -1.93524,-1.75696 -2.4096,-3.25663c-0.79115,-2.50121 -0.22595,-4.91048 1.9681,-5.60448c2.19404,-0.694 4.61403,0.77103 5.40518,3.27225c0.79115,2.50121 -0.34612,5.09144 -2.54017,5.78543c-0.87856,0.2779 -1.70159,0.18059 -2.42353,-0.19657z"/><path d="M165.14087,28.93276c-0.33627,-1.06311 1.12428,-3.11144 0.0897,-3.12316c-3.18927,-0.03612 1.56852,-2.3833 3.00663,-2.83819c2.50121,-0.79116 5.1702,0.59512 5.96136,3.09633c0.79115,2.50121 -0.59513,5.1702 -3.09633,5.96135c-2.50121,0.79116 -5.1702,-0.59511 -5.96135,-3.09633z"/><path d="M171.08115,31.68614c-0.87929,-2.77986 -1.81718,-6.74905 -0.22324,-8.11742c0.36861,-0.31643 2.10605,0.28492 2.57583,0.13633c2.50121,-0.79116 5.62246,1.69336 6.70509,5.11607c1.08263,3.42272 -0.06736,6.83872 -2.56857,7.62988c-2.50122,0.79116 -5.40649,-1.34213 -6.48912,-4.76485z"/><path d="M172.2024,32.46773c-0.54132,-1.71136 1.0475,-3.74004 3.5487,-4.53119c1.4213,-0.44956 2.03265,-1.93317 3.08466,-1.49497c0.7993,0.33296 2.19061,2.42225 2.42432,3.16114c0.39711,1.25547 -0.35216,2.68172 -1.76705,3.66486c-0.51379,0.35699 -1.11536,0.65557 -1.78166,0.86634c-2.50121,0.79116 -4.96766,0.04519 -5.50897,-1.66617z"/><path d="M166.10375,34.99605c-1.25712,-0.00402 -2.41192,-0.14414 -2.7758,-1.29453c-0.13914,-0.4399 0.3107,-1.18899 0.4192,-1.70203c0.31363,-1.48289 1.05982,-2.8038 2.23348,-3.17503c1.57973,-0.49968 3.29914,0.48259 3.84046,2.19394c0.54133,1.71135 -0.30046,3.50374 -1.88018,4.00342c-0.51782,0.1638 -1.22413,-0.0238 -1.83716,-0.02577z"/><path d="M168.92769,37.52895c-0.69854,-0.39645 -1.46248,-0.69516 -1.73414,-1.55402c-0.54133,-1.71135 0.30046,-3.50374 1.88018,-4.00342c1.57973,-0.49968 3.29915,0.48258 3.84046,2.19394c0.54133,1.71135 -0.30047,3.50375 -1.88018,4.00342c-0.78693,0.24891 -1.41295,-0.24642 -2.10631,-0.63992z"/><path d="M172.53689,39.56268c-0.88565,-0.23657 -1.72197,-0.63407 -2.1972,-1.52006c-0.1404,-0.26174 -0.05859,-1.23387 -0.15193,-1.52893c-0.74952,-2.36957 0.41603,-4.85135 2.60333,-5.5432c2.18728,-0.69186 6.17427,1.10407 6.92379,3.47364c0.37636,1.18988 -1.2647,1.71148 -2.14429,2.60766c-0.87205,0.88849 -0.97634,2.15521 -2.06527,2.49965c-0.99298,0.31409 -2.01453,0.26604 -2.96843,0.01124z"/></g><g data-paper-data="{&quot;index&quot;:null}" fill="#4e2c06"><path d="M192.43428,12.92041c-0.5014,0.49009 -1.30531,0.74439 -2.2095,0.73624c-1.50806,-0.01359 -2.72401,-0.75209 -2.71208,-2.07494c0.01192,-1.32285 1.2441,-2.38421 2.75215,-2.37062c1.50806,0.0136 2.72091,1.097 2.70898,2.41985c-0.00478,0.5297 -0.2047,0.96217 -0.53956,1.28947z"/><path d="M192.70582,9.47264c-0.0136,1.50805 -1.24712,2.71954 -2.75517,2.70595c-0.64097,-0.00578 -1.50003,-1.16922 -1.6909,-0.6059c-0.5884,1.73658 -1.02286,-1.2822 -1.01505,-2.14928c0.0136,-1.50805 1.24712,-2.71955 2.75517,-2.70595c1.50807,0.01359 2.71956,1.24713 2.70596,2.75518z"/><path d="M192.51466,9.42301c-1.67605,-0.0151 -4.01256,-0.21026 -4.4762,-1.32537c-0.10722,-0.25788 0.53123,-1.10022 0.53379,-1.38346c0.01359,-1.50806 1.92799,-2.7709 3.99164,-2.7523c2.06365,0.01861 3.72554,1.2562 3.71194,2.76425c-0.0136,1.50805 -1.69752,2.71549 -3.76117,2.69689z"/><path d="M193.14172,8.94957c-1.03182,-0.0093 -1.85726,-1.23936 -1.84366,-2.74741c0.00773,-0.85693 -0.69409,-1.4556 -0.26703,-1.95241c0.32449,-0.37748 1.71443,-0.76533 2.15992,-0.76132c0.75696,0.00682 1.40284,0.67062 1.68787,1.6192c0.1035,0.34445 0.15942,0.72647 0.1558,1.1282c-0.0136,1.50806 -0.86107,2.72302 -1.8929,2.71373z"/><path d="M193.77777,11.734c-0.00282,0.31221 -0.23127,0.66478 -0.34166,0.99948c-0.22635,0.68634 -0.50884,1.29248 -1.20244,1.28623c-0.26521,-0.0024 -0.59441,-0.38181 -0.85545,-0.53259c-0.75452,-0.43583 -1.34339,-1.07915 -1.33701,-1.78678c0.00858,-0.95246 0.85201,-1.71703 1.88383,-1.70772c1.03182,0.00929 1.86131,0.78895 1.85273,1.7414z"/><path d="M195.32393,11.64173c-0.34123,0.31108 -0.6407,0.67533 -1.15853,0.67067c-1.03182,-0.0093 -1.86131,-0.78895 -1.85274,-1.74141c0.00858,-0.95246 0.85201,-1.71703 1.88383,-1.70772c1.03182,0.0093 1.86131,0.78895 1.85274,1.74141c-0.00428,0.47446 -0.38661,0.72827 -0.72529,1.03706z"/><path d="M197.60212,8.40749c-0.0054,0.5987 -0.2138,1.14844 -0.52315,1.62434c-0.28722,0.44185 -0.65358,0.82805 -1.22253,0.9298c-0.16808,0.03006 -0.68479,-0.18798 -0.86269,-0.18959c-1.42868,-0.01287 -2.57722,-1.09239 -2.56533,-2.41117c0.01188,-1.31877 1.70432,-3.17755 3.133,-3.16467c0.71741,0.00646 0.70986,0.99636 1.04281,1.63687c0.33009,0.63502 1.0038,0.91789 0.99788,1.57444z"/></g><g data-paper-data="{&quot;index&quot;:null}" fill="#573007"><path d="M190.65616,40.89034c-0.55732,-0.67965 -0.8423,-1.45726 -0.89878,-2.25428c-0.08457,-1.19342 0.34319,-2.43041 1.13613,-3.44726c1.32249,-1.69596 3.15999,-2.1374 4.55182,-0.44007c1.39184,1.69732 1.44804,4.44812 0.12555,6.14408c-1.32249,1.69596 -3.52289,1.69485 -4.91472,-0.00248z"/><path d="M192.69798,36.7587c0.5621,-0.72085 2.54047,-0.21589 2.10892,-1.14978c-1.33033,-2.87887 2.24632,0.46998 3.15861,1.58252c1.58668,1.93494 1.80086,4.87838 0.47837,6.57434c-1.32249,1.69596 -3.68085,1.5022 -5.26754,-0.43274c-1.58669,-1.93494 -1.80086,-4.87837 -0.47837,-6.57433z"/><path d="M193.39478,43.17899c1.46981,-1.88489 3.70336,-4.29095 5.28751,-3.39831c0.36632,0.20643 0.70539,2.00393 1.0034,2.36736c1.58668,1.93494 1.26471,5.71725 -0.54501,8.03804c-1.80972,2.32079 -4.56305,2.63356 -6.14975,0.69861c-1.58668,-1.93494 -1.40588,-5.3849 0.40384,-7.70569z"/><path d="M193.35267,44.49403c0.90487,-1.16039 2.92467,-0.53248 4.51135,1.40246c0.90163,1.09952 2.14494,1.0642 2.30111,2.18174c0.11865,0.8491 -0.67588,2.92186 -1.06655,3.42287c-0.66382,0.85127 -1.92767,0.74011 -3.18036,-0.14346c-0.45489,-0.32085 -0.90831,-0.74356 -1.33099,-1.25901c-1.58668,-1.93494 -2.13941,-4.44422 -1.23454,-5.60461z"/><path d="M189.84959,41.67248c-0.32849,-0.40059 -0.50404,-1.10891 -0.76305,-1.66032c-0.53116,-1.13075 -0.92862,-2.2232 -0.32036,-3.00323c0.23259,-0.29827 0.92029,-0.18932 1.30655,-0.29396c1.11642,-0.30247 2.30912,-0.15259 3.05365,0.75535c1.00212,1.22207 1.08096,3.15344 0.17609,4.31383c-0.90487,1.16039 -2.45078,1.11039 -3.4529,-0.11169z"/><path d="M189.07635,45.6905c-0.4992,-0.60877 -0.4366,-1.36622 -0.47012,-2.14402c-0.03376,-0.78361 -0.16008,-1.58747 0.29403,-2.16983c0.90487,-1.16039 2.45077,-1.1104 3.45289,0.11168c1.00212,1.22208 1.08097,3.15344 0.1761,4.31384c-0.90487,1.16039 -2.45078,1.1104 -3.4529,-0.11168z"/><path d="M190.05831,50.25133c-0.62992,-0.76817 -1.03186,-1.70468 -1.26797,-2.66186c-0.21923,-0.8887 -0.31078,-1.79648 0.07487,-2.57237c0.11393,-0.22923 0.79324,-0.53871 0.94925,-0.73878c1.25289,-1.60669 3.39339,-1.53745 4.78094,0.15465c1.38755,1.6921 1.88977,5.98076 0.63688,7.58746c-0.62914,0.80679 -1.67184,-0.46177 -2.63957,-0.89878c-0.95942,-0.43327 -1.84362,-0.02792 -2.5344,-0.87033z"/></g><g data-paper-data="{&quot;index&quot;:null}" fill="#573007"><path d="M145.25374,15.26435c-0.56449,-0.27793 -0.88916,-0.71768 -1.00736,-1.24973c-0.17698,-0.79668 0.10896,-1.80036 0.74592,-2.77778c1.06234,-1.63019 2.69879,-2.57 4.10853,-1.8759c1.40973,0.69411 1.69134,2.57831 0.62899,4.2085c-1.06234,1.6302 -3.06635,2.38902 -4.47608,1.69492z"/><path d="M146.76714,11.70033c0.45153,-0.69289 2.29555,-1.02642 1.82431,-1.5237c-1.45269,-1.53298 2.08512,-0.45022 3.00914,0.00473c1.60709,0.79128 2.04871,2.75426 0.98636,4.38444c-1.06235,1.63019 -3.22636,2.31025 -4.83345,1.51898c-1.60709,-0.79128 -2.0487,-2.75427 -0.98636,-4.38445z"/><path d="M147.93952,15.90275c1.1807,-1.8118 3.01326,-4.24789 4.53073,-4.17703c0.35093,0.01639 0.81027,1.14325 1.11212,1.29187c1.6071,0.79128 1.6307,3.51987 0.17697,5.75064c-1.45373,2.23079 -3.93502,3.39772 -5.54211,2.60645c-1.60709,-0.79128 -1.73142,-3.24113 -0.27769,-5.47191z"/><path d="M149.60514,20.27964c-1.60709,-0.79128 -2.32066,-2.33693 -1.59379,-3.45232c0.72687,-1.1154 2.61892,-1.37813 4.22601,-0.58686c0.91322,0.44963 2.04257,-0.00402 2.2784,0.71543c0.17917,0.54664 -0.37079,2.25532 -0.68461,2.73689c-0.53324,0.81826 -1.69355,1.17765 -2.9084,0.99865c-0.44115,-0.06501 -0.88949,-0.20101 -1.31761,-0.4118z"/><path d="M144.58469,16.08406c-0.33271,-0.16381 -0.55191,-0.5934 -0.83399,-0.88556c-0.57845,-0.59913 -1.03192,-1.21792 -0.54332,-1.96769c0.18683,-0.2867 0.82226,-0.44872 1.16526,-0.65447c0.9914,-0.59471 2.09014,-0.90273 2.84425,-0.53144c1.01501,0.49976 1.24861,1.80908 0.52174,2.92448c-0.72687,1.1154 -2.13893,1.61446 -3.15395,1.11471z"/><path d="M143.60935,17.81014c-0.09638,-0.53062 -0.27877,-1.0433 0.08601,-1.60306c0.72687,-1.11539 2.13893,-1.61446 3.15394,-1.1147c1.01501,0.49975 1.24859,1.80908 0.52172,2.92447c-0.72687,1.1154 -2.13893,1.61446 -3.15395,1.11471c-0.50562,-0.24895 -0.51206,-0.79473 -0.60773,-1.32141z"/><path d="M145.49339,21.94877c-0.63802,-0.31414 -1.0825,-0.82347 -1.37771,-1.40435c-0.27409,-0.53932 -0.43352,-1.13592 -0.14729,-1.80598c0.08455,-0.19796 0.67729,-0.64664 0.80261,-0.83895c1.00643,-1.54437 2.96161,-2.2354 4.367,-1.54344c1.4054,0.69197 2.22201,3.48644 1.21558,5.03083c-0.50538,0.77552 -1.56125,0.25761 -2.47917,0.28926c-0.91006,0.03137 -1.68133,0.61712 -2.381,0.27263z"/></g><g data-paper-data="{&quot;index&quot;:null}" fill="#573007"><path d="M317.1653,109.86075c1.33466,1.87461 0.68421,4.6277 -1.45284,6.14922c-2.13705,1.52152 -4.95142,1.23528 -6.28609,-0.63932c-1.33466,-1.87461 -0.33622,-4.13892 1.80084,-5.66044c1.28132,-0.91226 2.68105,-1.35036 3.88423,-1.15089c0.80354,0.13322 1.51943,0.5508 2.05386,1.30144z"/><path d="M318.93295,113.20559c1.52151,2.13704 1.02253,5.10289 -1.11452,6.62441c-2.13705,1.52152 -5.1029,1.02253 -6.62441,-1.11452c-0.87481,-1.22872 -3.26218,-5.96648 -0.69331,-4.07609c0.83332,0.61323 0.8995,-1.90163 1.80783,-2.54833c2.13705,-1.52152 5.1029,-1.02253 6.62441,1.11452z"/><path d="M326.75974,113.56634c1.52151,2.13704 0.38428,5.55731 -2.54011,7.63939c-2.92438,2.08207 -6.91234,2.18804 -8.43385,0.051c-0.28577,-0.40138 -2.03529,-0.96667 -2.13925,-1.44121c-0.44956,-2.05206 2.68809,-4.65769 5.06321,-6.34871c2.92439,-2.08208 6.52849,-2.03751 8.05001,0.09954z"/><path d="M325.47805,115.50184c0.40532,0.56929 0.70608,1.16977 0.90159,1.76408c0.53838,1.63665 0.2785,3.22664 -0.79417,3.99035c-0.63131,0.44947 -2.9998,1.28085 -3.83853,1.06576c-1.10389,-0.2831 -0.69935,-1.83589 -1.56395,-3.05026c-1.52151,-2.13704 -1.56961,-4.71339 -0.10742,-5.75443c1.46219,-1.04104 3.88096,-0.15254 5.40248,1.9845z"/><path d="M318.20911,108.913c0.96096,1.34972 0.55463,3.2878 -0.90756,4.32884c-1.46219,1.04104 -3.42654,0.79081 -4.3875,-0.55891c-0.71395,-1.00278 -0.515,-2.50677 0.12689,-3.87983c0.22208,-0.47504 0.3136,-1.34403 0.68945,-1.61162c0.98289,-0.69979 1.98951,-0.11677 2.99594,0.63654c0.49079,0.36735 1.16778,0.64257 1.48278,1.085z"/><path d="M322.57328,108.26094c0.96096,1.34972 0.55463,3.2878 -0.90756,4.32884c-1.46219,1.04104 -3.42654,0.79081 -4.3875,-0.55891c-0.96096,-1.34972 -0.55463,-3.2878 0.90756,-4.32884c0.73381,-0.52245 1.52371,-0.3013 2.32017,-0.19756c0.79056,0.10298 1.58863,0.08412 2.06732,0.75647z"/><path d="M326.97634,109.84749c0.66241,0.93039 -0.01659,2.00483 0.14521,3.23921c0.16319,1.24507 1.15996,2.64922 0.14332,3.37303c-2.02457,1.44143 -6.28958,0.47648 -7.62014,-1.39235c-1.33056,-1.86884 -0.76795,-4.55234 1.25662,-5.99378c0.2521,-0.17949 0.77177,-1.00511 1.04142,-1.12967c0.91272,-0.42162 1.81987,-0.2358 2.66957,0.10822c0.91518,0.37054 1.75997,0.94692 2.36401,1.79533z"/></g><g data-paper-data="{&quot;index&quot;:null}" fill="#4e2c06"><path d="M304.52742,92.94735c-0.50089,0.67738 -1.53295,0.76361 -2.30517,0.19259c-0.77222,-0.57102 -0.99217,-1.58305 -0.49127,-2.26043c0.50089,-0.67738 1.40235,-0.587 2.17457,-0.01597c0.463,0.34237 0.77442,0.77979 0.84162,1.2212c0.04488,0.2948 -0.01917,0.59137 -0.21974,0.86262z"/><path d="M303.56399,93.94237c-0.57102,0.77222 -1.65992,0.93532 -2.43214,0.3643c-0.77222,-0.57102 -0.93532,-1.65993 -0.3643,-2.43215c0.32831,-0.444 1.70618,-1.81288 1.33993,-0.70414c-0.11881,0.35967 0.76399,0.09714 1.09221,0.33984c0.77222,0.57102 0.93532,1.65993 0.3643,2.43215z"/><path d="M304.32716,96.70741c-0.57102,0.77222 -1.89056,0.76478 -2.94728,-0.01662c-1.05672,-0.7814 -1.54643,-2.15735 -0.97541,-2.92957c0.10725,-0.14504 0.10534,-0.81814 0.25869,-0.9082c0.66316,-0.38948 1.92632,0.40669 2.78457,1.04133c1.05672,0.7814 1.45045,2.04085 0.87943,2.81306z"/><path d="M303.50799,96.4811c-0.15212,0.20571 -0.32696,0.37857 -0.5116,0.5141c-0.50849,0.37322 -1.09139,0.46332 -1.479,0.1767c-0.22812,-0.16869 -0.78642,-0.89863 -0.8068,-1.21496c-0.02682,-0.41635 0.55956,-0.45187 0.88404,-0.89068c0.57102,-0.77222 1.46224,-1.0815 1.9906,-0.6908c0.52836,0.3907 0.49378,1.33343 -0.07724,2.10564z"/><path d="M304.97581,93.20301c-0.36065,0.48772 -1.08132,0.56637 -1.60968,0.17567c-0.52836,-0.3907 -0.66432,-1.10279 -0.30368,-1.59051c0.26794,-0.36235 0.81399,-0.46389 1.36476,-0.39639c0.19055,0.02335 0.50339,-0.04347 0.6392,0.05696c0.35517,0.26263 0.26655,0.67918 0.11865,1.115c-0.07213,0.21253 -0.09104,0.4794 -0.20926,0.63927z"/><path d="M305.6983,94.64791c-0.36065,0.48772 -1.08132,0.56637 -1.60968,0.17567c-0.52836,-0.3907 -0.66432,-1.10279 -0.30368,-1.59051c0.36065,-0.48772 1.08132,-0.56637 1.60968,-0.17567c0.26516,0.19608 0.27788,0.49611 0.33221,0.78509c0.05393,0.28684 0.15111,0.56246 -0.02854,0.80542z"/><path d="M305.64608,96.36052c-0.2486,0.33619 -0.69965,0.22188 -1.1109,0.41835c-0.41481,0.19817 -0.79033,0.70453 -1.15769,0.43289c-0.73157,-0.54096 -0.88002,-2.13495 -0.38067,-2.81025c0.49935,-0.6753 1.49722,-0.7842 2.22879,-0.24323c0.0911,0.06736 0.43746,0.15448 0.51143,0.23419c0.25038,0.26979 0.28871,0.60662 0.26546,0.94142c-0.02504,0.3606 -0.12973,0.72007 -0.35642,1.02664z"/></g><g data-paper-data="{&quot;index&quot;:null}" fill="#573007"><path d="M320.5837,92.49715c2.13302,-0.51801 3.89106,0.80526 3.92669,2.95561c0.03562,2.15035 -1.66465,4.31348 -3.79767,4.83148c-2.13302,0.51801 -3.33491,-0.94032 -3.37054,-3.09067c-0.02136,-1.28929 0.3814,-2.53464 1.16712,-3.43689c0.52474,-0.60257 1.22029,-1.05211 2.0744,-1.25953z"/><path d="M324.06645,92.06285c2.43164,-0.59053 4.43176,0.67395 4.46739,2.8243c0.03562,2.15035 -1.90673,4.37226 -4.33838,4.96279c-1.39811,0.33953 -6.26992,0.86176 -3.47499,-0.63691c0.90666,-0.48616 -0.97726,-1.27342 -0.9924,-2.18739c-0.03562,-2.15035 1.90673,-4.37226 4.33838,-4.96279z"/><path d="M328.46284,85.92008c2.43164,-0.59053 4.4424,1.31618 4.49115,4.25876c0.04875,2.94258 -1.97023,6.15712 -4.40187,6.74764c-0.45671,0.11092 -1.80921,1.34247 -2.22601,1.28688c-1.80237,-0.2404 -2.13829,-3.50612 -2.17788,-5.89603c-0.04875,-2.94258 1.88297,-5.80673 4.31461,-6.39725z"/><path d="M329.26469,87.50849c0.64777,-0.15731 1.26428,-0.22205 1.82066,-0.20456c1.5322,0.04817 2.60848,0.71997 2.62636,1.79932c0.01052,0.63524 -0.60227,2.7688 -1.20801,3.37554c-0.79724,0.79856 -1.76897,0.02214 -3.15074,0.3577c-2.43164,0.59053 -4.42264,-0.12347 -4.44702,-1.59476c-0.02438,-1.47129 1.9271,-3.14272 4.35874,-3.73325z"/><path d="M320.41021,91.3871c1.53578,-0.37296 2.80053,0.5174 2.8249,1.98869c0.02438,1.47129 -1.20085,2.96635 -2.73663,3.33931c-1.14101,0.2771 -2.18376,-0.32095 -2.89338,-1.23435c-0.24551,-0.31602 -0.86032,-0.64286 -0.86659,-1.02104c-0.01639,-0.98901 0.95847,-1.62233 2.06315,-2.20577c0.5387,-0.28451 1.10515,-0.74459 1.60857,-0.86684z"/><path d="M322.21063,87.71275c1.53578,-0.37296 2.80053,0.5174 2.8249,1.98869c0.02438,1.47129 -1.20085,2.96635 -2.73663,3.33932c-1.53578,0.37296 -2.80053,-0.5174 -2.8249,-1.98869c-0.01223,-0.73838 0.57241,-1.30437 1.07094,-1.90989c0.49483,-0.60103 0.90066,-1.24364 1.66569,-1.42943z"/><path d="M325.7395,84.66112c1.05865,-0.25709 1.52089,0.59873 2.54788,0.83006c1.03587,0.23334 2.63204,-0.15232 2.64899,0.87064c0.03375,2.03717 -2.94819,5.16013 -5.07465,5.67654c-2.12646,0.51641 -3.87766,-0.71641 -3.91141,-2.75357c-0.0042,-0.25367 -0.3605,-0.90964 -0.31355,-1.16127c0.15891,-0.85176 0.77832,-1.52166 1.48821,-2.09951c0.76459,-0.62238 1.64917,-1.12845 2.61454,-1.36289z"/></g><g data-paper-data="{&quot;index&quot;:null}" fill="#573007"><path d="M290.04242,103.33111c1.5436,0.294 2.68747,2.10603 2.5549,4.04729c-0.13257,1.94127 -1.49136,3.27664 -3.03495,2.98264c-1.5436,-0.294 -2.285,-2.02937 -2.15244,-3.97064c0.07948,-1.16393 0.45511,-2.13762 1.07589,-2.66739c0.41458,-0.35381 0.93851,-0.50963 1.5566,-0.39191z"/><path d="M292.53259,104.1802c1.7597,0.33516 3.07876,2.18056 2.94619,4.12182c-0.13257,1.94127 -1.66655,3.24327 -3.42625,2.90811c-1.01176,-0.1927 -4.48886,-1.45694 -2.40612,-1.80707c0.67562,-0.11358 -0.59641,-1.48965 -0.54006,-2.31476c0.13257,-1.94127 1.66655,-3.24327 3.42625,-2.90811z"/><path d="M296.08633,100.23442c1.7597,0.33516 3.03916,2.76034 2.85775,5.41681c-0.1814,2.65646 -1.84227,4.82148 -3.60197,4.48632c-0.33051,-0.06295 -1.3755,0.5606 -1.66562,0.36251c-1.25458,-0.8566 -1.25218,-3.90501 -1.10484,-6.06254c0.18141,-2.65647 1.75498,-4.53825 3.51468,-4.20309z"/><path d="M296.53582,101.9442c0.46877,0.08928 0.90868,0.25047 1.30013,0.46403c1.07797,0.58811 1.7884,1.5734 1.72186,2.54781c-0.03916,0.57347 -0.62819,2.26908 -1.10025,2.59783c-0.6213,0.43268 -1.25026,-0.60925 -2.2502,-0.79971c-1.7597,-0.33516 -3.11269,-1.6836 -3.02199,-3.01184c0.0907,-1.32824 1.59075,-2.13328 3.35045,-1.79812z"/><path d="M290.00137,102.27382c1.11139,0.21168 1.93882,1.46002 1.84812,2.78826c-0.0907,1.32824 -1.06519,2.23338 -2.17658,2.02169c-0.82571,-0.15727 -1.51788,-1.06448 -1.95178,-2.13606c-0.15012,-0.37074 -0.56011,-0.88253 -0.5368,-1.22394c0.06097,-0.89285 0.79552,-1.11416 1.61806,-1.24456c0.40111,-0.06359 0.83468,-0.27477 1.19899,-0.20538z"/><path d="M291.54171,99.6187c1.11139,0.21168 1.93882,1.46002 1.84812,2.78826c-0.0907,1.32824 -1.06519,2.23338 -2.17658,2.0217c-1.11139,-0.21168 -1.93882,-1.46002 -1.84812,-2.78826c0.04552,-0.66658 0.49971,-0.96628 0.896,-1.33207c0.39336,-0.36306 0.72695,-0.79509 1.28058,-0.68964z"/><path d="M294.25639,98.13677c0.76611,0.14592 1.02961,1.07787 1.73755,1.65058c0.71406,0.57767 1.86901,0.79944 1.80595,1.72294c-0.12559,1.83909 -2.45945,3.5795 -3.9983,3.28641c-1.53885,-0.29309 -2.68452,-2.02158 -2.55893,-3.86067c0.01564,-0.22901 -0.18775,-0.94404 -0.13615,-1.15303c0.17464,-0.7074 0.66098,-1.08794 1.20444,-1.35373c0.58533,-0.28628 1.24684,-0.42557 1.94544,-0.29251z"/></g><g data-paper-data="{&quot;index&quot;:null}" fill="#573007"><path d="M290.11973,84.76329c-1.12563,1.27524 -4.75624,2.04391 -8.10923,1.71687c-3.35299,-0.32704 -5.15861,-1.62594 -4.03299,-2.90118c1.12563,-1.27524 4.46276,-1.71141 7.81575,-1.38437c2.01037,0.19608 3.56998,0.62202 4.25403,1.20655c0.45684,0.39038 0.52317,0.85149 0.07244,1.36213z"/><path d="M287.64635,86.77908c-1.28321,1.45377 -5.04158,2.36717 -8.39457,2.04013c-3.35299,-0.32704 -5.03086,-1.77067 -3.74765,-3.22444c0.7378,-0.83586 4.32937,-3.64188 4.12065,-1.83862c-0.06771,0.58496 2.84879,-0.34051 4.27393,-0.20151c3.35299,0.32704 5.03085,1.77067 3.74764,3.22444z"/><path d="M293.16392,90.22632c-1.28321,1.45377 -6.043,2.2695 -10.6313,1.82197c-4.58829,-0.44752 -7.72992,-2.09411 -6.44671,-3.54788c0.24101,-0.27305 -0.43993,-1.22735 0.02219,-1.45124c1.99835,-0.96815 7.34493,-0.62892 11.07145,-0.26545c4.5883,0.44752 7.26758,1.98883 5.98437,3.4426z"/><path d="M289.98702,90.41801c-0.34184,0.38727 -0.79842,0.74214 -1.3277,1.05016c-1.45759,0.84822 -3.46668,1.34113 -5.14968,1.17697c-0.99051,-0.09661 -3.73221,-0.7832 -4.12238,-1.2195c-0.51352,-0.57423 1.56274,-0.99185 2.29193,-1.81795c1.28321,-1.45377 4.18323,-2.45089 6.47739,-2.22713c2.29415,0.22376 3.11367,1.58367 1.83045,3.03744z"/><path d="M291.99064,84.84547c-0.81046,0.91818 -3.32722,1.4811 -5.62137,1.25734c-2.29415,-0.22376 -3.49693,-1.14948 -2.68647,-2.06765c0.60213,-0.68216 2.46705,-1.16823 4.51825,-1.4173c0.70966,-0.08618 1.76944,-0.37692 2.35913,-0.3194c1.54214,0.15042 1.64014,0.79722 1.5439,1.50851c-0.04692,0.34686 0.1522,0.73755 -0.11346,1.03852z"/><path d="M296.03966,86.44415c-0.81046,0.91818 -3.32721,1.4811 -5.62137,1.25734c-2.29415,-0.22376 -3.49693,-1.14948 -2.68647,-2.06765c0.81046,-0.91818 3.32722,-1.4811 5.62137,-1.25734c1.15134,0.1123 1.4976,0.53024 1.98268,0.90645c0.48146,0.37342 1.1075,0.70382 0.70378,1.16121z"/><path d="M297.56664,88.90799c-0.55866,0.63292 -2.29762,0.75308 -3.58198,1.28951c-1.29549,0.54107 -2.14085,1.49503 -3.73593,1.33945c-3.17651,-0.30982 -5.30739,-2.47962 -4.18523,-3.75093c1.12217,-1.27132 4.60693,-2.05076 7.78344,-1.74093c0.39554,0.03858 1.73021,-0.05464 2.07643,0.01219c1.17193,0.2262 1.6473,0.68034 1.89883,1.17016c0.27092,0.52757 0.25388,1.10341 -0.25555,1.68056z"/></g><g data-paper-data="{&quot;index&quot;:null}" fill="#573007"><path d="M150.38087,204.42464c0.7818,1.06939 0.40079,2.63992 -0.85103,3.50789c-1.25182,0.86797 -2.90039,0.70468 -3.68219,-0.36471c-0.7818,-1.06939 -0.19695,-2.3611 1.05487,-3.22906c0.75056,-0.52041 1.57047,-0.77033 2.27526,-0.65654c0.47069,0.076 0.89004,0.31421 1.20309,0.74242z"/><path d="M151.4163,206.33275c0.89126,1.2191 0.59897,2.911 -0.65285,3.77897c-1.25182,0.86797 -2.98912,0.58331 -3.88037,-0.63579c-0.51244,-0.70094 -1.91088,-3.40365 -0.40612,-2.32525c0.48814,0.34982 0.5269,-1.0848 1.05897,-1.45372c1.25182,-0.86797 2.98912,-0.58331 3.88037,0.63579z"/><path d="M156.00099,206.53855c0.89126,1.2191 0.22509,3.17023 -1.48792,4.35798c-1.71301,1.18774 -4.04903,1.24819 -4.94028,0.02909c-0.1674,-0.22897 -1.19221,-0.55145 -1.25311,-0.82215c-0.26334,-1.17062 1.5746,-2.65703 2.96587,-3.6217c1.71301,-1.18775 3.82419,-1.16232 4.71544,0.05678z"/><path d="M155.25021,207.64267c0.23742,0.32476 0.4136,0.66731 0.52812,1.00634c0.31537,0.93365 0.16314,1.84068 -0.4652,2.27634c-0.3698,0.25641 -1.75719,0.73068 -2.24849,0.60797c-0.64662,-0.16149 -0.40966,-1.0473 -0.91611,-1.74006c-0.89126,-1.2191 -0.91943,-2.68881 -0.06292,-3.28268c0.85651,-0.59387 2.27334,-0.08702 3.1646,1.13208z"/><path d="M150.9923,203.88398c0.5629,0.76996 0.32488,1.87556 -0.53162,2.46943c-0.85651,0.59387 -2.00716,0.45113 -2.57006,-0.31883c-0.41821,-0.57205 -0.30167,-1.43002 0.07433,-2.2133c0.13008,-0.27099 0.1837,-0.76671 0.40386,-0.91936c0.57575,-0.3992 1.16539,-0.06662 1.75493,0.36312c0.28749,0.20956 0.68405,0.36656 0.86856,0.61895z"/><path d="M153.54869,203.51202c0.5629,0.76996 0.32489,1.87556 -0.53162,2.46943c-0.85651,0.59387 -2.00716,0.45113 -2.57006,-0.31883c-0.5629,-0.76996 -0.32489,-1.87556 0.53162,-2.46944c0.42985,-0.29804 0.89254,-0.17188 1.35908,-0.1127c0.46308,0.05875 0.93057,0.04798 1.21097,0.43153z"/><path d="M156.12787,204.41709c0.38802,0.53075 -0.00972,1.14368 0.08506,1.84785c0.09559,0.71026 0.67946,1.51128 0.08395,1.92419c-1.18593,0.82228 -3.68424,0.27181 -4.46363,-0.79428c-0.7794,-1.0661 -0.44984,-2.59693 0.73609,-3.41922c0.14767,-0.10239 0.45208,-0.57338 0.61003,-0.64443c0.53465,-0.24052 1.06602,-0.13452 1.56375,0.06174c0.53608,0.21138 1.03093,0.54018 1.38476,1.02417z"/></g><g data-paper-data="{&quot;index&quot;:null}" fill="#4e2c06"><path d="M155.57342,189.94846c-1.16688,0.38594 -2.86696,-0.30175 -3.79724,-1.53599c-0.93028,-1.23424 -0.73847,-2.54765 0.42841,-2.93358c1.16688,-0.38594 2.56272,0.40238 3.493,1.63662c0.55776,0.74002 0.82153,1.47233 0.69182,2.02332c-0.08663,0.36798 -0.34874,0.6551 -0.81599,0.80963z"/><path d="M153.49457,190.34213c-1.33024,0.43996 -3.16275,-0.20392 -4.09303,-1.43816c-0.93028,-1.23424 -0.60602,-2.59145 0.72422,-3.03141c0.76484,-0.25296 3.70879,-0.75465 2.52569,0.22221c-0.38378,0.31689 1.17193,0.69135 1.56733,1.21595c0.93028,1.23424 0.60603,2.59145 -0.72421,3.03142z"/><path d="M153.23047,194.05404c-1.33024,0.43996 -3.4406,-0.57254 -4.7136,-2.26151c-1.27301,-1.68896 -1.31773,-3.61976 0.01251,-4.05972c0.24985,-0.08264 0.60875,-0.84632 0.90292,-0.83162c1.27206,0.06357 2.8679,1.92634 3.90182,3.29809c1.27301,1.68897 1.2266,3.4148 -0.10364,3.85476z"/><path d="M152.03958,193.17442c-0.35437,0.1172 -0.72748,0.17991 -1.09623,0.19289c-1.01549,0.03572 -1.99793,-0.30581 -2.46488,-0.92532c-0.27481,-0.36461 -0.77686,-1.61604 -0.63939,-1.98977c0.18094,-0.49189 1.13962,-0.08591 1.89552,-0.33592c1.33024,-0.43996 2.92461,-0.11205 3.56111,0.73244c0.6365,0.84448 0.07411,1.88573 -1.25613,2.32569z"/><path d="M156.15439,190.57918c-0.84016,0.27787 -2.03723,-0.18145 -2.67373,-1.02593c-0.6365,-0.84448 -0.47141,-1.75433 0.36875,-2.0322c0.62419,-0.20645 1.55375,0.09408 2.39998,0.58962c0.29277,0.17144 0.82998,0.33382 0.99359,0.55089c0.42786,0.56766 0.06187,0.97195 -0.4095,1.35293c-0.22986,0.18578 -0.4037,0.47361 -0.67909,0.56469z"/><path d="M156.53505,192.76517c-0.84016,0.27787 -2.03723,-0.18145 -2.67373,-1.02594c-0.6365,-0.84448 -0.47141,-1.75433 0.36875,-2.0322c0.84016,-0.27787 2.03722,0.18145 2.67372,1.02593c0.31944,0.42381 0.17847,0.77325 0.11012,1.14184c-0.06785,0.36586 -0.06034,0.75194 -0.47886,0.89036z"/><path d="M155.53038,194.66483c-0.57914,0.19155 -1.2404,-0.28114 -2.00502,-0.37158c-0.77124,-0.09123 -1.64527,0.19643 -2.08782,-0.39072c-0.88131,-1.16928 -0.26196,-3.0873 0.90133,-3.47204c1.16329,-0.38475 2.82076,0.25125 3.70208,1.42052c0.10974,0.1456 0.61789,0.50782 0.69355,0.65436c0.2561,0.49604 0.1364,0.90664 -0.0809,1.26808c-0.23405,0.38929 -0.59511,0.71671 -1.12322,0.89138z"/></g><g data-paper-data="{&quot;index&quot;:null}" fill="#573007"><path d="M119.04955,191.3311c2.43354,0.294 4.23689,2.10603 4.0279,4.04729c-0.20899,1.94126 -2.35118,3.27664 -4.78472,2.98264c-2.43354,-0.294 -3.60239,-2.02938 -3.39339,-3.97064c0.1253,-1.16393 0.7175,-2.13762 1.69617,-2.66739c0.65361,-0.3538 1.47959,-0.50963 2.45404,-0.3919z"/><path d="M122.9754,192.1802c2.77423,0.33516 4.85377,2.18056 4.64478,4.12183c-0.20899,1.94126 -2.62738,3.24327 -5.40161,2.90811c-1.59508,-0.1927 -7.07685,-1.45695 -3.79334,-1.80707c1.06515,-0.11358 -0.94026,-1.48964 -0.85143,-2.31475c0.20899,-1.94127 2.62738,-3.24327 5.40161,-2.90811z"/><path d="M128.57798,188.23442c2.77423,0.33516 4.79135,2.76034 4.50536,5.41681c-0.28599,2.65646 -2.90441,4.82148 -5.67864,4.48632c-0.52105,-0.06295 -2.16853,0.56059 -2.62592,0.36251c-1.97789,-0.8566 -1.9741,-3.90501 -1.74182,-6.06254c0.28599,-2.65647 2.76679,-4.53825 5.54102,-4.20309z"/><path d="M129.28665,189.94419c0.73903,0.08929 1.43258,0.25047 2.0497,0.46403c1.69947,0.58811 2.81948,1.5734 2.71458,2.5478c-0.06175,0.57347 -0.99036,2.26908 -1.73458,2.59783c-0.9795,0.43267 -1.97108,-0.60926 -3.54752,-0.79971c-2.77423,-0.33516 -4.90727,-1.6836 -4.76428,-3.01184c0.14299,-1.32824 2.50787,-2.13328 5.2821,-1.79812z"/><path d="M118.98483,190.27383c1.75215,0.21168 3.05661,1.46001 2.91362,2.78825c-0.14299,1.32824 -1.6793,2.23338 -3.43145,2.0217c-1.30176,-0.15727 -2.39299,-1.06448 -3.07705,-2.13606c-0.23667,-0.37074 -0.88303,-0.88253 -0.84628,-1.22394c0.09612,-0.89284 1.25417,-1.11415 2.55092,-1.24456c0.63236,-0.06359 1.3159,-0.27477 1.89025,-0.20538z"/><path d="M121.41322,187.61869c1.75215,0.21168 3.05662,1.46002 2.91363,2.78826c-0.14299,1.32824 -1.67931,2.23338 -3.43146,2.0217c-1.75215,-0.21168 -3.05662,-1.46001 -2.91363,-2.78825c0.07176,-0.66658 0.78781,-0.96628 1.41258,-1.33206c0.62015,-0.36307 1.14606,-0.79509 2.01887,-0.68964z"/><path d="M125.69302,186.13677c1.20779,0.14592 1.62321,1.07787 2.73931,1.65058c1.12574,0.57767 2.94656,0.79944 2.84715,1.72294c-0.19799,1.83909 -3.87741,3.57951 -6.30346,3.28641c-2.42605,-0.29309 -4.23224,-2.02159 -4.03425,-3.86067c0.02465,-0.22901 -0.296,-0.94403 -0.21465,-1.15302c0.27533,-0.7074 1.04207,-1.08794 1.89885,-1.35374c0.9228,-0.28627 1.96569,-0.42557 3.06706,-0.29251z"/></g><g data-paper-data="{&quot;index&quot;:null}" fill="#573007"><path d="M181.85265,198.05479c-0.57978,0.42162 -1.52008,0.30399 -2.10022,-0.26275c-0.58015,-0.56674 -0.58045,-1.36795 -0.00067,-1.78957c0.57978,-0.42162 1.36891,-0.19405 1.94906,0.37268c0.34784,0.3398 0.54158,0.72438 0.51599,1.06875c-0.01709,0.22999 -0.132,0.44206 -0.36415,0.61088z"/><path d="M180.79729,198.63384c-0.66094,0.48064 -1.66705,0.41086 -2.24719,-0.15588c-0.58015,-0.56674 -0.51465,-1.4158 0.1463,-1.89644c0.38002,-0.27635 1.87885,-1.06369 1.33581,-0.29334c-0.17616,0.2499 0.66481,0.20833 0.91139,0.44921c0.58015,0.56674 0.51465,1.4158 -0.1463,1.89645z"/><path d="M180.94328,200.85159c-0.66094,0.48064 -1.84031,0.24159 -2.6342,-0.53394c-0.79389,-0.77553 -0.96492,-1.8986 -0.30398,-2.37924c0.12414,-0.09027 0.25314,-0.59762 0.40786,-0.63833c0.66907,-0.17605 1.64483,0.64714 2.2896,1.27701c0.79389,0.77553 0.90165,1.79386 0.24071,2.2745z"/><path d="M180.25418,200.5362c-0.17607,0.12804 -0.3661,0.22732 -0.55765,0.29674c-0.52751,0.19117 -1.06662,0.1559 -1.35782,-0.12856c-0.17138,-0.16742 -0.52924,-0.81601 -0.48605,-1.0579c0.05685,-0.31835 0.58848,-0.24138 0.96406,-0.5145c0.66094,-0.48064 1.51853,-0.55594 1.91547,-0.16817c0.39694,0.38777 0.18293,1.09175 -0.47801,1.57239z"/><path d="M182.20426,198.3267c-0.41744,0.30357 -1.07762,0.23531 -1.47457,-0.15246c-0.39694,-0.38777 -0.38033,-0.9482 0.03711,-1.25177c0.31014,-0.22553 0.8185,-0.20541 1.29826,-0.05713c0.16599,0.0513 0.45891,0.05632 0.56094,0.15599c0.26683,0.26066 0.10664,0.55874 -0.11035,0.86086c-0.10581,0.14732 -0.17457,0.345 -0.3114,0.44451z"/><path d="M182.5702,199.54287c-0.41744,0.30357 -1.07762,0.23531 -1.47457,-0.15246c-0.39694,-0.38777 -0.38033,-0.9482 0.03711,-1.25176c0.41744,-0.30357 1.07763,-0.23531 1.47457,0.15246c0.19921,0.1946 0.15233,0.42285 0.14483,0.65014c-0.00745,0.2256 0.026,0.45041 -0.18194,0.60163z"/><path d="M182.1909,200.82364c-0.28775,0.20925 -0.66918,0.04335 -1.07535,0.11858c-0.40968,0.07589 -0.84406,0.39087 -1.12005,0.12126c-0.54961,-0.5369 -0.37291,-1.76383 0.20508,-2.18415c0.57799,-0.42032 1.4921,-0.32581 2.04171,0.2111c0.06844,0.06686 0.36147,0.19375 0.41218,0.26688c0.17167,0.24752 0.14056,0.50801 0.05474,0.75608c-0.09244,0.26719 -0.25592,0.51944 -0.51831,0.71025z"/></g></g></g></svg>