<svg version="1.1" xmlns="http://www.w3.org/2000/svg" xmlns:xlink="http://www.w3.org/1999/xlink" width="314.27054" height="438.63902" viewBox="0,0,314.27054,438.63902"><defs><radialGradient cx="326.33523" cy="44.02259" r="35.33202" gradientUnits="userSpaceOnUse" id="color-1"><stop offset="0" stop-color="#d2f7f4" stop-opacity="0"/><stop offset="1" stop-color="#d2f7f4"/></radialGradient><radialGradient cx="145.39717" cy="131.10647" r="23.89751" gradientUnits="userSpaceOnUse" id="color-2"><stop offset="0" stop-color="#d2f7f4" stop-opacity="0"/><stop offset="1" stop-color="#d2f7f4"/></radialGradient><radialGradient cx="175.74701" cy="330.57627" r="35.25771" gradientUnits="userSpaceOnUse" id="color-3"><stop offset="0" stop-color="#d2f7f4" stop-opacity="0"/><stop offset="1" stop-color="#d2f7f4"/></radialGradient><radialGradient cx="330.51111" cy="231.92063" r="61.60453" gradientUnits="userSpaceOnUse" id="color-4"><stop offset="0" stop-color="#d2f7f4" stop-opacity="0"/><stop offset="1" stop-color="#d2f7f4"/></radialGradient><radialGradient cx="153.08867" cy="-75.49915" r="75.2436" gradientUnits="userSpaceOnUse" id="color-5"><stop offset="0" stop-color="#d2f7f4" stop-opacity="0"/><stop offset="1" stop-color="#d2f7f4"/></radialGradient></defs><g transform="translate(-77.84501,94.9776)"><g data-paper-data="{&quot;isPaintingLayer&quot;:true}" fill-rule="nonzero" stroke-linecap="butt" stroke-linejoin="miter" stroke-miterlimit="10" stroke-dasharray="" stroke-dashoffset="0" style="mix-blend-mode: normal"><path d="M291.00322,44.02259c0,-10.12837 15.81868,-18.33902 35.33201,-18.33902c19.51333,0 35.33201,8.21066 35.33201,18.33902c0,10.12837 -15.81868,18.33902 -35.33201,18.33902c-19.51333,0 -35.33201,-8.21066 -35.33201,-18.33902z" fill="url(#color-1)" stroke="#ffffff" stroke-width="0"/><path d="M121.49968,131.10647c0,-9.2838 10.69927,-16.8098 23.89751,-16.8098c13.19822,0 23.89751,7.52601 23.89751,16.8098c0,9.2838 -10.69927,16.8098 -23.89751,16.8098c-13.19822,0 -23.89751,-7.52601 -23.89751,-16.8098z" fill="url(#color-2)" stroke="#ffffff" stroke-width="0"/><path d="M140.48931,330.57627c0,-7.22673 15.78541,-13.08514 35.2577,-13.08514c19.47228,0 35.2577,5.85842 35.2577,13.08514c0,7.22673 -15.78542,13.08515 -35.2577,13.08515c-19.47229,0 -35.2577,-5.85842 -35.2577,-13.08515z" fill="url(#color-3)" stroke="#ffffff" stroke-width="0"/><path d="M268.90653,231.92063c0,-7.22672 27.58128,-13.08514 61.60451,-13.08514c34.02323,0 61.60451,5.85842 61.60451,13.08514c0,7.22672 -27.58128,13.08514 -61.60451,13.08514c-34.02323,0 -61.60451,-5.85842 -61.60451,-13.08514z" fill="url(#color-4)" stroke="#ffffff" stroke-width="0"/><g fill="#e6e6e6" stroke="none" stroke-width="0.26459"><path d="M196.11287,203.13266h1.55399l1.18896,7.30064h-1.14724l-0.20859,-1.4497v0.02089h-1.30369l-0.20859,1.42884h-1.06381zM197.3644,208.01365l-0.51105,-3.6086h-0.02086l-0.50062,3.6086z"/><path d="M202.70429,210.53759c-0.55624,0 -0.98037,-0.15644 -1.2724,-0.46933c-0.29202,-0.31983 -0.43804,-0.77526 -0.43804,-1.36626v-3.83805c0,-0.591 0.14602,-1.04295 0.43804,-1.35584c0.29203,-0.31984 0.71616,-0.47976 1.2724,-0.47976c0.55624,0 0.98037,0.15992 1.2724,0.47976c0.29203,0.31289 0.43804,0.76483 0.43804,1.35584v0.62577h-1.08467v-0.69878c0,-0.47976 -0.19815,-0.71964 -0.59448,-0.71964c-0.39632,0 -0.59448,0.23988 -0.59448,0.71964v3.99449c0,0.4728 0.19816,0.7092 0.59448,0.7092c0.39632,0 0.59448,-0.2364 0.59448,-0.7092v-1.42884h-0.57362v-1.04294h1.65829v2.38834c0,0.591 -0.14601,1.04643 -0.43804,1.36626c-0.29202,0.31289 -0.71616,0.46933 -1.2724,0.46933z"/><path d="M206.04171,203.13266h1.554l1.18896,7.30064h-1.14725l-0.20859,-1.4497v0.02089h-1.30368l-0.2086,1.42884h-1.0638zM207.29325,208.01365l-0.51105,-3.6086h-0.02086l-0.50062,3.6086z"/><path d="M209.33743,203.13266h1.63743l0.73006,5.22517h0.02086l0.73007,-5.22517h1.63743v7.30064h-1.08467v-5.52763h-0.02086l-0.83436,5.52763h-0.95951l-0.83436,-5.52763h-0.02086v5.52763h-1.00123z"/><path d="M214.94847,203.13266h3.12885v1.04294h-1.9816v1.92946h1.57485v1.04295h-1.57485v2.24234h1.9816v1.04295h-3.12885z"/><path d="M220.40308,203.13266h1.73129c0.59101,0 1.02209,0.13906 1.29326,0.41717c0.27117,0.27117 0.40675,0.69182 0.40675,1.26197v0.29203c0,0.37546 -0.06258,0.68139 -0.18773,0.91779c-0.1182,0.23641 -0.30246,0.40676 -0.55276,0.51105v0.02089c0.57014,0.19469 0.85521,0.70226 0.85521,1.52271v0.62577c0,0.56319 -0.14948,0.99428 -0.44847,1.29325c-0.29203,0.29203 -0.72311,0.43804 -1.29325,0.43804h-1.8043zM221.99879,206.10506c0.22945,0 0.3998,-0.0591 0.51105,-0.17731c0.1182,-0.1182 0.1773,-0.31635 0.1773,-0.59447v-0.40675c0,-0.26422 -0.04867,-0.45542 -0.14601,-0.57362c-0.09039,-0.1182 -0.2364,-0.17731 -0.43804,-0.17731h-0.55276v1.92946zM222.20738,209.39035c0.20163,0 0.35112,-0.05214 0.44847,-0.15644c0.09734,-0.11124 0.14601,-0.29897 0.14601,-0.56319v-0.6362c0,-0.33374 -0.0591,-0.5632 -0.1773,-0.68835c-0.11125,-0.13211 -0.29898,-0.19815 -0.56319,-0.19815h-0.51105v2.24234z"/><path d="M225.50308,207.32531l-1.38712,-4.19266h1.22025l0.78221,2.68038h0.02086l0.78221,-2.68038h1.11596l-1.38712,4.19266v3.10799h-1.14725z"/><path d="M230.22763,203.13266h1.75216c0.57014,0 0.99775,0.15297 1.28283,0.4589c0.28507,0.30593 0.42761,0.7544 0.42761,1.3454v3.69204c0,0.591 -0.14254,1.03948 -0.42761,1.34541c-0.28507,0.30593 -0.71268,0.45889 -1.28283,0.45889h-1.75216zM231.95892,209.39035c0.18773,0 0.33027,-0.05562 0.42761,-0.16687c0.1043,-0.11126 0.15644,-0.29203 0.15644,-0.54233v-3.79634c0,-0.25031 -0.05214,-0.43108 -0.15644,-0.54233c-0.09734,-0.11124 -0.23988,-0.16687 -0.42761,-0.16687h-0.58405v5.21475z"/><path d="M234.46198,203.13266h3.12885v1.04294h-1.98161v1.92946h1.57485v1.04295h-1.57485v2.24234h1.98161v1.04295h-3.12885z"/><path d="M238.24787,203.13266h1.73129c0.59101,0 1.02209,0.13906 1.29326,0.41717c0.27117,0.27117 0.40675,0.69182 0.40675,1.26197v0.29203c0,0.37546 -0.06258,0.68139 -0.18773,0.91779c-0.1182,0.23641 -0.30246,0.40676 -0.55276,0.51105v0.02089c0.57014,0.19469 0.85521,0.70226 0.85521,1.52271v0.62577c0,0.56319 -0.14948,0.99428 -0.44847,1.29325c-0.29203,0.29203 -0.72311,0.43804 -1.29326,0.43804h-1.8043zM239.84359,206.10506c0.22945,0 0.3998,-0.0591 0.51105,-0.17731c0.1182,-0.1182 0.1773,-0.31635 0.1773,-0.59447v-0.40675c0,-0.26422 -0.04867,-0.45542 -0.14601,-0.57362c-0.09039,-0.1182 -0.2364,-0.17731 -0.43804,-0.17731h-0.55276v1.92946zM240.05217,209.39035c0.20163,0 0.35113,-0.05214 0.44847,-0.15644c0.09734,-0.11124 0.14601,-0.29897 0.14601,-0.56319v-0.6362c0,-0.33374 -0.0591,-0.5632 -0.1773,-0.68835c-0.11125,-0.13211 -0.29897,-0.19815 -0.56319,-0.19815h-0.51105v2.24234z"/><path d="M242.46138,203.13266h1.14725v7.30064h-1.14725z"/><path d="M244.46382,203.13266h1.14725v6.25769h1.88773v1.04295h-3.03498z"/><path d="M248.05156,203.13266h1.14725v7.30064h-1.14725z"/><path d="M250.95096,204.1756h-1.19939v-1.04294h3.54602v1.04294h-1.19939v6.25769h-1.14725z"/><path d="M254.94544,207.32531l-1.38712,-4.19266h1.22024l0.78221,2.68038h0.02089l0.7822,-2.68038h1.11596l-1.38712,4.19266v3.10799h-1.14724z"/><path d="M257.57363,210.53759h3.12885v0.83437h-3.12885z"/><path d="M261.13009,203.13266h1.14725v3.07669l1.46012,-3.07669h1.14725l-1.36627,2.68038l1.38712,4.62026h-1.19939l-0.96993,-3.254l-0.4589,0.92822v2.32577h-1.14725z"/><path d="M265.44791,203.13266h1.14724v2.9724h1.23068v-2.9724h1.14724v7.30064h-1.14724v-3.28529h-1.23068v3.28529h-1.14724z"/><path d="M269.82826,203.13266h3.12885v1.04294h-1.9816v1.92946h1.57486v1.04295h-1.57486v2.24234h1.9816v1.04295h-3.12885z"/><path d="M275.27243,210.53759c-0.56319,0 -0.99428,-0.15992 -1.29326,-0.47976c-0.29897,-0.31983 -0.44847,-0.77178 -0.44847,-1.35584v-3.83805c0,-0.58405 0.14949,-1.036 0.44847,-1.35584c0.29897,-0.31984 0.73007,-0.47976 1.29326,-0.47976c0.56319,0 0.99428,0.15992 1.29326,0.47976c0.29897,0.31983 0.44847,0.77178 0.44847,1.35584v3.83805c0,0.58405 -0.14949,1.036 -0.44847,1.35584c-0.29897,0.31984 -0.73007,0.47976 -1.29326,0.47976zM275.27243,209.49464c0.39632,0 0.59448,-0.23987 0.59448,-0.71962v-3.98407c0,-0.47976 -0.19816,-0.71964 -0.59448,-0.71964c-0.39632,0 -0.59448,0.23988 -0.59448,0.71964v3.98407c0,0.47975 0.19816,0.71962 0.59448,0.71962z"/><path d="M277.78594,203.13266h1.68957c0.57014,0 0.99776,0.15297 1.28283,0.4589c0.28507,0.30593 0.4276,0.7544 0.4276,1.3454v0.71964c0,0.591 -0.14253,1.03947 -0.4276,1.3454c-0.28507,0.30594 -0.71269,0.4589 -1.28283,0.4589h-0.54233v2.9724h-1.14724zM279.47551,206.41794c0.18773,0 0.32679,-0.05215 0.41717,-0.15644c0.09734,-0.1043 0.14602,-0.2816 0.14602,-0.5319v-0.86564c0,-0.25031 -0.04867,-0.42761 -0.14602,-0.53191c-0.09039,-0.1043 -0.22944,-0.15644 -0.41717,-0.15644h-0.54233v2.24234z"/><path d="M283.34484,210.53759c-0.55624,0 -0.97689,-0.15644 -1.26196,-0.46933c-0.28508,-0.31983 -0.42762,-0.77526 -0.42762,-1.36626v-0.41717h1.08467v0.50062c0,0.4728 0.19816,0.7092 0.59448,0.7092c0.19469,0 0.34069,-0.05562 0.43803,-0.16687c0.1043,-0.1182 0.15644,-0.30594 0.15644,-0.56319c0,-0.30593 -0.06953,-0.57361 -0.20858,-0.80307c-0.13906,-0.2364 -0.39633,-0.51799 -0.77179,-0.84479c-0.4728,-0.41718 -0.80307,-0.79264 -0.9908,-1.12639c-0.18773,-0.34069 -0.2816,-0.72311 -0.2816,-1.14724c0,-0.57709 0.14601,-1.02209 0.43804,-1.33497c0.29203,-0.31984 0.71616,-0.47976 1.27239,-0.47976c0.54928,0 0.96299,0.15992 1.24111,0.47976c0.28508,0.31289 0.42762,0.76483 0.42762,1.35584v0.30245h-1.08466v-0.37546c0,-0.25031 -0.04867,-0.43109 -0.14602,-0.54234c-0.09734,-0.1182 -0.23989,-0.1773 -0.42762,-0.1773c-0.38242,0 -0.57362,0.23293 -0.57362,0.69878c0,0.26421 0.06953,0.51104 0.20859,0.74049c0.14601,0.22946 0.40676,0.50757 0.78222,0.83437c0.47975,0.41717 0.81002,0.79611 0.9908,1.13681c0.18078,0.3407 0.27117,0.7405 0.27117,1.19939c0,0.59796 -0.14949,1.05685 -0.44848,1.37669c-0.29202,0.31984 -0.71963,0.47976 -1.28282,0.47976z"/></g><g fill="#e4e4e4" stroke="none" stroke-width="0.26459"><path d="M175.00101,221.97163c-0.49671,0 -0.8769,-0.14104 -1.14058,-0.42312c-0.26368,-0.28208 -0.39552,-0.68067 -0.39552,-1.19577v-3.38494c0,-0.5151 0.13184,-0.91369 0.39552,-1.19577c0.26368,-0.28208 0.64387,-0.42312 1.14058,-0.42312c0.49671,0 0.8769,0.14104 1.14058,0.42312c0.26368,0.28208 0.39552,0.68067 0.39552,1.19577v3.38494c0,0.5151 -0.13184,0.91369 -0.39552,1.19577c-0.26368,0.28208 -0.64387,0.42312 -1.14058,0.42312zM175.00101,221.05182c0.34953,0 0.5243,-0.21156 0.5243,-0.63468v-3.51372c0,-0.42312 -0.17477,-0.63467 -0.5243,-0.63467c-0.34953,0 -0.5243,0.21156 -0.5243,0.63467v3.51372c0,0.42312 0.17477,0.63468 0.5243,0.63468z"/><path d="M177.21775,215.4409h1.49931c0.52123,0 0.90143,0.12264 1.14058,0.36793c0.23916,0.23916 0.35873,0.61015 0.35873,1.11298v0.39552c0,0.66841 -0.22076,1.09152 -0.66227,1.26936v0.0184c0.24528,0.07359 0.41698,0.22382 0.51511,0.45071c0.10424,0.22689 0.15636,0.53043 0.15636,0.91063v1.13138c0,0.18396 0.00614,0.3342 0.01843,0.45071c0.01229,0.11038 0.04294,0.22076 0.09198,0.33114h-1.0302c-0.0368,-0.10425 -0.06133,-0.20236 -0.07361,-0.29434c-0.01229,-0.09198 -0.01843,-0.25755 -0.01843,-0.49671v-1.17737c0,-0.29434 -0.04906,-0.49978 -0.14717,-0.61629c-0.09198,-0.11651 -0.25449,-0.17477 -0.48751,-0.17477h-0.34953v2.75947h-1.01181zM178.5975,218.20036c0.20237,0 0.3526,-0.05212 0.45071,-0.15637c0.10425,-0.10425 0.15637,-0.27902 0.15637,-0.5243v-0.4967c0,-0.23302 -0.04292,-0.40165 -0.12878,-0.5059c-0.07971,-0.10425 -0.20849,-0.15637 -0.38633,-0.15637h-0.45991v1.83964z"/><path d="M180.92466,215.4409h1.0118v6.43875h-1.0118z"/><path d="M184.12563,221.97163c-0.49057,0 -0.86463,-0.13798 -1.12218,-0.41392c-0.25755,-0.28208 -0.38633,-0.68373 -0.38633,-1.20497v-3.38494c0,-0.52123 0.12877,-0.91982 0.38633,-1.19577c0.25755,-0.28208 0.63161,-0.42312 1.12218,-0.42312c0.49057,0 0.86464,0.14104 1.12219,0.42312c0.25755,0.27595 0.38633,0.67453 0.38633,1.19577v0.55189h-0.95662v-0.61628c0,-0.42312 -0.17477,-0.63467 -0.5243,-0.63467c-0.34953,0 -0.52429,0.21156 -0.52429,0.63467v3.52292c0,0.41698 0.17477,0.62548 0.52429,0.62548c0.34953,0 0.5243,-0.20849 0.5243,-0.62548v-1.26015h-0.5059v-0.91982h1.46252v2.10639c0,0.52123 -0.12877,0.92289 -0.38633,1.20497c-0.25755,0.27595 -0.63162,0.41392 -1.12219,0.41392z"/><path d="M186.2872,215.4409h1.0118v6.43875h-1.0118z"/><path d="M188.05325,215.4409h1.26936l0.98421,3.85406h0.01843v-3.85406h0.90142v6.43875h-1.0394l-1.21417,-4.70029h-0.01843v4.70029h-0.90143z"/><path d="M192.76272,215.4409h1.37054l1.04859,6.43875h-1.0118l-0.18397,-1.27855v0.0184h-1.14978l-0.18397,1.26015h-0.93821zM193.86651,219.74566l-0.45071,-3.18258h-0.01843l-0.44151,3.18258z"/><path d="M195.66935,215.4409h1.0118v5.51893h1.66488v0.91982h-2.67668z"/><path d="M201.74017,221.97163c-0.49057,0 -0.86463,-0.13798 -1.12218,-0.41392c-0.25755,-0.28208 -0.38633,-0.68373 -0.38633,-1.20497v-3.38494c0,-0.52123 0.12877,-0.91982 0.38633,-1.19577c0.25755,-0.28208 0.63161,-0.42312 1.12218,-0.42312c0.49057,0 0.86464,0.14104 1.12218,0.42312c0.25755,0.27595 0.38633,0.67453 0.38633,1.19577v0.55189h-0.95661v-0.61628c0,-0.42312 -0.17477,-0.63467 -0.5243,-0.63467c-0.34953,0 -0.5243,0.21156 -0.5243,0.63467v3.52292c0,0.41698 0.17477,0.62548 0.5243,0.62548c0.34953,0 0.5243,-0.20849 0.5243,-0.62548v-1.26015h-0.5059v-0.91982h1.46251v2.10639c0,0.52123 -0.12877,0.92289 -0.38633,1.20497c-0.25754,0.27595 -0.6316,0.41392 -1.12218,0.41392z"/><path d="M204.6836,215.4409h1.37054l1.04859,6.43875h-1.0118l-0.18397,-1.27855v0.0184h-1.14978l-0.18396,1.26015h-0.93822zM205.78738,219.74566l-0.45071,-3.18258h-0.01843l-0.44151,3.18258z"/><path d="M207.59022,215.4409h1.44412l0.64387,4.60831h0.01843l0.64387,-4.60831h1.44412v6.43875h-0.95661v-4.87505h-0.01843l-0.73585,4.87505h-0.84624l-0.73585,-4.87505h-0.01843v4.87505h-0.88302z"/><path d="M212.53883,215.4409h2.75947v0.91982h-1.74767v1.70167h1.38893v0.91982h-1.38893v1.97762h1.74767v0.91982h-2.75947z"/><path d="M218.77522,221.97163c-0.48444,0 -0.85543,-0.13798 -1.11298,-0.41392c-0.25142,-0.27595 -0.37713,-0.66534 -0.37713,-1.16818v-3.45853c0,-0.50284 0.12571,-0.89222 0.37713,-1.16818c0.25755,-0.27595 0.62855,-0.41391 1.11298,-0.41391c0.48444,0 0.85236,0.13797 1.10378,0.41391c0.25755,0.27595 0.38633,0.66534 0.38633,1.16818v0.68067h-0.95661v-0.74505c0,-0.39859 -0.16863,-0.59788 -0.5059,-0.59788c-0.33727,0 -0.50591,0.19929 -0.50591,0.59788v3.59651c0,0.39246 0.16864,0.58869 0.50591,0.58869c0.33727,0 0.5059,-0.19622 0.5059,-0.58869v-0.98421h0.95661v0.91062c0,0.50284 -0.12877,0.89222 -0.38633,1.16818c-0.25142,0.27595 -0.61934,0.41392 -1.10378,0.41392z"/><path d="M220.87241,215.4409h1.49931c0.52123,0 0.90143,0.12264 1.14058,0.36793c0.23916,0.23916 0.35873,0.61015 0.35873,1.11298v0.39552c0,0.66841 -0.22076,1.09152 -0.66227,1.26936v0.0184c0.24528,0.07359 0.41698,0.22382 0.51511,0.45071c0.10424,0.22689 0.15636,0.53043 0.15636,0.91063v1.13138c0,0.18396 0.00614,0.3342 0.01843,0.45071c0.01229,0.11038 0.04294,0.22076 0.09198,0.33114h-1.03023c-0.0368,-0.10425 -0.06133,-0.20236 -0.07361,-0.29434c-0.01229,-0.09198 -0.01843,-0.25755 -0.01843,-0.49671v-1.17737c0,-0.29434 -0.04906,-0.49978 -0.14717,-0.61629c-0.09198,-0.11651 -0.25449,-0.17477 -0.48751,-0.17477h-0.34953v2.75947h-1.01181zM222.25213,218.20036c0.20237,0 0.3526,-0.05212 0.45071,-0.15637c0.10425,-0.10425 0.15637,-0.27902 0.15637,-0.5243v-0.4967c0,-0.23302 -0.04292,-0.40165 -0.12878,-0.5059c-0.07971,-0.10425 -0.20849,-0.15637 -0.38633,-0.15637h-0.45991v1.83964z"/><path d="M224.57929,215.4409h2.75947v0.91982h-1.74767v1.70167h1.38893v0.91982h-1.38893v1.97762h1.74767v0.91982h-2.75947z"/><path d="M228.70009,215.4409h1.37054l1.0486,6.43875h-1.01181l-0.18396,-1.27855v0.0184h-1.14978l-0.18397,1.26015h-0.93822zM229.80388,219.74566l-0.45072,-3.18258h-0.01843l-0.44151,3.18258z"/><path d="M231.97463,216.36072h-1.05779v-0.91982h3.12739v0.91982h-1.05779v5.51893h-1.0118z"/><path d="M234.53172,215.4409h2.75947v0.91982h-1.74767v1.70167h1.38893v0.91982h-1.38893v1.97762h1.74767v0.91982h-2.75947z"/><path d="M237.87066,215.4409h1.54529c0.50284,0 0.87996,0.13491 1.13139,0.40472c0.25142,0.26982 0.37712,0.66534 0.37712,1.18657v3.25617c0,0.52123 -0.12571,0.91675 -0.37712,1.18657c-0.25142,0.26982 -0.62855,0.40472 -1.13139,0.40472h-1.54529zM239.39756,220.95983c0.16557,0 0.29128,-0.04905 0.37713,-0.14717c0.09198,-0.09812 0.13798,-0.25755 0.13798,-0.47831v-3.34815c0,-0.22076 -0.04599,-0.38019 -0.13798,-0.4783c-0.08585,-0.09812 -0.21156,-0.14717 -0.37713,-0.14717h-0.51509v4.59911z"/><path d="M243.07682,215.4409h1.52691c0.52123,0 0.90143,0.12264 1.14058,0.36793c0.23916,0.23916 0.35873,0.61015 0.35873,1.11298v0.25755c0,0.33114 -0.05519,0.60095 -0.16557,0.80944c-0.10425,0.20849 -0.26675,0.35873 -0.48751,0.45071v0.0184c0.50284,0.1717 0.75426,0.61935 0.75426,1.34294v0.55189c0,0.49671 -0.13184,0.87689 -0.39553,1.14058c-0.25755,0.25755 -0.63774,0.38633 -1.14058,0.38633h-1.59129zM244.48415,218.06239c0.20237,0 0.3526,-0.05212 0.45071,-0.15637c0.10425,-0.10425 0.15637,-0.27901 0.15637,-0.5243v-0.35873c0,-0.23302 -0.04292,-0.40165 -0.12878,-0.5059c-0.07971,-0.10425 -0.20849,-0.15637 -0.38633,-0.15637h-0.4875v1.70167zM244.66812,220.95983c0.17784,0 0.30968,-0.04599 0.39553,-0.13798c0.08585,-0.09812 0.12877,-0.26368 0.12877,-0.4967v-0.56109c0,-0.29434 -0.05212,-0.4967 -0.15636,-0.60708c-0.09812,-0.11651 -0.26369,-0.17477 -0.49671,-0.17477h-0.45071v1.97762z"/><path d="M247.57475,219.13859l-1.22336,-3.69768h1.07619l0.68987,2.36395h0.01843l0.68986,-2.36395h0.98421l-1.22336,3.69768v2.74106h-1.01181z"/><path d="M252.53258,216.36072h-1.05779v-0.91982h3.12739v0.91982h-1.05779v5.51893h-1.0118z"/><path d="M255.08967,215.4409h1.0118v2.62149h1.08539v-2.62149h1.01181v6.43875h-1.01181v-2.89744h-1.08539v2.89744h-1.0118z"/><path d="M258.9529,215.4409h2.75947v0.91982h-1.74767v1.70167h1.38893v0.91982h-1.38893v1.97762h1.74767v0.91982h-2.75947z"/><path d="M263.76356,215.4409h1.0118v2.71348l1.28775,-2.71348h1.01181l-1.20497,2.36395l1.22336,4.07481h-1.05779l-0.85543,-2.86984l-0.40472,0.81864v2.0512h-1.0118z"/><path d="M267.33245,215.4409h0.97501l0.45071,4.94864h0.01843l0.4783,-4.94864h1.10378l0.47832,4.94864h0.01843l0.45071,-4.94864h0.87384l-0.65308,6.43875h-1.26015l-0.45991,-4.34156h-0.01843l-0.45992,4.34156h-1.34294z"/><path d="M273.34808,215.4409h1.37054l1.0486,6.43875h-1.01181l-0.18396,-1.27855v0.0184h-1.14978l-0.18396,1.26015h-0.93822zM274.45183,219.74566l-0.45071,-3.18258h-0.01843l-0.44151,3.18258z"/><path d="M276.25469,215.4409h1.0118v5.51893h1.66488v0.91982h-2.67668z"/><path d="M279.41889,215.4409h2.75947v0.91982h-1.74765v1.70167h1.38892v0.91982h-1.38892v1.97762h1.74765v0.91982h-2.75947z"/><path d="M282.7578,215.4409h2.75947v0.91982h-1.74767v1.70167h1.38893v0.91982h-1.38893v1.97762h1.74767v0.91982h-2.75947z"/><path d="M288.88383,221.97163c-0.49057,0 -0.86156,-0.13798 -1.11298,-0.41392c-0.25142,-0.28208 -0.37713,-0.68373 -0.37713,-1.20497v-0.36793h0.95662v0.44151c0,0.41698 0.17477,0.62548 0.5243,0.62548c0.1717,0 0.30047,-0.04906 0.38632,-0.14717c0.09198,-0.10425 0.13798,-0.26981 0.13798,-0.4967c0,-0.26982 -0.06132,-0.5059 -0.18396,-0.70826c-0.12264,-0.20849 -0.34954,-0.45685 -0.68068,-0.74506c-0.41698,-0.36793 -0.70826,-0.69906 -0.87383,-0.9934c-0.16557,-0.30047 -0.24835,-0.63774 -0.24835,-1.0118c0,-0.50897 0.12877,-0.90143 0.38633,-1.17737c0.25755,-0.28208 0.63161,-0.42312 1.12218,-0.42312c0.48444,0 0.84931,0.14104 1.0946,0.42312c0.25142,0.27595 0.37712,0.67453 0.37712,1.19577v0.26675h-0.95661v-0.33114c0,-0.22076 -0.04292,-0.38019 -0.12878,-0.4783c-0.08585,-0.10425 -0.21156,-0.15637 -0.37712,-0.15637c-0.33727,0 -0.50591,0.20543 -0.50591,0.61628c0,0.23302 0.06132,0.45071 0.18397,0.65308c0.12877,0.20237 0.35873,0.44765 0.68987,0.73586c0.42312,0.36793 0.7144,0.70213 0.87383,1.00261c0.15943,0.30047 0.23916,0.65307 0.23916,1.05779c0,0.52736 -0.13184,0.93209 -0.39552,1.21417c-0.25755,0.28208 -0.63468,0.42312 -1.13139,0.42312z"/><path d="M291.78125,216.36072h-1.05779v-0.91982h3.12739v0.91982h-1.05779v5.51893h-1.01181z"/><path d="M295.81007,221.97163c-0.49057,0 -0.86463,-0.13798 -1.12218,-0.41392c-0.25755,-0.28208 -0.38633,-0.68373 -0.38633,-1.20497v-4.91185h1.0118v4.98544c0,0.22076 0.04292,0.38019 0.12878,0.4783c0.09198,0.09812 0.22076,0.14717 0.38633,0.14717c0.16557,0 0.29128,-0.04906 0.37712,-0.14717c0.09198,-0.09812 0.13798,-0.25755 0.13798,-0.4783v-4.98544h0.97501v4.91185c0,0.52123 -0.12877,0.92289 -0.38633,1.20497c-0.25754,0.27595 -0.6316,0.41392 -1.12218,0.41392z"/><path d="M298.03602,215.4409h1.54531c0.50284,0 0.87996,0.13491 1.13137,0.40472c0.25142,0.26982 0.37713,0.66534 0.37713,1.18657v3.25617c0,0.52123 -0.12571,0.91675 -0.37713,1.18657c-0.25142,0.26982 -0.62854,0.40472 -1.13137,0.40472h-1.54531zM299.56291,220.95983c0.16557,0 0.29128,-0.04905 0.37713,-0.14717c0.09198,-0.09812 0.13798,-0.25755 0.13798,-0.47831v-3.34815c0,-0.22076 -0.04599,-0.38019 -0.13798,-0.4783c-0.08585,-0.09812 -0.21156,-0.14717 -0.37713,-0.14717h-0.51509v4.59911z"/><path d="M301.77049,215.4409h1.0118v6.43875h-1.0118z"/><path d="M304.99906,221.97163c-0.49671,0 -0.8769,-0.14104 -1.14058,-0.42312c-0.26369,-0.28208 -0.39553,-0.68067 -0.39553,-1.19577v-3.38494c0,-0.5151 0.13184,-0.91369 0.39553,-1.19577c0.26368,-0.28208 0.64387,-0.42312 1.14058,-0.42312c0.4967,0 0.87689,0.14104 1.14057,0.42312c0.26369,0.28208 0.39553,0.68067 0.39553,1.19577v3.38494c0,0.5151 -0.13184,0.91369 -0.39553,1.19577c-0.26368,0.28208 -0.64387,0.42312 -1.14057,0.42312zM304.99906,221.05182c0.34953,0 0.52429,-0.21156 0.52429,-0.63468v-3.51372c0,-0.42312 -0.17477,-0.63467 -0.52429,-0.63467c-0.34953,0 -0.5243,0.21156 -0.5243,0.63467v3.51372c0,0.42312 0.17477,0.63468 0.5243,0.63468z"/></g><path d="M77.84501,-75.49915c0,-10.75765 33.6877,-19.47845 75.24357,-19.47845c41.55588,0 75.24357,8.7208 75.24357,19.47845c0,10.75765 -33.6877,19.47845 -75.24357,19.47845c-41.55588,0 -75.24357,-8.7208 -75.24357,-19.47845z" fill="url(#color-5)" stroke="#ffffff" stroke-width="0"/></g></g></svg>