<svg version="1.1" xmlns="http://www.w3.org/2000/svg" xmlns:xlink="http://www.w3.org/1999/xlink" width="48" height="103" viewBox="0,0,48,103"><g transform="translate(-222.21429,-201.00002)"><g data-paper-data="{&quot;isPaintingLayer&quot;:true}" fill-rule="nonzero" stroke-linecap="butt" stroke-linejoin="miter" stroke-miterlimit="10" stroke-dasharray="" stroke-dashoffset="0" style="mix-blend-mode: normal"><path d="M242.14744,223.58275c0,-0.63905 0.51805,-1.1571 1.1571,-1.1571c0.63905,0 1.1571,0.51805 1.1571,1.1571c0,0.63905 -0.51805,1.1571 -1.1571,1.1571c-0.63905,0 -1.1571,-0.51805 -1.1571,-1.1571z" fill="#a84303" stroke="#000000" stroke-width="0"/><path d="M246.46685,223.5704c0,-0.63905 0.51805,-1.1571 1.1571,-1.1571c0.63905,0 1.1571,0.51804 1.1571,1.1571c0,0.63905 -0.51804,1.1571 -1.1571,1.1571c-0.63905,0 -1.1571,-0.51805 -1.1571,-1.1571z" fill="#a84303" stroke="#000000" stroke-width="0"/><path d="M246.50261,290.58556c0,-0.63905 0.51805,-1.15709 1.1571,-1.15709c0.63905,0 1.1571,0.51804 1.1571,1.15709c0,0.63905 -0.51804,1.1571 -1.1571,1.1571c-0.63905,0 -1.1571,-0.51805 -1.1571,-1.1571z" fill="#7e3201" stroke="#000000" stroke-width="0"/><path d="M242.11985,290.56782c0,-0.63905 0.51805,-1.15709 1.1571,-1.15709c0.63905,0 1.1571,0.51804 1.1571,1.15709c0,0.63905 -0.51804,1.1571 -1.1571,1.1571c-0.63905,0 -1.1571,-0.51805 -1.1571,-1.1571z" fill="#7e3201" stroke="#000000" stroke-width="0"/><path d="M243.44973,225.5399v-3.12136h4.49226v3.12136z" fill="#a84303" stroke="none" stroke-width="0"/><path d="M242.10736,225.83918v-2.28905h6.6808v2.28905z" fill="#a84303" stroke="none" stroke-width="0"/><path d="M242.10736,237.2495v-11.59746h6.6808v11.59746z" fill="#943900" stroke="none" stroke-width="0"/><path d="M242.10736,290.45757v-53.39523h6.6808v53.39523z" fill="#7e3201" stroke="none" stroke-width="0"/><path d="M243.45316,291.72105v-3.5432h3.90353v3.5432z" fill="#7e3201" stroke="none" stroke-width="0"/><g stroke-width="0"><path d="M242.44444,292.19843v-66.39681h6.11111v66.39681z" fill="#ffdf06" stroke="none"/><path d="M242.44445,292.19843v-66.39681h0.88889v66.39681z" fill="#ffce00" stroke="none"/><path d="M247.5,292.19843v-66.39681h0.88889v66.39681z" fill="#ffce00" stroke="none"/><path d="M243.81046,292.16794v-66.35107h0.94118v66.35107z" fill="#ffe96d" stroke="#000000"/></g><path d="M242.03689,291.28846c0,-4.14618 0,-60.75461 0,-67.87568c0,-0.47914 0.32205,-0.73424 0.81916,-0.73424c1.45653,0 4.4159,0 5.18054,0c0.35367,0 0.71343,0.27389 0.71343,0.7871c0,7.33213 0,63.51308 0,67.76996c0,0.50417 -0.2772,0.83997 -0.71343,0.83997c-1.38411,0 -4.3692,0 -5.18054,0c-0.3978,0 -0.81916,-0.31313 -0.81916,-0.7871z" fill="none" stroke="#94908d" stroke-width="1.5"/><path d="M222.21429,304.00003v-103h48v103z" fill="none" stroke="none" stroke-width="0"/></g></g></svg>