<svg version="1.1" xmlns="http://www.w3.org/2000/svg" xmlns:xlink="http://www.w3.org/1999/xlink" width="211" height="336.43021" viewBox="0,0,211,336.43021"><defs><linearGradient x1="240" y1="122.19811" x2="240" y2="237.80193" gradientUnits="userSpaceOnUse" id="color-1"><stop offset="0" stop-color="#01ff00"/><stop offset="1" stop-color="#00a900"/></linearGradient><linearGradient x1="239.69004" y1="132.54946" x2="239.69004" y2="221.32067" gradientUnits="userSpaceOnUse" id="color-2"><stop offset="0" stop-color="#cdffb9"/><stop offset="1" stop-color="#02c205"/></linearGradient><linearGradient x1="240.30996" y1="138.67934" x2="240.30996" y2="227.45058" gradientUnits="userSpaceOnUse" id="color-3"><stop offset="0" stop-color="#02c205"/><stop offset="1" stop-color="#06940f"/></linearGradient><linearGradient x1="239.98839" y1="136.215" x2="239.98839" y2="223.14957" gradientUnits="userSpaceOnUse" id="color-4"><stop offset="0" stop-color="#00a900"/><stop offset="1" stop-color="#01ff00"/></linearGradient><linearGradient x1="240" y1="153.52393" x2="240" y2="206.47611" gradientUnits="userSpaceOnUse" id="color-5"><stop offset="0" stop-color="#00b100"/><stop offset="1" stop-color="#01f100"/></linearGradient><linearGradient x1="226.14777" y1="158.09178" x2="226.14777" y2="177.73204" gradientUnits="userSpaceOnUse" id="color-6"><stop offset="0" stop-color="#00bf00"/><stop offset="1" stop-color="#00d200"/></linearGradient><linearGradient x1="252.88363" y1="158.22186" x2="252.88363" y2="177.86212" gradientUnits="userSpaceOnUse" id="color-7"><stop offset="0" stop-color="#00bf00"/><stop offset="1" stop-color="#00d200"/></linearGradient></defs><g transform="translate(-134.5,50.93019)"><g data-paper-data="{&quot;isPaintingLayer&quot;:true}" fill-rule="nonzero" stroke-linejoin="miter" stroke-miterlimit="10" stroke-dasharray="" stroke-dashoffset="0" style="mix-blend-mode: normal"><path d="M238.68955,185.06445v-2.69371l-5.02341,-4.805c0,0 0,-3.37456 0,-4.02815c0,-0.23747 0.05824,-0.07794 0.05824,-0.07794l2.27145,-0.01942c0,0 0,-1.06982 0,-1.22281c0,-0.16198 0,-0.11192 0,-0.11192h7.93553c0,0 0,-0.06395 0,0.14561c0,0.24574 0,1.23765 0,1.23765h2.4025c0,0 0,-0.04619 0,0.39827c0,0.83979 0,4.26112 0,4.26112l-5.16901,4.22257v2.69371l2.4025,2.83932c0,0 0.05492,0 -0.43682,0c-1.68847,0 -5.89436,0 -6.77068,0c-0.39559,0 -0.0364,-0.1092 -0.0364,-0.1092z" fill="#ffb900" stroke="#ffffff" stroke-width="1" stroke-linecap="round"/><path d="M236.19483,173.45992c0,0 -0.02314,1.74721 -0.03548,2.67868c-0.01345,1.0156 -0.6246,3.18439 -0.6246,3.18439" fill="none" stroke="#ffffff" stroke-width="1" stroke-linecap="round"/><path d="M244.11979,179.36182c0,0 -0.53349,-2.16879 -0.54694,-3.18439c-0.01234,-0.93147 0.19749,-2.67868 0.19749,-2.67868" data-paper-data="{&quot;index&quot;:null}" fill="none" stroke="#ffffff" stroke-width="1" stroke-linecap="round"/><path d="M170.05441,180.00002c0,-38.62989 31.3157,-69.94559 69.94559,-69.94559c38.62989,0 69.94559,31.3157 69.94559,69.94559c0,38.62989 -31.3157,69.94559 -69.94559,69.94559c-38.62989,0 -69.94559,-31.3157 -69.94559,-69.94559z" fill="#adb2b9" stroke="none" stroke-width="0" stroke-linecap="butt"/><path d="M182.19809,180.00002c0,-31.92311 25.87881,-57.80191 57.80191,-57.80191c31.92311,0 57.80191,25.87881 57.80191,57.80191c0,31.92311 -25.87881,57.80191 -57.80191,57.80191c-31.92311,0 -57.80191,-25.87881 -57.80191,-57.80191z" fill="url(#color-1)" stroke="none" stroke-width="0" stroke-linecap="butt"/><path d="M195.30443,176.93506c0,-24.51349 19.87212,-44.38561 44.38561,-44.38561c24.51349,0 44.38561,19.87212 44.38561,44.38561c0,24.51349 -19.87212,44.38561 -44.38561,44.38561c-24.51349,0 -44.38561,-19.87212 -44.38561,-44.38561z" fill="url(#color-2)" stroke="none" stroke-width="0" stroke-linecap="butt"/><path d="M195.92437,183.06494c0,-24.51349 19.87214,-44.38561 44.38561,-44.38561c24.51349,0 44.38557,19.87212 44.38557,44.38561c0,24.51349 -19.87208,44.38561 -44.38557,44.38561c-24.51349,0 -44.38561,-19.87212 -44.38561,-44.38561z" data-paper-data="{&quot;index&quot;:null}" fill="url(#color-3)" stroke="none" stroke-width="0" stroke-linecap="butt"/><path d="M196.52111,179.6823c0,-24.00632 19.46096,-43.46728 43.46728,-43.46728c24.00632,0 43.46728,19.46095 43.46728,43.46728c0,24.00632 -19.46096,43.46728 -43.46728,43.46728c-24.00632,0 -43.46728,-19.46096 -43.46728,-43.46728z" fill="url(#color-4)" stroke="none" stroke-width="0" stroke-linecap="butt"/><path d="M134.5,285.50001v-211h211v211z" fill="none" stroke="none" stroke-width="0" stroke-linecap="butt"/><path d="M134.5,285.50003v-336.43021h211v336.43021z" fill="none" stroke="none" stroke-width="0" stroke-linecap="butt"/><g stroke-width="3" stroke-linecap="round"><path d="M235.61022,196.96494v-9.02346l-16.82755,-16.09592c0,0 0,-11.30419 0,-13.4936c0,-0.79548 0.19509,-0.26109 0.19509,-0.26109l7.60896,-0.06505c0,0 0,-3.58371 0,-4.0962c0,-0.5426 0,-0.37491 0,-0.37491h26.58265c0,0 0,-0.21422 0,0.48777c0,0.82319 0,4.14591 0,4.14591h8.04796c0,0 0,-0.15473 0,1.33414c0,2.81315 0,14.27401 0,14.27401l-17.31529,14.14488v9.02346l8.04796,9.51123c0,0 0.18397,0 -1.46327,0c-5.65608,0 -19.74508,0 -22.6806,0c-1.32516,0 -0.12193,-0.3658 -0.12193,-0.3658z" fill="#043a04" stroke="url(#color-5)"/><path d="M227.25334,158.09178c0,0 -0.07751,5.85285 -0.11885,8.97311c-0.04506,3.40208 -2.0923,10.66715 -2.0923,10.66715" fill="none" stroke="url(#color-6)"/><path d="M253.80058,177.86212c0,0 -1.7871,-7.26507 -1.83215,-10.66715c-0.04134,-3.12026 0.66156,-8.97311 0.66156,-8.97311" data-paper-data="{&quot;index&quot;:null}" fill="none" stroke="url(#color-7)"/></g></g></g></svg>