<svg version="1.1" xmlns="http://www.w3.org/2000/svg" xmlns:xlink="http://www.w3.org/1999/xlink" width="32.18964" height="68.80609" viewBox="0,0,32.18964,68.80609"><g transform="translate(-223.6524,-146.18475)"><g data-paper-data="{&quot;isPaintingLayer&quot;:true}" fill-rule="nonzero" stroke-linejoin="miter" stroke-miterlimit="10" stroke-dasharray="" stroke-dashoffset="0" style="mix-blend-mode: normal"><path d="M223.6524,208.32315c0,-13.44895 0,-44.19668 0,-51.64628c0,-3.17904 1.18659,-6.346 3.08653,-6.346c6.68138,0 22.18448,0 25.92809,0c1.59053,0 3.17502,3.16696 3.17502,6.346c0,7.51567 0,38.74459 0,52.00002c0,3.69408 -1.53433,5.99225 -3.08653,5.99225c-3.69771,0 -19.17433,0 -25.92808,0c-1.95175,0 -3.17502,-2.44546 -3.17502,-6.34599z" fill="#272727" stroke="none" stroke-width="0" stroke-linecap="butt"/><path d="M245.12384,196.12579c0,0 0.49856,0.15267 0.82669,0.84592c0.6088,1.28624 1.2884,3.70285 1.7429,5.30834c0.85099,3.00609 2.26122,10.2344 2.26122,10.2344c0,0 -0.41354,0.00889 -1.1082,0.00318c-0.0458,-0.00038 -0.11664,0.02627 -0.1323,-0.01424c-0.55908,-1.44581 -1.03998,-2.12636 -2.62378,-4.68568c-1.6423,-2.65386 -4.85624,-5.97985 -4.85624,-5.97985z" data-paper-data="{&quot;index&quot;:null}" fill="#4d0115" stroke="none" stroke-width="0" stroke-linecap="butt"/><path d="M238.38384,201.86515c0,0 -3.21395,3.32599 -4.85624,5.97985c-1.5838,2.55933 -2.0647,3.23987 -2.62378,4.68568c-0.01567,0.04051 -0.0865,0.01386 -0.1323,0.01424c-0.69466,0.00571 -1.1082,-0.00318 -1.1082,-0.00318c0,0 1.41023,-7.22832 2.26122,-10.2344c0.4545,-1.6055 1.13408,-4.0221 1.7429,-5.30834c0.32813,-0.69324 0.82669,-0.84592 0.82669,-0.84592z" fill="#4d0115" stroke="none" stroke-width="0" stroke-linecap="butt"/><path d="M240.14177,208.82596l1.15355,-2.60356h4.01754l1.07399,2.60356z" fill="#21000d" stroke="none" stroke-width="0" stroke-linecap="butt"/><path d="M241.57636,212.03595c0,0 -0.00517,-1.00773 0.07112,-1.36376c0.06369,-0.29723 0.37019,-0.7134 0.37019,-0.7134l2.4468,0.01422c0,0 0.3303,0.48259 0.38399,0.82424c0.05044,0.32099 0.1,1.27198 0.1,1.27198z" data-paper-data="{&quot;index&quot;:null}" fill="#2c3132" stroke="none" stroke-width="0" stroke-linecap="butt"/><path d="M234.57844,212.08873c0,0 0.04956,-0.951 0.1,-1.27198c0.05369,-0.34166 0.38399,-0.82424 0.38399,-0.82424l2.4468,-0.01422c0,0 0.3065,0.41616 0.37019,0.7134c0.07629,0.35602 0.07112,1.36376 0.07112,1.36376z" fill="#2c3132" stroke="none" stroke-width="0" stroke-linecap="butt"/><path d="M245.12309,209.38363l-0.26914,0.6913h-3.22958l-0.23068,-0.73196z" data-paper-data="{&quot;index&quot;:null}" fill="#2b0011" stroke="none" stroke-width="0" stroke-linecap="butt"/><path d="M238.18372,209.36414l-0.26913,0.6913h-3.22958l-0.23068,-0.73196z" data-paper-data="{&quot;index&quot;:null}" fill="#2b0011" stroke="none" stroke-width="0" stroke-linecap="butt"/><path d="M233.28319,208.80536l1.15355,-2.60356h4.01754l1.07399,2.60356z" fill="#21000d" stroke="none" stroke-width="0" stroke-linecap="butt"/><path d="M234.38991,206.35758v-4.19256h10.94866v4.19256z" fill="#390013" stroke="#4d0014" stroke-width="0" stroke-linecap="butt"/><path d="M238.36263,171.90317v-2.9109c0,0 0.92406,0.34112 1.39576,0.34112c0.49726,0 1.51514,-0.34112 1.51514,-0.34112v2.9109c0,0 -0.99447,-0.32406 -1.48103,-0.32406c-0.48372,0 -1.42986,0.32406 -1.42986,0.32406z" fill="#592868" stroke="#261b4c" stroke-width="0" stroke-linecap="butt"/><path d="M243.92106,153.81207c0,0 0.37366,0.92559 0.58874,1.51081c0.29829,0.81162 1.03449,2.90583 1.03449,2.90583l-4.81166,-0.0066c0,0 0.71501,-2.0914 1.01477,-2.90183c0.21611,-0.58427 0.61646,-1.50822 0.61646,-1.50822c0,0 0.11181,-0.28668 0.28993,-0.43103c0.14552,-0.11792 0.34827,-0.17458 0.46298,-0.17458c0.11597,0 0.34398,0.05204 0.49753,0.16689c0.19558,0.14628 0.30675,0.43873 0.30675,0.43873z" fill="#c6c0c8" stroke="#ff3600" stroke-width="0" stroke-linecap="round"/><path d="M240.96945,195.49677v-14.12241h4.39559v14.12241z" data-paper-data="{&quot;index&quot;:null}" fill="#804a90" stroke="none" stroke-width="0" stroke-linecap="butt"/><path d="M240.94638,181.06639v-8.26097h4.42973v8.26097z" data-paper-data="{&quot;index&quot;:null}" fill="#9b5cac" stroke="none" stroke-width="0" stroke-linecap="butt"/><path d="M240.94183,172.85089v-8.87218h4.43912v8.87218z" data-paper-data="{&quot;index&quot;:null}" fill="#9e8aa1" stroke="none" stroke-width="0" stroke-linecap="butt"/><path d="M240.94231,164.01499l-0.18194,-0.28805h4.79085l-0.16677,0.28805z" data-paper-data="{&quot;index&quot;:null}" fill="#755880" stroke="none" stroke-width="0" stroke-linecap="butt"/><path d="M240.7627,163.75153v-5.57549h4.80298v5.57549z" data-paper-data="{&quot;index&quot;:null}" fill="#c2aec7" stroke="none" stroke-width="0" stroke-linecap="butt"/><path d="M245.09032,163.5801v-1.34349h0.35687v1.34349z" data-paper-data="{&quot;index&quot;:null}" fill="#867194" stroke="none" stroke-width="0" stroke-linecap="butt"/><path d="M244.35561,163.5801v-1.34349h0.35687v1.34349z" data-paper-data="{&quot;index&quot;:null}" fill="#867194" stroke="none" stroke-width="0" stroke-linecap="butt"/><path d="M243.64187,163.5801v-1.34349h0.35687v1.34349z" data-paper-data="{&quot;index&quot;:null}" fill="#867194" stroke="none" stroke-width="0" stroke-linecap="butt"/><path d="M242.94914,163.5801v-1.34349h0.35687v1.34349z" data-paper-data="{&quot;index&quot;:null}" fill="#867194" stroke="none" stroke-width="0" stroke-linecap="butt"/><path d="M242.2564,163.5801v-1.34349h0.35687v1.34349z" data-paper-data="{&quot;index&quot;:null}" fill="#867194" stroke="none" stroke-width="0" stroke-linecap="butt"/><path d="M241.55567,163.5801v-1.34349h0.35687v1.34349z" data-paper-data="{&quot;index&quot;:null}" fill="#867194" stroke="none" stroke-width="0" stroke-linecap="butt"/><path d="M240.89192,163.5801v-1.34349h0.35687v1.34349z" data-paper-data="{&quot;index&quot;:null}" fill="#867194" stroke="none" stroke-width="0" stroke-linecap="butt"/><path d="M240.9479,170.32205v-2.57736h4.42699v2.57736z" data-paper-data="{&quot;index&quot;:null}" fill="#845098" stroke="none" stroke-width="0" stroke-linecap="butt"/><path d="M240.96003,172.85869v-0.63936h2.40669v0.63936z" data-paper-data="{&quot;index&quot;:null}" fill="#825395" stroke="none" stroke-width="0" stroke-linecap="butt"/><path d="M242.96126,172.8545l0.40285,-0.62217c0,0 0.14691,0.32954 0.41064,0.32954c0.44215,0 1.5932,0 1.5932,0v0.29264z" data-paper-data="{&quot;index&quot;:null}" fill="#825395" stroke="none" stroke-width="0" stroke-linecap="butt"/><path d="M240.94323,181.41635v-0.37786h4.42933v0.37786z" data-paper-data="{&quot;index&quot;:null}" fill="#632676" stroke="none" stroke-width="0" stroke-linecap="butt"/><path d="M244.73244,175.38959v-1.17876h0.64813v1.17876z" data-paper-data="{&quot;index&quot;:null}" fill="#b779c2" stroke="none" stroke-width="0" stroke-linecap="butt"/><path d="M234.38516,195.51328v-14.12241h4.39559v14.12241z" fill="#804a90" stroke="none" stroke-width="0" stroke-linecap="butt"/><path d="M234.38464,202.17064v-7.72508h10.97885v7.72508z" fill="#5e2340" stroke="none" stroke-width="0" stroke-linecap="butt"/><path d="M234.37409,181.0829v-8.26097h4.42973v8.26097z" fill="#9b5cac" stroke="none" stroke-width="0" stroke-linecap="butt"/><path d="M234.36925,172.86741v-8.87218h4.43912v8.87218z" fill="#9e8aa1" stroke="none" stroke-width="0" stroke-linecap="butt"/><path d="M234.36573,164.03151l-0.16677,-0.28805h4.79085l-0.18194,0.28805z" fill="#755880" stroke="none" stroke-width="0" stroke-linecap="butt"/><path d="M234.18452,163.76805v-5.57549h4.80298v5.57549z" fill="#c2aec7" stroke="none" stroke-width="0" stroke-linecap="butt"/><path d="M237.35771,153.82265c0,0 0.37366,0.92559 0.58874,1.51081c0.29829,0.81162 1.03449,2.90583 1.03449,2.90583l-4.81166,-0.0066c0,0 0.71501,-2.0914 1.01477,-2.90183c0.21611,-0.58427 0.61646,-1.50822 0.61646,-1.50822c0,0 0.1118,-0.28669 0.28993,-0.43103c0.14552,-0.11792 0.34827,-0.17458 0.46298,-0.17458c0.11597,0 0.34398,0.05204 0.49753,0.16689c0.19558,0.14627 0.30675,0.43873 0.30675,0.43873z" fill="#c6c0c8" stroke="#ff3600" stroke-width="0" stroke-linecap="round"/><path d="M234.30301,163.59662v-1.34349h0.35687v1.34349z" fill="#867194" stroke="none" stroke-width="0" stroke-linecap="butt"/><path d="M235.03773,163.59662v-1.34349h0.35687v1.34349z" fill="#867194" stroke="none" stroke-width="0" stroke-linecap="butt"/><path d="M235.75146,163.59662v-1.34349h0.35687v1.34349z" fill="#867194" stroke="none" stroke-width="0" stroke-linecap="butt"/><path d="M236.44419,163.59662v-1.34349h0.35687v1.34349z" fill="#867194" stroke="none" stroke-width="0" stroke-linecap="butt"/><path d="M237.13693,163.59662v-1.34349h0.35687v1.34349z" fill="#867194" stroke="none" stroke-width="0" stroke-linecap="butt"/><path d="M237.83767,163.59662v-1.34349h0.35687v1.34349z" fill="#867194" stroke="none" stroke-width="0" stroke-linecap="butt"/><path d="M238.50141,163.59662v-1.34349h0.35687v1.34349z" fill="#867194" stroke="none" stroke-width="0" stroke-linecap="butt"/><path d="M234.37531,170.33857v-2.57736h4.42699v2.57736z" fill="#845098" stroke="none" stroke-width="0" stroke-linecap="butt"/><path d="M236.38348,172.87521v-0.63936h2.40669v0.63936z" fill="#825395" stroke="none" stroke-width="0" stroke-linecap="butt"/><path d="M234.38225,172.87101v-0.29264c0,0 1.15105,0 1.5932,0c0.26373,0 0.41064,-0.32954 0.41064,-0.32954l0.40285,0.62217z" fill="#825395" stroke="none" stroke-width="0" stroke-linecap="butt"/><path d="M234.37764,181.43286v-0.37786h4.42933v0.37786z" fill="#632676" stroke="none" stroke-width="0" stroke-linecap="butt"/><path d="M234.39995,178.69603v-1.05748h0.64813v1.05748z" fill="#b779c2" stroke="none" stroke-width="0" stroke-linecap="butt"/><g data-paper-data="{&quot;index&quot;:null}" fill="#4d0e57" stroke="none" stroke-width="0" stroke-linecap="butt"><path d="M234.40023,194.536v-0.72333h2.38213v0.72333z"/><path d="M236.38106,194.53126l0.39874,-0.70388c0,0 0.14541,0.37282 0.40645,0.37282c0.43764,0 1.57694,0 1.57694,0v0.33106z"/></g><g data-paper-data="{&quot;index&quot;:null}" fill="#4d0e57" stroke="none" stroke-width="0" stroke-linecap="butt"><path d="M242.97256,194.536v-0.72333h2.38213v0.72333z"/><path d="M240.99174,194.53126v-0.33106c0,0 1.1393,0 1.57694,0c0.26104,0 0.40645,-0.37282 0.40645,-0.37282l0.39874,0.70388z"/></g><path d="M233.91561,209.42334l-0.59289,-0.63241h6.20556l-0.75099,0.63241z" fill="#1c030f" stroke="none" stroke-width="0" stroke-linecap="butt"/><path d="M240.7388,209.42953l-0.59702,-0.63241h6.24886l-0.75623,0.63241z" fill="#1c030f" stroke="none" stroke-width="0" stroke-linecap="butt"/><path d="M229.35704,213.81525v-67.6305h21.28594v67.6305z" fill="none" stroke="none" stroke-width="NaN" stroke-linecap="butt"/><path d="M235.27561,205.63566c0,0 -0.17695,-31.84754 -0.17695,-41.6907c0,-0.18035 -0.14157,-0.39276 -0.14157,-0.56625c0,-2.72161 0,-4.5746 0,-4.7778c0,-0.17802 1.52182,-4.3531 1.52182,-4.3531" fill="none" stroke-opacity="0.16078" stroke="#ffffff" stroke-width="0.5" stroke-linecap="round"/><path d="M225.98721,214.99084v-64.78867h28.02563v64.78867z" fill-opacity="0.00784" fill="#454545" stroke="none" stroke-width="0" stroke-linecap="butt"/></g></g></svg>