<svg version="1.1" xmlns="http://www.w3.org/2000/svg" xmlns:xlink="http://www.w3.org/1999/xlink" width="41.8641" height="35.42347" viewBox="0,0,41.8641,35.42347"><g transform="translate(-223.72111,-81.34252)"><g data-paper-data="{&quot;isPaintingLayer&quot;:true}" fill-rule="nonzero" stroke-linejoin="miter" stroke-miterlimit="10" stroke-dasharray="" stroke-dashoffset="0" style="mix-blend-mode: normal"><g><path d="M223.72111,116.76599v-35.42347h41.8641v35.42347z" fill="none" stroke="none" stroke-width="NaN" stroke-linecap="butt"/><path d="M244.66403,106.68631l-0.04258,-6.72896" fill="none" stroke="#52a9b7" stroke-width="0.5" stroke-linecap="round"/><path d="M240.49378,100.08851v-2.95393c0,0 1.31751,-1.00246 2.03183,-1.00246c0.7332,0 2.31219,1.00246 2.31219,1.00246v2.95393c0,0 -0.30849,-0.04089 -0.51761,-0.1793c-0.2288,-0.15143 -0.13209,-0.39191 -0.41945,-0.57407c-0.32652,-0.20699 -1.03932,-0.34711 -1.32182,-0.34711c-0.25754,0 -0.7547,0.14579 -1.09609,0.41109c-0.29311,0.22779 -0.43335,0.56651 -0.64333,0.71578c-0.19249,0.13685 -0.34571,-0.0264 -0.34571,-0.0264z" fill="#3f573f" stroke="none" stroke-width="0" stroke-linecap="butt"/><path d="M248.60258,100.0306v-2.95393c0,0 1.29023,-0.7797 1.97056,-0.7797c0.6903,0 2.14177,0.7797 2.14177,0.7797v2.95393c0,0 -0.29205,-0.04089 -0.49001,-0.1793c-0.2166,-0.15143 -0.12504,-0.39191 -0.39708,-0.57407c-0.30911,-0.20699 -0.98389,-0.34711 -1.25132,-0.34711c-0.2438,0 -0.71445,0.14579 -1.03763,0.41108c-0.27748,0.22779 -0.41023,0.56651 -0.60902,0.71578c-0.18223,0.13685 -0.32726,-0.0264 -0.32726,-0.0264z" fill="#3f573f" stroke="none" stroke-width="0" stroke-linecap="butt"/><path d="M232.532,100.14615l11.14712,6.4206" fill="none" stroke="#52a9b7" stroke-width="0.5" stroke-linecap="round"/><path d="M236.52964,100.04252l7.29587,6.53211" fill="none" stroke="#52a9b7" stroke-width="0.5" stroke-linecap="round"/><path d="M240.70331,100.21287l3.32274,6.01484" fill="none" stroke="#52a9b7" stroke-width="0.5" stroke-linecap="round"/><path d="M248.73262,100.09362l-3.58236,5.76857" fill="none" stroke="#52a9b7" stroke-width="0.5" stroke-linecap="round"/><path d="M252.54286,100.12769l-7.15569,6.43989" fill="none" stroke="#52a9b7" stroke-width="0.5" stroke-linecap="round"/><path d="M232.38493,100.20436v-2.95393c0,0 1.29214,-1.81001 1.9817,-1.81001c0.75288,0 2.36232,1.81001 2.36232,1.81001v2.95393c0,0 -0.30848,-0.04089 -0.51761,-0.1793c-0.2288,-0.15143 -0.13209,-0.39191 -0.41945,-0.57407c-0.32652,-0.20699 -1.03932,-0.34711 -1.32182,-0.34711c-0.25754,0 -0.7547,0.14579 -1.09609,0.41109c-0.29311,0.22779 -0.43335,0.56651 -0.64333,0.71578c-0.19249,0.13685 -0.3457,-0.0264 -0.3457,-0.0264z" fill="#3f573f" stroke="none" stroke-width="0" stroke-linecap="butt"/><path d="M240.53833,97.19473l0.06296,-2.43488c0,0 1.25957,-0.75185 1.89648,-0.75185c0.70949,0 2.16627,0.75185 2.16627,0.75185v2.49057c0,0 -1.43883,-0.4177 -2.16627,-0.4177c-0.75792,0 -1.95943,0.36201 -1.95943,0.36201z" fill="#ffffef" stroke="none" stroke-width="0" stroke-linecap="butt"/><path d="M245.39337,106.61553l11.06762,-6.53042" fill="none" stroke="#52a9b7" stroke-width="0.5" stroke-linecap="round"/><path d="M236.46833,100.11748v-2.95393c0,0 1.38673,-1.83785 2.07527,-1.83785c0.68218,0 2.03707,1.83785 2.03707,1.83785v2.95393c0,0 -0.29204,-0.04089 -0.49,-0.1793c-0.2166,-0.15143 -0.12504,-0.39191 -0.39708,-0.57407c-0.30911,-0.20699 -0.9839,-0.34711 -1.25132,-0.34711c-0.2438,0 -0.71445,0.14579 -1.03763,0.41109c-0.27748,0.22779 -0.41023,0.56651 -0.60902,0.71579c-0.18223,0.13685 -0.32726,-0.0264 -0.32726,-0.0264z" fill="#2a3a2a" stroke="none" stroke-width="0" stroke-linecap="butt"/><path d="M236.61327,99.99909c0,0 0.18138,0.01673 0.36065,-0.1437c0.09505,-0.08507 0.20987,-0.25165 0.3387,-0.34066c0.33514,-0.23156 0.89563,-0.39238 1.15467,-0.39238c0.2877,0 0.86241,0.14076 1.21277,0.39196c0.16657,0.11943 0.27878,0.25916 0.34925,0.36881c0.03293,0.05124 0.31842,0.21126 0.50953,0.23858c0.21566,0.03083 0.33754,-0.07433 0.33754,-0.07433" fill="none" stroke="#2a3a2a" stroke-width="0.5" stroke-linecap="round"/><path d="M244.66402,100.11636v-2.95393c0,0 0.87804,-1.14169 1.56512,-1.14169c0.68368,0 2.54722,1.14169 2.54722,1.14169v2.95393c0,0 -0.29204,-0.04089 -0.49001,-0.1793c-0.21659,-0.15143 -0.12504,-0.39191 -0.39708,-0.57407c-0.3091,-0.20699 -0.9839,-0.34711 -1.25133,-0.34711c-0.2438,0 -0.71445,0.14579 -1.03763,0.41109c-0.27748,0.22779 -0.41024,0.56651 -0.60903,0.71579c-0.18223,0.13685 -0.32726,-0.0264 -0.32726,-0.0264z" fill="#2a3a2a" stroke="none" stroke-width="0" stroke-linecap="butt"/><path d="M252.59908,100.05956v-2.95393c0,0 1.62972,-1.11385 2.34594,-1.11385c0.64765,0 1.7664,1.11385 1.7664,1.11385v2.95393c0,0 -0.29205,-0.04089 -0.49001,-0.1793c-0.21659,-0.15143 -0.12504,-0.3919 -0.39708,-0.57406c-0.3091,-0.20699 -0.98389,-0.34711 -1.25132,-0.34711c-0.2438,0 -0.71445,0.14579 -1.03763,0.41109c-0.27748,0.22779 -0.41024,0.56651 -0.60903,0.71578c-0.18223,0.13685 -0.32726,-0.0264 -0.32726,-0.0264z" fill="#2a3a2a" stroke="none" stroke-width="0" stroke-linecap="butt"/><path d="M245.03028,99.95565c0,0 0.13451,-0.29988 0.50628,-0.55676c0.33514,-0.23156 0.89564,-0.33589 1.15467,-0.33589c0.2877,0 0.86241,0.08426 1.21275,0.33546c0.15595,0.11183 0.26424,0.24142 0.33526,0.34748c0.03127,0.04669 0.16732,0.23364 0.29231,0.26768c0.19591,0.05336 0.39982,-0.05797 0.39982,-0.05797" fill="none" stroke="#2a3a2a" stroke-width="0.5" stroke-linecap="round"/><path d="M252.64662,97.27456l-0.13923,-2.49057c0,0 1.11247,-1.16955 1.76933,-1.16955c0.62551,0 2.08237,1.16955 2.08237,1.16955l0.37648,2.49057c0,0 -1.25842,-0.50124 -1.92976,-0.50124c-0.73268,0 -2.15918,0.50124 -2.15918,0.50124z" data-paper-data="{&quot;index&quot;:null}" fill="#d3d9e3" stroke="none" stroke-width="0" stroke-linecap="butt"/><path d="M248.56028,97.22259l0.03512,-2.46273c0,0 1.16326,-0.7797 1.8107,-0.7797c0.70234,0 2.25205,0.7797 2.25205,0.7797v2.49057c0,0 -1.24431,-0.52908 -1.94573,-0.52908c-0.77738,0 -2.15213,0.50123 -2.15213,0.50123z" fill="#ffffff" stroke="none" stroke-width="0" stroke-linecap="butt"/><path d="M248.9399,99.95565c0,0 0.13451,-0.29988 0.50628,-0.55676c0.33514,-0.23156 0.86739,-0.39239 1.12642,-0.39239c0.2877,0 0.89066,0.14077 1.241,0.39196c0.33227,0.23823 0.44819,0.55719 0.44819,0.55719" fill="none" stroke="#3f573f" stroke-width="0.5" stroke-linecap="round"/><path d="M244.58939,97.25043l-0.02058,-2.49057c0,0 1.23782,-0.89108 1.8831,-0.89108c0.70387,0 2.17964,0.89108 2.17964,0.89108v2.49057c0,0 -1.35382,-0.44554 -2.06825,-0.44554c-0.76827,0 -1.97391,0.44554 -1.97391,0.44554z" fill="#d3d9e3" stroke="none" stroke-width="0" stroke-linecap="butt"/><path d="M252.31857,100.0377c0,0 0.20026,0.04437 0.40004,0.00201c0.17624,-0.03738 0.35209,-0.15831 0.38974,-0.20861c0.08012,-0.10703 0.2066,-0.24602 0.39225,-0.3743c0.33514,-0.23156 0.86739,-0.42063 1.12642,-0.42063c0.2877,0 0.89066,0.16901 1.241,0.4202c0.33227,0.23823 0.71365,0.6296 0.71365,0.6296" fill="none" stroke="#2a3a2a" stroke-width="0.5" stroke-linecap="round"/><path d="M236.56744,97.22259l-0.02058,-2.46273c0,0 1.35647,-0.64046 1.99671,-0.64046c0.70732,0 2.06603,0.64046 2.06603,0.64046v2.49057c0,0 -1.30714,-0.52908 -2.01033,-0.52908c-0.7762,0 -2.03183,0.50123 -2.03183,0.50123z" fill="#d3d9e3" stroke="none" stroke-width="0" stroke-linecap="butt"/><path d="M232.35597,97.22259l0.37648,-2.49057c0,0 1.1097,-0.66831 1.68987,-0.66831c0.68594,0 2.16182,0.66831 2.16182,0.66831l-0.02784,2.49057c0,0 -1.39366,-0.44554 -2.10612,-0.44554c-0.69656,0 -2.0942,0.44554 -2.0942,0.44554z" fill="#ffffff" stroke="none" stroke-width="0" stroke-linecap="butt"/><path d="M232.50504,100.21147c0,0 0.49651,-0.49295 0.86828,-0.74983c0.33514,-0.23156 0.89564,-0.33589 1.15467,-0.33589c0.2877,0 0.86241,0.08426 1.21275,0.33545c0.17058,0.1223 0.28414,0.26589 0.35427,0.37667c0.03245,0.05126 0.19939,0.1679 0.36176,0.19975c0.17024,0.03339 0.33549,-0.01921 0.33549,-0.01921" fill="none" stroke="#3f573f" stroke-width="0.5" stroke-linecap="round"/><g stroke="none" stroke-width="0" stroke-linecap="butt"><path d="M252.5257,94.77249l-0.67573,-1.59281c0,0 0.5738,-1.51506 1.19929,-1.50693c0.61311,0.00796 2.51726,1.55519 2.51726,1.55519l0.7964,1.54453c0,0 -1.33062,-0.38985 -1.97482,-0.38985c-0.63474,0 -1.86239,0.38985 -1.86239,0.38985z" data-paper-data="{&quot;index&quot;:null}" fill="#2a3a2a"/><path d="M248.61608,94.74834l-0.33787,-1.5204c0,0 0.76667,-2.08847 1.4874,-2.08847c0.657,0 2.66354,2.08847 2.66354,2.08847l0.26547,1.54453c0,0 -1.46463,-0.34331 -2.17715,-0.34753c-0.63894,-0.00378 -1.90139,0.32339 -1.90139,0.32339z" data-paper-data="{&quot;index&quot;:null}" fill="#3f573f"/><path d="M244.63408,94.74834c0,0 -0.58736,-0.27473 -0.58946,-0.40681c-0.00427,-0.26897 0.56532,-1.1136 0.56532,-1.1136c0,0 0.94233,-1.39231 1.56352,-1.39231c0.65599,0 2.27369,1.39231 2.27369,1.39231l0.26547,1.54453c0,0 -1.39279,-0.31619 -2.12146,-0.32051c-0.60941,-0.00361 -1.95709,0.29638 -1.95709,0.29638z" data-paper-data="{&quot;index&quot;:null}" fill="#2a3a2a"/><path d="M240.52209,94.74094l-0.11139,-1.51297c0,0 1.36103,-1.78217 2.08703,-1.78217c0.67858,0 2.13632,1.78217 2.13632,1.78217v1.56867c0,0 -1.34116,-0.30631 -2.02493,-0.30631c-0.72194,0 -2.08703,0.25062 -2.08703,0.25062z" fill="#3f573f"/><path d="M236.47698,94.79662l0.7964,-1.54453c0,0 1.00053,-1.39231 1.49298,-1.39231c0.59142,0 1.81331,1.39231 1.81331,1.39231l-0.02413,1.5204c0,0 -1.26785,-0.32666 -1.9281,-0.32275c-0.69727,0.00413 -2.15045,0.34689 -2.15045,0.34689z" fill="#2a3a2a"/><path d="M232.73629,94.77249l0.7964,-1.54454c0,0 1.86194,-1.9214 2.47688,-1.9214c0.66084,0 1.36034,1.9214 1.36034,1.9214l-0.7964,1.54454c0,0 -1.27407,-0.33416 -1.9284,-0.33416c-0.62323,0 -1.90881,0.33416 -1.90881,0.33416z" fill="#3f573f"/></g><path d="M240.91794,100.01357c0,0 0.13451,-0.29988 0.50628,-0.55677c0.33514,-0.23156 0.89564,-0.42064 1.15467,-0.42064c0.2877,0 0.94715,0.14076 1.2975,0.39196c0.15215,0.10909 0.28719,0.23512 0.35825,0.33969c0.04359,0.06414 0.15516,0.25618 0.36142,0.28283c0.19179,0.02479 0.36777,-0.08533 0.36777,-0.08533" fill="none" stroke="#3f573f" stroke-width="0.5" stroke-linecap="round"/><path d="M248.4757,93.21666l-0.22382,-2.46666c0,0 0.09822,-0.75186 0.5948,-0.75186c0.67733,0 3.09794,0.75186 3.09794,0.75186l0.4177,2.49451c0,0 -1.75187,-0.38985 -2.42964,-0.38985c-0.67345,0 -1.45699,0.362 -1.45699,0.362z" fill="#ffffff" stroke="none" stroke-width="0" stroke-linecap="butt"/><path d="M244.56776,93.21666l-0.00106,-2.43883c0,0 0.71566,-0.80755 1.32828,-0.80755c0.61825,0 2.36447,0.80755 2.36447,0.80755l0.26361,2.46666c0,0 -1.31747,-0.33416 -2.07115,-0.33416c-0.75037,0 -1.88414,0.30631 -1.88414,0.30631z" fill="#d3d9e3" stroke="none" stroke-width="0" stroke-linecap="butt"/><path d="M240.59956,93.21666l0.36094,-2.46666c0,0 1.2103,-0.7797 1.81571,-0.7797c0.6249,0 1.87704,0.7797 1.87704,0.7797v2.46666c0,0 -1.38491,-0.362 -2.04412,-0.362c-0.69056,0 -2.00957,0.362 -2.00957,0.362z" fill="#ffffef" stroke="none" stroke-width="0" stroke-linecap="butt"/><path d="M233.46611,93.24451l1.59713,-2.46666c0,0 1.20425,-0.88102 1.69814,-0.89219c0.67807,-0.01533 1.99584,0.80865 1.99584,0.80865l-1.448,2.55021c0,0 -1.3199,-0.362 -1.96796,-0.362c-0.6326,0 -1.87515,0.362 -1.87515,0.362z" fill="#ffffff" stroke="none" stroke-width="0" stroke-linecap="butt"/><path d="M237.2801,93.27236l0.77863,-2.52235c0,0 1.38352,-0.91229 1.79378,-0.90834c0.52356,0.00505 1.09142,0.93618 1.09142,0.93618l-0.31373,2.46666c0,0 -1.1448,-0.33416 -1.75248,-0.33416c-0.63754,0 -1.59763,0.362 -1.59763,0.362z" fill="#d3d9e3" stroke="none" stroke-width="0" stroke-linecap="butt"/><path d="M252.36706,93.24056l-1.1881,-2.43881c0,0 0.05697,-0.97462 0.53588,-0.97462c0.43431,0 2.2169,0.97462 2.2169,0.97462l1.69367,2.46666c0,0 -1.23197,-0.47339 -1.82209,-0.47339c-0.67854,0 -1.43624,0.44554 -1.43624,0.44554z" data-paper-data="{&quot;index&quot;:null}" fill="#d3d9e3" stroke="none" stroke-width="0" stroke-linecap="butt"/><g stroke="none" stroke-width="0" stroke-linecap="butt"><path d="M251.1743,90.73849l-0.87323,-1.56496c0,0 0.50385,-0.37409 0.91403,-0.36611c0.41711,0.00811 1.56818,0.41438 1.56818,0.41438l1.118,1.54454c0,0 -1.14463,-0.33416 -1.65737,-0.33416c-0.5076,0 -1.06962,0.30631 -1.06962,0.30631z" data-paper-data="{&quot;index&quot;:null}" fill="#2a3a2a"/><path d="M248.19464,90.77006l-0.74292,-1.54825c0,0 0.72787,-0.64046 1.2279,-0.64046c0.51485,0 1.81806,0.64046 1.81806,0.64046l0.75571,1.54454c0,0 -1.43827,-0.28685 -1.98965,-0.29095c-0.53254,-0.00396 -1.06911,0.29465 -1.06911,0.29465z" data-paper-data="{&quot;index&quot;:null}" fill="#3f573f"/><path d="M244.54459,90.7422l-0.01926,-1.52041c0,0 1.02889,-0.64046 1.56458,-0.64046c0.47813,0 1.49656,0.64046 1.49656,0.64046l0.60162,1.60023c0,0 -1.4651,-0.39721 -1.98726,-0.40108c-0.55978,-0.00415 -1.65626,0.32125 -1.65626,0.32125z" data-paper-data="{&quot;index&quot;:null}" fill="#2a3a2a"/><path d="M241.00831,90.79048l0.16708,-1.56867c0,0 1.26132,-0.55692 1.85142,-0.55692c0.52543,0 1.51776,0.55692 1.51776,0.55692v1.56867c0,0 -1.14214,-0.25062 -1.71269,-0.25062c-0.5519,0 -1.82358,0.25062 -1.82358,0.25062z" fill="#3f573f"/><path d="M238.03722,90.79048l0.63533,-1.54454c0,0 0.95039,-0.66831 1.34686,-0.66831c0.47012,0 1.29074,0.66831 1.29074,0.66831l-0.26987,1.54825c0,0 -0.81445,-0.35286 -1.38244,-0.34864c-0.51039,0.00379 -1.62062,0.34493 -1.62062,0.34493z" fill="#2a3a2a"/><path d="M235.05311,90.76633l1.27394,-1.54454c0,0 1.42073,-0.7797 1.82669,-0.7797c0.42821,0 0.59584,0.7797 0.59584,0.7797l-0.63533,1.54454c0,0 -0.95854,-0.27846 -1.49206,-0.27846c-0.48152,0 -1.56909,0.27846 -1.56909,0.27846z" fill="#3f573f"/></g><path d="M247.62449,89.27316l-0.89743,-1.33933l3.39645,-0.02784l0.47896,1.39503c0,0 -0.92336,-0.33416 -1.56086,-0.33416c-0.66922,0 -1.41711,0.30631 -1.41711,0.30631z" fill="#ffffff" stroke="none" stroke-width="0" stroke-linecap="butt"/><path d="M244.59574,89.27316l-0.11775,-1.36718h2.33829l0.87476,1.36718c0,0 -1.21417,-0.25062 -1.79608,-0.25062c-0.55018,0 -1.29923,0.25062 -1.29923,0.25062z" fill="#d3d9e3" stroke="none" stroke-width="0" stroke-linecap="butt"/><path d="M241.32025,89.32884l0.52272,-1.42287l2.58891,0.02784l0.19493,1.33933c0,0 -1.2031,-0.25061 -1.73921,-0.25061c-0.4752,0 -1.56735,0.30631 -1.56735,0.30631z" fill="#ffffef" stroke="none" stroke-width="0" stroke-linecap="butt"/><path d="M236.1932,89.27316l2.24176,-1.36718l2.54898,-0.19492l-2.17201,1.56211c0,0 -0.63719,-0.33416 -1.13158,-0.33416c-0.47012,0 -1.48715,0.33416 -1.48715,0.33416z" fill="#ffffff" stroke="none" stroke-width="0" stroke-linecap="butt"/><path d="M238.84695,89.2453l1.50847,-1.42287l1.69784,0.08353l-0.7099,1.39503c0,0 -0.6525,-0.30631 -1.18468,-0.30631c-0.61328,0 -1.31173,0.25061 -1.31173,0.25061z" fill="#d3d9e3" stroke="none" stroke-width="0" stroke-linecap="butt"/><path d="M250.55992,89.28639l-2.09962,-1.42287l1.80975,0.05569l2.62827,1.36718c0,0 -1.14919,-0.16708 -1.57334,-0.16708c-0.35045,0 -0.76507,0.16708 -0.76507,0.16708z" data-paper-data="{&quot;index&quot;:null}" fill="#d3d9e3" stroke="none" stroke-width="0" stroke-linecap="butt"/><g stroke="none" stroke-width="0" stroke-linecap="butt"><path d="M248.30009,87.90369l-0.89121,-0.98301l0.77554,0.02979l2.02448,0.95323z" data-paper-data="{&quot;index&quot;:null}" fill="#2a3a2a"/><path d="M246.37938,87.88881l-0.16807,-0.93833h1.296l0.90093,0.95323z" data-paper-data="{&quot;index&quot;:null}" fill="#3f573f"/><path d="M244.37442,87.88881l-0.01201,-0.93833h1.9088l0.39753,0.95323z" data-paper-data="{&quot;index&quot;:null}" fill="#2a3a2a"/><path d="M241.86326,87.9186l0.41027,-0.96812h2.10089v0.96812z" fill="#3f573f"/><path d="M240.31669,87.9186l0.80644,-0.95322h1.23443l-0.27747,0.93833z" fill="#2a3a2a"/><path d="M238.4559,87.90369l2.09376,-0.95323h0.86282l-1.04778,0.95323z" fill="#3f573f"/></g><g stroke="none" stroke-width="0" stroke-linecap="butt"><path d="M245.52265,86.96492l0.12234,-0.48052h1.25156l0.3906,0.48052z" fill="#ffffff"/><path d="M244.27365,86.96492l0.12233,-0.48052h1.25156l0.15541,0.48052z" fill="#d3d9e3"/><path d="M243.05142,86.96492l0.12233,-0.48052h1.25156v0.48052z" fill="#ffffef"/><path d="M240.63373,86.96492l1.00785,-0.48052h0.29466v0.48052z" fill="#ffffff"/><path d="M241.50133,86.96492l0.41528,-0.48052h1.25156l-0.10632,0.48052z" fill="#d3d9e3"/><path d="M247.08022,86.96958l-0.44317,-0.48053h0.32538l1.18162,0.48053z" data-paper-data="{&quot;index&quot;:null}" fill="#d3d9e3"/></g></g></g></g></svg>