<svg version="1.1" xmlns="http://www.w3.org/2000/svg" xmlns:xlink="http://www.w3.org/1999/xlink" width="51.77639" height="64.33827" viewBox="0,0,51.77639,64.33827"><defs><radialGradient cx="238.13211" cy="176.57141" r="8.24807" gradientUnits="userSpaceOnUse" id="color-1"><stop offset="0" stop-color="#dfcc6c"/><stop offset="1" stop-color="#dfcc6c" stop-opacity="0"/></radialGradient><linearGradient x1="240.16472" y1="153.24187" x2="240.16472" y2="192.63156" gradientUnits="userSpaceOnUse" id="color-2"><stop offset="0" stop-color="#e5cd65"/><stop offset="1" stop-color="#d0c87c"/></linearGradient><linearGradient x1="239.60383" y1="168.74383" x2="239.60383" y2="177.02425" gradientUnits="userSpaceOnUse" id="color-3"><stop offset="0" stop-color="#ffeebe"/><stop offset="1" stop-color="#d9ca73"/></linearGradient><radialGradient cx="232.89215" cy="176.79783" r="8.24807" gradientUnits="userSpaceOnUse" id="color-4"><stop offset="0" stop-color="#dfcc6c"/><stop offset="1" stop-color="#dfcc6c" stop-opacity="0"/></radialGradient><radialGradient cx="237.87353" cy="178.57682" r="8.24807" gradientUnits="userSpaceOnUse" id="color-5"><stop offset="0" stop-color="#dfcc6c"/><stop offset="1" stop-color="#dfcc6c" stop-opacity="0"/></radialGradient><radialGradient cx="234.92987" cy="173.30453" r="8.24807" gradientUnits="userSpaceOnUse" id="color-6"><stop offset="0" stop-color="#dfcc6c"/><stop offset="1" stop-color="#dfcc6c" stop-opacity="0"/></radialGradient></defs><g transform="translate(-214.11189,-147.83094)"><g data-paper-data="{&quot;isPaintingLayer&quot;:true}" fill-rule="nonzero" stroke-linecap="butt" stroke-linejoin="miter" stroke-miterlimit="10" stroke-dasharray="" stroke-dashoffset="0" style="mix-blend-mode: normal"><path d="M214.11189,205.82322c0,-13.44895 0,-44.19668 0,-51.64628c0,-3.17904 1.90861,-6.346 4.96462,-6.346c10.74686,0 35.68329,0 41.70481,0c2.55834,0 5.10696,3.16696 5.10696,6.346c0,7.51567 0,38.74459 0,52.00002c0,3.69408 -2.46794,5.99225 -4.96462,5.99225c-5.94769,0 -30.84152,0 -41.70479,0c-3.13935,0 -5.10696,-2.44546 -5.10696,-6.34599z" fill="#272727" stroke="none" stroke-width="0"/><g stroke-width="0"><path d="M229.884,176.57141c0,-4.55528 3.69278,-8.24807 8.24807,-8.24807c4.55528,0 8.24807,3.69278 8.24807,8.24807c0,4.55528 -3.69278,8.24807 -8.24807,8.24807c-4.55528,0 -8.24807,-3.69278 -8.24807,-8.24807z" fill="url(#color-1)" stroke="none"/><path d="M218.64367,192.63156v-39.38968h43.04202v39.38968z" fill="url(#color-2)" stroke="none"/><path d="M230.65494,190.82493l2.24261,-3.40704c0,0 1.96719,-1.10306 2.67843,-1.27501c0.56091,-0.13561 1.24614,0.32621 1.24614,0.32621c0,0 -0.96176,0.33612 -1.87672,0.91976c-0.6503,0.41482 -1.27696,1.04003 -1.51786,1.37495c-0.59838,0.83189 -1.34941,2.44928 -1.34941,2.44928z" fill="#7d6c44" stroke="none"/><path d="M223.88393,192.59314l-0.43127,-6.64158c0,0 1.72289,-0.64691 2.32886,-0.64691c0.3199,0 1.29382,0.64691 1.29382,0.64691c0,0 -0.96357,0.88029 -0.80929,1.84596c0.21398,1.33938 2.14623,4.79562 2.14623,4.79562z" fill="#a0957d" stroke="none"/><path d="M223.32329,192.59314l-0.43127,-6.64158c0,0 2.24042,-0.64691 2.84639,-0.64691c0.3199,0 0.86254,0.64691 0.86254,0.64691c0,0 -0.70481,1.13905 -0.55053,2.10472c0.21398,1.33938 1.80122,4.53686 1.80122,4.53686z" fill="#948a74" stroke="none"/><path d="M250.7522,190.60929c0,0 3.01224,-1.85495 3.60891,-2.93053c0.45984,-0.82892 0.53129,-2.41724 0.53129,-2.41724l2.02698,-0.34502l3.65275,6.07509z" fill="#7a705a" stroke="none"/><path d="M248.37021,191.27985c0,0 1.14918,-0.8895 1.78874,-2.56412c0.63994,-1.67561 0.45406,-3.907 0.45406,-3.907l1.96047,0.81729c0,0 -0.0878,3.00893 0.25037,4.15061c0.4398,1.4848 1.47453,2.10486 1.47453,2.10486c0,0 -2.23561,0.24751 -3.26909,0.14262c-0.93208,-0.0946 -2.65908,-0.74427 -2.65908,-0.74427z" fill="#a0957d" stroke="none"/><path d="M247.76644,190.84858c0,0 1.14918,-0.8895 1.78874,-2.56412c0.63994,-1.67561 0.97159,-3.907 0.97159,-3.907l1.48607,0.9898c0,0 -0.13092,2.83642 0.20724,3.9781c0.4398,1.4848 1.47453,2.10486 1.47453,2.10486c0,0 -2.23561,0.24751 -3.26909,0.14262c-0.93208,-0.0946 -2.65908,-0.74427 -2.65908,-0.74427z" fill="#948a74" stroke="none"/><path d="M247.77637,189.40173c0,0 -0.61493,-1.62674 -1.37306,-2.27115c-0.93114,-0.79147 -3.8022,-2.12782 -3.8022,-2.12782l3.19141,0.64691c0,0 1.40741,0.70602 2.09819,1.22749c0.76746,0.57936 2.30078,2.0933 2.30078,2.0933z" data-paper-data="{&quot;index&quot;:null}" fill="#a68d55" stroke="none"/><path d="M246.79249,188.49601c0,0 -1.37691,-1.92287 -2.70915,-1.97659c-0.81695,-0.03294 -2.78486,-0.55259 -4.41506,-0.36311c-1.5686,0.18232 -3.44933,0.30802 -4.69968,0.72665c-0.1858,0.06221 -0.3758,0.15538 -0.56635,0.27127c-1.41036,0.85771 -2.85138,2.95955 -2.85138,2.95955c0,0 -0.1376,0.76726 -0.23924,0.82429c-0.17852,0.10019 -1.29883,-0.49142 -1.29883,-0.49142c0,0 2.32101,-3.76936 2.5043,-3.76151c0.24084,0.01031 0.57659,0.24835 0.84088,0.09723c0.23166,-0.13247 0.19714,-0.55072 0.44093,-0.76087c0.3644,-0.31413 1.04407,-0.42946 1.70193,-0.56818c0.53222,-0.16947 1.34103,-0.26808 1.84505,-0.28463c1.37795,-0.04523 2.86441,-0.42362 4.17901,-0.30202c1.57792,0.14596 2.93562,0.52244 3.63638,0.68633c0.89534,0.2094 2.61794,2.49983 2.61794,2.49983z" fill="#958151" stroke="none"/><path d="M223.49584,203.11617v-13.0244c0,0 -3.39603,-1.68196 1.98385,-1.68196c0.34024,0 5.43405,2.79229 9.01822,2.96626c3.48032,0.16893 7.47459,-0.28357 11.08235,-0.49438c1.64663,-0.09622 2.88272,0.03081 4.54391,-0.30969c1.64379,-0.33693 3.62925,-0.27898 4.73076,-0.35242c2.30136,-0.15343 2.97013,-0.12782 2.97013,-0.12782v13.0244z" fill="#88703c" stroke="none"/><path d="M244.23995,193.24005l2.28574,-3.92457l1.38007,0.08625l0.69003,5.39089z" fill="#917d4e" stroke="none"/><path d="M247.64045,193.58507c0,0 -0.16361,-1.52722 -0.14558,-2.11237c0.01442,-0.468 0.21137,0.58279 0.28659,0.13213c0.04725,-0.28313 -0.01208,-2.20309 -0.01208,-2.20309l2.35305,-0.51753c0,0 1.96774,0.85179 2.37416,1.32402c0.14873,0.17281 1.62551,-0.47448 2.52279,-0.70442c0.33905,-0.08688 1.32852,-0.03408 1.39917,0.04801c0.25797,0.29974 -0.78419,2.5238 -0.78419,2.5238z" fill="#9f8651" stroke="none"/><path d="M223.15082,199.96789l-2.02698,-10.73866c0,0 2.1876,2.39682 2.39198,0.69711c0.02126,-0.17679 0.62222,1.57336 3.05804,1.10995c2.81471,-0.53549 4.55621,1.01758 4.53083,-0.71179c-0.00308,-0.21015 1.20864,1.41573 3.41234,0.85547c1.85018,-0.47038 0.0345,2.51499 2.61212,1.75821c2.4376,-0.71566 0.56626,1.5042 3.53942,0.2706c2.28387,-0.9476 0.70791,0.91594 1.52636,-1.34038c0.44579,-1.22896 5.82058,0.84323 5.94715,0.56142c0.46372,0.80792 1.40107,-0.29393 2.22548,-0.22225c0.73692,0.06408 1.3412,0.4459 2.3168,0.15758c0.231,-0.06827 0.56424,0.19228 0.83161,-0.01808c0.21121,-0.16617 0.40931,-0.44452 0.58973,-0.75196c0.40432,-0.68896 0.71984,-1.52397 0.89507,-1.56972c2.11264,-0.55156 7.14368,0.03493 7.14368,0.03493l-3.71564,9.90756z" fill="#8f7641" stroke="none"/><path d="M217.86645,200.89916l-0.0634,-10.85052c0,0 3.91621,3.34514 7.20623,3.43806c1.90765,0.05388 1.55003,-3.06067 4.00547,-3.07256c0.69868,0.01558 0.9894,4.16008 5.52207,4.27506c2.67678,0.0679 4.72928,-2.43918 5.03436,-1.7908c1.66768,3.54422 0.67058,1.44422 3.50004,1.19761c1.50005,-0.13074 3.37014,0.47771 5.19268,0.17234c2.15827,-0.36162 1.89655,-2.07099 2.79195,-1.75557c2.39638,0.84416 11.31008,-1.13303 11.31008,-1.13303l0.16667,9.35275z" fill="#9e8242" stroke="none"/><path d="M220.09371,207.09149c0,0 -1.36588,-0.90693 -1.75148,-2.1424c-0.44042,-1.41111 -0.74852,-5.86757 -0.74852,-5.86757h44.78385c0,0 -0.27688,3.32628 -0.24892,4.72572c0.0276,1.38142 -3.25108,3.61758 -3.25108,3.61758z" fill="#9b7e3e" stroke="#000000"/><path d="M246.48259,189.40173l0.17251,-1.33694l1.12131,-0.04313v1.4232z" fill="#958151" stroke="none"/><path d="M235.46361,172.88404c0,-2.28657 1.85363,-4.14021 4.14021,-4.14021c2.28657,0 4.14021,1.85363 4.14021,4.14021c0,2.28657 -1.85363,4.14021 -4.14021,4.14021c-2.28657,0 -4.14021,-1.85363 -4.14021,-4.14021z" fill="url(#color-3)" stroke="none"/><path d="M224.64405,176.79783c0,-4.55528 3.69279,-8.24807 8.24807,-8.24807c4.55528,0 8.24807,3.69279 8.24807,8.24807c0,4.55528 -3.69279,8.24807 -8.24807,8.24807c-4.55528,0 -8.24807,-3.69279 -8.24807,-8.24807z" fill="url(#color-4)" stroke="none"/><path d="M229.62548,178.57682c0,-4.55528 3.69278,-8.24807 8.24807,-8.24807c4.55528,0 8.24807,3.69278 8.24807,8.24807c0,4.55528 -3.69279,8.24807 -8.24807,8.24807c-4.55528,0 -8.24807,-3.69278 -8.24807,-8.24807z" fill="url(#color-5)" stroke="none"/><path d="M226.68182,173.30453c0,-4.55528 3.69278,-8.24807 8.24807,-8.24807c4.55528,0 8.24807,3.69278 8.24807,8.24807c0,4.55528 -3.69278,8.24807 -8.24807,8.24807c-4.55528,0 -8.24807,-3.69279 -8.24807,-8.24807z" fill="url(#color-6)" stroke="none"/><path d="M221.20466,166.7492l-1.98385,1.36929c0,0 0.46241,-4.0424 1.53946,-3.48097c0.98149,0.51161 2.46684,2.042 3.89988,2.23143c0.94172,0.12448 3.56887,-3.36328 4.08743,-2.6572c1.04069,1.41701 1.37046,2.42008 2.17618,2.3427c1.55506,-0.14935 3.58561,0.61525 3.58561,0.61525l-3.79519,1.34772c0,0 -1.18164,-1.73366 -2.28887,-1.76467c-1.62571,-0.04552 -3.48975,1.58569 -4.49046,1.39961c-1.45427,-0.27041 -2.73022,-1.40316 -2.73022,-1.40316z" fill="#f9f4d6" stroke="none"/><path d="M260.21315,159.24508c0,0 -1.27595,1.13275 -2.73022,1.40316c-1.00071,0.18607 -2.86475,-1.44514 -4.49045,-1.39961c-1.10722,0.031 -2.28887,1.76467 -2.28887,1.76467l-3.79519,-1.34772c0,0 2.03055,-0.7646 3.58561,-0.61525c0.80573,0.07738 1.1355,-0.9257 2.17618,-2.3427c0.51856,-0.70608 3.14571,2.78168 4.08743,2.6572c1.43305,-0.18943 2.91839,-1.71982 3.89988,-2.23143c1.07706,-0.56142 1.53946,3.48097 1.53946,3.48097l-1.98385,-1.36929z" data-paper-data="{&quot;index&quot;:null}" fill="#f9f4d6" stroke="none"/></g><path d="M217.73215,202.29512c0,-11.61149 0,-38.15832 0,-44.59012c0,-2.7447 1.64785,-5.47898 4.28633,-5.47898c9.27857,0 30.80807,0 36.0069,0c2.20881,0 4.40922,2.73428 4.40922,5.47898c0,6.48884 0,33.45112 0,44.89553c0,3.18938 -2.13076,5.17356 -4.28633,5.17356c-5.13509,0 -26.6278,0 -36.00688,0c-2.71044,0 -4.40922,-2.11135 -4.40922,-5.47897z" fill="none" stroke="#000000" stroke-width="2"/><path d="M215.55315,209.17101v-58.14108h48.77563v58.14108z" fill-opacity="0.69412" fill="#262626" stroke="none" stroke-width="0"/><g font-family="Sans Serif" font-weight="normal" font-size="40" text-anchor="start"><text transform="translate(224.33173,175.37443) scale(0.24437,0.24437)" font-size="40" xml:space="preserve" fill="#000000" fill-rule="nonzero" stroke="#000000" stroke-width="4" stroke-linecap="butt" stroke-linejoin="miter" stroke-miterlimit="10" stroke-dasharray="" stroke-dashoffset="0" font-family="Sans Serif" font-weight="normal" text-anchor="start" style="mix-blend-mode: normal"><tspan x="0" dy="0">REACH</tspan></text><text transform="translate(224.33574,175.40709) scale(0.24437,0.24437)" font-size="40" xml:space="preserve" fill="#ffb424" fill-rule="nonzero" stroke="#ffb424" stroke-width="2" stroke-linecap="butt" stroke-linejoin="miter" stroke-miterlimit="10" stroke-dasharray="" stroke-dashoffset="0" font-family="Sans Serif" font-weight="normal" text-anchor="start" style="mix-blend-mode: normal"><tspan x="0" dy="0">REACH</tspan></text></g><g fill="#ffb424" stroke-width="0"><path d="M252.97552,190.36169v-11.69031l8.65033,5.84515z" stroke="#000000"/><path d="M218.70752,190.2949v-11.55674h34.43363v11.55674z" stroke="none"/></g><text transform="translate(230.43752,187.29979) scale(0.20316,0.20316)" font-size="40" xml:space="preserve" fill="#000000" fill-rule="nonzero" stroke="#000000" stroke-width="2" stroke-linecap="butt" stroke-linejoin="miter" stroke-miterlimit="10" stroke-dasharray="" stroke-dashoffset="0" font-family="Sans Serif" font-weight="normal" text-anchor="start" style="mix-blend-mode: normal"><tspan x="0" dy="0">3500</tspan></text></g></g></svg>