<svg version="1.1" xmlns="http://www.w3.org/2000/svg" xmlns:xlink="http://www.w3.org/1999/xlink" width="246.5003" height="342.4159" viewBox="0,0,246.5003,342.4159"><g transform="translate(-112.54217,-7.89803)"><g data-paper-data="{&quot;isPaintingLayer&quot;:true}" fill-rule="nonzero" stroke="none" stroke-width="0" stroke-linecap="butt" stroke-linejoin="miter" stroke-miterlimit="10" stroke-dasharray="" stroke-dashoffset="0" style="mix-blend-mode: normal"><g data-paper-data="{&quot;index&quot;:null}" fill="#573007"><path d="M315.48628,139.91609c0.86445,-0.86033 2.25879,-1.31527 3.83169,-1.31527c2.62336,0 4.75,1.26548 4.75,3.56667c0,2.30119 -2.12664,4.16667 -4.75,4.16667c-2.62336,0 -4.75,-1.86548 -4.75,-4.16667c0,-0.92145 0.34099,-1.67683 0.91831,-2.2514z"/><path d="M319.81797,141.16749c1.11502,0 2.62752,2.01028 2.9507,1.02741c0.99626,-3.02988 1.7993,2.21426 1.7993,3.72259c0,2.62335 -2.12664,4.75 -4.75,4.75c-2.62336,0 -4.75,-2.12665 -4.75,-4.75c0,-2.62335 2.12664,-4.75 4.75,-4.75z"/><path d="M315.4013,146.00081c2.91561,0 6.98285,0.30281 7.8068,2.23521c0.19054,0.44687 -0.9068,1.92207 -0.9068,2.41479c0,2.62335 -3.31015,4.85 -6.9,4.85c-3.58986,0 -6.5,-2.12665 -6.5,-4.75c0,-2.62335 2.91014,-4.75 6.5,-4.75z"/><path d="M314.31797,146.83416c1.79493,0 3.25,2.12665 3.25,4.75c0,1.49071 1.23015,2.52103 0.49509,3.39189c-0.5585,0.66167 -2.97012,1.35811 -3.74509,1.35811c-1.31677,0 -2.45065,-1.14452 -2.96131,-2.79003c-0.18543,-0.59753 -0.28869,-1.26113 -0.28869,-1.95997c0,-2.62335 1.45507,-4.75 3.25,-4.75z"/><path d="M313.16797,142.00082c0,-0.54311 0.39187,-1.15996 0.57862,-1.74386c0.38295,-1.19738 0.86482,-2.25615 2.07138,-2.25615c0.46137,0 1.03993,0.65481 1.49636,0.91299c1.31926,0.74624 2.35363,1.85604 2.35363,3.08701c0,1.65686 -1.45507,3 -3.25,3c-1.79493,0 -3.25,-1.34314 -3.25,-3z"/><path d="M310.47997,142.18555c0.58865,-0.54645 1.10385,-1.18474 2.00465,-1.18474c1.79493,0 3.25,1.34314 3.25,3c0,1.65686 -1.45507,3 -3.25,3c-1.79493,0 -3.25,-1.34314 -3.25,-3c0,-0.82535 0.66107,-1.27285 1.24535,-1.81526z"/><path d="M306.56796,147.84698c0,-1.04147 0.35389,-2.00098 0.88451,-2.83362c0.49266,-0.77307 1.12387,-1.45057 2.11193,-1.63648c0.2919,-0.05493 1.19409,0.31624 1.50356,0.31624c2.48528,0 4.5,1.85974 4.5,4.15385c0,2.2941 -2.91472,5.55384 -5.4,5.55384c-1.24798,0 -1.25038,-1.72197 -1.83957,-2.83088c-0.58413,-1.0994 -1.76042,-1.58085 -1.76042,-2.72296z"/></g><g data-paper-data="{&quot;index&quot;:null}" fill="#4e2c06"><path d="M332.38047,157.17894c-0.31606,-0.62585 -0.31607,-1.46902 -0.03562,-2.32865c0.46776,-1.43374 1.53857,-2.37036 2.79624,-1.96005c1.25767,0.41032 1.89801,1.90521 1.43025,3.33895c-0.46776,1.43374 -1.86649,2.26338 -3.12416,1.85307c-0.5036,-0.1643 -0.85563,-0.48535 -1.06671,-0.90332z"/><path d="M333.83675,155.03468c0.19882,-0.60939 1.56718,-1.07757 1.08764,-1.42945c-1.47828,-1.08473 1.53098,-0.58855 2.35532,-0.3196c1.43374,0.46776 2.21682,2.00922 1.74906,3.44296c-0.46776,1.43374 -2.00922,2.21681 -3.44296,1.74905c-1.43374,-0.46776 -2.21682,-2.00922 -1.74906,-3.44296z"/><path d="M335.69078,158.31032c0.51987,-1.59346 1.41059,-3.76233 2.61361,-3.86808c0.2782,-0.02445 0.88878,0.83831 1.15806,0.92616c1.43374,0.46776 2.06045,2.67388 1.42036,4.63583c-0.64009,1.96196 -2.32126,3.17324 -3.755,2.70548c-1.43374,-0.46776 -2.07712,-2.43743 -1.43703,-4.39939z"/><path d="M337.96957,161.67415c-1.43373,-0.46776 -2.33655,-1.64219 -2.01651,-2.62317c0.32004,-0.98098 1.74176,-1.39702 3.1755,-0.92926c0.81472,0.2658 1.59716,-0.2228 1.94205,0.33421c0.26205,0.42321 0.21266,1.86542 0.07448,2.28896c-0.23479,0.71965 -1.06248,1.13528 -2.05285,1.12096c-0.35964,-0.0052 -0.74073,-0.06708 -1.12266,-0.19169z"/><path d="M333.10647,158.81767c-0.29683,-0.09684 -0.56408,-0.42099 -0.8499,-0.62717c-0.58612,-0.4228 -1.07885,-0.87494 -0.86371,-1.53436c0.08226,-0.25215 0.54329,-0.45159 0.76578,-0.65501c0.64308,-0.58795 1.43405,-0.95538 2.10681,-0.73589c0.90552,0.29543 1.38013,1.33016 1.06009,2.31114c-0.32004,0.98098 -1.31356,1.53672 -2.21908,1.2413z"/><path d="M333.49817,161.32396c-0.45107,-0.14717 -0.57777,-0.58825 -0.77003,-1.00429c-0.19369,-0.41915 -0.45067,-0.81453 -0.29005,-1.30684c0.32005,-0.98098 1.31356,-1.53672 2.21908,-1.2413c0.90552,0.29543 1.38013,1.33016 1.06009,2.31114c-0.32004,0.98098 -1.31356,1.53672 -2.21908,1.2413z"/><path d="M335.12474,163.46718c-0.5692,-0.1857 -1.03049,-0.55019 -1.39094,-0.98866c-0.33466,-0.4071 -0.59238,-0.87287 -0.51781,-1.44602c0.02203,-0.16932 0.38575,-0.59621 0.44093,-0.76535c0.44314,-1.35828 1.81878,-2.12778 3.07257,-1.71873c1.25379,0.40905 2.51562,2.58327 2.07248,3.94154c-0.22252,0.68205 -1.16405,0.37633 -1.87516,0.50061c-0.70501,0.12321 -1.17788,0.68024 -1.80207,0.4766z"/></g><g data-paper-data="{&quot;index&quot;:null}" fill="#573007"><path d="M297.36519,160.10682c0.81608,-0.32641 1.64342,-0.36361 2.42037,-0.17709c1.16336,0.27928 2.21374,1.06017 2.94412,2.12285c1.21816,1.77239 1.08489,3.65746 -0.95316,4.47261c-2.03805,0.81515 -4.67772,0.03916 -5.89588,-1.73323c-1.21816,-1.77239 -0.55349,-3.87 1.48456,-4.68515z"/><path d="M294.27618,161.77299c2.32338,-0.92927 5.19435,-0.24579 6.41251,1.5266c0.51776,0.75333 -0.56032,2.4873 0.46023,2.35748c3.14603,-0.40018 -1.12555,2 -2.46141,2.53429c-2.32338,0.92927 -5.19435,0.24579 -6.41251,-1.5266c-1.21816,-1.77239 -0.32219,-3.96251 2.00118,-4.89178z"/><path d="M287.13203,159.31877c2.32337,-0.92927 5.55816,0.28355 7.22512,2.70893c1.35387,1.96984 2.97431,4.825 1.64548,6.06619c-0.30729,0.28703 -2.12335,0.06821 -2.55973,0.24274c-2.32337,0.92927 -5.83248,-0.51838 -7.49943,-2.94375c-1.66695,-2.42537 -1.1348,-5.14484 1.18857,-6.07411z"/><path d="M287.4001,161.07781c2.32337,-0.92927 4.88251,-0.69952 5.71598,0.51317c0.83347,1.21269 -0.37434,2.94908 -2.69771,3.87835c-1.32025,0.52805 -1.66153,1.72413 -2.77414,1.536c-0.84535,-0.14295 -2.58199,-1.52559 -2.94185,-2.04917c-0.61145,-0.88964 -0.12431,-2.06113 1.09591,-2.98903c0.4431,-0.33695 0.98287,-0.64178 1.6018,-0.88933z"/><path d="M296.8627,159.10192c0.48101,-0.19239 1.20929,-0.14613 1.81314,-0.2268c1.23829,-0.16542 2.39975,-0.21491 2.96001,0.60027c0.21424,0.31171 -0.09703,0.93454 -0.11375,1.33437c-0.04831,1.15565 -0.5509,2.24761 -1.64111,2.68366c-1.4674,0.58691 -3.33262,0.07962 -4.16609,-1.13307c-0.83347,-1.21269 -0.31958,-2.67154 1.14782,-3.25845z"/><path d="M295.45094,157.35128c0.75731,0.20413 1.56185,0.32611 1.98013,0.93471c0.83347,1.21269 0.31958,2.67154 -1.14782,3.25845c-1.4674,0.58691 -3.33263,0.07962 -4.1661,-1.13307c-0.83347,-1.21269 -0.31958,-2.67154 1.14782,-3.25845c0.73097,-0.29237 1.43427,-0.00426 2.18597,0.19836z"/><path d="M288.62034,156.7137c0.92238,-0.36892 1.9365,-0.46971 2.92032,-0.40616c0.91345,0.05901 1.80657,0.24547 2.43003,0.84717c0.18419,0.17775 0.27439,0.91877 0.4181,1.12785c1.15404,1.6791 0.44249,3.69906 -1.58929,4.5117c-2.03178,0.81264 -6.27222,-0.0019 -7.42626,-1.681c-0.5795,-0.84316 0.94445,-1.45476 1.65297,-2.24563c0.70245,-0.78409 0.58263,-1.74936 1.59414,-2.15393z"/></g><g data-paper-data="{&quot;index&quot;:null}" fill="#573007"><path d="M355.43797,128.85842c0.81296,0.07151 1.68369,0.64684 2.4235,1.54891c1.23391,1.50452 1.63643,3.3482 0.5495,4.48297c-1.08694,1.13477 -2.96834,0.83502 -4.20225,-0.66949c-1.23391,-1.50451 -1.35303,-3.64407 -0.2661,-4.77884c0.43524,-0.45438 0.95242,-0.63131 1.49535,-0.58355z"/><path d="M352.40653,131.57795c1.2391,-1.29364 3.24387,-1.12268 4.47777,0.38183c0.52446,0.63947 0.28634,2.49822 0.90259,2.19889c1.89971,-0.92275 -0.19957,2.12381 -0.91201,2.8676c-1.23911,1.29364 -3.24388,1.12268 -4.47778,-0.38183c-1.2339,-1.50452 -1.22967,-3.77287 0.00943,-5.0665z"/><path d="M347.22307,130.42473c1.2391,-1.29363 3.61239,-0.67334 5.30089,1.38547c1.37136,1.67213 3.14136,4.15404 2.61617,5.57949c-0.12145,0.32964 -1.33438,0.42777 -1.56711,0.67074c-1.2391,1.29364 -3.84776,0.49325 -5.53626,-1.56556c-1.6885,-2.05881 -2.05279,-4.7765 -0.81369,-6.07013z"/><path d="M347.84855,132.07827c1.2391,-1.29364 2.92799,-1.50784 3.77224,-0.47843c0.84425,1.02941 0.52414,2.9126 -0.71496,4.20623c-0.70411,0.73511 -0.61216,1.94868 -1.36924,1.95656c-0.57522,0.00597 -2.03849,-1.03368 -2.403,-1.47813c-0.61935,-0.75518 -0.61208,-1.96986 -0.07503,-3.07417c0.19502,-0.401 0.4599,-0.78745 0.78999,-1.13207z"/><path d="M354.45869,128.02878c0.74569,-0.37083 1.47243,-0.61657 2.03994,0.0754c0.21701,0.2646 0.17984,0.91931 0.27258,1.30839c0.26804,1.1246 0.23036,2.26508 -0.35107,2.8721c-0.7826,0.81704 -2.10141,0.64488 -2.94566,-0.38453c-0.84425,-1.02941 -0.89423,-2.52623 -0.11163,-3.34327c0.25653,-0.26782 0.7322,-0.34725 1.09584,-0.52809z"/><path d="M352.01129,127.10639c0.53498,0.06813 1.0788,0.04884 1.50249,0.56546c0.84425,1.02941 0.89423,2.52623 0.11163,3.34327c-0.78259,0.81704 -2.10141,0.64488 -2.94566,-0.38453c-0.84425,-1.02941 -0.89423,-2.52623 -0.11163,-3.34327c0.38984,-0.407 0.91216,-0.24855 1.44317,-0.18093z"/><path d="M347.49716,127.6546c0.49192,-0.51358 1.11158,-0.78377 1.75445,-0.89005c0.59687,-0.09867 1.21377,-0.07076 1.76632,0.40422c0.16325,0.14032 0.41227,0.84077 0.55783,1.01825c1.16895,1.42532 1.23816,3.49787 0.15457,4.62914c-1.08359,1.13127 -3.99424,1.0671 -5.16319,-0.35822c-0.58699,-0.71573 0.22524,-1.56625 0.47189,-2.45098c0.24454,-0.87714 -0.08132,-1.78916 0.45814,-2.35236z"/></g><g data-paper-data="{&quot;index&quot;:null}" fill="#573007"><path d="M169.32067,48.2511c-0.66765,-0.46657 -1.13363,-1.15193 -1.29232,-2.05962c-0.39631,-2.26681 1.3773,-4.47066 3.96146,-4.92245c2.58417,-0.45179 5.0003,1.01958 5.3966,3.28639c0.3963,2.26681 -1.48063,3.87962 -4.06479,4.33141c-1.5494,0.27088 -3.00125,0.06287 -4.00095,-0.63574z"/><path d="M173.37213,46.27239c-2.58416,0.45179 -5.04528,-1.27684 -5.49706,-3.861c-0.45178,-2.58415 1.27684,-5.04527 3.861,-5.49706c2.58416,-0.45178 5.04528,1.27685 5.49706,3.86101c0.25976,1.4858 0.37184,6.78988 -1.13133,3.97684c-0.48762,-0.91253 -1.63131,1.32819 -2.72967,1.52022z"/><path d="M168.18907,42.27191c-3.53622,0.61824 -6.76913,-0.97546 -7.22091,-3.55962c-0.45178,-2.58416 2.04863,-5.18021 5.58486,-5.79844c3.53622,-0.61823 7.18038,1.00508 7.63216,3.58924c0.08486,0.48536 1.41985,1.74953 1.30912,2.22254c-0.47885,2.04543 -4.43317,3.04416 -7.30522,3.54628z"/><path d="M166.9784,41.63759c-1.76811,0.30912 -3.56769,-1.53516 -4.01947,-4.11932c-0.12034,-0.6884 -0.13291,-1.35988 -0.05316,-1.98041c0.21965,-1.70887 1.13948,-3.03156 2.43658,-3.25833c0.76339,-0.13347 3.25891,0.13725 3.92302,0.69285c0.87406,0.73127 -0.16028,1.95805 0.09645,3.42648c0.45178,2.58415 -0.6153,4.92962 -2.38341,5.23873z"/><path d="M166.67798,46.59676c-0.28534,-1.63211 0.91668,-3.20577 2.68479,-3.51488c1.76811,-0.30911 3.43275,0.76336 3.71809,2.39547c0.212,1.21258 -0.61579,2.48394 -1.78683,3.44623c-0.40515,0.33292 -0.86229,1.07758 -1.31677,1.15704c-1.18854,0.20779 -1.84554,-0.75218 -2.42898,-1.86572c-0.28452,-0.54301 -0.77677,-1.08315 -0.8703,-1.61815z"/><path d="M163.99833,46.87769c-0.66896,-0.43368 -1.39722,-0.76064 -1.53936,-1.57366c-0.28534,-1.6321 0.91668,-3.20577 2.68479,-3.51488c1.76811,-0.30912 3.43275,0.76336 3.71809,2.39547c0.28534,1.63211 -0.91668,3.20577 -2.68479,3.51488c-0.88734,0.15514 -1.50476,-0.38489 -2.17873,-0.8218z"/><path d="M159.16978,41.97457c-0.19669,-1.12504 0.87911,-1.80188 1.26518,-2.98545c0.38941,-1.19381 0.09523,-2.89045 1.32456,-3.10538c2.44815,-0.428 5.8807,2.28107 6.27578,4.54089c0.39509,2.25983 -1.26925,4.43876 -3.7174,4.86676c-0.30485,0.05329 -1.12964,0.57429 -1.42664,0.57045c-1.00531,-0.01297 -1.74377,-0.57164 -2.3622,-1.24832c-0.66608,-0.72882 -1.17993,-1.61304 -1.35929,-2.63895z"/></g><g data-paper-data="{&quot;index&quot;:null}" fill="#4e2c06"><path d="M174.9895,14.67004c0.13594,-0.44808 0.42743,-0.82495 0.89521,-1.07353c1.16821,-0.62078 2.68892,-0.04441 3.39661,1.28735c0.70768,1.33176 0.33435,2.9146 -0.83386,3.53537c-1.16821,0.62078 -2.38433,-0.11743 -3.09202,-1.4492c-0.42431,-0.79849 -0.5695,-1.62907 -0.36595,-2.3z"/><path d="M177.9233,12.83873c1.33176,-0.70769 2.98505,-0.20178 3.69274,1.12999c0.70769,1.33176 0.20177,2.98504 -1.12999,3.69273c-0.76572,0.40689 -3.64456,1.41389 -2.37518,0.09079c0.41177,-0.4292 -1.01677,-0.65474 -1.31756,-1.22078c-0.70768,-1.33176 -0.20177,-2.98504 1.12999,-3.69273z"/><path d="M178.05551,12.98546c-0.96841,-1.82241 -0.67385,-3.87344 0.65791,-4.58113c1.33176,-0.70769 3.19641,0.19597 4.16482,2.01838c0.96841,1.82241 0.731,4.10349 -0.60076,4.81118c-0.25013,0.13292 -0.703,1.08794 -0.98126,1.11176c-1.20326,0.103 -2.45418,-1.88006 -3.2407,-3.36019z"/><path d="M178.18633,12.2107c-0.4842,-0.91121 0.20287,-2.22357 1.53463,-2.93126c0.35477,-0.18852 0.71951,-0.31512 1.07287,-0.38217c0.97311,-0.18466 1.86,0.08221 2.21522,0.75068c0.20905,0.39342 0.50607,1.80556 0.32083,2.26758c-0.24381,0.60808 -1.09871,0.26153 -1.85547,0.66367c-1.33176,0.70769 -2.80389,0.5427 -3.28809,-0.3685z"/><path d="M175.42241,12.93076c0.84111,-0.44695 1.91549,-0.07062 2.39969,0.84059c0.48421,0.9112 0.19489,2.01221 -0.64623,2.45917c-0.62491,0.33207 -1.46733,0.10634 -2.20206,-0.36208c-0.25419,-0.16206 -0.74268,-0.27913 -0.86714,-0.51334c-0.32549,-0.61252 0.08201,-1.14276 0.58656,-1.66018c0.24605,-0.25233 0.45349,-0.61766 0.7292,-0.76417z"/><path d="M174.79108,11.51634c0.11775,-0.44293 0.16659,-0.89924 0.58558,-1.12189c0.84112,-0.44695 1.9155,-0.07061 2.3997,0.84059c0.48421,0.9112 0.19489,2.01221 -0.64623,2.45917c-0.84112,0.44695 -1.9155,0.07061 -2.3997,-0.84059c-0.243,-0.4573 -0.05795,-0.89103 0.06066,-1.33728z"/><path d="M176.60982,8.00315c0.5798,-0.3081 1.14154,0.15917 1.85723,0.15913c0.72188,-0.00004 1.59669,-0.46335 1.93335,0.1702c0.67044,1.26167 -0.1981,3.6207 -1.36271,4.23956c-1.16461,0.61887 -2.65222,0.09777 -3.32265,-1.1639c-0.08349,-0.1571 -0.51529,-0.51498 -0.56615,-0.67798c-0.17216,-0.55174 0.0015,-1.05494 0.26105,-1.51359c0.27955,-0.49399 0.67118,-0.93248 1.19989,-1.21343z"/></g><g data-paper-data="{&quot;index&quot;:null}" fill="#573007"><path d="M150.99316,29.14946c-2.14798,-0.45198 -3.16395,-2.40379 -2.26923,-4.35948c0.89472,-1.95569 3.36132,-3.1747 5.5093,-2.72271c2.14798,0.45198 2.6039,2.28594 1.70918,4.24163c-0.53645,1.17259 -1.43666,2.12271 -2.53454,2.59817c-0.73322,0.31753 -1.55461,0.42337 -2.41471,0.24239z"/><path d="M153.71714,25.43204c-0.89472,1.95569 -3.6051,3.12339 -6.05379,2.60813c-2.44869,-0.51527 -3.70845,-2.51837 -2.81373,-4.47406c0.89473,-1.95569 3.60511,-3.12339 6.0538,-2.60813c1.40792,0.29625 6.02903,1.92493 2.86109,2.07253c-1.02766,0.04788 0.33293,1.57028 -0.04736,2.40152z"/><path d="M147.69927,27.77531c-1.22436,2.67621 -4.20197,4.428 -6.65066,3.91274c-2.4487,-0.51527 -3.44123,-3.10246 -2.21687,-5.77867c1.22436,-2.67621 4.43173,-4.70656 6.88042,-4.1913c0.45992,0.09677 2.21117,-0.43153 2.5633,-0.20172c1.52273,0.9938 0.41821,4.08538 -0.57619,6.25894z"/><path d="M146.55192,28.41923c-0.61217,1.33811 -3.09351,2.00516 -5.5422,1.4899c-0.65231,-0.13726 -1.23651,-0.34458 -1.73102,-0.60018c-1.36179,-0.70389 -2.0434,-1.77398 -1.5943,-2.75563c0.26432,-0.57773 1.7369,-2.23879 2.545,-2.52519c1.06358,-0.37693 1.60575,0.7425 2.99721,1.0353c2.44869,0.51526 3.93748,2.0177 3.32531,3.35581z"/><path d="M150.67127,30.22589c-1.54655,-0.32543 -2.304,-1.67398 -1.69183,-3.01209c0.61217,-1.33811 2.36216,-2.15905 3.90871,-1.83362c1.14901,0.24178 1.83215,1.23088 2.07876,2.36095c0.08533,0.39098 0.49921,0.95089 0.34186,1.29484c-0.41151,0.89949 -1.56414,1.05076 -2.81241,1.10107c-0.60872,0.02454 -1.31816,0.19551 -1.82511,0.08884z"/><path d="M147.4629,32.76534c-1.54655,-0.32543 -2.30399,-1.67399 -1.69182,-3.0121c0.61218,-1.33811 2.36217,-2.15904 3.90872,-1.83361c1.54655,0.32543 2.30399,1.67398 1.69182,3.01209c-0.30723,0.67154 -1.07874,0.93026 -1.78957,1.26176c-0.70557,0.32904 -1.34875,0.73397 -2.11915,0.57186z"/><path d="M142.96331,33.99788c-1.06607,-0.22432 -1.11428,-1.19581 -1.94126,-1.84721c-0.83413,-0.65704 -2.44064,-0.99704 -2.01501,-1.9274c0.84763,-1.85276 4.88444,-3.38541 7.02581,-2.93482c2.14137,0.45059 3.19016,2.31783 2.34253,4.17059c-0.10555,0.23071 -0.06679,0.97619 -0.21762,1.18301c-0.51052,0.70007 -1.35819,1.03757 -2.24782,1.253c-0.95818,0.23203 -1.97451,0.30739 -2.94664,0.10283z"/></g><g data-paper-data="{&quot;index&quot;:null}" fill="#573007"><path d="M194.67293,57.61255c-1.26612,-0.93062 -1.51724,-3.05872 -0.56087,-4.75326c0.95637,-1.69454 2.75804,-2.31381 4.02416,-1.38319c1.26612,0.93063 1.18712,2.81609 0.23075,4.51063c-0.57341,1.016 -1.33204,1.73268 -2.12054,1.94314c-0.52659,0.14055 -1.06652,0.05532 -1.5735,-0.31732z"/><path d="M192.79194,55.77305c-1.44337,-1.06091 -1.83818,-3.29464 -0.88181,-4.98918c0.95636,-1.69454 2.90173,-2.20818 4.34511,-1.14727c0.82989,0.60999 3.42247,3.24949 1.39223,2.6677c-0.65859,-0.18873 -0.10392,1.60124 -0.51041,2.32148c-0.95636,1.69453 -2.90174,2.20818 -4.34512,1.14727z"/><path d="M192.86761,55.52403c-1.30871,2.31883 -3.53971,3.33857 -4.98309,2.27766c-1.44337,-1.06091 -1.55255,-3.80073 -0.24384,-6.11957c1.3087,-2.31883 3.74055,-3.55651 5.18393,-2.4956c0.2711,0.19926 1.4828,0.08703 1.65921,0.39083c0.76284,1.3137 -0.55329,4.06336 -1.6162,5.94668z"/><path d="M188.2159,56.06515c-0.38451,-0.28262 -0.71198,-0.61768 -0.97315,-0.97911c-0.7192,-0.99532 -0.93555,-2.19059 -0.45551,-3.04115c0.28252,-0.50058 1.54488,-1.7767 2.11254,-1.86988c0.74712,-0.12262 0.86555,1.08866 1.68574,1.69152c1.44337,1.06091 2.08301,2.86084 1.42865,4.02026c-0.65435,1.15942 -2.35489,1.23927 -3.79827,0.17836z"/><path d="M194.25424,58.58429c-0.91161,-0.67006 -1.12016,-2.15313 -0.4658,-3.31255c0.65436,-1.15942 1.92382,-1.55612 2.83543,-0.88607c0.67728,0.49782 0.91081,1.61477 0.84045,2.76872c-0.02434,0.39924 0.12502,1.03776 -0.04318,1.33578c-0.43986,0.77936 -1.19806,0.66245 -1.99647,0.42558c-0.38934,-0.11551 -0.8716,-0.11184 -1.17042,-0.33148z"/><path d="M193.17268,60.24586c-0.51143,0.15806 -0.99865,0.4041 -1.45276,0.07032c-0.91161,-0.67006 -1.12016,-2.15313 -0.4658,-3.31255c0.65435,-1.15942 1.92381,-1.55613 2.83542,-0.88608c0.91161,0.67005 1.12016,2.15312 0.4658,3.31254c-0.32839,0.58186 -0.8674,0.65652 -1.38266,0.81576z"/><path d="M188.63158,60.48324c-0.62839,-0.46188 -0.46445,-1.41639 -0.8564,-2.23832c-0.39533,-0.82903 -1.34189,-1.52696 -0.88693,-2.33309c0.90603,-1.60535 3.76213,-2.16982 5.02436,-1.24206c1.26222,0.92776 1.55097,2.98126 0.64495,4.5866c-0.11282,0.1999 -0.2375,0.93278 -0.37414,1.09911c-0.46249,0.56304 -1.06536,0.69678 -1.67031,0.70237c-0.65156,0.00602 -1.3085,-0.15341 -1.88152,-0.5746z"/></g><g data-paper-data="{&quot;index&quot;:null}" fill="#573007"><path d="M129.08871,248.36074c0.53443,-0.75064 1.25032,-1.16822 2.05386,-1.30144c1.20318,-0.19947 2.60291,0.23863 3.88423,1.15089c2.13706,1.52152 3.1355,3.78583 1.80084,5.66044c-1.33467,1.8746 -4.14904,2.16084 -6.28609,0.63932c-2.13705,-1.52152 -2.7875,-4.27461 -1.45284,-6.14922z"/><path d="M127.32106,251.70556c1.52151,-2.13705 4.48736,-2.63604 6.62441,-1.11452c0.90833,0.6467 0.97451,3.16156 1.80783,2.54833c2.56887,-1.89039 0.1815,2.84737 -0.69331,4.07609c-1.52151,2.13705 -4.48736,2.63604 -6.62441,1.11452c-2.13705,-1.52152 -2.63603,-4.48737 -1.11452,-6.62441z"/><path d="M119.49426,252.06633c1.52152,-2.13705 5.12562,-2.18162 8.05001,-0.09954c2.37512,1.69102 5.51277,4.29665 5.06321,6.34871c-0.10396,0.47454 -1.85348,1.03983 -2.13925,1.44121c-1.52151,2.13704 -5.50947,2.03107 -8.43385,-0.051c-2.92439,-2.08208 -4.06162,-5.50235 -2.54011,-7.63939z"/><path d="M126.17844,252.01732c1.46219,1.04104 1.41409,3.61739 -0.10742,5.75443c-0.8646,1.21437 -0.46006,2.76716 -1.56395,3.05026c-0.83873,0.21509 -3.20722,-0.61629 -3.83853,-1.06576c-1.07267,-0.76371 -1.33255,-2.3537 -0.79417,-3.99035c0.19551,-0.59431 0.49627,-1.19479 0.90159,-1.76408c1.52152,-2.13704 3.94029,-3.02554 5.40248,-1.9845z"/><path d="M128.0449,247.413c0.315,-0.44243 0.99199,-0.71765 1.48278,-1.085c1.00643,-0.75331 2.01305,-1.33633 2.99594,-0.63654c0.37585,0.26759 0.46737,1.13658 0.68945,1.61162c0.64189,1.37306 0.84084,2.87705 0.12689,3.87983c-0.96096,1.34972 -2.92531,1.59995 -4.3875,0.55891c-1.46219,-1.04104 -1.86852,-2.97912 -0.90756,-4.32884z"/><path d="M123.68074,246.76093c0.47869,-0.67235 1.27676,-0.65349 2.06732,-0.75647c0.79646,-0.10374 1.58636,-0.32489 2.32017,0.19756c1.46219,1.04104 1.86852,2.97912 0.90756,4.32884c-0.96096,1.34972 -2.92531,1.59995 -4.3875,0.55891c-1.46219,-1.04104 -1.86852,-2.97912 -0.90756,-4.32884z"/><path d="M119.27766,248.34746c0.60404,-0.84841 1.44883,-1.42479 2.36401,-1.79533c0.8497,-0.34402 1.75685,-0.52984 2.66957,-0.10822c0.26965,0.12456 0.78932,0.95018 1.04142,1.12967c2.02457,1.44144 2.58718,4.12494 1.25662,5.99378c-1.33056,1.86883 -5.59557,2.83378 -7.62014,1.39235c-1.01664,-0.72381 -0.01987,-2.12796 0.14332,-3.37303c0.1618,-1.23438 -0.5172,-2.30882 0.14521,-3.23921z"/></g><g data-paper-data="{&quot;index&quot;:null}" fill="#4e2c06"><path d="M141.72658,231.44734c-0.20057,-0.27125 -0.26462,-0.56782 -0.21974,-0.86262c0.0672,-0.44141 0.37862,-0.87883 0.84162,-1.2212c0.77222,-0.57103 1.67368,-0.66141 2.17457,0.01597c0.5009,0.67738 0.28095,1.68941 -0.49127,2.26043c-0.77222,0.57102 -1.80428,0.48479 -2.30517,-0.19259z"/><path d="M143.05432,230.0102c0.32822,-0.2427 1.21102,0.01983 1.09221,-0.33984c-0.36625,-1.10874 1.01162,0.26014 1.33993,0.70414c0.57102,0.77222 0.40792,1.86113 -0.3643,2.43215c-0.77222,0.57102 -1.86112,0.40792 -2.43214,-0.3643c-0.57102,-0.77222 -0.40792,-1.86113 0.3643,-2.43215z"/><path d="M142.80628,232.39433c0.85825,-0.63464 2.12141,-1.43081 2.78457,-1.04133c0.15335,0.09006 0.15144,0.76316 0.25869,0.9082c0.57102,0.77222 0.08131,2.14817 -0.97541,2.92957c-1.05672,0.7814 -2.37626,0.78884 -2.94728,0.01662c-0.57102,-0.77221 -0.17729,-2.03166 0.87943,-2.81306z"/><path d="M142.66878,232.87544c0.52836,-0.3907 1.41958,-0.08142 1.9906,0.6908c0.32448,0.43881 0.91086,0.47433 0.88404,0.89068c-0.02038,0.31633 -0.57868,1.04627 -0.8068,1.21496c-0.38761,0.28662 -0.97051,0.19652 -1.479,-0.1767c-0.18464,-0.13553 -0.35948,-0.30839 -0.5116,-0.5141c-0.57102,-0.77221 -0.6056,-1.71494 -0.07724,-2.10564z"/><path d="M141.27821,231.703c-0.11822,-0.15987 -0.13713,-0.42674 -0.20926,-0.63927c-0.1479,-0.43582 -0.23652,-0.85237 0.11865,-1.115c0.13581,-0.10043 0.44865,-0.03361 0.6392,-0.05696c0.55077,-0.0675 1.09682,0.03404 1.36476,0.39639c0.36064,0.48772 0.22468,1.19981 -0.30368,1.59051c-0.52836,0.3907 -1.24903,0.31205 -1.60968,-0.17567z"/><path d="M140.55572,233.14789c-0.17965,-0.24296 -0.08247,-0.51858 -0.02854,-0.80542c0.05433,-0.28898 0.06705,-0.58901 0.33221,-0.78509c0.52836,-0.3907 1.24903,-0.31205 1.60968,0.17567c0.36064,0.48772 0.22468,1.19981 -0.30368,1.59051c-0.52836,0.3907 -1.24903,0.31205 -1.60968,-0.17567z"/><path d="M140.60793,234.86051c-0.22669,-0.30657 -0.33138,-0.66604 -0.35642,-1.02664c-0.02325,-0.3348 0.01508,-0.67163 0.26546,-0.94142c0.07397,-0.07971 0.42033,-0.16683 0.51143,-0.23419c0.73157,-0.54097 1.72944,-0.43207 2.22879,0.24323c0.49935,0.6753 0.3509,2.26929 -0.38067,2.81025c-0.36736,0.27164 -0.74288,-0.23472 -1.15769,-0.43289c-0.41125,-0.19647 -0.8623,-0.08216 -1.1109,-0.41835z"/></g><g data-paper-data="{&quot;index&quot;:null}" fill="#573007"><path d="M127.74471,232.25666c0.78572,0.90225 1.18848,2.1476 1.16712,3.43689c-0.03563,2.15035 -1.23752,3.60868 -3.37054,3.09067c-2.13302,-0.518 -3.83329,-2.68113 -3.79767,-4.83148c0.03563,-2.15035 1.79367,-3.47362 3.92669,-2.95561c0.85411,0.20742 1.54966,0.65696 2.0744,1.25953z"/><path d="M126.52594,235.52562c-0.01514,0.91397 -1.89906,1.70123 -0.9924,2.18739c2.79493,1.49867 -2.07688,0.97644 -3.47499,0.63691c-2.43165,-0.59053 -4.374,-2.81244 -4.33838,-4.96279c0.03563,-2.15035 2.03575,-3.41483 4.46739,-2.8243c2.43165,0.59053 4.374,2.81244 4.33838,4.96279z"/><path d="M122.10579,230.81731c-0.03959,2.38991 -0.37551,5.65563 -2.17788,5.89603c-0.4168,0.05559 -1.7693,-1.17596 -2.22601,-1.28688c-2.43164,-0.59052 -4.45062,-3.80506 -4.40187,-6.74764c0.04875,-2.94258 2.05951,-4.84929 4.49115,-4.25876c2.43164,0.59052 4.36336,3.45467 4.31461,6.39725z"/><path d="M116.98933,226.00846c2.43164,0.59053 4.38312,2.26196 4.35874,3.73325c-0.02438,1.47129 -2.01538,2.18529 -4.44702,1.59476c-1.38177,-0.33556 -2.3535,0.44086 -3.15074,-0.3577c-0.60574,-0.60674 -1.21853,-2.7403 -1.20801,-3.37554c0.01788,-1.07935 1.09416,-1.75115 2.62636,-1.79932c0.55638,-0.01749 1.17289,0.04725 1.82066,0.20456z"/><path d="M125.84379,229.88708c0.50342,0.12225 1.06987,0.58233 1.60857,0.86684c1.10468,0.58344 2.07954,1.21676 2.06315,2.20577c-0.00627,0.37818 -0.62108,0.70502 -0.86659,1.02104c-0.70962,0.9134 -1.75237,1.51145 -2.89338,1.23435c-1.53578,-0.37296 -2.76101,-1.86802 -2.73663,-3.33931c0.02437,-1.47129 1.28912,-2.36165 2.8249,-1.98869z"/><path d="M125.70907,227.64216c0.49853,0.60552 1.08317,1.17151 1.07094,1.90989c-0.02437,1.47129 -1.28912,2.36165 -2.8249,1.98869c-1.53578,-0.37297 -2.76101,-1.86803 -2.73663,-3.33932c0.02437,-1.47129 1.28912,-2.36165 2.8249,-1.98869c0.76503,0.18579 1.17086,0.8284 1.66569,1.42943z"/><path d="M120.5145,223.1611c0.96537,0.23444 1.84995,0.74051 2.61454,1.36289c0.70989,0.57785 1.3293,1.24775 1.48821,2.09951c0.04695,0.25163 -0.30935,0.9076 -0.31355,1.16127c-0.03375,2.03716 -1.78495,3.26998 -3.91141,2.75357c-2.12646,-0.51641 -5.1084,-3.63937 -5.07465,-5.67654c0.01695,-1.02296 1.61312,-0.6373 2.64899,-0.87064c1.02699,-0.23133 1.48923,-1.08715 2.54788,-0.83006z"/></g><g data-paper-data="{&quot;index&quot;:null}" fill="#573007"><path d="M156.21159,241.83108c0.61809,-0.11772 1.14202,0.0381 1.5566,0.39191c0.62078,0.52977 0.99641,1.50346 1.07589,2.66739c0.13256,1.94127 -0.60884,3.67664 -2.15244,3.97064c-1.54359,0.294 -2.90238,-1.04137 -3.03495,-2.98264c-0.13257,-1.94126 1.0113,-3.75329 2.5549,-4.04729z"/><path d="M153.72141,242.68017c1.7597,-0.33516 3.29368,0.96684 3.42625,2.90811c0.05635,0.82511 -1.21568,2.20118 -0.54006,2.31476c2.08274,0.35013 -1.39436,1.61437 -2.40612,1.80707c-1.7597,0.33516 -3.29368,-0.96684 -3.42625,-2.90811c-0.13257,-1.94126 1.18649,-3.78666 2.94619,-4.12182z"/><path d="M150.16768,238.73441c1.7597,-0.33516 3.33327,1.54662 3.51468,4.20309c0.14734,2.15753 0.14974,5.20594 -1.10484,6.06254c-0.29012,0.19809 -1.33511,-0.42546 -1.66562,-0.36251c-1.7597,0.33516 -3.42057,-1.82986 -3.60197,-4.48632c-0.18141,-2.65647 1.09805,-5.08165 2.85775,-5.41681z"/><path d="M153.06864,242.2423c0.0907,1.32824 -1.26229,2.67668 -3.02199,3.01184c-0.99994,0.19046 -1.6289,1.23239 -2.2502,0.79971c-0.47206,-0.32875 -1.06109,-2.02436 -1.10025,-2.59783c-0.06654,-0.97441 0.64389,-1.9597 1.72186,-2.54781c0.39145,-0.21356 0.83136,-0.37475 1.30013,-0.46403c1.7597,-0.33516 3.25975,0.46988 3.35045,1.79812z"/><path d="M156.25263,240.77381c0.36431,-0.06939 0.79788,0.14179 1.19899,0.20538c0.82254,0.1304 1.55709,0.35171 1.61806,1.24456c0.02331,0.34141 -0.38668,0.8532 -0.5368,1.22394c-0.4339,1.07158 -1.12607,1.97879 -1.95178,2.13606c-1.11139,0.21169 -2.08588,-0.69345 -2.17658,-2.02169c-0.0907,-1.32824 0.73673,-2.57658 1.84812,-2.78826z"/><path d="M154.71231,238.11867c0.55363,-0.10545 0.88722,0.32658 1.28058,0.68964c0.39629,0.36579 0.85048,0.66549 0.896,1.33207c0.0907,1.32824 -0.73673,2.57658 -1.84812,2.78826c-1.11139,0.21168 -2.08588,-0.69346 -2.17658,-2.0217c-0.0907,-1.32824 0.73673,-2.57658 1.84812,-2.78826z"/><path d="M151.99762,236.63674c0.6986,-0.13306 1.36011,0.00623 1.94544,0.29251c0.54346,0.26579 1.0298,0.64633 1.20444,1.35373c0.0516,0.20899 -0.15179,0.92402 -0.13615,1.15303c0.12559,1.83909 -1.02008,3.56758 -2.55893,3.86067c-1.53885,0.29309 -3.87271,-1.44732 -3.9983,-3.28641c-0.06306,-0.9235 1.09189,-1.14527 1.80595,-1.72294c0.70794,-0.57271 0.97144,-1.50466 1.73755,-1.65058z"/></g><g data-paper-data="{&quot;index&quot;:null}" fill="#573007"><path d="M156.20672,221.90115c0.68405,-0.58453 2.24366,-1.01047 4.25403,-1.20655c3.35299,-0.32704 6.69012,0.10913 7.81575,1.38437c1.12562,1.27524 -0.68,2.57414 -4.03299,2.90118c-3.35299,0.32704 -6.9836,-0.44163 -8.10923,-1.71687c-0.45073,-0.51064 -0.3844,-0.97175 0.07244,-1.36213z"/><path d="M162.3553,222.05463c1.42514,-0.139 4.34164,0.78647 4.27393,0.20151c-0.20872,-1.80326 3.38285,1.00276 4.12065,1.83862c1.28321,1.45377 -0.39466,2.8974 -3.74765,3.22444c-3.35299,0.32704 -7.11136,-0.58636 -8.39457,-2.04013c-1.28321,-1.45377 0.39465,-2.8974 3.74764,-3.22444z"/><path d="M159.07446,225.2837c3.72652,-0.36347 9.0731,-0.7027 11.07145,0.26545c0.46212,0.22389 -0.21882,1.17819 0.02219,1.45124c1.28321,1.45377 -1.85842,3.10036 -6.44671,3.54788c-4.5883,0.44753 -9.34809,-0.3682 -10.6313,-1.82197c-1.28321,-1.45377 1.39607,-2.99508 5.98437,-3.4426z"/><path d="M156.26698,228.91799c-1.28322,-1.45377 -0.4637,-2.81368 1.83045,-3.03744c2.29416,-0.22376 5.19418,0.77336 6.47739,2.22713c0.72919,0.8261 2.80545,1.24372 2.29193,1.81795c-0.39017,0.4363 -3.13187,1.12289 -4.12238,1.2195c-1.683,0.16416 -3.69209,-0.32875 -5.14968,-1.17697c-0.52928,-0.30802 -0.98586,-0.66289 -1.3277,-1.05016z"/><path d="M154.26339,223.34547c-0.26566,-0.30097 -0.06654,-0.69166 -0.11346,-1.03852c-0.09624,-0.71129 0.00176,-1.35809 1.5439,-1.50851c0.58969,-0.05752 1.64947,0.23322 2.35913,0.3194c2.0512,0.24907 3.91612,0.73514 4.51825,1.4173c0.81046,0.91817 -0.39232,1.84389 -2.68647,2.06765c-2.29415,0.22376 -4.81091,-0.33916 -5.62137,-1.25734z"/><path d="M150.21437,224.94414c-0.40372,-0.45739 0.22232,-0.78779 0.70378,-1.16121c0.48508,-0.37621 0.83134,-0.79415 1.98268,-0.90645c2.29415,-0.22376 4.81091,0.33916 5.62137,1.25734c0.81046,0.91817 -0.39232,1.84389 -2.68647,2.06765c-2.29416,0.22376 -4.81091,-0.33916 -5.62137,-1.25734z"/><path d="M148.68736,227.40798c-0.50943,-0.57715 -0.52647,-1.15299 -0.25555,-1.68056c0.25153,-0.48982 0.7269,-0.94396 1.89883,-1.17016c0.34622,-0.06683 1.68089,0.02639 2.07643,-0.01219c3.17651,-0.30983 6.66127,0.46961 7.78344,1.74093c1.12216,1.27131 -1.00872,3.44111 -4.18523,3.75093c-1.59508,0.15558 -2.44044,-0.79838 -3.73593,-1.33945c-1.28436,-0.53643 -3.02332,-0.65659 -3.58198,-1.28951z"/></g><g data-paper-data="{&quot;index&quot;:null}" fill="#573007"><path d="M303.07623,342.18221c0.70479,-0.11379 1.5247,0.13613 2.27526,0.65654c1.25182,0.86796 1.83667,2.15967 1.05487,3.22906c-0.7818,1.06939 -2.43037,1.23268 -3.68219,0.36471c-1.25182,-0.86797 -1.63283,-2.4385 -0.85103,-3.50789c0.31305,-0.42821 0.7324,-0.66642 1.20309,-0.74242z"/><path d="M304.71808,344.19694c0.53207,0.36892 0.57083,1.80354 1.05897,1.45372c1.50476,-1.0784 0.10632,1.62431 -0.40612,2.32525c-0.89125,1.2191 -2.62855,1.50376 -3.88037,0.63579c-1.25182,-0.86797 -1.54411,-2.55987 -0.65285,-3.77897c0.89125,-1.2191 2.62855,-1.50376 3.88037,-0.63579z"/><path d="M300.96846,344.98175c1.39127,0.96467 3.22921,2.45108 2.96587,3.6217c-0.0609,0.2707 -1.08571,0.59318 -1.25311,0.82215c-0.89125,1.2191 -3.22727,1.15865 -4.94028,-0.02909c-1.71301,-1.18775 -2.37918,-3.13888 -1.48792,-4.35798c0.89125,-1.2191 3.00243,-1.24453 4.71544,-0.05678z"/><path d="M297.0038,346.14264c0.89126,-1.2191 2.30809,-1.72595 3.1646,-1.13208c0.85651,0.59387 0.82834,2.06358 -0.06292,3.28268c-0.50645,0.69276 -0.26949,1.57857 -0.91611,1.74006c-0.4913,0.12271 -1.87869,-0.35156 -2.24849,-0.60797c-0.62834,-0.43566 -0.78057,-1.34269 -0.4652,-2.27634c0.11452,-0.33903 0.2907,-0.68158 0.52812,-1.00634z"/><path d="M301.26171,342.38398c0.18451,-0.25239 0.58107,-0.40939 0.86856,-0.61895c0.58954,-0.42974 1.17918,-0.76232 1.75493,-0.36312c0.22016,0.15265 0.27378,0.64837 0.40386,0.91936c0.376,0.78328 0.49254,1.64125 0.07433,2.2133c-0.5629,0.76996 -1.71355,0.9127 -2.57006,0.31883c-0.8565,-0.59387 -1.09452,-1.69947 -0.53162,-2.46943z"/><path d="M298.70533,342.012c0.2804,-0.38355 0.74789,-0.37278 1.21097,-0.43153c0.46654,-0.05918 0.92923,-0.18534 1.35908,0.1127c0.85651,0.59388 1.09452,1.69948 0.53162,2.46944c-0.5629,0.76996 -1.71355,0.9127 -2.57006,0.31883c-0.85651,-0.59387 -1.09452,-1.69947 -0.53162,-2.46943z"/><path d="M296.12613,342.91709c0.35383,-0.48399 0.84868,-0.81279 1.38476,-1.02417c0.49773,-0.19626 1.0291,-0.30226 1.56375,-0.06174c0.15795,0.07105 0.46236,0.54204 0.61003,0.64443c1.18593,0.82229 1.51549,2.35312 0.73609,3.41922c-0.77939,1.06609 -3.2777,1.61656 -4.46363,0.79428c-0.59551,-0.41291 -0.01164,-1.21393 0.08395,-1.92419c0.09478,-0.70417 -0.30296,-1.3171 0.08506,-1.84785z"/></g><g data-paper-data="{&quot;index&quot;:null}" fill="#4e2c06"><path d="M292.8646,330.63881c-0.12971,-0.55099 0.13406,-1.2833 0.69182,-2.02332c0.93028,-1.23424 2.32612,-2.02256 3.493,-1.63662c1.16688,0.38593 1.35869,1.69934 0.42841,2.93358c-0.93028,1.23424 -2.63036,1.92193 -3.79724,1.53599c-0.46725,-0.15453 -0.72936,-0.44165 -0.81599,-0.80963z"/><path d="M295.75944,331.84212c-1.33024,-0.43997 -1.65449,-1.79718 -0.72421,-3.03142c0.3954,-0.5246 1.95111,-0.89906 1.56733,-1.21595c-1.1831,-0.97686 1.76085,-0.47517 2.52569,-0.22221c1.33024,0.43996 1.6545,1.79717 0.72422,3.03141c-0.93028,1.23424 -2.76279,1.87812 -4.09303,1.43816z"/><path d="M296.02354,335.55402c-1.33024,-0.43996 -1.37665,-2.16579 -0.10364,-3.85476c1.03392,-1.37175 2.62976,-3.23452 3.90182,-3.29809c0.29417,-0.0147 0.65307,0.74898 0.90292,0.83162c1.33024,0.43996 1.28552,2.37076 0.01251,4.05972c-1.273,1.68897 -3.38336,2.70147 -4.7136,2.26151z"/><path d="M297.21444,334.67441c-1.33024,-0.43996 -1.89263,-1.48121 -1.25613,-2.32569c0.6365,-0.84449 2.23087,-1.1724 3.56111,-0.73244c0.7559,0.25001 1.71458,-0.15597 1.89552,0.33592c0.13747,0.37373 -0.36458,1.62516 -0.63939,1.98977c-0.46695,0.61951 -1.44939,0.96104 -2.46488,0.92532c-0.36875,-0.01298 -0.74186,-0.07569 -1.09623,-0.19289z"/><path d="M292.42053,331.51447c-0.47137,-0.38098 -0.83736,-0.78527 -0.4095,-1.35293c0.16361,-0.21707 0.70082,-0.37945 0.99359,-0.55089c0.84623,-0.49554 1.77579,-0.79607 2.39998,-0.58962c0.84016,0.27787 1.00525,1.18772 0.36875,2.0322c-0.6365,0.84448 -1.83357,1.3038 -2.67373,1.02593c-0.27539,-0.09108 -0.44923,-0.37891 -0.67909,-0.56469z"/><path d="M292.71896,334.26514c-0.41852,-0.13842 -0.41101,-0.5245 -0.47886,-0.89036c-0.06835,-0.36859 -0.20932,-0.71803 0.11012,-1.14184c0.6365,-0.84448 1.83356,-1.3038 2.67372,-1.02593c0.84016,0.27787 1.00525,1.18772 0.36875,2.0322c-0.6365,0.84449 -1.83357,1.30381 -2.67373,1.02594z"/><path d="M292.60041,335.27343c-0.2173,-0.36144 -0.337,-0.77204 -0.0809,-1.26808c0.07566,-0.14654 0.58381,-0.50876 0.69355,-0.65436c0.88132,-1.16927 2.53879,-1.80527 3.70208,-1.42052c1.16329,0.38474 1.78264,2.30276 0.90133,3.47204c-0.44255,0.58715 -1.31658,0.29949 -2.08782,0.39072c-0.76462,0.09044 -1.42588,0.56313 -2.00502,0.37158c-0.52811,-0.17467 -0.88917,-0.50209 -1.12322,-0.89138z"/></g><g data-paper-data="{&quot;index&quot;:null}" fill="#573007"><path d="M300.00682,311.66259c0.54085,0.43892 0.81808,1.04475 0.80338,1.67196c-0.02452,1.0461 -0.85184,1.75554 -2.3201,1.50354c-1.46826,-0.252 -2.63864,-1.30431 -2.61412,-2.3504c0.02452,-1.04609 1.23467,-1.68983 2.70293,-1.43783c0.58793,0.10091 1.0667,0.3196 1.42791,0.61273z"/><path d="M296.18155,310.83859c1.67382,0.28728 3.01084,1.36819 2.98632,2.41428c-0.01042,0.44462 -1.30721,0.82761 -0.68312,1.06411c1.92389,0.72906 -1.42962,0.47501 -2.392,0.30984c-1.67382,-0.28728 -3.01083,-1.36819 -2.98631,-2.41428c0.02452,-1.04609 1.4013,-1.66123 3.07512,-1.37395z"/><path d="M293.15531,307.85029c1.67382,0.28728 3.00352,1.68061 2.96996,3.11211c-0.02725,1.16263 -0.25848,2.75132 -1.49914,2.86827c-0.28691,0.02705 -1.21789,-0.57207 -1.53227,-0.62603c-1.67381,-0.28728 -3.06358,-1.85108 -3.03002,-3.28257c0.03356,-1.4315 1.41766,-2.35907 3.09148,-2.07179z"/><path d="M292.60337,308.623c1.67382,0.28728 3.01711,1.10039 3.00033,1.81614c-0.01679,0.71575 -1.38728,1.06309 -3.0611,0.77581c-0.95115,-0.16324 -1.62003,0.21447 -2.16881,-0.17401c-0.41696,-0.29517 -0.83877,-1.33309 -0.83153,-1.64212c0.01231,-0.52508 0.75317,-0.85189 1.80785,-0.87533c0.38299,-0.00851 0.80736,0.02298 1.25325,0.09951z"/><path d="M298.69835,310.50985c0.34652,0.05947 0.73644,0.28329 1.10725,0.4217c0.7604,0.28383 1.43144,0.59192 1.42016,1.07305c-0.00432,0.18397 -0.42752,0.34298 -0.59652,0.49671c-0.48847,0.44435 -1.20624,0.73528 -1.99166,0.60048c-1.05716,-0.18143 -1.90054,-0.90874 -1.88376,-1.62449c0.01678,-0.71575 0.88737,-1.14889 1.94452,-0.96745z"/><path d="M298.60559,309.41776c0.34316,0.29457 0.7456,0.56991 0.73718,0.92911c-0.01678,0.71575 -0.88737,1.14889 -1.94452,0.96745c-1.05716,-0.18144 -1.90054,-0.90875 -1.88376,-1.6245c0.01678,-0.71575 0.88737,-1.14889 1.94452,-0.96745c0.52661,0.09038 0.80596,0.403 1.14658,0.69539z"/><path d="M295.0299,307.23783c0.66451,0.11405 1.27341,0.36024 1.79971,0.66301c0.48865,0.28111 0.91502,0.607 1.02441,1.02136c0.03232,0.12241 -0.21294,0.44152 -0.21583,0.56493c-0.02323,0.99104 -1.22866,1.59077 -2.69241,1.33955c-1.46374,-0.25122 -3.51636,-1.77047 -3.49313,-2.7615c0.01167,-0.49765 1.11039,-0.31004 1.82343,-0.42355c0.70693,-0.11253 1.02511,-0.52887 1.75383,-0.4038z"/></g><g data-paper-data="{&quot;index&quot;:null}" fill="#573007"><path d="M335.6585,330.22298c0.97867,0.52977 1.57087,1.50346 1.69617,2.66739c0.209,1.94126 -0.95985,3.67664 -3.39339,3.97064c-2.43354,0.294 -4.57573,-1.04138 -4.78472,-2.98264c-0.20899,-1.94126 1.59436,-3.75329 4.0279,-4.04729c0.97445,-0.11773 1.80043,0.0381 2.45404,0.3919z"/><path d="M329.2786,330.68019c2.77423,-0.33516 5.19262,0.96684 5.40161,2.90811c0.08883,0.82511 -1.91658,2.20117 -0.85143,2.31475c3.28351,0.35012 -2.19826,1.61437 -3.79334,1.80707c-2.77423,0.33516 -5.19262,-0.96685 -5.40161,-2.90811c-0.20899,-1.94127 1.87055,-3.78667 4.64478,-4.12183z"/><path d="M323.67603,326.73441c2.77423,-0.33516 5.25503,1.54662 5.54102,4.20309c0.23228,2.15753 0.23607,5.20594 -1.74182,6.06254c-0.45739,0.19808 -2.10487,-0.42546 -2.62592,-0.36251c-2.77423,0.33516 -5.39265,-1.82986 -5.67864,-4.48632c-0.28599,-2.65647 1.73113,-5.08165 4.50536,-5.41681z"/><path d="M322.96737,328.44417c2.77423,-0.33516 5.13911,0.46988 5.2821,1.79812c0.14299,1.32824 -1.99005,2.67668 -4.76428,3.01184c-1.57644,0.19045 -2.56802,1.23238 -3.54752,0.79971c-0.74422,-0.32875 -1.67283,-2.02436 -1.73458,-2.59783c-0.1049,-0.9744 1.01511,-1.95969 2.71458,-2.5478c0.61712,-0.21356 1.31067,-0.37474 2.0497,-0.46403z"/><path d="M333.26917,328.77382c0.57435,-0.06939 1.25789,0.14179 1.89025,0.20538c1.29675,0.13041 2.4548,0.35172 2.55092,1.24456c0.03675,0.34141 -0.60961,0.8532 -0.84628,1.22394c-0.68406,1.07158 -1.77529,1.97879 -3.07705,2.13606c-1.75215,0.21168 -3.28846,-0.69346 -3.43145,-2.0217c-0.14299,-1.32824 1.16147,-2.57657 2.91362,-2.78825z"/><path d="M330.8408,326.11868c0.87281,-0.10545 1.39872,0.32657 2.01887,0.68964c0.62477,0.36578 1.34082,0.66548 1.41258,1.33206c0.14299,1.32824 -1.16148,2.57657 -2.91363,2.78825c-1.75215,0.21168 -3.28847,-0.69346 -3.43146,-2.0217c-0.14299,-1.32824 1.16148,-2.57658 2.91363,-2.78826z"/><path d="M326.56098,324.63674c1.10137,-0.13306 2.14426,0.00624 3.06706,0.29251c0.85678,0.2658 1.62352,0.64634 1.89885,1.35374c0.08135,0.20899 -0.2393,0.92401 -0.21465,1.15302c0.19799,1.83908 -1.6082,3.56758 -4.03425,3.86067c-2.42605,0.2931 -6.10547,-1.44732 -6.30346,-3.28641c-0.09941,-0.9235 1.72141,-1.14527 2.84715,-1.72294c1.1161,-0.57271 1.53152,-1.50466 2.73931,-1.65058z"/></g><g data-paper-data="{&quot;index&quot;:null}" fill="#573007"><path d="M317.59529,306.59372c0.3313,-0.62491 1.08666,-1.08027 2.06033,-1.2899c1.62393,-0.34963 3.24018,0.11667 3.78535,1.48001c0.54517,1.36334 -0.32933,2.75197 -1.95327,3.1016c-1.62393,0.34963 -3.38232,-0.47214 -3.92749,-1.83548c-0.2183,-0.54591 -0.18618,-1.03888 0.03508,-1.45623z"/><path d="M320.57319,306.7578c0.69023,-0.1486 2.10276,0.8408 2.06997,0.21543c-0.10109,-1.92783 1.6384,1.07203 1.99573,1.96564c0.62149,1.5542 -0.19114,3.09756 -1.81508,3.44719c-1.62394,0.34964 -3.4442,-0.62687 -4.06569,-2.18107c-0.62149,-1.5542 0.19113,-3.09756 1.81507,-3.44719z"/><path d="M316.08584,313.89035c-0.62149,-1.5542 0.67615,-3.20198 2.89837,-3.68042c1.80485,-0.38858 4.39432,-0.75124 5.36217,0.28379c0.22381,0.23936 -0.10599,1.25959 0.01074,1.5515c0.62149,1.5542 -0.90007,3.31454 -3.12229,3.79298c-2.22222,0.47844 -4.5275,-0.39364 -5.14899,-1.94784z"/><path d="M317.62449,314.09531c-0.62149,-1.5542 -0.22458,-3.00805 0.88653,-3.24727c1.11111,-0.23922 2.51566,0.82678 3.13715,2.38098c0.35316,0.88317 1.35874,1.32964 1.11003,1.94354c-0.18897,0.46644 -1.51684,1.20046 -1.99657,1.30374c-0.81512,0.17549 -1.78816,-0.35146 -2.49411,-1.25828c-0.25635,-0.3293 -0.47748,-0.70869 -0.64304,-1.12271z"/><path d="M316.59913,307.02753c-0.04661,-0.76043 0.00085,-1.45191 0.74775,-1.61272c0.2856,-0.06148 0.79887,0.24934 1.14258,0.34147c0.99345,0.26629 1.89667,0.78593 2.1883,1.51522c0.39252,0.9816 -0.19001,1.97127 -1.30112,2.21049c-1.11111,0.23922 -2.33004,-0.36259 -2.72256,-1.3442c-0.12866,-0.32176 -0.03222,-0.73944 -0.05495,-1.11026z"/><path d="M314.69304,309.84691c-0.19553,-0.48897 0.10768,-0.8422 0.34086,-1.24142c0.23493,-0.40219 0.40264,-0.84902 0.96026,-0.96907c1.11112,-0.23922 2.33005,0.36259 2.72257,1.3442c0.39253,0.9816 -0.19001,1.97127 -1.30112,2.21049c-1.11111,0.23922 -2.33004,-0.36259 -2.72256,-1.3442z"/><path d="M313.9535,312.48096c-0.24673,-0.61702 -0.25498,-1.23264 -0.12377,-1.79666c0.12182,-0.52366 0.35206,-1.00917 0.91965,-1.251c0.16768,-0.07144 0.81409,0.02822 1.00566,-0.01303c1.53846,-0.33123 3.22621,0.50205 3.7697,1.8612c0.54348,1.35914 -0.48855,3.67883 -2.02701,4.01006c-0.77254,0.16633 -1.18197,-0.85353 -1.8094,-1.43198c-0.62205,-0.57349 -1.46427,-0.70195 -1.73484,-1.37859z"/></g><g data-paper-data="{&quot;index&quot;:null}" fill="#573007"><path d="M270.40135,336.55477c-0.23215,-0.16882 -0.34706,-0.38089 -0.36415,-0.61088c-0.02559,-0.34437 0.16815,-0.72895 0.51599,-1.06875c0.58015,-0.56673 1.36928,-0.7943 1.94906,-0.37268c0.57978,0.42162 0.57948,1.22283 -0.00067,1.78957c-0.58014,0.56674 -1.52044,0.68437 -2.10022,0.26275z"/><path d="M271.45672,337.13383c-0.66095,-0.48065 -0.72645,-1.32971 -0.1463,-1.89645c0.24658,-0.24088 1.08755,-0.19931 0.91139,-0.44921c-0.54304,-0.77035 0.95579,0.01699 1.33581,0.29334c0.66095,0.48064 0.72645,1.3297 0.1463,1.89644c-0.58014,0.56674 -1.58625,0.63652 -2.24719,0.15588z"/><path d="M271.31074,339.35158c-0.66094,-0.48064 -0.55318,-1.49897 0.24071,-2.2745c0.64477,-0.62987 1.62053,-1.45306 2.2896,-1.27701c0.15472,0.04071 0.28372,0.54806 0.40786,0.63833c0.66094,0.48064 0.48991,1.60371 -0.30398,2.37924c-0.79389,0.77553 -1.97326,1.01458 -2.6342,0.53394z"/><path d="M271.52183,337.4638c0.39694,-0.38777 1.25453,-0.31247 1.91547,0.16817c0.37558,0.27312 0.90721,0.19615 0.96406,0.5145c0.04319,0.24189 -0.31467,0.89048 -0.48605,1.0579c-0.2912,0.28446 -0.83031,0.31973 -1.35782,0.12856c-0.19155,-0.06942 -0.38158,-0.1687 -0.55765,-0.29674c-0.66094,-0.48064 -0.87495,-1.18462 -0.47801,-1.57239z"/><path d="M270.04977,336.82669c-0.13683,-0.09951 -0.20559,-0.29719 -0.3114,-0.44451c-0.21699,-0.30212 -0.37718,-0.6002 -0.11035,-0.86086c0.10203,-0.09967 0.39495,-0.10469 0.56094,-0.15599c0.47976,-0.14828 0.98812,-0.1684 1.29826,0.05713c0.41744,0.30357 0.43405,0.864 0.03711,1.25177c-0.39695,0.38777 -1.05713,0.45603 -1.47457,0.15246z"/><path d="M269.68381,338.04287c-0.20794,-0.15122 -0.17449,-0.37603 -0.18194,-0.60163c-0.0075,-0.22729 -0.05438,-0.45554 0.14483,-0.65014c0.39694,-0.38777 1.05713,-0.45603 1.47457,-0.15246c0.41744,0.30356 0.43405,0.86399 0.03711,1.25176c-0.39695,0.38777 -1.05713,0.45603 -1.47457,0.15246z"/><path d="M269.5448,338.61338c-0.08582,-0.24807 -0.11693,-0.50856 0.05474,-0.75608c0.05071,-0.07313 0.34374,-0.20002 0.41218,-0.26688c0.54961,-0.53691 1.46372,-0.63142 2.04171,-0.2111c0.57799,0.42032 0.75469,1.64725 0.20508,2.18415c-0.27599,0.26961 -0.71037,-0.04537 -1.12005,-0.12126c-0.40617,-0.07523 -0.7876,0.09067 -1.07535,-0.11858c-0.26239,-0.19081 -0.42587,-0.44306 -0.51831,-0.71025z"/></g></g></g></svg>