<svg version="1.1" xmlns="http://www.w3.org/2000/svg" xmlns:xlink="http://www.w3.org/1999/xlink" width="192.9039" height="312.60507" viewBox="0,0,192.9039,312.60507"><g transform="translate(-135.89218,-17.70835)"><g data-paper-data="{&quot;isPaintingLayer&quot;:true}" fill-rule="nonzero" stroke="none" stroke-width="0" stroke-linecap="butt" stroke-linejoin="miter" stroke-miterlimit="10" stroke-dasharray="" stroke-dashoffset="0" style="mix-blend-mode: normal"><path d="M299.12063,43.27467c-4.08114,-1.7133 -7.66187,-8.89042 -7.66187,-8.89042l-5.56731,8.6758c0,0 1.29766,-25.61264 4.32023,-22.05545c1.40929,1.65855 3.96185,8.54924 6.47518,7.20852c2.39884,-1.27964 4.74532,-10.77213 6.70924,-10.18599c0.99302,0.29637 0.41375,14.47709 2.17753,10.93452c2.93022,-5.88537 6.14458,-13.44747 7.05301,-10.65477c2.9205,8.97815 3.84595,15.33366 6.10707,14.84336c4.36399,-0.94627 10.06237,3.89825 10.06237,3.89825l-10.65051,8.53917c0,0 -3.31607,-10.98449 -6.42329,-11.18095c-4.56226,-0.28844 -9.79335,10.0469 -12.60165,8.86794z" data-paper-data="{&quot;index&quot;:null}" fill="#f9f4d6"/><path d="M168.11898,327.48078c-3.04975,1.44382 -8.73059,-11.21354 -13.68508,-10.86029c-3.37436,0.24059 -6.97553,13.69293 -6.97553,13.69293l-11.56619,-10.45765c0,0 6.1883,-5.9329 10.92748,-4.77404c2.45552,0.60044 3.46053,-7.18292 6.63213,-18.17817c1.58036,-5.4788 9.58685,21.58445 12.45683,20.61853c4.36734,-1.46988 8.89407,-13.34493 11.88525,-17.31473c3.28244,-4.35637 4.69166,27.0106 4.69166,27.0106l-6.04596,-10.62496c0,0 -3.88858,8.78958 -8.32059,10.88781z" data-paper-data="{&quot;index&quot;:null}" fill="#f9f4d6"/><path d="M240.49053,211.54853c-3.85728,-1.00975 -7.24161,-5.23964 -7.24161,-5.23964l-5.26195,5.11314c0,0 1.22647,-15.095 4.08327,-12.99854c2.60329,1.91042 6.54302,7.62515 10.34402,8.33252c2.49781,0.46484 9.46605,-12.55904 10.84148,-9.92244c2.76031,5.29134 3.635,9.03699 5.7721,8.74804c4.12463,-0.55769 9.51045,2.29745 9.51045,2.29745l-10.06633,5.03262c0,0 -3.13419,-6.47379 -6.07097,-6.58957c-4.31201,-0.17 -9.25618,5.92122 -11.91045,5.2264z" data-paper-data="{&quot;index&quot;:null}" fill="#f9f4d6"/><path d="M158.53223,128.17964c-4.33288,-2.02375 -8.1345,-10.50133 -8.1345,-10.50133l-5.91075,10.2478c0,0 1.37769,-30.25352 4.58674,-26.05178c2.92428,3.82888 7.34978,15.28239 11.61944,16.7001c2.80579,0.93164 10.63322,-25.17093 12.17824,-19.88663c3.10066,10.60495 4.0832,18.11201 6.4838,17.53289c4.6332,-1.11773 10.68309,4.60457 10.68309,4.60457l-11.30751,10.08642c0,0 -3.52064,-12.97482 -6.81952,-13.20687c-4.84368,-0.34072 -10.39747,11.86736 -13.37902,10.47479z" data-paper-data="{&quot;index&quot;:null}" fill="#f9f4d6"/></g></g></svg>