<svg version="1.1" xmlns="http://www.w3.org/2000/svg" xmlns:xlink="http://www.w3.org/1999/xlink" width="89.98028" height="76.13716" viewBox="0,0,89.98028,76.13716"><g transform="translate(-199.76062,-62.62254)"><g data-paper-data="{&quot;isPaintingLayer&quot;:true}" fill-rule="nonzero" stroke-linejoin="miter" stroke-miterlimit="10" stroke-dasharray="" stroke-dashoffset="0" style="mix-blend-mode: normal"><g><path d="M199.76062,138.7597v-76.13716h89.98028v76.13716z" fill="none" stroke="none" stroke-width="NaN" stroke-linecap="butt"/><path d="M244.59531,125.32028c0,0 0.02404,-6.24854 0.0374,-9.72211c0.01543,-4.01143 0.04988,-12.966 0.04988,-12.966" fill="none" stroke="#52a9b7" stroke-width="0.5" stroke-linecap="round"/><path d="M235.81083,102.91407v-6.34901c0,0 2.83178,-2.15464 4.36709,-2.15464c1.57589,0 4.96968,2.15464 4.96968,2.15464v6.34901c0,0 -0.66305,-0.08789 -1.11253,-0.38537c-0.49177,-0.32547 -0.2839,-0.84234 -0.90154,-1.23387c-0.7018,-0.44488 -2.23386,-0.74605 -2.84105,-0.74605c-0.55355,0 -1.62211,0.31336 -2.35588,0.88357c-0.63,0.4896 -0.93142,1.21763 -1.38274,1.53847c-0.41374,0.29414 -0.74304,-0.05675 -0.74304,-0.05675z" fill="#633817" stroke="none" stroke-width="0" stroke-linecap="butt"/><path d="M253.23942,102.7896v-6.34901c0,0 2.77315,-1.67585 4.23541,-1.67585c1.48369,0 4.6034,1.67585 4.6034,1.67585v6.34901c0,0 -0.6277,-0.08789 -1.05321,-0.38537c-0.46554,-0.32547 -0.26875,-0.84234 -0.85345,-1.23387c-0.66438,-0.44488 -2.11472,-0.74605 -2.68952,-0.74605c-0.52401,0 -1.53559,0.31335 -2.23022,0.88356c-0.59641,0.4896 -0.88173,1.21763 -1.30899,1.53847c-0.39168,0.29414 -0.7034,-0.05673 -0.7034,-0.05673z" fill="#633817" stroke="none" stroke-width="0" stroke-linecap="butt"/><path d="M218.69824,103.03796l25.38945,21.31009" fill="none" stroke="#52a9b7" stroke-width="0.5" stroke-linecap="round"/><path d="M244.04471,124.365l-16.75417,-21.54977" fill="none" stroke="#52a9b7" stroke-width="0.5" stroke-linecap="round"/><path d="M244.47574,123.97697c0,0 -1.6118,-4.08036 -2.65981,-6.73344c-1.5145,-3.83405 -5.55475,-14.06215 -5.55475,-14.06215" fill="none" stroke="#52a9b7" stroke-width="0.5" stroke-linecap="round"/><path d="M253.69774,102.92507l-9.48782,21.33914" fill="none" stroke="#52a9b7" stroke-width="0.5" stroke-linecap="round"/><path d="M245.25554,124.17102l16.45289,-21.35155" fill="none" stroke="#52a9b7" stroke-width="0.5" stroke-linecap="round"/><path d="M218.38215,103.16308v-6.34901c0,0 2.77725,-3.89032 4.25934,-3.89032c1.61819,0 5.07743,3.89032 5.07743,3.89032v6.34901c0,0 -0.66304,-0.08789 -1.11251,-0.38537c-0.49177,-0.32547 -0.2839,-0.84234 -0.90154,-1.23387c-0.7018,-0.44488 -2.23385,-0.74605 -2.84103,-0.74605c-0.55355,0 -1.62211,0.31336 -2.35588,0.88357c-0.63,0.4896 -0.93142,1.21763 -1.38274,1.53847c-0.41374,0.29414 -0.74303,-0.05673 -0.74303,-0.05673z" fill="#633817" stroke="none" stroke-width="0" stroke-linecap="butt"/><path d="M235.90659,96.69437l0.13532,-5.23339c0,0 2.70724,-1.61598 4.07618,-1.61598c1.52495,0 4.65606,1.61598 4.65606,1.61598v5.35309c0,0 -3.09254,-0.89777 -4.65606,-0.89777c-1.62904,0 -4.21148,0.77808 -4.21148,0.77808z" fill="#ffffff" stroke="none" stroke-width="0" stroke-linecap="butt"/><path d="M246.52054,124.2741l23.60929,-21.36733" fill="none" stroke="#52a9b7" stroke-width="0.5" stroke-linecap="round"/><path d="M227.15875,102.97634v-6.34901c0,0 2.98055,-3.95017 4.46046,-3.95017c1.46623,0 4.37837,3.95017 4.37837,3.95017v6.34901c0,0 -0.62769,-0.08789 -1.05318,-0.38538c-0.46554,-0.32547 -0.26876,-0.84234 -0.85345,-1.23388c-0.66438,-0.44488 -2.11473,-0.74606 -2.68952,-0.74606c-0.52402,0 -1.53559,0.31336 -2.23022,0.88357c-0.59641,0.4896 -0.88173,1.21763 -1.30899,1.53848c-0.39168,0.29414 -0.7034,-0.05673 -0.7034,-0.05673z" fill="#4d2c12" stroke="none" stroke-width="0" stroke-linecap="butt"/><path d="M227.47029,102.72188c0,0 0.38985,0.03597 0.77516,-0.30886c0.2043,-0.18284 0.45109,-0.54087 0.72799,-0.73219c0.72034,-0.49771 1.92502,-0.84337 2.48177,-0.84337c0.61837,0 1.85362,0.30254 2.60665,0.84245c0.35802,0.2567 0.59919,0.55702 0.75065,0.79269c0.07078,0.11013 0.6844,0.45407 1.09515,0.5128c0.46354,0.06627 0.72548,-0.15976 0.72548,-0.15976" fill="none" stroke="#4d2c12" stroke-width="0.5" stroke-linecap="round"/><path d="M244.77411,102.97395v-6.34901c0,0 1.88721,-2.45389 3.36398,-2.45389c1.46947,0 5.47484,2.45389 5.47484,2.45389v6.34901c0,0 -0.62769,-0.08789 -1.05321,-0.38537c-0.46553,-0.32547 -0.26875,-0.84234 -0.85345,-1.23387c-0.66437,-0.44488 -2.11474,-0.74605 -2.68955,-0.74605c-0.52402,0 -1.53561,0.31336 -2.23023,0.88357c-0.59641,0.4896 -0.88174,1.21763 -1.30901,1.53848c-0.39168,0.29414 -0.7034,-0.05673 -0.7034,-0.05673z" fill="#4d2c12" stroke="none" stroke-width="0" stroke-linecap="butt"/><path d="M261.82927,102.85185v-6.34901c0,0 3.50282,-2.39404 5.04222,-2.39404c1.39202,0 3.79659,2.39404 3.79659,2.39404v6.34901c0,0 -0.6277,-0.08789 -1.05321,-0.38538c-0.46553,-0.32547 -0.26876,-0.84233 -0.85345,-1.23386c-0.66435,-0.44488 -2.11472,-0.74606 -2.68952,-0.74606c-0.52401,0 -1.53559,0.31336 -2.23023,0.88357c-0.59641,0.4896 -0.88175,1.21762 -1.30901,1.53847c-0.39168,0.29414 -0.7034,-0.05673 -0.7034,-0.05673z" fill="#4d2c12" stroke="none" stroke-width="0" stroke-linecap="butt"/><path d="M245.56132,102.62852c0,0 0.28911,-0.64455 1.08817,-1.19667c0.72034,-0.49771 1.92505,-0.72194 2.48178,-0.72194c0.61837,0 1.85361,0.18111 2.60662,0.72102c0.3352,0.24035 0.56795,0.5189 0.72059,0.74685c0.06721,0.10036 0.35962,0.50218 0.62827,0.57534c0.42107,0.11468 0.85935,-0.1246 0.85935,-0.1246" fill="none" stroke="#4d2c12" stroke-width="0.5" stroke-linecap="round"/><path d="M261.93144,96.86594l-0.29925,-5.35308c0,0 2.39108,-2.51376 3.80289,-2.51376c1.34443,0 4.47572,2.51376 4.47572,2.51376l0.80919,5.35308c0,0 -2.70477,-1.07733 -4.14772,-1.07733c-1.57477,0 -4.64081,1.07733 -4.64081,1.07733z" data-paper-data="{&quot;index&quot;:null}" fill="#d3d9e3" stroke="none" stroke-width="0" stroke-linecap="butt"/><path d="M253.1485,96.75424l0.07548,-5.29324c0,0 2.50025,-1.67584 3.89182,-1.67584c1.50957,0 4.84042,1.67584 4.84042,1.67584v5.35308c0,0 -2.67446,-1.13717 -4.18204,-1.13717c-1.67086,0 -4.62566,1.07732 -4.62566,1.07732z" fill="#ffffff" stroke="none" stroke-width="0" stroke-linecap="butt"/><path d="M253.96443,102.62852c0,0 0.28911,-0.64455 1.08817,-1.19667c0.72034,-0.49771 1.86431,-0.84338 2.42106,-0.84338c0.61837,0 1.91433,0.30255 2.66734,0.84246c0.71416,0.51205 0.96332,1.19759 0.96332,1.19759" fill="none" stroke="#633817" stroke-width="0.5" stroke-linecap="round"/><path d="M244.61369,96.81409l-0.04424,-5.35308c0,0 2.66051,-1.91523 4.04743,-1.91523c1.51286,0 4.68479,1.91524 4.68479,1.91524v5.35308c0,0 -2.90981,-0.95762 -4.44538,-0.95762c-1.65126,0 -4.2426,0.95762 -4.2426,0.95762z" fill="#d3d9e3" stroke="none" stroke-width="0" stroke-linecap="butt"/><path d="M261.22635,102.80487c0,0 0.43043,0.09536 0.85982,0.00431c0.37879,-0.08034 0.75677,-0.34026 0.83769,-0.44837c0.1722,-0.23005 0.44405,-0.52878 0.84307,-0.8045c0.72033,-0.49771 1.86432,-0.90408 2.42106,-0.90408c0.61837,0 1.91433,0.36325 2.66734,0.90316c0.71416,0.51205 1.53388,1.35322 1.53388,1.35322" fill="none" stroke="#4d2c12" stroke-width="0.5" stroke-linecap="round"/><path d="M227.37178,96.75424l-0.04424,-5.29324c0,0 2.91552,-1.37656 4.29161,-1.37656c1.52026,0 4.44061,1.37656 4.44061,1.37656v5.35308c0,0 -2.8095,-1.13717 -4.32089,-1.13717c-1.66833,0 -4.36709,1.07732 -4.36709,1.07732z" fill="#d3d9e3" stroke="none" stroke-width="0" stroke-linecap="butt"/><path d="M218.31989,96.75424l0.80919,-5.35308c0,0 2.38512,-1.43642 3.63211,-1.43642c1.47432,0 4.6465,1.43642 4.6465,1.43642l-0.05985,5.35308c0,0 -2.99544,-0.95761 -4.52678,-0.95761c-1.49714,0 -4.50116,0.95761 -4.50116,0.95761z" fill="#ffffff" stroke="none" stroke-width="0" stroke-linecap="butt"/><path d="M218.64029,103.17836c0,0 1.06718,-1.05952 1.86624,-1.61164c0.72034,-0.49771 1.92504,-0.72194 2.48177,-0.72194c0.61837,0 1.85361,0.18111 2.60662,0.72101c0.36664,0.26287 0.61071,0.57149 0.76145,0.80959c0.06975,0.11018 0.42855,0.36087 0.77756,0.42932c0.36591,0.07177 0.72108,-0.0413 0.72108,-0.0413" fill="none" stroke="#633817" stroke-width="0.5" stroke-linecap="round"/><g stroke="none" stroke-width="0" stroke-linecap="butt"><path d="M261.67154,91.48811l-1.45239,-3.42348c0,0 1.23328,-3.25637 2.57769,-3.23891c1.31778,0.01712 5.41044,3.34264 5.41044,3.34264l1.71174,3.31973c0,0 -2.85997,-0.83791 -4.24455,-0.83791c-1.36427,0 -4.00292,0.83791 -4.00292,0.83791z" data-paper-data="{&quot;index&quot;:null}" fill="#4d2c12"/><path d="M253.26843,91.4362l-0.7262,-3.26786c0,0 1.64784,-4.48884 3.19694,-4.48884c1.41213,0 5.72487,4.48884 5.72487,4.48884l0.57059,3.31973c0,0 -3.14798,-0.7379 -4.67945,-0.74696c-1.37331,-0.00812 -4.08674,0.69509 -4.08674,0.69509z" data-paper-data="{&quot;index&quot;:null}" fill="#633817"/><path d="M244.70975,91.4362c0,0 -1.26245,-0.59048 -1.26695,-0.87438c-0.00918,-0.5781 1.21507,-2.3935 1.21507,-2.3935c0,0 2.0254,-2.99256 3.36054,-2.99256c1.40994,0 4.88694,2.99256 4.88694,2.99256l0.57059,3.31973c0,0 -2.99357,-0.6796 -4.55975,-0.68888c-1.30982,-0.00775 -4.20645,0.63701 -4.20645,0.63701z" data-paper-data="{&quot;index&quot;:null}" fill="#4d2c12"/><path d="M235.87168,91.4203l-0.23942,-3.2519c0,0 2.92532,-3.83048 4.48575,-3.83048c1.4585,0 4.59168,3.83048 4.59168,3.83048v3.37162c0,0 -2.88262,-0.65836 -4.35228,-0.65836c-1.55169,0 -4.48574,0.53866 -4.48574,0.53866z" fill="#633817"/><path d="M227.17736,91.53996l1.71174,-3.31973c0,0 2.15047,-2.99256 3.20893,-2.99256c1.27116,0 3.89741,2.99256 3.89741,2.99256l-0.05187,3.26786c0,0 -2.72505,-0.7021 -4.14415,-0.69369c-1.49867,0.00887 -4.62206,0.74558 -4.62206,0.74558z" fill="#4d2c12"/><path d="M219.13733,91.48811l1.71174,-3.31974c0,0 4.00195,-4.12974 5.32366,-4.12974c1.42036,0 2.92384,4.12974 2.92384,4.12974l-1.71174,3.31974c0,0 -2.73842,-0.71822 -4.14479,-0.71822c-1.33954,0 -4.10269,0.71822 -4.10269,0.71822z" fill="#633817"/></g><path d="M236.7225,102.753c0,0 0.28911,-0.64455 1.08817,-1.19668c0.72034,-0.49771 1.92505,-0.90409 2.48178,-0.90409c0.61837,0 2.03575,0.30254 2.78877,0.84245c0.32702,0.23448 0.61726,0.50534 0.77,0.73011c0.09369,0.13787 0.33349,0.55061 0.77682,0.6079c0.41223,0.05327 0.79047,-0.18341 0.79047,-0.18341" fill="none" stroke="#633817" stroke-width="0.5" stroke-linecap="round"/><path d="M252.96671,88.14411l-0.48107,-5.30171c0,0 0.21112,-1.616 1.27844,-1.616c1.45581,0 6.65854,1.616 6.65854,1.616l0.89777,5.36156c0,0 -3.76537,-0.83791 -5.22212,-0.83791c-1.44747,0 -3.13158,0.77806 -3.13158,0.77806z" fill="#ffffff" stroke="none" stroke-width="0" stroke-linecap="butt"/><path d="M244.56722,88.14411l-0.00227,-5.24187c0,0 1.53819,-1.7357 2.85492,-1.7357c1.32882,0 5.08205,1.7357 5.08205,1.7357l0.56659,5.3017c0,0 -2.83169,-0.71822 -4.45161,-0.71822c-1.6128,0 -4.04967,0.65837 -4.04967,0.65837z" fill="#d3d9e3" stroke="none" stroke-width="0" stroke-linecap="butt"/><path d="M236.03818,88.14411l0.77579,-5.30171c0,0 2.60135,-1.67584 3.90257,-1.67584c1.34312,0 4.0344,1.67584 4.0344,1.67584v5.30171c0,0 -2.97664,-0.77806 -4.39351,-0.77806c-1.48425,0 -4.31926,0.77806 -4.31926,0.77806z" fill="#ffffff" stroke="none" stroke-width="0" stroke-linecap="butt"/><path d="M220.70597,88.20391l3.43278,-5.3017c0,0 2.58834,-1.89362 3.64988,-1.91762c1.45742,-0.03296 4.28975,1.73807 4.28975,1.73807l-3.11226,5.48126c0,0 -2.83692,-0.77806 -4.22982,-0.77806c-1.35967,0 -4.03033,0.77806 -4.03033,0.77806z" fill="#ffffff" stroke="none" stroke-width="0" stroke-linecap="butt"/><path d="M228.90353,88.26377l1.67355,-5.4214c0,0 2.97365,-1.96083 3.85545,-1.95233c1.12531,0.01086 2.34584,2.01217 2.34584,2.01217l-0.67431,5.3017c0,0 -2.46057,-0.71822 -3.76668,-0.71822c-1.3703,0 -3.43386,0.77806 -3.43386,0.77806z" fill="#d3d9e3" stroke="none" stroke-width="0" stroke-linecap="butt"/><path d="M261.33058,88.19544l-2.55364,-5.24185c0,0 0.12245,-2.0948 1.15178,-2.0948c0.93349,0 4.76487,2.0948 4.76487,2.0948l3.64027,5.30171c0,0 -2.64792,-1.01747 -3.91629,-1.01747c-1.45841,0 -3.08698,0.95761 -3.08698,0.95761z" data-paper-data="{&quot;index&quot;:null}" fill="#d3d9e3" stroke="none" stroke-width="0" stroke-linecap="butt"/><g stroke="none" stroke-width="0" stroke-linecap="butt"><path d="M258.76692,82.81769l-1.87686,-3.36364c0,0 1.08295,-0.80405 1.96457,-0.7869c0.8965,0.01743 3.37056,0.89064 3.37056,0.89064l2.40297,3.31975c0,0 -2.46021,-0.71822 -3.56226,-0.71822c-1.091,0 -2.29898,0.65837 -2.29898,0.65837z" data-paper-data="{&quot;index&quot;:null}" fill="#4d2c12"/><path d="M252.36262,82.88553l-1.59679,-3.32772c0,0 1.56443,-1.37656 2.63918,-1.37656c1.1066,0 3.90762,1.37656 3.90762,1.37656l1.62428,3.31975c0,0 -3.09134,-0.61655 -4.27643,-0.62535c-1.14461,-0.0085 -2.29788,0.63331 -2.29788,0.63331z" data-paper-data="{&quot;index&quot;:null}" fill="#633817"/><path d="M244.51741,82.82565l-0.04139,-3.26788c0,0 2.21143,-1.37656 3.36283,-1.37656c1.02767,0 3.21662,1.37656 3.21662,1.37656l1.2931,3.43945c0,0 -3.149,-0.85374 -4.27129,-0.86206c-1.20315,-0.00892 -3.55986,0.69048 -3.55986,0.69048z" data-paper-data="{&quot;index&quot;:null}" fill="#4d2c12"/><path d="M236.91672,82.92938l0.35911,-3.37162c0,0 2.711,-1.19701 3.97934,-1.19701c1.12932,0 3.26219,1.19701 3.26219,1.19701v3.37162c0,0 -2.45486,-0.53867 -3.68115,-0.53867c-1.18623,0 -3.91951,0.53867 -3.91951,0.53867z" fill="#633817"/><path d="M230.53085,82.92938l1.36554,-3.31974c0,0 2.04271,-1.43643 2.89486,-1.43643c1.01046,0 2.77424,1.43643 2.77424,1.43643l-0.58004,3.32772c0,0 -1.75053,-0.75841 -2.97134,-0.74935c-1.09701,0.00814 -3.48326,0.74138 -3.48326,0.74138z" fill="#4d2c12"/><path d="M224.11696,82.8775l2.73813,-3.31974c0,0 3.05363,-1.67584 3.92617,-1.67584c0.92037,0 1.28067,1.67584 1.28067,1.67584l-1.36554,3.31974c0,0 -2.06023,-0.5985 -3.20695,-0.5985c-1.03495,0 -3.37251,0.5985 -3.37251,0.5985z" fill="#633817"/></g><path d="M251.13717,79.66816l-1.92889,-2.87869l7.30013,-0.05985l1.02944,2.9984c0,0 -1.98462,-0.71822 -3.35482,-0.71822c-1.43838,0 -3.04586,0.65836 -3.04586,0.65836z" fill="#ffffff" stroke="none" stroke-width="0" stroke-linecap="butt"/><path d="M244.62735,79.66816l-0.25308,-2.93854h5.02579l1.88015,2.93854c0,0 -2.60966,-0.53866 -3.8604,-0.53866c-1.18253,0 -2.79249,0.53866 -2.79249,0.53866z" fill="#d3d9e3" stroke="none" stroke-width="0" stroke-linecap="butt"/><path d="M237.58719,79.78783l1.12351,-3.05825l5.56446,0.05985l0.41896,2.87868c0,0 -2.58588,-0.53865 -3.73815,-0.53865c-1.02136,0 -3.36878,0.65837 -3.36878,0.65837z" fill="#ffffff" stroke="none" stroke-width="0" stroke-linecap="butt"/><path d="M226.56742,79.66816l4.81831,-2.93854l5.47862,-0.41895l-4.66838,3.3575c0,0 -1.36953,-0.71822 -2.43214,-0.71822c-1.01046,0 -3.1964,0.71822 -3.1964,0.71822z" fill="#ffffff" stroke="none" stroke-width="0" stroke-linecap="butt"/><path d="M232.27123,79.60825l3.24222,-3.05825l3.64923,0.17955l-1.52581,2.9984c0,0 -1.40245,-0.65837 -2.54629,-0.65837c-1.31814,0 -2.81935,0.53865 -2.81935,0.53865z" fill="#d3d9e3" stroke="none" stroke-width="0" stroke-linecap="butt"/><path d="M257.4464,79.69657l-4.5128,-3.05825l3.88978,0.1197l5.64905,2.93855c0,0 -2.46999,-0.35911 -3.38164,-0.35911c-0.75323,0 -1.6444,0.35911 -1.6444,0.35911z" data-paper-data="{&quot;index&quot;:null}" fill="#d3d9e3" stroke="none" stroke-width="0" stroke-linecap="butt"/><g stroke="none" stroke-width="0" stroke-linecap="butt"><path d="M252.58926,76.72469l-1.91552,-2.11283l1.66691,0.06402l4.3513,2.04882z" data-paper-data="{&quot;index&quot;:null}" fill="#4d2c12"/><path d="M248.46101,76.69273l-0.36125,-2.01679h2.78555l1.9364,2.04882z" data-paper-data="{&quot;index&quot;:null}" fill="#633817"/><path d="M244.15166,76.69273l-0.02581,-2.01679h4.10267l0.85442,2.04882z" data-paper-data="{&quot;index&quot;:null}" fill="#4d2c12"/><path d="M238.75432,76.75678l0.88182,-2.08083h4.51553v2.08083z" fill="#633817"/><path d="M235.4302,76.75678l1.73331,-2.0488h2.65322l-0.59638,2.01679z" fill="#633817"/><path d="M231.43073,76.72469l4.5002,-2.04882h1.85451l-2.25203,2.04882z" fill="#633817"/></g><g stroke="none" stroke-width="0" stroke-linecap="butt"><path d="M246.61958,74.70698l0.26295,-1.0328h2.69003l0.83954,1.0328z" fill="#ffffff"/><path d="M243.93507,74.70698l0.26294,-1.0328h2.69003l0.33402,1.0328z" fill="#d3d9e3"/><path d="M241.30808,74.70698l0.26294,-1.0328h2.69003v1.0328z" fill="#ffffff"/><path d="M236.11163,74.70698l2.16622,-1.0328h0.63333v1.0328z" fill="#ffffff"/><path d="M237.9764,74.70698l0.89258,-1.0328h2.69003l-0.22853,1.0328z" fill="#d3d9e3"/><path d="M249.96735,74.71695l-0.95253,-1.03282h0.69935l2.5397,1.03282z" data-paper-data="{&quot;index&quot;:null}" fill="#d3d9e3"/></g></g></g></g></svg>