<svg version="1.1" xmlns="http://www.w3.org/2000/svg" xmlns:xlink="http://www.w3.org/1999/xlink" width="246.5003" height="342.4159" viewBox="0,0,246.5003,342.4159"><g transform="translate(-112.54216,-7.89803)"><g data-paper-data="{&quot;isPaintingLayer&quot;:true}" fill-rule="nonzero" stroke="none" stroke-width="0" stroke-linecap="butt" stroke-linejoin="miter" stroke-miterlimit="10" stroke-dasharray="" stroke-dashoffset="0" style="mix-blend-mode: normal"><g fill="#573007"><path d="M157.01666,142.16749c0,2.30119 -2.12664,4.16667 -4.75,4.16667c-2.62336,0 -4.75,-1.86548 -4.75,-4.16667c0,-2.30119 2.12664,-3.56667 4.75,-3.56667c1.5729,0 2.96724,0.45494 3.83169,1.31527c0.57732,0.57457 0.91831,1.32995 0.91831,2.2514z"/><path d="M156.51666,145.91749c0,2.62335 -2.12664,4.75 -4.75,4.75c-2.62336,0 -4.75,-2.12665 -4.75,-4.75c0,-1.50833 0.80304,-6.75247 1.7993,-3.72259c0.32318,0.98287 1.83568,-1.02741 2.9507,-1.02741c2.62336,0 4.75,2.12665 4.75,4.75z"/><path d="M162.68333,150.75081c0,2.62335 -2.91014,4.75 -6.5,4.75c-3.58985,0 -6.9,-2.22665 -6.9,-4.85c0,-0.49272 -1.09734,-1.96792 -0.9068,-2.41479c0.82395,-1.9324 4.89119,-2.23521 7.8068,-2.23521c3.58986,0 6.5,2.12665 6.5,4.75z"/><path d="M160.51666,151.58416c0,0.69884 -0.10326,1.36244 -0.28869,1.95997c-0.51066,1.64551 -1.64454,2.79003 -2.96131,2.79003c-0.77497,0 -3.18659,-0.69644 -3.74509,-1.35811c-0.73506,-0.87086 0.49509,-1.90118 0.49509,-3.39189c0,-2.62335 1.45507,-4.75 3.25,-4.75c1.79493,0 3.25,2.12665 3.25,4.75z"/><path d="M158.41667,142.00081c0,1.65686 -1.45507,3 -3.25,3c-1.79493,0 -3.25,-1.34314 -3.25,-3c0,-1.23097 1.03437,-2.34077 2.35363,-3.08701c0.45643,-0.25818 1.03499,-0.91299 1.49636,-0.91299c1.20656,0 1.68843,1.05877 2.07138,2.25615c0.18675,0.5839 0.57862,1.20075 0.57862,1.74386z"/><path d="M162.35001,144.00081c0,1.65686 -1.45507,3 -3.25,3c-1.79493,0 -3.25,-1.34314 -3.25,-3c0,-1.65686 1.45507,-3 3.25,-3c0.9008,0 1.416,0.63829 2.00465,1.18474c0.58428,0.54241 1.24535,0.98991 1.24535,1.81526z"/><path d="M165.01666,147.84697c0,1.14211 -1.17629,1.62356 -1.76042,2.72296c-0.58919,1.10891 -0.59159,2.83088 -1.83957,2.83088c-2.48528,0 -5.4,-3.25974 -5.4,-5.55384c0,-2.29411 2.01472,-4.15385 4.5,-4.15385c0.30947,0 1.21166,-0.37117 1.50356,-0.31624c0.98806,0.18591 1.61927,0.86341 2.11193,1.63648c0.53062,0.83264 0.88451,1.79215 0.88451,2.83362z"/></g><g fill="#4e2c06"><path d="M138.13745,158.08226c-1.25767,0.41031 -2.6564,-0.41933 -3.12416,-1.85307c-0.46776,-1.43374 0.17258,-2.92863 1.43025,-3.33895c1.25767,-0.41031 2.32848,0.52631 2.79624,1.96005c0.28045,0.85963 0.28044,1.7028 -0.03562,2.32865c-0.21108,0.41797 -0.56311,0.73902 -1.06671,0.90332z"/><path d="M135.99882,158.47764c-1.43374,0.46776 -2.9752,-0.31531 -3.44296,-1.74905c-0.46776,-1.43374 0.31532,-2.9752 1.74906,-3.44296c0.82434,-0.26895 3.8336,-0.76513 2.35532,0.3196c-0.47954,0.35188 0.88882,0.82006 1.08764,1.42945c0.46776,1.43374 -0.31532,2.9752 -1.74906,3.44296z"/><path d="M134.45682,162.70971c-1.43374,0.46776 -3.11491,-0.74352 -3.755,-2.70548c-0.64009,-1.96195 -0.01338,-4.16807 1.42036,-4.63583c0.26928,-0.08785 0.87986,-0.95061 1.15806,-0.92616c1.20302,0.10575 2.09374,2.27462 2.61361,3.86808c0.64009,1.96196 -0.00329,3.93163 -1.43703,4.39939z"/><path d="M133.61505,161.67416c-0.38193,0.12461 -0.76302,0.18649 -1.12266,0.19169c-0.99037,0.01432 -1.81806,-0.40131 -2.05285,-1.12096c-0.13818,-0.42354 -0.18757,-1.86575 0.07448,-2.28896c0.34489,-0.55701 1.12733,-0.06841 1.94205,-0.33421c1.43374,-0.46776 2.85546,-0.05172 3.1755,0.92926c0.32004,0.98098 -0.58278,2.15541 -2.01651,2.62317z"/><path d="M138.47817,158.81768c-0.90552,0.29542 -1.89904,-0.26032 -2.21908,-1.2413c-0.32004,-0.98098 0.15457,-2.01571 1.06009,-2.31114c0.67276,-0.21949 1.46373,0.14794 2.10681,0.73589c0.22249,0.20342 0.68352,0.40286 0.76578,0.65501c0.21514,0.65942 -0.27759,1.11156 -0.86371,1.53436c-0.28582,0.20618 -0.55307,0.53033 -0.8499,0.62717z"/><path d="M138.08645,161.32397c-0.90552,0.29542 -1.89904,-0.26032 -2.21908,-1.2413c-0.32004,-0.98098 0.15457,-2.01571 1.06009,-2.31114c0.90552,-0.29542 1.89903,0.26032 2.21908,1.2413c0.16062,0.49231 -0.09636,0.88769 -0.29005,1.30684c-0.19226,0.41604 -0.31896,0.85712 -0.77003,1.00429z"/><path d="M136.45989,163.46717c-0.62419,0.20364 -1.09706,-0.35339 -1.80207,-0.4766c-0.71111,-0.12428 -1.65264,0.18144 -1.87516,-0.50061c-0.44314,-1.35827 0.81869,-3.53249 2.07248,-3.94154c1.25379,-0.40905 2.62943,0.36045 3.07257,1.71873c0.05518,0.16914 0.4189,0.59603 0.44093,0.76535c0.07457,0.57315 -0.18315,1.03892 -0.51781,1.44602c-0.36045,0.43847 -0.82174,0.80296 -1.39094,0.98866z"/></g><g fill="#573007"><path d="M174.21943,160.10681c2.03805,0.81515 2.70272,2.91276 1.48456,4.68515c-1.21816,1.77239 -3.85783,2.54838 -5.89588,1.73323c-2.03805,-0.81515 -2.17132,-2.70022 -0.95316,-4.47261c0.73038,-1.06268 1.78076,-1.84357 2.94412,-2.12285c0.77695,-0.18652 1.60429,-0.14932 2.42037,0.17709z"/><path d="M177.30845,161.77298c2.32337,0.92927 3.21934,3.11939 2.00118,4.89178c-1.21816,1.77239 -4.08913,2.45587 -6.41251,1.5266c-1.33586,-0.53429 -5.60744,-2.93447 -2.46141,-2.53429c1.02055,0.12982 -0.05753,-1.60415 0.46023,-2.35748c1.21816,-1.77239 4.08913,-2.45587 6.41251,-1.5266z"/><path d="M184.45259,159.31877c2.32337,0.92927 2.85552,3.64874 1.18857,6.07411c-1.66695,2.42537 -5.17606,3.87302 -7.49943,2.94375c-0.43638,-0.17453 -2.25244,0.04429 -2.55973,-0.24274c-1.32883,-1.24119 0.29161,-4.09635 1.64548,-6.06619c1.66696,-2.42538 4.90175,-3.6382 7.22512,-2.70893z"/><path d="M184.18454,161.0778c0.61893,0.24755 1.1587,0.55238 1.6018,0.88933c1.22022,0.9279 1.70736,2.09939 1.09591,2.98903c-0.35986,0.52358 -2.0965,1.90622 -2.94185,2.04917c-1.11261,0.18813 -1.45389,-1.00795 -2.77414,-1.536c-2.32337,-0.92927 -3.53118,-2.66566 -2.69771,-3.87835c0.83347,-1.21269 3.39261,-1.44244 5.71598,-0.51317z"/><path d="M174.72191,159.1019c1.4674,0.58691 1.98129,2.04576 1.14782,3.25845c-0.83347,1.21269 -2.69869,1.71998 -4.16609,1.13307c-1.09021,-0.43605 -1.5928,-1.52801 -1.64111,-2.68366c-0.01672,-0.39983 -0.32799,-1.02266 -0.11375,-1.33437c0.56026,-0.81518 1.72172,-0.76569 2.96001,-0.60027c0.60385,0.08067 1.33213,0.03441 1.81314,0.2268z"/><path d="M178.31966,157.15292c1.4674,0.58691 1.98129,2.04576 1.14782,3.25845c-0.83347,1.21269 -2.6987,1.71998 -4.1661,1.13307c-1.4674,-0.58691 -1.98129,-2.04576 -1.14782,-3.25845c0.41828,-0.6086 1.22282,-0.73058 1.98013,-0.93471c0.7517,-0.20262 1.455,-0.49073 2.18597,-0.19836z"/><path d="M182.96428,156.7137c1.01151,0.40457 0.89169,1.36984 1.59414,2.15393c0.70852,0.79087 2.23247,1.40247 1.65297,2.24563c-1.15404,1.6791 -5.39448,2.49364 -7.42626,1.681c-2.03178,-0.81264 -2.74333,-2.8326 -1.58929,-4.5117c0.14371,-0.20908 0.23391,-0.9501 0.4181,-1.12785c0.62346,-0.6017 1.51658,-0.78816 2.43003,-0.84717c0.98382,-0.06355 1.99794,0.03724 2.92032,0.40616z"/></g><g fill="#573007"><path d="M117.64201,129.44197c1.08693,1.13477 0.96781,3.27433 -0.2661,4.77884c-1.23391,1.50451 -3.11531,1.80426 -4.20225,0.66949c-1.08693,-1.13477 -0.68441,-2.97845 0.5495,-4.48297c0.73981,-0.90207 1.61054,-1.4774 2.4235,-1.54891c0.54293,-0.04776 1.06011,0.12917 1.49535,0.58355z"/><path d="M119.1781,131.57794c1.2391,1.29363 1.24333,3.56198 0.00943,5.0665c-1.2339,1.50451 -3.23867,1.67547 -4.47778,0.38183c-0.71244,-0.74379 -2.81172,-3.79035 -0.91201,-2.8676c0.61625,0.29933 0.37813,-1.55942 0.90259,-2.19889c1.2339,-1.50451 3.23867,-1.67547 4.47777,-0.38183z"/><path d="M124.36156,130.42474c1.2391,1.29363 0.87481,4.01132 -0.81369,6.07013c-1.6885,2.05881 -4.29716,2.8592 -5.53626,1.56556c-0.23273,-0.24297 -1.44566,-0.3411 -1.56711,-0.67074c-0.52519,-1.42545 1.24481,-3.90736 2.61617,-5.57949c1.6885,-2.05881 4.06179,-2.6791 5.30089,-1.38547z"/><path d="M123.73608,132.07826c0.33009,0.34462 0.59497,0.73107 0.78999,1.13207c0.53705,1.10431 0.54432,2.31899 -0.07503,3.07417c-0.36451,0.44445 -1.82778,1.4841 -2.403,1.47813c-0.75708,-0.00788 -0.66513,-1.22145 -1.36924,-1.95656c-1.2391,-1.29363 -1.55921,-3.17682 -0.71496,-4.20623c0.84425,-1.02941 2.53314,-0.81521 3.77224,0.47843z"/><path d="M118.22178,128.55687c0.7826,0.81704 0.73262,2.31386 -0.11163,3.34327c-0.84425,1.02941 -2.16306,1.20157 -2.94566,0.38453c-0.58143,-0.60702 -0.61911,-1.7475 -0.35107,-2.8721c0.09274,-0.38908 0.05557,-1.04379 0.27258,-1.30839c0.56751,-0.69197 1.29425,-0.44623 2.03994,-0.0754c0.36364,0.18084 0.83931,0.26027 1.09584,0.52809z"/><path d="M121.01651,127.28732c0.7826,0.81704 0.73262,2.31386 -0.11163,3.34327c-0.84425,1.02941 -2.16307,1.20157 -2.94566,0.38453c-0.7826,-0.81704 -0.73262,-2.31386 0.11163,-3.34327c0.42369,-0.51662 0.96751,-0.49733 1.50249,-0.56546c0.53101,-0.06762 1.05333,-0.22607 1.44317,0.18093z"/><path d="M124.08746,127.6546c0.53946,0.5632 0.2136,1.47522 0.45814,2.35236c0.24665,0.88473 1.05888,1.73525 0.47189,2.45098c-1.16895,1.42532 -4.0796,1.48949 -5.16319,0.35822c-1.08359,-1.13127 -1.01438,-3.20382 0.15457,-4.62914c0.14556,-0.17748 0.39458,-0.87793 0.55783,-1.01825c0.55255,-0.47498 1.16945,-0.50289 1.76632,-0.40422c0.64287,0.10628 1.26253,0.37647 1.75445,0.89005z"/></g><g data-paper-data="{&quot;index&quot;:null}" fill="#573007"><path d="M302.26396,48.25109c-0.9997,0.69861 -2.45155,0.90662 -4.00095,0.63574c-2.58416,-0.45179 -4.46109,-2.0646 -4.06479,-4.33141c0.3963,-2.26681 2.81243,-3.73818 5.3966,-3.28639c2.58416,0.45179 4.35777,2.65564 3.96146,4.92245c-0.15869,0.90769 -0.62467,1.59305 -1.29232,2.05962z"/><path d="M298.2125,46.2724c-1.09836,-0.19203 -2.24205,-2.43275 -2.72967,-1.52022c-1.50317,2.81304 -1.39109,-2.49104 -1.13133,-3.97684c0.45178,-2.58416 2.9129,-4.31279 5.49706,-3.86101c2.58416,0.45179 4.31278,2.91291 3.861,5.49706c-0.45178,2.58416 -2.9129,4.31279 -5.49706,3.861z"/><path d="M303.39555,42.27191c-2.87205,-0.50212 -6.82637,-1.50085 -7.30522,-3.54628c-0.11073,-0.47301 1.22426,-1.73718 1.30912,-2.22254c0.45178,-2.58416 4.09594,-4.20747 7.63216,-3.58924c3.53623,0.61823 6.03664,3.21428 5.58486,5.79844c-0.45178,2.58416 -3.68469,4.17786 -7.22091,3.55962z"/><path d="M304.60622,41.63759c-1.76811,-0.30911 -2.83519,-2.65458 -2.38341,-5.23873c0.25673,-1.46843 -0.77761,-2.69521 0.09645,-3.42648c0.66411,-0.5556 3.15963,-0.82632 3.92302,-0.69285c1.2971,0.22677 2.21693,1.54946 2.43658,3.25833c0.07975,0.62053 0.06718,1.29201 -0.05316,1.98041c-0.45178,2.58416 -2.25136,4.42844 -4.01947,4.11932z"/><path d="M304.90665,46.59675c-0.09353,0.535 -0.58578,1.07514 -0.8703,1.61815c-0.58344,1.11354 -1.24044,2.07351 -2.42898,1.86572c-0.45448,-0.07946 -0.91162,-0.82412 -1.31677,-1.15704c-1.17104,-0.96229 -1.99883,-2.23365 -1.78683,-3.44623c0.28534,-1.63211 1.94998,-2.70458 3.71809,-2.39547c1.76811,0.30911 2.97013,1.88277 2.68479,3.51488z"/><path d="M307.5863,46.8777c-0.67397,0.43691 -1.29139,0.97694 -2.17873,0.8218c-1.76811,-0.30911 -2.97013,-1.88277 -2.68479,-3.51488c0.28534,-1.63211 1.94998,-2.70459 3.71809,-2.39547c1.76811,0.30911 2.97013,1.88278 2.68479,3.51488c-0.14214,0.81302 -0.8704,1.13998 -1.53936,1.57366z"/><path d="M312.41486,41.97457c-0.17936,1.02591 -0.69321,1.91013 -1.35929,2.63895c-0.61843,0.67668 -1.35689,1.23535 -2.3622,1.24832c-0.297,0.00384 -1.12179,-0.51716 -1.42664,-0.57045c-2.44815,-0.428 -4.11249,-2.60693 -3.7174,-4.86676c0.39508,-2.25982 3.82763,-4.96889 6.27578,-4.54089c1.22933,0.21493 0.93515,1.91157 1.32456,3.10538c0.38607,1.18357 1.46187,1.86041 1.26518,2.98545z"/></g><g data-paper-data="{&quot;index&quot;:null}" fill="#4e2c06"><path d="M296.59514,14.67003c0.20355,0.67093 0.05836,1.50151 -0.36595,2.3c-0.70769,1.33177 -1.92381,2.06998 -3.09202,1.4492c-1.16821,-0.62077 -1.54154,-2.20361 -0.83386,-3.53537c0.70769,-1.33176 2.2284,-1.90813 3.39661,-1.28735c0.46778,0.24858 0.75927,0.62545 0.89521,1.07353z"/><path d="M294.79132,16.53146c-0.30079,0.56604 -1.72933,0.79158 -1.31756,1.22078c1.26938,1.3231 -1.60946,0.3161 -2.37518,-0.09079c-1.33176,-0.70769 -1.83768,-2.36097 -1.12999,-3.69273c0.70769,-1.33177 2.36098,-1.83768 3.69274,-1.12999c1.33176,0.70769 1.83767,2.36097 1.12999,3.69273z"/><path d="M293.52911,12.98546c-0.78652,1.48013 -2.03744,3.46319 -3.2407,3.36019c-0.27826,-0.02382 -0.73113,-0.97884 -0.98126,-1.11176c-1.33176,-0.70769 -1.56917,-2.98877 -0.60076,-4.81118c0.96841,-1.82241 2.83306,-2.72607 4.16482,-2.01838c1.33176,0.70769 1.62632,2.75872 0.65791,4.58113z"/><path d="M293.39831,12.2107c-0.4842,0.9112 -1.95633,1.07619 -3.28809,0.3685c-0.75676,-0.40214 -1.61166,-0.05559 -1.85547,-0.66367c-0.18524,-0.46202 0.11178,-1.87416 0.32083,-2.26758c0.35522,-0.66847 1.24211,-0.93534 2.21522,-0.75068c0.35336,0.06705 0.7181,0.19365 1.07287,0.38217c1.33176,0.70769 2.01883,2.02005 1.53463,2.93126z"/><path d="M296.1622,12.93075c0.27571,0.14651 0.48315,0.51184 0.7292,0.76417c0.50455,0.51742 0.91205,1.04766 0.58656,1.66018c-0.12446,0.23421 -0.61295,0.35128 -0.86714,0.51334c-0.73473,0.46842 -1.57715,0.69415 -2.20206,0.36208c-0.84112,-0.44696 -1.13044,-1.54797 -0.64623,-2.45917c0.4842,-0.91121 1.55858,-1.28754 2.39969,-0.84059z"/><path d="M296.79354,11.51634c0.11861,0.44625 0.30366,0.87998 0.06066,1.33728c-0.4842,0.9112 -1.55858,1.28754 -2.3997,0.84059c-0.84112,-0.44696 -1.13044,-1.54797 -0.64623,-2.45917c0.4842,-0.9112 1.55858,-1.28754 2.3997,-0.84059c0.41899,0.22265 0.46783,0.67896 0.58558,1.12189z"/><path d="M294.9748,8.00314c0.52871,0.28095 0.92034,0.71944 1.19989,1.21343c0.25955,0.45865 0.43321,0.96185 0.26105,1.51359c-0.05086,0.163 -0.48266,0.52088 -0.56615,0.67798c-0.67043,1.26167 -2.15804,1.78277 -3.32265,1.1639c-1.16461,-0.61886 -2.03315,-2.97789 -1.36271,-4.23956c0.33666,-0.63355 1.21147,-0.17024 1.93335,-0.1702c0.71569,0.00004 1.27743,-0.46723 1.85723,-0.15913z"/></g><g data-paper-data="{&quot;index&quot;:null}" fill="#573007"><path d="M318.17676,28.90707c-1.09788,-0.47546 -1.99809,-1.42558 -2.53454,-2.59817c-0.89472,-1.95569 -0.4388,-3.78965 1.70918,-4.24163c2.14798,-0.45199 4.61458,0.76702 5.5093,2.72271c0.89472,1.95569 -0.12125,3.9075 -2.26923,4.35948c-0.8601,0.18098 -1.68149,0.07514 -2.41471,-0.24239z"/><path d="M317.86748,25.43203c-0.38029,-0.83124 0.9803,-2.35364 -0.04736,-2.40152c-3.16794,-0.1476 1.45317,-1.77628 2.86109,-2.07253c2.44869,-0.51526 5.15907,0.65244 6.0538,2.60813c0.89472,1.95569 -0.36504,3.95879 -2.81373,4.47406c-2.44869,0.51526 -5.15907,-0.65244 -6.05379,-2.60813z"/><path d="M323.88536,27.7753c-0.9944,-2.17356 -2.09892,-5.26514 -0.57619,-6.25894c0.35213,-0.22981 2.10338,0.29849 2.5633,0.20172c2.44869,-0.51526 5.65606,1.51509 6.88042,4.1913c1.22436,2.67621 0.23183,5.2634 -2.21687,5.77867c-2.44869,0.51526 -5.4263,-1.23653 -6.65066,-3.91274z"/><path d="M325.03271,28.41924c-0.61217,-1.33811 0.87662,-2.84055 3.32531,-3.35581c1.39146,-0.2928 1.93363,-1.41223 2.99721,-1.0353c0.8081,0.2864 2.28068,1.94746 2.545,2.52519c0.4491,0.98165 -0.23251,2.05174 -1.5943,2.75563c-0.49451,0.2556 -1.07871,0.46292 -1.73102,0.60018c-2.44869,0.51526 -4.93003,-0.15179 -5.5422,-1.4899z"/><path d="M320.91338,30.22588c-0.50695,0.10667 -1.21639,-0.0643 -1.82511,-0.08884c-1.24827,-0.05031 -2.4009,-0.20158 -2.81241,-1.10107c-0.15735,-0.34395 0.25653,-0.90386 0.34186,-1.29484c0.24661,-1.13007 0.92975,-2.11917 2.07876,-2.36095c1.54655,-0.32543 3.29654,0.49551 3.90871,1.83362c0.61217,1.33811 -0.14528,2.68666 -1.69183,3.01209z"/><path d="M322.00258,32.19348c-0.71083,-0.3315 -1.48234,-0.59022 -1.78957,-1.26176c-0.61217,-1.33811 0.14527,-2.68666 1.69182,-3.01209c1.54655,-0.32543 3.29654,0.4955 3.90872,1.83361c0.61217,1.33811 -0.14527,2.68667 -1.69182,3.0121c-0.7704,0.16211 -1.41358,-0.24282 -2.11915,-0.57186z"/><path d="M328.62133,33.99788c-0.97213,0.20456 -1.98846,0.1292 -2.94664,-0.10283c-0.88963,-0.21543 -1.7373,-0.55293 -2.24782,-1.253c-0.15083,-0.20682 -0.11207,-0.9523 -0.21762,-1.18301c-0.84763,-1.85276 0.20116,-3.72 2.34253,-4.17059c2.14137,-0.45059 6.17818,1.08206 7.02581,2.93482c0.42563,0.93036 -1.18088,1.27036 -2.01501,1.9274c-0.82698,0.6514 -0.87519,1.62289 -1.94126,1.84721z"/></g><g data-paper-data="{&quot;index&quot;:null}" fill="#573007"><path d="M275.3382,57.92987c-0.7885,-0.21046 -1.54713,-0.92714 -2.12054,-1.94314c-0.95637,-1.69454 -1.03537,-3.58 0.23075,-4.51063c1.26612,-0.93062 3.06779,-0.31135 4.02416,1.38319c0.95637,1.69454 0.70525,3.82264 -0.56087,4.75326c-0.50698,0.37264 -1.04691,0.45787 -1.5735,0.31732z"/><path d="M274.44757,54.62578c-0.40649,-0.72024 0.14818,-2.51021 -0.51041,-2.32148c-2.03024,0.58179 0.56234,-2.05771 1.39223,-2.6677c1.44338,-1.06091 3.38875,-0.54727 4.34511,1.14727c0.95637,1.69454 0.56156,3.92827 -0.88181,4.98918c-1.44338,1.06091 -3.38876,0.54726 -4.34512,-1.14727z"/><path d="M278.71701,55.52403c-1.06291,-1.88332 -2.37904,-4.63298 -1.6162,-5.94668c0.17641,-0.3038 1.38811,-0.19157 1.65921,-0.39083c1.44338,-1.06091 3.87523,0.17677 5.18393,2.4956c1.30871,2.31884 1.19953,5.05866 -0.24384,6.11957c-1.44338,1.06091 -3.67438,0.04117 -4.98309,-2.27766z"/><path d="M279.57046,55.88679c-0.65436,-1.15942 -0.01472,-2.95935 1.42865,-4.02026c0.82019,-0.60286 0.93862,-1.81414 1.68574,-1.69152c0.56766,0.09318 1.83002,1.3693 2.11254,1.86988c0.48004,0.85056 0.26369,2.04583 -0.45551,3.04115c-0.26117,0.36143 -0.58864,0.69649 -0.97315,0.97911c-1.44338,1.06091 -3.14392,0.98106 -3.79827,-0.17836z"/><path d="M277.33038,58.58427c-0.29882,0.21964 -0.78108,0.21597 -1.17042,0.33148c-0.79841,0.23687 -1.55661,0.35378 -1.99647,-0.42558c-0.1682,-0.29802 -0.01884,-0.93654 -0.04318,-1.33578c-0.07036,-1.15395 0.16317,-2.2709 0.84045,-2.76872c0.91161,-0.67005 2.18107,-0.27335 2.83543,0.88607c0.65436,1.15942 0.44581,2.64249 -0.4658,3.31255z"/><path d="M278.41195,60.24585c-0.51526,-0.15924 -1.05427,-0.2339 -1.38266,-0.81576c-0.65436,-1.15942 -0.44581,-2.64249 0.4658,-3.31254c0.91161,-0.67005 2.18107,-0.27334 2.83542,0.88608c0.65436,1.15942 0.44581,2.64249 -0.4658,3.31255c-0.45411,0.33378 -0.94133,0.08774 -1.45276,-0.07032z"/><path d="M282.95304,60.48325c-0.57302,0.42119 -1.22996,0.58062 -1.88152,0.5746c-0.60495,-0.00559 -1.20782,-0.13933 -1.67031,-0.70237c-0.13664,-0.16633 -0.26132,-0.89921 -0.37414,-1.09911c-0.90602,-1.60534 -0.61727,-3.65884 0.64495,-4.5866c1.26223,-0.92776 4.11833,-0.36329 5.02436,1.24206c0.45496,0.80613 -0.4916,1.50406 -0.88693,2.33309c-0.39195,0.82193 -0.22801,1.77644 -0.8564,2.23832z"/></g><g fill="#573007"><path d="M342.49592,248.36073c1.33466,1.87461 0.68421,4.6277 -1.45284,6.14922c-2.13705,1.52152 -4.95142,1.23528 -6.28609,-0.63932c-1.33466,-1.87461 -0.33622,-4.13892 1.80084,-5.66044c1.28132,-0.91226 2.68105,-1.35036 3.88423,-1.15089c0.80354,0.13322 1.51943,0.5508 2.05386,1.30144z"/><path d="M344.26357,251.70557c1.52151,2.13704 1.02253,5.10289 -1.11452,6.62441c-2.13705,1.52152 -5.1029,1.02253 -6.62441,-1.11452c-0.87481,-1.22872 -3.26218,-5.96648 -0.69331,-4.07609c0.83332,0.61323 0.8995,-1.90163 1.80783,-2.54833c2.13705,-1.52152 5.1029,-1.02253 6.62441,1.11452z"/><path d="M352.09036,252.06632c1.52151,2.13704 0.38428,5.55731 -2.54011,7.63939c-2.92438,2.08207 -6.91234,2.18804 -8.43385,0.051c-0.28577,-0.40138 -2.03529,-0.96667 -2.13925,-1.44121c-0.44956,-2.05206 2.68809,-4.65769 5.06321,-6.34871c2.92439,-2.08208 6.52849,-2.03751 8.05001,0.09954z"/><path d="M350.80867,254.00182c0.40532,0.56929 0.70608,1.16977 0.90159,1.76408c0.53838,1.63665 0.2785,3.22664 -0.79417,3.99035c-0.63131,0.44947 -2.9998,1.28085 -3.83853,1.06576c-1.10389,-0.2831 -0.69935,-1.83589 -1.56395,-3.05026c-1.52151,-2.13704 -1.56961,-4.71339 -0.10742,-5.75443c1.46219,-1.04104 3.88096,-0.15254 5.40248,1.9845z"/><path d="M343.53973,247.41298c0.96096,1.34972 0.55463,3.2878 -0.90756,4.32884c-1.46219,1.04104 -3.42654,0.79081 -4.3875,-0.55891c-0.71395,-1.00278 -0.515,-2.50677 0.12689,-3.87983c0.22208,-0.47504 0.3136,-1.34403 0.68945,-1.61162c0.98289,-0.69979 1.98951,-0.11677 2.99594,0.63654c0.49079,0.36735 1.16778,0.64257 1.48278,1.085z"/><path d="M347.9039,246.76093c0.96096,1.34972 0.55463,3.2878 -0.90756,4.32884c-1.46219,1.04104 -3.42654,0.79081 -4.3875,-0.55891c-0.96096,-1.34972 -0.55463,-3.2878 0.90756,-4.32884c0.73381,-0.52245 1.52371,-0.3013 2.32017,-0.19756c0.79056,0.10298 1.58863,0.08412 2.06732,0.75647z"/><path d="M352.30696,248.34747c0.66241,0.93039 -0.01659,2.00483 0.14521,3.23921c0.16319,1.24507 1.15996,2.64922 0.14332,3.37303c-2.02457,1.44143 -6.28958,0.47648 -7.62014,-1.39235c-1.33056,-1.86884 -0.76795,-4.55234 1.25662,-5.99378c0.2521,-0.17949 0.77177,-1.00511 1.04142,-1.12967c0.91272,-0.42162 1.81987,-0.2358 2.66957,0.10822c0.91518,0.37054 1.75997,0.94692 2.36401,1.79533z"/></g><g fill="#4e2c06"><path d="M329.85804,231.44733c-0.50089,0.67738 -1.53295,0.76361 -2.30517,0.19259c-0.77222,-0.57102 -0.99217,-1.58305 -0.49127,-2.26043c0.50089,-0.67738 1.40235,-0.587 2.17457,-0.01597c0.463,0.34237 0.77442,0.77979 0.84162,1.2212c0.04488,0.2948 -0.01917,0.59137 -0.21974,0.86262z"/><path d="M328.89461,232.44235c-0.57102,0.77222 -1.65992,0.93532 -2.43214,0.3643c-0.77222,-0.57102 -0.93532,-1.65993 -0.3643,-2.43215c0.32831,-0.444 1.70618,-1.81288 1.33993,-0.70414c-0.11881,0.35967 0.76399,0.09714 1.09221,0.33984c0.77222,0.57102 0.93532,1.65993 0.3643,2.43215z"/><path d="M329.65778,235.20739c-0.57102,0.77222 -1.89056,0.76478 -2.94728,-0.01662c-1.05672,-0.7814 -1.54643,-2.15735 -0.97541,-2.92957c0.10725,-0.14504 0.10534,-0.81814 0.25869,-0.9082c0.66316,-0.38948 1.92632,0.40669 2.78457,1.04133c1.05672,0.7814 1.45045,2.04085 0.87943,2.81306z"/><path d="M328.83861,234.98108c-0.15212,0.20571 -0.32696,0.37857 -0.5116,0.5141c-0.50849,0.37322 -1.09139,0.46332 -1.479,0.1767c-0.22812,-0.16869 -0.78642,-0.89863 -0.8068,-1.21496c-0.02682,-0.41635 0.55956,-0.45187 0.88404,-0.89068c0.57102,-0.77222 1.46224,-1.0815 1.9906,-0.6908c0.52836,0.3907 0.49378,1.33343 -0.07724,2.10564z"/><path d="M330.30643,231.703c-0.36065,0.48772 -1.08132,0.56637 -1.60968,0.17567c-0.52836,-0.3907 -0.66432,-1.10279 -0.30368,-1.59051c0.26794,-0.36235 0.81399,-0.46389 1.36476,-0.39639c0.19055,0.02335 0.50339,-0.04347 0.6392,0.05696c0.35517,0.26263 0.26655,0.67918 0.11865,1.115c-0.07213,0.21253 -0.09104,0.4794 -0.20926,0.63927z"/><path d="M331.02892,233.14789c-0.36065,0.48772 -1.08132,0.56637 -1.60968,0.17567c-0.52836,-0.3907 -0.66432,-1.10279 -0.30368,-1.59051c0.36065,-0.48772 1.08132,-0.56637 1.60968,-0.17567c0.26516,0.19608 0.27788,0.49611 0.33221,0.78509c0.05393,0.28684 0.15111,0.56246 -0.02854,0.80542z"/><path d="M330.9767,234.8605c-0.2486,0.33619 -0.69965,0.22188 -1.1109,0.41835c-0.41481,0.19817 -0.79033,0.70453 -1.15769,0.43289c-0.73157,-0.54096 -0.88002,-2.13495 -0.38067,-2.81025c0.49935,-0.6753 1.49722,-0.7842 2.22879,-0.24323c0.0911,0.06736 0.43746,0.15448 0.51143,0.23419c0.25038,0.26979 0.28871,0.60662 0.26546,0.94142c-0.02504,0.3606 -0.12973,0.72007 -0.35642,1.02664z"/></g><g fill="#573007"><path d="M345.91432,230.99713c2.13302,-0.51801 3.89106,0.80526 3.92669,2.95561c0.03562,2.15035 -1.66465,4.31348 -3.79767,4.83148c-2.13302,0.51801 -3.33491,-0.94032 -3.37054,-3.09067c-0.02136,-1.28929 0.3814,-2.53464 1.16712,-3.43689c0.52474,-0.60257 1.22029,-1.05211 2.0744,-1.25953z"/><path d="M349.39707,230.56283c2.43164,-0.59053 4.43176,0.67395 4.46739,2.8243c0.03562,2.15035 -1.90673,4.37226 -4.33838,4.96279c-1.39811,0.33953 -6.26992,0.86176 -3.47499,-0.63691c0.90666,-0.48616 -0.97726,-1.27342 -0.9924,-2.18739c-0.03562,-2.15035 1.90673,-4.37226 4.33838,-4.96279z"/><path d="M353.79345,224.42006c2.43164,-0.59053 4.4424,1.31618 4.49115,4.25876c0.04875,2.94258 -1.97023,6.15712 -4.40187,6.74764c-0.45671,0.11092 -1.80921,1.34247 -2.22601,1.28688c-1.80237,-0.2404 -2.13829,-3.50612 -2.17788,-5.89603c-0.04875,-2.94258 1.88297,-5.80673 4.31461,-6.39725z"/><path d="M354.59531,226.00847c0.64777,-0.15731 1.26428,-0.22205 1.82066,-0.20456c1.5322,0.04817 2.60848,0.71997 2.62636,1.79932c0.01052,0.63524 -0.60227,2.7688 -1.20801,3.37554c-0.79724,0.79856 -1.76897,0.02214 -3.15074,0.3577c-2.43164,0.59053 -4.42264,-0.12347 -4.44702,-1.59476c-0.02438,-1.47129 1.9271,-3.14272 4.35874,-3.73325z"/><path d="M345.74082,229.88708c1.53578,-0.37296 2.80053,0.5174 2.8249,1.98869c0.02438,1.47129 -1.20085,2.96635 -2.73663,3.33931c-1.14101,0.2771 -2.18376,-0.32095 -2.89338,-1.23435c-0.24551,-0.31602 -0.86032,-0.64286 -0.86659,-1.02104c-0.01639,-0.98901 0.95847,-1.62233 2.06315,-2.20577c0.5387,-0.28451 1.10515,-0.74459 1.60857,-0.86684z"/><path d="M347.54125,226.21273c1.53578,-0.37296 2.80053,0.5174 2.8249,1.98869c0.02438,1.47129 -1.20085,2.96635 -2.73663,3.33932c-1.53578,0.37296 -2.80053,-0.5174 -2.8249,-1.98869c-0.01223,-0.73838 0.57241,-1.30437 1.07094,-1.90989c0.49483,-0.60103 0.90066,-1.24364 1.66569,-1.42943z"/><path d="M351.07012,223.1611c1.05865,-0.25709 1.52089,0.59873 2.54788,0.83006c1.03587,0.23334 2.63204,-0.15232 2.64899,0.87064c0.03375,2.03717 -2.94819,5.16013 -5.07465,5.67654c-2.12646,0.51641 -3.87766,-0.71641 -3.91141,-2.75357c-0.0042,-0.25367 -0.3605,-0.90964 -0.31355,-1.16127c0.15891,-0.85176 0.77832,-1.52166 1.48821,-2.09951c0.76459,-0.62238 1.64917,-1.12845 2.61454,-1.36289z"/></g><g fill="#573007"><path d="M315.37304,241.83109c1.5436,0.294 2.68747,2.10603 2.5549,4.04729c-0.13257,1.94127 -1.49136,3.27664 -3.03495,2.98264c-1.5436,-0.294 -2.285,-2.02937 -2.15244,-3.97064c0.07948,-1.16393 0.45511,-2.13762 1.07589,-2.66739c0.41458,-0.35381 0.93851,-0.50963 1.5566,-0.39191z"/><path d="M317.86321,242.68018c1.7597,0.33516 3.07876,2.18056 2.94619,4.12182c-0.13257,1.94127 -1.66655,3.24327 -3.42625,2.90811c-1.01176,-0.1927 -4.48886,-1.45694 -2.40612,-1.80707c0.67562,-0.11358 -0.59641,-1.48965 -0.54006,-2.31476c0.13257,-1.94127 1.66655,-3.24327 3.42625,-2.90811z"/><path d="M321.41695,238.7344c1.7597,0.33516 3.03916,2.76034 2.85775,5.41681c-0.1814,2.65646 -1.84227,4.82148 -3.60197,4.48632c-0.33051,-0.06295 -1.3755,0.5606 -1.66562,0.36251c-1.25458,-0.8566 -1.25218,-3.90501 -1.10484,-6.06254c0.18141,-2.65647 1.75498,-4.53825 3.51468,-4.20309z"/><path d="M321.86644,240.44418c0.46877,0.08928 0.90868,0.25047 1.30013,0.46403c1.07797,0.58811 1.7884,1.5734 1.72186,2.54781c-0.03916,0.57347 -0.62819,2.26908 -1.10025,2.59783c-0.6213,0.43268 -1.25026,-0.60925 -2.2502,-0.79971c-1.7597,-0.33516 -3.11269,-1.6836 -3.02199,-3.01184c0.0907,-1.32824 1.59075,-2.13328 3.35045,-1.79812z"/><path d="M315.33199,240.7738c1.11139,0.21168 1.93882,1.46002 1.84812,2.78826c-0.0907,1.32824 -1.06519,2.23338 -2.17658,2.02169c-0.82571,-0.15727 -1.51788,-1.06448 -1.95178,-2.13606c-0.15012,-0.37074 -0.56011,-0.88253 -0.5368,-1.22394c0.06097,-0.89285 0.79552,-1.11416 1.61806,-1.24456c0.40111,-0.06359 0.83468,-0.27477 1.19899,-0.20538z"/><path d="M316.87232,238.11868c1.11139,0.21168 1.93882,1.46002 1.84812,2.78826c-0.0907,1.32824 -1.06519,2.23338 -2.17658,2.0217c-1.11139,-0.21168 -1.93882,-1.46002 -1.84812,-2.78826c0.04552,-0.66658 0.49971,-0.96628 0.896,-1.33207c0.39336,-0.36306 0.72695,-0.79509 1.28058,-0.68964z"/><path d="M319.58701,236.63675c0.76611,0.14592 1.02961,1.07787 1.73755,1.65058c0.71406,0.57767 1.86901,0.79944 1.80595,1.72294c-0.12559,1.83909 -2.45945,3.5795 -3.9983,3.28641c-1.53885,-0.29309 -2.68452,-2.02158 -2.55893,-3.86067c0.01564,-0.22901 -0.18775,-0.94404 -0.13615,-1.15303c0.17464,-0.7074 0.66098,-1.08794 1.20444,-1.35373c0.58533,-0.28628 1.24684,-0.42557 1.94544,-0.29251z"/></g><g fill="#573007"><path d="M315.45035,223.26328c-1.12563,1.27524 -4.75624,2.04391 -8.10923,1.71687c-3.35299,-0.32704 -5.15861,-1.62594 -4.03299,-2.90118c1.12563,-1.27524 4.46276,-1.71141 7.81575,-1.38437c2.01037,0.19608 3.56998,0.62202 4.25403,1.20655c0.45684,0.39038 0.52317,0.85149 0.07244,1.36213z"/><path d="M312.97697,225.27907c-1.28321,1.45377 -5.04158,2.36717 -8.39457,2.04013c-3.35299,-0.32704 -5.03086,-1.77067 -3.74765,-3.22444c0.7378,-0.83586 4.32937,-3.64188 4.12065,-1.83862c-0.06771,0.58496 2.84879,-0.34051 4.27393,-0.20151c3.35299,0.32704 5.03085,1.77067 3.74764,3.22444z"/><path d="M318.49454,228.7263c-1.28321,1.45377 -6.043,2.2695 -10.6313,1.82197c-4.58829,-0.44752 -7.72992,-2.09411 -6.44671,-3.54788c0.24101,-0.27305 -0.43993,-1.22735 0.02219,-1.45124c1.99835,-0.96815 7.34493,-0.62892 11.07145,-0.26545c4.5883,0.44752 7.26758,1.98883 5.98437,3.4426z"/><path d="M315.31764,228.918c-0.34184,0.38727 -0.79842,0.74214 -1.3277,1.05016c-1.45759,0.84822 -3.46668,1.34113 -5.14968,1.17697c-0.99051,-0.09661 -3.73221,-0.7832 -4.12238,-1.2195c-0.51352,-0.57423 1.56274,-0.99185 2.29193,-1.81795c1.28321,-1.45377 4.18323,-2.45089 6.47739,-2.22713c2.29415,0.22376 3.11367,1.58367 1.83045,3.03744z"/><path d="M317.32126,223.34545c-0.81046,0.91818 -3.32722,1.4811 -5.62137,1.25734c-2.29415,-0.22376 -3.49693,-1.14948 -2.68647,-2.06765c0.60213,-0.68216 2.46705,-1.16823 4.51825,-1.4173c0.70966,-0.08618 1.76944,-0.37692 2.35913,-0.3194c1.54214,0.15042 1.64014,0.79722 1.5439,1.50851c-0.04692,0.34686 0.1522,0.73755 -0.11346,1.03852z"/><path d="M321.37027,224.94413c-0.81046,0.91818 -3.32721,1.4811 -5.62137,1.25734c-2.29415,-0.22376 -3.49693,-1.14948 -2.68647,-2.06765c0.81046,-0.91818 3.32722,-1.4811 5.62137,-1.25734c1.15134,0.1123 1.4976,0.53024 1.98268,0.90645c0.48146,0.37342 1.1075,0.70382 0.70378,1.16121z"/><path d="M322.89726,227.40797c-0.55866,0.63292 -2.29762,0.75308 -3.58198,1.28951c-1.29549,0.54107 -2.14085,1.49503 -3.73593,1.33945c-3.17651,-0.30982 -5.30739,-2.47962 -4.18523,-3.75093c1.12217,-1.27132 4.60693,-2.05076 7.78344,-1.74093c0.39554,0.03858 1.73021,-0.05464 2.07643,0.01219c1.17193,0.2262 1.6473,0.68034 1.89883,1.17016c0.27092,0.52757 0.25388,1.10341 -0.25555,1.68056z"/></g><g fill="#573007"><path d="M169.71149,342.92463c0.7818,1.06939 0.40079,2.63992 -0.85103,3.50789c-1.25182,0.86797 -2.90039,0.70468 -3.68219,-0.36471c-0.7818,-1.06939 -0.19695,-2.3611 1.05487,-3.22906c0.75056,-0.52041 1.57047,-0.77033 2.27526,-0.65654c0.47069,0.076 0.89004,0.31421 1.20309,0.74242z"/><path d="M170.74692,344.83273c0.89126,1.2191 0.59897,2.911 -0.65285,3.77897c-1.25182,0.86797 -2.98912,0.58331 -3.88037,-0.63579c-0.51244,-0.70094 -1.91088,-3.40365 -0.40612,-2.32525c0.48814,0.34982 0.5269,-1.0848 1.05897,-1.45372c1.25182,-0.86797 2.98912,-0.58331 3.88037,0.63579z"/><path d="M175.33161,345.03853c0.89126,1.2191 0.22509,3.17023 -1.48792,4.35798c-1.71301,1.18774 -4.04903,1.24819 -4.94028,0.02909c-0.1674,-0.22897 -1.19221,-0.55145 -1.25311,-0.82215c-0.26334,-1.17062 1.5746,-2.65703 2.96587,-3.6217c1.71301,-1.18775 3.82419,-1.16232 4.71544,0.05678z"/><path d="M174.58083,346.14265c0.23742,0.32476 0.4136,0.66731 0.52812,1.00634c0.31537,0.93365 0.16314,1.84068 -0.4652,2.27634c-0.3698,0.25641 -1.75719,0.73068 -2.24849,0.60797c-0.64662,-0.16149 -0.40966,-1.0473 -0.91611,-1.74006c-0.89126,-1.2191 -0.91943,-2.68881 -0.06292,-3.28268c0.85651,-0.59387 2.27334,-0.08702 3.1646,1.13208z"/><path d="M170.32292,342.38397c0.5629,0.76996 0.32488,1.87556 -0.53162,2.46943c-0.85651,0.59387 -2.00716,0.45113 -2.57006,-0.31883c-0.41821,-0.57205 -0.30167,-1.43002 0.07433,-2.2133c0.13008,-0.27099 0.1837,-0.76671 0.40386,-0.91936c0.57575,-0.3992 1.16539,-0.06662 1.75493,0.36312c0.28749,0.20956 0.68405,0.36656 0.86856,0.61895z"/><path d="M172.87931,342.01201c0.5629,0.76996 0.32489,1.87556 -0.53162,2.46943c-0.85651,0.59387 -2.00716,0.45113 -2.57006,-0.31883c-0.5629,-0.76996 -0.32489,-1.87556 0.53162,-2.46944c0.42985,-0.29804 0.89254,-0.17188 1.35908,-0.1127c0.46308,0.05875 0.93057,0.04798 1.21097,0.43153z"/><path d="M175.45849,342.91707c0.38802,0.53075 -0.00972,1.14368 0.08506,1.84785c0.09559,0.71026 0.67946,1.51128 0.08395,1.92419c-1.18593,0.82228 -3.68424,0.27181 -4.46363,-0.79428c-0.7794,-1.0661 -0.44984,-2.59693 0.73609,-3.41922c0.14767,-0.10239 0.45208,-0.57338 0.61003,-0.64443c0.53465,-0.24052 1.06602,-0.13452 1.56375,0.06174c0.53608,0.21138 1.03093,0.54018 1.38476,1.02417z"/></g><g fill="#4e2c06"><path d="M177.90404,331.44844c-1.16688,0.38594 -2.86696,-0.30175 -3.79724,-1.53599c-0.93028,-1.23424 -0.73847,-2.54765 0.42841,-2.93358c1.16688,-0.38594 2.56272,0.40238 3.493,1.63662c0.55776,0.74002 0.82153,1.47233 0.69182,2.02332c-0.08663,0.36798 -0.34874,0.6551 -0.81599,0.80963z"/><path d="M175.82519,331.84211c-1.33024,0.43996 -3.16275,-0.20392 -4.09303,-1.43816c-0.93028,-1.23424 -0.60602,-2.59145 0.72422,-3.03141c0.76484,-0.25296 3.70879,-0.75465 2.52569,0.22221c-0.38378,0.31689 1.17193,0.69135 1.56733,1.21595c0.93028,1.23424 0.60603,2.59145 -0.72421,3.03142z"/><path d="M175.56108,335.55402c-1.33024,0.43996 -3.4406,-0.57254 -4.7136,-2.26151c-1.27301,-1.68896 -1.31773,-3.61976 0.01251,-4.05972c0.24985,-0.08264 0.60875,-0.84632 0.90292,-0.83162c1.27206,0.06357 2.8679,1.92634 3.90182,3.29809c1.27301,1.68897 1.2266,3.4148 -0.10364,3.85476z"/><path d="M174.37019,334.6744c-0.35437,0.1172 -0.72748,0.17991 -1.09623,0.19289c-1.01549,0.03572 -1.99793,-0.30581 -2.46488,-0.92532c-0.27481,-0.36461 -0.77686,-1.61604 -0.63939,-1.98977c0.18094,-0.49189 1.13962,-0.08591 1.89552,-0.33592c1.33024,-0.43996 2.92461,-0.11205 3.56111,0.73244c0.6365,0.84448 0.07411,1.88573 -1.25613,2.32569z"/><path d="M178.48501,332.07916c-0.84016,0.27787 -2.03723,-0.18145 -2.67373,-1.02593c-0.6365,-0.84448 -0.47141,-1.75433 0.36875,-2.0322c0.62419,-0.20645 1.55375,0.09408 2.39998,0.58962c0.29277,0.17144 0.82998,0.33382 0.99359,0.55089c0.42786,0.56766 0.06187,0.97195 -0.4095,1.35293c-0.22986,0.18578 -0.4037,0.47361 -0.67909,0.56469z"/><path d="M178.86567,334.26515c-0.84016,0.27787 -2.03723,-0.18145 -2.67373,-1.02594c-0.6365,-0.84448 -0.47141,-1.75433 0.36875,-2.0322c0.84016,-0.27787 2.03722,0.18145 2.67372,1.02593c0.31944,0.42381 0.17847,0.77325 0.11012,1.14184c-0.06785,0.36586 -0.06034,0.75194 -0.47886,0.89036z"/><path d="M177.861,336.16481c-0.57914,0.19155 -1.2404,-0.28114 -2.00502,-0.37158c-0.77124,-0.09123 -1.64527,0.19643 -2.08782,-0.39072c-0.88131,-1.16928 -0.26196,-3.0873 0.90133,-3.47204c1.16329,-0.38475 2.82076,0.25125 3.70208,1.42052c0.10974,0.1456 0.61789,0.50782 0.69355,0.65436c0.2561,0.49604 0.1364,0.90664 -0.0809,1.26808c-0.23405,0.38929 -0.59511,0.71671 -1.12322,0.89138z"/></g><g fill="#573007"><path d="M173.00572,311.04986c1.46826,-0.252 2.67841,0.39174 2.70293,1.43783c0.02452,1.04609 -1.14586,2.0984 -2.61412,2.3504c-1.46826,0.252 -2.29558,-0.45744 -2.3201,-1.50354c-0.0147,-0.62721 0.26253,-1.23304 0.80338,-1.67196c0.36121,-0.29313 0.83998,-0.51182 1.42791,-0.61273z"/><path d="M175.40307,310.83859c1.67382,-0.28728 3.0506,0.32786 3.07512,1.37395c0.02452,1.04609 -1.31249,2.127 -2.98631,2.41428c-0.96238,0.16517 -4.31589,0.41922 -2.392,-0.30984c0.62409,-0.2365 -0.6727,-0.61949 -0.68312,-1.06411c-0.02452,-1.04609 1.3125,-2.127 2.98632,-2.41428z"/><path d="M178.42931,307.85028c1.67382,-0.28728 3.05792,0.64029 3.09148,2.07179c0.03356,1.43149 -1.35621,2.99529 -3.03002,3.28257c-0.31438,0.05396 -1.24536,0.65308 -1.53227,0.62603c-1.24066,-0.11695 -1.47189,-1.70564 -1.49914,-2.86827c-0.03356,-1.4315 1.29614,-2.82483 2.96996,-3.11211z"/><path d="M178.98127,308.623c0.44589,-0.07653 0.87026,-0.10802 1.25325,-0.09951c1.05468,0.02344 1.79554,0.35025 1.80785,0.87533c0.00724,0.30903 -0.41457,1.34695 -0.83153,1.64212c-0.54878,0.38848 -1.21766,0.01077 -2.16881,0.17401c-1.67382,0.28728 -3.04431,-0.06006 -3.0611,-0.77581c-0.01678,-0.71575 1.32651,-1.52886 3.00033,-1.81614z"/><path d="M172.88629,310.50985c1.05715,-0.18144 1.92774,0.2517 1.94452,0.96745c0.01678,0.71575 -0.8266,1.44306 -1.88376,1.62449c-0.78542,0.1348 -1.50319,-0.15613 -1.99166,-0.60048c-0.169,-0.15373 -0.5922,-0.31274 -0.59652,-0.49671c-0.01128,-0.48113 0.65976,-0.78922 1.42016,-1.07305c0.37081,-0.13841 0.76073,-0.36223 1.10725,-0.4217z"/><path d="M174.12562,308.72237c1.05715,-0.18144 1.92774,0.2517 1.94452,0.96745c0.01678,0.71575 -0.8266,1.44306 -1.88376,1.6245c-1.05715,0.18144 -1.92774,-0.2517 -1.94452,-0.96745c-0.00842,-0.3592 0.39402,-0.63454 0.73718,-0.92911c0.34062,-0.29239 0.61997,-0.60501 1.14658,-0.69539z"/><path d="M176.55472,307.23783c0.72872,-0.12507 1.0469,0.29127 1.75383,0.4038c0.71304,0.11351 1.81176,-0.0741 1.82343,0.42355c0.02323,0.99103 -2.02939,2.51028 -3.49313,2.7615c-1.46375,0.25122 -2.66918,-0.34851 -2.69241,-1.33955c-0.00289,-0.12341 -0.24815,-0.44252 -0.21583,-0.56493c0.10939,-0.41436 0.53576,-0.74025 1.02441,-1.02136c0.5263,-0.30277 1.1352,-0.54896 1.79971,-0.66301z"/></g><g fill="#573007"><path d="M138.38017,329.83108c2.43354,0.294 4.23689,2.10603 4.0279,4.04729c-0.20899,1.94126 -2.35118,3.27664 -4.78472,2.98264c-2.43354,-0.294 -3.60239,-2.02938 -3.39339,-3.97064c0.1253,-1.16393 0.7175,-2.13762 1.69617,-2.66739c0.65361,-0.3538 1.47959,-0.50963 2.45404,-0.3919z"/><path d="M142.30602,330.68018c2.77423,0.33516 4.85377,2.18056 4.64478,4.12183c-0.20899,1.94126 -2.62738,3.24327 -5.40161,2.90811c-1.59508,-0.1927 -7.07685,-1.45695 -3.79334,-1.80707c1.06515,-0.11358 -0.94026,-1.48964 -0.85143,-2.31475c0.20899,-1.94127 2.62738,-3.24327 5.40161,-2.90811z"/><path d="M147.9086,326.7344c2.77423,0.33516 4.79135,2.76034 4.50536,5.41681c-0.28599,2.65646 -2.90441,4.82148 -5.67864,4.48632c-0.52105,-0.06295 -2.16853,0.56059 -2.62592,0.36251c-1.97789,-0.8566 -1.9741,-3.90501 -1.74182,-6.06254c0.28599,-2.65647 2.76679,-4.53825 5.54102,-4.20309z"/><path d="M148.61726,328.44418c0.73903,0.08929 1.43258,0.25047 2.0497,0.46403c1.69947,0.58811 2.81948,1.5734 2.71458,2.5478c-0.06175,0.57347 -0.99036,2.26908 -1.73458,2.59783c-0.9795,0.43267 -1.97108,-0.60926 -3.54752,-0.79971c-2.77423,-0.33516 -4.90727,-1.6836 -4.76428,-3.01184c0.14299,-1.32824 2.50787,-2.13328 5.2821,-1.79812z"/><path d="M138.31545,328.77381c1.75215,0.21168 3.05661,1.46001 2.91362,2.78825c-0.14299,1.32824 -1.6793,2.23338 -3.43145,2.0217c-1.30176,-0.15727 -2.39299,-1.06448 -3.07705,-2.13606c-0.23667,-0.37074 -0.88303,-0.88253 -0.84628,-1.22394c0.09612,-0.89284 1.25417,-1.11415 2.55092,-1.24456c0.63236,-0.06359 1.3159,-0.27477 1.89025,-0.20538z"/><path d="M140.74384,326.11867c1.75215,0.21168 3.05662,1.46002 2.91363,2.78826c-0.14299,1.32824 -1.67931,2.23338 -3.43146,2.0217c-1.75215,-0.21168 -3.05662,-1.46001 -2.91363,-2.78825c0.07176,-0.66658 0.78781,-0.96628 1.41258,-1.33206c0.62015,-0.36307 1.14606,-0.79509 2.01887,-0.68964z"/><path d="M145.02364,324.63675c1.20779,0.14592 1.62321,1.07787 2.73931,1.65058c1.12574,0.57767 2.94656,0.79944 2.84715,1.72294c-0.19799,1.83909 -3.87741,3.57951 -6.30346,3.28641c-2.42605,-0.29309 -4.23224,-2.02159 -4.03425,-3.86067c0.02465,-0.22901 -0.296,-0.94403 -0.21465,-1.15302c0.27533,-0.7074 1.04207,-1.08794 1.89885,-1.35374c0.9228,-0.28627 1.96569,-0.42557 3.06706,-0.29251z"/></g><g fill="#573007"><path d="M154.02442,308.04995c-0.54517,1.36334 -2.30356,2.18511 -3.92749,1.83548c-1.62394,-0.34963 -2.49844,-1.73826 -1.95327,-3.1016c0.54517,-1.36334 2.16142,-1.82964 3.78535,-1.48001c0.97367,0.20963 1.72903,0.66499 2.06033,1.2899c0.22126,0.41735 0.25338,0.91032 0.03508,1.45623z"/><path d="M152.82651,310.20499c-0.62149,1.5542 -2.44175,2.53071 -4.06569,2.18107c-1.62394,-0.34963 -2.43657,-1.89299 -1.81508,-3.44719c0.35733,-0.89361 2.09682,-3.89347 1.99573,-1.96564c-0.03279,0.62537 1.37974,-0.36403 2.06997,-0.21543c1.62394,0.34963 2.43656,1.89299 1.81507,3.44719z"/><path d="M155.49879,313.89036c-0.62149,1.5542 -2.92677,2.42628 -5.14899,1.94784c-2.22222,-0.47844 -3.74378,-2.23878 -3.12229,-3.79298c0.11673,-0.29191 -0.21307,-1.31214 0.01074,-1.5515c0.96785,-1.03503 3.55732,-0.67237 5.36217,-0.28379c2.22222,0.47844 3.51986,2.12622 2.89837,3.68042z"/><path d="M153.96015,314.09531c-0.16556,0.41402 -0.38669,0.79341 -0.64304,1.12271c-0.70595,0.90682 -1.67899,1.43377 -2.49411,1.25828c-0.47973,-0.10328 -1.8076,-0.8373 -1.99657,-1.30374c-0.24871,-0.6139 0.75687,-1.06037 1.11003,-1.94354c0.62149,-1.5542 2.02604,-2.6202 3.13715,-2.38098c1.11111,0.23922 1.50802,1.69307 0.88653,3.24727z"/><path d="M154.93055,308.13779c-0.39252,0.98161 -1.61145,1.58342 -2.72256,1.3442c-1.11111,-0.23922 -1.69364,-1.22889 -1.30112,-2.21049c0.29163,-0.72929 1.19485,-1.24893 2.1883,-1.51522c0.34371,-0.09213 0.85698,-0.40295 1.14258,-0.34147c0.7469,0.16081 0.79436,0.85229 0.74775,1.61272c-0.02273,0.37082 0.07371,0.7885 -0.05495,1.11026z"/><path d="M156.89158,309.84691c-0.39252,0.98161 -1.61145,1.58342 -2.72256,1.3442c-1.11111,-0.23922 -1.69365,-1.22889 -1.30112,-2.21049c0.39252,-0.98161 1.61145,-1.58342 2.72257,-1.3442c0.55762,0.12005 0.72533,0.56688 0.96026,0.96907c0.23318,0.39922 0.53639,0.75245 0.34086,1.24142z"/><path d="M157.63114,312.48096c-0.27057,0.67664 -1.11279,0.8051 -1.73484,1.37859c-0.62743,0.57845 -1.03686,1.59831 -1.8094,1.43198c-1.53846,-0.33123 -2.57049,-2.65092 -2.02701,-4.01006c0.54349,-1.35915 2.23124,-2.19243 3.7697,-1.8612c0.19157,0.04125 0.83798,-0.05841 1.00566,0.01303c0.56759,0.24183 0.79783,0.72734 0.91965,1.251c0.13121,0.56402 0.12296,1.17964 -0.12377,1.79666z"/></g><g fill="#573007"><path d="M201.18327,336.55478c-0.57978,0.42162 -1.52008,0.30399 -2.10022,-0.26275c-0.58015,-0.56674 -0.58045,-1.36795 -0.00067,-1.78957c0.57978,-0.42162 1.36891,-0.19405 1.94906,0.37268c0.34784,0.3398 0.54158,0.72438 0.51599,1.06875c-0.01709,0.22999 -0.132,0.44206 -0.36415,0.61088z"/><path d="M200.1279,337.13383c-0.66094,0.48064 -1.66705,0.41086 -2.24719,-0.15588c-0.58015,-0.56674 -0.51465,-1.4158 0.1463,-1.89644c0.38002,-0.27635 1.87885,-1.06369 1.33581,-0.29334c-0.17616,0.2499 0.66481,0.20833 0.91139,0.44921c0.58015,0.56674 0.51465,1.4158 -0.1463,1.89645z"/><path d="M200.2739,339.35158c-0.66094,0.48064 -1.84031,0.24159 -2.6342,-0.53394c-0.79389,-0.77553 -0.96492,-1.8986 -0.30398,-2.37924c0.12414,-0.09027 0.25314,-0.59762 0.40786,-0.63833c0.66907,-0.17605 1.64483,0.64714 2.2896,1.27701c0.79389,0.77553 0.90165,1.79386 0.24071,2.2745z"/><path d="M199.58479,339.03619c-0.17607,0.12804 -0.3661,0.22732 -0.55765,0.29674c-0.52751,0.19117 -1.06662,0.1559 -1.35782,-0.12856c-0.17138,-0.16742 -0.52924,-0.81601 -0.48605,-1.0579c0.05685,-0.31835 0.58848,-0.24138 0.96406,-0.5145c0.66094,-0.48064 1.51853,-0.55594 1.91547,-0.16817c0.39694,0.38777 0.18293,1.09175 -0.47801,1.57239z"/><path d="M201.53487,336.82669c-0.41744,0.30357 -1.07762,0.23531 -1.47457,-0.15246c-0.39694,-0.38777 -0.38033,-0.9482 0.03711,-1.25177c0.31014,-0.22553 0.8185,-0.20541 1.29826,-0.05713c0.16599,0.0513 0.45891,0.05632 0.56094,0.15599c0.26683,0.26066 0.10664,0.55874 -0.11035,0.86086c-0.10581,0.14732 -0.17457,0.345 -0.3114,0.44451z"/><path d="M201.90082,338.04286c-0.41744,0.30357 -1.07762,0.23531 -1.47457,-0.15246c-0.39694,-0.38777 -0.38033,-0.9482 0.03711,-1.25176c0.41744,-0.30357 1.07763,-0.23531 1.47457,0.15246c0.19921,0.1946 0.15233,0.42285 0.14483,0.65014c-0.00745,0.2256 0.026,0.45041 -0.18194,0.60163z"/><path d="M201.52152,339.32363c-0.28775,0.20925 -0.66918,0.04335 -1.07535,0.11858c-0.40968,0.07589 -0.84406,0.39087 -1.12005,0.12126c-0.54961,-0.5369 -0.37291,-1.76383 0.20508,-2.18415c0.57799,-0.42032 1.4921,-0.32581 2.04171,0.2111c0.06844,0.06686 0.36147,0.19375 0.41218,0.26688c0.17167,0.24752 0.14056,0.50801 0.05474,0.75608c-0.09244,0.26719 -0.25592,0.51944 -0.51831,0.71025z"/></g></g></g></svg>