<svg version="1.1" xmlns="http://www.w3.org/2000/svg" xmlns:xlink="http://www.w3.org/1999/xlink" width="466.5" height="479.0272" viewBox="0,0,466.5,479.0272"><defs><linearGradient x1="237.83515" y1="-27.23252" x2="237.83515" y2="289.21358" gradientUnits="userSpaceOnUse" id="color-1"><stop offset="0" stop-color="#e15634"/><stop offset="1" stop-color="#cb9e64"/></linearGradient><radialGradient cx="213.91667" cy="138.08333" r="86.58333" gradientUnits="userSpaceOnUse" id="color-2"><stop offset="0" stop-color="#fcca00"/><stop offset="1" stop-color="#fcca00" stop-opacity="0"/></radialGradient></defs><g transform="translate(-6.75,27.23252)"><g data-paper-data="{&quot;isPaintingLayer&quot;:true}" fill-rule="nonzero" stroke-linecap="butt" stroke-linejoin="miter" stroke-miterlimit="10" stroke-dasharray="" stroke-dashoffset="0" style="mix-blend-mode: normal"><path d="M71.49747,289.21358v-316.4461h332.67537v316.4461c0,0 -235.62858,0 -289.42284,0c-8.81366,0 -17.92567,0 -25.5,0c-10.29725,0 -17.75253,0 -17.75253,0z" fill="url(#color-1)" stroke="none" stroke-width="0"/><g fill="#573007" stroke="none" stroke-width="0"><path d="M143.85,192.50082c0,2.30119 -2.12664,4.16667 -4.75,4.16667c-2.62336,0 -4.75,-1.86548 -4.75,-4.16667c0,-2.30119 2.12664,-3.56667 4.75,-3.56667c1.5729,0 2.96724,0.45494 3.83169,1.31527c0.57732,0.57457 0.91831,1.32995 0.91831,2.2514z"/><path d="M143.35,196.25082c0,2.62335 -2.12664,4.75 -4.75,4.75c-2.62336,0 -4.75,-2.12665 -4.75,-4.75c0,-1.50833 0.80304,-6.75247 1.7993,-3.72259c0.32318,0.98287 1.83568,-1.02741 2.9507,-1.02741c2.62336,0 4.75,2.12665 4.75,4.75z"/><path d="M149.51666,201.08415c0,2.62335 -2.91014,4.75 -6.5,4.75c-3.58985,0 -6.9,-2.22665 -6.9,-4.85c0,-0.49272 -1.09734,-1.96792 -0.9068,-2.41479c0.82395,-1.9324 4.89119,-2.23521 7.8068,-2.23521c3.58986,0 6.5,2.12665 6.5,4.75z"/><path d="M147.35,201.91749c0,0.69884 -0.10326,1.36244 -0.28869,1.95997c-0.51066,1.64551 -1.64454,2.79003 -2.96131,2.79003c-0.77497,0 -3.18659,-0.69644 -3.74509,-1.35811c-0.73506,-0.87086 0.49509,-1.90118 0.49509,-3.39189c0,-2.62335 1.45507,-4.75 3.25,-4.75c1.79493,0 3.25,2.12665 3.25,4.75z"/><path d="M145.25,192.33415c0,1.65686 -1.45507,3 -3.25,3c-1.79493,0 -3.25,-1.34314 -3.25,-3c0,-1.23097 1.03437,-2.34077 2.35363,-3.08701c0.45643,-0.25818 1.03499,-0.91299 1.49636,-0.91299c1.20656,0 1.68843,1.05877 2.07138,2.25615c0.18675,0.5839 0.57862,1.20075 0.57862,1.74386z"/><path d="M149.18334,194.33415c0,1.65686 -1.45507,3 -3.25,3c-1.79493,0 -3.25,-1.34314 -3.25,-3c0,-1.65686 1.45507,-3 3.25,-3c0.9008,0 1.416,0.63829 2.00465,1.18474c0.58428,0.54241 1.24535,0.98991 1.24535,1.81526z"/><path d="M151.85,198.18031c0,1.14211 -1.17629,1.62356 -1.76042,2.72296c-0.58919,1.10891 -0.59159,2.83088 -1.83957,2.83088c-2.48528,0 -5.4,-3.25974 -5.4,-5.55384c0,-2.29411 2.01472,-4.15385 4.5,-4.15385c0.30947,0 1.21166,-0.37117 1.50356,-0.31624c0.98806,0.18591 1.61927,0.86341 2.11193,1.63648c0.53062,0.83264 0.88451,1.79215 0.88451,2.83362z"/></g><path d="M468.75,360.79468c0,40.59293 -101.29558,73.5 -226.25,73.5c-124.95442,0 -226.25,-32.90707 -226.25,-73.5c0,-40.59293 101.29558,-73.5 226.25,-73.5c124.95442,0 226.25,32.90707 226.25,73.5z" fill="#931a00" stroke="none" stroke-width="0"/><path d="M6.75,449.29468v-162h466.5v162z" fill="#931a00" stroke="none" stroke-width="0"/><path d="M428.75,372.54468c0,43.76857 -83.83468,79.25 -187.25,79.25c-103.41532,0 -187.25,-35.48143 -187.25,-79.25c0,-43.76857 83.83468,-79.25 187.25,-79.25c103.41532,0 187.25,35.48143 187.25,79.25z" fill="#9d1a01" stroke="none" stroke-width="0"/><path d="M334.66667,361.83333c0,33.13708 -42.08523,60 -94,60c-51.91477,0 -94,-26.86292 -94,-60c0,-33.13708 42.08523,-60 94,-60c51.91477,0 94,26.86292 94,60z" fill="#af2000" stroke="none" stroke-width="0"/><path d="M360.53118,338.40007c-1.25413,2.92044 -7.83698,3.89759 -14.70325,2.18254c-6.86625,-1.71506 -11.41577,-5.47286 -10.16166,-8.39332c1.25413,-2.92044 7.83698,-3.89759 14.70325,-2.18254c6.86625,1.71506 11.41577,5.47286 10.16166,8.39332z" fill="#8a1801" stroke="#af2007" stroke-width="1.5"/><path d="M308.68122,306.69422c-0.5862,1.49606 -3.89656,2.09687 -7.3939,1.34194c-3.49734,-0.75493 -5.85727,-2.57972 -5.27108,-4.07579c0.5862,-1.49606 3.89656,-2.09687 7.3939,-1.34194c3.49734,0.75493 5.85727,2.57972 5.27108,4.07579z" fill="#941a01" stroke="#a81f07" stroke-width="1.5"/><path d="M355.20468,298.27811c-0.86537,1.21079 -6.09146,1.46303 -11.67283,0.56341c-5.58136,-0.89963 -9.40441,-2.61045 -8.53906,-3.82125c0.86537,-1.21079 6.09146,-1.46303 11.67283,-0.56341c5.58136,0.89963 9.40441,2.61045 8.53906,3.82125z" fill="#8a1801" stroke="#9c1d00" stroke-width="1.5"/><g fill="#573007" stroke="none" stroke-width="0"><path d="M279.23891,78.25433c-0.60403,-0.75604 -0.59403,-1.76347 0.02235,-2.25015c0.61638,-0.48668 1.60571,-0.26833 2.20974,0.48772c0.60403,0.75604 0.43654,1.56634 -0.17984,2.05302c-0.36957,0.2918 -0.81659,0.40102 -1.24552,0.27873c-0.28646,-0.08167 -0.56486,-0.26658 -0.80673,-0.56932z"/><path d="M278.37206,76.92953c-0.68859,-0.86188 -0.74715,-1.95511 -0.13077,-2.4418c0.61638,-0.48668 1.67427,-0.18252 2.36286,0.67937c0.39592,0.49556 1.58376,2.36746 0.55438,1.55684c-0.33393,-0.26296 -0.16162,0.6781 -0.42361,0.88496c-0.61638,0.48668 -1.67427,0.18252 -2.36286,-0.67937z"/><path d="M275.65447,76.4856c-0.68859,-0.86188 -0.56306,-2.10047 0.2804,-2.76646c0.84346,-0.66599 2.20567,-0.54853 2.89426,0.31335c0.12934,0.16188 0.77438,0.44297 0.84691,0.62514c0.31364,0.78774 -0.5625,1.64178 -1.24754,2.18268c-0.84346,0.66599 -2.08544,0.50718 -2.77403,-0.35471z"/><path d="M275.9448,75.80985c-0.18344,-0.2296 -0.33336,-0.46677 -0.44664,-0.69749c-0.31194,-0.63537 -0.34596,-1.22175 -0.03657,-1.46603c0.18208,-0.14377 0.93151,-0.36237 1.23642,-0.24859c0.40129,0.14975 0.38271,0.71647 0.774,1.20623c0.68859,0.86188 0.90494,1.83053 0.48321,2.16352c-0.42173,0.33299 -1.32183,-0.09576 -2.01042,-0.95765z"/><path d="M278.95371,78.56881c-0.4349,-0.54435 -0.44559,-1.25558 -0.02386,-1.58857c0.42173,-0.33299 1.11617,-0.16166 1.55107,0.38269c0.32311,0.40443 0.37139,0.96095 0.2573,1.45086c-0.03947,0.1695 -0.00353,0.49197 -0.11193,0.57756c-0.28349,0.22384 -0.67462,-0.03461 -1.07889,-0.35696c-0.19714,-0.15719 -0.45113,-0.28715 -0.59369,-0.46559z"/><path d="M277.50458,78.64143c-0.4349,-0.54435 -0.44558,-1.25557 -0.02386,-1.58857c0.42173,-0.33299 1.11617,-0.16166 1.55107,0.38269c0.4349,0.54435 0.44559,1.25558 0.02386,1.58857c-0.21165,0.16712 -0.50024,0.05299 -0.78199,-0.01734c-0.27965,-0.06981 -0.55244,-0.0942 -0.76909,-0.36536z"/><path d="M275.86846,77.87252c-0.29979,-0.37523 -0.14979,-0.75164 -0.30112,-1.22121c-0.15264,-0.47363 -0.60407,-1.03982 -0.31085,-1.27134c0.58393,-0.46107 2.12441,0.06916 2.72658,0.82288c0.60218,0.75371 0.61696,1.7385 0.03303,2.19956c-0.07271,0.05742 -0.18726,0.34673 -0.27026,0.38284c-0.28095,0.12222 -0.60709,0.01674 -0.92577,-0.14585c-0.34323,-0.17512 -0.67824,-0.42471 -0.95161,-0.76687z"/></g><path d="M128.98214,323.95313c5.64406,-1.12245 11.05515,-0.48293 12.08605,1.42841c1.03088,1.91136 -2.70882,4.37073 -8.35287,5.49318c-5.64406,1.12245 -11.05515,0.48293 -12.08605,-1.42841c-1.03088,-1.91136 2.70882,-4.37073 8.35287,-5.49318z" data-paper-data="{&quot;index&quot;:null}" fill="#8a1801" stroke="#af2007" stroke-width="1.5"/><g fill="#573007" stroke="none" stroke-width="0"><path d="M152.9168,190.02865c-0.21688,-0.7714 0.32019,-1.59718 1.19959,-1.84442c0.87939,-0.24724 1.7681,0.17767 1.98498,0.94907c0.21688,0.7714 -0.37674,1.39604 -1.25613,1.64328c-0.52726,0.14824 -1.03755,0.12715 -1.40841,-0.07977c-0.24768,-0.1382 -0.43318,-0.35927 -0.52002,-0.66816z"/><path d="M152.73098,188.72446c-0.24724,-0.87939 0.26522,-1.79272 1.14461,-2.03996c0.87939,-0.24724 1.79272,0.26522 2.03996,1.14461c0.14216,0.50562 0.36721,2.33923 -0.25231,1.41746c-0.20097,-0.29902 -0.51852,0.51742 -0.89229,0.62251c-0.87939,0.24724 -1.79272,-0.26522 -2.03996,-1.14461z"/><path d="M150.20828,187.68544c-0.24724,-0.87939 0.52785,-1.86656 1.73124,-2.20489c1.20339,-0.33834 2.52286,0.0961 2.77011,0.97549c0.04644,0.16517 0.55332,0.55626 0.53156,0.72402c-0.09407,0.72543 -1.42895,1.21026 -2.40631,1.48506c-1.20339,0.33834 -2.37935,-0.10028 -2.62659,-0.97968z"/><path d="M150.85604,187.20188c-0.06586,-0.23426 -0.09379,-0.46645 -0.08795,-0.68423c0.0161,-0.59973 0.28832,-1.09026 0.72973,-1.21437c0.25979,-0.07304 1.13383,-0.06687 1.38342,0.1023c0.32848,0.22265 0.01322,0.68397 0.15371,1.18368c0.24724,0.87939 -0.04008,1.72943 -0.64178,1.89859c-0.60169,0.16917 -1.28989,-0.40659 -1.53713,-1.28598z"/><path d="M152.46321,190.21647c-0.15616,-0.55541 0.20502,-1.14279 0.80671,-1.31196c0.60169,-0.16917 1.21605,0.14394 1.37221,0.69935c0.11601,0.41264 -0.12613,0.88216 -0.49804,1.25665c-0.12867,0.12956 -0.26089,0.40359 -0.41555,0.44708c-0.40446,0.11371 -0.66578,-0.19578 -0.907,-0.56107c-0.11763,-0.17813 -0.30713,-0.34798 -0.35832,-0.53004z"/><path d="M150.95619,189.91674c-0.15616,-0.55541 0.20502,-1.14279 0.80672,-1.31196c0.60169,-0.16917 1.21604,0.14394 1.3722,0.69935c0.15616,0.55541 -0.20502,1.14279 -0.80671,1.31196c-0.30196,0.0849 -0.53483,-0.08052 -0.78366,-0.20822c-0.24698,-0.12676 -0.51076,-0.21446 -0.58855,-0.49113z"/><path d="M149.69978,188.87877c-0.10764,-0.38286 0.2413,-0.65511 0.33349,-1.0787c0.093,-0.42726 -0.0685,-1.00472 0.34985,-1.12234c0.83311,-0.23423 2.1174,0.58379 2.33362,1.35281c0.21622,0.76902 -0.28388,1.58233 -1.11699,1.81656c-0.10374,0.02917 -0.37119,0.23862 -0.47421,0.24771c-0.34873,0.0308 -0.62418,-0.13682 -0.86219,-0.34953c-0.25634,-0.2291 -0.4654,-0.51739 -0.56356,-0.86651z"/></g><g fill="#573007" stroke="none" stroke-width="0"><path d="M290.43959,76.72133c0.11329,-0.96105 0.83697,-1.66198 1.61638,-1.56556c0.77941,0.09641 1.31941,0.95365 1.20611,1.91471c-0.11329,0.96105 -0.80743,1.41139 -1.58684,1.31498c-0.46732,-0.05781 -0.85919,-0.29904 -1.07366,-0.69012c-0.14324,-0.26118 -0.20736,-0.58918 -0.16199,-0.97401z"/><path d="M290.77276,75.17358c0.12915,-1.09559 0.86568,-1.90559 1.6451,-1.80918c0.77941,0.09641 1.30655,1.06273 1.17739,2.15832c-0.07426,0.62993 -0.57103,2.79054 -0.71785,1.48855c-0.04763,-0.42236 -0.59597,0.36161 -0.92725,0.32063c-0.77941,-0.09641 -1.30655,-1.06273 -1.1774,-2.15833z"/><path d="M289.17857,72.92839c0.12915,-1.09559 1.09846,-1.8768 2.16503,-1.74487c1.06657,0.13193 1.94041,1.18351 1.81125,2.27911c-0.02426,0.20578 0.22914,0.8622 0.15053,1.04182c-0.33993,0.77675 -1.56325,0.75374 -2.42949,0.64658c-1.06657,-0.13193 -1.82648,-1.12705 -1.69733,-2.22264z"/><path d="M289.86332,72.65999c0.03441,-0.29186 0.09775,-0.5652 0.18227,-0.80794c0.23274,-0.66845 0.62596,-1.10477 1.01718,-1.05638c0.23024,0.02848 0.91246,0.40797 1.04582,0.70484c0.17552,0.39071 -0.24069,0.77581 -0.31408,1.39836c-0.12915,1.09559 -0.66616,1.93028 -1.19944,1.86432c-0.53328,-0.06597 -0.86089,-1.0076 -0.73174,-2.1032z"/><path d="M290.01544,76.73948c0.08157,-0.69196 0.58,-1.19942 1.11329,-1.13345c0.53328,0.06597 0.89947,0.68038 0.8179,1.37234c-0.0606,0.5141 -0.42256,0.93957 -0.85126,1.20274c-0.14832,0.09105 -0.35245,0.34326 -0.48953,0.3263c-0.35847,-0.04434 -0.44952,-0.50423 -0.50434,-1.01837c-0.02674,-0.25072 -0.1128,-0.52274 -0.08606,-0.74956z"/><path d="M288.94529,75.75966c0.08157,-0.69196 0.58,-1.19942 1.11329,-1.13345c0.53328,0.06597 0.89946,0.68038 0.81789,1.37234c-0.08157,0.69196 -0.58,1.19942 -1.11329,1.13345c-0.26764,-0.0331 -0.38928,-0.31861 -0.53727,-0.56846c-0.14689,-0.248 -0.32126,-0.45919 -0.28063,-0.80388z"/><path d="M288.34236,74.05537c0.05623,-0.47698 0.42941,-0.63482 0.65708,-1.0725c0.22964,-0.44146 0.31514,-1.16052 0.68592,-1.11466c0.73839,0.09134 1.44388,1.55984 1.33094,2.51793c-0.11294,0.95809 -0.80309,1.66074 -1.54148,1.5694c-0.09195,-0.01137 -0.37826,0.11048 -0.46228,0.07682c-0.2844,-0.11396 -0.43859,-0.4201 -0.54689,-0.76107c-0.11666,-0.36724 -0.17456,-0.78097 -0.12329,-1.21592z"/></g><g fill="#573007" stroke="none" stroke-width="0"><path d="M160.77064,198.4353c-0.55438,-0.57858 -0.46909,-1.55995 0.19049,-2.19194c0.65958,-0.63199 1.64369,-0.67529 2.19807,-0.09671c0.55438,0.57858 0.32455,1.40909 -0.33503,2.04108c-0.39547,0.37893 -0.85565,0.60046 -1.28026,0.5924c-0.28358,-0.00538 -0.55129,-0.11316 -0.77327,-0.34483z"/><path d="M159.99294,197.37199c-0.63199,-0.65958 -0.60963,-1.70661 0.04996,-2.3386c0.65958,-0.63199 1.70661,-0.60963 2.3386,0.04996c0.36337,0.37924 1.42483,1.89122 0.44441,1.36943c-0.31804,-0.16926 -0.21403,0.70056 -0.49437,0.96918c-0.65958,0.63199 -1.70661,0.60962 -2.33861,-0.04996z"/><path d="M157.27807,197.64237c-0.63199,-0.65958 -0.41263,-1.89537 0.48995,-2.7602c0.90259,-0.86483 2.27127,-1.10244 2.90327,-0.44286c0.1187,0.12388 0.74999,0.23043 0.80974,0.38869c0.25837,0.68435 -0.6913,1.74033 -1.42436,2.44273c-0.90259,0.86483 -2.14661,1.03122 -2.7786,0.37164z"/><path d="M157.62207,196.91087c-0.16836,-0.17571 -0.30226,-0.36743 -0.39959,-0.56234c-0.26803,-0.53675 -0.25867,-1.09768 0.0724,-1.4149c0.19485,-0.1867 0.96897,-0.59258 1.2688,-0.56076c0.39462,0.04187 0.33354,0.59728 0.69266,0.97209c0.63199,0.65958 0.77848,1.54482 0.32719,1.97724c-0.45129,0.43242 -1.32947,0.24826 -1.96147,-0.41133z"/><path d="M160.45879,198.81448c-0.39915,-0.41658 -0.35689,-1.10482 0.09441,-1.53724c0.45129,-0.43242 1.14072,-0.44526 1.53987,-0.02868c0.29655,0.3095 0.30385,0.83773 0.15192,1.34318c-0.05256,0.17487 -0.04027,0.47889 -0.15628,0.59004c-0.30336,0.29067 -0.67958,0.14056 -1.06433,-0.06824c-0.18762,-0.10182 -0.43475,-0.16251 -0.56559,-0.29906z"/><path d="M158.98802,199.2592c-0.39915,-0.41658 -0.35688,-1.10483 0.09441,-1.53724c0.45129,-0.43242 1.14072,-0.44525 1.53987,-0.02867c0.39915,0.41658 0.35689,1.10482 -0.09441,1.53724c-0.22648,0.21701 -0.50979,0.18065 -0.78944,0.18506c-0.27758,0.00438 -0.5516,0.05113 -0.75043,-0.15639z"/><path d="M157.39097,198.9346c-0.27515,-0.28716 -0.09538,-0.69159 -0.21337,-1.10873c-0.11901,-0.42076 -0.53325,-0.85428 -0.21947,-1.15493c0.62487,-0.59873 2.14301,-0.48133 2.69569,0.09547c0.55267,0.5768 0.49415,1.52976 -0.13072,2.12849c-0.07781,0.07456 -0.21523,0.38522 -0.30185,0.44173c-0.29321,0.19129 -0.61513,0.17301 -0.92524,0.09733c-0.334,-0.08152 -0.65413,-0.23751 -0.90504,-0.49936z"/></g><path d="M190.28732,301.56472c3.49734,-0.63055 6.8077,-0.12873 7.3939,1.12085c0.58619,1.24959 -1.77374,2.77374 -5.27108,3.4043c-3.49734,0.63055 -6.8077,0.12873 -7.3939,-1.12085c-0.58619,-1.24959 1.77374,-2.77374 5.27108,-3.4043z" data-paper-data="{&quot;index&quot;:null}" fill="#941a01" stroke="#a81f07" stroke-width="1.5"/><g fill="#573007" stroke="none" stroke-width="0"><path d="M170.80373,176.42232c1.06352,-0.95174 2.80525,-0.74042 3.89022,0.47201c1.08498,1.21242 1.10237,2.96682 0.03884,3.91856c-1.06352,0.95174 -2.52794,0.49227 -3.61292,-0.72016c-0.65053,-0.72694 -1.01695,-1.55951 -0.97687,-2.31485c0.02677,-0.50445 0.23485,-0.97447 0.66072,-1.35556z"/><path d="M172.74364,175.10245c1.21242,-1.08498 3.07484,-0.98167 4.15982,0.23075c1.08498,1.21242 0.98167,3.07484 -0.23075,4.15982c-0.6971,0.62382 -3.45288,2.42159 -2.46461,0.70804c0.32059,-0.55586 -1.23405,-0.42346 -1.69521,-0.93878c-1.08498,-1.21242 -0.98167,-3.07485 0.23075,-4.15983z"/><path d="M172.42699,170.25344c1.21242,-1.08498 3.39887,-0.61957 4.88359,1.03953c1.48472,1.65911 1.82468,4.10985 0.61225,5.19483c-0.22772,0.20378 -0.45566,1.32105 -0.741,1.41781c-1.23386,0.41842 -3.05596,-1.33608 -4.26182,-2.68357c-1.48472,-1.65911 -1.70545,-3.88363 -0.49303,-4.96861z"/><path d="M173.70823,170.91014c0.32297,-0.28903 0.67238,-0.51577 1.02523,-0.67719c0.9717,-0.44455 1.96961,-0.39388 2.51421,0.21469c0.32052,0.35817 0.99606,1.76076 0.92125,2.29254c-0.09847,0.6999 -1.08343,0.55749 -1.77238,1.17402c-1.21242,1.08498 -2.79709,1.29206 -3.53944,0.46251c-0.74236,-0.82955 -0.36129,-2.3816 0.85113,-3.46657z"/><path d="M170.14768,175.84422c0.76574,-0.68526 1.98829,-0.56828 2.73065,0.26127c0.74236,0.82955 0.72341,2.05755 -0.04233,2.7428c-0.56891,0.50911 -1.50963,0.49006 -2.40015,0.18897c-0.30809,-0.10416 -0.85,-0.10072 -1.04082,-0.31396c-0.49901,-0.55763 -0.20899,-1.21822 0.18601,-1.89043c0.19262,-0.3278 0.31564,-0.76403 0.56664,-0.98866z"/><path d="M169.44523,173.1992c0.76574,-0.68526 1.98829,-0.56828 2.73065,0.26128c0.74236,0.82955 0.7234,2.05754 -0.04234,2.74279c-0.76574,0.68526 -1.98829,0.56828 -2.73065,-0.26127c-0.37256,-0.41632 -0.29064,-0.91843 -0.28154,-1.41648c0.00903,-0.49437 -0.05756,-0.98497 0.32388,-1.32632z"/><path d="M170.1199,170.37605c0.52785,-0.47236 1.23684,-0.12784 1.98654,-0.31257c0.75618,-0.18633 1.553,-0.89741 2.06916,-0.32063c1.02788,1.1486 0.72683,3.84388 -0.33343,4.79269c-1.06025,0.94881 -2.75303,0.78684 -3.7809,-0.36177c-0.12799,-0.14303 -0.67266,-0.40647 -0.768,-0.5641c-0.32273,-0.53353 -0.27067,-1.10547 -0.11714,-1.65289c0.16536,-0.5896 0.46244,-1.14999 0.94377,-1.58073z"/></g><g fill="#573007" stroke="none" stroke-width="0"><path d="M163.75922,182.14595c1.0762,0.68894 1.31194,2.24201 0.52655,3.46888c-0.7854,1.22686 -2.29451,1.66293 -3.37071,0.974c-1.0762,-0.68894 -1.03134,-2.06238 -0.24595,-3.28924c0.4709,-0.7356 1.10111,-1.2515 1.76226,-1.3982c0.44155,-0.09798 0.89691,-0.0313 1.32784,0.24457z"/><path d="M165.36329,183.50248c1.22686,0.7854 1.58475,2.41665 0.79936,3.64352c-0.7854,1.22686 -2.41665,1.58475 -3.64352,0.79936c-0.7054,-0.45157 -2.91751,-2.39714 -1.20226,-1.95597c0.55642,0.14312 0.06908,-1.16608 0.4029,-1.68755c0.7854,-1.22686 2.41666,-1.58475 3.64352,-0.79936z"/><path d="M169.4699,182.06554c1.22686,0.7854 1.35018,2.78306 0.27544,4.46193c-1.07475,1.67887 -3.10709,2.56032 -4.33395,1.77492c-0.23043,-0.14752 -1.24886,-0.07597 -1.40081,-0.29887c-0.65705,-0.96387 0.419,-2.95665 1.29188,-4.3202c1.07475,-1.67887 2.94058,-2.40318 4.16744,-1.61778z"/><path d="M169.21096,183.32831c0.32682,0.20922 0.60626,0.45618 0.83019,0.7218c0.61667,0.73146 0.81247,1.60439 0.41825,2.22021c-0.23201,0.36243 -1.27971,1.28177 -1.75637,1.34487c-0.62735,0.08305 -0.7409,-0.80073 -1.43806,-1.24703c-1.22686,-0.7854 -1.78582,-2.10257 -1.24845,-2.94201c0.53738,-0.83943 1.96757,-0.88324 3.19444,-0.09785z"/><path d="M164.10041,181.44131c0.77486,0.49604 0.96739,1.57865 0.43002,2.41808c-0.53738,0.83943 -1.60115,1.11782 -2.37601,0.62178c-0.57568,-0.36853 -0.78504,-1.18455 -0.73906,-2.02494c0.01591,-0.29075 -0.11713,-0.75736 0.02101,-0.97313c0.36122,-0.56427 1.00064,-0.47265 1.67527,-0.29327c0.32898,0.08748 0.73479,0.08889 0.98878,0.25148z"/><path d="M166.21334,180.20058c0.77486,0.49604 0.96738,1.57865 0.43001,2.41808c-0.53738,0.83943 -1.60115,1.11781 -2.37601,0.62178c-0.77486,-0.49604 -0.96739,-1.57864 -0.43002,-2.41808c0.26968,-0.42127 0.72245,-0.47113 1.15424,-0.58282c0.42859,-0.11087 0.83579,-0.28605 1.22178,-0.03896z"/><path d="M168.81043,180.10494c0.53413,0.34193 0.40713,1.03618 0.7464,1.63851c0.34221,0.60754 1.14681,1.12419 0.77318,1.70784c-0.74405,1.16229 -3.14116,1.5495 -4.21405,0.86268c-1.07289,-0.68682 -1.33945,-2.18583 -0.5954,-3.34812c0.09265,-0.14473 0.18917,-0.67777 0.30225,-0.79784c0.38275,-0.40642 0.88858,-0.4988 1.39762,-0.49776c0.54825,0.00112 1.10293,0.12288 1.59,0.43468z"/></g><g fill="#573007" stroke="none" stroke-width="0"><path d="M272.93327,94.87235c-2.40361,-0.45369 -3.75696,-2.38629 -3.02276,-4.3166c0.7342,-1.93031 3.27788,-3.12734 5.6815,-2.67364c2.40361,0.45369 3.13024,2.26801 2.39606,4.19831c-0.44022,1.15737 -1.30562,2.09366 -2.44618,2.56011c-0.76172,0.31152 -1.64615,0.4135 -2.60862,0.23183z"/><path d="M269.15629,93.76512c-2.74012,-0.5172 -4.36625,-2.5013 -3.63206,-4.43161c0.7342,-1.93031 3.55069,-3.07585 6.2908,-2.55863c1.57548,0.29738 6.82829,1.92217 3.38474,2.05788c-1.11707,0.04402 0.55939,1.55329 0.24734,2.37373c-0.7342,1.93031 -3.55069,3.07585 -6.29081,2.55865z"/><path d="M262.38195,97.34973c-2.74012,-0.5172 -4.14698,-3.07781 -3.14229,-5.71929c1.00468,-2.64147 4.25685,-4.63814 6.99697,-4.12093c0.51466,0.09714 2.36262,-0.41946 2.77607,-0.19114c1.78782,0.98726 0.96583,4.03971 0.14984,6.18506c-1.00468,2.64147 -4.04045,4.36352 -6.78057,3.84632z"/><path d="M262.1179,95.59116c-0.72994,-0.13778 -1.39418,-0.34459 -1.96641,-0.59885c-1.57584,-0.70019 -2.45399,-1.76014 -2.08545,-2.72905c0.21688,-0.57023 1.61925,-2.20743 2.4667,-2.48794c1.11534,-0.36918 1.84726,0.73912 3.4043,1.03302c2.74012,0.5172 4.55422,2.00715 4.05188,3.32789c-0.50234,1.32073 -3.13089,1.97212 -5.871,1.45492z"/><path d="M272.71553,95.93535c-1.73061,-0.32666 -2.72631,-1.66213 -2.22397,-2.98286c0.50234,-1.32073 2.31249,-2.1266 4.0431,-1.79994c1.28576,0.24269 2.15548,1.22261 2.56572,2.34046c0.14193,0.38675 0.66398,0.94156 0.53485,1.28105c-0.33767,0.88781 -1.57843,1.03363 -2.93628,1.07934c-0.66215,0.0223 -1.41614,0.18903 -1.98343,0.08195z"/><path d="M269.52571,98.43525c-1.73061,-0.32666 -2.72631,-1.66213 -2.22397,-2.98286c0.50234,-1.32073 2.31249,-2.1266 4.0431,-1.79994c1.73061,0.32666 2.72631,1.66213 2.22397,2.98286c-0.2521,0.66283 -1.063,0.91608 -1.79852,1.24148c-0.73007,0.32298 -1.38251,0.72118 -2.2446,0.55847z"/><path d="M264.76204,99.63914c-1.19296,-0.22517 -1.36663,-1.18563 -2.35149,-1.83219c-0.99338,-0.65216 -2.79132,-0.99342 -2.44204,-1.91171c0.69555,-1.82871 4.91613,-3.33074 7.31235,-2.87843c2.39623,0.45229 3.7749,2.30142 3.07936,4.13013c-0.08661,0.22772 0.04859,0.96473 -0.09048,1.16869c-0.47071,0.69037 -1.35502,1.02127 -2.30039,1.23135c-1.0182,0.22628 -2.11947,0.2975 -3.20729,0.09217z"/></g><g stroke="none" stroke-width="0"><path d="M310.31774,281.73701c0,0 25.44207,-4.83396 27.72731,-10.03485c2.91647,-6.63747 11.62034,-26.54183 11.62034,-26.54183c0,0 2.09578,10.01955 3.83227,15.74996c1.93632,6.38984 11.13092,20.82672 11.13092,20.82672z" fill="#521a0a"/><path d="M350.02517,280.2263l-36.74206,0.25047c0,0 8.1977,-9.31779 10.76703,-13.55867c2.10852,-3.48028 3.54156,-10.05876 3.54156,-10.05876c0,0 3.49643,9.85333 6.95476,13.45557c2.14186,2.23099 9.27767,-0.58789 12.82786,1.43907c3.00221,1.71409 2.65085,8.47232 2.65085,8.47232z" fill="#521a0a"/><path d="M209.57909,285.89346c0,0 12.12691,-11.72346 16.28526,-19.59024c4.20494,-7.95493 8.80615,-27.87785 8.80615,-27.87785c0,0 4.27852,19.68676 8.70388,28.05869c3.86129,7.30481 16.38753,19.4094 16.38753,19.4094z" fill="#521a0a"/><path d="M230.45491,280.38441c0,0 11.87488,-6.86482 16.70352,-12.25409c4.88275,-5.44965 12.43244,-20.26466 12.43244,-20.26466c0,0 -0.49671,16.37544 1.34825,23.85182c1.60978,6.52342 9.11244,18.5386 9.11244,18.5386z" fill="#521a0a"/><path d="M106.375,264.00286c0,0 12.27967,-14.0918 16.27017,-19.71941c2.60309,-3.67103 5.34333,-10.76116 5.34333,-10.76116c0,0 0.35526,19.06788 7.84345,25.48633c3.44182,2.95013 19.89682,-4.70439 27.99968,-2.62102c7.51,1.93093 6.82968,13.71138 6.82968,13.71138z" fill="#521a0a"/><path d="M276.51202,286.17055c0,0 28.66101,-16.28708 30.75665,-21.40042c2.46303,-6.00979 5.26585,-20.71819 5.26585,-20.71819c0,0 0.79641,12.64362 2.50407,18.4307c1.61197,5.46279 7.47139,18.70018 7.47139,18.70018c0,0 -3.02249,1.4717 -7.23109,1.32686c-2.97465,-0.10237 -6.54183,-2.12164 -10.05315,-1.14925c-7.45128,2.06349 -14.39848,5.30113 -18.36635,6.01821c-5.83728,1.05493 -10.34736,-1.2081 -10.34736,-1.2081z" fill="#6b1d08"/><path d="M136.30138,272.31575c0,0 22.94844,-13.81036 25.6014,-19.77952c3.16693,-7.1256 8.75852,-25.66424 8.75852,-25.66424c0,0 2.45967,17.31956 5.48945,24.59105c2.32101,5.57043 11.13631,15.31079 11.13631,15.31079c0,0 -9.36887,5.57237 -16.04958,6.29854c-9.38049,1.01962 -34.93611,-0.75661 -34.93611,-0.75661z" fill="#6b1d08"/><path d="M340.79832,278.96605c0,0 8.23536,-7.1255 11.32441,-11.46687c3.65148,-5.1318 9.1807,-17.35113 9.1807,-17.35113l15.51738,27.15542z" data-paper-data="{&quot;index&quot;:null}" fill="#931e03"/><path d="M114.13369,298.91697l-0.55419,-62.06953c0,0 11.59135,20.13304 23.41852,23.98583c12.51805,4.07785 47.51809,0.95282 47.51809,0.95282c0,0 2.19058,4.83406 7.06551,10.06702c6.76339,7.26012 39.91963,-0.82517 37.96201,1.22011c-0.6442,0.67305 11.06013,5.95029 32.58996,8.38981c19.38714,2.19673 46.02515,-18.84233 63.14775,-6.93536c10.13718,7.04934 33.47867,-36.19612 42.38384,-31.53769c10.701,5.59786 3.50648,48.67802 1.43758,49.39405c-24.46904,8.46855 -221.71751,8.19552 -221.71751,8.19552z" fill="#8b1c03"/><path d="M106.92919,301.13374v-44.33538c0,0 29.33917,18.84253 48.76892,18.84253c14.12888,0 21.94556,-6.24292 52.01253,-8.7403c14.30902,24.02995 42.7407,23.25558 69.82371,21.67503c12.12822,-2.96738 24.5586,-6.48594 36.34958,-10.08209c9.55018,-2.91273 14.16525,3.58891 20.65469,0.08828c16.93961,-9.13781 27.31899,-28.43375 27.31899,-28.43375c0,0 10.40301,14.15123 12.78764,21.98647c2.73867,8.99845 2.72974,28.99921 2.72974,28.99921z" fill="#961a00"/></g><path d="M127.33333,138.08333c0,-47.81866 38.76468,-86.58333 86.58333,-86.58333c47.81866,0 86.58333,38.76468 86.58333,86.58333c0,47.81866 -38.76468,86.58333 -86.58333,86.58333c-22.47676,0 -42.95314,-8.56463 -58.34366,-22.60842c-17.35238,-15.83397 -28.23967,-38.633 -28.23967,-63.9749z" fill="url(#color-2)" stroke="none" stroke-width="0"/><path d="M158.66753,136.25c0,-30.42121 24.66126,-55.08247 55.08247,-55.08247c30.4212,0 55.08247,24.66126 55.08247,55.08247c0,30.42121 -24.66127,55.08247 -55.08247,55.08247c-30.42121,0 -55.08247,-24.66126 -55.08247,-55.08247z" fill="#e09b39" stroke="none" stroke-width="0"/><path d="M162.375,136.25c0,-28.37363 23.00137,-51.375 51.375,-51.375c28.37363,0 51.375,23.00137 51.375,51.375c0,28.37363 -23.00137,51.375 -51.375,51.375c-28.37363,0 -51.375,-23.00137 -51.375,-51.375z" fill="#fcfffd" stroke="none" stroke-width="0"/><g fill="#573007" stroke="none" stroke-width="0"><path d="M131.35137,211.87922c-1.24237,0.43133 -2.64813,-0.36714 -3.13985,-1.78345c-0.49172,-1.41631 0.1168,-2.91411 1.35918,-3.34544c1.24237,-0.43133 2.3242,0.47961 2.81592,1.89591c0.29482,0.84919 0.31057,1.68724 0.00812,2.3152c-0.20199,0.41938 -0.54589,0.74506 -1.04337,0.91778z"/><path d="M129.23309,212.31218c-1.4163,0.49172 -2.96306,-0.2578 -3.45478,-1.67411c-0.49172,-1.41631 0.25781,-2.96307 1.67411,-3.45478c0.81433,-0.28272 3.79607,-0.83213 2.34703,0.27365c-0.47006,0.35871 0.89876,0.79848 1.10776,1.40046c0.49172,1.41631 -0.25781,2.96307 -1.67411,3.45479z"/><path d="M127.77952,216.54742c-1.4163,0.49172 -3.10992,-0.6808 -3.7828,-2.61891c-0.67288,-1.9381 -0.0912,-4.14256 1.3251,-4.63428c0.26601,-0.09236 0.85676,-0.9613 1.13374,-0.94219c1.19771,0.08263 2.12356,2.22171 2.67006,3.7958c0.67288,1.9381 0.07021,3.90786 -1.34609,4.39958z"/><path d="M126.9235,215.53387c-0.37729,0.13099 -0.75491,0.19963 -1.11227,0.21151c-0.98411,0.03273 -1.81455,-0.36489 -2.06136,-1.0758c-0.14526,-0.41839 -0.2213,-1.85092 0.03125,-2.27648c0.33238,-0.56008 1.11922,-0.08907 1.92402,-0.36848c1.4163,-0.49172 2.83719,-0.10477 3.17363,0.86428c0.33644,0.96905 -0.53897,2.15324 -1.95527,2.64496z"/><path d="M131.70376,212.60382c-0.89451,0.31056 -1.89239,-0.22325 -2.22883,-1.1923c-0.33644,-0.96905 0.11596,-2.00638 1.01047,-2.31694c0.66458,-0.23073 1.45763,0.11969 2.10779,0.69206c0.22494,0.19803 0.68691,0.38764 0.77339,0.63673c0.22616,0.6514 -0.25513,1.11001 -0.8298,1.54119c-0.28023,0.21027 -0.53981,0.53746 -0.83303,0.63926z"/><path d="M131.36126,215.10224c-0.89451,0.31056 -1.89239,-0.22325 -2.22883,-1.1923c-0.33644,-0.96905 0.11596,-2.00638 1.01047,-2.31694c0.89451,-0.31056 1.89239,0.22325 2.22883,1.1923c0.16885,0.48633 -0.07919,0.88412 -0.26387,1.30435c-0.18332,0.41711 -0.30101,0.85789 -0.7466,1.0126z"/><path d="M129.78462,217.26285c-0.61661,0.21408 -1.09702,-0.33074 -1.80006,-0.44003c-0.70912,-0.11024 -1.63923,0.21123 -1.87315,-0.46254c-0.46584,-1.34176 0.74771,-3.52638 1.98626,-3.95638c1.23855,-0.43001 2.62024,0.30912 3.08608,1.65088c0.05801,0.16708 0.4275,0.58458 0.45256,0.75247c0.08483,0.56828 -0.16262,1.03606 -0.48765,1.44694c-0.35007,0.44254 -0.80176,0.81345 -1.36403,1.00866z"/></g><g fill="#573007" stroke="none" stroke-width="0"><path d="M288.3059,62.78605c0.2043,-1.733 1.50924,-2.99693 2.91471,-2.82308c1.40547,0.17386 2.3792,1.71965 2.1749,3.45266c-0.2043,1.733 -1.45599,2.54507 -2.86145,2.37122c-0.84269,-0.10424 -1.54931,-0.53925 -1.93606,-1.24445c-0.25829,-0.47097 -0.37391,-1.06242 -0.29211,-1.75636z"/><path d="M288.90668,59.9951c0.2329,-1.97561 1.56102,-3.43623 2.96649,-3.26237c1.40547,0.17386 2.35601,1.91636 2.12312,3.89196c-0.13391,1.13591 -1.02969,5.03199 -1.29445,2.68421c-0.08589,-0.7616 -1.07467,0.65206 -1.67205,0.57817c-1.40547,-0.17386 -2.35602,-1.91635 -2.12312,-3.89196z"/><path d="M286.03199,55.94649c0.2329,-1.97561 1.98079,-3.3843 3.90406,-3.1464c1.92326,0.23791 3.499,2.13414 3.2661,4.10975c-0.04374,0.37106 0.41319,1.55474 0.27143,1.87865c-0.61298,1.40066 -2.81889,1.35917 -4.38092,1.16594c-1.92326,-0.23791 -3.29357,-2.03232 -3.06068,-4.00793z"/><path d="M287.26675,55.4625c0.06204,-0.52628 0.17627,-1.0192 0.32867,-1.45689c0.41968,-1.20538 1.12875,-1.99216 1.83421,-1.90489c0.41518,0.05136 1.64538,0.73566 1.88586,1.27098c0.31649,0.70454 -0.43402,1.39896 -0.56636,2.52158c-0.2329,1.97561 -1.20124,3.48074 -2.16288,3.36179c-0.96164,-0.11895 -1.55239,-1.81694 -1.3195,-3.79256z"/><path d="M287.54106,62.81877c0.14709,-1.24776 1.04587,-2.16283 2.00751,-2.04388c0.96164,0.11895 1.62194,1.22688 1.47485,2.47465c-0.10928,0.92703 -0.76197,1.69425 -1.53501,2.16881c-0.26746,0.16418 -0.63554,0.61898 -0.88273,0.5884c-0.6464,-0.07996 -0.81059,-0.90924 -0.90945,-1.83636c-0.04822,-0.45211 -0.2034,-0.94261 -0.15518,-1.35163z"/><path d="M285.61133,61.05193c0.14709,-1.24776 1.04587,-2.16283 2.00751,-2.04388c0.96164,0.11895 1.62194,1.22689 1.47485,2.47466c-0.14709,1.24776 -1.04588,2.16282 -2.00752,2.04387c-0.48261,-0.0597 -0.70195,-0.57453 -0.96881,-1.02506c-0.26488,-0.4472 -0.57931,-0.82803 -0.50604,-1.44959z"/><path d="M284.52412,57.9787c0.1014,-0.86011 0.77432,-1.14473 1.18487,-1.93397c0.4141,-0.79605 0.56826,-2.09269 1.23687,-2.00998c1.33149,0.1647 2.60366,2.81275 2.39999,4.54041c-0.20367,1.72767 -1.44816,2.9947 -2.77964,2.83c-0.16581,-0.02051 -0.68209,0.19922 -0.8336,0.13852c-0.51285,-0.20549 -0.79087,-0.75754 -0.98618,-1.37239c-0.21036,-0.66222 -0.31478,-1.40827 -0.22232,-2.19258z"/></g><g fill="#573007" stroke="none" stroke-width="0"><path d="M298.84138,45.93941c0.79995,-0.5045 2.19666,-0.051 3.11966,1.01295c0.92299,1.06395 1.02274,2.33543 0.22279,2.83993c-0.79995,0.5045 -1.9881,-0.08056 -2.91109,-1.1445c-0.55341,-0.63792 -0.88584,-1.30315 -0.89091,-1.84236c-0.00338,-0.36011 0.13923,-0.664 0.45955,-0.86602z"/><path d="M300.32089,45.32005c0.91194,-0.57513 2.39944,-0.17889 3.32243,0.88506c0.92299,1.06395 0.93194,2.39269 0.02001,2.96782c-0.52434,0.33068 -2.62987,1.15471 -1.92713,0.0864c0.22796,-0.34655 -1.003,-0.51925 -1.39531,-0.97147c-0.92299,-1.06395 -0.93195,-2.39269 -0.02001,-2.96783z"/><path d="M299.83143,41.7594c0.91194,-0.57513 2.6751,0.13887 3.93815,1.59481c1.26304,1.45593 1.65364,3.28659 0.7417,3.86172c-0.17128,0.10803 -0.29801,0.87648 -0.5204,0.89718c-0.96164,0.08949 -2.49792,-1.49367 -3.52374,-2.67614c-1.26304,-1.45593 -1.54766,-3.10243 -0.63572,-3.67757z"/><path d="M300.88342,42.45542c0.24293,-0.15321 0.50995,-0.25682 0.78291,-0.31261c0.7517,-0.15365 1.5485,0.05529 2.01178,0.58933c0.27266,0.3143 0.87906,1.44505 0.84554,1.81663c-0.04411,0.48904 -0.83508,0.21603 -1.35329,0.54284c-0.91194,0.57513 -2.16317,0.45125 -2.79469,-0.27672c-0.63153,-0.72797 -0.40419,-1.78434 0.50775,-2.35947z"/><path d="M298.29088,45.40815c0.57597,-0.36325 1.55482,-0.06759 2.18634,0.66038c0.63153,0.72797 0.67656,1.61256 0.1006,1.97581c-0.42792,0.26987 -1.17764,0.09367 -1.90121,-0.27777c-0.25034,-0.12851 -0.68153,-0.21959 -0.84386,-0.40671c-0.42451,-0.48933 -0.226,-0.9169 0.0555,-1.33472c0.13727,-0.20376 0.21383,-0.49792 0.40263,-0.61699z"/><path d="M297.60224,43.37445c0.57597,-0.36325 1.55481,-0.06759 2.18634,0.66038c0.63153,0.72797 0.67656,1.61256 0.10059,1.97581c-0.57597,0.36325 -1.55482,0.06758 -2.18634,-0.66039c-0.31694,-0.36534 -0.27631,-0.71422 -0.29346,-1.07276c-0.01702,-0.35588 -0.09403,-0.7221 0.19287,-0.90305z"/><path d="M298.00103,41.44971c0.39703,-0.25039 0.97824,0.12111 1.56594,0.11698c0.59278,-0.00416 1.19223,-0.3807 1.63131,0.12544c0.87442,1.00795 0.76675,2.90473 -0.03074,3.40768c-0.79749,0.50295 -2.15284,0.09357 -3.02726,-0.91438c-0.10889,-0.12552 -0.55533,-0.41004 -0.63894,-0.54046c-0.28301,-0.44148 -0.26957,-0.84601 -0.17416,-1.21531c0.10276,-0.39775 0.31179,-0.75164 0.67383,-0.97996z"/></g><g fill="#573007" stroke="none" stroke-width="0"><path d="M317.06494,42.65457c0.17291,-0.61668 1.08061,-1.02292 2.02743,-0.90735c0.94682,0.11557 1.57419,0.70917 1.40128,1.32585c-0.17291,0.61668 -1.03555,0.86212 -1.98236,0.74655c-0.56769,-0.06929 -1.03674,-0.25263 -1.28409,-0.52127c-0.16519,-0.17941 -0.2315,-0.39686 -0.16226,-0.64379z"/><path d="M317.52717,41.67166c0.19711,-0.70301 1.12444,-1.17924 2.07126,-1.06367c0.94682,0.11557 1.55456,0.77916 1.35745,1.48217c-0.11334,0.40421 -0.7972,1.77418 -0.92911,0.91833c-0.04279,-0.27763 -0.73973,0.19446 -1.14216,0.14534c-0.94682,-0.11557 -1.55457,-0.77916 -1.35745,-1.48217z"/><path d="M315.66468,40.10474c0.19711,-0.70301 1.40722,-1.14472 2.70287,-0.98658c1.29564,0.15814 2.32303,0.90067 2.12591,1.60369c-0.03702,0.13204 0.24818,0.57571 0.14583,0.68707c-0.44257,0.48155 -1.93327,0.38353 -2.98556,0.25509c-1.29564,-0.15814 -2.18617,-0.85625 -1.98906,-1.55926z"/><path d="M316.50928,39.97687c0.05251,-0.18727 0.13964,-0.36056 0.25147,-0.51252c0.30795,-0.41848 0.80318,-0.67524 1.27843,-0.61723c0.2797,0.03414 1.09776,0.32701 1.24962,0.52894c0.19986,0.26576 -0.32154,0.48768 -0.43354,0.88716c-0.19711,0.70301 -0.88207,1.20882 -1.52989,1.12975c-0.64782,-0.07907 -1.01319,-0.71308 -0.81608,-1.41609z"/><path d="M316.54714,42.63756c0.12449,-0.44401 0.75057,-0.73985 1.39839,-0.66078c0.64782,0.07907 1.07206,0.50311 0.94757,0.94713c-0.0925,0.32988 -0.54921,0.58172 -1.08142,0.72358c-0.18413,0.04908 -0.44215,0.19907 -0.60867,0.17875c-0.43546,-0.05315 -0.52984,-0.35811 -0.57808,-0.69586c-0.02353,-0.1647 -0.11861,-0.34727 -0.0778,-0.49281z"/><path d="M315.2778,41.92832c0.12449,-0.44401 0.75057,-0.73985 1.3984,-0.66078c0.64782,0.07907 1.07206,0.50311 0.94757,0.94713c-0.12449,0.44401 -0.75058,0.73985 -1.3984,0.66077c-0.32512,-0.03968 -0.4631,-0.23343 -0.63449,-0.4058c-0.17012,-0.17109 -0.37508,-0.32015 -0.31307,-0.54132z"/><path d="M314.60436,40.78013c0.08582,-0.30607 0.54653,-0.38327 0.83996,-0.65216c0.29597,-0.27121 0.42622,-0.73257 0.87664,-0.67759c0.89698,0.10948 1.70403,1.11145 1.53165,1.72623c-0.17238,0.61478 -1.03927,1.02441 -1.93625,0.91493c-0.1117,-0.01363 -0.4652,0.04609 -0.56642,0.01851c-0.34264,-0.09335 -0.51954,-0.30271 -0.63926,-0.53159c-0.12894,-0.24651 -0.18458,-0.51924 -0.10632,-0.79833z"/></g><g fill="#573007" stroke="none" stroke-width="0"><path d="M333.55178,46.40446c0.10563,-0.31515 0.66012,-0.52275 1.2385,-0.46369c0.57839,0.05906 0.96163,0.36241 0.856,0.67756c-0.10563,0.31515 -0.63259,0.44058 -1.21097,0.38152c-0.34679,-0.03541 -0.63332,-0.1291 -0.78441,-0.26639c-0.10091,-0.09169 -0.14142,-0.20281 -0.09912,-0.329z"/><path d="M333.83414,45.90215c0.12041,-0.35927 0.68689,-0.60264 1.26528,-0.54358c0.57839,0.05906 0.94964,0.39818 0.82923,0.75745c-0.06924,0.20657 -0.48699,0.90667 -0.56757,0.4693c-0.02614,-0.14188 -0.45188,0.09937 -0.69771,0.07427c-0.57839,-0.05906 -0.94964,-0.39818 -0.82923,-0.75745z"/><path d="M332.6964,45.10139c0.12041,-0.35927 0.85963,-0.585 1.65111,-0.50418c0.79147,0.08082 1.41907,0.46028 1.29866,0.81955c-0.02261,0.06748 0.15161,0.29421 0.08908,0.35112c-0.27036,0.24609 -1.18098,0.196 -1.8238,0.13036c-0.79147,-0.08082 -1.33547,-0.43758 -1.21506,-0.79685z"/><path d="M333.21234,45.03604c0.03208,-0.0957 0.08531,-0.18426 0.15362,-0.26192c0.18812,-0.21386 0.49064,-0.34507 0.78096,-0.31543c0.17086,0.01745 0.67059,0.16711 0.76336,0.27031c0.12209,0.13581 -0.19642,0.24922 -0.26484,0.45337c-0.12041,0.35927 -0.53883,0.61775 -0.93457,0.57735c-0.39574,-0.04041 -0.61893,-0.36441 -0.49852,-0.72368z"/><path d="M333.23547,46.39576c0.07605,-0.22691 0.4585,-0.37809 0.85424,-0.33768c0.39574,0.04041 0.65489,0.25711 0.57884,0.48402c-0.0565,0.16858 -0.3355,0.29728 -0.66061,0.36978c-0.11248,0.02508 -0.27009,0.10174 -0.37182,0.09135c-0.26601,-0.02716 -0.32366,-0.18301 -0.35313,-0.35561c-0.01437,-0.08417 -0.07246,-0.17747 -0.04753,-0.25185z"/><path d="M332.46007,46.03331c0.07605,-0.22691 0.4585,-0.37809 0.85424,-0.33768c0.39574,0.04041 0.65489,0.25711 0.57884,0.48402c-0.07605,0.22691 -0.45851,0.37809 -0.85424,0.33768c-0.19861,-0.02028 -0.28289,-0.11929 -0.3876,-0.20738c-0.10392,-0.08744 -0.22913,-0.1636 -0.19125,-0.27664z"/><path d="M332.04868,45.44654c0.05243,-0.15641 0.33386,-0.19586 0.51311,-0.33328c0.1808,-0.1386 0.26037,-0.37437 0.53552,-0.34627c0.54794,0.05595 1.04094,0.56799 0.93564,0.88217c-0.1053,0.31418 -0.63486,0.52352 -1.1828,0.46757c-0.06823,-0.00697 -0.28417,0.02355 -0.34601,0.00946c-0.20931,-0.04771 -0.31738,-0.1547 -0.39051,-0.27166c-0.07877,-0.12598 -0.11275,-0.26535 -0.06495,-0.40798z"/></g></g></g></svg>