<svg version="1.1" xmlns="http://www.w3.org/2000/svg" xmlns:xlink="http://www.w3.org/1999/xlink" width="78" height="247.82453" viewBox="0,0,78,247.82453"><defs><linearGradient x1="227.46419" y1="289.33126" x2="227.46419" y2="293.33491" gradientUnits="userSpaceOnUse" id="color-1"><stop offset="0" stop-color="#fa0000"/><stop offset="1" stop-color="#cd0000"/></linearGradient><linearGradient x1="227.3992" y1="285.72802" x2="227.3992" y2="290.06528" gradientUnits="userSpaceOnUse" id="color-2"><stop offset="0" stop-color="#ff0000"/><stop offset="1" stop-color="#ef0000"/></linearGradient></defs><g transform="translate(-201,-75.73598)"><g data-paper-data="{&quot;isPaintingLayer&quot;:true}" fill-rule="nonzero" stroke-linejoin="miter" stroke-miterlimit="10" stroke-dasharray="" stroke-dashoffset="0" style="mix-blend-mode: normal"><path d="M252.66802,316.77477c0,0 0.0153,-2.88579 0.9376,-5.12349c0.584,-1.41693 1.98367,-2.57399 2.53321,-2.57399c1.06664,0 3.08346,0 4.90439,0c0.80819,0 2.25689,1.25063 2.8877,2.74368c0.93417,2.21107 0.8849,4.95379 0.8849,4.95379z" fill="#2c3132" stroke="none" stroke-width="0" stroke-linecap="butt"/><path d="M215.48631,316.77477c0,0 0.0153,-2.88579 0.9376,-5.12349c0.58401,-1.41693 1.98368,-2.57399 2.53321,-2.57399c1.06664,0 3.08346,0 4.90439,0c0.8082,0 2.25689,1.25063 2.8877,2.74369c0.93418,2.21107 0.88491,4.95379 0.88491,4.95379z" fill="#2c3132" stroke="none" stroke-width="0" stroke-linecap="butt"/><path d="M232.39541,319.22933c0,0 0.01885,-3.55525 1.15511,-6.31205c0.71948,-1.74563 2.44385,-3.17111 3.12087,-3.17111c1.31409,0 3.79877,0 6.04213,0c0.99568,0 2.78044,1.54075 3.5576,3.38017c1.15089,2.724 1.09019,6.10298 1.09019,6.10298z" fill="#2c3132" stroke="none" stroke-width="0" stroke-linecap="butt"/><path d="M201,323.56051v-247.82453h78v247.82453z" fill="none" stroke="none" stroke-width="NaN" stroke-linecap="butt"/><path d="M253.72467,310.90905l-2.25,-4.75h14.5l-2.25,4.75z" fill="#222627" stroke="none" stroke-width="0" stroke-linecap="butt"/><path d="M216.53181,311.00905l-2.25,-4.75h14.5l-2.25,4.75z" fill="#222627" stroke="none" stroke-width="0" stroke-linecap="butt"/><path d="M220.5,233.67662l6.75,-41.5h1.5v41.5z" data-paper-data="{&quot;index&quot;:null}" fill="#97af98" stroke="none" stroke-width="NaN" stroke-linecap="butt"/><path d="M251.25,233.67662v-41.5h1.5l6.75,41.5z" fill="#97af98" stroke="none" stroke-width="NaN" stroke-linecap="butt"/><path d="M227.53182,248.50906v-38.25h25v38.25z" fill="#20b847" stroke="none" stroke-width="0" stroke-linecap="butt"/><path d="M227.45834,209.72158v-33.66667h25.33333v33.66667z" fill="#4db881" stroke="none" stroke-width="0" stroke-linecap="butt"/><path d="M227.49167,178.17662l-1.53333,-1.33333h28.33333l-1.4,1.33333z" fill="#108c19" stroke="none" stroke-width="0" stroke-linecap="butt"/><path d="M226.05331,139.21977v-16.64874h28.23294v16.64874z" fill="#169114" stroke="none" stroke-width="0" stroke-linecap="butt"/><path d="M244.70601,103.38268c0,0 2.19644,4.06427 3.46075,6.634c1.75343,3.56384 6.08094,12.75956 6.08094,12.75956l-28.28394,-0.02899c0,0 4.20294,-9.18338 5.96503,-12.74197c1.27035,-2.56552 3.62368,-6.62264 3.62368,-6.62264c0,0 0.65722,-1.25886 1.70431,-1.89268c0.85539,-0.51779 2.04721,-0.76658 2.72146,-0.76658c0.68168,0 2.02201,0.2285 2.92463,0.73279c1.14966,0.64229 1.80314,1.9265 1.80314,1.9265z" fill="#145b13" stroke="#ff3600" stroke-width="0" stroke-linecap="round"/><path d="M243.125,127.63824v-3.33334h4.66666v3.33334z" fill="#066d06" stroke="none" stroke-width="0" stroke-linecap="butt"/><path d="M226,174.92662v-35.5h28.25v35.5z" fill="#1db61c" stroke="none" stroke-width="0" stroke-linecap="butt"/><path d="M226.04167,140.75995v-2h28.25v2z" fill="#39f834" stroke="none" stroke-width="0" stroke-linecap="butt"/><path d="M234.08334,146.92662v-5.25h10.75v5.25z" fill="#169114" stroke="none" stroke-width="0" stroke-linecap="butt"/><path d="M250,146.92662v-5.25h4.18182v5.25z" fill="#169114" stroke="none" stroke-width="0" stroke-linecap="butt"/><path d="M226.0909,146.92662v-5.25h4.18182v5.25z" data-paper-data="{&quot;index&quot;:null}" fill="#169114" stroke="none" stroke-width="0" stroke-linecap="butt"/><path d="M225.95834,177.18852v-4.62857h28.33333v4.62857z" fill="#4df34e" stroke="none" stroke-width="0" stroke-linecap="butt"/><path d="M227.69167,174.89329v-2.28571h1.71428v2.28571z" fill="#006f00" stroke="none" stroke-width="0" stroke-linecap="butt"/><path d="M225.98691,177.18852v-2.28571h1.71428v2.28571z" fill="#006f00" stroke="none" stroke-width="0" stroke-linecap="butt"/><path d="M253.64405,177.179v-2.28572h0.66666v2.28572z" fill="#006f00" stroke="none" stroke-width="0" stroke-linecap="butt"/><g fill="#006f00" stroke="none" stroke-width="0" stroke-linecap="butt"><path d="M231.14405,174.89329v-2.28571h1.71428v2.28571z"/><path d="M229.43929,177.18852v-2.28571h1.71428v2.28571z"/></g><g fill="#006f00" stroke="none" stroke-width="0" stroke-linecap="butt"><path d="M234.59643,174.89329v-2.28571h1.71428v2.28571z"/><path d="M232.89166,177.18852v-2.28571h1.71429v2.28571z"/></g><g fill="#006f00" stroke="none" stroke-width="0" stroke-linecap="butt"><path d="M238.07262,174.89329v-2.28571h1.71428v2.28571z"/><path d="M236.36785,177.18852v-2.28571h1.71429v2.28571z"/></g><g fill="#006f00" stroke="none" stroke-width="0" stroke-linecap="butt"><path d="M241.50118,174.89329v-2.28571h1.71429v2.28571z"/><path d="M239.79643,177.18852v-2.28571h1.71428v2.28571z"/></g><g fill="#006f00" stroke="none" stroke-width="0" stroke-linecap="butt"><path d="M244.97738,174.84567v-2.28572h1.71428v2.28572z"/><path d="M243.27262,177.1409v-2.28571h1.71429v2.28571z"/></g><g fill="#006f00" stroke="none" stroke-width="0" stroke-linecap="butt"><path d="M248.45357,174.89329v-2.28571h1.71428v2.28571z"/><path d="M246.74881,177.18852v-2.28571h1.71429v2.28571z"/></g><g fill="#006f00" stroke="none" stroke-width="0" stroke-linecap="butt"><path d="M251.92976,174.89329v-2.28571h1.71429v2.28571z"/><path d="M250.225,177.18852v-2.28571h1.71429v2.28571z"/></g><path d="M236.625,188.68824v-2h7v2z" fill="#006309" stroke="none" stroke-width="0" stroke-linecap="butt"/><path d="M236.625,191.88824v-2h7v2z" fill="#077410" stroke="none" stroke-width="0" stroke-linecap="butt"/><path d="M236.625,195.08824v-2h7v2z" fill="#158f24" stroke="none" stroke-width="0" stroke-linecap="butt"/><path d="M236.625,198.48824v-2h7v2z" fill="#27ab2d" stroke="none" stroke-width="0" stroke-linecap="butt"/><path d="M227.30005,210.87171v-1.2h25.4v1.2z" fill="#19a259" stroke="none" stroke-width="0" stroke-linecap="butt"/><path d="M250.28182,246.25906l2,-13h7.5c0,0 2.87185,3.90805 4.10824,6.26493c1.40792,2.68385 2.64176,6.73507 2.64176,6.73507z" fill="#78b174" stroke="none" stroke-width="0" stroke-linecap="butt"/><path d="M213.53182,246.25906c0,0 1.23383,-4.05121 2.64175,-6.73506c1.2364,-2.35688 4.10825,-6.26494 4.10825,-6.26494h7.5l2,13z" data-paper-data="{&quot;index&quot;:null}" fill="#78b174" stroke="none" stroke-width="0" stroke-linecap="butt"/><path d="M212.41818,250.25906c0,0 0.14245,-1.57489 0.33832,-2.26846c0.17919,-0.6345 0.79135,-1.73154 0.79135,-1.73154h16.48397v4z" fill="#30eba1" stroke="none" stroke-width="0" stroke-linecap="butt"/><path d="M239.3049,306.82396c0,0 -7.73753,-17.10423 -5.0838,-34.39808c2.87154,-18.71323 -3.34369,-27.06726 -3.20762,-27.2319c0.11708,-0.14167 -1.49939,-13.36754 -1.28971,-13.8426c0.19553,-0.443 -0.31334,-5.38263 -0.2903,-5.49491c0.68094,-3.31892 1.4213,-16.11563 1.40118,-16.59313c-0.10153,-2.40947 0.07278,-9.15979 -0.13263,-14.1664c-0.04195,-1.02246 -0.01083,-1.90468 -0.17249,-2.71973c-0.32097,-1.61832 -0.0782,-2.94236 -0.07662,-3.0339c0.0387,-2.23773 -0.15883,-8.26671 -0.00447,-8.81733c0.25751,-0.9186 0.06664,-1.68136 0.06269,-2.19682c-0.06456,-8.40838 -0.3943,-54.12865 -0.17649,-54.61923c0.64136,-1.44455 3.58275,-8.06957 4.60487,-10.37172c0.22008,-0.49569 3.85851,-8.24778 3.85851,-8.24778" fill="none" stroke-opacity="0.16078" stroke="#ffffff" stroke-width="2.5" stroke-linecap="round"/><path d="M250.21819,250.05906v-4h16.25c0,0 0.60347,1.09705 0.78012,1.73155c0.19309,0.69357 0.33352,2.26845 0.33352,2.26845z" data-paper-data="{&quot;index&quot;:null}" fill="#30eba1" stroke="none" stroke-width="0" stroke-linecap="butt"/><path d="M212.45682,260.50906v-10.4h38.2v10.4z" fill="#1fc182" stroke="none" stroke-width="0" stroke-linecap="butt"/><path d="M250.25682,260.30906v-10.4h17.2v10.4z" fill="#1fc182" stroke="none" stroke-width="0" stroke-linecap="butt"/><path d="M233.78612,311.25905l-2.75431,-5.81466h17.75l-2.75431,5.81466z" fill="#222627" stroke="none" stroke-width="0" stroke-linecap="butt"/><path d="M212.53182,306.80906v-46.8h54.75v46.8z" fill="#168b5b" stroke="none" stroke-width="0" stroke-linecap="butt"/><path d="M229.53182,250.00906v-4h21v4z" fill="#30eba1" stroke="none" stroke-width="0" stroke-linecap="butt"/><path d="M212.58182,307.00906v-6c0,0 3.58052,0 6.95,0c0.98263,0 1.94731,2.4 2.8,2.4c5.23725,0 18.75,0.2 18.75,0.2v3.4z" fill="#0d4408" stroke="none" stroke-width="0" stroke-linecap="butt"/><path d="M238.78182,307.00906v-3.4c0,0 13.51275,-0.2 18.75,-0.2c0.85269,0 1.81737,-2.4 2.8,-2.4c3.36948,0 6.95,0 6.95,0v6z" data-paper-data="{&quot;index&quot;:null}" fill="#0d4408" stroke="none" stroke-width="0" stroke-linecap="butt"/><path d="M233.83334,305.01667v-44.83333h12.33333v44.83333z" fill="#0d4408" stroke="#817d7b" stroke-width="0" stroke-linecap="butt"/><path d="M265.65678,272.54553v-3.4h1.2v3.4z" fill="#0d4408" stroke="none" stroke-width="0" stroke-linecap="butt"/><path d="M213.04144,290.69937v-3.4h1.2v3.4z" fill="#0d4408" stroke="none" stroke-width="0" stroke-linecap="butt"/><path d="M235.06221,223.68448c0,0 3.38124,-1.46846 4.99829,-1.50192c1.60803,-0.03327 4.8773,1.63537 4.8773,1.63537" fill="none" stroke="#188d35" stroke-width="1.5" stroke-linecap="round"/><path d="M215.65678,304.17068c0,0 -2.23492,-33.82185 0.22672,-56.57547c0.40216,-3.71724 7.35351,-13.56293 7.62673,-16.08377c1.15059,-10.61587 2.74654,-25.14076 2.74654,-25.14076" fill="none" stroke-opacity="0.16078" stroke="#ffffff" stroke-width="1.5" stroke-linecap="round"/><path d="M253.72739,205.97068c0,0 1.59595,14.52489 2.74654,25.14076c0.27322,2.52084 7.22458,12.36652 7.62673,16.08377c2.46164,22.75362 0.22672,56.57547 0.22672,56.57547" data-paper-data="{&quot;index&quot;:null}" fill="none" stroke-opacity="0.16078" stroke="#ffffff" stroke-width="1.5" stroke-linecap="round"/><g><path d="M248.6682,279.25548c0,0 1.16407,0.78475 1.97228,2.90594c0.51591,1.35402 0.61006,3.72705 1.06426,5.2446c0.6864,2.29333 0.77961,4.46158 1.03941,5.56241c0.22028,0.93335 0.04442,2.2593 -0.06857,2.82272c-0.05738,0.28612 -6.68937,0.24067 -8.74505,0.21969c-0.16509,-0.00168 -0.94792,-0.30539 -1.55114,-1.0969c-0.77547,-1.01755 -1.18458,-2.57996 -1.18458,-2.57996z" data-paper-data="{&quot;index&quot;:null}" fill="#072204" stroke="#1b810f" stroke-width="0.5" stroke-linecap="round"/><path d="M238.96003,292.20053c0,0 -0.40911,1.56241 -1.18458,2.57996c-0.60322,0.79152 -1.38605,1.09522 -1.55114,1.0969c-2.05568,0.02098 -8.68768,0.06643 -8.74505,-0.21969c-0.11299,-0.56342 -0.28885,-1.88937 -0.06857,-2.82272c0.25979,-1.10083 0.35301,-3.26908 1.03941,-5.56241c0.4542,-1.51755 0.54834,-3.89058 1.06426,-5.2446c0.80821,-2.12119 1.97228,-2.90594 1.97228,-2.90594z" fill="#072204" stroke="#1b810f" stroke-width="0.5" stroke-linecap="round"/><path d="M226.57286,290.19873c0,0 -0.10049,-2.45054 0.20856,-3.7298c0.13736,-0.56858 0.54343,-0.60745 0.65889,-0.60745c0.09898,0 0.44041,0.14018 0.5898,0.68411c0.35006,1.2746 0.34438,3.65315 0.34438,3.65315" fill="none" stroke="#1b810f" stroke-width="1" stroke-linecap="round"/><path d="M225.46238,291.33308c0,-1.10556 0.89624,-2.00181 2.00181,-2.00181c1.10556,0 2.00181,0.89624 2.00181,2.00181c0,1.10556 -0.89624,2.00181 -2.00181,2.00181c-1.10556,0 -2.00181,-0.89624 -2.00181,-2.00181z" fill="url(#color-1)" stroke="#1b810f" stroke-width="0.5" stroke-linecap="butt"/><path d="M226.50619,290.06528c0,0 -0.10049,-2.45054 0.20856,-3.7298c0.13736,-0.56858 0.54343,-0.60745 0.65889,-0.60745c0.09898,0 0.44041,0.14018 0.5898,0.68411c0.35006,1.2746 0.34438,3.65315 0.34438,3.65315" fill="none" stroke="url(#color-2)" stroke-width="0.5" stroke-linecap="round"/><path d="M250.04701,290.45997c0,-0.74832 0.72089,-1.82442 1.26773,-2.8355c0.47878,-0.88524 0.73938,-1.763 1.39457,-1.763c0.67082,0 0.5272,1.09293 0.95253,2.00823c0.46456,0.99972 1.46773,1.85759 1.46773,2.59027c0,1.40352 -1.13776,2.54128 -2.54128,2.54128c-1.40352,0 -2.54128,-1.13778 -2.54128,-2.54128z" fill="#ffffff" stroke="#1b810f" stroke-width="0.5" stroke-linecap="butt"/></g></g></g></svg>