<svg version="1.1" xmlns="http://www.w3.org/2000/svg" xmlns:xlink="http://www.w3.org/1999/xlink" width="61.98169" height="32.21157" viewBox="0,0,61.98169,32.21157"><g transform="translate(-208.86648,-80.24961)"><g data-paper-data="{&quot;isPaintingLayer&quot;:true}" fill-rule="nonzero" stroke-linejoin="miter" stroke-miterlimit="10" stroke-dasharray="" stroke-dashoffset="0" style="mix-blend-mode: normal"><g><path d="M208.86648,112.46118v-32.02608h37.849v32.02608z" fill="none" stroke="none" stroke-width="NaN" stroke-linecap="butt"/><path d="M227.8008,103.34822l-0.0385,-6.0836" fill="none" stroke="#83b1b8" stroke-width="0.5" stroke-linecap="round"/><path d="M224.03051,97.38321v-2.67062c0,0 1.19115,-0.90632 1.83695,-0.90632c0.66287,0 2.09043,0.90632 2.09043,0.90632v2.67062c0,0 -0.2789,-0.03697 -0.46797,-0.1621c-0.20685,-0.1369 -0.11942,-0.35432 -0.37922,-0.51902c-0.2952,-0.18713 -0.93964,-0.31382 -1.19505,-0.31382c-0.23284,0 -0.68232,0.13181 -0.99097,0.37167c-0.265,0.20594 -0.39179,0.51218 -0.58163,0.64713c-0.17403,0.12373 -0.31255,-0.02387 -0.31255,-0.02387z" fill="#845098" stroke="none" stroke-width="0" stroke-linecap="butt"/><path d="M231.36163,97.33085v-2.67062c0,0 1.16649,-0.70492 1.78157,-0.70492c0.6241,0 1.93636,0.70492 1.93636,0.70492v2.67062c0,0 -0.26403,-0.03696 -0.44302,-0.16209c-0.19582,-0.1369 -0.11305,-0.35432 -0.35899,-0.51902c-0.27946,-0.18713 -0.88953,-0.31382 -1.13131,-0.31382c-0.22042,0 -0.64593,0.13181 -0.93811,0.37166c-0.25087,0.20594 -0.37088,0.51218 -0.55061,0.64713c-0.16476,0.12373 -0.29588,-0.02387 -0.29588,-0.02387z" fill="#845098" stroke="none" stroke-width="0" stroke-linecap="butt"/><path d="M216.83235,97.43531l10.07802,5.80481" fill="none" stroke="#83b1b8" stroke-width="0.5" stroke-linecap="round"/><path d="M227.04271,103.24725l-6.59613,-5.90563" fill="none" stroke="#83b1b8" stroke-width="0.5" stroke-linecap="round"/><path d="M227.224,102.93361l-3.00406,-5.43797" fill="none" stroke="#83b1b8" stroke-width="0.5" stroke-linecap="round"/><path d="M228.2404,102.60315l3.23878,-5.21532" fill="none" stroke="#83b1b8" stroke-width="0.5" stroke-linecap="round"/><path d="M228.4546,103.24088l6.46941,-5.82225" fill="none" stroke="#83b1b8" stroke-width="0.5" stroke-linecap="round"/><path d="M216.69938,97.48794v-2.67063c0,0 1.16822,-1.63641 1.79164,-1.63641c0.68067,0 2.13575,1.63641 2.13575,1.63641v2.67063c0,0 -0.27889,-0.03697 -0.46796,-0.1621c-0.20685,-0.1369 -0.11942,-0.35432 -0.37922,-0.51901c-0.2952,-0.18713 -0.93964,-0.31382 -1.19505,-0.31382c-0.23284,0 -0.68232,0.13181 -0.99097,0.37166c-0.265,0.20594 -0.39179,0.51218 -0.58163,0.64713c-0.17403,0.12373 -0.31254,-0.02386 -0.31254,-0.02386z" fill="#845098" stroke="none" stroke-width="0" stroke-linecap="butt"/><path d="M224.07079,94.76696l0.05692,-2.20135c0,0 1.13876,-0.67974 1.71459,-0.67974c0.64145,0 1.95851,0.67974 1.95851,0.67974v2.2517c0,0 -1.30084,-0.37763 -1.95851,-0.37763c-0.68523,0 -1.7715,0.32729 -1.7715,0.32729z" fill="#ffffef" stroke="none" stroke-width="0" stroke-linecap="butt"/><path d="M228.46021,103.28423l10.00614,-5.9041" fill="none" stroke="#83b1b8" stroke-width="0.5" stroke-linecap="round"/><path d="M220.39112,97.40939v-2.67063c0,0 1.25373,-1.66158 1.87623,-1.66158c0.61675,0 1.8417,1.66158 1.8417,1.66158v2.67063c0,0 -0.26403,-0.03697 -0.44301,-0.16211c-0.19582,-0.1369 -0.11305,-0.35432 -0.35899,-0.51902c-0.27946,-0.18713 -0.88953,-0.31382 -1.13131,-0.31382c-0.22042,0 -0.64594,0.13181 -0.93812,0.37166c-0.25087,0.20594 -0.37088,0.51218 -0.55061,0.64714c-0.16476,0.12373 -0.29588,-0.02386 -0.29588,-0.02386z" fill="#734684" stroke="none" stroke-width="0" stroke-linecap="butt"/><path d="M220.52217,97.30236c0,0 0.16398,0.01513 0.32606,-0.12992c0.08593,-0.07691 0.18975,-0.22751 0.30622,-0.30798c0.303,-0.20935 0.80973,-0.35475 1.04392,-0.35475c0.26011,0 0.7797,0.12726 1.09645,0.35436c0.15059,0.10798 0.25204,0.2343 0.31575,0.33344c0.02977,0.04633 0.28789,0.191 0.46066,0.2157c0.19498,0.02788 0.30516,-0.0672 0.30516,-0.0672" fill="none" stroke="#734684" stroke-width="0.5" stroke-linecap="round"/><path d="M227.8008,97.40839v-2.67062c0,0 0.79383,-1.0322 1.41502,-1.0322c0.61811,0 2.30292,1.0322 2.30292,1.0322v2.67062c0,0 -0.26403,-0.03697 -0.44302,-0.1621c-0.19582,-0.1369 -0.11305,-0.35432 -0.35899,-0.51901c-0.27945,-0.18713 -0.88954,-0.31382 -1.13132,-0.31382c-0.22042,0 -0.64593,0.13181 -0.93811,0.37166c-0.25087,0.20594 -0.37089,0.51218 -0.55062,0.64714c-0.16476,0.12373 -0.29587,-0.02386 -0.29587,-0.02386z" fill="#734684" stroke="none" stroke-width="0" stroke-linecap="butt"/><path d="M234.97483,97.35703v-2.67063c0,0 1.47341,-1.00702 2.12094,-1.00702c0.58554,0 1.59699,1.00702 1.59699,1.00702v2.67063c0,0 -0.26403,-0.03697 -0.44302,-0.1621c-0.19582,-0.1369 -0.11305,-0.35431 -0.35899,-0.51901c-0.27945,-0.18713 -0.88953,-0.31382 -1.13131,-0.31382c-0.22042,0 -0.64594,0.13181 -0.93812,0.37166c-0.25087,0.20594 -0.37089,0.51218 -0.55061,0.64714c-0.16476,0.12373 -0.29588,-0.02387 -0.29588,-0.02387z" fill="#734684" stroke="none" stroke-width="0" stroke-linecap="butt"/><path d="M228.13193,97.26309c0,0 0.12161,-0.27112 0.45772,-0.50337c0.303,-0.20935 0.80975,-0.30367 1.04394,-0.30367c0.26011,0 0.77969,0.07619 1.09644,0.30329c0.141,0.1011 0.2389,0.21827 0.30311,0.31415c0.02827,0.04222 0.15127,0.21123 0.26427,0.24201c0.17712,0.04824 0.36147,-0.05241 0.36147,-0.05241" fill="none" stroke="#734684" stroke-width="0.5" stroke-linecap="round"/><path d="M235.0178,94.83913l-0.12588,-2.2517c0,0 1.00577,-1.05737 1.59964,-1.05737c0.56551,0 1.88266,1.05737 1.88266,1.05737l0.34037,2.2517c0,0 -1.13772,-0.45316 -1.74468,-0.45316c-0.6624,0 -1.9521,0.45316 -1.9521,0.45316z" data-paper-data="{&quot;index&quot;:null}" fill="#d3d9e3" stroke="none" stroke-width="0" stroke-linecap="butt"/><path d="M231.32337,94.79215l0.03175,-2.22653c0,0 1.0517,-0.70492 1.63704,-0.70492c0.63498,0 2.03606,0.70492 2.03606,0.70492v2.2517c0,0 -1.12497,-0.47833 -1.75912,-0.47833c-0.70282,0 -1.94572,0.45316 -1.94572,0.45316z" fill="#ffffff" stroke="none" stroke-width="0" stroke-linecap="butt"/><path d="M231.66658,97.26309c0,0 0.12161,-0.27112 0.45773,-0.50337c0.303,-0.20935 0.78419,-0.35476 1.01839,-0.35476c0.26011,0 0.80524,0.12727 1.12198,0.35437c0.3004,0.21539 0.40521,0.50375 0.40521,0.50375" fill="none" stroke="#845098" stroke-width="0.5" stroke-linecap="round"/><path d="M227.73333,94.81732l-0.01861,-2.2517c0,0 1.11911,-0.80561 1.7025,-0.80561c0.63636,0 1.97059,0.80562 1.97059,0.80562v2.2517c0,0 -1.22398,-0.40282 -1.86989,-0.40282c-0.69458,0 -1.78459,0.40282 -1.78459,0.40282z" fill="#d3d9e3" stroke="none" stroke-width="0" stroke-linecap="butt"/><path d="M234.72121,97.33726c0,0 0.18106,0.04011 0.36167,0.00182c0.15933,-0.03379 0.31832,-0.14313 0.35236,-0.1886c0.07243,-0.09676 0.18678,-0.22243 0.35463,-0.3384c0.30299,-0.20935 0.7842,-0.3803 1.01839,-0.3803c0.26011,0 0.80524,0.1528 1.12198,0.37991c0.3004,0.21539 0.64521,0.56922 0.64521,0.56922" fill="none" stroke="#734684" stroke-width="0.5" stroke-linecap="round"/><path d="M220.48075,94.79215l-0.01861,-2.22653c0,0 1.22637,-0.57903 1.80521,-0.57903c0.63948,0 1.86788,0.57903 1.86788,0.57903v2.2517c0,0 -1.18177,-0.47833 -1.81752,-0.47833c-0.70176,0 -1.83696,0.45316 -1.83696,0.45316z" fill="#d3d9e3" stroke="none" stroke-width="0" stroke-linecap="butt"/><path d="M216.6732,94.79215l0.34037,-2.2517c0,0 1.00327,-0.60421 1.5278,-0.60421c0.62015,0 1.95449,0.60421 1.95449,0.60421l-0.02518,2.2517c0,0 -1.25999,-0.40281 -1.90413,-0.40281c-0.62975,0 -1.89335,0.40281 -1.89335,0.40281z" fill="#ffffff" stroke="none" stroke-width="0" stroke-linecap="butt"/><path d="M216.80796,97.49437c0,0 0.44889,-0.44567 0.78501,-0.67792c0.303,-0.20935 0.80974,-0.30368 1.04393,-0.30368c0.26011,0 0.77969,0.07619 1.09644,0.30329c0.15422,0.11058 0.25689,0.24039 0.32029,0.34054c0.02934,0.04635 0.18026,0.1518 0.32707,0.18059c0.15391,0.03019 0.30331,-0.01737 0.30331,-0.01737" fill="none" stroke="#845098" stroke-width="0.5" stroke-linecap="round"/><g stroke="none" stroke-width="0" stroke-linecap="butt"><path d="M234.90847,92.57703l-0.61092,-1.44004c0,0 0.51876,-1.36975 1.08427,-1.3624c0.55431,0.0072 2.27583,1.40603 2.27583,1.40603l0.72002,1.3964c0,0 -1.20301,-0.35246 -1.78542,-0.35246c-0.57386,0 -1.68377,0.35246 -1.68377,0.35246z" data-paper-data="{&quot;index&quot;:null}" fill="#734684"/><path d="M231.37383,92.55519l-0.30546,-1.37458c0,0 0.69314,-1.88817 1.34475,-1.88817c0.59399,0 2.40809,1.88817 2.40809,1.88817l0.24001,1.3964c0,0 -1.32415,-0.31039 -1.96835,-0.3142c-0.57766,-0.00341 -1.71903,0.29237 -1.71903,0.29237z" data-paper-data="{&quot;index&quot;:null}" fill="#845098"/><path d="M227.77372,92.55519c0,0 -0.53103,-0.24837 -0.53293,-0.36779c-0.00386,-0.24317 0.5111,-1.00679 0.5111,-1.00679c0,0 0.85195,-1.25878 1.41357,-1.25878c0.59308,0 2.05563,1.25878 2.05563,1.25878l0.24001,1.39639c0,0 -1.2592,-0.28586 -1.918,-0.28977c-0.55096,-0.00326 -1.76939,0.26795 -1.76939,0.26795z" data-paper-data="{&quot;index&quot;:null}" fill="#734684"/><path d="M224.05612,92.5485l-0.1007,-1.36786c0,0 1.2305,-1.61124 1.88687,-1.61124c0.6135,0 1.93143,1.61124 1.93143,1.61124v1.41823c0,0 -1.21254,-0.27693 -1.83073,-0.27693c-0.6527,0 -1.88687,0.22658 -1.88687,0.22658z" fill="#845098"/><path d="M220.39896,92.59885l0.72002,-1.39639c0,0 0.90457,-1.25878 1.34979,-1.25878c0.53469,0 1.6394,1.25878 1.6394,1.25878l-0.02182,1.37458c0,0 -1.14625,-0.29533 -1.74318,-0.29179c-0.6304,0.00373 -1.94421,0.31362 -1.94421,0.31362z" fill="#734684"/><path d="M217.01704,92.57703l0.72002,-1.3964c0,0 1.68338,-1.73712 2.23933,-1.73712c0.59746,0 1.22987,1.73712 1.22987,1.73712l-0.72002,1.3964c0,0 -1.15188,-0.30211 -1.74345,-0.30211c-0.56346,0 -1.72574,0.30211 -1.72574,0.30211z" fill="#845098"/></g><path d="M224.41401,97.31545c0,0 0.12161,-0.27112 0.45772,-0.50337c0.303,-0.20935 0.80975,-0.38029 1.04393,-0.38029c0.26011,0 0.8563,0.12726 1.17305,0.35436c0.13756,0.09863 0.25965,0.21257 0.32389,0.30711c0.03941,0.05799 0.14028,0.2316 0.32676,0.2557c0.1734,0.02241 0.3325,-0.07715 0.3325,-0.07715" fill="none" stroke="#845098" stroke-width="0.5" stroke-linecap="round"/><path d="M231.24692,91.17042l-0.20235,-2.23009c0,0 0.0888,-0.67975 0.53775,-0.67975c0.61237,0 2.80083,0.67975 2.80083,0.67975l0.37763,2.25527c0,0 -1.58386,-0.35246 -2.19661,-0.35246c-0.60886,0 -1.31725,0.32728 -1.31725,0.32728z" fill="#ffffff" stroke="none" stroke-width="0" stroke-linecap="butt"/><path d="M227.71378,91.17042l-0.00096,-2.20492c0,0 0.64702,-0.7301 1.20089,-0.7301c0.55895,0 2.1377,0.7301 2.1377,0.7301l0.23832,2.23009c0,0 -1.19111,-0.30211 -1.87251,-0.30211c-0.6784,0 -1.70344,0.27693 -1.70344,0.27693z" fill="#d3d9e3" stroke="none" stroke-width="0" stroke-linecap="butt"/><path d="M224.12615,91.17042l0.32633,-2.23009c0,0 1.09422,-0.70492 1.64156,-0.70492c0.56496,0 1.69702,0.70492 1.69702,0.70492v2.23009c0,0 -1.25208,-0.32728 -1.84807,-0.32728c-0.62433,0 -1.81684,0.32728 -1.81684,0.32728z" fill="#ffffef" stroke="none" stroke-width="0" stroke-linecap="butt"/><path d="M217.67686,91.1956l1.44395,-2.23009c0,0 1.08875,-0.79653 1.53527,-0.80662c0.61304,-0.01386 1.80443,0.7311 1.80443,0.7311l-1.30913,2.30562c0,0 -1.19332,-0.32728 -1.77922,-0.32728c-0.57193,0 -1.6953,0.32728 -1.6953,0.32728z" fill="#ffffff" stroke="none" stroke-width="0" stroke-linecap="butt"/><path d="M221.12506,91.22077l0.70396,-2.28044c0,0 1.25082,-0.8248 1.62174,-0.82122c0.47335,0.00456 0.98675,0.84639 0.98675,0.84639l-0.28364,2.23009c0,0 -1.03501,-0.3021 -1.5844,-0.3021c-0.57639,0 -1.44441,0.32728 -1.44441,0.32728z" fill="#d3d9e3" stroke="none" stroke-width="0" stroke-linecap="butt"/><path d="M234.76507,91.19203l-1.07415,-2.20491c0,0 0.05151,-0.88115 0.48448,-0.88115c0.39266,0 2.00428,0.88115 2.00428,0.88115l1.53123,2.23009c0,0 -1.11382,-0.42798 -1.64734,-0.42798c-0.61346,0 -1.2985,0.40281 -1.2985,0.40281z" data-paper-data="{&quot;index&quot;:null}" fill="#d3d9e3" stroke="none" stroke-width="0" stroke-linecap="butt"/><g stroke="none" stroke-width="0" stroke-linecap="butt"><path d="M233.6867,88.92993l-0.78948,-1.41486c0,0 0.45553,-0.33821 0.82637,-0.331c0.3771,0.00733 1.41778,0.37463 1.41778,0.37463l1.01077,1.39641c0,0 -1.03485,-0.30211 -1.49842,-0.30211c-0.45891,0 -0.96704,0.27693 -0.96704,0.27693z" data-paper-data="{&quot;index&quot;:null}" fill="#734684"/><path d="M230.99279,88.95847l-0.67167,-1.39976c0,0 0.65806,-0.57903 1.11014,-0.57903c0.46547,0 1.64369,0.57903 1.64369,0.57903l0.68323,1.39641c0,0 -1.30033,-0.25935 -1.79883,-0.26305c-0.48146,-0.00358 -0.96657,0.2664 -0.96657,0.2664z" data-paper-data="{&quot;index&quot;:null}" fill="#845098"/><path d="M227.69282,88.93328l-0.0174,-1.37459c0,0 0.93021,-0.57903 1.41453,-0.57903c0.43227,0 1.35302,0.57903 1.35302,0.57903l0.54393,1.44676c0,0 -1.32458,-0.35911 -1.79666,-0.36261c-0.50609,-0.00375 -1.49741,0.29044 -1.49741,0.29044z" data-paper-data="{&quot;index&quot;:null}" fill="#734684"/><path d="M224.4957,88.97693l0.15106,-1.41823c0,0 1.14035,-0.5035 1.67386,-0.5035c0.47503,0 1.37219,0.5035 1.37219,0.5035v1.41823c0,0 -1.0326,-0.22658 -1.54842,-0.22658c-0.49897,0 -1.64869,0.22658 -1.64869,0.22658z" fill="#845098"/><path d="M221.80957,88.97693l0.57439,-1.3964c0,0 0.85924,-0.60422 1.21769,-0.60422c0.42504,0 1.16695,0.60422 1.16695,0.60422l-0.24399,1.39976c0,0 -0.73634,-0.31901 -1.24985,-0.3152c-0.46144,0.00343 -1.46519,0.31185 -1.46519,0.31185z" fill="#734684"/><path d="M219.11165,88.95509l1.15176,-1.3964c0,0 1.28446,-0.70492 1.65149,-0.70492c0.38714,0 0.5387,0.70492 0.5387,0.70492l-0.57439,1.3964c0,0 -0.86661,-0.25175 -1.34896,-0.25175c-0.43534,0 -1.4186,0.25175 -1.4186,0.25175z" fill="#845098"/></g><path d="M230.47734,87.60513l-0.81136,-1.21089l3.0707,-0.02517l0.43302,1.26124c0,0 -0.8348,-0.30211 -1.41116,-0.30211c-0.60504,0 -1.2812,0.27693 -1.2812,0.27693z" fill="#ffffff" stroke="none" stroke-width="0" stroke-linecap="butt"/><path d="M227.73908,87.60513l-0.10645,-1.23606h2.11403l0.79086,1.23606c0,0 -1.09771,-0.22658 -1.62382,-0.22658c-0.49741,0 -1.17462,0.22658 -1.17462,0.22658z" fill="#d3d9e3" stroke="none" stroke-width="0" stroke-linecap="butt"/><path d="M224.77771,87.65548l0.47259,-1.28641l2.34062,0.02518l0.17623,1.21087c0,0 -1.08771,-0.22657 -1.5724,-0.22657c-0.42962,0 -1.41703,0.27693 -1.41703,0.27693z" fill="#ffffef" stroke="none" stroke-width="0" stroke-linecap="butt"/><path d="M220.14239,87.60513l2.02676,-1.23606l2.30451,-0.17623l-1.96369,1.41229c0,0 -0.57608,-0.3021 -1.02305,-0.3021c-0.42504,0 -1.34453,0.3021 -1.34453,0.3021z" fill="#ffffff" stroke="none" stroke-width="0" stroke-linecap="butt"/><path d="M222.54162,87.57994l1.3638,-1.28641l1.535,0.07552l-0.64181,1.26124c0,0 -0.58992,-0.27693 -1.07106,-0.27693c-0.55446,0 -1.18592,0.22657 -1.18592,0.22657z" fill="#d3d9e3" stroke="none" stroke-width="0" stroke-linecap="butt"/><path d="M233.13124,87.6171l-1.89825,-1.28641l1.63618,0.05035l2.3762,1.23606c0,0 -1.03897,-0.15105 -1.42245,-0.15105c-0.31684,0 -0.69169,0.15105 -0.69169,0.15105z" data-paper-data="{&quot;index&quot;:null}" fill="#d3d9e3" stroke="none" stroke-width="0" stroke-linecap="butt"/><g stroke="none" stroke-width="0" stroke-linecap="butt"><path d="M231.08813,86.36702l-0.80573,-0.88874l0.70116,0.02693l1.83031,0.86181z" data-paper-data="{&quot;index&quot;:null}" fill="#734684"/><path d="M229.35166,86.35355l-0.15195,-0.84834h1.1717l0.81452,0.86181z" data-paper-data="{&quot;index&quot;:null}" fill="#845098"/><path d="M227.53897,86.35355l-0.01085,-0.84834h1.72573l0.3594,0.86181z" data-paper-data="{&quot;index&quot;:null}" fill="#734684"/><path d="M225.26866,86.38049l0.37092,-0.87528h1.8994v0.87528z" fill="#845098"/><path d="M223.87042,86.38049l0.72909,-0.8618h1.11604l-0.25086,0.84834z" fill="#734684"/><path d="M222.1881,86.36702l1.89295,-0.86181h0.78007l-0.94729,0.86181z" fill="#845098"/></g><g stroke="none" stroke-width="0" stroke-linecap="butt"><path d="M228.57709,85.51827l0.1106,-0.43443h1.13153l0.35314,0.43443z" fill="#ffffff"/><path d="M227.44788,85.51827l0.1106,-0.43443h1.13152l0.14051,0.43443z" fill="#d3d9e3"/><path d="M226.34287,85.51827l0.1106,-0.43443h1.13153v0.43443z" fill="#ffffef"/><path d="M224.15705,85.51827l0.91119,-0.43443h0.2664v0.43443z" fill="#ffffff"/><path d="M224.94143,85.51827l0.37545,-0.43443h1.13153l-0.09612,0.43443z" fill="#d3d9e3"/><path d="M229.98528,85.52249l-0.40067,-0.43444h0.29417l1.0683,0.43444z" data-paper-data="{&quot;index&quot;:null}" fill="#d3d9e3"/></g></g><g><path d="M232.99916,112.27569v-32.02608h37.84901v32.02608z" fill="none" stroke="none" stroke-width="NaN" stroke-linecap="butt"/><path d="M251.93348,103.16273l-0.0385,-6.08361" fill="none" stroke="#83b1b8" stroke-width="0.5" stroke-linecap="round"/><path d="M248.16319,97.19771v-2.67062c0,0 1.19115,-0.90632 1.83696,-0.90632c0.66288,0 2.09043,0.90632 2.09043,0.90632v2.67062c0,0 -0.2789,-0.03696 -0.46797,-0.1621c-0.20685,-0.1369 -0.11942,-0.35433 -0.37922,-0.51902c-0.29521,-0.18713 -0.93964,-0.31382 -1.19504,-0.31382c-0.23284,0 -0.68232,0.13182 -0.99097,0.37167c-0.265,0.20594 -0.39179,0.51218 -0.58163,0.64713c-0.17404,0.12373 -0.31255,-0.02387 -0.31255,-0.02387z" fill="#845098" stroke="none" stroke-width="0" stroke-linecap="butt"/><path d="M255.49431,97.14535v-2.67062c0,0 1.16649,-0.70493 1.78156,-0.70493c0.6241,0 1.93636,0.70493 1.93636,0.70493v2.67062c0,0 -0.26403,-0.03696 -0.44302,-0.16209c-0.19583,-0.1369 -0.11305,-0.35432 -0.35899,-0.51901c-0.27946,-0.18713 -0.88953,-0.31382 -1.13131,-0.31382c-0.22042,0 -0.64594,0.1318 -0.93811,0.37166c-0.25087,0.20594 -0.37089,0.51219 -0.55061,0.64714c-0.16475,0.12373 -0.29588,-0.02387 -0.29588,-0.02387z" fill="#845098" stroke="none" stroke-width="0" stroke-linecap="butt"/><path d="M240.96503,97.24982l10.07802,5.80481" fill="none" stroke="#83b1b8" stroke-width="0.5" stroke-linecap="round"/><path d="M251.17539,103.06176l-6.59614,-5.90562" fill="none" stroke="#83b1b8" stroke-width="0.5" stroke-linecap="round"/><path d="M251.35669,102.74812l-3.00406,-5.43797" fill="none" stroke="#83b1b8" stroke-width="0.5" stroke-linecap="round"/><path d="M252.37308,102.41765l3.23879,-5.21532" fill="none" stroke="#83b1b8" stroke-width="0.5" stroke-linecap="round"/><path d="M252.58728,103.05539l6.46941,-5.82225" fill="none" stroke="#83b1b8" stroke-width="0.5" stroke-linecap="round"/><path d="M240.83206,97.30245v-2.67063c0,0 1.16822,-1.63641 1.79164,-1.63641c0.68067,0 2.13575,1.63641 2.13575,1.63641v2.67063c0,0 -0.2789,-0.03696 -0.46796,-0.16209c-0.20685,-0.1369 -0.11942,-0.35432 -0.37922,-0.51901c-0.29521,-0.18713 -0.93964,-0.31382 -1.19504,-0.31382c-0.23284,0 -0.68232,0.13181 -0.99097,0.37167c-0.265,0.20594 -0.39179,0.51218 -0.58163,0.64713c-0.17404,0.12373 -0.31255,-0.02387 -0.31255,-0.02387z" fill="#845098" stroke="none" stroke-width="0" stroke-linecap="butt"/><path d="M248.20348,94.58147l0.05692,-2.20135c0,0 1.13876,-0.67974 1.71458,-0.67974c0.64145,0 1.95852,0.67974 1.95852,0.67974v2.2517c0,0 -1.30084,-0.37764 -1.95852,-0.37764c-0.68523,0 -1.7715,0.32729 -1.7715,0.32729z" fill="#ffffef" stroke="none" stroke-width="0" stroke-linecap="butt"/><path d="M252.59289,103.09874l10.00615,-5.9041" fill="none" stroke="#83b1b8" stroke-width="0.5" stroke-linecap="round"/><path d="M244.52381,97.2239v-2.67063c0,0 1.25373,-1.66158 1.87624,-1.66158c0.61675,0 1.8417,1.66158 1.8417,1.66158v2.67063c0,0 -0.26403,-0.03697 -0.443,-0.1621c-0.19583,-0.1369 -0.11305,-0.35432 -0.35899,-0.51902c-0.27946,-0.18713 -0.88953,-0.31382 -1.13131,-0.31382c-0.22042,0 -0.64594,0.1318 -0.93812,0.37166c-0.25087,0.20594 -0.37089,0.51218 -0.55061,0.64714c-0.16476,0.12373 -0.29588,-0.02386 -0.29588,-0.02386z" fill="#734684" stroke="none" stroke-width="0" stroke-linecap="butt"/><path d="M244.65485,97.11686c0,0 0.16399,0.01513 0.32606,-0.12992c0.08594,-0.07691 0.18974,-0.2275 0.30622,-0.30798c0.303,-0.20936 0.80973,-0.35475 1.04392,-0.35475c0.26011,0 0.7797,0.12726 1.09645,0.35436c0.1506,0.10797 0.25204,0.23431 0.31575,0.33344c0.02978,0.04633 0.28789,0.191 0.46066,0.2157c0.19499,0.02787 0.30516,-0.0672 0.30516,-0.0672" fill="none" stroke="#734684" stroke-width="0.5" stroke-linecap="round"/><path d="M251.93348,97.22289v-2.67063c0,0 0.79383,-1.03219 1.41501,-1.03219c0.61811,0 2.30292,1.03219 2.30292,1.03219v2.67063c0,0 -0.26403,-0.03696 -0.44302,-0.1621c-0.19582,-0.1369 -0.11305,-0.35431 -0.35899,-0.51901c-0.27946,-0.18713 -0.88954,-0.31382 -1.13132,-0.31382c-0.22042,0 -0.64593,0.1318 -0.93811,0.37166c-0.25087,0.20594 -0.3709,0.51218 -0.55062,0.64714c-0.16476,0.12373 -0.29587,-0.02386 -0.29587,-0.02386z" fill="#734684" stroke="none" stroke-width="0" stroke-linecap="butt"/><path d="M259.10751,97.17153v-2.67062c0,0 1.47342,-1.00702 2.12095,-1.00702c0.58553,0 1.59699,1.00702 1.59699,1.00702v2.67062c0,0 -0.26404,-0.03696 -0.44302,-0.1621c-0.19582,-0.1369 -0.11305,-0.35431 -0.35899,-0.51901c-0.27945,-0.18713 -0.88953,-0.31382 -1.13131,-0.31382c-0.22042,0 -0.64594,0.1318 -0.93813,0.37166c-0.25087,0.20594 -0.37089,0.51218 -0.55061,0.64714c-0.16476,0.12373 -0.29588,-0.02387 -0.29588,-0.02387z" fill="#734684" stroke="none" stroke-width="0" stroke-linecap="butt"/><path d="M252.26462,97.07759c0,0 0.1216,-0.27112 0.45772,-0.50337c0.303,-0.20936 0.80975,-0.30367 1.04394,-0.30367c0.26011,0 0.7797,0.07618 1.09644,0.30329c0.141,0.1011 0.23891,0.21827 0.30311,0.31415c0.02827,0.04221 0.15127,0.21123 0.26427,0.24201c0.17712,0.04824 0.36148,-0.05241 0.36148,-0.05241" fill="none" stroke="#734684" stroke-width="0.5" stroke-linecap="round"/><path d="M259.15048,94.65364l-0.12587,-2.2517c0,0 1.00577,-1.05737 1.59964,-1.05737c0.56552,0 1.88265,1.05737 1.88265,1.05737l0.34037,2.2517c0,0 -1.13773,-0.45316 -1.74469,-0.45316c-0.66241,0 -1.9521,0.45316 -1.9521,0.45316z" data-paper-data="{&quot;index&quot;:null}" fill="#d3d9e3" stroke="none" stroke-width="0" stroke-linecap="butt"/><path d="M255.45605,94.60665l0.03175,-2.22653c0,0 1.0517,-0.70492 1.63705,-0.70492c0.63498,0 2.03606,0.70492 2.03606,0.70492v2.25169c0,0 -1.12498,-0.47833 -1.75912,-0.47833c-0.70283,0 -1.94573,0.45316 -1.94573,0.45316z" fill="#ffffff" stroke="none" stroke-width="0" stroke-linecap="butt"/><path d="M255.79926,97.07759c0,0 0.12161,-0.27112 0.45773,-0.50337c0.303,-0.20936 0.7842,-0.35475 1.01838,-0.35475c0.26011,0 0.80525,0.12726 1.12199,0.35437c0.3004,0.21538 0.40521,0.50375 0.40521,0.50375" fill="none" stroke="#845098" stroke-width="0.5" stroke-linecap="round"/><path d="M251.86602,94.63183l-0.01862,-2.2517c0,0 1.1191,-0.80561 1.7025,-0.80561c0.63636,0 1.97059,0.80562 1.97059,0.80562v2.25171c0,0 -1.22398,-0.40282 -1.86989,-0.40282c-0.69458,0 -1.78459,0.40282 -1.78459,0.40282z" fill="#d3d9e3" stroke="none" stroke-width="0" stroke-linecap="butt"/><path d="M258.85389,97.15177c0,0 0.18105,0.04011 0.36167,0.00181c0.15933,-0.03379 0.31832,-0.14313 0.35236,-0.1886c0.07243,-0.09677 0.18678,-0.22243 0.35463,-0.33841c0.303,-0.20936 0.78421,-0.38029 1.01839,-0.38029c0.26011,0 0.80524,0.1528 1.12198,0.3799c0.3004,0.21538 0.64521,0.56921 0.64521,0.56921" fill="none" stroke="#734684" stroke-width="0.5" stroke-linecap="round"/><path d="M244.61343,94.60665l-0.01861,-2.22653c0,0 1.22637,-0.57903 1.80521,-0.57903c0.63948,0 1.86788,0.57903 1.86788,0.57903v2.25169c0,0 -1.18177,-0.47833 -1.81752,-0.47833c-0.70176,0 -1.83696,0.45316 -1.83696,0.45316z" fill="#d3d9e3" stroke="none" stroke-width="0" stroke-linecap="butt"/><path d="M240.80588,94.60665l0.34037,-2.2517c0,0 1.00327,-0.60421 1.5278,-0.60421c0.62015,0 1.95449,0.60421 1.95449,0.60421l-0.02518,2.2517c0,0 -1.25999,-0.40281 -1.90413,-0.40281c-0.62975,0 -1.89335,0.40281 -1.89335,0.40281z" fill="#ffffff" stroke="none" stroke-width="0" stroke-linecap="butt"/><path d="M240.94064,97.30888c0,0 0.44889,-0.44567 0.78501,-0.67791c0.303,-0.20936 0.80974,-0.30368 1.04393,-0.30368c0.26011,0 0.7797,0.07618 1.09644,0.30328c0.15422,0.11057 0.25689,0.24039 0.32029,0.34054c0.02934,0.04635 0.18026,0.1518 0.32707,0.18059c0.15392,0.03019 0.30331,-0.01737 0.30331,-0.01737" fill="none" stroke="#845098" stroke-width="0.5" stroke-linecap="round"/><g stroke="none" stroke-width="0" stroke-linecap="butt"><path d="M259.04116,92.39154l-0.61092,-1.44004c0,0 0.51876,-1.36975 1.08427,-1.3624c0.55431,0.0072 2.27583,1.40603 2.27583,1.40603l0.72002,1.39641c0,0 -1.20301,-0.35246 -1.78542,-0.35246c-0.57386,0 -1.68377,0.35246 -1.68377,0.35246z" data-paper-data="{&quot;index&quot;:null}" fill="#734684"/><path d="M255.50651,92.3697l-0.30547,-1.37458c0,0 0.69314,-1.88817 1.34475,-1.88817c0.59399,0 2.40809,1.88817 2.40809,1.88817l0.24001,1.3964c0,0 -1.32416,-0.31038 -1.96835,-0.3142c-0.57767,-0.00342 -1.71903,0.29237 -1.71903,0.29237z" data-paper-data="{&quot;index&quot;:null}" fill="#845098"/><path d="M251.90641,92.3697c0,0 -0.53103,-0.24837 -0.53293,-0.36779c-0.00386,-0.24317 0.5111,-1.00679 0.5111,-1.00679c0,0 0.85196,-1.25879 1.41357,-1.25879c0.59307,0 2.05563,1.25879 2.05563,1.25879l0.24001,1.39639c0,0 -1.2592,-0.28587 -1.918,-0.28977c-0.55096,-0.00326 -1.76938,0.26795 -1.76938,0.26795z" data-paper-data="{&quot;index&quot;:null}" fill="#734684"/><path d="M248.1888,92.36301l-0.10071,-1.36787c0,0 1.2305,-1.61124 1.88687,-1.61124c0.6135,0 1.93143,1.61124 1.93143,1.61124v1.41823c0,0 -1.21254,-0.27693 -1.83073,-0.27693c-0.65269,0 -1.88687,0.22659 -1.88687,0.22659z" fill="#845098"/><path d="M244.53164,92.41335l0.72002,-1.39639c0,0 0.90457,-1.25878 1.34979,-1.25878c0.53469,0 1.6394,1.25878 1.6394,1.25878l-0.02182,1.37458c0,0 -1.14625,-0.29533 -1.74318,-0.29179c-0.63039,0.00373 -1.94421,0.31362 -1.94421,0.31362z" fill="#734684"/><path d="M241.14972,92.39154l0.72002,-1.3964c0,0 1.68337,-1.73712 2.23933,-1.73712c0.59746,0 1.22987,1.73712 1.22987,1.73712l-0.72002,1.3964c0,0 -1.15187,-0.30211 -1.74344,-0.30211c-0.56346,0 -1.72575,0.30211 -1.72575,0.30211z" fill="#845098"/></g><path d="M248.54669,97.12995c0,0 0.12161,-0.27112 0.45773,-0.50337c0.303,-0.20936 0.80975,-0.38029 1.04393,-0.38029c0.26011,0 0.8563,0.12726 1.17305,0.35436c0.13755,0.09863 0.25965,0.21257 0.3239,0.30711c0.03941,0.05799 0.14028,0.2316 0.32676,0.2557c0.1734,0.02241 0.3325,-0.07715 0.3325,-0.07715" fill="none" stroke="#845098" stroke-width="0.5" stroke-linecap="round"/><path d="M255.3796,90.98493l-0.20235,-2.23009c0,0 0.0888,-0.67975 0.53775,-0.67975c0.61237,0 2.80083,0.67975 2.80083,0.67975l0.37763,2.25526c0,0 -1.58386,-0.35246 -2.19662,-0.35246c-0.60885,0 -1.31725,0.32728 -1.31725,0.32728z" fill="#ffffff" stroke="none" stroke-width="0" stroke-linecap="butt"/><path d="M251.84646,90.98493l-0.00096,-2.20492c0,0 0.64702,-0.7301 1.20089,-0.7301c0.55895,0 2.13769,0.7301 2.13769,0.7301l0.23833,2.23009c0,0 -1.19111,-0.30211 -1.87251,-0.30211c-0.6784,0 -1.70344,0.27694 -1.70344,0.27694z" fill="#d3d9e3" stroke="none" stroke-width="0" stroke-linecap="butt"/><path d="M248.25883,90.98493l0.32633,-2.23009c0,0 1.09422,-0.70492 1.64156,-0.70492c0.56497,0 1.69701,0.70492 1.69701,0.70492v2.23009c0,0 -1.25208,-0.32728 -1.84807,-0.32728c-0.62433,0 -1.81684,0.32728 -1.81684,0.32728z" fill="#ffffef" stroke="none" stroke-width="0" stroke-linecap="butt"/><path d="M241.80954,91.0101l1.44395,-2.23009c0,0 1.08875,-0.79653 1.53527,-0.80662c0.61304,-0.01386 1.80443,0.7311 1.80443,0.7311l-1.30912,2.30562c0,0 -1.19331,-0.32728 -1.77922,-0.32728c-0.57192,0 -1.6953,0.32728 -1.6953,0.32728z" fill="#ffffff" stroke="none" stroke-width="0" stroke-linecap="butt"/><path d="M245.25774,91.03528l0.70396,-2.28045c0,0 1.25082,-0.82479 1.62174,-0.82122c0.47334,0.00456 0.98675,0.84639 0.98675,0.84639l-0.28365,2.23008c0,0 -1.035,-0.3021 -1.5844,-0.3021c-0.57639,0 -1.44441,0.32728 -1.44441,0.32728z" fill="#d3d9e3" stroke="none" stroke-width="0" stroke-linecap="butt"/><path d="M258.89775,91.00654l-1.07416,-2.20491c0,0 0.05151,-0.88115 0.48448,-0.88115c0.39266,0 2.00428,0.88115 2.00428,0.88115l1.53123,2.23009c0,0 -1.11382,-0.42798 -1.64734,-0.42798c-0.61346,0 -1.2985,0.40281 -1.2985,0.40281z" data-paper-data="{&quot;index&quot;:null}" fill="#d3d9e3" stroke="none" stroke-width="0" stroke-linecap="butt"/><g stroke="none" stroke-width="0" stroke-linecap="butt"><path d="M257.81938,88.74443l-0.78948,-1.41486c0,0 0.45552,-0.33822 0.82637,-0.331c0.3771,0.00733 1.41779,0.37463 1.41779,0.37463l1.01077,1.39642c0,0 -1.03485,-0.30211 -1.49842,-0.30211c-0.45892,0 -0.96704,0.27693 -0.96704,0.27693z" data-paper-data="{&quot;index&quot;:null}" fill="#734684"/><path d="M255.12548,88.77297l-0.67167,-1.39977c0,0 0.65806,-0.57903 1.11014,-0.57903c0.46547,0 1.64369,0.57903 1.64369,0.57903l0.68323,1.39642c0,0 -1.30034,-0.25935 -1.79882,-0.26305c-0.48146,-0.00357 -0.96657,0.2664 -0.96657,0.2664z" data-paper-data="{&quot;index&quot;:null}" fill="#845098"/><path d="M251.8255,88.74779l-0.0174,-1.37458c0,0 0.93021,-0.57903 1.41453,-0.57903c0.43227,0 1.35302,0.57903 1.35302,0.57903l0.54393,1.44675c0,0 -1.32458,-0.35911 -1.79666,-0.36261c-0.50609,-0.00375 -1.49741,0.29044 -1.49741,0.29044z" data-paper-data="{&quot;index&quot;:null}" fill="#734684"/><path d="M248.62839,88.79143l0.15106,-1.41822c0,0 1.14035,-0.50351 1.67386,-0.50351c0.47503,0 1.37219,0.50351 1.37219,0.50351v1.41822c0,0 -1.0326,-0.22658 -1.54843,-0.22658c-0.49897,0 -1.64869,0.22658 -1.64869,0.22658z" fill="#845098"/><path d="M245.94226,88.79143l0.57439,-1.3964c0,0 0.85924,-0.60422 1.21769,-0.60422c0.42504,0 1.16694,0.60422 1.16694,0.60422l-0.24398,1.39977c0,0 -0.73634,-0.31901 -1.24986,-0.3152c-0.46144,0.00343 -1.46518,0.31184 -1.46518,0.31184z" fill="#734684"/><path d="M243.24433,88.7696l1.15176,-1.39639c0,0 1.28446,-0.70492 1.65149,-0.70492c0.38715,0 0.53869,0.70492 0.53869,0.70492l-0.57439,1.39639c0,0 -0.8666,-0.25174 -1.34896,-0.25174c-0.43534,0 -1.4186,0.25174 -1.4186,0.25174z" fill="#845098"/></g><path d="M254.61003,87.41964l-0.81136,-1.21089l3.07071,-0.02517l0.43302,1.26123c0,0 -0.8348,-0.30211 -1.41116,-0.30211c-0.60503,0 -1.2812,0.27694 -1.2812,0.27694z" fill="#ffffff" stroke="none" stroke-width="0" stroke-linecap="butt"/><path d="M251.87176,87.41964l-0.10645,-1.23606h2.11403l0.79086,1.23606c0,0 -1.09772,-0.22658 -1.62383,-0.22658c-0.49741,0 -1.17462,0.22658 -1.17462,0.22658z" fill="#d3d9e3" stroke="none" stroke-width="0" stroke-linecap="butt"/><path d="M248.91039,87.46998l0.47259,-1.28641l2.34062,0.02518l0.17622,1.21087c0,0 -1.08771,-0.22657 -1.5724,-0.22657c-0.42962,0 -1.41703,0.27693 -1.41703,0.27693z" fill="#ffffef" stroke="none" stroke-width="0" stroke-linecap="butt"/><path d="M244.27507,87.41964l2.02676,-1.23606l2.30451,-0.17623l-1.96369,1.41229c0,0 -0.57607,-0.3021 -1.02304,-0.3021c-0.42504,0 -1.34453,0.3021 -1.34453,0.3021z" fill="#ffffff" stroke="none" stroke-width="0" stroke-linecap="butt"/><path d="M246.6743,87.39445l1.3638,-1.28641l1.535,0.07552l-0.64181,1.26124c0,0 -0.58992,-0.27694 -1.07106,-0.27694c-0.55446,0 -1.18592,0.22657 -1.18592,0.22657z" fill="#d3d9e3" stroke="none" stroke-width="0" stroke-linecap="butt"/><path d="M257.26392,87.4316l-1.89825,-1.28641l1.63619,0.05034l2.3762,1.23606c0,0 -1.03897,-0.15105 -1.42245,-0.15105c-0.31683,0 -0.69169,0.15105 -0.69169,0.15105z" data-paper-data="{&quot;index&quot;:null}" fill="#d3d9e3" stroke="none" stroke-width="0" stroke-linecap="butt"/><g stroke="none" stroke-width="0" stroke-linecap="butt"><path d="M255.22081,86.18152l-0.80573,-0.88873l0.70116,0.02693l1.83032,0.86181z" data-paper-data="{&quot;index&quot;:null}" fill="#734684"/><path d="M253.48434,86.16806l-0.15196,-0.84834h1.17171l0.81452,0.86181z" data-paper-data="{&quot;index&quot;:null}" fill="#845098"/><path d="M251.67166,86.16806l-0.01085,-0.84834h1.72573l0.3594,0.86181z" data-paper-data="{&quot;index&quot;:null}" fill="#734684"/><path d="M249.40134,86.195l0.37092,-0.87527h1.8994v0.87527z" fill="#845098"/><path d="M248.0031,86.195l0.72909,-0.8618h1.11604l-0.25086,0.84834z" fill="#734684"/><path d="M246.32078,86.18152l1.89296,-0.86181h0.78007l-0.94729,0.86181z" fill="#845098"/></g><g stroke="none" stroke-width="0" stroke-linecap="butt"><path d="M252.70977,85.33278l0.1106,-0.43444h1.13153l0.35314,0.43444z" fill="#ffffff"/><path d="M251.58056,85.33278l0.1106,-0.43444h1.13152l0.14051,0.43444z" fill="#d3d9e3"/><path d="M250.47555,85.33278l0.1106,-0.43444h1.13152v0.43444z" fill="#ffffef"/><path d="M248.28974,85.33278l0.91119,-0.43444h0.26639v0.43444z" fill="#ffffff"/><path d="M249.07411,85.33278l0.37545,-0.43444h1.13153l-0.09613,0.43444z" fill="#d3d9e3"/><path d="M254.11796,85.33699l-0.40067,-0.43444h0.29417l1.0683,0.43444z" data-paper-data="{&quot;index&quot;:null}" fill="#d3d9e3"/></g></g></g></g></svg>