<svg version="1.1" xmlns="http://www.w3.org/2000/svg" xmlns:xlink="http://www.w3.org/1999/xlink" width="305.33223" height="311.80733" viewBox="0,0,305.33223,311.80733"><g transform="translate(-87.33388,-24.09634)"><g data-paper-data="{&quot;isPaintingLayer&quot;:true}" fill-rule="nonzero" stroke-width="0.5" stroke-linecap="round" stroke-linejoin="miter" stroke-miterlimit="10" stroke-dasharray="" stroke-dashoffset="0" style="mix-blend-mode: normal"><g data-paper-data="{&quot;index&quot;:null}"><path d="M87.85362,162.65366l1.01953,-1.62413l28.34308,-8.12068l18.55554,-10.42154l17.3321,6.63188l11.82661,-1.4888l9.99145,7.03792l16.31256,7.98534z" fill="#ffffff" stroke="#ffffff"/><path d="M89.68877,162.65366l27.73136,-5.95516l12.03051,-7.17326l15.70084,7.44395l5.30158,-2.7069l4.89377,3.24827l9.99145,-6.90257l6.93284,6.49654l18.75945,5.54913z" fill="#e9f8ff" stroke="#e9f8ff"/></g><g><path d="M265.85362,40.65364l8.47067,-6.43456l5.18829,-5.67114l6.14124,1.19967l9.00009,-5.34396l9.63539,8.39765l14.71779,6.54362l0.52942,1.30872z" fill="#ffffff" stroke="#ffffff"/><path d="M265.9595,40.65364l9.74127,-4.47147l3.60003,-5.2349l5.18829,5.56208l2.5412,-2.61745l2.75296,2.1812l8.15302,-5.99832l6.24712,5.7802l14.40014,4.79866z" fill="#e9f8ff" stroke="#e9f8ff"/></g><g><path d="M308.85361,243.65367l13.16213,-8.41443l8.0618,-7.4161l9.54253,1.56879l13.98476,-6.98826l14.97191,10.98154l22.86919,8.55704l0.82263,1.71141z" fill="#ffffff" stroke="#ffffff"/><path d="M309.01815,243.65367l15.13643,-5.84731l5.59389,-6.84564l8.0618,7.27348l3.94864,-3.42281l4.27768,2.85234l12.66855,-7.84396l9.70706,7.55872l22.37561,6.27517z" fill="#e9f8ff" stroke="#e9f8ff"/></g><g><path d="M90.8536,335.65368l17.42249,-6.43456l10.67127,-5.67114l12.63128,1.19967l18.51139,-5.34397l19.81806,8.39765l30.27156,6.54362l1.0889,1.30873z" fill="#ffffff" stroke="#ffffff"/><path d="M91.0714,335.65368l20.03583,-4.47147l7.40454,-5.2349l10.67127,5.56207l5.22675,-2.61744l5.66229,2.1812l16.76914,-5.99832l12.84907,5.7802l29.61821,4.79866z" fill="#e9f8ff" stroke="#e9f8ff"/></g></g></g></svg>