<svg version="1.1" xmlns="http://www.w3.org/2000/svg" xmlns:xlink="http://www.w3.org/1999/xlink" width="48" height="103" viewBox="0,0,48,103"><g transform="translate(-221.5,-201.00001)"><g data-paper-data="{&quot;isPaintingLayer&quot;:true}" fill-rule="nonzero" stroke-linecap="butt" stroke-linejoin="miter" stroke-miterlimit="10" stroke-dasharray="" stroke-dashoffset="0" style="mix-blend-mode: normal"><path d="M241.43315,223.58273c0,-0.63905 0.51805,-1.1571 1.1571,-1.1571c0.63905,0 1.1571,0.51805 1.1571,1.1571c0,0.63905 -0.51805,1.1571 -1.1571,1.1571c-0.63905,0 -1.1571,-0.51805 -1.1571,-1.1571z" fill="#a84303" stroke="#000000" stroke-width="0"/><path d="M245.75256,223.57038c0,-0.63905 0.51805,-1.1571 1.1571,-1.1571c0.63905,0 1.1571,0.51804 1.1571,1.1571c0,0.63905 -0.51804,1.1571 -1.1571,1.1571c-0.63905,0 -1.1571,-0.51805 -1.1571,-1.1571z" fill="#a84303" stroke="#000000" stroke-width="0"/><path d="M245.78832,290.58554c0,-0.63905 0.51805,-1.15709 1.1571,-1.15709c0.63905,0 1.1571,0.51804 1.1571,1.15709c0,0.63905 -0.51804,1.1571 -1.1571,1.1571c-0.63905,0 -1.1571,-0.51805 -1.1571,-1.1571z" fill="#7e3201" stroke="#000000" stroke-width="0"/><path d="M241.40556,290.5678c0,-0.63905 0.51805,-1.15709 1.1571,-1.15709c0.63905,0 1.1571,0.51804 1.1571,1.15709c0,0.63905 -0.51804,1.1571 -1.1571,1.1571c-0.63905,0 -1.1571,-0.51805 -1.1571,-1.1571z" fill="#7e3201" stroke="#000000" stroke-width="0"/><path d="M242.73544,225.53988v-3.12136h4.49226v3.12136z" fill="#a84303" stroke="none" stroke-width="0"/><path d="M241.39307,225.83916v-2.28905h6.6808v2.28905z" fill="#a84303" stroke="none" stroke-width="0"/><path d="M241.39307,237.24948v-11.59746h6.6808v11.59746z" fill="#943900" stroke="none" stroke-width="0"/><path d="M241.39307,290.45756v-53.39523h6.6808v53.39523z" fill="#7e3201" stroke="none" stroke-width="0"/><path d="M242.73887,291.72105v-3.5432h3.90353v3.5432z" fill="#7e3201" stroke="none" stroke-width="0"/><path d="M241.3226,291.28845c0,-4.14618 0,-60.75461 0,-67.87568c0,-0.47914 0.32205,-0.73424 0.81916,-0.73424c1.45653,0 4.4159,0 5.18054,0c0.35367,0 0.71343,0.27389 0.71343,0.7871c0,7.33213 0,63.51308 0,67.76996c0,0.50417 -0.2772,0.83997 -0.71343,0.83997c-1.38411,0 -4.3692,0 -5.18054,0c-0.3978,0 -0.81916,-0.31313 -0.81916,-0.7871z" fill="#02a1ff" stroke="#94908d" stroke-width="1.5"/><path d="M241.73016,292.19842v-61.03966h0.88889v61.03966z" fill="#ffce00" stroke="none" stroke-width="0"/><path d="M246.78571,292.19842v-61.03966h0.88889v61.03966z" fill="#ffce00" stroke="none" stroke-width="0"/><path d="M241.73015,292.19842v-61.03966h6.11111v61.03966z" fill="#dc4454" stroke="none" stroke-width="0"/><path d="M241.3226,291.28844c0,-4.14618 0,-60.75461 0,-67.87568c0,-0.47914 0.32205,-0.73424 0.81916,-0.73424c1.45653,0 4.4159,0 5.18054,0c0.35367,0 0.71343,0.27389 0.71343,0.7871c0,7.33213 0,63.51308 0,67.76996c0,0.50417 -0.2772,0.83997 -0.71343,0.83997c-1.38411,0 -4.3692,0 -5.18054,0c-0.3978,0 -0.81916,-0.31313 -0.81916,-0.7871z" fill="none" stroke="#94908d" stroke-width="1.5"/><path d="M221.5,304.00001v-103h48v103z" fill="none" stroke="none" stroke-width="0"/></g></g></svg>