<svg version="1.1" xmlns="http://www.w3.org/2000/svg" xmlns:xlink="http://www.w3.org/1999/xlink" width="85" height="85" viewBox="0,0,85,85"><g transform="translate(-197.5,-137.5)"><g data-paper-data="{&quot;isPaintingLayer&quot;:true}" fill-rule="nonzero" stroke="none" stroke-linecap="butt" stroke-linejoin="miter" stroke-miterlimit="10" stroke-dasharray="" stroke-dashoffset="0" style="mix-blend-mode: normal"><path d="M239.52374,183.49248c-0.40922,-0.08467 -0.72319,-0.27869 -0.94191,-0.58208c-0.21167,-0.30339 -0.3175,-0.69144 -0.3175,-1.16416v-0.48683h1.10066v0.56091c0,0.43039 0.20108,0.64558 0.60325,0.64558c0.40217,0 0.60325,-0.22225 0.60325,-0.66675c0,-0.27517 -0.07056,-0.52211 -0.21167,-0.74083c-0.14111,-0.22578 -0.40217,-0.48683 -0.78316,-0.78316c-0.47272,-0.37394 -0.80433,-0.72319 -0.99483,-1.04775c-0.1905,-0.32455 -0.28575,-0.69144 -0.28575,-1.10066c0,-0.45861 0.10231,-0.83608 0.30692,-1.13241c0.21167,-0.29633 0.51858,-0.49036 0.92075,-0.58208v-0.64558h0.9525v0.64558c0.40922,0.08467 0.71966,0.27869 0.93133,0.58208c0.21167,0.29633 0.3175,0.68086 0.3175,1.15358v0.21167h-1.10066v-0.28575c0,-0.43744 -0.19403,-0.65616 -0.58208,-0.65616c-0.38805,0 -0.58208,0.21167 -0.58208,0.635c0,0.254 0.07056,0.49036 0.21167,0.70908c0.14111,0.21167 0.40217,0.46919 0.78316,0.77258c0.47272,0.381 0.80433,0.7373 0.99483,1.06891c0.1905,0.32455 0.28575,0.6985 0.28575,1.12183c0,0.47978 -0.10936,0.87489 -0.32808,1.18533c-0.21167,0.30339 -0.52211,0.49742 -0.93133,0.58208v0.74083h-0.9525z" fill="#000000" stroke-width="0.26458"/><path d="M197.5,222.5v-85h85v85z" fill="none" stroke-width="0"/></g></g></svg>