<svg version="1.1" xmlns="http://www.w3.org/2000/svg" xmlns:xlink="http://www.w3.org/1999/xlink" width="244" height="341" viewBox="0,0,244,341"><g transform="translate(-124.5,-128.25)"><g data-paper-data="{&quot;isPaintingLayer&quot;:true}" fill-rule="nonzero" stroke-linejoin="miter" stroke-miterlimit="10" stroke-dasharray="" stroke-dashoffset="0" style="mix-blend-mode: normal"><path d="M124.5,469.25v-341h244v341z" fill="none" stroke="none" stroke-width="NaN" stroke-linecap="butt"/><path d="M157.2761,332.36202l12.23074,-15.8h142.38773l12.0482,15.6z" fill="#5c471e" stroke="#00172e" stroke-width="0" stroke-linecap="butt"/><path d="M157.4761,333.16202l12.25031,-15.8h142.61555l12.06747,15.6z" fill="#5b533c" stroke="#00172e" stroke-width="0" stroke-linecap="butt"/><path d="M158.22004,302.59643l18.49181,18.4918" fill="none" stroke="#565127" stroke-width="3.5" stroke-linecap="round"/><path d="M158.00249,286.0626l18.32863,18.32864" fill="none" stroke="#565127" stroke-width="3.5" stroke-linecap="round"/><path d="M158.39407,271.00808l18.1002,18.10021" fill="none" stroke="#565127" stroke-width="3.5" stroke-linecap="round"/><path d="M175.95041,271.16037l-17.94792,-17.94792" fill="none" stroke="#565127" stroke-width="3.5" stroke-linecap="round"/><path d="M176.27674,254.51775l-18.17635,-18.17635" fill="none" stroke="#565127" stroke-width="3.5" stroke-linecap="round"/><path d="M158.12758,221.14005l18.14916,18.14917" fill="none" stroke="#565127" stroke-width="3.5" stroke-linecap="round"/><path d="M158.00249,203.82846l18.01591,18.01591" fill="none" stroke="#565127" stroke-width="3.5" stroke-linecap="round"/><path d="M170.51166,184.35769l-12.50916,-12.50916" fill="none" stroke="#565127" stroke-width="3.5" stroke-linecap="round"/><path d="M175.08022,172.17486l-15.55488,-15.55488" fill="none" stroke="#565127" stroke-width="3.5" stroke-linecap="round"/><path d="M147.87007,153.81359v-13.47726h15.53311v13.47726z" fill="#4d4d2f" stroke="none" stroke-width="0" stroke-linecap="butt"/><path d="M151.86756,154.23248v172.99623" fill="none" stroke="#575035" stroke-width="1.5" stroke-linecap="round"/><path d="M151.25843,206.61865h5.17771" fill="none" stroke="#49432d" stroke-width="2.5" stroke-linecap="round"/><path d="M156.74071,255.34998h-5.48228" fill="none" stroke="#49432d" stroke-width="2.5" stroke-linecap="round"/><path d="M186.95234,155.22669c0,-1.06368 0.86229,-1.92597 1.92597,-1.92597c1.06368,0 1.92597,0.86229 1.92597,1.92597c0,1.06368 -0.86229,1.92597 -1.92597,1.92597c-1.06368,0 -1.92597,-0.86229 -1.92597,-1.92597z" fill="#4d4d2f" stroke="none" stroke-width="0" stroke-linecap="butt"/><path d="M145.37705,154.9893v-2.23949h45.42723v2.23949z" fill="#4d4d2f" stroke="none" stroke-width="0" stroke-linecap="butt"/><path d="M145.38429,155.20913c0,-1.06368 0.86229,-1.92597 1.92595,-1.92597c1.06368,0 1.92597,0.86229 1.92597,1.92597c0,1.06368 -0.86229,1.92595 -1.92597,1.92595c-1.06368,0 -1.92595,-0.86227 -1.92595,-1.92595z" fill="#4d4d2f" stroke="none" stroke-width="0" stroke-linecap="butt"/><path d="M147.53213,155.89027v-4.62714h20.6171v4.62714z" fill="#4d4d2f" stroke="none" stroke-width="0" stroke-linecap="butt"/><path d="M145.29058,153.21185c0,-1.06368 0.86229,-1.92596 1.92595,-1.92596c1.06368,0 1.92595,0.86228 1.92595,1.92596c0,1.06368 -0.86229,1.92597 -1.92595,1.92597c-1.06368,0 -1.92595,-0.86229 -1.92595,-1.92597z" fill="#4d4d2f" stroke="none" stroke-width="0" stroke-linecap="butt"/><path d="M166.67495,153.1357c0,-1.06368 0.86229,-1.92595 1.92595,-1.92595c1.06368,0 1.92597,0.86227 1.92597,1.92595c0,1.06368 -0.86229,1.92597 -1.92597,1.92597c-1.06368,0 -1.92595,-0.86229 -1.92595,-1.92597z" fill="#4d4d2f" stroke="none" stroke-width="0" stroke-linecap="butt"/><path d="M149.69927,155.8317v-17.45425h11.64397v17.45425z" fill="#4d4d2f" stroke="none" stroke-width="0" stroke-linecap="butt"/><path d="M159.49998,140.26756c0,-1.06368 0.86229,-1.92595 1.92597,-1.92595c1.06368,0 1.92596,0.86227 1.92596,1.92595c0,1.06368 -0.86229,1.92597 -1.92596,1.92597c-1.06368,0 -1.92597,-0.86229 -1.92597,-1.92597z" fill="#4d4d2f" stroke="none" stroke-width="0" stroke-linecap="butt"/><path d="M147.76813,140.26756c0,-1.06368 0.86229,-1.92595 1.92595,-1.92595c1.06368,0 1.92596,0.86227 1.92596,1.92595c0,1.06368 -0.86229,1.92597 -1.92596,1.92597c-1.06368,0 -1.92595,-0.86229 -1.92595,-1.92597z" fill="#4d4d2f" stroke="none" stroke-width="0" stroke-linecap="butt"/><path d="M162.06995,150.99974c-0.29281,-0.12201 -0.77356,-0.61517 -0.77356,-0.61517l0.05857,-8.78571c0,0 0.67671,-0.66524 1.03711,-0.86087c0.31749,-0.17235 1.01288,-0.25198 1.01288,-0.25198v10.77712c0,0 -0.95033,-0.10311 -1.33501,-0.2634z" data-paper-data="{&quot;index&quot;:null}" fill="#404027" stroke="none" stroke-width="0" stroke-linecap="butt"/><path d="M147.76642,151.32171v-10.77712c0,0 0.69539,0.07963 1.01287,0.25197c0.3604,0.19564 1.03711,0.86088 1.03711,0.86088l0.05857,8.7857c0,0 -0.48075,0.49316 -0.77357,0.61518c-0.38467,0.16028 -1.33501,0.26339 -1.33501,0.26339z" fill="#404027" stroke="none" stroke-width="0" stroke-linecap="butt"/><path d="M151.22212,142.53601c0,-0.50834 0.13532,-1.32229 0.8354,-1.66734c0.77002,-0.37953 2.16181,-0.32408 3.38174,-0.32408c1.07156,0 2.4598,-0.16824 3.20372,0.13352c0.87303,0.35413 1.01342,1.28155 1.01342,1.85791c0,0.52021 -0.15552,1.2267 -0.88479,1.57415c-0.76725,0.36553 -2.13827,0.35871 -3.33234,0.35871c-1.21956,0 -2.55253,0.11415 -3.32249,-0.26517c-0.70048,-0.34509 -0.89465,-1.15917 -0.89465,-1.66768z" fill="#7b7302" stroke="#b8b665" stroke-width="0" stroke-linecap="butt"/><path d="M157.13231,304.33684h-5.65633" fill="none" stroke="#49432d" stroke-width="2.5" stroke-linecap="round"/><path d="M174.53634,158.14285l-15.62557,15.62557" fill="none" stroke="#504b24" stroke-width="3.5" stroke-linecap="round"/><path d="M176.27674,173.58894l-15.88119,15.88119" fill="none" stroke="#504b24" stroke-width="3.5" stroke-linecap="round"/><path d="M158.22004,206.87417l8.91957,-8.91957" fill="none" stroke="#504b24" stroke-width="3.5" stroke-linecap="round"/><path d="M158.27987,222.91308l17.77933,-16.90911" fill="none" stroke="#504b24" stroke-width="3.5" stroke-linecap="round"/><path d="M176.54868,222.04833l-17.67598,17.67598" fill="none" stroke="#504b24" stroke-width="3.5" stroke-linecap="round"/><path d="M176.71185,237.98391l-17.6216,17.6216" fill="none" stroke="#504b24" stroke-width="3.5" stroke-linecap="round"/><path d="M159.30779,271.4867l16.09875,-16.09875" fill="none" stroke="#504b24" stroke-width="3.5" stroke-linecap="round"/><path d="M158.8727,289.10829l17.73037,-17.73037" fill="none" stroke="#504b24" stroke-width="3.5" stroke-linecap="round"/><path d="M159.30779,305.64214l16.42506,-16.42506" fill="none" stroke="#504b24" stroke-width="3.5" stroke-linecap="round"/><path d="M158.22004,321.52333l18.38303,-18.38303" fill="none" stroke="#504b24" stroke-width="3.5" stroke-linecap="round"/><path d="M176.0592,207.74438l-12.40039,-14.79345" fill="none" stroke="#565127" stroke-width="3.5" stroke-linecap="round"/><path d="M174.71038,325.40128v-168.73223h3.95943v168.73224z" fill="#59563c" stroke="none" stroke-width="0" stroke-linecap="butt"/><path d="M156.13156,326.0104v-170.02666h3.95943v170.02667z" fill="#59563c" stroke="none" stroke-width="0" stroke-linecap="butt"/><path d="M147.3099,157.15645v-2.23949h41.50294v2.23949z" fill="#4d4d2f" stroke="none" stroke-width="0" stroke-linecap="butt"/><g fill="#4d4c33" stroke="none" stroke-width="0" stroke-linecap="butt"><path d="M154.93337,183.37503c0,-0.84105 0.6818,-1.52285 1.52286,-1.52285c0.84106,0 1.52285,0.68181 1.52285,1.52285c0,0.84105 -0.68179,1.52286 -1.52285,1.52286c-0.84106,0 -1.52286,-0.68182 -1.52286,-1.52286z"/><path d="M177.48007,183.39921c0,-0.84105 0.6818,-1.52286 1.52286,-1.52286c0.84106,0 1.52285,0.68182 1.52285,1.52286c0,0.84105 -0.68179,1.52286 -1.52285,1.52286c-0.84106,0 -1.52286,-0.68182 -1.52286,-1.52286z"/><path d="M177.48854,202.04057c0,-0.84106 0.6818,-1.52286 1.52286,-1.52286c0.84106,0 1.52286,0.6818 1.52286,1.52286c0,0.84106 -0.6818,1.52285 -1.52286,1.52285c-0.84106,0 -1.52286,-0.68179 -1.52286,-1.52285z"/><path d="M154.92279,202.06171c0,-0.84106 0.6818,-1.52286 1.52286,-1.52286c0.84106,0 1.52285,0.6818 1.52285,1.52286c0,0.84106 -0.68179,1.52286 -1.52285,1.52286c-0.84106,0 -1.52286,-0.6818 -1.52286,-1.52286z"/><path d="M156.47739,203.56343v-21.70067h22.43036v21.70067z"/><path d="M177.41889,202.66602v-18.98128h3.10009v18.98128z"/><path d="M154.91751,202.15453v-18.86646h3.04571v18.86646z"/></g><path d="M146.70943,450.05839v-128c0,0 30.78816,0 52.3,0c0.64408,0 1.31111,1.4 2,1.4c17.99952,0 50.92623,0.29923 79.59837,0.20534c1.07351,-0.00352 2.14106,-1.60534 3.20163,-1.60534c27.85411,0 50.9,0 50.9,0v128z" fill="#696553" stroke="none" stroke-width="0" stroke-linecap="butt"/><path d="M146.70943,451.65839v-128c0,0 30.78816,0 52.3,0c0.64408,0 1.31111,1.4 2,1.4c17.99952,0 50.92623,0.29923 79.59837,0.20534c1.07351,-0.00352 2.14106,-1.60534 3.20163,-1.60534c27.85411,0 50.9,0 50.9,0v128z" fill="#5b5c4a" stroke="none" stroke-width="0" stroke-linecap="butt"/></g></g></svg>