<svg version="1.1" xmlns="http://www.w3.org/2000/svg" xmlns:xlink="http://www.w3.org/1999/xlink" width="192.9039" height="312.60507" viewBox="0,0,192.9039,312.60507"><g transform="translate(-135.89218,-17.70834)"><g data-paper-data="{&quot;isPaintingLayer&quot;:true}" fill="#f9f4d6" fill-rule="nonzero" stroke="none" stroke-width="0" stroke-linecap="butt" stroke-linejoin="miter" stroke-miterlimit="10" stroke-dasharray="" stroke-dashoffset="0" style="mix-blend-mode: normal"><path d="M165.56763,43.27465c-2.8083,1.17896 -8.03939,-9.15638 -12.60165,-8.86794c-3.10722,0.19646 -6.42329,11.18095 -6.42329,11.18095l-10.65051,-8.53917c0,0 5.69838,-4.84452 10.06237,-3.89825c2.26112,0.4903 3.18657,-5.86521 6.10707,-14.84336c0.90843,-2.7927 4.12279,4.7694 7.05301,10.65477c1.76378,3.54257 1.18451,-10.63815 2.17753,-10.93452c1.96392,-0.58614 4.3104,8.90635 6.70924,10.18599c2.51333,1.34072 5.06589,-5.54997 6.47518,-7.20852c3.02257,-3.55719 4.32023,22.05545 4.32023,22.05545l-5.56731,-8.6758c0,0 -3.58073,7.17712 -7.66187,8.89042z" data-paper-data="{&quot;index&quot;:null}"/><path d="M296.56928,327.48081c-4.43201,-2.09823 -8.32059,-10.88781 -8.32059,-10.88781l-6.04596,10.62496c0,0 1.40922,-31.36697 4.69166,-27.0106c2.99118,3.9698 7.51791,15.84485 11.88525,17.31473c2.86998,0.96592 10.87647,-26.09733 12.45683,-20.61853c3.1716,10.99525 4.17661,18.77861 6.63213,18.17817c4.73918,-1.15886 10.92748,4.77404 10.92748,4.77404l-11.56619,10.45765c0,0 -3.60117,-13.45234 -6.97553,-13.69293c-4.95449,-0.35325 -10.63533,12.30411 -13.68508,10.86029z" data-paper-data="{&quot;index&quot;:null}"/><path d="M224.19772,211.54851c-2.65427,0.69482 -7.59844,-5.3964 -11.91045,-5.2264c-2.93678,0.11578 -6.07097,6.58957 -6.07097,6.58957l-10.06633,-5.03262c0,0 5.38582,-2.85514 9.51045,-2.29745c2.1371,0.28895 3.01179,-3.4567 5.7721,-8.74804c1.37543,-2.6366 8.34367,10.38728 10.84148,9.92244c3.801,-0.70737 7.74073,-6.4221 10.34402,-8.33252c2.8568,-2.09646 4.08327,12.99854 4.08327,12.99854l-5.26195,-5.11314c0,0 -3.38433,4.22989 -7.24161,5.23964z" data-paper-data="{&quot;index&quot;:null}"/><path d="M306.15602,128.1796c-2.98155,1.39257 -8.53534,-10.81551 -13.37902,-10.47479c-3.29888,0.23205 -6.81952,13.20687 -6.81952,13.20687l-11.30751,-10.08642c0,0 6.04989,-5.7223 10.68309,-4.60457c2.4006,0.57912 3.38314,-6.92794 6.4838,-17.53289c1.54502,-5.2843 9.37245,20.81827 12.17824,19.88663c4.26966,-1.41771 8.69516,-12.87122 11.61944,-16.7001c3.20905,-4.20174 4.58674,26.05178 4.58674,26.05178l-5.91075,-10.2478c0,0 -3.80162,8.47758 -8.1345,10.50133z" data-paper-data="{&quot;index&quot;:null}"/></g></g></svg>