<svg version="1.1" xmlns="http://www.w3.org/2000/svg" xmlns:xlink="http://www.w3.org/1999/xlink" width="93.8721" height="31.89986" viewBox="0,0,93.8721,31.89986"><g transform="translate(-224.39728,-164.3834)"><g data-paper-data="{&quot;isPaintingLayer&quot;:true}" fill-rule="nonzero" stroke-linejoin="miter" stroke-miterlimit="10" stroke-dasharray="" stroke-dashoffset="0" style="mix-blend-mode: normal"><g stroke="none" stroke-width="0" stroke-linecap="butt"><path d="M238.81579,196.28326v-28.6304h79.4536v28.6304z" fill-opacity="0.56471" fill="#19456c"/><path d="M224.92471,181.95366c-0.07277,-7.90573 22.79476,-17.15177 22.89668,-9.38671c0.17712,13.49459 -9.33518,1.90888 -9.26242,9.81461c0.03802,4.13097 4.40771,5.49776 4.43987,6.97077c0.01412,0.6471 -1.99285,-5.3727 -3.01181,-4.44123c-1.10052,1.00602 -1.21796,9.15262 -1.16084,11.08079c0.01673,0.56487 -0.83195,0.12188 -1.38023,0.06101c-6.98593,-0.77576 -12.45379,-6.76883 -12.52126,-14.09925z" fill-opacity="0.56471" fill="#19456c"/><path d="M238.28899,193.0138v-28.6304h79.4536v28.6304z" fill="#94c1eb"/><path d="M224.39792,178.82956c-0.07277,-7.90573 6.16332,-14.37321 13.92871,-14.44554c7.76539,-0.07234 14.11947,6.27789 14.19224,14.18363c0.07277,7.90573 -6.16332,14.37321 -13.92871,14.44554c-7.76539,0.07234 -14.11947,-6.27789 -14.19224,-14.18362z" fill="#94c1eb"/><path d="M238.4584,194.87731v-28.6304h79.4536v28.6304z" fill="#21567e"/><path d="M224.56734,180.69308c-0.07277,-7.90573 6.16332,-14.37321 13.92871,-14.44554c7.76539,-0.07234 14.11947,6.2779 14.19224,14.18363c0.07277,7.90573 -6.16332,14.37321 -13.92871,14.44554c-7.76539,0.07233 -14.11947,-6.27789 -14.19224,-14.18362z" fill="#21567e"/><path d="M238.4584,193.86085v-28.6304h79.4536v28.6304z" fill="#3491e3"/><path d="M224.56733,179.67662c-0.07277,-7.90573 6.16333,-14.37323 13.92873,-14.44555c7.76539,-0.07233 14.11947,6.27789 14.19224,14.18362c0.07277,7.90573 -6.16333,14.37323 -13.92873,14.44555c-7.76539,0.07233 -14.11947,-6.27789 -14.19224,-14.18362z" fill="#3491e3"/></g><path d="M226.08334,180c0,-7.68597 6.2307,-13.91666 13.91666,-13.91666c7.68597,0 13.91666,6.2307 13.91666,13.91666c0,7.68597 -6.2307,13.91666 -13.91666,13.91666c-7.68597,0 -13.91666,-6.2307 -13.91666,-13.91666z" fill="#3491e3" stroke="#f5f5f5" stroke-width="2.5" stroke-linecap="butt"/><path d="M239.80403,182.0098l6.18789,2.45181v4.78687l-6.18789,-2.56856l-5.83763,2.80207v-5.13711z" fill="#59a7eb" stroke="#59a7eb" stroke-width="0" stroke-linecap="round"/><path d="M239.779,175.64714l6.30464,2.45181v4.78687l-6.18789,-2.56856l-5.83763,2.80207v-5.13711z" fill="#86c1f7" stroke="#59a7eb" stroke-width="0" stroke-linecap="round"/><path d="M239.75399,169.35134l6.18789,2.45181v4.78687l-6.18789,-2.56856l-5.83763,2.80206v-5.13711z" fill="#bfe0ff" stroke="#59a7eb" stroke-width="0" stroke-linecap="round"/></g></g></svg>