<svg version="1.1" xmlns="http://www.w3.org/2000/svg" xmlns:xlink="http://www.w3.org/1999/xlink" width="93.51471" height="30.78326" viewBox="0,0,93.51471,30.78326"><g transform="translate(-224.3973,-164.38341)"><g data-paper-data="{&quot;isPaintingLayer&quot;:true}" fill-rule="nonzero" stroke-linejoin="miter" stroke-miterlimit="10" stroke-dasharray="" stroke-dashoffset="0" style="mix-blend-mode: normal"><path d="M238.289,193.01381v-28.6304h79.4536v28.6304z" fill="#f12c00" stroke="none" stroke-width="0" stroke-linecap="butt"/><path d="M224.39793,178.82957c-0.07277,-7.90573 6.16332,-14.37321 13.92871,-14.44554c7.76539,-0.07234 14.11947,6.27789 14.19224,14.18363c0.07277,7.90573 -6.16332,14.37321 -13.92871,14.44554c-7.76539,0.07234 -14.11947,-6.27789 -14.19224,-14.18362z" fill="#f12c00" stroke="none" stroke-width="0" stroke-linecap="butt"/><path d="M238.45841,194.87732v-28.6304h79.4536v28.6304z" fill="#791600" stroke="none" stroke-width="0" stroke-linecap="butt"/><path d="M224.56735,180.69309c-0.07277,-7.90573 6.16332,-14.37321 13.92871,-14.44554c7.76539,-0.07234 14.11947,6.2779 14.19224,14.18363c0.07277,7.90573 -6.16332,14.37321 -13.92871,14.44554c-7.76539,0.07233 -14.11947,-6.27789 -14.19224,-14.18362z" fill="#791600" stroke="none" stroke-width="0" stroke-linecap="butt"/><path d="M238.45841,193.86086v-28.6304h79.4536v28.6304z" fill="#931a00" stroke="none" stroke-width="0" stroke-linecap="butt"/><path d="M224.56734,179.67663c-0.07277,-7.90573 6.16333,-14.37323 13.92873,-14.44555c7.76539,-0.07233 14.11947,6.27789 14.19224,14.18362c0.07277,7.90573 -6.16333,14.37323 -13.92873,14.44555c-7.76539,0.07233 -14.11947,-6.27789 -14.19224,-14.18362z" fill="#f12c00" stroke="none" stroke-width="0" stroke-linecap="butt"/><path d="M226.08335,180.00001c0,-7.68597 6.2307,-13.91666 13.91666,-13.91666c7.68597,0 13.91666,6.2307 13.91666,13.91666c0,7.68597 -6.2307,13.91666 -13.91666,13.91666c-7.68597,0 -13.91666,-6.2307 -13.91666,-13.91666z" fill="#b22100" stroke="#f5f5f5" stroke-width="2.5" stroke-linecap="butt"/><path d="M239.80404,181.86352l6.18789,2.45181v4.78687l-6.18789,-2.56856l-5.83763,2.80207v-5.13711z" fill="#be2300" stroke="#59a7eb" stroke-width="0" stroke-linecap="round"/><path d="M239.77901,175.64715l6.30464,2.45181v4.78687l-6.18789,-2.56856l-5.83763,2.80207v-5.13711z" fill="#c32400" stroke="#59a7eb" stroke-width="0" stroke-linecap="round"/><path d="M239.754,169.35135l6.18789,2.45181v4.78687l-6.18789,-2.56856l-5.83763,2.80206v-5.13711z" fill="#d02600" stroke="#59a7eb" stroke-width="0" stroke-linecap="round"/></g></g></svg>