<svg version="1.1" xmlns="http://www.w3.org/2000/svg" xmlns:xlink="http://www.w3.org/1999/xlink" width="0.26065" height="0.26043" viewBox="0,0,0.26065,0.26043"><g transform="translate(-239.86968,-179.86978)"><g data-paper-data="{&quot;isPaintingLayer&quot;:true}" fill="#ecd850" fill-rule="nonzero" stroke="none" stroke-width="0" stroke-linecap="butt" stroke-linejoin="miter" stroke-miterlimit="10" stroke-dasharray="" stroke-dashoffset="0" style="mix-blend-mode: normal"><path d="M239.86968,180.08462c0,-0.05376 0,-0.1394 0,-0.16959c0,-0.01022 0.00398,-0.02373 0.0132,-0.03232c0.00972,-0.00905 0.02498,-0.01293 0.0364,-0.01293c0.02961,0 0.10873,0 0.16123,0c0.01399,0 0.02943,0.00348 0.0382,0.01206c0.00938,0.00918 0.01161,0.02385 0.01161,0.03486c0,0.02974 0,0.11205 0,0.16541c0,0.0282 -0.01883,0.04822 -0.04562,0.0481c-0.05372,-0.00025 -0.13946,-0.00062 -0.1696,-0.00062c-0.02075,0 -0.04543,-0.01808 -0.04543,-0.04497z"/></g></g></svg>