<svg version="1.1" xmlns="http://www.w3.org/2000/svg" xmlns:xlink="http://www.w3.org/1999/xlink" width="399.63965" height="414.27319" viewBox="0,0,399.63965,414.27319"><defs><linearGradient x1="250.83514" y1="-27.62399" x2="250.83514" y2="276.82213" gradientUnits="userSpaceOnUse" id="color-1"><stop offset="0" stop-color="#6fdcfb"/><stop offset="1" stop-color="#b6effd"/></linearGradient></defs><g transform="translate(-40.18018,27.62397)"><g data-paper-data="{&quot;isPaintingLayer&quot;:true}" fill-rule="nonzero" stroke-linejoin="miter" stroke-miterlimit="10" stroke-dasharray="" stroke-dashoffset="0" style="mix-blend-mode: normal"><path d="M84.49746,276.82213v-304.4461h332.67537v304.4461z" fill="url(#color-1)" stroke="none" stroke-width="0" stroke-linecap="butt"/><path d="M95.51351,277.39391l1,-33.33333l100,4l19,28.66667z" fill="#f38906" stroke="none" stroke-width="0" stroke-linecap="butt"/><path d="M40.18018,249.06058l0.66666,-47.33334c0,0 37.6357,1.77183 56.1295,5.32619c18.50619,3.55675 54.8705,16.00714 54.8705,16.00714l8.33333,25.33334z" fill="#f38906" stroke="none" stroke-width="0" stroke-linecap="butt"/><path d="M267.51351,276.3939l24.33333,-22.33334l94,-3.66666l1.66667,26.66666z" data-paper-data="{&quot;index&quot;:null}" fill="#f38906" stroke="none" stroke-width="0" stroke-linecap="butt"/><path d="M302.18018,254.39391l19,-27.33334l98.33333,-12.66666l2.66667,40.66666z" data-paper-data="{&quot;index&quot;:null}" fill="#f38906" stroke="none" stroke-width="0" stroke-linecap="butt"/><path d="M295.12769,279.34782l7.25973,-21.77919l22.29774,-5.18552c0,0 105.96503,-27.11284 114.29262,-23.20397c8.60283,4.03806 -51.54783,47.05737 -51.54783,47.05737z" data-paper-data="{&quot;index&quot;:null}" fill="#d87f14" stroke="none" stroke-width="0" stroke-linecap="butt"/><path d="M159.45259,251.01298l16.07511,10.8896l14.00091,-4.66697l18.66788,29.03892c0,0 -83.27632,9.64433 -118.48042,0.57625c-18.98359,-4.88991 1.75502,-29.56393 -1.16904,-31.67921c-4.66825,-3.37704 33.24024,-8.2439 54.82372,-5.3683c14.95143,1.99201 16.08184,1.20971 16.08184,1.20971z" fill="#d87f14" stroke="#000000" stroke-width="0" stroke-linecap="butt"/><path d="M107.68018,386.64922v-111.66667h274v111.66667z" fill="#f3ad26" stroke="#000000" stroke-width="0" stroke-linecap="butt"/><path d="M119.84685,297.17159c0,0 -33.07306,1.47554 -33.42342,-0.12613c-0.79639,-3.64064 13.42342,-21.54054 13.42342,-21.54054l96.33333,-0.66667l-30.66667,6z" fill="#eba31a" stroke="none" stroke-width="0" stroke-linecap="butt"/><path d="M315.51351,280.69013l-30.66666,-6l81,1c0,0 4.90524,7.02237 2.19862,7.91653c-6.31012,2.08459 -44.53195,0.75014 -44.53195,0.75014z" data-paper-data="{&quot;index&quot;:null}" fill="#eba31a" stroke="none" stroke-width="0" stroke-linecap="butt"/><path d="M69.74308,244.27181l2.59276,-32.66878l70.52308,14.0009l7.25973,21.77919z" fill="#d87f14" stroke="none" stroke-width="0" stroke-linecap="butt"/><path d="M317.0924,251.53154l8.81538,-21.26063l75.19005,-11.9267v33.18733z" fill="#d87f14" stroke="none" stroke-width="0" stroke-linecap="butt"/><g stroke-width="0.5" stroke-linecap="round"><path d="M101.30518,123.68143l16.94373,-11.58221l10.37803,-10.20805l12.2842,2.1594l18.00271,-9.61913l19.27349,15.11577l29.43973,11.77852l1.05898,2.3557z" fill="#ffffff" stroke="#ffffff"/><path d="M101.51698,123.68143l19.48529,-8.04866l7.20108,-9.42282l10.37803,10.01174l5.08312,-4.71141l5.50671,3.92617l16.30834,-10.79698l12.496,10.40436l28.80434,8.63758z" fill="#e9f8ff" stroke="#e9f8ff"/></g><g data-paper-data="{&quot;index&quot;:null}" stroke-width="0.5" stroke-linecap="round"><path d="M220.895,36.6686l1.64083,-1.94628l45.61527,-9.73142l29.86323,-12.48865l27.89423,7.94732l19.03371,-1.7841l16.08021,8.43389l26.25339,9.56923z" fill="#ffffff" stroke="#ffffff"/><path d="M223.8485,36.6686l44.63077,-7.13637l19.36187,-8.59608l25.26889,8.92046l8.53235,-3.24381l7.87602,3.89257l16.08021,-8.2717l11.15769,7.78513l30.19141,6.6498z" fill="#e9f8ff" stroke="#e9f8ff"/></g></g></g></svg>