<svg version="1.1" xmlns="http://www.w3.org/2000/svg" xmlns:xlink="http://www.w3.org/1999/xlink" width="221.03039" height="293.91862" viewBox="0,0,221.03039,293.91862"><g transform="translate(-112.67516,-1.89532)"><g data-paper-data="{&quot;isPaintingLayer&quot;:true}" fill-rule="nonzero" stroke="none" stroke-width="0" stroke-linecap="butt" stroke-linejoin="miter" stroke-miterlimit="10" stroke-dasharray="" stroke-dashoffset="0" style="mix-blend-mode: normal"><g data-paper-data="{&quot;index&quot;:null}" fill="#573007"><path d="M147.60152,199.93066c-0.98593,0.27103 -2.19124,0.02751 -3.33907,-0.62171c-1.91441,-1.08279 -2.944,-2.88405 -1.99419,-4.56336c0.94982,-1.6793 3.27172,-2.16287 5.18613,-1.08008c1.91441,1.08279 2.69635,3.32191 1.74654,5.00121c-0.38033,0.67243 -0.94095,1.08293 -1.5994,1.26394z"/><path d="M144.95696,197.22954c-0.81369,-0.46023 -1.0877,-2.55152 -1.72922,-1.96766c-1.97761,1.79986 -0.39911,-2.35853 0.22346,-3.45924c1.08279,-1.9144 3.51249,-2.58856 5.4269,-1.50577c1.91441,1.08279 2.58856,3.5125 1.50577,5.4269c-1.08279,1.9144 -3.51249,2.58856 -5.4269,1.50577z"/><path d="M150.17501,195.52538c-2.12768,-1.20342 -4.97078,-3.10316 -4.77446,-4.85342c0.0454,-0.40475 1.45508,-1.02835 1.65845,-1.38792c1.08279,-1.9144 4.41744,-2.17305 7.03715,-0.69133c2.61972,1.48172 3.86563,4.23481 2.78284,6.14921c-1.08279,1.9144 -4.08425,2.26517 -6.70397,0.78346z"/><path d="M151.30953,195.36439c-1.30986,-0.74086 -1.49393,-2.89338 -0.41114,-4.80777c0.6153,-1.08785 0.14285,-2.34748 1.03872,-2.67959c0.68067,-0.25234 2.72802,0.23484 3.29356,0.5547c0.96092,0.5435 1.31597,1.84673 1.00944,3.25832c-0.11131,0.51259 -0.30986,1.03947 -0.59831,1.54946c-1.08279,1.9144 -3.02241,2.86575 -4.33227,2.12489z"/><path d="M150.15379,199.36621c-0.22417,0.39633 -0.76474,0.68474 -1.14203,1.03376c-0.77367,0.71573 -1.56233,1.28948 -2.44283,0.79147c-0.33668,-0.19043 -0.48862,-0.90708 -0.71514,-1.28389c-0.65472,-1.0891 -0.95149,-2.32592 -0.44341,-3.22422c0.68387,-1.2091 2.3001,-1.58868 3.60995,-0.84783c1.30986,0.74086 1.81732,2.3216 1.13345,3.5307z"/><path d="M152.19162,200.34087c-0.65512,0.15581 -1.29454,0.40895 -1.9519,0.03715c-1.30986,-0.74086 -1.81732,-2.3216 -1.13345,-3.5307c0.68387,-1.2091 2.3001,-1.58868 3.60995,-0.84783c1.30986,0.74086 1.81732,2.3216 1.13345,3.5307c-0.34066,0.60231 -1.00779,0.65601 -1.65805,0.81068z"/><path d="M157.38318,197.8241c-0.42987,0.76002 -1.08416,1.31416 -1.81505,1.70276c-0.67861,0.3608 -1.41887,0.59468 -2.21665,0.32253c-0.23569,-0.08039 -0.74086,-0.72364 -0.9667,-0.85137c-1.81365,-1.0258 -2.51628,-3.21453 -1.56939,-4.88867c0.94689,-1.67413 4.41938,-2.84989 6.23302,-1.82408c0.91072,0.5151 0.20173,1.77271 0.17399,2.82513c-0.02751,1.0434 0.63218,1.88025 0.16077,2.71371z"/></g><g data-paper-data="{&quot;index&quot;:null}" fill="#4e2c06"><path d="M142.39816,180.35993c-0.02768,0.58717 -0.37568,1.20248 -0.93516,1.71404c-0.93313,0.85321 -2.10115,1.09473 -2.84958,0.27621c-0.74843,-0.81853 -0.5987,-2.17374 0.33443,-3.02695c0.93313,-0.85321 2.29629,-0.88132 3.04472,-0.06279c0.29969,0.32776 0.42407,0.70735 0.40559,1.09948z"/><path d="M140.45039,181.32364c-0.39661,0.36264 -1.58843,0.1395 -1.38372,0.59423c0.63106,1.40175 -1.36016,-0.20241 -1.85072,-0.73893c-0.85321,-0.93313 -0.78842,-2.38123 0.1447,-3.23444c0.93313,-0.85321 2.38123,-0.78842 3.23444,0.1447c0.85321,0.93313 0.78842,2.38123 -0.1447,3.23444z"/><path d="M140.44942,178.16797c-1.03708,0.94826 -2.58229,2.16336 -3.50385,1.74398c-0.21311,-0.09698 -0.30258,-0.97861 -0.46283,-1.15386c-0.85321,-0.93313 -0.39998,-2.80173 0.87693,-3.96927c1.27691,-1.16755 3.00371,-1.35758 3.85691,-0.42446c0.85321,0.93313 0.50973,2.63606 -0.76717,3.80361z"/><path d="M140.17489,174.77262c0.8532,0.93312 1.02729,2.16281 0.38884,2.74658c-0.63845,0.58377 -1.84767,0.30057 -2.70089,-0.63256c-0.48483,-0.53025 -1.25749,-0.49664 -1.27927,-1.04548c-0.01655,-0.417 0.61476,-1.44907 0.89042,-1.70112c0.46837,-0.42826 1.24394,-0.38994 1.96075,0.02929c0.2603,0.15224 0.51286,0.35469 0.74015,0.60327z"/><path d="M142.54474,178.86441c0.17664,0.19318 0.23788,0.54005 0.36136,0.80848c0.25321,0.55046 0.42617,1.08379 -0.00301,1.4762c-0.1641,0.15005 -0.58286,0.10531 -0.82918,0.16192c-0.71197,0.16363 -1.44084,0.10529 -1.84119,-0.33257c-0.53887,-0.58934 -0.45814,-1.54034 0.18032,-2.12411c0.63845,-0.58377 1.59286,-0.57925 2.13173,0.01008z"/><path d="M143.29338,176.87375c0.26842,0.29358 0.17883,0.66776 0.14741,1.05072c-0.03165,0.38582 -0.00732,0.78042 -0.32773,1.07339c-0.63846,0.58377 -1.59286,0.57925 -2.13173,-0.01008c-0.53887,-0.58934 -0.45814,-1.54034 0.18032,-2.12411c0.63845,-0.58377 1.59286,-0.57925 2.13173,0.01008z"/><path d="M142.99099,174.63836c0.33873,0.37045 0.52492,0.82684 0.60698,1.29559c0.07619,0.43522 0.07201,0.88148 -0.21897,1.26897c-0.08597,0.11447 -0.52759,0.27587 -0.63767,0.37652c-0.88402,0.80831 -2.2055,0.80206 -2.95163,-0.01395c-0.74612,-0.81601 -0.76954,-2.92348 0.11447,-3.73177c0.44391,-0.40589 1.0048,0.20583 1.57504,0.40865c0.56534,0.20108 1.14033,-0.01023 1.51179,0.39601z"/></g><g data-paper-data="{&quot;index&quot;:null}" fill="#573007"><path d="M169.1592,192.67589c-0.73026,-0.09864 -1.34937,-0.41297 -1.83937,-0.86977c-0.73369,-0.68398 -1.1779,-1.68738 -1.27228,-2.76435c-0.1574,-1.79621 0.71792,-3.11684 2.54165,-2.87049c1.82373,0.24635 3.42975,1.90215 3.58715,3.69836c0.1574,1.79621 -1.19344,3.0526 -3.01717,2.80625z"/><path d="M172.10113,192.73498c-2.07906,-0.28084 -3.89205,-1.96461 -4.04945,-3.76081c-0.0669,-0.76346 1.43553,-1.58385 0.63719,-1.91034c-2.46101,-1.0065 1.64688,-0.99494 2.84225,-0.83346c2.07906,0.28084 3.89205,1.96461 4.04945,3.76081c0.1574,1.79621 -1.40041,3.02465 -3.47945,2.74381z"/><path d="M176.30163,197.47471c-2.07905,-0.28083 -3.93905,-2.50106 -4.15445,-4.95903c-0.17494,-1.99631 -0.17899,-4.74871 1.30303,-5.106c0.34272,-0.08263 1.57768,0.82664 1.96817,0.87939c2.07905,0.28083 4.04232,2.78565 4.2577,5.24361c0.21539,2.45796 -1.29541,4.22286 -3.37446,3.94202z"/><path d="M176.83205,196.08039c-2.07905,-0.28083 -3.85176,-1.50478 -3.95945,-2.73376c-0.10769,-1.22898 1.49041,-1.9976 3.56946,-1.71676c1.18141,0.15959 1.92415,-0.57239 2.65842,0.02412c0.5579,0.45324 1.25453,2.17903 1.30103,2.70964c0.07901,0.9016 -0.76002,1.55543 -2.03347,1.72892c-0.46243,0.063 -0.98215,0.06266 -1.53599,-0.01215z"/><path d="M169.11112,193.61661c-0.43043,-0.05814 -0.9428,-0.3925 -1.41676,-0.58287c-0.97192,-0.39039 -1.83993,-0.83367 -1.91232,-1.65979c-0.02768,-0.3159 0.45654,-0.64194 0.63378,-0.92681c0.51225,-0.8234 1.32973,-1.41282 2.30529,-1.28104c1.31309,0.17737 2.46486,1.31744 2.57255,2.54642c0.10769,1.22898 -0.86947,2.08148 -2.18256,1.9041z"/><path d="M169.41878,195.47686c-0.46839,-0.46154 -1.00517,-0.88264 -1.05921,-1.4994c-0.10769,-1.22898 0.86947,-2.08148 2.18256,-1.9041c1.31309,0.17737 2.46487,1.31745 2.57255,2.54643c0.10769,1.22898 -0.86947,2.08148 -2.18256,1.9041c-0.6541,-0.08835 -1.04842,-0.58888 -1.51334,-1.04701z"/><path d="M174.14028,198.76147c-0.82538,-0.11149 -1.60704,-0.45652 -2.29876,-0.90897c-0.64224,-0.42009 -1.21703,-0.92479 -1.42365,-1.62122c-0.06104,-0.20574 0.17898,-0.78373 0.16041,-0.99562c-0.14912,-1.70166 1.20388,-2.88205 3.022,-2.63645c1.81812,0.24559 4.5764,2.59025 4.72552,4.29191c0.07488,0.85449 -1.28967,0.6718 -2.13314,0.9565c-0.83625,0.28226 -1.14723,1.03612 -2.05236,0.91385z"/></g><g data-paper-data="{&quot;index&quot;:null}" fill="#573007"><path d="M113.88253,191.50995c-0.56374,-0.38774 -0.9617,-1.16697 -1.12924,-2.13063c-0.27946,-1.60723 0.18778,-3.1188 1.44935,-3.49828c1.26158,-0.37947 2.51082,0.61582 2.79027,2.22304c0.27946,1.60722 -0.51672,3.21774 -1.77829,3.59721c-0.50517,0.15194 -0.9556,0.06759 -1.3321,-0.19136z"/><path d="M117.21723,190.77659c-1.43819,0.4326 -2.83061,-0.51963 -3.11007,-2.12684c-0.11879,-0.68313 0.82218,-1.94127 0.24893,-1.97719c-1.76719,-0.11073 1.02225,-1.46748 1.84915,-1.71621c1.4382,-0.43259 2.83062,0.51963 3.11008,2.12685c0.27945,1.60723 -0.6599,3.26082 -2.09808,3.69341z"/><path d="M120.52389,193.75764c-1.43818,0.43259 -2.91408,-0.99964 -3.29649,-3.199c-0.31058,-1.78628 -0.57784,-4.32803 0.39378,-5.15148c0.22469,-0.19043 1.15033,0.2386 1.42045,0.15735c1.43819,-0.4326 3.01151,1.22821 3.39392,3.42757c0.38242,2.19936 -0.47347,4.33296 -1.91166,4.76556z"/><path d="M120.74995,192.29279c-1.43819,0.4326 -2.75908,-0.10818 -2.95028,-1.20786c-0.19121,-1.09968 0.81969,-2.34182 2.25787,-2.77442c0.81724,-0.24583 1.25105,-1.16939 1.80678,-0.86265c0.42223,0.23307 1.06094,1.59572 1.1435,2.07051c0.14027,0.80673 -0.3664,1.69015 -1.21411,2.27435c-0.30783,0.21214 -0.66064,0.38482 -1.04376,0.50006z"/><path d="M114.25473,192.51959c-0.69723,-0.03717 -1.329,-0.1578 -1.45754,-0.89701c-0.04915,-0.28267 0.24821,-0.7451 0.34112,-1.06731c0.26858,-0.93132 0.76681,-1.74803 1.44166,-1.95103c0.90834,-0.27322 1.79969,0.39676 1.99089,1.49644c0.19121,1.09968 -0.39013,2.21262 -1.29847,2.48584c-0.29775,0.08956 -0.67766,-0.04881 -1.01766,-0.06693z"/><path d="M115.66001,194.20287c-0.36228,-0.27053 -0.7671,-0.48092 -0.86305,-1.0328c-0.19121,-1.09968 0.39013,-2.21262 1.29847,-2.48584c0.90833,-0.27323 1.79969,0.39676 1.99089,1.49644c0.19121,1.09968 -0.39013,2.21262 -1.29847,2.48584c-0.45247,0.1361 -0.76825,-0.19512 -1.12784,-0.46363z"/><path d="M119.1805,195.66602c-0.57096,0.17174 -1.13468,0.11315 -1.64769,-0.07463c-0.47629,-0.17435 -0.91496,-0.44935 -1.12214,-1.02403c-0.06122,-0.16978 0.04617,-0.78372 0.0132,-0.97332c-0.26475,-1.52262 0.54019,-3.06363 1.79788,-3.44194c1.25769,-0.37829 3.35526,0.8699 3.62,2.39253c0.13294,0.76459 -0.81084,1.05001 -1.35601,1.59384c-0.5405,0.53916 -0.67913,1.33921 -1.30527,1.52755z"/></g><g data-paper-data="{&quot;index&quot;:null}" fill="#573007"><path d="M189.0942,37.38186c-0.77589,-0.21151 -1.42396,-0.65229 -1.84438,-1.35195c-1.04995,-1.74726 -0.00871,-3.99165 2.32567,-5.01297c2.33438,-1.02133 5.07792,-0.43283 6.12785,1.31444c1.04994,1.74727 -0.26505,3.53607 -2.59943,4.55739c-1.39964,0.61236 -2.84795,0.80978 -4.00972,0.49308z"/><path d="M192.37776,34.74527c-2.33438,1.02133 -5.19708,0.23453 -6.39401,-1.75735c-1.19693,-1.99187 -0.27485,-4.43455 2.05952,-5.45588c2.33438,-1.02132 5.19708,-0.23453 6.39401,1.75736c0.68819,1.14526 2.36631,5.43971 0.09737,3.52702c-0.73603,-0.62046 -1.1647,1.49476 -2.1569,1.92886z"/><path d="M186.24235,32.79488c-3.19442,1.3976 -6.7543,0.91584 -7.95124,-1.07604c-1.19693,-1.99188 0.42234,-4.73959 3.61676,-6.13719c3.19441,-1.3976 7.15587,-0.99564 8.3528,0.99624c0.22481,0.37411 1.87434,1.067 1.90869,1.48048c0.14849,1.78803 -3.33257,3.6014 -5.92701,4.7365z"/><path d="M184.89811,32.58391c-1.59721,0.6988 -3.8623,-0.34944 -5.05923,-2.34132c-0.31884,-0.53063 -0.52974,-1.07469 -0.63737,-1.60058c-0.29637,-1.44822 0.19041,-2.75868 1.36213,-3.27133c0.6896,-0.30172 3.15332,-0.7118 3.9522,-0.42684c1.05144,0.37507 0.42688,1.6363 1.10704,2.76817c1.19693,1.99187 0.87246,4.1731 -0.72476,4.8719z"/><path d="M186.08008,36.70151c-0.75596,-1.25804 -0.074,-2.84436 1.52321,-3.54314c1.59721,-0.69879 3.50482,-0.24547 4.26078,1.01257c0.56165,0.93466 0.14758,2.18002 -0.68588,3.26025c-0.28836,0.37372 -0.50442,1.09615 -0.91497,1.27578c-1.07366,0.46974 -1.98552,-0.14658 -2.87261,-0.90664c-0.43259,-0.37064 -1.06275,-0.68644 -1.31054,-1.09882z"/><path d="M183.60388,37.60772c-0.7674,-0.18437 -1.55982,-0.26678 -1.9364,-0.89346c-0.75596,-1.25802 -0.074,-2.84436 1.52321,-3.54314c1.59721,-0.6988 3.50482,-0.24547 4.26078,1.01257c0.75596,1.25804 0.074,2.84436 -1.52321,3.54314c-0.80157,0.3507 -1.55124,0.06663 -2.32438,-0.11911z"/><path d="M177.53971,34.83209c-0.5211,-0.86719 0.30595,-1.6907 0.32412,-2.75287c0.01833,-1.07136 -0.76519,-2.37976 0.34532,-2.86563c2.21152,-0.96756 6.29246,0.37276 7.33916,2.11464c1.04672,1.74188 0.10246,3.93833 -2.10906,4.90589c-0.27539,0.12048 -0.90885,0.75355 -1.19365,0.82548c-0.96404,0.24351 -1.83484,-0.02516 -2.62595,-0.42035c-0.85207,-0.42564 -1.60476,-1.01639 -2.07994,-1.80717z"/></g><g data-paper-data="{&quot;index&quot;:null}" fill="#4e2c06"><path d="M184.56198,8.58089c-0.00288,-0.39954 0.1639,-0.78035 0.53706,-1.10117c0.93191,-0.80118 2.5551,-0.71579 3.62551,0.19072c1.07039,0.90651 1.18265,2.29087 0.25073,3.09204c-0.93191,0.80118 -2.31212,0.50691 -3.38252,-0.39961c-0.64178,-0.54352 -1.02647,-1.18374 -1.03079,-1.78199z"/><path d="M186.8217,6.34691c1.06238,-0.91335 2.79133,-0.9189 3.86174,-0.01237c1.0704,0.90651 1.07688,2.38178 0.0145,3.29513c-0.61084,0.52514 -3.06222,2.07344 -2.24171,0.6743c0.26616,-0.45386 -1.16507,-0.27663 -1.62003,-0.66192c-1.07039,-0.90651 -1.07688,-2.38178 -0.0145,-3.29513z"/><path d="M186.99143,6.43307c-1.46475,-1.24049 -1.79092,-2.98651 -0.72854,-3.89986c1.06238,-0.91335 3.11101,-0.64815 4.57577,0.59234c1.46475,1.24049 1.91365,3.15955 0.85126,4.0729c-0.19953,0.17155 -0.34921,1.06434 -0.60793,1.15408c-1.11875,0.38806 -2.90093,-0.91196 -4.09056,-1.91946z"/><path d="M186.88691,5.76859c-0.73237,-0.62025 -0.46485,-1.86346 0.59753,-2.77681c0.28301,-0.24331 0.59389,-0.43867 0.91153,-0.58263c0.87475,-0.39644 1.80089,-0.4031 2.33816,0.05192c0.3162,0.26779 1.01816,1.34361 0.97808,1.76697c-0.05276,0.5572 -0.97194,0.49084 -1.57563,1.00984c-1.06238,0.91335 -2.51732,1.15096 -3.24969,0.53071z"/><path d="M184.46029,7.05398c0.67098,-0.57684 1.80862,-0.54167 2.54098,0.07857c0.73238,0.62024 0.78216,1.59068 0.11117,2.16753c-0.49851,0.42857 -1.36999,0.45752 -2.21049,0.26146c-0.29079,-0.06783 -0.79203,-0.03979 -0.98028,-0.1992c-0.49231,-0.41693 -0.26015,-0.95206 0.0685,-1.50128c0.16026,-0.26783 0.25019,-0.618 0.47013,-0.80709z"/><path d="M183.43835,6.06081c-0.01873,-0.39075 -0.10724,-0.77497 0.227,-1.06233c0.67099,-0.57684 1.80863,-0.54167 2.541,0.07857c0.73238,0.62024 0.78216,1.59068 0.11117,2.16753c-0.67099,0.57684 -1.80863,0.54167 -2.541,-0.07857c-0.36754,-0.31128 -0.31927,-0.71153 -0.33816,-1.1052z"/><path d="M184.13487,2.73793c0.46252,-0.39764 1.13746,-0.15879 1.82102,-0.33971c0.68947,-0.18248 1.3878,-0.78117 1.897,-0.34993c1.01406,0.8588 0.88324,3.0009 -0.04581,3.79961c-0.92905,0.79872 -2.50424,0.75 -3.5183,-0.1088c-0.12628,-0.10693 -0.6447,-0.28947 -0.74156,-0.40945c-0.32786,-0.40615 -0.31104,-0.86015 -0.19899,-1.29954c0.12069,-0.47325 0.36487,-0.9296 0.78663,-1.2922z"/></g><g data-paper-data="{&quot;index&quot;:null}" fill="#573007"><path d="M165.93122,26.44632c-2.18547,0.17452 -3.73398,-1.15941 -3.45867,-2.97941c0.2753,-1.82 2.27014,-3.43689 4.45561,-3.6114c2.18547,-0.17452 3.16415,1.20491 2.88885,3.02491c-0.16506,1.09123 -0.74345,2.09309 -1.65123,2.75806c-0.60626,0.4441 -1.35945,0.73796 -2.23456,0.80784z"/><path d="M167.43188,22.7282c-0.2753,1.82 -2.51818,3.45669 -5.00961,3.65563c-2.49143,0.19894 -4.28798,-1.11517 -4.01267,-2.93517c0.2753,-1.82 2.51819,-3.45669 5.00962,-3.65564c1.4325,-0.1144 6.32865,0.04502 3.34658,0.96598c-0.96737,0.29876 0.78311,1.19562 0.66609,1.96918z"/><path d="M162.37812,26.1589c-0.37673,2.49053 -2.70185,4.67078 -5.19327,4.86973c-2.49144,0.19894 -4.20576,-1.65873 -3.82902,-4.14926c0.37673,-2.49053 2.83879,-4.95587 5.33021,-5.15482c0.46795,-0.03737 1.98413,-0.91054 2.38853,-0.81225c1.74876,0.42508 1.60953,3.22385 1.30355,5.2466z"/><path d="M161.47298,26.97367c-0.18836,1.24527 -2.36077,2.41604 -4.85219,2.61499c-0.66369,0.053 -1.28309,0.03169 -1.83111,-0.05165c-1.50917,-0.22949 -2.47715,-0.92933 -2.33897,-1.84286c0.08134,-0.53765 0.99583,-2.26357 1.68284,-2.70122c0.90421,-0.576 1.75362,0.19929 3.16937,0.08624c2.49142,-0.19895 4.35843,0.64925 4.17008,1.89452z"/><path d="M165.94261,27.40495c-1.57354,0.12566 -2.69644,-0.78197 -2.50809,-2.02723c0.18836,-1.24527 1.61666,-2.35662 3.19019,-2.48227c1.16906,-0.09335 2.11452,0.5401 2.68479,1.39877c0.19731,0.29708 0.75846,0.6488 0.71005,0.96888c-0.12662,0.83708 -1.18271,1.25168 -2.36008,1.60817c-0.57413,0.17385 -1.2011,0.49249 -1.71689,0.53368z"/><path d="M163.6304,30.28546c-1.57354,0.12566 -2.69644,-0.78197 -2.50808,-2.02724c0.18836,-1.24527 1.61666,-2.35661 3.19021,-2.48227c1.57354,-0.12566 2.69643,0.78197 2.50807,2.02723c-0.09454,0.62495 -0.75479,1.03079 -1.33553,1.48062c-0.57645,0.44649 -1.07082,0.93906 -1.85467,1.00166z"/><path d="M159.69781,32.4272c-1.08468,0.08662 -1.41848,-0.69295 -2.40129,-1.01482c-0.99131,-0.32467 -2.62644,-0.19573 -2.49548,-1.06153c0.26081,-1.72422 3.66251,-3.99357 5.84125,-4.16755c2.17874,-0.17398 3.73354,1.08273 3.47274,2.80694c-0.03248,0.2147 0.22535,0.81246 0.14255,1.01914c-0.28026,0.69958 -0.98991,1.18888 -1.77582,1.58929c-0.84645,0.43127 -1.79485,0.74956 -2.78395,0.82854z"/></g><g data-paper-data="{&quot;index&quot;:null}" fill="#573007"><path d="M216.08166,38.60381c-1.48495,-0.43845 -2.35515,-2.10936 -1.94361,-3.73211c0.41153,-1.62275 1.94893,-2.5828 3.43388,-2.14436c1.48496,0.43846 1.96797,1.99506 1.55644,3.6178c-0.24674,0.97296 -0.75905,1.74878 -1.44982,2.11958c-0.46133,0.24763 -1.00228,0.31464 -1.59688,0.13907z"/><path d="M213.74021,37.58004c-1.69284,-0.49984 -2.73156,-2.22052 -2.32003,-3.84326c0.41152,-1.62274 2.11746,-2.53303 3.81031,-2.0332c0.97332,0.28739 4.23138,1.78331 2.11993,1.82228c-0.68493,0.01264 0.37503,1.33126 0.20011,2.02098c-0.41153,1.62273 -2.11747,2.53303 -3.81032,2.0332z"/><path d="M213.73873,37.35797c-0.56315,2.22059 -2.39199,3.61553 -4.08484,3.1157c-1.69284,-0.49984 -2.60866,-2.70516 -2.0455,-4.92576c0.56314,-2.22058 2.51926,-3.84391 4.21212,-3.34408c0.31796,0.09388 1.44204,-0.30384 1.70052,-0.10083c1.11772,0.87785 0.6751,3.45144 0.21772,5.25496z"/><path d="M209.45604,38.97465c-0.45096,-0.13315 -0.86299,-0.32346 -1.21949,-0.55201c-0.98174,-0.6294 -1.54241,-1.54886 -1.33585,-2.36338c0.12157,-0.47937 0.9493,-1.83845 1.46388,-2.05786c0.67727,-0.28876 1.14917,0.66849 2.11112,0.95252c1.69284,0.49984 2.83692,1.80509 2.55534,2.9154c-0.28157,1.1103 -1.88215,1.60517 -3.575,1.10534z"/><path d="M215.96958,39.5016c-1.06917,-0.31569 -1.70765,-1.47167 -1.42607,-2.58197c0.28158,-1.1103 1.37657,-1.75445 2.44575,-1.43876c0.79434,0.23455 1.34823,1.08582 1.62283,2.04407c0.09501,0.33152 0.42679,0.81417 0.35441,1.09956c-0.18928,0.74634 -0.94808,0.84269 -1.78082,0.85143c-0.40608,0.00426 -0.86562,0.12914 -1.21608,0.02566z"/><path d="M215.42871,41.12911c-0.44166,0.25808 -0.83414,0.58174 -1.36674,0.42448c-1.06917,-0.31569 -1.70765,-1.47167 -1.42607,-2.58197c0.28157,-1.1103 1.37656,-1.75446 2.44572,-1.43877c1.06917,0.31568 1.70764,1.47166 1.42607,2.58196c-0.14131,0.5572 -0.63402,0.75428 -1.07898,1.01429z"/><path d="M211.1617,42.47029c-0.737,-0.21761 -0.86314,-1.03696 -1.48096,-1.60776c-0.62315,-0.57574 -1.73396,-0.90531 -1.53819,-1.67728c0.38987,-1.53733 2.95061,-2.71922 4.431,-2.28212c1.48038,0.4371 2.36442,2.03771 1.97456,3.57503c-0.04855,0.19143 0.04944,0.82023 -0.0318,0.99032c-0.27496,0.57576 -0.81117,0.83713 -1.38732,0.99458c-0.62054,0.16958 -1.29522,0.20568 -1.96729,0.00725z"/></g><g data-paper-data="{&quot;index&quot;:null}" fill="#573007"><path d="M318.1731,120.20204c-0.34164,-0.85578 -0.30502,-1.68375 0.01812,-2.43141c0.48386,-1.11951 1.61016,-2.059 3.07095,-2.64217c2.43639,-0.97265 4.88064,-0.58584 5.73384,1.55134c0.85319,2.13718 -0.43023,4.65818 -2.86662,5.63082c-2.43639,0.97264 -5.1031,0.02859 -5.9563,-2.10859z"/><path d="M320.0278,123.49939c-0.97265,-2.43638 0.21395,-5.19994 2.65033,-6.17258c1.03555,-0.41341 3.18559,0.89281 3.12133,-0.13983c-0.19811,-3.1833 2.49202,1.38934 3.05126,2.79016c0.97265,2.43638 -0.21395,5.19994 -2.65033,6.17258c-2.43639,0.97264 -5.19994,-0.21396 -6.17258,-2.65033z"/><path d="M316.09268,130.27462c-0.97264,-2.43639 0.94161,-5.49043 4.27561,-6.82142c2.7078,-1.08099 6.59743,-2.30775 8.07912,-0.81856c0.34264,0.34437 -0.12954,2.12129 0.05314,2.57889c0.97264,2.43637 -1.27604,5.7316 -4.61003,7.06258c-3.33401,1.33099 -6.82521,0.43487 -7.79785,-2.0015z"/><path d="M319.67113,124.62879c1.667,-0.66549 3.80685,0.77011 4.77949,3.20648c0.5527,1.38447 2.07717,1.88526 1.71738,2.96658c-0.27337,0.82158 -2.2549,2.36252 -2.97463,2.64985c-1.22292,0.48821 -2.70033,-0.15434 -3.78469,-1.49323c-0.39375,-0.4862 -0.7357,-1.06422 -0.9948,-1.71325c-0.97263,-2.43638 -0.40975,-4.95095 1.25725,-5.61644z"/><path d="M316.81109,120.56633c-0.20136,-0.5044 -0.06613,-1.22258 -0.10918,-1.83411c-0.08829,-1.25403 -0.03331,-2.416 1.08725,-2.86334c0.42849,-0.17106 1.2086,0.22258 1.72822,0.29313c1.50191,0.20392 2.87403,0.85112 3.33042,1.99436c0.6143,1.53877 -0.23908,3.32568 -1.90608,3.99116c-1.667,0.66549 -3.51635,-0.04244 -4.13065,-1.58121z"/><path d="M313.89959,123.88209c-0.30601,-0.76652 0.14202,-1.42723 0.48356,-2.14761c0.34409,-0.72575 0.58593,-1.50956 1.42252,-1.84355c1.667,-0.66549 3.51635,0.04244 4.13065,1.58121c0.6143,1.53877 -0.23908,3.32568 -1.90608,3.99116c-1.667,0.66549 -3.51635,-0.04244 -4.13065,-1.58121z"/><path d="M312.84899,128.44284c-0.38614,-0.96724 -0.41322,-1.98957 -0.22913,-2.9596c0.17092,-0.90062 0.50595,-1.76388 1.35466,-2.30287c0.25074,-0.15924 1.22624,-0.14902 1.51365,-0.26376c2.30815,-0.92145 4.8688,0.05876 5.71937,2.18937c0.85056,2.1306 -0.64784,6.23867 -2.95598,7.16012c-1.15903,0.46271 -1.7997,-1.13564 -2.75804,-1.94707c-0.9501,-0.80447 -2.22106,-0.81549 -2.64452,-1.87619z"/></g><g data-paper-data="{&quot;index&quot;:null}" fill="#4e2c06"><path d="M310.79801,100.41854c-0.33665,0.02173 -0.62066,-0.08503 -0.84419,-0.2824c-0.3347,-0.29553 -0.53379,-0.79421 -0.57088,-1.36885c-0.06188,-0.95842 0.35031,-1.76521 1.19101,-1.81948c0.84071,-0.05428 1.5724,0.67867 1.63427,1.63709c0.06187,0.95842 -0.56951,1.77936 -1.41022,1.83363z"/><path d="M310.30884,98.52408c-0.02629,-0.40736 0.67247,-1.00735 0.30576,-1.10224c-1.13043,-0.29251 0.76651,-0.70958 1.31757,-0.74515c0.95842,-0.06187 1.78552,0.66492 1.84739,1.62333c0.06187,0.95842 -0.66491,1.78551 -1.62333,1.84738c-0.95842,0.06187 -1.78552,-0.66492 -1.84739,-1.62333z"/><path d="M312.17882,100.02367c-0.06877,-1.06519 -0.05406,-2.55826 0.63249,-2.90485c0.15876,-0.08015 0.72358,0.28596 0.9036,0.27434c0.95842,-0.06187 1.84996,1.09493 1.93463,2.40645c0.08467,1.31152 -0.62364,2.42486 -1.58206,2.48673c-0.95841,0.06188 -1.80399,-0.95115 -1.88866,-2.26267z"/><path d="M312.50882,100.3998c-0.04233,-0.65576 0.70029,-1.23751 1.65871,-1.29938c0.54461,-0.03516 0.89202,-0.50888 1.22751,-0.26087c0.2549,0.18843 0.56621,1.05307 0.58449,1.3362c0.03106,0.48107 -0.36035,0.92231 -0.94947,1.14768c-0.21393,0.08183 -0.45393,0.13521 -0.70924,0.1517c-0.95841,0.06188 -1.76967,-0.41957 -1.812,-1.07533z"/><path d="M310.77013,100.93392c-0.19842,0.01281 -0.43301,-0.11581 -0.65074,-0.17026c-0.44648,-0.11167 -0.84466,-0.26274 -0.87311,-0.70355c-0.01089,-0.16856 0.2147,-0.39537 0.29826,-0.56821c0.24151,-0.49958 0.62257,-0.90365 1.07229,-0.93268c0.60531,-0.03907 1.13033,0.46084 1.17267,1.1166c0.04233,0.65576 -0.41405,1.21902 -1.01937,1.2581z"/><path d="M311.59359,102.32375c-0.30154,0.01946 -0.48062,-0.21149 -0.69256,-0.41216c-0.21352,-0.20216 -0.45886,-0.37533 -0.48011,-0.70443c-0.04233,-0.65576 0.41405,-1.21902 1.01937,-1.2581c0.60531,-0.03907 1.13033,0.46084 1.17267,1.1166c0.04233,0.65576 -0.41405,1.21902 -1.01937,1.2581z"/><path d="M313.06163,103.20729c-0.38049,0.02456 -0.73938,-0.08209 -1.05609,-0.25632c-0.29405,-0.16176 -0.55646,-0.37638 -0.64768,-0.73297c-0.02695,-0.10535 0.08737,-0.44371 0.08007,-0.55677c-0.05862,-0.90797 0.5733,-1.68789 1.41143,-1.74199c0.83812,-0.0541 2.09778,0.93388 2.15639,1.84185c0.02943,0.45593 -0.59961,0.49742 -0.99084,0.73883c-0.38787,0.23934 -0.53603,0.68043 -0.95328,0.70737z"/></g><g data-paper-data="{&quot;index&quot;:null}" fill="#573007"><path d="M303.90685,112.61114c1.184,-0.17195 2.44905,0.16385 3.52136,0.87999c1.78847,1.19442 2.36361,2.99456 0.77304,4.50724c-1.59056,1.51268 -4.32981,1.77068 -6.11829,0.57627c-1.78847,-1.19442 -1.9489,-3.38897 -0.35833,-4.90165c0.6369,-0.60571 1.39148,-0.94701 2.18221,-1.06185z"/><path d="M305.99501,115.40597c0.76016,0.50767 0.40181,2.51777 1.30149,2.01882c2.77344,-1.53808 -0.30381,2.27477 -1.34636,3.26627c-1.81325,1.72446 -4.73301,2.15414 -6.52148,0.95972c-1.78847,-1.19442 -1.76838,-3.56064 0.04487,-5.2851c1.81325,-1.72446 4.73301,-2.15414 6.52148,-0.95972z"/><path d="M299.64318,116.57225c1.98772,1.32748 4.55125,3.37836 3.77732,5.02376c-0.17897,0.3805 -1.94673,0.85061 -2.2873,1.17449c-1.81324,1.72446 -5.60898,1.68102 -8.05636,0.04656c-2.44738,-1.63447 -2.96144,-4.35742 -1.14819,-6.08187c1.81324,-1.72446 5.26716,-1.79741 7.71454,-0.16294z"/><path d="M292.82976,118.26944c1.81325,-1.72445 4.27517,-2.45991 5.49886,-1.64267c1.22369,0.81724 0.74576,2.87769 -1.06749,4.60214c-1.03036,0.97992 -0.90386,2.21729 -2.00692,2.45507c-0.8381,0.18067 -2.96359,-0.45955 -3.49193,-0.81239c-0.89771,-0.59953 -0.87965,-1.86814 -0.09042,-3.18232c0.28659,-0.47721 0.67487,-0.96044 1.15791,-1.41982z"/><path d="M300.88537,112.92603c0.37539,-0.35702 1.06892,-0.58408 1.59982,-0.88288c1.0887,-0.61274 2.14904,-1.08933 2.97161,-0.53997c0.31453,0.21007 0.25637,0.90392 0.38909,1.28145c0.3836,1.0912 0.3217,2.29168 -0.52914,3.10085c-1.14521,1.08914 -3.06557,1.30955 -4.28926,0.49232c-1.22369,-0.81723 -1.28731,-2.36264 -0.1421,-3.45178z"/><path d="M298.92516,111.82359c0.77902,-0.0912 1.57143,-0.2762 2.18556,0.13393c1.22369,0.81723 1.28731,2.36264 0.1421,3.45178c-1.14522,1.08913 -3.06558,1.30955 -4.28927,0.49231c-1.22369,-0.81723 -1.28731,-2.36264 -0.1421,-3.45178c0.57047,-0.54254 1.33047,-0.53572 2.10371,-0.62624z"/><path d="M292.34501,113.76397c0.71986,-0.68462 1.62433,-1.15422 2.5616,-1.45996c0.87021,-0.28387 1.76881,-0.44183 2.57093,-0.11417c0.23697,0.09679 0.59548,0.75155 0.80647,0.89245c1.69433,1.13155 1.78242,3.27136 0.19675,4.77939c-1.58567,1.50803 -5.82589,2.32373 -7.52023,1.19218c-0.85081,-0.56821 0.33778,-1.70124 0.70257,-2.69844c0.36167,-0.98865 -0.10749,-1.84069 0.68193,-2.59146z"/></g><g data-paper-data="{&quot;index&quot;:null}" fill="#573007"><path d="M327.37147,93.86429c0.23575,-0.58337 0.65046,-0.93945 1.17241,-1.09638c0.78154,-0.235 1.80352,-0.0235 2.82505,0.53998c1.70378,0.93981 2.76119,2.50284 2.17245,3.95973c-0.58873,1.45688 -2.44718,1.87605 -4.15096,0.93625c-1.70378,-0.93979 -2.60768,-2.88269 -2.01895,-4.33958z"/><path d="M326.73679,96.41755c0.67116,-1.66085 2.59642,-2.24537 4.30021,-1.30557c0.72417,0.39945 1.19217,2.214 1.65352,1.70752c1.42221,-1.56132 0.60209,2.04644 0.2162,3.00136c-0.67116,1.66085 -2.59642,2.24537 -4.30021,1.30557c-1.70378,-0.93979 -2.54087,-3.04804 -1.86971,-4.70889z"/><path d="M321.49521,97.26838c0.67116,-1.66085 3.10527,-1.96469 5.43676,-0.67865c1.89359,1.04449 4.45764,2.69327 4.49838,4.21185c0.00942,0.35117 -1.08067,0.89201 -1.20673,1.20395c-0.67116,1.66085 -3.39066,1.8847 -5.72214,0.59866c-2.33149,-1.28604 -3.67744,-3.67496 -3.00628,-5.33581z"/><path d="M326.01519,96.72921c1.16575,0.64303 1.56668,2.51068 0.89552,4.17153c-0.38138,0.94377 0.15396,2.03676 -0.54624,2.32477c-0.53201,0.21883 -2.27645,-0.2042 -2.77977,-0.48183c-0.8552,-0.47173 -1.2988,-1.60254 -1.20947,-2.82725c0.03244,-0.44473 0.13516,-0.90185 0.31395,-1.34428c0.67116,-1.66085 2.16026,-2.48597 3.32601,-1.84294z"/><path d="M326.50487,93.25725c0.13895,-0.34385 0.55127,-0.59398 0.82194,-0.89675c0.55505,-0.62088 1.13888,-1.11856 1.9225,-0.68631c0.29964,0.16529 0.50787,0.78711 0.73826,1.11407c0.66589,0.94506 1.05374,2.01824 0.73881,2.79756c-0.42388,1.04896 -1.71253,1.37804 -2.87828,0.73502c-1.16575,-0.64303 -1.76713,-2.01464 -1.34324,-3.0636z"/><path d="M323.4386,93.11436c0.21116,-0.52253 0.755,-0.56902 1.27324,-0.7031c0.52212,-0.13507 1.02002,-0.3546 1.60506,-0.0319c1.16575,0.64303 1.76713,2.01464 1.34324,3.0636c-0.42389,1.04896 -1.71254,1.37804 -2.87829,0.73501c-1.16575,-0.64303 -1.76713,-2.01464 -1.34324,-3.0636z"/><path d="M320.7227,94.59404c0.26645,-0.65936 0.74177,-1.14005 1.29942,-1.4771c0.51774,-0.31295 1.10102,-0.51573 1.79029,-0.27947c0.20364,0.06979 0.69461,0.62799 0.8956,0.73886c1.6141,0.89033 2.44681,2.7895 1.85987,4.24191c-0.58693,1.4524 -3.31391,2.47196 -4.92802,1.58163c-0.81052,-0.44709 -0.37152,-1.53813 -0.47048,-2.45125c-0.0981,-0.90529 -0.73888,-1.63149 -0.44669,-2.35456z"/></g><g data-paper-data="{&quot;index&quot;:null}" fill="#573007"><path d="M310.61406,83.0758c-0.12097,-0.89161 0.36552,-2.4334 1.28934,-4.22967c1.5408,-2.9959 3.71462,-5.56518 5.39625,-5.8209c1.68163,-0.25571 1.7958,1.96563 0.255,4.96153c-1.5408,2.9959 -4.15307,5.63184 -5.83471,5.88757c-0.67337,0.1024 -1.0251,-0.20307 -1.10589,-0.79853z"/><path d="M314.0727,77.9899c0.6549,-1.27336 3.01229,-3.22405 2.48385,-3.4839c-1.629,-0.80105 2.67491,-2.30089 3.77714,-2.4685c1.91705,-0.29152 2.22208,1.9008 0.68128,4.89671c-1.5408,2.9959 -4.34393,5.66088 -6.26099,5.95239c-1.91705,0.29152 -2.22208,-1.90079 -0.68129,-4.8967z"/><path d="M315.01068,82.49668c1.71245,-3.32965 4.32257,-8.00814 6.21864,-9.16384c0.43847,-0.26725 0.87199,0.82198 1.23205,0.76723c1.91705,-0.29152 1.60004,3.24127 -0.50842,7.34091c-2.10845,4.09966 -5.37178,7.6594 -7.28883,7.95092c-1.91705,0.29152 -1.76191,-2.79557 0.34656,-6.89522z"/><path d="M316.54563,86.82494c-1.91706,0.29153 -2.61652,-1.13386 -1.56229,-3.18368c1.05424,-2.04983 3.46294,-3.94787 5.37999,-4.23939c1.08936,-0.16566 2.5648,-1.68499 2.76946,-0.94232c0.1555,0.56428 -0.75199,3.24099 -1.20716,4.12601c-0.77338,1.50377 -2.27574,2.92585 -3.77815,3.69189c-0.54557,0.27816 -1.09115,0.46982 -1.60184,0.54749z"/><path d="M310.77592,85.49167c-0.39688,0.06035 -0.6175,-0.31861 -0.93451,-0.467c-0.65009,-0.30427 -1.14077,-0.73692 -0.43212,-2.11483c0.27098,-0.52689 1.0893,-1.26039 1.54605,-1.81032c1.32017,-1.58953 2.7387,-2.89412 3.63825,-3.03091c1.21078,-0.18413 1.33768,1.32833 0.28345,3.37816c-1.05423,2.04983 -2.89036,3.86079 -4.10115,4.04491z"/><path d="M309.92724,89.76134c-0.60315,0.09171 -0.54189,-0.61351 -0.59509,-1.22048c-0.05359,-0.61153 -0.21744,-1.12895 0.31164,-2.15767c1.05423,-2.04983 2.89036,-3.86079 4.10115,-4.04491c1.21078,-0.18413 1.33768,1.32833 0.28345,3.37816c-1.05424,2.04983 -2.89036,3.86079 -4.10115,4.04491z"/><path d="M311.17164,92.3793c-0.76107,0.11573 -1.2544,-0.18178 -1.55121,-0.69523c-0.27557,-0.47671 -0.39994,-1.12227 0.04453,-2.22999c0.1313,-0.32725 0.93243,-1.39881 1.11419,-1.75222c1.45969,-2.83822 4.00205,-5.34572 5.67851,-5.60065c1.67645,-0.25493 2.34664,2.71147 0.88693,5.54968c-0.73298,1.42521 -1.99275,1.61929 -3.14916,2.41539c-1.14648,0.78925 -2.18919,2.1861 -3.02381,2.31301z"/></g><g data-paper-data="{&quot;index&quot;:null}" fill="#573007"><path d="M281.24304,290.30395c0.47756,-0.0771 1.03312,0.09224 1.5417,0.44487c0.84822,0.58812 1.24451,1.46337 0.71477,2.18798c-0.52974,0.72461 -1.6468,0.83525 -2.49502,0.24712c-0.84822,-0.58813 -1.10639,-1.65231 -0.57665,-2.37692c0.21212,-0.29015 0.49627,-0.45156 0.8152,-0.50306z"/><path d="M282.35555,291.66912c0.36053,0.24998 0.38679,1.22206 0.71755,0.98503c1.01961,-0.73071 0.07204,1.10062 -0.27518,1.57557c-0.6039,0.82605 -1.78108,1.01894 -2.62931,0.43081c-0.84822,-0.58813 -1.04628,-1.73455 -0.44237,-2.5606c0.6039,-0.82605 1.78108,-1.01894 2.62931,-0.43081z"/><path d="M279.81484,292.2009c0.94271,0.65365 2.18809,1.66083 2.00965,2.45403c-0.04127,0.18342 -0.73567,0.40193 -0.8491,0.55708c-0.6039,0.82605 -2.18677,0.78509 -3.34749,-0.01971c-1.16072,-0.80481 -1.61211,-2.12688 -1.0082,-2.95293c0.6039,-0.82605 2.03442,-0.84328 3.19514,-0.03847z"/><path d="M277.12842,292.98751c0.60391,-0.82605 1.56394,-1.16949 2.14431,-0.76709c0.58036,0.4024 0.56128,1.39826 -0.04263,2.22432c-0.34317,0.46941 -0.1826,1.06963 -0.62075,1.17905c-0.3329,0.08315 -1.27298,-0.23821 -1.52356,-0.41196c-0.42576,-0.2952 -0.52891,-0.9098 -0.31522,-1.54243c0.0776,-0.22972 0.19698,-0.46183 0.35785,-0.68189z"/><path d="M280.01354,290.44067c0.12502,-0.17102 0.39373,-0.2774 0.58853,-0.4194c0.39947,-0.29119 0.799,-0.51654 1.18913,-0.24605c0.14918,0.10343 0.18551,0.43933 0.27365,0.62295c0.25477,0.53074 0.33374,1.1121 0.05037,1.49971c-0.38142,0.52172 -1.16109,0.61844 -1.74145,0.21604c-0.58036,-0.4024 -0.74164,-1.15155 -0.36022,-1.67327z"/><path d="M278.28136,290.18862c0.19,-0.25989 0.50676,-0.25259 0.82054,-0.2924c0.31612,-0.0401 0.62964,-0.12558 0.9209,0.07636c0.58036,0.40241 0.74164,1.15155 0.36022,1.67327c-0.38142,0.52172 -1.16109,0.61844 -1.74145,0.21604c-0.58036,-0.4024 -0.74164,-1.15155 -0.36022,-1.67327z"/><path d="M276.53371,290.80191c0.23975,-0.32795 0.57506,-0.55074 0.9383,-0.69397c0.33726,-0.13298 0.69731,-0.20481 1.05958,-0.04183c0.10703,0.04814 0.31329,0.36728 0.41335,0.43666c0.80358,0.55718 1.02688,1.59445 0.49877,2.31683c-0.52811,0.72237 -2.22094,1.09537 -3.02452,0.5382c-0.40351,-0.27978 -0.00789,-0.82255 0.05688,-1.30382c0.06422,-0.47714 -0.20528,-0.89246 0.05764,-1.25209z"/></g><g data-paper-data="{&quot;index&quot;:null}" fill="#4e2c06"><path d="M276.3565,280.44947c-0.08789,-0.37335 0.09084,-0.86955 0.46877,-1.37098c0.63035,-0.83631 1.57616,-1.37047 2.36683,-1.10896c0.79067,0.2615 0.92064,1.15146 0.29029,1.98777c-0.63035,0.83631 -1.78231,1.30228 -2.57298,1.04077c-0.3166,-0.10471 -0.49421,-0.29926 -0.55291,-0.5486z"/><path d="M278.31802,281.26483c-0.90136,-0.29812 -1.12107,-1.21775 -0.49072,-2.05406c0.26792,-0.35546 1.32206,-0.6092 1.06201,-0.82392c-0.80166,-0.66191 1.19314,-0.32197 1.71139,-0.15057c0.90136,0.29811 1.12108,1.21775 0.49073,2.05406c-0.63035,0.83631 -1.87204,1.2726 -2.7734,0.97449z"/><path d="M278.49697,283.77998c-0.90136,-0.29811 -0.93281,-1.46752 -0.07023,-2.61195c0.70058,-0.92949 1.7819,-2.19168 2.64384,-2.23476c0.19933,-0.00996 0.44251,0.5075 0.61181,0.5635c0.90136,0.29811 0.87106,1.60641 0.00848,2.75083c-0.86257,1.14443 -2.29254,1.83049 -3.1939,1.53238z"/><path d="M279.30391,283.18396c-0.90136,-0.29811 -1.28243,-1.00366 -0.85114,-1.57587c0.43129,-0.57222 1.51162,-0.79441 2.41298,-0.4963c0.51219,0.1694 1.16179,-0.10568 1.28439,0.22762c0.09315,0.25324 -0.24704,1.10119 -0.43325,1.34825c-0.3164,0.41977 -0.98209,0.65119 -1.67018,0.62699c-0.24986,-0.0088 -0.50268,-0.05129 -0.7428,-0.1307z"/><path d="M276.05561,281.04281c-0.3194,-0.25815 -0.56739,-0.53209 -0.27747,-0.91673c0.11086,-0.14708 0.47487,-0.25711 0.67325,-0.37328c0.5734,-0.33577 1.20326,-0.53941 1.62621,-0.39952c0.56929,0.18828 0.68115,0.80479 0.24986,1.377c-0.43129,0.57221 -1.24241,0.88344 -1.8117,0.69516c-0.1866,-0.06172 -0.30439,-0.25675 -0.46015,-0.38263z"/><path d="M276.25782,282.90664c-0.28359,-0.09379 -0.2785,-0.3554 -0.32447,-0.6033c-0.04631,-0.24975 -0.14183,-0.48653 0.07462,-0.7737c0.43129,-0.57221 1.2424,-0.88344 1.81169,-0.69516c0.56929,0.18828 0.68115,0.80479 0.24986,1.377c-0.43129,0.57222 -1.24241,0.88345 -1.8117,0.69517z"/><path d="M276.17749,283.58985c-0.14724,-0.24491 -0.22835,-0.52313 -0.05482,-0.85924c0.05127,-0.09929 0.39558,-0.34473 0.46994,-0.44339c0.59718,-0.79229 1.72026,-1.22324 2.5085,-0.96253c0.78824,0.2607 1.2079,1.56033 0.61073,2.35263c-0.29987,0.39785 -0.8921,0.20293 -1.41469,0.26475c-0.5181,0.06128 -0.96616,0.38157 -1.35858,0.25178c-0.35784,-0.11835 -0.60249,-0.34021 -0.76108,-0.60399z"/></g><g data-paper-data="{&quot;index&quot;:null}" fill="#573007"><path d="M303.32052,282.20048c0.66314,0.35897 1.06441,1.01873 1.14931,1.8074c0.14162,1.31538 -0.65039,2.49126 -2.29933,2.69047c-1.64895,0.19921 -3.10048,-0.70563 -3.24209,-2.02101c-0.14161,-1.31538 1.08032,-2.5432 2.72927,-2.74241c0.66028,-0.07977 1.21996,0.02582 1.66284,0.26555z"/><path d="M298.99755,282.51029c1.87979,-0.2271 3.51848,0.65512 3.66009,1.97051c0.06019,0.55909 -1.29866,1.49149 -0.57692,1.56846c2.22488,0.23724 -1.48952,1.09388 -2.57034,1.22446c-1.87979,0.2271 -3.51848,-0.65513 -3.66009,-1.97051c-0.14161,-1.31539 1.26747,-2.56582 3.14726,-2.79292z"/><path d="M295.2013,279.83666c1.87979,-0.2271 3.56076,1.04798 3.75455,2.84798c0.15739,1.46192 0.15996,3.5275 -1.18024,4.10793c-0.30992,0.13422 -1.42624,-0.28829 -1.7793,-0.24563c-1.87979,0.2271 -3.65401,-1.2399 -3.8478,-3.03989c-0.19378,-1.8 1.173,-3.44328 3.05279,-3.67039z"/><path d="M294.72111,280.99517c1.87979,-0.2271 3.48222,0.31839 3.57911,1.21839c0.09689,0.9 -1.34844,1.8137 -3.22824,2.0408c-1.06818,0.12905 -1.74007,0.83505 -2.40377,0.54188c-0.50428,-0.22276 -1.1335,-1.37169 -1.17534,-1.76027c-0.07108,-0.66025 0.68783,-1.32787 1.83938,-1.72637c0.41816,-0.14471 0.8881,-0.25392 1.38886,-0.31442z"/><path d="M301.70153,281.21855c0.38917,-0.04702 0.85234,0.09608 1.28082,0.13916c0.87867,0.08836 1.66335,0.23832 1.72848,0.8433c0.0249,0.23134 -0.41307,0.57812 -0.57343,0.82933c-0.46351,0.72609 -1.20292,1.34081 -2.08498,1.44738c-1.18724,0.14343 -2.22823,-0.46988 -2.32512,-1.36989c-0.09689,-0.9 0.787,-1.74586 1.97424,-1.88929z"/><path d="M300.05608,279.41944c0.59141,-0.07145 0.94776,0.22128 1.36797,0.46729c0.42334,0.24785 0.90853,0.45092 0.95715,0.90259c0.09689,0.9 -0.78701,1.74586 -1.97425,1.88929c-1.18724,0.14343 -2.22824,-0.46988 -2.32513,-1.36989c-0.09689,-0.9 0.78701,-1.74587 1.97425,-1.8893z"/><path d="M297.15611,278.41529c0.74628,-0.09016 1.45293,0.00423 2.07821,0.1982c0.58055,0.1801 1.10008,0.43795 1.28664,0.91728c0.05512,0.14161 -0.16215,0.6261 -0.14545,0.78128c0.13416,1.24615 -1.0897,2.41736 -2.73357,2.61596c-1.64387,0.1986 -4.13702,-0.98069 -4.27117,-2.22684c-0.06736,-0.62576 1.16641,-0.77603 1.9292,-1.16745c0.75626,-0.38806 1.03775,-1.01954 1.85613,-1.11842z"/></g><g data-paper-data="{&quot;index&quot;:null}" fill="#573007"><path d="M259.10282,286.49085c-0.1573,-0.11439 -0.23516,-0.25809 -0.24674,-0.41393c-0.01734,-0.23334 0.11394,-0.49393 0.34963,-0.72418c0.3931,-0.38401 0.92781,-0.53821 1.32067,-0.25252c0.39285,0.28569 0.39265,0.82858 -0.00045,1.2126c-0.3931,0.38402 -1.03024,0.46372 -1.42309,0.17804z"/><path d="M259.81792,286.88321c-0.44785,-0.32568 -0.49224,-0.901 -0.09913,-1.28502c0.16708,-0.16322 0.73691,-0.13505 0.61755,-0.30438c-0.36796,-0.52198 0.64764,0.01151 0.90513,0.19876c0.44785,0.32568 0.49224,0.90099 0.09913,1.28501c-0.3931,0.38402 -1.07483,0.4313 -1.52268,0.10562z"/><path d="M259.71901,288.38594c-0.44785,-0.32568 -0.37483,-1.01569 0.1631,-1.54118c0.43689,-0.42679 1.09806,-0.98458 1.55141,-0.86529c0.10484,0.02758 0.19225,0.37136 0.27636,0.43253c0.44785,0.32568 0.33196,1.08666 -0.20597,1.61215c-0.53793,0.52549 -1.33706,0.68747 -1.78491,0.36179z"/><path d="M259.86204,287.1068c0.26896,-0.26275 0.85006,-0.21173 1.29791,0.11395c0.25449,0.18506 0.61472,0.13291 0.65324,0.34862c0.02927,0.1639 -0.21322,0.60338 -0.32934,0.71682c-0.19731,0.19275 -0.56261,0.21665 -0.92005,0.08711c-0.12979,-0.04704 -0.25856,-0.11431 -0.37786,-0.20107c-0.44785,-0.32568 -0.59286,-0.80269 -0.3239,-1.06544z"/><path d="M258.86458,286.6751c-0.09271,-0.06743 -0.13931,-0.20137 -0.211,-0.3012c-0.14703,-0.20471 -0.25557,-0.40669 -0.07477,-0.58331c0.06913,-0.06754 0.26761,-0.07094 0.38009,-0.1057c0.32508,-0.10047 0.66954,-0.11411 0.87969,0.03871c0.28285,0.2057 0.29411,0.58544 0.02515,0.84819c-0.26897,0.26275 -0.7163,0.309 -0.99916,0.10331z"/><path d="M258.61662,287.49917c-0.1409,-0.10247 -0.11823,-0.25479 -0.12328,-0.40766c-0.00508,-0.15401 -0.03685,-0.30867 0.09814,-0.44053c0.26896,-0.26275 0.7163,-0.309 0.99916,-0.10331c0.28285,0.20569 0.29411,0.58543 0.02515,0.84818c-0.26897,0.26275 -0.7163,0.309 -0.99916,0.10331z"/><path d="M258.52243,287.88574c-0.05815,-0.16809 -0.07923,-0.3446 0.03709,-0.51231c0.03436,-0.04955 0.23292,-0.13553 0.27929,-0.18084c0.37241,-0.36381 0.9918,-0.42784 1.38345,-0.14304c0.39164,0.28481 0.51137,1.11616 0.13896,1.47996c-0.18701,0.18269 -0.48134,-0.03074 -0.75894,-0.08216c-0.27522,-0.05098 -0.53367,0.06144 -0.72865,-0.08035c-0.17779,-0.12929 -0.28857,-0.30021 -0.3512,-0.48126z"/></g></g></g></svg>