<svg version="1.1" xmlns="http://www.w3.org/2000/svg" xmlns:xlink="http://www.w3.org/1999/xlink" width="48" height="103" viewBox="0,0,48,103"><g transform="translate(-221.5,-201.00003)"><g data-paper-data="{&quot;isPaintingLayer&quot;:true}" fill-rule="nonzero" stroke-linejoin="miter" stroke-miterlimit="10" stroke-dasharray="" stroke-dashoffset="0" style="mix-blend-mode: normal"><path d="M221.5,304.00003v-103h48v103z" data-paper-data="{&quot;index&quot;:null}" fill="none" stroke="none" stroke-width="0" stroke-linecap="butt"/><path d="M242.92143,290.99672v-67.06996h1.08189v67.06996z" fill-opacity="0.35294" fill="#ffffff" stroke="none" stroke-width="0" stroke-linecap="butt"/><g fill="none" stroke="#422b19"><path d="M243.37577,235.4454c0,-0.69744 0.56539,-1.26283 1.26283,-1.26283c0.69744,0 1.26283,0.56539 1.26283,1.26283c0,0.69744 -0.56539,1.26283 -1.26283,1.26283c-0.69744,0 -1.26283,-0.56539 -1.26283,-1.26283z" stroke-width="1" stroke-linecap="butt"/><path d="M244.66667,233.15163v0.84189" stroke-width="0.5" stroke-linecap="round"/><path d="M244.66667,236.87365v0.84189" stroke-width="0.5" stroke-linecap="round"/><path d="M242.38471,235.38927h0.84189" stroke-width="0.5" stroke-linecap="round"/><path d="M246.10674,235.38927h0.84189" stroke-width="0.5" stroke-linecap="round"/><path d="M243.64838,236.40756l-0.5953,0.5953" stroke-width="0.5" stroke-linecap="round"/><path d="M246.28025,233.77569l-0.5953,0.5953" stroke-width="0.5" stroke-linecap="round"/><path d="M243.05308,233.77569l0.5953,0.5953" stroke-width="0.5" stroke-linecap="round"/><path d="M245.68495,236.40756l0.5953,0.5953" stroke-width="0.5" stroke-linecap="round"/></g><path d="M242.15729,240.56694v-0.80153h5.02496v0.80153z" data-paper-data="{&quot;index&quot;:null}" fill="#422b19" stroke="#402917" stroke-width="0" stroke-linecap="butt"/></g></g></svg>