<svg version="1.1" xmlns="http://www.w3.org/2000/svg" xmlns:xlink="http://www.w3.org/1999/xlink" width="92.46674" height="79.27228" viewBox="0,0,92.46674,79.27228"><g transform="translate(-193.76663,-122.86386)"><g data-paper-data="{&quot;isPaintingLayer&quot;:true}" fill-rule="nonzero" stroke-linecap="butt" stroke-linejoin="miter" stroke-miterlimit="10" stroke-dasharray="" stroke-dashoffset="0" style="mix-blend-mode: normal"><path d="M202.30684,166.03558h-2.19258v-1.90659h6.4824v1.90659h-2.19258v11.43954h-2.09725z" fill="#ffffff" stroke="#000000" stroke-width="0.5"/><path d="M208.35067,164.12899h2.84082l2.17352,13.34612h-2.09725l-0.38132,-2.65016v0.03814h-2.38323l-0.38132,2.61202h-1.94471zM210.63858,173.05182l-0.93422,-6.5968h-0.03819l-0.91517,6.5968z" fill="#ffffff" stroke="#000000" stroke-width="0.5"/><path d="M214.37546,164.12899h3.08869c1.04226,0 1.82397,0.27963 2.34509,0.83891c0.52114,0.55926 0.78171,1.37911 0.78171,2.45951v1.31555c0,1.0804 -0.26057,1.90023 -0.78171,2.45951c-0.52112,0.55926 -1.30283,0.83891 -2.34509,0.83891h-0.99142v5.43378h-2.09726zM217.46415,170.13475c0.34318,0 0.59739,-0.09534 0.76263,-0.28599c0.17795,-0.19065 0.26693,-0.51478 0.26693,-0.97236v-1.58246c0,-0.45758 -0.08897,-0.78171 -0.26693,-0.97236c-0.16524,-0.19065 -0.41945,-0.28599 -0.76263,-0.28599h-0.99142v4.09917z" fill="#ffffff" stroke="#000000" stroke-width="0.5"/><path d="M226.40604,164.12899h2.84082l2.17352,13.34612h-2.09725l-0.38132,-2.65016v0.03814h-2.38323l-0.38132,2.61202h-1.94472zM228.69396,173.05182l-0.93422,-6.5968h-0.03819l-0.91517,6.5968z" fill="#ffffff" stroke="#000000" stroke-width="0.5"/><path d="M232.43084,164.12899h2.6311l2.04005,7.98861h0.03819v-7.98861h1.86845v13.34612h-2.15444l-2.51671,-9.74268h-0.03819v9.74268h-1.86847z" fill="#ffffff" stroke="#000000" stroke-width="0.5"/><path d="M240.57194,164.12899h3.20308c1.04226,0 1.82397,0.27963 2.34509,0.83891c0.52114,0.55926 0.78171,1.37911 0.78171,2.45951v6.74933c0,1.0804 -0.26057,1.90023 -0.78171,2.45951c-0.52112,0.55926 -1.30283,0.83891 -2.34509,0.83891h-3.20308zM243.73688,175.56852c0.34318,0 0.60376,-0.10168 0.78171,-0.30505c0.19065,-0.20337 0.28599,-0.53384 0.28599,-0.99142v-6.93998c0,-0.45758 -0.09534,-0.78805 -0.28599,-0.99142c-0.17795,-0.20337 -0.43852,-0.30505 -0.78171,-0.30505h-1.06768v9.53295z" fill="#ffffff" stroke="#000000" stroke-width="0.5"/><path d="M251.36321,164.12899h2.09725v5.43378h2.24978v-5.43378h2.09725v13.34612h-2.09725v-6.00575h-2.24978v6.00575h-2.09725z" fill="#ffffff" stroke="#000000" stroke-width="0.5"/><path d="M262.40232,177.66577c-1.02956,0 -1.81761,-0.29235 -2.36417,-0.87703c-0.54656,-0.58468 -0.81983,-1.41087 -0.81983,-2.47857v-7.01624c0,-1.06768 0.27327,-1.89387 0.81983,-2.47857c0.54656,-0.58468 1.33461,-0.87703 2.36417,-0.87703c1.02956,0 1.81761,0.29235 2.36417,0.87703c0.54656,0.58468 0.81983,1.41087 0.81983,2.47857v7.01624c0,1.06768 -0.27327,1.89387 -0.81983,2.47857c-0.54656,0.58468 -1.33461,0.87703 -2.36417,0.87703zM262.40232,175.75918c0.72452,0 1.08676,-0.43852 1.08676,-1.31555v-7.28317c0,-0.87703 -0.36225,-1.31555 -1.08676,-1.31555c-0.72452,0 -1.08676,0.43852 -1.08676,1.31555v7.28317c0,0.87703 0.36225,1.31555 1.08676,1.31555z" fill="#ffffff" stroke="#000000" stroke-width="0.5"/><path d="M266.99719,164.12899h2.09726v11.43954h3.45091v1.90659h-5.54818z" fill="#ffffff" stroke="#000000" stroke-width="0.5"/><path d="M273.55587,164.12899h3.20306c1.04226,0 1.82397,0.27963 2.34512,0.83891c0.52112,0.55926 0.78169,1.37911 0.78169,2.45951v6.74933c0,1.0804 -0.26057,1.90023 -0.78169,2.45951c-0.52114,0.55926 -1.30285,0.83891 -2.34512,0.83891h-3.20306zM276.72079,175.56852c0.34318,0 0.60376,-0.10168 0.78171,-0.30505c0.19065,-0.20337 0.28599,-0.53384 0.28599,-0.99142v-6.93998c0,-0.45758 -0.09534,-0.78805 -0.28599,-0.99142c-0.17795,-0.20337 -0.43852,-0.30505 -0.78171,-0.30505h-1.06768v9.53295z" fill="#ffffff" stroke="#000000" stroke-width="0.5"/><path d="M215.76611,183.45567h-2.19258v-1.90659h6.4824v1.90659h-2.19258v11.43954h-2.09725z" fill="#ffffff" stroke="#000000" stroke-width="0.5"/><path d="M224.02157,195.08588c-1.02955,0 -1.81761,-0.29235 -2.36417,-0.87703c-0.54656,-0.58468 -0.81983,-1.41087 -0.81983,-2.47857v-7.01624c0,-1.0677 0.27327,-1.89389 0.81983,-2.47857c0.54656,-0.58468 1.33463,-0.87703 2.36417,-0.87703c1.02956,0 1.81761,0.29235 2.36417,0.87703c0.54656,0.58468 0.81985,1.41087 0.81985,2.47857v7.01624c0,1.06768 -0.27329,1.89387 -0.81985,2.47857c-0.54656,0.58468 -1.33461,0.87703 -2.36417,0.87703zM224.02157,193.17928c0.72452,0 1.08676,-0.43852 1.08676,-1.31555v-7.28317c0,-0.87703 -0.36225,-1.31555 -1.08676,-1.31555c-0.72449,0 -1.08675,0.43852 -1.08675,1.31555v7.28317c0,0.87703 0.36225,1.31555 1.08675,1.31555z" fill="#ffffff" stroke="#000000" stroke-width="0.5"/><path d="M234.39341,195.08588c-1.01684,0 -1.78584,-0.28599 -2.30698,-0.85797c-0.52112,-0.58468 -0.78169,-1.41723 -0.78169,-2.49763v-0.76263h1.98285v0.91517c0,0.86433 0.36225,1.29649 1.08676,1.29649c0.35589,0 0.62282,-0.10168 0.80077,-0.30505c0.19065,-0.21607 0.28599,-0.55926 0.28599,-1.02956c0,-0.55926 -0.12711,-1.04862 -0.38132,-1.46807c-0.25421,-0.43217 -0.72449,-0.94694 -1.41087,-1.54434c-0.86433,-0.76263 -1.46809,-1.44901 -1.81127,-2.05912c-0.34317,-0.62282 -0.51476,-1.32191 -0.51476,-2.09725c0,-1.05498 0.26691,-1.86845 0.80075,-2.44043c0.53384,-0.58468 1.30919,-0.87703 2.32606,-0.87703c1.00414,0 1.76042,0.29235 2.26884,0.87703c0.52112,0.57198 0.78169,1.39816 0.78169,2.47857v0.5529h-1.98285v-0.68638c0,-0.45758 -0.08897,-0.78805 -0.26691,-0.99142c-0.17795,-0.21607 -0.43852,-0.32412 -0.78171,-0.32412c-0.69907,0 -1.04862,0.4258 -1.04862,1.27742c0,0.483 0.1271,0.93422 0.38131,1.35367c0.26693,0.41945 0.74357,0.92787 1.42995,1.52526c0.87703,0.76263 1.48078,1.45536 1.81127,2.07818c0.33047,0.62282 0.4957,1.35367 0.4957,2.19258c0,1.09312 -0.27327,1.93201 -0.81983,2.51671c-0.53384,0.58468 -1.31555,0.87703 -2.34512,0.87703z" fill="#ffffff" stroke="#000000" stroke-width="0.5"/><path d="M240.39917,183.45567h-2.19258v-1.90659h6.4824v1.90659h-2.19258v11.43954h-2.09725z" fill="#ffffff" stroke="#000000" stroke-width="0.5"/><path d="M246.44299,181.54908h2.84083l2.1735,13.34612h-2.09725l-0.38132,-2.65016v0.03814h-2.38323l-0.38131,2.61202h-1.94472zM248.7309,190.47193l-0.93422,-6.5968h-0.03819l-0.91517,6.5968z" fill="#ffffff" stroke="#000000" stroke-width="0.5"/><path d="M252.46781,181.54908h3.10773c1.08042,0 1.86847,0.25421 2.36417,0.76263c0.49572,0.49572 0.74357,1.26471 0.74357,2.30698v0.81983c0,1.38545 -0.45758,2.26247 -1.37273,2.63108v0.03814c0.50842,0.15253 0.86431,0.46394 1.06768,0.93422c0.21609,0.47028 0.32412,1.09946 0.32412,1.88753v2.34512c0,0.38132 0.01274,0.69273 0.03819,0.93422c0.02545,0.22879 0.08902,0.45758 0.19067,0.68638h-2.13538c-0.07626,-0.21607 -0.12713,-0.41945 -0.15259,-0.61012c-0.02545,-0.19065 -0.03819,-0.53384 -0.03819,-1.02956v-2.44043c0,-0.61012 -0.10168,-1.03592 -0.30505,-1.27742c-0.19065,-0.24149 -0.52748,-0.36225 -1.01048,-0.36225h-0.72452v5.71977h-2.09725zM255.32769,187.26885c0.41945,0 0.73086,-0.10804 0.93422,-0.32412c0.21609,-0.21607 0.32412,-0.57834 0.32412,-1.08676v-1.02956c0,-0.483 -0.08897,-0.83255 -0.26693,-1.04862c-0.16524,-0.21607 -0.43217,-0.32412 -0.80077,-0.32412h-0.95328v3.81318z" fill="#ffffff" stroke="#000000" stroke-width="0.5"/><path d="M261.75289,183.45567h-2.19258v-1.90659h6.4824v1.90659h-2.19258v11.43954h-2.09725z" fill="#ffffff" stroke="#000000" stroke-width="0.5"/><path d="M193.76663,202.13614v-79.27228h92.46674v79.27228z" fill="none" stroke="none" stroke-width="0"/></g></g></svg>