<svg version="1.1" xmlns="http://www.w3.org/2000/svg" xmlns:xlink="http://www.w3.org/1999/xlink" width="240.96819" height="294.27416" viewBox="0,0,240.96819,294.27416"><defs><radialGradient cx="336.46095" cy="115.3472" r="23.22615" gradientUnits="userSpaceOnUse" id="color-1"><stop offset="0" stop-color="#d2f7f4" stop-opacity="0"/><stop offset="1" stop-color="#d2f7f4"/></radialGradient><radialGradient cx="141.94505" cy="190.22662" r="23.22615" gradientUnits="userSpaceOnUse" id="color-2"><stop offset="0" stop-color="#d2f7f4" stop-opacity="0"/><stop offset="1" stop-color="#d2f7f4"/></radialGradient><radialGradient cx="292.4359" cy="284.49666" r="19.9334" gradientUnits="userSpaceOnUse" id="color-3"><stop offset="0" stop-color="#d2f7f4" stop-opacity="0"/><stop offset="1" stop-color="#d2f7f4"/></radialGradient><radialGradient cx="190.11692" cy="22.78411" r="19.9334" gradientUnits="userSpaceOnUse" id="color-4"><stop offset="0" stop-color="#d2f7f4" stop-opacity="0"/><stop offset="1" stop-color="#d2f7f4"/></radialGradient></defs><g transform="translate(-118.71891,-7.1875)"><g data-paper-data="{&quot;isPaintingLayer&quot;:true}" fill-rule="nonzero" stroke="#ffffff" stroke-width="0" stroke-linecap="butt" stroke-linejoin="miter" stroke-miterlimit="10" stroke-dasharray="" stroke-dashoffset="0" style="mix-blend-mode: normal"><path d="M336.46096,143.65389c-12.82744,0 -23.22614,-12.67333 -23.22614,-28.30669c0,-15.63335 10.3987,-28.30669 23.22614,-28.30669c12.82744,0 23.22614,12.67333 23.22614,28.30669c0,15.63335 -10.3987,28.30669 -23.22614,28.30669z" data-paper-data="{&quot;index&quot;:null}" fill="url(#color-1)"/><path d="M141.94505,207.19162c-12.82744,0 -23.22614,-7.59548 -23.22614,-16.965c0,-9.3695 10.39869,-16.965 23.22614,-16.965c12.82745,0 23.22615,7.59548 23.22615,16.965c0,9.36951 -10.3987,16.965 -23.22615,16.965z" data-paper-data="{&quot;index&quot;:null}" fill="url(#color-2)"/><path d="M292.4359,301.46166c-11.00891,0 -19.93339,-7.59548 -19.93339,-16.965c0,-9.36951 8.92448,-16.965 19.93339,-16.965c11.00891,0 19.9334,7.59548 19.9334,16.965c0,9.36951 -8.92449,16.965 -19.9334,16.965z" data-paper-data="{&quot;index&quot;:null}" fill="url(#color-3)"/><path d="M210.05032,22.78411c0,8.61378 -8.92449,15.59661 -19.9334,15.59661c-11.00891,0 -19.93339,-6.98284 -19.93339,-15.59661c0,-8.61378 8.92448,-15.59661 19.93339,-15.59661c11.00891,0 19.9334,6.98284 19.9334,15.59661z" data-paper-data="{&quot;index&quot;:null}" fill="url(#color-4)"/></g></g></svg>