<svg version="1.1" xmlns="http://www.w3.org/2000/svg" xmlns:xlink="http://www.w3.org/1999/xlink" width="20.375" height="19" viewBox="0,0,20.375,19"><g transform="translate(-229.8125,-170.5)"><g data-paper-data="{&quot;isPaintingLayer&quot;:true}" fill-rule="nonzero" stroke="none" stroke-linecap="butt" stroke-linejoin="miter" stroke-miterlimit="10" stroke-dasharray="" stroke-dashoffset="0" style="mix-blend-mode: normal"><path d="M229.8125,189.5v-19h20.375v19z" fill="none" stroke-width="0"/><path d="M240,183.81c-0.57149,0 -1.00541,-0.15875 -1.30174,-0.47625c-0.28928,-0.3175 -0.43392,-0.77258 -0.43392,-1.36525v-0.60325h1.10067v0.65617c0,0.48683 0.20108,0.73025 0.60325,0.73025c0.19755,0 0.34572,-0.05997 0.44449,-0.17992c0.10583,-0.127 0.15875,-0.34572 0.15875,-0.65616v-0.60325c0,-0.33867 -0.05997,-0.57855 -0.17991,-0.71967c-0.11995,-0.14817 -0.31397,-0.22225 -0.58208,-0.22225h-0.39159v-1.05833h0.42334c0.23283,0 0.40569,-0.05997 0.51858,-0.17992c0.11994,-0.11994 0.17991,-0.32103 0.17991,-0.60325v-0.53975c0,-0.254 -0.05292,-0.44097 -0.15875,-0.56091c-0.10583,-0.11994 -0.24694,-0.17992 -0.42333,-0.17992c-0.37394,0 -0.56091,0.2293 -0.56091,0.68791v0.48683h-1.10067v-0.39158c0,-0.59266 0.14464,-1.04775 0.43392,-1.36525c0.29633,-0.3175 0.71966,-0.47625 1.26999,-0.47625c0.55739,0 0.98073,0.15875 1.27,0.47625c0.28928,0.31044 0.43392,0.762 0.43392,1.35466v0.26458c0,0.40217 -0.06703,0.72672 -0.20109,0.97366c-0.13405,0.23989 -0.34219,0.41275 -0.62441,0.51858v0.02117c0.30339,0.11289 0.52211,0.29633 0.65616,0.55033c0.13406,0.254 0.20109,0.57855 0.20109,0.97366v0.65617c0,0.59266 -0.14817,1.04775 -0.4445,1.36525c-0.28928,0.31044 -0.71967,0.46567 -1.29117,0.46567z" fill="#ffc448" stroke-width="0.26458"/></g></g></svg>