<svg version="1.1" xmlns="http://www.w3.org/2000/svg" xmlns:xlink="http://www.w3.org/1999/xlink" width="78.30812" height="61.45701" viewBox="0,0,78.30812,61.45701"><g transform="translate(-200.84594,-149.27149)"><g data-paper-data="{&quot;isPaintingLayer&quot;:true}" fill-rule="nonzero" stroke-linecap="butt" stroke-linejoin="miter" stroke-miterlimit="10" stroke-dasharray="" stroke-dashoffset="0" style="mix-blend-mode: normal"><path d="M257.94748,176.55682c0,-3.31371 2.68629,-6 6,-6c3.31371,0 6,2.68629 6,6c0,3.31371 -2.68629,6 -6,6c-3.31371,0 -6,-2.68629 -6,-6z" fill="#314d62" stroke="none" stroke-width="0"/><path d="M257.96565,187.175c0,-3.31371 2.68629,-6 6,-6c3.31371,0 6,2.68629 6,6c0,3.31371 -2.68629,6 -6,6c-3.31371,0 -6,-2.68629 -6,-6z" fill="#aa6f33" stroke="none" stroke-width="0"/><path d="M210.03435,187.19318c0,-3.31371 2.68629,-6 6,-6c3.31371,0 6,2.68629 6,6c0,3.31371 -2.68629,6 -6,6c-3.31371,0 -6,-2.68629 -6,-6z" fill="#aa6f33" stroke="none" stroke-width="0"/><path d="M257.94748,172.80682c0,-3.31371 2.68629,-6 6,-6c3.31371,0 6,2.68629 6,6c0,3.31371 -2.68629,6 -6,6c-3.31371,0 -6,-2.68629 -6,-6z" fill="#ffb974" stroke="none" stroke-width="0"/><path d="M257.96565,183.425c0,-3.31371 2.68629,-6 6,-6c3.31371,0 6,2.68629 6,6c0,3.31371 -2.68629,6 -6,6c-3.31371,0 -6,-2.68629 -6,-6z" fill="#98bddd" stroke="none" stroke-width="0"/><path d="M210.03435,183.44318c0,-3.31371 2.68629,-6 6,-6c3.31371,0 6,2.68629 6,6c0,3.31371 -2.68629,6 -6,6c-3.31371,0 -6,-2.68629 -6,-6z" fill="#98bddd" stroke="none" stroke-width="0"/><path d="M216.73021,193.175v-22.6h48.13456v22.6z" fill="#aa6f33" stroke="none" stroke-width="0"/><path d="M211.5899,187.84773v-11.67272h58.35758v11.67272z" fill="#aa6f33" stroke="none" stroke-width="0"/><path d="M216.73021,189.425v-22.6h48.13456v22.6z" fill="#ffb974" stroke="none" stroke-width="0"/><path d="M211.5899,184.09773v-11.67272h58.35758v11.67272z" fill="#98bddd" stroke="none" stroke-width="0"/><path d="M210.03435,176.55682c0,-3.31371 2.68629,-6 6,-6c3.31371,0 6,2.68629 6,6c0,3.31371 -2.68629,6 -6,6c-3.31371,0 -6,-2.68629 -6,-6z" fill="#ffb974" stroke="none" stroke-width="0"/><path d="M210.03435,172.80682c0,-3.31371 2.68629,-6 6,-6c3.31371,0 6,2.68629 6,6c0,3.31371 -2.68629,6 -6,6c-3.31371,0 -6,-2.68629 -6,-6z" fill="#ffb974" stroke="none" stroke-width="0"/><path d="M216.7302,191.675v-22.6h48.13456v22.6z" fill="#ffa64d" stroke="none" stroke-width="0"/><path d="M210.03434,175.05682c0,-3.31371 2.68629,-6 6,-6c3.31371,0 6,2.68629 6,6c0,3.31371 -2.68629,6 -6,6c-3.31371,0 -6,-2.68629 -6,-6z" fill="#ffa64d" stroke="none" stroke-width="0"/><path d="M210.14545,186.34773v-11.67273h59.80202v11.67273z" fill="#ffa64d" stroke="none" stroke-width="0"/><text transform="translate(225.87564,184.13052) scale(0.30191,0.34421)" font-size="40" xml:space="preserve" fill="#ffffff" fill-rule="nonzero" stroke="#ffffff" stroke-width="2" stroke-linecap="butt" stroke-linejoin="miter" stroke-miterlimit="10" stroke-dasharray="" stroke-dashoffset="0" font-family="Sans Serif" font-weight="normal" text-anchor="start" style="mix-blend-mode: normal"><tspan x="0" dy="0">Load</tspan></text><path d="M210.03434,185.69318c0,-3.31371 2.68629,-6 6,-6c3.31371,0 6,2.68629 6,6c0,3.31371 -2.68629,6 -6,6c-3.31371,0 -6,-2.68629 -6,-6z" fill="#ffa64d" stroke="none" stroke-width="0"/><path d="M257.94747,175.05682c0,-3.31371 2.68629,-6 6,-6c3.31371,0 6,2.68629 6,6c0,3.31371 -2.68629,6 -6,6c-3.31371,0 -6,-2.68629 -6,-6z" fill="#ffa64d" stroke="none" stroke-width="0"/><path d="M257.96566,185.675c0,-3.31371 2.68629,-6 6,-6c3.31371,0 6,2.68629 6,6c0,3.31371 -2.68629,6 -6,6c-3.31371,0 -6,-2.68629 -6,-6z" fill="#ffa64d" stroke="none" stroke-width="0"/><path d="M200.84594,210.72851v-61.45701h78.30812v61.45701z" fill="none" stroke="none" stroke-width="0"/></g></g></svg>