<svg version="1.1" xmlns="http://www.w3.org/2000/svg" xmlns:xlink="http://www.w3.org/1999/xlink" width="316.6995" height="305.57776" viewBox="0,0,316.6995,305.57776"><g transform="translate(-84.2969,-29.17953)"><g data-paper-data="{&quot;isPaintingLayer&quot;:true}" fill="#f9f4d6" fill-rule="nonzero" stroke="none" stroke-width="0" stroke-linecap="butt" stroke-linejoin="miter" stroke-miterlimit="10" stroke-dasharray="" stroke-dashoffset="0" style="mix-blend-mode: normal"><path d="M345.10751,242.78278c-11.86416,1.73832 -33.96381,-13.5007 -53.23782,-13.07541c-13.12696,0.28967 -27.13626,16.48582 -27.13626,16.48582l-44.9949,-12.59065c0,0 24.07376,-7.14302 42.51018,-5.74779c9.55249,0.72292 13.46222,-8.648 25.80036,-21.88588c3.83783,-4.11771 17.41743,7.03227 29.79664,15.70999c7.45138,5.22336 5.00415,-15.68551 9.19934,-16.12249c8.29694,-0.86422 18.21003,13.13204 28.34433,15.01881c10.61799,1.97682 21.40172,-8.1832 27.35549,-10.62866c12.76937,-5.24491 18.25153,32.51981 18.25153,32.51981l-23.52005,-12.79209c0,0 -15.1274,10.58234 -32.36885,13.10854z" data-paper-data="{&quot;index&quot;:null}"/><path d="M315.45329,60.7588c-8.40233,-2.11625 -15.77442,-10.98136 -15.77442,-10.98136l-11.46211,10.71625c0,0 2.67164,-31.63647 8.89459,-27.24267c5.67077,4.00391 14.25268,15.98099 22.53241,17.4635c5.44098,0.97422 20.61992,-26.32156 23.61602,-20.79569c6.0128,11.08972 7.91813,18.93996 12.57338,18.33436c8.98469,-1.16882 20.71664,4.81506 20.71664,4.81506l-21.92753,10.5475c0,0 -6.8272,-13.56793 -13.22441,-13.81058c-9.39287,-0.35628 -20.16277,12.40984 -25.94457,10.95361z" data-paper-data="{&quot;index&quot;:null}"/><path d="M135.4324,142.69293c-4.12114,1.03797 -11.79769,-8.06144 -18.49272,-7.80749c-4.55979,0.17296 -9.42607,9.84388 -9.42607,9.84388l-15.62946,-7.51803c0,0 8.36228,-4.26518 14.76637,-3.43207c3.31816,0.43166 4.67624,-5.16382 8.96203,-13.06833c2.13555,-3.93872 12.95477,15.51711 16.83298,14.82271c5.90161,-1.0567 12.01861,-9.5937 16.06061,-12.4476c4.43558,-3.1318 6.33987,19.41798 6.33987,19.41798l-8.16994,-7.63831c0,0 -5.25466,6.31885 -11.24366,7.82727z" data-paper-data="{&quot;index&quot;:null}"/><path d="M84.2969,330.39585v-27.82646c0,0 19.42398,11.45795 30.28174,11.45795c8.96549,0 18.82378,-20.46063 18.82378,-20.46063c0,0 1.66967,13.35662 7.49011,13.55585c5.48427,0.18772 15.11275,-12.86675 15.93026,-10.23904c0.95179,3.05933 2.65184,15.48803 9.48576,19.16803c7.94864,4.28026 12.10726,12.70745 12.10726,12.70745c0,0 -9.1479,-6.09466 -15.40533,-4.38176c-4.23376,1.15894 -5.36926,10.3297 -8.25316,10.37985c-3.00916,0.05233 1.39631,-10.19867 -2.37963,-13.02354c-3.33939,-2.49827 -14.6825,2.41646 -19.89559,2.08614c-10.91531,-0.69163 -20.63179,8.59423 -30.37252,10.53507c-8.50942,1.69551 -17.81268,-3.95892 -17.81268,-3.95892z"/></g></g></svg>