<svg version="1.1" xmlns="http://www.w3.org/2000/svg" xmlns:xlink="http://www.w3.org/1999/xlink" width="32.18964" height="69.81118" viewBox="0,0,32.18964,69.81118"><g transform="translate(-223.69472,-145.78215)"><g data-paper-data="{&quot;isPaintingLayer&quot;:true}" fill-rule="nonzero" stroke-linejoin="miter" stroke-miterlimit="10" stroke-dasharray="" stroke-dashoffset="0" style="mix-blend-mode: normal"><path d="M223.69472,208.32315c0,-13.44895 0,-44.19668 0,-51.64628c0,-3.17904 1.18659,-6.346 3.08653,-6.346c6.68138,0 22.18448,0 25.92809,0c1.59053,0 3.17502,3.16696 3.17502,6.346c0,7.51567 0,38.74459 0,52.00002c0,3.69408 -1.53433,5.99225 -3.08653,5.99225c-3.69771,0 -19.17433,0 -25.92808,0c-1.95175,0 -3.17502,-2.44546 -3.17502,-6.34599z" fill="#272727" stroke="none" stroke-width="0" stroke-linecap="butt"/><g><path d="M231.16226,212.78563c0,0 0.0039,-0.92477 0.23917,-1.64184c0.14897,-0.45406 0.506,-0.82485 0.64619,-0.82485c0.27209,0 0.78654,0 1.25104,0c0.20616,0 0.57569,0.40077 0.7366,0.87923c0.23829,0.70854 0.22573,1.58746 0.22573,1.58746z" fill="#2c3132" stroke="none" stroke-width="0" stroke-linecap="butt"/><path d="M237.21872,212.64478c0,0 0.00594,-0.92476 0.36418,-1.64183c0.22683,-0.45406 0.77049,-0.82485 0.98395,-0.82485c0.41431,0 1.19767,0 1.90495,0c0.31392,0 0.87661,0.40077 1.12163,0.87922c0.36284,0.70854 0.34371,1.58746 0.34371,1.58746z" fill="#2c3132" stroke="none" stroke-width="0" stroke-linecap="butt"/><path d="M237.49564,210.37396l-0.21128,-1.05636h4.57756l-0.21127,1.05636z" fill="#480601" stroke="#000000" stroke-width="0" stroke-linecap="butt"/><path d="M235.17166,208.71229v-7.60579h8.803v7.60579z" fill="#980d0b" stroke="#000000" stroke-width="0" stroke-linecap="butt"/><path d="M243.62255,188.10455v-1.54933h1.54933v1.54933z" fill="#5f0100" stroke="none" stroke-width="0" stroke-linecap="butt"/><path d="M234.19745,188.10455v-1.54933h1.54932v1.54933z" fill="#5f0100" stroke="none" stroke-width="0" stroke-linecap="butt"/><path d="M243.55212,178.05739v-1.54933h1.54933v1.54933z" fill="#5f0100" stroke="none" stroke-width="0" stroke-linecap="butt"/><path d="M234.00967,178.05739v-1.54933h1.54933v1.54933z" fill="#5f0100" stroke="none" stroke-width="0" stroke-linecap="butt"/><g stroke-width="0"><path d="M244.72463,205.0753v-36.0658h3.38035v36.0658z" fill="#fc930c" stroke="none" stroke-linecap="butt"/><path d="M244.7139,176.95381v-4.06699h3.39644v4.06699z" fill="#f9550a" stroke="none" stroke-linecap="butt"/><path d="M244.72446,177.32173v-0.38368h3.38035v0.38368z" fill="#eb5109" stroke="none" stroke-linecap="butt"/><path d="M244.72446,172.95738v-0.38368h3.38035v0.38368z" fill="#eb5109" stroke="none" stroke-linecap="butt"/><g stroke="none" stroke-linecap="butt"><path d="M244.71858,186.00862v-4.06699h3.39645v4.06699z" fill="#f9550a"/><path d="M244.72915,186.37654v-0.38368h3.38035v0.38368z" fill="#eb5109"/><path d="M244.72915,182.0122v-0.38368h3.38035v0.38368z" fill="#eb5109"/></g><g stroke="none" stroke-linecap="butt"><path d="M244.74518,194.99522v-4.06699h3.39645v4.06699z" fill="#f9550a"/><path d="M244.75574,195.36314v-0.38368h3.38036v0.38368z" fill="#eb5109"/><path d="M244.75574,190.9988v-0.38368h3.38036v0.38368z" fill="#eb5109"/></g><path d="M246.97279,164.85312c0,0 0.26271,0.88636 0.41393,1.44678c0.20972,0.77722 0.72733,2.78267 0.72733,2.78267l-3.38298,-0.00633c0,0 0.5027,-2.00276 0.71346,-2.77883c0.15194,-0.55951 0.43342,-1.4443 0.43342,-1.4443c0,0 0.07861,-0.27453 0.20385,-0.41276c0.10231,-0.11292 0.24487,-0.16718 0.32551,-0.16718c0.08154,0 0.24185,0.04984 0.34981,0.15981c0.1375,0.14007 0.21567,0.42014 0.21567,0.42014z" fill="#fec30e" stroke="#ff3600" stroke-linecap="round"/></g><g stroke-width="0"><path d="M231.01541,205.0753v-36.0658h3.38036v36.0658z" fill="#fc930c" stroke="none" stroke-linecap="butt"/><path d="M231.00467,176.9538v-4.06699h3.39645v4.06699z" fill="#f9550a" stroke="none" stroke-linecap="butt"/><path d="M231.01523,177.32173v-0.38368h3.38036v0.38368z" fill="#eb5109" stroke="none" stroke-linecap="butt"/><path d="M231.01523,172.95738v-0.38368h3.38036v0.38368z" fill="#eb5109" stroke="none" stroke-linecap="butt"/><g stroke="none" stroke-linecap="butt"><path d="M231.00938,186.00862v-4.06699h3.39645v4.06699z" fill="#f9550a"/><path d="M231.01995,186.37654v-0.38368h3.38035v0.38368z" fill="#eb5109"/><path d="M231.01995,182.0122v-0.38368h3.38035v0.38368z" fill="#eb5109"/></g><g stroke="none" stroke-linecap="butt"><path d="M231.03599,194.99522v-4.06699h3.39646v4.06699z" fill="#f9550a"/><path d="M231.04656,195.36314v-0.38368h3.38035v0.38368z" fill="#eb5109"/><path d="M231.04656,190.9988v-0.38368h3.38035v0.38368z" fill="#eb5109"/></g><path d="M233.2636,164.85312c0,0 0.26272,0.88636 0.41393,1.44678c0.20973,0.77722 0.72733,2.78267 0.72733,2.78267l-3.38298,-0.00633c0,0 0.50271,-2.00276 0.71347,-2.77883c0.15195,-0.5595 0.43342,-1.4443 0.43342,-1.4443c0,0 0.07861,-0.27454 0.20385,-0.41277c0.10231,-0.11292 0.24487,-0.16718 0.32551,-0.16718c0.08153,0 0.24184,0.04983 0.34981,0.15981c0.1375,0.14007 0.21567,0.42014 0.21567,0.42014z" fill="#fec30e" stroke="#ff3600" stroke-linecap="round"/></g><path d="M235.26946,178.85251v-13.89701h8.60738v13.89701z" fill="#bd1104" stroke="none" stroke-width="0" stroke-linecap="butt"/><path d="M244.89494,212.78563c0,0 0.0039,-0.92477 0.23916,-1.64184c0.14897,-0.45406 0.50601,-0.82485 0.64619,-0.82485c0.27208,0 0.78654,0 1.25104,0c0.20616,0 0.57569,0.40077 0.7366,0.87923c0.23829,0.70854 0.22573,1.58746 0.22573,1.58746z" fill="#2c3132" stroke="none" stroke-width="0" stroke-linecap="butt"/><path d="M244.73333,208.84802v-5.69026h3.38035v5.69026z" data-paper-data="{&quot;index&quot;:null}" fill="#840f1e" stroke="none" stroke-width="0" stroke-linecap="butt"/><path d="M244.8953,205.65547v-0.77466h3.18317v0.77466z" data-paper-data="{&quot;index&quot;:null}" fill="#770913" stroke="#000000" stroke-width="0" stroke-linecap="butt"/><path d="M243.71921,210.72599l1.0141,-3.09866h3.38035l1.01411,3.09866z" data-paper-data="{&quot;index&quot;:null}" fill="#670b16" stroke="none" stroke-width="0" stroke-linecap="butt"/><path d="M231.03778,208.85314v-5.69026h3.38035v5.69026z" fill="#840f1e" stroke="none" stroke-width="0" stroke-linecap="butt"/><path d="M235.2605,163.59253c0,0 0.2646,-2.09823 0.88907,-4.41227c0.35533,-1.31672 0.90337,-2.70333 1.3948,-3.81298c0.49373,-1.11483 1.53264,-2.43874 1.91116,-2.43874c0.38526,0 1.44004,1.28281 1.95446,2.3802c0.52752,1.12533 1.11532,2.54715 1.50497,3.89379c0.667,2.30518 0.97082,4.39002 0.97082,4.39002z" fill="#d71304" stroke="none" stroke-width="0" stroke-linecap="butt"/><path d="M235.26946,165.5189v-1.97187h8.60738v1.97187z" fill="#dc8760" stroke="none" stroke-width="0" stroke-linecap="butt"/><path d="M231.07299,205.66059v-0.77466h3.18316v0.77466z" fill="#770913" stroke="#000000" stroke-width="0" stroke-linecap="butt"/><path d="M230.02365,210.73112l1.01411,-3.09866h3.38035l1.01411,3.09866z" fill="#670b16" stroke="none" stroke-width="0" stroke-linecap="butt"/><path d="M235.26946,163.7583l0.0313,-0.49296h8.54478l0.0313,0.49296z" fill="#be0a04" stroke="none" stroke-width="0" stroke-linecap="butt"/><path d="M246.22823,165.37805c0,0 -0.70424,3.70521 -0.70424,4.29586c0,5.62721 0,35.37903 0,38.16981c0,0.41393 -0.70424,2.39441 -0.70424,2.39441" fill="none" stroke-opacity="0.16078" stroke="#ffffff" stroke-width="0.5" stroke-linecap="round"/><path d="M235.26946,165.97666l-0.00391,-0.49297h8.6152l-0.00392,0.49297z" fill="#b50a04" stroke="none" stroke-width="0" stroke-linecap="butt"/><path d="M232.42513,165.30763c0,0 -0.70424,3.70521 -0.70424,4.29586c0,5.62721 0,35.37903 0,38.16981c0,0.41393 -0.70424,2.39442 -0.70424,2.39442" fill="none" stroke-opacity="0.16078" stroke="#ffffff" stroke-width="0.5" stroke-linecap="round"/><path d="M235.26946,192.2722v-18.40414h8.60738v18.40414z" fill="#9f0d04" stroke="none" stroke-width="0" stroke-linecap="butt"/><path d="M235.28122,174.37472v-0.52818h8.5839v0.52818z" fill="#7f0800" stroke="none" stroke-width="0" stroke-linecap="butt"/><g stroke="none" stroke-width="0" stroke-linecap="butt"><path d="M241.31967,201.48868l2.50709,-10.63871l7.91566,8.45304l0.16901,2.18567z" data-paper-data="{&quot;index&quot;:null}" fill="#2c383e"/><path d="M227.37573,201.53564l0.16902,-2.18567l7.91566,-8.45305l2.5071,10.63872z" fill="#2c383e"/><path d="M234.23032,195.50734l3.94374,-22.19764h2.76062l4.22544,22.19764z" fill="#bed9e3"/><path d="M238.15517,173.4614c0,0 0.59661,-2.41007 0.97029,-2.41007c0.19477,0 0.50472,0 0.81378,0c0.50197,0 1.05793,2.41007 1.05793,2.41007z" fill="#28201f"/><path d="M228.03302,200.97225l0.16902,-1.80285l9.74668,-9.9157l0.67607,11.71855z" fill="#bed9e3"/><path d="M240.6037,200.97929l0.67607,-11.71856l9.74668,9.9157l0.16902,1.80285z" data-paper-data="{&quot;index&quot;:null}" fill="#bed9e3"/><path d="M237.80678,203.22682v-14.97683h3.5212v14.97683z" fill="#adc6ce"/></g><path d="M237.9384,174.44867l0.22535,-1.01411h2.76062l0.22536,1.01411z" fill="#98bbc3" stroke="none" stroke-width="0" stroke-linecap="butt"/><path d="M238.95344,174.16697v-0.39437h1.23946v0.39437z" fill="#28201f" stroke="none" stroke-width="0" stroke-linecap="butt"/><g fill="#0e1119" stroke="none" stroke-width="0" stroke-linecap="butt"><path d="M237.54093,179.4092v-1.05972l0.64387,0.41584v0.64388z" data-paper-data="{&quot;index&quot;:null}"/><path d="M238.22503,178.6446l-0.52315,-0.36218l0.97923,-0.44266l-0.05365,0.4829z" data-paper-data="{&quot;index&quot;:null}"/><path d="M238.77424,178.32266l0.04024,-0.56339l0.69162,-0.16097v0.64388z" data-paper-data="{&quot;index&quot;:null}"/><g><path d="M240.96151,179.44944v-0.64388l0.64387,-0.41584v1.05972z"/><path d="M240.51886,178.3629l-0.05365,-0.48291l0.97923,0.44267l-0.52315,0.36218z"/><path d="M239.64023,178.28242v-0.64387l0.69161,0.16097l0.04025,0.56339z"/></g></g><path d="M239.71989,180.5385v-0.65729h0.51644v0.65729z" fill="#4b413d" stroke="none" stroke-width="0" stroke-linecap="butt"/><path d="M236.79142,189.74476c0,0 0,-23.03705 0,-25.56392c0,-0.21309 -0.01801,-2.61607 0.54435,-5.03724c0.59851,-2.57682 1.77964,-5.17424 1.77964,-5.17424" fill="none" stroke-opacity="0.16078" stroke="#ffffff" stroke-width="1.5" stroke-linecap="round"/><path d="M238.91001,180.54353v-0.6573h0.51644v0.6573z" fill="#4b413d" stroke="none" stroke-width="0" stroke-linecap="butt"/><path d="M238.30552,189.25179l0.77466,-7.18325h0.98593l0.77467,7.18325z" fill="#d3e6f4" stroke="none" stroke-width="0" stroke-linecap="butt"/><path d="M236.1576,200.94218c0,0 0.07043,-3.9418 0.07043,-6.05647c0,-0.29183 0.42476,-0.62577 0.42865,-0.98663c0.02703,-2.51471 -0.0061,-6.33747 -0.0061,-6.33747h5.84519c0,0 -0.0351,3.75283 -0.00686,6.26782c0.00435,0.38759 0.4294,0.74577 0.4294,1.05629c0,2.11467 0,6.05647 0,6.05647z" fill="#94bdca" stroke="none" stroke-width="0" stroke-linecap="butt"/><path d="M231.29835,200.94218v-1.7606l4.92968,-4.29586v6.05647z" fill="#adcedd" stroke="none" stroke-width="0" stroke-linecap="butt"/><path d="M242.91831,200.94218v-6.05647l4.92968,4.29586v1.7606z" data-paper-data="{&quot;index&quot;:null}" fill="#adcedd" stroke="none" stroke-width="0" stroke-linecap="butt"/><path d="M236.49797,206.31787v-5.35223h6.15036v5.35223z" fill="#141217" stroke="none" stroke-width="0" stroke-linecap="butt"/><path d="M241.53386,204.42314v-3.00476h10.04715v1.22068z" data-paper-data="{&quot;index&quot;:null}" fill="#141217" stroke="none" stroke-width="NaN" stroke-linecap="butt"/><path d="M227.74194,202.6793v-1.22068h10.04716v3.00476z" fill="#141217" stroke="none" stroke-width="NaN" stroke-linecap="butt"/><g fill="#2e2b2f" stroke="none" stroke-width="0" stroke-linecap="butt"><path d="M240.95817,207.53856v-1.17373h1.69018v1.17373z"/><path d="M236.49797,207.63246v-1.17373h1.69017v1.17373z"/><path d="M239.0802,207.8672v-2.53527h1.03289v2.53527z"/></g><g fill="#000000" stroke="none" stroke-width="1" stroke-linecap="butt" font-family="&quot;Helvetica Neue&quot;, Helvetica, Arial, sans-serif" font-weight="400" font-size="16" text-anchor="start"/><path d="M239.45622,208.64042l-0.07521,1.21577c0,0 -1.95635,0 -2.45422,0c-0.1452,0 -0.28773,-0.48631 -0.41373,-0.48631c-0.77385,0 -1.03337,-0.04053 -1.03337,-0.04053l-0.32864,-0.68894z" data-paper-data="{&quot;index&quot;:null}" fill="#580902" stroke="none" stroke-width="0" stroke-linecap="butt"/><path d="M244.01031,208.64042l-0.32865,0.68893c0,0 -0.25951,0.04053 -1.03337,0.04053c-0.12599,0 -0.26854,0.48631 -0.41373,0.48631c-0.49787,0 -2.45421,0 -2.45421,0l-0.07522,-1.21576z" data-paper-data="{&quot;index&quot;:null}" fill="#580902" stroke="none" stroke-width="0" stroke-linecap="butt"/><path d="M238.95999,209.85525v-1.22068h1.78408v1.22068z" fill="#580902" stroke="none" stroke-width="0" stroke-linecap="butt"/><path d="M237.77733,192.98426v-10.77488l1.4789,-10.5636" fill="none" stroke-opacity="0.16078" stroke="#ffffff" stroke-width="1" stroke-linecap="round"/><path d="M226.0142,215.59333v-69.81118h27.41841v69.81118z" fill="none" stroke="none" stroke-width="NaN" stroke-linecap="butt"/></g></g></g></svg>