<svg version="1.1" xmlns="http://www.w3.org/2000/svg" xmlns:xlink="http://www.w3.org/1999/xlink" width="20.375" height="19" viewBox="0,0,20.375,19"><g transform="translate(-229.8125,-170.5)"><g data-paper-data="{&quot;isPaintingLayer&quot;:true}" fill-rule="nonzero" stroke="none" stroke-linecap="butt" stroke-linejoin="miter" stroke-miterlimit="10" stroke-dasharray="" stroke-dashoffset="0" style="mix-blend-mode: normal"><path d="M239.98945,183.80997c-0.56445,0 -0.99484,-0.15875 -1.29117,-0.47625c-0.29633,-0.32455 -0.44449,-0.78669 -0.44449,-1.38641v-0.13758h1.10066v0.21167c0,0.48683 0.20108,0.73025 0.60325,0.73025c0.21872,0 0.381,-0.06703 0.48683,-0.20108c0.10583,-0.13406 0.15875,-0.37042 0.15875,-0.70908v-1.41816h-0.0212c-0.20461,0.43039 -0.55738,0.64558 -1.05833,0.64558c-0.42333,0 -0.74436,-0.14464 -0.96308,-0.43391c-0.21872,-0.28928 -0.32808,-0.70908 -0.32808,-1.25941v-1.32291c0,-0.59266 0.15169,-1.05127 0.45508,-1.37583c0.30339,-0.32455 0.74083,-0.48683 1.31233,-0.48683c0.5715,0 1.00894,0.16228 1.31233,0.48683c0.30339,0.32455 0.45508,0.78316 0.45508,1.37583v3.83115c0,1.28411 -0.59266,1.92616 -1.77799,1.92616zM240.00005,180.01058c0.40217,0 0.60325,-0.24342 0.60325,-0.73025v-1.31233c0,-0.47978 -0.20108,-0.71966 -0.60325,-0.71966c-0.40217,0 -0.60325,0.23989 -0.60325,0.71966v1.31233c0,0.48683 0.20108,0.73025 0.60325,0.73025z" fill="#000000" stroke-width="0.26458"/><path d="M229.8125,189.5v-19h20.375v19z" fill="none" stroke-width="0"/></g></g></svg>