<svg version="1.1" xmlns="http://www.w3.org/2000/svg" xmlns:xlink="http://www.w3.org/1999/xlink" width="16.35995" height="16.34639" viewBox="0,0,16.35995,16.34639"><g transform="translate(-231.82003,-171.82681)"><g data-paper-data="{&quot;isPaintingLayer&quot;:true}" fill="#b3b3b3" fill-rule="nonzero" stroke="none" stroke-width="0" stroke-linecap="butt" stroke-linejoin="miter" stroke-miterlimit="10" stroke-dasharray="" stroke-dashoffset="0" style="mix-blend-mode: normal"><path d="M231.82011,185.31151c0,-3.3741 0,-8.74931 0,-10.64443c0,-0.64178 0.24958,-1.48941 0.82847,-2.02876c0.6098,-0.56814 1.56779,-0.81152 2.28486,-0.81152c1.85853,0 6.82461,0 10.12006,0c0.87817,0 1.84746,0.21824 2.39794,0.75722c0.58864,0.5764 0.72853,1.49702 0.72853,2.18788c0,1.86685 0,7.03302 0,10.38228c0,1.77 -1.18184,3.02675 -2.86349,3.01898c-3.37202,-0.01555 -8.75364,-0.03887 -10.64527,-0.03887c-1.30244,0 -2.85119,-1.13477 -2.85119,-2.82278z"/></g></g></svg>