<svg version="1.1" xmlns="http://www.w3.org/2000/svg" xmlns:xlink="http://www.w3.org/1999/xlink" width="359.59254" height="472.62315" viewBox="0,0,359.59254,472.62315"><defs><linearGradient x1="121.5" y1="115" x2="595.5" y2="115" gradientUnits="userSpaceOnUse" id="color-1"><stop offset="0" stop-color="#3b8f75"/><stop offset="1" stop-color="#5ddaae"/></linearGradient><linearGradient x1="462" y1="319.5" x2="301" y2="319.5" gradientUnits="userSpaceOnUse" id="color-2"><stop offset="0" stop-color="#306654"/><stop offset="1" stop-color="#347260"/></linearGradient><linearGradient x1="407" y1="306" x2="246" y2="306" gradientUnits="userSpaceOnUse" id="color-3"><stop offset="0" stop-color="#36725e"/><stop offset="1" stop-color="#3d846f"/></linearGradient><linearGradient x1="343" y1="273" x2="182" y2="273" gradientUnits="userSpaceOnUse" id="color-4"><stop offset="0" stop-color="#5adfb6"/><stop offset="1" stop-color="#41957b"/></linearGradient><linearGradient x1="190.5" y1="259.5" x2="351.5" y2="259.5" gradientUnits="userSpaceOnUse" id="color-5"><stop offset="0" stop-color="#398e74"/><stop offset="1" stop-color="#4ab492"/></linearGradient><linearGradient x1="167" y1="227.5" x2="328" y2="227.5" gradientUnits="userSpaceOnUse" id="color-6"><stop offset="0" stop-color="#34715f"/><stop offset="1" stop-color="#49a085"/></linearGradient><linearGradient x1="134.72568" y1="64.75" x2="291.22568" y2="64.75" gradientUnits="userSpaceOnUse" id="color-7"><stop offset="0" stop-color="#3b8f75"/><stop offset="1" stop-color="#4dbd9b"/></linearGradient><linearGradient x1="135.5" y1="192" x2="342.5" y2="192" gradientUnits="userSpaceOnUse" id="color-8"><stop offset="0" stop-color="#49b795"/><stop offset="1" stop-color="#73f2e3"/></linearGradient><linearGradient x1="263.45884" y1="156.23509" x2="322.04116" y2="117.1802" gradientUnits="userSpaceOnUse" id="color-9"><stop offset="0" stop-color="#60edc1"/><stop offset="1" stop-color="#65eeca"/></linearGradient><linearGradient x1="311" y1="99.5" x2="330.5" y2="99.5" gradientUnits="userSpaceOnUse" id="color-10"><stop offset="0" stop-color="#60edc1"/><stop offset="1" stop-color="#64eec9"/></linearGradient><linearGradient x1="178.29221" y1="177.90629" x2="217.7078" y2="171.09371" gradientUnits="userSpaceOnUse" id="color-11"><stop offset="0" stop-color="#4dba98"/><stop offset="1" stop-color="#56c4a1"/></linearGradient><linearGradient x1="125.72568" y1="88.5" x2="238.22568" y2="88.5" gradientUnits="userSpaceOnUse" id="color-12"><stop offset="0" stop-color="#357260"/><stop offset="1" stop-color="#4aa288"/></linearGradient><linearGradient x1="123.5" y1="114.25" x2="271" y2="114.25" gradientUnits="userSpaceOnUse" id="color-13"><stop offset="0" stop-color="#4bb591"/><stop offset="1" stop-color="#75f2d9"/></linearGradient><linearGradient x1="121.5" y1="132.5" x2="282" y2="132.5" gradientUnits="userSpaceOnUse" id="color-14"><stop offset="0" stop-color="#4f8476"/><stop offset="1" stop-color="#6fbba1"/></linearGradient><linearGradient x1="282.48663" y1="317.93583" x2="327.46474" y2="311.06417" gradientUnits="userSpaceOnUse" id="color-15"><stop offset="0" stop-color="#4baf93"/><stop offset="1" stop-color="#5ddaae"/></linearGradient><linearGradient x1="259.88694" y1="-98.21861" x2="403.24959" y2="51.10035" gradientUnits="userSpaceOnUse" id="color-16"><stop offset="0" stop-color="#49b795"/><stop offset="1" stop-color="#73f2e3"/></linearGradient><linearGradient x1="281.66667" y1="-52.83333" x2="301.16667" y2="-52.83333" gradientUnits="userSpaceOnUse" id="color-17"><stop offset="0" stop-color="#60edc1"/><stop offset="1" stop-color="#64eec9"/></linearGradient></defs><g transform="translate(-121.5,121.00515)"><g data-paper-data="{&quot;isPaintingLayer&quot;:true}" fill-rule="nonzero" stroke="none" stroke-width="0" stroke-linecap="butt" stroke-linejoin="miter" stroke-miterlimit="10" stroke-dasharray="" stroke-dashoffset="0" style="mix-blend-mode: normal"><path d="M121.5,115c0,-130.34205 106.10851,-236.00515 237,-236.00515c130.89149,0 17,97.66311 17,228.00515c0,111.97808 141.68461,213.74138 36.62088,237.93935c-17.23005,3.96837 -35.17949,6.06581 -53.62088,6.06581c-130.89149,0 -237,-105.66311 -237,-236.00515z" fill="url(#color-1)"/><path d="M400,304l3,32c0,0 18.54599,7.89896 -0.38283,11.17668c-9.7691,1.69162 -24.11863,3.89742 -36.53242,4.34699c-12.43011,0.45016 -22.91809,-0.85701 -22.91809,-0.85701c0,0 -37.38445,-3.21723 -55.57886,-10.40621c-4.31563,-1.7052 -7.24639,-3.91817 -8.71732,-5.5467c-10.24179,-11.33913 -23.37048,-36.71375 -23.37048,-36.71375c0,0 83.68578,4.10962 105.49789,4.17757c10.18552,0.03173 25.20032,-6.52023 40.47432,-7.25515c28.80304,-1.38588 -1.47221,9.07758 -1.47221,9.07758z" data-paper-data="{&quot;index&quot;:null}" fill="url(#color-2)"/><path d="M345,290.5c0,0 135.67669,-15.78193 136.09086,-11.36412c0.54791,5.84441 -133.09086,43.36412 -133.09086,43.36412c0,0 18.54599,7.89896 -0.38283,11.17668c-19.55105,3.38547 -59.61717,6.82332 -59.61717,6.82332c0,0 -26.44435,-8.62559 -49.7688,-21.96767c-21.658,-12.38883 -40.16669,-29.39543 -43.86071,-33.48524c15.92488,-2.17246 0.29618,0.28625 0.29618,0.28625c0,0 21.08631,12.44261 51.72835,13.40367c20.1456,0.63184 50.95081,-10.08639 59.60288,-10.05944c10.18552,0.03173 25.20032,-6.52023 40.47432,-7.25515c28.80304,-1.38588 -1.47221,9.07758 -1.47221,9.07758z" data-paper-data="{&quot;index&quot;:null}" fill="url(#color-3)"/><path d="M334.5,247l64,35.5c0,0 -95.95401,14.89896 -114.88283,18.17668c-19.55105,3.38547 -61.28384,7.71221 -61.28384,7.71221c0,0 -20.0128,-14.90306 -27.68507,-23.39736c-10.24179,-11.33913 -26.64827,-39.49153 -26.64827,-39.49153c0,0 52.18578,10.10961 73.99789,10.17756c10.18552,0.03173 25.20032,-6.52022 40.47432,-7.25515c28.80304,-1.38589 52.02779,-1.42242 52.02779,-1.42242z" data-paper-data="{&quot;index&quot;:null}" fill="url(#color-4)"/><path d="M195.83334,286.16666c0,0 -14.26387,-14.04311 -20.02238,-20.82993c-5.03214,-5.93074 -12.64429,-17.67006 -12.64429,-17.67006c0,0 90.73352,-10.31287 123.17705,-14.81636c23.32905,-3.23831 60.15629,-8.3503 60.15629,-8.3503l6.5,57.5c0,0 -39.68578,-5.10962 -61.49789,-5.17757c-10.18552,-0.03173 -25.20032,6.52023 -40.47432,7.25515c-28.80303,1.38588 -55.19446,2.08908 -55.19446,2.08908z" fill="url(#color-5)"/><path d="M163.66667,249.27778c0,0 -6.96651,-10.27819 -10.05425,-15.51714c-3.07891,-5.22397 -8.44575,-15.87175 -8.44575,-15.87175l240.83334,-21.38889l29.5,60.5c0,0 -125.68578,-12.10962 -147.49789,-12.17757c-10.18552,-0.03173 -25.20032,6.52023 -40.47432,7.25515c-28.80303,1.38589 -63.86113,-2.79981 -63.86113,-2.79981z" fill="url(#color-6)"/><path d="M132.93714,41.88737c0,0 2.30676,-6.20717 5.29949,-13.73183c3.35481,-8.43504 8.54311,-18.52566 10.74652,-23.38412c2.57471,-5.67715 8.02498,-12.33044 8.02498,-12.33044c0,0 7.51278,-15.15333 17.33237,-25.88353c5.8706,-6.415 13.33679,-10.86355 18.37333,-10.61893c4.6515,0.22591 29.13249,2.87089 36.88747,12.07297c8.95744,10.62893 0.94625,28.00114 0.94625,28.00114l-29.62654,59.39084z" fill="#497a6c"/><path d="M126.00346,68.38889c0,0 2.13837,-9.4509 3.62671,-14.44121c1.32627,-4.4469 4.20662,-13.39213 4.20662,-13.39213c0,0 38.07208,13.43543 52.46532,5.58457c10.70013,-5.83644 22.22031,-35.55412 26.81162,-45.72254c0.51454,-1.13956 4.12292,-18.51749 -7.21917,-27.04943c-9.9862,-7.51198 -32.26888,-6.36815 -32.26888,-6.36815c0,0 14.06267,-17.04923 19.36711,-19.2694c3.64538,-1.52577 5.98277,1.21231 9.56676,3.32217c8.65625,5.09583 37.74592,4.50656 46.96543,14.44973c11.88417,12.81698 11.7225,36.38632 15.78116,41.34995c13.4635,16.4655 -23.08045,64.14756 -23.08045,64.14756c0,0 -34.99302,16.80981 -65.36407,13.68067c-21.5154,-2.21674 -50.85816,-16.29178 -50.85816,-16.29178z" fill="url(#color-7)"/><path d="M267.00001,195.66667c45.1953,0 81.83333,26.93754 81.83333,60.16667c0,33.22912 -36.63803,60.16666 -81.83333,60.16666c-45.1953,0 -81.83334,-26.93753 -81.83334,-60.16666c0,-33.22913 36.63804,-60.16667 81.83334,-60.16667z" fill="none"/><path d="M146.22222,220.25c0,0 -8.53777,-18.28323 -11.68852,-26.3654c-1.71242,-4.39264 -4.13708,-13.7541 -6.01252,-21.09094c-1.45325,-5.68522 -2.13229,-10.15478 -2.13229,-10.15478c0,0 48.60836,41.19046 68.47664,38.92947c11.4358,-1.30138 22.99147,-20.38421 32.59196,-20.56578c18.53039,-0.35046 38.77708,12.41421 61.7648,4.38375c12.24988,-4.27934 17.93933,-20.39531 27.80496,-28.69807c10.62356,-8.94063 76.97275,-17.93826 76.97275,-17.93826l4.5,91.5c0,0 -65.84146,-20.07583 -74.17638,-18.99783c-5.14369,0.66527 -9.28327,4.81974 -14.56327,6.88522c-5.53301,2.16445 -12.22022,2.23118 -18.228,2.38405c-0.63443,0.01614 -1.29166,0.03163 -1.97071,0.04649c-12.31696,0.26945 -39.3289,-5.82686 -59.60882,-2.53135c-15.55553,2.52779 -23.85709,14.69776 -38.4555,14.59533c-14.17399,-0.09945 -30.01825,-10.15862 -38.40089,-13.58638c-6.33366,-2.58991 -6.87421,1.20448 -6.87421,1.20448z" fill="url(#color-8)"/><path d="M318.04116,124.1802c2.52885,3.79327 5.20246,8.09134 0.16064,13.31737c-4.81312,4.98898 -13.1009,3.86798 -21.00172,9.13519c-4.8181,3.21207 -9.32078,9.52029 -13.39911,11.68441c-9.61492,5.10205 -16.87133,3.1241 -20.34213,-2.08209c-4.94299,-7.41449 7.16402,-21.66785 23.34108,-32.45256c16.17707,-10.78471 26.29825,-7.01681 31.24124,0.39767z" fill="url(#color-9)"/><path d="M330.5,99.5c0,3.72792 -4.36523,6.75 -9.75,6.75c-5.38477,0 -9.75,-3.02208 -9.75,-6.75c0,-3.72792 4.36523,-6.75 9.75,-6.75c5.38477,0 9.75,3.02208 9.75,6.75z" fill="url(#color-10)"/><path d="M217.7078,171.09371c0.68195,3.94556 -7.5887,8.66913 -18.47302,10.55037c-10.88432,1.88124 -20.26063,0.20777 -20.94258,-3.73779c-0.68195,-3.94556 7.5887,-8.66913 18.47302,-10.55036c10.88432,-1.88124 20.26063,-0.20777 20.94258,3.73779z" fill="url(#color-11)"/><path d="M122.17013,99.55556c0,0 0.15112,-4.47877 0.51308,-7.74205c0.64757,-5.83819 3.48692,-24.3135 3.48692,-24.3135c0,0 53.88061,12.44362 70.43201,4.23466c9.7526,-4.83697 30.39804,-12.59241 39.95338,-25.5946c6.40869,-8.72047 1.40225,-57.61503 3.09311,-65.49947c1.67329,-7.80251 3.27705,-10.64058 3.27705,-10.64058c0,0 20.2358,34.37333 24.38358,41.0678c8.87995,14.33211 11.02318,45.30297 -0.29804,60.77529c-11.2445,15.36749 -107.28555,57.15692 -107.28555,57.15692c0,0 -22.13862,-11.72896 -28.66,-16.62c-5.15375,-3.86531 -8.89555,-12.82444 -8.89555,-12.82444z" fill="url(#color-12)"/><path d="M121.66667,121.33334c0,0 -0.337,-11.5746 -0.00699,-16.2247c0.26819,-3.77904 0.84033,-9.83086 0.84033,-9.83086c0,0 44.98771,24.75909 70.19106,7.53829c8.9533,-6.11755 38.44301,-15.66752 52.03024,-36.49787c14.46004,-22.16845 15.85844,-49.12547 15.8588,-58.71821c0.00004,-0.98149 -4.32508,-24.33762 -19.13658,-36.34134c-19.87367,-16.10627 -51.7435,-21.85866 -51.7435,-21.85866c0,0 3.07287,-5.25558 19.4145,-17.99367c13.37423,-10.42504 104.8855,73.59367 104.8855,73.59367c0,0 -13.46783,58.17423 -38.31871,85.33602c-35.66112,38.97728 -88.40724,51.1659 -104.61769,49.86906c-20.20336,-1.61627 -49.39693,-18.87175 -49.39693,-18.87175z" fill="url(#color-13)"/><path d="M123.33334,142.75c0,0 -0.73915,-3.69723 -0.94652,-6.29875c-0.33767,-4.23619 -0.88681,-16.70125 -0.88681,-16.70125c0,0 27.48601,14 52,14c7.58272,0 28.01963,-1.0609 46.82112,-12.78682c17.95149,-11.1958 41.14698,-38.18854 54.19701,-54.02241c4.81718,-5.84479 13.89634,-4.62232 16.53814,-10.13289c4.04671,-8.44116 12.83734,-31.55477 -1.50313,-53.14717c-23.89278,-35.97528 -78.25314,-73.4107 -78.25314,-73.4107c0,0 13.04868,-9.86012 18.99174,-13.93955c15.20463,-10.43674 85.06318,86.83798 87.44811,89.80133c1.687,2.09615 0.79744,34.16637 2.26222,36.14723c5.8934,7.96977 21.37313,2.40919 20.99825,7.77595c-0.72264,10.3451 -42.05867,21.89977 -50.99482,37.75004c-12.6504,22.43833 -47.50549,48.96501 -47.50549,48.96501c0,0 -31.22756,19 -60.5,19c-22.31782,0 -58.66666,-13 -58.66666,-13z" fill="url(#color-14)"/><path d="M327.46474,311.06417c0.45875,3.00272 -9.23805,6.97519 -21.65841,8.87274c-12.42036,1.89756 -22.86095,1.00164 -23.3197,-2.00108c-0.45875,-3.00272 9.23805,-6.97519 21.65841,-8.87275c12.42036,-1.89756 22.86095,-1.00164 23.3197,2.00109z" fill="url(#color-15)"/><path d="M123.00346,88.66667c0,0 0.4047,-4.84337 0.72339,-6.93475c0.26325,-1.72756 0.83217,-4.73192 0.83217,-4.73192l32.16667,5.5c0,0 17.5,-1.71493 17.5,0.5c0,1.4213 -15.5,15 -15.5,15z" fill="#50bc9a"/><path d="M182.692,13.06919c1.85453,4.46247 -2.22343,10.39955 -9.10839,13.26083c-6.88496,2.86128 -13.96972,1.56326 -15.82425,-2.89921c-1.85453,-4.46248 2.22343,-10.39955 9.10839,-13.26083c6.88496,-2.86128 13.96972,-1.56326 15.82425,2.89922z" fill="#5b9786"/><path d="M291.58298,-104.25647c8.2782,3.67282 26.50767,8.13533 36.39593,18.29083c10.18435,10.45959 7.15501,24.87649 16.10494,37.84812c11.66812,16.91125 34.77342,32.17411 43.10945,41.24554c0.45957,0.50012 0.90358,0.98494 1.33133,1.45376c4.05055,4.43957 8.6338,9.30959 10.9045,14.79985c2.16686,5.23921 2.037,11.10256 5.11949,15.2737c4.99493,6.75897 65.07661,40.34957 65.07661,40.34957l-69.11989,60.12438c0,0 -39.46125,-54.09235 -40.36954,-67.94767c-0.84349,-12.86682 6.84136,-28.13238 1.44431,-39.93256c-10.12793,-22.14382 -33.358,-27.90825 -45.93885,-41.51782c-6.51807,-7.05104 -0.75586,-28.60295 -7.73724,-37.75344c-12.12928,-15.89784 -75.50676,-22.43395 -75.50676,-22.43395c0,0 3.69439,-2.60567 8.80189,-5.49481c6.59129,-3.72845 15.02341,-8.46293 19.37801,-10.2699c8.01218,-3.32471 27.11377,-9.82848 27.11377,-9.82848c0,0 -2.3627,3.01782 3.89204,5.79289z" data-paper-data="{&quot;index&quot;:null}" fill="url(#color-16)"/><path d="M301.16667,-52.83333c0,3.72792 -4.36523,6.75 -9.75,6.75c-5.38477,0 -9.75,-3.02208 -9.75,-6.75c0,-3.72792 4.36523,-6.75 9.75,-6.75c5.38477,0 9.75,3.02208 9.75,6.75z" fill="url(#color-17)"/></g></g></svg>