<svg version="1.1" xmlns="http://www.w3.org/2000/svg" xmlns:xlink="http://www.w3.org/1999/xlink" width="325.44897" height="310.82441" viewBox="0,0,325.44897,310.82441"><g transform="translate(-77.27552,-24.58781)"><g data-paper-data="{&quot;isPaintingLayer&quot;:true}" fill-rule="nonzero" stroke-width="0.5" stroke-linecap="round" stroke-linejoin="miter" stroke-miterlimit="10" stroke-dasharray="" stroke-dashoffset="0" style="mix-blend-mode: normal"><path d="M78.37448,136.16225l12.88882,-8.8104l7.8944,-7.7651l9.34439,1.64262l13.69437,-7.31712l14.66103,11.49832l22.39432,8.95973l0.80555,1.79194z" fill="#ffffff" stroke="#ffffff"/><path d="M78.53559,136.16225l14.82214,-6.12248l5.47774,-7.16779l7.8944,7.61577l3.86665,-3.58389l4.18886,2.98657l12.40549,-8.21309l9.5055,7.91443l21.91099,6.57047z" fill="#e9f8ff" stroke="#e9f8ff"/><g data-paper-data="{&quot;index&quot;:null}"><path d="M234.37448,239.16224l1.64083,-1.94628l45.61527,-9.73142l29.86323,-12.48865l27.89423,7.94732l19.03371,-1.7841l16.08021,8.43389l26.25339,9.56923z" fill="#ffffff" stroke="#ffffff"/><path d="M237.32798,239.16224l44.63077,-7.13637l19.36187,-8.59608l25.26889,8.92046l8.53235,-3.24381l7.87602,3.89257l16.08021,-8.2717l11.15769,7.78513l30.19141,6.6498z" fill="#e9f8ff" stroke="#e9f8ff"/></g><g><path d="M117.37448,335.16222l8.47067,-6.43456l5.18829,-5.67114l6.14124,1.19967l9.00009,-5.34396l9.63539,8.39765l14.71779,6.54362l0.52942,1.30872z" fill="#ffffff" stroke="#ffffff"/><path d="M117.48036,335.16222l9.74127,-4.47147l3.60003,-5.2349l5.18829,5.56208l2.5412,-2.61745l2.75296,2.1812l8.15302,-5.99832l6.24712,5.7802l14.40014,4.79866z" fill="#e9f8ff" stroke="#e9f8ff"/></g><g><path d="M275.37447,54.16224l13.16213,-11.58221l8.0618,-10.20805l9.54253,2.1594l13.98476,-9.61914l14.97191,15.11577l22.86919,11.77852l0.82263,2.3557z" fill="#ffffff" stroke="#ffffff"/><path d="M275.539,54.16224l15.13643,-8.04865l5.59389,-9.42282l8.0618,10.01173l3.94864,-4.7114l4.27768,3.92616l12.66855,-10.79698l9.70706,10.40436l22.37561,8.63759z" fill="#e9f8ff" stroke="#e9f8ff"/></g></g></g></svg>