<svg version="1.1" xmlns="http://www.w3.org/2000/svg" xmlns:xlink="http://www.w3.org/1999/xlink" width="60.875" height="23.125" viewBox="0,0,60.875,23.125"><g transform="translate(-209.5625,-168.4375)"><g data-paper-data="{&quot;isPaintingLayer&quot;:true}" fill-rule="nonzero" stroke-linejoin="miter" stroke-miterlimit="10" stroke-dasharray="" stroke-dashoffset="0" style="mix-blend-mode: normal"><path d="M249.37249,187.58668v-15.17336l16.08668,7.58668z" fill="#ff281f" stroke="#000000" stroke-width="0" stroke-linecap="butt"/><path d="M214.54083,187.5v-15h35v15z" fill="#ff281f" stroke="none" stroke-width="0" stroke-linecap="butt"/><g stroke="#ffffff" stroke-width="0.5" stroke-linecap="round"><path d="M225.86494,183.09836v-1.64799l-3.07328,-2.93966c0,0 0,-2.06452 0,-2.46439c0,-0.14529 0.03563,-0.04768 0.03563,-0.04768l1.38966,-0.01188c0,0 0,-0.6545 0,-0.7481c0,-0.0991 0,-0.06847 0,-0.06847h4.85489c0,0 0,-0.03913 0,0.08908c0,0.15034 0,0.75718 0,0.75718h1.46983c0,0 0,-0.02825 0,0.24366c0,0.51378 0,2.60691 0,2.60691l-3.16236,2.58333v1.64799l1.46983,1.73707c0,0 0.0336,0 -0.26724,0c-1.03299,0 -3.60611,0 -4.14224,0c-0.24202,0 -0.02227,-0.06681 -0.02227,-0.06681z" fill="#ffb900"/><path d="M224.3387,175.99882c0,0 -0.01416,1.06893 -0.02171,1.63879c-0.00823,0.62134 -0.38213,1.94818 -0.38213,1.94818" fill="none"/><path d="M229.18711,179.60955c0,0 -0.32639,-1.32685 -0.33461,-1.94818c-0.00755,-0.56987 0.12083,-1.6388 0.12083,-1.6388" data-paper-data="{&quot;index&quot;:null}" fill="none"/></g><g fill="#ffffff" stroke="none" stroke-width="0.26459" stroke-linecap="butt"><path d="M234.77994,180.55033l-1.6034,-4.25449h1.41051l0.90417,2.71991h0.02412l0.90417,-2.71991h1.28995l-1.6034,4.25449v3.15382h-1.32612z"/><path d="M240.01204,183.80999c-0.65101,0 -1.1493,-0.16228 -1.4949,-0.48684c-0.3456,-0.32456 -0.51839,-0.78316 -0.51839,-1.37583v-3.89465c0,-0.59267 0.17279,-1.05128 0.51839,-1.37583c0.3456,-0.32456 0.84389,-0.48683 1.4949,-0.48683c0.65101,0 1.1493,0.16227 1.4949,0.48683c0.3456,0.32456 0.51839,0.78316 0.51839,1.37583v3.89465c0,0.59267 -0.17279,1.05128 -0.51839,1.37583c-0.3456,0.32456 -0.84389,0.48684 -1.4949,0.48684zM240.01204,182.75166c0.45811,0 0.68717,-0.24341 0.68717,-0.73025v-4.04282c0,-0.48684 -0.22906,-0.73025 -0.68717,-0.73025c-0.45811,0 -0.68717,0.24341 -0.68717,0.73025v4.04282c0,0.48684 0.22906,0.73025 0.68717,0.73025z"/><path d="M244.84634,183.80999c-0.64297,0 -1.13323,-0.15875 -1.47079,-0.47625c-0.33756,-0.32456 -0.50634,-0.7867 -0.50634,-1.38642v-5.65148h1.32612v5.73615c0,0.254 0.05626,0.43744 0.16878,0.55033c0.12056,0.1129 0.28934,0.16934 0.50634,0.16934c0.217,0 0.38176,-0.05644 0.49428,-0.16934c0.12056,-0.11289 0.18083,-0.29633 0.18083,-0.55033v-5.73615h1.2779v5.65148c0,0.59973 -0.16878,1.06187 -0.50634,1.38642c-0.33756,0.3175 -0.82781,0.47625 -1.47078,0.47625z"/></g><path d="M209.5625,191.5625v-23.125h60.875v23.125z" fill="none" stroke="none" stroke-width="0" stroke-linecap="butt"/></g></g></svg>