<svg version="1.1" xmlns="http://www.w3.org/2000/svg" xmlns:xlink="http://www.w3.org/1999/xlink" width="68.66268" height="62.95354" viewBox="0,0,68.66268,62.95354"><g transform="translate(-205.47576,-64.71316)"><g data-paper-data="{&quot;isPaintingLayer&quot;:true}" fill-rule="nonzero" stroke-linejoin="miter" stroke-miterlimit="10" stroke-dasharray="" stroke-dashoffset="0" style="mix-blend-mode: normal"><g><path d="M207.98579,118.73288v-54.01972h63.84149v54.01972z" fill="none" stroke="none" stroke-width="NaN" stroke-linecap="butt"/><path d="M239.92309,103.36168l-0.06494,-10.26146" fill="none" stroke="#52a9b7" stroke-width="0.5" stroke-linecap="round"/><path d="M233.56359,93.30023v-4.50466c0,0 2.00917,-1.52873 3.09847,-1.52873c1.1181,0 3.52601,1.52873 3.52601,1.52873v4.50466c0,0 -0.47044,-0.06236 -0.78934,-0.27342c-0.34891,-0.23093 -0.20143,-0.59765 -0.63965,-0.87544c-0.49793,-0.31565 -1.58494,-0.52933 -2.01574,-0.52933c-0.39275,0 -1.1509,0.22233 -1.67151,0.6269c-0.44699,0.34737 -0.66085,0.86391 -0.98106,1.09155c-0.29355,0.2087 -0.52719,-0.04026 -0.52719,-0.04026z" fill="#af550a" stroke="none" stroke-width="0" stroke-linecap="butt"/><path d="M245.9293,93.21192v-4.50466c0,0 1.96756,-1.18902 3.00504,-1.18902c1.05269,0 3.26614,1.18902 3.26614,1.18902v4.50466c0,0 -0.44536,-0.06236 -0.74726,-0.27342c-0.33031,-0.23093 -0.19068,-0.59765 -0.60553,-0.87544c-0.47138,-0.31565 -1.50041,-0.52933 -1.90823,-0.52933c-0.37179,0 -1.08951,0.22232 -1.58235,0.62689c-0.42315,0.34737 -0.62559,0.86391 -0.92874,1.09155c-0.2779,0.2087 -0.49907,-0.04025 -0.49907,-0.04025z" fill="#af550a" stroke="none" stroke-width="0" stroke-linecap="butt"/><path d="M221.42215,93.38812l16.99902,9.79122" fill="none" stroke="#52a9b7" stroke-width="0.5" stroke-linecap="round"/><path d="M238.64438,103.19137l-11.12598,-9.96128" fill="none" stroke="#52a9b7" stroke-width="0.5" stroke-linecap="round"/><path d="M238.95019,102.66233l-5.06707,-9.17245" fill="none" stroke="#52a9b7" stroke-width="0.5" stroke-linecap="round"/><path d="M246.12758,93.30803l-5.46299,8.7969" fill="none" stroke="#52a9b7" stroke-width="0.5" stroke-linecap="round"/><path d="M251.93811,93.35997l-10.91221,9.82064" fill="none" stroke="#52a9b7" stroke-width="0.5" stroke-linecap="round"/><path d="M221.19787,93.47689v-4.50466c0,0 1.97048,-2.7602 3.02203,-2.7602c1.14812,0 3.60246,2.7602 3.60246,2.7602v4.50466c0,0 -0.47043,-0.06236 -0.78933,-0.27342c-0.34891,-0.23093 -0.20143,-0.59765 -0.63965,-0.87544c-0.49793,-0.31565 -1.58493,-0.52933 -2.01573,-0.52933c-0.39275,0 -1.1509,0.22233 -1.67151,0.6269c-0.44699,0.34737 -0.66085,0.86391 -0.98106,1.09155c-0.29355,0.2087 -0.52718,-0.04025 -0.52718,-0.04025z" fill="#af550a" stroke="none" stroke-width="0" stroke-linecap="butt"/><path d="M233.63153,88.88731l0.09601,-3.71312c0,0 1.9208,-1.14654 2.89207,-1.14654c1.08196,0 3.3035,1.14654 3.3035,1.14654v3.79804c0,0 -2.19417,-0.63697 -3.3035,-0.63697c-1.15581,0 -2.98807,0.55205 -2.98807,0.55205z" fill="#ffffef" stroke="none" stroke-width="0" stroke-linecap="butt"/><path d="M241.03535,103.25374l16.87778,-9.9587" fill="none" stroke="#52a9b7" stroke-width="0.5" stroke-linecap="round"/><path d="M227.42489,93.3444v-4.50466c0,0 2.11472,-2.80267 3.16472,-2.80267c1.0403,0 3.10648,2.80267 3.10648,2.80267v4.50466c0,0 -0.44535,-0.06236 -0.74724,-0.27343c-0.33031,-0.23093 -0.19069,-0.59765 -0.60553,-0.87545c-0.47138,-0.31565 -1.50041,-0.52934 -1.90823,-0.52934c-0.37179,0 -1.08951,0.22233 -1.58235,0.6269c-0.42315,0.34737 -0.62559,0.86391 -0.92874,1.09156c-0.2779,0.2087 -0.49907,-0.04025 -0.49907,-0.04025z" fill="#803808" stroke="none" stroke-width="0" stroke-linecap="butt"/><path d="M227.64593,93.16386c0,0 0.2766,0.02552 0.54998,-0.21914c0.14495,-0.12973 0.32005,-0.38375 0.51651,-0.51949c0.51108,-0.35313 1.36582,-0.59837 1.76083,-0.59837c0.43874,0 1.31515,0.21465 1.84943,0.59772c0.25402,0.18213 0.42513,0.39521 0.53259,0.56242c0.05022,0.07814 0.48559,0.32216 0.77702,0.36383c0.32888,0.04702 0.51473,-0.11335 0.51473,-0.11335" fill="none" stroke="#803808" stroke-width="0.5" stroke-linecap="round"/><path d="M239.92309,93.3427v-4.50466c0,0 1.33899,-1.74105 2.38676,-1.74105c1.0426,0 3.88443,1.74105 3.88443,1.74105v4.50466c0,0 -0.44535,-0.06236 -0.74726,-0.27342c-0.3303,-0.23093 -0.19068,-0.59765 -0.60553,-0.87544c-0.47137,-0.31565 -1.50042,-0.52933 -1.90825,-0.52933c-0.37179,0 -1.08952,0.22233 -1.58236,0.6269c-0.42315,0.34737 -0.6256,0.86391 -0.92875,1.09156c-0.2779,0.2087 -0.49907,-0.04025 -0.49907,-0.04025z" fill="#803808" stroke="none" stroke-width="0" stroke-linecap="butt"/><path d="M252.02382,93.25608v-4.50466c0,0 2.48527,-1.69858 3.57748,-1.69858c0.98764,0 2.6937,1.69858 2.6937,1.69858v4.50466c0,0 -0.44536,-0.06236 -0.74726,-0.27343c-0.3303,-0.23093 -0.19069,-0.59764 -0.60553,-0.87543c-0.47136,-0.31565 -1.50041,-0.52934 -1.90823,-0.52934c-0.37179,0 -1.08951,0.22233 -1.58236,0.6269c-0.42315,0.34737 -0.62561,0.86391 -0.92875,1.09155c-0.2779,0.2087 -0.49907,-0.04025 -0.49907,-0.04025z" fill="#803808" stroke="none" stroke-width="0" stroke-linecap="butt"/><path d="M240.48163,93.09762c0,0 0.20513,-0.45731 0.77206,-0.84904c0.51108,-0.35313 1.36583,-0.51222 1.76084,-0.51222c0.43874,0 1.31514,0.1285 1.84941,0.51157c0.23783,0.17053 0.40296,0.36816 0.51126,0.52989c0.04768,0.07121 0.25515,0.3563 0.44576,0.40821c0.29875,0.08137 0.60971,-0.0884 0.60971,-0.0884" fill="none" stroke="#803808" stroke-width="0.5" stroke-linecap="round"/><path d="M252.09631,89.00904l-0.21232,-3.79804c0,0 1.69648,-1.78353 2.69817,-1.78353c0.95388,0 3.17555,1.78353 3.17555,1.78353l0.57412,3.79804c0,0 -1.91905,-0.76437 -2.94283,-0.76437c-1.11731,0 -3.29268,0.76437 -3.29268,0.76437z" data-paper-data="{&quot;index&quot;:null}" fill="#d3d9e3" stroke="none" stroke-width="0" stroke-linecap="butt"/><path d="M245.86475,88.92978l0.05355,-3.75558c0,0 1.77394,-1.18902 2.76127,-1.18902c1.07105,0 3.4343,1.18902 3.4343,1.18902v3.79804c0,0 -1.89754,-0.80683 -2.96718,-0.80683c-1.18549,0 -3.28193,0.76436 -3.28193,0.76436z" fill="#ffffff" stroke="none" stroke-width="0" stroke-linecap="butt"/><path d="M246.44367,93.09762c0,0 0.20513,-0.45731 0.77206,-0.84904c0.51108,-0.35313 1.32274,-0.59838 1.71775,-0.59838c0.43874,0 1.35823,0.21466 1.89249,0.59773c0.5067,0.3633 0.68348,0.8497 0.68348,0.8497" fill="none" stroke="#af550a" stroke-width="0.5" stroke-linecap="round"/><path d="M239.80929,88.97225l-0.03139,-3.79804c0,0 1.88765,-1.35887 2.87167,-1.35887c1.07338,0 3.32388,1.35887 3.32388,1.35887v3.79804c0,0 -2.06453,-0.67944 -3.15402,-0.67944c-1.17158,0 -3.01015,0.67944 -3.01015,0.67944z" fill="#d3d9e3" stroke="none" stroke-width="0" stroke-linecap="butt"/><path d="M251.59604,93.22274c0,0 0.30539,0.06766 0.61005,0.00306c0.26876,-0.057 0.53693,-0.24142 0.59435,-0.31812c0.12217,-0.16322 0.31506,-0.37518 0.59816,-0.5708c0.51108,-0.35313 1.32275,-0.64145 1.71775,-0.64145c0.43874,0 1.35823,0.25773 1.89249,0.6408c0.5067,0.3633 1.08829,0.96012 1.08829,0.96012" fill="none" stroke="#803808" stroke-width="0.5" stroke-linecap="round"/><path d="M227.57606,88.92978l-0.03139,-3.75558c0,0 2.06858,-0.97668 3.04492,-0.97668c1.07863,0 3.15063,0.97668 3.15063,0.97668v3.79804c0,0 -1.99335,-0.80683 -3.06569,-0.80683c-1.18369,0 -3.09847,0.76436 -3.09847,0.76436z" fill="#d3d9e3" stroke="none" stroke-width="0" stroke-linecap="butt"/><path d="M221.1537,88.92978l0.57412,-3.79804c0,0 1.69226,-1.01915 2.577,-1.01915c1.04603,0 3.29672,1.01915 3.29672,1.01915l-0.04246,3.79804c0,0 -2.12528,-0.67943 -3.21178,-0.67943c-1.06223,0 -3.1936,0.67943 -3.1936,0.67943z" fill="#ffffff" stroke="none" stroke-width="0" stroke-linecap="butt"/><path d="M221.38101,93.48773c0,0 0.75717,-0.75173 1.32411,-1.14347c0.51108,-0.35313 1.36582,-0.51222 1.76083,-0.51222c0.43874,0 1.31514,0.1285 1.84941,0.51156c0.26013,0.18651 0.4333,0.40548 0.54025,0.57441c0.04949,0.07817 0.30406,0.25604 0.55168,0.30461c0.25961,0.05092 0.51161,-0.0293 0.51161,-0.0293" fill="none" stroke="#af550a" stroke-width="0.5" stroke-linecap="round"/><g stroke="none" stroke-width="0" stroke-linecap="butt"><path d="M251.91191,85.19346l-1.03048,-2.42898c0,0 0.87502,-2.31042 1.82889,-2.29802c0.93497,0.01215 3.83874,2.37162 3.83874,2.37162l1.21449,2.35537c0,0 -2.02916,-0.5945 -3.01153,-0.5945c-0.96796,0 -2.8401,0.5945 -2.8401,0.5945z" data-paper-data="{&quot;index&quot;:null}" fill="#803808"/><path d="M245.94987,85.15663l-0.51524,-2.31857c0,0 1.16915,-3.18486 2.26825,-3.18486c1.00191,0 4.06182,3.18486 4.06182,3.18486l0.40484,2.35537c0,0 -2.23351,-0.52354 -3.32009,-0.52997c-0.97437,-0.00576 -2.89957,0.49317 -2.89957,0.49317z" data-paper-data="{&quot;index&quot;:null}" fill="#af550a"/><path d="M239.87742,85.15663c0,0 -0.89571,-0.41895 -0.8989,-0.62038c-0.00652,-0.41017 0.8621,-1.6982 0.8621,-1.6982c0,0 1.43703,-2.12324 2.38432,-2.12324c1.00036,0 3.46731,2.12324 3.46731,2.12324l0.40484,2.35537c0,0 -2.12396,-0.48218 -3.23517,-0.48876c-0.92933,-0.0055 -2.9845,0.45197 -2.9845,0.45197z" data-paper-data="{&quot;index&quot;:null}" fill="#803808"/><path d="M233.6068,85.14534l-0.16987,-2.30724c0,0 2.07553,-2.71775 3.18266,-2.71775c1.03481,0 3.25782,2.71775 3.25782,2.71775v2.39218c0,0 -2.04524,-0.46711 -3.08796,-0.46711c-1.10093,0 -3.18265,0.38218 -3.18265,0.38218z" fill="#af550a"/><path d="M227.4381,85.23026l1.21449,-2.35537c0,0 1.52577,-2.12324 2.27675,-2.12324c0.90189,0 2.76524,2.12324 2.76524,2.12324l-0.0368,2.31857c0,0 -1.93344,-0.49814 -2.94029,-0.49218c-1.06331,0.00629 -3.27937,0.52899 -3.27937,0.52899z" fill="#803808"/><path d="M221.73367,85.19346l1.21449,-2.35537c0,0 2.83941,-2.93007 3.77717,-2.93007c1.00775,0 2.07448,2.93007 2.07448,2.93007l-1.21449,2.35537c0,0 -1.94293,-0.50958 -2.94075,-0.50958c-0.95041,0 -2.91088,0.50958 -2.91088,0.50958z" fill="#af550a"/></g><path d="M234.21044,93.18594c0,0 0.20513,-0.45731 0.77206,-0.84905c0.51108,-0.35313 1.36583,-0.64146 1.76084,-0.64146c0.43874,0 1.44437,0.21465 1.97864,0.59772c0.23202,0.16636 0.43795,0.35854 0.54632,0.51802c0.06648,0.09782 0.23661,0.39066 0.55116,0.43131c0.29248,0.0378 0.56084,-0.13013 0.56084,-0.13013" fill="none" stroke="#af550a" stroke-width="0.5" stroke-linecap="round"/><path d="M245.7358,82.82087l-0.34132,-3.76159c0,0 0.14979,-1.14656 0.90706,-1.14656c1.03291,0 4.72427,1.14656 4.72427,1.14656l0.63697,3.80405c0,0 -2.67155,-0.5945 -3.70512,-0.5945c-1.02699,0 -2.22187,0.55204 -2.22187,0.55204z" fill="#ffffff" stroke="none" stroke-width="0" stroke-linecap="butt"/><path d="M239.77631,82.82087l-0.00161,-3.71914c0,0 1.09135,-1.23149 2.02558,-1.23149c0.94281,0 3.60574,1.23149 3.60574,1.23149l0.402,3.76158c0,0 -2.0091,-0.50958 -3.15844,-0.50958c-1.14429,0 -2.87326,0.46712 -2.87326,0.46712z" fill="#d3d9e3" stroke="none" stroke-width="0" stroke-linecap="butt"/><path d="M233.72491,82.82087l0.55043,-3.76159c0,0 1.84567,-1.18902 2.7689,-1.18902c0.95295,0 2.86243,1.18902 2.86243,1.18902v3.76159c0,0 -2.11194,-0.55204 -3.11722,-0.55204c-1.05308,0 -3.06454,0.55204 -3.06454,0.55204z" fill="#ffffef" stroke="none" stroke-width="0" stroke-linecap="butt"/><path d="M222.84662,82.86333l2.43558,-3.76158c0,0 1.83644,-1.34354 2.58961,-1.36056c1.03404,-0.02338 3.0436,1.23317 3.0436,1.23317l-2.20816,3.88899c0,0 -2.01281,-0.55204 -3.00108,-0.55204c-0.96469,0 -2.85954,0.55204 -2.85954,0.55204z" fill="#ffffff" stroke="none" stroke-width="0" stroke-linecap="butt"/><path d="M228.66285,82.9058l1.18739,-3.84652c0,0 2.10982,-1.39122 2.73546,-1.38519c0.79841,0.0077 1.66439,1.42764 1.66439,1.42764l-0.47843,3.76158c0,0 -1.74579,-0.50958 -2.67248,-0.50958c-0.97223,0 -2.43634,0.55204 -2.43634,0.55204z" fill="#d3d9e3" stroke="none" stroke-width="0" stroke-linecap="butt"/><path d="M251.67002,82.85731l-1.81182,-3.71912c0,0 0.08688,-1.48627 0.8172,-1.48627c0.66231,0 3.3807,1.48627 3.3807,1.48627l2.58279,3.76159c0,0 -1.87872,-0.7219 -2.77863,-0.7219c-1.03475,0 -2.19023,0.67943 -2.19023,0.67943z" data-paper-data="{&quot;index&quot;:null}" fill="#d3d9e3" stroke="none" stroke-width="0" stroke-linecap="butt"/><g stroke="none" stroke-width="0" stroke-linecap="butt"><path d="M249.85109,79.04174l-1.33164,-2.38652c0,0 0.76836,-0.57048 1.39387,-0.55831c0.63607,0.01237 2.39143,0.63192 2.39143,0.63192l1.70492,2.35538c0,0 -1.74553,-0.50958 -2.52744,-0.50958c-0.77407,0 -1.63114,0.46712 -1.63114,0.46712z" data-paper-data="{&quot;index&quot;:null}" fill="#803808"/><path d="M245.30717,79.08987l-1.13293,-2.36104c0,0 1.10997,-0.97668 1.87251,-0.97668c0.78514,0 2.77248,0.97668 2.77248,0.97668l1.15244,2.35538c0,0 -2.19332,-0.43745 -3.03415,-0.44369c-0.8121,-0.00603 -1.63036,0.44934 -1.63036,0.44934z" data-paper-data="{&quot;index&quot;:null}" fill="#af550a"/><path d="M239.74096,79.04739l-0.02937,-2.31858c0,0 1.56902,-0.97668 2.38594,-0.97668c0.72914,0 2.28221,0.97668 2.28221,0.97668l0.91746,2.44031c0,0 -2.23423,-0.60573 -3.03051,-0.61163c-0.85364,-0.00633 -2.52574,0.4899 -2.52574,0.4899z" data-paper-data="{&quot;index&quot;:null}" fill="#803808"/><path d="M234.34826,79.12101l0.25479,-2.39218c0,0 1.92347,-0.84929 2.82337,-0.84929c0.80126,0 2.31454,0.84929 2.31454,0.84929v2.39218c0,0 -1.74173,-0.38219 -2.6118,-0.38219c-0.84164,0 -2.78091,0.38219 -2.78091,0.38219z" fill="#af550a"/><path d="M229.81744,79.12101l0.96886,-2.35537c0,0 1.44932,-1.01916 2.05392,-1.01916c0.71692,0 1.96834,1.01916 1.96834,1.01916l-0.41154,2.36104c0,0 -1.24201,-0.53809 -2.10819,-0.53167c-0.77833,0.00578 -2.47139,0.52601 -2.47139,0.52601z" fill="#803808"/><path d="M225.26673,79.08418l1.94272,-2.35537c0,0 2.16657,-1.18902 2.78564,-1.18902c0.65301,0 0.90864,1.18902 0.90864,1.18902l-0.96886,2.35537c0,0 -1.46174,-0.42464 -2.27535,-0.42464c-0.7343,0 -2.39281,0.42464 -2.39281,0.42464z" fill="#af550a"/></g><path d="M244.43774,76.80714l-1.36856,-2.04244l5.17948,-0.04246l0.7304,2.12738c0,0 -1.4081,-0.50958 -2.38026,-0.50958c-1.02054,0 -2.16105,0.46711 -2.16105,0.46711z" fill="#ffffff" stroke="none" stroke-width="0" stroke-linecap="butt"/><path d="M239.81899,76.80714l-0.17956,-2.08491h3.56583l1.33398,2.08491c0,0 -1.85157,-0.38218 -2.73897,-0.38218c-0.83901,0 -1.98129,0.38218 -1.98129,0.38218z" fill="#d3d9e3" stroke="none" stroke-width="0" stroke-linecap="butt"/><path d="M234.82393,76.89206l0.79713,-2.16984l3.94802,0.04246l0.29726,2.04244c0,0 -1.8347,-0.38217 -2.65224,-0.38217c-0.72466,0 -2.39017,0.46712 -2.39017,0.46712z" fill="#ffffef" stroke="none" stroke-width="0" stroke-linecap="butt"/><path d="M227.00534,76.80714l3.41861,-2.08491l3.88711,-0.29725l-3.31224,2.38216c0,0 -0.97169,-0.50958 -1.72562,-0.50958c-0.71692,0 -2.26786,0.50958 -2.26786,0.50958z" fill="#ffffff" stroke="none" stroke-width="0" stroke-linecap="butt"/><path d="M231.05222,76.76466l2.30037,-2.16984l2.58915,0.12739l-1.08257,2.12738c0,0 -0.99504,-0.46712 -1.80661,-0.46712c-0.93523,0 -2.00034,0.38217 -2.00034,0.38217z" fill="#d3d9e3" stroke="none" stroke-width="0" stroke-linecap="butt"/><path d="M248.91418,76.82734l-3.20186,-2.16984l2.75982,0.08493l4.00803,2.08492c0,0 -1.75247,-0.25479 -2.39929,-0.25479c-0.53442,0 -1.16671,0.25479 -1.16671,0.25479z" data-paper-data="{&quot;index&quot;:null}" fill="#d3d9e3" stroke="none" stroke-width="0" stroke-linecap="butt"/><g stroke="none" stroke-width="0" stroke-linecap="butt"><path d="M245.46797,74.71877l-1.35907,-1.49906l1.18268,0.04543l3.08727,1.45365z" data-paper-data="{&quot;index&quot;:null}" fill="#803808"/><path d="M242.53899,74.69605l-0.25631,-1.43093h1.97636l1.37389,1.45365z" data-paper-data="{&quot;index&quot;:null}" fill="#af550a"/><path d="M239.48146,74.69605l-0.01831,-1.43093h2.91087l0.60622,1.45365z" data-paper-data="{&quot;index&quot;:null}" fill="#803808"/><path d="M235.65202,74.74149l0.62565,-1.47636h3.2038v1.47636z" fill="#af550a"/><path d="M233.29356,74.74149l1.22979,-1.45364h1.88247l-0.42314,1.43093z" fill="#803808"/><path d="M230.45592,74.71877l3.19292,-1.45365h1.31578l-1.59783,1.45365z" fill="#af550a"/></g><g stroke="none" stroke-width="0" stroke-linecap="butt"><path d="M241.23249,73.28716l0.18656,-0.73278h1.90859l0.59566,0.73278z" fill="#ffffff"/><path d="M239.32781,73.28716l0.18656,-0.73278h1.90859l0.23699,0.73278z" fill="#d3d9e3"/><path d="M237.46395,73.28716l0.18656,-0.73278h1.90859v0.73278z" fill="#ffffef"/><path d="M233.77704,73.28716l1.53694,-0.73278h0.44935v0.73278z" fill="#ffffff"/><path d="M235.10007,73.28716l0.63329,-0.73278h1.90859l-0.16214,0.73278z" fill="#d3d9e3"/><path d="M243.60774,73.29427l-0.67583,-0.73279h0.4962l1.80193,0.73279z" data-paper-data="{&quot;index&quot;:null}" fill="#d3d9e3"/></g></g><g><path d="M205.47576,127.6667v-25.12125h29.68876v25.12125z" fill="none" stroke="none" stroke-width="NaN" stroke-linecap="butt"/><path d="M220.32784,120.5185l-0.0302,-4.77197" fill="none" stroke="#52a9b7" stroke-width="0.5" stroke-linecap="round"/><path d="M217.37043,115.83954v-2.09484c0,0 0.93434,-0.71092 1.44091,-0.71092c0.51996,0 1.63973,0.71092 1.63973,0.71092v2.09484c0,0 -0.21877,-0.029 -0.36707,-0.12715c-0.16226,-0.10739 -0.09367,-0.27793 -0.29746,-0.40711c-0.23156,-0.14679 -0.73706,-0.24616 -0.93739,-0.24616c-0.18264,0 -0.53521,0.10339 -0.77732,0.29153c-0.20787,0.16154 -0.30732,0.40175 -0.45623,0.50761c-0.13651,0.09705 -0.24516,-0.01872 -0.24516,-0.01872z" fill="#af550a" stroke="none" stroke-width="0" stroke-linecap="butt"/><path d="M223.12096,115.79847v-2.09484c0,0 0.91499,-0.55294 1.39746,-0.55294c0.48954,0 1.51888,0.55294 1.51888,0.55294v2.09484c0,0 -0.20711,-0.029 -0.3475,-0.12715c-0.1536,-0.10739 -0.08868,-0.27793 -0.28159,-0.40711c-0.21921,-0.14679 -0.69775,-0.24616 -0.8874,-0.24616c-0.17289,0 -0.50666,0.10339 -0.73585,0.29153c-0.19678,0.16154 -0.29092,0.40175 -0.4319,0.50761c-0.12923,0.09705 -0.23208,-0.01872 -0.23208,-0.01872z" fill="#af550a" stroke="none" stroke-width="0" stroke-linecap="butt"/><path d="M211.72419,115.88041l7.9052,4.5533" fill="none" stroke="#52a9b7" stroke-width="0.5" stroke-linecap="round"/><path d="M219.73319,120.4393l-5.17401,-4.63238" fill="none" stroke="#52a9b7" stroke-width="0.5" stroke-linecap="round"/><path d="M219.87541,120.19327l-2.35639,-4.26554" fill="none" stroke="#52a9b7" stroke-width="0.5" stroke-linecap="round"/><path d="M223.21317,115.84316l-2.5405,4.0909" fill="none" stroke="#52a9b7" stroke-width="0.5" stroke-linecap="round"/><path d="M225.91529,115.86732l-5.0746,4.56698" fill="none" stroke="#52a9b7" stroke-width="0.5" stroke-linecap="round"/><path d="M211.61989,115.92169v-2.09484c0,0 0.91635,-1.2836 1.40536,-1.2836c0.53392,0 1.67528,1.2836 1.67528,1.2836v2.09484c0,0 -0.21877,-0.029 -0.36707,-0.12715c-0.16226,-0.10739 -0.09367,-0.27793 -0.29746,-0.40711c-0.23156,-0.14679 -0.73705,-0.24616 -0.93739,-0.24616c-0.18264,0 -0.53521,0.10339 -0.77732,0.29153c-0.20787,0.16154 -0.30732,0.40175 -0.45623,0.50761c-0.13651,0.09705 -0.24516,-0.01872 -0.24516,-0.01872z" fill="#af550a" stroke="none" stroke-width="0" stroke-linecap="butt"/><path d="M217.40202,113.78736l0.04465,-1.72674c0,0 0.89325,-0.53319 1.34492,-0.53319c0.50315,0 1.53626,0.53319 1.53626,0.53319v1.76624c0,0 -1.02038,-0.29622 -1.53626,-0.29622c-0.5375,0 -1.38957,0.25672 -1.38957,0.25672z" fill="#ffffef" stroke="none" stroke-width="0" stroke-linecap="butt"/><path d="M220.84509,120.4683l7.84882,-4.63118" fill="none" stroke="#52a9b7" stroke-width="0.5" stroke-linecap="round"/><path d="M214.5157,115.86008v-2.09484c0,0 0.98342,-1.30335 1.47172,-1.30335c0.48378,0 1.44463,1.30335 1.44463,1.30335v2.09484c0,0 -0.2071,-0.029 -0.3475,-0.12716c-0.1536,-0.10739 -0.08868,-0.27793 -0.28159,-0.40712c-0.21921,-0.14679 -0.69775,-0.24616 -0.8874,-0.24616c-0.1729,0 -0.50667,0.10339 -0.73586,0.29153c-0.19678,0.16154 -0.29092,0.40175 -0.4319,0.50762c-0.12923,0.09705 -0.23209,-0.01872 -0.23209,-0.01872z" fill="#803808" stroke="none" stroke-width="0" stroke-linecap="butt"/><path d="M214.61849,115.77612c0,0 0.12863,0.01187 0.25576,-0.10191c0.06741,-0.06033 0.14884,-0.17846 0.2402,-0.24158c0.23767,-0.16422 0.63516,-0.27827 0.81885,-0.27827c0.20403,0 0.6116,0.09982 0.86006,0.27796c0.11813,0.0847 0.1977,0.18379 0.24768,0.26155c0.02335,0.03634 0.22582,0.14982 0.36134,0.16919c0.15294,0.02187 0.23937,-0.05271 0.23937,-0.05271" fill="none" stroke="#803808" stroke-width="0.5" stroke-linecap="round"/><path d="M220.32784,115.85929v-2.09484c0,0 0.62268,-0.80966 1.10994,-0.80966c0.48485,0 1.80641,0.80966 1.80641,0.80966v2.09484c0,0 -0.20711,-0.029 -0.3475,-0.12715c-0.1536,-0.10739 -0.08867,-0.27793 -0.28159,-0.40711c-0.21921,-0.14679 -0.69776,-0.24616 -0.88741,-0.24616c-0.1729,0 -0.50667,0.10339 -0.73586,0.29153c-0.19678,0.16154 -0.29093,0.40175 -0.4319,0.50762c-0.12923,0.09705 -0.23209,-0.01872 -0.23209,-0.01872z" fill="#803808" stroke="none" stroke-width="0" stroke-linecap="butt"/><path d="M225.95515,115.819v-2.09484c0,0 1.15574,-0.78991 1.66367,-0.78991c0.45929,0 1.25268,0.78991 1.25268,0.78991v2.09484c0,0 -0.20711,-0.029 -0.3475,-0.12716c-0.1536,-0.10739 -0.08868,-0.27793 -0.28159,-0.40711c-0.2192,-0.14679 -0.69775,-0.24616 -0.8874,-0.24616c-0.17289,0 -0.50666,0.10339 -0.73586,0.29153c-0.19678,0.16154 -0.29093,0.40175 -0.4319,0.50761c-0.12923,0.09705 -0.23208,-0.01872 -0.23208,-0.01872z" fill="#803808" stroke="none" stroke-width="0" stroke-linecap="butt"/><path d="M220.58758,115.74532c0,0 0.09539,-0.21267 0.35904,-0.39484c0.23767,-0.16422 0.63517,-0.2382 0.81886,-0.2382c0.20403,0 0.61159,0.05976 0.86005,0.2379c0.1106,0.0793 0.18739,0.17121 0.23776,0.24642c0.02218,0.03312 0.11865,0.16569 0.2073,0.18983c0.13893,0.03784 0.28354,-0.04111 0.28354,-0.04111" fill="none" stroke="#803808" stroke-width="0.5" stroke-linecap="round"/><path d="M225.98886,113.84397l-0.09874,-1.76624c0,0 0.78893,-0.82941 1.25475,-0.82941c0.44359,0 1.47675,0.82941 1.47675,0.82941l0.26699,1.76624c0,0 -0.89243,-0.35546 -1.36853,-0.35546c-0.51959,0 -1.53122,0.35546 -1.53122,0.35546z" data-paper-data="{&quot;index&quot;:null}" fill="#d3d9e3" stroke="none" stroke-width="0" stroke-linecap="butt"/><path d="M223.09095,113.80711l0.02491,-1.74649c0,0 0.82495,-0.55294 1.28409,-0.55294c0.49808,0 1.59708,0.55294 1.59708,0.55294v1.76624c0,0 -0.88243,-0.3752 -1.37985,-0.3752c-0.5513,0 -1.52622,0.35546 -1.52622,0.35546z" fill="#ffffff" stroke="none" stroke-width="0" stroke-linecap="butt"/><path d="M223.36017,115.74532c0,0 0.09539,-0.21267 0.35904,-0.39484c0.23767,-0.16422 0.61512,-0.27827 0.79882,-0.27827c0.20403,0 0.63163,0.09983 0.88008,0.27797c0.23563,0.16895 0.31784,0.39514 0.31784,0.39514" fill="none" stroke="#af550a" stroke-width="0.5" stroke-linecap="round"/><path d="M220.27492,113.82686l-0.0146,-1.76623c0,0 0.87783,-0.63192 1.33544,-0.63192c0.49916,0 1.54573,0.63193 1.54573,0.63193v1.76623c0,0 -0.96008,-0.31596 -1.46674,-0.31596c-0.54483,0 -1.39984,0.31596 -1.39984,0.31596z" fill="#d3d9e3" stroke="none" stroke-width="0" stroke-linecap="butt"/><path d="M225.75621,115.8035c0,0 0.14202,0.03146 0.2837,0.00142c0.12498,-0.02651 0.24969,-0.11227 0.27639,-0.14794c0.05682,-0.0759 0.14652,-0.17447 0.27817,-0.26544c0.23767,-0.16422 0.61513,-0.2983 0.79882,-0.2983c0.20403,0 0.63163,0.11985 0.88008,0.29799c0.23563,0.16895 0.5061,0.44649 0.5061,0.44649" fill="none" stroke="#803808" stroke-width="0.5" stroke-linecap="round"/><path d="M214.586,113.80711l-0.0146,-1.74649c0,0 0.96197,-0.45419 1.41601,-0.45419c0.50161,0 1.46517,0.45419 1.46517,0.45419v1.76624c0,0 -0.92699,-0.3752 -1.42567,-0.3752c-0.55046,0 -1.44091,0.35546 -1.44091,0.35546z" fill="#d3d9e3" stroke="none" stroke-width="0" stroke-linecap="butt"/><path d="M211.59935,113.80711l0.26699,-1.76623c0,0 0.78697,-0.47394 1.19841,-0.47394c0.48645,0 1.5331,0.47394 1.5331,0.47394l-0.01975,1.76623c0,0 -0.98834,-0.31596 -1.4936,-0.31596c-0.49398,0 -1.48515,0.31596 -1.48515,0.31596z" fill="#ffffff" stroke="none" stroke-width="0" stroke-linecap="butt"/><path d="M211.70506,115.92673c0,0 0.35211,-0.34958 0.61576,-0.53176c0.23767,-0.16422 0.63516,-0.2382 0.81885,-0.2382c0.20403,0 0.61159,0.05976 0.86005,0.23789c0.12097,0.08673 0.2015,0.18856 0.25124,0.26712c0.02301,0.03635 0.1414,0.11907 0.25655,0.14165c0.12073,0.02368 0.23792,-0.01363 0.23792,-0.01363" fill="none" stroke="#af550a" stroke-width="0.5" stroke-linecap="round"/><g stroke="none" stroke-width="0" stroke-linecap="butt"><path d="M225.90311,112.06958l-0.47921,-1.12957c0,0 0.40692,-1.07443 0.8505,-1.06867c0.4348,0.00565 1.78516,1.1029 1.78516,1.1029l0.56478,1.09534c0,0 -0.94364,-0.27647 -1.40048,-0.27647c-0.45014,0 -1.32075,0.27647 -1.32075,0.27647z" data-paper-data="{&quot;index&quot;:null}" fill="#803808"/><path d="M223.13053,112.05245l-0.23961,-1.07822c0,0 0.5437,-1.48108 1.05482,-1.48108c0.46593,0 1.88891,1.48108 1.88891,1.48108l0.18826,1.09534c0,0 -1.03867,-0.24347 -1.54397,-0.24646c-0.45312,-0.00268 -1.34841,0.22934 -1.34841,0.22934z" data-paper-data="{&quot;index&quot;:null}" fill="#af550a"/><path d="M220.3066,112.05245c0,0 -0.41654,-0.19483 -0.41803,-0.2885c-0.00303,-0.19074 0.40091,-0.78973 0.40091,-0.78973c0,0 0.66827,-0.98739 1.1088,-0.98739c0.46521,0 1.61243,0.98739 1.61243,0.98739l0.18827,1.09534c0,0 -0.98772,-0.22423 -1.50448,-0.22729c-0.43217,-0.00256 -1.38791,0.21018 -1.38791,0.21018z" data-paper-data="{&quot;index&quot;:null}" fill="#803808"/><path d="M217.39052,112.0472l-0.07899,-1.07296c0,0 0.9652,-1.26386 1.48006,-1.26386c0.48123,0 1.51501,1.26386 1.51501,1.26386v1.11246c0,0 -0.95111,-0.21722 -1.43602,-0.21722c-0.51197,0 -1.48006,0.17773 -1.48006,0.17773z" fill="#af550a"/><path d="M214.52184,112.08669l0.56478,-1.09534c0,0 0.70954,-0.98739 1.05878,-0.98739c0.41941,0 1.28594,0.98739 1.28594,0.98739l-0.01711,1.07822c0,0 -0.89912,-0.23165 -1.36735,-0.22888c-0.49448,0.00293 -1.52503,0.246 -1.52503,0.246z" fill="#803808"/><path d="M211.86906,112.06958l0.56478,-1.09534c0,0 1.32043,-1.3626 1.75653,-1.3626c0.46864,0 0.96471,1.3626 0.96471,1.3626l-0.56478,1.09534c0,0 -0.90354,-0.23697 -1.36756,-0.23697c-0.44198,0 -1.35367,0.23697 -1.35367,0.23697z" fill="#af550a"/></g><path d="M217.67124,115.78639c0,0 0.09539,-0.21267 0.35904,-0.39484c0.23767,-0.16422 0.63517,-0.2983 0.81886,-0.2983c0.20403,0 0.67169,0.09982 0.92015,0.27796c0.1079,0.07737 0.20367,0.16673 0.25406,0.2409c0.03091,0.04549 0.11004,0.18167 0.25631,0.20058c0.13601,0.01758 0.26081,-0.06052 0.26081,-0.06052" fill="none" stroke="#af550a" stroke-width="0.5" stroke-linecap="round"/><path d="M223.03098,110.96623l-0.15873,-1.74928c0,0 0.06966,-0.53319 0.42182,-0.53319c0.48034,0 2.19697,0.53319 2.19697,0.53319l0.29622,1.76903c0,0 -1.24237,-0.27647 -1.72302,-0.27647c-0.47759,0 -1.03326,0.25672 -1.03326,0.25672z" fill="#ffffff" stroke="none" stroke-width="0" stroke-linecap="butt"/><path d="M220.25958,110.96623l-0.00075,-1.72954c0,0 0.50752,-0.57269 0.94198,-0.57269c0.43844,0 1.67681,0.57269 1.67681,0.57269l0.18694,1.74928c0,0 -0.93431,-0.23697 -1.4688,-0.23697c-0.53214,0 -1.33618,0.21723 -1.33618,0.21723z" fill="#d3d9e3" stroke="none" stroke-width="0" stroke-linecap="butt"/><path d="M217.44545,110.96623l0.25597,-1.74928c0,0 0.85831,-0.55294 1.28764,-0.55294c0.44316,0 1.33114,0.55294 1.33114,0.55294v1.74928c0,0 -0.98213,-0.25672 -1.44963,-0.25672c-0.48972,0 -1.42513,0.25672 -1.42513,0.25672z" fill="#ffffef" stroke="none" stroke-width="0" stroke-linecap="butt"/><path d="M212.38663,110.98598l1.13264,-1.74928c0,0 0.85402,-0.6248 1.20427,-0.63271c0.48087,-0.01087 1.41539,0.57347 1.41539,0.57347l-1.02688,1.80853c0,0 -0.93603,-0.25672 -1.39562,-0.25672c-0.44862,0 -1.3298,0.25672 -1.3298,0.25672z" fill="#ffffff" stroke="none" stroke-width="0" stroke-linecap="butt"/><path d="M215.09139,111.00573l0.55218,-1.78878c0,0 0.98115,-0.64697 1.27209,-0.64417c0.37129,0.00358 0.77401,0.66391 0.77401,0.66391l-0.22249,1.74928c0,0 -0.81186,-0.23697 -1.2428,-0.23697c-0.45212,0 -1.13299,0.25672 -1.13299,0.25672z" fill="#d3d9e3" stroke="none" stroke-width="0" stroke-linecap="butt"/><path d="M225.79062,110.98318l-0.84257,-1.72953c0,0 0.0404,-0.69117 0.38003,-0.69117c0.308,0 1.57216,0.69117 1.57216,0.69117l1.2011,1.74928c0,0 -0.87367,-0.33571 -1.29217,-0.33571c-0.4812,0 -1.01854,0.31596 -1.01854,0.31596z" data-paper-data="{&quot;index&quot;:null}" fill="#d3d9e3" stroke="none" stroke-width="0" stroke-linecap="butt"/><g stroke="none" stroke-width="0" stroke-linecap="butt"><path d="M224.94475,109.20879l-0.61927,-1.10982c0,0 0.35732,-0.2653 0.64821,-0.25964c0.2958,0.00575 1.11211,0.29386 1.11211,0.29386l0.79285,1.09534c0,0 -0.81174,-0.23697 -1.17536,-0.23697c-0.35997,0 -0.75854,0.21723 -0.75854,0.21723z" data-paper-data="{&quot;index&quot;:null}" fill="#803808"/><path d="M222.83165,109.23117l-0.52686,-1.09797c0,0 0.51618,-0.45419 0.87079,-0.45419c0.36512,0 1.28931,0.45419 1.28931,0.45419l0.53593,1.09534c0,0 -1.01998,-0.20343 -1.411,-0.20633c-0.37766,-0.0028 -0.75818,0.20896 -0.75818,0.20896z" data-paper-data="{&quot;index&quot;:null}" fill="#af550a"/><path d="M220.24314,109.21142l-0.01366,-1.07823c0,0 0.72965,-0.45419 1.10956,-0.45419c0.33908,0 1.06132,0.45419 1.06132,0.45419l0.42665,1.13484c0,0 -1.03901,-0.28169 -1.4093,-0.28443c-0.39698,-0.00294 -1.17457,0.22782 -1.17457,0.22782z" data-paper-data="{&quot;index&quot;:null}" fill="#803808"/><path d="M217.73533,109.24566l0.11849,-1.11246c0,0 0.89449,-0.39495 1.31297,-0.39495c0.37262,0 1.07635,0.39495 1.07635,0.39495v1.11246c0,0 -0.80997,-0.17773 -1.21459,-0.17773c-0.39139,0 -1.29323,0.17773 -1.29323,0.17773z" fill="#af550a"/><path d="M215.62833,109.24566l0.45056,-1.09534c0,0 0.67399,-0.47395 0.95515,-0.47395c0.3334,0 0.91535,0.47395 0.91535,0.47395l-0.19138,1.09797c0,0 -0.57758,-0.25023 -0.98039,-0.24725c-0.36196,0.00269 -1.14929,0.24461 -1.14929,0.24461z" fill="#803808"/><path d="M213.51207,109.22853l0.90344,-1.09534c0,0 1.00754,-0.55294 1.29543,-0.55294c0.30367,0 0.42255,0.55294 0.42255,0.55294l-0.45056,1.09534c0,0 -0.67977,-0.19747 -1.05813,-0.19747c-0.34148,0 -1.11275,0.19747 -1.11275,0.19747z" fill="#af550a"/></g><path d="M222.42733,108.16962l-0.63643,-0.94982l2.40866,-0.01975l0.33966,0.98931c0,0 -0.65482,-0.23697 -1.10692,-0.23697c-0.47459,0 -1.00497,0.21722 -1.00497,0.21722z" fill="#ffffff" stroke="none" stroke-width="0" stroke-linecap="butt"/><path d="M220.27943,108.16962l-0.0835,-0.96956h1.65825l0.62035,0.96956c0,0 -0.86105,-0.17773 -1.27373,-0.17773c-0.39017,0 -0.92137,0.17773 -0.92137,0.17773z" fill="#d3d9e3" stroke="none" stroke-width="0" stroke-linecap="butt"/><path d="M217.95653,108.20911l0.3707,-1.00906l1.83598,0.01975l0.13824,0.94981c0,0 -0.8532,-0.17773 -1.23339,-0.17773c-0.33699,0 -1.11152,0.21723 -1.11152,0.21723z" fill="#ffffef" stroke="none" stroke-width="0" stroke-linecap="butt"/><path d="M214.32059,108.16962l1.58979,-0.96956l1.80766,-0.13823l-1.54032,1.1078c0,0 -0.45188,-0.23697 -0.80248,-0.23697c-0.3334,0 -1.05464,0.23697 -1.05464,0.23697z" fill="#ffffff" stroke="none" stroke-width="0" stroke-linecap="butt"/><path d="M216.20255,108.14986l1.06976,-1.00906l1.20405,0.05924l-0.50344,0.98931c0,0 -0.46273,-0.21723 -0.84014,-0.21723c-0.43492,0 -0.93024,0.17772 -0.93024,0.17772z" fill="#d3d9e3" stroke="none" stroke-width="0" stroke-linecap="butt"/><path d="M224.50904,108.17901l-1.48899,-1.00906l1.28342,0.03949l1.86389,0.96957c0,0 -0.81497,-0.11849 -1.11576,-0.11849c-0.24853,0 -0.54257,0.11849 -0.54257,0.11849z" data-paper-data="{&quot;index&quot;:null}" fill="#d3d9e3" stroke="none" stroke-width="0" stroke-linecap="butt"/><g stroke="none" stroke-width="0" stroke-linecap="butt"><path d="M222.90643,107.19844l-0.63202,-0.69712l0.54999,0.02112l1.4357,0.676z" data-paper-data="{&quot;index&quot;:null}" fill="#803808"/><path d="M221.54434,107.18788l-0.11919,-0.66544h0.91909l0.63891,0.676z" data-paper-data="{&quot;index&quot;:null}" fill="#af550a"/><path d="M220.12247,107.18788l-0.00851,-0.66544h1.35367l0.28191,0.676z" data-paper-data="{&quot;index&quot;:null}" fill="#803808"/><path d="M218.34163,107.20901l0.29095,-0.68656h1.48989v0.68656z" fill="#af550a"/><path d="M217.24486,107.20901l0.5719,-0.676h0.87542l-0.19677,0.66544z" fill="#803808"/><path d="M215.92524,107.19844l1.48483,-0.676h0.61189l-0.74305,0.676z" fill="#af550a"/></g><g stroke="none" stroke-width="0" stroke-linecap="butt"><path d="M220.93676,106.53269l0.08676,-0.34077h0.88757l0.277,0.34077z" fill="#ffffff"/><path d="M220.05101,106.53269l0.08676,-0.34077h0.88757l0.11021,0.34077z" fill="#d3d9e3"/><path d="M219.18425,106.53269l0.08676,-0.34077h0.88757v0.34077z" fill="#ffffef"/><path d="M217.46969,106.53269l0.71474,-0.34077h0.20897v0.34077z" fill="#ffffff"/><path d="M218.08495,106.53269l0.2945,-0.34077h0.88757l-0.0754,0.34077z" fill="#d3d9e3"/><path d="M222.04135,106.53599l-0.31429,-0.34078h0.23075l0.83797,0.34078z" data-paper-data="{&quot;index&quot;:null}" fill="#d3d9e3"/></g></g><g><path d="M244.44969,127.12359v-25.12126h29.68876v25.12126z" fill="none" stroke="none" stroke-width="NaN" stroke-linecap="butt"/><path d="M259.30176,119.97539l-0.03019,-4.77197" fill="none" stroke="#52a9b7" stroke-width="0.5" stroke-linecap="round"/><path d="M256.34435,115.29643v-2.09484c0,0 0.93433,-0.71092 1.44091,-0.71092c0.51996,0 1.63973,0.71092 1.63973,0.71092v2.09484c0,0 -0.21877,-0.029 -0.36707,-0.12715c-0.16226,-0.10739 -0.09367,-0.27793 -0.29746,-0.40712c-0.23156,-0.14678 -0.73705,-0.24616 -0.9374,-0.24616c-0.18264,0 -0.53521,0.10339 -0.77732,0.29153c-0.20787,0.16154 -0.30732,0.40175 -0.45623,0.50762c-0.13651,0.09705 -0.24516,-0.01873 -0.24516,-0.01873z" fill="#af550a" stroke="none" stroke-width="0" stroke-linecap="butt"/><path d="M262.09488,115.25536v-2.09483c0,0 0.91499,-0.55295 1.39747,-0.55295c0.48954,0 1.51887,0.55295 1.51887,0.55295v2.09483c0,0 -0.2071,-0.029 -0.3475,-0.12715c-0.1536,-0.10739 -0.08867,-0.27793 -0.2816,-0.40711c-0.21921,-0.14678 -0.69774,-0.24616 -0.8874,-0.24616c-0.1729,0 -0.50666,0.10338 -0.73586,0.29152c-0.19678,0.16154 -0.29093,0.40175 -0.4319,0.50762c-0.12923,0.09705 -0.23208,-0.01872 -0.23208,-0.01872z" fill="#af550a" stroke="none" stroke-width="0" stroke-linecap="butt"/><path d="M250.69811,115.3373l7.9052,4.5533" fill="none" stroke="#52a9b7" stroke-width="0.5" stroke-linecap="round"/><path d="M258.70712,119.89619l-5.17401,-4.63238" fill="none" stroke="#52a9b7" stroke-width="0.5" stroke-linecap="round"/><path d="M258.84933,119.65016l-2.35638,-4.26555" fill="none" stroke="#52a9b7" stroke-width="0.5" stroke-linecap="round"/><path d="M262.18709,115.30005l-2.5405,4.0909" fill="none" stroke="#52a9b7" stroke-width="0.5" stroke-linecap="round"/><path d="M264.88921,115.32421l-5.0746,4.56698" fill="none" stroke="#52a9b7" stroke-width="0.5" stroke-linecap="round"/><path d="M250.59381,115.37858v-2.09484c0,0 0.91635,-1.2836 1.40536,-1.2836c0.53392,0 1.67529,1.2836 1.67529,1.2836v2.09484c0,0 -0.21877,-0.029 -0.36707,-0.12715c-0.16225,-0.10739 -0.09367,-0.27793 -0.29746,-0.40712c-0.23155,-0.14678 -0.73705,-0.24616 -0.93739,-0.24616c-0.18265,0 -0.53521,0.10339 -0.77732,0.29153c-0.20787,0.16154 -0.30732,0.40175 -0.45623,0.50761c-0.13651,0.09705 -0.24516,-0.01872 -0.24516,-0.01872z" fill="#af550a" stroke="none" stroke-width="0" stroke-linecap="butt"/><path d="M256.37595,113.24425l0.04464,-1.72675c0,0 0.89325,-0.53319 1.34492,-0.53319c0.50316,0 1.53626,0.53319 1.53626,0.53319v1.76623c0,0 -1.02038,-0.29621 -1.53626,-0.29621c-0.53749,0 -1.38956,0.25673 -1.38956,0.25673z" fill="#ffffef" stroke="none" stroke-width="0" stroke-linecap="butt"/><path d="M259.81901,119.92519l7.84882,-4.63118" fill="none" stroke="#52a9b7" stroke-width="0.5" stroke-linecap="round"/><path d="M253.48962,115.31697v-2.09484c0,0 0.98342,-1.30335 1.47171,-1.30335c0.48378,0 1.44463,1.30335 1.44463,1.30335v2.09484c0,0 -0.2071,-0.029 -0.34749,-0.12716c-0.15361,-0.10739 -0.08868,-0.27793 -0.28159,-0.40712c-0.21921,-0.14678 -0.69775,-0.24616 -0.8874,-0.24616c-0.1729,0 -0.50667,0.10339 -0.73586,0.29153c-0.19679,0.16154 -0.29092,0.40176 -0.43189,0.50762c-0.12923,0.09705 -0.23209,-0.01872 -0.23209,-0.01872z" fill="#803808" stroke="none" stroke-width="0" stroke-linecap="butt"/><path d="M253.59241,115.23301c0,0 0.12863,0.01187 0.25576,-0.10191c0.06741,-0.06033 0.14884,-0.17847 0.2402,-0.24159c0.23767,-0.16421 0.63515,-0.27827 0.81885,-0.27827c0.20403,0 0.6116,0.09983 0.86006,0.27797c0.11813,0.08469 0.1977,0.18379 0.24767,0.26154c0.02336,0.03634 0.22582,0.14982 0.36134,0.1692c0.15294,0.02187 0.23937,-0.05271 0.23937,-0.05271" fill="none" stroke="#803808" stroke-width="0.5" stroke-linecap="round"/><path d="M259.30176,115.31618v-2.09484c0,0 0.62268,-0.80966 1.10994,-0.80966c0.48485,0 1.80641,0.80966 1.80641,0.80966v2.09484c0,0 -0.20711,-0.029 -0.34751,-0.12715c-0.1536,-0.10739 -0.08867,-0.27793 -0.28159,-0.40712c-0.2192,-0.14678 -0.69776,-0.24616 -0.88741,-0.24616c-0.1729,0 -0.50667,0.10339 -0.73586,0.29153c-0.19679,0.16154 -0.29093,0.40176 -0.4319,0.50762c-0.12923,0.09705 -0.23209,-0.01872 -0.23209,-0.01872z" fill="#803808" stroke="none" stroke-width="0" stroke-linecap="butt"/><path d="M264.92907,115.27589v-2.09484c0,0 1.15575,-0.78991 1.66367,-0.78991c0.45929,0 1.25267,0.78991 1.25267,0.78991v2.09484c0,0 -0.20711,-0.029 -0.3475,-0.12716c-0.1536,-0.10739 -0.08868,-0.27792 -0.28159,-0.40711c-0.2192,-0.14678 -0.69774,-0.24616 -0.8874,-0.24616c-0.1729,0 -0.50666,0.10339 -0.73586,0.29153c-0.19679,0.16154 -0.29093,0.40175 -0.43191,0.50762c-0.12923,0.09705 -0.23208,-0.01872 -0.23208,-0.01872z" fill="#803808" stroke="none" stroke-width="0" stroke-linecap="butt"/><path d="M259.56151,115.2022c0,0 0.0954,-0.21267 0.35904,-0.39484c0.23767,-0.16421 0.63516,-0.23821 0.81886,-0.23821c0.20403,0 0.61159,0.05976 0.86005,0.2379c0.1106,0.07931 0.18739,0.17121 0.23775,0.24642c0.02217,0.03311 0.11865,0.16569 0.20729,0.18984c0.13894,0.03784 0.28354,-0.04111 0.28354,-0.04111" fill="none" stroke="#803808" stroke-width="0.5" stroke-linecap="round"/><path d="M264.96278,113.30086l-0.09873,-1.76623c0,0 0.78893,-0.82941 1.25476,-0.82941c0.44359,0 1.47675,0.82941 1.47675,0.82941l0.26699,1.76623c0,0 -0.89243,-0.35546 -1.36853,-0.35546c-0.51959,0 -1.53123,0.35546 -1.53123,0.35546z" data-paper-data="{&quot;index&quot;:null}" fill="#d3d9e3" stroke="none" stroke-width="0" stroke-linecap="butt"/><path d="M262.06487,113.264l0.0249,-1.74649c0,0 0.82495,-0.55294 1.28409,-0.55294c0.49807,0 1.59708,0.55294 1.59708,0.55294v1.76623c0,0 -0.88243,-0.3752 -1.37986,-0.3752c-0.55129,0 -1.52622,0.35546 -1.52622,0.35546z" fill="#ffffff" stroke="none" stroke-width="0" stroke-linecap="butt"/><path d="M262.33409,115.2022c0,0 0.0954,-0.21267 0.35904,-0.39484c0.23767,-0.16421 0.61513,-0.27827 0.79882,-0.27827c0.20403,0 0.63163,0.09982 0.88009,0.27796c0.23564,0.16895 0.31785,0.39514 0.31785,0.39514" fill="none" stroke="#af550a" stroke-width="0.5" stroke-linecap="round"/><path d="M259.24884,113.28375l-0.01459,-1.76623c0,0 0.87783,-0.63192 1.33544,-0.63192c0.49916,0 1.54573,0.63193 1.54573,0.63193v1.76623c0,0 -0.96008,-0.31596 -1.46674,-0.31596c-0.54483,0 -1.39983,0.31596 -1.39983,0.31596z" fill="#d3d9e3" stroke="none" stroke-width="0" stroke-linecap="butt"/><path d="M264.73014,115.26039c0,0 0.14202,0.03146 0.28369,0.00142c0.12498,-0.02651 0.24969,-0.11227 0.27639,-0.14794c0.05682,-0.07591 0.14652,-0.17447 0.27817,-0.26544c0.23767,-0.16421 0.61513,-0.2983 0.79882,-0.2983c0.20403,0 0.63163,0.11986 0.88009,0.298c0.23564,0.16895 0.5061,0.44649 0.5061,0.44649" fill="none" stroke="#803808" stroke-width="0.5" stroke-linecap="round"/><path d="M253.55992,113.264l-0.01459,-1.74649c0,0 0.96197,-0.45419 1.416,-0.45419c0.50161,0 1.46516,0.45419 1.46516,0.45419v1.76623c0,0 -0.92698,-0.3752 -1.42566,-0.3752c-0.55046,0 -1.44091,0.35546 -1.44091,0.35546z" fill="#d3d9e3" stroke="none" stroke-width="0" stroke-linecap="butt"/><path d="M250.57328,113.264l0.26699,-1.76623c0,0 0.78697,-0.47395 1.19841,-0.47395c0.48645,0 1.5331,0.47395 1.5331,0.47395l-0.01975,1.76623c0,0 -0.98834,-0.31596 -1.4936,-0.31596c-0.49398,0 -1.48515,0.31596 -1.48515,0.31596z" fill="#ffffff" stroke="none" stroke-width="0" stroke-linecap="butt"/><path d="M250.67898,115.38362c0,0 0.35211,-0.34958 0.61576,-0.53175c0.23767,-0.16421 0.63516,-0.23821 0.81886,-0.23821c0.20403,0 0.61159,0.05976 0.86005,0.2379c0.12097,0.08673 0.2015,0.18856 0.25123,0.26712c0.02301,0.03636 0.1414,0.11907 0.25656,0.14166c0.12073,0.02368 0.23792,-0.01362 0.23792,-0.01362" fill="none" stroke="#af550a" stroke-width="0.5" stroke-linecap="round"/><g stroke="none" stroke-width="0" stroke-linecap="butt"><path d="M264.87703,111.52647l-0.47921,-1.12957c0,0 0.40692,-1.07443 0.8505,-1.06867c0.4348,0.00565 1.78516,1.10289 1.78516,1.10289l0.56479,1.09534c0,0 -0.94364,-0.27647 -1.40048,-0.27647c-0.45014,0 -1.32076,0.27647 -1.32076,0.27647z" data-paper-data="{&quot;index&quot;:null}" fill="#803808"/><path d="M262.10445,111.50934l-0.23961,-1.07822c0,0 0.54371,-1.48108 1.05483,-1.48108c0.46592,0 1.88891,1.48108 1.88891,1.48108l0.18826,1.09534c0,0 -1.03867,-0.24347 -1.54397,-0.24646c-0.45312,-0.00268 -1.34841,0.22934 -1.34841,0.22934z" data-paper-data="{&quot;index&quot;:null}" fill="#af550a"/><path d="M259.28053,111.50934c0,0 -0.41654,-0.19482 -0.41803,-0.2885c-0.00303,-0.19075 0.40091,-0.78972 0.40091,-0.78972c0,0 0.66827,-0.98739 1.1088,-0.98739c0.46521,0 1.61244,0.98739 1.61244,0.98739l0.18827,1.09533c0,0 -0.98772,-0.22423 -1.50448,-0.22729c-0.43217,-0.00256 -1.38791,0.21018 -1.38791,0.21018z" data-paper-data="{&quot;index&quot;:null}" fill="#803808"/><path d="M256.36444,111.50409l-0.079,-1.07296c0,0 0.9652,-1.26385 1.48006,-1.26385c0.48123,0 1.51502,1.26385 1.51502,1.26385v1.11246c0,0 -0.95111,-0.21722 -1.43602,-0.21722c-0.51197,0 -1.48006,0.17773 -1.48006,0.17773z" fill="#af550a"/><path d="M253.49576,111.54358l0.56478,-1.09534c0,0 0.70954,-0.98739 1.05878,-0.98739c0.41942,0 1.28594,0.98739 1.28594,0.98739l-0.01712,1.07823c0,0 -0.89912,-0.23166 -1.36735,-0.22889c-0.49448,0.00293 -1.52504,0.246 -1.52504,0.246z" fill="#803808"/><path d="M250.84298,111.52647l0.56478,-1.09535c0,0 1.32044,-1.36259 1.75653,-1.36259c0.46865,0 0.96472,1.36259 0.96472,1.36259l-0.56479,1.09535c0,0 -0.90354,-0.23698 -1.36756,-0.23698c-0.44198,0 -1.35367,0.23698 -1.35367,0.23698z" fill="#af550a"/></g><path d="M256.64516,115.24328c0,0 0.09539,-0.21267 0.35904,-0.39484c0.23768,-0.16421 0.63517,-0.2983 0.81886,-0.2983c0.20403,0 0.67169,0.09983 0.92015,0.27797c0.1079,0.07737 0.20367,0.16673 0.25406,0.24089c0.03091,0.04549 0.11003,0.18167 0.25631,0.20058c0.13601,0.01757 0.26081,-0.06051 0.26081,-0.06051" fill="none" stroke="#af550a" stroke-width="0.5" stroke-linecap="round"/><path d="M262.0049,110.42312l-0.15873,-1.74929c0,0 0.06966,-0.53319 0.42181,-0.53319c0.48034,0 2.19697,0.53319 2.19697,0.53319l0.29621,1.76903c0,0 -1.24238,-0.27647 -1.72303,-0.27647c-0.47759,0 -1.03325,0.25672 -1.03325,0.25672z" fill="#ffffff" stroke="none" stroke-width="0" stroke-linecap="butt"/><path d="M259.2335,110.42312l-0.00074,-1.72954c0,0 0.50752,-0.57269 0.94197,-0.57269c0.43845,0 1.67681,0.57269 1.67681,0.57269l0.18695,1.74928c0,0 -0.9343,-0.23698 -1.46879,-0.23698c-0.53214,0 -1.33618,0.21722 -1.33618,0.21722z" fill="#d3d9e3" stroke="none" stroke-width="0" stroke-linecap="butt"/><path d="M256.41937,110.42312l0.25597,-1.74929c0,0 0.85831,-0.55294 1.28764,-0.55294c0.44316,0 1.33114,0.55294 1.33114,0.55294v1.74929c0,0 -0.98213,-0.25672 -1.44963,-0.25672c-0.48972,0 -1.42513,0.25672 -1.42513,0.25672z" fill="#ffffef" stroke="none" stroke-width="0" stroke-linecap="butt"/><path d="M251.36055,110.44286l1.13264,-1.74928c0,0 0.85402,-0.6248 1.20427,-0.63271c0.48087,-0.01087 1.41539,0.57347 1.41539,0.57347l-1.02688,1.80853c0,0 -0.93604,-0.25672 -1.39562,-0.25672c-0.44862,0 -1.3298,0.25672 -1.3298,0.25672z" fill="#ffffff" stroke="none" stroke-width="0" stroke-linecap="butt"/><path d="M254.06532,110.46262l0.55218,-1.78878c0,0 0.98115,-0.64697 1.2721,-0.64417c0.37129,0.00358 0.774,0.66391 0.774,0.66391l-0.22249,1.74928c0,0 -0.81186,-0.23698 -1.24281,-0.23698c-0.45212,0 -1.13299,0.25672 -1.13299,0.25672z" fill="#d3d9e3" stroke="none" stroke-width="0" stroke-linecap="butt"/><path d="M264.76454,110.44007l-0.84257,-1.72953c0,0 0.0404,-0.69117 0.38003,-0.69117c0.308,0 1.57216,0.69117 1.57216,0.69117l1.20109,1.74929c0,0 -0.87367,-0.33571 -1.29217,-0.33571c-0.4812,0 -1.01854,0.31596 -1.01854,0.31596z" data-paper-data="{&quot;index&quot;:null}" fill="#d3d9e3" stroke="none" stroke-width="0" stroke-linecap="butt"/><g stroke="none" stroke-width="0" stroke-linecap="butt"><path d="M263.91867,108.66568l-0.61927,-1.10982c0,0 0.35731,-0.2653 0.6482,-0.25964c0.2958,0.00575 1.11211,0.29386 1.11211,0.29386l0.79286,1.09534c0,0 -0.81174,-0.23698 -1.17536,-0.23698c-0.35997,0 -0.75854,0.21723 -0.75854,0.21723z" data-paper-data="{&quot;index&quot;:null}" fill="#803808"/><path d="M261.80557,108.68806l-0.52686,-1.09797c0,0 0.51618,-0.45419 0.87079,-0.45419c0.36512,0 1.28931,0.45419 1.28931,0.45419l0.53593,1.09534c0,0 -1.01998,-0.20343 -1.41099,-0.20633c-0.37766,-0.0028 -0.75818,0.20896 -0.75818,0.20896z" data-paper-data="{&quot;index&quot;:null}" fill="#af550a"/><path d="M259.21706,108.66831l-0.01365,-1.07823c0,0 0.72966,-0.45419 1.10956,-0.45419c0.33908,0 1.06131,0.45419 1.06131,0.45419l0.42665,1.13484c0,0 -1.039,-0.28169 -1.4093,-0.28444c-0.39698,-0.00294 -1.17457,0.22783 -1.17457,0.22783z" data-paper-data="{&quot;index&quot;:null}" fill="#803808"/><path d="M256.70925,108.70254l0.11849,-1.11245c0,0 0.89449,-0.39495 1.31297,-0.39495c0.37261,0 1.07635,0.39495 1.07635,0.39495v1.11245c0,0 -0.80997,-0.17773 -1.21458,-0.17773c-0.39139,0 -1.29323,0.17773 -1.29323,0.17773z" fill="#af550a"/><path d="M254.60225,108.70254l0.45056,-1.09534c0,0 0.67398,-0.47395 0.95515,-0.47395c0.3334,0 0.91535,0.47395 0.91535,0.47395l-0.19139,1.09797c0,0 -0.57758,-0.25023 -0.98038,-0.24724c-0.36195,0.00269 -1.1493,0.24461 -1.1493,0.24461z" fill="#803808"/><path d="M252.48599,108.68542l0.90344,-1.09534c0,0 1.00753,-0.55294 1.29543,-0.55294c0.30367,0 0.42256,0.55294 0.42256,0.55294l-0.45056,1.09534c0,0 -0.67977,-0.19748 -1.05813,-0.19748c-0.34148,0 -1.11275,0.19748 -1.11275,0.19748z" fill="#af550a"/></g><path d="M261.40125,107.62651l-0.63643,-0.94982l2.40866,-0.01975l0.33966,0.98931c0,0 -0.65482,-0.23698 -1.10691,-0.23698c-0.47459,0 -1.00497,0.21722 -1.00497,0.21722z" fill="#ffffff" stroke="none" stroke-width="0" stroke-linecap="butt"/><path d="M259.25335,107.62651l-0.0835,-0.96956h1.65824l0.62036,0.96956c0,0 -0.86105,-0.17773 -1.27373,-0.17773c-0.39017,0 -0.92137,0.17773 -0.92137,0.17773z" fill="#d3d9e3" stroke="none" stroke-width="0" stroke-linecap="butt"/><path d="M256.93046,107.66599l0.3707,-1.00906l1.83598,0.01975l0.13824,0.94981c0,0 -0.8532,-0.17773 -1.23339,-0.17773c-0.337,0 -1.11152,0.21722 -1.11152,0.21722z" fill="#ffffef" stroke="none" stroke-width="0" stroke-linecap="butt"/><path d="M253.29451,107.62651l1.58979,-0.96956l1.80765,-0.13823l-1.54032,1.10779c0,0 -0.45188,-0.23697 -0.80248,-0.23697c-0.3334,0 -1.05464,0.23697 -1.05464,0.23697z" fill="#ffffff" stroke="none" stroke-width="0" stroke-linecap="butt"/><path d="M255.17647,107.60675l1.06976,-1.00906l1.20406,0.05924l-0.50344,0.98932c0,0 -0.46273,-0.21723 -0.84014,-0.21723c-0.43492,0 -0.93024,0.17772 -0.93024,0.17772z" fill="#d3d9e3" stroke="none" stroke-width="0" stroke-linecap="butt"/><path d="M263.48297,107.63589l-1.48899,-1.00906l1.28342,0.0395l1.86389,0.96957c0,0 -0.81497,-0.11849 -1.11577,-0.11849c-0.24852,0 -0.54256,0.11849 -0.54256,0.11849z" data-paper-data="{&quot;index&quot;:null}" fill="#d3d9e3" stroke="none" stroke-width="0" stroke-linecap="butt"/><g stroke="none" stroke-width="0" stroke-linecap="butt"><path d="M261.88035,106.65533l-0.63202,-0.69712l0.54999,0.02112l1.4357,0.676z" data-paper-data="{&quot;index&quot;:null}" fill="#803808"/><path d="M260.51826,106.64477l-0.11919,-0.66544h0.91909l0.63891,0.676z" data-paper-data="{&quot;index&quot;:null}" fill="#af550a"/><path d="M259.09639,106.64477l-0.00851,-0.66544h1.35367l0.28192,0.676z" data-paper-data="{&quot;index&quot;:null}" fill="#803808"/><path d="M257.31555,106.6659l0.29095,-0.68657h1.48989v0.68657z" fill="#af550a"/><path d="M256.21878,106.6659l0.5719,-0.676h0.87543l-0.19678,0.66544z" fill="#803808"/><path d="M254.89916,106.65533l1.48483,-0.676h0.61189l-0.74305,0.676z" fill="#af550a"/></g><g stroke="none" stroke-width="0" stroke-linecap="butt"><path d="M259.91069,105.98958l0.08676,-0.34077h0.88756l0.27701,0.34077z" fill="#ffffff"/><path d="M259.02494,105.98958l0.08675,-0.34077h0.88757l0.11021,0.34077z" fill="#d3d9e3"/><path d="M258.15817,105.98958l0.08675,-0.34077h0.88758v0.34077z" fill="#ffffef"/><path d="M256.44361,105.98958l0.71474,-0.34077h0.20896v0.34077z" fill="#ffffff"/><path d="M257.05888,105.98958l0.29451,-0.34077h0.88756l-0.0754,0.34077z" fill="#d3d9e3"/><path d="M261.01527,105.99288l-0.31429,-0.34078h0.23075l0.83797,0.34078z" data-paper-data="{&quot;index&quot;:null}" fill="#d3d9e3"/></g></g></g></g></svg>