<svg version="1.1" xmlns="http://www.w3.org/2000/svg" xmlns:xlink="http://www.w3.org/1999/xlink" width="32.18964" height="66.34767" viewBox="0,0,32.18964,66.34767"><g transform="translate(-225.54329,-148.32147)"><g data-paper-data="{&quot;isPaintingLayer&quot;:true}" fill-rule="nonzero" stroke-linejoin="miter" stroke-miterlimit="10" stroke-dasharray="" stroke-dashoffset="0" style="mix-blend-mode: normal"><path d="M225.54329,208.32315c0,-13.44895 0,-44.19668 0,-51.64628c0,-3.17904 1.18659,-6.346 3.08653,-6.346c6.68138,0 22.18448,0 25.92809,0c1.59053,0 3.17502,3.16696 3.17502,6.346c0,7.51567 0,38.74459 0,52.00002c0,3.69408 -1.53433,5.99225 -3.08653,5.99225c-3.69771,0 -19.17433,0 -25.92808,0c-1.95175,0 -3.17502,-2.44546 -3.17502,-6.34599z" fill="#272727" stroke="none" stroke-width="0" stroke-linecap="butt"/><path d="M239.6938,211.4099c0,0 0.00496,-0.93548 0.30394,-1.66087c0.18932,-0.45932 0.64304,-0.8344 0.82119,-0.8344c0.34577,0 0.99956,0 1.58984,0c0.26199,0 0.73161,0.40541 0.9361,0.88942c0.30283,0.71675 0.28686,1.60586 0.28686,1.60586z" fill="#2c3132" stroke="none" stroke-width="0" stroke-linecap="butt"/><path d="M240.56061,209.03629l-1.1302,-1.12833h4.46483l-1.1302,1.12833z" fill="#0e0b12" stroke="none" stroke-width="0" stroke-linecap="butt"/><path d="M245.148,208.85695l-0.77507,-0.61402c0,0 1.46976,-9.17277 2.19582,-9.17277c0.71451,0 2.12647,9.17277 2.12647,9.17277l-0.77507,0.61402z" data-paper-data="{&quot;index&quot;:null}" fill="#0e0b12" stroke="none" stroke-width="0" stroke-linecap="butt"/><path d="M235.40328,210.78281c0,0 0.00347,-0.65418 0.21254,-1.16144c0.13239,-0.3212 0.44968,-0.5835 0.57425,-0.5835c0.2418,0 0.69898,0 1.11177,0c0.18321,0 0.51161,0.28351 0.65461,0.62197c0.21176,0.50122 0.2006,1.12297 0.2006,1.12297z" fill="#2c3132" stroke="none" stroke-width="0" stroke-linecap="butt"/><path d="M235.93339,209.31966l-0.49194,-0.50655h2.74337l-0.49194,0.50655z" fill="#241b2d" stroke="none" stroke-width="0" stroke-linecap="butt"/><path d="M235.42706,208.85914l-0.77506,-0.61402c0,0 1.25737,-9.24795 1.95454,-9.24795c0.74093,0 2.36775,9.24795 2.36775,9.24795l-0.77506,0.61402z" fill="#0e0b12" stroke="none" stroke-width="0" stroke-linecap="butt"/><g data-paper-data="{&quot;index&quot;:null}" stroke="none" stroke-width="0" stroke-linecap="butt"><path d="M249.09052,210.2894c0,0 -0.01117,-0.62175 0.2006,-1.12297c0.143,-0.33846 0.4714,-0.62197 0.65461,-0.62197c0.41279,0 0.86998,0 1.11177,0c0.12457,0 0.44186,0.2623 0.57425,0.5835c0.20908,0.50726 0.21254,1.16144 0.21254,1.16144z" fill="#2c3132"/><path d="M249.49807,208.67932l-0.14804,-0.48245h2.27189l-0.14804,0.48245z" fill="#1f1827"/><path d="M248.92899,208.39863l-0.22807,-0.48245h3.49994l-0.22807,0.48245z" fill="#0e0b12"/></g><path d="M231.48888,210.2894c0,0 0.00347,-0.65418 0.21254,-1.16144c0.13239,-0.3212 0.44968,-0.5835 0.57425,-0.5835c0.2418,0 0.69898,0 1.11177,0c0.18321,0 0.51161,0.28351 0.65461,0.62197c0.21176,0.50122 0.2006,1.12297 0.2006,1.12297z" fill="#2c3132" stroke="none" stroke-width="0" stroke-linecap="butt"/><path d="M231.8593,208.67932l-0.14804,-0.48245h2.27189l-0.14804,0.48245z" fill="#1f1827" stroke="none" stroke-width="0" stroke-linecap="butt"/><path d="M231.36039,208.39863l-0.22807,-0.48245h3.49994l-0.22807,0.48245z" fill="#0e0b12" stroke="none" stroke-width="0" stroke-linecap="butt"/><path d="M246.31066,204.99095l-0.06579,-12.73003h2.66443c0,0 0.39115,0.96677 0.78815,2.28004c0.43951,1.45391 0.90103,3.32508 1.17183,4.61681c0.57461,2.7409 0.9347,5.87705 0.9347,5.87705z" fill="#b2bfc9" stroke="#422109" stroke-width="0" stroke-linecap="butt"/><path d="M231.12862,207.9295c0,0 0.75482,-6.05276 1.32943,-8.79366c0.2708,-1.29172 0.5218,2.46858 0.96131,1.01467c0.397,-1.31327 0.63026,0.45676 0.63026,0.45676l3.05916,-1.18419l-0.02632,8.50643z" fill="#19161c" stroke="#422109" stroke-width="0" stroke-linecap="butt"/><path d="M231.52335,205.03481c0,0 0.36009,-3.13615 0.9347,-5.87705c0.2708,-1.29172 0.73232,-3.1629 1.17183,-4.61681c0.397,-1.31327 0.78815,-2.28004 0.78815,-2.28004h2.66443l-0.06579,12.73003z" fill="#b2bfc9" stroke="#422109" stroke-width="0" stroke-linecap="butt"/><path d="M233.22549,196.04139l0.19736,-0.75657h1.08551l0.03289,0.75657z" fill="#fc8504" stroke="#000000" stroke-width="0" stroke-linecap="butt"/><g fill="#c0cddf" stroke="none" stroke-width="0" stroke-linecap="butt"><path d="M236.03136,188.94284l2.52627,-11.21032l0.63157,1.42103l-0.57894,9.7893z" data-paper-data="{&quot;index&quot;:null}"/><path d="M244.71542,188.94284l-0.57894,-9.7893l0.63157,-1.42103l2.52627,11.21032z"/></g><path d="M238.3208,194.48879v-13.37476h6.63146v13.37476z" fill="#9cacbf" stroke="none" stroke-width="0" stroke-linecap="butt"/><path d="M238.3208,183.96924v-9.68404h6.63146v9.68404z" fill="#f9850e" stroke="none" stroke-width="0" stroke-linecap="butt"/><path d="M236.22741,173.56565c0,0 0.0933,-1.25145 0.38549,-2.64555c0.27399,-1.30727 0.73557,-2.73362 1.0877,-3.55687c0.64897,-1.51724 2.68373,-3.51615 2.68373,-3.51615l0.12048,3.92159c0,0 -1.59386,2.07006 -2.31879,3.05252c-0.40925,0.55463 -1.21862,1.83517 -1.60177,2.36604c-0.27221,0.37715 -0.35685,0.37841 -0.35685,0.37841z" fill="#50414a" stroke="none" stroke-width="0" stroke-linecap="butt"/><path d="M246.7414,173.18724c-0.38315,-0.53087 -1.19252,-1.8114 -1.60177,-2.36604c-0.72493,-0.98247 -2.31879,-3.05252 -2.31879,-3.05252l0.12048,-3.92159c0,0 2.03476,1.99892 2.68373,3.51615c0.35213,0.82325 0.81371,2.2496 1.0877,3.55687c0.29219,1.3941 0.38549,2.64555 0.38549,2.64555c0,0 -0.08464,-0.00126 -0.35685,-0.37841z" data-paper-data="{&quot;index&quot;:null}" fill="#50414a" stroke="none" stroke-width="0" stroke-linecap="butt"/><path d="M238.00501,173.83785v-9.1051h7.31566v9.1051z" fill="#9aabbe" stroke="none" stroke-width="0" stroke-linecap="butt"/><path d="M238.00501,164.93387v-5.31569h7.31566v5.31569z" fill="#4b4249" stroke="none" stroke-width="0" stroke-linecap="butt"/><path d="M237.9787,159.75331c0,0 1.57834,-4.83909 2.59864,-5.39464c0.31385,-0.17089 0.7167,-0.27777 1.05261,-0.27777c0.46059,0 0.9103,0.13901 1.18419,0.27777c1.09655,0.55555 2.53285,5.39464 2.53285,5.39464z" fill="#28252b" stroke="none" stroke-width="NaN" stroke-linecap="butt"/><path d="M242.22204,161.66702v-0.65788h1.1184v0.65788z" fill="#28252b" stroke="none" stroke-width="0" stroke-linecap="butt"/><path d="M237.9787,164.70643v-1.2105h7.36829v1.2105z" fill="#cfa661" stroke="none" stroke-width="0" stroke-linecap="butt"/><g fill="#290900" stroke="none" stroke-width="0" stroke-linecap="butt"><path d="M238.45143,164.09942v-0.60149h0.45112v0.60149z"/><path d="M238.00282,164.70341v-0.60149h0.45112v0.60149z"/></g><g fill="#290900" stroke="none" stroke-width="0" stroke-linecap="butt"><path d="M239.34615,164.09942v-0.60149h0.45112v0.60149z"/><path d="M238.89754,164.70341v-0.60149h0.45112v0.60149z"/></g><g fill="#290900" stroke="none" stroke-width="0" stroke-linecap="butt"><path d="M240.24087,164.09942v-0.60149h0.45112v0.60149z"/><path d="M239.79226,164.70341v-0.60149h0.45112v0.60149z"/></g><g fill="#290900" stroke="none" stroke-width="0" stroke-linecap="butt"><path d="M241.13559,164.09942v-0.60149h0.45112v0.60149z"/><path d="M240.68698,164.70341v-0.60149h0.45112v0.60149z"/></g><g fill="#290900" stroke="none" stroke-width="0" stroke-linecap="butt"><path d="M242.03032,164.09942v-0.60149h0.45112v0.60149z"/><path d="M241.5817,164.70341v-0.60149h0.45112v0.60149z"/></g><g fill="#290900" stroke="none" stroke-width="0" stroke-linecap="butt"><path d="M242.92504,164.09942v-0.60149h0.45112v0.60149z"/><path d="M242.47642,164.70341v-0.60149h0.45112v0.60149z"/></g><g fill="#290900" stroke="none" stroke-width="0" stroke-linecap="butt"><path d="M243.81976,164.09942v-0.60149h0.45112v0.60149z"/><path d="M243.37114,164.70341v-0.60149h0.45112v0.60149z"/></g><g fill="#290900" stroke="none" stroke-width="0" stroke-linecap="butt"><path d="M244.76696,164.09942v-0.60149h0.5039v0.60149z"/><path d="M244.26586,164.70341v-0.60149h0.5039v0.60149z"/></g><path d="M238.34993,174.30777l-0.33834,-0.52631h7.3025l-0.33834,0.52631z" fill="#7c8189" stroke="none" stroke-width="0" stroke-linecap="butt"/><path d="M240.95233,177.17989v-0.52631h1.42103v0.52631z" fill="#e27302" stroke="none" stroke-width="0" stroke-linecap="butt"/><path d="M240.95233,178.17987v-0.52631h1.42103v0.52631z" fill="#f17a02" stroke="none" stroke-width="0" stroke-linecap="butt"/><path d="M240.24181,183.2061v-1.31577h2.84205v1.31577z" fill="#909eb6" stroke="none" stroke-width="0" stroke-linecap="butt"/><path d="M243.95227,183.2061v-1.31577h0.99998v1.31577z" fill="#909eb6" stroke="none" stroke-width="0" stroke-linecap="butt"/><path d="M238.3208,183.2061v-1.31577h0.99998v1.31577z" fill="#909eb6" stroke="none" stroke-width="0" stroke-linecap="butt"/><path d="M238.3208,184.39029v-0.47368h6.63146v0.47368z" fill="#eae0db" stroke="none" stroke-width="0" stroke-linecap="butt"/><path d="M234.38008,192.0941l1.63155,-3.15784h2.33329l0.66666,3.15784z" fill="#b4bccd" stroke="none" stroke-width="0" stroke-linecap="butt"/><path d="M244.31411,192.0941l0.63741,-3.15784h2.36253l1.63155,3.15784z" data-paper-data="{&quot;index&quot;:null}" fill="#b4bccd" stroke="none" stroke-width="0" stroke-linecap="butt"/><path d="M237.84712,196.23218v-3.47362h6.73672v3.47362z" fill="#7d8998" stroke="none" stroke-width="0" stroke-linecap="butt"/><path d="M237.32081,207.96881v-12.15768h8.27577v12.15768z" fill="#403e44" stroke="none" stroke-width="0" stroke-linecap="butt"/><path d="M234.39323,193.24539v-1.18419h4.60518v1.18419z" fill="#fc8504" stroke="none" stroke-width="0" stroke-linecap="butt"/><path d="M244.31889,193.24539v-1.18419h4.60518v1.18419z" fill="#fc8504" stroke="none" stroke-width="0" stroke-linecap="butt"/><path d="M231.49124,205.16247c0,0 0.34226,-2.41903 0.53489,-3.57481c0.06704,-0.40226 0.14172,-0.93505 0.23813,-1.45343c0.17299,-0.93008 0.36731,-1.81374 0.36731,-1.81374h3.93268v6.84198z" fill="#4e494f" stroke="none" stroke-width="0" stroke-linecap="butt"/><path d="M231.61085,204.41468l0.10526,-0.72294c0,0 0.7667,0 1.46345,0c0.20319,0 0.40267,0.28918 0.57899,0.28918c1.08297,0 3.87716,0.0241 3.87716,0.0241v0.40967z" data-paper-data="{&quot;index&quot;:null}" fill="#312c31" stroke="none" stroke-width="0" stroke-linecap="butt"/><path d="M240.56635,207.92163v-12.10504h2.19294v12.10504z" fill="#5c5962" stroke="none" stroke-width="0" stroke-linecap="butt"/><path d="M235.18269,197.06111c0,0 -0.78946,-0.64199 -0.78946,-1.08886c0,-0.71566 0,-2.79265 0,-2.79265h4.60518v2.72364z" fill="#8b8e9a" stroke="none" stroke-width="0" stroke-linecap="butt"/><path d="M234.5812,206.27617c0,0 0,-6.31883 0,-8.18577c0,-0.97082 -0.18797,-2.21348 -0.18797,-2.21348h4.60518v10.39925z" fill="#37353a" stroke="none" stroke-width="0" stroke-linecap="butt"/><path d="M234.39652,195.9472v-0.13158h4.60518v0.13158z" fill="#45454d" stroke="none" stroke-width="0" stroke-linecap="butt"/><path d="M244.31859,195.91948v-0.11001h4.60518v0.11001z" fill="#45454d" stroke="none" stroke-width="0" stroke-linecap="butt"/><path d="M231.13132,207.91754l0.02924,-0.35002c0,0 1.6518,-0.02059 2.28068,-0.02059c0.10239,0 0.21822,-0.24707 0.33621,-0.24707c0.4046,0 0.84981,0 0.84981,0l0.06113,0.61768z" data-paper-data="{&quot;index&quot;:null}" fill="#322d35" stroke="none" stroke-width="0" stroke-linecap="butt"/><path d="M246.24487,207.9295l-0.02632,-8.50643l3.05916,1.18419c0,0 0.23326,-1.77003 0.63026,-0.45676c0.43951,1.45391 0.6905,-2.30639 0.96131,-1.01467c0.57461,2.7409 1.32943,8.79366 1.32943,8.79366z" fill="#19161c" stroke="#422109" stroke-width="0" stroke-linecap="butt"/><path d="M248.78608,196.04139l0.03289,-0.75657h1.08551l0.19736,0.75657z" fill="#fc8504" stroke="#000000" stroke-width="0" stroke-linecap="butt"/><path d="M246.76309,205.16247v-6.84198h3.93268c0,0 0.19432,0.88366 0.36731,1.81374c0.09641,0.51838 0.17109,1.05117 0.23813,1.45343c0.19263,1.15577 0.53489,3.57481 0.53489,3.57481z" fill="#4e494f" stroke="none" stroke-width="0" stroke-linecap="butt"/><path d="M245.69163,204.41468v-0.40967c0,0 2.79419,-0.0241 3.87716,-0.0241c0.17632,0 0.3758,-0.28918 0.57899,-0.28918c0.69675,0 1.46345,0 1.46345,0l0.10526,0.72294z" data-paper-data="{&quot;index&quot;:null}" fill="#312c31" stroke="none" stroke-width="0" stroke-linecap="butt"/><path d="M244.32893,195.87692v-2.69732h4.60518c0,0 0,2.07699 0,2.79265c0,0.44687 -0.78946,1.08886 -0.78946,1.08886z" fill="#8b8e9a" stroke="none" stroke-width="0" stroke-linecap="butt"/><path d="M244.32893,207.09853v-11.2216h4.60518c0,0 -0.18797,1.34093 -0.18797,2.38852c0,2.01458 0,8.83309 0,8.83309z" fill="#37353a" stroke="none" stroke-width="0" stroke-linecap="butt"/><path d="M244.32564,195.9472v-0.13158h4.60518v0.13158z" fill="#45454d" stroke="none" stroke-width="0" stroke-linecap="butt"/><path d="M248.63894,207.91754l0.06113,-0.61768c0,0 0.44522,0 0.84981,0c0.11799,0 0.23382,0.24707 0.33621,0.24707c0.62887,0 2.28068,0.02059 2.28068,0.02059l0.02924,0.35002z" data-paper-data="{&quot;index&quot;:null}" fill="#333036" stroke="none" stroke-width="0" stroke-linecap="butt"/><path d="M234.55816,207.04621l0.02439,-1.5124c0,0 0.61365,0 1.12347,0c0.14868,0 0.29464,0.41549 0.42366,0.41549c0.79243,0 2.86023,0.03462 2.86023,0.03462v1.07106z" data-paper-data="{&quot;index&quot;:null}" fill="#19171d" stroke="none" stroke-width="0" stroke-linecap="butt"/><path d="M234.61701,208.27749v-1.43606h4.37837v1.43606z" fill="#19171d" stroke="none" stroke-width="0" stroke-linecap="butt"/><path d="M245.19016,210.78062c0,0 -0.01117,-0.62175 0.2006,-1.12297c0.143,-0.33846 0.4714,-0.62197 0.65461,-0.62197c0.41279,0 0.86998,0 1.11177,0c0.12458,0 0.44187,0.2623 0.57425,0.5835c0.20908,0.50726 0.21254,1.16144 0.21254,1.16144z" data-paper-data="{&quot;index&quot;:null}" fill="#2c3132" stroke="none" stroke-width="0" stroke-linecap="butt"/><path d="M245.65433,209.31747l-0.49194,-0.50655h2.74337l-0.49194,0.50655z" data-paper-data="{&quot;index&quot;:null}" fill="#241b2d" stroke="none" stroke-width="0" stroke-linecap="butt"/><path d="M244.35731,207.05279v-1.07106c0,0 2.06779,-0.03462 2.86023,-0.03462c0.12902,0 0.27498,-0.41549 0.42366,-0.41549c0.50983,0 1.12347,0 1.12347,0l0.02439,1.5124z" data-paper-data="{&quot;index&quot;:null}" fill="#19171d" stroke="none" stroke-width="0" stroke-linecap="butt"/><path d="M244.35184,208.2753v-1.43606h4.37837v1.43606z" data-paper-data="{&quot;index&quot;:null}" fill="#19171d" stroke="none" stroke-width="0" stroke-linecap="butt"/><path d="M230.22443,213.53727v-65.2158h23.33291v65.2158z" fill="none" stroke="none" stroke-width="NaN" stroke-linecap="butt"/><path d="M239.71988,195.46027c0,0 -0.0971,-4.40284 -0.10285,-6.72815c-0.01309,-5.29112 -0.05283,-13.99568 -0.17268,-14.25224c-0.15553,-0.33294 -0.3034,-0.69724 -0.3034,-0.87886c0,-1.5015 0,-11.17974 0,-13.72782c0,-0.39092 1.75436,-4.25431 1.75436,-4.25431" fill="none" stroke-opacity="0.16078" stroke="#ffffff" stroke-width="0.5" stroke-linecap="round"/><path d="M235.36908,207.85478c0,0 0.16893,-10.71984 0.11954,-11.0947c-0.05188,-0.39381 -0.19039,-0.9346 -0.18054,-1.31666c0.03403,-1.32101 0.06094,-3.1955 0.19181,-3.43913c0.42693,-0.79479 1.11205,-2.15851 1.27589,-3.00819c0.34754,-1.80234 1.26868,-6.57945 1.26868,-6.57945" fill="none" stroke-opacity="0.16078" stroke="#ffffff" stroke-width="0.5" stroke-linecap="round"/><path d="M231.87359,207.76706c0,0 0.59519,-5.21875 0.98197,-7.57035c0.33745,-2.05173 1.21097,-5.76275 1.21097,-5.76275" fill="none" stroke-opacity="0.16078" stroke="#ffffff" stroke-width="0.5" stroke-linecap="round"/><path d="M245.36889,182.28506c0,0 0.43192,4.88071 0.59366,6.70833c0.06256,0.70699 -0.35226,2.39535 -0.30486,3.5518c0.03728,0.90949 0.19365,15.26573 0.19365,15.26573" fill="none" stroke-opacity="0.16078" stroke="#ffffff" stroke-width="0.5" stroke-linecap="round"/><path d="M249.42584,207.88986c0,0 -0.15789,-7.08381 -0.15789,-9.57877c0,-1.57151 0.15789,-3.9473 0.15789,-3.9473" fill="none" stroke-opacity="0.16078" stroke="#ffffff" stroke-width="0.5" stroke-linecap="round"/></g></g></svg>