<svg version="1.1" xmlns="http://www.w3.org/2000/svg" xmlns:xlink="http://www.w3.org/1999/xlink" width="300.11559" height="323.00518" viewBox="0,0,300.11559,323.00518"><defs><radialGradient cx="115.60308" cy="128.88405" r="31.27509" gradientUnits="userSpaceOnUse" id="color-1"><stop offset="0" stop-color="#d2f7f4" stop-opacity="0"/><stop offset="1" stop-color="#d2f7f4"/></radialGradient><radialGradient cx="316.21686" cy="40.32317" r="37.86058" gradientUnits="userSpaceOnUse" id="color-2"><stop offset="0" stop-color="#d2f7f4" stop-opacity="0"/><stop offset="1" stop-color="#d2f7f4"/></radialGradient><radialGradient cx="139.26198" cy="333.13359" r="39.68989" gradientUnits="userSpaceOnUse" id="color-3"><stop offset="0" stop-color="#d2f7f4" stop-opacity="0"/><stop offset="1" stop-color="#d2f7f4"/></radialGradient><radialGradient cx="313.65555" cy="232.03395" r="70.78807" gradientUnits="userSpaceOnUse" id="color-4"><stop offset="0" stop-color="#d2f7f4" stop-opacity="0"/><stop offset="1" stop-color="#d2f7f4"/></radialGradient></defs><g transform="translate(-84.32799,-23.21356)"><g data-paper-data="{&quot;isPaintingLayer&quot;:true}" fill-rule="nonzero" stroke="#ffffff" stroke-width="0" stroke-linecap="butt" stroke-linejoin="miter" stroke-miterlimit="10" stroke-dasharray="" stroke-dashoffset="0" style="mix-blend-mode: normal"><path d="M84.32799,128.88405c0,-8.9654 14.00233,-16.23328 31.27508,-16.23328c17.27275,0 31.27508,7.26789 31.27508,16.23328c0,8.9654 -14.00233,16.23328 -31.27508,16.23328c-17.27275,0 -31.27508,-7.26789 -31.27508,-16.23328z" fill="url(#color-1)"/><path d="M278.35627,40.32317c0,-9.44938 16.95075,-17.10961 37.86058,-17.10961c20.90981,0 37.86058,7.66024 37.86058,17.10961c0,9.44938 -16.95075,17.10961 -37.86058,17.10961c-20.90981,0 -37.86058,-7.66024 -37.86058,-17.10961z" fill="url(#color-2)"/><path d="M99.57209,333.13359c0,-7.22673 17.76976,-13.08514 39.68988,-13.08514c21.92011,0 39.68988,5.85842 39.68988,13.08514c0,7.22673 -17.76977,13.08515 -39.68988,13.08515c-21.92012,0 -39.68988,-5.85842 -39.68988,-13.08515z" fill="url(#color-3)"/><path d="M242.86748,232.03395c0,-10.45967 31.69289,-18.93891 70.78805,-18.93891c39.09516,0 70.78805,8.47924 70.78805,18.93891c0,10.45967 -31.69289,18.93891 -70.78805,18.93891c-39.09516,0 -70.78805,-8.47924 -70.78805,-18.93891z" fill="url(#color-4)"/></g></g></svg>