<svg version="1.1" xmlns="http://www.w3.org/2000/svg" xmlns:xlink="http://www.w3.org/1999/xlink" width="286.9446" height="327.39551" viewBox="0,0,286.9446,327.39551"><defs><radialGradient cx="145.96954" cy="156.54486" r="48.47055" gradientUnits="userSpaceOnUse" id="color-1"><stop offset="0" stop-color="#d2f7f4" stop-opacity="0"/><stop offset="1" stop-color="#d2f7f4"/></radialGradient><radialGradient cx="297.55797" cy="35.93284" r="24.32373" gradientUnits="userSpaceOnUse" id="color-2"><stop offset="0" stop-color="#d2f7f4" stop-opacity="0"/><stop offset="1" stop-color="#d2f7f4"/></radialGradient><radialGradient cx="148.04263" cy="333.13359" r="48.47055" gradientUnits="userSpaceOnUse" id="color-3"><stop offset="0" stop-color="#d2f7f4" stop-opacity="0"/><stop offset="1" stop-color="#d2f7f4"/></radialGradient><radialGradient cx="348.41233" cy="237.88772" r="36.03128" gradientUnits="userSpaceOnUse" id="color-4"><stop offset="0" stop-color="#d2f7f4" stop-opacity="0"/><stop offset="1" stop-color="#d2f7f4"/></radialGradient></defs><g transform="translate(-97.49898,-18.82323)"><g data-paper-data="{&quot;isPaintingLayer&quot;:true}" fill-rule="nonzero" stroke="#ffffff" stroke-width="0" stroke-linecap="butt" stroke-linejoin="miter" stroke-miterlimit="10" stroke-dasharray="" stroke-dashoffset="0" style="mix-blend-mode: normal"><path d="M97.49899,156.54486c0,-13.89469 21.701,-25.15855 48.47054,-25.15855c26.76954,0 48.47054,11.26387 48.47054,25.15855c0,13.89469 -21.701,25.15855 -48.47054,25.15855c-26.76954,0 -48.47054,-11.26387 -48.47054,-25.15855z" fill="url(#color-1)"/><path d="M273.23422,35.93284c0,-9.44938 10.8901,-17.10961 24.32373,-17.10961c13.43362,0 24.32373,7.66024 24.32373,17.10961c0,9.44938 -10.8901,17.10961 -24.32373,17.10961c-13.43362,0 -24.32373,-7.66024 -24.32373,-17.10961z" fill="url(#color-2)"/><path d="M99.5721,333.13359c0,-7.22673 21.701,-13.08514 48.47054,-13.08514c26.76953,0 48.47054,5.85842 48.47054,13.08514c0,7.22673 -21.70101,13.08515 -48.47054,13.08515c-26.76954,0 -48.47054,-5.85842 -48.47054,-13.08515z" fill="url(#color-3)"/><path d="M312.38104,237.88772c0,-7.22672 16.13175,-13.08514 36.03127,-13.08514c19.89952,0 36.03127,5.85842 36.03127,13.08514c0,7.22672 -16.13175,13.08514 -36.03127,13.08514c-19.89952,0 -36.03127,-5.85842 -36.03127,-13.08514z" fill="url(#color-4)"/></g></g></svg>