<svg version="1.1" xmlns="http://www.w3.org/2000/svg" xmlns:xlink="http://www.w3.org/1999/xlink" width="85" height="85" viewBox="0,0,85,85"><g transform="translate(-197.5,-137.5)"><g data-paper-data="{&quot;isPaintingLayer&quot;:true}" fill-rule="nonzero" stroke="none" stroke-linecap="butt" stroke-linejoin="miter" stroke-miterlimit="10" stroke-dasharray="" stroke-dashoffset="0" style="mix-blend-mode: normal"><path d="M238.37547,180.41276c-0.36688,0 -0.64558,-0.10231 -0.83608,-0.30691c-0.1905,-0.20461 -0.28575,-0.49742 -0.28575,-0.87842v-1.85208c0,-0.381 0.09525,-0.6738 0.28575,-0.87841c0.1905,-0.2046 0.46919,-0.30691 0.83608,-0.30691c0.36689,0 0.64558,0.10231 0.83608,0.30691c0.1905,0.20461 0.28575,0.49741 0.28575,0.87841v1.85208c0,0.381 -0.09525,0.67381 -0.28575,0.87842c-0.1905,0.2046 -0.46919,0.30691 -0.83608,0.30691zM241.06362,176.29586h0.74084l-2.86808,7.40831h-0.74083zM238.37547,179.74601c0.254,0 0.381,-0.15522 0.381,-0.46566v-1.95791c0,-0.31044 -0.127,-0.46567 -0.381,-0.46567c-0.254,0 -0.381,0.15523 -0.381,0.46567v1.95791c0,0.31044 0.127,0.46566 0.381,0.46566zM241.62454,183.81c-0.36688,0 -0.64558,-0.10231 -0.83608,-0.30691c-0.1905,-0.20461 -0.28575,-0.49742 -0.28575,-0.87842v-1.85208c0,-0.381 0.09525,-0.6738 0.28575,-0.87841c0.1905,-0.20461 0.4692,-0.30692 0.83608,-0.30692c0.36689,0 0.64559,0.10231 0.83608,0.30692c0.1905,0.20461 0.28574,0.49741 0.28574,0.87841v1.85208c0,0.381 -0.09525,0.67381 -0.28574,0.87842c-0.1905,0.2046 -0.46919,0.30691 -0.83608,0.30691zM241.62454,183.14325c0.254,0 0.381,-0.15522 0.381,-0.46566v-1.95791c0,-0.31044 -0.127,-0.46567 -0.381,-0.46567c-0.254,0 -0.381,0.15523 -0.381,0.46567v1.95791c0,0.31044 0.127,0.46566 0.381,0.46566z" fill="#000000" stroke-width="0.26459"/><path d="M197.5,222.5v-85h85v85z" fill="none" stroke-width="0"/></g></g></svg>