<svg version="1.1" xmlns="http://www.w3.org/2000/svg" xmlns:xlink="http://www.w3.org/1999/xlink" width="543" height="646" viewBox="0,0,543,646"><g transform="translate(32.5,37)"><g data-paper-data="{&quot;isPaintingLayer&quot;:true}" fill-rule="nonzero" stroke-linejoin="miter" stroke-miterlimit="10" stroke-dasharray="" stroke-dashoffset="0" style="mix-blend-mode: normal"><path d="M195.15834,49.84167l2.8,3.4" fill="none" stroke="#f9f9f9" stroke-width="3.5" stroke-linecap="round"/><path d="M185.60834,170.04167c0,-0.9665 0.7835,-1.75 1.75,-1.75c0.9665,0 1.75,0.7835 1.75,1.75c0,0.9665 -0.7835,1.75 -1.75,1.75c-0.9665,0 -1.75,-0.7835 -1.75,-1.75z" fill="#e8e8e8" stroke="none" stroke-width="0.5" stroke-linecap="butt"/><path d="M195.30834,120.04167c0,-0.69036 0.55964,-1.25 1.25,-1.25c0.69036,0 1.25,0.55964 1.25,1.25c0,0.69036 -0.55964,1.25 -1.25,1.25c-0.69036,0 -1.25,-0.55964 -1.25,-1.25z" fill="#e8e8e8" stroke="none" stroke-width="0.5" stroke-linecap="butt"/><path d="M329.10834,165.24167c0,-0.69036 0.55964,-1.25 1.25,-1.25c0.69036,0 1.25,0.55964 1.25,1.25c0,0.69036 -0.55964,1.25 -1.25,1.25c-0.69036,0 -1.25,-0.55964 -1.25,-1.25z" fill="#e8e8e8" stroke="none" stroke-width="0.5" stroke-linecap="butt"/><path d="M131.45834,116.84167c0,-0.82843 0.67157,-1.5 1.5,-1.5c0.82843,0 1.5,0.67157 1.5,1.5c0,0.82843 -0.67157,1.5 -1.5,1.5c-0.82843,0 -1.5,-0.67157 -1.5,-1.5z" fill="#e8e8e8" stroke="none" stroke-width="0.5" stroke-linecap="butt"/><path d="M243.80834,347.64167c0,-0.9665 0.7835,-1.75 1.75,-1.75c0.9665,0 1.75,0.7835 1.75,1.75c0,0.9665 -0.7835,1.75 -1.75,1.75c-0.9665,0 -1.75,-0.7835 -1.75,-1.75z" fill="#e8e8e8" stroke="none" stroke-width="0.5" stroke-linecap="butt"/><path d="M250.10834,319.84167c0,-0.69036 0.55964,-1.25 1.25,-1.25c0.69036,0 1.25,0.55964 1.25,1.25c0,0.69036 -0.55964,1.25 -1.25,1.25c-0.69036,0 -1.25,-0.55964 -1.25,-1.25z" fill="#e8e8e8" stroke="none" stroke-width="0.5" stroke-linecap="butt"/><path d="M307.05834,296.84167c0,-0.82843 0.67157,-1.5 1.5,-1.5c0.82843,0 1.5,0.67157 1.5,1.5c0,0.82843 -0.67157,1.5 -1.5,1.5c-0.82843,0 -1.5,-0.67157 -1.5,-1.5z" fill="#e8e8e8" stroke="none" stroke-width="0.5" stroke-linecap="butt"/><path d="M311.95834,290.84167c0,-0.55228 0.44772,-1 1,-1c0.55228,0 1,0.44772 1,1c0,0.55228 -0.44772,1 -1,1c-0.55228,0 -1,-0.44772 -1,-1z" fill="#e8e8e8" stroke="none" stroke-width="0.5" stroke-linecap="butt"/><path d="M266.95834,169.44167c0,-0.55228 0.44772,-1 1,-1c0.55228,0 1,0.44772 1,1c0,0.55228 -0.44772,1 -1,1c-0.55228,0 -1,-0.44772 -1,-1z" fill="#e8e8e8" stroke="none" stroke-width="0.5" stroke-linecap="butt"/><path d="M219.15834,86.04167c0,-0.55228 0.44772,-1 1,-1c0.55228,0 1,0.44772 1,1c0,0.55228 -0.44772,1 -1,1c-0.55228,0 -1,-0.44772 -1,-1z" fill="#e8e8e8" stroke="none" stroke-width="0.5" stroke-linecap="butt"/><path d="M183.00834,78.84167c0,-0.41421 0.33579,-0.75 0.75,-0.75c0.41421,0 0.75,0.33579 0.75,0.75c0,0.41421 -0.33579,0.75 -0.75,0.75c-0.41421,0 -0.75,-0.33579 -0.75,-0.75z" fill="#e8e8e8" stroke="none" stroke-width="0.5" stroke-linecap="butt"/><path d="M265.70834,73.84167c0,-0.69036 0.55964,-1.25 1.25,-1.25c0.69036,0 1.25,0.55964 1.25,1.25c0,0.69036 -0.55964,1.25 -1.25,1.25c-0.69036,0 -1.25,-0.55964 -1.25,-1.25z" fill="#e8e8e8" stroke="none" stroke-width="0.5" stroke-linecap="butt"/><path d="M270.50834,67.44167c0,-0.69036 0.55964,-1.25 1.25,-1.25c0.69036,0 1.25,0.55964 1.25,1.25c0,0.69036 -0.55964,1.25 -1.25,1.25c-0.69036,0 -1.25,-0.55964 -1.25,-1.25z" fill="#e8e8e8" stroke="none" stroke-width="0.5" stroke-linecap="butt"/><path d="M251.60834,76.24167c0,-0.41421 0.33579,-0.75 0.75,-0.75c0.41421,0 0.75,0.33579 0.75,0.75c0,0.41421 -0.33579,0.75 -0.75,0.75c-0.41421,0 -0.75,-0.33579 -0.75,-0.75z" fill="#e8e8e8" stroke="none" stroke-width="0.5" stroke-linecap="butt"/><path d="M252.00834,90.84167c0,-0.41421 0.33579,-0.75 0.75,-0.75c0.41421,0 0.75,0.33579 0.75,0.75c0,0.41421 -0.33579,0.75 -0.75,0.75c-0.41421,0 -0.75,-0.33579 -0.75,-0.75z" fill="#e8e8e8" stroke="none" stroke-width="0.5" stroke-linecap="butt"/><path d="M320.60834,105.44167c0,-0.41421 0.33579,-0.75 0.75,-0.75c0.41421,0 0.75,0.33579 0.75,0.75c0,0.41421 -0.33579,0.75 -0.75,0.75c-0.41421,0 -0.75,-0.33579 -0.75,-0.75z" fill="#e8e8e8" stroke="none" stroke-width="0.5" stroke-linecap="butt"/><path d="M336.20834,147.04167c0,-0.41421 0.33579,-0.75 0.75,-0.75c0.41421,0 0.75,0.33579 0.75,0.75c0,0.41421 -0.33579,0.75 -0.75,0.75c-0.41421,0 -0.75,-0.33579 -0.75,-0.75z" fill="#e8e8e8" stroke="none" stroke-width="0.5" stroke-linecap="butt"/><path d="M330.70834,146.24167c0,-0.69036 0.55964,-1.25 1.25,-1.25c0.69036,0 1.25,0.55964 1.25,1.25c0,0.69036 -0.55964,1.25 -1.25,1.25c-0.69036,0 -1.25,-0.55964 -1.25,-1.25z" fill="#e8e8e8" stroke="none" stroke-width="0.5" stroke-linecap="butt"/><path d="M357.30834,95.84167c0,-0.69036 0.55964,-1.25 1.25,-1.25c0.69036,0 1.25,0.55964 1.25,1.25c0,0.69036 -0.55964,1.25 -1.25,1.25c-0.69036,0 -1.25,-0.55964 -1.25,-1.25z" fill="#e8e8e8" stroke="none" stroke-width="0.5" stroke-linecap="butt"/><path d="M322.70834,75.24167c0,-0.69036 0.55964,-1.25 1.25,-1.25c0.69036,0 1.25,0.55964 1.25,1.25c0,0.69036 -0.55964,1.25 -1.25,1.25c-0.69036,0 -1.25,-0.55964 -1.25,-1.25z" fill="#e8e8e8" stroke="none" stroke-width="0.5" stroke-linecap="butt"/><path d="M211.50834,42.04167c0,-0.69036 0.55964,-1.25 1.25,-1.25c0.69036,0 1.25,0.55964 1.25,1.25c0,0.69036 -0.55964,1.25 -1.25,1.25c-0.69036,0 -1.25,-0.55964 -1.25,-1.25z" fill="#e8e8e8" stroke="none" stroke-width="0.5" stroke-linecap="butt"/><path d="M289.10834,28.24167c0,-0.69036 0.55964,-1.25 1.25,-1.25c0.69036,0 1.25,0.55964 1.25,1.25c0,0.69036 -0.55964,1.25 -1.25,1.25c-0.69036,0 -1.25,-0.55964 -1.25,-1.25z" fill="#e8e8e8" stroke="none" stroke-width="0.5" stroke-linecap="butt"/><path d="M237.00834,43.84167c0,-0.41421 0.33579,-0.75 0.75,-0.75c0.41421,0 0.75,0.33579 0.75,0.75c0,0.41421 -0.33579,0.75 -0.75,0.75c-0.41421,0 -0.75,-0.33579 -0.75,-0.75z" fill="#e8e8e8" stroke="none" stroke-width="0.5" stroke-linecap="butt"/><path d="M98.00834,173.50807c0,-0.41421 0.33579,-0.75 0.75,-0.75c0.41421,0 0.75,0.33579 0.75,0.75c0,0.41421 -0.33579,0.75 -0.75,0.75c-0.41421,0 -0.75,-0.33579 -0.75,-0.75z" fill="#e8e8e8" stroke="none" stroke-width="0.5" stroke-linecap="butt"/><path d="M98.90834,196.50807c0,-0.69036 0.55964,-1.25 1.25,-1.25c0.69036,0 1.25,0.55964 1.25,1.25c0,0.69036 -0.55964,1.25 -1.25,1.25c-0.69036,0 -1.25,-0.55964 -1.25,-1.25z" fill="#e8e8e8" stroke="none" stroke-width="0.5" stroke-linecap="butt"/><path d="M112.90834,170.30807c0,-0.69036 0.55964,-1.25 1.25,-1.25c0.69036,0 1.25,0.55964 1.25,1.25c0,0.69036 -0.55964,1.25 -1.25,1.25c-0.69036,0 -1.25,-0.55964 -1.25,-1.25z" fill="#e8e8e8" stroke="none" stroke-width="0.5" stroke-linecap="butt"/><path d="M145.80834,310.30807c0,-0.41421 0.33579,-0.75 0.75,-0.75c0.41421,0 0.75,0.33579 0.75,0.75c0,0.41421 -0.33579,0.75 -0.75,0.75c-0.41421,0 -0.75,-0.33579 -0.75,-0.75z" fill="#e8e8e8" stroke="none" stroke-width="0.5" stroke-linecap="butt"/><path d="M134.20834,331.10807c0,-0.41421 0.33579,-0.75 0.75,-0.75c0.41421,0 0.75,0.33579 0.75,0.75c0,0.41421 -0.33579,0.75 -0.75,0.75c-0.41421,0 -0.75,-0.33579 -0.75,-0.75z" fill="#e8e8e8" stroke="none" stroke-width="0.5" stroke-linecap="butt"/><path d="M178.20834,309.70807c0,-0.41421 0.33579,-0.75 0.75,-0.75c0.41421,0 0.75,0.33579 0.75,0.75c0,0.41421 -0.33579,0.75 -0.75,0.75c-0.41421,0 -0.75,-0.33579 -0.75,-0.75z" fill="#222222" stroke="none" stroke-width="0.5" stroke-linecap="butt"/><path d="M169.00834,308.10807c0,-0.41421 0.33579,-0.75 0.75,-0.75c0.41421,0 0.75,0.33579 0.75,0.75c0,0.41421 -0.33579,0.75 -0.75,0.75c-0.41421,0 -0.75,-0.33579 -0.75,-0.75z" fill="#222222" stroke="none" stroke-width="0.5" stroke-linecap="butt"/><path d="M158.20834,310.30807c0,-0.41421 0.33579,-0.75 0.75,-0.75c0.41421,0 0.75,0.33579 0.75,0.75c0,0.41421 -0.33579,0.75 -0.75,0.75c-0.41421,0 -0.75,-0.33579 -0.75,-0.75z" fill="#222222" stroke="none" stroke-width="0.5" stroke-linecap="butt"/><path d="M155.60834,308.70807c0,-0.41421 0.33579,-0.75 0.75,-0.75c0.41421,0 0.75,0.33579 0.75,0.75c0,0.41421 -0.33579,0.75 -0.75,0.75c-0.41421,0 -0.75,-0.33579 -0.75,-0.75z" fill="#222222" stroke="none" stroke-width="0.5" stroke-linecap="butt"/><path d="M149.90834,301.90807c0,-0.69036 0.55964,-1.25 1.25,-1.25c0.69036,0 1.25,0.55964 1.25,1.25c0,0.69036 -0.55964,1.25 -1.25,1.25c-0.69036,0 -1.25,-0.55964 -1.25,-1.25z" fill="#222222" stroke="none" stroke-width="0.5" stroke-linecap="butt"/><path d="M148.50834,282.90807c0,-0.69036 0.55964,-1.25 1.25,-1.25c0.69036,0 1.25,0.55964 1.25,1.25c0,0.69036 -0.55964,1.25 -1.25,1.25c-0.69036,0 -1.25,-0.55964 -1.25,-1.25z" fill="#222222" stroke="none" stroke-width="0.5" stroke-linecap="butt"/><path d="M128.40834,336.70807c0,-0.41421 0.33579,-0.75 0.75,-0.75c0.41421,0 0.75,0.33579 0.75,0.75c0,0.41421 -0.33579,0.75 -0.75,0.75c-0.41421,0 -0.75,-0.33579 -0.75,-0.75z" fill="#222222" stroke="none" stroke-width="0.5" stroke-linecap="butt"/><path d="M129.80834,343.50807c0,-0.41421 0.33579,-0.75 0.75,-0.75c0.41421,0 0.75,0.33579 0.75,0.75c0,0.41421 -0.33579,0.75 -0.75,0.75c-0.41421,0 -0.75,-0.33579 -0.75,-0.75z" fill="#222222" stroke="none" stroke-width="0.5" stroke-linecap="butt"/><path d="M164.60834,241.70807c0,-0.41421 0.33579,-0.75 0.75,-0.75c0.41421,0 0.75,0.33579 0.75,0.75c0,0.41421 -0.33579,0.75 -0.75,0.75c-0.41421,0 -0.75,-0.33579 -0.75,-0.75z" fill="#222222" stroke="none" stroke-width="0.5" stroke-linecap="butt"/><path d="M168.20834,249.70807c0,-0.41421 0.33579,-0.75 0.75,-0.75c0.41421,0 0.75,0.33579 0.75,0.75c0,0.41421 -0.33579,0.75 -0.75,0.75c-0.41421,0 -0.75,-0.33579 -0.75,-0.75z" fill="#222222" stroke="none" stroke-width="0.5" stroke-linecap="butt"/><path d="M275.55834,292.62527c0.41421,0 0.75,0.33579 0.75,0.75c0,0.41421 -0.33579,0.75 -0.75,0.75c-0.31294,0 -0.58112,-0.19167 -0.69355,-0.46402c-0.13344,0.12223 -0.31123,0.19682 -0.50645,0.19682c-0.41421,0 -0.75,-0.33579 -0.75,-0.75c0,-0.41421 0.33579,-0.75 0.75,-0.75c0.31294,0 0.58112,0.19167 0.69355,0.46402c0.13344,-0.12223 0.31123,-0.19682 0.50645,-0.19682z" fill="#222222" stroke="none" stroke-width="0.5" stroke-linecap="butt"/><path d="M271.60834,272.50807c0,-0.41421 0.33579,-0.75 0.75,-0.75c0.41421,0 0.75,0.33579 0.75,0.75c0,0.41421 -0.33579,0.75 -0.75,0.75c-0.41421,0 -0.75,-0.33579 -0.75,-0.75z" fill="#222222" stroke="none" stroke-width="0.5" stroke-linecap="butt"/><path d="M276.40834,278.10807c0,-0.41421 0.33579,-0.75 0.75,-0.75c0.41421,0 0.75,0.33579 0.75,0.75c0,0.41421 -0.33579,0.75 -0.75,0.75c-0.41421,0 -0.75,-0.33579 -0.75,-0.75z" fill="#222222" stroke="none" stroke-width="0.5" stroke-linecap="butt"/><path d="M271.40834,256.50807c0,-0.41421 0.33579,-0.75 0.75,-0.75c0.41421,0 0.75,0.33579 0.75,0.75c0,0.41421 -0.33579,0.75 -0.75,0.75c-0.41421,0 -0.75,-0.33579 -0.75,-0.75z" fill="#222222" stroke="none" stroke-width="0.5" stroke-linecap="butt"/><path d="M269.20834,254.10807c0,-0.41421 0.33579,-0.75 0.75,-0.75c0.41421,0 0.75,0.33579 0.75,0.75c0,0.41421 -0.33579,0.75 -0.75,0.75c-0.41421,0 -0.75,-0.33579 -0.75,-0.75z" fill="#222222" stroke="none" stroke-width="0.5" stroke-linecap="butt"/><path d="M271.20834,245.30807c0,-0.41421 0.33579,-0.75 0.75,-0.75c0.41421,0 0.75,0.33579 0.75,0.75c0,0.41421 -0.33579,0.75 -0.75,0.75c-0.41421,0 -0.75,-0.33579 -0.75,-0.75z" fill="#222222" stroke="none" stroke-width="0.5" stroke-linecap="butt"/><path d="M276.00834,240.90807c0,-0.41421 0.33579,-0.75 0.75,-0.75c0.41421,0 0.75,0.33579 0.75,0.75c0,0.41421 -0.33579,0.75 -0.75,0.75c-0.41421,0 -0.75,-0.33579 -0.75,-0.75z" fill="#222222" stroke="none" stroke-width="0.5" stroke-linecap="butt"/><path d="M285.80834,243.70807c0,-0.41421 0.33579,-0.75 0.75,-0.75c0.41421,0 0.75,0.33579 0.75,0.75c0,0.41421 -0.33579,0.75 -0.75,0.75c-0.41421,0 -0.75,-0.33579 -0.75,-0.75z" fill="#222222" stroke="none" stroke-width="0.5" stroke-linecap="butt"/><path d="M260.80834,218.70807c0,-0.41421 0.33579,-0.75 0.75,-0.75c0.41421,0 0.75,0.33579 0.75,0.75c0,0.41421 -0.33579,0.75 -0.75,0.75c-0.41421,0 -0.75,-0.33579 -0.75,-0.75z" fill="#222222" stroke="none" stroke-width="0.5" stroke-linecap="butt"/><path d="M263.15834,218.50807c0,-0.55228 0.44772,-1 1,-1c0.55228,0 1,0.44772 1,1c0,0.55228 -0.44772,1 -1,1c-0.55228,0 -1,-0.44772 -1,-1z" fill="#222222" stroke="none" stroke-width="0.5" stroke-linecap="butt"/><path d="M265.95834,206.50807c0,-0.55228 0.44772,-1 1,-1c0.55228,0 1,0.44772 1,1c0,0.55228 -0.44772,1 -1,1c-0.55228,0 -1,-0.44772 -1,-1z" fill="#222222" stroke="none" stroke-width="0.5" stroke-linecap="butt"/><path d="M109.20834,229.70807c0,-0.41421 0.33579,-0.75 0.75,-0.75c0.41421,0 0.75,0.33579 0.75,0.75c0,0.41421 -0.33579,0.75 -0.75,0.75c-0.41421,0 -0.75,-0.33579 -0.75,-0.75z" fill="#222222" stroke="none" stroke-width="0.5" stroke-linecap="butt"/><path d="M109.20834,237.30807c0,-0.41421 0.33579,-0.75 0.75,-0.75c0.41421,0 0.75,0.33579 0.75,0.75c0,0.41421 -0.33579,0.75 -0.75,0.75c-0.41421,0 -0.75,-0.33579 -0.75,-0.75z" fill="#222222" stroke="none" stroke-width="0.5" stroke-linecap="butt"/><path d="M105.60834,239.90807c0,-0.41421 0.33579,-0.75 0.75,-0.75c0.41421,0 0.75,0.33579 0.75,0.75c0,0.41421 -0.33579,0.75 -0.75,0.75c-0.41421,0 -0.75,-0.33579 -0.75,-0.75z" fill="#222222" stroke="none" stroke-width="0.5" stroke-linecap="butt"/><path d="M98.60834,239.50807c0,-0.41421 0.33579,-0.75 0.75,-0.75c0.41421,0 0.75,0.33579 0.75,0.75c0,0.41421 -0.33579,0.75 -0.75,0.75c-0.41421,0 -0.75,-0.33579 -0.75,-0.75z" fill="#222222" stroke="none" stroke-width="0.5" stroke-linecap="butt"/><path d="M110.00834,249.90807c0,-0.41421 0.33579,-0.75 0.75,-0.75c0.41421,0 0.75,0.33579 0.75,0.75c0,0.41421 -0.33579,0.75 -0.75,0.75c-0.41421,0 -0.75,-0.33579 -0.75,-0.75z" fill="#222222" stroke="none" stroke-width="0.5" stroke-linecap="butt"/><path d="M110.20834,261.10807c0,-0.41421 0.33579,-0.75 0.75,-0.75c0.41421,0 0.75,0.33579 0.75,0.75c0,0.41421 -0.33579,0.75 -0.75,0.75c-0.41421,0 -0.75,-0.33579 -0.75,-0.75z" fill="#222222" stroke="none" stroke-width="0.5" stroke-linecap="butt"/><path d="M100.40834,263.30807c0,-0.41421 0.33579,-0.75 0.75,-0.75c0.41421,0 0.75,0.33579 0.75,0.75c0,0.41421 -0.33579,0.75 -0.75,0.75c-0.41421,0 -0.75,-0.33579 -0.75,-0.75z" fill="#222222" stroke="none" stroke-width="0.5" stroke-linecap="butt"/><path d="M102.20834,270.30807c0,-0.41421 0.33579,-0.75 0.75,-0.75c0.41421,0 0.75,0.33579 0.75,0.75c0,0.41421 -0.33579,0.75 -0.75,0.75c-0.41421,0 -0.75,-0.33579 -0.75,-0.75z" fill="#222222" stroke="none" stroke-width="0.5" stroke-linecap="butt"/><path d="M143.60834,262.10807c0,-0.41421 0.33579,-0.75 0.75,-0.75c0.41421,0 0.75,0.33579 0.75,0.75c0,0.41421 -0.33579,0.75 -0.75,0.75c-0.41421,0 -0.75,-0.33579 -0.75,-0.75z" fill="#222222" stroke="none" stroke-width="0.5" stroke-linecap="butt"/><path d="M142.20834,265.70807c0,-0.41421 0.33579,-0.75 0.75,-0.75c0.41421,0 0.75,0.33579 0.75,0.75c0,0.41421 -0.33579,0.75 -0.75,0.75c-0.41421,0 -0.75,-0.33579 -0.75,-0.75z" fill="#222222" stroke="none" stroke-width="0.5" stroke-linecap="butt"/><path d="M141.60834,274.10807c0,-0.41421 0.33579,-0.75 0.75,-0.75c0.41421,0 0.75,0.33579 0.75,0.75c0,0.41421 -0.33579,0.75 -0.75,0.75c-0.41421,0 -0.75,-0.33579 -0.75,-0.75z" fill="#222222" stroke="none" stroke-width="0.5" stroke-linecap="butt"/><path d="M140.20834,286.10807c0,-0.41421 0.33579,-0.75 0.75,-0.75c0.41421,0 0.75,0.33579 0.75,0.75c0,0.41421 -0.33579,0.75 -0.75,0.75c-0.41421,0 -0.75,-0.33579 -0.75,-0.75z" fill="#222222" stroke="none" stroke-width="0.5" stroke-linecap="butt"/><path d="M123.40834,285.70807c0,-0.41421 0.33579,-0.75 0.75,-0.75c0.41421,0 0.75,0.33579 0.75,0.75c0,0.41421 -0.33579,0.75 -0.75,0.75c-0.41421,0 -0.75,-0.33579 -0.75,-0.75z" fill="#222222" stroke="none" stroke-width="0.5" stroke-linecap="butt"/><path d="M125.80834,280.50807c0,-0.41421 0.33579,-0.75 0.75,-0.75c0.41421,0 0.75,0.33579 0.75,0.75c0,0.41421 -0.33579,0.75 -0.75,0.75c-0.41421,0 -0.75,-0.33579 -0.75,-0.75z" fill="#222222" stroke="none" stroke-width="0.5" stroke-linecap="butt"/><path d="M132.20834,273.50807c0,-0.41421 0.33579,-0.75 0.75,-0.75c0.41421,0 0.75,0.33579 0.75,0.75c0,0.41421 -0.33579,0.75 -0.75,0.75c-0.41421,0 -0.75,-0.33579 -0.75,-0.75z" fill="#222222" stroke="none" stroke-width="0.5" stroke-linecap="butt"/><path d="M131.40834,268.30807c0,-0.41421 0.33579,-0.75 0.75,-0.75c0.41421,0 0.75,0.33579 0.75,0.75c0,0.41421 -0.33579,0.75 -0.75,0.75c-0.41421,0 -0.75,-0.33579 -0.75,-0.75z" fill="#222222" stroke="none" stroke-width="0.5" stroke-linecap="butt"/><path d="M134.00834,263.30807c0,-0.41421 0.33579,-0.75 0.75,-0.75c0.41421,0 0.75,0.33579 0.75,0.75c0,0.41421 -0.33579,0.75 -0.75,0.75c-0.41421,0 -0.75,-0.33579 -0.75,-0.75z" fill="#222222" stroke="none" stroke-width="0.5" stroke-linecap="butt"/><path d="M138.80834,251.50807c0,-0.41421 0.33579,-0.75 0.75,-0.75c0.41421,0 0.75,0.33579 0.75,0.75c0,0.41421 -0.33579,0.75 -0.75,0.75c-0.41421,0 -0.75,-0.33579 -0.75,-0.75z" fill="#222222" stroke="none" stroke-width="0.5" stroke-linecap="butt"/><path d="M131.80834,248.10807c0,-0.41421 0.33579,-0.75 0.75,-0.75c0.41421,0 0.75,0.33579 0.75,0.75c0,0.41421 -0.33579,0.75 -0.75,0.75c-0.41421,0 -0.75,-0.33579 -0.75,-0.75z" fill="#222222" stroke="none" stroke-width="0.5" stroke-linecap="butt"/><path d="M124.40834,256.10807c0,-0.41421 0.33579,-0.75 0.75,-0.75c0.41421,0 0.75,0.33579 0.75,0.75c0,0.41421 -0.33579,0.75 -0.75,0.75c-0.41421,0 -0.75,-0.33579 -0.75,-0.75z" fill="#222222" stroke="none" stroke-width="0.5" stroke-linecap="butt"/><path d="M117.60834,260.90807c0,-0.41421 0.33579,-0.75 0.75,-0.75c0.41421,0 0.75,0.33579 0.75,0.75c0,0.41421 -0.33579,0.75 -0.75,0.75c-0.41421,0 -0.75,-0.33579 -0.75,-0.75z" fill="#222222" stroke="none" stroke-width="0.5" stroke-linecap="butt"/><path d="M110.80834,286.70807c0,-0.41421 0.33579,-0.75 0.75,-0.75c0.41421,0 0.75,0.33579 0.75,0.75c0,0.41421 -0.33579,0.75 -0.75,0.75c-0.41421,0 -0.75,-0.33579 -0.75,-0.75z" fill="#222222" stroke="none" stroke-width="0.5" stroke-linecap="butt"/><path d="M149.00834,291.50807c0,-0.41421 0.33579,-0.75 0.75,-0.75c0.41421,0 0.75,0.33579 0.75,0.75c0,0.41421 -0.33579,0.75 -0.75,0.75c-0.41421,0 -0.75,-0.33579 -0.75,-0.75z" fill="#222222" stroke="none" stroke-width="0.5" stroke-linecap="butt"/><path d="M172.20834,203.70807c0,-0.41421 0.33579,-0.75 0.75,-0.75c0.41421,0 0.75,0.33579 0.75,0.75c0,0.41421 -0.33579,0.75 -0.75,0.75c-0.41421,0 -0.75,-0.33579 -0.75,-0.75z" fill="#222222" stroke="none" stroke-width="0.5" stroke-linecap="butt"/><path d="M178.00834,209.30807c0,-0.41421 0.33579,-0.75 0.75,-0.75c0.41421,0 0.75,0.33579 0.75,0.75c0,0.41421 -0.33579,0.75 -0.75,0.75c-0.41421,0 -0.75,-0.33579 -0.75,-0.75z" fill="#222222" stroke="none" stroke-width="0.5" stroke-linecap="butt"/><path d="M162.60834,208.10807c0,-0.41421 0.33579,-0.75 0.75,-0.75c0.41421,0 0.75,0.33579 0.75,0.75c0,0.41421 -0.33579,0.75 -0.75,0.75c-0.41421,0 -0.75,-0.33579 -0.75,-0.75z" fill="#222222" stroke="none" stroke-width="0.5" stroke-linecap="butt"/><path d="M155.00834,214.70807c0,-0.41421 0.33579,-0.75 0.75,-0.75c0.41421,0 0.75,0.33579 0.75,0.75c0,0.41421 -0.33579,0.75 -0.75,0.75c-0.41421,0 -0.75,-0.33579 -0.75,-0.75z" fill="#222222" stroke="none" stroke-width="0.5" stroke-linecap="butt"/><path d="M264.60834,339.57527c0,-0.41421 0.33579,-0.75 0.75,-0.75c0.41421,0 0.75,0.33579 0.75,0.75c0,0.41421 -0.33579,0.75 -0.75,0.75c-0.41421,0 -0.75,-0.33579 -0.75,-0.75z" fill="#222222" stroke="none" stroke-width="0.5" stroke-linecap="butt"/><path d="M260.60834,341.77527c0,-0.41421 0.33579,-0.75 0.75,-0.75c0.41421,0 0.75,0.33579 0.75,0.75c0,0.41421 -0.33579,0.75 -0.75,0.75c-0.41421,0 -0.75,-0.33579 -0.75,-0.75z" fill="#222222" stroke="none" stroke-width="0.5" stroke-linecap="butt"/><path d="M260.00834,346.37527c0,-0.41421 0.33579,-0.75 0.75,-0.75c0.41421,0 0.75,0.33579 0.75,0.75c0,0.41421 -0.33579,0.75 -0.75,0.75c-0.41421,0 -0.75,-0.33579 -0.75,-0.75z" fill="#222222" stroke="none" stroke-width="0.5" stroke-linecap="butt"/><path d="M249.60834,344.57527c0,-0.41421 0.33579,-0.75 0.75,-0.75c0.41421,0 0.75,0.33579 0.75,0.75c0,0.41421 -0.33579,0.75 -0.75,0.75c-0.41421,0 -0.75,-0.33579 -0.75,-0.75z" fill="#222222" stroke="none" stroke-width="0.5" stroke-linecap="butt"/><path d="M248.00834,340.37527c0,-0.41421 0.33579,-0.75 0.75,-0.75c0.41421,0 0.75,0.33579 0.75,0.75c0,0.41421 -0.33579,0.75 -0.75,0.75c-0.41421,0 -0.75,-0.33579 -0.75,-0.75z" fill="#222222" stroke="none" stroke-width="0.5" stroke-linecap="butt"/><path d="M252.60834,340.37527c0,-0.41421 0.33579,-0.75 0.75,-0.75c0.41421,0 0.75,0.33579 0.75,0.75c0,0.41421 -0.33579,0.75 -0.75,0.75c-0.41421,0 -0.75,-0.33579 -0.75,-0.75z" fill="#222222" stroke="none" stroke-width="0.5" stroke-linecap="butt"/><path d="M281.20834,327.37527c0,-0.41421 0.33579,-0.75 0.75,-0.75c0.41421,0 0.75,0.33579 0.75,0.75c0,0.41421 -0.33579,0.75 -0.75,0.75c-0.41421,0 -0.75,-0.33579 -0.75,-0.75z" fill="#222222" stroke="none" stroke-width="0.5" stroke-linecap="butt"/><path d="M279.40834,318.57527c0,-0.41421 0.33579,-0.75 0.75,-0.75c0.41421,0 0.75,0.33579 0.75,0.75c0,0.41421 -0.33579,0.75 -0.75,0.75c-0.41421,0 -0.75,-0.33579 -0.75,-0.75z" fill="#222222" stroke="none" stroke-width="0.5" stroke-linecap="butt"/><path d="M285.80834,313.77527c0,-0.41421 0.33579,-0.75 0.75,-0.75c0.41421,0 0.75,0.33579 0.75,0.75c0,0.41421 -0.33579,0.75 -0.75,0.75c-0.41421,0 -0.75,-0.33579 -0.75,-0.75z" fill="#222222" stroke="none" stroke-width="0.5" stroke-linecap="butt"/><path d="M287.60834,311.57527c0,-0.41421 0.33579,-0.75 0.75,-0.75c0.41421,0 0.75,0.33579 0.75,0.75c0,0.41421 -0.33579,0.75 -0.75,0.75c-0.41421,0 -0.75,-0.33579 -0.75,-0.75z" fill="#222222" stroke="none" stroke-width="0.5" stroke-linecap="butt"/><path d="M258.20834,305.37527c0,-0.41421 0.33579,-0.75 0.75,-0.75c0.41421,0 0.75,0.33579 0.75,0.75c0,0.41421 -0.33579,0.75 -0.75,0.75c-0.41421,0 -0.75,-0.33579 -0.75,-0.75z" fill="#222222" stroke="none" stroke-width="0.5" stroke-linecap="butt"/><path d="M271.20834,294.77527c0,-0.41421 0.33579,-0.75 0.75,-0.75c0.41421,0 0.75,0.33579 0.75,0.75c0,0.41421 -0.33579,0.75 -0.75,0.75c-0.41421,0 -0.75,-0.33579 -0.75,-0.75z" fill="#222222" stroke="none" stroke-width="0.5" stroke-linecap="butt"/><path d="M267.40834,314.57527c0,-0.41421 0.33579,-0.75 0.75,-0.75c0.41421,0 0.75,0.33579 0.75,0.75c0,0.41421 -0.33579,0.75 -0.75,0.75c-0.41421,0 -0.75,-0.33579 -0.75,-0.75z" fill="#222222" stroke="none" stroke-width="0.5" stroke-linecap="butt"/><path d="M241.90834,50.37527c0,-0.69036 0.55964,-1.25 1.25,-1.25c0.69036,0 1.25,0.55964 1.25,1.25c0,0.69036 -0.55964,1.25 -1.25,1.25c-0.69036,0 -1.25,-0.55964 -1.25,-1.25z" fill="#222222" stroke="none" stroke-width="0.5" stroke-linecap="butt"/><path d="M248.30834,42.17527c0,-0.69036 0.55964,-1.25 1.25,-1.25c0.69036,0 1.25,0.55964 1.25,1.25c0,0.69036 -0.55964,1.25 -1.25,1.25c-0.69036,0 -1.25,-0.55964 -1.25,-1.25z" fill="#222222" stroke="none" stroke-width="0.5" stroke-linecap="butt"/><path d="M190.00834,62.57527c0,-0.41421 0.33579,-0.75 0.75,-0.75c0.41421,0 0.75,0.33579 0.75,0.75c0,0.41421 -0.33579,0.75 -0.75,0.75c-0.41421,0 -0.75,-0.33579 -0.75,-0.75z" fill="#222222" stroke="none" stroke-width="0.5" stroke-linecap="butt"/><path d="M155.20834,56.57527c0,-0.41421 0.33579,-0.75 0.75,-0.75c0.41421,0 0.75,0.33579 0.75,0.75c0,0.41421 -0.33579,0.75 -0.75,0.75c-0.41421,0 -0.75,-0.33579 -0.75,-0.75z" fill="#222222" stroke="none" stroke-width="0.5" stroke-linecap="butt"/><path d="M150.40834,68.77527c0,-0.41421 0.33579,-0.75 0.75,-0.75c0.41421,0 0.75,0.33579 0.75,0.75c0,0.41421 -0.33579,0.75 -0.75,0.75c-0.41421,0 -0.75,-0.33579 -0.75,-0.75z" fill="#222222" stroke="none" stroke-width="0.5" stroke-linecap="butt"/><path d="M123.40834,68.17527c0,-0.41421 0.33579,-0.75 0.75,-0.75c0.41421,0 0.75,0.33579 0.75,0.75c0,0.41421 -0.33579,0.75 -0.75,0.75c-0.41421,0 -0.75,-0.33579 -0.75,-0.75z" fill="#222222" stroke="none" stroke-width="0.5" stroke-linecap="butt"/><path d="M123.00834,58.17527c0,-0.41421 0.33579,-0.75 0.75,-0.75c0.41421,0 0.75,0.33579 0.75,0.75c0,0.41421 -0.33579,0.75 -0.75,0.75c-0.41421,0 -0.75,-0.33579 -0.75,-0.75z" fill="#222222" stroke="none" stroke-width="0.5" stroke-linecap="butt"/><path d="M114.40834,48.57527c0,-0.41421 0.33579,-0.75 0.75,-0.75c0.41421,0 0.75,0.33579 0.75,0.75c0,0.41421 -0.33579,0.75 -0.75,0.75c-0.41421,0 -0.75,-0.33579 -0.75,-0.75z" fill="#222222" stroke="none" stroke-width="0.5" stroke-linecap="butt"/><path d="M103.40834,35.97527c0,-0.41421 0.33579,-0.75 0.75,-0.75c0.41421,0 0.75,0.33579 0.75,0.75c0,0.41421 -0.33579,0.75 -0.75,0.75c-0.41421,0 -0.75,-0.33579 -0.75,-0.75z" fill="#222222" stroke="none" stroke-width="0.5" stroke-linecap="butt"/><path d="M98.40834,33.17527c0,-0.41421 0.33579,-0.75 0.75,-0.75c0.41421,0 0.75,0.33579 0.75,0.75c0,0.41421 -0.33579,0.75 -0.75,0.75c-0.41421,0 -0.75,-0.33579 -0.75,-0.75z" fill="#222222" stroke="none" stroke-width="0.5" stroke-linecap="butt"/><path d="M98.40834,29.57527c0,-0.41421 0.33579,-0.75 0.75,-0.75c0.41421,0 0.75,0.33579 0.75,0.75c0,0.41421 -0.33579,0.75 -0.75,0.75c-0.41421,0 -0.75,-0.33579 -0.75,-0.75z" fill="#222222" stroke="none" stroke-width="0.5" stroke-linecap="butt"/><path d="M104.60834,26.97527c0,-0.41421 0.33579,-0.75 0.75,-0.75c0.41421,0 0.75,0.33579 0.75,0.75c0,0.41421 -0.33579,0.75 -0.75,0.75c-0.41421,0 -0.75,-0.33579 -0.75,-0.75z" fill="#222222" stroke="none" stroke-width="0.5" stroke-linecap="butt"/><path d="M109.60834,24.97527c0,-0.41421 0.33579,-0.75 0.75,-0.75c0.41421,0 0.75,0.33579 0.75,0.75c0,0.41421 -0.33579,0.75 -0.75,0.75c-0.41421,0 -0.75,-0.33579 -0.75,-0.75z" fill="#222222" stroke="none" stroke-width="0.5" stroke-linecap="butt"/><path d="M147.20834,32.37527c0,-0.41421 0.33579,-0.75 0.75,-0.75c0.41421,0 0.75,0.33579 0.75,0.75c0,0.41421 -0.33579,0.75 -0.75,0.75c-0.41421,0 -0.75,-0.33579 -0.75,-0.75z" fill="#222222" stroke="none" stroke-width="0.5" stroke-linecap="butt"/><path d="M139.00834,28.97527c0,-0.41421 0.33579,-0.75 0.75,-0.75c0.41421,0 0.75,0.33579 0.75,0.75c0,0.41421 -0.33579,0.75 -0.75,0.75c-0.41421,0 -0.75,-0.33579 -0.75,-0.75z" fill="#222222" stroke="none" stroke-width="0.5" stroke-linecap="butt"/><path d="M134.00834,32.57527c0,-0.41421 0.33579,-0.75 0.75,-0.75c0.41421,0 0.75,0.33579 0.75,0.75c0,0.41421 -0.33579,0.75 -0.75,0.75c-0.41421,0 -0.75,-0.33579 -0.75,-0.75z" fill="#222222" stroke="none" stroke-width="0.5" stroke-linecap="butt"/><path d="M154.40834,35.77527c0,-0.41421 0.33579,-0.75 0.75,-0.75c0.41421,0 0.75,0.33579 0.75,0.75c0,0.41421 -0.33579,0.75 -0.75,0.75c-0.41421,0 -0.75,-0.33579 -0.75,-0.75z" fill="#222222" stroke="none" stroke-width="0.5" stroke-linecap="butt"/><path d="M162.00834,29.17527c0,-0.41421 0.33579,-0.75 0.75,-0.75c0.41421,0 0.75,0.33579 0.75,0.75c0,0.41421 -0.33579,0.75 -0.75,0.75c-0.41421,0 -0.75,-0.33579 -0.75,-0.75z" fill="#222222" stroke="none" stroke-width="0.5" stroke-linecap="butt"/><path d="M174.60834,26.17527c0,-0.41421 0.33579,-0.75 0.75,-0.75c0.41421,0 0.75,0.33579 0.75,0.75c0,0.41421 -0.33579,0.75 -0.75,0.75c-0.41421,0 -0.75,-0.33579 -0.75,-0.75z" fill="#222222" stroke="none" stroke-width="0.5" stroke-linecap="butt"/><path d="M189.80834,27.17527c0,-0.41421 0.33579,-0.75 0.75,-0.75c0.41421,0 0.75,0.33579 0.75,0.75c0,0.41421 -0.33579,0.75 -0.75,0.75c-0.41421,0 -0.75,-0.33579 -0.75,-0.75z" fill="#222222" stroke="none" stroke-width="0.5" stroke-linecap="butt"/><path d="M167.00834,81.57527c0,-0.41421 0.33579,-0.75 0.75,-0.75c0.41421,0 0.75,0.33579 0.75,0.75c0,0.41421 -0.33579,0.75 -0.75,0.75c-0.41421,0 -0.75,-0.33579 -0.75,-0.75z" fill="#222222" stroke="none" stroke-width="0.5" stroke-linecap="butt"/><path d="M130.80834,77.17527c0,-0.41421 0.33579,-0.75 0.75,-0.75c0.41421,0 0.75,0.33579 0.75,0.75c0,0.41421 -0.33579,0.75 -0.75,0.75c-0.41421,0 -0.75,-0.33579 -0.75,-0.75z" fill="#222222" stroke="none" stroke-width="0.5" stroke-linecap="butt"/><path d="M121.20834,87.97527c0,-0.41421 0.33579,-0.75 0.75,-0.75c0.41421,0 0.75,0.33579 0.75,0.75c0,0.41421 -0.33579,0.75 -0.75,0.75c-0.41421,0 -0.75,-0.33579 -0.75,-0.75z" fill="#222222" stroke="none" stroke-width="0.5" stroke-linecap="butt"/><path d="M143.40834,109.37527c0,-0.41421 0.33579,-0.75 0.75,-0.75c0.41421,0 0.75,0.33579 0.75,0.75c0,0.41421 -0.33579,0.75 -0.75,0.75c-0.41421,0 -0.75,-0.33579 -0.75,-0.75z" fill="#222222" stroke="none" stroke-width="0.5" stroke-linecap="butt"/><path d="M172.40834,107.77527c0,-0.41421 0.33579,-0.75 0.75,-0.75c0.41421,0 0.75,0.33579 0.75,0.75c0,0.41421 -0.33579,0.75 -0.75,0.75c-0.41421,0 -0.75,-0.33579 -0.75,-0.75z" fill="#222222" stroke="none" stroke-width="0.5" stroke-linecap="butt"/><path d="M288.80834,99.97527c0,-0.41421 0.33579,-0.75 0.75,-0.75c0.41421,0 0.75,0.33579 0.75,0.75c0,0.41421 -0.33579,0.75 -0.75,0.75c-0.41421,0 -0.75,-0.33579 -0.75,-0.75z" fill="#222222" stroke="none" stroke-width="0.5" stroke-linecap="butt"/><path d="M288.40834,82.57527c0,-0.41421 0.33579,-0.75 0.75,-0.75c0.41421,0 0.75,0.33579 0.75,0.75c0,0.41421 -0.33579,0.75 -0.75,0.75c-0.41421,0 -0.75,-0.33579 -0.75,-0.75z" fill="#222222" stroke="none" stroke-width="0.5" stroke-linecap="butt"/><path d="M323.80834,53.37527c0,-0.41421 0.33579,-0.75 0.75,-0.75c0.41421,0 0.75,0.33579 0.75,0.75c0,0.41421 -0.33579,0.75 -0.75,0.75c-0.41421,0 -0.75,-0.33579 -0.75,-0.75z" fill="#222222" stroke="none" stroke-width="0.5" stroke-linecap="butt"/><path d="M303.80834,47.17527c0,-0.41421 0.33579,-0.75 0.75,-0.75c0.41421,0 0.75,0.33579 0.75,0.75c0,0.41421 -0.33579,0.75 -0.75,0.75c-0.41421,0 -0.75,-0.33579 -0.75,-0.75z" fill="#222222" stroke="none" stroke-width="0.5" stroke-linecap="butt"/><path d="M327.00834,37.77527c0,-0.41421 0.33579,-0.75 0.75,-0.75c0.41421,0 0.75,0.33579 0.75,0.75c0,0.41421 -0.33579,0.75 -0.75,0.75c-0.41421,0 -0.75,-0.33579 -0.75,-0.75z" fill="#222222" stroke="none" stroke-width="0.5" stroke-linecap="butt"/><path d="M341.80834,44.17527c0,-0.41421 0.33579,-0.75 0.75,-0.75c0.41421,0 0.75,0.33579 0.75,0.75c0,0.41421 -0.33579,0.75 -0.75,0.75c-0.41421,0 -0.75,-0.33579 -0.75,-0.75z" fill="#222222" stroke="none" stroke-width="0.5" stroke-linecap="butt"/><path d="M357.00834,37.97527c0,-0.41421 0.33579,-0.75 0.75,-0.75c0.41421,0 0.75,0.33579 0.75,0.75c0,0.41421 -0.33579,0.75 -0.75,0.75c-0.41421,0 -0.75,-0.33579 -0.75,-0.75z" fill="#222222" stroke="none" stroke-width="0.5" stroke-linecap="butt"/><path d="M358.40834,39.17527c0,-0.41421 0.33579,-0.75 0.75,-0.75c0.41421,0 0.75,0.33579 0.75,0.75c0,0.41421 -0.33579,0.75 -0.75,0.75c-0.41421,0 -0.75,-0.33579 -0.75,-0.75z" fill="#222222" stroke="none" stroke-width="0.5" stroke-linecap="butt"/><path d="M355.80834,40.17527c0,-0.41421 0.33579,-0.75 0.75,-0.75c0.41421,0 0.75,0.33579 0.75,0.75c0,0.41421 -0.33579,0.75 -0.75,0.75c-0.41421,0 -0.75,-0.33579 -0.75,-0.75z" fill="#222222" stroke="none" stroke-width="0.5" stroke-linecap="butt"/><path d="M354.40834,94.57527c0,-0.41421 0.33579,-0.75 0.75,-0.75c0.41421,0 0.75,0.33579 0.75,0.75c0,0.41421 -0.33579,0.75 -0.75,0.75c-0.41421,0 -0.75,-0.33579 -0.75,-0.75z" fill="#222222" stroke="none" stroke-width="0.5" stroke-linecap="butt"/><path d="M348.20834,93.97527c0,-0.41421 0.33579,-0.75 0.75,-0.75c0.41421,0 0.75,0.33579 0.75,0.75c0,0.41421 -0.33579,0.75 -0.75,0.75c-0.41421,0 -0.75,-0.33579 -0.75,-0.75z" fill="#222222" stroke="none" stroke-width="0.5" stroke-linecap="butt"/><path d="M336.80834,105.57527c0,-0.41421 0.33579,-0.75 0.75,-0.75c0.41421,0 0.75,0.33579 0.75,0.75c0,0.41421 -0.33579,0.75 -0.75,0.75c-0.41421,0 -0.75,-0.33579 -0.75,-0.75z" fill="#222222" stroke="none" stroke-width="0.5" stroke-linecap="butt"/><path d="M338.60834,120.37527c0,-0.41421 0.33579,-0.75 0.75,-0.75c0.41421,0 0.75,0.33579 0.75,0.75c0,0.41421 -0.33579,0.75 -0.75,0.75c-0.41421,0 -0.75,-0.33579 -0.75,-0.75z" fill="#222222" stroke="none" stroke-width="0.5" stroke-linecap="butt"/><path d="M349.20834,129.77527c0,-0.41421 0.33579,-0.75 0.75,-0.75c0.41421,0 0.75,0.33579 0.75,0.75c0,0.41421 -0.33579,0.75 -0.75,0.75c-0.41421,0 -0.75,-0.33579 -0.75,-0.75z" fill="#222222" stroke="none" stroke-width="0.5" stroke-linecap="butt"/><path d="M352.20834,127.77527c0,-0.41421 0.33579,-0.75 0.75,-0.75c0.41421,0 0.75,0.33579 0.75,0.75c0,0.41421 -0.33579,0.75 -0.75,0.75c-0.41421,0 -0.75,-0.33579 -0.75,-0.75z" fill="#222222" stroke="none" stroke-width="0.5" stroke-linecap="butt"/><path d="M313.20834,125.37527c0,-0.41421 0.33579,-0.75 0.75,-0.75c0.41421,0 0.75,0.33579 0.75,0.75c0,0.41421 -0.33579,0.75 -0.75,0.75c-0.41421,0 -0.75,-0.33579 -0.75,-0.75z" fill="#222222" stroke="none" stroke-width="0.5" stroke-linecap="butt"/><path d="M284.60834,134.77527c0,-0.41421 0.33579,-0.75 0.75,-0.75c0.41421,0 0.75,0.33579 0.75,0.75c0,0.41421 -0.33579,0.75 -0.75,0.75c-0.41421,0 -0.75,-0.33579 -0.75,-0.75z" fill="#222222" stroke="none" stroke-width="0.5" stroke-linecap="butt"/><path d="M280.00834,141.97527c0,-0.41421 0.33579,-0.75 0.75,-0.75c0.41421,0 0.75,0.33579 0.75,0.75c0,0.41421 -0.33579,0.75 -0.75,0.75c-0.41421,0 -0.75,-0.33579 -0.75,-0.75z" fill="#222222" stroke="none" stroke-width="0.5" stroke-linecap="butt"/><path d="M276.60834,148.57527c0,-0.41421 0.33579,-0.75 0.75,-0.75c0.41421,0 0.75,0.33579 0.75,0.75c0,0.41421 -0.33579,0.75 -0.75,0.75c-0.41421,0 -0.75,-0.33579 -0.75,-0.75z" fill="#222222" stroke="none" stroke-width="0.5" stroke-linecap="butt"/><path d="M252.20834,153.57527c0,-0.41421 0.33579,-0.75 0.75,-0.75c0.41421,0 0.75,0.33579 0.75,0.75c0,0.41421 -0.33579,0.75 -0.75,0.75c-0.41421,0 -0.75,-0.33579 -0.75,-0.75z" fill="#222222" stroke="none" stroke-width="0.5" stroke-linecap="butt"/><path d="M256.80834,147.37527c0,-0.41421 0.33579,-0.75 0.75,-0.75c0.41421,0 0.75,0.33579 0.75,0.75c0,0.41421 -0.33579,0.75 -0.75,0.75c-0.41421,0 -0.75,-0.33579 -0.75,-0.75z" fill="#222222" stroke="none" stroke-width="0.5" stroke-linecap="butt"/><path d="M257.00834,141.17527c0,-0.41421 0.33579,-0.75 0.75,-0.75c0.41421,0 0.75,0.33579 0.75,0.75c0,0.41421 -0.33579,0.75 -0.75,0.75c-0.41421,0 -0.75,-0.33579 -0.75,-0.75z" fill="#222222" stroke="none" stroke-width="0.5" stroke-linecap="butt"/><path d="M258.00834,131.77527c0,-0.41421 0.33579,-0.75 0.75,-0.75c0.41421,0 0.75,0.33579 0.75,0.75c0,0.41421 -0.33579,0.75 -0.75,0.75c-0.41421,0 -0.75,-0.33579 -0.75,-0.75z" fill="#222222" stroke="none" stroke-width="0.5" stroke-linecap="butt"/><path d="M259.20834,123.57527c0,-0.41421 0.33579,-0.75 0.75,-0.75c0.41421,0 0.75,0.33579 0.75,0.75c0,0.41421 -0.33579,0.75 -0.75,0.75c-0.41421,0 -0.75,-0.33579 -0.75,-0.75z" fill="#222222" stroke="none" stroke-width="0.5" stroke-linecap="butt"/><path d="M274.20834,116.97527c0,-0.41421 0.33579,-0.75 0.75,-0.75c0.41421,0 0.75,0.33579 0.75,0.75c0,0.41421 -0.33579,0.75 -0.75,0.75c-0.41421,0 -0.75,-0.33579 -0.75,-0.75z" fill="#222222" stroke="none" stroke-width="0.5" stroke-linecap="butt"/><path d="M273.40834,113.77527c0,-0.41421 0.33579,-0.75 0.75,-0.75c0.41421,0 0.75,0.33579 0.75,0.75c0,0.41421 -0.33579,0.75 -0.75,0.75c-0.41421,0 -0.75,-0.33579 -0.75,-0.75z" fill="#222222" stroke="none" stroke-width="0.5" stroke-linecap="butt"/><path d="M289.80834,195.17527c0,-0.41421 0.33579,-0.75 0.75,-0.75c0.41421,0 0.75,0.33579 0.75,0.75c0,0.41421 -0.33579,0.75 -0.75,0.75c-0.41421,0 -0.75,-0.33579 -0.75,-0.75z" fill="#222222" stroke="none" stroke-width="0.5" stroke-linecap="butt"/><path d="M272.60834,190.97527c0,-0.41421 0.33579,-0.75 0.75,-0.75c0.41421,0 0.75,0.33579 0.75,0.75c0,0.41421 -0.33579,0.75 -0.75,0.75c-0.41421,0 -0.75,-0.33579 -0.75,-0.75z" fill="#222222" stroke="none" stroke-width="0.5" stroke-linecap="butt"/><path d="M274.00834,188.97527c0,-0.41421 0.33579,-0.75 0.75,-0.75c0.41421,0 0.75,0.33579 0.75,0.75c0,0.41421 -0.33579,0.75 -0.75,0.75c-0.41421,0 -0.75,-0.33579 -0.75,-0.75z" fill="#222222" stroke="none" stroke-width="0.5" stroke-linecap="butt"/><path d="M259.40834,185.17527c0,-0.41421 0.33579,-0.75 0.75,-0.75c0.41421,0 0.75,0.33579 0.75,0.75c0,0.41421 -0.33579,0.75 -0.75,0.75c-0.41421,0 -0.75,-0.33579 -0.75,-0.75z" fill="#222222" stroke="none" stroke-width="0.5" stroke-linecap="butt"/><path d="M255.40834,180.57527c0,-0.41421 0.33579,-0.75 0.75,-0.75c0.41421,0 0.75,0.33579 0.75,0.75c0,0.41421 -0.33579,0.75 -0.75,0.75c-0.41421,0 -0.75,-0.33579 -0.75,-0.75z" fill="#222222" stroke="none" stroke-width="0.5" stroke-linecap="butt"/><path d="M348.60834,181.17527c0,-0.41421 0.33579,-0.75 0.75,-0.75c0.41421,0 0.75,0.33579 0.75,0.75c0,0.41421 -0.33579,0.75 -0.75,0.75c-0.41421,0 -0.75,-0.33579 -0.75,-0.75z" fill="#222222" stroke="none" stroke-width="0.5" stroke-linecap="butt"/><path d="M352.40834,179.57527c0,-0.41421 0.33579,-0.75 0.75,-0.75c0.41421,0 0.75,0.33579 0.75,0.75c0,0.41421 -0.33579,0.75 -0.75,0.75c-0.41421,0 -0.75,-0.33579 -0.75,-0.75z" fill="#222222" stroke="none" stroke-width="0.5" stroke-linecap="butt"/><path d="M354.40834,197.77527c0,-0.41421 0.33579,-0.75 0.75,-0.75c0.41421,0 0.75,0.33579 0.75,0.75c0,0.41421 -0.33579,0.75 -0.75,0.75c-0.41421,0 -0.75,-0.33579 -0.75,-0.75z" fill="#222222" stroke="none" stroke-width="0.5" stroke-linecap="butt"/><path d="M358.20834,195.57527c0,-0.41421 0.33579,-0.75 0.75,-0.75c0.41421,0 0.75,0.33579 0.75,0.75c0,0.41421 -0.33579,0.75 -0.75,0.75c-0.41421,0 -0.75,-0.33579 -0.75,-0.75z" fill="#222222" stroke="none" stroke-width="0.5" stroke-linecap="butt"/><path d="M360.60834,190.97527c0,-0.41421 0.33579,-0.75 0.75,-0.75c0.41421,0 0.75,0.33579 0.75,0.75c0,0.41421 -0.33579,0.75 -0.75,0.75c-0.41421,0 -0.75,-0.33579 -0.75,-0.75z" fill="#222222" stroke="none" stroke-width="0.5" stroke-linecap="butt"/><path d="M186.95834,172.66667c0,-0.36456 0.19509,-0.68356 0.48656,-0.8583c-0.21674,-0.13148 -0.36156,-0.36968 -0.36156,-0.6417c0,-0.41421 0.33579,-0.75 0.75,-0.75c0.41421,0 0.75,0.33579 0.75,0.75c0,0.22725 -0.10107,0.43089 -0.26071,0.56843c0.37214,0.14564 0.63571,0.50782 0.63571,0.93157c0,0.55228 -0.44772,1 -1,1c-0.55228,0 -1,-0.44772 -1,-1z" fill="#222222" stroke="none" stroke-width="0.5" stroke-linecap="butt"/><path d="M184.08334,150.91667c0,-0.41421 0.33579,-0.75 0.75,-0.75c0.41421,0 0.75,0.33579 0.75,0.75c0,0.41421 -0.33579,0.75 -0.75,0.75c-0.41421,0 -0.75,-0.33579 -0.75,-0.75z" fill="#222222" stroke="none" stroke-width="0.5" stroke-linecap="butt"/><path d="M161.08334,149.66667c0,-0.41421 0.33579,-0.75 0.75,-0.75c0.41421,0 0.75,0.33579 0.75,0.75c0,0.41421 -0.33579,0.75 -0.75,0.75c-0.41421,0 -0.75,-0.33579 -0.75,-0.75z" fill="#222222" stroke="none" stroke-width="0.5" stroke-linecap="butt"/><path d="M131.58334,165.16667c0,-0.41421 0.33579,-0.75 0.75,-0.75c0.41421,0 0.75,0.33579 0.75,0.75c0,0.41421 -0.33579,0.75 -0.75,0.75c-0.41421,0 -0.75,-0.33579 -0.75,-0.75z" fill="#222222" stroke="none" stroke-width="0.5" stroke-linecap="butt"/><path d="M114.58334,149.16667c0,-0.41421 0.33579,-0.75 0.75,-0.75c0.41421,0 0.75,0.33579 0.75,0.75c0,0.41421 -0.33579,0.75 -0.75,0.75c-0.41421,0 -0.75,-0.33579 -0.75,-0.75z" fill="#222222" stroke="none" stroke-width="0.5" stroke-linecap="butt"/><path d="M197.33334,120.16667c0,-0.69036 0.55964,-1.25 1.25,-1.25c0.69036,0 1.25,0.55964 1.25,1.25c0,0.69036 -0.55964,1.25 -1.25,1.25c-0.69036,0 -1.25,-0.55964 -1.25,-1.25z" fill="#222222" stroke="none" stroke-width="0.5" stroke-linecap="butt"/><path d="M214.08334,161.16667c0,-0.69036 0.55964,-1.25 1.25,-1.25c0.69036,0 1.25,0.55964 1.25,1.25c0,0.69036 -0.55964,1.25 -1.25,1.25c-0.69036,0 -1.25,-0.55964 -1.25,-1.25z" fill="#222222" stroke="none" stroke-width="0.5" stroke-linecap="butt"/><path d="M112.83334,178.41667c0,-0.69036 0.55964,-1.25 1.25,-1.25c0.69036,0 1.25,0.55964 1.25,1.25c0,0.69036 -0.55964,1.25 -1.25,1.25c-0.69036,0 -1.25,-0.55964 -1.25,-1.25z" fill="#222222" stroke="none" stroke-width="0.5" stroke-linecap="butt"/><path d="M215.08334,223.41667c0,-0.69036 0.55964,-1.25 1.25,-1.25c0.69036,0 1.25,0.55964 1.25,1.25c0,0.69036 -0.55964,1.25 -1.25,1.25c-0.69036,0 -1.25,-0.55964 -1.25,-1.25z" fill="#222222" stroke="none" stroke-width="0.5" stroke-linecap="butt"/><path d="M271.83334,174.66667c0,-0.69036 0.55964,-1.25 1.25,-1.25c0.69036,0 1.25,0.55964 1.25,1.25c0,0.69036 -0.55964,1.25 -1.25,1.25c-0.69036,0 -1.25,-0.55964 -1.25,-1.25z" fill="#222222" stroke="none" stroke-width="0.5" stroke-linecap="butt"/><path d="M309.08334,139.16667c0,-0.69036 0.55964,-1.25 1.25,-1.25c0.69036,0 1.25,0.55964 1.25,1.25c0,0.69036 -0.55964,1.25 -1.25,1.25c-0.69036,0 -1.25,-0.55964 -1.25,-1.25z" fill="#222222" stroke="none" stroke-width="0.5" stroke-linecap="butt"/><path d="M334.33334,247.66667c0,-0.69036 0.55964,-1.25 1.25,-1.25c0.69036,0 1.25,0.55964 1.25,1.25c0,0.69036 -0.55964,1.25 -1.25,1.25c-0.69036,0 -1.25,-0.55964 -1.25,-1.25z" fill="#222222" stroke="none" stroke-width="0.5" stroke-linecap="butt"/><path d="M223.08334,278.41667c0,-0.69036 0.55964,-1.25 1.25,-1.25c0.69036,0 1.25,0.55964 1.25,1.25c0,0.69036 -0.55964,1.25 -1.25,1.25c-0.69036,0 -1.25,-0.55964 -1.25,-1.25z" fill="#222222" stroke="none" stroke-width="0.5" stroke-linecap="butt"/><path d="M126.58334,310.39167c0,-0.69036 0.55964,-1.25 1.25,-1.25c0.69036,0 1.25,0.55964 1.25,1.25c0,0.69036 -0.55964,1.25 -1.25,1.25c-0.69036,0 -1.25,-0.55964 -1.25,-1.25z" fill="#222222" stroke="none" stroke-width="0.5" stroke-linecap="butt"/><path d="M320.83334,283.39167c0,-0.27614 0.22386,-0.5 0.5,-0.5c0.27614,0 0.5,0.22386 0.5,0.5c0,0.27614 -0.22386,0.5 -0.5,0.5c-0.27614,0 -0.5,-0.22386 -0.5,-0.5z" fill="#222222" stroke="none" stroke-width="0.5" stroke-linecap="butt"/><path d="M414.95834,312.16667c0.5,0 0.5,0.5 0.5,0.5v1c0,0 0,0.5 -0.5,0.5c-0.5,0 -0.5,-0.5 -0.5,-0.5v-1c0,0 0,-0.5 0.5,-0.5z" fill="#222222" stroke="none" stroke-width="0.5" stroke-linecap="butt"/><path d="M380.45834,293.66667c0,-0.27614 0.22386,-0.5 0.5,-0.5c0.27614,0 0.5,0.22386 0.5,0.5c0,0.27614 -0.22386,0.5 -0.5,0.5c-0.27614,0 -0.5,-0.22386 -0.5,-0.5z" fill="#222222" stroke="none" stroke-width="0.5" stroke-linecap="butt"/><path d="M333.45834,328.66667c0,-0.27614 0.22386,-0.5 0.5,-0.5c0.27614,0 0.5,0.22386 0.5,0.5c0,0.27614 -0.22386,0.5 -0.5,0.5c-0.27614,0 -0.5,-0.22386 -0.5,-0.5z" fill="#222222" stroke="none" stroke-width="0.5" stroke-linecap="butt"/><path d="M327.45834,282.66667c0,-0.27614 0.22386,-0.5 0.5,-0.5c0.27614,0 0.5,0.22386 0.5,0.5c0,0.27614 -0.22386,0.5 -0.5,0.5c-0.27614,0 -0.5,-0.22386 -0.5,-0.5z" fill="#222222" stroke="none" stroke-width="0.5" stroke-linecap="butt"/><path d="M392.45834,255.66667c0,-0.27614 0.22386,-0.5 0.5,-0.5c0.27614,0 0.5,0.22386 0.5,0.5c0,0.27614 -0.22386,0.5 -0.5,0.5c-0.27614,0 -0.5,-0.22386 -0.5,-0.5z" fill="#222222" stroke="none" stroke-width="0.5" stroke-linecap="butt"/><path d="M377.45834,235.66667c0,-0.27614 0.22386,-0.5 0.5,-0.5c0.27614,0 0.5,0.22386 0.5,0.5c0,0.27614 -0.22386,0.5 -0.5,0.5c-0.27614,0 -0.5,-0.22386 -0.5,-0.5z" fill="#222222" stroke="none" stroke-width="0.5" stroke-linecap="butt"/><path d="M302.45834,201.66667c0,-0.27614 0.22386,-0.5 0.5,-0.5c0.27614,0 0.5,0.22386 0.5,0.5c0,0.27614 -0.22386,0.5 -0.5,0.5c-0.27614,0 -0.5,-0.22386 -0.5,-0.5z" fill="#222222" stroke="none" stroke-width="0.5" stroke-linecap="butt"/><path d="M322.45834,165.66667c0,-0.27614 0.22386,-0.5 0.5,-0.5c0.27614,0 0.5,0.22386 0.5,0.5c0,0.27614 -0.22386,0.5 -0.5,0.5c-0.27614,0 -0.5,-0.22386 -0.5,-0.5z" fill="#222222" stroke="none" stroke-width="0.5" stroke-linecap="butt"/><path d="M333.45834,157.66667c0,-0.27614 0.22386,-0.5 0.5,-0.5c0.27614,0 0.5,0.22386 0.5,0.5c0,0.27614 -0.22386,0.5 -0.5,0.5c-0.27614,0 -0.5,-0.22386 -0.5,-0.5z" fill="#222222" stroke="none" stroke-width="0.5" stroke-linecap="butt"/><path d="M302.45834,45.66667c0,-0.27614 0.22386,-0.5 0.5,-0.5c0.27614,0 0.5,0.22386 0.5,0.5c0,0.27614 -0.22386,0.5 -0.5,0.5c-0.27614,0 -0.5,-0.22386 -0.5,-0.5z" fill="#222222" stroke="none" stroke-width="0.5" stroke-linecap="butt"/><path d="M194.45834,67.66667c0,-0.27614 0.22386,-0.5 0.5,-0.5c0.27614,0 0.5,0.22386 0.5,0.5c0,0.27614 -0.22386,0.5 -0.5,0.5c-0.27614,0 -0.5,-0.22386 -0.5,-0.5z" fill="#222222" stroke="none" stroke-width="0.5" stroke-linecap="butt"/><path d="M218.45834,92.66667c0,-0.27614 0.22386,-0.5 0.5,-0.5c0.27614,0 0.5,0.22386 0.5,0.5c0,0.27614 -0.22386,0.5 -0.5,0.5c-0.27614,0 -0.5,-0.22386 -0.5,-0.5z" fill="#222222" stroke="none" stroke-width="0.5" stroke-linecap="butt"/><path d="M235.45834,92.66667c0,-0.27614 0.22386,-0.5 0.5,-0.5c0.27614,0 0.5,0.22386 0.5,0.5c0,0.27614 -0.22386,0.5 -0.5,0.5c-0.27614,0 -0.5,-0.22386 -0.5,-0.5z" fill="#222222" stroke="none" stroke-width="0.5" stroke-linecap="butt"/><path d="M101.95834,186.66667c0,-0.55228 0.44772,-1 1,-1c0.55228,0 1,0.44772 1,1c0,0.55228 -0.44772,1 -1,1c-0.55228,0 -1,-0.44772 -1,-1z" fill="#222222" stroke="none" stroke-width="0.5" stroke-linecap="butt"/><path d="M85.95834,118.66667c0,-0.55228 0.44772,-1 1,-1c0.55228,0 1,0.44772 1,1c0,0.55228 -0.44772,1 -1,1c-0.55228,0 -1,-0.44772 -1,-1z" fill="#222222" stroke="none" stroke-width="0.5" stroke-linecap="butt"/><path d="M155.95834,109.66667c0,-0.55228 0.44772,-1 1,-1c0.55228,0 1,0.44772 1,1c0,0.55228 -0.44772,1 -1,1c-0.55228,0 -1,-0.44772 -1,-1z" fill="#222222" stroke="none" stroke-width="0.5" stroke-linecap="butt"/><path d="M150.95834,150.66667c0,-0.55228 0.44772,-1 1,-1c0.55228,0 1,0.44772 1,1c0,0.55228 -0.44772,1 -1,1c-0.55228,0 -1,-0.44772 -1,-1z" fill="#222222" stroke="none" stroke-width="0.5" stroke-linecap="butt"/><path d="M168.95834,206.66667c0,-0.55228 0.44772,-1 1,-1c0.55228,0 1,0.44772 1,1c0,0.55228 -0.44772,1 -1,1c-0.55228,0 -1,-0.44772 -1,-1z" fill="#222222" stroke="none" stroke-width="0.5" stroke-linecap="butt"/><path d="M186.95834,98.66667c0,-0.55228 0.44772,-1 1,-1c0.55228,0 1,0.44772 1,1c0,0.55228 -0.44772,1 -1,1c-0.55228,0 -1,-0.44772 -1,-1z" fill="#222222" stroke="none" stroke-width="0.5" stroke-linecap="butt"/><path d="M201.95834,92.66667c0,-0.55228 0.44772,-1 1,-1c0.55228,0 1,0.44772 1,1c0,0.55228 -0.44772,1 -1,1c-0.55228,0 -1,-0.44772 -1,-1z" fill="#222222" stroke="none" stroke-width="0.5" stroke-linecap="butt"/><path d="M263.95834,85.66667c0,-0.55228 0.44772,-1 1,-1c0.55228,0 1,0.44772 1,1c0,0.55228 -0.44772,1 -1,1c-0.55228,0 -1,-0.44772 -1,-1z" fill="#222222" stroke="none" stroke-width="0.5" stroke-linecap="butt"/><path d="M274.95834,42.66667c0,-0.55228 0.44772,-1 1,-1c0.55228,0 1,0.44772 1,1c0,0.55228 -0.44772,1 -1,1c-0.55228,0 -1,-0.44772 -1,-1z" fill="#222222" stroke="none" stroke-width="0.5" stroke-linecap="butt"/><path d="M172.95834,134.66667c0,-0.55228 0.44772,-1 1,-1c0.55228,0 1,0.44772 1,1c0,0.55228 -0.44772,1 -1,1c-0.55228,0 -1,-0.44772 -1,-1z" fill="#4e4e4e" stroke="none" stroke-width="0.5" stroke-linecap="butt"/><path d="M91.95834,150.66667c0,-0.55228 0.44772,-1 1,-1c0.55228,0 1,0.44772 1,1c0,0.55228 -0.44772,1 -1,1c-0.55228,0 -1,-0.44772 -1,-1z" fill="#4e4e4e" stroke="none" stroke-width="0.5" stroke-linecap="butt"/><path d="M169.95834,203.66667c0,-0.55228 0.44772,-1 1,-1c0.55228,0 1,0.44772 1,1c0,0.55228 -0.44772,1 -1,1c-0.55228,0 -1,-0.44772 -1,-1z" fill="#4e4e4e" stroke="none" stroke-width="0.5" stroke-linecap="butt"/><path d="M214.95834,227.66667c0,-0.55228 0.44772,-1 1,-1c0.55228,0 1,0.44772 1,1c0,0.55228 -0.44772,1 -1,1c-0.55228,0 -1,-0.44772 -1,-1z" fill="#4e4e4e" stroke="none" stroke-width="0.5" stroke-linecap="butt"/><path d="M204.95834,266.66667c0,-0.55228 0.44772,-1 1,-1c0.55228,0 1,0.44772 1,1c0,0.55228 -0.44772,1 -1,1c-0.55228,0 -1,-0.44772 -1,-1z" fill="#4e4e4e" stroke="none" stroke-width="0.5" stroke-linecap="butt"/><path d="M206.95834,304.66667c0,-0.55228 0.44772,-1 1,-1c0.55228,0 1,0.44772 1,1c0,0.55228 -0.44772,1 -1,1c-0.55228,0 -1,-0.44772 -1,-1z" fill="#4e4e4e" stroke="none" stroke-width="0.5" stroke-linecap="butt"/><path d="M196.95834,341.66667c0,-0.55228 0.44772,-1 1,-1c0.55228,0 1,0.44772 1,1c0,0.55228 -0.44772,1 -1,1c-0.55228,0 -1,-0.44772 -1,-1z" fill="#4e4e4e" stroke="none" stroke-width="0.5" stroke-linecap="butt"/><path d="M169.95834,267.66667c0,-0.55228 0.44772,-1 1,-1c0.55228,0 1,0.44772 1,1c0,0.55228 -0.44772,1 -1,1c-0.55228,0 -1,-0.44772 -1,-1z" fill="#4e4e4e" stroke="none" stroke-width="0.5" stroke-linecap="butt"/><path d="M245.95834,254.66667c0,-0.55228 0.44772,-1 1,-1c0.55228,0 1,0.44772 1,1c0,0.55228 -0.44772,1 -1,1c-0.55228,0 -1,-0.44772 -1,-1z" fill="#4e4e4e" stroke="none" stroke-width="0.5" stroke-linecap="butt"/><path d="M331.95834,259.66667c0,-0.55228 0.44772,-1 1,-1c0.55228,0 1,0.44772 1,1c0,0.55228 -0.44772,1 -1,1c-0.55228,0 -1,-0.44772 -1,-1z" fill="#4e4e4e" stroke="none" stroke-width="0.5" stroke-linecap="butt"/><path d="M345.95834,317.66667c0,-0.55228 0.44772,-1 1,-1c0.55228,0 1,0.44772 1,1c0,0.55228 -0.44772,1 -1,1c-0.55228,0 -1,-0.44772 -1,-1z" fill="#4e4e4e" stroke="none" stroke-width="0.5" stroke-linecap="butt"/><path d="M360.95834,290.66667c0,-0.55228 0.44772,-1 1,-1c0.55228,0 1,0.44772 1,1c0,0.55228 -0.44772,1 -1,1c-0.55228,0 -1,-0.44772 -1,-1z" fill="#4e4e4e" stroke="none" stroke-width="0.5" stroke-linecap="butt"/><path d="M358.95834,271.66667c0,-0.55228 0.44772,-1 1,-1c0.55228,0 1,0.44772 1,1c0,0.55228 -0.44772,1 -1,1c-0.55228,0 -1,-0.44772 -1,-1z" fill="#4e4e4e" stroke="none" stroke-width="0.5" stroke-linecap="butt"/><path d="M304.95834,249.66667c0,-0.55228 0.44772,-1 1,-1c0.55228,0 1,0.44772 1,1c0,0.55228 -0.44772,1 -1,1c-0.55228,0 -1,-0.44772 -1,-1z" fill="#4e4e4e" stroke="none" stroke-width="0.5" stroke-linecap="butt"/><path d="M310.95834,223.66667c0,-0.55228 0.44772,-1 1,-1c0.55228,0 1,0.44772 1,1c0,0.55228 -0.44772,1 -1,1c-0.55228,0 -1,-0.44772 -1,-1z" fill="#4e4e4e" stroke="none" stroke-width="0.5" stroke-linecap="butt"/><path d="M337.95834,200.66667c0,-0.55228 0.44772,-1 1,-1c0.55228,0 1,0.44772 1,1c0,0.55228 -0.44772,1 -1,1c-0.55228,0 -1,-0.44772 -1,-1z" fill="#4e4e4e" stroke="none" stroke-width="0.5" stroke-linecap="butt"/><path d="M330.95834,150.66667c0,-0.55228 0.44772,-1 1,-1c0.55228,0 1,0.44772 1,1c0,0.55228 -0.44772,1 -1,1c-0.55228,0 -1,-0.44772 -1,-1z" fill="#4e4e4e" stroke="none" stroke-width="0.5" stroke-linecap="butt"/><path d="M368.95834,142.66667c0,-0.55228 0.44772,-1 1,-1c0.55228,0 1,0.44772 1,1c0,0.55228 -0.44772,1 -1,1c-0.55228,0 -1,-0.44772 -1,-1z" fill="#4e4e4e" stroke="none" stroke-width="0.5" stroke-linecap="butt"/><path d="M317.95834,71.66667c0,-0.55228 0.44772,-1 1,-1c0.55228,0 1,0.44772 1,1c0,0.55228 -0.44772,1 -1,1c-0.55228,0 -1,-0.44772 -1,-1z" fill="#4e4e4e" stroke="none" stroke-width="0.5" stroke-linecap="butt"/><path d="M204.95834,70.66667c0,-0.55228 0.44772,-1 1,-1c0.55228,0 1,0.44772 1,1c0,0.55228 -0.44772,1 -1,1c-0.55228,0 -1,-0.44772 -1,-1z" fill="#4e4e4e" stroke="none" stroke-width="0.5" stroke-linecap="butt"/><path d="M246.95834,131.66667c0,-0.55228 0.44772,-1 1,-1c0.55228,0 1,0.44772 1,1c0,0.55228 -0.44772,1 -1,1c-0.55228,0 -1,-0.44772 -1,-1z" fill="#4e4e4e" stroke="none" stroke-width="0.5" stroke-linecap="butt"/><path d="M82.95834,83.66667c0,-0.55228 0.44772,-1 1,-1c0.55228,0 1,0.44772 1,1c0,0.55228 -0.44772,1 -1,1c-0.55228,0 -1,-0.44772 -1,-1z" fill="#4e4e4e" stroke="none" stroke-width="0.5" stroke-linecap="butt"/><path d="M217.95834,10.66667c0,-0.55228 0.44772,-1 1,-1c0.55228,0 1,0.44772 1,1c0,0.55228 -0.44772,1 -1,1c-0.55228,0 -1,-0.44772 -1,-1z" fill="#4e4e4e" stroke="none" stroke-width="0.5" stroke-linecap="butt"/><path d="M274.95834,14.66667c0,-0.55228 0.44772,-1 1,-1c0.55228,0 1,0.44772 1,1c0,0.55228 -0.44772,1 -1,1c-0.55228,0 -1,-0.44772 -1,-1z" fill="#4e4e4e" stroke="none" stroke-width="0.5" stroke-linecap="butt"/><path d="M318.95834,4.66667c0,-0.55228 0.44772,-1 1,-1c0.55228,0 1,0.44772 1,1c0,0.55228 -0.44772,1 -1,1c-0.55228,0 -1,-0.44772 -1,-1z" fill="#4e4e4e" stroke="none" stroke-width="0.5" stroke-linecap="butt"/><path d="M256.95834,-8.33333c0,-0.55228 0.44772,-1 1,-1c0.55228,0 1,0.44772 1,1c0,0.55228 -0.44772,1 -1,1c-0.55228,0 -1,-0.44772 -1,-1z" fill="#4e4e4e" stroke="none" stroke-width="0.5" stroke-linecap="butt"/><path d="M251.95834,5.66667c0,-0.55228 0.44772,-1 1,-1c0.55228,0 1,0.44772 1,1c0,0.55228 -0.44772,1 -1,1c-0.55228,0 -1,-0.44772 -1,-1z" fill="#4e4e4e" stroke="none" stroke-width="0.5" stroke-linecap="butt"/><path d="M175.95834,7.66667c0,-0.55228 0.44772,-1 1,-1c0.55228,0 1,0.44772 1,1c0,0.55228 -0.44772,1 -1,1c-0.55228,0 -1,-0.44772 -1,-1z" fill="#4e4e4e" stroke="none" stroke-width="0.5" stroke-linecap="butt"/><path d="M169.95834,0.66667c0,-0.55228 0.44772,-1 1,-1c0.55228,0 1,0.44772 1,1c0,0.55228 -0.44772,1 -1,1c-0.55228,0 -1,-0.44772 -1,-1z" fill="#4e4e4e" stroke="none" stroke-width="0.5" stroke-linecap="butt"/><path d="M142.95834,8.66667c0,-0.55228 0.44772,-1 1,-1c0.55228,0 1,0.44772 1,1c0,0.55228 -0.44772,1 -1,1c-0.55228,0 -1,-0.44772 -1,-1z" fill="#4e4e4e" stroke="none" stroke-width="0.5" stroke-linecap="butt"/><path d="M134.95834,-2.33333c0,-0.55228 0.44772,-1 1,-1c0.55228,0 1,0.44772 1,1c0,0.55228 -0.44772,1 -1,1c-0.55228,0 -1,-0.44772 -1,-1z" fill="#4e4e4e" stroke="none" stroke-width="0.5" stroke-linecap="butt"/><path d="M232.95834,368.66667c0,-0.55228 0.44772,-1 1,-1c0.55228,0 1,0.44772 1,1c0,0.55228 -0.44772,1 -1,1c-0.55228,0 -1,-0.44772 -1,-1z" fill="#4e4e4e" stroke="none" stroke-width="0.5" stroke-linecap="butt"/><path d="M308.95834,366.66667c0,-0.55228 0.44772,-1 1,-1c0.55228,0 1,0.44772 1,1c0,0.55228 -0.44772,1 -1,1c-0.55228,0 -1,-0.44772 -1,-1z" fill="#4e4e4e" stroke="none" stroke-width="0.5" stroke-linecap="butt"/><path d="M332.95834,321.66667c0,-0.55228 0.44772,-1 1,-1c0.55228,0 1,0.44772 1,1c0,0.55228 -0.44772,1 -1,1c-0.55228,0 -1,-0.44772 -1,-1z" fill="#4e4e4e" stroke="none" stroke-width="0.5" stroke-linecap="butt"/><path d="M366.95834,369.66667c0,-0.55228 0.44772,-1 1,-1c0.55228,0 1,0.44772 1,1c0,0.55228 -0.44772,1 -1,1c-0.55228,0 -1,-0.44772 -1,-1z" fill="#4e4e4e" stroke="none" stroke-width="0.5" stroke-linecap="butt"/><path d="M382.95834,352.66667c0,-0.55228 0.44772,-1 1,-1c0.55228,0 1,0.44772 1,1c0,0.55228 -0.44772,1 -1,1c-0.55228,0 -1,-0.44772 -1,-1z" fill="#4e4e4e" stroke="none" stroke-width="0.5" stroke-linecap="butt"/><path d="M73.45834,211.83334c0,-1.38071 1.11929,-2.5 2.5,-2.5c1.38071,0 2.5,1.11929 2.5,2.5c0,1.38071 -1.11929,2.5 -2.5,2.5c-1.38071,0 -2.5,-1.11929 -2.5,-2.5z" fill="#222222" stroke="none" stroke-width="0.5" stroke-linecap="butt"/><path d="M124.95834,214.5c0,-0.55228 0.44772,-1 1,-1c0.55228,0 1,0.44772 1,1c0,0.55228 -0.44772,1 -1,1c-0.55228,0 -1,-0.44772 -1,-1z" fill="#222222" stroke="none" stroke-width="0.5" stroke-linecap="butt"/><path d="M216.04167,206.5c0,-0.13807 0.11193,-0.25 0.25,-0.25c0.13807,0 0.25,0.11193 0.25,0.25c0,0.13807 -0.11193,0.25 -0.25,0.25c-0.13807,0 -0.25,-0.11193 -0.25,-0.25z" fill="#222222" stroke="none" stroke-width="0.5" stroke-linecap="butt"/><path d="M213.70834,142.16667c0,-0.13807 0.11193,-0.25 0.25,-0.25c0.13807,0 0.25,0.11193 0.25,0.25c0,0.13807 -0.11193,0.25 -0.25,0.25c-0.13807,0 -0.25,-0.11193 -0.25,-0.25z" fill="#222222" stroke="none" stroke-width="0.5" stroke-linecap="butt"/><path d="M242.70834,74.16667c0,-0.13807 0.11193,-0.25 0.25,-0.25c0.13807,0 0.25,0.11193 0.25,0.25c0,0.13807 -0.11193,0.25 -0.25,0.25c-0.13807,0 -0.25,-0.11193 -0.25,-0.25z" fill="#222222" stroke="none" stroke-width="0.5" stroke-linecap="butt"/><path d="M212.70834,53.5c0,-0.13807 0.11193,-0.25 0.25,-0.25c0.13807,0 0.25,0.11193 0.25,0.25c0,0.13807 -0.11193,0.25 -0.25,0.25c-0.13807,0 -0.25,-0.11193 -0.25,-0.25z" fill="#222222" stroke="none" stroke-width="0.5" stroke-linecap="butt"/><path d="M230.37501,313.5c0,-0.13807 0.11193,-0.25 0.25,-0.25c0.13807,0 0.25,0.11193 0.25,0.25c0,0.13807 -0.11193,0.25 -0.25,0.25c-0.13807,0 -0.25,-0.11193 -0.25,-0.25z" fill="#222222" stroke="none" stroke-width="0.5" stroke-linecap="butt"/><path d="M89.70834,339.83334c0,-0.13807 0.11193,-0.25 0.25,-0.25c0.13807,0 0.25,0.11193 0.25,0.25c0,0.13807 -0.11193,0.25 -0.25,0.25c-0.13807,0 -0.25,-0.11193 -0.25,-0.25z" fill="#222222" stroke="none" stroke-width="0.5" stroke-linecap="butt"/><path d="M107.70834,335.16667c0,-0.13807 0.11193,-0.25 0.25,-0.25c0.13807,0 0.25,0.11193 0.25,0.25c0,0.13807 -0.11193,0.25 -0.25,0.25c-0.13807,0 -0.25,-0.11193 -0.25,-0.25z" fill="#222222" stroke="none" stroke-width="0.5" stroke-linecap="butt"/><path d="M100.04167,314.83334c0,-0.13807 0.11193,-0.25 0.25,-0.25c0.13807,0 0.25,0.11193 0.25,0.25c0,0.13807 -0.11193,0.25 -0.25,0.25c-0.13807,0 -0.25,-0.11193 -0.25,-0.25z" fill="#222222" stroke="none" stroke-width="0.5" stroke-linecap="butt"/><path d="M76.70834,298.83334c0,-0.13807 0.11193,-0.25 0.25,-0.25c0.13807,0 0.25,0.11193 0.25,0.25c0,0.13807 -0.11193,0.25 -0.25,0.25c-0.13807,0 -0.25,-0.11193 -0.25,-0.25z" fill="#222222" stroke="none" stroke-width="0.5" stroke-linecap="butt"/><path d="M92.37501,293.16667c0,-0.13807 0.11193,-0.25 0.25,-0.25c0.13807,0 0.25,0.11193 0.25,0.25c0,0.13807 -0.11193,0.25 -0.25,0.25c-0.13807,0 -0.25,-0.11193 -0.25,-0.25z" fill="#222222" stroke="none" stroke-width="0.5" stroke-linecap="butt"/><path d="M294.70834,273.5c0,-0.13807 0.11193,-0.25 0.25,-0.25c0.13807,0 0.25,0.11193 0.25,0.25c0,0.13807 -0.11193,0.25 -0.25,0.25c-0.13807,0 -0.25,-0.11193 -0.25,-0.25z" fill="#222222" stroke="none" stroke-width="0.5" stroke-linecap="butt"/><path d="M320.70834,303.83334c0,-0.13807 0.11193,-0.25 0.25,-0.25c0.13807,0 0.25,0.11193 0.25,0.25c0,0.13807 -0.11193,0.25 -0.25,0.25c-0.13807,0 -0.25,-0.11193 -0.25,-0.25z" fill="#222222" stroke="none" stroke-width="0.5" stroke-linecap="butt"/><path d="M320.70834,325.16667c0,-0.13807 0.11193,-0.25 0.25,-0.25c0.13807,0 0.25,0.11193 0.25,0.25c0,0.13807 -0.11193,0.25 -0.25,0.25c-0.13807,0 -0.25,-0.11193 -0.25,-0.25z" fill="#222222" stroke="none" stroke-width="0.5" stroke-linecap="butt"/><path d="M350.37501,350.16667c0,-0.13807 0.11193,-0.25 0.25,-0.25c0.13807,0 0.25,0.11193 0.25,0.25c0,0.13807 -0.11193,0.25 -0.25,0.25c-0.13807,0 -0.25,-0.11193 -0.25,-0.25z" fill="#222222" stroke="none" stroke-width="0.5" stroke-linecap="butt"/><path d="M379.70834,327.16667c0,-0.13807 0.11193,-0.25 0.25,-0.25c0.13807,0 0.25,0.11193 0.25,0.25c0,0.13807 -0.11193,0.25 -0.25,0.25c-0.13807,0 -0.25,-0.11193 -0.25,-0.25z" fill="#222222" stroke="none" stroke-width="0.5" stroke-linecap="butt"/><path d="M393.70834,274.5c0,-0.13807 0.11193,-0.25 0.25,-0.25c0.13807,0 0.25,0.11193 0.25,0.25c0,0.13807 -0.11193,0.25 -0.25,0.25c-0.13807,0 -0.25,-0.11193 -0.25,-0.25z" fill="#222222" stroke="none" stroke-width="0.5" stroke-linecap="butt"/><path d="M357.37501,236.5c0,-0.13807 0.11193,-0.25 0.25,-0.25c0.13807,0 0.25,0.11193 0.25,0.25c0,0.13807 -0.11193,0.25 -0.25,0.25c-0.13807,0 -0.25,-0.11193 -0.25,-0.25z" fill="#222222" stroke="none" stroke-width="0.5" stroke-linecap="butt"/><path d="M382.70834,214.83334c0,-0.13807 0.11193,-0.25 0.25,-0.25c0.13807,0 0.25,0.11193 0.25,0.25c0,0.13807 -0.11193,0.25 -0.25,0.25c-0.13807,0 -0.25,-0.11193 -0.25,-0.25z" fill="#222222" stroke="none" stroke-width="0.5" stroke-linecap="butt"/><path d="M306.70834,184.5c0,-0.13807 0.11193,-0.25 0.25,-0.25c0.13807,0 0.25,0.11193 0.25,0.25c0,0.13807 -0.11193,0.25 -0.25,0.25c-0.13807,0 -0.25,-0.11193 -0.25,-0.25z" fill="#222222" stroke="none" stroke-width="0.5" stroke-linecap="butt"/><path d="M217.70834,190.83334c0,-0.13807 0.11193,-0.25 0.25,-0.25c0.13807,0 0.25,0.11193 0.25,0.25c0,0.13807 -0.11193,0.25 -0.25,0.25c-0.13807,0 -0.25,-0.11193 -0.25,-0.25z" fill="#222222" stroke="none" stroke-width="0.5" stroke-linecap="butt"/><path d="M153.70834,184.5c0,-0.13807 0.11193,-0.25 0.25,-0.25c0.13807,0 0.25,0.11193 0.25,0.25c0,0.13807 -0.11193,0.25 -0.25,0.25c-0.13807,0 -0.25,-0.11193 -0.25,-0.25z" fill="#222222" stroke="none" stroke-width="0.5" stroke-linecap="butt"/><path d="M204.04167,150.16667c0,-0.13807 0.11193,-0.25 0.25,-0.25c0.13807,0 0.25,0.11193 0.25,0.25c0,0.13807 -0.11193,0.25 -0.25,0.25c-0.13807,0 -0.25,-0.11193 -0.25,-0.25z" fill="#222222" stroke="none" stroke-width="0.5" stroke-linecap="butt"/><path d="M243.04167,118.16667c0,-0.13807 0.11193,-0.25 0.25,-0.25c0.13807,0 0.25,0.11193 0.25,0.25c0,0.13807 -0.11193,0.25 -0.25,0.25c-0.13807,0 -0.25,-0.11193 -0.25,-0.25z" fill="#222222" stroke="none" stroke-width="0.5" stroke-linecap="butt"/><path d="M316.04167,89.83334c0,-0.13807 0.11193,-0.25 0.25,-0.25c0.13807,0 0.25,0.11193 0.25,0.25c0,0.13807 -0.11193,0.25 -0.25,0.25c-0.13807,0 -0.25,-0.11193 -0.25,-0.25z" fill="#222222" stroke="none" stroke-width="0.5" stroke-linecap="butt"/><path d="M213.37501,46.16667c0,-0.13807 0.11193,-0.25 0.25,-0.25c0.13807,0 0.25,0.11193 0.25,0.25c0,0.13807 -0.11193,0.25 -0.25,0.25c-0.13807,0 -0.25,-0.11193 -0.25,-0.25z" fill="#222222" stroke="none" stroke-width="0.5" stroke-linecap="butt"/><path d="M234.04167,25.5c0,-0.13807 0.11193,-0.25 0.25,-0.25c0.13807,0 0.25,0.11193 0.25,0.25c0,0.13807 -0.11193,0.25 -0.25,0.25c-0.13807,0 -0.25,-0.11193 -0.25,-0.25z" fill="#222222" stroke="none" stroke-width="0.5" stroke-linecap="butt"/><path d="M114.37501,-5.16666c0,-0.13807 0.11193,-0.25 0.25,-0.25c0.13807,0 0.25,0.11193 0.25,0.25c0,0.13807 -0.11193,0.25 -0.25,0.25c-0.13807,0 -0.25,-0.11193 -0.25,-0.25z" fill="#222222" stroke="none" stroke-width="0.5" stroke-linecap="butt"/><path d="M85.04167,3.83334c0,-0.13807 0.11193,-0.25 0.25,-0.25c0.13807,0 0.25,0.11193 0.25,0.25c0,0.13807 -0.11193,0.25 -0.25,0.25c-0.13807,0 -0.25,-0.11193 -0.25,-0.25z" fill="#222222" stroke="none" stroke-width="0.5" stroke-linecap="butt"/><path d="M75.04167,22.83334c0,-0.13807 0.11193,-0.25 0.25,-0.25c0.13807,0 0.25,0.11193 0.25,0.25c0,0.13807 -0.11193,0.25 -0.25,0.25c-0.13807,0 -0.25,-0.11193 -0.25,-0.25z" fill="#222222" stroke="none" stroke-width="0.5" stroke-linecap="butt"/><path d="M82.70834,42.83334c0,-0.13807 0.11193,-0.25 0.25,-0.25c0.13807,0 0.25,0.11193 0.25,0.25c0,0.13807 -0.11193,0.25 -0.25,0.25c-0.13807,0 -0.25,-0.11193 -0.25,-0.25z" fill="#222222" stroke="none" stroke-width="0.5" stroke-linecap="butt"/><path d="M71.70834,57.83334c0,-0.13807 0.11193,-0.25 0.25,-0.25c0.13807,0 0.25,0.11193 0.25,0.25c0,0.13807 -0.11193,0.25 -0.25,0.25c-0.13807,0 -0.25,-0.11193 -0.25,-0.25z" fill="#222222" stroke="none" stroke-width="0.5" stroke-linecap="butt"/><path d="M66.04167,98.5c0,-0.13807 0.11193,-0.25 0.25,-0.25c0.13807,0 0.25,0.11193 0.25,0.25c0,0.13807 -0.11193,0.25 -0.25,0.25c-0.13807,0 -0.25,-0.11193 -0.25,-0.25z" fill="#222222" stroke="none" stroke-width="0.5" stroke-linecap="butt"/><path d="M80.37501,123.16667c0,-0.13807 0.11193,-0.25 0.25,-0.25c0.13807,0 0.25,0.11193 0.25,0.25c0,0.13807 -0.11193,0.25 -0.25,0.25c-0.13807,0 -0.25,-0.11193 -0.25,-0.25z" fill="#222222" stroke="none" stroke-width="0.5" stroke-linecap="butt"/><path d="M72.70834,147.5c0,-0.13807 0.11193,-0.25 0.25,-0.25c0.13807,0 0.25,0.11193 0.25,0.25c0,0.13807 -0.11193,0.25 -0.25,0.25c-0.13807,0 -0.25,-0.11193 -0.25,-0.25z" fill="#222222" stroke="none" stroke-width="0.5" stroke-linecap="butt"/><path d="M84.37501,175.83334c0,-0.13807 0.11193,-0.25 0.25,-0.25c0.13807,0 0.25,0.11193 0.25,0.25c0,0.13807 -0.11193,0.25 -0.25,0.25c-0.13807,0 -0.25,-0.11193 -0.25,-0.25z" fill="#222222" stroke="none" stroke-width="0.5" stroke-linecap="butt"/><path d="M129.37501,123.83334c0,-0.13807 0.11193,-0.25 0.25,-0.25c0.13807,0 0.25,0.11193 0.25,0.25c0,0.13807 -0.11193,0.25 -0.25,0.25c-0.13807,0 -0.25,-0.11193 -0.25,-0.25z" fill="#222222" stroke="none" stroke-width="0.5" stroke-linecap="butt"/><path d="M365.04167,25.5c0,-0.13807 0.11193,-0.25 0.25,-0.25c0.13807,0 0.25,0.11193 0.25,0.25c0,0.13807 -0.11193,0.25 -0.25,0.25c-0.13807,0 -0.25,-0.11193 -0.25,-0.25z" fill="#222222" stroke="none" stroke-width="0.5" stroke-linecap="butt"/><path d="M365.70834,12.5c0,-0.13807 0.11193,-0.25 0.25,-0.25c0.13807,0 0.25,0.11193 0.25,0.25c0,0.13807 -0.11193,0.25 -0.25,0.25c-0.13807,0 -0.25,-0.11193 -0.25,-0.25z" fill="#222222" stroke="none" stroke-width="0.5" stroke-linecap="butt"/><path d="M384.37501,19.5c0,-0.13807 0.11193,-0.25 0.25,-0.25c0.13807,0 0.25,0.11193 0.25,0.25c0,0.13807 -0.11193,0.25 -0.25,0.25c-0.13807,0 -0.25,-0.11193 -0.25,-0.25z" fill="#222222" stroke="none" stroke-width="0.5" stroke-linecap="butt"/><path d="M384.04167,56.16667c0,-0.13807 0.11193,-0.25 0.25,-0.25c0.13807,0 0.25,0.11193 0.25,0.25c0,0.13807 -0.11193,0.25 -0.25,0.25c-0.13807,0 -0.25,-0.11193 -0.25,-0.25z" fill="#222222" stroke="none" stroke-width="0.5" stroke-linecap="butt"/><path d="M385.04167,94.83334c0,-0.13807 0.11193,-0.25 0.25,-0.25c0.13807,0 0.25,0.11193 0.25,0.25c0,0.13807 -0.11193,0.25 -0.25,0.25c-0.13807,0 -0.25,-0.11193 -0.25,-0.25z" fill="#222222" stroke="none" stroke-width="0.5" stroke-linecap="butt"/><path d="M395.04167,139.5c0,-0.13807 0.11193,-0.25 0.25,-0.25c0.13807,0 0.25,0.11193 0.25,0.25c0,0.13807 -0.11193,0.25 -0.25,0.25c-0.13807,0 -0.25,-0.11193 -0.25,-0.25z" fill="#222222" stroke="none" stroke-width="0.5" stroke-linecap="butt"/><path d="M221.79167,79.5c0,-0.27614 0.22386,-0.5 0.5,-0.5c0.27614,0 0.5,0.22386 0.5,0.5c0,0.27614 -0.22386,0.5 -0.5,0.5c-0.27614,0 -0.5,-0.22386 -0.5,-0.5z" fill="#222222" stroke="none" stroke-width="0.5" stroke-linecap="butt"/><path d="M234.45834,37.83334c0,-0.27614 0.22386,-0.5 0.5,-0.5c0.27614,0 0.5,0.22386 0.5,0.5c0,0.27614 -0.22386,0.5 -0.5,0.5c-0.27614,0 -0.5,-0.22386 -0.5,-0.5z" fill="#222222" stroke="none" stroke-width="0.5" stroke-linecap="butt"/><path d="M276.45834,24.16667c0,-0.27614 0.22386,-0.5 0.5,-0.5c0.27614,0 0.5,0.22386 0.5,0.5c0,0.27614 -0.22386,0.5 -0.5,0.5c-0.27614,0 -0.5,-0.22386 -0.5,-0.5z" fill="#222222" stroke="none" stroke-width="0.5" stroke-linecap="butt"/><path d="M312.12501,29.16667c0,-0.27614 0.22386,-0.5 0.5,-0.5c0.27614,0 0.5,0.22386 0.5,0.5c0,0.27614 -0.22386,0.5 -0.5,0.5c-0.27614,0 -0.5,-0.22386 -0.5,-0.5z" fill="#222222" stroke="none" stroke-width="0.5" stroke-linecap="butt"/><path d="M299.45834,-2.16666c0,-0.27614 0.22386,-0.5 0.5,-0.5c0.27614,0 0.5,0.22386 0.5,0.5c0,0.27614 -0.22386,0.5 -0.5,0.5c-0.27614,0 -0.5,-0.22386 -0.5,-0.5z" fill="#222222" stroke="none" stroke-width="0.5" stroke-linecap="butt"/><path d="M279.79167,-17.5c0,-0.27614 0.22386,-0.5 0.5,-0.5c0.27614,0 0.5,0.22386 0.5,0.5c0,0.27614 -0.22386,0.5 -0.5,0.5c-0.27614,0 -0.5,-0.22386 -0.5,-0.5z" fill="#222222" stroke="none" stroke-width="0.5" stroke-linecap="butt"/><path d="M210.45834,-12.83333c0,-0.27614 0.22386,-0.5 0.5,-0.5c0.27614,0 0.5,0.22386 0.5,0.5c0,0.27614 -0.22386,0.5 -0.5,0.5c-0.27614,0 -0.5,-0.22386 -0.5,-0.5z" fill="#222222" stroke="none" stroke-width="0.5" stroke-linecap="butt"/><path d="M206.79167,-2.16666c0,-0.27614 0.22386,-0.5 0.5,-0.5c0.27614,0 0.5,0.22386 0.5,0.5c0,0.27614 -0.22386,0.5 -0.5,0.5c-0.27614,0 -0.5,-0.22386 -0.5,-0.5z" fill="#222222" stroke="none" stroke-width="0.5" stroke-linecap="butt"/><path d="M165.12501,-14.83333c0,-0.27614 0.22386,-0.5 0.5,-0.5c0.27614,0 0.5,0.22386 0.5,0.5c0,0.27614 -0.22386,0.5 -0.5,0.5c-0.27614,0 -0.5,-0.22386 -0.5,-0.5z" fill="#222222" stroke="none" stroke-width="0.5" stroke-linecap="butt"/><path d="M144.12501,-2.16666c0,-0.27614 0.22386,-0.5 0.5,-0.5c0.27614,0 0.5,0.22386 0.5,0.5c0,0.27614 -0.22386,0.5 -0.5,0.5c-0.27614,0 -0.5,-0.22386 -0.5,-0.5z" fill="#222222" stroke="none" stroke-width="0.5" stroke-linecap="butt"/><path d="M116.12501,3.83334c0,-0.27614 0.22386,-0.5 0.5,-0.5c0.27614,0 0.5,0.22386 0.5,0.5c0,0.27614 -0.22386,0.5 -0.5,0.5c-0.27614,0 -0.5,-0.22386 -0.5,-0.5z" fill="#222222" stroke="none" stroke-width="0.5" stroke-linecap="butt"/><path d="M117.45834,-12.5c0,-0.27614 0.22386,-0.5 0.5,-0.5c0.27614,0 0.5,0.22386 0.5,0.5c0,0.27614 -0.22386,0.5 -0.5,0.5c-0.27614,0 -0.5,-0.22386 -0.5,-0.5z" fill="#222222" stroke="none" stroke-width="0.5" stroke-linecap="butt"/><path d="M93.12501,-9.5c0,-0.27614 0.22386,-0.5 0.5,-0.5c0.27614,0 0.5,0.22386 0.5,0.5c0,0.27614 -0.22386,0.5 -0.5,0.5c-0.27614,0 -0.5,-0.22386 -0.5,-0.5z" fill="#222222" stroke="none" stroke-width="0.5" stroke-linecap="butt"/><path d="M109.79167,15.16667c0,-0.27614 0.22386,-0.5 0.5,-0.5c0.27614,0 0.5,0.22386 0.5,0.5c0,0.27614 -0.22386,0.5 -0.5,0.5c-0.27614,0 -0.5,-0.22386 -0.5,-0.5z" fill="#222222" stroke="none" stroke-width="0.5" stroke-linecap="butt"/><path d="M339.12501,-5.5c0,-0.27614 0.22386,-0.5 0.5,-0.5c0.27614,0 0.5,0.22386 0.5,0.5c0,0.27614 -0.22386,0.5 -0.5,0.5c-0.27614,0 -0.5,-0.22386 -0.5,-0.5z" fill="#222222" stroke="none" stroke-width="0.5" stroke-linecap="butt"/><path d="M339.12501,8.16667c0,-0.27614 0.22386,-0.5 0.5,-0.5c0.27614,0 0.5,0.22386 0.5,0.5c0,0.27614 -0.22386,0.5 -0.5,0.5c-0.27614,0 -0.5,-0.22386 -0.5,-0.5z" fill="#222222" stroke="none" stroke-width="0.5" stroke-linecap="butt"/><path d="M341.79167,14.16667c0,-0.27614 0.22386,-0.5 0.5,-0.5c0.27614,0 0.5,0.22386 0.5,0.5c0,0.27614 -0.22386,0.5 -0.5,0.5c-0.27614,0 -0.5,-0.22386 -0.5,-0.5z" fill="#222222" stroke="none" stroke-width="0.5" stroke-linecap="butt"/><path d="M361.79167,-2.5c0,-0.27614 0.22386,-0.5 0.5,-0.5c0.27614,0 0.5,0.22386 0.5,0.5c0,0.27614 -0.22386,0.5 -0.5,0.5c-0.27614,0 -0.5,-0.22386 -0.5,-0.5z" fill="#222222" stroke="none" stroke-width="0.5" stroke-linecap="butt"/><path d="M371.45834,81.5c0,-0.27614 0.22386,-0.5 0.5,-0.5c0.27614,0 0.5,0.22386 0.5,0.5c0,0.27614 -0.22386,0.5 -0.5,0.5c-0.27614,0 -0.5,-0.22386 -0.5,-0.5z" fill="#222222" stroke="none" stroke-width="0.5" stroke-linecap="butt"/><path d="M355.12501,77.16667c0,-0.27614 0.22386,-0.5 0.5,-0.5c0.27614,0 0.5,0.22386 0.5,0.5c0,0.27614 -0.22386,0.5 -0.5,0.5c-0.27614,0 -0.5,-0.22386 -0.5,-0.5z" fill="#222222" stroke="none" stroke-width="0.5" stroke-linecap="butt"/><path d="M280.79167,65.5c0,-0.27614 0.22386,-0.5 0.5,-0.5c0.27614,0 0.5,0.22386 0.5,0.5c0,0.27614 -0.22386,0.5 -0.5,0.5c-0.27614,0 -0.5,-0.22386 -0.5,-0.5z" fill="#222222" stroke="none" stroke-width="0.5" stroke-linecap="butt"/><path d="M230.12501,140.16667c0,-0.27614 0.22386,-0.5 0.5,-0.5c0.27614,0 0.5,0.22386 0.5,0.5c0,0.27614 -0.22386,0.5 -0.5,0.5c-0.27614,0 -0.5,-0.22386 -0.5,-0.5z" fill="#222222" stroke="none" stroke-width="0.5" stroke-linecap="butt"/><path d="M153.79167,182.16667c0,-0.27614 0.22386,-0.5 0.5,-0.5c0.27614,0 0.5,0.22386 0.5,0.5c0,0.27614 -0.22386,0.5 -0.5,0.5c-0.27614,0 -0.5,-0.22386 -0.5,-0.5z" fill="#222222" stroke="none" stroke-width="0.5" stroke-linecap="butt"/><path d="M212.12501,192.16667c0,-0.27614 0.22386,-0.5 0.5,-0.5c0.27614,0 0.5,0.22386 0.5,0.5c0,0.27614 -0.22386,0.5 -0.5,0.5c-0.27614,0 -0.5,-0.22386 -0.5,-0.5z" fill="#222222" stroke="none" stroke-width="0.5" stroke-linecap="butt"/><path d="M196.12501,248.5c0,-0.27614 0.22386,-0.5 0.5,-0.5c0.27614,0 0.5,0.22386 0.5,0.5c0,0.27614 -0.22386,0.5 -0.5,0.5c-0.27614,0 -0.5,-0.22386 -0.5,-0.5z" fill="#222222" stroke="none" stroke-width="0.5" stroke-linecap="butt"/><path d="M225.12501,255.83334c0,-0.27614 0.22386,-0.5 0.5,-0.5c0.27614,0 0.5,0.22386 0.5,0.5c0,0.27614 -0.22386,0.5 -0.5,0.5c-0.27614,0 -0.5,-0.22386 -0.5,-0.5z" fill="#222222" stroke="none" stroke-width="0.5" stroke-linecap="butt"/><path d="M241.12501,287.83334c0,-0.27614 0.22386,-0.5 0.5,-0.5c0.27614,0 0.5,0.22386 0.5,0.5c0,0.27614 -0.22386,0.5 -0.5,0.5c-0.27614,0 -0.5,-0.22386 -0.5,-0.5z" fill="#222222" stroke="none" stroke-width="0.5" stroke-linecap="butt"/><path d="M186.79167,229.5c0,-0.27614 0.22386,-0.5 0.5,-0.5c0.27614,0 0.5,0.22386 0.5,0.5c0,0.27614 -0.22386,0.5 -0.5,0.5c-0.27614,0 -0.5,-0.22386 -0.5,-0.5z" fill="#222222" stroke="none" stroke-width="0.5" stroke-linecap="butt"/><path d="M198.79167,285.16667c0,-0.27614 0.22386,-0.5 0.5,-0.5c0.27614,0 0.5,0.22386 0.5,0.5c0,0.27614 -0.22386,0.5 -0.5,0.5c-0.27614,0 -0.5,-0.22386 -0.5,-0.5z" fill="#222222" stroke="none" stroke-width="0.5" stroke-linecap="butt"/><path d="M234.45834,312.16667c0,-0.27614 0.22386,-0.5 0.5,-0.5c0.27614,0 0.5,0.22386 0.5,0.5c0,0.27614 -0.22386,0.5 -0.5,0.5c-0.27614,0 -0.5,-0.22386 -0.5,-0.5z" fill="#222222" stroke="none" stroke-width="0.5" stroke-linecap="butt"/><path d="M198.12501,335.83334c0,-0.27614 0.22386,-0.5 0.5,-0.5c0.27614,0 0.5,0.22386 0.5,0.5c0,0.27614 -0.22386,0.5 -0.5,0.5c-0.27614,0 -0.5,-0.22386 -0.5,-0.5z" fill="#222222" stroke="none" stroke-width="0.5" stroke-linecap="butt"/><path d="M155.12501,333.16667c0,-0.27614 0.22386,-0.5 0.5,-0.5c0.27614,0 0.5,0.22386 0.5,0.5c0,0.27614 -0.22386,0.5 -0.5,0.5c-0.27614,0 -0.5,-0.22386 -0.5,-0.5z" fill="#222222" stroke="none" stroke-width="0.5" stroke-linecap="butt"/><path d="M160.45834,359.16667c0,-0.27614 0.22386,-0.5 0.5,-0.5c0.27614,0 0.5,0.22386 0.5,0.5c0,0.27614 -0.22386,0.5 -0.5,0.5c-0.27614,0 -0.5,-0.22386 -0.5,-0.5z" fill="#222222" stroke="none" stroke-width="0.5" stroke-linecap="butt"/><path d="M207.79167,366.16667c0,-0.27614 0.22386,-0.5 0.5,-0.5c0.27614,0 0.5,0.22386 0.5,0.5c0,0.27614 -0.22386,0.5 -0.5,0.5c-0.27614,0 -0.5,-0.22386 -0.5,-0.5z" fill="#222222" stroke="none" stroke-width="0.5" stroke-linecap="butt"/><path d="M152.79167,374.83334c0,-0.27614 0.22386,-0.5 0.5,-0.5c0.27614,0 0.5,0.22386 0.5,0.5c0,0.27614 -0.22386,0.5 -0.5,0.5c-0.27614,0 -0.5,-0.22386 -0.5,-0.5z" fill="#222222" stroke="none" stroke-width="0.5" stroke-linecap="butt"/><path d="M116.12501,361.83334c0,-0.27614 0.22386,-0.5 0.5,-0.5c0.27614,0 0.5,0.22386 0.5,0.5c0,0.27614 -0.22386,0.5 -0.5,0.5c-0.27614,0 -0.5,-0.22386 -0.5,-0.5z" fill="#222222" stroke="none" stroke-width="0.5" stroke-linecap="butt"/><path d="M94.79167,331.16667c0,-0.27614 0.22386,-0.5 0.5,-0.5c0.27614,0 0.5,0.22386 0.5,0.5c0,0.27614 -0.22386,0.5 -0.5,0.5c-0.27614,0 -0.5,-0.22386 -0.5,-0.5z" fill="#222222" stroke="none" stroke-width="0.5" stroke-linecap="butt"/><path d="M112.12501,325.16667c0,-0.27614 0.22386,-0.5 0.5,-0.5c0.27614,0 0.5,0.22386 0.5,0.5c0,0.27614 -0.22386,0.5 -0.5,0.5c-0.27614,0 -0.5,-0.22386 -0.5,-0.5z" fill="#222222" stroke="none" stroke-width="0.5" stroke-linecap="butt"/><path d="M110.12501,304.5c0,-0.27614 0.22386,-0.5 0.5,-0.5c0.27614,0 0.5,0.22386 0.5,0.5c0,0.27614 -0.22386,0.5 -0.5,0.5c-0.27614,0 -0.5,-0.22386 -0.5,-0.5z" fill="#222222" stroke="none" stroke-width="0.5" stroke-linecap="butt"/><path d="M88.12501,304.83334c0,-0.27614 0.22386,-0.5 0.5,-0.5c0.27614,0 0.5,0.22386 0.5,0.5c0,0.27614 -0.22386,0.5 -0.5,0.5c-0.27614,0 -0.5,-0.22386 -0.5,-0.5z" fill="#222222" stroke="none" stroke-width="0.5" stroke-linecap="butt"/><path d="M86.45834,278.83334c0,-0.27614 0.22386,-0.5 0.5,-0.5c0.27614,0 0.5,0.22386 0.5,0.5c0,0.27614 -0.22386,0.5 -0.5,0.5c-0.27614,0 -0.5,-0.22386 -0.5,-0.5z" fill="#222222" stroke="none" stroke-width="0.5" stroke-linecap="butt"/><path d="M87.12501,246.5c0,-0.27614 0.22386,-0.5 0.5,-0.5c0.27614,0 0.5,0.22386 0.5,0.5c0,0.27614 -0.22386,0.5 -0.5,0.5c-0.27614,0 -0.5,-0.22386 -0.5,-0.5z" fill="#222222" stroke="none" stroke-width="0.5" stroke-linecap="butt"/><path d="M88.12501,222.16667c0,-0.27614 0.22386,-0.5 0.5,-0.5c0.27614,0 0.5,0.22386 0.5,0.5c0,0.27614 -0.22386,0.5 -0.5,0.5c-0.27614,0 -0.5,-0.22386 -0.5,-0.5z" fill="#222222" stroke="none" stroke-width="0.5" stroke-linecap="butt"/><path d="M109.79167,206.83334c0,-0.27614 0.22386,-0.5 0.5,-0.5c0.27614,0 0.5,0.22386 0.5,0.5c0,0.27614 -0.22386,0.5 -0.5,0.5c-0.27614,0 -0.5,-0.22386 -0.5,-0.5z" fill="#222222" stroke="none" stroke-width="0.5" stroke-linecap="butt"/><path d="M289.62501,273.83334c0,-0.55228 0.44772,-1 1,-1c0.55228,0 1,0.44772 1,1c0,0.55228 -0.44772,1 -1,1c-0.55228,0 -1,-0.44772 -1,-1z" fill="#222222" stroke="none" stroke-width="0.5" stroke-linecap="butt"/><path d="M286.95834,210.5c0,-0.55228 0.44772,-1 1,-1c0.55228,0 1,0.44772 1,1c0,0.55228 -0.44772,1 -1,1c-0.55228,0 -1,-0.44772 -1,-1z" fill="#222222" stroke="none" stroke-width="0.5" stroke-linecap="butt"/><path d="M357.29167,226.5c0,-0.55228 0.44772,-1 1,-1c0.55228,0 1,0.44772 1,1c0,0.55228 -0.44772,1 -1,1c-0.55228,0 -1,-0.44772 -1,-1z" fill="#222222" stroke="none" stroke-width="0.5" stroke-linecap="butt"/><path d="M377.29167,262.5c0,-0.55228 0.44772,-1 1,-1c0.55228,0 1,0.44772 1,1c0,0.55228 -0.44772,1 -1,1c-0.55228,0 -1,-0.44772 -1,-1z" fill="#222222" stroke="none" stroke-width="0.5" stroke-linecap="butt"/><path d="M391.29167,311.16667c0,-0.55228 0.44772,-1 1,-1c0.55228,0 1,0.44772 1,1c0,0.55228 -0.44772,1 -1,1c-0.55228,0 -1,-0.44772 -1,-1z" fill="#222222" stroke="none" stroke-width="0.5" stroke-linecap="butt"/><path d="M365.95834,340.16667c0,-0.55228 0.44772,-1 1,-1c0.55228,0 1,0.44772 1,1c0,0.55228 -0.44772,1 -1,1c-0.55228,0 -1,-0.44772 -1,-1z" fill="#222222" stroke="none" stroke-width="0.5" stroke-linecap="butt"/><path d="M223.29167,208.5c0,-0.55228 0.44772,-1 1,-1c0.55228,0 1,0.44772 1,1c0,0.55228 -0.44772,1 -1,1c-0.55228,0 -1,-0.44772 -1,-1z" fill="#222222" stroke="none" stroke-width="0.5" stroke-linecap="butt"/><path d="M173.95834,190.83334c0,-0.55228 0.44772,-1 1,-1c0.55228,0 1,0.44772 1,1c0,0.55228 -0.44772,1 -1,1c-0.55228,0 -1,-0.44772 -1,-1z" fill="#222222" stroke="none" stroke-width="0.5" stroke-linecap="butt"/><path d="M228.62501,121.5c0,-0.55228 0.44772,-1 1,-1c0.55228,0 1,0.44772 1,1c0,0.55228 -0.44772,1 -1,1c-0.55228,0 -1,-0.44772 -1,-1z" fill="#222222" stroke="none" stroke-width="0.5" stroke-linecap="butt"/><path d="M131.95834,123.83334c0,-0.55228 0.44772,-1 1,-1c0.55228,0 1,0.44772 1,1c0,0.55228 -0.44772,1 -1,1c-0.55228,0 -1,-0.44772 -1,-1z" fill="#222222" stroke="none" stroke-width="0.5" stroke-linecap="butt"/><path d="M291.95834,155.83334c0,-0.55228 0.44772,-1 1,-1c0.55228,0 1,0.44772 1,1c0,0.55228 -0.44772,1 -1,1c-0.55228,0 -1,-0.44772 -1,-1z" fill="#717171" stroke="none" stroke-width="0.5" stroke-linecap="butt"/><path d="M311.62501,112.83334c0,-0.55228 0.44772,-1 1,-1c0.55228,0 1,0.44772 1,1c0,0.55228 -0.44772,1 -1,1c-0.55228,0 -1,-0.44772 -1,-1z" fill="#717171" stroke="none" stroke-width="0.5" stroke-linecap="butt"/><path d="M174.62501,57.83334c0,-0.55228 0.44772,-1 1,-1c0.55228,0 1,0.44772 1,1c0,0.55228 -0.44772,1 -1,1c-0.55228,0 -1,-0.44772 -1,-1z" fill="#717171" stroke="none" stroke-width="0.5" stroke-linecap="butt"/><path d="M213.95834,36.83334c0,-0.55228 0.44772,-1 1,-1c0.55228,0 1,0.44772 1,1c0,0.55228 -0.44772,1 -1,1c-0.55228,0 -1,-0.44772 -1,-1z" fill="#717171" stroke="none" stroke-width="0.5" stroke-linecap="butt"/><path d="M117.37501,72.16667c0,-0.13807 0.11193,-0.25 0.25,-0.25c0.13807,0 0.25,0.11193 0.25,0.25c0,0.13807 -0.11193,0.25 -0.25,0.25c-0.13807,0 -0.25,-0.11193 -0.25,-0.25z" fill="#717171" stroke="none" stroke-width="0.5" stroke-linecap="butt"/><path d="M144.04167,89.83334c0,-0.13807 0.11193,-0.25 0.25,-0.25c0.13807,0 0.25,0.11193 0.25,0.25c0,0.13807 -0.11193,0.25 -0.25,0.25c-0.13807,0 -0.25,-0.11193 -0.25,-0.25z" fill="#717171" stroke="none" stroke-width="0.5" stroke-linecap="butt"/><path d="M281.70834,32.16667c0,-0.13807 0.11193,-0.25 0.25,-0.25c0.13807,0 0.25,0.11193 0.25,0.25c0,0.13807 -0.11193,0.25 -0.25,0.25c-0.13807,0 -0.25,-0.11193 -0.25,-0.25z" fill="#717171" stroke="none" stroke-width="0.5" stroke-linecap="butt"/><path d="M297.04167,15.16667c0,-0.13807 0.11193,-0.25 0.25,-0.25c0.13807,0 0.25,0.11193 0.25,0.25c0,0.13807 -0.11193,0.25 -0.25,0.25c-0.13807,0 -0.25,-0.11193 -0.25,-0.25z" fill="#717171" stroke="none" stroke-width="0.5" stroke-linecap="butt"/><path d="M64.54167,263.50001c0,-0.9665 0.7835,-1.75 1.75,-1.75c0.9665,0 1.75,0.7835 1.75,1.75c0,0.9665 -0.7835,1.75 -1.75,1.75c-0.9665,0 -1.75,-0.7835 -1.75,-1.75z" fill="#e2e2e2" stroke="none" stroke-width="0.5" stroke-linecap="butt"/><path d="M125.87501,263.50001c0,-0.9665 0.7835,-1.75 1.75,-1.75c0.9665,0 1.75,0.7835 1.75,1.75c0,0.9665 -0.7835,1.75 -1.75,1.75c-0.9665,0 -1.75,-0.7835 -1.75,-1.75z" fill="#e2e2e2" stroke="none" stroke-width="0.5" stroke-linecap="butt"/><path d="M322.87501,225.16668c0,-0.9665 0.7835,-1.75 1.75,-1.75c0.9665,0 1.75,0.7835 1.75,1.75c0,0.9665 -0.7835,1.75 -1.75,1.75c-0.9665,0 -1.75,-0.7835 -1.75,-1.75z" fill="#e2e2e2" stroke="none" stroke-width="0.5" stroke-linecap="butt"/><path d="M231.54167,121.16668c0,-0.9665 0.7835,-1.75 1.75,-1.75c0.9665,0 1.75,0.7835 1.75,1.75c0,0.9665 -0.7835,1.75 -1.75,1.75c-0.9665,0 -1.75,-0.7835 -1.75,-1.75z" fill="#e2e2e2" stroke="none" stroke-width="0.5" stroke-linecap="butt"/><path d="M256.87501,30.83334c0,-0.9665 0.7835,-1.75 1.75,-1.75c0.9665,0 1.75,0.7835 1.75,1.75c0,0.9665 -0.7835,1.75 -1.75,1.75c-0.9665,0 -1.75,-0.7835 -1.75,-1.75z" fill="#e2e2e2" stroke="none" stroke-width="0.5" stroke-linecap="butt"/><path d="M197.37501,55.5c0,-0.13807 0.11193,-0.25 0.25,-0.25c0.13807,0 0.25,0.11193 0.25,0.25c0,0.13807 -0.11193,0.25 -0.25,0.25c-0.13807,0 -0.25,-0.11193 -0.25,-0.25z" fill="#666666" stroke="none" stroke-width="0.5" stroke-linecap="butt"/><path d="M216.04167,29.83334c0,-0.13807 0.11193,-0.25 0.25,-0.25c0.13807,0 0.25,0.11193 0.25,0.25c0,0.13807 -0.11193,0.25 -0.25,0.25c-0.13807,0 -0.25,-0.11193 -0.25,-0.25z" fill="#666666" stroke="none" stroke-width="0.5" stroke-linecap="butt"/><path d="M226.37501,22.5c0,-0.13807 0.11193,-0.25 0.25,-0.25c0.13807,0 0.25,0.11193 0.25,0.25c0,0.13807 -0.11193,0.25 -0.25,0.25c-0.13807,0 -0.25,-0.11193 -0.25,-0.25z" fill="#666666" stroke="none" stroke-width="0.5" stroke-linecap="butt"/><path d="M243.37501,39.16667c0,-0.13807 0.11193,-0.25 0.25,-0.25c0.13807,0 0.25,0.11193 0.25,0.25c0,0.13807 -0.11193,0.25 -0.25,0.25c-0.13807,0 -0.25,-0.11193 -0.25,-0.25z" fill="#666666" stroke="none" stroke-width="0.5" stroke-linecap="butt"/><path d="M248.70834,65.5c0,-0.13807 0.11193,-0.25 0.25,-0.25c0.13807,0 0.25,0.11193 0.25,0.25c0,0.13807 -0.11193,0.25 -0.25,0.25c-0.13807,0 -0.25,-0.11193 -0.25,-0.25z" fill="#666666" stroke="none" stroke-width="0.5" stroke-linecap="butt"/><path d="M273.04167,74.83334c0,-0.13807 0.11193,-0.25 0.25,-0.25c0.13807,0 0.25,0.11193 0.25,0.25c0,0.13807 -0.11193,0.25 -0.25,0.25c-0.13807,0 -0.25,-0.11193 -0.25,-0.25z" fill="#666666" stroke="none" stroke-width="0.5" stroke-linecap="butt"/><path d="M303.37501,198.16667c0,-0.13807 0.11193,-0.25 0.25,-0.25c0.13807,0 0.25,0.11193 0.25,0.25c0,0.13807 -0.11193,0.25 -0.25,0.25c-0.13807,0 -0.25,-0.11193 -0.25,-0.25z" fill="#666666" stroke="none" stroke-width="0.5" stroke-linecap="butt"/><path d="M330.70834,212.16667c0,-0.13807 0.11193,-0.25 0.25,-0.25c0.13807,0 0.25,0.11193 0.25,0.25c0,0.13807 -0.11193,0.25 -0.25,0.25c-0.13807,0 -0.25,-0.11193 -0.25,-0.25z" fill="#666666" stroke="none" stroke-width="0.5" stroke-linecap="butt"/><path d="M326.04167,220.16667c0,-0.13807 0.11193,-0.25 0.25,-0.25c0.13807,0 0.25,0.11193 0.25,0.25c0,0.13807 -0.11193,0.25 -0.25,0.25c-0.13807,0 -0.25,-0.11193 -0.25,-0.25z" fill="#666666" stroke="none" stroke-width="0.5" stroke-linecap="butt"/><path d="M332.04167,236.5c0,-0.13807 0.11193,-0.25 0.25,-0.25c0.13807,0 0.25,0.11193 0.25,0.25c0,0.13807 -0.11193,0.25 -0.25,0.25c-0.13807,0 -0.25,-0.11193 -0.25,-0.25z" fill="#666666" stroke="none" stroke-width="0.5" stroke-linecap="butt"/><path d="M222.29167,321.25001c0.25,0 0.25,0.25 0.25,0.25c0,0.16667 0,0.83333 0,1c0,0 0,0.25 -0.25,0.25c-0.25,0 -0.25,-0.25 -0.25,-0.25c0,-0.16667 0,-0.33333 0,-0.5v-0.5c0,0 0,-0.25 0.25,-0.25z" fill="#666666" stroke="none" stroke-width="0.5" stroke-linecap="butt"/><path d="M188.87501,266.83334c0,-0.41421 0.33579,-0.75 0.75,-0.75c0.41421,0 0.75,0.33579 0.75,0.75c0,0.41421 -0.33579,0.75 -0.75,0.75c-0.41421,0 -0.75,-0.33579 -0.75,-0.75z" fill="#666666" stroke="none" stroke-width="0.5" stroke-linecap="butt"/><path d="M183.87501,250.83334c0,-0.41421 0.33579,-0.75 0.75,-0.75c0.41421,0 0.75,0.33579 0.75,0.75c0,0.41421 -0.33579,0.75 -0.75,0.75c-0.41421,0 -0.75,-0.33579 -0.75,-0.75z" fill="#666666" stroke="none" stroke-width="0.5" stroke-linecap="butt"/><path d="M186.20834,278.50001c0,-0.41421 0.33579,-0.75 0.75,-0.75c0.41421,0 0.75,0.33579 0.75,0.75c0,0.41421 -0.33579,0.75 -0.75,0.75c-0.41421,0 -0.75,-0.33579 -0.75,-0.75z" fill="#666666" stroke="none" stroke-width="0.5" stroke-linecap="butt"/><path d="M138.87501,287.83334c0,-0.41421 0.33579,-0.75 0.75,-0.75c0.41421,0 0.75,0.33579 0.75,0.75c0,0.41421 -0.33579,0.75 -0.75,0.75c-0.41421,0 -0.75,-0.33579 -0.75,-0.75z" fill="#666666" stroke="none" stroke-width="0.5" stroke-linecap="butt"/><path d="M122.54167,288.83334c0,-0.41421 0.33579,-0.75 0.75,-0.75c0.41421,0 0.75,0.33579 0.75,0.75c0,0.41421 -0.33579,0.75 -0.75,0.75c-0.41421,0 -0.75,-0.33579 -0.75,-0.75z" fill="#666666" stroke="none" stroke-width="0.5" stroke-linecap="butt"/><path d="M121.87501,275.16668c0,-0.41421 0.33579,-0.75 0.75,-0.75c0.41421,0 0.75,0.33579 0.75,0.75c0,0.41421 -0.33579,0.75 -0.75,0.75c-0.41421,0 -0.75,-0.33579 -0.75,-0.75z" fill="#666666" stroke="none" stroke-width="0.5" stroke-linecap="butt"/><path d="M141.54167,257.16668c0,-0.41421 0.33579,-0.75 0.75,-0.75c0.41421,0 0.75,0.33579 0.75,0.75c0,0.41421 -0.33579,0.75 -0.75,0.75c-0.41421,0 -0.75,-0.33579 -0.75,-0.75z" fill="#666666" stroke="none" stroke-width="0.5" stroke-linecap="butt"/><path d="M160.54167,238.16668c0,-0.41421 0.33579,-0.75 0.75,-0.75c0.41421,0 0.75,0.33579 0.75,0.75c0,0.41421 -0.33579,0.75 -0.75,0.75c-0.41421,0 -0.75,-0.33579 -0.75,-0.75z" fill="#666666" stroke="none" stroke-width="0.5" stroke-linecap="butt"/><path d="M221.20834,223.50001c0,-0.41421 0.33579,-0.75 0.75,-0.75c0.41421,0 0.75,0.33579 0.75,0.75c0,0.41421 -0.33579,0.75 -0.75,0.75c-0.41421,0 -0.75,-0.33579 -0.75,-0.75z" fill="#666666" stroke="none" stroke-width="0.5" stroke-linecap="butt"/><path d="M220.87501,203.83334c0,-0.41421 0.33579,-0.75 0.75,-0.75c0.41421,0 0.75,0.33579 0.75,0.75c0,0.41421 -0.33579,0.75 -0.75,0.75c-0.41421,0 -0.75,-0.33579 -0.75,-0.75z" fill="#666666" stroke="none" stroke-width="0.5" stroke-linecap="butt"/><path d="M237.20834,198.16668c0,-0.41421 0.33579,-0.75 0.75,-0.75c0.41421,0 0.75,0.33579 0.75,0.75c0,0.41421 -0.33579,0.75 -0.75,0.75c-0.41421,0 -0.75,-0.33579 -0.75,-0.75z" fill="#666666" stroke="none" stroke-width="0.5" stroke-linecap="butt"/><path d="M200.20834,139.83334c0,-0.41421 0.33579,-0.75 0.75,-0.75c0.41421,0 0.75,0.33579 0.75,0.75c0,0.41421 -0.33579,0.75 -0.75,0.75c-0.41421,0 -0.75,-0.33579 -0.75,-0.75z" fill="#666666" stroke="none" stroke-width="0.5" stroke-linecap="butt"/><path d="M223.87501,114.50001c0,-0.41421 0.33579,-0.75 0.75,-0.75c0.41421,0 0.75,0.33579 0.75,0.75c0,0.41421 -0.33579,0.75 -0.75,0.75c-0.41421,0 -0.75,-0.33579 -0.75,-0.75z" fill="#666666" stroke="none" stroke-width="0.5" stroke-linecap="butt"/><path d="M268.87501,102.83334c0,-0.41421 0.33579,-0.75 0.75,-0.75c0.41421,0 0.75,0.33579 0.75,0.75c0,0.41421 -0.33579,0.75 -0.75,0.75c-0.41421,0 -0.75,-0.33579 -0.75,-0.75z" fill="#666666" stroke="none" stroke-width="0.5" stroke-linecap="butt"/><path d="M247.87501,79.50001c0,-0.41421 0.33579,-0.75 0.75,-0.75c0.41421,0 0.75,0.33579 0.75,0.75c0,0.41421 -0.33579,0.75 -0.75,0.75c-0.41421,0 -0.75,-0.33579 -0.75,-0.75z" fill="#666666" stroke="none" stroke-width="0.5" stroke-linecap="butt"/><path d="M282.20834,69.83334c0,-0.41421 0.33579,-0.75 0.75,-0.75c0.41421,0 0.75,0.33579 0.75,0.75c0,0.41421 -0.33579,0.75 -0.75,0.75c-0.41421,0 -0.75,-0.33579 -0.75,-0.75z" fill="#666666" stroke="none" stroke-width="0.5" stroke-linecap="butt"/><path d="M303.87501,27.5c0,-0.41421 0.33579,-0.75 0.75,-0.75c0.41421,0 0.75,0.33579 0.75,0.75c0,0.41421 -0.33579,0.75 -0.75,0.75c-0.41421,0 -0.75,-0.33579 -0.75,-0.75z" fill="#666666" stroke="none" stroke-width="0.5" stroke-linecap="butt"/><path d="M298.54167,10.5c0,-0.41421 0.33579,-0.75 0.75,-0.75c0.41421,0 0.75,0.33579 0.75,0.75c0,0.41421 -0.33579,0.75 -0.75,0.75c-0.41421,0 -0.75,-0.33579 -0.75,-0.75z" fill="#666666" stroke="none" stroke-width="0.5" stroke-linecap="butt"/><path d="M81.20834,267.16668c0,-0.41421 0.33579,-0.75 0.75,-0.75c0.41421,0 0.75,0.33579 0.75,0.75c0,0.41421 -0.33579,0.75 -0.75,0.75c-0.41421,0 -0.75,-0.33579 -0.75,-0.75z" fill="#ffffff" stroke="none" stroke-width="0.5" stroke-linecap="butt"/><path d="M107.87501,290.16668c0,-0.41421 0.33579,-0.75 0.75,-0.75c0.41421,0 0.75,0.33579 0.75,0.75c0,0.41421 -0.33579,0.75 -0.75,0.75c-0.41421,0 -0.75,-0.33579 -0.75,-0.75z" fill="#ffffff" stroke="none" stroke-width="0.5" stroke-linecap="butt"/><path d="M154.20834,276.50001c0,-0.41421 0.33579,-0.75 0.75,-0.75c0.41421,0 0.75,0.33579 0.75,0.75c0,0.41421 -0.33579,0.75 -0.75,0.75c-0.41421,0 -0.75,-0.33579 -0.75,-0.75z" fill="#ffffff" stroke="none" stroke-width="0.5" stroke-linecap="butt"/><path d="M102.87501,106.83334c0,-0.41421 0.33579,-0.75 0.75,-0.75c0.41421,0 0.75,0.33579 0.75,0.75c0,0.41421 -0.33579,0.75 -0.75,0.75c-0.41421,0 -0.75,-0.33579 -0.75,-0.75z" fill="#ffffff" stroke="none" stroke-width="0.5" stroke-linecap="butt"/><path d="M140.20834,47.5c0,-0.41421 0.33579,-0.75 0.75,-0.75c0.41421,0 0.75,0.33579 0.75,0.75c0,0.41421 -0.33579,0.75 -0.75,0.75c-0.41421,0 -0.75,-0.33579 -0.75,-0.75z" fill="#ffffff" stroke="none" stroke-width="0.5" stroke-linecap="butt"/><path d="M104.87501,48.83334c0,-0.41421 0.33579,-0.75 0.75,-0.75c0.41421,0 0.75,0.33579 0.75,0.75c0,0.41421 -0.33579,0.75 -0.75,0.75c-0.41421,0 -0.75,-0.33579 -0.75,-0.75z" fill="#ffffff" stroke="none" stroke-width="0.5" stroke-linecap="butt"/><path d="M132.87501,19.16667c0,-0.41421 0.33579,-0.75 0.75,-0.75c0.41421,0 0.75,0.33579 0.75,0.75c0,0.41421 -0.33579,0.75 -0.75,0.75c-0.41421,0 -0.75,-0.33579 -0.75,-0.75z" fill="#ffffff" stroke="none" stroke-width="0.5" stroke-linecap="butt"/><path d="M169.54167,76.5c0,-0.41421 0.33579,-0.75 0.75,-0.75c0.41421,0 0.75,0.33579 0.75,0.75c0,0.41421 -0.33579,0.75 -0.75,0.75c-0.41421,0 -0.75,-0.33579 -0.75,-0.75z" fill="#ffffff" stroke="none" stroke-width="0.5" stroke-linecap="butt"/><path d="M139.54167,89.83334c0,-0.41421 0.33579,-0.75 0.75,-0.75c0.41421,0 0.75,0.33579 0.75,0.75c0,0.41421 -0.33579,0.75 -0.75,0.75c-0.41421,0 -0.75,-0.33579 -0.75,-0.75z" fill="#ffffff" stroke="none" stroke-width="0.5" stroke-linecap="butt"/><path d="M256.54167,148.16667c0,-0.41421 0.33579,-0.75 0.75,-0.75c0.41421,0 0.75,0.33579 0.75,0.75c0,0.41421 -0.33579,0.75 -0.75,0.75c-0.41421,0 -0.75,-0.33579 -0.75,-0.75z" fill="#ffffff" stroke="none" stroke-width="0.5" stroke-linecap="butt"/><path d="M218.87501,20.83334c0,-0.41421 0.33579,-0.75 0.75,-0.75c0.41421,0 0.75,0.33579 0.75,0.75c0,0.41421 -0.33579,0.75 -0.75,0.75c-0.41421,0 -0.75,-0.33579 -0.75,-0.75z" fill="#a0a0a0" stroke="none" stroke-width="0.5" stroke-linecap="butt"/><path d="M295.87501,77.16667c0,-0.41421 0.33579,-0.75 0.75,-0.75c0.41421,0 0.75,0.33579 0.75,0.75c0,0.41421 -0.33579,0.75 -0.75,0.75c-0.41421,0 -0.75,-0.33579 -0.75,-0.75z" fill="#a0a0a0" stroke="none" stroke-width="0.5" stroke-linecap="butt"/><path d="M265.20834,100.5c0,-0.41421 0.33579,-0.75 0.75,-0.75c0.41421,0 0.75,0.33579 0.75,0.75c0,0.41421 -0.33579,0.75 -0.75,0.75c-0.41421,0 -0.75,-0.33579 -0.75,-0.75z" fill="#a0a0a0" stroke="none" stroke-width="0.5" stroke-linecap="butt"/><path d="M254.62501,130.58334c-0.75,0 -0.75,-0.75 -0.75,-0.75l0.03849,-0.09616c-0.11111,-0.33333 -0.22222,-0.66667 -0.33333,-1c0,0 -0.23717,-0.71151 0.47434,-0.94868c0.71151,-0.23717 0.94868,0.47434 0.94868,0.47434c0.11111,0.33333 0.22222,0.66667 0.33333,1l0.03849,0.5705c0,0 0,0.75 -0.75,0.75z" fill="#a0a0a0" stroke="none" stroke-width="0.5" stroke-linecap="butt"/><path d="M284.87501,148.5c0,-0.41421 0.33579,-0.75 0.75,-0.75c0.41421,0 0.75,0.33579 0.75,0.75c0,0.41421 -0.33579,0.75 -0.75,0.75c-0.41421,0 -0.75,-0.33579 -0.75,-0.75z" fill="#a0a0a0" stroke="none" stroke-width="0.5" stroke-linecap="butt"/><path d="M250.87501,245.5c0,-0.41421 0.33579,-0.75 0.75,-0.75c0.41421,0 0.75,0.33579 0.75,0.75c0,0.41421 -0.33579,0.75 -0.75,0.75c-0.41421,0 -0.75,-0.33579 -0.75,-0.75z" fill="#a0a0a0" stroke="none" stroke-width="0.5" stroke-linecap="butt"/><path d="M219.87501,221.83334c0,-0.41421 0.33579,-0.75 0.75,-0.75c0.41421,0 0.75,0.33579 0.75,0.75c0,0.41421 -0.33579,0.75 -0.75,0.75c-0.41421,0 -0.75,-0.33579 -0.75,-0.75z" fill="#a0a0a0" stroke="none" stroke-width="0.5" stroke-linecap="butt"/><path d="M211.20834,246.83334c0,-0.41421 0.33579,-0.75 0.75,-0.75c0.41421,0 0.75,0.33579 0.75,0.75c0,0.41421 -0.33579,0.75 -0.75,0.75c-0.41421,0 -0.75,-0.33579 -0.75,-0.75z" fill="#a0a0a0" stroke="none" stroke-width="0.5" stroke-linecap="butt"/><path d="M190.20834,202.5c0,-0.41421 0.33579,-0.75 0.75,-0.75c0.41421,0 0.75,0.33579 0.75,0.75c0,0.41421 -0.33579,0.75 -0.75,0.75c-0.41421,0 -0.75,-0.33579 -0.75,-0.75z" fill="#a0a0a0" stroke="none" stroke-width="0.5" stroke-linecap="butt"/><path d="M198.54167,184.16667c0,-0.41421 0.33579,-0.75 0.75,-0.75c0.41421,0 0.75,0.33579 0.75,0.75c0,0.41421 -0.33579,0.75 -0.75,0.75c-0.41421,0 -0.75,-0.33579 -0.75,-0.75z" fill="#a0a0a0" stroke="none" stroke-width="0.5" stroke-linecap="butt"/><path d="M171.20834,165.5c0,-0.41421 0.33579,-0.75 0.75,-0.75c0.41421,0 0.75,0.33579 0.75,0.75c0,0.41421 -0.33579,0.75 -0.75,0.75c-0.41421,0 -0.75,-0.33579 -0.75,-0.75z" fill="#a0a0a0" stroke="none" stroke-width="0.5" stroke-linecap="butt"/><path d="M221.54167,183.83334c0,-0.41421 0.33579,-0.75 0.75,-0.75c0.41421,0 0.75,0.33579 0.75,0.75c0,0.41421 -0.33579,0.75 -0.75,0.75c-0.41421,0 -0.75,-0.33579 -0.75,-0.75z" fill="#a0a0a0" stroke="none" stroke-width="0.5" stroke-linecap="butt"/><path d="M298.54167,241.83334c0,-0.41421 0.33579,-0.75 0.75,-0.75c0.41421,0 0.75,0.33579 0.75,0.75c0,0.41421 -0.33579,0.75 -0.75,0.75c-0.41421,0 -0.75,-0.33579 -0.75,-0.75z" fill="#a0a0a0" stroke="none" stroke-width="0.5" stroke-linecap="butt"/><path d="M334.20834,305.16668c0,-0.41421 0.33579,-0.75 0.75,-0.75c0.41421,0 0.75,0.33579 0.75,0.75c0,0.41421 -0.33579,0.75 -0.75,0.75c-0.41421,0 -0.75,-0.33579 -0.75,-0.75z" fill="#a0a0a0" stroke="none" stroke-width="0.5" stroke-linecap="butt"/><path d="M309.20834,317.50001c0,-0.41421 0.33579,-0.75 0.75,-0.75c0.41421,0 0.75,0.33579 0.75,0.75c0,0.41421 -0.33579,0.75 -0.75,0.75c-0.41421,0 -0.75,-0.33579 -0.75,-0.75z" fill="#a0a0a0" stroke="none" stroke-width="0.5" stroke-linecap="butt"/><path d="M348.54167,322.16668c0,-0.41421 0.33579,-0.75 0.75,-0.75c0.41421,0 0.75,0.33579 0.75,0.75c0,0.41421 -0.33579,0.75 -0.75,0.75c-0.41421,0 -0.75,-0.33579 -0.75,-0.75z" fill="#a0a0a0" stroke="none" stroke-width="0.5" stroke-linecap="butt"/><path d="M364.54167,315.50001c0,-0.41421 0.33579,-0.75 0.75,-0.75c0.41421,0 0.75,0.33579 0.75,0.75c0,0.41421 -0.33579,0.75 -0.75,0.75c-0.41421,0 -0.75,-0.33579 -0.75,-0.75z" fill="#a0a0a0" stroke="none" stroke-width="0.5" stroke-linecap="butt"/><path d="M239.12501,323.83334c0,-0.82843 0.67157,-1.5 1.5,-1.5c0.82843,0 1.5,0.67157 1.5,1.5c0,0.82843 -0.67157,1.5 -1.5,1.5c-0.82843,0 -1.5,-0.67157 -1.5,-1.5z" fill="#a0a0a0" stroke="none" stroke-width="0.5" stroke-linecap="butt"/><path d="M295.79167,301.50001c0,-0.82843 0.67157,-1.5 1.5,-1.5c0.82843,0 1.5,0.67157 1.5,1.5c0,0.82843 -0.67157,1.5 -1.5,1.5c-0.82843,0 -1.5,-0.67157 -1.5,-1.5z" fill="#a0a0a0" stroke="none" stroke-width="0.5" stroke-linecap="butt"/><path d="M195.79167,266.50001c0,-0.82843 0.67157,-1.5 1.5,-1.5c0.82843,0 1.5,0.67157 1.5,1.5c0,0.82843 -0.67157,1.5 -1.5,1.5c-0.82843,0 -1.5,-0.67157 -1.5,-1.5z" fill="#a0a0a0" stroke="none" stroke-width="0.5" stroke-linecap="butt"/><path d="M169.79167,299.83334c0,-0.82843 0.67157,-1.5 1.5,-1.5c0.82843,0 1.5,0.67157 1.5,1.5c0,0.82843 -0.67157,1.5 -1.5,1.5c-0.82843,0 -1.5,-0.67157 -1.5,-1.5z" fill="#a0a0a0" stroke="none" stroke-width="0.5" stroke-linecap="butt"/><path d="M123.79167,322.83334c0,-0.82843 0.67157,-1.5 1.5,-1.5c0.82843,0 1.5,0.67157 1.5,1.5c0,0.82843 -0.67157,1.5 -1.5,1.5c-0.82843,0 -1.5,-0.67157 -1.5,-1.5z" fill="#a0a0a0" stroke="none" stroke-width="0.5" stroke-linecap="butt"/><path d="M131.12501,349.16668c0,-0.82843 0.67157,-1.5 1.5,-1.5c0.82843,0 1.5,0.67157 1.5,1.5c0,0.82843 -0.67157,1.5 -1.5,1.5c-0.82843,0 -1.5,-0.67157 -1.5,-1.5z" fill="#a0a0a0" stroke="none" stroke-width="0.5" stroke-linecap="butt"/><path d="M110.79167,365.83334c0,-0.82843 0.67157,-1.5 1.5,-1.5c0.82843,0 1.5,0.67157 1.5,1.5c0,0.82843 -0.67157,1.5 -1.5,1.5c-0.82843,0 -1.5,-0.67157 -1.5,-1.5z" fill="#a0a0a0" stroke="none" stroke-width="0.5" stroke-linecap="butt"/><path d="M142.45834,373.50001c0,-0.82843 0.67157,-1.5 1.5,-1.5c0.82843,0 1.5,0.67157 1.5,1.5c0,0.82843 -0.67157,1.5 -1.5,1.5c-0.82843,0 -1.5,-0.67157 -1.5,-1.5z" fill="#a0a0a0" stroke="none" stroke-width="0.5" stroke-linecap="butt"/><path d="M222.12501,376.50001c0,-0.82843 0.67157,-1.5 1.5,-1.5c0.82843,0 1.5,0.67157 1.5,1.5c0,0.82843 -0.67157,1.5 -1.5,1.5c-0.82843,0 -1.5,-0.67157 -1.5,-1.5z" fill="#a0a0a0" stroke="none" stroke-width="0.5" stroke-linecap="butt"/><path d="M279.12501,372.83334c0,-0.82843 0.67157,-1.5 1.5,-1.5c0.82843,0 1.5,0.67157 1.5,1.5c0,0.82843 -0.67157,1.5 -1.5,1.5c-0.82843,0 -1.5,-0.67157 -1.5,-1.5z" fill="#a0a0a0" stroke="none" stroke-width="0.5" stroke-linecap="butt"/><path d="M343.79167,360.83334c0,-0.82843 0.67157,-1.5 1.5,-1.5c0.82843,0 1.5,0.67157 1.5,1.5c0,0.82843 -0.67157,1.5 -1.5,1.5c-0.82843,0 -1.5,-0.67157 -1.5,-1.5z" fill="#a0a0a0" stroke="none" stroke-width="0.5" stroke-linecap="butt"/><path d="M314.95834,346.50001c0,-0.55228 0.44772,-1 1,-1c0.55228,0 1,0.44772 1,1c0,0.55228 -0.44772,1 -1,1c-0.55228,0 -1,-0.44772 -1,-1z" fill="#a0a0a0" stroke="none" stroke-width="0.5" stroke-linecap="butt"/><path d="M266.29167,230.16668c0,-0.55228 0.44772,-1 1,-1c0.55228,0 1,0.44772 1,1c0,0.55228 -0.44772,1 -1,1c-0.55228,0 -1,-0.44772 -1,-1z" fill="#a0a0a0" stroke="none" stroke-width="0.5" stroke-linecap="butt"/><path d="M101.95834,63.16668c0,-0.55228 0.44772,-1 1,-1c0.55228,0 1,0.44772 1,1c0,0.55228 -0.44772,1 -1,1c-0.55228,0 -1,-0.44772 -1,-1z" fill="#a0a0a0" stroke="none" stroke-width="0.5" stroke-linecap="butt"/><path d="M171.65567,335.97171c0,-1.38071 1.11929,-2.5 2.5,-2.5c1.38071,0 2.5,1.11929 2.5,2.5c0,1.38071 -1.11929,2.5 -2.5,2.5c-1.38071,0 -2.5,-1.11929 -2.5,-2.5z" fill="#ffffff" stroke="none" stroke-width="0.5" stroke-linecap="butt"/><path d="M-32.5,609.00001v-646h543v646z" fill="none" stroke="none" stroke-width="0" stroke-linecap="butt"/></g></g></svg>