<svg version="1.1" xmlns="http://www.w3.org/2000/svg" xmlns:xlink="http://www.w3.org/1999/xlink" width="219.16968" height="308.91535" viewBox="0,0,219.16968,308.91535"><g transform="translate(-114.54216,-3.4884)"><g data-paper-data="{&quot;isPaintingLayer&quot;:true}" fill-rule="nonzero" stroke="none" stroke-width="0" stroke-linecap="butt" stroke-linejoin="miter" stroke-miterlimit="10" stroke-dasharray="" stroke-dashoffset="0" style="mix-blend-mode: normal"><g data-paper-data="{&quot;index&quot;:null}" fill="#573007"><path d="M158.01288,280.78395c1.1881,-0.27541 2.6128,0.07299 3.94942,0.90213c2.22928,1.38286 3.36938,3.57927 2.15635,5.53478c-1.21304,1.95551 -4.00358,2.41973 -6.23286,1.03687c-2.22928,-1.38286 -3.0531,-4.08914 -1.84007,-6.04465c0.48573,-0.78303 1.17368,-1.24519 1.96715,-1.42913z"/><path d="M161.03422,284.13075c0.94752,0.58777 1.17313,3.09336 1.96587,2.42849c2.44376,-2.04957 0.3618,2.83011 -0.4333,4.11186c-1.38286,2.22927 -4.31107,2.91544 -6.54035,1.53257c-2.22928,-1.38286 -2.91543,-4.31108 -1.53257,-6.54035c1.38286,-2.22927 4.31107,-2.91544 6.54035,-1.53257z"/><path d="M154.7332,285.90984c2.47763,1.53692 5.77428,3.93823 5.45582,6.01468c-0.07364,0.48018 -1.78377,1.15533 -2.0435,1.57404c-1.38286,2.22927 -5.36951,2.37655 -8.4201,0.48421c-3.0506,-1.89234 -4.40255,-5.23356 -3.01969,-7.46284c1.38286,-2.22927 4.97687,-2.50243 8.02747,-0.61009z"/><path d="M153.37332,286.04694c1.5253,0.94617 1.64076,3.52038 0.2579,5.74965c-0.78581,1.26678 -0.28356,2.79078 -1.36727,3.14334c-0.82339,0.26787 -3.23986,-0.41156 -3.89842,-0.82007c-1.11897,-0.69412 -1.4792,-2.26442 -1.04574,-3.93193c0.1574,-0.60552 0.41946,-1.22386 0.78785,-1.81773c1.38286,-2.22927 3.74038,-3.26944 5.26568,-2.32327z"/><path d="M154.94389,281.33345c0.28629,-0.46152 0.94446,-0.77914 1.41095,-1.17689c0.9566,-0.81565 1.9242,-1.46136 2.94952,-0.82534c0.39206,0.2432 0.53854,1.10463 0.79031,1.56463c0.72771,1.32957 1.02169,2.81791 0.3728,3.86396c-0.87339,1.40797 -2.8179,1.78233 -4.34319,0.83616c-1.5253,-0.94617 -2.05377,-2.85456 -1.18039,-4.26253z"/><path d="M152.5623,280.0735c0.78828,-0.15407 1.56255,-0.42489 2.32803,0.04995c1.5253,0.94617 2.05377,2.85456 1.18039,4.26253c-0.87339,1.40797 -2.8179,1.78233 -4.34319,0.83616c-1.5253,-0.94617 -2.05377,-2.85456 -1.18039,-4.26253c0.43507,-0.70137 1.23273,-0.73317 2.01516,-0.88611z"/><path d="M146.25361,282.82232c0.549,-0.88502 1.35552,-1.51385 2.24534,-1.9417c0.82617,-0.39724 1.71969,-0.64024 2.65733,-0.27738c0.27701,0.10719 0.84801,0.89818 1.111,1.06131c2.11195,1.31008 2.84368,3.95248 1.63438,5.90197c-1.2093,1.94948 -5.4045,3.1831 -7.51644,1.87302c-1.06051,-0.65785 -0.15484,-2.12242 -0.07098,-3.37533c0.08315,-1.24217 -0.66265,-2.27136 -0.06061,-3.2419z"/></g><g data-paper-data="{&quot;index&quot;:null}" fill="#4e2c06"><path d="M163.26941,304.35912c0.06133,-0.69844 0.50578,-1.41496 1.19724,-1.99762c1.15327,-0.97179 2.55695,-1.20325 3.4094,-0.19162c0.85245,1.01164 0.60859,2.61952 -0.54468,3.59131c-1.15327,0.97179 -2.77922,0.93949 -3.63167,-0.07215c-0.34134,-0.40508 -0.47125,-0.86347 -0.4303,-1.32992z"/><path d="M165.63724,303.30462c0.49018,-0.41304 1.89979,-0.08958 1.67777,-0.64139c-0.68442,-1.70104 1.61124,0.30689 2.16998,0.96998c0.97179,1.15327 0.82468,2.87596 -0.32859,3.84775c-1.15327,0.97179 -2.87596,0.82467 -3.84775,-0.32859c-0.97179,-1.15327 -0.82468,-2.87596 0.32859,-3.84775z"/><path d="M165.48606,307.06553c1.28174,-1.08005 3.18195,-2.45359 4.26,-1.9093c0.2493,0.12587 0.31337,1.18089 0.49589,1.39749c0.97179,1.15327 0.34144,3.35835 -1.23671,4.68816c-1.57815,1.32982 -3.64529,1.47294 -4.61708,0.31968c-0.97179,-1.15327 -0.48024,-3.16621 1.09791,-4.49603z"/><path d="M165.64934,311.12528c-0.97178,-1.15326 -1.1199,-2.62718 -0.33083,-3.29209c0.78907,-0.66491 2.21653,-0.26902 3.18833,0.88425c0.55222,0.65534 1.47468,0.65259 1.47414,1.30773c-0.0004,0.49777 -0.80261,1.6973 -1.1433,1.98438c-0.57887,0.48778 -1.50132,0.40467 -2.33537,-0.12956c-0.30287,-0.194 -0.5941,-0.44747 -0.85297,-0.75469z"/><path d="M163.02252,306.13438c-0.20119,-0.23876 -0.25743,-0.6551 -0.39163,-0.98097c-0.2752,-0.66825 -0.45558,-1.31221 0.07485,-1.75916c0.20282,-0.17091 0.69973,-0.09737 0.99602,-0.15295c0.85641,-0.16064 1.72224,-0.05593 2.17824,0.48523c0.61376,0.72838 0.47164,1.85786 -0.31744,2.52277c-0.78907,0.66491 -1.9263,0.61345 -2.54007,-0.11492z"/><path d="M162.03422,308.47066c-0.30573,-0.36284 -0.18089,-0.80445 -0.12496,-1.25934c0.05635,-0.45829 0.0464,-0.92974 0.4424,-1.26342c0.78908,-0.66491 1.9263,-0.61345 2.54007,0.11492c0.61376,0.72838 0.47164,1.85786 -0.31744,2.52277c-0.78907,0.66491 -1.9263,0.61345 -2.54007,-0.11492z"/><path d="M162.28669,311.14935c-0.38581,-0.45785 -0.58567,-1.01075 -0.66084,-1.57336c-0.06979,-0.52236 -0.04327,-1.05401 0.32222,-1.50176c0.10798,-0.13227 0.64209,-0.30331 0.77814,-0.41795c1.09257,-0.92065 2.66719,-0.84941 3.51702,0.15911c0.84982,1.00852 0.776,3.52129 -0.31657,4.44192c-0.54863,0.4623 -1.18756,-0.29381 -1.85737,-0.56305c-0.66405,-0.26693 -1.35952,-0.04285 -1.7826,-0.54493z"/></g><g data-paper-data="{&quot;index&quot;:null}" fill="#573007"><path d="M131.97068,288.3894c0.86555,0.15281 1.58822,0.55731 2.15014,1.12537c0.84138,0.85057 1.32234,2.06785 1.38283,3.35591c0.10088,2.14828 -1.00606,3.67993 -3.16765,3.2983c-2.16159,-0.38163 -3.99568,-2.43251 -4.09656,-4.58079c-0.10088,-2.14828 1.56967,-3.58042 3.73126,-3.19879z"/><path d="M128.4674,288.17696c2.46422,0.43506 4.54363,2.52926 4.64451,4.67753c0.04288,0.9131 -1.78729,1.8183 -0.85161,2.24595c2.88439,1.31832 -2.01074,1.10625 -3.42757,0.8561c-2.46422,-0.43506 -4.54363,-2.52926 -4.64451,-4.67753c-0.10088,-2.14828 1.81499,-3.53711 4.27919,-3.10205z"/><path d="M123.69013,282.32548c2.46421,0.43505 4.57375,3.17086 4.7118,6.11061c0.11212,2.38761 -0.01591,5.66806 -1.7994,6.02233c-0.41243,0.08193 -1.84034,-1.06133 -2.30317,-1.14305c-2.46421,-0.43505 -4.68308,-3.51501 -4.82112,-6.45476c-0.13805,-2.93974 1.74769,-4.97018 4.2119,-4.53513z"/><path d="M122.99068,283.96159c2.46421,0.43505 4.51781,1.9793 4.58682,3.44917c0.06902,1.46987 -1.87267,2.30875 -4.33688,1.87369c-1.40028,-0.24722 -2.32079,0.58928 -3.16709,-0.15708c-0.64301,-0.56709 -1.38994,-2.65748 -1.41974,-3.2921c-0.05064,-1.07832 0.98086,-1.81704 2.50691,-1.96233c0.55416,-0.05276 1.17353,-0.02727 1.82998,0.08863z"/><path d="M132.07339,287.27058c0.51017,0.09007 1.10466,0.51328 1.66033,0.76304c1.13947,0.51217 2.15255,1.08237 2.19894,2.07042c0.01774,0.37782 -0.57508,0.74301 -0.80006,1.07396c-0.65024,0.95658 -1.65294,1.61958 -2.80924,1.41544c-1.55635,-0.27477 -2.87397,-1.68908 -2.94299,-3.15895c-0.06902,-1.46987 1.13669,-2.43869 2.69304,-2.16391z"/><path d="M131.79652,285.03873c0.53594,0.57267 1.15533,1.10043 1.18996,1.83809c0.06902,1.46987 -1.13669,2.43869 -2.69304,2.16391c-1.55635,-0.27477 -2.87398,-1.68909 -2.94299,-3.15896c-0.06902,-1.46987 1.13669,-2.43869 2.69304,-2.16391c0.77528,0.13687 1.22106,0.75243 1.75303,1.32086z"/><path d="M126.3281,280.89628c0.97829,0.17272 1.8932,0.62165 2.69574,1.19426c0.74513,0.53166 1.40579,1.1609 1.61842,2.00086c0.06282,0.24814 -0.25114,0.92539 -0.23924,1.17882c0.09557,2.0352 -1.57388,3.37665 -3.72882,2.99619c-2.15494,-0.38046 -5.32902,-3.30792 -5.42459,-5.34312c-0.04799,-1.02198 1.56943,-0.73838 2.58841,-1.03696c1.01025,-0.29602 1.41726,-1.17945 2.49008,-0.99004z"/></g><g data-paper-data="{&quot;index&quot;:null}" fill="#573007"><path d="M197.79198,292.44728c0.65314,0.48931 1.0898,1.4372 1.24296,2.59375c0.25547,1.92895 -0.37434,3.70786 -1.89617,4.09921c-1.52184,0.39134 -2.96261,-0.85513 -3.21808,-2.78407c-0.25547,-1.92894 0.77114,-3.80989 2.29297,-4.20124c0.60938,-0.15669 1.14213,-0.03442 1.57833,0.29236z"/><path d="M193.78236,293.16031c1.73489,-0.44614 3.34838,0.75592 3.60385,2.68486c0.10859,0.81987 -1.07357,2.27388 -0.39211,2.34436c2.10075,0.21727 -1.28913,1.69957 -2.28662,1.95608c-1.7349,0.44613 -3.34839,-0.75593 -3.60386,-2.68487c-0.25546,-1.92895 0.94386,-3.85432 2.67874,-4.30045z"/><path d="M189.98545,289.44794c1.73488,-0.44613 3.42468,1.33202 3.77427,3.97163c0.28392,2.14384 0.47973,5.18595 -0.71797,6.12042c-0.27697,0.2161 -1.35942,-0.33989 -1.68527,-0.2561c-1.73489,0.44614 -3.52977,-1.60913 -3.87935,-4.24874c-0.34959,-2.63961 0.77344,-5.14108 2.50832,-5.58721z"/><path d="M189.64533,291.1828c1.73489,-0.44614 3.28299,0.26211 3.45778,1.58192c0.17479,1.31981 -1.08993,2.75137 -2.82481,3.1975c-0.98584,0.25352 -1.54742,1.33326 -2.19493,0.94087c-0.49196,-0.29815 -1.18738,-1.95296 -1.26285,-2.52279c-0.12823,-0.96822 0.51825,-1.9966 1.55674,-2.65192c0.37711,-0.23796 0.80591,-0.42673 1.26807,-0.54558z"/><path d="M197.39714,291.22605c0.82915,0.07795 1.57626,0.25222 1.69376,1.1394c0.04493,0.33925 -0.33178,0.87601 -0.45806,1.25553c-0.36504,1.09696 -0.99825,2.04625 -1.81232,2.2556c-1.09573,0.28177 -2.12568,-0.55972 -2.30047,-1.87953c-0.17479,-1.31981 0.57176,-2.61812 1.66749,-2.89989c0.35917,-0.09236 0.80526,0.09088 1.2096,0.12889z"/><path d="M195.80361,289.15211c0.4187,0.3399 0.891,0.61018 0.97871,1.27253c0.17479,1.31981 -0.57176,2.61812 -1.66749,2.89989c-1.09572,0.28178 -2.12568,-0.55972 -2.30047,-1.87953c-0.17479,-1.31981 0.57176,-2.61812 1.66749,-2.89989c0.54582,-0.14036 0.90616,0.26962 1.32175,0.60699z"/><path d="M191.6786,287.23841c0.68875,-0.17712 1.35775,-0.08008 1.96008,0.16848c0.55922,0.23078 1.06874,0.57969 1.28791,1.27459c0.06476,0.2053 -0.09286,0.93179 -0.06272,1.15934c0.24202,1.82741 -0.79168,3.6251 -2.30883,4.01524c-1.51715,0.39013 -3.95674,-1.1987 -4.19875,-3.02611c-0.12153,-0.91764 1.01703,-1.21224 1.693,-1.83405c0.67018,-0.61647 0.87402,-1.56326 1.62933,-1.75749z"/></g><g data-paper-data="{&quot;index&quot;:null}" fill="#573007"><path d="M282.99993,33.44016c-0.72194,0.37716 -1.54497,0.47447 -2.42353,0.19657c-2.19405,-0.69399 -3.33132,-3.28422 -2.54017,-5.78543c0.79115,-2.50122 3.21114,-3.96625 5.40518,-3.27225c2.19405,0.694 2.75925,3.10327 1.9681,5.60448c-0.47436,1.49967 -1.32861,2.69188 -2.4096,3.25663z"/><path d="M283.11313,28.93275c-0.79115,2.50122 -3.46014,3.88749 -5.96135,3.09633c-2.5012,-0.79115 -3.88748,-3.46014 -3.09633,-5.96135c0.79116,-2.50121 3.46015,-3.88749 5.96136,-3.09633c1.43811,0.45489 6.1959,2.80207 3.00663,2.83819c-1.03458,0.01172 0.42597,2.06005 0.0897,3.12316z"/><path d="M277.17287,31.68614c-1.08263,3.42272 -3.9879,5.55601 -6.48912,4.76485c-2.50121,-0.79116 -3.6512,-4.20716 -2.56857,-7.62988c1.08263,-3.42271 4.20388,-5.90723 6.70509,-5.11607c0.46978,0.14859 2.20722,-0.45276 2.57583,-0.13633c1.59394,1.36837 0.65605,5.33756 -0.22324,8.11742z"/><path d="M276.05161,32.46773c-0.54131,1.71136 -3.00776,2.45733 -5.50897,1.66617c-0.6663,-0.21077 -1.26787,-0.50935 -1.78166,-0.86634c-1.41489,-0.98314 -2.16416,-2.40939 -1.76705,-3.66486c0.23371,-0.73889 1.62502,-2.82818 2.42432,-3.16114c1.05201,-0.4382 1.66336,1.04541 3.08466,1.49497c2.5012,0.79115 4.09002,2.81983 3.5487,4.53119z"/><path d="M280.3131,35.02181c-1.57972,-0.49968 -2.42151,-2.29207 -1.88018,-4.00342c0.54132,-1.71135 2.26073,-2.69362 3.84046,-2.19394c1.17366,0.37123 1.91985,1.69214 2.23348,3.17503c0.1085,0.51304 0.55834,1.26213 0.4192,1.70203c-0.36388,1.15039 -1.51868,1.29051 -2.7758,1.29453c-0.61303,0.00197 -1.31934,0.18957 -1.83716,0.02577z"/><path d="M279.32631,37.52894c-0.69336,0.3935 -1.31938,0.88883 -2.10631,0.63992c-1.57971,-0.49967 -2.42151,-2.29207 -1.88018,-4.00342c0.54131,-1.71136 2.26073,-2.69362 3.84046,-2.19394c1.57972,0.49968 2.42151,2.29207 1.88018,4.00342c-0.27166,0.85886 -1.0356,1.15757 -1.73414,1.55402z"/><path d="M272.74869,39.55143c-1.08893,-0.34444 -1.19322,-1.61116 -2.06527,-2.49965c-0.87959,-0.89618 -2.52065,-1.41778 -2.14429,-2.60766c0.74952,-2.36957 4.73651,-4.1655 6.92379,-3.47364c2.1873,0.69185 3.35285,3.17363 2.60333,5.5432c-0.09334,0.29506 -0.01153,1.26719 -0.15193,1.52893c-0.47523,0.88599 -1.31155,1.28349 -2.1972,1.52006c-0.9539,0.2548 -1.97545,0.30285 -2.96843,-0.01124z"/></g><g data-paper-data="{&quot;index&quot;:null}" fill="#4e2c06"><path d="M255.81974,12.9204c-0.33486,-0.3273 -0.53478,-0.75977 -0.53956,-1.28947c-0.01193,-1.32285 1.20092,-2.40625 2.70898,-2.41985c1.50805,-0.01359 2.74023,1.04777 2.75215,2.37062c0.01193,1.32285 -1.20402,2.06135 -2.71208,2.07494c-0.90419,0.00815 -1.7081,-0.24615 -2.2095,-0.73624z"/><path d="M255.54818,9.47263c-0.0136,-1.50805 1.19789,-2.74159 2.70596,-2.75518c1.50805,-0.0136 2.74157,1.1979 2.75517,2.70595c0.00781,0.86708 -0.42665,3.88586 -1.01505,2.14928c-0.19087,-0.56332 -1.04993,0.60012 -1.6909,0.6059c-1.50805,0.01359 -2.74157,-1.1979 -2.75517,-2.70595z"/><path d="M255.73935,9.42301c-2.06365,0.0186 -3.74757,-1.18884 -3.76117,-2.69689c-0.0136,-1.50805 1.64829,-2.74564 3.71194,-2.76425c2.06365,-0.0186 3.97805,1.24424 3.99164,2.7523c0.00256,0.28324 0.64101,1.12558 0.53379,1.38346c-0.46364,1.11511 -2.80015,1.31027 -4.4762,1.32537z"/><path d="M255.11229,8.94956c-1.03183,0.00929 -1.8793,-1.20567 -1.8929,-2.71373c-0.00362,-0.40173 0.0523,-0.78375 0.1558,-1.1282c0.28503,-0.94858 0.93091,-1.61238 1.68787,-1.6192c0.44549,-0.00401 1.83543,0.38384 2.15992,0.76132c0.42706,0.49681 -0.27476,1.09548 -0.26703,1.95241c0.0136,1.50805 -0.81184,2.73811 -1.84366,2.74741z"/><path d="M254.47624,11.73401c-0.00858,-0.95245 0.82091,-1.73211 1.85273,-1.7414c1.03182,-0.00931 1.87525,0.75526 1.88383,1.70772c0.00638,0.70763 -0.58249,1.35095 -1.33701,1.78678c-0.26104,0.15078 -0.59024,0.53019 -0.85545,0.53259c-0.6936,0.00625 -0.97609,-0.59989 -1.20244,-1.28623c-0.11039,-0.3347 -0.33884,-0.68727 -0.34166,-0.99948z"/><path d="M252.93007,11.64173c-0.33868,-0.30879 -0.72101,-0.5626 -0.72529,-1.03706c-0.00857,-0.95246 0.82092,-1.73211 1.85274,-1.74141c1.03182,-0.00931 1.87525,0.75526 1.88383,1.70772c0.00857,0.95246 -0.82092,1.73211 -1.85274,1.74141c-0.51783,0.00466 -0.8173,-0.35959 -1.15853,-0.67067z"/><path d="M250.6519,8.4075c-0.00592,-0.65655 0.66779,-0.93942 0.99788,-1.57444c0.33295,-0.64051 0.3254,-1.63041 1.04281,-1.63687c1.42868,-0.01288 3.12112,1.8459 3.133,3.16467c0.01189,1.31878 -1.13665,2.3983 -2.56533,2.41117c-0.1779,0.00161 -0.69461,0.21965 -0.86269,0.18959c-0.56895,-0.10175 -0.93531,-0.48795 -1.22253,-0.9298c-0.30935,-0.4759 -0.51775,-1.02564 -0.52315,-1.62434z"/></g><g data-paper-data="{&quot;index&quot;:null}" fill="#573007"><path d="M257.59785,40.89032c-1.39183,1.69733 -3.59223,1.69844 -4.91472,0.00248c-1.32249,-1.69596 -1.26629,-4.44676 0.12555,-6.14408c1.39183,-1.69733 3.22933,-1.25589 4.55182,0.44007c0.79294,1.01685 1.2207,2.25384 1.13613,3.44726c-0.05648,0.79702 -0.34146,1.57463 -0.89878,2.25428z"/><path d="M255.55604,36.7587c1.32249,1.69596 1.10832,4.63939 -0.47837,6.57433c-1.58669,1.93494 -3.94505,2.1287 -5.26754,0.43274c-1.32249,-1.69596 -1.10831,-4.6394 0.47837,-6.57434c0.91229,-1.11254 4.48894,-4.46139 3.15861,-1.58252c-0.43155,0.93389 1.54682,0.42893 2.10892,1.14978z"/><path d="M254.85924,43.17899c1.80972,2.32079 1.99052,5.77075 0.40384,7.70569c-1.5867,1.93495 -4.34003,1.62218 -6.14975,-0.69861c-1.80972,-2.32079 -2.13169,-6.1031 -0.54501,-8.03804c0.29801,-0.36343 0.63708,-2.16093 1.0034,-2.36736c1.58415,-0.89264 3.8177,1.51342 5.28751,3.39831z"/><path d="M254.90132,44.49401c0.90487,1.16039 0.35214,3.66967 -1.23454,5.60461c-0.42268,0.51545 -0.8761,0.93816 -1.33099,1.25901c-1.25269,0.88357 -2.51654,0.99473 -3.18036,0.14346c-0.39067,-0.50101 -1.1852,-2.57377 -1.06655,-3.42287c0.15617,-1.11754 1.39948,-1.08222 2.30111,-2.18174c1.58668,-1.93494 3.60648,-2.56285 4.51135,-1.40246z"/><path d="M258.40444,41.67245c-1.00212,1.22208 -2.54803,1.27208 -3.4529,0.11169c-0.90487,-1.16039 -0.82603,-3.09176 0.17609,-4.31383c0.74453,-0.90794 1.93723,-1.05782 3.05365,-0.75535c0.38626,0.10464 1.07396,-0.00431 1.30655,0.29396c0.60826,0.78003 0.2108,1.87248 -0.32036,3.00323c-0.25901,0.55141 -0.43456,1.25973 -0.76305,1.66032z"/><path d="M259.17766,45.69048c-1.00212,1.22208 -2.54803,1.27207 -3.4529,0.11168c-0.90487,-1.1604 -0.82602,-3.09176 0.1761,-4.31384c1.00212,-1.22208 2.54802,-1.27207 3.45289,-0.11168c0.45411,0.58236 0.32779,1.38622 0.29403,2.16983c-0.03352,0.7778 0.02908,1.53525 -0.47012,2.14402z"/><path d="M258.1957,50.25131c-0.69078,0.84241 -1.57498,0.43706 -2.5344,0.87033c-0.96773,0.43701 -2.01043,1.70557 -2.63957,0.89878c-1.25289,-1.6067 -0.75067,-5.89536 0.63688,-7.58746c1.38755,-1.6921 3.52805,-1.76134 4.78094,-0.15465c0.15601,0.20007 0.83532,0.50955 0.94925,0.73878c0.38565,0.77589 0.2941,1.68367 0.07487,2.57237c-0.23611,0.95718 -0.63805,1.89369 -1.26797,2.66186z"/></g><g data-paper-data="{&quot;index&quot;:null}" fill="#573007"><path d="M303.00027,15.26435c-1.40973,0.6941 -3.41374,-0.06472 -4.47608,-1.69492c-1.06235,-1.63019 -0.78074,-3.51439 0.62899,-4.2085c1.40974,-0.6941 3.04619,0.24571 4.10853,1.8759c0.63696,0.97742 0.9229,1.9811 0.74592,2.77778c-0.1182,0.53205 -0.44287,0.9718 -1.00736,1.24973z"/><path d="M300.50051,16.08477c-1.60709,0.79127 -3.7711,0.11121 -4.83345,-1.51898c-1.06235,-1.63018 -0.62073,-3.59316 0.98636,-4.38444c0.92402,-0.45495 4.46183,-1.53771 3.00914,-0.00473c-0.47124,0.49728 1.37278,0.83081 1.82431,1.5237c1.06234,1.63018 0.62073,3.59317 -0.98636,4.38445z"/><path d="M300.31447,15.90276c1.45373,2.23078 1.3294,4.68063 -0.27769,5.47191c-1.60709,0.79127 -4.08838,-0.37566 -5.54211,-2.60645c-1.45373,-2.23077 -1.43013,-4.95936 0.17697,-5.75064c0.30185,-0.14862 0.76119,-1.27548 1.11212,-1.29187c1.51747,-0.07086 3.35003,2.36523 4.53073,4.17703z"/><path d="M298.64887,20.27963c-0.42812,0.21079 -0.87646,0.34679 -1.31761,0.4118c-1.21485,0.179 -2.37516,-0.18039 -2.9084,-0.99865c-0.31382,-0.48157 -0.86378,-2.19025 -0.68461,-2.73689c0.23583,-0.71945 1.36518,-0.2658 2.2784,-0.71543c1.60709,-0.79127 3.49914,-0.52854 4.22601,0.58686c0.72687,1.11539 0.0133,2.66104 -1.59379,3.45232z"/><path d="M303.66933,16.08408c-1.01502,0.49975 -2.42708,0.00069 -3.15395,-1.11471c-0.72687,-1.1154 -0.49327,-2.42472 0.52174,-2.92448c0.75411,-0.37129 1.85285,-0.06327 2.84425,0.53144c0.343,0.20575 0.97843,0.36777 1.16526,0.65447c0.4886,0.74977 0.03513,1.36856 -0.54332,1.96769c-0.28208,0.29216 -0.50128,0.72175 -0.83399,0.88556z"/><path d="M304.64467,17.81014c-0.09567,0.52668 -0.10211,1.07246 -0.60773,1.32141c-1.01502,0.49975 -2.42708,0.00069 -3.15395,-1.11471c-0.72687,-1.11539 -0.49329,-2.42472 0.52172,-2.92447c1.01501,-0.49976 2.42707,-0.00069 3.15394,1.1147c0.36478,0.55976 0.18239,1.07244 0.08601,1.60306z"/><path d="M302.7606,21.94876c-0.69967,0.34449 -1.47094,-0.24126 -2.381,-0.27263c-0.91792,-0.03165 -1.97379,0.48626 -2.47917,-0.28926c-1.00643,-1.54439 -0.18982,-4.33886 1.21558,-5.03083c1.40539,-0.69196 3.36057,-0.00093 4.367,1.54344c0.12532,0.19231 0.71806,0.64099 0.80261,0.83895c0.28623,0.67006 0.1268,1.26666 -0.14729,1.80598c-0.29521,0.58088 -0.73969,1.09021 -1.37771,1.40435z"/></g><g data-paper-data="{&quot;index&quot;:null}" fill="#573007"><path d="M131.08871,109.86075c0.53443,-0.75064 1.25032,-1.16822 2.05386,-1.30144c1.20318,-0.19947 2.60291,0.23863 3.88423,1.15089c2.13706,1.52152 3.1355,3.78583 1.80084,5.66044c-1.33467,1.8746 -4.14904,2.16084 -6.28609,0.63932c-2.13705,-1.52152 -2.7875,-4.27461 -1.45284,-6.14922z"/><path d="M129.32106,113.20557c1.52151,-2.13705 4.48736,-2.63604 6.62441,-1.11452c0.90833,0.6467 0.97451,3.16156 1.80783,2.54833c2.56887,-1.89039 0.1815,2.84737 -0.69331,4.07609c-1.52151,2.13705 -4.48736,2.63604 -6.62441,1.11452c-2.13705,-1.52152 -2.63603,-4.48737 -1.11452,-6.62441z"/><path d="M121.49426,113.56634c1.52152,-2.13705 5.12562,-2.18162 8.05001,-0.09954c2.37512,1.69102 5.51277,4.29665 5.06321,6.34871c-0.10396,0.47454 -1.85348,1.03983 -2.13925,1.44121c-1.52151,2.13704 -5.50947,2.03107 -8.43385,-0.051c-2.92439,-2.08208 -4.06162,-5.50235 -2.54011,-7.63939z"/><path d="M128.17844,113.51733c1.46219,1.04104 1.41409,3.61739 -0.10742,5.75443c-0.8646,1.21437 -0.46006,2.76716 -1.56395,3.05026c-0.83873,0.21509 -3.20722,-0.61629 -3.83853,-1.06576c-1.07267,-0.76371 -1.33255,-2.3537 -0.79417,-3.99035c0.19551,-0.59431 0.49627,-1.19479 0.90159,-1.76408c1.52152,-2.13704 3.94029,-3.02554 5.40248,-1.9845z"/><path d="M130.0449,108.91301c0.315,-0.44243 0.99199,-0.71765 1.48278,-1.085c1.00643,-0.75331 2.01305,-1.33633 2.99594,-0.63654c0.37585,0.26759 0.46737,1.13658 0.68945,1.61162c0.64189,1.37306 0.84084,2.87705 0.12689,3.87983c-0.96096,1.34972 -2.92531,1.59995 -4.3875,0.55891c-1.46219,-1.04104 -1.86852,-2.97912 -0.90756,-4.32884z"/><path d="M125.68074,108.26093c0.47869,-0.67235 1.27676,-0.65349 2.06732,-0.75647c0.79646,-0.10374 1.58636,-0.32489 2.32017,0.19756c1.46219,1.04104 1.86852,2.97912 0.90756,4.32884c-0.96096,1.34972 -2.92531,1.59995 -4.3875,0.55891c-1.46219,-1.04104 -1.86852,-2.97912 -0.90756,-4.32884z"/><path d="M121.27766,109.84747c0.60404,-0.84841 1.44883,-1.42479 2.36401,-1.79533c0.8497,-0.34402 1.75685,-0.52984 2.66957,-0.10822c0.26965,0.12456 0.78932,0.95018 1.04142,1.12967c2.02457,1.44144 2.58718,4.12494 1.25662,5.99378c-1.33056,1.86883 -5.59557,2.83378 -7.62014,1.39235c-1.01664,-0.72381 -0.01987,-2.12796 0.14332,-3.37303c0.1618,-1.23438 -0.5172,-2.30882 0.14521,-3.23921z"/></g><g data-paper-data="{&quot;index&quot;:null}" fill="#4e2c06"><path d="M143.72658,92.94735c-0.20057,-0.27125 -0.26462,-0.56782 -0.21974,-0.86262c0.0672,-0.44141 0.37862,-0.87883 0.84162,-1.2212c0.77222,-0.57103 1.67368,-0.66141 2.17457,0.01597c0.5009,0.67738 0.28095,1.68941 -0.49127,2.26043c-0.77222,0.57102 -1.80428,0.48479 -2.30517,-0.19259z"/><path d="M145.05432,91.51021c0.32822,-0.2427 1.21102,0.01983 1.09221,-0.33984c-0.36625,-1.10874 1.01162,0.26014 1.33993,0.70414c0.57102,0.77222 0.40792,1.86113 -0.3643,2.43215c-0.77222,0.57102 -1.86112,0.40792 -2.43214,-0.3643c-0.57102,-0.77222 -0.40792,-1.86113 0.3643,-2.43215z"/><path d="M144.80628,93.89434c0.85825,-0.63464 2.12141,-1.43081 2.78457,-1.04133c0.15335,0.09006 0.15144,0.76316 0.25869,0.9082c0.57102,0.77222 0.08131,2.14817 -0.97541,2.92957c-1.05672,0.7814 -2.37626,0.78884 -2.94728,0.01662c-0.57102,-0.77221 -0.17729,-2.03166 0.87943,-2.81306z"/><path d="M144.66878,94.37545c0.52836,-0.3907 1.41958,-0.08142 1.9906,0.6908c0.32448,0.43881 0.91086,0.47433 0.88404,0.89068c-0.02038,0.31633 -0.57868,1.04627 -0.8068,1.21496c-0.38761,0.28662 -0.97051,0.19652 -1.479,-0.1767c-0.18464,-0.13553 -0.35948,-0.30839 -0.5116,-0.5141c-0.57102,-0.77221 -0.6056,-1.71494 -0.07724,-2.10564z"/><path d="M143.27821,93.203c-0.11822,-0.15987 -0.13713,-0.42674 -0.20926,-0.63927c-0.1479,-0.43582 -0.23652,-0.85237 0.11865,-1.115c0.13581,-0.10043 0.44865,-0.03361 0.6392,-0.05696c0.55077,-0.0675 1.09682,0.03404 1.36476,0.39639c0.36064,0.48772 0.22468,1.19981 -0.30368,1.59051c-0.52836,0.3907 -1.24903,0.31205 -1.60968,-0.17567z"/><path d="M142.55572,94.6479c-0.17965,-0.24296 -0.08247,-0.51858 -0.02854,-0.80542c0.05433,-0.28898 0.06705,-0.58901 0.33221,-0.78509c0.52836,-0.3907 1.24903,-0.31205 1.60968,0.17567c0.36064,0.48772 0.22468,1.19981 -0.30368,1.59051c-0.52836,0.3907 -1.24903,0.31205 -1.60968,-0.17567z"/><path d="M142.60793,96.36052c-0.22669,-0.30657 -0.33138,-0.66604 -0.35642,-1.02664c-0.02325,-0.3348 0.01508,-0.67163 0.26546,-0.94142c0.07397,-0.07971 0.42033,-0.16683 0.51143,-0.23419c0.73157,-0.54097 1.72944,-0.43207 2.22879,0.24323c0.49935,0.6753 0.3509,2.26929 -0.38067,2.81025c-0.36736,0.27164 -0.74288,-0.23472 -1.15769,-0.43289c-0.41125,-0.19647 -0.8623,-0.08216 -1.1109,-0.41835z"/></g><g data-paper-data="{&quot;index&quot;:null}" fill="#573007"><path d="M129.74471,93.75667c0.78572,0.90225 1.18848,2.1476 1.16712,3.43689c-0.03563,2.15035 -1.23752,3.60868 -3.37054,3.09067c-2.13302,-0.518 -3.83329,-2.68113 -3.79767,-4.83148c0.03563,-2.15035 1.79367,-3.47362 3.92669,-2.95561c0.85411,0.20742 1.54966,0.65696 2.0744,1.25953z"/><path d="M128.52594,97.02563c-0.01514,0.91397 -1.89906,1.70123 -0.9924,2.18739c2.79493,1.49867 -2.07688,0.97644 -3.47499,0.63691c-2.43165,-0.59053 -4.374,-2.81244 -4.33838,-4.96279c0.03563,-2.15035 2.03575,-3.41483 4.46739,-2.8243c2.43165,0.59053 4.374,2.81244 4.33838,4.96279z"/><path d="M124.10578,92.31732c-0.03959,2.38991 -0.37551,5.65563 -2.17788,5.89603c-0.4168,0.05559 -1.7693,-1.17596 -2.22601,-1.28688c-2.43164,-0.59052 -4.45062,-3.80506 -4.40187,-6.74764c0.04875,-2.94258 2.05951,-4.84929 4.49115,-4.25876c2.43164,0.59052 4.36336,3.45467 4.31461,6.39725z"/><path d="M118.98933,87.50847c2.43164,0.59053 4.38312,2.26196 4.35874,3.73325c-0.02438,1.47129 -2.01538,2.18529 -4.44702,1.59476c-1.38177,-0.33556 -2.3535,0.44086 -3.15074,-0.3577c-0.60574,-0.60674 -1.21853,-2.7403 -1.20801,-3.37554c0.01788,-1.07935 1.09416,-1.75115 2.62636,-1.79932c0.55638,-0.01749 1.17289,0.04725 1.82066,0.20456z"/><path d="M127.84378,91.38709c0.50342,0.12225 1.06987,0.58233 1.60857,0.86684c1.10468,0.58344 2.07954,1.21676 2.06315,2.20577c-0.00627,0.37818 -0.62108,0.70502 -0.86659,1.02104c-0.70962,0.9134 -1.75237,1.51145 -2.89338,1.23435c-1.53578,-0.37296 -2.76101,-1.86802 -2.73663,-3.33931c0.02437,-1.47129 1.28912,-2.36165 2.8249,-1.98869z"/><path d="M127.70907,89.14217c0.49853,0.60552 1.08317,1.17151 1.07094,1.90989c-0.02437,1.47129 -1.28912,2.36165 -2.8249,1.98869c-1.53578,-0.37297 -2.76101,-1.86803 -2.73663,-3.33932c0.02437,-1.47129 1.28912,-2.36165 2.8249,-1.98869c0.76503,0.18579 1.17086,0.8284 1.66569,1.42943z"/><path d="M122.5145,84.66111c0.96537,0.23444 1.84995,0.74051 2.61454,1.36289c0.70989,0.57785 1.3293,1.24775 1.48821,2.09951c0.04695,0.25163 -0.30935,0.9076 -0.31355,1.16127c-0.03375,2.03716 -1.78495,3.26998 -3.91141,2.75357c-2.12646,-0.51641 -5.1084,-3.63937 -5.07465,-5.67654c0.01695,-1.02296 1.61312,-0.6373 2.64899,-0.87064c1.02699,-0.23133 1.48923,-1.08715 2.54788,-0.83006z"/></g><g data-paper-data="{&quot;index&quot;:null}" fill="#573007"><path d="M158.21159,103.33109c0.61809,-0.11772 1.14202,0.0381 1.5566,0.39191c0.62078,0.52977 0.99641,1.50346 1.07589,2.66739c0.13256,1.94127 -0.60884,3.67664 -2.15244,3.97064c-1.54359,0.294 -2.90238,-1.04137 -3.03495,-2.98264c-0.13257,-1.94126 1.0113,-3.75329 2.5549,-4.04729z"/><path d="M155.72141,104.18018c1.7597,-0.33516 3.29368,0.96684 3.42625,2.90811c0.05635,0.82511 -1.21568,2.20118 -0.54006,2.31476c2.08274,0.35013 -1.39436,1.61437 -2.40612,1.80707c-1.7597,0.33516 -3.29368,-0.96684 -3.42625,-2.90811c-0.13257,-1.94126 1.18649,-3.78666 2.94619,-4.12182z"/><path d="M152.16768,100.23442c1.7597,-0.33516 3.33327,1.54662 3.51468,4.20309c0.14734,2.15753 0.14974,5.20594 -1.10484,6.06254c-0.29012,0.19809 -1.33511,-0.42546 -1.66562,-0.36251c-1.7597,0.33516 -3.42057,-1.82986 -3.60197,-4.48632c-0.18141,-2.65647 1.09805,-5.08165 2.85775,-5.41681z"/><path d="M155.06864,103.74231c0.0907,1.32824 -1.26229,2.67668 -3.02199,3.01184c-0.99994,0.19046 -1.6289,1.23239 -2.2502,0.79971c-0.47206,-0.32875 -1.06109,-2.02436 -1.10025,-2.59783c-0.06654,-0.97441 0.64389,-1.9597 1.72186,-2.54781c0.39145,-0.21356 0.83136,-0.37475 1.30013,-0.46403c1.7597,-0.33516 3.25975,0.46988 3.35045,1.79812z"/><path d="M158.25263,102.27382c0.36431,-0.06939 0.79788,0.14179 1.19899,0.20538c0.82254,0.1304 1.55709,0.35171 1.61806,1.24456c0.02331,0.34141 -0.38668,0.8532 -0.5368,1.22394c-0.4339,1.07158 -1.12607,1.97879 -1.95178,2.13606c-1.11139,0.21169 -2.08588,-0.69345 -2.17658,-2.02169c-0.0907,-1.32824 0.73673,-2.57658 1.84812,-2.78826z"/><path d="M156.7123,99.61868c0.55363,-0.10545 0.88722,0.32658 1.28058,0.68964c0.39629,0.36579 0.85048,0.66549 0.896,1.33207c0.0907,1.32824 -0.73673,2.57658 -1.84812,2.78826c-1.11139,0.21168 -2.08588,-0.69346 -2.17658,-2.0217c-0.0907,-1.32824 0.73673,-2.57658 1.84812,-2.78826z"/><path d="M153.99762,98.13675c0.6986,-0.13306 1.36011,0.00623 1.94544,0.29251c0.54346,0.26579 1.0298,0.64633 1.20444,1.35373c0.0516,0.20899 -0.15179,0.92402 -0.13615,1.15303c0.12559,1.83909 -1.02008,3.56758 -2.55893,3.86067c-1.53885,0.29309 -3.87271,-1.44732 -3.9983,-3.28641c-0.06306,-0.9235 1.09189,-1.14527 1.80595,-1.72294c0.70794,-0.57271 0.97144,-1.50466 1.73755,-1.65058z"/></g><g data-paper-data="{&quot;index&quot;:null}" fill="#573007"><path d="M158.20672,83.40115c0.68405,-0.58453 2.24366,-1.01047 4.25403,-1.20655c3.35299,-0.32704 6.69012,0.10913 7.81575,1.38437c1.12562,1.27524 -0.68,2.57414 -4.03299,2.90118c-3.35299,0.32704 -6.9836,-0.44163 -8.10923,-1.71687c-0.45073,-0.51064 -0.3844,-0.97175 0.07244,-1.36213z"/><path d="M164.3553,83.55463c1.42514,-0.139 4.34164,0.78647 4.27393,0.20151c-0.20872,-1.80326 3.38285,1.00276 4.12065,1.83862c1.28321,1.45377 -0.39466,2.8974 -3.74765,3.22444c-3.35299,0.32704 -7.11136,-0.58636 -8.39457,-2.04013c-1.28321,-1.45377 0.39465,-2.8974 3.74764,-3.22444z"/><path d="M161.07446,86.78371c3.72652,-0.36347 9.0731,-0.7027 11.07145,0.26545c0.46212,0.22389 -0.21882,1.17819 0.02219,1.45124c1.28321,1.45377 -1.85842,3.10036 -6.44671,3.54788c-4.5883,0.44753 -9.34809,-0.3682 -10.6313,-1.82197c-1.28321,-1.45377 1.39607,-2.99508 5.98437,-3.4426z"/><path d="M158.26698,90.41799c-1.28322,-1.45377 -0.4637,-2.81368 1.83045,-3.03744c2.29416,-0.22376 5.19418,0.77336 6.47739,2.22713c0.72919,0.8261 2.80545,1.24372 2.29193,1.81795c-0.39017,0.4363 -3.13187,1.12289 -4.12238,1.2195c-1.683,0.16416 -3.69209,-0.32875 -5.14968,-1.17697c-0.52928,-0.30802 -0.98586,-0.66289 -1.3277,-1.05016z"/><path d="M156.26339,84.84548c-0.26566,-0.30097 -0.06654,-0.69166 -0.11346,-1.03852c-0.09624,-0.71129 0.00176,-1.35809 1.5439,-1.50851c0.58969,-0.05752 1.64947,0.23322 2.35913,0.3194c2.0512,0.24907 3.91612,0.73514 4.51825,1.4173c0.81046,0.91817 -0.39232,1.84389 -2.68647,2.06765c-2.29415,0.22376 -4.81091,-0.33916 -5.62137,-1.25734z"/><path d="M152.21436,86.44415c-0.40372,-0.45739 0.22232,-0.78779 0.70378,-1.16121c0.48508,-0.37621 0.83134,-0.79415 1.98268,-0.90645c2.29415,-0.22376 4.81091,0.33916 5.62137,1.25734c0.81046,0.91817 -0.39232,1.84389 -2.68647,2.06765c-2.29416,0.22376 -4.81091,-0.33916 -5.62137,-1.25734z"/><path d="M150.68736,88.90799c-0.50943,-0.57715 -0.52647,-1.15299 -0.25555,-1.68056c0.25153,-0.48982 0.7269,-0.94396 1.89883,-1.17016c0.34622,-0.06683 1.68089,0.02639 2.07643,-0.01219c3.17651,-0.30983 6.66127,0.46961 7.78344,1.74093c1.12216,1.27131 -1.00872,3.44111 -4.18523,3.75093c-1.59508,0.15558 -2.44044,-0.79838 -3.73593,-1.33945c-1.28436,-0.53643 -3.02332,-0.65659 -3.58198,-1.28951z"/></g><g data-paper-data="{&quot;index&quot;:null}" fill="#573007"><path d="M299.07623,203.68221c0.70479,-0.11379 1.5247,0.13613 2.27526,0.65654c1.25182,0.86796 1.83667,2.15967 1.05487,3.22906c-0.7818,1.06939 -2.43037,1.23268 -3.68219,0.36471c-1.25182,-0.86797 -1.63283,-2.4385 -0.85103,-3.50789c0.31305,-0.42821 0.7324,-0.66642 1.20309,-0.74242z"/><path d="M300.71808,205.69695c0.53207,0.36892 0.57083,1.80354 1.05897,1.45372c1.50476,-1.0784 0.10632,1.62431 -0.40612,2.32525c-0.89125,1.2191 -2.62855,1.50376 -3.88037,0.63579c-1.25182,-0.86797 -1.54411,-2.55987 -0.65285,-3.77897c0.89125,-1.2191 2.62855,-1.50376 3.88037,-0.63579z"/><path d="M296.96846,206.48176c1.39127,0.96467 3.22921,2.45108 2.96587,3.6217c-0.0609,0.2707 -1.08571,0.59318 -1.25311,0.82215c-0.89125,1.2191 -3.22727,1.15865 -4.94028,-0.02909c-1.71301,-1.18775 -2.37918,-3.13888 -1.48792,-4.35798c0.89125,-1.2191 3.00243,-1.24453 4.71544,-0.05678z"/><path d="M293.0038,207.64265c0.89126,-1.2191 2.30809,-1.72595 3.1646,-1.13208c0.85651,0.59387 0.82834,2.06358 -0.06292,3.28268c-0.50645,0.69276 -0.26949,1.57857 -0.91611,1.74006c-0.4913,0.12271 -1.87869,-0.35156 -2.24849,-0.60797c-0.62834,-0.43566 -0.78057,-1.34269 -0.4652,-2.27634c0.11452,-0.33903 0.2907,-0.68158 0.52812,-1.00634z"/><path d="M297.26171,203.88398c0.18451,-0.25239 0.58107,-0.40939 0.86856,-0.61895c0.58954,-0.42974 1.17918,-0.76232 1.75493,-0.36312c0.22016,0.15265 0.27378,0.64837 0.40386,0.91936c0.376,0.78328 0.49254,1.64125 0.07433,2.2133c-0.5629,0.76996 -1.71355,0.9127 -2.57006,0.31883c-0.8565,-0.59387 -1.09452,-1.69947 -0.53162,-2.46943z"/><path d="M294.70533,203.512c0.2804,-0.38355 0.74789,-0.37278 1.21097,-0.43153c0.46654,-0.05918 0.92923,-0.18534 1.35908,0.1127c0.85651,0.59388 1.09452,1.69948 0.53162,2.46944c-0.5629,0.76996 -1.71355,0.9127 -2.57006,0.31883c-0.85651,-0.59387 -1.09452,-1.69947 -0.53162,-2.46943z"/><path d="M292.12613,204.4171c0.35383,-0.48399 0.84868,-0.81279 1.38476,-1.02417c0.49773,-0.19626 1.0291,-0.30226 1.56375,-0.06174c0.15795,0.07105 0.46236,0.54204 0.61003,0.64443c1.18593,0.82229 1.51549,2.35312 0.73609,3.41922c-0.77939,1.06609 -3.2777,1.61656 -4.46363,0.79428c-0.59551,-0.41291 -0.01164,-1.21393 0.08395,-1.92419c0.09478,-0.70417 -0.30296,-1.3171 0.08506,-1.84785z"/></g><g data-paper-data="{&quot;index&quot;:null}" fill="#4e2c06"><path d="M291.8646,189.13882c-0.12971,-0.55099 0.13406,-1.2833 0.69182,-2.02332c0.93028,-1.23424 2.32612,-2.02256 3.493,-1.63662c1.16688,0.38593 1.35869,1.69934 0.42841,2.93358c-0.93028,1.23424 -2.63036,1.92193 -3.79724,1.53599c-0.46725,-0.15453 -0.72936,-0.44165 -0.81599,-0.80963z"/><path d="M294.75944,190.34213c-1.33024,-0.43997 -1.65449,-1.79718 -0.72421,-3.03142c0.3954,-0.5246 1.95111,-0.89906 1.56733,-1.21595c-1.1831,-0.97686 1.76085,-0.47517 2.52569,-0.22221c1.33024,0.43996 1.6545,1.79717 0.72422,3.03141c-0.93028,1.23424 -2.76279,1.87812 -4.09303,1.43816z"/><path d="M295.02353,194.05403c-1.33024,-0.43996 -1.37665,-2.16579 -0.10364,-3.85476c1.03392,-1.37175 2.62976,-3.23452 3.90182,-3.29809c0.29417,-0.0147 0.65307,0.74898 0.90292,0.83162c1.33024,0.43996 1.28552,2.37076 0.01251,4.05972c-1.273,1.68897 -3.38336,2.70147 -4.7136,2.26151z"/><path d="M296.21443,193.17442c-1.33024,-0.43996 -1.89263,-1.48121 -1.25613,-2.32569c0.6365,-0.84449 2.23087,-1.1724 3.56111,-0.73244c0.7559,0.25001 1.71458,-0.15597 1.89552,0.33592c0.13747,0.37373 -0.36458,1.62516 -0.63939,1.98977c-0.46695,0.61951 -1.44939,0.96104 -2.46488,0.92532c-0.36875,-0.01298 -0.74186,-0.07569 -1.09623,-0.19289z"/><path d="M291.42053,190.01448c-0.47137,-0.38098 -0.83736,-0.78527 -0.4095,-1.35293c0.16361,-0.21707 0.70082,-0.37945 0.99359,-0.55089c0.84623,-0.49554 1.77579,-0.79607 2.39998,-0.58962c0.84016,0.27787 1.00525,1.18772 0.36875,2.0322c-0.6365,0.84448 -1.83357,1.3038 -2.67373,1.02593c-0.27539,-0.09108 -0.44923,-0.37891 -0.67909,-0.56469z"/><path d="M291.71896,192.76515c-0.41852,-0.13842 -0.41101,-0.5245 -0.47886,-0.89036c-0.06835,-0.36859 -0.20932,-0.71803 0.11012,-1.14184c0.6365,-0.84448 1.83356,-1.3038 2.67372,-1.02593c0.84016,0.27787 1.00525,1.18772 0.36875,2.0322c-0.6365,0.84449 -1.83357,1.30381 -2.67373,1.02594z"/><path d="M291.60041,193.77344c-0.2173,-0.36144 -0.337,-0.77204 -0.0809,-1.26808c0.07566,-0.14654 0.58381,-0.50876 0.69355,-0.65436c0.88132,-1.16927 2.53879,-1.80527 3.70208,-1.42052c1.16329,0.38474 1.78264,2.30276 0.90133,3.47204c-0.44255,0.58715 -1.31658,0.29949 -2.08782,0.39072c-0.76462,0.09044 -1.42588,0.56313 -2.00502,0.37158c-0.52811,-0.17467 -0.88917,-0.50209 -1.12322,-0.89138z"/></g><g data-paper-data="{&quot;index&quot;:null}" fill="#573007"><path d="M331.6585,191.72299c0.97867,0.52977 1.57087,1.50346 1.69617,2.66739c0.209,1.94126 -0.95985,3.67664 -3.39339,3.97064c-2.43354,0.294 -4.57573,-1.04138 -4.78472,-2.98264c-0.20899,-1.94126 1.59436,-3.75329 4.0279,-4.04729c0.97445,-0.11773 1.80043,0.0381 2.45404,0.3919z"/><path d="M325.2786,192.1802c2.77423,-0.33516 5.19262,0.96684 5.40161,2.90811c0.08883,0.82511 -1.91658,2.20117 -0.85143,2.31475c3.28351,0.35012 -2.19826,1.61437 -3.79334,1.80707c-2.77423,0.33516 -5.19262,-0.96685 -5.40161,-2.90811c-0.20899,-1.94127 1.87055,-3.78667 4.64478,-4.12183z"/><path d="M319.67603,188.23442c2.77423,-0.33516 5.25503,1.54662 5.54102,4.20309c0.23228,2.15753 0.23607,5.20594 -1.74182,6.06254c-0.45739,0.19808 -2.10487,-0.42546 -2.62592,-0.36251c-2.77423,0.33516 -5.39265,-1.82986 -5.67864,-4.48632c-0.28599,-2.65647 1.73113,-5.08165 4.50536,-5.41681z"/><path d="M318.96736,189.94417c2.77423,-0.33516 5.13911,0.46988 5.2821,1.79812c0.14299,1.32824 -1.99005,2.67668 -4.76428,3.01184c-1.57644,0.19045 -2.56802,1.23238 -3.54752,0.79971c-0.74422,-0.32875 -1.67283,-2.02436 -1.73458,-2.59783c-0.1049,-0.9744 1.01511,-1.95969 2.71458,-2.5478c0.61712,-0.21356 1.31067,-0.37474 2.0497,-0.46403z"/><path d="M329.26917,190.27383c0.57435,-0.06939 1.25789,0.14179 1.89025,0.20538c1.29675,0.13041 2.4548,0.35172 2.55092,1.24456c0.03675,0.34141 -0.60961,0.8532 -0.84628,1.22394c-0.68406,1.07158 -1.77529,1.97879 -3.07705,2.13606c-1.75215,0.21168 -3.28846,-0.69346 -3.43145,-2.0217c-0.14299,-1.32824 1.16147,-2.57657 2.91362,-2.78825z"/><path d="M326.8408,187.61869c0.87281,-0.10545 1.39872,0.32657 2.01887,0.68964c0.62477,0.36578 1.34082,0.66548 1.41258,1.33206c0.14299,1.32824 -1.16148,2.57657 -2.91363,2.78825c-1.75215,0.21168 -3.28847,-0.69346 -3.43146,-2.0217c-0.14299,-1.32824 1.16148,-2.57658 2.91363,-2.78826z"/><path d="M322.56098,186.13675c1.10137,-0.13306 2.14426,0.00624 3.06706,0.29251c0.85678,0.2658 1.62352,0.64634 1.89885,1.35374c0.08135,0.20899 -0.2393,0.92401 -0.21465,1.15302c0.19799,1.83908 -1.6082,3.56758 -4.03425,3.86067c-2.42605,0.2931 -6.10547,-1.44732 -6.30346,-3.28641c-0.09941,-0.9235 1.72141,-1.14527 2.84715,-1.72294c1.1161,-0.57271 1.53152,-1.50466 2.73931,-1.65058z"/></g><g data-paper-data="{&quot;index&quot;:null}" fill="#573007"><path d="M266.40135,198.05477c-0.23215,-0.16882 -0.34706,-0.38089 -0.36415,-0.61088c-0.02559,-0.34437 0.16815,-0.72895 0.51599,-1.06875c0.58015,-0.56673 1.36928,-0.7943 1.94906,-0.37268c0.57978,0.42162 0.57948,1.22283 -0.00067,1.78957c-0.58014,0.56674 -1.52044,0.68437 -2.10022,0.26275z"/><path d="M267.45671,198.63383c-0.66095,-0.48065 -0.72645,-1.32971 -0.1463,-1.89645c0.24658,-0.24088 1.08755,-0.19931 0.91139,-0.44921c-0.54304,-0.77035 0.95579,0.01699 1.33581,0.29334c0.66095,0.48064 0.72645,1.3297 0.1463,1.89644c-0.58014,0.56674 -1.58625,0.63652 -2.24719,0.15588z"/><path d="M267.31074,200.85158c-0.66094,-0.48064 -0.55318,-1.49897 0.24071,-2.2745c0.64477,-0.62987 1.62053,-1.45306 2.2896,-1.27701c0.15472,0.04071 0.28372,0.54806 0.40786,0.63833c0.66094,0.48064 0.48991,1.60371 -0.30398,2.37924c-0.79389,0.77553 -1.97326,1.01458 -2.6342,0.53394z"/><path d="M267.52182,198.9638c0.39694,-0.38777 1.25453,-0.31247 1.91547,0.16817c0.37558,0.27312 0.90721,0.19615 0.96406,0.5145c0.04319,0.24189 -0.31467,0.89048 -0.48605,1.0579c-0.2912,0.28446 -0.83031,0.31973 -1.35782,0.12856c-0.19155,-0.06942 -0.38158,-0.1687 -0.55765,-0.29674c-0.66094,-0.48064 -0.87495,-1.18462 -0.47801,-1.57239z"/><path d="M266.04976,198.32669c-0.13683,-0.09951 -0.20559,-0.29719 -0.3114,-0.44451c-0.21699,-0.30212 -0.37718,-0.6002 -0.11035,-0.86086c0.10203,-0.09967 0.39495,-0.10469 0.56094,-0.15599c0.47976,-0.14828 0.98812,-0.1684 1.29826,0.05713c0.41744,0.30357 0.43405,0.864 0.03711,1.25177c-0.39695,0.38777 -1.05713,0.45603 -1.47457,0.15246z"/><path d="M265.68381,199.54287c-0.20794,-0.15122 -0.17449,-0.37603 -0.18194,-0.60163c-0.0075,-0.22729 -0.05438,-0.45554 0.14483,-0.65014c0.39694,-0.38777 1.05713,-0.45603 1.47457,-0.15246c0.41744,0.30356 0.43405,0.86399 0.03711,1.25176c-0.39695,0.38777 -1.05713,0.45603 -1.47457,0.15246z"/><path d="M265.5448,200.11338c-0.08582,-0.24807 -0.11693,-0.50856 0.05474,-0.75608c0.05071,-0.07313 0.34374,-0.20002 0.41218,-0.26688c0.54961,-0.53691 1.46372,-0.63142 2.04171,-0.2111c0.57799,0.42032 0.75469,1.64725 0.20508,2.18415c-0.27599,0.26961 -0.71037,-0.04537 -1.12005,-0.12126c-0.40617,-0.07523 -0.7876,0.09067 -1.07535,-0.11858c-0.26239,-0.19081 -0.42587,-0.44306 -0.51831,-0.71025z"/></g></g></g></svg>