<svg version="1.1" xmlns="http://www.w3.org/2000/svg" xmlns:xlink="http://www.w3.org/1999/xlink" width="32.18964" height="68.5936" viewBox="0,0,32.18964,68.5936"><g transform="translate(-225.58552,-146.07554)"><g data-paper-data="{&quot;isPaintingLayer&quot;:true}" fill-rule="nonzero" stroke-linejoin="miter" stroke-miterlimit="10" stroke-dasharray="" stroke-dashoffset="0" style="mix-blend-mode: normal"><path d="M225.58553,208.32315c0,-13.44895 0,-44.19668 0,-51.64628c0,-3.17904 1.18659,-6.346 3.08653,-6.346c6.68138,0 22.18448,0 25.92809,0c1.59053,0 3.17502,3.16696 3.17502,6.346c0,7.51567 0,38.74459 0,52.00002c0,3.69408 -1.53433,5.99225 -3.08653,5.99225c-3.69771,0 -19.17433,0 -25.92808,0c-1.95175,0 -3.17502,-2.44546 -3.17502,-6.34599z" fill="#272727" stroke="none" stroke-width="0" stroke-linecap="butt"/><g><path d="M234.22607,210.96804c0,0 0.07455,-1.06195 0.16719,-1.49425c0.07734,-0.36091 0.24741,-1.0279 0.24741,-1.0279l3.09223,0.01727c0,0 0.27981,0.58597 0.345,1.00082c0.06125,0.38975 0.12142,1.50406 0.12142,1.50406z" data-paper-data="{&quot;index&quot;:null}" fill="#2c3132" stroke="none" stroke-width="0" stroke-linecap="butt"/><path d="M244.80423,211.02229c0,0 0.06018,-1.11431 0.12142,-1.50406c0.06519,-0.41485 0.345,-1.00082 0.345,-1.00082l3.09223,-0.01727c0,0 0.17007,0.66699 0.24741,1.0279c0.09263,0.4323 0.16719,1.49425 0.16719,1.49425z" fill="#2c3132" stroke="none" stroke-width="0" stroke-linecap="butt"/><path d="M240.46821,209.02519v-3.1192h1.71782v3.1192z" fill="#1b191b" stroke="none" stroke-width="0" stroke-linecap="butt"/><path d="M245.07468,208.64546l-0.70521,-0.65096h4.93647l-0.65096,0.65096z" data-paper-data="{&quot;index&quot;:null}" fill="#671603" stroke="none" stroke-width="0" stroke-linecap="butt"/><path d="M234.55077,208.64546l-0.65096,-0.65096h4.93647l-0.70521,0.65096z" fill="#671603" stroke="none" stroke-width="0" stroke-linecap="butt"/><path d="M237.57351,170.60708l-0.06998,-0.66758c0,0 0.98184,-1.12769 1.54047,-1.59429c0.57717,-0.48209 1.86875,-1.25328 1.86875,-1.25328l-0.03851,2.24074c0,0 -0.96644,0.2437 -1.47262,0.43914c-0.58313,0.22515 -1.82811,0.83527 -1.82811,0.83527z" fill="#813504" stroke="none" stroke-width="0" stroke-linecap="butt"/><path d="M243.6799,169.71757c-0.50619,-0.19544 -1.47262,-0.43914 -1.47262,-0.43914l-0.03851,-2.24074c0,0 1.29159,0.77119 1.86875,1.25327c0.55863,0.4666 1.54047,1.59429 1.54047,1.59429l-0.06999,0.66758c0,0 -1.24498,-0.61012 -1.82811,-0.83527z" data-paper-data="{&quot;index&quot;:null}" fill="#813504" stroke="none" stroke-width="0" stroke-linecap="butt"/><path d="M237.59339,187.12763l2.92005,-2.83305l2.11534,2.18031l-2.92005,2.83305z" data-paper-data="{&quot;index&quot;:null}" fill="#823708" stroke="none" stroke-width="0" stroke-linecap="butt"/><path d="M234.52118,197.43026v-25.61936h3.52605v25.61936z" fill="#c2a49d" stroke="none" stroke-width="0" stroke-linecap="butt"/><path d="M243.44277,189.30793l-2.92005,-2.83305l2.11534,-2.18031l2.92005,2.83305z" fill="#823708" stroke="none" stroke-width="0" stroke-linecap="butt"/><path d="M240.37215,187.61217v-28.92041h2.40721v28.92041z" fill="#925e3c" stroke="none" stroke-width="0" stroke-linecap="butt"/><path d="M240.37215,161.91268v-0.94932h2.40721v0.94932z" fill="#f6884c" stroke="none" stroke-width="0" stroke-linecap="butt"/><path d="M247.53792,158.31363c0,0 0.32457,0.80399 0.5114,1.31233c0.2591,0.705 0.89859,2.52409 0.89859,2.52409l-4.17955,-0.00573c0,0 0.62107,-1.81665 0.88146,-2.52061c0.18772,-0.50751 0.53548,-1.31009 0.53548,-1.31009c0,0 0.09712,-0.24902 0.25185,-0.37441c0.1264,-0.10243 0.30252,-0.15164 0.40215,-0.15164c0.10073,0 0.2988,0.0452 0.43218,0.14496c0.16989,0.12706 0.26645,0.3811 0.26645,0.3811z" fill="#e86c0a" stroke="#ff3600" stroke-width="0" stroke-linecap="round"/><path d="M244.95049,167.17619l-0.15803,-0.25022h4.16147l-0.14486,0.25022z" data-paper-data="{&quot;index&quot;:null}" fill="#7b2f00" stroke="none" stroke-width="0" stroke-linecap="butt"/><path d="M244.79447,166.94734v-4.84303h4.17201v4.84303z" data-paper-data="{&quot;index&quot;:null}" fill="#af550a" stroke="none" stroke-width="0" stroke-linecap="butt"/><path d="M234.35565,167.19053l-0.14486,-0.25022h4.16147l-0.15803,0.25022z" fill="#7b2f00" stroke="none" stroke-width="0" stroke-linecap="butt"/><path d="M234.19825,166.96169v-4.84303h4.17201v4.84303z" fill="#af550a" stroke="none" stroke-width="0" stroke-linecap="butt"/><path d="M236.95457,158.32283c0,0 0.32457,0.80399 0.5114,1.31233c0.2591,0.705 0.89859,2.52409 0.89859,2.52409l-4.17955,-0.00573c0,0 0.62107,-1.81665 0.88146,-2.52061c0.18772,-0.50751 0.53548,-1.31009 0.53548,-1.31009c0,0 0.09712,-0.24903 0.25185,-0.37441c0.1264,-0.10243 0.30252,-0.15164 0.40215,-0.15164c0.10073,0 0.2988,0.0452 0.43218,0.14496c0.16989,0.12706 0.26645,0.3811 0.26645,0.3811z" fill="#e86c0a" stroke="#ff3600" stroke-width="0" stroke-linecap="round"/><path d="M242.65609,155.06548c0.20602,0.77513 0.10375,2.77518 0.10375,2.77518l-2.36818,-0.0063c0,0 -0.12169,-1.90791 0.08534,-2.80118c0.04441,-0.38671 0.22117,-0.82135 0.37117,-1.18563c0.16298,-0.39582 0.32638,-0.56483 0.39045,-0.63662c0.1005,-0.11262 0.24053,-0.16673 0.31975,-0.16673c0.08009,0 0.23757,0.0497 0.34362,0.15938c0.06304,0.0652 0.30171,0.34684 0.42671,0.68855c0.14283,0.39047 0.30602,0.85937 0.32738,1.17335z" fill="#803808" stroke="#ff3600" stroke-width="0" stroke-linecap="round"/><path d="M240.37215,158.12952v-0.57072h2.40721v0.57072z" fill="#b45f19" stroke="none" stroke-width="0" stroke-linecap="butt"/><path d="M240.37215,158.7398v-0.67244h2.40721v0.67244z" fill="#b79080" stroke="none" stroke-width="0" stroke-linecap="butt"/><g fill="#a52100" stroke="none" stroke-width="0" stroke-linecap="butt"><path d="M240.80531,161.43967v-0.48463h0.41397v0.48463z"/><path d="M240.39363,161.92631v-0.48463h0.41398v0.48463z"/></g><g fill="#a52100" stroke="none" stroke-width="0" stroke-linecap="butt"><path d="M241.61901,161.43967v-0.48463h0.41397v0.48463z"/><path d="M241.20734,161.92631v-0.48463h0.41398v0.48463z"/></g><g fill="#a52100" stroke="none" stroke-width="0" stroke-linecap="butt"><path d="M242.39891,161.43967v-0.48463h0.37998v0.48463z"/><path d="M242.02104,161.92631v-0.48463h0.37998v0.48463z"/></g><path d="M240.37215,170.42267v-4.81442h2.40721v4.81442z" fill="#b39384" stroke="none" stroke-width="0" stroke-linecap="butt"/><g stroke="none" stroke-width="0" stroke-linecap="butt"><path d="M240.37215,170.79562v-0.94932h2.40721v0.94932z" fill="#f6884c"/><g fill="#a52100"><path d="M240.80531,170.32261v-0.48463h0.41397v0.48463z"/><path d="M240.39363,170.80926v-0.48463h0.41398v0.48463z"/></g><g fill="#a52100"><path d="M241.61901,170.32261v-0.48463h0.41397v0.48463z"/><path d="M241.20734,170.80926v-0.48463h0.41398v0.48463z"/></g><g fill="#a52100"><path d="M242.39891,170.32261v-0.48463h0.37998v0.48463z"/><path d="M242.02104,170.80926v-0.48463h0.37998v0.48463z"/></g></g><path d="M240.37215,178.10765v-4.14763h2.40721v4.14763z" fill="#b39384" stroke="none" stroke-width="0" stroke-linecap="butt"/><path d="M240.43656,184.38726v-3.41756h2.27837v3.41756z" fill="#7d5133" stroke="none" stroke-width="NaN" stroke-linecap="butt"/><path d="M236.79298,205.51141v-18.41684h9.61075v18.41684z" fill="#62310d" stroke="none" stroke-width="0" stroke-linecap="butt"/><g stroke="none" stroke-width="0" stroke-linecap="butt"><path d="M234.51026,171.85438l-0.13354,-0.23066h3.83621l-0.14568,0.23066z" fill="#692d04"/><path d="M234.36516,171.64342v-4.4645h3.84592v4.4645z" fill="#dd680a"/></g><g stroke="none" stroke-width="0" stroke-linecap="butt"><path d="M245.10483,171.85438l-0.13354,-0.23066h3.83621l-0.14568,0.23066z" fill="#692d04"/><path d="M244.95972,171.64342v-4.4645h3.84592v4.4645z" fill="#dd680a"/></g><path d="M236.38838,172.72816v-0.54247h1.15275v0.54247z" fill="#b09186" stroke="none" stroke-width="0" stroke-linecap="butt"/><path d="M234.55755,179.78027v-0.88151h0.61028v0.88151z" fill="#b09186" stroke="none" stroke-width="0" stroke-linecap="butt"/><path d="M237.13428,182.83166v-0.54247h0.54247v0.54247z" fill="#b09186" stroke="none" stroke-width="0" stroke-linecap="butt"/><g stroke="none" stroke-width="0" stroke-linecap="butt"><path d="M245.12194,197.47546v-25.61935h3.52605v25.61935z" data-paper-data="{&quot;index&quot;:null}" fill="#c2a49d"/><path d="M245.62804,172.77337v-0.54247h1.15275v0.54247z" data-paper-data="{&quot;index&quot;:null}" fill="#b09186"/><path d="M248.00134,179.82547v-0.88151h0.61028v0.88151z" data-paper-data="{&quot;index&quot;:null}" fill="#b09186"/><path d="M245.49242,182.87687v-0.54247h0.54247v0.54247z" data-paper-data="{&quot;index&quot;:null}" fill="#b09186"/></g><path d="M238.06726,185.08042l0.14568,0.23065h-3.83621l0.13354,-0.23065z" fill="#692d04" stroke="none" stroke-width="0" stroke-linecap="butt"/><path d="M238.23641,185.34203v22.04955h-3.84592v-22.04955z" fill="#dd680a" stroke="none" stroke-width="0" stroke-linecap="butt"/><g stroke="none" stroke-width="0" stroke-linecap="butt"><path d="M248.65815,185.08042l0.14568,0.31139h-3.83621l0.13354,-0.31139z" fill="#692d04"/><path d="M248.80197,185.36521v21.40612h-3.84592v-21.40612z" fill="#dd680a"/></g><path d="M234.42305,203.18922v-11.049h3.79442v11.049z" fill="#9a4006" stroke="none" stroke-width="0" stroke-linecap="butt"/><path d="M234.37938,193.53513v-0.96213c0,0 0.4837,0 0.9389,0c0.13275,0 0.26307,0.38485 0.37826,0.38485c0.70752,0 2.53299,0.03207 2.53299,0.03207v0.54521z" fill="#c1a49f" stroke="none" stroke-width="0" stroke-linecap="butt"/><path d="M234.37784,201.76983v-8.46337h3.83963v8.46337z" fill="#c1a49f" stroke="none" stroke-width="0" stroke-linecap="butt"/><path d="M238.21153,201.74001v0.54521c0,0 -1.82547,0.03207 -2.53299,0.03207c-0.11519,0 -0.24551,0.38485 -0.37826,0.38485c-0.45519,0 -0.9389,0 -0.9389,0v-0.96213z" data-paper-data="{&quot;index&quot;:null}" fill="#c1a49f" stroke="none" stroke-width="0" stroke-linecap="butt"/><path d="M234.86285,191.93814v-0.40417h0.97001v0.40417z" fill="#ca5d00" stroke="none" stroke-width="0" stroke-linecap="butt"/><path d="M247.75591,186.03724v-0.40417h0.68709v0.40417z" fill="#ca5d00" stroke="none" stroke-width="0" stroke-linecap="butt"/><path d="M244.95391,203.06091v-10.91338h3.8414v10.91338z" fill="#9a4006" stroke="none" stroke-width="0" stroke-linecap="butt"/><path d="M244.95723,193.54244v-0.54521c0,0 1.82548,-0.03207 2.53299,-0.03207c0.11519,0 0.24551,-0.38485 0.37826,-0.38485c0.45519,0 0.9389,0 0.9389,0v0.96213z" data-paper-data="{&quot;index&quot;:null}" fill="#c1a49f" stroke="none" stroke-width="0" stroke-linecap="butt"/><path d="M244.95569,201.77715v-8.47241h3.83963v8.47241z" data-paper-data="{&quot;index&quot;:null}" fill="#c1a49f" stroke="none" stroke-width="0" stroke-linecap="butt"/><path d="M248.80532,201.61171v0.96213c0,0 -0.4837,0 -0.9389,0c-0.13275,0 -0.26307,-0.38485 -0.37826,-0.38485c-0.70752,0 -2.53299,-0.03207 -2.53299,-0.03207v-0.54521z" data-paper-data="{&quot;index&quot;:null}" fill="#c1a49f" stroke="none" stroke-width="0" stroke-linecap="butt"/><path d="M233.89981,208.10299l0.48822,-2.11563h3.85153l0.59672,2.11563z" fill="#be5c0d" stroke="none" stroke-width="0" stroke-linecap="butt"/><path d="M244.36947,208.10299l0.59672,-2.11563h3.85153l0.48822,2.11563z" data-paper-data="{&quot;index&quot;:null}" fill="#be5c0d" stroke="none" stroke-width="0" stroke-linecap="butt"/><path d="M247.51579,205.24017v-0.32548h0.70521v0.32548z" fill="#ca5d00" stroke="none" stroke-width="0" stroke-linecap="butt"/><path d="M234.822,203.96537v-0.21699h0.59672v0.21699z" fill="#ca5d00" stroke="none" stroke-width="0" stroke-linecap="butt"/><path d="M236.03352,165.82524v-2.06138h0.27123v2.06138z" fill="#ca5d00" stroke="none" stroke-width="0" stroke-linecap="butt"/><path d="M238.06778,165.82524v-2.06138h0.27123v2.06138z" fill="#ca5d00" stroke="none" stroke-width="0" stroke-linecap="butt"/><path d="M234.20268,165.82524v-2.06138h0.27123v2.06138z" fill="#ca5d00" stroke="none" stroke-width="0" stroke-linecap="butt"/><g fill="#ca5d00" stroke="none" stroke-width="0" stroke-linecap="butt"><path d="M246.65688,165.75743v-2.06138h0.27123v2.06138z"/><path d="M248.69114,165.75743v-2.06138h0.27123v2.06138z"/><path d="M244.82604,165.75743v-2.06138h0.27123v2.06138z"/></g><path d="M239.96802,206.02675l-0.5079,-0.65096h3.85153l-0.55022,0.65096z" fill="#671603" stroke="none" stroke-width="0" stroke-linecap="butt"/><path d="M240.28739,208.66354v-1.76303h2.07947v1.76303z" fill="#37383c" stroke="none" stroke-width="0" stroke-linecap="butt"/><path d="M240.23393,210.30351c0,0 0.03279,-0.58817 0.06616,-0.79389c0.03552,-0.21897 0.18799,-0.52826 0.18799,-0.52826l1.68495,-0.00912c0,0 0.09267,0.35206 0.13481,0.54256c0.05048,0.22818 0.0911,0.78871 0.0911,0.78871z" fill="#2c3132" stroke="none" stroke-width="0" stroke-linecap="butt"/><path d="M240.10425,186.05843c0,0 0.91711,-0.3983 1.35571,-0.40737c0.43615,-0.00903 1.32289,0.44357 1.32289,0.44357" fill="none" stroke="#422109" stroke-width="1.5" stroke-linecap="round"/><path d="M230.99759,213.29417v-67.21863h21.15631v67.21863z" fill="none" stroke="none" stroke-width="NaN" stroke-linecap="butt"/></g></g></g></svg>