<svg version="1.1" xmlns="http://www.w3.org/2000/svg" xmlns:xlink="http://www.w3.org/1999/xlink" width="169.3079" height="51.96982" viewBox="0,0,169.3079,51.96982"><g transform="translate(-155.75206,-171.87971)"><g data-paper-data="{&quot;isPaintingLayer&quot;:true}" fill-rule="nonzero" stroke-linecap="butt" stroke-linejoin="miter" stroke-miterlimit="10" stroke-dasharray="" stroke-dashoffset="0" style="mix-blend-mode: normal"><g stroke="none" stroke-width="0"><g fill="#314d62"><path d="M203.14546,191.17333c0,-3.31371 2.68629,-6 6,-6c3.31371,0 6,2.68629 6,6c0,3.31371 -2.68629,6 -6,6c-3.31371,0 -6,-2.68629 -6,-6z"/><path d="M264.83637,191.17333c0,-3.31371 2.68629,-6 6,-6c3.31371,0 6,2.68629 6,6c0,3.31371 -2.68629,6 -6,6c-3.31371,0 -6,-2.68629 -6,-6z"/><path d="M264.85454,201.79151c0,-3.31371 2.68629,-6 6,-6c3.31371,0 6,2.68629 6,6c0,3.31371 -2.68629,6 -6,6c-3.31371,0 -6,-2.68629 -6,-6z"/><path d="M203.14546,201.80969c0,-3.31371 2.68629,-6 6,-6c3.31371,0 6,2.68629 6,6c0,3.31371 -2.68629,6 -6,6c-3.31371,0 -6,-2.68629 -6,-6z"/><path d="M209.63637,207.79151v-22.6h60.78182v22.6z"/><path d="M203.14546,202.46424v-11.67272h73.69091v11.67272z"/></g><g fill="#98bddd"><path d="M203.14546,187.42333c0,-3.31371 2.68629,-6 6,-6c3.31371,0 6,2.68629 6,6c0,3.31371 -2.68629,6 -6,6c-3.31371,0 -6,-2.68629 -6,-6z"/><path d="M264.83637,187.42333c0,-3.31371 2.68629,-6 6,-6c3.31371,0 6,2.68629 6,6c0,3.31371 -2.68629,6 -6,6c-3.31371,0 -6,-2.68629 -6,-6z"/><path d="M264.85454,198.04151c0,-3.31371 2.68629,-6 6,-6c3.31371,0 6,2.68629 6,6c0,3.31371 -2.68629,6 -6,6c-3.31371,0 -6,-2.68629 -6,-6z"/><path d="M203.14546,198.05969c0,-3.31371 2.68629,-6 6,-6c3.31371,0 6,2.68629 6,6c0,3.31371 -2.68629,6 -6,6c-3.31371,0 -6,-2.68629 -6,-6z"/><path d="M209.63637,204.04151v-22.6h60.78182v22.6z"/><path d="M203.14546,198.71424v-11.67272h73.69091v11.67272z"/></g><g fill="#5d84a2"><path d="M203.14545,189.67333c0,-3.31371 2.68629,-6 6,-6c3.31371,0 6,2.68629 6,6c0,3.31371 -2.68629,6 -6,6c-3.31371,0 -6,-2.68629 -6,-6z"/><path d="M264.83636,189.67333c0,-3.31371 2.68629,-6 6,-6c3.31371,0 6,2.68629 6,6c0,3.31371 -2.68629,6 -6,6c-3.31371,0 -6,-2.68629 -6,-6z"/><path d="M264.85455,200.29151c0,-3.31371 2.68629,-6 6,-6c3.31371,0 6,2.68629 6,6c0,3.31371 -2.68629,6 -6,6c-3.31371,0 -6,-2.68629 -6,-6z"/><path d="M203.14545,200.30969c0,-3.31371 2.68629,-6 6,-6c3.31371,0 6,2.68629 6,6c0,3.31371 -2.68629,6 -6,6c-3.31371,0 -6,-2.68629 -6,-6z"/><path d="M209.63636,206.29151v-22.6h60.78182v22.6z"/><path d="M203.14545,200.96424v-11.67273h73.69091v11.67273z"/></g></g><text transform="translate(220.82256,199.62947) scale(0.30191,0.34421)" font-size="40" xml:space="preserve" fill="#fffcff" fill-rule="nonzero" stroke="#fffcff" stroke-width="2" stroke-linecap="butt" stroke-linejoin="miter" stroke-miterlimit="10" stroke-dasharray="" stroke-dashoffset="0" font-family="Sans Serif" font-weight="normal" text-anchor="start" style="mix-blend-mode: normal"><tspan x="0" dy="0">Collect</tspan></text><path d="M155.75206,223.84953v-51.96982h169.3079v51.96982z" fill="none" stroke="none" stroke-width="0"/></g></g></svg>