<svg version="1.1" xmlns="http://www.w3.org/2000/svg" xmlns:xlink="http://www.w3.org/1999/xlink" width="28.84615" height="50.81406" viewBox="0,0,28.84615,50.81406"><g transform="translate(-225.57693,-143.60903)"><g data-paper-data="{&quot;isPaintingLayer&quot;:true}" fill-rule="nonzero" stroke="none" stroke-linecap="butt" stroke-linejoin="miter" stroke-miterlimit="10" stroke-dasharray="" stroke-dashoffset="0" style="mix-blend-mode: normal"><path d="M238.26435,182.95276c0,-0.52917 0.08467,-0.98072 0.254,-1.35466c0.16933,-0.381 0.47272,-0.8008 0.91016,-1.25941c0.43039,-0.45861 0.72672,-0.85019 0.889,-1.17475c0.16933,-0.32455 0.254,-0.66322 0.254,-1.016c0,-0.3175 -0.05292,-0.53622 -0.15875,-0.65617c-0.09878,-0.127 -0.24695,-0.1905 -0.4445,-0.1905c-0.40217,0 -0.60325,0.24342 -0.60325,0.73025v0.79375h-1.10066v-0.71967c0,-0.59972 0.14817,-1.05833 0.4445,-1.37583c0.29633,-0.32455 0.72671,-0.48683 1.29116,-0.48683c0.56444,0 0.99483,0.16228 1.29116,0.48683c0.29633,0.3175 0.4445,0.77611 0.4445,1.37583c0,0.45155 -0.10936,0.89253 -0.32808,1.32291c-0.21167,0.43039 -0.58208,0.92427 -1.11125,1.48166c-0.34572,0.36689 -0.57855,0.66675 -0.6985,0.89958c-0.11994,0.22578 -0.17991,0.46919 -0.17991,0.73025v0.15875h2.21191v1.05833h-3.36549z" fill="#000000" stroke-width="0.26458"/><path d="M229.81251,189.50001v-19h20.375v19z" fill="none" stroke-width="0"/><path d="M225.57694,194.42309v-28.84615h28.84615v28.84615z" fill="none" stroke-width="0"/><path d="M225.57694,194.42309v-50.81405h28.84615v50.81406z" fill="none" stroke-width="0"/></g></g></svg>