<svg version="1.1" xmlns="http://www.w3.org/2000/svg" xmlns:xlink="http://www.w3.org/1999/xlink" width="32.18964" height="67.87771" viewBox="0,0,32.18964,67.87771"><g transform="translate(-223.6524,-146.79144)"><g data-paper-data="{&quot;isPaintingLayer&quot;:true}" fill-rule="nonzero" stroke-linejoin="miter" stroke-miterlimit="10" stroke-dasharray="" stroke-dashoffset="0" style="mix-blend-mode: normal"><path d="M223.6524,208.32317c0,-13.44895 0,-44.19668 0,-51.64628c0,-3.17904 1.18659,-6.346 3.08653,-6.346c6.68138,0 22.18448,0 25.92809,0c1.59053,0 3.17502,3.16696 3.17502,6.346c0,7.51567 0,38.74459 0,52.00002c0,3.69408 -1.53433,5.99225 -3.08653,5.99225c-3.69771,0 -19.17433,0 -25.92808,0c-1.95175,0 -3.17502,-2.44546 -3.17502,-6.34599z" fill="#272727" stroke="none" stroke-width="0" stroke-linecap="butt"/><g><path d="M237.96122,210.40562c0,0 0.00473,-1.1213 0.29,-1.99077c0.18063,-0.55056 0.61354,-1.00015 0.78351,-1.00015c0.32991,0 0.9537,0 1.51692,0c0.24998,0 0.69805,0.48595 0.89316,1.06609c0.28894,0.85912 0.2737,1.92483 0.2737,1.92483z" fill="#2c3132" stroke="none" stroke-width="0" stroke-linecap="butt"/><path d="M243.32297,209.55803c0,0 0.0038,-0.89938 0.23261,-1.59678c0.14488,-0.4416 0.49212,-0.80221 0.62846,-0.80221c0.26462,0 0.76496,0 1.21671,0c0.2005,0 0.5599,0.38977 0.71639,0.85509c0.23175,0.6891 0.21954,1.5439 0.21954,1.5439z" fill="#2c3132" stroke="none" stroke-width="0" stroke-linecap="butt"/><path d="M233.49932,209.59718c0,0 0.0038,-0.89938 0.23261,-1.59678c0.14488,-0.4416 0.49212,-0.80221 0.62846,-0.80221c0.26462,0 0.76496,0 1.21671,0c0.2005,0 0.5599,0.38977 0.71639,0.85509c0.23175,0.6891 0.21954,1.5439 0.21954,1.5439z" fill="#2c3132" stroke="none" stroke-width="0" stroke-linecap="butt"/><path d="M237.45634,207.59135l-0.35719,-0.79348h5.4816l-0.35719,0.79348z" fill="#347f72" stroke="none" stroke-width="0" stroke-linecap="butt"/><path d="M243.33482,207.50525l-0.22553,-0.68012h3.4611l-0.22553,0.68012z" fill="#347f72" stroke="none" stroke-width="0" stroke-linecap="butt"/><path d="M233.50629,207.49695l-0.22553,-0.68012h3.4611l-0.22553,0.68012z" fill="#347f72" stroke="none" stroke-width="0" stroke-linecap="butt"/><path d="M233.30364,206.85769l-0.99318,-1.25567h15.24165l-0.99318,1.25567z" fill="#046051" stroke="none" stroke-width="0" stroke-linecap="butt"/><path d="M248.5456,184.21666c0,0 -0.20543,-0.75299 -0.93193,-1.84435c-0.23934,-0.35954 -0.3887,-0.8535 -0.79987,-1.24005c-0.6239,-0.58653 -1.4021,-1.6071 -2.32828,-2.22246c-0.88521,-0.58815 -1.92931,-0.77769 -2.10048,-1.06752c-0.36815,-0.62334 1.33875,-2.17338 1.33875,-2.17338l2.90404,3.2876l2.4109,4.98618z" data-paper-data="{&quot;index&quot;:null}" fill="#00876d" stroke="none" stroke-width="0" stroke-linecap="butt"/><path d="M230.49769,184.21666l2.4109,-4.98618l2.90404,-3.2876c0,0 1.7069,1.55002 1.33875,2.17338c-0.17118,0.28983 -1.21528,0.47938 -2.10048,1.06752c-0.92618,0.61536 -1.70437,1.63592 -2.32828,2.22246c-0.41117,0.38654 -0.56053,0.88051 -0.79987,1.24005c-0.72651,1.09137 -0.93193,1.84435 -0.93193,1.84435z" fill="#00876d" stroke="none" stroke-width="0" stroke-linecap="butt"/><path d="M246.05897,202.24365l-1.75338,-3.50676c0,0 2.01268,-1.08874 2.75697,-2.38572c0.31782,-0.55383 0.94417,-1.38534 1.35358,-2.34164c0.89818,-2.09794 1.47838,-5.24502 1.47838,-5.24502l0.21918,5.09577c0,0 -0.35435,1.95672 -0.9329,3.85183c-0.42121,1.37971 -1.03852,2.70101 -1.34607,3.3369c-0.59282,1.22569 -1.77573,1.19464 -1.77573,1.19464z" fill="#00876d" stroke="none" stroke-width="0" stroke-linecap="butt"/><path d="M232.79901,202.40802c0,0 -0.40948,-0.38788 -0.91121,-1.30148c-0.64075,-1.16674 -1.43196,-3.01802 -1.71288,-4.1517c-0.27665,-1.11648 -0.43958,-3.00055 -0.48017,-4.52263c-0.03586,-1.3451 0.03583,-2.40748 0.03583,-2.40748l0.32875,-0.8219c0,0 0.03684,2.71794 0.97692,4.57912c0.35759,0.70796 1.00936,1.82968 1.7775,2.77132c1.08175,1.32608 2.28656,2.40275 2.28656,2.40275z" fill="#00876d" stroke="#11a184" stroke-width="0" stroke-linecap="butt"/><path d="M250.07942,190.96881c0,4.62877 -1.24832,8.80022 -3.24571,11.73121c-1.83031,2.68584 -4.28964,0.49453 -6.99378,0.49453c-2.70987,0 -5.17387,2.18435 -7.00539,-0.51159c-1.9906,-2.93011 -3.2341,-7.09435 -3.2341,-11.71416c0,-8.8704 4.58437,-16.06127 10.23949,-16.06127c5.65511,0 10.23949,7.19087 10.23949,16.06127z" fill="none" stroke="#00876d" stroke-width="2" stroke-linecap="butt"/><path d="M230.11413,188.91063c0,-6.12795 4.35438,-11.09563 9.72581,-11.09563c5.37141,0 9.72581,4.96769 9.72581,11.09563c0,6.12795 -4.35438,11.09563 -9.72581,11.09563c-5.37141,0 -9.72581,-4.96769 -9.72581,-11.09563z" fill="none" stroke="#00876d" stroke-width="2" stroke-linecap="butt"/><g data-paper-data="{&quot;index&quot;:null}" stroke="none" stroke-width="0" stroke-linecap="butt"><path d="M232.28153,202.23562c0,-3.33564 3.40424,-6.03971 7.60359,-6.03971c4.19934,0 7.60358,2.70407 7.60358,6.03971c0,3.33564 -3.23985,2.20419 -7.43919,2.20419c-4.19934,0 -7.76797,1.13146 -7.76797,-2.20419z" fill="#04856e"/><path d="M242.15013,196.51551c0,0 0.567,0.06783 1.2437,0.34328c0.37054,0.15083 0.78365,0.39462 1.17488,0.61512c0.37774,0.2129 0.92854,0.63852 1.35711,1.08179c0.3955,0.4091 0.69636,0.83918 0.812,1.05967c0.2058,0.39235 0.51506,0.85552 0.62052,1.30155c0.21794,0.9216 0.25873,1.98933 0.25873,1.98933c0,0 -0.19567,0.84896 -0.69484,1.05374c-1.4745,0.60493 -4.75061,1.0921 -6.73943,1.12051c-2.43107,0.03473 -7.93562,-1.95508 -7.93562,-1.95508c0,0 -0.194,-1.60427 0.4172,-2.79908c0.04558,-0.08912 0.10469,-0.28468 0.21627,-0.48024c0.23097,-0.40483 0.58053,-0.87355 0.75598,-1.06932c0.48193,-0.53774 1.17874,-1.09734 1.75348,-1.42173c1.04892,-0.59201 2.10756,-0.83954 2.10756,-0.83954z" fill="#34dabb"/><path d="M234.42572,198.0314c0,0 0.71846,-0.57047 0.90061,-0.67693c0.20248,-0.11835 0.73298,-0.37486 0.73298,-0.37486h7.5905c0,0 0.39345,0.17513 0.58724,0.28273c0.21176,0.11758 1.10742,0.76906 1.10742,0.76906z" data-paper-data="{&quot;index&quot;:null}" fill="#23bca2"/></g><g data-paper-data="{&quot;index&quot;:null}" stroke="none" stroke-width="0" stroke-linecap="butt"><path d="M234.2475,187.19377c0,-2.83694 2.50065,-5.13673 5.58535,-5.13673c3.08471,0 5.58535,2.29979 5.58535,5.13673c0,2.83694 -2.50065,5.13673 -5.58535,5.13673c-3.08471,0 -5.58535,-2.29979 -5.58535,-5.13673z" fill="#04856e"/><path d="M241.49669,182.32884c0,0 0.4165,0.05769 0.91358,0.29196c0.27218,0.12827 0.57564,0.33561 0.86303,0.52316c0.27749,0.18107 0.68209,0.54306 0.99689,0.92006c0.29053,0.34793 0.51153,0.71372 0.59648,0.90124c0.15117,0.3337 0.37835,0.72761 0.45582,1.10696c0.16009,0.78382 0.0693,1.5055 0.0693,1.5055h-11.089c0,0 -0.223,-0.99161 0.22596,-2.00779c0.03349,-0.0758 0.07691,-0.24212 0.15887,-0.40845c0.16966,-0.3443 0.42644,-0.74295 0.55532,-0.90944c0.35402,-0.45734 0.86587,-0.93328 1.28805,-1.20918c0.77051,-0.50351 1.54815,-0.71403 1.54815,-0.71403z" fill="#34dabb"/><path d="M243.49235,191.05834c0,0 -0.18016,0.16744 -0.31395,0.25798c-0.14874,0.10066 -0.53843,0.31881 -0.53843,0.31881h-5.57575c0,0 -0.28902,-0.14895 -0.43137,-0.24047c-0.15555,-0.09999 -0.46588,-0.33634 -0.46588,-0.33634z" fill="#005f4e"/><path d="M245.34756,186.35596c0,0 0.05472,0.12997 0.07576,0.28923c0.01952,0.14763 0.00535,0.32045 0.00803,0.43823c0.00241,0.10631 0.02733,0.25922 0.0165,0.39978c-0.0146,0.18952 -0.06664,0.35658 -0.06664,0.35658h-11.09669c0,0 -0.02119,-0.12826 -0.04219,-0.2892c-0.02198,-0.16842 -0.01009,-0.37263 -0.00714,-0.50308c0.00235,-0.10397 -0.0088,-0.24882 0.01582,-0.37909c0.03181,-0.16839 0.06717,-0.31246 0.06717,-0.31246z" fill="#48edce"/><path d="M236.17018,183.30036c0,0 0.18014,-0.16744 0.31395,-0.25798c0.14874,-0.10066 0.53843,-0.31881 0.53843,-0.31881h5.57575c0,0 0.28902,0.14895 0.43137,0.24047c0.15555,0.09999 0.46588,0.33635 0.46588,0.33635z" data-paper-data="{&quot;index&quot;:null}" fill="#23bca2"/></g><path d="M239.83415,171.24449c2.51986,0 4.5626,1.87868 4.5626,4.19613c0,2.31747 -2.04275,4.19613 -4.5626,4.19613c-2.51986,0 -4.56262,-1.87868 -4.56262,-4.19613c0,-2.31747 2.04275,-4.19613 4.56262,-4.19613z" fill="#04856e" stroke="none" stroke-width="0" stroke-linecap="butt"/><path d="M239.83995,162.00106c2.09308,0 3.78987,1.5605 3.78987,3.48546c0,1.92497 -1.69679,3.48546 -3.78987,3.48546c-2.09308,0 -3.78987,-1.5605 -3.78987,-3.48546c0,-1.92497 1.69679,-3.48546 3.78987,-3.48546z" fill="#04856e" stroke="none" stroke-width="0" stroke-linecap="butt"/><path d="M238.49751,159.56884v-0.76711h2.68487v0.76711z" fill="#43a08d" stroke="none" stroke-width="0" stroke-linecap="butt"/><path d="M241.18412,158.82621h-2.68836l1.34419,-5.30909z" fill="#016150" stroke="none" stroke-width="0" stroke-linecap="butt"/><path d="M238.50074,159.82496v-0.26262h2.68487v0.26262z" fill="#016150" stroke="none" stroke-width="0" stroke-linecap="butt"/><path d="M238.36053,160.56196l0.13699,-0.76711h2.68487l0.13699,0.76711z" fill="#43a08d" stroke="none" stroke-width="0" stroke-linecap="butt"/><path d="M238.25546,161.03475l0.11741,-0.53914h2.94057l0.11741,0.53914z" fill="#016150" stroke="none" stroke-width="0" stroke-linecap="butt"/><path d="M238.10079,161.60802l0.16148,-0.60542h3.165l0.16148,0.60542z" fill="#43a08d" stroke="none" stroke-width="0" stroke-linecap="butt"/><path d="M237.95715,161.98645l0.13993,-0.38865h3.50435l0.13993,0.38865z" fill="#016150" stroke="none" stroke-width="0" stroke-linecap="butt"/><path d="M237.96009,162.46234v-0.49173h3.77464v0.49173z" fill="#43a08d" stroke="none" stroke-width="0" stroke-linecap="butt"/><path d="M238.64996,168.78754c0,0 -0.52766,-0.14285 -1.05048,-0.4845c-0.28647,-0.1872 -0.63377,-0.51014 -0.87398,-0.82046c-0.08746,-0.11298 -0.26169,-0.38346 -0.3768,-0.61709c-0.05561,-0.11287 -0.08507,-0.22571 -0.10779,-0.27715c-0.30463,-0.68951 -0.15332,-1.36237 -0.15332,-1.36237h7.52428c0,0 0.0616,0.4897 -0.04703,1.02153c-0.05257,0.2574 -0.20671,0.52469 -0.30929,0.75111c-0.05765,0.12724 -0.20759,0.37544 -0.40473,0.61153c-0.21361,0.25581 -0.48814,0.50144 -0.67642,0.6243c-0.19501,0.12725 -0.40091,0.26794 -0.5856,0.35497c-0.33729,0.15895 -0.6199,0.19811 -0.6199,0.19811z" fill="#34dabb" stroke="none" stroke-width="0" stroke-linecap="butt"/><path d="M237.3525,162.86427c0,0 0.21056,-0.16036 0.31611,-0.22822c0.09659,-0.06209 0.2927,-0.16316 0.2927,-0.16316h3.78334c0,0 0.26442,0.14803 0.36534,0.21633c0.0908,0.06144 0.21303,0.17506 0.21303,0.17506z" fill="#005f4e" stroke="none" stroke-width="0" stroke-linecap="butt"/><path d="M236.09801,166.05499c0,0 -0.02399,-0.09775 -0.04558,-0.212c-0.01671,-0.0884 -0.00913,-0.18668 -0.01073,-0.25722c-0.00201,-0.08852 -0.01007,-0.22709 0.00485,-0.34135c0.01425,-0.1092 0.02863,-0.19623 0.02863,-0.19623h7.5295c0,0 0.03532,0.11335 0.04522,0.24195c0.00734,0.09538 -0.00956,0.19913 -0.0112,0.27127c-0.00182,0.07992 0.00779,0.19718 -0.00545,0.29735c-0.01428,0.10806 -0.05141,0.19625 -0.05141,0.19625z" fill="#48edce" stroke="none" stroke-width="0" stroke-linecap="butt"/><g fill="#30baa1" stroke="none" stroke-width="0" stroke-linecap="butt"><path d="M240.88276,164.81496v-0.38122h0.38122v0.38122z"/><path d="M241.39656,164.81496v-0.38122h0.38122v0.38122z"/><path d="M241.92207,164.81009v-0.38122h0.38122v0.38122z"/><path d="M242.43589,164.81009v-0.38122h0.38122v0.38122z"/></g><path d="M242.32521,168.12833c0,0 -0.21056,0.16036 -0.31611,0.22822c-0.09659,0.06209 -0.2927,0.16316 -0.2927,0.16316h-3.78334c0,0 -0.26442,-0.14803 -0.36534,-0.21633c-0.0908,-0.06144 -0.21303,-0.17506 -0.21303,-0.17506z" data-paper-data="{&quot;index&quot;:null}" fill="#23bca2" stroke="none" stroke-width="0" stroke-linecap="butt"/><path d="M237.72649,171.78121l0.27397,-3.2615h3.67898l0.27397,3.2615z" fill="#1f8873" stroke="none" stroke-width="0" stroke-linecap="butt"/><path d="M237.90412,169.80223l0.06147,-0.66534h3.75173l0.06147,0.66534z" fill="#005f4e" stroke="none" stroke-width="0" stroke-linecap="butt"/><path d="M237.80476,171.12238l0.06458,-0.66534h3.94121l0.06458,0.66534z" fill="#005f4e" stroke="none" stroke-width="0" stroke-linecap="butt"/><path d="M238.40156,179.41471c0,0 -0.63524,-0.17197 -1.26466,-0.58328c-0.34487,-0.22537 -0.763,-0.61416 -1.0522,-0.98776c-0.10529,-0.13601 -0.31505,-0.46164 -0.45364,-0.74291c-0.06695,-0.13587 -0.10242,-0.27174 -0.12977,-0.33366c-0.36675,-0.83011 -0.18458,-1.64014 -0.18458,-1.64014h9.05847c0,0 0.07415,0.58953 -0.05662,1.22983c-0.06329,0.3099 -0.24887,0.63167 -0.37236,0.90427c-0.0694,0.15319 -0.24993,0.45199 -0.48725,0.73621c-0.25716,0.30797 -0.58768,0.60367 -0.81434,0.75159c-0.23476,0.1532 -0.48266,0.32258 -0.705,0.42736c-0.40606,0.19137 -0.7463,0.2385 -0.7463,0.2385z" fill="#34dabb" stroke="none" stroke-width="0" stroke-linecap="butt"/><path d="M236.83954,172.2837c0,0 0.2535,-0.19307 0.38056,-0.27475c0.11629,-0.07475 0.35238,-0.19643 0.35238,-0.19643h4.55476c0,0 0.31833,0.17822 0.43984,0.26044c0.1093,0.07397 0.25646,0.21075 0.25646,0.21075z" fill="#005f4e" stroke="none" stroke-width="0" stroke-linecap="butt"/><path d="M235.32927,176.12501c0,0 -0.02888,-0.11768 -0.05487,-0.25523c-0.02011,-0.10642 -0.01099,-0.22475 -0.01292,-0.30967c-0.00242,-0.10656 -0.01213,-0.27339 0.00583,-0.41095c0.01715,-0.13147 0.03446,-0.23623 0.03446,-0.23623h9.06475c0,0 0.04252,0.13646 0.05444,0.29129c0.00885,0.11482 -0.01151,0.23973 -0.01348,0.32657c-0.00218,0.09622 0.00938,0.23739 -0.00656,0.35799c-0.01719,0.13009 -0.06189,0.23627 -0.06189,0.23627z" fill="#48edce" stroke="none" stroke-width="0" stroke-linecap="butt"/><path d="M242.82617,178.6211c0,0 -0.2535,0.19307 -0.38056,0.27475c-0.11629,0.07475 -0.35238,0.19643 -0.35238,0.19643h-4.55476c0,0 -0.31833,-0.17822 -0.43984,-0.26044c-0.1093,-0.07397 -0.25646,-0.21075 -0.25646,-0.21075z" data-paper-data="{&quot;index&quot;:null}" fill="#23bca2" stroke="none" stroke-width="0" stroke-linecap="butt"/><g fill="#22af9a" stroke="none" stroke-width="0" stroke-linecap="butt"><path d="M235.90571,175.77361v-0.38122h0.38122v0.38122z"/><path d="M236.41952,175.77361v-0.38122h0.38122v0.38122z"/><path d="M236.94503,175.76873v-0.38122h0.38122v0.38122z"/><path d="M237.45884,175.76873v-0.38122h0.38122v0.38122z"/></g><g fill="#20c9a9" stroke="none" stroke-width="0" stroke-linecap="butt"><path d="M241.01974,176.68682v-0.38122h0.38122v0.38122z"/><path d="M241.53354,176.68682v-0.38122h0.38122v0.38122z"/><path d="M242.05906,176.68195v-0.38122h0.38122v0.38122z"/><path d="M242.57286,176.68195v-0.38122h0.38122v0.38122z"/></g><g stroke="none" stroke-width="0" stroke-linecap="butt"><path d="M237.17856,182.73147l0.34499,-3.76918h4.63279l0.34499,3.76918z" fill="#1f8873"/><path d="M237.40223,180.44445l0.0774,-0.76892h4.7244l0.0774,0.76892z" fill="#005f4e"/><path d="M237.27711,181.9701l0.08131,-0.76892h4.96301l0.08131,0.76892z" fill="#005f4e"/></g><g stroke="none" stroke-width="0" stroke-linecap="butt"><path d="M235.9731,197.07947l0.9944,-5.48864h5.74489l0.9944,5.48864z" fill="#1f8873"/><path d="M236.57205,193.74914l0.27685,-1.11968h5.98758l0.27683,1.11968z" fill="#005f4e"/><path d="M236.17111,195.97077l0.22772,-1.11968h6.8822l0.22772,1.11968z" fill="#005f4e"/></g><path d="M232.30588,205.66822l-0.05479,-2.4383h15.3421l-0.05479,2.4383z" fill="#018871" stroke="none" stroke-width="0" stroke-linecap="butt"/><path d="M232.27848,204.62715l-0.05479,-1.64379c0,0 1.85231,-0.01731 2.80804,-0.02624c0.18913,-0.00177 0.41644,0.30438 0.66065,0.31328c1.043,0.03803 2.39418,0.01433 2.39418,0.01433v1.34244z" fill="#018871" stroke="none" stroke-width="0" stroke-linecap="butt"/><path d="M241.7577,204.57236v-1.34244c0,0 1.35118,0.0237 2.39418,-0.01433c0.24421,-0.00891 0.47153,-0.31505 0.66065,-0.31328c0.95573,0.00893 2.80804,0.02624 2.80804,0.02624l-0.05479,1.64379z" data-paper-data="{&quot;index&quot;:null}" fill="#018871" stroke="none" stroke-width="0" stroke-linecap="butt"/><g fill="#20c9a9" stroke="none" stroke-width="0" stroke-linecap="butt"><path d="M241.84164,185.95276v-0.38122h0.38122v0.38122z"/><path d="M242.35545,185.95276v-0.38122h0.38122v0.38122z"/><path d="M242.88096,185.94788v-0.38122h0.38122v0.38122z"/><path d="M243.39476,185.94788v-0.38122h0.38122v0.38122z"/></g><g fill="none" stroke="#3f877b" stroke-width="1" stroke-linecap="round"><path d="M236.1157,204.96926c0,0 -0.02753,-0.67137 0.05714,-1.02183c0.03763,-0.15577 0.14889,-0.16643 0.18052,-0.16643c0.02711,0 0.12065,0.03841 0.16158,0.18743c0.09591,0.3492 0.09435,1.00084 0.09435,1.00084"/></g><path d="M226.9573,213.2086v-66.41715h26.08541v66.41715z" fill="none" stroke="none" stroke-width="NaN" stroke-linecap="butt"/><path d="M226.9573,213.2086v-66.41715h26.08541v66.41715z" fill="none" stroke="none" stroke-width="NaN" stroke-linecap="butt"/><path d="M233.89087,206.94924c0,0 -0.83147,-0.9452 -0.91384,-1.98723c-0.08758,-1.10803 -0.08376,-2.474 0.2376,-3.61926c0.21791,-0.77658 0.68522,-1.45169 0.97022,-1.87609c0.75748,-1.12795 2.53117,-1.93257 2.6122,-2.59792c0.17322,-1.42243 0.92387,-2.72554 0.69062,-4.91373c-0.11578,-1.08625 -1.41699,-1.95219 -2.08715,-3.07891c-0.42802,-0.71963 -0.37196,-1.63631 -0.32375,-2.48929c0.04504,-0.79699 0.54036,-1.70696 1.31802,-2.36044c0.31979,-0.26872 0.97363,-0.17596 1.21277,-0.51497c0.48767,-0.69133 0.54742,-1.56212 0.61729,-2.44681c0.04351,-0.55091 0.16124,-1.13065 0.17379,-1.60417c0.01236,-0.46613 -1.17455,-1.11974 -1.71279,-2.23101c-0.47967,-0.99035 -0.3181,-2.44658 -0.29965,-2.85997c0.01989,-0.44589 0.34727,-1.01247 0.87485,-1.4833c0.28814,-0.25715 0.82405,-0.32452 0.96695,-0.70117c0.49149,-1.29545 0.41726,-2.81908 0.44599,-3.60151c0.01626,-0.44284 -0.93693,-1.05483 -1.40679,-1.86941c-0.43012,-0.74571 -0.38076,-1.6984 -0.36113,-2.07182c0.01726,-0.32838 0.13657,-0.79066 0.4907,-1.09861c0.3901,-0.33923 1.02428,-0.52387 1.18543,-0.88436c0.26068,-0.58314 0.47746,-2.0218 0.57033,-3.44472c0.12245,-1.87618 0.69816,-3.50451 0.69816,-3.50451" fill="none" stroke-opacity="0.16078" stroke="#ffffff" stroke-width="0.5" stroke-linecap="round"/></g></g></g></svg>