<svg version="1.1" xmlns="http://www.w3.org/2000/svg" xmlns:xlink="http://www.w3.org/1999/xlink" width="85" height="85" viewBox="0,0,85,85"><g transform="translate(-197.5,-137.5)"><g data-paper-data="{&quot;isPaintingLayer&quot;:true}" fill-rule="nonzero" stroke="none" stroke-linecap="butt" stroke-linejoin="miter" stroke-miterlimit="10" stroke-dasharray="" stroke-dashoffset="0" style="mix-blend-mode: normal"><path d="M239.99998,183.81c-0.57149,0 -1.00894,-0.16228 -1.31233,-0.48683c-0.30339,-0.32455 -0.45508,-0.78316 -0.45508,-1.37583v-3.83115c0,-1.28411 0.59267,-1.92616 1.778,-1.92616c0.56444,0 0.99483,0.16228 1.29116,0.48683c0.29633,0.3175 0.4445,0.77611 0.4445,1.37583v0.13758h-1.10067v-0.21167c0,-0.48683 -0.20108,-0.73025 -0.60324,-0.73025c-0.21873,0 -0.38101,0.06703 -0.48684,0.20108c-0.10583,0.13406 -0.15875,0.37042 -0.15875,0.70908v1.41816h0.0212c0.20461,-0.43039 0.55739,-0.64558 1.05833,-0.64558c0.42333,0 0.74436,0.14464 0.96308,0.43392c0.21872,0.28928 0.32808,0.70908 0.32808,1.25941v1.32291c0,0.59266 -0.15169,1.05127 -0.45508,1.37583c-0.30339,0.32455 -0.74083,0.48683 -1.31233,0.48683zM239.99998,182.75167c0.40217,0 0.60325,-0.23989 0.60325,-0.71967v-1.31233c0,-0.48683 -0.20108,-0.73025 -0.60325,-0.73025c-0.40217,0 -0.60325,0.24342 -0.60325,0.73025v1.31233c0,0.47978 0.20108,0.71967 0.60325,0.71967z" fill="#000000" stroke-width="0.26458"/><path d="M229.8125,189.5v-24.66667h20.375v24.66667z" fill="none" stroke-width="0"/><path d="M197.5,222.5v-85h85v85z" fill="none" stroke-width="0"/></g></g></svg>