<svg version="1.1" xmlns="http://www.w3.org/2000/svg" xmlns:xlink="http://www.w3.org/1999/xlink" width="221.03039" height="293.91861" viewBox="0,0,221.03039,293.91861"><g transform="translate(-112.67515,-1.89533)"><g data-paper-data="{&quot;isPaintingLayer&quot;:true}" fill-rule="nonzero" stroke="none" stroke-width="0" stroke-linecap="butt" stroke-linejoin="miter" stroke-miterlimit="10" stroke-dasharray="" stroke-dashoffset="0" style="mix-blend-mode: normal"><g data-paper-data="{&quot;index&quot;:null}" fill="#573007"><path d="M298.77916,199.93066c-0.65845,-0.18101 -1.21907,-0.59151 -1.5994,-1.26394c-0.94981,-1.6793 -0.16787,-3.91842 1.74654,-5.00121c1.91441,-1.08279 4.23631,-0.59922 5.18613,1.08008c0.94981,1.67931 -0.07978,3.48057 -1.99419,4.56336c-1.14783,0.64922 -2.35314,0.89274 -3.33907,0.62171z"/><path d="M301.42372,197.22954c-1.91441,1.08279 -4.34411,0.40863 -5.4269,-1.50577c-1.08279,-1.9144 -0.40864,-4.34411 1.50577,-5.4269c1.91441,-1.08279 4.34411,-0.40863 5.4269,1.50577c0.62257,1.10071 2.20107,5.2591 0.22346,3.45924c-0.64152,-0.58386 -0.91553,1.50743 -1.72922,1.96766z"/><path d="M296.20567,195.52538c-2.61972,1.48171 -5.62118,1.13094 -6.70397,-0.78346c-1.08279,-1.9144 0.16312,-4.66749 2.78284,-6.14921c2.61971,-1.48172 5.95436,-1.22307 7.03715,0.69133c0.20337,0.35957 1.61305,0.98317 1.65845,1.38792c0.19632,1.75026 -2.64678,3.65 -4.77446,4.85342z"/><path d="M295.07116,195.3644c-1.30986,0.74086 -3.24948,-0.21049 -4.33227,-2.12489c-0.28845,-0.50999 -0.487,-1.03687 -0.59831,-1.54946c-0.30653,-1.41159 0.04852,-2.71482 1.00944,-3.25832c0.56554,-0.31986 2.61289,-0.80704 3.29356,-0.5547c0.89587,0.33211 0.42342,1.59174 1.03872,2.67959c1.08279,1.91439 0.89872,4.06691 -0.41114,4.80777z"/><path d="M296.22691,199.3662c-0.68387,-1.2091 -0.17641,-2.78984 1.13345,-3.5307c1.30985,-0.74085 2.92608,-0.36127 3.60995,0.84783c0.50808,0.8983 0.21131,2.13512 -0.44341,3.22422c-0.22652,0.37681 -0.37846,1.09346 -0.71514,1.28389c-0.8805,0.49801 -1.66916,-0.07574 -2.44283,-0.79147c-0.37729,-0.34902 -0.91786,-0.63743 -1.14203,-1.03376z"/><path d="M292.53102,199.53019c-0.68387,-1.2091 -0.17641,-2.78984 1.13345,-3.5307c1.30985,-0.74085 2.92608,-0.36127 3.60995,0.84783c0.68387,1.2091 0.17641,2.78984 -1.13345,3.5307c-0.65736,0.3718 -1.29678,0.11866 -1.9519,-0.03715c-0.65026,-0.15467 -1.31739,-0.20837 -1.65805,-0.81068z"/><path d="M288.99752,197.82411c-0.47141,-0.83346 0.18828,-1.67031 0.16077,-2.71371c-0.02774,-1.05242 -0.73673,-2.31003 0.17399,-2.82513c1.81364,-1.02581 5.28613,0.14995 6.23302,1.82408c0.94689,1.67414 0.24426,3.86287 -1.56939,4.88867c-0.22584,0.12773 -0.73101,0.77098 -0.9667,0.85137c-0.79778,0.27215 -1.53804,0.03827 -2.21665,-0.32253c-0.73089,-0.3886 -1.38518,-0.94274 -1.81505,-1.70276z"/></g><g data-paper-data="{&quot;index&quot;:null}" fill="#4e2c06"><path d="M303.98253,180.35992c-0.01848,-0.39213 0.1059,-0.77172 0.40559,-1.09948c0.74843,-0.81853 2.11159,-0.79042 3.04472,0.06279c0.93313,0.85321 1.08286,2.20842 0.33443,3.02695c-0.74843,0.81852 -1.91645,0.577 -2.84958,-0.27621c-0.55948,-0.51156 -0.90748,-1.12687 -0.93516,-1.71404z"/><path d="M305.7856,178.0892c0.85321,-0.93312 2.30131,-0.99791 3.23444,-0.1447c0.93312,0.85321 0.99791,2.30131 0.1447,3.23444c-0.49056,0.53652 -2.48178,2.14068 -1.85072,0.73893c0.20471,-0.45473 -0.98711,-0.23159 -1.38372,-0.59423c-0.93312,-0.85321 -0.99791,-2.30131 -0.1447,-3.23444z"/><path d="M305.93128,178.16797c-1.2769,-1.16755 -1.62038,-2.87048 -0.76717,-3.80361c0.8532,-0.93312 2.58,-0.74309 3.85691,0.42446c1.27691,1.16754 1.73014,3.03614 0.87693,3.96927c-0.16025,0.17525 -0.24972,1.05688 -0.46283,1.15386c-0.92156,0.41938 -2.46677,-0.79572 -3.50385,-1.74398z"/><path d="M306.2058,174.7726c0.22729,-0.24858 0.47985,-0.45103 0.74015,-0.60327c0.71681,-0.41923 1.49238,-0.45755 1.96075,-0.02929c0.27566,0.25205 0.90697,1.28412 0.89042,1.70112c-0.02178,0.54884 -0.79444,0.51523 -1.27927,1.04548c-0.85322,0.93313 -2.06244,1.21633 -2.70089,0.63256c-0.63845,-0.58377 -0.46436,-1.81346 0.38884,-2.74658z"/><path d="M303.83592,178.86441c0.53887,-0.58933 1.49328,-0.59385 2.13173,-0.01008c0.63846,0.58377 0.71919,1.53477 0.18032,2.12411c-0.40035,0.43786 -1.12922,0.4962 -1.84119,0.33257c-0.24632,-0.05661 -0.66508,-0.01187 -0.82918,-0.16192c-0.42918,-0.39241 -0.25622,-0.92574 -0.00301,-1.4762c0.12348,-0.26843 0.18472,-0.6153 0.36136,-0.80848z"/><path d="M305.21904,176.86367c0.63846,0.58377 0.71919,1.53477 0.18032,2.12411c-0.53887,0.58933 -1.49327,0.59385 -2.13173,0.01008c-0.32041,-0.29297 -0.29608,-0.68757 -0.32773,-1.07339c-0.03142,-0.38296 -0.12101,-0.75714 0.14741,-1.05072c0.53887,-0.58933 1.49328,-0.59385 2.13173,-0.01008z"/><path d="M303.38969,174.63838c0.37146,-0.40624 0.94645,-0.19493 1.51179,-0.39601c0.57024,-0.20282 1.13113,-0.81454 1.57504,-0.40865c0.88401,0.80829 0.86059,2.91576 0.11447,3.73177c-0.74613,0.81601 -2.06761,0.82226 -2.95163,0.01395c-0.11008,-0.10065 -0.5517,-0.26205 -0.63767,-0.37652c-0.29098,-0.38749 -0.29516,-0.83375 -0.21897,-1.26897c0.08206,-0.46875 0.26825,-0.92514 0.60698,-1.29559z"/></g><g data-paper-data="{&quot;index&quot;:null}" fill="#573007"><path d="M277.22151,192.67589c-1.82373,0.24635 -3.17457,-1.01004 -3.01717,-2.80625c0.1574,-1.79621 1.76342,-3.45201 3.58715,-3.69836c1.82373,-0.24635 2.69905,1.07428 2.54165,2.87049c-0.09438,1.07697 -0.53859,2.08037 -1.27228,2.76435c-0.49,0.4568 -1.10911,0.77113 -1.83937,0.86977z"/><path d="M274.27957,192.73499c-2.07904,0.28084 -3.63685,-0.9476 -3.47945,-2.74381c0.1574,-1.7962 1.97039,-3.47997 4.04945,-3.76081c1.19537,-0.16148 5.30326,-0.17304 2.84225,0.83346c-0.79834,0.32649 0.70409,1.14688 0.63719,1.91034c-0.1574,1.7962 -1.97039,3.47997 -4.04945,3.76081z"/><path d="M270.07907,197.4747c-2.07905,0.28084 -3.58985,-1.48406 -3.37446,-3.94202c0.21538,-2.45796 2.17865,-4.96278 4.2577,-5.24361c0.39049,-0.05275 1.62545,-0.96202 1.96817,-0.87939c1.48202,0.35729 1.47797,3.10969 1.30303,5.106c-0.2154,2.45797 -2.0754,4.6782 -4.15445,4.95903z"/><path d="M269.54864,196.0804c-0.55384,0.07481 -1.07356,0.07515 -1.53599,0.01215c-1.27345,-0.17349 -2.11248,-0.82732 -2.03347,-1.72892c0.0465,-0.53061 0.74313,-2.2564 1.30103,-2.70964c0.73427,-0.59651 1.47701,0.13547 2.65842,-0.02412c2.07905,-0.28084 3.67715,0.48778 3.56946,1.71676c-0.10769,1.22898 -1.8804,2.45293 -3.95945,2.73376z"/><path d="M277.26959,193.61662c-1.31309,0.17738 -2.29025,-0.67512 -2.18256,-1.9041c0.10769,-1.22898 1.25946,-2.36905 2.57255,-2.54642c0.97556,-0.13178 1.79304,0.45764 2.30529,1.28104c0.17724,0.28487 0.66146,0.61091 0.63378,0.92681c-0.07239,0.82612 -0.9404,1.2694 -1.91232,1.65979c-0.47396,0.19037 -0.98633,0.52473 -1.41676,0.58287z"/><path d="M276.96191,195.47688c-0.46492,0.45813 -0.85924,0.95866 -1.51334,1.04701c-1.31309,0.17738 -2.29025,-0.67512 -2.18256,-1.9041c0.10768,-1.22898 1.25946,-2.36906 2.57255,-2.54643c1.31309,-0.17738 2.29025,0.67512 2.18256,1.9041c-0.05404,0.61676 -0.59082,1.03786 -1.05921,1.4994z"/><path d="M272.24039,198.76147c-0.90513,0.12227 -1.21611,-0.63159 -2.05236,-0.91385c-0.84347,-0.2847 -2.20802,-0.10201 -2.13314,-0.9565c0.14912,-1.70166 2.9074,-4.04632 4.72552,-4.29191c1.81812,-0.2456 3.17112,0.93479 3.022,2.63645c-0.01857,0.21189 0.22145,0.78988 0.16041,0.99562c-0.20662,0.69643 -0.78141,1.20113 -1.42365,1.62122c-0.69172,0.45245 -1.47338,0.79748 -2.29876,0.90897z"/></g><g data-paper-data="{&quot;index&quot;:null}" fill="#573007"><path d="M332.49817,191.50993c-0.3765,0.25895 -0.82693,0.3433 -1.3321,0.19136c-1.26157,-0.37947 -2.05775,-1.98999 -1.77829,-3.59721c0.27945,-1.60722 1.52869,-2.60251 2.79027,-2.22304c1.26157,0.37948 1.72881,1.89105 1.44935,3.49828c-0.16754,0.96366 -0.5655,1.74289 -1.12924,2.13063z"/><path d="M329.16345,190.77661c-1.43818,-0.43259 -2.37753,-2.08618 -2.09808,-3.69341c0.27946,-1.60722 1.67188,-2.55944 3.11008,-2.12685c0.8269,0.24873 3.61634,1.60548 1.84915,1.71621c-0.57325,0.03592 0.36772,1.29406 0.24893,1.97719c-0.27946,1.60721 -1.67188,2.55944 -3.11007,2.12684z"/><path d="M323.94514,188.99208c0.38241,-2.19936 1.95573,-3.86017 3.39392,-3.42757c0.27012,0.08125 1.19576,-0.34778 1.42045,-0.15735c0.97162,0.82345 0.70436,3.3652 0.39378,5.15148c-0.38241,2.19936 -1.85831,3.63159 -3.29649,3.199c-1.43819,-0.4326 -2.29408,-2.5662 -1.91166,-4.76556z"/><path d="M325.63074,192.29278c-0.38312,-0.11524 -0.73593,-0.28792 -1.04376,-0.50006c-0.84771,-0.5842 -1.35438,-1.46762 -1.21411,-2.27435c0.08256,-0.47479 0.72127,-1.83744 1.1435,-2.07051c0.55573,-0.30674 0.98954,0.61682 1.80678,0.86265c1.43818,0.4326 2.44908,1.67474 2.25787,2.77442c-0.1912,1.09968 -1.51209,1.64046 -2.95028,1.20786z"/><path d="M331.1083,192.58652c-0.90834,-0.27322 -1.48968,-1.38616 -1.29847,-2.48584c0.1912,-1.09968 1.08255,-1.76966 1.99089,-1.49644c0.67485,0.203 1.17308,1.01971 1.44166,1.95103c0.09291,0.32221 0.39027,0.78464 0.34112,1.06731c-0.12854,0.73921 -0.76031,0.85984 -1.45754,0.89701c-0.34,0.01812 -0.71991,0.15649 -1.01766,0.06693z"/><path d="M330.72068,194.20288c-0.35959,0.26851 -0.67537,0.59973 -1.12784,0.46363c-0.90834,-0.27322 -1.48968,-1.38616 -1.29847,-2.48584c0.1912,-1.09968 1.08256,-1.76967 1.99089,-1.49644c0.90834,0.27322 1.48968,1.38616 1.29847,2.48584c-0.09595,0.55188 -0.50077,0.76227 -0.86305,1.0328z"/><path d="M327.20022,195.66602c-0.62614,-0.18834 -0.76477,-0.98839 -1.30527,-1.52755c-0.54517,-0.54383 -1.48895,-0.82925 -1.35601,-1.59384c0.26474,-1.52263 2.36231,-2.77082 3.62,-2.39253c1.25769,0.37831 2.06263,1.91932 1.79788,3.44194c-0.03297,0.1896 0.07442,0.80354 0.0132,0.97332c-0.20718,0.57468 -0.64585,0.84968 -1.12214,1.02403c-0.51301,0.18778 -1.07673,0.24637 -1.64769,0.07463z"/></g><g data-paper-data="{&quot;index&quot;:null}" fill="#573007"><path d="M257.2865,37.38185c-1.16177,0.3167 -2.61008,0.11928 -4.00972,-0.49308c-2.33438,-1.02132 -3.64937,-2.81012 -2.59943,-4.55739c1.04993,-1.74727 3.79347,-2.33577 6.12785,-1.31444c2.33438,1.02132 3.37562,3.26571 2.32567,5.01297c-0.42042,0.69966 -1.06849,1.14044 -1.84438,1.35195z"/><path d="M254.00294,34.74528c-0.9922,-0.4341 -1.42087,-2.54932 -2.1569,-1.92886c-2.26894,1.91269 -0.59082,-2.38176 0.09737,-3.52702c1.19693,-1.99189 4.05963,-2.77868 6.39401,-1.75736c2.33437,1.02133 3.25645,3.46401 2.05952,5.45588c-1.19693,1.99188 -4.05963,2.77868 -6.39401,1.75735z"/><path d="M260.13834,32.79487c-2.59444,-1.1351 -6.0755,-2.94847 -5.92701,-4.7365c0.03435,-0.41348 1.68388,-1.10637 1.90869,-1.48048c1.19693,-1.99188 5.15839,-2.39384 8.3528,-0.99624c3.19442,1.3976 4.81369,4.14531 3.61676,6.13719c-1.19694,1.99188 -4.75682,2.47364 -7.95124,1.07604z"/><path d="M261.48257,32.58391c-1.59722,-0.6988 -1.92169,-2.88003 -0.72476,-4.8719c0.68016,-1.13187 0.0556,-2.3931 1.10704,-2.76817c0.79888,-0.28496 3.2626,0.12512 3.9522,0.42684c1.17172,0.51265 1.6585,1.82311 1.36213,3.27133c-0.10763,0.52589 -0.31853,1.06995 -0.63737,1.60058c-1.19693,1.99188 -3.46202,3.04012 -5.05923,2.34132z"/><path d="M260.30062,36.70151c-0.24779,0.41238 -0.87795,0.72818 -1.31054,1.09882c-0.88709,0.76006 -1.79895,1.37638 -2.87261,0.90664c-0.41055,-0.17963 -0.62661,-0.90206 -0.91497,-1.27578c-0.83346,-1.08023 -1.24753,-2.32559 -0.68588,-3.26025c0.75596,-1.25804 2.66357,-1.71136 4.26078,-1.01257c1.59721,0.69878 2.27917,2.2851 1.52321,3.54314z"/><path d="M260.45243,37.72683c-1.59721,-0.69878 -2.27917,-2.2851 -1.52321,-3.54314c0.75596,-1.25804 2.66357,-1.71137 4.26078,-1.01257c1.59721,0.69878 2.27917,2.28512 1.52321,3.54314c-0.37658,0.62668 -1.169,0.70909 -1.9364,0.89346c-0.77314,0.18574 -1.52281,0.46981 -2.32438,0.11911z"/><path d="M268.84098,34.83208c-0.47518,0.79078 -1.22787,1.38153 -2.07994,1.80717c-0.79111,0.39519 -1.66191,0.66386 -2.62595,0.42035c-0.2848,-0.07193 -0.91826,-0.705 -1.19365,-0.82548c-2.21152,-0.96756 -3.15578,-3.16401 -2.10906,-4.90589c1.0467,-1.74188 5.12764,-3.0822 7.33916,-2.11464c1.11051,0.48587 0.32699,1.79427 0.34532,2.86563c0.01817,1.06217 0.84522,1.88568 0.32412,2.75287z"/></g><g data-paper-data="{&quot;index&quot;:null}" fill="#4e2c06"><path d="M261.81872,8.58088c-0.00432,0.59825 -0.38901,1.23847 -1.03079,1.78199c-1.0704,0.90652 -2.45061,1.20079 -3.38252,0.39961c-0.93192,-0.80117 -0.81966,-2.18553 0.25073,-3.09204c1.07041,-0.90651 2.6936,-0.9919 3.62551,-0.19072c0.37316,0.32082 0.53994,0.70163 0.53706,1.10117z"/><path d="M259.55899,6.34692c1.06238,0.91335 1.05589,2.38862 -0.0145,3.29513c-0.45496,0.38529 -1.88619,0.20806 -1.62003,0.66192c0.82051,1.39914 -1.63087,-0.14916 -2.24171,-0.6743c-1.06238,-0.91335 -1.0559,-2.38862 0.0145,-3.29513c1.07041,-0.90653 2.79936,-0.90098 3.86174,0.01237z"/><path d="M255.2987,8.35253c-0.25872,-0.08974 -0.4084,-0.98253 -0.60793,-1.15408c-1.06239,-0.91335 -0.61349,-2.83241 0.85126,-4.0729c1.46476,-1.24049 3.51339,-1.50569 4.57577,-0.59234c1.06238,0.91335 0.73621,2.65937 -0.72854,3.89986c-1.18963,1.0075 -2.97181,2.30752 -4.09056,1.91946z"/><path d="M259.4938,5.76859c-0.73237,0.62025 -2.18731,0.38264 -3.24969,-0.53071c-0.60369,-0.519 -1.52287,-0.45264 -1.57563,-1.00984c-0.04008,-0.42336 0.66188,-1.49918 0.97808,-1.76697c0.53727,-0.45502 1.46341,-0.44836 2.33816,-0.05192c0.31764,0.14396 0.62852,0.33932 0.91153,0.58263c1.06238,0.91335 1.3299,2.15656 0.59753,2.77681z"/><path d="M261.92039,7.05397c0.21994,0.18909 0.30987,0.53926 0.47013,0.80709c0.32865,0.54922 0.56081,1.08435 0.0685,1.50128c-0.18825,0.15941 -0.68949,0.13137 -0.98028,0.1992c-0.8405,0.19606 -1.71198,0.16711 -2.21049,-0.26146c-0.67099,-0.57685 -0.62121,-1.54729 0.11117,-2.16753c0.73236,-0.62024 1.87,-0.65541 2.54098,-0.07857z"/><path d="M262.94233,6.06081c-0.01889,0.39367 0.02938,0.79392 -0.33816,1.1052c-0.73237,0.62024 -1.87001,0.65541 -2.541,0.07857c-0.67099,-0.57685 -0.62121,-1.54729 0.11117,-2.16753c0.73237,-0.62024 1.87001,-0.65541 2.541,-0.07857c0.33424,0.28736 0.24573,0.67158 0.227,1.06233z"/><path d="M262.24583,2.73791c0.42176,0.3626 0.66594,0.81895 0.78663,1.2922c0.11205,0.43939 0.12887,0.89339 -0.19899,1.29954c-0.09686,0.11998 -0.61528,0.30252 -0.74156,0.40945c-1.01406,0.8588 -2.58925,0.90752 -3.5183,0.1088c-0.92905,-0.79871 -1.05987,-2.94081 -0.04581,-3.79961c0.5092,-0.43124 1.20753,0.16745 1.897,0.34993c0.68356,0.18092 1.3585,-0.05793 1.82102,0.33971z"/></g><g data-paper-data="{&quot;index&quot;:null}" fill="#573007"><path d="M278.21491,25.63848c-0.90778,-0.66497 -1.48617,-1.66683 -1.65123,-2.75806c-0.2753,-1.82 0.70338,-3.19943 2.88885,-3.02491c2.18547,0.17451 4.18031,1.7914 4.45561,3.6114c0.27531,1.82 -1.2732,3.15393 -3.45867,2.97941c-0.87511,-0.06988 -1.6283,-0.36374 -2.23456,-0.80784z"/><path d="M278.9488,22.72818c-0.11702,-0.77356 1.63346,-1.67042 0.66609,-1.96918c-2.98207,-0.92096 1.91408,-1.08038 3.34658,-0.96598c2.49143,0.19895 4.73432,1.83564 5.00962,3.65564c0.27531,1.82 -1.52124,3.13411 -4.01267,2.93517c-2.49143,-0.19894 -4.73431,-1.83563 -5.00961,-3.65563z"/><path d="M285.30612,20.9123c0.4044,-0.09829 1.92058,0.77488 2.38853,0.81225c2.49142,0.19895 4.95348,2.66429 5.33021,5.15482c0.37674,2.49053 -1.33758,4.3482 -3.82902,4.14926c-2.49142,-0.19895 -4.81654,-2.3792 -5.19327,-4.86973c-0.30598,-2.02275 -0.44521,-4.82152 1.30355,-5.2466z"/><path d="M284.90769,26.97369c-0.18835,-1.24527 1.67866,-2.09347 4.17008,-1.89452c1.41575,0.11305 2.26516,-0.66224 3.16937,-0.08624c0.68701,0.43765 1.6015,2.16357 1.68284,2.70122c0.13818,0.91353 -0.8298,1.61337 -2.33897,1.84286c-0.54802,0.08334 -1.16742,0.10465 -1.83111,0.05165c-2.49142,-0.19895 -4.66383,-1.36972 -4.85219,-2.61499z"/><path d="M280.43811,27.40495c-0.51579,-0.04119 -1.14276,-0.35983 -1.71689,-0.53368c-1.17737,-0.35649 -2.23346,-0.77109 -2.36008,-1.60817c-0.04841,-0.32008 0.51274,-0.6718 0.71005,-0.96888c0.57027,-0.85867 1.51573,-1.49212 2.68479,-1.39877c1.57353,0.12565 3.00183,1.237 3.19019,2.48227c0.18835,1.24526 -0.93455,2.15289 -2.50809,2.02723z"/><path d="M280.89562,29.2838c-0.58074,-0.44983 -1.24099,-0.85567 -1.33553,-1.48062c-0.18836,-1.24526 0.93453,-2.15289 2.50807,-2.02723c1.57355,0.12566 3.00185,1.237 3.19021,2.48227c0.18836,1.24527 -0.93454,2.1529 -2.50808,2.02724c-0.78385,-0.0626 -1.27822,-0.55517 -1.85467,-1.00166z"/><path d="M286.68288,32.42721c-0.9891,-0.07898 -1.9375,-0.39727 -2.78395,-0.82854c-0.78591,-0.40041 -1.49556,-0.88971 -1.77582,-1.58929c-0.0828,-0.20668 0.17503,-0.80444 0.14255,-1.01914c-0.2608,-1.72421 1.294,-2.98092 3.47274,-2.80694c2.17874,0.17398 5.58044,2.44333 5.84125,4.16755c0.13096,0.8658 -1.50417,0.73686 -2.49548,1.06153c-0.98281,0.32187 -1.31661,1.10144 -2.40129,1.01482z"/></g><g data-paper-data="{&quot;index&quot;:null}" fill="#573007"><path d="M230.29902,38.60379c-0.5946,0.17557 -1.13555,0.10856 -1.59688,-0.13907c-0.69077,-0.3708 -1.20308,-1.14662 -1.44982,-2.11958c-0.41153,-1.62274 0.07148,-3.17934 1.55644,-3.6178c1.48495,-0.43844 3.02235,0.52161 3.43388,2.14436c0.41154,1.62275 -0.45866,3.29366 -1.94361,3.73211z"/><path d="M228.83016,35.54684c-0.17492,-0.68972 0.88504,-2.00834 0.20011,-2.02098c-2.11145,-0.03897 1.14661,-1.53489 2.11993,-1.82228c1.69285,-0.49983 3.39879,0.41046 3.81031,2.0332c0.41153,1.62274 -0.62719,3.34342 -2.32003,3.84326c-1.69285,0.49983 -3.39879,-0.41047 -3.81032,-2.0332z"/><path d="M232.64194,37.35796c-0.45738,-1.80352 -0.9,-4.37711 0.21772,-5.25496c0.25848,-0.20301 1.38256,0.19471 1.70052,0.10083c1.69286,-0.49983 3.64898,1.1235 4.21212,3.34408c0.56316,2.2206 -0.35266,4.42592 -2.0455,4.92576c-1.69285,0.49983 -3.52169,-0.89511 -4.08484,-3.1157z"/><path d="M236.92465,38.97466c-1.69285,0.49983 -3.29343,0.00496 -3.575,-1.10534c-0.28158,-1.11031 0.8625,-2.41556 2.55534,-2.9154c0.96195,-0.28403 1.43385,-1.24128 2.11112,-0.95252c0.51458,0.21941 1.34231,1.57849 1.46388,2.05786c0.20656,0.81452 -0.35411,1.73398 -1.33585,2.36338c-0.3565,0.22855 -0.76853,0.41886 -1.21949,0.55201z"/><path d="M230.41109,39.50159c-0.35046,0.10348 -0.81,-0.0214 -1.21608,-0.02566c-0.83274,-0.00874 -1.59154,-0.10509 -1.78082,-0.85143c-0.07238,-0.28539 0.2594,-0.76804 0.35441,-1.09956c0.2746,-0.95825 0.82849,-1.80952 1.62283,-2.04407c1.06918,-0.31569 2.16417,0.32846 2.44575,1.43876c0.28158,1.1103 -0.3569,2.26628 -1.42607,2.58197z"/><path d="M230.95198,41.1291c-0.44496,-0.26001 -0.93767,-0.45709 -1.07898,-1.01429c-0.28157,-1.1103 0.3569,-2.26628 1.42607,-2.58196c1.06916,-0.31569 2.16415,0.32847 2.44572,1.43877c0.28158,1.1103 -0.3569,2.26628 -1.42607,2.58197c-0.5326,0.15726 -0.92508,-0.1664 -1.36674,-0.42448z"/><path d="M235.21899,42.47031c-0.67207,0.19843 -1.34675,0.16233 -1.96729,-0.00725c-0.57615,-0.15745 -1.11236,-0.41882 -1.38732,-0.99458c-0.08124,-0.17009 0.01675,-0.79889 -0.0318,-0.99032c-0.38986,-1.53732 0.49418,-3.13793 1.97456,-3.57503c1.48039,-0.4371 4.04113,0.74479 4.431,2.28212c0.19577,0.77197 -0.91504,1.10154 -1.53819,1.67728c-0.61782,0.5708 -0.74396,1.39015 -1.48096,1.60776z"/></g><g data-paper-data="{&quot;index&quot;:null}" fill="#573007"><path d="M128.2076,120.20203c-0.8532,2.13718 -3.51991,3.08123 -5.9563,2.10859c-2.43639,-0.97264 -3.71981,-3.49364 -2.86662,-5.63082c0.8532,-2.13718 3.29745,-2.52399 5.73384,-1.55134c1.46079,0.58317 2.58709,1.52266 3.07095,2.64217c0.32314,0.74766 0.35976,1.57563 0.01812,2.43141z"/><path d="M126.35288,123.49939c-0.97264,2.43637 -3.73619,3.62297 -6.17258,2.65033c-2.43638,-0.97264 -3.62298,-3.7362 -2.65033,-6.17258c0.55924,-1.40082 3.24937,-5.97346 3.05126,-2.79016c-0.06426,1.03264 2.08578,-0.27358 3.12133,0.13983c2.43638,0.97264 3.62298,3.7362 2.65033,6.17258z"/><path d="M130.28802,130.27461c-0.97264,2.43637 -4.46384,3.33249 -7.79785,2.0015c-3.33399,-1.33098 -5.58267,-4.62621 -4.61003,-7.06258c0.18268,-0.4576 -0.2895,-2.23452 0.05314,-2.57889c1.48169,-1.48919 5.37132,-0.26243 8.07912,0.81856c3.334,1.33099 5.24825,4.38503 4.27561,6.82142z"/><path d="M126.70956,124.62878c1.667,0.66549 2.22988,3.18006 1.25725,5.61644c-0.2591,0.64903 -0.60105,1.22705 -0.9948,1.71325c-1.08436,1.33889 -2.56177,1.98144 -3.78469,1.49323c-0.71973,-0.28733 -2.70126,-1.82827 -2.97463,-2.64985c-0.35979,-1.08132 1.16468,-1.58211 1.71738,-2.96658c0.97264,-2.43637 3.11249,-3.87197 4.77949,-3.20648z"/><path d="M129.56962,120.56632c-0.6143,1.53877 -2.46365,2.2467 -4.13065,1.58121c-1.667,-0.66548 -2.52038,-2.45239 -1.90608,-3.99116c0.45639,-1.14324 1.82851,-1.79044 3.33042,-1.99436c0.51962,-0.07055 1.29973,-0.46419 1.72822,-0.29313c1.12056,0.44734 1.17554,1.60931 1.08725,2.86334c-0.04305,0.61153 0.09218,1.32971 -0.10918,1.83411z"/><path d="M128.35045,125.4633c-1.667,-0.66548 -2.52038,-2.45239 -1.90608,-3.99116c0.6143,-1.53877 2.46365,-2.2467 4.13065,-1.58121c0.83659,0.33399 1.07843,1.1178 1.42252,1.84355c0.34154,0.72038 0.78957,1.38109 0.48356,2.14761c-0.6143,1.53877 -2.46365,2.2467 -4.13065,1.58121z"/><path d="M133.53169,128.44284c-0.42346,1.0607 -1.69442,1.07172 -2.64452,1.87619c-0.95834,0.81143 -1.59901,2.40978 -2.75804,1.94707c-2.30814,-0.92145 -3.80654,-5.02952 -2.95598,-7.16012c0.85057,-2.13061 3.41122,-3.11082 5.71937,-2.18937c0.28741,0.11474 1.26291,0.10452 1.51365,0.26376c0.84871,0.53899 1.18374,1.40225 1.35466,2.30287c0.18409,0.97003 0.15701,1.99236 -0.22913,2.9596z"/></g><g data-paper-data="{&quot;index&quot;:null}" fill="#4e2c06"><path d="M135.58269,100.41853c-0.84071,-0.05427 -1.47209,-0.87521 -1.41022,-1.83363c0.06187,-0.95842 0.79356,-1.69137 1.63427,-1.63709c0.8407,0.05427 1.25289,0.86106 1.19101,1.81948c-0.03709,0.57464 -0.23618,1.07332 -0.57088,1.36885c-0.22353,0.19737 -0.50754,0.30413 -0.84419,0.2824z"/><path d="M136.07185,98.52407c-0.06187,0.95841 -0.88897,1.6852 -1.84739,1.62333c-0.95842,-0.06187 -1.6852,-0.88896 -1.62333,-1.84738c0.06187,-0.95841 0.88897,-1.6852 1.84739,-1.62333c0.55106,0.03557 2.448,0.45264 1.31757,0.74515c-0.36671,0.09489 0.33205,0.69488 0.30576,1.10224z"/><path d="M132.31321,102.28634c-0.95842,-0.06187 -1.66673,-1.17521 -1.58206,-2.48673c0.08467,-1.31152 0.97621,-2.46832 1.93463,-2.40645c0.18002,0.01162 0.74484,-0.35449 0.9036,-0.27434c0.68655,0.34659 0.70126,1.83966 0.63249,2.90485c-0.08467,1.31152 -0.93025,2.32455 -1.88866,2.26267z"/><path d="M132.05987,101.47513c-0.25531,-0.01649 -0.49531,-0.06987 -0.70924,-0.1517c-0.58912,-0.22537 -0.98053,-0.66661 -0.94947,-1.14768c0.01828,-0.28313 0.32959,-1.14777 0.58449,-1.3362c0.33549,-0.24801 0.6829,0.22571 1.22751,0.26087c0.95842,0.06187 1.70104,0.64362 1.65871,1.29938c-0.04233,0.65576 -0.85359,1.13721 -1.812,1.07533z"/><path d="M134.59119,99.67582c0.04234,-0.65576 0.56736,-1.15567 1.17267,-1.1166c0.44972,0.02903 0.83078,0.4331 1.07229,0.93268c0.08356,0.17284 0.30915,0.39965 0.29826,0.56821c-0.02845,0.44081 -0.42663,0.59188 -0.87311,0.70355c-0.21773,0.05445 -0.45232,0.18307 -0.65074,0.17026c-0.60532,-0.03908 -1.0617,-0.60234 -1.01937,-1.2581z"/><path d="M134.7871,102.32376c-0.60532,-0.03908 -1.0617,-0.60234 -1.01937,-1.2581c0.04234,-0.65576 0.56736,-1.15567 1.17267,-1.1166c0.60532,0.03908 1.0617,0.60234 1.01937,1.2581c-0.02125,0.3291 -0.26659,0.50227 -0.48011,0.70443c-0.21194,0.20067 -0.39102,0.43162 -0.69256,0.41216z"/><path d="M132.36578,102.49992c-0.39123,-0.24141 -1.02027,-0.2829 -0.99084,-0.73883c0.05861,-0.90797 1.31827,-1.89595 2.15639,-1.84185c0.83813,0.0541 1.47005,0.83402 1.41143,1.74199c-0.0073,0.11306 0.10702,0.45142 0.08007,0.55677c-0.09122,0.35659 -0.35363,0.57121 -0.64768,0.73297c-0.31671,0.17423 -0.6756,0.28088 -1.05609,0.25632c-0.41725,-0.02694 -0.56541,-0.46803 -0.95328,-0.70737z"/></g><g data-paper-data="{&quot;index&quot;:null}" fill="#573007"><path d="M142.47385,112.61114c0.79073,0.11484 1.54531,0.45614 2.18221,1.06185c1.59057,1.51268 1.43014,3.70723 -0.35833,4.90165c-1.78848,1.19441 -4.52773,0.93641 -6.11829,-0.57627c-1.59057,-1.51268 -1.01543,-3.31282 0.77304,-4.50724c1.07231,-0.71614 2.33736,-1.05194 3.52136,-0.87999z"/><path d="M140.38568,115.40596c1.78847,-1.19442 4.70823,-0.76474 6.52148,0.95972c1.81325,1.72446 1.83334,4.09068 0.04487,5.2851c-1.78847,1.19442 -4.70823,0.76474 -6.52148,-0.95972c-1.04255,-0.9915 -4.1198,-4.80435 -1.34636,-3.26627c0.89968,0.49895 0.54133,-1.51115 1.30149,-2.01882z"/><path d="M146.7375,116.57225c2.44738,-1.63447 5.9013,-1.56152 7.71454,0.16294c1.81325,1.72445 1.29919,4.4474 -1.14819,6.08187c-2.44738,1.63446 -6.24312,1.6779 -8.05636,-0.04656c-0.34057,-0.32388 -2.10833,-0.79399 -2.2873,-1.17449c-0.77393,-1.6454 1.7896,-3.69628 3.77732,-5.02376z"/><path d="M153.55092,118.26945c0.48304,0.45938 0.87132,0.94261 1.15791,1.41982c0.78923,1.31418 0.80729,2.58279 -0.09042,3.18232c-0.52834,0.35284 -2.65383,0.99306 -3.49193,0.81239c-1.10306,-0.23778 -0.97656,-1.47515 -2.00692,-2.45507c-1.81325,-1.72445 -2.29118,-3.7849 -1.06749,-4.60214c1.22369,-0.81724 3.68561,-0.08178 5.49886,1.64267z"/><path d="M145.4953,112.92602c1.14521,1.08914 1.08159,2.63455 -0.1421,3.45178c-1.22369,0.81723 -3.14405,0.59682 -4.28926,-0.49232c-0.85084,-0.80917 -0.91274,-2.00965 -0.52914,-3.10085c0.13272,-0.37753 0.07456,-1.07138 0.38909,-1.28145c0.82257,-0.54936 1.88291,-0.07277 2.97161,0.53997c0.5309,0.2988 1.22443,0.52586 1.59982,0.88288z"/><path d="M149.55924,112.44983c1.14521,1.08914 1.08159,2.63455 -0.1421,3.45178c-1.22369,0.81724 -3.14405,0.59682 -4.28927,-0.49231c-1.14521,-1.08914 -1.08159,-2.63455 0.1421,-3.45178c0.61413,-0.41013 1.40654,-0.22513 2.18556,-0.13393c0.77324,0.09052 1.53324,0.0837 2.10371,0.62624z"/><path d="M154.03566,113.76396c0.78942,0.75077 0.32026,1.60281 0.68193,2.59146c0.36479,0.9972 1.55338,2.13023 0.70257,2.69844c-1.69434,1.13155 -5.93456,0.31585 -7.52023,-1.19218c-1.58567,-1.50803 -1.49758,-3.64784 0.19675,-4.77939c0.21099,-0.1409 0.5695,-0.79566 0.80647,-0.89245c0.80212,-0.32766 1.70072,-0.1697 2.57093,0.11417c0.93727,0.30574 1.84174,0.77534 2.5616,1.45996z"/></g><g data-paper-data="{&quot;index&quot;:null}" fill="#573007"><path d="M116.99027,98.20387c-1.70378,0.9398 -3.56223,0.52063 -4.15096,-0.93625c-0.58874,-1.45689 0.46867,-3.01992 2.17245,-3.95973c1.02153,-0.56348 2.04351,-0.77498 2.82505,-0.53998c0.52195,0.15693 0.93666,0.51301 1.17241,1.09638c0.58873,1.45689 -0.31517,3.39979 -2.01895,4.33958z"/><path d="M119.64389,96.41754c0.67116,1.66085 -0.16593,3.7691 -1.86971,4.70889c-1.70379,0.9398 -3.62905,0.35528 -4.30021,-1.30557c-0.38589,-0.95492 -1.20601,-4.56268 0.2162,-3.00136c0.46135,0.50648 0.92935,-1.30807 1.65352,-1.70752c1.70379,-0.9398 3.62905,-0.35528 4.30021,1.30557z"/><path d="M124.88549,97.26838c0.67116,1.66085 -0.67479,4.04977 -3.00628,5.33581c-2.33148,1.28604 -5.05098,1.06219 -5.72214,-0.59866c-0.12606,-0.31194 -1.21615,-0.85278 -1.20673,-1.20395c0.04074,-1.51858 2.60479,-3.16736 4.49838,-4.21185c2.33149,-1.28604 4.7656,-0.9822 5.43676,0.67865z"/><path d="M123.69151,98.57215c0.17879,0.44243 0.28151,0.89955 0.31395,1.34428c0.08933,1.22471 -0.35427,2.35552 -1.20947,2.82725c-0.50332,0.27763 -2.24776,0.70066 -2.77977,0.48183c-0.7002,-0.28801 -0.16486,-1.381 -0.54624,-2.32477c-0.67116,-1.66085 -0.27023,-3.5285 0.89552,-4.17153c1.16575,-0.64303 2.65485,0.18209 3.32601,1.84294z"/><path d="M119.87583,93.25724c0.42389,1.04896 -0.17749,2.42057 -1.34324,3.0636c-1.16575,0.64302 -2.4544,0.31394 -2.87828,-0.73502c-0.31493,-0.77932 0.07292,-1.8525 0.73881,-2.79756c0.23039,-0.32696 0.43862,-0.94878 0.73826,-1.11407c0.78362,-0.43225 1.36745,0.06543 1.9225,0.68631c0.27067,0.30277 0.68299,0.5529 0.82194,0.89675z"/><path d="M122.94208,93.11437c0.42389,1.04896 -0.17749,2.42057 -1.34324,3.0636c-1.16575,0.64303 -2.4544,0.31395 -2.87829,-0.73501c-0.42389,-1.04896 0.17749,-2.42057 1.34324,-3.0636c0.58504,-0.3227 1.08294,-0.10317 1.60506,0.0319c0.51824,0.13408 1.06208,0.18057 1.27324,0.7031z"/><path d="M125.658,94.59406c0.29219,0.72307 -0.34859,1.44927 -0.44669,2.35456c-0.09896,0.91312 0.34004,2.00416 -0.47048,2.45125c-1.61411,0.89033 -4.34109,-0.12923 -4.92802,-1.58163c-0.58694,-1.45241 0.24577,-3.35158 1.85987,-4.24191c0.20099,-0.11087 0.69196,-0.66907 0.8956,-0.73886c0.68927,-0.23626 1.27255,-0.03348 1.79029,0.27947c0.55765,0.33705 1.03297,0.81774 1.29942,1.4771z"/></g><g data-paper-data="{&quot;index&quot;:null}" fill="#573007"><path d="M135.76664,83.0758c-0.08079,0.59546 -0.43252,0.90093 -1.10589,0.79853c-1.68164,-0.25573 -4.29391,-2.89167 -5.83471,-5.88757c-1.5408,-2.9959 -1.42663,-5.21724 0.255,-4.96153c1.68163,0.25572 3.85545,2.825 5.39625,5.8209c0.92382,1.79627 1.41031,3.33806 1.28934,4.22967z"/><path d="M132.308,77.9899c1.54079,2.99591 1.23576,5.18822 -0.68129,4.8967c-1.91706,-0.29151 -4.72019,-2.95649 -6.26099,-5.95239c-1.5408,-2.99591 -1.23577,-5.18823 0.68128,-4.89671c1.10223,0.16761 5.40614,1.66745 3.77714,2.4685c-0.52844,0.25985 1.82895,2.21054 2.48385,3.4839z"/><path d="M131.71657,89.3919c-1.91705,-0.29152 -5.18038,-3.85126 -7.28883,-7.95092c-2.10846,-4.09964 -2.42547,-7.63243 -0.50842,-7.34091c0.36006,0.05475 0.79358,-1.03448 1.23205,-0.76723c1.89607,1.1557 4.50619,5.83419 6.21864,9.16384c2.10847,4.09965 2.26361,7.18674 0.34656,6.89522z"/><path d="M129.83505,86.82494c-0.51069,-0.07767 -1.05627,-0.26933 -1.60184,-0.54749c-1.50241,-0.76604 -3.00477,-2.18812 -3.77815,-3.69189c-0.45517,-0.88502 -1.36266,-3.56173 -1.20716,-4.12601c0.20466,-0.74267 1.6801,0.77666 2.76946,0.94232c1.91705,0.29152 4.32575,2.18956 5.37999,4.23939c1.05423,2.04982 0.35477,3.47521 -1.56229,3.18368z"/><path d="M135.6048,85.49168c-1.21079,-0.18412 -3.04692,-1.99508 -4.10115,-4.04491c-1.05423,-2.04983 -0.92733,-3.56229 0.28345,-3.37816c0.89955,0.13679 2.31808,1.44138 3.63825,3.03091c0.45675,0.54993 1.27507,1.28343 1.54605,1.81032c0.70865,1.37791 0.21797,1.81056 -0.43212,2.11483c-0.31701,0.14839 -0.53763,0.52735 -0.93451,0.467z"/><path d="M136.45345,89.76135c-1.21079,-0.18412 -3.04691,-1.99508 -4.10115,-4.04491c-1.05423,-2.04983 -0.92733,-3.56229 0.28345,-3.37816c1.21079,0.18412 3.04692,1.99508 4.10115,4.04491c0.52908,1.02872 0.36523,1.54614 0.31164,2.15767c-0.0532,0.60697 0.00806,1.31219 -0.59509,1.22048z"/><path d="M135.20907,92.37929c-0.83462,-0.12691 -1.87733,-1.52376 -3.02381,-2.31301c-1.15641,-0.7961 -2.41618,-0.99018 -3.14916,-2.41539c-1.45971,-2.83821 -0.78952,-5.80461 0.88693,-5.54968c1.67646,0.25493 4.21882,2.76243 5.67851,5.60065c0.18176,0.35341 0.98289,1.42497 1.11419,1.75222c0.44447,1.10772 0.3201,1.75328 0.04453,2.22999c-0.29681,0.51345 -0.79014,0.81096 -1.55121,0.69523z"/></g><g data-paper-data="{&quot;index&quot;:null}" fill="#573007"><path d="M165.13765,290.30394c0.31893,0.0515 0.60308,0.21291 0.8152,0.50306c0.52974,0.72461 0.27157,1.78879 -0.57665,2.37692c-0.84822,0.58813 -1.96528,0.47749 -2.49502,-0.24712c-0.52974,-0.72461 -0.13345,-1.59986 0.71477,-2.18798c0.50858,-0.35263 1.06414,-0.52197 1.5417,-0.44487z"/><path d="M166.65445,292.09993c0.60391,0.82605 0.40585,1.97247 -0.44237,2.5606c-0.84823,0.58813 -2.02541,0.39524 -2.62931,-0.43081c-0.34722,-0.47495 -1.29479,-2.30628 -0.27518,-1.57557c0.33076,0.23703 0.35702,-0.73505 0.71755,-0.98503c0.84823,-0.58813 2.02541,-0.39524 2.62931,0.43081z"/><path d="M169.76099,292.23937c0.60391,0.82605 0.15252,2.14812 -1.0082,2.95293c-1.16072,0.8048 -2.74359,0.84576 -3.34749,0.01971c-0.11343,-0.15515 -0.80783,-0.37366 -0.8491,-0.55708c-0.17844,-0.7932 1.06694,-1.80038 2.00965,-2.45403c1.16072,-0.80481 2.59124,-0.78758 3.19514,0.03847z"/><path d="M169.61012,293.6694c0.21369,0.63263 0.11054,1.24723 -0.31522,1.54243c-0.25058,0.17375 -1.19066,0.49511 -1.52356,0.41196c-0.43815,-0.10942 -0.27758,-0.70964 -0.62075,-1.17905c-0.60391,-0.82606 -0.62299,-1.82192 -0.04263,-2.22432c0.58037,-0.4024 1.5404,-0.05896 2.14431,0.76709c0.16087,0.22006 0.28025,0.45217 0.35785,0.68189z"/><path d="M166.36714,290.44065c0.38142,0.52172 0.22014,1.27087 -0.36022,1.67327c-0.58036,0.4024 -1.36003,0.30568 -1.74145,-0.21604c-0.28337,-0.38761 -0.2044,-0.96897 0.05037,-1.49971c0.08814,-0.18362 0.12447,-0.51952 0.27365,-0.62295c0.39013,-0.27049 0.78966,-0.04514 1.18913,0.24605c0.1948,0.142 0.46351,0.24838 0.58853,0.4194z"/><path d="M168.09934,290.18862c0.38142,0.52172 0.22014,1.27087 -0.36022,1.67327c-0.58036,0.4024 -1.36003,0.30568 -1.74145,-0.21604c-0.38142,-0.52172 -0.22014,-1.27086 0.36022,-1.67327c0.29126,-0.20194 0.60478,-0.11646 0.9209,-0.07636c0.31378,0.03981 0.63054,0.03251 0.82054,0.2924z"/><path d="M169.84698,290.80189c0.26292,0.35963 -0.00658,0.77495 0.05764,1.25209c0.06477,0.48127 0.46039,1.02404 0.05688,1.30382c-0.80358,0.55717 -2.49641,0.18417 -3.02452,-0.5382c-0.52811,-0.72238 -0.30481,-1.75965 0.49877,-2.31683c0.10006,-0.06938 0.30632,-0.38852 0.41335,-0.43666c0.36227,-0.16298 0.72232,-0.09115 1.05958,0.04183c0.36324,0.14323 0.69855,0.36602 0.9383,0.69397z"/></g><g data-paper-data="{&quot;index&quot;:null}" fill="#4e2c06"><path d="M169.47128,280.99807c-0.79067,0.26151 -1.94263,-0.20446 -2.57298,-1.04077c-0.63035,-0.83631 -0.50038,-1.72627 0.29029,-1.98777c0.79067,-0.26151 1.73648,0.27265 2.36683,1.10896c0.37793,0.50143 0.55666,0.99763 0.46877,1.37098c-0.0587,0.24934 -0.23631,0.44389 -0.55291,0.5486z"/><path d="M168.06266,281.26483c-0.90136,0.29811 -2.14305,-0.13818 -2.7734,-0.97449c-0.63035,-0.83631 -0.41063,-1.75595 0.49073,-2.05406c0.51825,-0.1714 2.51305,-0.51134 1.71139,0.15057c-0.26005,0.21472 0.79409,0.46846 1.06201,0.82392c0.63035,0.83631 0.41064,1.75594 -0.49072,2.05406z"/><path d="M164.68982,282.2476c-0.86258,-1.14442 -0.89288,-2.45272 0.00848,-2.75083c0.1693,-0.056 0.41248,-0.57346 0.61181,-0.5635c0.86194,0.04308 1.94326,1.30527 2.64384,2.23476c0.86258,1.14443 0.83113,2.31384 -0.07023,2.61195c-0.90136,0.29811 -2.33133,-0.38795 -3.1939,-1.53238z"/><path d="M167.07678,283.18395c-0.24012,0.07941 -0.49294,0.1219 -0.7428,0.1307c-0.68809,0.0242 -1.35378,-0.20722 -1.67018,-0.62699c-0.18621,-0.24706 -0.5264,-1.09501 -0.43325,-1.34825c0.1226,-0.3333 0.7722,-0.05822 1.28439,-0.22762c0.90136,-0.29811 1.98169,-0.07592 2.41298,0.4963c0.43129,0.57221 0.05022,1.27776 -0.85114,1.57587z"/><path d="M169.86493,281.42544c-0.56929,0.18828 -1.38041,-0.12295 -1.8117,-0.69516c-0.43129,-0.57221 -0.31943,-1.18872 0.24986,-1.377c0.42295,-0.13989 1.05281,0.06375 1.62621,0.39952c0.19838,0.11617 0.56239,0.2262 0.67325,0.37328c0.28992,0.38464 0.04193,0.65858 -0.27747,0.91673c-0.15576,0.12588 -0.27355,0.32091 -0.46015,0.38263z"/><path d="M170.12287,282.90665c-0.56929,0.18828 -1.38041,-0.12295 -1.8117,-0.69517c-0.43129,-0.57221 -0.31943,-1.18872 0.24986,-1.377c0.56929,-0.18828 1.3804,0.12295 1.81169,0.69516c0.21645,0.28717 0.12093,0.52395 0.07462,0.7737c-0.04597,0.2479 -0.04088,0.50951 -0.32447,0.6033z"/><path d="M170.2032,283.58986c-0.15859,0.26378 -0.40324,0.48564 -0.76108,0.60399c-0.39242,0.12979 -0.84048,-0.1905 -1.35858,-0.25178c-0.52259,-0.06182 -1.11482,0.1331 -1.41469,-0.26475c-0.59717,-0.7923 -0.17751,-2.09193 0.61073,-2.35263c0.78824,-0.26071 1.91132,0.17024 2.5085,0.96253c0.07436,0.09866 0.41867,0.3441 0.46994,0.44339c0.17353,0.33611 0.09242,0.61433 -0.05482,0.85924z"/></g><g data-paper-data="{&quot;index&quot;:null}" fill="#573007"><path d="M144.72301,281.93493c1.64895,0.19921 2.87088,1.42703 2.72927,2.74241c-0.14161,1.31538 -1.59314,2.22022 -3.24209,2.02101c-1.64894,-0.19921 -2.44095,-1.37509 -2.29933,-2.69047c0.0849,-0.78867 0.48617,-1.44843 1.14931,-1.8074c0.44288,-0.23973 1.00256,-0.34532 1.66284,-0.26555z"/><path d="M150.5304,285.30321c-0.14161,1.31538 -1.7803,2.19761 -3.66009,1.97051c-1.08082,-0.13058 -4.79522,-0.98722 -2.57034,-1.22446c0.72174,-0.07697 -0.63711,-1.00937 -0.57692,-1.56846c0.14161,-1.31539 1.7803,-2.19761 3.66009,-1.97051c1.87979,0.2271 3.28887,1.47753 3.14726,2.79292z"/><path d="M154.23218,283.50705c-0.19379,1.79999 -1.96801,3.26699 -3.8478,3.03989c-0.35306,-0.04266 -1.46938,0.37985 -1.7793,0.24563c-1.3402,-0.58043 -1.33763,-2.64601 -1.18024,-4.10793c0.19379,-1.8 1.87476,-3.07508 3.75455,-2.84798c1.87979,0.22711 3.24657,1.87039 3.05279,3.67039z"/><path d="M151.65958,280.99518c0.50076,0.0605 0.9707,0.16971 1.38886,0.31442c1.15155,0.3985 1.91046,1.06612 1.83938,1.72637c-0.04184,0.38858 -0.67106,1.53751 -1.17534,1.76027c-0.6637,0.29317 -1.33559,-0.41283 -2.40377,-0.54188c-1.8798,-0.2271 -3.32513,-1.1408 -3.22824,-2.0408c0.09689,-0.9 1.69932,-1.44549 3.57911,-1.21839z"/><path d="M144.67915,281.21854c1.18724,0.14343 2.07113,0.98929 1.97424,1.88929c-0.09689,0.90001 -1.13788,1.51332 -2.32512,1.36989c-0.88206,-0.10657 -1.62147,-0.72129 -2.08498,-1.44738c-0.16036,-0.25121 -0.59833,-0.59799 -0.57343,-0.82933c0.06513,-0.60498 0.84981,-0.75494 1.72848,-0.8433c0.42848,-0.04308 0.89165,-0.18618 1.28082,-0.13916z"/><path d="M146.32462,279.41942c1.18724,0.14343 2.07114,0.9893 1.97425,1.8893c-0.09689,0.90001 -1.13789,1.51332 -2.32513,1.36989c-1.18724,-0.14343 -2.07114,-0.98929 -1.97425,-1.88929c0.04862,-0.45167 0.53381,-0.65474 0.95715,-0.90259c0.42021,-0.24601 0.77656,-0.53874 1.36797,-0.46729z"/><path d="M149.22459,278.4153c0.81838,0.09888 1.09987,0.73036 1.85613,1.11842c0.76279,0.39142 1.99656,0.54169 1.9292,1.16745c-0.13415,1.24615 -2.6273,2.42544 -4.27117,2.22684c-1.64387,-0.1986 -2.86773,-1.36981 -2.73357,-2.61596c0.0167,-0.15518 -0.20057,-0.63967 -0.14545,-0.78128c0.18656,-0.47933 0.70609,-0.73718 1.28664,-0.91728c0.62528,-0.19397 1.33193,-0.28836 2.07821,-0.1982z"/></g><g data-paper-data="{&quot;index&quot;:null}" fill="#573007"><path d="M187.27785,286.49086c-0.39285,0.28568 -1.02999,0.20598 -1.42309,-0.17804c-0.3931,-0.38402 -0.3933,-0.92691 -0.00045,-1.2126c0.39286,-0.28569 0.92757,-0.13149 1.32067,0.25252c0.23569,0.23025 0.36697,0.49084 0.34963,0.72418c-0.01158,0.15584 -0.08944,0.29954 -0.24674,0.41393z"/><path d="M186.56277,286.8832c-0.44785,0.32568 -1.12958,0.2784 -1.52268,-0.10562c-0.39311,-0.38402 -0.34872,-0.95933 0.09913,-1.28501c0.25749,-0.18725 1.27309,-0.72074 0.90513,-0.19876c-0.11936,0.16933 0.45047,0.14116 0.61755,0.30438c0.39311,0.38402 0.34872,0.95934 -0.09913,1.28502z"/><path d="M186.66169,288.38594c-0.44785,0.32568 -1.24698,0.1637 -1.78491,-0.36179c-0.53793,-0.52549 -0.65382,-1.28647 -0.20597,-1.61215c0.08411,-0.06117 0.17152,-0.40495 0.27636,-0.43253c0.45335,-0.11929 1.11452,0.4385 1.55141,0.86529c0.53793,0.52549 0.61095,1.2155 0.1631,1.54118z"/><path d="M186.51865,287.10679c0.26896,0.26275 0.12395,0.73976 -0.3239,1.06544c-0.1193,0.08676 -0.24807,0.15403 -0.37786,0.20107c-0.35744,0.12954 -0.72274,0.10564 -0.92005,-0.08711c-0.11612,-0.11344 -0.35861,-0.55292 -0.32934,-0.71682c0.03852,-0.21571 0.39875,-0.16356 0.65324,-0.34862c0.44785,-0.32568 1.02895,-0.3767 1.29791,-0.11395z"/><path d="M186.51695,286.57179c-0.26896,-0.26275 -0.2577,-0.64249 0.02515,-0.84819c0.21015,-0.15282 0.55461,-0.13918 0.87969,-0.03871c0.11248,0.03476 0.31096,0.03816 0.38009,0.1057c0.1808,0.17662 0.07226,0.3786 -0.07477,0.58331c-0.07169,0.09983 -0.11829,0.23377 -0.211,0.3012c-0.28286,0.20569 -0.73019,0.15944 -0.99916,-0.10331z"/><path d="M187.76406,287.49916c-0.28286,0.20569 -0.73019,0.15944 -0.99916,-0.10331c-0.26896,-0.26275 -0.2577,-0.64249 0.02515,-0.84818c0.28286,-0.20569 0.7302,-0.15944 0.99916,0.10331c0.13499,0.13186 0.10322,0.28652 0.09814,0.44053c-0.00505,0.15287 0.01762,0.30519 -0.12328,0.40766z"/><path d="M187.50706,288.367c-0.19498,0.14179 -0.45343,0.02937 -0.72865,0.08035c-0.2776,0.05142 -0.57193,0.26485 -0.75894,0.08216c-0.37241,-0.3638 -0.25268,-1.19515 0.13896,-1.47996c0.39165,-0.2848 1.01104,-0.22077 1.38345,0.14304c0.04637,0.04531 0.24493,0.13129 0.27929,0.18084c0.11632,0.16771 0.09524,0.34422 0.03709,0.51231c-0.06263,0.18105 -0.17341,0.35197 -0.3512,0.48126z"/></g></g></g></svg>