<svg version="1.1" xmlns="http://www.w3.org/2000/svg" xmlns:xlink="http://www.w3.org/1999/xlink" width="347.13693" height="414.63176" viewBox="0,0,347.13693,414.63176"><defs><linearGradient x1="250.7518" y1="-27.98254" x2="250.7518" y2="276.46356" gradientUnits="userSpaceOnUse" id="color-1"><stop offset="0" stop-color="#48d296"/><stop offset="1" stop-color="#77e1bb"/></linearGradient><linearGradient x1="194.91666" y1="92.00003" x2="194.91666" y2="145.33336" gradientUnits="userSpaceOnUse" id="color-2"><stop offset="0" stop-color="#b7ebdc"/><stop offset="1" stop-color="#60daa9"/></linearGradient><radialGradient cx="172.08333" cy="127.18058" r="32.83333" gradientUnits="userSpaceOnUse" id="color-3"><stop offset="0" stop-color="#62dbab"/><stop offset="1" stop-color="#62dbab" stop-opacity="0"/></radialGradient><radialGradient cx="171.08333" cy="118.18058" r="32.83334" gradientUnits="userSpaceOnUse" id="color-4"><stop offset="0" stop-color="#62dbab"/><stop offset="1" stop-color="#62dbab" stop-opacity="0"/></radialGradient><radialGradient cx="183.08333" cy="129.84724" r="32.83334" gradientUnits="userSpaceOnUse" id="color-5"><stop offset="0" stop-color="#62dbab"/><stop offset="1" stop-color="#62dbab" stop-opacity="0"/></radialGradient><linearGradient x1="165.24999" y1="74.33336" x2="165.24999" y2="91.00003" gradientUnits="userSpaceOnUse" id="color-6"><stop offset="0" stop-color="#b7ebdc"/><stop offset="1" stop-color="#60daa9"/></linearGradient><radialGradient cx="144.41666" cy="98.18057" r="32.83334" gradientUnits="userSpaceOnUse" id="color-7"><stop offset="0" stop-color="#62dbab"/><stop offset="1" stop-color="#62dbab" stop-opacity="0"/></radialGradient><radialGradient cx="313.28997" cy="43.26542" r="30.54336" gradientUnits="userSpaceOnUse" id="color-8"><stop offset="0" stop-color="#d2f7f4" stop-opacity="0"/><stop offset="1" stop-color="#d2f7f4"/></radialGradient><radialGradient cx="120.66497" cy="144.96331" r="9.91836" gradientUnits="userSpaceOnUse" id="color-9"><stop offset="0" stop-color="#d2f7f4" stop-opacity="0"/><stop offset="1" stop-color="#d2f7f4"/></radialGradient></defs><g transform="translate(-74.48807,27.98254)"><g data-paper-data="{&quot;isPaintingLayer&quot;:true}" fill-rule="nonzero" stroke-width="0" stroke-linecap="butt" stroke-linejoin="miter" stroke-miterlimit="10" stroke-dasharray="" stroke-dashoffset="0" style="mix-blend-mode: normal"><path d="M84.41412,276.46356v-304.4461h332.67537v304.4461z" fill="url(#color-1)" stroke="none"/><path d="M81.125,232.7765l-5.66667,-21.16667c0,0 -5.66507,-24.54174 10.38227,-25.43798c11.56189,-0.64573 15.0807,-0.939 44.99133,-1.33951c28.09863,-0.37624 -3.10739,14.21791 37.35106,15.2101c27.55038,0.67564 9.88611,-7.4913 45.0172,-8.49999c28.31648,-0.81303 4.40228,6.39872 37.96438,6.57209c21.90787,0.11317 11.20557,-5.27664 27.9907,-16.38395c6.82737,-4.51791 17.01753,-3.66052 27.92166,-2.28093c6.62826,0.83861 11.95441,6.58927 17.74795,9.6713c15.76399,8.38609 9.83015,13.31068 26.32913,12.97148c10.67308,-0.21943 3.54667,-2.33345 11.07414,-9.31929c4.14454,-3.84632 13.29588,-0.97089 21.58688,-1.16804c17.86623,-0.42484 37.80997,0.67138 37.80997,0.67138v40.5z" fill="#92cbb8" stroke="none"/><path d="M88.3934,273.48255l0.33333,-61.33334c0,0 27.4568,-5.33333 44.99999,-5.33333c16.20744,0 50.86995,-0.378 89.00004,-0.00373c14.45709,0.1419 30.212,5.31381 40.26532,-4.73002c10.31373,-10.304 9.5732,-32.50172 20.40474,-39.72779c9.88662,5.79534 -0.21918,38.55451 12.04449,44.15078c12.34494,5.63336 33.5733,4.30134 52.00341,5.55761c19.15184,1.30546 35.282,5.08648 35.282,5.08648l-7.33333,56.33334z" fill="#6aad97" stroke="none"/><path d="M86.72673,316.33334l-7,-90c0,0 22.59263,-10.35996 45.24912,-12.10853c7.6758,-0.5924 18.7623,2.81874 32.07411,2.9331c16.26927,0.13977 35.86247,-2.99918 56.6156,-3.90692c25.6846,-1.12345 51.77737,6.29921 77.39864,7.29129c16.00275,0.61964 33.04134,-4.7254 45.9268,-5.58952c27.80823,-1.86488 53.06906,31.71392 53.06906,31.71392l-8,69.66666z" fill="#4a9f83" stroke="none"/><path d="M81.06006,355.81593l-4.66667,-139c0,0 3.51294,-5.18595 14.67025,-8.38285c20.59094,-5.8999 32.52194,36.50525 37.56703,56.30422c4.16076,16.32852 32.17258,18.81377 39.08092,2.82864c5.88222,-13.61083 1.82259,-33.63232 5.7017,-47.53073c1.30643,-4.68078 -0.033,-13.54322 4.97035,-14.68834c9.68806,-2.61759 4.9024,24.22958 20.73856,37.11642c1.5029,1.223 24.86999,20.32657 35.95901,6.86018c10.81028,-13.12788 9.30664,-58.81397 13.94554,-59.22075c12.39935,-1.08729 18.04593,67.2205 19.91602,69.22162c7.55672,8.08618 9.16998,9.5241 15.48675,10.08412c27.52706,2.44048 12.92007,-39.32935 27.37934,-47.37719c8.37456,-4.66117 27.72646,39.26649 41.13418,44.86348c11.67462,4.87352 39.45035,11.92118 39.45035,11.92118l-21.33333,77z" fill="#51ba98" stroke="none"/><path d="M111.72673,338.4826l-23.66667,-64c0,0 11.86265,4.22446 30.53123,-0.15678c32.88639,-7.71795 84.78975,-26.01657 115.13409,-25.8788c27.57635,0.1252 67.54107,15.37845 99.7515,22.78833c26.4016,6.07359 48.24985,4.58057 48.24985,4.58057l-24.66667,62.66667z" fill="#51c6a3" stroke="none"/><path d="M107.68018,386.64922l-24.66667,-112.33334c0,0 46.44008,8.33333 58.37988,8.33333c14.31295,0 43.69038,-6.71497 83.63365,-7.62136c29.99266,-0.68059 59.77126,5.01277 88.03178,5.26123c24.34487,0.21404 38.46579,-4.43906 49.79151,-5.58852c5.83907,-0.59261 18.82984,0.94864 18.82984,0.94864v111z" fill="#57cfaa" stroke="#000000"/><path d="M332.70258,272.829c0,3.87321 -4.54054,5.32026 -6.61676,5.32026c-2.07622,0 -0.90191,-1.44705 -0.90191,-5.32026c0,-3.87321 1.68311,-7.01307 3.75934,-7.01307c2.07622,0 3.75934,3.13986 3.75934,7.01307z" fill="#5ddeb5" stroke="none"/><path d="M285.15097,153.42195c0,3.86599 -0.74295,6.92171 -1.77273,6.9697c-0.93303,0.04348 -2.07576,-3.19461 -2.07576,-7.06061c0,-3.86599 0.75338,-4.66667 1.77273,-4.66667c0.92844,0 2.07576,0.89158 2.07576,4.75758z" fill="#6aad97" stroke="none"/><path d="M284.29257,142.65955c0,1.38071 -0.50877,2.5 -1.13636,2.5c-0.6276,0 -1.13636,-1.11929 -1.13636,-2.5c0,-1.38071 0.50877,-2.5 1.13636,-2.5c0.6276,0 1.13636,1.11929 1.13636,2.5z" fill="#6aad97" stroke="none"/><path d="M353.25,232.86871c0,6.89031 -7.86125,15.29797 -10.21771,15.29797c-1.53515,0 -1.81497,-3.71679 -0.80606,-8.1092c0.53978,-2.34994 2.4903,-4.78726 2.4903,-7.18877c0,-6.89031 1.91028,-12.47601 4.26673,-12.47601c2.35646,0 4.26673,5.5857 4.26673,12.47601z" fill="#55c39f" stroke="none"/><path d="M330.625,227.04167c0,2.1401 -0.7835,3.875 -1.75,3.875c-0.9665,0 -1.75,-1.7349 -1.75,-3.875c0,-2.1401 0.7835,-3.875 1.75,-3.875c0.9665,0 1.75,1.7349 1.75,3.875z" fill="#58c19e" stroke="none"/><path d="M181.37428,189.71823c0,5.80271 -1.53046,13.1039 -2.99964,10.50672c-0.96124,-1.69925 -2.99964,-4.70402 -2.99964,-10.50672c0,-5.80271 1.15551,-16.64548 3.18712,-14.04832c0.66072,0.84464 0.91626,3.39227 1.49936,6.49953c0.44295,2.36041 1.31281,5.04374 1.31281,7.54879z" fill="#55c9a2" stroke="none"/><path d="M178.875,168.03141c0,1.60812 -0.67157,2.91176 -1.5,2.91176c-0.82843,0 -1.5,-1.30364 -1.5,-2.91176c0,-1.60812 0.67157,-2.91176 1.5,-2.91176c0.82843,0 1.5,1.30364 1.5,2.91176z" fill="#55c9a2" stroke="none"/><path d="M168.24999,118.6667c0,-14.72759 11.93907,-26.66667 26.66667,-26.66667c14.72759,0 26.66667,11.93908 26.66667,26.66667c0,14.72759 -11.93907,26.66667 -26.66667,26.66667c-14.72759,0 -26.66667,-11.93907 -26.66667,-26.66667z" fill="url(#color-2)" stroke="none"/><path d="M204.91666,127.18058c0,16.84468 -14.69998,30.5 -32.83333,30.5c-18.13335,0 -32.83333,-13.65532 -32.83333,-30.5c0,-16.84468 14.69998,-30.5 32.83333,-30.5c18.13335,0 32.83333,13.65532 32.83333,30.5z" fill="url(#color-3)" stroke="none"/><path d="M203.91667,118.18058c0,16.84468 -14.69998,30.5 -32.83334,30.5c-18.13335,0 -32.83333,-13.65532 -32.83333,-30.5c0,-16.84468 14.69998,-30.5 32.83333,-30.5c18.13335,0 32.83334,13.65532 32.83334,30.5z" fill="url(#color-4)" stroke="none"/><path d="M215.91667,129.84724c0,16.84469 -14.69998,30.5 -32.83334,30.5c-18.13335,0 -32.83333,-13.65532 -32.83333,-30.5c0,-16.84468 14.69998,-30.5 32.83333,-30.5c18.13335,0 32.83334,13.65532 32.83334,30.5z" fill="url(#color-5)" stroke="none"/><path d="M156.91666,82.6667c0,-4.60237 3.73096,-8.33334 8.33334,-8.33334c4.60237,0 8.33334,3.73096 8.33334,8.33334c0,4.60237 -3.73096,8.33334 -8.33334,8.33334c-4.60237,0 -8.33334,-3.73096 -8.33334,-8.33334z" fill="url(#color-6)" stroke="none"/><path d="M177.25,98.18057c0,16.84469 -14.69998,30.5 -32.83334,30.5c-18.13335,0 -32.83333,-13.65532 -32.83333,-30.5c0,-16.84468 14.69998,-30.5 32.83333,-30.5c18.13335,0 32.83334,13.65532 32.83334,30.5z" fill="url(#color-7)" stroke="none"/><path d="M282.7466,43.26542c0,-11.86561 13.67473,-21.48458 30.54336,-21.48458c16.86863,0 30.54336,9.61898 30.54336,21.48458c0,11.86561 -13.67473,21.48458 -30.54336,21.48458c-16.86863,0 -30.54336,-9.61898 -30.54336,-21.48458z" fill="url(#color-8)" stroke="#ffffff"/><path d="M110.7466,144.96331c0,-4.71468 4.4406,-8.53669 9.91836,-8.53669c5.47776,0 9.91836,3.82201 9.91836,8.53669c0,4.71468 -4.4406,8.53669 -9.91836,8.53669c-5.47776,0 -9.91836,-3.822 -9.91836,-8.53669z" fill="url(#color-9)" stroke="#ffffff"/></g></g></svg>