<svg version="1.1" xmlns="http://www.w3.org/2000/svg" xmlns:xlink="http://www.w3.org/1999/xlink" width="97.33334" height="247.82453" viewBox="0,0,97.33334,247.82453"><defs><linearGradient x1="227.29756" y1="289.24795" x2="227.29756" y2="293.25158" gradientUnits="userSpaceOnUse" id="color-1"><stop offset="0" stop-color="#fa0000"/><stop offset="1" stop-color="#cd0000"/></linearGradient><linearGradient x1="227.23257" y1="285.64468" x2="227.23257" y2="289.98196" gradientUnits="userSpaceOnUse" id="color-2"><stop offset="0" stop-color="#ff0000"/><stop offset="1" stop-color="#ef0000"/></linearGradient></defs><g transform="translate(-191.86668,-79.43598)"><g data-paper-data="{&quot;isPaintingLayer&quot;:true}" fill-rule="nonzero" stroke-linejoin="miter" stroke-miterlimit="10" stroke-dasharray="" stroke-dashoffset="0" style="mix-blend-mode: normal"><path d="M210.14192,317.29339c0,0 0.01384,-3.28283 0.84903,-5.8284c0.52883,-1.61188 1.79627,-2.92814 2.29391,-2.92814c0.96589,0 2.79217,0 4.4411,0c0.73185,0 2.04368,1.4227 2.6149,3.12118c0.84591,2.51526 0.80132,5.63535 0.80132,5.63535z" fill="#2c3132" stroke="none" stroke-width="0" stroke-linecap="butt"/><path d="M231.64193,316.79339c0,0 0.02108,-3.28283 1.29281,-5.8284c0.80525,-1.61188 2.73518,-2.92814 3.49293,-2.92814c1.47075,0 4.25162,0 6.76244,0c1.11439,0 3.11191,1.4227 3.9817,3.12118c1.28807,2.51526 1.22016,5.63535 1.22016,5.63535z" fill="#2c3132" stroke="none" stroke-width="0" stroke-linecap="butt"/><path d="M232.62503,308.73215l-0.75,-3.75h16.25l-0.75,3.75z" fill="#480601" stroke="#000000" stroke-width="0" stroke-linecap="butt"/><path d="M224.37503,302.83333v-27h31.25v27z" fill="#980d0b" stroke="#000000" stroke-width="0" stroke-linecap="butt"/><path d="M254.37503,229.67739v-5.5h5.5v5.5z" fill="#5f0100" stroke="none" stroke-width="0" stroke-linecap="butt"/><path d="M220.91669,229.67739v-5.5h5.5v5.5z" fill="#5f0100" stroke="none" stroke-width="0" stroke-linecap="butt"/><path d="M254.12503,194.01072v-5.5h5.5v5.5z" fill="#5f0100" stroke="none" stroke-width="0" stroke-linecap="butt"/><path d="M220.25003,194.01072v-5.5h5.5v5.5z" fill="#5f0100" stroke="none" stroke-width="0" stroke-linecap="butt"/><g stroke-width="0"><path d="M258.28731,289.92229v-128.03089h12v128.03089z" fill="#fc930c" stroke="none" stroke-linecap="butt"/><path d="M258.24922,190.09307v-14.43752h12.05714v14.43752z" fill="#f9550a" stroke="none" stroke-linecap="butt"/><path d="M258.28673,191.39916v-1.36203h12v1.36203z" fill="#eb5109" stroke="none" stroke-linecap="butt"/><path d="M258.28673,175.90606v-1.36203h12v1.36203z" fill="#eb5109" stroke="none" stroke-linecap="butt"/><g stroke="none" stroke-linecap="butt"><path d="M258.2659,222.23698v-14.43752h12.05715v14.43752z" fill="#f9550a"/><path d="M258.30339,223.54308v-1.36203h12v1.36203z" fill="#eb5109"/><path d="M258.30339,208.04998v-1.36203h12v1.36203z" fill="#eb5109"/></g><g stroke="none" stroke-linecap="butt"><path d="M258.36035,254.13875v-14.43753h12.05715v14.43753z" fill="#f9550a"/><path d="M258.39786,255.44484v-1.36203h12v1.36203z" fill="#eb5109"/><path d="M258.39786,239.95174v-1.36203h12v1.36203z" fill="#eb5109"/></g><path d="M266.2682,147.13654c0,0 0.93261,3.14651 1.46943,5.13594c0.7445,2.75906 2.58196,9.87828 2.58196,9.87828l-12.00933,-0.02245c0,0 1.78456,-7.10965 2.53274,-9.86465c0.53939,-1.9862 1.53861,-5.12716 1.53861,-5.12716c0,0 0.27905,-0.97458 0.72365,-1.46528c0.3632,-0.40088 0.86925,-0.59348 1.15554,-0.59348c0.28945,0 0.85854,0.17691 1.24179,0.56732c0.48814,0.49725 0.76561,1.49147 0.76561,1.49147z" fill="#fec30e" stroke="#ff3600" stroke-linecap="round"/></g><g stroke-width="0"><path d="M209.62066,289.92229v-128.03089h12v128.03089z" fill="#fc930c" stroke="none" stroke-linecap="butt"/><path d="M209.58256,190.09306v-14.43753h12.05714v14.43753z" fill="#f9550a" stroke="none" stroke-linecap="butt"/><path d="M209.62007,191.39916v-1.36203h12v1.36203z" fill="#eb5109" stroke="none" stroke-linecap="butt"/><path d="M209.62007,175.90606v-1.36203h12v1.36203z" fill="#eb5109" stroke="none" stroke-linecap="butt"/><g stroke="none" stroke-linecap="butt"><path d="M209.59923,222.23698v-14.43753h12.05715v14.43753z" fill="#f9550a"/><path d="M209.63673,223.54308v-1.36203h12v1.36203z" fill="#eb5109"/><path d="M209.63673,208.04998v-1.36203h12v1.36203z" fill="#eb5109"/></g><g stroke="none" stroke-linecap="butt"><path d="M209.69368,254.13875v-14.43753h12.05715v14.43753z" fill="#f9550a"/><path d="M209.73119,255.44484v-1.36203h12v1.36203z" fill="#eb5109"/><path d="M209.73119,239.95174v-1.36203h12v1.36203z" fill="#eb5109"/></g><path d="M217.60154,147.13653c0,0 0.93261,3.14651 1.46943,5.13595c0.7445,2.75907 2.58196,9.87828 2.58196,9.87828l-12.00933,-0.02245c0,0 1.78456,-7.10965 2.53274,-9.86466c0.53939,-1.98619 1.53861,-5.12716 1.53861,-5.12716c0,0 0.27905,-0.97459 0.72365,-1.46529c0.3632,-0.40087 0.86925,-0.59348 1.15554,-0.59348c0.28945,0 0.85854,0.17691 1.24179,0.56733c0.48814,0.49725 0.76561,1.49146 0.76561,1.49146z" fill="#fec30e" stroke="#ff3600" stroke-linecap="round"/></g><path d="M224.72225,196.83334v-49.33333h30.55556v49.33333z" fill="#bd1104" stroke="none" stroke-width="0" stroke-linecap="butt"/><path d="M258.89193,317.29339c0,0 0.01384,-3.28283 0.84902,-5.8284c0.52883,-1.61188 1.79628,-2.92814 2.29391,-2.92814c0.96588,0 2.79216,0 4.4411,0c0.73185,0 2.04368,1.4227 2.6149,3.12118c0.84591,2.51526 0.80131,5.63535 0.80131,5.63535z" fill="#2c3132" stroke="none" stroke-width="0" stroke-linecap="butt"/><path d="M258.3182,303.31516v-20.2h12v20.2z" data-paper-data="{&quot;index&quot;:null}" fill="#840f1e" stroke="none" stroke-width="0" stroke-linecap="butt"/><path d="M258.8932,291.98183v-2.75h11.3v2.75z" data-paper-data="{&quot;index&quot;:null}" fill="#770913" stroke="#000000" stroke-width="0" stroke-linecap="butt"/><path d="M254.71821,309.98183l3.6,-11h12l3.6,11z" data-paper-data="{&quot;index&quot;:null}" fill="#670b16" stroke="none" stroke-width="0" stroke-linecap="butt"/><path d="M209.70003,303.33333v-20.2h12v20.2z" fill="#840f1e" stroke="none" stroke-width="0" stroke-linecap="butt"/><path d="M224.69046,142.66153c0,0 0.93931,-7.44859 3.15611,-15.66326c1.2614,-4.67428 3.20691,-9.59661 4.95145,-13.5358c1.75268,-3.95757 5.44076,-8.65733 6.78448,-8.65733c1.36765,0 5.11204,4.55387 6.93821,8.44953c1.87265,3.99482 3.95932,9.0422 5.34254,13.82265c2.3678,8.18321 3.44636,15.58422 3.44636,15.58422z" fill="#d71304" stroke="none" stroke-width="0" stroke-linecap="butt"/><path d="M224.72225,149.5v-7h30.55556v7z" fill="#dc8760" stroke="none" stroke-width="0" stroke-linecap="butt"/><path d="M209.82503,292.00001v-2.75h11.3v2.75z" fill="#770913" stroke="#000000" stroke-width="0" stroke-linecap="butt"/><path d="M206.10003,310.00001l3.6,-11h12l3.6,11z" fill="#670b16" stroke="none" stroke-width="0" stroke-linecap="butt"/><path d="M224.72225,143.25l0.11111,-1.75h30.33334l0.11111,1.75z" fill="#be0a04" stroke="none" stroke-width="0" stroke-linecap="butt"/><path d="M263.62501,149c0,0 -2.5,13.15324 -2.5,15.25c0,19.97618 0,125.59292 0,135.5c0,1.46942 -2.5,8.5 -2.5,8.5" fill="none" stroke-opacity="0.16078" stroke="#ffffff" stroke-width="2" stroke-linecap="round"/><path d="M224.72225,151.125l-0.01389,-1.75h30.58334l-0.01389,1.75z" fill="#b50a04" stroke="none" stroke-width="0" stroke-linecap="butt"/><path d="M214.62502,148.75c0,0 -2.5,13.15324 -2.5,15.25c0,19.97618 0,125.59292 0,135.5c0,1.46942 -2.5,8.5 -2.5,8.5" fill="none" stroke-opacity="0.16078" stroke="#ffffff" stroke-width="2" stroke-linecap="round"/><path d="M224.72225,244.47224v-65.33333h30.55556v65.33333z" fill="#9f0d04" stroke="none" stroke-width="0" stroke-linecap="butt"/><path d="M224.76392,180.93752v-1.875h30.47222v1.875z" fill="#7f0800" stroke="none" stroke-width="0" stroke-linecap="butt"/><g stroke="none" stroke-width="0" stroke-linecap="butt"><path d="M246.20003,277.19005l8.9,-37.76666l28.1,30.00769l0.6,7.75897z" data-paper-data="{&quot;index&quot;:null}" fill="#2c383e"/><path d="M196.70003,277.35675l0.6,-7.75897l28.1,-30.0077l8.9,37.76667z" fill="#2c383e"/><path d="M221.03336,255.95675l14,-78.8h9.8l15,78.8z" fill="#bed9e3"/><path d="M234.96625,177.69528c0,0 2.11793,-8.55556 3.44445,-8.55556c0.69144,0 1.79174,0 2.88889,0c1.78195,0 3.75556,8.55556 3.75556,8.55556z" fill="#28201f"/><path d="M199.03336,275.35675l0.6,-6.4l34.6,-35.2l2.4,41.6z" fill="#bed9e3"/><path d="M243.65836,275.38175l2.4,-41.6l34.6,35.2l0.6,6.4z" data-paper-data="{&quot;index&quot;:null}" fill="#bed9e3"/><path d="M233.72951,283.36033v-53.16666h12.5v53.16666z" fill="#adc6ce"/></g><path d="M234.19676,181.20001l0.8,-3.6h9.8l0.8,3.6z" fill="#98bbc3" stroke="none" stroke-width="0" stroke-linecap="butt"/><path d="M237.80002,180.20001v-1.4h4.4v1.4z" fill="#28201f" stroke="none" stroke-width="0" stroke-linecap="butt"/><g fill="#0e1119" stroke="none" stroke-width="0" stroke-linecap="butt"><path d="M232.78575,198.80955v-3.76191l2.28571,1.47619v2.28572z" data-paper-data="{&quot;index&quot;:null}"/><path d="M235.21432,196.09525l-1.85714,-1.28571l3.47619,-1.57143l-0.19047,1.71429z" data-paper-data="{&quot;index&quot;:null}"/><path d="M237.1639,194.95241l0.14286,-2l2.45518,-0.57143v2.28572z" data-paper-data="{&quot;index&quot;:null}"/><g><path d="M244.9286,198.9524v-2.28572l2.28571,-1.47619v3.76191z"/><path d="M243.35716,195.09525l-0.19047,-1.71429l3.47619,1.57143l-1.85714,1.28571z"/><path d="M240.23813,194.80955v-2.28572l2.45518,0.57143l0.14286,2z"/></g></g><path d="M240.52087,202.81848v-2.33334h1.83334v2.33334z" fill="#4b413d" stroke="none" stroke-width="0" stroke-linecap="butt"/><path d="M230.12502,235.5c0,0 0,-81.77981 0,-90.75c0,-0.75644 -0.06395,-9.28686 1.93238,-17.88184c2.12466,-9.14751 6.31762,-18.36816 6.31762,-18.36816" fill="none" stroke-opacity="0.16078" stroke="#ffffff" stroke-width="2" stroke-linecap="round"/><path d="M237.64586,202.83633v-2.33334h1.83334v2.33334z" fill="#4b413d" stroke="none" stroke-width="0" stroke-linecap="butt"/><path d="M235.50003,233.75001l2.75,-25.5h3.5l2.75,25.5z" fill="#d3e6f4" stroke="none" stroke-width="0" stroke-linecap="butt"/><path d="M227.87503,275.25002c0,0 0.25,-15.34015 0.25,-23.56973c0,-1.13571 1.50788,-2.43526 1.52165,-3.83962c0.09598,-9.7864 -0.02165,-24.66331 -0.02165,-24.66331h20.75c0,0 -0.12461,14.60473 -0.02436,24.39222c0.01545,1.50834 1.52436,2.90227 1.52436,4.1107c0,8.22957 0,23.56973 0,23.56973z" fill="#94bdca" stroke="none" stroke-width="0" stroke-linecap="butt"/><path d="M210.62503,275.25002v-6.25l17.5,-15.25v21.5z" fill="#adcedd" stroke="none" stroke-width="0" stroke-linecap="butt"/><path d="M251.87503,275.25002v-21.5l17.5,15.25v6.25z" data-paper-data="{&quot;index&quot;:null}" fill="#adcedd" stroke="none" stroke-width="0" stroke-linecap="butt"/><path d="M229.08337,294.33333v-19h21.83333v19z" fill="#141217" stroke="none" stroke-width="0" stroke-linecap="butt"/><path d="M246.96035,287.60715v-10.66667h35.66666v4.33333z" data-paper-data="{&quot;index&quot;:null}" fill="#141217" stroke="none" stroke-width="NaN" stroke-linecap="butt"/><path d="M198.00003,281.41668v-4.33333h35.66666v10.66667z" fill="#141217" stroke="none" stroke-width="NaN" stroke-linecap="butt"/><g fill="#2e2b2f" stroke="none" stroke-width="0" stroke-linecap="butt"><path d="M244.91669,298.66668v-4.16667h6v4.16667z"/><path d="M229.08336,299.00001v-4.16667h6v4.16667z"/><path d="M238.25003,299.83333v-9h3.66667v9z"/></g><g><path d="M248.50157,279.17215c0,0 1.16407,0.78475 1.97228,2.90594c0.51591,1.35402 0.61006,3.72705 1.06426,5.2446c0.6864,2.29333 0.77961,4.46158 1.03941,5.56241c0.22028,0.93335 0.04442,2.2593 -0.06857,2.82272c-0.05738,0.28612 -6.68937,0.24067 -8.74505,0.21969c-0.16509,-0.00168 -0.94792,-0.30539 -1.55114,-1.0969c-0.77547,-1.01755 -1.18458,-2.57996 -1.18458,-2.57996z" data-paper-data="{&quot;index&quot;:null}" fill="#3d3942" stroke="#bed9e3" stroke-width="0.5" stroke-linecap="round"/><path d="M238.79339,292.11719c0,0 -0.40911,1.56241 -1.18458,2.57996c-0.60322,0.79152 -1.38605,1.09522 -1.55114,1.0969c-2.05568,0.02098 -8.68768,0.06643 -8.74505,-0.21969c-0.11299,-0.56342 -0.28885,-1.88937 -0.06857,-2.82272c0.25979,-1.10083 0.35301,-3.26908 1.03941,-5.56241c0.4542,-1.51755 0.54834,-3.89058 1.06426,-5.2446c0.80821,-2.12119 1.97228,-2.90594 1.97228,-2.90594z" fill="#3d3942" stroke="#bed9e3" stroke-width="0.5" stroke-linecap="round"/><path d="M226.40622,290.11539c0,0 -0.10049,-2.45054 0.20856,-3.7298c0.13736,-0.56858 0.54343,-0.60745 0.65889,-0.60745c0.09898,0 0.44041,0.14018 0.5898,0.68411c0.35006,1.2746 0.34438,3.65315 0.34438,3.65315" fill="none" stroke="#bed9e3" stroke-width="1" stroke-linecap="round"/><path d="M225.29575,291.24976c0,-1.10556 0.89624,-2.00181 2.00181,-2.00181c1.10556,0 2.00181,0.89624 2.00181,2.00181c0,1.10556 -0.89624,2.00181 -2.00181,2.00181c-1.10556,0 -2.00181,-0.89624 -2.00181,-2.00181z" fill="url(#color-1)" stroke="#bed9e3" stroke-width="0.5" stroke-linecap="butt"/><path d="M226.33956,289.98196c0,0 -0.10049,-2.45054 0.20856,-3.7298c0.13736,-0.56858 0.54343,-0.60745 0.65889,-0.60745c0.09898,0 0.44041,0.14018 0.5898,0.68411c0.35006,1.2746 0.34438,3.65315 0.34438,3.65315" fill="none" stroke="url(#color-2)" stroke-width="0.5" stroke-linecap="round"/><path d="M249.88038,290.37665c0,-0.74832 0.72089,-1.82442 1.26773,-2.8355c0.47878,-0.88524 0.73938,-1.763 1.39457,-1.763c0.67082,0 0.5272,1.09293 0.95253,2.00823c0.46456,0.99972 1.46773,1.85759 1.46773,2.59027c0,1.40352 -1.13776,2.54128 -2.54128,2.54128c-1.40352,0 -2.54128,-1.13778 -2.54128,-2.54128z" fill="#ffffff" stroke="#bed9e3" stroke-width="0.5" stroke-linecap="butt"/></g><path d="M239.58488,302.57821l-0.26701,4.31587c0,0 -6.94487,0 -8.71228,0c-0.51543,0 -1.02144,-1.72636 -1.46871,-1.72636c-2.74713,0 -3.66838,-0.14386 -3.66838,-0.14386l-1.16667,-2.44567z" data-paper-data="{&quot;index&quot;:null}" fill="#580902" stroke="none" stroke-width="0" stroke-linecap="butt"/><path d="M255.75155,302.5782l-1.16667,2.44567c0,0 -0.92125,0.14386 -3.66838,0.14386c-0.44727,0 -0.95328,1.72636 -1.46871,1.72636c-1.76741,0 -8.71228,0 -8.71228,0l-0.26701,-4.31587z" data-paper-data="{&quot;index&quot;:null}" fill="#580902" stroke="none" stroke-width="0" stroke-linecap="butt"/><path d="M237.82336,306.89076v-4.33333h6.33333v4.33333z" fill="#580902" stroke="none" stroke-width="0" stroke-linecap="butt"/><path d="M233.62501,247v-38.25l5.25,-37.5" fill="none" stroke-opacity="0.16078" stroke="#ffffff" stroke-width="2.5" stroke-linecap="round"/><path d="M191.86668,327.26051v-247.82453h97.33334v247.82453z" fill="none" stroke="none" stroke-width="NaN" stroke-linecap="butt"/><path d="M235.06221,223.43448c0,0 3.38124,-1.46846 4.99829,-1.50192c1.60803,-0.03327 4.8773,1.63537 4.8773,1.63537" fill="none" stroke="#f5feff" stroke-width="1.5" stroke-linecap="round"/></g></g></svg>