<svg version="1.1" xmlns="http://www.w3.org/2000/svg" xmlns:xlink="http://www.w3.org/1999/xlink" width="543" height="646" viewBox="0,0,543,646"><g transform="translate(32.5,37)"><g data-paper-data="{&quot;isPaintingLayer&quot;:true}" fill-rule="nonzero" stroke="none" stroke-linecap="butt" stroke-linejoin="miter" stroke-miterlimit="10" stroke-dasharray="" stroke-dashoffset="0" style="mix-blend-mode: normal"><path d="M294.39167,189.95834c0,0.9665 -0.7835,1.75 -1.75,1.75c-0.9665,0 -1.75,-0.7835 -1.75,-1.75c0,-0.9665 0.7835,-1.75 1.75,-1.75c0.9665,0 1.75,0.7835 1.75,1.75z" data-paper-data="{&quot;index&quot;:null}" fill="#e8e8e8" stroke-width="0.5"/><path d="M284.69167,239.95834c0,0.69036 -0.55964,1.25 -1.25,1.25c-0.69036,0 -1.25,-0.55964 -1.25,-1.25c0,-0.69036 0.55964,-1.25 1.25,-1.25c0.69036,0 1.25,0.55964 1.25,1.25z" data-paper-data="{&quot;index&quot;:null}" fill="#e8e8e8" stroke-width="0.5"/><path d="M150.89167,194.75834c0,0.69036 -0.55964,1.25 -1.25,1.25c-0.69036,0 -1.25,-0.55964 -1.25,-1.25c0,-0.69036 0.55964,-1.25 1.25,-1.25c0.69036,0 1.25,0.55964 1.25,1.25z" data-paper-data="{&quot;index&quot;:null}" fill="#e8e8e8" stroke-width="0.5"/><path d="M348.54167,243.15834c0,0.82843 -0.67157,1.5 -1.5,1.5c-0.82843,0 -1.5,-0.67157 -1.5,-1.5c0,-0.82843 0.67157,-1.5 1.5,-1.5c0.82843,0 1.5,0.67157 1.5,1.5z" data-paper-data="{&quot;index&quot;:null}" fill="#e8e8e8" stroke-width="0.5"/><path d="M236.19167,12.35834c0,0.9665 -0.7835,1.75 -1.75,1.75c-0.9665,0 -1.75,-0.7835 -1.75,-1.75c0,-0.9665 0.7835,-1.75 1.75,-1.75c0.9665,0 1.75,0.7835 1.75,1.75z" data-paper-data="{&quot;index&quot;:null}" fill="#e8e8e8" stroke-width="0.5"/><path d="M229.89167,40.15834c0,0.69036 -0.55964,1.25 -1.25,1.25c-0.69036,0 -1.25,-0.55964 -1.25,-1.25c0,-0.69036 0.55964,-1.25 1.25,-1.25c0.69036,0 1.25,0.55964 1.25,1.25z" data-paper-data="{&quot;index&quot;:null}" fill="#e8e8e8" stroke-width="0.5"/><path d="M172.94167,63.15834c0,0.82843 -0.67157,1.5 -1.5,1.5c-0.82843,0 -1.5,-0.67157 -1.5,-1.5c0,-0.82843 0.67157,-1.5 1.5,-1.5c0.82843,0 1.5,0.67157 1.5,1.5z" data-paper-data="{&quot;index&quot;:null}" fill="#e8e8e8" stroke-width="0.5"/><path d="M168.04167,69.15834c0,0.55228 -0.44772,1 -1,1c-0.55228,0 -1,-0.44772 -1,-1c0,-0.55228 0.44772,-1 1,-1c0.55228,0 1,0.44772 1,1z" data-paper-data="{&quot;index&quot;:null}" fill="#e8e8e8" stroke-width="0.5"/><path d="M213.04167,190.55834c0,0.55228 -0.44772,1 -1,1c-0.55228,0 -1,-0.44772 -1,-1c0,-0.55228 0.44772,-1 1,-1c0.55228,0 1,0.44772 1,1z" data-paper-data="{&quot;index&quot;:null}" fill="#e8e8e8" stroke-width="0.5"/><path d="M260.84167,273.95834c0,0.55228 -0.44772,1 -1,1c-0.55228,0 -1,-0.44772 -1,-1c0,-0.55228 0.44772,-1 1,-1c0.55228,0 1,0.44772 1,1z" data-paper-data="{&quot;index&quot;:null}" fill="#e8e8e8" stroke-width="0.5"/><path d="M296.99167,281.15834c0,0.41421 -0.33579,0.75 -0.75,0.75c-0.41421,0 -0.75,-0.33579 -0.75,-0.75c0,-0.41421 0.33579,-0.75 0.75,-0.75c0.41421,0 0.75,0.33579 0.75,0.75z" data-paper-data="{&quot;index&quot;:null}" fill="#e8e8e8" stroke-width="0.5"/><path d="M214.29167,286.15834c0,0.69036 -0.55964,1.25 -1.25,1.25c-0.69036,0 -1.25,-0.55964 -1.25,-1.25c0,-0.69036 0.55964,-1.25 1.25,-1.25c0.69036,0 1.25,0.55964 1.25,1.25z" data-paper-data="{&quot;index&quot;:null}" fill="#e8e8e8" stroke-width="0.5"/><path d="M209.49167,292.55834c0,0.69036 -0.55964,1.25 -1.25,1.25c-0.69036,0 -1.25,-0.55964 -1.25,-1.25c0,-0.69036 0.55964,-1.25 1.25,-1.25c0.69036,0 1.25,0.55964 1.25,1.25z" data-paper-data="{&quot;index&quot;:null}" fill="#e8e8e8" stroke-width="0.5"/><path d="M228.39167,283.75834c0,0.41421 -0.33579,0.75 -0.75,0.75c-0.41421,0 -0.75,-0.33579 -0.75,-0.75c0,-0.41421 0.33579,-0.75 0.75,-0.75c0.41421,0 0.75,0.33579 0.75,0.75z" data-paper-data="{&quot;index&quot;:null}" fill="#e8e8e8" stroke-width="0.5"/><path d="M227.99167,269.15834c0,0.41421 -0.33579,0.75 -0.75,0.75c-0.41421,0 -0.75,-0.33579 -0.75,-0.75c0,-0.41421 0.33579,-0.75 0.75,-0.75c0.41421,0 0.75,0.33579 0.75,0.75z" data-paper-data="{&quot;index&quot;:null}" fill="#e8e8e8" stroke-width="0.5"/><path d="M159.39167,254.55834c0,0.41421 -0.33579,0.75 -0.75,0.75c-0.41421,0 -0.75,-0.33579 -0.75,-0.75c0,-0.41421 0.33579,-0.75 0.75,-0.75c0.41421,0 0.75,0.33579 0.75,0.75z" data-paper-data="{&quot;index&quot;:null}" fill="#e8e8e8" stroke-width="0.5"/><path d="M143.79167,212.95834c0,0.41421 -0.33579,0.75 -0.75,0.75c-0.41421,0 -0.75,-0.33579 -0.75,-0.75c0,-0.41421 0.33579,-0.75 0.75,-0.75c0.41421,0 0.75,0.33579 0.75,0.75z" data-paper-data="{&quot;index&quot;:null}" fill="#e8e8e8" stroke-width="0.5"/><path d="M149.29167,213.75834c0,0.69036 -0.55964,1.25 -1.25,1.25c-0.69036,0 -1.25,-0.55964 -1.25,-1.25c0,-0.69036 0.55964,-1.25 1.25,-1.25c0.69036,0 1.25,0.55964 1.25,1.25z" data-paper-data="{&quot;index&quot;:null}" fill="#e8e8e8" stroke-width="0.5"/><path d="M122.69167,264.15834c0,0.69036 -0.55964,1.25 -1.25,1.25c-0.69036,0 -1.25,-0.55964 -1.25,-1.25c0,-0.69036 0.55964,-1.25 1.25,-1.25c0.69036,0 1.25,0.55964 1.25,1.25z" data-paper-data="{&quot;index&quot;:null}" fill="#e8e8e8" stroke-width="0.5"/><path d="M157.29167,284.75834c0,0.69036 -0.55964,1.25 -1.25,1.25c-0.69036,0 -1.25,-0.55964 -1.25,-1.25c0,-0.69036 0.55964,-1.25 1.25,-1.25c0.69036,0 1.25,0.55964 1.25,1.25z" data-paper-data="{&quot;index&quot;:null}" fill="#e8e8e8" stroke-width="0.5"/><path d="M268.49167,317.95834c0,0.69036 -0.55964,1.25 -1.25,1.25c-0.69036,0 -1.25,-0.55964 -1.25,-1.25c0,-0.69036 0.55964,-1.25 1.25,-1.25c0.69036,0 1.25,0.55964 1.25,1.25z" data-paper-data="{&quot;index&quot;:null}" fill="#e8e8e8" stroke-width="0.5"/><path d="M190.89167,331.75834c0,0.69036 -0.55964,1.25 -1.25,1.25c-0.69036,0 -1.25,-0.55964 -1.25,-1.25c0,-0.69036 0.55964,-1.25 1.25,-1.25c0.69036,0 1.25,0.55964 1.25,1.25z" data-paper-data="{&quot;index&quot;:null}" fill="#e8e8e8" stroke-width="0.5"/><path d="M242.99167,316.15834c0,0.41421 -0.33579,0.75 -0.75,0.75c-0.41421,0 -0.75,-0.33579 -0.75,-0.75c0,-0.41421 0.33579,-0.75 0.75,-0.75c0.41421,0 0.75,0.33579 0.75,0.75z" data-paper-data="{&quot;index&quot;:null}" fill="#e8e8e8" stroke-width="0.5"/><path d="M381.99167,186.49194c0,0.41421 -0.33579,0.75 -0.75,0.75c-0.41421,0 -0.75,-0.33579 -0.75,-0.75c0,-0.41421 0.33579,-0.75 0.75,-0.75c0.41421,0 0.75,0.33579 0.75,0.75z" data-paper-data="{&quot;index&quot;:null}" fill="#e8e8e8" stroke-width="0.5"/><path d="M381.09167,163.49194c0,0.69036 -0.55964,1.25 -1.25,1.25c-0.69036,0 -1.25,-0.55964 -1.25,-1.25c0,-0.69036 0.55964,-1.25 1.25,-1.25c0.69036,0 1.25,0.55964 1.25,1.25z" data-paper-data="{&quot;index&quot;:null}" fill="#e8e8e8" stroke-width="0.5"/><path d="M367.09167,189.69194c0,0.69036 -0.55964,1.25 -1.25,1.25c-0.69036,0 -1.25,-0.55964 -1.25,-1.25c0,-0.69036 0.55964,-1.25 1.25,-1.25c0.69036,0 1.25,0.55964 1.25,1.25z" data-paper-data="{&quot;index&quot;:null}" fill="#e8e8e8" stroke-width="0.5"/><path d="M334.19167,49.69194c0,0.41421 -0.33579,0.75 -0.75,0.75c-0.41421,0 -0.75,-0.33579 -0.75,-0.75c0,-0.41421 0.33579,-0.75 0.75,-0.75c0.41421,0 0.75,0.33579 0.75,0.75z" data-paper-data="{&quot;index&quot;:null}" fill="#e8e8e8" stroke-width="0.5"/><path d="M345.79167,28.89194c0,0.41421 -0.33579,0.75 -0.75,0.75c-0.41421,0 -0.75,-0.33579 -0.75,-0.75c0,-0.41421 0.33579,-0.75 0.75,-0.75c0.41421,0 0.75,0.33579 0.75,0.75z" data-paper-data="{&quot;index&quot;:null}" fill="#e8e8e8" stroke-width="0.5"/><path d="M301.79167,50.29194c0,0.41421 -0.33579,0.75 -0.75,0.75c-0.41421,0 -0.75,-0.33579 -0.75,-0.75c0,-0.41421 0.33579,-0.75 0.75,-0.75c0.41421,0 0.75,0.33579 0.75,0.75z" data-paper-data="{&quot;index&quot;:null}" fill="#222222" stroke-width="0.5"/><path d="M310.99167,51.89194c0,0.41421 -0.33579,0.75 -0.75,0.75c-0.41421,0 -0.75,-0.33579 -0.75,-0.75c0,-0.41421 0.33579,-0.75 0.75,-0.75c0.41421,0 0.75,0.33579 0.75,0.75z" data-paper-data="{&quot;index&quot;:null}" fill="#222222" stroke-width="0.5"/><path d="M321.79167,49.69194c0,0.41421 -0.33579,0.75 -0.75,0.75c-0.41421,0 -0.75,-0.33579 -0.75,-0.75c0,-0.41421 0.33579,-0.75 0.75,-0.75c0.41421,0 0.75,0.33579 0.75,0.75z" data-paper-data="{&quot;index&quot;:null}" fill="#222222" stroke-width="0.5"/><path d="M324.39167,51.29194c0,0.41421 -0.33579,0.75 -0.75,0.75c-0.41421,0 -0.75,-0.33579 -0.75,-0.75c0,-0.41421 0.33579,-0.75 0.75,-0.75c0.41421,0 0.75,0.33579 0.75,0.75z" data-paper-data="{&quot;index&quot;:null}" fill="#222222" stroke-width="0.5"/><path d="M330.09167,58.09194c0,0.69036 -0.55964,1.25 -1.25,1.25c-0.69036,0 -1.25,-0.55964 -1.25,-1.25c0,-0.69036 0.55964,-1.25 1.25,-1.25c0.69036,0 1.25,0.55964 1.25,1.25z" data-paper-data="{&quot;index&quot;:null}" fill="#222222" stroke-width="0.5"/><path d="M331.49167,77.09194c0,0.69036 -0.55964,1.25 -1.25,1.25c-0.69036,0 -1.25,-0.55964 -1.25,-1.25c0,-0.69036 0.55964,-1.25 1.25,-1.25c0.69036,0 1.25,0.55964 1.25,1.25z" data-paper-data="{&quot;index&quot;:null}" fill="#222222" stroke-width="0.5"/><path d="M351.59167,23.29194c0,0.41421 -0.33579,0.75 -0.75,0.75c-0.41421,0 -0.75,-0.33579 -0.75,-0.75c0,-0.41421 0.33579,-0.75 0.75,-0.75c0.41421,0 0.75,0.33579 0.75,0.75z" data-paper-data="{&quot;index&quot;:null}" fill="#222222" stroke-width="0.5"/><path d="M350.19167,16.49194c0,0.41421 -0.33579,0.75 -0.75,0.75c-0.41421,0 -0.75,-0.33579 -0.75,-0.75c0,-0.41421 0.33579,-0.75 0.75,-0.75c0.41421,0 0.75,0.33579 0.75,0.75z" data-paper-data="{&quot;index&quot;:null}" fill="#222222" stroke-width="0.5"/><path d="M315.39167,118.29194c0,0.41421 -0.33579,0.75 -0.75,0.75c-0.41421,0 -0.75,-0.33579 -0.75,-0.75c0,-0.41421 0.33579,-0.75 0.75,-0.75c0.41421,0 0.75,0.33579 0.75,0.75z" data-paper-data="{&quot;index&quot;:null}" fill="#222222" stroke-width="0.5"/><path d="M311.79167,110.29194c0,0.41421 -0.33579,0.75 -0.75,0.75c-0.41421,0 -0.75,-0.33579 -0.75,-0.75c0,-0.41421 0.33579,-0.75 0.75,-0.75c0.41421,0 0.75,0.33579 0.75,0.75z" data-paper-data="{&quot;index&quot;:null}" fill="#222222" stroke-width="0.5"/><path d="M204.44167,67.37474c-0.41421,0 -0.75,-0.33579 -0.75,-0.75c0,-0.41421 0.33579,-0.75 0.75,-0.75c0.31294,0 0.58112,0.19167 0.69355,0.46402c0.13344,-0.12223 0.31123,-0.19682 0.50645,-0.19682c0.41421,0 0.75,0.33579 0.75,0.75c0,0.41421 -0.33579,0.75 -0.75,0.75c-0.31294,0 -0.58112,-0.19167 -0.69355,-0.46402c-0.13344,0.12223 -0.31123,0.19682 -0.50645,0.19682z" data-paper-data="{&quot;index&quot;:null}" fill="#222222" stroke-width="0.5"/><path d="M208.39167,87.49194c0,0.41421 -0.33579,0.75 -0.75,0.75c-0.41421,0 -0.75,-0.33579 -0.75,-0.75c0,-0.41421 0.33579,-0.75 0.75,-0.75c0.41421,0 0.75,0.33579 0.75,0.75z" data-paper-data="{&quot;index&quot;:null}" fill="#222222" stroke-width="0.5"/><path d="M203.59167,81.89194c0,0.41421 -0.33579,0.75 -0.75,0.75c-0.41421,0 -0.75,-0.33579 -0.75,-0.75c0,-0.41421 0.33579,-0.75 0.75,-0.75c0.41421,0 0.75,0.33579 0.75,0.75z" data-paper-data="{&quot;index&quot;:null}" fill="#222222" stroke-width="0.5"/><path d="M208.59167,103.49194c0,0.41421 -0.33579,0.75 -0.75,0.75c-0.41421,0 -0.75,-0.33579 -0.75,-0.75c0,-0.41421 0.33579,-0.75 0.75,-0.75c0.41421,0 0.75,0.33579 0.75,0.75z" data-paper-data="{&quot;index&quot;:null}" fill="#222222" stroke-width="0.5"/><path d="M210.79167,105.89194c0,0.41421 -0.33579,0.75 -0.75,0.75c-0.41421,0 -0.75,-0.33579 -0.75,-0.75c0,-0.41421 0.33579,-0.75 0.75,-0.75c0.41421,0 0.75,0.33579 0.75,0.75z" data-paper-data="{&quot;index&quot;:null}" fill="#222222" stroke-width="0.5"/><path d="M208.79167,114.69194c0,0.41421 -0.33579,0.75 -0.75,0.75c-0.41421,0 -0.75,-0.33579 -0.75,-0.75c0,-0.41421 0.33579,-0.75 0.75,-0.75c0.41421,0 0.75,0.33579 0.75,0.75z" data-paper-data="{&quot;index&quot;:null}" fill="#222222" stroke-width="0.5"/><path d="M203.99167,119.09194c0,0.41421 -0.33579,0.75 -0.75,0.75c-0.41421,0 -0.75,-0.33579 -0.75,-0.75c0,-0.41421 0.33579,-0.75 0.75,-0.75c0.41421,0 0.75,0.33579 0.75,0.75z" data-paper-data="{&quot;index&quot;:null}" fill="#222222" stroke-width="0.5"/><path d="M194.19167,116.29194c0,0.41421 -0.33579,0.75 -0.75,0.75c-0.41421,0 -0.75,-0.33579 -0.75,-0.75c0,-0.41421 0.33579,-0.75 0.75,-0.75c0.41421,0 0.75,0.33579 0.75,0.75z" data-paper-data="{&quot;index&quot;:null}" fill="#222222" stroke-width="0.5"/><path d="M219.19167,141.29194c0,0.41421 -0.33579,0.75 -0.75,0.75c-0.41421,0 -0.75,-0.33579 -0.75,-0.75c0,-0.41421 0.33579,-0.75 0.75,-0.75c0.41421,0 0.75,0.33579 0.75,0.75z" data-paper-data="{&quot;index&quot;:null}" fill="#222222" stroke-width="0.5"/><path d="M216.84167,141.49194c0,0.55228 -0.44772,1 -1,1c-0.55228,0 -1,-0.44772 -1,-1c0,-0.55228 0.44772,-1 1,-1c0.55228,0 1,0.44772 1,1z" data-paper-data="{&quot;index&quot;:null}" fill="#222222" stroke-width="0.5"/><path d="M214.04167,153.49194c0,0.55228 -0.44772,1 -1,1c-0.55228,0 -1,-0.44772 -1,-1c0,-0.55228 0.44772,-1 1,-1c0.55228,0 1,0.44772 1,1z" data-paper-data="{&quot;index&quot;:null}" fill="#222222" stroke-width="0.5"/><path d="M370.79167,130.29194c0,0.41421 -0.33579,0.75 -0.75,0.75c-0.41421,0 -0.75,-0.33579 -0.75,-0.75c0,-0.41421 0.33579,-0.75 0.75,-0.75c0.41421,0 0.75,0.33579 0.75,0.75z" data-paper-data="{&quot;index&quot;:null}" fill="#222222" stroke-width="0.5"/><path d="M370.79167,122.69194c0,0.41421 -0.33579,0.75 -0.75,0.75c-0.41421,0 -0.75,-0.33579 -0.75,-0.75c0,-0.41421 0.33579,-0.75 0.75,-0.75c0.41421,0 0.75,0.33579 0.75,0.75z" data-paper-data="{&quot;index&quot;:null}" fill="#222222" stroke-width="0.5"/><path d="M374.39167,120.09194c0,0.41421 -0.33579,0.75 -0.75,0.75c-0.41421,0 -0.75,-0.33579 -0.75,-0.75c0,-0.41421 0.33579,-0.75 0.75,-0.75c0.41421,0 0.75,0.33579 0.75,0.75z" data-paper-data="{&quot;index&quot;:null}" fill="#222222" stroke-width="0.5"/><path d="M381.39167,120.49194c0,0.41421 -0.33579,0.75 -0.75,0.75c-0.41421,0 -0.75,-0.33579 -0.75,-0.75c0,-0.41421 0.33579,-0.75 0.75,-0.75c0.41421,0 0.75,0.33579 0.75,0.75z" data-paper-data="{&quot;index&quot;:null}" fill="#222222" stroke-width="0.5"/><path d="M369.99167,110.09194c0,0.41421 -0.33579,0.75 -0.75,0.75c-0.41421,0 -0.75,-0.33579 -0.75,-0.75c0,-0.41421 0.33579,-0.75 0.75,-0.75c0.41421,0 0.75,0.33579 0.75,0.75z" data-paper-data="{&quot;index&quot;:null}" fill="#222222" stroke-width="0.5"/><path d="M369.79167,98.89194c0,0.41421 -0.33579,0.75 -0.75,0.75c-0.41421,0 -0.75,-0.33579 -0.75,-0.75c0,-0.41421 0.33579,-0.75 0.75,-0.75c0.41421,0 0.75,0.33579 0.75,0.75z" data-paper-data="{&quot;index&quot;:null}" fill="#222222" stroke-width="0.5"/><path d="M379.59167,96.69194c0,0.41421 -0.33579,0.75 -0.75,0.75c-0.41421,0 -0.75,-0.33579 -0.75,-0.75c0,-0.41421 0.33579,-0.75 0.75,-0.75c0.41421,0 0.75,0.33579 0.75,0.75z" data-paper-data="{&quot;index&quot;:null}" fill="#222222" stroke-width="0.5"/><path d="M377.79167,89.69194c0,0.41421 -0.33579,0.75 -0.75,0.75c-0.41421,0 -0.75,-0.33579 -0.75,-0.75c0,-0.41421 0.33579,-0.75 0.75,-0.75c0.41421,0 0.75,0.33579 0.75,0.75z" data-paper-data="{&quot;index&quot;:null}" fill="#222222" stroke-width="0.5"/><path d="M336.39167,97.89194c0,0.41421 -0.33579,0.75 -0.75,0.75c-0.41421,0 -0.75,-0.33579 -0.75,-0.75c0,-0.41421 0.33579,-0.75 0.75,-0.75c0.41421,0 0.75,0.33579 0.75,0.75z" data-paper-data="{&quot;index&quot;:null}" fill="#222222" stroke-width="0.5"/><path d="M337.79167,94.29194c0,0.41421 -0.33579,0.75 -0.75,0.75c-0.41421,0 -0.75,-0.33579 -0.75,-0.75c0,-0.41421 0.33579,-0.75 0.75,-0.75c0.41421,0 0.75,0.33579 0.75,0.75z" data-paper-data="{&quot;index&quot;:null}" fill="#222222" stroke-width="0.5"/><path d="M338.39167,85.89194c0,0.41421 -0.33579,0.75 -0.75,0.75c-0.41421,0 -0.75,-0.33579 -0.75,-0.75c0,-0.41421 0.33579,-0.75 0.75,-0.75c0.41421,0 0.75,0.33579 0.75,0.75z" data-paper-data="{&quot;index&quot;:null}" fill="#222222" stroke-width="0.5"/><path d="M339.79167,73.89194c0,0.41421 -0.33579,0.75 -0.75,0.75c-0.41421,0 -0.75,-0.33579 -0.75,-0.75c0,-0.41421 0.33579,-0.75 0.75,-0.75c0.41421,0 0.75,0.33579 0.75,0.75z" data-paper-data="{&quot;index&quot;:null}" fill="#222222" stroke-width="0.5"/><path d="M356.59167,74.29194c0,0.41421 -0.33579,0.75 -0.75,0.75c-0.41421,0 -0.75,-0.33579 -0.75,-0.75c0,-0.41421 0.33579,-0.75 0.75,-0.75c0.41421,0 0.75,0.33579 0.75,0.75z" data-paper-data="{&quot;index&quot;:null}" fill="#222222" stroke-width="0.5"/><path d="M354.19167,79.49194c0,0.41421 -0.33579,0.75 -0.75,0.75c-0.41421,0 -0.75,-0.33579 -0.75,-0.75c0,-0.41421 0.33579,-0.75 0.75,-0.75c0.41421,0 0.75,0.33579 0.75,0.75z" data-paper-data="{&quot;index&quot;:null}" fill="#222222" stroke-width="0.5"/><path d="M347.79167,86.49194c0,0.41421 -0.33579,0.75 -0.75,0.75c-0.41421,0 -0.75,-0.33579 -0.75,-0.75c0,-0.41421 0.33579,-0.75 0.75,-0.75c0.41421,0 0.75,0.33579 0.75,0.75z" data-paper-data="{&quot;index&quot;:null}" fill="#222222" stroke-width="0.5"/><path d="M348.59167,91.69194c0,0.41421 -0.33579,0.75 -0.75,0.75c-0.41421,0 -0.75,-0.33579 -0.75,-0.75c0,-0.41421 0.33579,-0.75 0.75,-0.75c0.41421,0 0.75,0.33579 0.75,0.75z" data-paper-data="{&quot;index&quot;:null}" fill="#222222" stroke-width="0.5"/><path d="M345.99167,96.69194c0,0.41421 -0.33579,0.75 -0.75,0.75c-0.41421,0 -0.75,-0.33579 -0.75,-0.75c0,-0.41421 0.33579,-0.75 0.75,-0.75c0.41421,0 0.75,0.33579 0.75,0.75z" data-paper-data="{&quot;index&quot;:null}" fill="#222222" stroke-width="0.5"/><path d="M341.19167,108.49194c0,0.41421 -0.33579,0.75 -0.75,0.75c-0.41421,0 -0.75,-0.33579 -0.75,-0.75c0,-0.41421 0.33579,-0.75 0.75,-0.75c0.41421,0 0.75,0.33579 0.75,0.75z" data-paper-data="{&quot;index&quot;:null}" fill="#222222" stroke-width="0.5"/><path d="M348.19167,111.89194c0,0.41421 -0.33579,0.75 -0.75,0.75c-0.41421,0 -0.75,-0.33579 -0.75,-0.75c0,-0.41421 0.33579,-0.75 0.75,-0.75c0.41421,0 0.75,0.33579 0.75,0.75z" data-paper-data="{&quot;index&quot;:null}" fill="#222222" stroke-width="0.5"/><path d="M355.59167,103.89194c0,0.41421 -0.33579,0.75 -0.75,0.75c-0.41421,0 -0.75,-0.33579 -0.75,-0.75c0,-0.41421 0.33579,-0.75 0.75,-0.75c0.41421,0 0.75,0.33579 0.75,0.75z" data-paper-data="{&quot;index&quot;:null}" fill="#222222" stroke-width="0.5"/><path d="M362.39167,99.09194c0,0.41421 -0.33579,0.75 -0.75,0.75c-0.41421,0 -0.75,-0.33579 -0.75,-0.75c0,-0.41421 0.33579,-0.75 0.75,-0.75c0.41421,0 0.75,0.33579 0.75,0.75z" data-paper-data="{&quot;index&quot;:null}" fill="#222222" stroke-width="0.5"/><path d="M369.19167,73.29194c0,0.41421 -0.33579,0.75 -0.75,0.75c-0.41421,0 -0.75,-0.33579 -0.75,-0.75c0,-0.41421 0.33579,-0.75 0.75,-0.75c0.41421,0 0.75,0.33579 0.75,0.75z" data-paper-data="{&quot;index&quot;:null}" fill="#222222" stroke-width="0.5"/><path d="M330.99167,68.49194c0,0.41421 -0.33579,0.75 -0.75,0.75c-0.41421,0 -0.75,-0.33579 -0.75,-0.75c0,-0.41421 0.33579,-0.75 0.75,-0.75c0.41421,0 0.75,0.33579 0.75,0.75z" data-paper-data="{&quot;index&quot;:null}" fill="#222222" stroke-width="0.5"/><path d="M307.79167,156.29194c0,0.41421 -0.33579,0.75 -0.75,0.75c-0.41421,0 -0.75,-0.33579 -0.75,-0.75c0,-0.41421 0.33579,-0.75 0.75,-0.75c0.41421,0 0.75,0.33579 0.75,0.75z" data-paper-data="{&quot;index&quot;:null}" fill="#222222" stroke-width="0.5"/><path d="M301.99167,150.69194c0,0.41421 -0.33579,0.75 -0.75,0.75c-0.41421,0 -0.75,-0.33579 -0.75,-0.75c0,-0.41421 0.33579,-0.75 0.75,-0.75c0.41421,0 0.75,0.33579 0.75,0.75z" data-paper-data="{&quot;index&quot;:null}" fill="#222222" stroke-width="0.5"/><path d="M317.39167,151.89194c0,0.41421 -0.33579,0.75 -0.75,0.75c-0.41421,0 -0.75,-0.33579 -0.75,-0.75c0,-0.41421 0.33579,-0.75 0.75,-0.75c0.41421,0 0.75,0.33579 0.75,0.75z" data-paper-data="{&quot;index&quot;:null}" fill="#222222" stroke-width="0.5"/><path d="M324.99167,145.29194c0,0.41421 -0.33579,0.75 -0.75,0.75c-0.41421,0 -0.75,-0.33579 -0.75,-0.75c0,-0.41421 0.33579,-0.75 0.75,-0.75c0.41421,0 0.75,0.33579 0.75,0.75z" data-paper-data="{&quot;index&quot;:null}" fill="#222222" stroke-width="0.5"/><path d="M215.39167,20.42474c0,0.41421 -0.33579,0.75 -0.75,0.75c-0.41421,0 -0.75,-0.33579 -0.75,-0.75c0,-0.41421 0.33579,-0.75 0.75,-0.75c0.41421,0 0.75,0.33579 0.75,0.75z" data-paper-data="{&quot;index&quot;:null}" fill="#222222" stroke-width="0.5"/><path d="M219.39167,18.22474c0,0.41421 -0.33579,0.75 -0.75,0.75c-0.41421,0 -0.75,-0.33579 -0.75,-0.75c0,-0.41421 0.33579,-0.75 0.75,-0.75c0.41421,0 0.75,0.33579 0.75,0.75z" data-paper-data="{&quot;index&quot;:null}" fill="#222222" stroke-width="0.5"/><path d="M219.99167,13.62474c0,0.41421 -0.33579,0.75 -0.75,0.75c-0.41421,0 -0.75,-0.33579 -0.75,-0.75c0,-0.41421 0.33579,-0.75 0.75,-0.75c0.41421,0 0.75,0.33579 0.75,0.75z" data-paper-data="{&quot;index&quot;:null}" fill="#222222" stroke-width="0.5"/><path d="M230.39167,15.42474c0,0.41421 -0.33579,0.75 -0.75,0.75c-0.41421,0 -0.75,-0.33579 -0.75,-0.75c0,-0.41421 0.33579,-0.75 0.75,-0.75c0.41421,0 0.75,0.33579 0.75,0.75z" data-paper-data="{&quot;index&quot;:null}" fill="#222222" stroke-width="0.5"/><path d="M231.99167,19.62474c0,0.41421 -0.33579,0.75 -0.75,0.75c-0.41421,0 -0.75,-0.33579 -0.75,-0.75c0,-0.41421 0.33579,-0.75 0.75,-0.75c0.41421,0 0.75,0.33579 0.75,0.75z" data-paper-data="{&quot;index&quot;:null}" fill="#222222" stroke-width="0.5"/><path d="M227.39167,19.62474c0,0.41421 -0.33579,0.75 -0.75,0.75c-0.41421,0 -0.75,-0.33579 -0.75,-0.75c0,-0.41421 0.33579,-0.75 0.75,-0.75c0.41421,0 0.75,0.33579 0.75,0.75z" data-paper-data="{&quot;index&quot;:null}" fill="#222222" stroke-width="0.5"/><path d="M198.79167,32.62474c0,0.41421 -0.33579,0.75 -0.75,0.75c-0.41421,0 -0.75,-0.33579 -0.75,-0.75c0,-0.41421 0.33579,-0.75 0.75,-0.75c0.41421,0 0.75,0.33579 0.75,0.75z" data-paper-data="{&quot;index&quot;:null}" fill="#222222" stroke-width="0.5"/><path d="M200.59167,41.42474c0,0.41421 -0.33579,0.75 -0.75,0.75c-0.41421,0 -0.75,-0.33579 -0.75,-0.75c0,-0.41421 0.33579,-0.75 0.75,-0.75c0.41421,0 0.75,0.33579 0.75,0.75z" data-paper-data="{&quot;index&quot;:null}" fill="#222222" stroke-width="0.5"/><path d="M194.19167,46.22474c0,0.41421 -0.33579,0.75 -0.75,0.75c-0.41421,0 -0.75,-0.33579 -0.75,-0.75c0,-0.41421 0.33579,-0.75 0.75,-0.75c0.41421,0 0.75,0.33579 0.75,0.75z" data-paper-data="{&quot;index&quot;:null}" fill="#222222" stroke-width="0.5"/><path d="M192.39167,48.42474c0,0.41421 -0.33579,0.75 -0.75,0.75c-0.41421,0 -0.75,-0.33579 -0.75,-0.75c0,-0.41421 0.33579,-0.75 0.75,-0.75c0.41421,0 0.75,0.33579 0.75,0.75z" data-paper-data="{&quot;index&quot;:null}" fill="#222222" stroke-width="0.5"/><path d="M221.79167,54.62474c0,0.41421 -0.33579,0.75 -0.75,0.75c-0.41421,0 -0.75,-0.33579 -0.75,-0.75c0,-0.41421 0.33579,-0.75 0.75,-0.75c0.41421,0 0.75,0.33579 0.75,0.75z" data-paper-data="{&quot;index&quot;:null}" fill="#222222" stroke-width="0.5"/><path d="M208.79167,65.22474c0,0.41421 -0.33579,0.75 -0.75,0.75c-0.41421,0 -0.75,-0.33579 -0.75,-0.75c0,-0.41421 0.33579,-0.75 0.75,-0.75c0.41421,0 0.75,0.33579 0.75,0.75z" data-paper-data="{&quot;index&quot;:null}" fill="#222222" stroke-width="0.5"/><path d="M212.59167,45.42474c0,0.41421 -0.33579,0.75 -0.75,0.75c-0.41421,0 -0.75,-0.33579 -0.75,-0.75c0,-0.41421 0.33579,-0.75 0.75,-0.75c0.41421,0 0.75,0.33579 0.75,0.75z" data-paper-data="{&quot;index&quot;:null}" fill="#222222" stroke-width="0.5"/><path d="M238.09167,309.62474c0,0.69036 -0.55964,1.25 -1.25,1.25c-0.69036,0 -1.25,-0.55964 -1.25,-1.25c0,-0.69036 0.55964,-1.25 1.25,-1.25c0.69036,0 1.25,0.55964 1.25,1.25z" data-paper-data="{&quot;index&quot;:null}" fill="#222222" stroke-width="0.5"/><path d="M231.69167,317.82474c0,0.69036 -0.55964,1.25 -1.25,1.25c-0.69036,0 -1.25,-0.55964 -1.25,-1.25c0,-0.69036 0.55964,-1.25 1.25,-1.25c0.69036,0 1.25,0.55964 1.25,1.25z" data-paper-data="{&quot;index&quot;:null}" fill="#222222" stroke-width="0.5"/><path d="M289.99167,297.42474c0,0.41421 -0.33579,0.75 -0.75,0.75c-0.41421,0 -0.75,-0.33579 -0.75,-0.75c0,-0.41421 0.33579,-0.75 0.75,-0.75c0.41421,0 0.75,0.33579 0.75,0.75z" data-paper-data="{&quot;index&quot;:null}" fill="#222222" stroke-width="0.5"/><path d="M324.79167,303.42474c0,0.41421 -0.33579,0.75 -0.75,0.75c-0.41421,0 -0.75,-0.33579 -0.75,-0.75c0,-0.41421 0.33579,-0.75 0.75,-0.75c0.41421,0 0.75,0.33579 0.75,0.75z" data-paper-data="{&quot;index&quot;:null}" fill="#222222" stroke-width="0.5"/><path d="M329.59167,291.22474c0,0.41421 -0.33579,0.75 -0.75,0.75c-0.41421,0 -0.75,-0.33579 -0.75,-0.75c0,-0.41421 0.33579,-0.75 0.75,-0.75c0.41421,0 0.75,0.33579 0.75,0.75z" data-paper-data="{&quot;index&quot;:null}" fill="#222222" stroke-width="0.5"/><path d="M356.59167,291.82474c0,0.41421 -0.33579,0.75 -0.75,0.75c-0.41421,0 -0.75,-0.33579 -0.75,-0.75c0,-0.41421 0.33579,-0.75 0.75,-0.75c0.41421,0 0.75,0.33579 0.75,0.75z" data-paper-data="{&quot;index&quot;:null}" fill="#222222" stroke-width="0.5"/><path d="M356.99167,301.82474c0,0.41421 -0.33579,0.75 -0.75,0.75c-0.41421,0 -0.75,-0.33579 -0.75,-0.75c0,-0.41421 0.33579,-0.75 0.75,-0.75c0.41421,0 0.75,0.33579 0.75,0.75z" data-paper-data="{&quot;index&quot;:null}" fill="#222222" stroke-width="0.5"/><path d="M365.59167,311.42474c0,0.41421 -0.33579,0.75 -0.75,0.75c-0.41421,0 -0.75,-0.33579 -0.75,-0.75c0,-0.41421 0.33579,-0.75 0.75,-0.75c0.41421,0 0.75,0.33579 0.75,0.75z" data-paper-data="{&quot;index&quot;:null}" fill="#222222" stroke-width="0.5"/><path d="M376.59167,324.02474c0,0.41421 -0.33579,0.75 -0.75,0.75c-0.41421,0 -0.75,-0.33579 -0.75,-0.75c0,-0.41421 0.33579,-0.75 0.75,-0.75c0.41421,0 0.75,0.33579 0.75,0.75z" data-paper-data="{&quot;index&quot;:null}" fill="#222222" stroke-width="0.5"/><path d="M381.59167,326.82474c0,0.41421 -0.33579,0.75 -0.75,0.75c-0.41421,0 -0.75,-0.33579 -0.75,-0.75c0,-0.41421 0.33579,-0.75 0.75,-0.75c0.41421,0 0.75,0.33579 0.75,0.75z" data-paper-data="{&quot;index&quot;:null}" fill="#222222" stroke-width="0.5"/><path d="M381.59167,330.42474c0,0.41421 -0.33579,0.75 -0.75,0.75c-0.41421,0 -0.75,-0.33579 -0.75,-0.75c0,-0.41421 0.33579,-0.75 0.75,-0.75c0.41421,0 0.75,0.33579 0.75,0.75z" data-paper-data="{&quot;index&quot;:null}" fill="#222222" stroke-width="0.5"/><path d="M375.39167,333.02474c0,0.41421 -0.33579,0.75 -0.75,0.75c-0.41421,0 -0.75,-0.33579 -0.75,-0.75c0,-0.41421 0.33579,-0.75 0.75,-0.75c0.41421,0 0.75,0.33579 0.75,0.75z" data-paper-data="{&quot;index&quot;:null}" fill="#222222" stroke-width="0.5"/><path d="M370.39167,335.02474c0,0.41421 -0.33579,0.75 -0.75,0.75c-0.41421,0 -0.75,-0.33579 -0.75,-0.75c0,-0.41421 0.33579,-0.75 0.75,-0.75c0.41421,0 0.75,0.33579 0.75,0.75z" data-paper-data="{&quot;index&quot;:null}" fill="#222222" stroke-width="0.5"/><path d="M332.79167,327.62474c0,0.41421 -0.33579,0.75 -0.75,0.75c-0.41421,0 -0.75,-0.33579 -0.75,-0.75c0,-0.41421 0.33579,-0.75 0.75,-0.75c0.41421,0 0.75,0.33579 0.75,0.75z" data-paper-data="{&quot;index&quot;:null}" fill="#222222" stroke-width="0.5"/><path d="M340.99167,331.02474c0,0.41421 -0.33579,0.75 -0.75,0.75c-0.41421,0 -0.75,-0.33579 -0.75,-0.75c0,-0.41421 0.33579,-0.75 0.75,-0.75c0.41421,0 0.75,0.33579 0.75,0.75z" data-paper-data="{&quot;index&quot;:null}" fill="#222222" stroke-width="0.5"/><path d="M345.99167,327.42474c0,0.41421 -0.33579,0.75 -0.75,0.75c-0.41421,0 -0.75,-0.33579 -0.75,-0.75c0,-0.41421 0.33579,-0.75 0.75,-0.75c0.41421,0 0.75,0.33579 0.75,0.75z" data-paper-data="{&quot;index&quot;:null}" fill="#222222" stroke-width="0.5"/><path d="M325.59167,324.22474c0,0.41421 -0.33579,0.75 -0.75,0.75c-0.41421,0 -0.75,-0.33579 -0.75,-0.75c0,-0.41421 0.33579,-0.75 0.75,-0.75c0.41421,0 0.75,0.33579 0.75,0.75z" data-paper-data="{&quot;index&quot;:null}" fill="#222222" stroke-width="0.5"/><path d="M317.99167,330.82474c0,0.41421 -0.33579,0.75 -0.75,0.75c-0.41421,0 -0.75,-0.33579 -0.75,-0.75c0,-0.41421 0.33579,-0.75 0.75,-0.75c0.41421,0 0.75,0.33579 0.75,0.75z" data-paper-data="{&quot;index&quot;:null}" fill="#222222" stroke-width="0.5"/><path d="M305.39167,333.82474c0,0.41421 -0.33579,0.75 -0.75,0.75c-0.41421,0 -0.75,-0.33579 -0.75,-0.75c0,-0.41421 0.33579,-0.75 0.75,-0.75c0.41421,0 0.75,0.33579 0.75,0.75z" data-paper-data="{&quot;index&quot;:null}" fill="#222222" stroke-width="0.5"/><path d="M290.19167,332.82474c0,0.41421 -0.33579,0.75 -0.75,0.75c-0.41421,0 -0.75,-0.33579 -0.75,-0.75c0,-0.41421 0.33579,-0.75 0.75,-0.75c0.41421,0 0.75,0.33579 0.75,0.75z" data-paper-data="{&quot;index&quot;:null}" fill="#222222" stroke-width="0.5"/><path d="M312.99167,278.42474c0,0.41421 -0.33579,0.75 -0.75,0.75c-0.41421,0 -0.75,-0.33579 -0.75,-0.75c0,-0.41421 0.33579,-0.75 0.75,-0.75c0.41421,0 0.75,0.33579 0.75,0.75z" data-paper-data="{&quot;index&quot;:null}" fill="#222222" stroke-width="0.5"/><path d="M349.19167,282.82474c0,0.41421 -0.33579,0.75 -0.75,0.75c-0.41421,0 -0.75,-0.33579 -0.75,-0.75c0,-0.41421 0.33579,-0.75 0.75,-0.75c0.41421,0 0.75,0.33579 0.75,0.75z" data-paper-data="{&quot;index&quot;:null}" fill="#222222" stroke-width="0.5"/><path d="M358.79167,272.02474c0,0.41421 -0.33579,0.75 -0.75,0.75c-0.41421,0 -0.75,-0.33579 -0.75,-0.75c0,-0.41421 0.33579,-0.75 0.75,-0.75c0.41421,0 0.75,0.33579 0.75,0.75z" data-paper-data="{&quot;index&quot;:null}" fill="#222222" stroke-width="0.5"/><path d="M336.59167,250.62474c0,0.41421 -0.33579,0.75 -0.75,0.75c-0.41421,0 -0.75,-0.33579 -0.75,-0.75c0,-0.41421 0.33579,-0.75 0.75,-0.75c0.41421,0 0.75,0.33579 0.75,0.75z" data-paper-data="{&quot;index&quot;:null}" fill="#222222" stroke-width="0.5"/><path d="M307.59167,252.22474c0,0.41421 -0.33579,0.75 -0.75,0.75c-0.41421,0 -0.75,-0.33579 -0.75,-0.75c0,-0.41421 0.33579,-0.75 0.75,-0.75c0.41421,0 0.75,0.33579 0.75,0.75z" data-paper-data="{&quot;index&quot;:null}" fill="#222222" stroke-width="0.5"/><path d="M191.19167,260.02474c0,0.41421 -0.33579,0.75 -0.75,0.75c-0.41421,0 -0.75,-0.33579 -0.75,-0.75c0,-0.41421 0.33579,-0.75 0.75,-0.75c0.41421,0 0.75,0.33579 0.75,0.75z" data-paper-data="{&quot;index&quot;:null}" fill="#222222" stroke-width="0.5"/><path d="M191.59167,277.42474c0,0.41421 -0.33579,0.75 -0.75,0.75c-0.41421,0 -0.75,-0.33579 -0.75,-0.75c0,-0.41421 0.33579,-0.75 0.75,-0.75c0.41421,0 0.75,0.33579 0.75,0.75z" data-paper-data="{&quot;index&quot;:null}" fill="#222222" stroke-width="0.5"/><path d="M156.19167,306.62474c0,0.41421 -0.33579,0.75 -0.75,0.75c-0.41421,0 -0.75,-0.33579 -0.75,-0.75c0,-0.41421 0.33579,-0.75 0.75,-0.75c0.41421,0 0.75,0.33579 0.75,0.75z" data-paper-data="{&quot;index&quot;:null}" fill="#222222" stroke-width="0.5"/><path d="M176.19167,312.82474c0,0.41421 -0.33579,0.75 -0.75,0.75c-0.41421,0 -0.75,-0.33579 -0.75,-0.75c0,-0.41421 0.33579,-0.75 0.75,-0.75c0.41421,0 0.75,0.33579 0.75,0.75z" data-paper-data="{&quot;index&quot;:null}" fill="#222222" stroke-width="0.5"/><path d="M152.99167,322.22474c0,0.41421 -0.33579,0.75 -0.75,0.75c-0.41421,0 -0.75,-0.33579 -0.75,-0.75c0,-0.41421 0.33579,-0.75 0.75,-0.75c0.41421,0 0.75,0.33579 0.75,0.75z" data-paper-data="{&quot;index&quot;:null}" fill="#222222" stroke-width="0.5"/><path d="M138.19167,315.82474c0,0.41421 -0.33579,0.75 -0.75,0.75c-0.41421,0 -0.75,-0.33579 -0.75,-0.75c0,-0.41421 0.33579,-0.75 0.75,-0.75c0.41421,0 0.75,0.33579 0.75,0.75z" data-paper-data="{&quot;index&quot;:null}" fill="#222222" stroke-width="0.5"/><path d="M122.99167,322.02474c0,0.41421 -0.33579,0.75 -0.75,0.75c-0.41421,0 -0.75,-0.33579 -0.75,-0.75c0,-0.41421 0.33579,-0.75 0.75,-0.75c0.41421,0 0.75,0.33579 0.75,0.75z" data-paper-data="{&quot;index&quot;:null}" fill="#222222" stroke-width="0.5"/><path d="M121.59167,320.82474c0,0.41421 -0.33579,0.75 -0.75,0.75c-0.41421,0 -0.75,-0.33579 -0.75,-0.75c0,-0.41421 0.33579,-0.75 0.75,-0.75c0.41421,0 0.75,0.33579 0.75,0.75z" data-paper-data="{&quot;index&quot;:null}" fill="#222222" stroke-width="0.5"/><path d="M124.19167,319.82474c0,0.41421 -0.33579,0.75 -0.75,0.75c-0.41421,0 -0.75,-0.33579 -0.75,-0.75c0,-0.41421 0.33579,-0.75 0.75,-0.75c0.41421,0 0.75,0.33579 0.75,0.75z" data-paper-data="{&quot;index&quot;:null}" fill="#222222" stroke-width="0.5"/><path d="M125.59167,265.42474c0,0.41421 -0.33579,0.75 -0.75,0.75c-0.41421,0 -0.75,-0.33579 -0.75,-0.75c0,-0.41421 0.33579,-0.75 0.75,-0.75c0.41421,0 0.75,0.33579 0.75,0.75z" data-paper-data="{&quot;index&quot;:null}" fill="#222222" stroke-width="0.5"/><path d="M131.79167,266.02474c0,0.41421 -0.33579,0.75 -0.75,0.75c-0.41421,0 -0.75,-0.33579 -0.75,-0.75c0,-0.41421 0.33579,-0.75 0.75,-0.75c0.41421,0 0.75,0.33579 0.75,0.75z" data-paper-data="{&quot;index&quot;:null}" fill="#222222" stroke-width="0.5"/><path d="M143.19167,254.42474c0,0.41421 -0.33579,0.75 -0.75,0.75c-0.41421,0 -0.75,-0.33579 -0.75,-0.75c0,-0.41421 0.33579,-0.75 0.75,-0.75c0.41421,0 0.75,0.33579 0.75,0.75z" data-paper-data="{&quot;index&quot;:null}" fill="#222222" stroke-width="0.5"/><path d="M141.39167,239.62474c0,0.41421 -0.33579,0.75 -0.75,0.75c-0.41421,0 -0.75,-0.33579 -0.75,-0.75c0,-0.41421 0.33579,-0.75 0.75,-0.75c0.41421,0 0.75,0.33579 0.75,0.75z" data-paper-data="{&quot;index&quot;:null}" fill="#222222" stroke-width="0.5"/><path d="M130.79167,230.22474c0,0.41421 -0.33579,0.75 -0.75,0.75c-0.41421,0 -0.75,-0.33579 -0.75,-0.75c0,-0.41421 0.33579,-0.75 0.75,-0.75c0.41421,0 0.75,0.33579 0.75,0.75z" data-paper-data="{&quot;index&quot;:null}" fill="#222222" stroke-width="0.5"/><path d="M127.79167,232.22474c0,0.41421 -0.33579,0.75 -0.75,0.75c-0.41421,0 -0.75,-0.33579 -0.75,-0.75c0,-0.41421 0.33579,-0.75 0.75,-0.75c0.41421,0 0.75,0.33579 0.75,0.75z" data-paper-data="{&quot;index&quot;:null}" fill="#222222" stroke-width="0.5"/><path d="M166.79167,234.62474c0,0.41421 -0.33579,0.75 -0.75,0.75c-0.41421,0 -0.75,-0.33579 -0.75,-0.75c0,-0.41421 0.33579,-0.75 0.75,-0.75c0.41421,0 0.75,0.33579 0.75,0.75z" data-paper-data="{&quot;index&quot;:null}" fill="#222222" stroke-width="0.5"/><path d="M195.39167,225.22474c0,0.41421 -0.33579,0.75 -0.75,0.75c-0.41421,0 -0.75,-0.33579 -0.75,-0.75c0,-0.41421 0.33579,-0.75 0.75,-0.75c0.41421,0 0.75,0.33579 0.75,0.75z" data-paper-data="{&quot;index&quot;:null}" fill="#222222" stroke-width="0.5"/><path d="M199.99167,218.02474c0,0.41421 -0.33579,0.75 -0.75,0.75c-0.41421,0 -0.75,-0.33579 -0.75,-0.75c0,-0.41421 0.33579,-0.75 0.75,-0.75c0.41421,0 0.75,0.33579 0.75,0.75z" data-paper-data="{&quot;index&quot;:null}" fill="#222222" stroke-width="0.5"/><path d="M203.39167,211.42474c0,0.41421 -0.33579,0.75 -0.75,0.75c-0.41421,0 -0.75,-0.33579 -0.75,-0.75c0,-0.41421 0.33579,-0.75 0.75,-0.75c0.41421,0 0.75,0.33579 0.75,0.75z" data-paper-data="{&quot;index&quot;:null}" fill="#222222" stroke-width="0.5"/><path d="M227.79167,206.42474c0,0.41421 -0.33579,0.75 -0.75,0.75c-0.41421,0 -0.75,-0.33579 -0.75,-0.75c0,-0.41421 0.33579,-0.75 0.75,-0.75c0.41421,0 0.75,0.33579 0.75,0.75z" data-paper-data="{&quot;index&quot;:null}" fill="#222222" stroke-width="0.5"/><path d="M223.19167,212.62474c0,0.41421 -0.33579,0.75 -0.75,0.75c-0.41421,0 -0.75,-0.33579 -0.75,-0.75c0,-0.41421 0.33579,-0.75 0.75,-0.75c0.41421,0 0.75,0.33579 0.75,0.75z" data-paper-data="{&quot;index&quot;:null}" fill="#222222" stroke-width="0.5"/><path d="M222.99167,218.82474c0,0.41421 -0.33579,0.75 -0.75,0.75c-0.41421,0 -0.75,-0.33579 -0.75,-0.75c0,-0.41421 0.33579,-0.75 0.75,-0.75c0.41421,0 0.75,0.33579 0.75,0.75z" data-paper-data="{&quot;index&quot;:null}" fill="#222222" stroke-width="0.5"/><path d="M221.99167,228.22474c0,0.41421 -0.33579,0.75 -0.75,0.75c-0.41421,0 -0.75,-0.33579 -0.75,-0.75c0,-0.41421 0.33579,-0.75 0.75,-0.75c0.41421,0 0.75,0.33579 0.75,0.75z" data-paper-data="{&quot;index&quot;:null}" fill="#222222" stroke-width="0.5"/><path d="M220.79167,236.42474c0,0.41421 -0.33579,0.75 -0.75,0.75c-0.41421,0 -0.75,-0.33579 -0.75,-0.75c0,-0.41421 0.33579,-0.75 0.75,-0.75c0.41421,0 0.75,0.33579 0.75,0.75z" data-paper-data="{&quot;index&quot;:null}" fill="#222222" stroke-width="0.5"/><path d="M205.79167,243.02474c0,0.41421 -0.33579,0.75 -0.75,0.75c-0.41421,0 -0.75,-0.33579 -0.75,-0.75c0,-0.41421 0.33579,-0.75 0.75,-0.75c0.41421,0 0.75,0.33579 0.75,0.75z" data-paper-data="{&quot;index&quot;:null}" fill="#222222" stroke-width="0.5"/><path d="M206.59167,246.22474c0,0.41421 -0.33579,0.75 -0.75,0.75c-0.41421,0 -0.75,-0.33579 -0.75,-0.75c0,-0.41421 0.33579,-0.75 0.75,-0.75c0.41421,0 0.75,0.33579 0.75,0.75z" data-paper-data="{&quot;index&quot;:null}" fill="#222222" stroke-width="0.5"/><path d="M190.19167,164.82474c0,0.41421 -0.33579,0.75 -0.75,0.75c-0.41421,0 -0.75,-0.33579 -0.75,-0.75c0,-0.41421 0.33579,-0.75 0.75,-0.75c0.41421,0 0.75,0.33579 0.75,0.75z" data-paper-data="{&quot;index&quot;:null}" fill="#222222" stroke-width="0.5"/><path d="M207.39167,169.02474c0,0.41421 -0.33579,0.75 -0.75,0.75c-0.41421,0 -0.75,-0.33579 -0.75,-0.75c0,-0.41421 0.33579,-0.75 0.75,-0.75c0.41421,0 0.75,0.33579 0.75,0.75z" data-paper-data="{&quot;index&quot;:null}" fill="#222222" stroke-width="0.5"/><path d="M205.99167,171.02474c0,0.41421 -0.33579,0.75 -0.75,0.75c-0.41421,0 -0.75,-0.33579 -0.75,-0.75c0,-0.41421 0.33579,-0.75 0.75,-0.75c0.41421,0 0.75,0.33579 0.75,0.75z" data-paper-data="{&quot;index&quot;:null}" fill="#222222" stroke-width="0.5"/><path d="M220.59167,174.82474c0,0.41421 -0.33579,0.75 -0.75,0.75c-0.41421,0 -0.75,-0.33579 -0.75,-0.75c0,-0.41421 0.33579,-0.75 0.75,-0.75c0.41421,0 0.75,0.33579 0.75,0.75z" data-paper-data="{&quot;index&quot;:null}" fill="#222222" stroke-width="0.5"/><path d="M224.59167,179.42474c0,0.41421 -0.33579,0.75 -0.75,0.75c-0.41421,0 -0.75,-0.33579 -0.75,-0.75c0,-0.41421 0.33579,-0.75 0.75,-0.75c0.41421,0 0.75,0.33579 0.75,0.75z" data-paper-data="{&quot;index&quot;:null}" fill="#222222" stroke-width="0.5"/><path d="M131.39167,178.82474c0,0.41421 -0.33579,0.75 -0.75,0.75c-0.41421,0 -0.75,-0.33579 -0.75,-0.75c0,-0.41421 0.33579,-0.75 0.75,-0.75c0.41421,0 0.75,0.33579 0.75,0.75z" data-paper-data="{&quot;index&quot;:null}" fill="#222222" stroke-width="0.5"/><path d="M127.59167,180.42474c0,0.41421 -0.33579,0.75 -0.75,0.75c-0.41421,0 -0.75,-0.33579 -0.75,-0.75c0,-0.41421 0.33579,-0.75 0.75,-0.75c0.41421,0 0.75,0.33579 0.75,0.75z" data-paper-data="{&quot;index&quot;:null}" fill="#222222" stroke-width="0.5"/><path d="M125.59167,162.22474c0,0.41421 -0.33579,0.75 -0.75,0.75c-0.41421,0 -0.75,-0.33579 -0.75,-0.75c0,-0.41421 0.33579,-0.75 0.75,-0.75c0.41421,0 0.75,0.33579 0.75,0.75z" data-paper-data="{&quot;index&quot;:null}" fill="#222222" stroke-width="0.5"/><path d="M121.79167,164.42474c0,0.41421 -0.33579,0.75 -0.75,0.75c-0.41421,0 -0.75,-0.33579 -0.75,-0.75c0,-0.41421 0.33579,-0.75 0.75,-0.75c0.41421,0 0.75,0.33579 0.75,0.75z" data-paper-data="{&quot;index&quot;:null}" fill="#222222" stroke-width="0.5"/><path d="M119.39167,169.02474c0,0.41421 -0.33579,0.75 -0.75,0.75c-0.41421,0 -0.75,-0.33579 -0.75,-0.75c0,-0.41421 0.33579,-0.75 0.75,-0.75c0.41421,0 0.75,0.33579 0.75,0.75z" data-paper-data="{&quot;index&quot;:null}" fill="#222222" stroke-width="0.5"/><path d="M293.04167,187.33334c0,0.36456 -0.19509,0.68356 -0.48656,0.8583c0.21674,0.13148 0.36156,0.36968 0.36156,0.6417c0,0.41421 -0.33579,0.75 -0.75,0.75c-0.41421,0 -0.75,-0.33579 -0.75,-0.75c0,-0.22725 0.10107,-0.43089 0.26071,-0.56843c-0.37214,-0.14564 -0.63571,-0.50782 -0.63571,-0.93157c0,-0.55228 0.44772,-1 1,-1c0.55228,0 1,0.44772 1,1z" data-paper-data="{&quot;index&quot;:null}" fill="#222222" stroke-width="0.5"/><path d="M295.91667,209.08334c0,0.41421 -0.33579,0.75 -0.75,0.75c-0.41421,0 -0.75,-0.33579 -0.75,-0.75c0,-0.41421 0.33579,-0.75 0.75,-0.75c0.41421,0 0.75,0.33579 0.75,0.75z" data-paper-data="{&quot;index&quot;:null}" fill="#222222" stroke-width="0.5"/><path d="M318.91667,210.33334c0,0.41421 -0.33579,0.75 -0.75,0.75c-0.41421,0 -0.75,-0.33579 -0.75,-0.75c0,-0.41421 0.33579,-0.75 0.75,-0.75c0.41421,0 0.75,0.33579 0.75,0.75z" data-paper-data="{&quot;index&quot;:null}" fill="#222222" stroke-width="0.5"/><path d="M348.41667,194.83334c0,0.41421 -0.33579,0.75 -0.75,0.75c-0.41421,0 -0.75,-0.33579 -0.75,-0.75c0,-0.41421 0.33579,-0.75 0.75,-0.75c0.41421,0 0.75,0.33579 0.75,0.75z" data-paper-data="{&quot;index&quot;:null}" fill="#222222" stroke-width="0.5"/><path d="M365.41667,210.83334c0,0.41421 -0.33579,0.75 -0.75,0.75c-0.41421,0 -0.75,-0.33579 -0.75,-0.75c0,-0.41421 0.33579,-0.75 0.75,-0.75c0.41421,0 0.75,0.33579 0.75,0.75z" data-paper-data="{&quot;index&quot;:null}" fill="#222222" stroke-width="0.5"/><path d="M282.66667,239.83334c0,0.69036 -0.55964,1.25 -1.25,1.25c-0.69036,0 -1.25,-0.55964 -1.25,-1.25c0,-0.69036 0.55964,-1.25 1.25,-1.25c0.69036,0 1.25,0.55964 1.25,1.25z" data-paper-data="{&quot;index&quot;:null}" fill="#222222" stroke-width="0.5"/><path d="M265.91667,198.83334c0,0.69036 -0.55964,1.25 -1.25,1.25c-0.69036,0 -1.25,-0.55964 -1.25,-1.25c0,-0.69036 0.55964,-1.25 1.25,-1.25c0.69036,0 1.25,0.55964 1.25,1.25z" data-paper-data="{&quot;index&quot;:null}" fill="#222222" stroke-width="0.5"/><path d="M367.16667,181.58334c0,0.69036 -0.55964,1.25 -1.25,1.25c-0.69036,0 -1.25,-0.55964 -1.25,-1.25c0,-0.69036 0.55964,-1.25 1.25,-1.25c0.69036,0 1.25,0.55964 1.25,1.25z" data-paper-data="{&quot;index&quot;:null}" fill="#222222" stroke-width="0.5"/><path d="M264.91667,136.58334c0,0.69036 -0.55964,1.25 -1.25,1.25c-0.69036,0 -1.25,-0.55964 -1.25,-1.25c0,-0.69036 0.55964,-1.25 1.25,-1.25c0.69036,0 1.25,0.55964 1.25,1.25z" data-paper-data="{&quot;index&quot;:null}" fill="#222222" stroke-width="0.5"/><path d="M208.16667,185.33334c0,0.69036 -0.55964,1.25 -1.25,1.25c-0.69036,0 -1.25,-0.55964 -1.25,-1.25c0,-0.69036 0.55964,-1.25 1.25,-1.25c0.69036,0 1.25,0.55964 1.25,1.25z" data-paper-data="{&quot;index&quot;:null}" fill="#222222" stroke-width="0.5"/><path d="M170.91667,220.83334c0,0.69036 -0.55964,1.25 -1.25,1.25c-0.69036,0 -1.25,-0.55964 -1.25,-1.25c0,-0.69036 0.55964,-1.25 1.25,-1.25c0.69036,0 1.25,0.55964 1.25,1.25z" data-paper-data="{&quot;index&quot;:null}" fill="#222222" stroke-width="0.5"/><path d="M145.66667,112.33334c0,0.69036 -0.55964,1.25 -1.25,1.25c-0.69036,0 -1.25,-0.55964 -1.25,-1.25c0,-0.69036 0.55964,-1.25 1.25,-1.25c0.69036,0 1.25,0.55964 1.25,1.25z" data-paper-data="{&quot;index&quot;:null}" fill="#222222" stroke-width="0.5"/><path d="M256.91667,81.58334c0,0.69036 -0.55964,1.25 -1.25,1.25c-0.69036,0 -1.25,-0.55964 -1.25,-1.25c0,-0.69036 0.55964,-1.25 1.25,-1.25c0.69036,0 1.25,0.55964 1.25,1.25z" data-paper-data="{&quot;index&quot;:null}" fill="#222222" stroke-width="0.5"/><path d="M353.41667,49.60834c0,0.69036 -0.55964,1.25 -1.25,1.25c-0.69036,0 -1.25,-0.55964 -1.25,-1.25c0,-0.69036 0.55964,-1.25 1.25,-1.25c0.69036,0 1.25,0.55964 1.25,1.25z" data-paper-data="{&quot;index&quot;:null}" fill="#222222" stroke-width="0.5"/><path d="M159.16667,76.60834c0,0.27614 -0.22386,0.5 -0.5,0.5c-0.27614,0 -0.5,-0.22386 -0.5,-0.5c0,-0.27614 0.22386,-0.5 0.5,-0.5c0.27614,0 0.5,0.22386 0.5,0.5z" data-paper-data="{&quot;index&quot;:null}" fill="#222222" stroke-width="0.5"/><path d="M65.04167,47.83334c-0.5,0 -0.5,-0.5 -0.5,-0.5v-1c0,0 0,-0.5 0.5,-0.5c0.5,0 0.5,0.5 0.5,0.5v1c0,0 0,0.5 -0.5,0.5z" data-paper-data="{&quot;index&quot;:null}" fill="#222222" stroke-width="0.5"/><path d="M99.54167,66.33334c0,0.27614 -0.22386,0.5 -0.5,0.5c-0.27614,0 -0.5,-0.22386 -0.5,-0.5c0,-0.27614 0.22386,-0.5 0.5,-0.5c0.27614,0 0.5,0.22386 0.5,0.5z" data-paper-data="{&quot;index&quot;:null}" fill="#222222" stroke-width="0.5"/><path d="M146.54167,31.33334c0,0.27614 -0.22386,0.5 -0.5,0.5c-0.27614,0 -0.5,-0.22386 -0.5,-0.5c0,-0.27614 0.22386,-0.5 0.5,-0.5c0.27614,0 0.5,0.22386 0.5,0.5z" data-paper-data="{&quot;index&quot;:null}" fill="#222222" stroke-width="0.5"/><path d="M152.54167,77.33334c0,0.27614 -0.22386,0.5 -0.5,0.5c-0.27614,0 -0.5,-0.22386 -0.5,-0.5c0,-0.27614 0.22386,-0.5 0.5,-0.5c0.27614,0 0.5,0.22386 0.5,0.5z" data-paper-data="{&quot;index&quot;:null}" fill="#222222" stroke-width="0.5"/><path d="M87.54167,104.33334c0,0.27614 -0.22386,0.5 -0.5,0.5c-0.27614,0 -0.5,-0.22386 -0.5,-0.5c0,-0.27614 0.22386,-0.5 0.5,-0.5c0.27614,0 0.5,0.22386 0.5,0.5z" data-paper-data="{&quot;index&quot;:null}" fill="#222222" stroke-width="0.5"/><path d="M102.54167,124.33334c0,0.27614 -0.22386,0.5 -0.5,0.5c-0.27614,0 -0.5,-0.22386 -0.5,-0.5c0,-0.27614 0.22386,-0.5 0.5,-0.5c0.27614,0 0.5,0.22386 0.5,0.5z" data-paper-data="{&quot;index&quot;:null}" fill="#222222" stroke-width="0.5"/><path d="M177.54167,158.33334c0,0.27614 -0.22386,0.5 -0.5,0.5c-0.27614,0 -0.5,-0.22386 -0.5,-0.5c0,-0.27614 0.22386,-0.5 0.5,-0.5c0.27614,0 0.5,0.22386 0.5,0.5z" data-paper-data="{&quot;index&quot;:null}" fill="#222222" stroke-width="0.5"/><path d="M157.54167,194.33334c0,0.27614 -0.22386,0.5 -0.5,0.5c-0.27614,0 -0.5,-0.22386 -0.5,-0.5c0,-0.27614 0.22386,-0.5 0.5,-0.5c0.27614,0 0.5,0.22386 0.5,0.5z" data-paper-data="{&quot;index&quot;:null}" fill="#222222" stroke-width="0.5"/><path d="M146.54167,202.33334c0,0.27614 -0.22386,0.5 -0.5,0.5c-0.27614,0 -0.5,-0.22386 -0.5,-0.5c0,-0.27614 0.22386,-0.5 0.5,-0.5c0.27614,0 0.5,0.22386 0.5,0.5z" data-paper-data="{&quot;index&quot;:null}" fill="#222222" stroke-width="0.5"/><path d="M177.54167,314.33334c0,0.27614 -0.22386,0.5 -0.5,0.5c-0.27614,0 -0.5,-0.22386 -0.5,-0.5c0,-0.27614 0.22386,-0.5 0.5,-0.5c0.27614,0 0.5,0.22386 0.5,0.5z" data-paper-data="{&quot;index&quot;:null}" fill="#222222" stroke-width="0.5"/><path d="M285.54167,292.33334c0,0.27614 -0.22386,0.5 -0.5,0.5c-0.27614,0 -0.5,-0.22386 -0.5,-0.5c0,-0.27614 0.22386,-0.5 0.5,-0.5c0.27614,0 0.5,0.22386 0.5,0.5z" data-paper-data="{&quot;index&quot;:null}" fill="#222222" stroke-width="0.5"/><path d="M261.54167,267.33334c0,0.27614 -0.22386,0.5 -0.5,0.5c-0.27614,0 -0.5,-0.22386 -0.5,-0.5c0,-0.27614 0.22386,-0.5 0.5,-0.5c0.27614,0 0.5,0.22386 0.5,0.5z" data-paper-data="{&quot;index&quot;:null}" fill="#222222" stroke-width="0.5"/><path d="M244.54167,267.33334c0,0.27614 -0.22386,0.5 -0.5,0.5c-0.27614,0 -0.5,-0.22386 -0.5,-0.5c0,-0.27614 0.22386,-0.5 0.5,-0.5c0.27614,0 0.5,0.22386 0.5,0.5z" data-paper-data="{&quot;index&quot;:null}" fill="#222222" stroke-width="0.5"/><path d="M378.04167,173.33334c0,0.55228 -0.44772,1 -1,1c-0.55228,0 -1,-0.44772 -1,-1c0,-0.55228 0.44772,-1 1,-1c0.55228,0 1,0.44772 1,1z" data-paper-data="{&quot;index&quot;:null}" fill="#222222" stroke-width="0.5"/><path d="M394.04167,241.33334c0,0.55228 -0.44772,1 -1,1c-0.55228,0 -1,-0.44772 -1,-1c0,-0.55228 0.44772,-1 1,-1c0.55228,0 1,0.44772 1,1z" data-paper-data="{&quot;index&quot;:null}" fill="#222222" stroke-width="0.5"/><path d="M324.04167,250.33334c0,0.55228 -0.44772,1 -1,1c-0.55228,0 -1,-0.44772 -1,-1c0,-0.55228 0.44772,-1 1,-1c0.55228,0 1,0.44772 1,1z" data-paper-data="{&quot;index&quot;:null}" fill="#222222" stroke-width="0.5"/><path d="M329.04167,209.33334c0,0.55228 -0.44772,1 -1,1c-0.55228,0 -1,-0.44772 -1,-1c0,-0.55228 0.44772,-1 1,-1c0.55228,0 1,0.44772 1,1z" data-paper-data="{&quot;index&quot;:null}" fill="#222222" stroke-width="0.5"/><path d="M311.04167,153.33334c0,0.55228 -0.44772,1 -1,1c-0.55228,0 -1,-0.44772 -1,-1c0,-0.55228 0.44772,-1 1,-1c0.55228,0 1,0.44772 1,1z" data-paper-data="{&quot;index&quot;:null}" fill="#222222" stroke-width="0.5"/><path d="M293.04167,261.33334c0,0.55228 -0.44772,1 -1,1c-0.55228,0 -1,-0.44772 -1,-1c0,-0.55228 0.44772,-1 1,-1c0.55228,0 1,0.44772 1,1z" data-paper-data="{&quot;index&quot;:null}" fill="#222222" stroke-width="0.5"/><path d="M278.04167,267.33334c0,0.55228 -0.44772,1 -1,1c-0.55228,0 -1,-0.44772 -1,-1c0,-0.55228 0.44772,-1 1,-1c0.55228,0 1,0.44772 1,1z" data-paper-data="{&quot;index&quot;:null}" fill="#222222" stroke-width="0.5"/><path d="M216.04167,274.33334c0,0.55228 -0.44772,1 -1,1c-0.55228,0 -1,-0.44772 -1,-1c0,-0.55228 0.44772,-1 1,-1c0.55228,0 1,0.44772 1,1z" data-paper-data="{&quot;index&quot;:null}" fill="#222222" stroke-width="0.5"/><path d="M205.04167,317.33334c0,0.55228 -0.44772,1 -1,1c-0.55228,0 -1,-0.44772 -1,-1c0,-0.55228 0.44772,-1 1,-1c0.55228,0 1,0.44772 1,1z" data-paper-data="{&quot;index&quot;:null}" fill="#222222" stroke-width="0.5"/><path d="M307.04167,225.33334c0,0.55228 -0.44772,1 -1,1c-0.55228,0 -1,-0.44772 -1,-1c0,-0.55228 0.44772,-1 1,-1c0.55228,0 1,0.44772 1,1z" data-paper-data="{&quot;index&quot;:null}" fill="#4e4e4e" stroke-width="0.5"/><path d="M388.04167,209.33334c0,0.55228 -0.44772,1 -1,1c-0.55228,0 -1,-0.44772 -1,-1c0,-0.55228 0.44772,-1 1,-1c0.55228,0 1,0.44772 1,1z" data-paper-data="{&quot;index&quot;:null}" fill="#4e4e4e" stroke-width="0.5"/><path d="M310.04167,156.33334c0,0.55228 -0.44772,1 -1,1c-0.55228,0 -1,-0.44772 -1,-1c0,-0.55228 0.44772,-1 1,-1c0.55228,0 1,0.44772 1,1z" data-paper-data="{&quot;index&quot;:null}" fill="#4e4e4e" stroke-width="0.5"/><path d="M265.04167,132.33334c0,0.55228 -0.44772,1 -1,1c-0.55228,0 -1,-0.44772 -1,-1c0,-0.55228 0.44772,-1 1,-1c0.55228,0 1,0.44772 1,1z" data-paper-data="{&quot;index&quot;:null}" fill="#4e4e4e" stroke-width="0.5"/><path d="M275.04167,93.33334c0,0.55228 -0.44772,1 -1,1c-0.55228,0 -1,-0.44772 -1,-1c0,-0.55228 0.44772,-1 1,-1c0.55228,0 1,0.44772 1,1z" data-paper-data="{&quot;index&quot;:null}" fill="#4e4e4e" stroke-width="0.5"/><path d="M273.04167,55.33334c0,0.55228 -0.44772,1 -1,1c-0.55228,0 -1,-0.44772 -1,-1c0,-0.55228 0.44772,-1 1,-1c0.55228,0 1,0.44772 1,1z" data-paper-data="{&quot;index&quot;:null}" fill="#4e4e4e" stroke-width="0.5"/><path d="M283.04167,18.33334c0,0.55228 -0.44772,1 -1,1c-0.55228,0 -1,-0.44772 -1,-1c0,-0.55228 0.44772,-1 1,-1c0.55228,0 1,0.44772 1,1z" data-paper-data="{&quot;index&quot;:null}" fill="#4e4e4e" stroke-width="0.5"/><path d="M310.04167,92.33334c0,0.55228 -0.44772,1 -1,1c-0.55228,0 -1,-0.44772 -1,-1c0,-0.55228 0.44772,-1 1,-1c0.55228,0 1,0.44772 1,1z" data-paper-data="{&quot;index&quot;:null}" fill="#4e4e4e" stroke-width="0.5"/><path d="M234.04167,105.33334c0,0.55228 -0.44772,1 -1,1c-0.55228,0 -1,-0.44772 -1,-1c0,-0.55228 0.44772,-1 1,-1c0.55228,0 1,0.44772 1,1z" data-paper-data="{&quot;index&quot;:null}" fill="#4e4e4e" stroke-width="0.5"/><path d="M148.04167,100.33334c0,0.55228 -0.44772,1 -1,1c-0.55228,0 -1,-0.44772 -1,-1c0,-0.55228 0.44772,-1 1,-1c0.55228,0 1,0.44772 1,1z" data-paper-data="{&quot;index&quot;:null}" fill="#4e4e4e" stroke-width="0.5"/><path d="M134.04167,42.33334c0,0.55228 -0.44772,1 -1,1c-0.55228,0 -1,-0.44772 -1,-1c0,-0.55228 0.44772,-1 1,-1c0.55228,0 1,0.44772 1,1z" data-paper-data="{&quot;index&quot;:null}" fill="#4e4e4e" stroke-width="0.5"/><path d="M119.04167,69.33334c0,0.55228 -0.44772,1 -1,1c-0.55228,0 -1,-0.44772 -1,-1c0,-0.55228 0.44772,-1 1,-1c0.55228,0 1,0.44772 1,1z" data-paper-data="{&quot;index&quot;:null}" fill="#4e4e4e" stroke-width="0.5"/><path d="M121.04167,88.33334c0,0.55228 -0.44772,1 -1,1c-0.55228,0 -1,-0.44772 -1,-1c0,-0.55228 0.44772,-1 1,-1c0.55228,0 1,0.44772 1,1z" data-paper-data="{&quot;index&quot;:null}" fill="#4e4e4e" stroke-width="0.5"/><path d="M175.04167,110.33334c0,0.55228 -0.44772,1 -1,1c-0.55228,0 -1,-0.44772 -1,-1c0,-0.55228 0.44772,-1 1,-1c0.55228,0 1,0.44772 1,1z" data-paper-data="{&quot;index&quot;:null}" fill="#4e4e4e" stroke-width="0.5"/><path d="M169.04167,136.33334c0,0.55228 -0.44772,1 -1,1c-0.55228,0 -1,-0.44772 -1,-1c0,-0.55228 0.44772,-1 1,-1c0.55228,0 1,0.44772 1,1z" data-paper-data="{&quot;index&quot;:null}" fill="#4e4e4e" stroke-width="0.5"/><path d="M142.04167,159.33334c0,0.55228 -0.44772,1 -1,1c-0.55228,0 -1,-0.44772 -1,-1c0,-0.55228 0.44772,-1 1,-1c0.55228,0 1,0.44772 1,1z" data-paper-data="{&quot;index&quot;:null}" fill="#4e4e4e" stroke-width="0.5"/><path d="M149.04167,209.33334c0,0.55228 -0.44772,1 -1,1c-0.55228,0 -1,-0.44772 -1,-1c0,-0.55228 0.44772,-1 1,-1c0.55228,0 1,0.44772 1,1z" data-paper-data="{&quot;index&quot;:null}" fill="#4e4e4e" stroke-width="0.5"/><path d="M111.04167,217.33334c0,0.55228 -0.44772,1 -1,1c-0.55228,0 -1,-0.44772 -1,-1c0,-0.55228 0.44772,-1 1,-1c0.55228,0 1,0.44772 1,1z" data-paper-data="{&quot;index&quot;:null}" fill="#4e4e4e" stroke-width="0.5"/><path d="M162.04167,288.33334c0,0.55228 -0.44772,1 -1,1c-0.55228,0 -1,-0.44772 -1,-1c0,-0.55228 0.44772,-1 1,-1c0.55228,0 1,0.44772 1,1z" data-paper-data="{&quot;index&quot;:null}" fill="#4e4e4e" stroke-width="0.5"/><path d="M275.04167,289.33334c0,0.55228 -0.44772,1 -1,1c-0.55228,0 -1,-0.44772 -1,-1c0,-0.55228 0.44772,-1 1,-1c0.55228,0 1,0.44772 1,1z" data-paper-data="{&quot;index&quot;:null}" fill="#4e4e4e" stroke-width="0.5"/><path d="M233.04167,228.33334c0,0.55228 -0.44772,1 -1,1c-0.55228,0 -1,-0.44772 -1,-1c0,-0.55228 0.44772,-1 1,-1c0.55228,0 1,0.44772 1,1z" data-paper-data="{&quot;index&quot;:null}" fill="#4e4e4e" stroke-width="0.5"/><path d="M397.04167,276.33334c0,0.55228 -0.44772,1 -1,1c-0.55228,0 -1,-0.44772 -1,-1c0,-0.55228 0.44772,-1 1,-1c0.55228,0 1,0.44772 1,1z" data-paper-data="{&quot;index&quot;:null}" fill="#4e4e4e" stroke-width="0.5"/><path d="M262.04167,349.33334c0,0.55228 -0.44772,1 -1,1c-0.55228,0 -1,-0.44772 -1,-1c0,-0.55228 0.44772,-1 1,-1c0.55228,0 1,0.44772 1,1z" data-paper-data="{&quot;index&quot;:null}" fill="#4e4e4e" stroke-width="0.5"/><path d="M205.04167,345.33334c0,0.55228 -0.44772,1 -1,1c-0.55228,0 -1,-0.44772 -1,-1c0,-0.55228 0.44772,-1 1,-1c0.55228,0 1,0.44772 1,1z" data-paper-data="{&quot;index&quot;:null}" fill="#4e4e4e" stroke-width="0.5"/><path d="M161.04167,355.33334c0,0.55228 -0.44772,1 -1,1c-0.55228,0 -1,-0.44772 -1,-1c0,-0.55228 0.44772,-1 1,-1c0.55228,0 1,0.44772 1,1z" data-paper-data="{&quot;index&quot;:null}" fill="#4e4e4e" stroke-width="0.5"/><path d="M223.04167,368.33334c0,0.55228 -0.44772,1 -1,1c-0.55228,0 -1,-0.44772 -1,-1c0,-0.55228 0.44772,-1 1,-1c0.55228,0 1,0.44772 1,1z" data-paper-data="{&quot;index&quot;:null}" fill="#4e4e4e" stroke-width="0.5"/><path d="M228.04167,354.33334c0,0.55228 -0.44772,1 -1,1c-0.55228,0 -1,-0.44772 -1,-1c0,-0.55228 0.44772,-1 1,-1c0.55228,0 1,0.44772 1,1z" data-paper-data="{&quot;index&quot;:null}" fill="#4e4e4e" stroke-width="0.5"/><path d="M304.04167,352.33334c0,0.55228 -0.44772,1 -1,1c-0.55228,0 -1,-0.44772 -1,-1c0,-0.55228 0.44772,-1 1,-1c0.55228,0 1,0.44772 1,1z" data-paper-data="{&quot;index&quot;:null}" fill="#4e4e4e" stroke-width="0.5"/><path d="M310.04167,359.33334c0,0.55228 -0.44772,1 -1,1c-0.55228,0 -1,-0.44772 -1,-1c0,-0.55228 0.44772,-1 1,-1c0.55228,0 1,0.44772 1,1z" data-paper-data="{&quot;index&quot;:null}" fill="#4e4e4e" stroke-width="0.5"/><path d="M337.04167,351.33334c0,0.55228 -0.44772,1 -1,1c-0.55228,0 -1,-0.44772 -1,-1c0,-0.55228 0.44772,-1 1,-1c0.55228,0 1,0.44772 1,1z" data-paper-data="{&quot;index&quot;:null}" fill="#4e4e4e" stroke-width="0.5"/><path d="M345.04167,362.33334c0,0.55228 -0.44772,1 -1,1c-0.55228,0 -1,-0.44772 -1,-1c0,-0.55228 0.44772,-1 1,-1c0.55228,0 1,0.44772 1,1z" data-paper-data="{&quot;index&quot;:null}" fill="#4e4e4e" stroke-width="0.5"/><path d="M247.04167,-8.66666c0,0.55228 -0.44772,1 -1,1c-0.55228,0 -1,-0.44772 -1,-1c0,-0.55228 0.44772,-1 1,-1c0.55228,0 1,0.44772 1,1z" data-paper-data="{&quot;index&quot;:null}" fill="#4e4e4e" stroke-width="0.5"/><path d="M171.04167,-6.66666c0,0.55228 -0.44772,1 -1,1c-0.55228,0 -1,-0.44772 -1,-1c0,-0.55228 0.44772,-1 1,-1c0.55228,0 1,0.44772 1,1z" data-paper-data="{&quot;index&quot;:null}" fill="#4e4e4e" stroke-width="0.5"/><path d="M147.04167,38.33334c0,0.55228 -0.44772,1 -1,1c-0.55228,0 -1,-0.44772 -1,-1c0,-0.55228 0.44772,-1 1,-1c0.55228,0 1,0.44772 1,1z" data-paper-data="{&quot;index&quot;:null}" fill="#4e4e4e" stroke-width="0.5"/><path d="M113.04167,-9.66666c0,0.55228 -0.44772,1 -1,1c-0.55228,0 -1,-0.44772 -1,-1c0,-0.55228 0.44772,-1 1,-1c0.55228,0 1,0.44772 1,1z" data-paper-data="{&quot;index&quot;:null}" fill="#4e4e4e" stroke-width="0.5"/><path d="M97.04167,7.33334c0,0.55228 -0.44772,1 -1,1c-0.55228,0 -1,-0.44772 -1,-1c0,-0.55228 0.44772,-1 1,-1c0.55228,0 1,0.44772 1,1z" data-paper-data="{&quot;index&quot;:null}" fill="#4e4e4e" stroke-width="0.5"/><path d="M406.54167,148.16667c0,1.38071 -1.11929,2.5 -2.5,2.5c-1.38071,0 -2.5,-1.11929 -2.5,-2.5c0,-1.38071 1.11929,-2.5 2.5,-2.5c1.38071,0 2.5,1.11929 2.5,2.5z" data-paper-data="{&quot;index&quot;:null}" fill="#222222" stroke-width="0.5"/><path d="M355.04167,145.50001c0,0.55228 -0.44772,1 -1,1c-0.55228,0 -1,-0.44772 -1,-1c0,-0.55228 0.44772,-1 1,-1c0.55228,0 1,0.44772 1,1z" data-paper-data="{&quot;index&quot;:null}" fill="#222222" stroke-width="0.5"/><path d="M263.95834,153.50001c0,0.13807 -0.11193,0.25 -0.25,0.25c-0.13807,0 -0.25,-0.11193 -0.25,-0.25c0,-0.13807 0.11193,-0.25 0.25,-0.25c0.13807,0 0.25,0.11193 0.25,0.25z" data-paper-data="{&quot;index&quot;:null}" fill="#222222" stroke-width="0.5"/><path d="M266.29167,217.83334c0,0.13807 -0.11193,0.25 -0.25,0.25c-0.13807,0 -0.25,-0.11193 -0.25,-0.25c0,-0.13807 0.11193,-0.25 0.25,-0.25c0.13807,0 0.25,0.11193 0.25,0.25z" data-paper-data="{&quot;index&quot;:null}" fill="#222222" stroke-width="0.5"/><path d="M237.29167,285.83334c0,0.13807 -0.11193,0.25 -0.25,0.25c-0.13807,0 -0.25,-0.11193 -0.25,-0.25c0,-0.13807 0.11193,-0.25 0.25,-0.25c0.13807,0 0.25,0.11193 0.25,0.25z" data-paper-data="{&quot;index&quot;:null}" fill="#222222" stroke-width="0.5"/><path d="M267.29167,306.50001c0,0.13807 -0.11193,0.25 -0.25,0.25c-0.13807,0 -0.25,-0.11193 -0.25,-0.25c0,-0.13807 0.11193,-0.25 0.25,-0.25c0.13807,0 0.25,0.11193 0.25,0.25z" data-paper-data="{&quot;index&quot;:null}" fill="#222222" stroke-width="0.5"/><path d="M249.625,46.50001c0,0.13807 -0.11193,0.25 -0.25,0.25c-0.13807,0 -0.25,-0.11193 -0.25,-0.25c0,-0.13807 0.11193,-0.25 0.25,-0.25c0.13807,0 0.25,0.11193 0.25,0.25z" data-paper-data="{&quot;index&quot;:null}" fill="#222222" stroke-width="0.5"/><path d="M390.29167,20.16667c0,0.13807 -0.11193,0.25 -0.25,0.25c-0.13807,0 -0.25,-0.11193 -0.25,-0.25c0,-0.13807 0.11193,-0.25 0.25,-0.25c0.13807,0 0.25,0.11193 0.25,0.25z" data-paper-data="{&quot;index&quot;:null}" fill="#222222" stroke-width="0.5"/><path d="M372.29167,24.83334c0,0.13807 -0.11193,0.25 -0.25,0.25c-0.13807,0 -0.25,-0.11193 -0.25,-0.25c0,-0.13807 0.11193,-0.25 0.25,-0.25c0.13807,0 0.25,0.11193 0.25,0.25z" data-paper-data="{&quot;index&quot;:null}" fill="#222222" stroke-width="0.5"/><path d="M379.95834,45.16667c0,0.13807 -0.11193,0.25 -0.25,0.25c-0.13807,0 -0.25,-0.11193 -0.25,-0.25c0,-0.13807 0.11193,-0.25 0.25,-0.25c0.13807,0 0.25,0.11193 0.25,0.25z" data-paper-data="{&quot;index&quot;:null}" fill="#222222" stroke-width="0.5"/><path d="M403.29167,61.16667c0,0.13807 -0.11193,0.25 -0.25,0.25c-0.13807,0 -0.25,-0.11193 -0.25,-0.25c0,-0.13807 0.11193,-0.25 0.25,-0.25c0.13807,0 0.25,0.11193 0.25,0.25z" data-paper-data="{&quot;index&quot;:null}" fill="#222222" stroke-width="0.5"/><path d="M387.625,66.83334c0,0.13807 -0.11193,0.25 -0.25,0.25c-0.13807,0 -0.25,-0.11193 -0.25,-0.25c0,-0.13807 0.11193,-0.25 0.25,-0.25c0.13807,0 0.25,0.11193 0.25,0.25z" data-paper-data="{&quot;index&quot;:null}" fill="#222222" stroke-width="0.5"/><path d="M185.29167,86.50001c0,0.13807 -0.11193,0.25 -0.25,0.25c-0.13807,0 -0.25,-0.11193 -0.25,-0.25c0,-0.13807 0.11193,-0.25 0.25,-0.25c0.13807,0 0.25,0.11193 0.25,0.25z" data-paper-data="{&quot;index&quot;:null}" fill="#222222" stroke-width="0.5"/><path d="M159.29167,56.16667c0,0.13807 -0.11193,0.25 -0.25,0.25c-0.13807,0 -0.25,-0.11193 -0.25,-0.25c0,-0.13807 0.11193,-0.25 0.25,-0.25c0.13807,0 0.25,0.11193 0.25,0.25z" data-paper-data="{&quot;index&quot;:null}" fill="#222222" stroke-width="0.5"/><path d="M159.29167,34.83334c0,0.13807 -0.11193,0.25 -0.25,0.25c-0.13807,0 -0.25,-0.11193 -0.25,-0.25c0,-0.13807 0.11193,-0.25 0.25,-0.25c0.13807,0 0.25,0.11193 0.25,0.25z" data-paper-data="{&quot;index&quot;:null}" fill="#222222" stroke-width="0.5"/><path d="M129.625,9.83334c0,0.13807 -0.11193,0.25 -0.25,0.25c-0.13807,0 -0.25,-0.11193 -0.25,-0.25c0,-0.13807 0.11193,-0.25 0.25,-0.25c0.13807,0 0.25,0.11193 0.25,0.25z" data-paper-data="{&quot;index&quot;:null}" fill="#222222" stroke-width="0.5"/><path d="M100.29167,32.83334c0,0.13807 -0.11193,0.25 -0.25,0.25c-0.13807,0 -0.25,-0.11193 -0.25,-0.25c0,-0.13807 0.11193,-0.25 0.25,-0.25c0.13807,0 0.25,0.11193 0.25,0.25z" data-paper-data="{&quot;index&quot;:null}" fill="#222222" stroke-width="0.5"/><path d="M86.29167,85.50001c0,0.13807 -0.11193,0.25 -0.25,0.25c-0.13807,0 -0.25,-0.11193 -0.25,-0.25c0,-0.13807 0.11193,-0.25 0.25,-0.25c0.13807,0 0.25,0.11193 0.25,0.25z" data-paper-data="{&quot;index&quot;:null}" fill="#222222" stroke-width="0.5"/><path d="M122.625,123.50001c0,0.13807 -0.11193,0.25 -0.25,0.25c-0.13807,0 -0.25,-0.11193 -0.25,-0.25c0,-0.13807 0.11193,-0.25 0.25,-0.25c0.13807,0 0.25,0.11193 0.25,0.25z" data-paper-data="{&quot;index&quot;:null}" fill="#222222" stroke-width="0.5"/><path d="M97.29167,145.16667c0,0.13807 -0.11193,0.25 -0.25,0.25c-0.13807,0 -0.25,-0.11193 -0.25,-0.25c0,-0.13807 0.11193,-0.25 0.25,-0.25c0.13807,0 0.25,0.11193 0.25,0.25z" data-paper-data="{&quot;index&quot;:null}" fill="#222222" stroke-width="0.5"/><path d="M173.29167,175.50001c0,0.13807 -0.11193,0.25 -0.25,0.25c-0.13807,0 -0.25,-0.11193 -0.25,-0.25c0,-0.13807 0.11193,-0.25 0.25,-0.25c0.13807,0 0.25,0.11193 0.25,0.25z" data-paper-data="{&quot;index&quot;:null}" fill="#222222" stroke-width="0.5"/><path d="M262.29167,169.16667c0,0.13807 -0.11193,0.25 -0.25,0.25c-0.13807,0 -0.25,-0.11193 -0.25,-0.25c0,-0.13807 0.11193,-0.25 0.25,-0.25c0.13807,0 0.25,0.11193 0.25,0.25z" data-paper-data="{&quot;index&quot;:null}" fill="#222222" stroke-width="0.5"/><path d="M326.29167,175.50001c0,0.13807 -0.11193,0.25 -0.25,0.25c-0.13807,0 -0.25,-0.11193 -0.25,-0.25c0,-0.13807 0.11193,-0.25 0.25,-0.25c0.13807,0 0.25,0.11193 0.25,0.25z" data-paper-data="{&quot;index&quot;:null}" fill="#222222" stroke-width="0.5"/><path d="M275.95834,209.83334c0,0.13807 -0.11193,0.25 -0.25,0.25c-0.13807,0 -0.25,-0.11193 -0.25,-0.25c0,-0.13807 0.11193,-0.25 0.25,-0.25c0.13807,0 0.25,0.11193 0.25,0.25z" data-paper-data="{&quot;index&quot;:null}" fill="#222222" stroke-width="0.5"/><path d="M236.95834,241.83334c0,0.13807 -0.11193,0.25 -0.25,0.25c-0.13807,0 -0.25,-0.11193 -0.25,-0.25c0,-0.13807 0.11193,-0.25 0.25,-0.25c0.13807,0 0.25,0.11193 0.25,0.25z" data-paper-data="{&quot;index&quot;:null}" fill="#222222" stroke-width="0.5"/><path d="M163.95834,270.16667c0,0.13807 -0.11193,0.25 -0.25,0.25c-0.13807,0 -0.25,-0.11193 -0.25,-0.25c0,-0.13807 0.11193,-0.25 0.25,-0.25c0.13807,0 0.25,0.11193 0.25,0.25z" data-paper-data="{&quot;index&quot;:null}" fill="#222222" stroke-width="0.5"/><path d="M266.625,313.83334c0,0.13807 -0.11193,0.25 -0.25,0.25c-0.13807,0 -0.25,-0.11193 -0.25,-0.25c0,-0.13807 0.11193,-0.25 0.25,-0.25c0.13807,0 0.25,0.11193 0.25,0.25z" data-paper-data="{&quot;index&quot;:null}" fill="#222222" stroke-width="0.5"/><path d="M245.95834,334.50001c0,0.13807 -0.11193,0.25 -0.25,0.25c-0.13807,0 -0.25,-0.11193 -0.25,-0.25c0,-0.13807 0.11193,-0.25 0.25,-0.25c0.13807,0 0.25,0.11193 0.25,0.25z" data-paper-data="{&quot;index&quot;:null}" fill="#222222" stroke-width="0.5"/><path d="M365.625,365.16667c0,0.13807 -0.11193,0.25 -0.25,0.25c-0.13807,0 -0.25,-0.11193 -0.25,-0.25c0,-0.13807 0.11193,-0.25 0.25,-0.25c0.13807,0 0.25,0.11193 0.25,0.25z" data-paper-data="{&quot;index&quot;:null}" fill="#222222" stroke-width="0.5"/><path d="M394.95834,356.16667c0,0.13807 -0.11193,0.25 -0.25,0.25c-0.13807,0 -0.25,-0.11193 -0.25,-0.25c0,-0.13807 0.11193,-0.25 0.25,-0.25c0.13807,0 0.25,0.11193 0.25,0.25z" data-paper-data="{&quot;index&quot;:null}" fill="#222222" stroke-width="0.5"/><path d="M404.95834,337.16667c0,0.13807 -0.11193,0.25 -0.25,0.25c-0.13807,0 -0.25,-0.11193 -0.25,-0.25c0,-0.13807 0.11193,-0.25 0.25,-0.25c0.13807,0 0.25,0.11193 0.25,0.25z" data-paper-data="{&quot;index&quot;:null}" fill="#222222" stroke-width="0.5"/><path d="M397.29167,317.16667c0,0.13807 -0.11193,0.25 -0.25,0.25c-0.13807,0 -0.25,-0.11193 -0.25,-0.25c0,-0.13807 0.11193,-0.25 0.25,-0.25c0.13807,0 0.25,0.11193 0.25,0.25z" data-paper-data="{&quot;index&quot;:null}" fill="#222222" stroke-width="0.5"/><path d="M408.29167,302.16667c0,0.13807 -0.11193,0.25 -0.25,0.25c-0.13807,0 -0.25,-0.11193 -0.25,-0.25c0,-0.13807 0.11193,-0.25 0.25,-0.25c0.13807,0 0.25,0.11193 0.25,0.25z" data-paper-data="{&quot;index&quot;:null}" fill="#222222" stroke-width="0.5"/><path d="M413.95834,261.50001c0,0.13807 -0.11193,0.25 -0.25,0.25c-0.13807,0 -0.25,-0.11193 -0.25,-0.25c0,-0.13807 0.11193,-0.25 0.25,-0.25c0.13807,0 0.25,0.11193 0.25,0.25z" data-paper-data="{&quot;index&quot;:null}" fill="#222222" stroke-width="0.5"/><path d="M399.625,236.83334c0,0.13807 -0.11193,0.25 -0.25,0.25c-0.13807,0 -0.25,-0.11193 -0.25,-0.25c0,-0.13807 0.11193,-0.25 0.25,-0.25c0.13807,0 0.25,0.11193 0.25,0.25z" data-paper-data="{&quot;index&quot;:null}" fill="#222222" stroke-width="0.5"/><path d="M407.29167,212.50001c0,0.13807 -0.11193,0.25 -0.25,0.25c-0.13807,0 -0.25,-0.11193 -0.25,-0.25c0,-0.13807 0.11193,-0.25 0.25,-0.25c0.13807,0 0.25,0.11193 0.25,0.25z" data-paper-data="{&quot;index&quot;:null}" fill="#222222" stroke-width="0.5"/><path d="M395.625,184.16667c0,0.13807 -0.11193,0.25 -0.25,0.25c-0.13807,0 -0.25,-0.11193 -0.25,-0.25c0,-0.13807 0.11193,-0.25 0.25,-0.25c0.13807,0 0.25,0.11193 0.25,0.25z" data-paper-data="{&quot;index&quot;:null}" fill="#222222" stroke-width="0.5"/><path d="M350.625,236.16667c0,0.13807 -0.11193,0.25 -0.25,0.25c-0.13807,0 -0.25,-0.11193 -0.25,-0.25c0,-0.13807 0.11193,-0.25 0.25,-0.25c0.13807,0 0.25,0.11193 0.25,0.25z" data-paper-data="{&quot;index&quot;:null}" fill="#222222" stroke-width="0.5"/><path d="M114.95834,334.50001c0,0.13807 -0.11193,0.25 -0.25,0.25c-0.13807,0 -0.25,-0.11193 -0.25,-0.25c0,-0.13807 0.11193,-0.25 0.25,-0.25c0.13807,0 0.25,0.11193 0.25,0.25z" data-paper-data="{&quot;index&quot;:null}" fill="#222222" stroke-width="0.5"/><path d="M114.29167,347.50001c0,0.13807 -0.11193,0.25 -0.25,0.25c-0.13807,0 -0.25,-0.11193 -0.25,-0.25c0,-0.13807 0.11193,-0.25 0.25,-0.25c0.13807,0 0.25,0.11193 0.25,0.25z" data-paper-data="{&quot;index&quot;:null}" fill="#222222" stroke-width="0.5"/><path d="M95.625,340.50001c0,0.13807 -0.11193,0.25 -0.25,0.25c-0.13807,0 -0.25,-0.11193 -0.25,-0.25c0,-0.13807 0.11193,-0.25 0.25,-0.25c0.13807,0 0.25,0.11193 0.25,0.25z" data-paper-data="{&quot;index&quot;:null}" fill="#222222" stroke-width="0.5"/><path d="M95.95834,303.83334c0,0.13807 -0.11193,0.25 -0.25,0.25c-0.13807,0 -0.25,-0.11193 -0.25,-0.25c0,-0.13807 0.11193,-0.25 0.25,-0.25c0.13807,0 0.25,0.11193 0.25,0.25z" data-paper-data="{&quot;index&quot;:null}" fill="#222222" stroke-width="0.5"/><path d="M94.95834,265.16667c0,0.13807 -0.11193,0.25 -0.25,0.25c-0.13807,0 -0.25,-0.11193 -0.25,-0.25c0,-0.13807 0.11193,-0.25 0.25,-0.25c0.13807,0 0.25,0.11193 0.25,0.25z" data-paper-data="{&quot;index&quot;:null}" fill="#222222" stroke-width="0.5"/><path d="M84.95834,220.50001c0,0.13807 -0.11193,0.25 -0.25,0.25c-0.13807,0 -0.25,-0.11193 -0.25,-0.25c0,-0.13807 0.11193,-0.25 0.25,-0.25c0.13807,0 0.25,0.11193 0.25,0.25z" data-paper-data="{&quot;index&quot;:null}" fill="#222222" stroke-width="0.5"/><path d="M258.20834,280.50001c0,0.27614 -0.22386,0.5 -0.5,0.5c-0.27614,0 -0.5,-0.22386 -0.5,-0.5c0,-0.27614 0.22386,-0.5 0.5,-0.5c0.27614,0 0.5,0.22386 0.5,0.5z" data-paper-data="{&quot;index&quot;:null}" fill="#222222" stroke-width="0.5"/><path d="M245.54167,322.16667c0,0.27614 -0.22386,0.5 -0.5,0.5c-0.27614,0 -0.5,-0.22386 -0.5,-0.5c0,-0.27614 0.22386,-0.5 0.5,-0.5c0.27614,0 0.5,0.22386 0.5,0.5z" data-paper-data="{&quot;index&quot;:null}" fill="#222222" stroke-width="0.5"/><path d="M203.54167,335.83334c0,0.27614 -0.22386,0.5 -0.5,0.5c-0.27614,0 -0.5,-0.22386 -0.5,-0.5c0,-0.27614 0.22386,-0.5 0.5,-0.5c0.27614,0 0.5,0.22386 0.5,0.5z" data-paper-data="{&quot;index&quot;:null}" fill="#222222" stroke-width="0.5"/><path d="M167.875,330.83334c0,0.27614 -0.22386,0.5 -0.5,0.5c-0.27614,0 -0.5,-0.22386 -0.5,-0.5c0,-0.27614 0.22386,-0.5 0.5,-0.5c0.27614,0 0.5,0.22386 0.5,0.5z" data-paper-data="{&quot;index&quot;:null}" fill="#222222" stroke-width="0.5"/><path d="M180.54167,362.16667c0,0.27614 -0.22386,0.5 -0.5,0.5c-0.27614,0 -0.5,-0.22386 -0.5,-0.5c0,-0.27614 0.22386,-0.5 0.5,-0.5c0.27614,0 0.5,0.22386 0.5,0.5z" data-paper-data="{&quot;index&quot;:null}" fill="#222222" stroke-width="0.5"/><path d="M200.20834,377.50001c0,0.27614 -0.22386,0.5 -0.5,0.5c-0.27614,0 -0.5,-0.22386 -0.5,-0.5c0,-0.27614 0.22386,-0.5 0.5,-0.5c0.27614,0 0.5,0.22386 0.5,0.5z" data-paper-data="{&quot;index&quot;:null}" fill="#222222" stroke-width="0.5"/><path d="M269.54167,372.83334c0,0.27614 -0.22386,0.5 -0.5,0.5c-0.27614,0 -0.5,-0.22386 -0.5,-0.5c0,-0.27614 0.22386,-0.5 0.5,-0.5c0.27614,0 0.5,0.22386 0.5,0.5z" data-paper-data="{&quot;index&quot;:null}" fill="#222222" stroke-width="0.5"/><path d="M273.20834,362.16667c0,0.27614 -0.22386,0.5 -0.5,0.5c-0.27614,0 -0.5,-0.22386 -0.5,-0.5c0,-0.27614 0.22386,-0.5 0.5,-0.5c0.27614,0 0.5,0.22386 0.5,0.5z" data-paper-data="{&quot;index&quot;:null}" fill="#222222" stroke-width="0.5"/><path d="M314.875,374.83334c0,0.27614 -0.22386,0.5 -0.5,0.5c-0.27614,0 -0.5,-0.22386 -0.5,-0.5c0,-0.27614 0.22386,-0.5 0.5,-0.5c0.27614,0 0.5,0.22386 0.5,0.5z" data-paper-data="{&quot;index&quot;:null}" fill="#222222" stroke-width="0.5"/><path d="M335.875,362.16667c0,0.27614 -0.22386,0.5 -0.5,0.5c-0.27614,0 -0.5,-0.22386 -0.5,-0.5c0,-0.27614 0.22386,-0.5 0.5,-0.5c0.27614,0 0.5,0.22386 0.5,0.5z" data-paper-data="{&quot;index&quot;:null}" fill="#222222" stroke-width="0.5"/><path d="M363.875,356.16667c0,0.27614 -0.22386,0.5 -0.5,0.5c-0.27614,0 -0.5,-0.22386 -0.5,-0.5c0,-0.27614 0.22386,-0.5 0.5,-0.5c0.27614,0 0.5,0.22386 0.5,0.5z" data-paper-data="{&quot;index&quot;:null}" fill="#222222" stroke-width="0.5"/><path d="M362.54167,372.50001c0,0.27614 -0.22386,0.5 -0.5,0.5c-0.27614,0 -0.5,-0.22386 -0.5,-0.5c0,-0.27614 0.22386,-0.5 0.5,-0.5c0.27614,0 0.5,0.22386 0.5,0.5z" data-paper-data="{&quot;index&quot;:null}" fill="#222222" stroke-width="0.5"/><path d="M386.875,369.50001c0,0.27614 -0.22386,0.5 -0.5,0.5c-0.27614,0 -0.5,-0.22386 -0.5,-0.5c0,-0.27614 0.22386,-0.5 0.5,-0.5c0.27614,0 0.5,0.22386 0.5,0.5z" data-paper-data="{&quot;index&quot;:null}" fill="#222222" stroke-width="0.5"/><path d="M370.20834,344.83334c0,0.27614 -0.22386,0.5 -0.5,0.5c-0.27614,0 -0.5,-0.22386 -0.5,-0.5c0,-0.27614 0.22386,-0.5 0.5,-0.5c0.27614,0 0.5,0.22386 0.5,0.5z" data-paper-data="{&quot;index&quot;:null}" fill="#222222" stroke-width="0.5"/><path d="M140.875,365.50001c0,0.27614 -0.22386,0.5 -0.5,0.5c-0.27614,0 -0.5,-0.22386 -0.5,-0.5c0,-0.27614 0.22386,-0.5 0.5,-0.5c0.27614,0 0.5,0.22386 0.5,0.5z" data-paper-data="{&quot;index&quot;:null}" fill="#222222" stroke-width="0.5"/><path d="M140.875,351.83334c0,0.27614 -0.22386,0.5 -0.5,0.5c-0.27614,0 -0.5,-0.22386 -0.5,-0.5c0,-0.27614 0.22386,-0.5 0.5,-0.5c0.27614,0 0.5,0.22386 0.5,0.5z" data-paper-data="{&quot;index&quot;:null}" fill="#222222" stroke-width="0.5"/><path d="M138.20834,345.83334c0,0.27614 -0.22386,0.5 -0.5,0.5c-0.27614,0 -0.5,-0.22386 -0.5,-0.5c0,-0.27614 0.22386,-0.5 0.5,-0.5c0.27614,0 0.5,0.22386 0.5,0.5z" data-paper-data="{&quot;index&quot;:null}" fill="#222222" stroke-width="0.5"/><path d="M118.20834,362.50001c0,0.27614 -0.22386,0.5 -0.5,0.5c-0.27614,0 -0.5,-0.22386 -0.5,-0.5c0,-0.27614 0.22386,-0.5 0.5,-0.5c0.27614,0 0.5,0.22386 0.5,0.5z" data-paper-data="{&quot;index&quot;:null}" fill="#222222" stroke-width="0.5"/><path d="M108.54167,278.50001c0,0.27614 -0.22386,0.5 -0.5,0.5c-0.27614,0 -0.5,-0.22386 -0.5,-0.5c0,-0.27614 0.22386,-0.5 0.5,-0.5c0.27614,0 0.5,0.22386 0.5,0.5z" data-paper-data="{&quot;index&quot;:null}" fill="#222222" stroke-width="0.5"/><path d="M124.875,282.83334c0,0.27614 -0.22386,0.5 -0.5,0.5c-0.27614,0 -0.5,-0.22386 -0.5,-0.5c0,-0.27614 0.22386,-0.5 0.5,-0.5c0.27614,0 0.5,0.22386 0.5,0.5z" data-paper-data="{&quot;index&quot;:null}" fill="#222222" stroke-width="0.5"/><path d="M199.20834,294.50001c0,0.27614 -0.22386,0.5 -0.5,0.5c-0.27614,0 -0.5,-0.22386 -0.5,-0.5c0,-0.27614 0.22386,-0.5 0.5,-0.5c0.27614,0 0.5,0.22386 0.5,0.5z" data-paper-data="{&quot;index&quot;:null}" fill="#222222" stroke-width="0.5"/><path d="M249.875,219.83334c0,0.27614 -0.22386,0.5 -0.5,0.5c-0.27614,0 -0.5,-0.22386 -0.5,-0.5c0,-0.27614 0.22386,-0.5 0.5,-0.5c0.27614,0 0.5,0.22386 0.5,0.5z" data-paper-data="{&quot;index&quot;:null}" fill="#222222" stroke-width="0.5"/><path d="M326.20834,177.83334c0,0.27614 -0.22386,0.5 -0.5,0.5c-0.27614,0 -0.5,-0.22386 -0.5,-0.5c0,-0.27614 0.22386,-0.5 0.5,-0.5c0.27614,0 0.5,0.22386 0.5,0.5z" data-paper-data="{&quot;index&quot;:null}" fill="#222222" stroke-width="0.5"/><path d="M267.875,167.83334c0,0.27614 -0.22386,0.5 -0.5,0.5c-0.27614,0 -0.5,-0.22386 -0.5,-0.5c0,-0.27614 0.22386,-0.5 0.5,-0.5c0.27614,0 0.5,0.22386 0.5,0.5z" data-paper-data="{&quot;index&quot;:null}" fill="#222222" stroke-width="0.5"/><path d="M283.875,111.50001c0,0.27614 -0.22386,0.5 -0.5,0.5c-0.27614,0 -0.5,-0.22386 -0.5,-0.5c0,-0.27614 0.22386,-0.5 0.5,-0.5c0.27614,0 0.5,0.22386 0.5,0.5z" data-paper-data="{&quot;index&quot;:null}" fill="#222222" stroke-width="0.5"/><path d="M254.875,104.16667c0,0.27614 -0.22386,0.5 -0.5,0.5c-0.27614,0 -0.5,-0.22386 -0.5,-0.5c0,-0.27614 0.22386,-0.5 0.5,-0.5c0.27614,0 0.5,0.22386 0.5,0.5z" data-paper-data="{&quot;index&quot;:null}" fill="#222222" stroke-width="0.5"/><path d="M238.875,72.16667c0,0.27614 -0.22386,0.5 -0.5,0.5c-0.27614,0 -0.5,-0.22386 -0.5,-0.5c0,-0.27614 0.22386,-0.5 0.5,-0.5c0.27614,0 0.5,0.22386 0.5,0.5z" data-paper-data="{&quot;index&quot;:null}" fill="#222222" stroke-width="0.5"/><path d="M293.20834,130.50001c0,0.27614 -0.22386,0.5 -0.5,0.5c-0.27614,0 -0.5,-0.22386 -0.5,-0.5c0,-0.27614 0.22386,-0.5 0.5,-0.5c0.27614,0 0.5,0.22386 0.5,0.5z" data-paper-data="{&quot;index&quot;:null}" fill="#222222" stroke-width="0.5"/><path d="M281.20834,74.83334c0,0.27614 -0.22386,0.5 -0.5,0.5c-0.27614,0 -0.5,-0.22386 -0.5,-0.5c0,-0.27614 0.22386,-0.5 0.5,-0.5c0.27614,0 0.5,0.22386 0.5,0.5z" data-paper-data="{&quot;index&quot;:null}" fill="#222222" stroke-width="0.5"/><path d="M245.54167,47.83334c0,0.27614 -0.22386,0.5 -0.5,0.5c-0.27614,0 -0.5,-0.22386 -0.5,-0.5c0,-0.27614 0.22386,-0.5 0.5,-0.5c0.27614,0 0.5,0.22386 0.5,0.5z" data-paper-data="{&quot;index&quot;:null}" fill="#222222" stroke-width="0.5"/><path d="M281.875,24.16667c0,0.27614 -0.22386,0.5 -0.5,0.5c-0.27614,0 -0.5,-0.22386 -0.5,-0.5c0,-0.27614 0.22386,-0.5 0.5,-0.5c0.27614,0 0.5,0.22386 0.5,0.5z" data-paper-data="{&quot;index&quot;:null}" fill="#222222" stroke-width="0.5"/><path d="M324.875,26.83334c0,0.27614 -0.22386,0.5 -0.5,0.5c-0.27614,0 -0.5,-0.22386 -0.5,-0.5c0,-0.27614 0.22386,-0.5 0.5,-0.5c0.27614,0 0.5,0.22386 0.5,0.5z" data-paper-data="{&quot;index&quot;:null}" fill="#222222" stroke-width="0.5"/><path d="M319.54167,0.83334c0,0.27614 -0.22386,0.5 -0.5,0.5c-0.27614,0 -0.5,-0.22386 -0.5,-0.5c0,-0.27614 0.22386,-0.5 0.5,-0.5c0.27614,0 0.5,0.22386 0.5,0.5z" data-paper-data="{&quot;index&quot;:null}" fill="#222222" stroke-width="0.5"/><path d="M272.20834,-6.16666c0,0.27614 -0.22386,0.5 -0.5,0.5c-0.27614,0 -0.5,-0.22386 -0.5,-0.5c0,-0.27614 0.22386,-0.5 0.5,-0.5c0.27614,0 0.5,0.22386 0.5,0.5z" data-paper-data="{&quot;index&quot;:null}" fill="#222222" stroke-width="0.5"/><path d="M327.20834,-14.83333c0,0.27614 -0.22386,0.5 -0.5,0.5c-0.27614,0 -0.5,-0.22386 -0.5,-0.5c0,-0.27614 0.22386,-0.5 0.5,-0.5c0.27614,0 0.5,0.22386 0.5,0.5z" data-paper-data="{&quot;index&quot;:null}" fill="#222222" stroke-width="0.5"/><path d="M363.875,-1.83333c0,0.27614 -0.22386,0.5 -0.5,0.5c-0.27614,0 -0.5,-0.22386 -0.5,-0.5c0,-0.27614 0.22386,-0.5 0.5,-0.5c0.27614,0 0.5,0.22386 0.5,0.5z" data-paper-data="{&quot;index&quot;:null}" fill="#222222" stroke-width="0.5"/><path d="M385.20834,28.83334c0,0.27614 -0.22386,0.5 -0.5,0.5c-0.27614,0 -0.5,-0.22386 -0.5,-0.5c0,-0.27614 0.22386,-0.5 0.5,-0.5c0.27614,0 0.5,0.22386 0.5,0.5z" data-paper-data="{&quot;index&quot;:null}" fill="#222222" stroke-width="0.5"/><path d="M367.875,34.83334c0,0.27614 -0.22386,0.5 -0.5,0.5c-0.27614,0 -0.5,-0.22386 -0.5,-0.5c0,-0.27614 0.22386,-0.5 0.5,-0.5c0.27614,0 0.5,0.22386 0.5,0.5z" data-paper-data="{&quot;index&quot;:null}" fill="#222222" stroke-width="0.5"/><path d="M369.875,55.50001c0,0.27614 -0.22386,0.5 -0.5,0.5c-0.27614,0 -0.5,-0.22386 -0.5,-0.5c0,-0.27614 0.22386,-0.5 0.5,-0.5c0.27614,0 0.5,0.22386 0.5,0.5z" data-paper-data="{&quot;index&quot;:null}" fill="#222222" stroke-width="0.5"/><path d="M391.875,55.16667c0,0.27614 -0.22386,0.5 -0.5,0.5c-0.27614,0 -0.5,-0.22386 -0.5,-0.5c0,-0.27614 0.22386,-0.5 0.5,-0.5c0.27614,0 0.5,0.22386 0.5,0.5z" data-paper-data="{&quot;index&quot;:null}" fill="#222222" stroke-width="0.5"/><path d="M393.54167,81.16667c0,0.27614 -0.22386,0.5 -0.5,0.5c-0.27614,0 -0.5,-0.22386 -0.5,-0.5c0,-0.27614 0.22386,-0.5 0.5,-0.5c0.27614,0 0.5,0.22386 0.5,0.5z" data-paper-data="{&quot;index&quot;:null}" fill="#222222" stroke-width="0.5"/><path d="M392.875,113.50001c0,0.27614 -0.22386,0.5 -0.5,0.5c-0.27614,0 -0.5,-0.22386 -0.5,-0.5c0,-0.27614 0.22386,-0.5 0.5,-0.5c0.27614,0 0.5,0.22386 0.5,0.5z" data-paper-data="{&quot;index&quot;:null}" fill="#222222" stroke-width="0.5"/><path d="M391.875,137.83334c0,0.27614 -0.22386,0.5 -0.5,0.5c-0.27614,0 -0.5,-0.22386 -0.5,-0.5c0,-0.27614 0.22386,-0.5 0.5,-0.5c0.27614,0 0.5,0.22386 0.5,0.5z" data-paper-data="{&quot;index&quot;:null}" fill="#222222" stroke-width="0.5"/><path d="M370.20834,153.16667c0,0.27614 -0.22386,0.5 -0.5,0.5c-0.27614,0 -0.5,-0.22386 -0.5,-0.5c0,-0.27614 0.22386,-0.5 0.5,-0.5c0.27614,0 0.5,0.22386 0.5,0.5z" data-paper-data="{&quot;index&quot;:null}" fill="#222222" stroke-width="0.5"/><path d="M190.375,86.16667c0,0.55228 -0.44772,1 -1,1c-0.55228,0 -1,-0.44772 -1,-1c0,-0.55228 0.44772,-1 1,-1c0.55228,0 1,0.44772 1,1z" data-paper-data="{&quot;index&quot;:null}" fill="#222222" stroke-width="0.5"/><path d="M193.04167,149.50001c0,0.55228 -0.44772,1 -1,1c-0.55228,0 -1,-0.44772 -1,-1c0,-0.55228 0.44772,-1 1,-1c0.55228,0 1,0.44772 1,1z" data-paper-data="{&quot;index&quot;:null}" fill="#222222" stroke-width="0.5"/><path d="M122.70834,133.50001c0,0.55228 -0.44772,1 -1,1c-0.55228,0 -1,-0.44772 -1,-1c0,-0.55228 0.44772,-1 1,-1c0.55228,0 1,0.44772 1,1z" data-paper-data="{&quot;index&quot;:null}" fill="#222222" stroke-width="0.5"/><path d="M102.70834,97.50001c0,0.55228 -0.44772,1 -1,1c-0.55228,0 -1,-0.44772 -1,-1c0,-0.55228 0.44772,-1 1,-1c0.55228,0 1,0.44772 1,1z" data-paper-data="{&quot;index&quot;:null}" fill="#222222" stroke-width="0.5"/><path d="M88.70834,48.83334c0,0.55228 -0.44772,1 -1,1c-0.55228,0 -1,-0.44772 -1,-1c0,-0.55228 0.44772,-1 1,-1c0.55228,0 1,0.44772 1,1z" data-paper-data="{&quot;index&quot;:null}" fill="#222222" stroke-width="0.5"/><path d="M114.04167,19.83334c0,0.55228 -0.44772,1 -1,1c-0.55228,0 -1,-0.44772 -1,-1c0,-0.55228 0.44772,-1 1,-1c0.55228,0 1,0.44772 1,1z" data-paper-data="{&quot;index&quot;:null}" fill="#222222" stroke-width="0.5"/><path d="M256.70834,151.50001c0,0.55228 -0.44772,1 -1,1c-0.55228,0 -1,-0.44772 -1,-1c0,-0.55228 0.44772,-1 1,-1c0.55228,0 1,0.44772 1,1z" data-paper-data="{&quot;index&quot;:null}" fill="#222222" stroke-width="0.5"/><path d="M306.04167,169.16667c0,0.55228 -0.44772,1 -1,1c-0.55228,0 -1,-0.44772 -1,-1c0,-0.55228 0.44772,-1 1,-1c0.55228,0 1,0.44772 1,1z" data-paper-data="{&quot;index&quot;:null}" fill="#222222" stroke-width="0.5"/><path d="M251.375,238.50001c0,0.55228 -0.44772,1 -1,1c-0.55228,0 -1,-0.44772 -1,-1c0,-0.55228 0.44772,-1 1,-1c0.55228,0 1,0.44772 1,1z" data-paper-data="{&quot;index&quot;:null}" fill="#222222" stroke-width="0.5"/><path d="M348.04167,236.16667c0,0.55228 -0.44772,1 -1,1c-0.55228,0 -1,-0.44772 -1,-1c0,-0.55228 0.44772,-1 1,-1c0.55228,0 1,0.44772 1,1z" data-paper-data="{&quot;index&quot;:null}" fill="#222222" stroke-width="0.5"/><path d="M188.04167,204.16667c0,0.55228 -0.44772,1 -1,1c-0.55228,0 -1,-0.44772 -1,-1c0,-0.55228 0.44772,-1 1,-1c0.55228,0 1,0.44772 1,1z" data-paper-data="{&quot;index&quot;:null}" fill="#717171" stroke-width="0.5"/><path d="M168.375,247.16667c0,0.55228 -0.44772,1 -1,1c-0.55228,0 -1,-0.44772 -1,-1c0,-0.55228 0.44772,-1 1,-1c0.55228,0 1,0.44772 1,1z" data-paper-data="{&quot;index&quot;:null}" fill="#717171" stroke-width="0.5"/><path d="M305.375,302.16667c0,0.55228 -0.44772,1 -1,1c-0.55228,0 -1,-0.44772 -1,-1c0,-0.55228 0.44772,-1 1,-1c0.55228,0 1,0.44772 1,1z" data-paper-data="{&quot;index&quot;:null}" fill="#717171" stroke-width="0.5"/><path d="M266.04167,323.16667c0,0.55228 -0.44772,1 -1,1c-0.55228,0 -1,-0.44772 -1,-1c0,-0.55228 0.44772,-1 1,-1c0.55228,0 1,0.44772 1,1z" data-paper-data="{&quot;index&quot;:null}" fill="#717171" stroke-width="0.5"/><path d="M362.625,287.83334c0,0.13807 -0.11193,0.25 -0.25,0.25c-0.13807,0 -0.25,-0.11193 -0.25,-0.25c0,-0.13807 0.11193,-0.25 0.25,-0.25c0.13807,0 0.25,0.11193 0.25,0.25z" data-paper-data="{&quot;index&quot;:null}" fill="#717171" stroke-width="0.5"/><path d="M335.95834,270.16667c0,0.13807 -0.11193,0.25 -0.25,0.25c-0.13807,0 -0.25,-0.11193 -0.25,-0.25c0,-0.13807 0.11193,-0.25 0.25,-0.25c0.13807,0 0.25,0.11193 0.25,0.25z" data-paper-data="{&quot;index&quot;:null}" fill="#717171" stroke-width="0.5"/><path d="M198.29167,327.83334c0,0.13807 -0.11193,0.25 -0.25,0.25c-0.13807,0 -0.25,-0.11193 -0.25,-0.25c0,-0.13807 0.11193,-0.25 0.25,-0.25c0.13807,0 0.25,0.11193 0.25,0.25z" data-paper-data="{&quot;index&quot;:null}" fill="#717171" stroke-width="0.5"/><path d="M182.95834,344.83334c0,0.13807 -0.11193,0.25 -0.25,0.25c-0.13807,0 -0.25,-0.11193 -0.25,-0.25c0,-0.13807 0.11193,-0.25 0.25,-0.25c0.13807,0 0.25,0.11193 0.25,0.25z" data-paper-data="{&quot;index&quot;:null}" fill="#717171" stroke-width="0.5"/><path d="M415.45834,96.5c0,0.9665 -0.7835,1.75 -1.75,1.75c-0.9665,0 -1.75,-0.7835 -1.75,-1.75c0,-0.9665 0.7835,-1.75 1.75,-1.75c0.9665,0 1.75,0.7835 1.75,1.75z" data-paper-data="{&quot;index&quot;:null}" fill="#e2e2e2" stroke-width="0.5"/><path d="M354.125,96.5c0,0.9665 -0.7835,1.75 -1.75,1.75c-0.9665,0 -1.75,-0.7835 -1.75,-1.75c0,-0.9665 0.7835,-1.75 1.75,-1.75c0.9665,0 1.75,0.7835 1.75,1.75z" data-paper-data="{&quot;index&quot;:null}" fill="#e2e2e2" stroke-width="0.5"/><path d="M157.125,134.83333c0,0.9665 -0.7835,1.75 -1.75,1.75c-0.9665,0 -1.75,-0.7835 -1.75,-1.75c0,-0.9665 0.7835,-1.75 1.75,-1.75c0.9665,0 1.75,0.7835 1.75,1.75z" data-paper-data="{&quot;index&quot;:null}" fill="#e2e2e2" stroke-width="0.5"/><path d="M248.45834,238.83333c0,0.9665 -0.7835,1.75 -1.75,1.75c-0.9665,0 -1.75,-0.7835 -1.75,-1.75c0,-0.9665 0.7835,-1.75 1.75,-1.75c0.9665,0 1.75,0.7835 1.75,1.75z" data-paper-data="{&quot;index&quot;:null}" fill="#e2e2e2" stroke-width="0.5"/><path d="M223.125,329.16667c0,0.9665 -0.7835,1.75 -1.75,1.75c-0.9665,0 -1.75,-0.7835 -1.75,-1.75c0,-0.9665 0.7835,-1.75 1.75,-1.75c0.9665,0 1.75,0.7835 1.75,1.75z" data-paper-data="{&quot;index&quot;:null}" fill="#e2e2e2" stroke-width="0.5"/><path d="M282.625,304.50001c0,0.13807 -0.11193,0.25 -0.25,0.25c-0.13807,0 -0.25,-0.11193 -0.25,-0.25c0,-0.13807 0.11193,-0.25 0.25,-0.25c0.13807,0 0.25,0.11193 0.25,0.25z" data-paper-data="{&quot;index&quot;:null}" fill="#666666" stroke-width="0.5"/><path d="M263.95834,330.16667c0,0.13807 -0.11193,0.25 -0.25,0.25c-0.13807,0 -0.25,-0.11193 -0.25,-0.25c0,-0.13807 0.11193,-0.25 0.25,-0.25c0.13807,0 0.25,0.11193 0.25,0.25z" data-paper-data="{&quot;index&quot;:null}" fill="#666666" stroke-width="0.5"/><path d="M253.625,337.50001c0,0.13807 -0.11193,0.25 -0.25,0.25c-0.13807,0 -0.25,-0.11193 -0.25,-0.25c0,-0.13807 0.11193,-0.25 0.25,-0.25c0.13807,0 0.25,0.11193 0.25,0.25z" data-paper-data="{&quot;index&quot;:null}" fill="#666666" stroke-width="0.5"/><path d="M236.625,320.83334c0,0.13807 -0.11193,0.25 -0.25,0.25c-0.13807,0 -0.25,-0.11193 -0.25,-0.25c0,-0.13807 0.11193,-0.25 0.25,-0.25c0.13807,0 0.25,0.11193 0.25,0.25z" data-paper-data="{&quot;index&quot;:null}" fill="#666666" stroke-width="0.5"/><path d="M231.29167,294.50001c0,0.13807 -0.11193,0.25 -0.25,0.25c-0.13807,0 -0.25,-0.11193 -0.25,-0.25c0,-0.13807 0.11193,-0.25 0.25,-0.25c0.13807,0 0.25,0.11193 0.25,0.25z" data-paper-data="{&quot;index&quot;:null}" fill="#666666" stroke-width="0.5"/><path d="M206.95834,285.16667c0,0.13807 -0.11193,0.25 -0.25,0.25c-0.13807,0 -0.25,-0.11193 -0.25,-0.25c0,-0.13807 0.11193,-0.25 0.25,-0.25c0.13807,0 0.25,0.11193 0.25,0.25z" data-paper-data="{&quot;index&quot;:null}" fill="#666666" stroke-width="0.5"/><path d="M176.625,161.83334c0,0.13807 -0.11193,0.25 -0.25,0.25c-0.13807,0 -0.25,-0.11193 -0.25,-0.25c0,-0.13807 0.11193,-0.25 0.25,-0.25c0.13807,0 0.25,0.11193 0.25,0.25z" data-paper-data="{&quot;index&quot;:null}" fill="#666666" stroke-width="0.5"/><path d="M149.29167,147.83334c0,0.13807 -0.11193,0.25 -0.25,0.25c-0.13807,0 -0.25,-0.11193 -0.25,-0.25c0,-0.13807 0.11193,-0.25 0.25,-0.25c0.13807,0 0.25,0.11193 0.25,0.25z" data-paper-data="{&quot;index&quot;:null}" fill="#666666" stroke-width="0.5"/><path d="M153.95834,139.83334c0,0.13807 -0.11193,0.25 -0.25,0.25c-0.13807,0 -0.25,-0.11193 -0.25,-0.25c0,-0.13807 0.11193,-0.25 0.25,-0.25c0.13807,0 0.25,0.11193 0.25,0.25z" data-paper-data="{&quot;index&quot;:null}" fill="#666666" stroke-width="0.5"/><path d="M147.95834,123.50001c0,0.13807 -0.11193,0.25 -0.25,0.25c-0.13807,0 -0.25,-0.11193 -0.25,-0.25c0,-0.13807 0.11193,-0.25 0.25,-0.25c0.13807,0 0.25,0.11193 0.25,0.25z" data-paper-data="{&quot;index&quot;:null}" fill="#666666" stroke-width="0.5"/><path d="M257.70834,38.75c-0.25,0 -0.25,-0.25 -0.25,-0.25c0,-0.16667 0,-0.83333 0,-1c0,0 0,-0.25 0.25,-0.25c0.25,0 0.25,0.25 0.25,0.25c0,0.16667 0,0.33333 0,0.5v0.5c0,0 0,0.25 -0.25,0.25z" data-paper-data="{&quot;index&quot;:null}" fill="#666666" stroke-width="0.5"/><path d="M291.125,93.16667c0,0.41421 -0.33579,0.75 -0.75,0.75c-0.41421,0 -0.75,-0.33579 -0.75,-0.75c0,-0.41421 0.33579,-0.75 0.75,-0.75c0.41421,0 0.75,0.33579 0.75,0.75z" data-paper-data="{&quot;index&quot;:null}" fill="#666666" stroke-width="0.5"/><path d="M296.125,109.16667c0,0.41421 -0.33579,0.75 -0.75,0.75c-0.41421,0 -0.75,-0.33579 -0.75,-0.75c0,-0.41421 0.33579,-0.75 0.75,-0.75c0.41421,0 0.75,0.33579 0.75,0.75z" data-paper-data="{&quot;index&quot;:null}" fill="#666666" stroke-width="0.5"/><path d="M293.79167,81.5c0,0.41421 -0.33579,0.75 -0.75,0.75c-0.41421,0 -0.75,-0.33579 -0.75,-0.75c0,-0.41421 0.33579,-0.75 0.75,-0.75c0.41421,0 0.75,0.33579 0.75,0.75z" data-paper-data="{&quot;index&quot;:null}" fill="#666666" stroke-width="0.5"/><path d="M341.125,72.16667c0,0.41421 -0.33579,0.75 -0.75,0.75c-0.41421,0 -0.75,-0.33579 -0.75,-0.75c0,-0.41421 0.33579,-0.75 0.75,-0.75c0.41421,0 0.75,0.33579 0.75,0.75z" data-paper-data="{&quot;index&quot;:null}" fill="#666666" stroke-width="0.5"/><path d="M357.45834,71.16667c0,0.41421 -0.33579,0.75 -0.75,0.75c-0.41421,0 -0.75,-0.33579 -0.75,-0.75c0,-0.41421 0.33579,-0.75 0.75,-0.75c0.41421,0 0.75,0.33579 0.75,0.75z" data-paper-data="{&quot;index&quot;:null}" fill="#666666" stroke-width="0.5"/><path d="M358.125,84.83333c0,0.41421 -0.33579,0.75 -0.75,0.75c-0.41421,0 -0.75,-0.33579 -0.75,-0.75c0,-0.41421 0.33579,-0.75 0.75,-0.75c0.41421,0 0.75,0.33579 0.75,0.75z" data-paper-data="{&quot;index&quot;:null}" fill="#666666" stroke-width="0.5"/><path d="M338.45834,102.83333c0,0.41421 -0.33579,0.75 -0.75,0.75c-0.41421,0 -0.75,-0.33579 -0.75,-0.75c0,-0.41421 0.33579,-0.75 0.75,-0.75c0.41421,0 0.75,0.33579 0.75,0.75z" data-paper-data="{&quot;index&quot;:null}" fill="#666666" stroke-width="0.5"/><path d="M319.45834,121.83333c0,0.41421 -0.33579,0.75 -0.75,0.75c-0.41421,0 -0.75,-0.33579 -0.75,-0.75c0,-0.41421 0.33579,-0.75 0.75,-0.75c0.41421,0 0.75,0.33579 0.75,0.75z" data-paper-data="{&quot;index&quot;:null}" fill="#666666" stroke-width="0.5"/><path d="M258.79167,136.5c0,0.41421 -0.33579,0.75 -0.75,0.75c-0.41421,0 -0.75,-0.33579 -0.75,-0.75c0,-0.41421 0.33579,-0.75 0.75,-0.75c0.41421,0 0.75,0.33579 0.75,0.75z" data-paper-data="{&quot;index&quot;:null}" fill="#666666" stroke-width="0.5"/><path d="M259.125,156.16667c0,0.41421 -0.33579,0.75 -0.75,0.75c-0.41421,0 -0.75,-0.33579 -0.75,-0.75c0,-0.41421 0.33579,-0.75 0.75,-0.75c0.41421,0 0.75,0.33579 0.75,0.75z" data-paper-data="{&quot;index&quot;:null}" fill="#666666" stroke-width="0.5"/><path d="M242.79167,161.83333c0,0.41421 -0.33579,0.75 -0.75,0.75c-0.41421,0 -0.75,-0.33579 -0.75,-0.75c0,-0.41421 0.33579,-0.75 0.75,-0.75c0.41421,0 0.75,0.33579 0.75,0.75z" data-paper-data="{&quot;index&quot;:null}" fill="#666666" stroke-width="0.5"/><path d="M279.79167,220.16667c0,0.41421 -0.33579,0.75 -0.75,0.75c-0.41421,0 -0.75,-0.33579 -0.75,-0.75c0,-0.41421 0.33579,-0.75 0.75,-0.75c0.41421,0 0.75,0.33579 0.75,0.75z" data-paper-data="{&quot;index&quot;:null}" fill="#666666" stroke-width="0.5"/><path d="M256.125,245.5c0,0.41421 -0.33579,0.75 -0.75,0.75c-0.41421,0 -0.75,-0.33579 -0.75,-0.75c0,-0.41421 0.33579,-0.75 0.75,-0.75c0.41421,0 0.75,0.33579 0.75,0.75z" data-paper-data="{&quot;index&quot;:null}" fill="#666666" stroke-width="0.5"/><path d="M211.125,257.16667c0,0.41421 -0.33579,0.75 -0.75,0.75c-0.41421,0 -0.75,-0.33579 -0.75,-0.75c0,-0.41421 0.33579,-0.75 0.75,-0.75c0.41421,0 0.75,0.33579 0.75,0.75z" data-paper-data="{&quot;index&quot;:null}" fill="#666666" stroke-width="0.5"/><path d="M232.125,280.5c0,0.41421 -0.33579,0.75 -0.75,0.75c-0.41421,0 -0.75,-0.33579 -0.75,-0.75c0,-0.41421 0.33579,-0.75 0.75,-0.75c0.41421,0 0.75,0.33579 0.75,0.75z" data-paper-data="{&quot;index&quot;:null}" fill="#666666" stroke-width="0.5"/><path d="M197.79167,290.16667c0,0.41421 -0.33579,0.75 -0.75,0.75c-0.41421,0 -0.75,-0.33579 -0.75,-0.75c0,-0.41421 0.33579,-0.75 0.75,-0.75c0.41421,0 0.75,0.33579 0.75,0.75z" data-paper-data="{&quot;index&quot;:null}" fill="#666666" stroke-width="0.5"/><path d="M176.125,332.50001c0,0.41421 -0.33579,0.75 -0.75,0.75c-0.41421,0 -0.75,-0.33579 -0.75,-0.75c0,-0.41421 0.33579,-0.75 0.75,-0.75c0.41421,0 0.75,0.33579 0.75,0.75z" data-paper-data="{&quot;index&quot;:null}" fill="#666666" stroke-width="0.5"/><path d="M181.45834,349.50001c0,0.41421 -0.33579,0.75 -0.75,0.75c-0.41421,0 -0.75,-0.33579 -0.75,-0.75c0,-0.41421 0.33579,-0.75 0.75,-0.75c0.41421,0 0.75,0.33579 0.75,0.75z" data-paper-data="{&quot;index&quot;:null}" fill="#666666" stroke-width="0.5"/><path d="M398.79167,92.83333c0,0.41421 -0.33579,0.75 -0.75,0.75c-0.41421,0 -0.75,-0.33579 -0.75,-0.75c0,-0.41421 0.33579,-0.75 0.75,-0.75c0.41421,0 0.75,0.33579 0.75,0.75z" data-paper-data="{&quot;index&quot;:null}" fill="#ffffff" stroke-width="0.5"/><path d="M372.125,69.83333c0,0.41421 -0.33579,0.75 -0.75,0.75c-0.41421,0 -0.75,-0.33579 -0.75,-0.75c0,-0.41421 0.33579,-0.75 0.75,-0.75c0.41421,0 0.75,0.33579 0.75,0.75z" data-paper-data="{&quot;index&quot;:null}" fill="#ffffff" stroke-width="0.5"/><path d="M325.79167,83.5c0,0.41421 -0.33579,0.75 -0.75,0.75c-0.41421,0 -0.75,-0.33579 -0.75,-0.75c0,-0.41421 0.33579,-0.75 0.75,-0.75c0.41421,0 0.75,0.33579 0.75,0.75z" data-paper-data="{&quot;index&quot;:null}" fill="#ffffff" stroke-width="0.5"/><path d="M377.125,253.16667c0,0.41421 -0.33579,0.75 -0.75,0.75c-0.41421,0 -0.75,-0.33579 -0.75,-0.75c0,-0.41421 0.33579,-0.75 0.75,-0.75c0.41421,0 0.75,0.33579 0.75,0.75z" data-paper-data="{&quot;index&quot;:null}" fill="#ffffff" stroke-width="0.5"/><path d="M339.79167,312.50001c0,0.41421 -0.33579,0.75 -0.75,0.75c-0.41421,0 -0.75,-0.33579 -0.75,-0.75c0,-0.41421 0.33579,-0.75 0.75,-0.75c0.41421,0 0.75,0.33579 0.75,0.75z" data-paper-data="{&quot;index&quot;:null}" fill="#ffffff" stroke-width="0.5"/><path d="M375.125,311.16667c0,0.41421 -0.33579,0.75 -0.75,0.75c-0.41421,0 -0.75,-0.33579 -0.75,-0.75c0,-0.41421 0.33579,-0.75 0.75,-0.75c0.41421,0 0.75,0.33579 0.75,0.75z" data-paper-data="{&quot;index&quot;:null}" fill="#ffffff" stroke-width="0.5"/><path d="M347.125,340.83334c0,0.41421 -0.33579,0.75 -0.75,0.75c-0.41421,0 -0.75,-0.33579 -0.75,-0.75c0,-0.41421 0.33579,-0.75 0.75,-0.75c0.41421,0 0.75,0.33579 0.75,0.75z" data-paper-data="{&quot;index&quot;:null}" fill="#ffffff" stroke-width="0.5"/><path d="M310.45834,283.50001c0,0.41421 -0.33579,0.75 -0.75,0.75c-0.41421,0 -0.75,-0.33579 -0.75,-0.75c0,-0.41421 0.33579,-0.75 0.75,-0.75c0.41421,0 0.75,0.33579 0.75,0.75z" data-paper-data="{&quot;index&quot;:null}" fill="#ffffff" stroke-width="0.5"/><path d="M340.45834,270.16667c0,0.41421 -0.33579,0.75 -0.75,0.75c-0.41421,0 -0.75,-0.33579 -0.75,-0.75c0,-0.41421 0.33579,-0.75 0.75,-0.75c0.41421,0 0.75,0.33579 0.75,0.75z" data-paper-data="{&quot;index&quot;:null}" fill="#ffffff" stroke-width="0.5"/><path d="M223.45834,211.83334c0,0.41421 -0.33579,0.75 -0.75,0.75c-0.41421,0 -0.75,-0.33579 -0.75,-0.75c0,-0.41421 0.33579,-0.75 0.75,-0.75c0.41421,0 0.75,0.33579 0.75,0.75z" data-paper-data="{&quot;index&quot;:null}" fill="#ffffff" stroke-width="0.5"/><path d="M261.125,339.16667c0,0.41421 -0.33579,0.75 -0.75,0.75c-0.41421,0 -0.75,-0.33579 -0.75,-0.75c0,-0.41421 0.33579,-0.75 0.75,-0.75c0.41421,0 0.75,0.33579 0.75,0.75z" data-paper-data="{&quot;index&quot;:null}" fill="#a0a0a0" stroke-width="0.5"/><path d="M184.125,282.83334c0,0.41421 -0.33579,0.75 -0.75,0.75c-0.41421,0 -0.75,-0.33579 -0.75,-0.75c0,-0.41421 0.33579,-0.75 0.75,-0.75c0.41421,0 0.75,0.33579 0.75,0.75z" data-paper-data="{&quot;index&quot;:null}" fill="#a0a0a0" stroke-width="0.5"/><path d="M214.79167,259.50001c0,0.41421 -0.33579,0.75 -0.75,0.75c-0.41421,0 -0.75,-0.33579 -0.75,-0.75c0,-0.41421 0.33579,-0.75 0.75,-0.75c0.41421,0 0.75,0.33579 0.75,0.75z" data-paper-data="{&quot;index&quot;:null}" fill="#a0a0a0" stroke-width="0.5"/><path d="M225.375,229.41667c0.75,0 0.75,0.75 0.75,0.75l-0.03849,0.09616c0.11111,0.33333 0.22222,0.66667 0.33333,1c0,0 0.23717,0.71151 -0.47434,0.94868c-0.71151,0.23717 -0.94868,-0.47434 -0.94868,-0.47434c-0.11111,-0.33333 -0.22222,-0.66667 -0.33333,-1l-0.03849,-0.5705c0,0 0,-0.75 0.75,-0.75z" data-paper-data="{&quot;index&quot;:null}" fill="#a0a0a0" stroke-width="0.5"/><path d="M195.125,211.50001c0,0.41421 -0.33579,0.75 -0.75,0.75c-0.41421,0 -0.75,-0.33579 -0.75,-0.75c0,-0.41421 0.33579,-0.75 0.75,-0.75c0.41421,0 0.75,0.33579 0.75,0.75z" data-paper-data="{&quot;index&quot;:null}" fill="#a0a0a0" stroke-width="0.5"/><path d="M229.125,114.50001c0,0.41421 -0.33579,0.75 -0.75,0.75c-0.41421,0 -0.75,-0.33579 -0.75,-0.75c0,-0.41421 0.33579,-0.75 0.75,-0.75c0.41421,0 0.75,0.33579 0.75,0.75z" data-paper-data="{&quot;index&quot;:null}" fill="#a0a0a0" stroke-width="0.5"/><path d="M260.125,138.16667c0,0.41421 -0.33579,0.75 -0.75,0.75c-0.41421,0 -0.75,-0.33579 -0.75,-0.75c0,-0.41421 0.33579,-0.75 0.75,-0.75c0.41421,0 0.75,0.33579 0.75,0.75z" data-paper-data="{&quot;index&quot;:null}" fill="#a0a0a0" stroke-width="0.5"/><path d="M268.79167,113.16667c0,0.41421 -0.33579,0.75 -0.75,0.75c-0.41421,0 -0.75,-0.33579 -0.75,-0.75c0,-0.41421 0.33579,-0.75 0.75,-0.75c0.41421,0 0.75,0.33579 0.75,0.75z" data-paper-data="{&quot;index&quot;:null}" fill="#a0a0a0" stroke-width="0.5"/><path d="M289.79167,157.50001c0,0.41421 -0.33579,0.75 -0.75,0.75c-0.41421,0 -0.75,-0.33579 -0.75,-0.75c0,-0.41421 0.33579,-0.75 0.75,-0.75c0.41421,0 0.75,0.33579 0.75,0.75z" data-paper-data="{&quot;index&quot;:null}" fill="#a0a0a0" stroke-width="0.5"/><path d="M281.45834,175.83334c0,0.41421 -0.33579,0.75 -0.75,0.75c-0.41421,0 -0.75,-0.33579 -0.75,-0.75c0,-0.41421 0.33579,-0.75 0.75,-0.75c0.41421,0 0.75,0.33579 0.75,0.75z" data-paper-data="{&quot;index&quot;:null}" fill="#a0a0a0" stroke-width="0.5"/><path d="M308.79167,194.50001c0,0.41421 -0.33579,0.75 -0.75,0.75c-0.41421,0 -0.75,-0.33579 -0.75,-0.75c0,-0.41421 0.33579,-0.75 0.75,-0.75c0.41421,0 0.75,0.33579 0.75,0.75z" data-paper-data="{&quot;index&quot;:null}" fill="#a0a0a0" stroke-width="0.5"/><path d="M258.45834,176.16667c0,0.41421 -0.33579,0.75 -0.75,0.75c-0.41421,0 -0.75,-0.33579 -0.75,-0.75c0,-0.41421 0.33579,-0.75 0.75,-0.75c0.41421,0 0.75,0.33579 0.75,0.75z" data-paper-data="{&quot;index&quot;:null}" fill="#a0a0a0" stroke-width="0.5"/><path d="M181.45834,118.16667c0,0.41421 -0.33579,0.75 -0.75,0.75c-0.41421,0 -0.75,-0.33579 -0.75,-0.75c0,-0.41421 0.33579,-0.75 0.75,-0.75c0.41421,0 0.75,0.33579 0.75,0.75z" data-paper-data="{&quot;index&quot;:null}" fill="#a0a0a0" stroke-width="0.5"/><path d="M145.79167,54.83333c0,0.41421 -0.33579,0.75 -0.75,0.75c-0.41421,0 -0.75,-0.33579 -0.75,-0.75c0,-0.41421 0.33579,-0.75 0.75,-0.75c0.41421,0 0.75,0.33579 0.75,0.75z" data-paper-data="{&quot;index&quot;:null}" fill="#a0a0a0" stroke-width="0.5"/><path d="M170.79167,42.5c0,0.41421 -0.33579,0.75 -0.75,0.75c-0.41421,0 -0.75,-0.33579 -0.75,-0.75c0,-0.41421 0.33579,-0.75 0.75,-0.75c0.41421,0 0.75,0.33579 0.75,0.75z" data-paper-data="{&quot;index&quot;:null}" fill="#a0a0a0" stroke-width="0.5"/><path d="M131.45834,37.83333c0,0.41421 -0.33579,0.75 -0.75,0.75c-0.41421,0 -0.75,-0.33579 -0.75,-0.75c0,-0.41421 0.33579,-0.75 0.75,-0.75c0.41421,0 0.75,0.33579 0.75,0.75z" data-paper-data="{&quot;index&quot;:null}" fill="#a0a0a0" stroke-width="0.5"/><path d="M115.45834,44.5c0,0.41421 -0.33579,0.75 -0.75,0.75c-0.41421,0 -0.75,-0.33579 -0.75,-0.75c0,-0.41421 0.33579,-0.75 0.75,-0.75c0.41421,0 0.75,0.33579 0.75,0.75z" data-paper-data="{&quot;index&quot;:null}" fill="#a0a0a0" stroke-width="0.5"/><path d="M240.875,36.16667c0,0.82843 -0.67157,1.5 -1.5,1.5c-0.82843,0 -1.5,-0.67157 -1.5,-1.5c0,-0.82843 0.67157,-1.5 1.5,-1.5c0.82843,0 1.5,0.67157 1.5,1.5z" data-paper-data="{&quot;index&quot;:null}" fill="#a0a0a0" stroke-width="0.5"/><path d="M184.20834,58.5c0,0.82843 -0.67157,1.5 -1.5,1.5c-0.82843,0 -1.5,-0.67157 -1.5,-1.5c0,-0.82843 0.67157,-1.5 1.5,-1.5c0.82843,0 1.5,0.67157 1.5,1.5z" data-paper-data="{&quot;index&quot;:null}" fill="#a0a0a0" stroke-width="0.5"/><path d="M284.20834,93.5c0,0.82843 -0.67157,1.5 -1.5,1.5c-0.82843,0 -1.5,-0.67157 -1.5,-1.5c0,-0.82843 0.67157,-1.5 1.5,-1.5c0.82843,0 1.5,0.67157 1.5,1.5z" data-paper-data="{&quot;index&quot;:null}" fill="#a0a0a0" stroke-width="0.5"/><path d="M310.20834,60.16667c0,0.82843 -0.67157,1.5 -1.5,1.5c-0.82843,0 -1.5,-0.67157 -1.5,-1.5c0,-0.82843 0.67157,-1.5 1.5,-1.5c0.82843,0 1.5,0.67157 1.5,1.5z" data-paper-data="{&quot;index&quot;:null}" fill="#a0a0a0" stroke-width="0.5"/><path d="M356.20834,37.16667c0,0.82843 -0.67157,1.5 -1.5,1.5c-0.82843,0 -1.5,-0.67157 -1.5,-1.5c0,-0.82843 0.67157,-1.5 1.5,-1.5c0.82843,0 1.5,0.67157 1.5,1.5z" data-paper-data="{&quot;index&quot;:null}" fill="#a0a0a0" stroke-width="0.5"/><path d="M348.875,10.83333c0,0.82843 -0.67157,1.5 -1.5,1.5c-0.82843,0 -1.5,-0.67157 -1.5,-1.5c0,-0.82843 0.67157,-1.5 1.5,-1.5c0.82843,0 1.5,0.67157 1.5,1.5z" data-paper-data="{&quot;index&quot;:null}" fill="#a0a0a0" stroke-width="0.5"/><path d="M369.20834,-5.83333c0,0.82843 -0.67157,1.5 -1.5,1.5c-0.82843,0 -1.5,-0.67157 -1.5,-1.5c0,-0.82843 0.67157,-1.5 1.5,-1.5c0.82843,0 1.5,0.67157 1.5,1.5z" data-paper-data="{&quot;index&quot;:null}" fill="#a0a0a0" stroke-width="0.5"/><path d="M337.54167,-13.5c0,0.82843 -0.67157,1.5 -1.5,1.5c-0.82843,0 -1.5,-0.67157 -1.5,-1.5c0,-0.82843 0.67157,-1.5 1.5,-1.5c0.82843,0 1.5,0.67157 1.5,1.5z" data-paper-data="{&quot;index&quot;:null}" fill="#a0a0a0" stroke-width="0.5"/><path d="M257.875,-16.5c0,0.82843 -0.67157,1.5 -1.5,1.5c-0.82843,0 -1.5,-0.67157 -1.5,-1.5c0,-0.82843 0.67157,-1.5 1.5,-1.5c0.82843,0 1.5,0.67157 1.5,1.5z" data-paper-data="{&quot;index&quot;:null}" fill="#a0a0a0" stroke-width="0.5"/><path d="M200.875,-12.83333c0,0.82843 -0.67157,1.5 -1.5,1.5c-0.82843,0 -1.5,-0.67157 -1.5,-1.5c0,-0.82843 0.67157,-1.5 1.5,-1.5c0.82843,0 1.5,0.67157 1.5,1.5z" data-paper-data="{&quot;index&quot;:null}" fill="#a0a0a0" stroke-width="0.5"/><path d="M136.20834,-0.83333c0,0.82843 -0.67157,1.5 -1.5,1.5c-0.82843,0 -1.5,-0.67157 -1.5,-1.5c0,-0.82843 0.67157,-1.5 1.5,-1.5c0.82843,0 1.5,0.67157 1.5,1.5z" data-paper-data="{&quot;index&quot;:null}" fill="#a0a0a0" stroke-width="0.5"/><path d="M165.04167,13.5c0,0.55228 -0.44772,1 -1,1c-0.55228,0 -1,-0.44772 -1,-1c0,-0.55228 0.44772,-1 1,-1c0.55228,0 1,0.44772 1,1z" data-paper-data="{&quot;index&quot;:null}" fill="#a0a0a0" stroke-width="0.5"/><path d="M213.70834,129.83333c0,0.55228 -0.44772,1 -1,1c-0.55228,0 -1,-0.44772 -1,-1c0,-0.55228 0.44772,-1 1,-1c0.55228,0 1,0.44772 1,1z" data-paper-data="{&quot;index&quot;:null}" fill="#a0a0a0" stroke-width="0.5"/><path d="M378.04167,296.83333c0,0.55228 -0.44772,1 -1,1c-0.55228,0 -1,-0.44772 -1,-1c0,-0.55228 0.44772,-1 1,-1c0.55228,0 1,0.44772 1,1z" data-paper-data="{&quot;index&quot;:null}" fill="#a0a0a0" stroke-width="0.5"/><path d="M-32.5,609.00001v-646h543v646z" fill="none" stroke-width="0"/></g></g></svg>