<svg version="1.1" xmlns="http://www.w3.org/2000/svg" xmlns:xlink="http://www.w3.org/1999/xlink" width="358.19811" height="216.003" viewBox="0,0,358.19811,216.003"><g transform="translate(45.71322,16.00301)"><g data-paper-data="{&quot;isPaintingLayer&quot;:true}" fill-rule="nonzero" stroke-linecap="butt" stroke-linejoin="miter" stroke-miterlimit="10" stroke-dasharray="" stroke-dashoffset="0" style="mix-blend-mode: normal"><path d="M-33.5,199v-44h35.40969c1.313,0.29222 2.26172,0.29222 2.26172,0.29222c67.55222,0 135.10444,0 202.65666,0c33.24842,0 69.09104,0 104.17193,0v43.70778z" fill="#fff866" stroke="#f2eb61" stroke-width="2"/><path d="M-42.25,197.01978v-40.25h12v40.25z" fill="#fff866" stroke="none" stroke-width="0"/><path d="M-44.71321,12.997v-28h87v28z" fill="#fff866" stroke="#f2eb61" stroke-width="2"/><path d="M173.5,13.49249v-28h87v28z" fill="#fff866" stroke="#f2eb61" stroke-width="2"/><path d="M19.56923,155.29221c11.76288,0 23.52577,0 35.28865,0l-25.94584,44.29429c-11.78383,0.03046 -23.56764,0.06615 -35.35143,0.10716z" fill="#f2eb61" stroke="none" stroke-width="0"/><path d="M103.80581,155.29221c11.76288,0 23.52577,0 35.28865,0l-25.8697,44.16431c-11.76938,0.00605 -23.53875,0.01709 -35.30811,0.03321z" fill="#f2eb61" stroke="none" stroke-width="0"/><path d="M194.71024,155.29221c4.03928,0 8.07855,0 12.11783,0c7.60138,0 15.33836,0 23.17082,0l-25.89948,44.21514c-11.75455,-0.01898 -23.50911,-0.03323 -35.26368,-0.04264z" fill="#f2eb61" stroke="none" stroke-width="0"/><path d="M278.94681,155.29221c11.18931,0 22.40449,0 33.53809,0c-0.31469,0.9715 -0.48474,2.00811 -0.48474,3.08444c0,0.23242 0.00793,0.46299 0.02353,0.69145l-23.81381,40.65452c-11.74152,-0.04097 -23.48306,-0.07744 -35.22462,-0.10932z" fill="#f2eb61" stroke="none" stroke-width="0"/></g></g></svg>