<svg version="1.1" xmlns="http://www.w3.org/2000/svg" xmlns:xlink="http://www.w3.org/1999/xlink" width="656" height="618" viewBox="0,0,656,618"><g transform="translate(19.5,244)"><g data-paper-data="{&quot;isPaintingLayer&quot;:true}" fill="#9966ff" fill-rule="nonzero" stroke-linecap="butt" stroke-linejoin="miter" stroke-miterlimit="10" stroke-dasharray="" stroke-dashoffset="0" style="mix-blend-mode: normal"><path d="M31.5,366v-107h47v107z" stroke="#000000" stroke-width="2"/><path d="M139.5,373v-172h54v172z" stroke="#000000" stroke-width="2"/><path d="M251.5,373v-233h68v233z" stroke="#000000" stroke-width="2"/><path d="M76.5,97v-27h106v27z" stroke="#000000" stroke-width="2"/><path d="M240.5,31v-28h115v28z" stroke="#000000" stroke-width="2"/><path d="M136.5,-39v-31h32v31z" stroke="#000000" stroke-width="2"/><path d="M-18.5,-65v-26h77v26z" stroke="#000000" stroke-width="2"/><path d="M107.5,-163v-32h120v32z" stroke="#000000" stroke-width="2"/><path d="M188.5,-178v-65h39v65z" stroke="#000000" stroke-width="2"/><path d="M-17.5,-70v-76h30v76z" stroke="#000000" stroke-width="2"/><path d="M415.5,368v-555h65v555z" stroke="none" stroke-width="0"/><path d="M274.5,-135v-20h97v20z" stroke="none" stroke-width="0"/><path d="M462.5,366v-135h174v135z" stroke="none" stroke-width="0"/></g></g></svg>