<svg version="1.1" xmlns="http://www.w3.org/2000/svg" xmlns:xlink="http://www.w3.org/1999/xlink" width="337.98392" height="322" viewBox="0,0,337.98392,322"><g transform="translate(-89.68696,-149)"><g data-paper-data="{&quot;isPaintingLayer&quot;:true}" fill-rule="nonzero" stroke-linecap="butt" stroke-linejoin="miter" stroke-miterlimit="10" stroke-dasharray="" stroke-dashoffset="0" style="mix-blend-mode: normal"><path d="M112.5,376v-226h69v69.3c-0.17873,0.72147 -0.30126,1.50652 -0.36068,2.35676c-0.02535,0.29037 -0.0383,0.58429 -0.0383,0.88124c-0.38655,21.43274 -0.36593,42.87558 0,64.30868c0,0.25436 0.0095,0.50649 0.02815,0.75608c0.0542,0.9181 0.17865,1.6916 0.37083,2.35429v86.04295z" fill="#fff866" stroke="#f9f264" stroke-width="2"/><path d="M286.5,470v-145.60607c0.13727,-22.53491 0.13278,-45.0711 0,-67.60613v-49.78781h69v263z" fill="#fff866" stroke="#f9f264" stroke-width="2"/><path d="M91.56538,165.28445c-0.00439,0.6904 -0.00872,1.3808 -0.013,2.07121c-0.47879,-0.38348 -0.92021,-0.77117 -1.26187,-1.18359c-0.28966,-0.34965 -0.48115,-0.89525 -0.60355,-1.55209z" fill="#f2eb61" stroke="none" stroke-width="0"/><path d="" fill="#f2eb61" stroke="none" stroke-width="0"/><path d="" fill="#f2eb61" stroke="none" stroke-width="0"/><path d="" data-paper-data="{&quot;index&quot;:null}" fill="#f2eb61" stroke="none" stroke-width="0"/><path d="M320.54833,262.84845l-9.1147,-25.76657l44.90855,-15.88602v28.99082z" data-paper-data="{&quot;index&quot;:null}" fill="#f2eb61" stroke="none" stroke-width="0"/><path d="M323.34181,280.29293l9.11471,25.76657l-45.94423,16.25238c0.05519,-9.67388 0.08432,-19.34799 0.08848,-29.02212z" data-paper-data="{&quot;index&quot;:null}" fill="#f2eb61" stroke="none" stroke-width="0"/><path d="M230.00551,336.07621l0.00466,0.00345l-0.00568,0.03407l0.04567,0.57087l-0.16791,0.54753l-0.01142,0.21698l-0.95275,-2.69335z" data-paper-data="{&quot;index&quot;:null}" fill="#f2eb61" stroke="none" stroke-width="0"/><path d="M427.67088,331.95982l-0.82437,0.29161l0.13927,-2.22833z" data-paper-data="{&quot;index&quot;:null}" fill="#f2eb61" stroke="none" stroke-width="0"/><path d="M326.62551,367.70376l-9.11471,-25.76657l38.72722,-13.69942c-0.04293,9.67187 -0.08033,19.34369 -0.0689,29.01519z" data-paper-data="{&quot;index&quot;:null}" fill="#f2eb61" stroke="none" stroke-width="0"/><path d="M128.53526,287.62585v-56.63916h17.62941v56.63916z" fill="#f2eb61" stroke="none" stroke-width="0"/><path d="M125.53451,311.06921c0,-6.31834 5.12202,-11.44036 11.44036,-11.44036c6.31834,0 11.44036,5.12202 11.44036,11.44036c0,6.31834 -5.12202,11.44036 -11.44036,11.44036c-6.31834,0 -11.44036,-5.12202 -11.44036,-11.44036z" fill="#f2eb61" stroke="none" stroke-width="0"/><path d="M111.68459,196.75619c0.14119,-7.48447 0.14744,-14.97266 0.03078,-22.45794l70.36761,-17.92383c-0.08363,7.48046 -0.07165,14.96254 0.02855,22.44283z" fill="#f2eb61" stroke="none" stroke-width="0"/><path d="" fill="#f2eb61" stroke="none" stroke-width="0"/><path d="M90.47433,179.7087l0.80615,-0.20534c-0.00867,1.10003 -0.01464,2.2001 -0.01784,3.30017z" fill="#f2eb61" stroke="none" stroke-width="0"/></g></g></svg>