<svg version="1.1" xmlns="http://www.w3.org/2000/svg" xmlns:xlink="http://www.w3.org/1999/xlink" width="610" height="571.81239" viewBox="0,0,610,571.81239"><g transform="translate(12.5,187.5)"><g data-paper-data="{&quot;isPaintingLayer&quot;:true}" fill-rule="nonzero" stroke-linecap="butt" stroke-linejoin="miter" stroke-miterlimit="10" stroke-dasharray="" stroke-dashoffset="0" style="mix-blend-mode: normal"><path d="M404.5,320v-73h71v73z" fill="#fff866" stroke="#f2eb61" stroke-width="2"/><path d="M460.5,374v-175h63v175z" fill="#fff866" stroke="#f2eb61" stroke-width="2"/><path d="M405.08373,372.29582v-95.95255h117.58548v95.95255z" fill="#f2eb61" stroke="none" stroke-width="0"/><path d="M300.5,146v-30h28.7893c0.14037,0.00744 0.28151,0.01198 0.42336,0.01358c0.03848,0.00015 0.07666,0.00036 0.11451,0.00064c42.55625,0.32118 85.11569,0.38748 127.67283,0.15865v29.82713z" fill="#ffae66" stroke="#df9859" stroke-width="2"/><path d="M-8.05318,364.00001v-62h518.61734v62z" fill="#ffae66" stroke="#df9859" stroke-width="2"/><path d="M160.5,146v-60h143v60z" fill="#ffae66" stroke="#df9859" stroke-width="2"/><path d="M-4.5,75v-22h108v22z" fill="#ffae66" stroke="#df9859" stroke-width="2"/><path d="M-11.5,-8.75v-17.5h86v17.5z" fill="#fff866" stroke="#f2eb61" stroke-width="2"/><path d="M166.5,-51v-23h111v23z" fill="#ffae66" stroke="#df9859" stroke-width="2"/><path d="M315.5,-18v-20h110v20z" fill="#fff866" stroke="#f2eb61" stroke-width="2"/><path d="M315.5,-119.5v-27h128v27z" fill="#fff866" stroke="#f2eb61" stroke-width="2"/><path d="M424.5,-119.5v-67h28v67z" fill="#fff866" stroke="#f2eb61" stroke-width="2"/><path d="M484.5,-31v-26h112v26z" fill="#ffae66" stroke="#df9859" stroke-width="2"/><path d="M104.37037,341.95725l-21.56963,-21.56963l9.68432,-9.68432l21.56963,21.56963z" fill="#ffffff" stroke="none" stroke-width="0"/><path d="M83.42328,344.72356l21.56963,-21.56963l9.68432,9.68432l-21.56963,21.56963z" fill="#ffffff" stroke="none" stroke-width="0"/><path d="M336.87037,341.95724l-21.56962,-21.56963l9.68433,-9.68433l21.56962,21.56963z" fill="#ffffff" stroke="none" stroke-width="0"/><path d="M315.29828,344.72356l21.56963,-21.56963l9.68432,9.68432l-21.56963,21.56962z" fill="#ffffff" stroke="none" stroke-width="0"/><path d="M36.86022,384.31239h-17.8125v-81.5625h17.8125z" fill="#df9859" stroke="none" stroke-width="0"/><path d="M163.11022,384.31239h-17.8125v-81.5625h17.8125z" fill="#df9859" stroke="none" stroke-width="0"/><path d="M288.11022,384.31239h-17.8125v-81.5625h17.8125z" fill="#df9859" stroke="none" stroke-width="0"/><path d="M413.73522,384.31239h-17.8125v-81.5625h17.8125z" fill="#df9859" stroke="none" stroke-width="0"/><path d="M221.87037,342.58225l-21.56963,-21.56963l9.68432,-9.68432l21.56963,21.56963z" fill="#ffffff" stroke="none" stroke-width="0"/><path d="M200.92328,345.34856l21.56963,-21.56963l9.68432,9.68432l-21.56963,21.56963z" fill="#ffffff" stroke="none" stroke-width="0"/><path d="M449.37037,341.33224l-21.56962,-21.56963l9.68433,-9.68433l21.56962,21.56963z" fill="#ffffff" stroke="none" stroke-width="0"/><path d="M427.79828,344.09856l21.56963,-21.56963l9.68432,9.68432l-21.56963,21.56962z" fill="#ffffff" stroke="none" stroke-width="0"/><path d="M460.88295,242.94526v-22.2691h61.88467v22.2691z" fill="#f2eb61" stroke="none" stroke-width="0"/><path d="M165.76796,98.04306l48.31312,48.31312c-12.84118,0.03688 -25.68233,0.07983 -38.52345,0.12869l-15.72899,-15.72899c0.10885,-8.86634 0.04481,-17.73591 -0.17424,-26.59927z" fill="#df9859" stroke="none" stroke-width="0"/><path d="M178.32142,85.24428c0.12357,0.00573 0.24774,0.00922 0.37244,0.01042c0.03307,0.00011 0.06592,0.00026 0.09852,0.00048c12.6581,0.08188 25.31638,0.14728 37.97476,0.19552l-50.28643,50.28643l-6.63378,-6.63378c0.08279,-8.39567 0.01157,-16.79371 -0.19848,-25.18611z" fill="#df9859" stroke="none" stroke-width="0"/><path d="M230.75593,116.47416l19.32607,-19.32607l49.05402,49.05403c-12.86827,0.00942 -25.73653,0.02525 -38.60478,0.04735z" fill="#df9859" stroke="none" stroke-width="0"/><path d="M231.46868,115.51609l29.96743,-29.96743c12.89581,0.0071 25.79163,-0.00441 38.68737,-0.03523l-49.32873,49.32873z" fill="#df9859" stroke="none" stroke-width="0"/><path d="M320.25218,130.40771l14.35847,-14.35847c3.3338,0.02366 6.66762,0.04575 10.00145,0.06624l30.10607,30.10608c-12.89362,-0.01626 -25.78726,-0.0258 -38.6809,-0.02877z" fill="#df9859" stroke="none" stroke-width="0"/><path d="M320.96493,129.44964l13.40213,-13.40213c12.81619,0.09125 25.63264,0.15926 38.44922,0.20292l-29.94456,29.94456c-1.72107,-0.00071 -3.44214,-0.0013 -5.16322,-0.00177z" fill="#df9859" stroke="none" stroke-width="0"/><path d="M399.20716,129.51275l13.20609,-13.20609c4.07497,-0.00243 8.14993,-0.00744 12.22489,-0.01506l30.11847,30.11847c-12.92179,-0.04478 -25.84362,-0.08251 -38.76548,-0.11334z" fill="#df9859" stroke="none" stroke-width="0"/><path d="M399.91991,128.55468l12.24788,-12.24788c12.91776,-0.00738 25.83549,-0.04064 38.75304,-0.1009l-30.10266,30.10266c-1.05072,-0.00265 -2.10145,-0.00525 -3.15217,-0.0078z" fill="#df9859" stroke="none" stroke-width="0"/><path d="M14.41932,74.53906v-21.03915h69.88657v21.03915z" fill="#df9859" stroke="none" stroke-width="0"/><path d="M182.06764,-51.17744v-22.218h14.812v22.218z" fill="#df9859" stroke="none" stroke-width="0"/><path d="M255.55795,-51.17744v-22.0281h13.48272v22.0281z" fill="#df9859" stroke="none" stroke-width="0"/><path d="M0.30687,-8.64041v-16.90087h61.33688v16.90087z" fill="#f2eb61" stroke="none" stroke-width="0"/><path d="M332.05773,-18.56532v-18.60995h14.24231v18.60995z" fill="#f2eb61" stroke="none" stroke-width="0"/><path d="M397.95215,-18.37543v-18.79985h14.812v18.79985z" fill="#f2eb61" stroke="none" stroke-width="0"/><path d="M499.99886,-29.95917v-26.58564h19.55944v26.58564z" fill="#df9859" stroke="none" stroke-width="0"/><path d="M560.76605,-31.47835v-25.44626h19.74934v25.44626z" fill="#df9859" stroke="none" stroke-width="0"/><path d="M506.76561,126.11557v-47.0001h27.20152v47.0001z" data-paper-data="{&quot;index&quot;:null}" fill="#fff896" stroke="#f2eb61" stroke-width="2"/><path d="M519.33583,77.09297v-5.30258h3.41819v5.30258z" data-paper-data="{&quot;index&quot;:null}" fill="#f2eb61" stroke="#f2eb61" stroke-width="2"/><path d="M538.16774,65.75124c9.17697,0 16.61637,2.14703 16.61637,4.79553c0,2.6485 -7.4394,4.79553 -16.61637,4.79553c-9.17697,0 -16.61637,-4.79553 -16.61637,-4.79553c0,0 7.4394,-4.79553 16.61637,-4.79553z" data-paper-data="{&quot;index&quot;:null}" fill="#fffccc" stroke="#f2eb61" stroke-width="2"/><path d="M521.67356,70.60786c0,0 -7.4394,4.79553 -16.61637,4.79553c-9.17696,0 -16.61636,-2.14703 -16.61636,-4.79553c0,-2.6485 7.4394,-4.79553 16.61636,-4.79553c9.17696,0 16.61637,4.79553 16.61637,4.79553z" data-paper-data="{&quot;index&quot;:null}" fill="#fffccc" stroke="#f2eb61" stroke-width="2"/><path d="M512.92776,101.72017l11.09931,-13.96853l3.66771,2.91434l-11.09931,13.96853z" data-paper-data="{&quot;index&quot;:null}" fill="#f2eb61" stroke="#f2eb61" stroke-width="2"/><path d="M516.79481,98.71562l11.09932,13.96853l-3.66771,2.91435l-11.09932,-13.96853z" data-paper-data="{&quot;index&quot;:null}" fill="#f2eb61" stroke="none" stroke-width="2"/></g></g></svg>