<svg version="1.1" xmlns="http://www.w3.org/2000/svg" xmlns:xlink="http://www.w3.org/1999/xlink" width="584.83413" height="618.73378" viewBox="0,0,584.83413,618.73378"><g transform="translate(-93.5,226)"><g data-paper-data="{&quot;isPaintingLayer&quot;:true}" fill-rule="nonzero" stroke-linecap="butt" stroke-linejoin="miter" stroke-miterlimit="10" stroke-dasharray="" stroke-dashoffset="0" style="mix-blend-mode: normal"><path d="M173.5,-91.11817v-33h160v33z" fill="#ffae66" stroke="#df9859" stroke-width="2"/><path d="M180.5,-163.11817v-34h88v34z" fill="#ff76ca" stroke="#cb067f" stroke-width="2"/><path d="M546.5,158v-82h30v82z" fill="#ffae66" stroke="#df9859" stroke-width="2"/><path d="M221.5,54v-30h233v30z" fill="#ffae66" stroke="#df9859" stroke-width="2"/><path d="M229.5,-23v-33h160v33z" fill="#ff76ca" stroke="#cb067f" stroke-width="2"/><path d="M94.5,142v-40h86v40z" fill="#ffae66" stroke="#df9859" stroke-width="2"/><path d="M151.56191,142v-367h82v367z" fill="#ff76ca" stroke="#cb067f" stroke-width="2"/><path d="M155.57129,389v-126h121.99062v126z" fill="#ff76ca" stroke="#cb067f" stroke-width="2"/><path d="M340.5,373v-172h103v172z" fill="#ffae66" stroke="#df9859" stroke-width="2"/><path d="M488.56191,364v-225h86v225z" fill="#ff76ca" stroke="#cb067f" stroke-width="2"/><path d="M194.99984,-73.00482l-31.97677,-28.21681l66.61828,-58.78503l5.50877,4.86102c0,15.57053 0,31.14105 0,46.71158z" fill="#cb067f" stroke="none" stroke-width="0"/><path d="" fill="#cb067f" stroke="none" stroke-width="0"/><path d="M159.41265,-158.15553l66.61829,58.78503l-31.97677,28.21681l-43.50856,-38.39264c0,-13.59493 0,-27.18985 0,-40.78478z" fill="#cb067f" stroke="none" stroke-width="0"/><path d="" fill="#cb067f" stroke="none" stroke-width="0"/><path d="M190.99084,58.12131l-31.97677,-28.21681l66.61829,-58.78503l9.03977,7.97683c-0.11862,0.28288 -0.11862,0.54295 -0.11862,0.54295c0,8.18379 -0.18295,16.33693 -0.18295,24.51518c0,4.63471 0,9.26942 0,13.90413l0.4553,1.37898c0,0 0.0003,0.00076 0.00091,0.00223z" fill="#cb067f" stroke="none" stroke-width="0"/><path d="" fill="#cb067f" stroke="none" stroke-width="0"/><path d="" fill="#cb067f" stroke="none" stroke-width="0"/><path d="" fill="#cb067f" stroke="none" stroke-width="0"/><path d="M155.40364,-27.02941l66.61828,58.78503l-31.97677,28.21681l-39.49954,-34.85502c0,-15.95334 0,-31.90668 0,-47.86002z" fill="#cb067f" stroke="none" stroke-width="0"/><path d="" fill="#cb067f" stroke="none" stroke-width="0"/><path d="M249.31564,317.51035v-8.8122h18.07483v8.8122z" data-paper-data="{&quot;index&quot;:null}" fill="none" stroke="#cb067f" stroke-width="20"/><path d="M206.81346,355.15128c-23.17048,0 -41.95386,-18.78338 -41.95386,-41.95386c0,-23.17048 18.78338,-41.95387 41.95386,-41.95387c23.17048,0 41.95386,18.78339 41.95386,41.95387c0,23.17048 -18.78338,41.95386 -41.95386,41.95386z" data-paper-data="{&quot;index&quot;:null}" fill="none" stroke="#cb067f" stroke-width="20"/><path d="M340.13811,263.02139c-0.0403,-9.20324 -0.09062,-18.40641 -0.15067,-27.60948l99.08782,-35.20888c0.70137,0.15584 1.43047,0.23804 2.17876,0.23804c1.05933,0 2.0802,-0.16472 3.03837,-0.46994v26.04111z" fill="#df9859" stroke="none" stroke-width="0"/><path d="" fill="#df9859" stroke="none" stroke-width="0"/><path d="" fill="#df9859" stroke="none" stroke-width="0"/><path d="M340.25289,306.60139c-0.00794,-9.2145 -0.0264,-18.429 -0.05507,-27.64345l104.09458,-36.98792v27.663z" fill="#df9859" stroke="none" stroke-width="0"/><path d="" fill="#df9859" stroke="none" stroke-width="0"/><path d="" fill="#df9859" stroke="none" stroke-width="0"/><path d="M340.20895,350.85125c0.02653,-9.22652 0.04203,-18.45308 0.04681,-27.67965l104.03663,-36.96733v27.66301z" fill="#df9859" stroke="none" stroke-width="0"/><path d="" fill="#df9859" stroke="none" stroke-width="0"/><path d="M491.75127,297.00372l-3.67415,1.30554c0.00972,-3.85665 0.01869,-7.7133 0.0269,-11.56996z" fill="#df9859" stroke="none" stroke-width="0"/><path d="" fill="#df9859" stroke="none" stroke-width="0"/><path d="M340.01175,392.73378c0.06066,-9.23841 0.10981,-18.47694 0.14775,-27.71553l104.1329,-37.00153v27.66301z" fill="#df9859" stroke="none" stroke-width="0"/><path d="" fill="#df9859" stroke="none" stroke-width="0"/><path d="M488.01194,320.83334c0.0301,-9.21179 0.056,-18.42361 0.07762,-27.63544l87.70721,31.165c0,9.28498 0,18.51725 0,27.66301z" data-paper-data="{&quot;index&quot;:null}" fill="#cb067f" stroke="none" stroke-width="0"/><path d="" data-paper-data="{&quot;index&quot;:null}" fill="#cb067f" stroke="none" stroke-width="0"/><path d="M488.1227,277.25191c0.01667,-9.21661 0.02902,-18.43324 0.03695,-27.64987l87.63712,31.14009c0,9.23184 0,18.46364 0,27.663z" data-paper-data="{&quot;index&quot;:null}" fill="#cb067f" stroke="none" stroke-width="0"/><path d="" data-paper-data="{&quot;index&quot;:null}" fill="#cb067f" stroke="none" stroke-width="0"/><path d="M488.16915,233.03416c0.00262,-9.22167 0.00078,-18.44334 -0.00561,-27.665l87.63323,31.13871c0,9.17975 0,18.41165 0,27.66301z" data-paper-data="{&quot;index&quot;:null}" fill="#cb067f" stroke="none" stroke-width="0"/><path d="" data-paper-data="{&quot;index&quot;:null}" fill="#cb067f" stroke="none" stroke-width="0"/><path d="M488.15015,191.21497c-0.01107,-9.22659 -0.02673,-18.45318 -0.04707,-27.67974l87.69369,31.16019c0,9.12596 0,18.35855 0,27.66301z" data-paper-data="{&quot;index&quot;:null}" fill="#cb067f" stroke="none" stroke-width="0"/><path d="" data-paper-data="{&quot;index&quot;:null}" fill="#cb067f" stroke="none" stroke-width="0"/><path d="M400.29006,54.20688v-31.13278h33.38335v31.13278z" fill="#df9859" stroke="none" stroke-width="0"/><path d="M333.52336,-22.60503v-33.75844h36.75919v33.75844z" fill="#cb067f" stroke="none" stroke-width="0"/><path d="M626.54538,66.26869v-49.4669h28.6292v49.46691z" data-paper-data="{&quot;index&quot;:null}" fill="#ffae66" stroke="#df9859" stroke-width="2.5"/><path d="M639.77535,14.67315v-5.58088h3.59759v5.58088z" data-paper-data="{&quot;index&quot;:null}" fill="#df9859" stroke="#df9859" stroke-width="2.5"/><path d="M659.59566,2.73614c9.65862,0 17.48848,2.25972 17.48848,5.04723c0,2.7875 -7.82986,5.04722 -17.48848,5.04722c-9.65862,0 -17.48848,-5.04722 -17.48848,-5.04722c0,0 7.82986,-5.04723 17.48848,-5.04723z" data-paper-data="{&quot;index&quot;:null}" fill="#ffca9b" stroke="#df9859" stroke-width="2.5"/><path d="M642.23577,7.84766c0,0 -7.82986,5.04723 -17.48848,5.04723c-9.65861,0 -17.48848,-2.25972 -17.48848,-5.04723c0,-2.7875 7.82986,-5.04722 17.48848,-5.04722c9.65861,0 17.48848,5.04722 17.48848,5.04722z" data-paper-data="{&quot;index&quot;:null}" fill="#ffca9b" stroke="#df9859" stroke-width="2.5"/><path d="M632.84975,40.59291l11.68186,-14.70167l3.86021,3.0673l-11.68186,14.70167z" data-paper-data="{&quot;index&quot;:null}" fill="#df9859" stroke="#df9859" stroke-width="2.5"/><path d="M636.91977,37.43066l11.68187,14.70167l-3.86021,3.06731l-11.68187,-14.70167z" data-paper-data="{&quot;index&quot;:null}" fill="#df9859" stroke="#df9859" stroke-width="2.5"/></g></g></svg>