<svg version="1.1" xmlns="http://www.w3.org/2000/svg" xmlns:xlink="http://www.w3.org/1999/xlink" width="762.66397" height="464.00002" viewBox="0,0,762.66397,464.00002"><g transform="translate(84.32983,76.99999)"><g data-paper-data="{&quot;isPaintingLayer&quot;:true}" fill-rule="nonzero" stroke-linecap="butt" stroke-linejoin="miter" stroke-miterlimit="10" stroke-dasharray="" stroke-dashoffset="0" style="mix-blend-mode: normal"><path d="M84.5,386.00003v-88h367v88z" fill="#ffae66" stroke="#df9859" stroke-width="2"/><path d="M89.90579,366.02997l-5.99304,-5.99304c0.16941,-8.8607 0.16299,-17.72627 -0.00141,-26.58728l26.88913,-26.88913l19.28739,19.28738z" fill="#df9859" stroke="none" stroke-width="0"/><path d="M92.59826,326.80213l19.28739,-19.28738l40.18206,40.18206l-19.28738,19.28739z" data-paper-data="{&quot;index&quot;:null}" fill="#df9859" stroke="none" stroke-width="0"/><path d="M170.25203,364.56231l-19.28739,19.28738l-40.18206,-40.18206l19.28738,-19.28739z" data-paper-data="{&quot;index&quot;:null}" fill="#df9859" stroke="none" stroke-width="0"/><path d="M172.9445,323.42601l19.28738,19.28739l-40.18206,40.18206l-19.28739,-19.28738z" data-paper-data="{&quot;index&quot;:null}" fill="#df9859" stroke="none" stroke-width="0"/><path d="M170.41644,364.14289l-19.28738,-19.28739l40.18206,-40.18206l19.28739,19.28738z" fill="#df9859" stroke="none" stroke-width="0"/><path d="M173.1089,324.91504l19.28739,-19.28738l40.18206,40.18206l-19.28738,19.28739z" data-paper-data="{&quot;index&quot;:null}" fill="#df9859" stroke="none" stroke-width="0"/><path d="M250.76268,362.67523l-19.28739,19.28738l-40.18206,-40.18206l19.28738,-19.28739z" data-paper-data="{&quot;index&quot;:null}" fill="#df9859" stroke="none" stroke-width="0"/><path d="M253.45515,321.53891l19.28738,19.28739l-40.18206,40.18206l-19.28739,-19.28738z" data-paper-data="{&quot;index&quot;:null}" fill="#df9859" stroke="none" stroke-width="0"/><path d="M250.54112,363.57462l-19.28738,-19.28739l40.18206,-40.18206l19.28739,19.28738z" fill="#df9859" stroke="none" stroke-width="0"/><path d="M253.23359,324.34676l19.28739,-19.28738l40.18206,40.18206l-19.28738,19.28739z" data-paper-data="{&quot;index&quot;:null}" fill="#df9859" stroke="none" stroke-width="0"/><path d="M330.88737,362.10697l-19.28739,19.28738l-40.18206,-40.18206l19.28738,-19.28739z" data-paper-data="{&quot;index&quot;:null}" fill="#df9859" stroke="none" stroke-width="0"/><path d="M333.57983,320.97067l19.28738,19.28739l-40.18206,40.18206l-19.28739,-19.28738z" data-paper-data="{&quot;index&quot;:null}" fill="#df9859" stroke="none" stroke-width="0"/><path d="M331.05177,361.68755l-19.28738,-19.28739l40.18206,-40.18206l19.28739,19.28738z" fill="#df9859" stroke="none" stroke-width="0"/><path d="M333.74422,322.45966l19.28739,-19.28738l40.18206,40.18206l-19.28738,19.28739z" data-paper-data="{&quot;index&quot;:null}" fill="#df9859" stroke="none" stroke-width="0"/><path d="M411.39801,360.21989l-19.28739,19.28738l-40.18206,-40.18206l19.28738,-19.28739z" data-paper-data="{&quot;index&quot;:null}" fill="#df9859" stroke="none" stroke-width="0"/><path d="M414.09048,319.0836l19.28738,19.28739l-40.18206,40.18206l-19.28739,-19.28738z" data-paper-data="{&quot;index&quot;:null}" fill="#df9859" stroke="none" stroke-width="0"/><path d="M169.5,117.00002v-61h36v61z" fill="#ffae66" stroke="#df9859" stroke-width="2"/><path d="M169.39466,74.3603v-11.79907h36.03501v11.79907z" fill="#df9859" stroke="none" stroke-width="0"/><path d="M295.5,123.00001v-19h85v19z" fill="#ffae66" stroke="#df9859" stroke-width="2"/><path d="M400.5,370.00001v-155h69v155z" fill="#ffae66" stroke="#df9859" stroke-width="2"/><path d="M144.5,143.00001v-39h174v39z" fill="#fff866" stroke="#f2eb61" stroke-width="2"/><path d="M467.5,148.00001v-27h103v27z" fill="#fff866" stroke="#f2eb61" stroke-width="2"/><path d="M30.5,22.00001v-26h89v26z" fill="#ffae66" stroke="#df9859" stroke-width="2"/><path d="M-83.08176,-75.99999c1.46258,0.87426 3.16713,1.38557 4.98927,1.40953c0.04514,0.0002 0.08988,0.00049 0.13416,0.00088c27.41107,0.24352 54.82431,0.33965 82.23687,0.27075c-0.07664,7.93979 0.00231,15.88195 0.22145,23.81779v0.50105h-87.54661c0.04036,-8.60663 -0.0516,-17.21432 -0.26349,-25.81714c0,-0.06108 -0.00055,-0.12203 -0.00164,-0.18286z" fill="#fff866" stroke="#f2eb61" stroke-width="2"/><path d="M360.23056,122.40968v-17.53916h12.11797v17.53916z" fill="#df9859" stroke="none" stroke-width="0"/><path d="M399.77742,258.09931c-0.03058,-6.74827 -0.07057,-13.49647 -0.1197,-20.24457l70.96749,-20.91674c-0.0573,6.77402 -0.10551,13.54816 -0.14434,20.32239z" fill="#df9859" stroke="none" stroke-width="0"/><path d="M401.53477,293.41006l-1.68439,-5.71488c-0.00174,-4.68761 -0.00821,-9.37523 -0.01931,-14.06283l70.57713,-20.80168c-0.02429,6.76424 -0.03904,13.52852 -0.04399,20.29281z" fill="#df9859" stroke="none" stroke-width="0"/><path d="M400.15689,331.25612l-0.42057,-1.42693c0.03652,-6.25109 0.06416,-12.50226 0.08313,-18.75347l70.55344,-20.79469c0.01182,6.75354 0.03365,13.50704 0.06574,20.26047z" fill="#df9859" stroke="none" stroke-width="0"/><path d="M467.87932,139.41465v-10.2046h101.40825v10.2046z" fill="#f2eb61" stroke="none" stroke-width="0"/><path d="M512.52446,147.38699v-25.8304h14.66912v25.8304z" fill="#f2eb61" stroke="none" stroke-width="0"/><path d="M271.57997,103.88326c9.50968,-0.02834 19.0193,-0.06893 28.52882,-0.12212l-23.26349,39.71502c-9.46359,-0.04604 -18.92724,-0.08388 -28.39092,-0.11329z" fill="#f2eb61" stroke="none" stroke-width="0"/><path d="M217.05575,103.91389c9.4825,0.01717 18.96504,0.02283 28.44755,0.01662l-23.06309,39.37291c-9.48279,-0.0138 -18.9656,-0.01893 -28.44841,-0.01516z" fill="#f2eb61" stroke="none" stroke-width="0"/><path d="M153.81384,103.60665c0.22878,0.01807 0.45973,0.02845 0.69259,0.03086c0.03556,0.00013 0.07087,0.00031 0.10589,0.00055c9.18187,0.06395 18.36386,0.11782 27.54593,0.1613l-23.1631,39.54364c-4.98347,0.01367 -9.96692,0.02988 -14.95036,0.04865c0.03209,-7.66021 0.0061,-15.32083 -0.07432,-22.98058z" fill="#f2eb61" stroke="none" stroke-width="0"/><path d="M45.9777,-5.03563c7.90759,0.06985 15.81546,0.12033 23.72343,0.15062l-9.89988,26.97211c-7.92996,-0.0067 -15.85993,0.00318 -23.78981,0.03023z" fill="#df9859" stroke="none" stroke-width="0"/><path d="M84.8773,-4.85186c7.93251,0.00415 15.86503,-0.01253 23.79738,-0.05086l-9.96634,27.1532c-7.91013,-0.05923 -15.82044,-0.10291 -23.73083,-0.13046z" fill="#df9859" stroke="none" stroke-width="0"/><path d="M-0.29128,-48.26312c-9.45087,-0.08659 -18.90213,-0.14565 -28.35352,-0.17717l15.1459,-25.85682c5.92583,0.00035 11.85165,-0.00683 17.77744,-0.02173c-0.05825,6.03448 -0.02662,12.07034 0.08812,18.10374z" fill="#f2eb61" stroke="none" stroke-width="0"/><path d="M-63.61466,-48.4313c-6.48061,0.02495 -12.96114,0.06284 -19.44152,0.11368c0.03448,-5.14739 0.02134,-10.2953 -0.03677,-15.44247l6.33728,-10.8189c9.44767,0.08245 18.89559,0.14735 28.34365,0.194z" fill="#f2eb61" stroke="none" stroke-width="0"/><path d="M626.54538,66.2687v-49.4669h28.6292v49.46691z" data-paper-data="{&quot;index&quot;:null}" fill="#ffae66" stroke="#df9859" stroke-width="2.5"/><path d="M639.77535,14.67315v-5.58088h3.59759v5.58088z" data-paper-data="{&quot;index&quot;:null}" fill="#df9859" stroke="#df9859" stroke-width="2.5"/><path d="M659.59566,2.73614c9.65862,0 17.48848,2.25972 17.48848,5.04723c0,2.7875 -7.82986,5.04722 -17.48848,5.04722c-9.65862,0 -17.48848,-5.04722 -17.48848,-5.04722c0,0 7.82986,-5.04723 17.48848,-5.04723z" data-paper-data="{&quot;index&quot;:null}" fill="#ffca9b" stroke="#df9859" stroke-width="2.5"/><path d="M642.23577,7.84766c0,0 -7.82986,5.04723 -17.48848,5.04723c-9.65861,0 -17.48848,-2.25972 -17.48848,-5.04723c0,-2.7875 7.82986,-5.04722 17.48848,-5.04722c9.65861,0 17.48848,5.04722 17.48848,5.04722z" data-paper-data="{&quot;index&quot;:null}" fill="#ffca9b" stroke="#df9859" stroke-width="2.5"/><path d="M632.84975,40.59291l11.68186,-14.70167l3.86021,3.0673l-11.68186,14.70167z" data-paper-data="{&quot;index&quot;:null}" fill="#df9859" stroke="#df9859" stroke-width="2.5"/><path d="M636.91977,37.43066l11.68187,14.70167l-3.86021,3.06731l-11.68187,-14.70167z" data-paper-data="{&quot;index&quot;:null}" fill="#df9859" stroke="#df9859" stroke-width="2.5"/></g></g></svg>