<svg version="1.1" xmlns="http://www.w3.org/2000/svg" xmlns:xlink="http://www.w3.org/1999/xlink" width="400.11907" height="240.93402" viewBox="0,0,400.11907,240.93402"><g transform="translate(13.22124,-148.37837)"><g data-paper-data="{&quot;isPaintingLayer&quot;:true}" fill-rule="nonzero" stroke-linecap="butt" stroke-linejoin="miter" stroke-miterlimit="10" stroke-dasharray="" stroke-dashoffset="0" style="mix-blend-mode: normal"><path d="M-12.22124,365.80696v-56.80925h344.64278v56.80925z" fill="#ff76ca" stroke="#cb067f" stroke-width="2"/><path d="M316.77991,375.27514v-112.67168h69.11792v112.67168z" fill="#ff76ca" stroke="#cb067f" stroke-width="2"/><path d="M116.87231,188.19802v-38.81965h127.82081v38.81965z" fill="#ff76ca" stroke="#cb067f" stroke-width="2"/><path d="M173.20327,314.18823c0,-0.58756 0,-2.70254 0,-3.04804c0,-0.09336 0.75665,-0.17256 1.48398,-0.17256c1.62596,0 8.0495,0 10.48985,0c0.59022,0 0.94744,0.05066 0.94744,0.1154c0,0.29505 0,2.48033 0,3.09566c0,0.10197 -0.53053,0.16083 -1.08637,0.16083c-1.47846,0 -8.25996,0 -10.83719,0c-0.62083,0 -0.9977,-0.05524 -0.9977,-0.1513z" fill="#bbc9e4" stroke="none" stroke-width="0"/><path d="M170.84516,311.76691c0,-5.47847 0,-25.19852 0,-28.41995c0,-0.87045 1.08445,-1.60892 2.12688,-1.60892c2.33036,0 11.53674,0 15.03432,0c0.84592,0 1.35789,0.47233 1.35789,1.07604c0,2.75106 0,23.12665 0,28.864c0,0.95074 -0.76037,1.49952 -1.55702,1.49952c-2.11897,0 -11.83838,0 -15.53214,0c-0.88979,0 -1.42993,-0.51501 -1.42993,-1.4107z" fill="#f3079a" stroke="none" stroke-width="0"/><path d="M173.83211,283.33763c0,-0.58756 0,-2.70254 0,-3.04804c0,-0.09336 0.75665,-0.17256 1.48399,-0.17256c1.62596,0 8.0495,0 10.48985,0c0.59022,0 0.94744,0.05066 0.94744,0.1154c0,0.29505 0,2.48033 0,3.09566c0,0.10197 -0.53053,0.16083 -1.08637,0.16083c-0.73213,0 -2.76466,0 -4.94312,0c-2.22073,0 -4.59308,0 -5.89408,0c-0.62083,0 -0.9977,-0.05524 -0.9977,-0.1513z" fill="#bbc9e4" stroke="none" stroke-width="0"/><path d="M109.37037,346.95725l-21.56963,-21.56963l9.68432,-9.68432l21.56963,21.56963z" fill="#ffffff" stroke="none" stroke-width="0"/><path d="M88.42328,349.72356l21.56963,-21.56963l9.68432,9.68432l-21.56963,21.56963z" fill="#ffffff" stroke="none" stroke-width="0"/><path d="M41.86022,389.31239h-17.8125v-81.5625h17.8125z" fill="#cb0680" stroke="none" stroke-width="0"/><path d="M168.11022,389.31239h-17.8125v-81.5625h17.8125z" fill="#cb0680" stroke="none" stroke-width="0"/><path d="M226.87037,347.58225l-21.56963,-21.56963l9.68432,-9.68432l21.56963,21.56963z" fill="#ffffff" stroke="none" stroke-width="0"/><path d="M205.92328,350.34856l21.56963,-21.56963l9.68432,9.68432l-21.56963,21.56963z" fill="#ffffff" stroke="none" stroke-width="0"/><path d="M365.44168,317.57643l-39.54491,-19.6877l8.83937,-17.75485l39.54491,19.6877z" fill="#ffffff" stroke="none" stroke-width="0"/><path d="M337.9535,331.01678l19.6877,-39.54491l17.75485,8.83937l-19.6877,39.54491z" fill="#ffffff" stroke="none" stroke-width="0"/></g></g></svg>