<svg version="1.1" xmlns="http://www.w3.org/2000/svg" xmlns:xlink="http://www.w3.org/1999/xlink" width="530.5" height="213" viewBox="0,0,530.5,213"><g transform="translate(-70.50002,13)"><g data-paper-data="{&quot;isPaintingLayer&quot;:true}" fill-rule="nonzero" stroke-linecap="butt" stroke-linejoin="miter" stroke-miterlimit="10" stroke-dasharray="" stroke-dashoffset="0" style="mix-blend-mode: normal"><path d="M71.50002,155h528.5v44h-45.32107c-0.62773,-0.07739 -1.01899,-0.07739 -1.01899,-0.07739c-67.80175,0 -135.6035,0 -203.40525,0c-88.1551,0 -176.31019,0 -264.46529,0c-4.35994,0 -9.21687,0 -14.28939,0z" fill="#fff866" stroke="#f2eb61" stroke-width="2"/><path d="M168.50002,16v-28h87v28z" fill="#fff866" stroke="#f2eb61" stroke-width="2"/><path d="M97.21715,154.62987c11.74835,0.02665 23.4967,0.05146 35.24506,0.07441l-25.90135,44.21833c-6.92382,0 -13.84763,0 -20.77145,0c-4.42517,0 -9.36231,0 -14.5172,0z" fill="#f2eb61" stroke="none" stroke-width="0"/><path d="M181.36054,154.78897c11.7536,0.01774 23.50721,0.03358 35.26082,0.04749l-25.82392,44.08614c-11.76288,0 -23.52577,0 -35.28865,0z" fill="#f2eb61" stroke="none" stroke-width="0"/><path d="M266.35234,154.8838c11.75909,0.00844 23.51818,0.01493 35.27728,0.01942l-25.78482,44.01939c-11.76289,0 -23.52577,0 -35.28866,0z" fill="#f2eb61" stroke="none" stroke-width="0"/><path d="M350.57334,154.9104c11.7647,-0.00107 23.52939,-0.00414 35.29408,-0.00928l-25.78605,44.02149c-3.27556,0 -6.55112,0 -9.82668,0c-8.48733,0 -16.97465,0 -25.46198,0z" fill="#f2eb61" stroke="none" stroke-width="0"/></g></g></svg>