<svg version="1.1" xmlns="http://www.w3.org/2000/svg" xmlns:xlink="http://www.w3.org/1999/xlink" width="664.26678" height="450.77636" viewBox="0,0,664.26678,450.77636"><g transform="translate(52.80631,27.47285)"><g data-paper-data="{&quot;isPaintingLayer&quot;:true}" fill-rule="nonzero" stroke-linecap="butt" stroke-linejoin="miter" stroke-miterlimit="10" stroke-dasharray="" stroke-dashoffset="0" style="mix-blend-mode: normal"><path d="M-29.83826,328.52636v-354.2492h541.52157v354.24921z" fill="#aefff5" stroke="#000000" stroke-width="3.5"/><path d="M344.17133,318.76598c0,34.13623 -51.62851,61.8091 -115.3155,61.8091c-12.0094,0 -51.08669,-0.46642 -74.89921,-11.90045c-28.12213,-13.50337 -40.41628,-39.02622 -40.41628,-49.90865c0,-34.13623 51.6285,-61.80911 115.3155,-61.80911c63.68699,0 115.3155,27.67288 115.3155,61.80911z" fill="#ffffff" stroke="#ebebeb" stroke-width="3.5"/><path d="M422.97325,359.74441c0,34.13623 -51.62851,61.8091 -115.31549,61.8091c-63.68699,0 -115.3155,-27.67288 -115.3155,-61.8091c0,-34.13623 51.62851,-61.8091 115.3155,-61.8091c63.68699,0 115.3155,27.67288 115.3155,61.8091z" fill="#ffffff" stroke="#ebebeb" stroke-width="3.5"/><path d="M609.71047,326.92093c0,34.13623 -51.62851,61.8091 -115.31549,61.8091c-63.68699,0 -115.31549,-27.67288 -115.31549,-61.8091c0,-34.13623 51.62851,-61.8091 115.3155,-61.8091c63.68699,0 115.3155,27.67288 115.3155,61.8091z" fill="#ffffff" stroke="#ebebeb" stroke-width="3.5"/><path d="M179.57468,326.68131c0,34.13623 -51.6285,61.8091 -115.31549,61.8091c-63.68699,0 -115.31549,-27.67288 -115.31549,-61.8091c0,-34.13623 51.62851,-61.8091 115.3155,-61.8091c63.68699,0 115.3155,27.67288 115.3155,61.8091z" fill="#ffffff" stroke="#ebebeb" stroke-width="3.5"/><path d="M136.48092,287.49069c0,5.48442 6.73775,9.93042 15.04919,9.93042c8.31144,0 15.04919,-4.446 15.04919,-9.93042c0,-5.48442 -6.73775,-9.93042 -15.04919,-9.93042c-8.31144,0 -15.04919,4.446 -15.04919,9.93042z" fill="#ffffff" stroke="none" stroke-width="0"/><path d="M337.57396,302.5482c0,4.03608 -5.09806,7.30798 -11.38685,7.30798c-6.28878,0 -11.38685,-3.27189 -11.38685,-7.30798c0,-4.03608 5.09806,-7.30798 11.38685,-7.30798c6.28878,0 11.38685,3.27189 11.38685,7.30798z" fill="#ffffff" stroke="none" stroke-width="0"/><path d="M384.95135,318.74522c0,3.10895 -2.72745,5.62926 -6.09193,5.62926c-3.36448,0 -6.09193,-2.5203 -6.09193,-5.62926c0,-3.10895 2.72745,-5.62926 6.09193,-5.62926c3.36448,0 6.09193,2.5203 6.09193,5.62926z" fill="#ffffff" stroke="none" stroke-width="0"/><path d="M372.90085,388.96463v-68.0359h66.023v68.0359z" fill="#ffffff" stroke="none" stroke-width="0"/><path d="M188.51953,379.30273v-86.15197h132.85117v86.15197z" fill="#ffffff" stroke="none" stroke-width="0"/><path d="M153.09256,378.09499v-89.77518h51.53015v89.77518z" fill="#ffffff" stroke="none" stroke-width="0"/></g></g></svg>