<svg version="1.1" xmlns="http://www.w3.org/2000/svg" xmlns:xlink="http://www.w3.org/1999/xlink" width="549.04276" height="444.05863" viewBox="0,0,549.04276,444.05863"><defs><radialGradient cx="395.62656" cy="119.53348" r="31.93721" gradientUnits="userSpaceOnUse" id="color-1"><stop offset="0" stop-color="#ffd144"/><stop offset="1" stop-color="#ffb06a"/></radialGradient></defs><g transform="translate(28.06983,29.47023)"><g data-paper-data="{&quot;isPaintingLayer&quot;:true}" fill-rule="nonzero" stroke-linejoin="miter" stroke-miterlimit="10" stroke-dasharray="" stroke-dashoffset="0" style="mix-blend-mode: normal"><path d="M-28.06983,414.5884v-438.66327h549.04276v438.66328z" fill="#9effff" stroke="#ffffff" stroke-width="0" stroke-linecap="butt"/><path d="M149.60302,180.00005c0,-49.92487 40.47211,-90.39698 90.39699,-90.39698c49.92487,0 90.39698,40.47211 90.39698,90.39699c0,49.92487 -40.47211,90.39698 -90.39698,90.39698c-49.92487,0 -90.39698,-40.47211 -90.39698,-90.39698z" fill="none" stroke="#17cece" stroke-width="25" stroke-linecap="butt"/><path d="M43.02973,180.00005c0,-108.78368 88.1866,-196.97027 196.97027,-196.97027c108.78368,0 196.97027,88.1866 196.97027,196.97027c0,108.78368 -88.1866,196.97027 -196.97027,196.97027c-108.78368,0 -196.97027,-88.1866 -196.97027,-196.97027z" fill="none" stroke="#17cece" stroke-width="25" stroke-linecap="butt"/><text transform="translate(68.23527,64.90309) scale(1.02005,1.02005)" font-size="40" xml:space="preserve" fill="#ff3c3c" fill-rule="nonzero" stroke="#000000" stroke-width="2" stroke-linecap="butt" stroke-linejoin="miter" stroke-miterlimit="10" stroke-dasharray="" stroke-dashoffset="0" font-family="Sans Serif" font-weight="normal" text-anchor="start" style="mix-blend-mode: normal"><tspan x="0" dy="0">Choose Your Level</tspan></text><path d="M52.95155,174.25678v-90h90v90z" fill="#ffffff" stroke="#000000" stroke-width="5" stroke-linecap="butt"/><path d="M198.95155,175.25678v-90h90v90z" fill="#ffffff" stroke="#000000" stroke-width="5" stroke-linecap="butt"/><path d="M346.95155,176.25678v-90h90v90z" fill="#ffffff" stroke="#000000" stroke-width="5" stroke-linecap="butt"/><path d="M52.61822,300.25676v-90h90v90z" fill="#ffffff" stroke="#000000" stroke-width="5" stroke-linecap="butt"/><path d="M199.11822,299.25676v-90h90v90z" fill="#ffffff" stroke="#000000" stroke-width="5" stroke-linecap="butt"/><path d="M115.92773,274.3426c0,3.84322 -6.01936,6.95877 -13.44462,6.95877c-7.42526,0 -13.44462,-3.11555 -13.44462,-6.95877c0,-3.84322 6.01936,-6.95877 13.44462,-6.95877c7.42526,0 13.44462,3.11555 13.44462,6.95877z" fill="#ff66ab" stroke="#ff66ab" stroke-width="5" stroke-linecap="butt"/><path d="M115.68562,263.56099c0,3.84322 -6.01936,6.95877 -13.44462,6.95877c-7.42526,0 -13.44462,-3.11555 -13.44462,-6.95877c0,-3.84322 6.01936,-6.95877 13.44462,-6.95877c7.42526,0 13.44462,3.11555 13.44462,6.95877z" fill="#ff66ab" stroke="#e65c9a" stroke-width="5" stroke-linecap="butt"/><path d="M116.11912,252.23888c0,3.84322 -6.01936,6.95877 -13.44462,6.95877c-7.42526,0 -13.44462,-3.11555 -13.44462,-6.95877c0,-3.84322 6.01936,-6.95877 13.44462,-6.95877c7.42526,0 13.44462,3.11555 13.44462,6.95877z" fill="#ff66ab" stroke="#e65c9a" stroke-width="5" stroke-linecap="butt"/><path d="M92.65952,144.44816c-0.44741,0.44741 -2.05793,2.05793 -2.32102,2.32102c-0.07109,0.07109 -0.64536,-0.38255 -1.13939,-0.87659c-1.10442,-1.10442 -5.46756,-5.46756 -7.12515,-7.12515c-0.4009,-0.4009 -0.60497,-0.68211 -0.55566,-0.73142c0.22468,-0.22468 1.88872,-1.88872 2.35729,-2.35729c0.07765,-0.07765 0.48282,0.23789 0.86038,0.61545c1.00424,1.00424 5.61052,5.61052 7.36109,7.36109c0.4217,0.4217 0.63563,0.71974 0.56248,0.79289z" fill="#bbc9e4" stroke="none" stroke-width="0" stroke-linecap="butt"/><path d="M92.41748,147.89369c-4.17175,4.17175 -19.18818,19.18818 -21.64124,21.64124c-0.66283,0.66283 -1.96177,0.48855 -2.66983,-0.21951c-1.58288,-1.58288 -7.83625,-7.83625 -10.21196,-10.21196c-0.57458,-0.57458 -0.56266,-1.28201 -0.10295,-1.74172c2.09488,-2.09488 17.61049,-17.61049 21.97937,-21.97937c0.72397,-0.72397 1.65833,-0.62537 2.19945,-0.08425c1.43929,1.43929 8.04113,8.04113 10.5501,10.5501c0.60439,0.60439 0.5791,1.36344 -0.10295,2.04549z" fill="#f3079a" stroke="none" stroke-width="0" stroke-linecap="butt"/><path d="M103.20894,157.30167l-0.19602,-0.19602c-9.37209,-9.73119 -18.93644,-19.28007 -28.66016,-28.66016l-6.26346,-6.26346l31.49258,-31.49258c0.03905,0.04301 0.07852,0.08575 0.11845,0.12823c0.07511,0.07672 0.14858,0.15232 0.21982,0.22673c11.33509,11.84138 22.91772,23.45243 34.77214,34.77391z" fill="#f3079a" stroke="none" stroke-width="0" stroke-linecap="butt"/><path d="M134.43949,125.83545c4.10051,4.10051 0.35428,14.49496 -8.36743,23.21667c-7.84196,7.84196 -17.03622,11.66155 -21.79189,9.37171c-0.83555,-0.87065 -1.67263,-1.73982 -2.51123,-2.60756c-2.11257,-4.8044 1.70891,-13.86844 9.45388,-21.6134c8.72171,-8.72171 19.11617,-12.46793 23.21667,-8.36743z" fill="#f3079a" stroke="none" stroke-width="0" stroke-linecap="butt"/><path d="M106.54712,97.91158c1.43345,1.47329 2.87086,2.94276 4.31228,4.40832l-24.14525,38.22998c-1.45218,-1.44383 -2.90834,-2.88366 -4.36837,-4.31952z" fill="#ffffff" stroke="none" stroke-width="0" stroke-linecap="butt"/><path d="M113.86256,105.36175c1.44386,1.45688 2.89173,2.90978 4.3437,4.35859l-24.1351,38.2139c-1.44139,-1.46068 -2.88697,-2.91725 -4.33664,-4.36976z" fill="#ffffff" stroke="none" stroke-width="0" stroke-linecap="butt"/><path d="M121.32884,112.82353c1.4547,1.4398 2.9135,2.87543 4.37643,4.30678l-24.2369,38.3751c-1.43002,-1.47844 -2.86444,-2.95269 -4.30317,-4.42277z" fill="#ffffff" stroke="none" stroke-width="0" stroke-linecap="butt"/><path d="M91.89523,114.40391c-8.72171,8.72171 -19.11617,12.46793 -23.21667,8.36743c-4.10051,-4.10051 -0.35428,-14.49496 8.36743,-23.21667c8.1772,-8.1772 17.8248,-11.98078 22.37702,-9.04438c0.08995,0.10392 0.18238,0.20643 0.27732,0.30744c0.07511,0.07672 0.14858,0.15232 0.21982,0.22673c0.38495,0.40215 0.77018,0.80402 1.15571,1.20563c2.67687,4.63846 -1.13472,14.10791 -9.18062,22.15381z" fill="#f269be" stroke="none" stroke-width="0" stroke-linecap="butt"/><path d="M233.36202,138.70398l12.84037,-50.88281l-10.92584,50.76716" fill="none" stroke="#ff79e0" stroke-width="3.5" stroke-linecap="round"/><path d="M231.98336,139.61892c0.27153,-1.2566 1.51032,-2.05515 2.76691,-1.78363c1.2566,0.27153 2.05515,1.51032 1.78363,2.76691c-0.27153,1.2566 -1.51032,2.05515 -2.76691,1.78363c-1.2566,-0.27153 -2.05515,-1.51032 -1.78363,-2.76691z" fill="#45beff" stroke="#000000" stroke-width="3.5" stroke-linecap="butt"/><path d="M216.88748,151.36415c0,0 0.83936,-4.79749 4.37787,-7.87089c3.24394,-2.81755 9.02842,-3.97308 12.74851,-3.16924c3.56813,0.77101 8.21997,3.97219 10.00843,7.7168c2.1101,4.41804 1.0317,9.40958 1.0317,9.40958c0,0 -6.5611,-1.2969 -14.33907,-2.97757c-7.77796,-1.68067 -13.82744,-3.10867 -13.82744,-3.10867z" fill="#45beff" stroke="#000000" stroke-width="3.5" stroke-linecap="butt"/><path d="M230.7648,154.24194c7.77796,1.68067 14.28918,3.20844 14.28918,3.20844c0,0 -1.07874,4.99146 -4.82472,8.14412c-3.17498,2.6721 -8.73353,3.66702 -12.30166,2.89601c-3.72008,-0.80384 -8.5114,-4.2446 -10.30261,-8.15015c-1.95386,-4.26019 -0.73753,-8.97623 -0.73753,-8.97623c0,0 6.09936,1.19713 13.87732,2.8778z" data-paper-data="{&quot;index&quot;:null}" fill="#ff79e0" stroke="#000000" stroke-width="3.5" stroke-linecap="butt"/><path d="M410.35557,109.27868l-3.5108,-5.42687l12.44988,-8.05419l3.5108,5.42687z" fill="#cf9b00" stroke="#d7945a" stroke-width="6" stroke-linecap="butt"/><path d="M367.91789,164.80972c-13.82743,-10.95064 -8.3772,-42.3338 2.57343,-56.16124c10.95064,-13.82743 31.03724,-16.15953 44.86467,-5.2089c13.82744,10.95064 16.15953,31.03724 5.2089,44.86467c-10.95064,13.82743 -38.81957,27.4561 -52.64701,16.50545z" fill="url(#color-1)" stroke="#d7945a" stroke-width="6" stroke-linecap="butt"/><path d="M64.3618,293.61825v-11.3994h65.61965v11.3994z" fill="#ead27c" stroke="#d27f04" stroke-width="5" stroke-linecap="butt"/><path d="M58.51596,287.91855c0,-3.14786 2.55184,-5.6997 5.6997,-5.6997c3.14786,0 5.6997,2.55184 5.6997,5.6997c0,3.14786 -2.55184,5.6997 -5.6997,5.6997c-3.14786,0 -5.6997,-2.55184 -5.6997,-5.6997z" fill="#ead27c" stroke="#d27f04" stroke-width="5" stroke-linecap="butt"/><path d="M124.25132,287.88813c0,-3.14786 2.55185,-5.6997 5.6997,-5.6997c3.14786,0 5.6997,2.55185 5.6997,5.6997c0,3.14786 -2.55185,5.6997 -5.6997,5.6997c-3.14786,0 -5.6997,-2.55184 -5.6997,-5.6997z" fill="#ead27c" stroke="#d27f04" stroke-width="5" stroke-linecap="butt"/><path d="M77.30936,284.87881l0.1433,5.90931l-2.76078,-3.06777z" fill="#f59405" stroke="#d27f04" stroke-width="1.5" stroke-linecap="butt"/><path d="M85.31849,284.92399l0.14329,5.9093l-2.76078,-3.06777z" fill="#f4f4f2" stroke="#d27f04" stroke-width="1.5" stroke-linecap="butt"/><path d="M93.12891,284.75293l0.14329,5.9093l-2.76078,-3.06777z" fill="#f59405" stroke="#d27f04" stroke-width="1.5" stroke-linecap="butt"/><path d="M101.61156,284.79805l0.1433,5.9093l-2.76078,-3.06777z" fill="#f4f4f2" stroke="#d27f04" stroke-width="1.5" stroke-linecap="butt"/><path d="M109.33368,284.76752l0.1433,5.9093l-2.76078,-3.06777z" fill="#f59405" stroke="#d27f04" stroke-width="1.5" stroke-linecap="butt"/><path d="M117.81634,284.81266l0.1433,5.9093l-2.76078,-3.06777z" fill="#f4f4f2" stroke="#d27f04" stroke-width="1.5" stroke-linecap="butt"/><path d="M250.25986,277.15294c1.03497,-0.22017 2.10024,-0.32499 3.15836,-0.31869c0,0 0.87996,0.01012 1.23451,0.71296c0.13859,0.19383 0.21221,0.39102 0.24496,0.49656c0.30491,0.66166 0.42707,1.48117 1.01765,1.88252c0.24199,0.16446 0.58791,-0.00284 0.87663,0.04462c1.70114,0.27959 2.69861,0.36878 3.58224,2.26484c2.16816,4.65232 -5.44243,6.51577 -8.43318,5.04973c-2.70416,-1.32555 -2.79415,-5.10888 -3.35358,-7.66705c0,0 -0.05293,-0.24204 -0.01223,-0.54448c-0.17739,-0.65632 0.1277,-1.08839 0.42008,-1.3375c0.1379,-0.12726 0.30292,-0.22801 0.48853,-0.29212zM252.24489,283.2933c0.14007,0.52212 0.2878,1.22347 0.88359,1.46526c1.09481,0.44431 2.5809,-0.13388 3.64586,-0.31007c0.51332,-0.08493 1.52022,-0.13905 1.04466,-1.0876c-0.54588,-1.0888 -2.59628,-0.52682 -3.44286,-1.10524c-0.49819,-0.34038 -1.29414,-1.75005 -1.7752,-2.61575c-0.37833,0.02039 -0.75602,0.06068 -1.12978,0.12136c0.24228,1.17975 0.46318,2.37443 0.77373,3.53206z" fill="#000000" stroke="none" stroke-width="0.5" stroke-linecap="butt"/><path d="M251.44805,279.74559c0.37375,-0.06067 0.7557,-0.1059 1.13403,-0.12628c0.48105,0.86571 1.31827,2.27932 1.81647,2.6197c0.84659,0.57842 2.90005,0.04453 3.44592,1.13333c0.47557,0.94856 -0.53906,1.01281 -1.05239,1.09773c-1.06496,0.17619 -2.58283,0.75695 -3.67764,0.31264c-0.59578,-0.24179 -0.75419,-0.9543 -0.89426,-1.47642c-0.31056,-1.15763 -0.52984,-2.38096 -0.77211,-3.5607z" data-paper-data="{&quot;noHover&quot;:false,&quot;origItem&quot;:[&quot;Path&quot;,{&quot;applyMatrix&quot;:true,&quot;segments&quot;:[[[474.89993,450.30982],[-0.20872,-4.45591],[0.09414,2.0097]],[[476.9475,456.33983],[-1.97393,-1.3528],[3.62734,2.48593]],[[490.4499,458.11125],[-4.01214,-0.20614],[1.93391,0.09936]],[[495.11287,454.98748],[0.97491,3.82694],[-1.11904,-4.39274]],[[483.47386,448.23155],[2.61818,2.77618],[-1.54072,-1.63369]],[[479.09924,437.30959],[1.06073,3.53007],[-1.39176,-0.22668]],[[474.89505,436.85255],[1.40713,0.07657],[-0.05711,4.48202]]],&quot;closed&quot;:true}]}" fill="#ef6dad" stroke="none" stroke-width="0.5" stroke-linecap="butt"/><path d="M241.74781,276.18885c0.74011,0.75623 1.39901,1.59981 1.96023,2.49685c0,0 0.4626,0.74861 0.05885,1.42438c-0.08949,0.22083 -0.21663,0.3886 -0.28823,0.47276c-0.39556,0.61179 -1.02229,1.15376 -1.04506,1.86744c-0.00933,0.29244 0.31718,0.49503 0.43169,0.76427c0.6747,1.58644 1.13345,2.47665 0.0052,4.23816c-2.76837,4.32216 -8.41712,-1.10784 -8.78027,-4.41872c-0.32835,-2.99362 2.81879,-5.09533 4.67984,-6.93753c0,0 0.17608,-0.1743 0.45331,-0.30186c0.45933,-0.50123 0.9876,-0.4749 1.35456,-0.36134c0.18132,0.04833 0.35477,0.13375 0.5083,0.2562zM237.6246,281.15311c-0.36597,0.39785 -0.87922,0.89816 -0.76443,1.53079c0.21094,1.16256 1.49497,2.1081 2.21398,2.9132c0.34658,0.38808 0.9314,1.20951 1.4779,0.29996c0.6273,-1.04401 -0.94517,-2.47484 -0.90993,-3.49956c0.02074,-0.60302 0.78513,-2.03004 1.25872,-2.89985c-0.21979,-0.30861 -0.45606,-0.60603 -0.70741,-0.8892c-0.86666,0.83629 -1.75739,1.66253 -2.56882,2.54465z" fill="#000000" stroke="none" stroke-width="0.5" stroke-linecap="butt"/><path d="M240.19428,278.58054c0.25136,0.28318 0.49405,0.58155 0.71384,0.89016c-0.47358,0.86981 -1.21922,2.3338 -1.23995,2.93681c-0.03524,1.02472 1.51516,2.47316 0.88786,3.51717c-0.5465,0.90954 -1.14403,0.087 -1.4906,-0.30107c-0.71902,-0.80511 -2.02223,-1.77611 -2.23317,-2.93867c-0.11479,-0.63264 0.40217,-1.14794 0.76814,-1.54579c0.81143,-0.88212 1.72721,-1.72232 2.59389,-2.55862z" data-paper-data="{&quot;noHover&quot;:false,&quot;origItem&quot;:[&quot;Path&quot;,{&quot;applyMatrix&quot;:true,&quot;segments&quot;:[[[237.44997,225.15491],[-0.10436,-2.22795],[0.04707,1.00485]],[[238.47375,228.16991],[-0.98697,-0.6764],[1.81367,1.24296]],[[245.22495,229.05563],[-2.00607,-0.10307],[0.96696,0.04968]],[[247.55643,227.49374],[0.48745,1.91347],[-0.55952,-2.19637]],[[241.73693,224.11577],[1.30909,1.38809],[-0.77036,-0.81685]],[[239.54962,218.65479],[0.53037,1.76503],[-0.69588,-0.11334]],[[237.44753,218.42628],[0.70357,0.03829],[-0.02856,2.24101]]],&quot;closed&quot;:true}]}" fill="#ef6dad" stroke="none" stroke-width="0.5" stroke-linecap="butt"/><path d="M265.04025,252.54702c-0.95078,0.77803 -5.68592,1.38251 -6.44974,2.34699c-0.23898,0.94277 -0.76077,-3.89791 -0.38627,-6.48794c0.18884,-1.30601 0.45716,-2.89399 1.25897,-3.99608c0.59928,-0.8237 1.17693,-0.79107 1.80812,-1.47197c0.47063,-0.50771 0.56027,-1.26788 0.89148,-1.87579c1.08126,-1.9846 2.13209,-3.96375 2.48254,-6.27738c-0.28692,-1.89419 -1.66721,-5.06257 -0.12387,-6.76829c0.48411,-0.53504 1.13436,-1.0247 1.84878,-1.12593c0.53653,-0.07602 1.05715,0.27859 1.51938,0.58134c0.10151,-0.36759 0.35508,-0.68421 0.53337,-1.0242c0.23488,-0.44789 0.35435,-0.99054 0.72834,-1.33099c0.95562,-0.86989 2.39592,-1.19639 3.58489,-0.52537c1.45343,0.82027 1.22043,1.71717 1.24964,3.04379c0.05773,2.62101 -0.4113,5.09327 -1.24998,7.57571c-0.19569,1.39469 -0.61996,2.49405 -1.08503,3.79039c-1.24037,3.45745 -1.68029,7.37961 -3.77263,10.50805c-0.70739,1.05767 -2.838,3.03766 -2.838,3.03766z" data-paper-data="{&quot;index&quot;:null}" fill="#ef6dad" stroke="#000000" stroke-width="5" stroke-linecap="butt"/><path d="M233.55947,245.51156c0.44585,-0.86438 1.37844,-0.47765 1.37844,-0.47765l1.42013,0.73958c1.68249,2.27551 0.86976,4.30851 -0.08035,6.74691c-0.47909,1.22955 -1.09932,2.71581 -2.12945,3.60819c-0.76992,0.66697 -1.32526,0.50465 -2.09398,1.02529c-0.57319,0.38821 -0.83229,1.10847 -1.29231,1.62581c-1.50177,1.68892 -2.97268,3.37941 -3.8369,5.55398c-0.14856,1.91003 0.48003,5.30836 -1.40885,6.6212c-0.5925,0.4118 -1.33658,0.74185 -2.0554,0.67901c-0.53983,-0.0472 -0.96684,-0.51028 -1.3487,-0.90966c-0.18194,0.33514 -0.50052,0.58627 -0.75103,0.87718c-0.33002,0.38322 -0.56902,0.88484 -1.01028,1.13197c-1.12747,0.63144 -2.6043,0.62401 -3.61088,-0.29835c-1.23046,-1.1275 -0.8008,-1.94854 -0.52947,-3.24745c0.53607,-2.56625 1.55166,-4.86857 2.92962,-7.09726c0.50581,-1.31439 1.16754,-2.28943 1.91352,-3.44714c1.98961,-3.08771 3.30449,-6.80898 6.04967,-9.38366c0.9281,-0.87045 2.30639,-1.75368 3.45105,-2.31774c1.102,-0.54305 2.04315,-0.66327 3.00518,-1.43019z" fill="#ef6dad" stroke="#000000" stroke-width="5" stroke-linecap="butt"/><path d="M261.46305,249.03773c0,14.82293 1.43405,28.76401 -9.19593,28.76401c-3.89094,0 -14.59613,0.80187 -17.11523,-1.34879c-4.36303,-3.7249 -1.70435,-16.30713 -1.70435,-25.70435c0,-5.79442 -2.34283,-10.97303 -1.69613,-16.43442c0.31129,-2.62881 5.13967,-8.08246 10.92063,-9.65845c3.87071,-1.05523 8.40442,0.68979 11.41895,2.24201c7.05723,3.63384 7.37205,17.77365 7.37205,22.14z" fill="#ef6dad" stroke="#000000" stroke-width="5" stroke-linecap="butt"/><path d="M237.16306,242.34755c0,-5.34929 4.33645,-9.68574 9.68574,-9.68574c5.34929,0 9.68574,4.33645 9.68574,9.68574c0,5.34929 -4.33645,9.68574 -9.68574,9.68574c-5.34929,0 -9.68574,-4.33645 -9.68574,-9.68574z" fill="#f8c8fa" stroke="#000000" stroke-width="5" stroke-linecap="butt"/><path d="M247.28586,240.53586c0,1.88136 -0.83519,3.4065 -1.86546,3.4065c-1.03026,0 -1.86546,-1.52514 -1.86546,-3.4065c0,-1.88136 0.83519,-3.40649 1.86546,-3.40649c1.03026,0 1.86546,1.52513 1.86546,3.40649z" fill="#000000" stroke="none" stroke-width="0" stroke-linecap="butt"/><path d="M252.40596,240.46511c0,1.88136 -0.8352,3.4065 -1.86546,3.4065c-1.03026,0 -1.86546,-1.52514 -1.86546,-3.4065c0,-1.88136 0.83519,-3.40649 1.86546,-3.40649c1.03026,0 1.86546,1.52513 1.86546,3.40649z" fill="#000000" stroke="none" stroke-width="0" stroke-linecap="butt"/><path d="M347.45155,298.42341v-90h90v90z" fill="#ffffff" stroke="#000000" stroke-width="5" stroke-linecap="butt"/><path d="M374.49124,256.92789c0,0 1.17414,-6.711 6.12401,-11.01025c4.53781,-3.94135 12.62947,-5.55777 17.83334,-4.43331c4.9913,1.07853 11.49856,5.55653 14.00036,10.7947c2.95173,6.18021 1.4432,13.16266 1.4432,13.16266c0,0 -9.17804,-1.81418 -20.05831,-4.1652c-10.88026,-2.35102 -19.34261,-4.34859 -19.34261,-4.34859z" fill="#4eff45" stroke="#000000" stroke-width="3.5" stroke-linecap="butt"/><path d="M393.90363,260.9535c10.88026,2.35102 19.98852,4.48815 19.98852,4.48815c0,0 -1.509,6.98234 -6.74909,11.39246c-4.44134,3.73789 -12.21696,5.12964 -17.20827,4.0511c-5.20386,-1.12446 -11.90623,-5.93759 -14.41188,-11.4009c-2.73317,-5.9594 -1.0317,-12.55646 -1.0317,-12.55646c0,0 8.53213,1.67461 19.41239,4.02563z" data-paper-data="{&quot;index&quot;:null}" fill="#ffad78" stroke="#000000" stroke-width="3.5" stroke-linecap="butt"/></g></g></svg>