<svg version="1.1" xmlns="http://www.w3.org/2000/svg" xmlns:xlink="http://www.w3.org/1999/xlink" width="416.25" height="721.52831" viewBox="0,0,416.25,721.52831"><g transform="translate(-206.25,-40.92664)"><g data-paper-data="{&quot;isPaintingLayer&quot;:true}" fill-rule="nonzero" stroke-linecap="butt" stroke-linejoin="miter" stroke-miterlimit="10" stroke-dasharray="" stroke-dashoffset="0" style="mix-blend-mode: normal"><path d="M515.5,287.92664v-36h106v36h-49.14003c-0.54011,-0.09027 -1.09488,-0.13725 -1.66062,-0.13725c-0.56574,0 -1.12051,0.04698 -1.66062,0.13725z" fill="#fff866" stroke="#f2eb61" stroke-width="2"/><path d="M296.5,166.72374l0,-57.1629c1.45217,-0.22681 2.8991,-0.73044 4.3313,-1.2284h36.6687v58.3913z" fill="#fff866" stroke="#f2eb61" stroke-width="2"/><path d="M206.5,199v-37l22.28905,0c39.4749,0.14976 78.95064,0.14976 118.42554,0h94.28542v37z" fill="#ff76ca" stroke="#cb067f" stroke-width="0.5"/><path d="M526.18232,137.92664v-36h94.31768v36z" fill="#fff866" stroke="#f2eb61" stroke-width="2"/><path d="M514.5,762.20495l0,-380.61447c0.16524,-0.8016 0.26158,-1.67813 0.27995,-2.63177c0.002,-0.08228 0.003,-0.1648 0.003,-0.24756c0.4082,-80.38482 0.38528,-160.77263 0,-241.15756c0,-0.07382 -0.0008,-0.14746 -0.00239,-0.2209c-0.01655,-0.97407 -0.11168,-1.79898 -0.28057,-2.50793v-33.14165h45v660.52184z" fill="#ff76ca" stroke="#cb067f" stroke-width="0.5"/><path d="M411.5,199.92664v-158h37v158z" fill="#fff866" stroke="#f2eb61" stroke-width="2"/><path d="M410.97108,69.46849v-21.798l23.21943,-6.08128c5.05748,0.08993 10.11713,0.09897 15.17473,0.02078v17.80288z" fill="#f2eb61" stroke="none" stroke-width="0"/><path d="" fill="#f2eb61" stroke="none" stroke-width="0"/><path d="" fill="#f2eb61" stroke="none" stroke-width="0"/><path d="M410.97108,109.36817v-21.798l38.39416,-10.05561v21.798z" fill="#f2eb61" stroke="none" stroke-width="0"/><path d="" fill="#f2eb61" stroke="none" stroke-width="0"/><path d="" fill="#f2eb61" stroke="none" stroke-width="0"/><path d="M410.97108,147.46234v-21.798l38.39416,-10.05561v21.798z" fill="#f2eb61" stroke="none" stroke-width="0"/><path d="" fill="#f2eb61" stroke="none" stroke-width="0"/><path d="" fill="#f2eb61" stroke="none" stroke-width="0"/><path d="M555.21396,188.54463l-17.99594,17.99594l-22.25239,-22.25239c-0.03629,-12.04198 -0.08101,-24.08393 -0.13393,-36.12582z" fill="#cb067f" stroke="none" stroke-width="0"/><path d="M494.47765,163.8002l0.19321,-0.19321c-0.00049,0.12832 -0.00098,0.25664 -0.00146,0.38496z" fill="#cb067f" stroke="none" stroke-width="0"/><path d="M538.13367,206.11428l-17.99594,-17.99594l41.83814,-41.83814c-1.10757,1.57615 -1.77156,3.48661 -1.81059,5.54999c-0.00042,0.06513 -0.001,0.12945 -0.00182,0.19285c-0.13955,10.7755 -0.22981,21.55206 -0.26741,32.32886z" data-paper-data="{&quot;index&quot;:null}" fill="#cb067f" stroke="none" stroke-width="0"/><path d="M580.87403,163.37392l-0.57642,0.57642c-0.0037,-0.38804 -0.00746,-0.77609 -0.01129,-1.16413z" data-paper-data="{&quot;index&quot;:null}" fill="#cb067f" stroke="none" stroke-width="0"/><path d="M550.03175,253.56607l-17.99595,17.99594l-16.9558,-16.9558c-0.00259,-12.00865 -0.01401,-24.01729 -0.03403,-36.02591z" fill="#cb067f" stroke="none" stroke-width="0"/><path d="" fill="#cb067f" stroke="none" stroke-width="0"/><path d="M532.95146,271.13572l-17.87178,-17.87178c-0.00002,-0.08275 -0.00005,-0.1655 -0.00007,-0.24826l42.61627,-42.61628l2.22458,2.22458c0.04534,8.56038 0.12577,17.12047 0.24299,25.67987c0.00227,0.16579 0.00783,0.32943 0.01659,0.49091c-0.01101,0.19223 -0.01659,0.38591 -0.01659,0.5809c0,1.34544 0.26571,2.62883 0.74752,3.80054z" data-paper-data="{&quot;index&quot;:null}" fill="#cb067f" stroke="none" stroke-width="0"/><path d="M554.49584,336.80829l-17.99595,17.99594l-21.53166,-21.53166c0.03695,-11.9695 0.06464,-23.93905 0.08327,-35.90862z" fill="#cb067f" stroke="none" stroke-width="0"/><path d="" fill="#cb067f" stroke="none" stroke-width="0"/><path d="M537.41555,354.37795l-17.99594,-17.99595l41.66259,-41.66259c-0.13079,0.54711 -0.2305,1.12971 -0.29629,1.74844c-0.05709,0.43241 -0.08655,0.87354 -0.08655,1.32154c-0.3013,11.15166 -0.34569,22.31289 -0.16369,33.46844z" data-paper-data="{&quot;index&quot;:null}" fill="#cb067f" stroke="none" stroke-width="0"/><path d="M252.30489,180.58457l-11.67018,11.67018l-30.33584,-30.33584c7.81311,0.0389 15.62626,0.07193 23.43945,0.09909z" fill="#cb067f" stroke="none" stroke-width="0"/><path d="" fill="#cb067f" stroke="none" stroke-width="0"/><path d="M240.3834,169.24874l11.67018,11.67018l-18.46179,18.46179c-7.81494,0.02874 -15.62984,0.06348 -23.4447,0.10434z" data-paper-data="{&quot;index&quot;:null}" fill="#cb067f" stroke="none" stroke-width="0"/><path d="" data-paper-data="{&quot;index&quot;:null}" fill="#cb067f" stroke="none" stroke-width="0"/><path d="M302.69124,180.33325l-11.67018,11.67018l-29.91429,-29.91429c7.7877,0.01342 15.57542,0.02101 23.36313,0.02277z" fill="#cb067f" stroke="none" stroke-width="0"/><path d="" fill="#cb067f" stroke="none" stroke-width="0"/><path d="M290.76975,168.99743l11.67018,11.67018l-18.60989,18.60989c-7.78942,0.00354 -15.57884,0.0128 -23.36824,0.02788z" data-paper-data="{&quot;index&quot;:null}" fill="#cb067f" stroke="none" stroke-width="0"/><path d="" data-paper-data="{&quot;index&quot;:null}" fill="#cb067f" stroke="none" stroke-width="0"/><path d="M352.70249,179.70684l-11.67018,11.67018l-29.28277,-29.28277c7.76254,-0.01181 15.52506,-0.02941 23.28756,-0.0528z" fill="#cb067f" stroke="none" stroke-width="0"/><path d="" fill="#cb067f" stroke="none" stroke-width="0"/><path d="M340.781,168.37102l11.67018,11.67018l-19.28912,19.28912c-7.76558,-0.01999 -15.53119,-0.03455 -23.2968,-0.04356z" data-paper-data="{&quot;index&quot;:null}" fill="#cb067f" stroke="none" stroke-width="0"/><path d="" data-paper-data="{&quot;index&quot;:null}" fill="#cb067f" stroke="none" stroke-width="0"/><path d="M400.08809,179.45553l-11.67018,11.67018l-29.17597,-29.17597c7.73908,-0.03532 15.47813,-0.0764 23.21712,-0.12324z" fill="#cb067f" stroke="none" stroke-width="0"/><path d="" fill="#cb067f" stroke="none" stroke-width="0"/><path d="M388.1666,168.11971l11.67018,11.67018l-19.72649,19.72649c-7.74399,-0.04129 -15.48803,-0.07741 -23.23211,-0.10825z" data-paper-data="{&quot;index&quot;:null}" fill="#cb067f" stroke="none" stroke-width="0"/><path d="" data-paper-data="{&quot;index&quot;:null}" fill="#cb067f" stroke="none" stroke-width="0"/></g></g></svg>