<svg version="1.1" xmlns="http://www.w3.org/2000/svg" xmlns:xlink="http://www.w3.org/1999/xlink" width="532" height="188"><defs><radialGradient cx="166.99748" cy="144.37941" r="32.19399" gradientUnits="userSpaceOnUse" id="color-1"><stop offset="0" stop-color="#ffe9cc"/><stop offset="1" stop-color="#ffd499"/></radialGradient><radialGradient cx="183.72764" cy="146.9909" r="13.09555" gradientUnits="userSpaceOnUse" id="color-2"><stop offset="0" stop-color="#ffe9cc"/><stop offset="1" stop-color="#ffd499"/></radialGradient><radialGradient cx="47.10572" cy="142.47021" r="34.57918" gradientUnits="userSpaceOnUse" id="color-3"><stop offset="0" stop-color="#ffe9cc"/><stop offset="1" stop-color="#ffd499"/></radialGradient><radialGradient cx="65.07539" cy="145.27519" r="14.06577" gradientUnits="userSpaceOnUse" id="color-4"><stop offset="0" stop-color="#ffe9cc"/><stop offset="1" stop-color="#ffd499"/></radialGradient></defs><g transform="translate(26,-86)"><g data-paper-data="{&quot;isPaintingLayer&quot;:true}" fill-rule="nonzero" stroke-linejoin="miter" stroke-miterlimit="10" stroke-dasharray="" stroke-dashoffset="0" style="mix-blend-mode: normal"><path d="M-23.5,271.5v-183h527v183z" data-paper-data="{&quot;origPos&quot;:null}" fill="#ffffff" stroke="#000000" stroke-width="5" stroke-linecap="butt"/><g data-paper-data="{&quot;origPos&quot;:null}"><path d="M203.02042,211.56074c-0.68589,-0.03595 -3.19481,-1.03485 -4.88847,-0.96295c-1.58236,0.06678 -2.97219,1.5971 -4.51244,1.28379c-1.55077,-0.31452 -3.01581,-1.56491 -3.38433,-2.88856c-0.36701,-1.31477 0.38356,-2.89518 1.50415,-3.85167c1.12059,-0.95649 3.0098,-0.85631 4.51244,-1.28379c1.50264,-0.42763 3.06545,-0.73447 4.51244,-1.28394c0.82578,-0.31316 2.25622,-1.28379 2.25622,-1.28379c1.88018,0.32098 3.00829,3.01702 3.00829,4.49349c0,1.28379 -0.52946,2.58307 -1.12811,3.85152c-0.30233,0.59188 -1.10856,1.54837 -1.50415,1.60492z" data-paper-data="{&quot;origPos&quot;:null}" id="ID0.3138726372271776" fill="#e5e5e5" stroke="#666666" stroke-width="2.78899" stroke-linecap="round"/><path d="M187.82975,161.56894c4.174,8.35719 8.54596,16.8165 11.7015,25.53243c1.578,4.36608 4.93555,9.44243 2.61827,13.53972c-1.5419,2.72611 -9.12069,3.6277 -10.79119,0.98777c-4.66014,-8.19805 -3.46976,-17.9598 -4.40098,-26.99942c-0.3825,-3.69854 0.22246,-7.51908 0.53187,-11.24439c0.08213,-0.95288 -0.8151,-3.95545 0.34054,-1.81611z" data-paper-data="{&quot;origPos&quot;:null}" id="ID0.5226789494045079" fill="#40de00" stroke="#001966" stroke-width="2.78255" stroke-linecap="round"/><path d="M186.85085,160.66463c2.75409,2.90029 0.24367,7.38099 -0.37604,11.04118c-0.85887,5.05213 1.65306,12.32768 -3.38433,15.08538c-7.1116,3.89138 -19.45011,5.99959 -26.32255,1.28394c-7.45906,-5.57075 -9.21139,-16.74024 -6.76866,-25.03531c1.20031,-4.06992 9.7589,-1.57529 14.66542,-1.92576c3.76187,-0.30309 7.7629,-0.75237 11.65713,-0.8345c3.73028,-0.06934 8.51948,-2.07602 10.52902,0.38506z" data-paper-data="{&quot;origPos&quot;:null}" id="ID0.7066919589415193" fill="#40de00" stroke="#000000" stroke-width="2.78899" stroke-linecap="round"/><path d="M184.97067,242.75883c-1.60492,0.48794 -3.21436,1.01936 -4.88847,1.28394c-1.72826,0.27345 -3.63251,0.87812 -5.26451,0.32083c-2.58262,-0.87932 -6.46482,-2.04128 -7.14469,-4.49349c-1.34471,-4.92096 1.92531,-10.45833 2.25622,-15.7272c0.13989,-2.43807 -0.37303,-4.73114 -0.75207,-7.06136c-0.49787,-5.15335 -5.90377,-11.8808 -1.88018,-15.40621c4.07624,-3.56272 13.48467,-2.38934 18.04975,0.9628c4.91404,3.60769 4.03412,10.56241 4.51244,16.04833c1.03636,7.4386 1.6681,15.1123 0,22.46758c-0.41665,1.83852 -3.35725,1.13999 -4.88847,1.60477z" data-paper-data="{&quot;origPos&quot;:null}" id="ID0.5799378040246665" fill="#28478a" stroke="#001966" stroke-width="2.78899" stroke-linecap="round"/><path d="M165.04073,242.75883c-1.60492,0.48794 -3.21436,1.01936 -4.88847,1.28394c-1.72826,0.27345 -3.53474,0.06543 -5.26451,0.32083c-2.47733,0.35829 -6.22265,3.75405 -6.76866,1.92591c-2.46078,-7.29751 -0.24367,-15.10599 0,-22.46758c0.08423,-2.54983 0.60467,-5.03272 0.37604,-7.70318c-0.02707,-4.72723 -5.18479,-11.05668 -1.12811,-14.44341c4.22364,-3.52045 13.70728,-2.59601 18.04975,0.9628c4.99978,4.09429 4.01005,11.43662 4.88847,17.33212c0.63475,7.02015 1.05591,14.2393 -0.37604,21.18379c-0.35799,1.73578 -3.35725,1.13999 -4.88847,1.60477z" data-paper-data="{&quot;origPos&quot;:null}" id="ID0.5799378040246665" fill="#28478a" stroke="#001966" stroke-width="2.78899" stroke-linecap="round"/><path d="M191.25033,237.93142c4.7161,0.53969 8.98622,3.93891 10.46961,7.49486c1.15233,2.95535 -1.25641,6.55176 -4.05277,8.35974c-2.78417,1.78963 -6.75181,1.24303 -10.13178,1.44142c-3.86761,-0.00466 -7.8002,-0.28489 -11.4828,-0.86488c-2.83411,-0.44387 -6.89365,-0.36205 -8.10539,-2.59435c-1.53197,-2.82042 -1.30094,-7.44883 1.6887,-9.22448c6.08984,-3.61612 14.26412,-5.43553 21.61443,-4.61231z" data-paper-data="{&quot;origPos&quot;:null}" id="ID0.5951190022751689" fill="#995900" stroke="#663b00" stroke-width="2.50485" stroke-linecap="round"/><path d="M167.93606,238.6835c4.7161,0.53969 8.98622,3.93891 10.46961,7.49486c1.15233,2.95535 -1.25641,6.55176 -4.05277,8.35974c-2.78417,1.78963 -6.75181,1.24303 -10.13178,1.44142c-3.86761,-0.00466 -7.8002,-0.28489 -11.4828,-0.86488c-2.83411,-0.44387 -6.89365,-0.36205 -8.10539,-2.59435c-1.53197,-2.82042 -1.30094,-7.44883 1.6887,-9.22448c6.08984,-3.61612 14.26412,-5.43553 21.61443,-4.61231z" data-paper-data="{&quot;origPos&quot;:null}" id="ID0.5951190022751689" fill="#995900" stroke="#663b00" stroke-width="2.50485" stroke-linecap="round"/><path d="M189.85914,165.22236c2.09377,5.43974 3.77089,11.00659 4.51244,16.4334c0.66483,4.90051 0.96566,9.96662 0.37604,14.76455c-0.5445,5.21247 -1.74932,11.49303 -3.76036,15.08523c-0.70093,1.24799 -0.04512,-4.04916 -1.50415,-5.1353c-2.49989,-1.8322 -5.73681,-3.23542 -9.02488,-3.53068c-6.48588,-0.58286 -13.04395,0.64317 -19.5539,0.96295c-4.76213,0.23104 -10.92311,4.09549 -13.91335,1.28379c-3.77089,-3.59987 -0.00301,-9.62247 0.37604,-14.12243c0.24668,-2.89518 1.08599,-5.76329 1.12811,-8.66614c0.08423,-5.77472 -2.70596,-11.80258 -0.75207,-17.33212c0.82578,-2.33789 5.25097,-3.78744 7.89677,-2.88871c2.67888,0.91422 2.38106,4.42038 3.76036,6.41939c0.75508,1.32229 0.99574,3.2661 2.63226,3.53053c6.40014,1.00793 12.91761,0.83585 19.5539,0.32098c1.65907,-0.1283 2.87593,-1.11051 3.00829,-2.24674c0.31587,-2.9567 -3.16472,-5.99432 -2.63226,-9.0512c0.50539,-1.28259 3.53625,-1.10164 4.88847,-0.38521c1.94486,1.0323 2.58262,2.95038 3.00829,4.55771z" data-paper-data="{&quot;origPos&quot;:null}" id="ID0.6854712939821184" fill="#28478a" stroke="#001966" stroke-width="2.78899" stroke-linecap="round"/><path d="M184.4397,199.86736c2.45477,0.73703 5.42545,1.88605 5.41944,3.93515c0.51743,3.93364 0.06769,9.52997 -4.1364,11.23371c-4.91404,2.02338 -10.53654,-1.723 -16.16957,-2.56773c-4.95315,-0.74335 -10.10184,-1.01033 -14.88653,-2.16326c-2.08625,-0.52645 -4.23267,-0.74215 -5.0434,-2.00924c-1.39886,-2.19154 -2.89849,-6.00726 -0.75207,-7.06121c6.10232,-2.95941 13.83664,-3.3368 20.68201,-3.53068c5.03889,-0.13989 10.17705,0.75613 14.88653,2.16326z" data-paper-data="{&quot;origPos&quot;:null}" id="ID0.830511134583503" fill="#28478a" stroke="none" stroke-width="0.92966" stroke-linecap="round"/><path d="M152.63153,167.2674c-0.04512,7.73537 -2.33143,15.436 -3.76036,23.10955c-0.89196,4.78619 0.82126,10.31588 -3.00829,13.48061c-2.54802,2.1055 -10.02664,0.72274 -10.52902,-2.24674c-1.06494,-9.06669 3.56783,-17.99846 6.76866,-26.64023c1.38532,-3.73991 3.35124,-7.88293 6.91907,-10.59174c1.2319,-0.80126 3.62198,0.95513 3.60995,2.88856z" data-paper-data="{&quot;origPos&quot;:null}" id="ID0.5226789494045079" fill="#40de00" stroke="#001966" stroke-width="2.78899" stroke-linecap="round"/><path d="M148.29508,203.31591c2.05406,0.5997 3.23091,2.15093 3.95335,3.32522c0.46734,0.7802 0.51893,1.73187 0.18907,2.56261c-0.35332,0.89256 -2.03481,1.44729 -2.14311,2.36632c-0.1071,0.91272 1.84709,1.58988 1.57394,2.48831c-0.31632,1.04102 -1.7403,1.86995 -3.0665,2.41596c-1.21279,0.49862 -2.73905,0.46869 -4.13159,0.5436c-1.23912,0.06648 -2.47928,-0.08168 -3.7172,-0.12199c-1.23776,-0.04031 -2.56743,0.1817 -3.71705,-0.12184c-1.31613,-0.34746 -2.58202,-0.94445 -3.37365,-1.74842c-0.79163,-0.80397 -1.12074,-1.84754 -1.13593,-2.83336c-0.02828,-1.7403 0.62287,-3.47202 1.00718,-5.19983c0.19509,-0.87481 -0.1641,-1.97344 0.73432,-2.61225c0.87917,-0.62482 2.43085,-0.45215 3.66997,-0.51863c1.39254,-0.07491 2.78568,0.13718 4.17882,0.09702c2.23546,-0.05956 4.25839,-1.06238 5.97838,-0.64272z" data-paper-data="{&quot;origPos&quot;:null}" id="ID0.9082531672902405" fill="#e5e5e5" stroke="#666666" stroke-width="3.17571" stroke-linecap="round"/><path d="M192.86743,182.20913c0,0 -1.69968,3.2097 -3.38433,3.2097c-1.77038,0 -2.91203,-1.88214 -3.76036,-3.2097c-0.72951,-1.14135 -0.62572,-2.55615 -0.75207,-3.85152c-0.12484,-1.27867 0.06017,-2.57028 0,-3.85152c-0.06468,-1.39299 -0.37604,-4.17265 -0.37604,-4.17265" data-paper-data="{&quot;origPos&quot;:null}" id="ID0.8221003138460219" fill="none" stroke="#001966" stroke-width="2.78899" stroke-linecap="round"/><path d="M160.15226,171.61739c0,0 1.05591,3.39711 1.12811,5.13546c0.05415,1.29928 -0.30835,2.60744 -0.75207,3.85152c-0.44071,1.23505 -0.62121,2.81426 -1.88018,3.53068c-1.35824,0.77283 -3.25798,0.398 -4.88847,0.32098c-0.67386,-0.03219 -1.88018,-0.64197 -1.88018,-0.64197" data-paper-data="{&quot;origPos&quot;:null}" id="ID0.17303506843745708" fill="none" stroke="#001966" stroke-width="2.78899" stroke-linecap="round"/><path d="M192.70574,176.51143c0.8348,0.84353 1.35102,2.00668 1.35102,3.29047c0,1.28394 -0.51622,2.4471 -1.35102,3.29062c-0.83375,0.84217 -1.98622,1.36351 -3.25768,1.36351c-1.2713,0 -2.42378,-0.52134 -3.25753,-1.36351c-0.83495,-0.84353 -1.35102,-2.00668 -1.35102,-3.29062c0,-1.28379 0.51607,-2.44694 1.35102,-3.29047c0.83375,-0.84217 1.98622,-1.36351 3.25753,-1.36351c1.27145,0 2.42393,0.52134 3.25768,1.36351z" data-paper-data="{&quot;origPos&quot;:null}" id="ID0.11298561654984951" fill="#cccc00" stroke="#000000" stroke-width="2.46817" stroke-linecap="butt"/><path d="M159.5488,175.75936c0.78577,0.84353 1.2716,2.00668 1.2716,3.29047c0,1.28394 -0.48584,2.4471 -1.2716,3.29062c-0.78471,0.84217 -1.86935,1.36351 -3.0659,1.36351c-1.1967,0 -2.28134,-0.52134 -3.06605,-1.36351c-0.78577,-0.84353 -1.2716,-2.00668 -1.2716,-3.29062c0,-1.28379 0.48584,-2.44694 1.2716,-3.29047c0.78471,-0.84217 1.86935,-1.36351 3.06605,-1.36351c1.19655,0 2.28119,0.52134 3.0659,1.36351z" data-paper-data="{&quot;origPos&quot;:null}" id="ID0.11298561654984951" fill="#cccc00" stroke="#000000" stroke-width="2.40221" stroke-linecap="butt"/><path d="M185.60557,103.12609c2.53027,0.16109 5.21322,1.5613 6.80972,3.69764c2.09121,2.80207 3.09147,6.46196 3.85874,9.94271c0.22848,1.58266 0.22397,3.83903 -0.98356,4.68376c-4.3885,3.09779 -9.33217,5.29504 -14.60285,6.32719c-12.08175,2.38452 -26.78899,6.91712 -40.10113,4.93029c-3.39411,-0.50795 -2.75108,-8.23685 -0.52961,-11.01095c5.9486,-7.49726 14.12619,-13.39713 22.77442,-16.92721c7.07144,-2.87924 15.07951,-2.13153 22.77427,-1.64343z" data-paper-data="{&quot;origPos&quot;:null}" id="ID0.04210826521739364" fill="#40de00" stroke="#2b9800" stroke-width="3.15064" stroke-linecap="round"/><path d="M190.23518,126.09216c3.20308,2.77575 -0.56691,8.73803 0.1644,12.98304c0.51111,3.89484 3.91785,4.89073 2.30074,17.00933c-1.20302,2.9385 -3.98042,5.49239 -6.9845,6.57372c-5.2803,1.89492 -11.50566,2.24328 -17.25601,1.64343c-3.719,-0.37634 -6.34674,-2.93023 -9.44965,-4.51936c-3.47413,-1.78647 -7.58105,-3.32311 -10.68214,-6.16294c-2.26464,-2.10355 -4.79386,-5.01738 -4.93029,-8.217c-0.24653,-5.79803 -0.4717,-13.10788 3.77992,-17.00948c6.15782,-5.24571 15.28047,-6.38299 23.33652,-6.8201c6.73797,-0.36656 14.62647,0.11176 19.72101,4.51936z" data-paper-data="{&quot;origPos&quot;:null}" id="ID0.3780983090400696" fill="url(#color-1)" stroke="#000000" stroke-width="2.18519" stroke-linecap="round"/><path d="M181.95485,152.01083c0.9622,0.10018 -2.69001,-0.35498 -1.57499,-1.02718c4.45874,-2.69032 8.98351,-6.41759 14.17447,-7.02556c1.89477,-0.21374 2.8129,2.8135 3.14998,4.68376c0.20938,1.19309 -0.72455,2.34346 -1.65381,2.7938c-1.50866,0.92685 -3.51684,0.29256 -5.03979,0.98597c-1.1985,0.53909 -1.4142,2.64263 -2.75605,2.87608c-3.25226,0.52254 -5.51074,-1.54972 -8.26844,-1.23265c-1.93719,0.19403 -1.99074,3.19315 -3.54362,3.28686c-2.94527,0.10845 -4.55485,-2.76417 -7.08739,-3.28686c-2.0694,-0.42883 -4.43497,0.71658 -6.69345,0c-0.8521,-0.08544 -2.08685,-0.97454 -1.88996,-2.21862c0.38912,-1.91779 1.88996,-3.99832 3.77992,-4.51936c1.8883,-0.45846 3.40193,2.12325 5.27609,2.6294c3.97666,1.05681 8.05575,1.56296 12.12703,2.05436z" data-paper-data="{&quot;origPos&quot;:null}" id="ID0.058092727325856686" fill="#663b00" stroke="#000000" stroke-width="1.07007" stroke-linecap="round"/><path d="M172.61832,132.09821c0.97679,1.13864 1.58131,2.71288 1.58131,4.45062c0,1.73789 -0.60452,3.31198 -1.58131,4.45077c-0.97694,1.14059 -2.32616,1.84589 -3.81572,1.84589c-1.48956,0 -2.83877,-0.70529 -3.81572,-1.84589c-0.97679,-1.13879 -1.58131,-2.71288 -1.58131,-4.45077c0,-1.73774 0.60452,-3.31198 1.58131,-4.45062c0.97694,-1.14059 2.32616,-1.84589 3.81572,-1.84589c1.48956,0 2.83877,0.70529 3.81572,1.84589z" data-paper-data="{&quot;origPos&quot;:null}" id="ID0.0834306264296174" fill="#ffffff" stroke="#000000" stroke-width="1.19603" stroke-linecap="butt"/><path d="M163.77334,131.15466c0,0 0.07235,-0.02948 0.1644,-0.16425c0.36806,-0.53909 0.66724,-1.12736 1.06824,-1.64343c0.36806,-0.47335 0.73132,-0.98446 1.2325,-1.31477c0.48479,-0.31873 1.07968,-0.44041 1.64343,-0.57519c0.59158,-0.14124 1.20136,-0.20863 1.80768,-0.24653c0.70996,-0.04437 1.4348,-0.11657 2.13649,0c0.63114,0.10529 1.31312,0.24984 1.80783,0.65746c0.65069,0.53563 1.47903,2.05421 1.47903,2.05421" data-paper-data="{&quot;origPos&quot;:null}" id="ID0.2582241278141737" fill="none" stroke="#000000" stroke-width="1.09259" stroke-linecap="round"/><path d="M180.61842,129.51138c0,0 0.69672,-0.67551 1.06824,-0.98612c0.45019,-0.37468 0.83976,-0.88745 1.3969,-1.06824c0.5982,-0.19388 1.26213,-0.03775 1.88996,0c0.74275,0.04437 1.50204,0.04768 2.21862,0.24653c0.58993,0.16275 1.19474,0.40597 1.64328,0.82171c0.67551,0.62452 1.64343,2.21862 1.64343,2.21862" data-paper-data="{&quot;origPos&quot;:null}" id="ID0.4639239450916648" fill="none" stroke="#000000" stroke-width="1.09259" stroke-linecap="round"/><path d="M183.91626,129.12421c1.48956,0 2.83877,0.70529 3.81572,1.84589c0.97679,1.13864 1.58131,2.71288 1.58131,4.45062c0,1.73789 -0.60452,3.31198 -1.58131,4.45077c-0.97694,1.14059 -2.32616,1.84589 -3.81572,1.84589c-1.48956,0 -2.83877,-0.70529 -3.81572,-1.84589c-0.97679,-1.13879 -1.58131,-2.71288 -1.58131,-4.45077c0,-1.73774 0.60452,-3.31198 1.58131,-4.45062c0.97694,-1.14059 2.32616,-1.84589 3.81572,-1.84589z" data-paper-data="{&quot;origPos&quot;:null}" id="ID0.0834306264296174" fill="#ffffff" stroke="#000000" stroke-width="1.19603" stroke-linecap="butt"/><path d="M171.16877,135.59189z" data-paper-data="{&quot;origPos&quot;:null}" id="ID0.43853980815038085" fill="none" stroke="#ffffff" stroke-width="2.18519" stroke-linecap="round"/><g data-paper-data="{&quot;origPos&quot;:null}" id="ID0.5900933402590454"><path d="M171.36221,133.85114c0.50599,0.62467 0.81901,1.48625 0.81901,2.43717c0,0.95107 -0.31301,1.81265 -0.81901,2.43717c-0.50615,0.62377 -1.20437,1.00988 -1.97585,1.00988c-0.77133,0 -1.4697,-0.38611 -1.97585,-1.00988c-0.50599,-0.62452 -0.81901,-1.4861 -0.81901,-2.43717c0,-0.95092 0.31301,-1.8125 0.81901,-2.43717c0.50615,-0.62377 1.20452,-1.00988 1.97585,-1.00988c0.77148,0 1.4697,0.38611 1.97585,1.00988z" id="ID0.2556390194222331" fill="#000000" stroke="#00ffff" stroke-width="0.4955" stroke-linecap="round"/><path d="M170.64623,134.90164c0.19614,0.21043 0.31662,0.50374 0.31662,0.82578c0,0.32204 -0.12048,0.6152 -0.31662,0.82578c-0.19419,0.21223 -0.46403,0.34355 -0.76275,0.34355c-0.29857,0 -0.56842,-0.13131 -0.76275,-0.34355c-0.19614,-0.21058 -0.31662,-0.50374 -0.31662,-0.82578c0,-0.32204 0.12048,-0.61535 0.31662,-0.82578c0.19434,-0.21223 0.46418,-0.34355 0.76275,-0.34355c0.29872,0 0.56857,0.13131 0.76275,0.34355z" id="ID0.5205082013271749" fill="#ffffff" stroke="none" stroke-width="1.19603" stroke-linecap="butt"/></g><g data-paper-data="{&quot;origPos&quot;:null}" id="ID0.5900933402590454"><path d="M184.89952,133.02386c0.50599,0.62467 0.81901,1.48625 0.81901,2.43717c0,0.95107 -0.31301,1.81265 -0.81901,2.43717c-0.50615,0.62377 -1.20437,1.00988 -1.97585,1.00988c-0.77133,0 -1.4697,-0.38611 -1.97585,-1.00988c-0.50599,-0.62452 -0.81901,-1.4861 -0.81901,-2.43717c0,-0.95092 0.31301,-1.8125 0.81901,-2.43717c0.50615,-0.62377 1.20452,-1.00988 1.97585,-1.00988c0.77148,0 1.4697,0.38611 1.97585,1.00988z" id="ID0.2556390194222331" fill="#000000" stroke="#00ffff" stroke-width="0.4955" stroke-linecap="round"/><path d="M184.18355,134.07434c0.19614,0.21043 0.31662,0.50374 0.31662,0.82578c0,0.32204 -0.12048,0.6152 -0.31662,0.82578c-0.19419,0.21223 -0.46403,0.34355 -0.76275,0.34355c-0.29857,0 -0.56842,-0.13131 -0.76275,-0.34355c-0.19614,-0.21058 -0.31662,-0.50374 -0.31662,-0.82578c0,-0.32204 0.12048,-0.61535 0.31662,-0.82578c0.19434,-0.21223 0.46418,-0.34355 0.76275,-0.34355c0.29872,0 0.56857,0.13131 0.76275,0.34355z" id="ID0.5205082013271749" fill="#ffffff" stroke="none" stroke-width="1.19603" stroke-linecap="butt"/></g><path d="M189.51514,140.31055c1.92937,1.20783 3.26716,3.65989 3.36899,5.99838c0.08544,2.02142 -1.38532,4.15626 -3.04033,5.25895c-2.4486,1.45616 -5.53827,1.85717 -8.29928,1.80783c-2.36316,-0.04106 -4.9697,-0.85135 -6.68051,-2.22689c-1.71082,-1.3772 -2.99265,-3.37395 -2.76913,-5.37386c0.19554,-1.75188 2.26299,-2.56216 3.61552,-3.57445c1.77986,-1.3247 3.63687,-2.89247 5.83413,-3.20473c2.60157,-0.37634 5.70763,-0.1808 7.97062,1.31477z" data-paper-data="{&quot;origPos&quot;:null}" id="ID0.1283084861934185" fill="url(#color-2)" stroke="#000000" stroke-width="1.09259" stroke-linecap="butt"/><path d="M179.70285,140.14372c0.7805,0.91392 1.26378,2.17725 1.26378,3.57205c0,1.39479 -0.48328,2.65813 -1.26378,3.5722c-0.78231,0.91527 -1.86048,1.48128 -3.05026,1.48128c-1.18978,0 -2.11678,-0.87346 -3.05011,-1.48128c-1.00417,-0.65265 -2.92376,-0.95017 -2.98949,-2.05617c-0.07551,-1.58823 1.5613,-2.68701 2.62955,-3.75405c0.96626,-1.14496 1.97705,-2.59886 3.41005,-2.81546c1.1439,-0.16455 2.26795,0.56601 3.05026,1.48143z" data-paper-data="{&quot;origPos&quot;:null}" id="ID0.8822163236327469" fill="#ffe9cc" stroke="none" stroke-width="1.0284" stroke-linecap="round"/><path d="M155.76512,127.70353c0.37438,0.23826 -0.73808,2.40919 -0.78261,3.77992c-0.0361,1.09276 -0.12996,2.20703 0,3.28686c0.13372,1.10931 0.69958,2.0855 0.78261,3.20458c0.08183,1.09788 0.29617,2.54396 -0.30098,3.28686c-0.59233,0.73793 -1.60613,0.08213 -2.40799,0.08213c-0.80186,0 -1.61575,-0.25796 -2.40784,-0.08213c-0.83796,0.18576 -1.76512,0.39273 -2.40799,1.15037c-0.61159,0.71988 -1.02944,1.85867 -1.08359,2.9582c-0.05415,1.09607 0.45876,2.11663 0.78261,3.12246c0.33949,1.0535 1.08479,1.90139 1.20392,3.04033c0.11687,1.11096 0.236,3.38057 -0.54179,3.28686c-1.60011,-0.19388 -2.84133,-2.51614 -4.21386,-3.86205c-0.69461,-0.68033 -1.57845,-1.19309 -1.98653,-2.21862c-0.41424,-1.04027 -0.22156,-2.35339 -0.30098,-3.53339c-0.08062,-1.20136 -0.32384,-2.42408 -0.18065,-3.61552c0.42387,-3.53008 0.59715,-7.30669 1.86619,-10.43576c0.81149,-2.00157 2.40438,-3.56949 4.03322,-4.10842c2.39716,-0.79223 5.15787,-1.06328 7.40446,0.32866z" data-paper-data="{&quot;origPos&quot;:null}" id="ID0.5496360035613179" fill="#663b00" stroke="#000000" stroke-width="1.91544" stroke-linecap="round"/><path d="M150.21512,146.76724c-0.21028,1.07637 0.50945,2.91864 -0.24653,3.28686c-0.76411,0.37137 -1.75835,-1.42157 -2.7938,-1.80783c-0.87256,-0.33527 -1.77324,0.47005 -2.46514,0.1644c-1.45932,-0.93844 -3.02213,-2.04609 -3.53324,-3.61552c-0.55879,-1.71412 -0.45365,-3.90476 0.41078,-5.5876c0.81841,-1.31643 2.5029,-2.25817 4.10857,-2.46514c1.28514,-0.16275 2.52757,0.87421 3.45111,1.80768c1.18993,1.22437 2.01164,2.91218 2.30089,4.60163c0.21524,1.24739 -0.97454,2.286 -1.23265,3.61552z" data-paper-data="{&quot;origPos&quot;:null}" id="ID0.3720821598544717" fill="#ffe9cc" stroke="#000000" stroke-width="2.18519" stroke-linecap="round"/><path d="M153.63013,143.79295c0.58015,0.78231 0.94009,1.86033 0.94009,3.05011c0,1.18993 -0.35994,2.26795 -0.94009,3.05026c-0.58015,0.78065 -1.38051,1.26378 -2.26464,1.26378c-0.88414,0 -1.68449,-0.48313 -2.26464,-1.26378c-0.58,-0.78231 -0.93994,-1.86033 -0.93994,-3.05026c0,-1.18978 0.35994,-2.2678 0.93994,-3.05011c0.58015,-0.78065 1.38051,-1.26378 2.26464,-1.26378c0.88414,0 1.68449,0.48313 2.26464,1.26378z" data-paper-data="{&quot;origPos&quot;:null}" id="ID0.7903228076174855" fill="#ffe9cc" stroke="none" stroke-width="1.09259" stroke-linecap="butt"/><path d="M185.72274,155.44947c0,0 -4.69594,1.78091 -7.14469,2.25622c-1.72225,0.33392 -3.52421,0.36852 -5.26451,0.15041c-1.50866,-0.18802 -2.91955,-0.8724 -4.36202,-1.35373c-0.361,-0.12033 -0.15041,-0.15041 -0.15041,-0.15041" data-paper-data="{&quot;origPos&quot;:null}" id="ID0.3726346711628139" fill="none" stroke="#000000" stroke-width="1" stroke-linecap="round"/><path d="M177.46708,125.86819c-7.47124,0.64964 -15.55467,1.77128 -23.34404,2.42634c-2.67964,0.22848 -9.01931,1.5401 -8.0013,0.54946c1.46684,-1.52235 8.80422,-5.0061 13.52889,-6.20024c6.32915,-1.53167 12.96559,-1.54912 19.28465,-1.90049c5.36424,-0.29917 10.72892,-0.45666 16.1458,-0.12018c2.11017,0.00331 4.35856,0.01038 6.37216,1.12736c0.86443,0.43981 3.40133,2.37249 1.32936,2.79154c-8.27912,1.67366 -16.9069,0.58917 -25.31553,1.32621z" data-paper-data="{&quot;origPos&quot;:null}" id="ID0.5670463116839528" fill="#40de00" stroke="#2b9800" stroke-width="2.10043" stroke-linecap="round"/><path d="M180.81682,104.13372c2.05226,0.6155 3.81692,2.593 4.74739,4.69414c0.85992,1.9417 1.42954,4.79386 0.20336,6.48212c-1.98983,2.74206 -5.29384,5.18133 -8.47722,4.91765c-2.92707,-0.24292 -6.19467,-3.02649 -6.78189,-6.1843c-0.58331,-3.13524 1.64117,-6.47324 3.72998,-8.56837c1.74165,-1.58702 4.52357,-1.95659 6.57838,-1.34125z" data-paper-data="{&quot;origPos&quot;:null}" id="ID0.0048431348986923695" fill="#ffffff" stroke="#2b9800" stroke-width="1.89455" stroke-linecap="round"/><path d="M181.84738,115.91393c-0.94122,0.62187 -1.56309,-0.31935 -1.56309,-0.31935l0.02647,0.62058c-5.32896,0 -4.91101,-3.03282 -4.43849,-7.75798c0,0 0.11225,-1.12251 1.23477,-1.01026c1.12251,0.11225 1.01026,1.23477 1.01026,1.23477c-0.1373,1.37297 -0.10875,2.73905 -0.10875,4.11849c0,0.27595 0.04809,0.70954 0.09254,1.14508c0.67861,-0.1018 1.67849,0.01369 2.20968,0.01369l1.85598,0.39189c0,0 0.62187,0.94122 -0.31935,1.56309z" data-paper-data="{&quot;origPos&quot;:null}" fill="#2b9800" stroke="none" stroke-width="0.5" stroke-linecap="butt"/></g><g data-paper-data="{&quot;origPos&quot;:null}"><path d="M85.79754,214.62888c-0.73671,-0.03861 -3.4315,-1.11152 -5.25065,-1.0343c-1.6996,0.07173 -3.1924,1.71543 -4.84676,1.3789c-1.66567,-0.33782 -3.23925,-1.68086 -3.63507,-3.10257c-0.3942,-1.41218 0.41197,-3.10968 1.61559,-4.13703c1.20361,-1.02735 3.23279,-0.91975 4.84676,-1.3789c1.61397,-0.45931 3.29256,-0.78889 4.84676,-1.37906c0.88696,-0.33636 2.42338,-1.3789 2.42338,-1.3789c2.01948,0.34477 3.23117,3.24054 3.23117,4.8264c0,1.3789 -0.56869,2.77444 -1.21169,4.13687c-0.32473,0.63573 -1.19069,1.66308 -1.61559,1.72383z" data-paper-data="{&quot;origPos&quot;:null}" id="ID0.3138726372271776" fill="#e5e5e5" stroke="#666666" stroke-width="2.78899" stroke-linecap="round"/><path d="M69.48142,160.93327c4.48325,8.97635 9.17911,18.06241 12.56845,27.42408c1.69491,4.68956 5.30122,10.142 2.81225,14.54285c-1.65614,2.92809 -9.79643,3.89647 -11.59069,1.06095c-5.00541,-8.80543 -3.72683,-19.29041 -4.72704,-28.99976c-0.41084,-3.97256 0.23895,-8.07615 0.57127,-12.07747c0.08821,-1.02347 -0.87549,-4.24851 0.36577,-1.95066z" data-paper-data="{&quot;origPos&quot;:null}" id="ID0.5226789494045079" fill="#ff0000" stroke="#001966" stroke-width="2.78255" stroke-linecap="round"/><path d="M68.43,159.96199c2.95814,3.11517 0.26172,7.92784 -0.4039,11.85921c-0.9225,5.42643 1.77553,13.24102 -3.63507,16.20303c-7.63849,4.17968 -20.89114,6.44409 -28.27275,1.37906c-8.01169,-5.98348 -9.89385,-17.9805 -7.27013,-26.89013c1.28924,-4.37145 10.48192,-1.692 15.75196,-2.06843c4.04058,-0.32554 8.33804,-0.80812 12.52079,-0.89633c4.00665,-0.07448 9.15068,-2.22983 11.3091,0.41359z" data-paper-data="{&quot;origPos&quot;:null}" id="ID0.7066919589415193" fill="#ff0000" stroke="#000000" stroke-width="2.78899" stroke-linecap="round"/><path d="M66.41051,248.13839c-1.72383,0.5241 -3.45251,1.09488 -5.25065,1.37906c-1.85631,0.29371 -3.90164,0.94318 -5.65455,0.3446c-2.77396,-0.94447 -6.94379,-2.19251 -7.67403,-4.8264c-1.44433,-5.28555 2.06795,-11.23317 2.42338,-16.8924c0.15025,-2.6187 -0.40067,-5.08166 -0.80779,-7.58453c-0.53476,-5.53516 -6.34117,-12.76103 -2.01948,-16.54763c4.37824,-3.82668 14.48372,-2.56636 19.38703,1.03414c5.27812,3.87498 4.333,11.34496 4.84676,17.23733c1.11314,7.98972 1.79168,16.23195 0,24.13216c-0.44752,1.97473 -3.60599,1.22445 -5.25065,1.72367z" data-paper-data="{&quot;origPos&quot;:null}" id="ID0.5799378040246665" fill="#28478a" stroke="#001966" stroke-width="2.78899" stroke-linecap="round"/><path d="M45.00401,248.13839c-1.72383,0.5241 -3.45251,1.09488 -5.25065,1.37906c-1.85631,0.29371 -3.79663,0.07028 -5.65455,0.3446c-2.66087,0.38483 -6.68368,4.03218 -7.27013,2.0686c-2.6431,-7.83817 -0.26172,-16.22516 0,-24.13216c0.09047,-2.73874 0.64947,-5.40559 0.4039,-8.2739c-0.02908,-5.07746 -5.56892,-11.87585 -1.21169,-15.5135c4.53656,-3.78128 14.72283,-2.78834 19.38703,1.03414c5.37021,4.39762 4.30715,12.28394 5.25065,18.61623c0.68178,7.54026 1.13414,15.29426 -0.4039,22.75326c-0.38451,1.86439 -3.60599,1.22445 -5.25065,1.72367z" data-paper-data="{&quot;origPos&quot;:null}" id="ID0.5799378040246665" fill="#28478a" stroke="#001966" stroke-width="2.78899" stroke-linecap="round"/><path d="M73.15542,242.95333c5.06551,0.57967 9.65199,4.23073 11.24528,8.05014c1.2377,3.1743 -1.3495,7.03717 -4.35303,8.9791c-2.99045,1.92222 -7.25204,1.33512 -10.88242,1.54822c-4.15415,-0.00501 -8.3781,-0.30599 -12.33354,-0.92896c-3.04409,-0.47676 -7.40439,-0.38887 -8.70591,-2.78656c-1.64547,-3.02938 -1.39732,-8.0007 1.81382,-9.9079c6.54102,-3.88403 15.32092,-5.83824 23.2158,-4.95403z" data-paper-data="{&quot;origPos&quot;:null}" id="ID0.5951190022751689" fill="#995900" stroke="#663b00" stroke-width="2.50485" stroke-linecap="round"/><path d="M48.11385,243.76112c5.06551,0.57967 9.65199,4.23073 11.24528,8.05014c1.2377,3.1743 -1.3495,7.03717 -4.35303,8.9791c-2.99045,1.92222 -7.25204,1.33512 -10.88242,1.54822c-4.15415,-0.00501 -8.3781,-0.30599 -12.33354,-0.92896c-3.04409,-0.47676 -7.40439,-0.38887 -8.70591,-2.78656c-1.64547,-3.02938 -1.39732,-8.0007 1.81382,-9.9079c6.54102,-3.88403 15.32092,-5.83824 23.2158,-4.95403z" data-paper-data="{&quot;origPos&quot;:null}" id="ID0.5951190022751689" fill="#995900" stroke="#663b00" stroke-width="2.50485" stroke-linecap="round"/><path d="M71.66117,164.85738c2.24889,5.84276 4.05027,11.82205 4.84676,17.65092c0.71409,5.26358 1.03721,10.70503 0.4039,15.85843c-0.58484,5.59865 -1.87893,12.34453 -4.03896,16.20287c-0.75286,1.34045 -0.04847,-4.34916 -1.61559,-5.51577c-2.6851,-1.96794 -6.16184,-3.47512 -9.69351,-3.79226c-6.9664,-0.62604 -14.01036,0.69082 -21.00261,1.0343c-5.11494,0.24815 -11.73238,4.39892 -14.94417,1.3789c-4.05027,-3.86658 -0.00323,-10.33539 0.4039,-15.16873c0.26496,-3.10968 1.16645,-6.19028 1.21169,-9.3082c0.09047,-6.20256 -2.90644,-12.67701 -0.80779,-18.61623c0.88696,-2.5111 5.64001,-4.06804 8.48182,-3.10273c2.87736,0.98195 2.55747,4.74788 4.03896,6.895c0.81102,1.42026 1.06952,3.50808 2.82727,3.7921c6.87432,1.0826 13.87465,0.89778 21.00261,0.34477c1.78199,-0.13781 3.089,-1.19279 3.23117,-2.4132c0.33927,-3.17576 -3.39919,-6.43843 -2.82727,-9.72179c0.54284,-1.37761 3.79824,-1.18325 5.25065,-0.41375c2.08895,1.10878 2.77396,3.16897 3.23117,4.89539z" data-paper-data="{&quot;origPos&quot;:null}" id="ID0.6854712939821184" fill="#28478a" stroke="#001966" stroke-width="2.78899" stroke-linecap="round"/><path d="M65.84021,202.06916c2.63664,0.79164 5.82742,2.02578 5.82095,4.22669c0.55576,4.22508 0.0727,10.23603 -4.44286,12.066c-5.27812,2.17329 -11.31718,-1.85065 -17.36754,-2.75797c-5.32012,-0.79842 -10.85027,-1.08519 -15.98945,-2.32354c-2.24082,-0.56545 -4.54626,-0.79713 -5.41706,-2.1581c-1.50249,-2.35391 -3.11323,-6.45233 -0.80779,-7.58437c6.55443,-3.17866 14.86177,-3.58401 22.2143,-3.79226c5.41221,-0.15025 10.93105,0.81215 15.98945,2.32354z" data-paper-data="{&quot;origPos&quot;:null}" id="ID0.830511134583503" fill="#28478a" stroke="none" stroke-width="0.92966" stroke-linecap="round"/><path d="M31.67543,167.05393c-0.04847,8.30847 -2.50416,16.57962 -4.03896,24.82169c-0.95804,5.14079 0.88211,11.08017 -3.23117,14.47936c-2.7368,2.2615 -10.76949,0.77629 -11.3091,-2.4132c-1.14383,-9.73843 3.83217,-19.33193 7.27013,-28.61396c1.48795,-4.01699 3.59952,-8.46696 7.43169,-11.37647c1.32316,-0.86062 3.89033,1.0259 3.87741,3.10257z" data-paper-data="{&quot;origPos&quot;:null}" id="ID0.5226789494045079" fill="#ff0000" stroke="#001966" stroke-width="2.78899" stroke-linecap="round"/><path d="M27.01769,205.77321c2.20624,0.64413 3.47028,2.31029 4.24624,3.57157c0.50196,0.838 0.55738,1.86019 0.20308,2.75247c-0.3795,0.95869 -2.18556,1.55452 -2.30189,2.54164c-0.11503,0.98034 1.98394,1.70767 1.69055,2.67266c-0.33976,1.11815 -1.86923,2.0085 -3.29369,2.59495c-1.30265,0.53557 -2.94198,0.50342 -4.43769,0.58387c-1.33092,0.07141 -2.66297,-0.08773 -3.9926,-0.13102c-1.32947,-0.0433 -2.75764,0.19516 -3.99243,-0.13086c-1.41364,-0.3732 -2.77331,-1.01443 -3.6236,-1.87796c-0.85028,-0.86353 -1.20377,-1.98442 -1.22009,-3.04328c-0.03037,-1.86923 0.66901,-3.72926 1.0818,-5.58508c0.20954,-0.93962 -0.17626,-2.11965 0.78873,-2.80579c0.94431,-0.67111 2.61095,-0.48564 3.94187,-0.55705c1.49571,-0.08046 2.99206,0.14734 4.48842,0.10421c2.40108,-0.06398 4.57388,-1.14109 6.42131,-0.69034z" data-paper-data="{&quot;origPos&quot;:null}" id="ID0.9082531672902405" fill="#e5e5e5" stroke="#666666" stroke-width="3.17571" stroke-linecap="round"/><path d="M74.89234,183.10267c0,0 -1.82561,3.4475 -3.63507,3.4475c-1.90154,0 -3.12777,-2.02158 -4.03896,-3.4475c-0.78356,-1.22591 -0.67208,-2.74553 -0.80779,-4.13687c-0.13409,-1.37341 0.06462,-2.76071 0,-4.13687c-0.06947,-1.49619 -0.4039,-4.4818 -0.4039,-4.4818" data-paper-data="{&quot;origPos&quot;:null}" id="ID0.8221003138460219" fill="none" stroke="#001966" stroke-width="2.78899" stroke-linecap="round"/><path d="M39.75335,171.7262c0,0 1.13414,3.6488 1.21169,5.51593c0.05816,1.39554 -0.3312,2.80062 -0.80779,4.13687c-0.47337,1.32656 -0.66724,3.02276 -2.01948,3.79226c-1.45887,0.83009 -3.49936,0.42748 -5.25065,0.34477c-0.72378,-0.03457 -2.01948,-0.68953 -2.01948,-0.68953" data-paper-data="{&quot;origPos&quot;:null}" id="ID0.17303506843745708" fill="none" stroke="#001966" stroke-width="2.78899" stroke-linecap="round"/><path d="M74.71866,176.98283c0.89665,0.90602 1.45112,2.15535 1.45112,3.53425c0,1.37906 -0.55447,2.6284 -1.45112,3.53442c-0.89552,0.90457 -2.13338,1.46453 -3.49904,1.46453c-1.36549,0 -2.60335,-0.55996 -3.49887,-1.46453c-0.89681,-0.90602 -1.45112,-2.15535 -1.45112,-3.53442c0,-1.3789 0.55431,-2.62823 1.45112,-3.53425c0.89552,-0.90457 2.13338,-1.46453 3.49887,-1.46453c1.36565,0 2.60352,0.55996 3.49904,1.46453z" data-paper-data="{&quot;origPos&quot;:null}" id="ID0.11298561654984951" fill="#cccc00" stroke="#000000" stroke-width="2.46817" stroke-linecap="butt"/><path d="M39.10518,176.17503c0.84398,0.90602 1.36582,2.15535 1.36582,3.53425c0,1.37906 -0.52183,2.6284 -1.36582,3.53442c-0.84285,0.90457 -2.00785,1.46453 -3.29305,1.46453c-1.28536,0 -2.45036,-0.55996 -3.29321,-1.46453c-0.84398,-0.90602 -1.36582,-2.15535 -1.36582,-3.53442c0,-1.3789 0.52183,-2.62823 1.36582,-3.53425c0.84285,-0.90457 2.00785,-1.46453 3.29321,-1.46453c1.2852,0 2.4502,0.55996 3.29305,1.46453z" data-paper-data="{&quot;origPos&quot;:null}" id="ID0.11298561654984951" fill="#cccc00" stroke="#000000" stroke-width="2.40221" stroke-linecap="butt"/><path d="M67.09245,98.16052c2.71774,0.17303 5.59946,1.67698 7.31424,3.97159c2.24615,3.00967 3.32051,6.94072 4.14462,10.67934c0.24541,1.69992 0.24056,4.12346 -1.05643,5.03077c-4.71363,3.3273 -10.02358,5.68735 -15.68475,6.79596c-12.97687,2.56119 -28.77374,7.42959 -43.07216,5.29557c-3.64557,-0.54558 -2.95491,-8.84711 -0.56885,-11.82673c6.38932,-8.05272 15.17277,-14.3897 24.46174,-18.18131c7.59535,-3.09255 16.19673,-2.28945 24.46158,-1.76519z" data-paper-data="{&quot;origPos&quot;:null}" id="ID0.04210826521739364" fill="#ff0000" stroke="#990000" stroke-width="3.15064" stroke-linecap="round"/><path d="M72.06506,122.82808c3.44039,2.9814 -0.60891,9.38542 0.17658,13.94493c0.54898,4.1834 4.20812,5.25308 2.4712,18.26953c-1.29215,3.15621 -4.27532,5.89931 -7.50197,7.06075c-5.67151,2.03531 -12.3581,2.40948 -18.53448,1.76519c-3.99454,-0.40422 -6.81696,-3.14732 -10.14975,-4.85419c-3.73152,-1.91883 -8.14271,-3.56931 -11.47356,-6.61954c-2.43243,-2.2594 -5.14903,-5.38911 -5.29557,-8.82578c-0.26479,-6.2276 -0.50665,-14.07902 4.05997,-18.26969c6.61405,-5.63435 16.41257,-6.8559 25.06549,-7.32539c7.23718,-0.39372 15.71011,0.12004 21.1821,4.85419z" data-paper-data="{&quot;origPos&quot;:null}" id="ID0.3780983090400696" fill="url(#color-3)" stroke="#000000" stroke-width="2.18519" stroke-linecap="round"/><path d="M63.17126,150.66704c1.03349,0.1076 -2.88931,-0.38128 -1.69168,-1.10328c4.78908,-2.88964 9.64908,-6.89306 15.22463,-7.54608c2.03515,-0.22957 3.02131,3.02195 3.38336,5.03077c0.22489,1.28148 -0.77823,2.51708 -1.77634,3.00079c-1.62043,0.99552 -3.7774,0.31423 -5.41318,1.05902c-1.2873,0.57903 -1.51897,2.83842 -2.96024,3.08916c-3.49322,0.56125 -5.91902,-1.66454 -8.88103,-1.32397c-2.08071,0.20841 -2.13823,3.42973 -3.80616,3.53038c-3.16348,0.11648 -4.89232,-2.96896 -7.61248,-3.53038c-2.22272,-0.4606 -4.76355,0.76966 -7.18936,0c-0.91523,-0.09177 -2.24146,-1.04674 -2.02998,-2.38299c0.41795,-2.05987 2.02998,-4.29455 4.05997,-4.85419c2.02821,-0.49243 3.65397,2.28056 5.66699,2.8242c4.27128,1.13511 8.65259,1.67875 13.0255,2.20657z" data-paper-data="{&quot;origPos&quot;:null}" id="ID0.058092727325856686" fill="#663b00" stroke="#000000" stroke-width="1.07007" stroke-linecap="round"/><path d="M53.143,129.27912c1.04916,1.223 1.69847,2.91387 1.69847,4.78036c0,1.86665 -0.6493,3.55736 -1.69847,4.78052c-1.04932,1.2251 -2.4985,1.98265 -4.09842,1.98265c-1.59991,0 -3.04909,-0.75755 -4.09842,-1.98265c-1.04916,-1.22316 -1.69847,-2.91387 -1.69847,-4.78052c0,-1.86649 0.6493,-3.55736 1.69847,-4.78036c1.04932,-1.2251 2.4985,-1.98265 4.09842,-1.98265c1.59991,0 3.04909,0.75755 4.09842,1.98265z" data-paper-data="{&quot;origPos&quot;:null}" id="ID0.0834306264296174" fill="#ffffff" stroke="#000000" stroke-width="1.19603" stroke-linecap="butt"/><path d="M43.64271,128.26566c0,0 0.07771,-0.03167 0.17658,-0.17642c0.39533,-0.57903 0.71667,-1.21088 1.14739,-1.76519c0.39533,-0.50842 0.7855,-1.0574 1.32381,-1.41218c0.5207,-0.34234 1.15967,-0.47304 1.76519,-0.6178c0.63541,-0.1517 1.29037,-0.22408 1.94161,-0.26479c0.76256,-0.04766 1.54111,-0.12521 2.29478,0c0.6779,0.11309 1.41041,0.26835 1.94177,0.70617c0.6989,0.57531 1.58861,2.20641 1.58861,2.20641" data-paper-data="{&quot;origPos&quot;:null}" id="ID0.2582241278141737" fill="none" stroke="#000000" stroke-width="1.09259" stroke-linecap="round"/><path d="M61.73582,126.50063c0,0 0.74834,-0.72556 1.14739,-1.05918c0.48354,-0.40244 0.90198,-0.9532 1.50039,-1.14739c0.64252,-0.20825 1.35564,-0.04055 2.02998,0c0.79778,0.04766 1.61332,0.05121 2.38299,0.26479c0.63363,0.17481 1.28326,0.43605 1.76503,0.88259c0.72556,0.67079 1.76519,2.38299 1.76519,2.38299" data-paper-data="{&quot;origPos&quot;:null}" id="ID0.4639239450916648" fill="none" stroke="#000000" stroke-width="1.09259" stroke-linecap="round"/><path d="M65.27799,126.08478c1.59991,0 3.04909,0.75755 4.09842,1.98265c1.04916,1.223 1.69847,2.91387 1.69847,4.78036c0,1.86665 -0.6493,3.55736 -1.69847,4.78052c-1.04932,1.2251 -2.4985,1.98265 -4.09842,1.98265c-1.59991,0 -3.04909,-0.75755 -4.09842,-1.98265c-1.04916,-1.22316 -1.69847,-2.91387 -1.69847,-4.78052c0,-1.86649 0.6493,-3.55736 1.69847,-4.78036c1.04932,-1.2251 2.4985,-1.98265 4.09842,-1.98265z" data-paper-data="{&quot;origPos&quot;:null}" id="ID0.0834306264296174" fill="#ffffff" stroke="#000000" stroke-width="1.19603" stroke-linecap="butt"/><path d="M51.58606,133.03164z" data-paper-data="{&quot;origPos&quot;:null}" id="ID0.43853980815038085" fill="none" stroke="#ffffff" stroke-width="2.18519" stroke-linecap="round"/><g data-paper-data="{&quot;origPos&quot;:null}" id="ID0.5900933402590454"><path d="M51.79383,131.16192c0.54348,0.67095 0.87969,1.59636 0.87969,2.61773c0,1.02153 -0.3362,1.94694 -0.87969,2.61773c-0.54364,0.66998 -1.2936,1.0847 -2.12223,1.0847c-0.82847,0 -1.57859,-0.41472 -2.12223,-1.0847c-0.54348,-0.67079 -0.87969,-1.5962 -0.87969,-2.61773c0,-1.02137 0.3362,-1.94678 0.87969,-2.61773c0.54364,-0.66998 1.29376,-1.0847 2.12223,-1.0847c0.82863,0 1.57859,0.41472 2.12223,1.0847z" id="ID0.2556390194222331" fill="#000000" stroke="#00ffff" stroke-width="0.4955" stroke-linecap="round"/><path d="M51.02481,132.29024c0.21067,0.22602 0.34008,0.54106 0.34008,0.88696c0,0.3459 -0.12941,0.66077 -0.34008,0.88696c-0.20857,0.22796 -0.49841,0.369 -0.81926,0.369c-0.32069,0 -0.61053,-0.14104 -0.81926,-0.369c-0.21067,-0.22618 -0.34008,-0.54106 -0.34008,-0.88696c0,-0.3459 0.12941,-0.66094 0.34008,-0.88696c0.20873,-0.22796 0.49857,-0.369 0.81926,-0.369c0.32086,0 0.61069,0.14104 0.81926,0.369z" id="ID0.5205082013271749" fill="#ffffff" stroke="none" stroke-width="1.19603" stroke-linecap="butt"/></g><g data-paper-data="{&quot;origPos&quot;:null}" id="ID0.5900933402590454"><path d="M66.3341,130.27335c0.54348,0.67095 0.87969,1.59636 0.87969,2.61773c0,1.02153 -0.3362,1.94694 -0.87969,2.61773c-0.54364,0.66998 -1.2936,1.0847 -2.12223,1.0847c-0.82847,0 -1.57859,-0.41472 -2.12223,-1.0847c-0.54348,-0.67079 -0.87969,-1.5962 -0.87969,-2.61773c0,-1.02137 0.3362,-1.94678 0.87969,-2.61773c0.54364,-0.66998 1.29376,-1.0847 2.12223,-1.0847c0.82863,0 1.57859,0.41472 2.12223,1.0847z" id="ID0.2556390194222331" fill="#000000" stroke="#00ffff" stroke-width="0.4955" stroke-linecap="round"/><path d="M65.56508,131.40167c0.21067,0.22602 0.34008,0.54106 0.34008,0.88696c0,0.3459 -0.12941,0.66077 -0.34008,0.88696c-0.20857,0.22796 -0.49841,0.369 -0.81926,0.369c-0.32069,0 -0.61053,-0.14104 -0.81926,-0.369c-0.21067,-0.22618 -0.34008,-0.54106 -0.34008,-0.88696c0,-0.3459 0.12941,-0.66094 0.34008,-0.88696c0.20873,-0.22796 0.49857,-0.369 0.81926,-0.369c0.32086,0 0.61069,0.14104 0.81926,0.369z" id="ID0.5205082013271749" fill="#ffffff" stroke="none" stroke-width="1.19603" stroke-linecap="butt"/></g><path d="M71.29168,138.09989c2.07231,1.29732 3.50921,3.93104 3.61859,6.44279c0.09177,2.17119 -1.48795,4.46419 -3.26558,5.64857c-2.63001,1.56405 -5.94859,1.99476 -8.91415,1.94177c-2.53825,-0.04411 -5.33789,-0.91442 -7.17546,-2.39187c-1.83757,-1.47923 -3.21437,-3.62392 -2.97429,-5.772c0.21003,-1.88167 2.43065,-2.75199 3.88338,-3.83928c1.91172,-1.42285 3.90632,-3.10677 6.26637,-3.44217c2.79432,-0.40422 6.1305,-0.19419 8.56115,1.41218z" data-paper-data="{&quot;origPos&quot;:null}" id="ID0.1283084861934185" fill="url(#color-4)" stroke="#000000" stroke-width="1.09259" stroke-linecap="butt"/><path d="M60.75241,137.92072c0.83833,0.98163 1.35741,2.33856 1.35741,3.83669c0,1.49813 -0.51909,2.85506 -1.35741,3.83685c-0.84027,0.98308 -1.99832,1.59103 -3.27625,1.59103c-1.27793,0 -2.27361,-0.93817 -3.27608,-1.59103c-1.07856,-0.701 -3.14038,-1.02057 -3.21098,-2.20851c-0.0811,-1.7059 1.67698,-2.88608 2.82437,-4.03218c1.03785,-1.22978 2.12353,-2.79141 3.66269,-3.02405c1.22865,-0.17675 2.43598,0.60794 3.27625,1.59119z" data-paper-data="{&quot;origPos&quot;:null}" id="ID0.8822163236327469" fill="#ffe9cc" stroke="none" stroke-width="1.0284" stroke-linecap="round"/><path d="M35.04117,124.55886c0.40212,0.25591 -0.79277,2.58768 -0.84059,4.05997c-0.03877,1.17372 -0.13959,2.37055 0,3.53038c0.14363,1.19149 0.75141,2.24001 0.84059,3.442c0.08789,1.17922 0.31811,2.73244 -0.32328,3.53038c-0.63622,0.79261 -1.72512,0.08821 -2.58639,0.08821c-0.86127,0 -1.73546,-0.27707 -2.58623,-0.08821c-0.90004,0.19952 -1.89589,0.42183 -2.58639,1.2356c-0.6569,0.77322 -1.10571,1.99638 -1.16387,3.17737c-0.05816,1.17728 0.49275,2.27345 0.84059,3.35379c0.36464,1.13156 1.16516,2.04226 1.29311,3.26558c0.12553,1.19327 0.25349,3.63103 -0.58193,3.53038c-1.71866,-0.20825 -3.05184,-2.70255 -4.52606,-4.14818c-0.74608,-0.73073 -1.6954,-1.28148 -2.1337,-2.38299c-0.44493,-1.11734 -0.23798,-2.52775 -0.32328,-3.79517c-0.0866,-1.29037 -0.34784,-2.60368 -0.19403,-3.88338c0.45527,-3.79162 0.64139,-7.84803 2.00446,-11.20893c0.87161,-2.14986 2.58251,-3.83395 4.33203,-4.41281c2.57476,-0.85093 5.54,-1.14206 7.95304,0.35301z" data-paper-data="{&quot;origPos&quot;:null}" id="ID0.5496360035613179" fill="#663b00" stroke="#000000" stroke-width="1.91544" stroke-linecap="round"/><path d="M29.07999,145.03495c-0.22586,1.15611 0.5472,3.13488 -0.26479,3.53038c-0.82072,0.39889 -1.88862,-1.52689 -3.00079,-1.94177c-0.9372,-0.36011 -1.90461,0.50487 -2.64778,0.17658c-1.56744,-1.00796 -3.24603,-2.19768 -3.79501,-3.88338c-0.60019,-1.84112 -0.48726,-4.19406 0.44122,-6.00158c0.87904,-1.41396 2.68833,-2.42548 4.41297,-2.64778c1.38036,-0.17481 2.71483,0.93898 3.7068,1.94161c1.27809,1.31509 2.16068,3.12794 2.47136,4.94256c0.23119,1.33981 -1.04674,2.45537 -1.32397,3.88338z" data-paper-data="{&quot;origPos&quot;:null}" id="ID0.3720821598544717" fill="#ffe9cc" stroke="#000000" stroke-width="2.18519" stroke-linecap="round"/><path d="M32.74801,141.84029c0.62313,0.84027 1.00974,1.99816 1.00974,3.27608c0,1.27809 -0.38661,2.43598 -1.00974,3.27625c-0.62313,0.83849 -1.48278,1.35741 -2.43243,1.35741c-0.94964,0 -1.80929,-0.51893 -2.43243,-1.35741c-0.62297,-0.84027 -1.00958,-1.99816 -1.00958,-3.27625c0,-1.27793 0.38661,-2.43582 1.00958,-3.27608c0.62313,-0.83849 1.48278,-1.35741 2.43243,-1.35741c0.94964,0 1.80929,0.51893 2.43243,1.35741z" data-paper-data="{&quot;origPos&quot;:null}" id="ID0.7903228076174855" fill="#ffe9cc" stroke="none" stroke-width="1.09259" stroke-linecap="butt"/><path d="M67.21831,154.36043c0,0 -5.04386,1.91285 -7.67403,2.42338c-1.84985,0.35866 -3.78532,0.39582 -5.65455,0.16156c-1.62043,-0.20195 -3.13585,-0.93704 -4.6852,-1.45403c-0.38774,-0.12925 -0.16156,-0.16156 -0.16156,-0.16156" data-paper-data="{&quot;origPos&quot;:null}" id="ID0.3726346711628139" fill="none" stroke="#000000" stroke-width="1" stroke-linecap="round"/><path d="M58.351,122.58752c-8.02477,0.69777 -16.70709,1.90251 -25.07356,2.6061c-2.87817,0.24541 -9.68754,1.6542 -8.59411,0.59017c1.57552,-1.63513 9.45651,-5.37699 14.53122,-6.6596c6.79806,-1.64515 13.92619,-1.66389 20.71342,-2.04129c5.76166,-0.32134 11.52381,-0.49049 17.34202,-0.12909c2.2665,0.00355 4.68148,0.01115 6.84427,1.21088c0.92848,0.4724 3.65332,2.54826 1.42785,2.99837c-8.89251,1.79766 -18.1595,0.63282 -27.19111,1.42446z" data-paper-data="{&quot;origPos&quot;:null}" id="ID0.5670463116839528" fill="#ff0000" stroke="#990000" stroke-width="2.10043" stroke-linecap="round"/><g data-paper-data="{&quot;origPos&quot;:null}" id="ID0.61209054896608" stroke-linecap="round"><path d="M61.94891,99.2428c2.2043,0.6611 4.09971,2.78511 5.09911,5.04192c0.92363,2.08556 1.53545,5.14903 0.21843,6.96237c-2.13726,2.94521 -5.68605,5.56521 -9.10528,5.282c-3.14393,-0.26092 -6.65363,-3.25072 -7.28435,-6.64248c-0.62652,-3.36753 1.76277,-6.95283 4.00633,-9.20318c1.87069,-1.7046 4.85871,-2.10155 7.06576,-1.44062z" id="ID0.0048431348986923695" fill="#ffffff" stroke="#cc0000" stroke-width="1.89455"/><path d="M55.24779,110.79052c0,0 0.19129,-3.15298 0.5661,-4.6642c0.20033,-0.80602 0.52749,-2.20657 1.13204,-2.17668c0.66918,0.03231 1.028,1.48004 1.41525,2.30108c0.42797,0.90796 0.40535,2.99497 1.01895,2.86072c0.80149,-0.17658 1.18536,-2.33711 1.81139,-3.48272c0.39291,-0.71894 0.84124,-2.65053 1.24529,-2.11448c0.95449,1.26743 0.93639,3.83104 1.4718,5.7216c0.18111,0.63929 0.67935,1.86568 0.67935,1.86568" id="ID0.9209647458046675" fill="none" stroke="#660000" stroke-width="1.47227"/></g></g><g data-paper-data="{&quot;origPos&quot;:null}"><path d="M258.47143,180.1876c-1.41564,6.14703 -4.81027,11.92534 -7.41994,17.80204c-1.62824,3.66542 -1.28983,8.42474 -4.98744,10.22883c-2.46028,1.20018 -8.24835,-1.33807 -8.09225,-3.81418c0.85607,-7.47003 6.32904,-13.75207 10.52253,-20.05635c1.70189,-2.55826 3.96436,-5.14482 7.1173,-6.46603c1.05927,-0.41558 3.21389,0.76949 2.85977,2.3057z" data-paper-data="{&quot;origPos&quot;:null,&quot;origRot&quot;:0}" id="ID0.5226789494045079" fill="#fec492" stroke="#001966" stroke-width="2.77806" stroke-linecap="round"/><path d="M248.1229,208.02329c1.5481,0.87343 2.20615,2.34167 2.56829,3.42087c0.23021,0.71469 0.09165,1.48738 -0.33266,2.09009c-0.45479,0.64765 -1.92021,0.77072 -2.18207,1.48659c-0.25939,0.71107 1.19315,1.62745 0.80212,2.29523c-0.45317,0.77384 -1.76218,1.16589 -2.93858,1.34986c-1.07563,0.16774 -2.30475,-0.14813 -3.44534,-0.35446c-1.01513,-0.18363 -1.99041,-0.53952 -2.98408,-0.80845c-0.99372,-0.26902 -2.11157,-0.34546 -2.98404,-0.80862c-0.9989,-0.52996 -1.90987,-1.25066 -2.39797,-2.04635c-0.48821,-0.79563 -0.55666,-1.69495 -0.38218,-2.48798c0.30683,-1.40019 1.1615,-2.66353 1.79977,-3.9748c0.32347,-0.66391 0.24112,-1.61306 1.08897,-1.95313c0.82954,-0.33261 2.05212,0.10245 3.06724,0.2861c1.14069,0.20627 2.22758,0.64265 3.36225,0.87691c1.81968,0.37962 3.6462,-0.03709 4.95825,0.62807z" data-paper-data="{&quot;origPos&quot;:null,&quot;origRot&quot;:0}" id="ID0.9082531672902405" fill="#fec492" stroke="#666666" stroke-width="3.16608" stroke-linecap="round"/><path d="M312.92404,175.34652c3.22139,1.14427 5.62385,3.60137 7.46504,6.06127c4.53677,6.06196 10.34978,12.0307 11.6189,19.44176c0.29321,2.46366 -5.34515,5.31904 -7.8682,4.2572c-3.79197,-1.59619 -3.71811,-6.36694 -5.54718,-9.93639c-2.93165,-5.72289 -6.64155,-11.30401 -8.39602,-17.36303c-0.43879,-1.51418 1.64676,-2.81698 2.72747,-2.46079z" data-paper-data="{&quot;origPos&quot;:null,&quot;origRot&quot;:0,&quot;index&quot;:null}" id="ID0.5226789494045079" fill="#fec492" stroke="#001966" stroke-width="2.77806" stroke-linecap="round"/><path d="M326.98904,204.37592c1.11992,-0.29684 2.18096,-0.79286 3.30842,-1.06208c1.00337,-0.23967 2.19995,-0.74187 3.04666,-0.45579c0.86541,0.29254 0.83585,1.24481 1.19563,1.88974c0.71002,1.27382 1.63344,2.48782 2.01749,3.86881c0.21821,0.78209 0.19974,1.68386 -0.24357,2.50534c-0.44321,0.82154 -1.31279,1.59167 -2.28075,2.17621c-0.84543,0.51085 -1.95731,0.64917 -2.93457,0.9729c-0.97722,0.32362 -1.93126,0.73304 -2.93464,0.97272c-1.12737,0.26928 -2.33708,0.65288 -3.42036,0.54505c-1.18477,-0.11842 -2.51353,-0.43727 -3.00892,-1.18477c-0.42748,-0.64506 0.97197,-1.64065 0.67356,-2.33621c-0.30118,-0.70024 -1.77116,-0.74185 -2.26119,-1.36326c-0.45707,-0.57826 -0.63828,-1.34205 -0.44806,-2.06843c0.30171,-1.09764 0.87727,-2.60012 2.37456,-3.55808c1.27313,-0.73693 3.11997,-0.42219 4.91578,-0.90214z" data-paper-data="{&quot;origPos&quot;:null,&quot;origRot&quot;:0,&quot;index&quot;:null}" id="ID0.9082531672902405" fill="#fec492" stroke="#666666" stroke-width="3.16608" stroke-linecap="round"/><path d="M310.85295,192.98873c-0.82265,11.65966 -12.95705,20.30258 -27.10294,19.3045c-14.14591,-0.99807 -24.94653,-11.25917 -24.12387,-22.91883c0.50153,-7.10834 0.0484,-12.50913 6.00849,-16.41522c6.07779,-3.98321 13.84575,-3.40073 21.09447,-2.8893c0,0 8.84862,-4.23647 12.84297,-2.32197c8.98459,4.3063 12.10356,13.58113 11.2809,25.24079z" data-paper-data="{&quot;origPos&quot;:null}" fill="#fec492" stroke="none" stroke-width="NaN" stroke-linecap="butt"/><path d="M314.93186,235.71272c5.31669,0.99155 9.89723,5.19727 11.298,9.35764c1.07267,3.45124 -1.95332,7.34551 -5.27644,9.1761c-3.3078,1.81072 -7.77329,0.87132 -11.63063,0.82577c-4.39528,-0.31544 -8.8423,-0.94926 -12.98117,-1.90374c-3.18545,-0.73174 -7.80578,-0.96426 -9.00397,-3.59851c-1.51496,-3.32833 -0.88125,-8.57012 2.65896,-10.34846c7.21123,-3.62149 16.64743,-5.03383 24.93525,-3.50881z" data-paper-data="{&quot;origPos&quot;:null}" id="ID0.5951190022751689" fill="#995900" stroke="#663b00" stroke-width="2.50485" stroke-linecap="round"/><path d="M254.57311,209.60541c0.29771,-14.11891 16.97241,-4.0917 31.09444,-4.06516c15.44066,0.02903 34.08674,-10.00447 33.76122,5.4328c-0.37766,17.90939 -15.20226,32.12169 -33.11163,31.74401c-17.90939,-0.37766 -32.12169,-15.20226 -31.74401,-33.11164z" data-paper-data="{&quot;origPos&quot;:null,&quot;origRot&quot;:0}" fill="#ffffff" stroke="#d3d3d3" stroke-width="2.5" stroke-linecap="butt"/><path d="M279.10883,235.48964c5.31669,0.99155 9.89723,5.19727 11.298,9.35765c1.07267,3.45124 -1.95332,7.34551 -5.27644,9.1761c-3.3078,1.81072 -7.7733,0.87132 -11.63063,0.82577c-4.39528,-0.31544 -8.84229,-0.94926 -12.98116,-1.90374c-3.18545,-0.73174 -7.80579,-0.96426 -9.00398,-3.5985c-1.51496,-3.32833 -0.88125,-8.57012 2.65895,-10.34847c7.21123,-3.62149 16.64743,-5.03383 24.93525,-3.50881z" data-paper-data="{&quot;origPos&quot;:null,&quot;index&quot;:null}" id="ID0.5951190022751689" fill="#995900" stroke="#663b00" stroke-width="2.50485" stroke-linecap="round"/><path d="M273.47132,190.58917c-0.876,12.41597 13.35632,19.69846 2.77756,18.95208c-4.86431,-0.3432 -16.41807,3.90438 -19.62916,0.83683c-6.32399,-6.04129 3.22261,-25.14576 3.7735,-32.95385c0.13981,-1.98151 4.38727,-6.92494 5.84499,-8.27436c4.14803,-3.83987 8.62678,7.967 8.62678,7.967c0,0 -0.51765,1.05634 -1.39367,13.47231z" data-paper-data="{&quot;origPos&quot;:null}" fill="#1568e0" stroke="#fbff00" stroke-width="1.5" stroke-linecap="butt"/><path d="M300.04522,168.32621c4.0328,1.99474 20.91067,33.61457 14.00606,38.72251c-3.50591,2.59363 -12.0564,1.06009 -16.77227,0.72736c-10.25592,-0.72361 -1.01207,-7.41522 -0.13605,-19.83121l-1.52152,-15.0274c0,0 4.99619,-4.63243 8.42674,-2.93557z" data-paper-data="{&quot;origPos&quot;:null,&quot;index&quot;:null}" fill="#1568e0" stroke="#fbff00" stroke-width="1.5" stroke-linecap="butt"/><path d="M257.633,158.73126c-0.73163,-11.21821 9.20649,-20.38708 22.19739,-20.47925c12.99092,-0.09216 24.11525,8.92727 24.84687,20.14548c0.73163,11.21821 -9.20649,20.38709 -22.19739,20.47925c-12.99092,0.09216 -24.11525,-8.92727 -24.84687,-20.14548z" data-paper-data="{&quot;origPos&quot;:null,&quot;origRot&quot;:0}" fill="#fec492" stroke="#000000" stroke-width="1" stroke-linecap="butt"/><path d="M246.00838,139.15904c-1.17455,-19.28639 13.50797,-35.87326 32.79438,-37.04781c19.28639,-1.17455 35.87326,13.50797 37.04782,32.79438c0.31968,5.24935 -6.01943,18.34133 -10.93924,20.1997c-6.01547,2.27223 -7.06505,-4.22062 -12.45037,-7.73448c-3.84544,-2.50909 -9.39092,-3.4376 -13.67224,-1.77823c-2.65548,1.02921 -7.0523,2.44743 -9.44059,3.99884c-5.06441,3.28979 -4.2792,8.3989 -10.21711,7.29792c-6.41778,-1.18996 -11.94808,1.55611 -13.12264,-17.73029z" data-paper-data="{&quot;origPos&quot;:null,&quot;origRot&quot;:0}" fill="#ffffff" stroke="#000000" stroke-width="1" stroke-linecap="butt"/><path d="M264.7383,126.24097c0.64051,-9.07819 8.51911,-15.91828 17.5973,-15.27777c9.07819,0.64051 15.91828,8.51909 15.27776,17.59728c-0.64051,9.07819 -8.51909,15.9183 -17.59728,15.27779c-9.07819,-0.64051 -15.9183,-8.5191 -15.27778,-17.5973z" data-paper-data="{&quot;origPos&quot;:null}" fill="#1568e0" stroke="none" stroke-width="0" stroke-linecap="butt"/><path d="M245.85158,134.82004c0.64051,-9.07819 3.51475,-16.27137 6.41975,-16.06641c2.90502,0.20497 4.74077,7.73046 4.10026,16.80865c-0.64051,9.07819 -3.51474,16.27139 -6.41976,16.06642c-2.90502,-0.20496 -4.74077,-7.73047 -4.10025,-16.80866z" data-paper-data="{&quot;origPos&quot;:null}" fill="#1568e0" stroke="none" stroke-width="0" stroke-linecap="butt"/><path d="M310.00324,147.62404c-2.90502,-0.20497 -2.30785,-7.68701 -1.66733,-16.76521c0.64051,-9.07819 -1.93083,-14.01248 0.97419,-13.80752c3.0922,0.21818 3.08479,3.51681 3.51681,6.58647c0.17962,1.27625 1.08998,1.88579 1.61293,3.06378c1.07903,2.43063 1.45383,3.87864 1.26666,6.53142c-0.64051,9.07819 -2.79824,14.59602 -5.70324,14.39106z" data-paper-data="{&quot;origPos&quot;:null,&quot;index&quot;:null}" fill="#1568e0" stroke="none" stroke-width="0" stroke-linecap="butt"/><path d="M246.00838,139.15904c-1.17455,-19.28639 13.50797,-35.87326 32.79438,-37.04781c19.28639,-1.17455 35.87326,13.50797 37.04782,32.79438c0.31968,5.24935 -6.01943,18.34133 -10.93924,20.1997c-6.01547,2.27223 -7.06505,-4.22062 -12.45037,-7.73448c-3.84544,-2.50909 -9.39092,-3.4376 -13.67224,-1.77823c-2.65548,1.02921 -7.0523,2.44743 -9.44059,3.99884c-5.06441,3.28979 -4.2792,8.3989 -10.21711,7.29792c-6.41778,-1.18996 -11.94808,1.55611 -13.12264,-17.73029z" data-paper-data="{&quot;origPos&quot;:null,&quot;origRot&quot;:0}" fill="none" stroke="#000000" stroke-width="1" stroke-linecap="butt"/><path d="M278.4896,158.41333c-0.20274,2.87345 -1.3654,5.13239 -2.59689,5.04551c-1.23147,-0.08688 -2.06541,-2.48671 -1.86268,-5.36015c0.20274,-2.87345 1.36538,-5.1324 2.59687,-5.04551c1.23147,0.08688 2.06543,2.48673 1.8627,5.36016z" data-paper-data="{&quot;origPos&quot;:null}" fill="#000000" stroke="#000000" stroke-width="1" stroke-linecap="butt"/><path d="M291.53177,158.03199c-0.20274,2.87345 -1.3654,5.1324 -2.59688,5.04551c-1.23147,-0.08688 -2.06541,-2.48671 -1.86268,-5.36016c0.20274,-2.87345 1.36538,-5.1324 2.59686,-5.04551c1.23147,0.08688 2.06543,2.48671 1.8627,5.36016z" data-paper-data="{&quot;origPos&quot;:null}" fill="#000000" stroke="#000000" stroke-width="1" stroke-linecap="butt"/><path d="M287.70025,172.0685c-0.18556,0.83655 -1.0221,0.65098 -1.0221,0.65098l0.0915,-0.12844c-3.69451,2.10339 -9.59671,-0.20598 -12.51283,-2.73252c0,0 -0.64761,-0.5611 -0.08652,-1.20871c0.5611,-0.64761 1.20871,-0.08652 1.20871,-0.08652c2.36291,2.04724 7.50394,4.26853 10.54273,2.53844l1.12755,-0.05534c0,0 0.83655,0.18557 0.65098,1.0221z" data-paper-data="{&quot;origPos&quot;:null}" fill="#000000" stroke="none" stroke-width="0.5" stroke-linecap="butt"/></g><g data-paper-data="{&quot;origPos&quot;:null}"><g data-paper-data="{&quot;origPos&quot;:null}" stroke-linecap="butt"><path d="M373.53181,160.94502c0,-3.68665 2.98862,-6.67527 6.67527,-6.67527c3.68665,0 6.67527,2.98862 6.67527,6.67527c0,3.68665 -2.98862,6.67527 -6.67527,6.67527c-3.68665,0 -6.67527,-2.98862 -6.67527,-6.67527z" data-paper-data="{&quot;origPos&quot;:null}" fill="#ff00ed" stroke="#000000" stroke-width="1"/><path d="M369.14455,171.43407c0,-3.68665 2.98864,-6.67527 6.67527,-6.67527c3.68665,0 6.67527,2.98862 6.67527,6.67527c0,3.68665 -2.98862,6.67527 -6.67527,6.67527c-3.68665,0 -6.67527,-2.98862 -6.67527,-6.67527z" data-paper-data="{&quot;origPos&quot;:null}" fill="#ff00ed" stroke="#000000" stroke-width="1"/><path d="M360.94286,181.5417c0,-4.73998 4.01329,-8.58249 8.96394,-8.58249c4.95063,0 8.96394,3.84253 8.96394,8.58249c0,4.73998 -4.01329,8.58249 -8.96394,8.58249c-4.95063,0 -8.96394,-3.84253 -8.96394,-8.58249z" data-paper-data="{&quot;origPos&quot;:null}" fill="#ff00ed" stroke="#000000" stroke-width="1"/><path d="M364.78128,182.61584c0.22008,-3.11937 2.92725,-5.46968 6.04661,-5.2496c3.11937,0.22008 5.46968,2.92725 5.2496,6.04661c-0.22008,3.11937 -2.92725,5.4697 -6.04661,5.2496c-3.11937,-0.22008 -5.4697,-2.92725 -5.2496,-6.04661z" data-paper-data="{&quot;origPos&quot;:null}" fill="#ffffff" stroke="none" stroke-width="0"/></g><g data-paper-data="{&quot;origPos&quot;:null}" stroke-linecap="butt"><path d="M436.04269,165.14025c-3.68664,0 -6.67527,-2.98862 -6.67527,-6.67527c0,-3.68665 2.98864,-6.67527 6.67527,-6.67527c3.68664,0 6.67527,2.98862 6.67527,6.67527c0,3.68665 -2.98864,6.67527 -6.67527,6.67527z" data-paper-data="{&quot;origPos&quot;:null,&quot;index&quot;:null}" fill="#ff00ed" stroke="#000000" stroke-width="1"/><path d="M440.42994,175.62931c-3.68664,0 -6.67527,-2.98862 -6.67527,-6.67527c0,-3.68665 2.98864,-6.67527 6.67527,-6.67527c3.68664,0 6.67527,2.98864 6.67527,6.67527c0,3.68665 -2.98864,6.67527 -6.67527,6.67527z" data-paper-data="{&quot;origPos&quot;:null,&quot;index&quot;:null}" fill="#ff00ed" stroke="#000000" stroke-width="1"/><path d="M446.34298,187.64416c-4.95065,0 -8.96394,-3.84251 -8.96394,-8.58249c0,-4.73996 4.01329,-8.5825 8.96394,-8.5825c4.95063,0 8.96394,3.84253 8.96394,8.5825c0,4.73996 -4.01331,8.58249 -8.96394,8.58249z" data-paper-data="{&quot;origPos&quot;:null,&quot;index&quot;:null}" fill="#ff00ed" stroke="#000000" stroke-width="1"/><path d="M446.21888,186.18242c-3.11937,0.2201 -5.82651,-2.13023 -6.04661,-5.2496c-0.22008,-3.11937 2.13023,-5.82651 5.2496,-6.04661c3.11937,-0.2201 5.82653,2.13023 6.04661,5.2496c0.2201,3.11937 -2.13023,5.82651 -5.24962,6.04661z" data-paper-data="{&quot;origPos&quot;:null,&quot;index&quot;:null}" fill="#ffffff" stroke="none" stroke-width="0"/></g><path d="M383.11537,226.6638c0.28491,-6.65197 16.24277,-1.92775 29.7577,-1.91525c14.77687,0.01368 32.62136,-4.71347 32.30983,2.55961c-0.36142,8.43782 -14.54872,15.13375 -31.68817,14.95582c-17.13947,-0.17793 -30.74078,-7.16238 -30.37934,-15.60016z" data-paper-data="{&quot;origPos&quot;:null,&quot;origRot&quot;:0,&quot;index&quot;:null}" fill="#ffffff" stroke="#d3d3d3" stroke-width="2.5" stroke-linecap="butt"/><path d="M436.97576,194.66988c-0.6793,9.62787 20.1541,21.33729 14.80933,29.37412c-3.96379,5.96028 -30.48744,3.64183 -37.62766,3.13805c-7.30731,-0.51558 -29.42163,4.56774 -34.07321,-1.09137c-7.12106,-8.66349 7.07767,-23.69302 7.86695,-34.87974c0.47997,-6.80275 0.04632,-11.97137 5.75018,-15.70954c5.81651,-3.81197 13.25053,-3.25454 20.18762,-2.76509c0,0 8.46822,-4.05434 12.29085,-2.22214c8.59835,4.12118 11.58323,12.99729 10.79594,24.1557z" data-paper-data="{&quot;origPos&quot;:null}" fill="#ff00ed" stroke="none" stroke-width="NaN" stroke-linecap="butt"/><path d="M426.63265,171.06759c3.85944,1.90899 20.01173,32.16949 13.40394,37.05784c-3.35519,2.48213 -11.53809,1.01452 -16.05123,0.6961c-9.81502,-0.69251 -0.96857,-7.09644 -0.13021,-18.97867l-1.45611,-14.38138c0,0 4.78141,-4.43328 8.06448,-2.80937z" data-paper-data="{&quot;origPos&quot;:null,&quot;index&quot;:null}" fill="#ff0000" stroke="#ffffff" stroke-width="1.5" stroke-linecap="butt"/><path d="M401.20115,192.37347c-0.83834,11.88221 12.78214,18.85163 2.65816,18.13733c-4.6552,-0.32844 -15.71226,3.73653 -18.78531,0.80085c-6.05212,-5.78158 3.08407,-24.06476 3.61127,-31.53717c0.1338,-1.89633 4.19867,-6.62723 5.59372,-7.91865c3.96971,-3.6748 8.25591,7.6245 8.25591,7.6245c0,0 -0.4954,1.01093 -1.33376,12.89314z" data-paper-data="{&quot;origPos&quot;:null}" fill="#ff0000" stroke="#ffffff" stroke-width="1.5" stroke-linecap="butt"/><path d="M386.04372,161.88513c-0.70018,-10.73594 8.8107,-19.51065 21.24313,-19.59885c12.43244,-0.0882 23.07854,8.54349 23.77871,19.27943c0.70018,10.73594 -8.8107,19.51065 -21.24313,19.59885c-12.43244,0.0882 -23.07854,-8.54349 -23.77871,-19.27943z" data-paper-data="{&quot;origPos&quot;:null,&quot;origRot&quot;:0}" fill="#fec492" stroke="#000000" stroke-width="1" stroke-linecap="butt"/><path d="M374.91884,143.15431c-1.12406,-18.45728 12.92727,-34.33108 31.38456,-35.45514c18.45728,-1.12406 34.33108,12.92727 35.45514,31.38456c0.30594,5.02368 -5.76066,17.55284 -10.46897,19.33132c-5.75686,2.17455 -6.76133,-4.03917 -11.91513,-7.40197c-3.68013,-2.40122 -8.98721,-3.28982 -13.08447,-1.70178c-2.54132,0.98497 -6.74912,2.34221 -9.03474,3.82693c-4.8467,3.14836 -4.09525,8.03783 -9.77788,6.98418c-6.14188,-1.13881 -11.43444,1.48921 -12.5585,-16.96807z" data-paper-data="{&quot;origPos&quot;:null,&quot;origRot&quot;:0}" fill="#ff00ed" stroke="#000000" stroke-width="1" stroke-linecap="butt"/><path d="M387.56407,181.18118c-1.35479,5.88277 -4.60347,11.41267 -7.10095,17.03674c-1.55824,3.50785 -1.23437,8.06257 -4.77303,9.78909c-2.35451,1.14858 -7.89375,-1.28054 -7.74437,-3.65021c0.81927,-7.14889 6.05696,-13.16087 10.07017,-19.19413c1.62873,-2.44828 3.79393,-4.92365 6.81133,-6.18805c1.01373,-0.39772 3.07572,0.73641 2.73683,2.20658z" data-paper-data="{&quot;origPos&quot;:null,&quot;origRot&quot;:0}" id="ID0.5226789494045079" fill="#fec492" stroke="#bc00af" stroke-width="2.77806" stroke-linecap="round"/><path d="M376.94246,209.0581c1.48155,0.83588 2.11131,2.241 2.45787,3.27381c0.22031,0.68396 0.08771,1.42344 -0.31836,2.00024c-0.43524,0.6198 -1.83766,0.73759 -2.08826,1.42269c-0.24824,0.6805 1.14186,1.55749 0.76764,2.19656c-0.43369,0.74058 -1.68643,1.11576 -2.81224,1.29183c-1.0294,0.16053 -2.20568,-0.14177 -3.29723,-0.33922c-0.97148,-0.17573 -1.90484,-0.51633 -2.85579,-0.77369c-0.951,-0.25746 -2.02079,-0.33061 -2.85576,-0.77386c-0.95595,-0.50718 -1.82777,-1.1969 -2.29488,-1.95839c-0.46723,-0.76142 -0.53273,-1.62209 -0.36575,-2.38102c0.29364,-1.33999 1.11156,-2.54903 1.7224,-3.80392c0.30957,-0.63537 0.23076,-1.54371 1.04216,-1.86917c0.79388,-0.31831 1.9639,0.09804 2.93538,0.27379c1.09165,0.1974 2.13181,0.61503 3.2177,0.83921c1.74145,0.36329 3.48945,-0.03549 4.74509,0.60107z" data-paper-data="{&quot;origPos&quot;:null,&quot;origRot&quot;:0}" id="ID0.9082531672902405" fill="#fec492" stroke="#666666" stroke-width="3.16608" stroke-linecap="round"/><path d="M438.95782,177.7861c3.08291,1.09508 5.38209,3.44655 7.14412,5.8007c4.34173,5.80136 9.90485,11.51351 11.11941,18.60596c0.2806,2.35775 -5.11536,5.09038 -7.52995,4.07419c-3.62895,-1.52757 -3.55827,-6.09322 -5.30871,-9.50923c-2.80562,-5.47687 -6.35603,-10.81805 -8.03508,-16.6166c-0.41993,-1.44909 1.57597,-2.69588 2.61022,-2.35501z" data-paper-data="{&quot;origPos&quot;:null,&quot;origRot&quot;:0,&quot;index&quot;:null}" id="ID0.5226789494045079" fill="#fec492" stroke="#bc00af" stroke-width="2.77806" stroke-linecap="round"/><path d="M452.41816,205.56754c1.07178,-0.28408 2.0872,-0.75877 3.16619,-1.01642c0.96023,-0.22937 2.10537,-0.70997 2.91568,-0.4362c0.82821,0.27996 0.79992,1.19129 1.14423,1.8085c0.6795,1.21905 1.56323,2.38087 1.93077,3.7025c0.20883,0.74847 0.19115,1.61148 -0.2331,2.39763c-0.42416,0.78622 -1.25635,1.52324 -2.1827,2.08266c-0.80908,0.48889 -1.87317,0.62126 -2.80842,0.93107c-0.93521,0.30971 -1.84824,0.70153 -2.80847,0.93091c-1.07891,0.25771 -2.23661,0.6248 -3.27332,0.52161c-1.13384,-0.11333 -2.40547,-0.41847 -2.87957,-1.13384c-0.4091,-0.61733 0.93019,-1.57011 0.6446,-2.23577c-0.28823,-0.67014 -1.69502,-0.70996 -2.16399,-1.30465c-0.43743,-0.5534 -0.61085,-1.28436 -0.4288,-1.97951c0.28874,-1.05045 0.83956,-2.48835 2.27248,-3.40512c1.2184,-0.70525 2.98585,-0.40403 4.70445,-0.86335z" data-paper-data="{&quot;origPos&quot;:null,&quot;origRot&quot;:0,&quot;index&quot;:null}" id="ID0.9082531672902405" fill="#fec492" stroke="#666666" stroke-width="3.16608" stroke-linecap="round"/><path d="M440.87932,235.55718c5.08813,0.94892 9.47175,4.97384 10.81231,8.95536c1.02656,3.30287 -1.86935,7.02973 -5.04961,8.78163c-3.1656,1.73288 -7.43912,0.83387 -11.13063,0.79027c-4.20633,-0.30187 -8.46217,-0.90846 -12.42311,-1.8219c-3.04851,-0.70028 -7.47022,-0.92281 -8.6169,-3.44381c-1.44983,-3.18525 -0.84336,-8.20169 2.54465,-9.90359c6.90123,-3.4658 15.93177,-4.81742 23.86329,-3.35796z" data-paper-data="{&quot;origPos&quot;:null}" id="ID0.5951190022751689" fill="#995900" stroke="#663b00" stroke-width="2.50485" stroke-linecap="round"/><path d="M406.59631,235.34369c5.08813,0.94892 9.47175,4.97384 10.81231,8.95536c1.02656,3.30287 -1.86935,7.02973 -5.04961,8.78163c-3.1656,1.73288 -7.43912,0.83387 -11.13063,0.79027c-4.20633,-0.30187 -8.46217,-0.90846 -12.42311,-1.8219c-3.04851,-0.70028 -7.47022,-0.92281 -8.6169,-3.44381c-1.44983,-3.18525 -0.84336,-8.20169 2.54465,-9.90359c6.90123,-3.4658 15.93177,-4.81742 23.86329,-3.35796z" data-paper-data="{&quot;origPos&quot;:null,&quot;index&quot;:null}" id="ID0.5951190022751689" fill="#995900" stroke="#663b00" stroke-width="2.50485" stroke-linecap="round"/><path d="M392.84357,130.79158c0.61298,-8.68793 8.15287,-15.23396 16.8408,-14.62098c8.68793,0.61298 15.23396,8.15285 14.62098,16.84078c-0.61298,8.68793 -8.15285,15.23398 -16.84078,14.621c-8.68793,-0.61298 -15.23398,-8.15287 -14.621,-16.8408z" data-paper-data="{&quot;origPos&quot;:null}" fill="#ffffff" stroke="none" stroke-width="0" stroke-linecap="butt"/><path d="M374.76878,139.00184c0.61298,-8.68793 3.36366,-15.57187 6.14377,-15.37571c2.78013,0.19615 4.53697,7.39812 3.92399,16.08605c-0.61298,8.68793 -3.36364,15.57188 -6.14377,15.37573c-2.78013,-0.19615 -4.53697,-7.39814 -3.92399,-16.08606z" data-paper-data="{&quot;origPos&quot;:null}" fill="#ffffff" stroke="none" stroke-width="0" stroke-linecap="butt"/><path d="M436.16258,151.2554c-2.78013,-0.19615 -2.20863,-7.35654 -1.59565,-16.04447c0.61298,-8.68793 -1.84783,-13.41009 0.9323,-13.21394c2.95926,0.2088 2.95218,3.36562 3.36562,6.30332c0.1719,1.22138 1.04312,1.80473 1.54359,2.93207c1.03264,2.32614 1.39133,3.71189 1.2122,6.25064c-0.61298,8.68793 -2.67794,13.96854 -5.45805,13.77239z" data-paper-data="{&quot;origPos&quot;:null,&quot;index&quot;:null}" fill="#ffffff" stroke="none" stroke-width="0" stroke-linecap="butt"/><path d="M406.0037,161.58086c-0.19402,2.74992 -1.3067,4.91176 -2.48525,4.82861c-1.17853,-0.08315 -1.97662,-2.3798 -1.7826,-5.12973c0.19402,-2.74992 1.30668,-4.91176 2.48523,-4.82861c1.17853,0.08315 1.97664,2.37982 1.78262,5.12973z" data-paper-data="{&quot;origPos&quot;:null}" fill="#000000" stroke="#000000" stroke-width="1" stroke-linecap="butt"/><path d="M418.4852,161.21591c-0.19402,2.74992 -1.3067,4.91176 -2.48525,4.82861c-1.17853,-0.08315 -1.97662,-2.3798 -1.7826,-5.12973c0.19402,-2.74992 1.30668,-4.91176 2.48523,-4.82861c1.17853,0.08315 1.97664,2.3798 1.78262,5.12973z" data-paper-data="{&quot;origPos&quot;:null}" fill="#000000" stroke="#000000" stroke-width="1" stroke-linecap="butt"/><path d="M414.81839,174.649c-0.17759,0.80059 -0.97816,0.623 -0.97816,0.623l0.08756,-0.12292c-3.53568,2.01297 -9.18415,-0.19712 -11.97491,-2.61504c0,0 -0.61977,-0.53698 -0.08281,-1.15675c0.53698,-0.61977 1.15675,-0.08281 1.15675,-0.08281c2.26133,1.95922 7.18135,4.08503 10.08951,2.42932l1.07907,-0.05296c0,0 0.80059,0.17759 0.623,0.97816z" data-paper-data="{&quot;origPos&quot;:null}" fill="#000000" stroke="none" stroke-width="0.5" stroke-linecap="butt"/><path d="M374.91883,143.15431c-1.12406,-18.45728 12.92727,-34.33108 31.38456,-35.45514c18.45728,-1.12406 34.33108,12.92727 35.45514,31.38456c0.30594,5.02368 -5.76066,17.55284 -10.46897,19.33132c-5.75686,2.17455 -6.76133,-4.03917 -11.91513,-7.40197c-3.68013,-2.40122 -8.98721,-3.28982 -13.08447,-1.70178c-2.54132,0.98497 -6.74912,2.34221 -9.03474,3.82693c-4.8467,3.14836 -4.09525,8.03783 -9.77788,6.98418c-6.14188,-1.13881 -11.43444,1.48921 -12.5585,-16.96807z" data-paper-data="{&quot;origPos&quot;:null,&quot;origRot&quot;:0}" fill="none" stroke="#000000" stroke-width="1" stroke-linecap="butt"/></g><path d="M115,91l0,177" fill="none" stroke="#000000" stroke-width="5" stroke-linecap="round"/><path d="M226,89v181" fill="none" stroke="#000000" stroke-width="5" stroke-linecap="round"/><path d="M348,92v179" fill="none" stroke="#000000" stroke-width="5" stroke-linecap="round"/></g></g></svg>