<svg version="1.1" xmlns="http://www.w3.org/2000/svg" xmlns:xlink="http://www.w3.org/1999/xlink" width="781.52703" height="318.36487" viewBox="0,0,781.52703,318.36487"><g transform="translate(263.25,186.11486)"><g data-paper-data="{&quot;isPaintingLayer&quot;:true}" fill-rule="nonzero" stroke-linecap="butt" stroke-linejoin="miter" stroke-miterlimit="10" stroke-dasharray="" stroke-dashoffset="0" style="mix-blend-mode: normal"><path d="M-263,132v-37h169v37z" fill="#4ba7fa" stroke="#3b85c6" stroke-width="0.5"/><path d="M-26.5,81v-34h15.88256c0.41534,0.05623 0.83877,0.08695 1.26867,0.09055c0.02867,0.00008 0.05717,0.0002 0.08549,0.00036c59.58672,0.33346 119.17598,0.39453 178.76328,0.13847v4.90955c-0.29393,8.85281 -1.01264,19.68661 0,27.07255v1.78852z" fill="#4ba7fa" stroke="#3b85c6" stroke-width="0.5"/><path d="M228.5,25.00001v-35.78392c40.08292,0.2647 85.21248,-0.049 124.48424,-0.06918c36.83844,-0.01892 73.67854,0.33047 110.51576,0.08637v35.76673z" fill="#4ba7fa" stroke="#3b85c6" stroke-width="0.5"/><path d="M398.40841,-139.81981v-45.04505h118.61862v45.04505z" fill="#ff76ca" stroke="#cb067f" stroke-width="2.5"/><path d="M4.63276,81.52218c-0.09608,0 -0.19215,0 -0.28823,0c-8.27545,0 -16.5509,0 -24.82635,0l11.99008,-34.42696c8.35719,0.04644 16.71443,0.08752 25.0717,0.12311z" fill="#4396e0" stroke="none" stroke-width="0"/><path d="" fill="#cb067f" stroke="none" stroke-width="0"/><path d="" fill="#cb067f" stroke="none" stroke-width="0"/><path d="M75.68417,81.4228c-8.36578,0.01688 -16.73156,0.03418 -25.09734,0.04951l-11.90154,-34.17273c8.37855,0.02589 16.75712,0.04615 25.13571,0.06067z" data-paper-data="{&quot;index&quot;:null}" fill="#4396e0" stroke="none" stroke-width="0"/><path d="" data-paper-data="{&quot;index&quot;:null}" fill="#cb067f" stroke="none" stroke-width="0"/><path d="" data-paper-data="{&quot;index&quot;:null}" fill="#cb067f" stroke="none" stroke-width="0"/><path d="M127.07493,81.34498c-8.37488,0.00513 -16.74977,0.01559 -25.12467,0.02898l11.84006,-33.99622c8.37671,-0.00882 16.75342,-0.02363 25.13009,-0.04456z" fill="#4396e0" stroke="none" stroke-width="0"/><path d="" fill="#cb067f" stroke="none" stroke-width="0"/><path d="" fill="#cb067f" stroke="none" stroke-width="0"/><path d="M159.59525,47.26903c3.33741,-0.01238 6.67483,-0.02575 10.01224,-0.04012c-0.04643,7.87038 -0.93699,18.77658 -0.51888,27.29827z" data-paper-data="{&quot;index&quot;:null}" fill="#4396e0" stroke="none" stroke-width="0"/><path d="" data-paper-data="{&quot;index&quot;:null}" fill="#cb067f" stroke="none" stroke-width="0"/><path d="" data-paper-data="{&quot;index&quot;:null}" fill="#cb067f" stroke="none" stroke-width="0"/><path d="" data-paper-data="{&quot;index&quot;:null}" fill="#cb067f" stroke="none" stroke-width="0"/><path d="M238.13193,-10.73139c8.23724,0.036 16.6448,0.05127 25.13302,0.05296l12.48395,35.84501c-8.35761,0.0338 -16.71519,0.07382 -25.07272,0.12019z" data-paper-data="{&quot;index&quot;:null}" fill="#4396e0" stroke="none" stroke-width="0"/><path d="" data-paper-data="{&quot;index&quot;:null}" fill="#cb067f" stroke="none" stroke-width="0"/><path d="" data-paper-data="{&quot;index&quot;:null}" fill="#cb067f" stroke="none" stroke-width="0"/><path d="M302.93208,-10.74158c8.46617,-0.023 16.87502,-0.04845 25.13872,-0.06932l-12.4902,35.86295c-8.37868,0.0144 -16.75735,0.03484 -25.13598,0.06147z" data-paper-data="{&quot;index&quot;:null}" fill="#4396e0" stroke="none" stroke-width="0"/><path d="" data-paper-data="{&quot;index&quot;:null}" fill="#cb067f" stroke="none" stroke-width="0"/><path d="" data-paper-data="{&quot;index&quot;:null}" fill="#cb067f" stroke="none" stroke-width="0"/><path d="M360.47033,-10.85217c8.37773,0.00604 16.75552,0.02776 25.13333,0.05385l12.50306,35.89988c-8.37789,-0.024 -16.75579,-0.04236 -25.13372,-0.05495z" data-paper-data="{&quot;index&quot;:null}" fill="#4396e0" stroke="none" stroke-width="0"/><path d="" data-paper-data="{&quot;index&quot;:null}" fill="#cb067f" stroke="none" stroke-width="0"/><path d="" data-paper-data="{&quot;index&quot;:null}" fill="#cb067f" stroke="none" stroke-width="0"/><path d="M423.83428,-10.68878c8.37279,0.01319 16.74552,0.01355 25.11814,-0.0102l-12.52026,35.94926c-8.35917,-0.04083 -16.71839,-0.07623 -25.07764,-0.10608z" data-paper-data="{&quot;index&quot;:null}" fill="#4396e0" stroke="none" stroke-width="0"/><path d="" data-paper-data="{&quot;index&quot;:null}" fill="#cb067f" stroke="none" stroke-width="0"/><path d="" data-paper-data="{&quot;index&quot;:null}" fill="#cb067f" stroke="none" stroke-width="0"/></g></g></svg>