<svg version="1.1" xmlns="http://www.w3.org/2000/svg" xmlns:xlink="http://www.w3.org/1999/xlink" width="507.60232" height="227.11574" viewBox="0,0,507.60232,227.11574"><g transform="translate(-65.81922,-168.78542)"><g data-paper-data="{&quot;isPaintingLayer&quot;:true}" fill-rule="nonzero" stroke-linecap="butt" stroke-linejoin="miter" stroke-miterlimit="10" stroke-dasharray="" stroke-dashoffset="0" style="mix-blend-mode: normal"><path d="M66.81922,251.21201v-81.42659h131.60809v81.42659z" fill="#4ba7fa" stroke="#3b85c6" stroke-width="2"/><path d="M227.77876,370.25289v-56.80925h344.64278v56.80925z" fill="#ff76ca" stroke="#cb067f" stroke-width="2"/><path d="M181.38454,366.7538v-16.89672c0.33493,-47.2097 0.31792,-94.42287 0,-141.63273v-38.40928h64.38382v196.93873z" fill="#4ba7fa" stroke="#3b85c6" stroke-width="2"/><path d="M387.67811,321.72329c0,-0.58756 0,-2.70254 0,-3.04804c0,-0.09336 0.75665,-0.17256 1.48398,-0.17256c1.62596,0 8.0495,0 10.48985,0c0.59022,0 0.94744,0.05066 0.94744,0.1154c0,0.29505 0,2.48033 0,3.09566c0,0.10197 -0.53053,0.16083 -1.08637,0.16083c-1.47846,0 -8.25996,0 -10.83719,0c-0.62083,0 -0.9977,-0.05524 -0.9977,-0.1513z" fill="#bbc9e4" stroke="none" stroke-width="0"/><path d="M385.32,319.30198c0,-5.47847 0,-25.19852 0,-28.41995c0,-0.87045 1.08445,-1.60892 2.12688,-1.60892c2.33036,0 11.53674,0 15.03432,0c0.84592,0 1.35789,0.47233 1.35789,1.07604c0,2.75106 0,23.12665 0,28.864c0,0.95074 -0.76037,1.49952 -1.55702,1.49952c-2.11897,0 -11.83838,0 -15.53214,0c-0.88979,0 -1.42993,-0.51501 -1.42993,-1.4107z" fill="#f3079a" stroke="none" stroke-width="0"/><path d="M388.30695,290.8727c0,-0.58756 0,-2.70254 0,-3.04804c0,-0.09336 0.75665,-0.17256 1.48399,-0.17256c1.62596,0 8.0495,0 10.48985,0c0.59022,0 0.94744,0.05066 0.94744,0.1154c0,0.29505 0,2.48033 0,3.09566c0,0.10197 -0.53053,0.16083 -1.08637,0.16083c-0.73213,0 -2.76466,0 -4.94312,0c-2.22073,0 -4.59308,0 -5.89408,0c-0.62083,0 -0.9977,-0.05524 -0.9977,-0.1513z" fill="#bbc9e4" stroke="none" stroke-width="0"/><path d="M92.81792,211.51773c0,-17.35752 14.07105,-31.42857 31.42857,-31.42857c17.35752,0 31.42857,14.07105 31.42857,31.42857c0,17.35752 -14.07105,31.42857 -31.42857,31.42857c-17.35752,0 -31.42857,-14.07105 -31.42857,-31.42857z" fill="none" stroke="#3b85c6" stroke-width="20"/><path d="M243.78374,196.00549l2.64949,2.64949c-0.13286,13.08189 -0.20957,26.1647 -0.22607,39.24759l-31.19285,31.19285l-22.16025,-22.16025z" fill="#4191d9" stroke="none" stroke-width="0"/><path d="M185.8742,197.10511l50.92968,50.92968l-22.16025,22.16025l-33.10263,-33.10263c-0.04834,-11.81728 -0.11619,-23.63444 -0.20274,-35.45137z" fill="#4191d9" stroke="none" stroke-width="0"/><path d="M241.28373,285.3805l5.19214,5.19213c0.00567,0.48683 0.01144,0.97365 0.01729,1.46047c0,0.31662 0.01471,0.6298 0.0435,0.9389c-0.08363,9.74262 -0.0031,19.48732 0.24646,29.22568c0.00055,0.02134 0.00109,0.04274 0.00162,0.06418c-0.00108,0.06046 -0.00162,0.12104 -0.00162,0.18176c0,0.25165 0.0093,0.50114 0.02756,0.74812c0.01171,0.30663 0.0288,0.61687 0.05749,0.92481l-34.35386,34.35386l-22.16026,-22.16026z" fill="#4191d9" stroke="none" stroke-width="0"/><path d="M183.3742,286.48012l50.92968,50.92968l-22.16026,22.16026l-30.63353,-30.63355c0.0667,-13.56926 0.10495,-27.13873 0.11596,-40.70825z" fill="#4191d9" stroke="none" stroke-width="0"/><path d="M425.79894,353.54602l-21.56963,-21.56963l9.68432,-9.68432l21.56963,21.56963z" fill="#ffffff" stroke="none" stroke-width="0"/><path d="M404.85185,356.31233l21.56963,-21.56963l9.68432,9.68432l-21.56963,21.56963z" fill="#ffffff" stroke="none" stroke-width="0"/><path d="M358.28879,395.90116h-17.8125v-81.5625h17.8125z" fill="#cb0680" stroke="none" stroke-width="0"/><path d="M484.53879,395.90116h-17.8125v-81.5625h17.8125z" fill="#cb0680" stroke="none" stroke-width="0"/><path d="M543.29894,354.17102l-21.56963,-21.56963l9.68432,-9.68432l21.56963,21.56963z" fill="#ffffff" stroke="none" stroke-width="0"/><path d="M522.35185,356.93733l21.56963,-21.56963l9.68432,9.68432l-21.56963,21.56963z" fill="#ffffff" stroke="none" stroke-width="0"/></g></g></svg>