<svg version="1.1" xmlns="http://www.w3.org/2000/svg" xmlns:xlink="http://www.w3.org/1999/xlink" width="539" height="615" viewBox="0,0,539,615"><g transform="translate(-98.5,214)"><g data-paper-data="{&quot;isPaintingLayer&quot;:true}" fill-rule="nonzero" stroke-linecap="butt" stroke-linejoin="miter" stroke-miterlimit="10" stroke-dasharray="" stroke-dashoffset="0" style="mix-blend-mode: normal"><path d="M505.5,399v-92h131v92z" fill="#4ba7fa" stroke="#3b85c6" stroke-width="2"/><path d="M258.25,85v-27.25h76v27.25z" data-paper-data="{&quot;index&quot;:null}" fill="#4ba7fa" stroke="#3b85c6" stroke-width="2"/><path d="M181.5,182.55556v-29h76v29z" data-paper-data="{&quot;index&quot;:null}" fill="#fff866" stroke="#f2eb61" stroke-width="2"/><path d="M111.5,182v-97h84v97z" data-paper-data="{&quot;index&quot;:null}" fill="#fff866" stroke="#f2eb61" stroke-width="2"/><path d="M99.5,182v-262h44v124.776c-0.63896,5.5894 -1.24985,13.83727 0,20.6358v116.5882z" fill="#fff866" stroke="#f2eb61" stroke-width="2"/><path d="M306.5,85v-298h84v298z" data-paper-data="{&quot;index&quot;:null}" fill="#4ba7fa" stroke="#3b85c6" stroke-width="2"/><path d="M262.5,400v-128h253v128z" fill="#4ba7fa" stroke="#3b85c6" stroke-width="2"/><path d="M316.85096,-172.56878l-5.59885,-4.99028l24.39692,-27.37215l5.59885,4.99027z" fill="#3b85c6" stroke="none" stroke-width="0"/><path d="M331.77573,-154.55646l2.14108,-7.18789l35.14081,10.46747l-2.14108,7.1879z" fill="#3b85c6" stroke="none" stroke-width="0"/><path d="M374.94489,-164.67977l-7.20486,2.08328l-10.18492,-35.22374l7.20485,-2.08328z" fill="#3b85c6" stroke="none" stroke-width="0"/><path d="M324.75407,-71.91119l-5.95637,-4.5576l22.28158,-29.12002l5.95637,4.55759z" fill="#3b85c6" stroke="none" stroke-width="0"/><path d="M377.35488,-83.94144l-6.96698,2.77694l-13.57612,-34.06073l6.96696,-2.77693z" fill="#3b85c6" stroke="none" stroke-width="0"/><path d="M350.66329,-43.18981l-2.3667,7.1168l-34.79321,-11.57052l2.36669,-7.11679z" fill="#3b85c6" stroke="none" stroke-width="0"/><path d="M364.8496,-51.49579l7.47474,0.61513l-3.0073,36.54314l-7.47473,-0.61513z" fill="#3b85c6" stroke="none" stroke-width="0"/><path d="M323.21346,-19.67469l6.31844,-4.04073l19.75462,30.89012l-6.31843,4.04072z" fill="#3b85c6" stroke="none" stroke-width="0"/><path d="M355.66272,53.85392l-3.75666,6.49136l-31.73546,-18.36587l3.75666,-6.49134z" fill="#3b85c6" stroke="none" stroke-width="0"/><path d="M351.58132,43.04146l-4.24023,-6.18633l30.24426,-20.72992l4.24021,6.18632z" fill="#3b85c6" stroke="none" stroke-width="0"/><path d="M100.11364,-35.15873v-14.28571h42.85714v14.28571z" fill="#f2eb61" stroke="none" stroke-width="0"/><path d="M100.11364,-0.87302v-16.07143h42.5v16.07143z" fill="#f2eb61" stroke="none" stroke-width="0"/><path d="M100.11364,33.05556v-15.71429h42.5v15.71429z" fill="#f2eb61" stroke="none" stroke-width="0"/><path d="M143.12492,48.53033c-0.40607,4.8087 -0.59095,10.60653 0.18401,15.73783l-44.52718,24.09706c-0.01121,-5.26543 -0.03684,-10.53082 -0.07643,-15.79605z" fill="#f2eb61" stroke="none" stroke-width="0"/><path d="M100.11364,115.19841v-11.78571h43.21429v11.78571z" fill="#f2eb61" stroke="none" stroke-width="0"/><path d="M99.75649,151.98413v-11.78571h43.21429v11.78571z" fill="#f2eb61" stroke="none" stroke-width="0"/><path d="M228.68506,182.34127v-28.57143h15.71429v28.57143z" fill="#f2eb61" stroke="none" stroke-width="0"/><path d="" fill="#3b85c6" stroke="none" stroke-width="NaN"/><path d="M273.1528,372.74428l18.75361,-100.69244h26.25505l22.21581,100.69244z" fill="#3b85c6" stroke="none" stroke-width="0"/><path d="M417.21801,272.72408l-22.21581,100.69244h-26.25505l-18.75361,-100.69244z" data-paper-data="{&quot;index&quot;:null}" fill="#3b85c6" stroke="none" stroke-width="0"/><path d="M431.45055,372.9347l18.75361,-100.69244h26.25505l22.21581,100.69244z" data-paper-data="{&quot;index&quot;:null}" fill="#3b85c6" stroke="none" stroke-width="0"/></g></g></svg>