<svg version="1.1" xmlns="http://www.w3.org/2000/svg" xmlns:xlink="http://www.w3.org/1999/xlink" width="666.5" height="443.29604" viewBox="0,0,666.5,443.29604"><g transform="translate(13.5,51)"><g data-paper-data="{&quot;isPaintingLayer&quot;:true}" fill-rule="nonzero" stroke-linecap="butt" stroke-linejoin="miter" stroke-miterlimit="10" stroke-dasharray="" stroke-dashoffset="0" style="mix-blend-mode: normal"><path d="M155.44887,50.17449c0,-15.47277 12.54316,-28.01592 28.01592,-28.01592c15.47277,0 28.01592,12.54316 28.01592,28.01592c0,6.64744 9.62606,19.49021 5.75809,24.29385c-5.13523,6.37746 -24.94868,3.72207 -33.77401,3.72207c-7.73638,0 -28.82487,1.1508 -33.89476,-3.91908c-5.06988,-5.06988 5.87883,-16.36045 5.87883,-24.09684z" fill="#00c4ff" stroke="#0084ac" stroke-width="2"/><path d="M392.5,94v-72h32v72z" fill="#cb067f" stroke="#cb067f" stroke-width="2"/><path d="M-12.5,365v-75h164v75z" fill="#ff76ca" stroke="#cb067f" stroke-width="2"/><path d="M230.5,369v-89h231v89z" fill="#fff866" stroke="#f2eb61" stroke-width="2"/><path d="M510.5,365v-152h65v152z" fill="#ff76ca" stroke="#cb067f" stroke-width="2"/><path d="M562,174v-29h90v29z" fill="#fff866" stroke="#f2eb61" stroke-width="2"/><path d="M392.5,107v-30h123v30z" fill="#ff76ca" stroke="#cb067f" stroke-width="2"/><path d="M257.5,35v-27h167v27z" fill="#ff76ca" stroke="#cb067f" stroke-width="2"/><path d="M67.5,-19v-31h113v31z" fill="#fff866" stroke="#f2eb61" stroke-width="2"/><path d="M120.31784,330.70021l-21.56963,-21.56963l9.68432,-9.68432l21.56963,21.56963z" fill="#ffffff" stroke="none" stroke-width="0"/><path d="M99.37075,333.46652l21.56963,-21.56963l9.68432,9.68432l-21.56963,21.56963z" fill="#ffffff" stroke="none" stroke-width="0"/><path d="M52.80769,371.17918h-17.8125v-81.5625h17.8125z" fill="#cb0680" stroke="none" stroke-width="0"/><path d="M227.94683,384.75328l22.03982,-105.35034c1.07386,0.23407 2.00924,0.35355 2.58121,0.35338c11.65763,-0.0034 23.3153,0.00525 34.97298,0.0203l-23.53963,112.51942z" fill="#f2eb61" stroke="none" stroke-width="0"/><path d="M308.66306,380.88561l21.13732,-101.03638c12.53971,0.02395 25.07943,0.0474 37.61912,0.06332l-22.70205,108.51581z" fill="#f2eb61" stroke="none" stroke-width="0"/><path d="M386.65079,379.74646l20.88225,-99.81718c12.54951,-0.00814 25.09899,-0.03134 37.6484,-0.07663l-22.47627,107.43657z" fill="#f2eb61" stroke="none" stroke-width="0"/><path d="M509.76939,247.53313c-0.03362,-6.20252 -0.07183,-12.40501 -0.11453,-18.60744c0,-0.10545 -0.00163,-0.21051 -0.00487,-0.31517c-0.00234,-0.0965 -0.00546,-0.19151 -0.00935,-0.28507h67.59172c-0.04472,6.4025 -0.08327,12.80506 -0.1155,19.20768z" fill="#cb067f" stroke="none" stroke-width="0"/><path d="M509.93928,297.55114c-0.00855,-6.40257 -0.02226,-12.80514 -0.04102,-19.20768h67.11295c-0.01156,6.40255 -0.01656,12.80512 -0.01485,19.20768z" fill="#cb067f" stroke="none" stroke-width="0"/><path d="M509.90455,345.76842c0.01799,-6.40254 0.03057,-12.80511 0.03783,-19.20768h67.10816c0.02232,6.4026 0.05158,12.80517 0.08792,19.20768z" fill="#cb067f" stroke="none" stroke-width="0"/><path d="M223.71629,76.69311c0,8.28804 -18.04921,15.00682 -40.31404,15.00682c-22.26483,0 -40.31404,-6.71878 -40.31404,-15.00682c0,-8.28804 18.04921,-15.00682 40.31404,-15.00682c22.26483,0 40.31404,6.71878 40.31404,15.00682z" fill="#b7b7b7" stroke="#0084ac" stroke-width="2"/><path d="M174.085,42.15228c0,0 0.6868,-3.22036 3.15419,-5.20853c2.262,-1.82267 6.19897,-2.45903 8.6923,-1.8231c2.39148,0.60994 5.4545,2.88882 6.56939,5.4634c1.31539,3.0376 0.46225,6.3831 0.46225,6.3831c0,0 -4.40049,-1.03994 -9.61354,-2.36953c-5.21305,-1.32959 -9.2646,-2.44533 -9.2646,-2.44533z" fill="#4eff45" stroke="#000000" stroke-width="1.5"/><path d="M183.38906,44.44286c5.21305,1.32958 9.57407,2.52426 9.57407,2.52426c0,0 -0.85337,3.34544 -3.46292,5.38199c-2.21177,1.72612 -5.9921,2.25961 -8.38358,1.64965c-2.49332,-0.63593 -5.6446,-3.08014 -6.75734,-5.76353c-1.21377,-2.92705 -0.27431,-6.08297 -0.27431,-6.08297c0,0 4.09101,0.96101 9.30406,2.2906z" data-paper-data="{&quot;index&quot;:null}" fill="#ffad78" stroke="#000000" stroke-width="1.5"/></g></g></svg>