<svg version="1.1" xmlns="http://www.w3.org/2000/svg" xmlns:xlink="http://www.w3.org/1999/xlink" width="554.5" height="175.90103" viewBox="0,0,554.5,175.90103"><g transform="translate(-96.3213,-28.34897)"><g data-paper-data="{&quot;isPaintingLayer&quot;:true}" fill-rule="nonzero" stroke-linecap="butt" stroke-linejoin="miter" stroke-miterlimit="10" stroke-dasharray="" stroke-dashoffset="0" style="mix-blend-mode: normal"><path d="M203.5713,132v-93h446v93c0,0 -243.11079,0 -325.20843,0c-23.65394,0 -51.93938,0 -75.19063,0c-1.80976,-1.81055 -4.3104,-2.93048 -7.07261,-2.93048c-2.76221,0 -5.26285,1.11992 -7.07261,2.93048c-18.61235,0 -31.45571,0 -31.45571,0z" fill="#ff76ca" stroke="#cb067f" stroke-width="2.5"/><path d="M97.5713,203v-164h134v164z" fill="#ff76ca" stroke="#cb067f" stroke-width="2.5"/><path d="M223.19016,130.13751v-89.54501h15.97289v88.91514c-0.5427,0.16647 -1.06576,0.37787 -1.56481,0.62987z" fill="#ff76ca" stroke="none" stroke-width="0"/><path d="M295.33557,37.35296c0.00767,0.33107 0.01152,0.66309 0.01152,0.99601c0,23.31408 -18.8998,42.21388 -42.21388,42.21388c-23.31408,0 -42.21388,-18.8998 -42.21388,-42.21388c0,-0.33292 0.00386,-0.66494 0.01152,-0.99601" fill="none" stroke="#cb067f" stroke-width="20"/><path d="M336.61725,37.35296c0.00375,0.33155 0.00563,0.66356 0.00563,0.99601c0,46.88722 -37.3796,84.8968 -83.48968,84.8968c-46.11008,0 -83.48967,-38.00959 -83.48967,-84.8968c0,-0.33246 0.00188,-0.66446 0.00563,-0.99601" fill="none" stroke="#cb067f" stroke-width="20"/><path d="M391.89564,132.57718c-11.60985,0 -23.21969,0 -34.82954,0l30.44343,-95.22423c11.60985,0 23.2197,0 34.82954,0z" fill="#cb067f" stroke="none" stroke-width="0"/><path d="M466.52155,132.57718c-11.60985,0 -23.21969,0 -34.82954,0l30.44344,-95.22423c11.60985,0 23.21969,0 34.82954,0z" fill="#cb067f" stroke="none" stroke-width="0"/><path d="M232.12548,137.3448c-0.01714,0.23934 -0.02586,0.48102 -0.02586,0.72473c0,1.01248 0.15048,1.98983 0.43028,2.91088c-0.2798,0.92105 -0.43028,1.8984 -0.43028,2.91088c0,1.11096 0.18117,2.1796 0.51557,3.178c-0.98644,2.92337 0.2065,8.10761 0.38009,10.48075c0.16952,2.31751 -0.58982,4.25958 -0.95361,6.5014c-0.34705,2.13861 -0.5909,5.58308 -0.20289,8.96115l-76.96069,29.68189c-19.11678,-0.22361 -38.23694,-0.26702 -57.3546,-0.10719c0.01977,-4.44554 0.02575,-8.89118 0.01835,-13.33679z" fill="#cb067f" stroke="none" stroke-width="0"/><path d="" fill="#cb067f" stroke="none" stroke-width="0"/><path d="" fill="#cb067f" stroke="none" stroke-width="0"/><path d="" fill="#cb067f" stroke="none" stroke-width="0"/><path d="" fill="#cb067f" stroke="none" stroke-width="0"/><path d="M535.95327,132.57718c-11.60985,0 -23.21969,0 -34.82954,0l30.44343,-95.22423c11.60985,0 23.2197,0 34.82955,0z" fill="#cb067f" stroke="none" stroke-width="0"/><path d="M610.57918,132.57718c-11.60985,0 -23.21969,0 -34.82955,0l30.44344,-95.22423c11.60985,0 23.21969,0 34.82954,0z" fill="#cb067f" stroke="none" stroke-width="0"/></g></g></svg>