<svg version="1.1" xmlns="http://www.w3.org/2000/svg" xmlns:xlink="http://www.w3.org/1999/xlink" width="416.18416" height="175.992" viewBox="0,0,416.18416,175.992"><g transform="translate(-1.31583,-85.57658)"><g data-paper-data="{&quot;isPaintingLayer&quot;:true}" fill-rule="nonzero" stroke-linecap="butt" stroke-linejoin="miter" stroke-miterlimit="10" stroke-dasharray="" stroke-dashoffset="0" style="mix-blend-mode: normal"><path d="M65,234.5v-109h350v109z" data-paper-data="{&quot;origPos&quot;:null}" fill="#00f39a" stroke="#00a96b" stroke-width="5"/><text transform="translate(191.60694,157.5) scale(0.80336,0.80336)" font-size="40" xml:space="preserve" fill="#000000" fill-rule="nonzero" stroke="none" stroke-width="1" stroke-linecap="butt" stroke-linejoin="miter" stroke-miterlimit="10" stroke-dasharray="" stroke-dashoffset="0" font-family="Sans Serif" font-weight="normal" text-anchor="start" style="mix-blend-mode: normal"><tspan x="0" dy="0">Player</tspan></text><text transform="translate(204.60694,220.15905) scale(0.65956,0.65956)" font-size="40" xml:space="preserve" fill="#000000" fill-rule="nonzero" stroke="none" stroke-width="1" stroke-linecap="butt" stroke-linejoin="miter" stroke-miterlimit="10" stroke-dasharray="" stroke-dashoffset="0" font-family="Sans Serif" font-weight="normal" text-anchor="start" style="mix-blend-mode: normal"><tspan x="0" dy="0">Won!</tspan></text><path d="M87.10756,230.60431c2.9008,-0.14269 5.8331,0.04049 8.69729,0.52159c0,0 2.3798,0.41333 3.03223,2.47313c0.29052,0.58594 0.40351,1.15254 0.44596,1.45285c0.53599,1.92647 0.50761,4.20049 1.93175,5.54694c0.58355,0.55173 1.59419,0.25014 2.35565,0.50534c4.48659,1.50356 7.15014,2.18265 8.71284,7.70752c3.83438,13.55622 -17.60363,15.26768 -25.0641,9.98392c-6.74559,-4.77745 -5.33029,-15.06779 -5.72419,-22.24449c0,0 -0.03727,-0.67901 0.20565,-1.48063c-0.19281,-1.85608 0.82331,-2.89297 1.72476,-3.43972c0.42945,-0.28434 0.92075,-0.48497 1.45179,-0.57726zM89.79318,248.11214c0.15055,1.47609 0.24327,3.4412 1.75149,4.35759c2.77155,1.68397 7.05164,0.76908 10.0144,0.75872c1.42809,-0.005 4.18001,0.28993 3.30745,-2.48872c-1.00157,-3.18948 -6.80355,-2.566 -8.84371,-4.50448c-1.20058,-1.14074 -2.73901,-5.30927 -3.66278,-7.86584c-1.03402,-0.11067 -2.07505,-0.16713 -3.11433,-0.16664c0.13909,3.30276 0.21369,6.6366 0.54748,9.90939z" fill="#000000" stroke="none" stroke-width="0.5"/><path d="M89.18997,238.15019c1.03927,-0.00049 2.09399,0.04448 3.12802,0.15517c0.92377,2.55659 2.57228,6.75389 3.77286,7.89463c2.04016,1.93849 7.83812,1.39244 8.83968,4.5819c0.87257,2.77866 -1.90474,2.50779 -3.33284,2.51278c-2.96276,0.01035 -7.3301,0.91827 -10.10165,-0.7657c-1.50822,-0.9164 -1.62498,-2.91642 -1.77553,-4.3925c-0.33378,-3.27278 -0.39144,-6.68354 -0.53053,-9.98628z" data-paper-data="{&quot;noHover&quot;:false,&quot;origItem&quot;:[&quot;Path&quot;,{&quot;applyMatrix&quot;:true,&quot;segments&quot;:[[[474.89993,450.30982],[-0.20872,-4.45591],[0.09414,2.0097]],[[476.9475,456.33983],[-1.97393,-1.3528],[3.62734,2.48593]],[[490.4499,458.11125],[-4.01214,-0.20614],[1.93391,0.09936]],[[495.11287,454.98748],[0.97491,3.82694],[-1.11904,-4.39274]],[[483.47386,448.23155],[2.61818,2.77618],[-1.54072,-1.63369]],[[479.09924,437.30959],[1.06073,3.53007],[-1.39176,-0.22668]],[[474.89505,436.85255],[1.40713,0.07657],[-0.05711,4.48202]]],&quot;closed&quot;:true}]}" fill="#00a769" stroke="none" stroke-width="0.5"/><path d="M55.19697,229.9185c2.90425,0.0165 5.82211,0.3601 8.65562,0.99743c0,0 2.35356,0.54313 2.89215,2.63558c0.25797,0.60097 0.33974,1.17292 0.36566,1.47511c0.42961,1.95294 0.27664,4.222 1.62485,5.64447c0.55245,0.58288 1.57809,0.33713 2.32443,0.63366c4.39744,1.74718 7.01977,2.57122 8.27735,8.17341c3.08568,13.74599 -18.41388,14.28002 -25.57358,8.59534c-6.47363,-5.13996 -4.49653,-15.33727 -4.49653,-22.52474c0,0 0,-0.68003 0.28648,-1.46713c-0.09081,-1.86385 0.98062,-2.8435 1.91068,-3.34004c0.44439,-0.26038 0.94594,-0.43379 1.48125,-0.49683zM56.91906,247.54722c0.06943,1.48212 0.05431,3.44937 1.51004,4.44702c2.6751,1.83332 6.9989,1.15437 9.95778,1.30639c1.42623,0.07328 4.15784,0.51858 3.43885,-2.30372c-0.82527,-3.23957 -6.65269,-2.935 -8.58356,-4.98239c-1.13625,-1.20482 -2.44394,-5.4514 -3.2262,-8.05475c-1.0264,-0.16717 -2.06278,-0.28058 -3.10051,-0.33706c-0.04212,3.30541 -0.15033,6.63834 0.0036,9.92449z" fill="#000000" stroke="none" stroke-width="0.5"/><path d="M56.86268,237.56716c1.03774,0.05648 2.0884,0.15918 3.1148,0.32635c0.78228,2.60336 2.19829,6.88471 3.33454,8.08953c1.93086,2.04738 7.75002,1.81988 8.5753,5.05947c0.71897,2.8223 -2.03932,2.39963 -3.46553,2.32636c-2.95888,-0.15202 -7.36941,0.51519 -10.04451,-1.31815c-1.45575,-0.99767 -1.46271,-3.0011 -1.53213,-4.48321c-0.15393,-3.28615 -0.02459,-6.69494 0.01754,-10.00035z" data-paper-data="{&quot;noHover&quot;:false,&quot;origItem&quot;:[&quot;Path&quot;,{&quot;applyMatrix&quot;:true,&quot;segments&quot;:[[[237.44997,225.15491],[-0.10436,-2.22795],[0.04707,1.00485]],[[238.47375,228.16991],[-0.98697,-0.6764],[1.81367,1.24296]],[[245.22495,229.05563],[-2.00607,-0.10307],[0.96696,0.04968]],[[247.55643,227.49374],[0.48745,1.91347],[-0.55952,-2.19637]],[[241.73693,224.11577],[1.30909,1.38809],[-0.77036,-0.81685]],[[239.54962,218.65479],[0.53037,1.76503],[-0.69588,-0.11334]],[[237.44753,218.42628],[0.70357,0.03829],[-0.02856,2.24101]]],&quot;closed&quot;:true}]}" fill="#00a769" stroke="none" stroke-width="0.5"/><path d="M135.92374,156.39726c5.74295,8.58679 6.95042,19.35211 10.35493,28.84196c1.27649,3.55815 2.44101,6.57561 2.97813,10.40368c2.30195,6.81366 3.58931,13.59941 3.43087,20.79342c-0.08019,3.64123 0.55935,6.10299 -3.42996,8.35443c-3.26345,1.84179 -7.21671,0.94563 -9.83964,-1.44201c-1.02653,-0.93445 -1.35443,-2.42387 -1.99912,-3.65322c-0.48936,-0.93318 -1.18536,-1.80224 -1.46398,-2.81118c-1.26871,0.83099 -2.69768,1.80431 -4.17031,1.59565c-1.96089,-0.27784 -3.74567,-1.62183 -5.07444,-3.09039c-4.23608,-4.68177 -0.44752,-13.37816 0.33999,-18.57725c-0.9619,-6.35031 -3.84616,-11.78259 -6.81395,-17.22983c-0.90908,-1.66857 -1.1551,-3.75505 -2.44688,-5.14858c-1.73245,-1.8689 -3.31796,-1.77935 -4.96283,-4.04019c-2.20078,-3.02496 -2.93724,-7.38357 -3.45556,-10.96823c-1.02792,-7.10897 0.40427,-20.39544 1.0602,-17.80776c2.0965,2.64725 15.09328,4.30641 17.70292,6.44191c0,0 5.84801,5.43458 7.78961,8.33762z" data-paper-data="{&quot;index&quot;:null}" fill="#00a769" stroke="#000000" stroke-width="5"/><path d="M35.51673,142.62767c0.65593,-2.58768 3.38934,-2.13212 3.38934,-2.13212l4.25579,1.09659c5.90998,5.04053 4.99795,10.98037 3.97003,18.08936c-0.51833,3.58467 -1.25478,7.94326 -3.45556,10.96822c-1.64487,2.26086 -3.23038,2.17131 -4.96283,4.04021c-1.29177,1.39352 -1.5378,3.48 -2.44688,5.14857c-2.96779,5.44724 -5.85205,10.87954 -6.81395,17.22984c0.78753,5.19909 4.57609,13.89546 0.34001,18.57725c-1.32875,1.46856 -3.11355,2.81255 -5.07444,3.09039c-1.47265,0.20865 -2.90159,-0.76465 -4.17031,-1.59565c-0.27861,1.00893 -0.97461,1.878 -1.46398,2.81118c-0.64469,1.22935 -0.97259,2.71879 -1.99912,3.65324c-2.62291,2.38764 -6.57619,3.2838 -9.83964,1.44201c-3.98931,-2.25144 -3.34976,-4.7132 -3.42996,-8.35443c-0.15844,-7.19401 1.12892,-13.97977 3.43087,-20.79342c0.53712,-3.82806 1.70164,-6.84553 2.97813,-10.40368c3.40451,-9.48985 4.61198,-20.25516 10.35493,-28.84194c1.94158,-2.90304 5.07895,-6.11947 7.78961,-8.33764c2.60964,-2.1355 5.05147,-3.04073 7.14799,-5.68798z" fill="#00a769" stroke="#000000" stroke-width="5"/><path d="M116.68448,154.99909c0,40.68523 3.93612,78.95001 -25.24052,78.95001c-10.67966,0 -40.06273,2.20093 -46.97701,-3.70209c-11.97543,-10.22391 -4.67801,-44.75898 -4.67801,-70.55201c0,-15.90423 -6.43048,-30.11821 -4.65545,-45.10838c0.8544,-7.21544 14.10712,-22.18432 29.97439,-26.51004c10.62413,-2.89634 23.06803,1.89331 31.34215,6.15374c19.37033,9.97399 20.23443,48.78421 20.23443,60.76876z" fill="#00a769" stroke="#000000" stroke-width="5"/><path d="M49.98707,138.26735c0,-14.68246 11.90248,-26.58494 26.58494,-26.58494c14.68246,0 26.58494,11.90248 26.58494,26.58494c0,14.68246 -11.90248,26.58494 -26.58494,26.58494c-14.68246,0 -26.58494,-11.90248 -26.58494,-26.58494z" fill="#ffaa83" stroke="#000000" stroke-width="5"/><path d="M81.03391,138.18814c0,5.16385 -2.29239,9.34998 -5.12022,9.34998c-2.82782,0 -5.12022,-4.18613 -5.12022,-9.34998c0,-5.16385 2.29239,-9.34996 5.12022,-9.34996c2.82782,0 5.12022,4.18611 5.12022,9.34996z" fill="#000000" stroke="none" stroke-width="0"/><path d="M95.0873,137.99393c0,5.16385 -2.2924,9.34998 -5.12024,9.34998c-2.82782,0 -5.12022,-4.18613 -5.12022,-9.34998c0,-5.16385 2.29239,-9.34996 5.12022,-9.34996c2.82783,0 5.12024,4.18611 5.12024,9.34996z" fill="#000000" stroke="none" stroke-width="0"/></g></g></svg>