<svg version="1.1" xmlns="http://www.w3.org/2000/svg" xmlns:xlink="http://www.w3.org/1999/xlink" width="477.14521" height="378.52574" viewBox="0,0,477.14521,378.52574"><g transform="translate(19.31746,-12.93815)"><g data-paper-data="{&quot;isPaintingLayer&quot;:true}" fill-rule="nonzero" stroke-linecap="butt" stroke-linejoin="miter" stroke-miterlimit="10" stroke-dasharray="" stroke-dashoffset="0" style="mix-blend-mode: normal"><path d="M29.82775,87.93815v-72h72v72z" fill="#9966ff" stroke="#000000" stroke-width="2"/><path d="M85.32288,66.0941c-0.15595,2.49513 -4.85059,0.68177 -4.85059,0.68177l-0.78221,-2.19937c-1.65036,-4.72786 -2.63443,-9.74386 -3.72328,-14.63221c-0.00825,-0.037 -0.23122,-0.90937 -0.44285,-1.95162c-1.36981,1.56135 -2.71665,3.15669 -4.1823,4.55505c-1.95767,1.86779 -2.90763,3.52611 -5.51391,2.89043c-1.4813,-0.3613 -2.99934,-0.75551 -4.30769,-1.53846c-0.85809,-0.5135 -0.76924,-1.84616 -1.15385,-2.76923c-1.11557,-2.67738 -1.9455,-6.07663 -3.41725,-8.54302c-0.22185,-0.37178 -1.20591,-1.30359 -2.18351,-2.27142c-0.17298,1.23802 -0.3505,2.47374 -0.43833,3.72069c-0.24487,3.47644 0.28216,7.01564 -0.06734,10.48883c-0.32801,3.25965 -0.93203,6.07754 -0.93203,9.41261c0,0 0,2.5 -2.5,2.5c-2.5,0 -2.5,-2.5 -2.5,-2.5c0,-3.631 0.66998,-6.82407 1.02913,-10.39319c0.31455,-3.12581 -0.251,-6.37012 -0.02976,-9.51112c0.17522,-2.48773 0.6828,-4.91449 0.8383,-7.40829l0.15652,-2.66214c0.06736,-1.32055 1.15942,-2.37054 2.49671,-2.37054c0.75372,0 1.42954,0.33355 1.8879,0.86109l1.64018,1.86842c0.79952,0.23497 1.09952,1.25252 1.64928,1.87879c1.84577,2.10262 2.92738,3.43699 4.10097,6.08315c1.01237,2.28266 1.92417,4.61801 2.88461,6.92307c0.19231,0.46154 0.38462,0.92307 0.57693,1.38461c0.19231,0.46154 0.1428,1.63269 0.57692,1.38461c0.45407,-0.25947 -0.69466,-1.18667 -0.30769,-1.53846c0.4933,-0.44845 1.43592,0.35533 2,0c0.30643,-0.19303 -0.52345,-0.67706 -0.39043,-1.01391c0.30608,-0.77508 1.01456,-1.32366 1.56174,-1.95217c1.64441,-1.88884 3.45192,-3.6676 5.21708,-5.44455l1.83696,-1.85022c0.45294,-0.45648 1.08079,-0.73916 1.77466,-0.73916c1.38071,0 2.5,1.11929 2.5,2.5v2.5c0.78194,1.23699 0.14962,2.94163 0.50614,4.36094c1.17714,4.68622 1.91311,9.55838 3.56712,14.10197l0.7822,2.19937c0,0 0.29561,-1.50146 0.13967,0.99366z" fill="#ffffff" stroke="none" stroke-width="0.5"/><path d="M137.82775,106.93815v-93h93v93z" fill="#9966ff" stroke="#000000" stroke-width="2"/><path d="M201.53761,83.762c-1.82385,1.70986 -1.70986,0.67615 -1.70986,0.67615c-4.66666,0 -10.83334,0 -15.5,0c-4.05196,0 -6.31717,0.44626 -10,-2.5c-0.78087,-0.6247 0,-2 0,-3c0,-2.23702 -0.01991,-4.46893 -0.26776,-6.6967c-0.82164,-7.38505 -4.25708,-14.47212 -6.60395,-21.51273c0,0 -0.79057,-2.37171 1.58114,-3.16228c2.37171,-0.79057 3.16228,1.58114 3.16228,1.58114c2.44329,7.32987 5.95516,14.68141 6.81027,22.38676c0.27347,2.46422 0.31802,4.92882 0.31802,7.40381c0,0.16666 0,0.33334 0,0.5c1.17851,-1.17851 3.33334,0 5,0c4.66666,0 9.33334,0 14,0h1.5c0,0 3.5337,2.61399 1.70986,4.32385z" fill="#ffffff" stroke="none" stroke-width="0.5"/><path d="M256.82775,102.93815v-81h81v81z" fill="#9966ff" stroke="#000000" stroke-width="2"/><path d="M300.2587,84.40073c-2.46258,0.43095 -2.73345,-1.48868 -2.73345,-1.48868l-0.72684,-1.71841c-1.19964,-3.03919 -1.5509,-6.21491 -2.40919,-9.36196c-2.57815,-9.45323 -3.92665,-18.65328 -4.05185,-28.39352c-4.9365,0 -9.81827,0 -14.50961,0c0,0 -2.5,0 -2.5,-2.5c0,-2.5 2.5,-2.5 2.5,-2.5c13.16667,0 26.33333,0 39.5,0h1.5c0,0 2.5,0 2.5,2.5c0,2.5 -2.5,2.5 -2.5,2.5c-6.89556,0 -14.20252,0 -21.48998,0c0.12467,9.29676 1.41242,18.04749 3.87527,27.07793c0.77897,2.8562 0.92277,6.06382 2.19038,8.72976l0.72683,1.71841c0,0 0.59102,3.00552 -1.87156,3.43646z" fill="#ffffff" stroke="none" stroke-width="0.5"/><path d="M321.68126,57.22479l0.14649,-0.78664c2.2992,0 2.76813,-0.20195 5.37171,1.70943c0.56063,0.41158 0.40336,1.79699 0.70842,2.40382c0.75007,1.49205 1.90561,2.79793 2.41987,4.38675c1.14246,3.52967 -1.87957,10.25767 -4.61325,12.08013c-6.68057,3.2859 -18.87284,2.19191 -20.25846,-6.8707c-0.24587,-1.60809 1.71184,-4.20773 2.56679,-5.3908c1.79806,-2.48815 3.67169,-4.48383 6.11332,-5.89343l-0.09897,-0.2969l1.02878,-0.34293l0.55236,-1.65707l2.70354,0.90118c0.48058,0.06865 1.00885,0.2804 1.41914,0.8009l-1.03128,-1.56644c0,0 1.79391,-0.89695 2.97154,0.5227zM321.43551,60.84237c-0.2685,0.22123 -0.48973,0.33185 -0.48973,0.33185l0.15615,-0.83853l-1.13116,-1.71815c0.07146,0.13023 0.13687,0.27417 0.19488,0.43316c0.02393,0.063 0.04538,0.12722 0.06424,0.19254c0.41351,1.36449 -0.23268,2.18992 -0.82566,2.63529c-0.24581,0.19996 -0.53034,0.35414 -0.84062,0.44956l-1.20904,0.40301c-0.99475,0.35289 -1.61568,0.69848 -2.52684,1.74258c-1.2565,1.43983 -5.23414,4.86357 -4.62829,7.25504c0.08023,0.3167 0.41406,-0.81906 0.70842,-0.67732c0.54142,0.26072 0.53304,1.12177 1,1.5c1.95964,1.58728 5.49767,0.88675 7.91987,0.88675c0.97183,0 2.88721,0.57776 3.11325,-0.58013c0.5,-0.33333 1.11388,-0.53954 1.5,-1c0.11323,-0.13502 -0.48651,-0.03423 -0.48496,-0.21044c0.02157,-2.45311 2.68445,-4.89013 0.79158,-6.82268c-0.9069,-0.92591 -1.29333,-2.17738 -1.70771,-3.35951c-0.58107,0.03547 -1.20882,-0.02724 -1.21216,-0.02724z" fill="#ffffff" stroke="none" stroke-width="0.5"/><path d="M377.82775,97.93815v-79h79v79z" fill="#9966ff" stroke="#000000" stroke-width="2"/><path d="M405.75635,85.43713c-2.49898,-0.0714 -2.42758,-2.57038 -2.42758,-2.57038l-0.00102,-0.9286c0,-8.01302 -0.919,-16.64131 0.07464,-24.60634c0.24525,-1.96589 0.53123,-3.75512 0.71962,-5.60263c-4.13738,-0.10137 -8.26486,-0.29103 -12.29426,-0.29103c0,0 -2.5,0 -2.5,-2.5c0,-2.5 2.5,-2.5 2.5,-2.5c4.31862,0 8.63725,0 12.95587,0c0.34804,-0.53143 0.96179,-1 2.04413,-1c1.08233,0 1.69608,0.46857 2.04413,1c0.81862,0 1.63725,0 2.45587,0c3.00544,0 6.52891,0.49985 9.5,0c1.63855,-0.27567 3.59569,-1.3338 5.20943,-1.87171l1.6519,-0.12444c0,0 2.49615,-0.13868 2.63482,2.35747c0.13867,2.49615 -2.35748,2.63483 -2.35748,2.63483l-0.3481,-0.12444c-5.8918,1.96393 -12.16111,2.45753 -18.49069,2.48064c-0.21879,2.23273 -0.57777,4.38636 -0.87452,6.75399c-0.94056,7.50415 0.07464,15.82612 0.07464,23.39366l-0.00102,1.0714c0,0 -0.0714,2.49898 -2.57038,2.42758z" fill="#ffffff" stroke="none" stroke-width="0.5"/><path d="M429.59552,83.70592c-1.76777,1.76777 -3.53553,0 -3.53553,0l-1.0228,0.60394c-1.5,-0.5 -3,-1 -4.5,-1.5c-1.81617,-0.60539 -3.83076,-1.10773 -5.4772,-2.10394c-6.24042,-3.77588 -4.68725,-11.09118 -3.73223,-16.76777c0.66275,-3.93936 -0.50283,-5.56138 3.5,-8.5c0.40305,-0.29589 1.00011,-0.01035 1.5,0c2.4463,0.05063 4.59246,1 7,1c4.70744,0.47457 14.87479,5.50089 10.37171,11.79057c-0.83568,1.16723 -1.71452,2.3599 -2.87171,3.20943c-0.6007,0.44099 -3.71944,0 -4.5,0c-2.83333,0 -5.66667,0 -8.5,0h-1.5l-1.04213,1.04213c0.42119,1.90045 1.41593,3.57564 3.3099,4.6901c0.54381,0.31999 2.7588,0.64139 3.5228,0.89606c1.5,0.5 3,1 4.5,1.5l2.9772,0.60394c0,0 1.76777,1.76777 0,3.53553zM424.82775,66.43815c1.32434,0 2.64867,0 3.97301,0c-0.44825,-0.92826 1.30567,-2.65463 0.52699,-3.5c-0.25909,-0.28128 -0.00467,1.0639 -0.38675,1.08013c-1.54521,0.06562 -3.98209,-3.70723 -5.61325,-2.58013c-2.15344,0 -4.01056,-0.76657 -6.10634,-1.07464c-0.02068,-0.00304 -0.18733,0.01166 -0.42455,0.033c0.07527,0.36658 -0.52234,0.88601 -0.5974,1.33222c-0.12239,0.72749 0.24892,1.48164 0.12829,2.20943c-0.14277,0.86137 -0.51275,1.67158 -0.79841,2.5c2.33333,0 6.96508,0 9.29841,0z" fill="#ffffff" stroke="none" stroke-width="0.5"/><path d="M-19.31746,391.46389z" fill="#f969ec" stroke="#c151b7" stroke-width="2.5"/></g></g></svg>