<svg version="1.1" xmlns="http://www.w3.org/2000/svg" xmlns:xlink="http://www.w3.org/1999/xlink" width="89.78935" height="143.15776" viewBox="0,0,89.78935,143.15776"><g transform="translate(-195.10533,-108.42112)"><g data-paper-data="{&quot;isPaintingLayer&quot;:true}" fill-rule="nonzero" stroke="none" stroke-width="0" stroke-linecap="butt" stroke-linejoin="miter" stroke-miterlimit="10" stroke-dasharray="" stroke-dashoffset="0" style="mix-blend-mode: normal"><g><path d="M284.89462,115.27463c0,1.30947 0,2.79819 0,4.44579c-0.00164,0.05028 -0.00292,0.10065 -0.00382,0.15111c-0.00038,0.06133 -0.00089,0.12194 -0.00162,0.18174c-0.37366,30.69948 -0.39518,61.40605 0,92.10526c0,0.11138 0.00182,0.22234 0.00544,0.33285c0,15.12292 0,27.17483 0,31.78443c0,3.95109 -5.25794,7.30306 -10.31212,7.30306c-2.59723,0 -6.95607,0 -12.33536,0c-20.87758,-0.21125 -41.75743,-0.28471 -62.63634,-0.20476c-2.84643,-0.59754 -4.50547,-2.43927 -4.50547,-4.67953c0,-2.05131 0,-6.2614 0,-11.9811c0.02536,-0.26178 0.04062,-0.52651 0.0454,-0.7938c0.00108,-0.06061 0.00163,-0.12134 0.00163,-0.18221c0.37361,-30.61176 0.39512,-61.23062 0,-91.84211c-0.00405,-0.31402 -0.01992,-0.6203 -0.04702,-0.91886c0,-10.61158 0,-19.56536 0,-25.29871c0,-4.31552 3.68665,-6.80645 7.54919,-6.80645c10.27376,0 57.39803,0 75.3072,0c4.31413,0 6.93296,2.33768 6.93296,6.40333z" fill="#f3079a"/><path d="M217.64471,108.42112c5.52798,0.04569 11.05606,0.08336 16.58421,0.1128l-38.83779,97.77986c0.07174,-13.93694 0.06651,-27.87447 -0.02176,-41.8112z" fill="#ffffff"/><path d="M255.60218,108.60628c5.5433,0.00789 11.08661,0.00722 16.6299,-0.00222l-56.69523,142.73858c-5.54757,0.00078 -11.09514,0.01212 -16.64264,0.03429z" fill="#ffffff"/><path d="M284.76741,131.38172c-0.13127,14.08902 -0.18672,28.17916 -0.16009,42.26902l-30.92144,77.84927c-5.52861,-0.04589 -11.05734,-0.08196 -16.58614,-0.10794z" fill="#ffffff"/></g></g></g></svg>