<svg version="1.1" xmlns="http://www.w3.org/2000/svg" xmlns:xlink="http://www.w3.org/1999/xlink" width="379.62285" height="56.63179" viewBox="0,0,379.62285,56.63179"><g transform="translate(-15.04158,-173.82749)"><g data-paper-data="{&quot;isPaintingLayer&quot;:true}" fill-rule="evenodd" stroke-width="1.5" stroke-miterlimit="10" stroke-dasharray="" stroke-dashoffset="0" style="mix-blend-mode: normal"><g fill="#f7bbdc" stroke="#f73ea4"><path d="M37.05773,182.77154c-4.47612,0 -8.26713,2.22892 -11.373,6.68677c-2.86837,4.09246 -4.30256,8.60512 -4.30256,13.53798c0,3.52609 1.3063,6.39447 3.91889,8.60512c2.50298,2.08278 5.59971,3.12416 9.29023,3.12416c4.43958,0 8.1027,-2.23807 10.98934,-6.71419c2.57606,-4.0011 3.86408,-8.49549 3.86408,-13.48317c0,-4.3665 -0.97744,-7.43584 -2.93232,-9.20803c-1.86352,-1.69909 -5.01509,-2.54865 -9.45467,-2.54865zM37.05773,177.15356c6.01079,0 10.47778,1.35196 13.40096,4.05591c3.05107,2.81356 4.57661,7.25315 4.57661,13.31875c0,6.32138 -1.71738,12.02158 -5.15211,17.10061c-3.9463,5.80982 -9.04359,8.71473 -15.29189,8.71473c-5.15211,0 -9.51861,-1.54381 -13.09951,-4.63141c-3.80014,-3.28859 -5.7002,-7.52721 -5.7002,-12.71585c0,-6.32138 1.87267,-12.06725 5.61799,-17.23763c4.1838,-5.73675 9.39986,-8.60511 15.64816,-8.60511z" data-paper-data="{&quot;index&quot;:null}" stroke-linecap="square" stroke-linejoin="miter"/><path d="M64.1337,188.7458c1.68083,0 2.60345,1.18754 2.76788,3.56263l0.08221,3.20637c3.06934,-4.09246 6.22091,-6.13868 9.45467,-6.13868c2.92318,0 4.96028,1.28802 6.11127,3.86407c0.78561,1.71736 1.21495,4.25688 1.28803,7.61855v2.76789l-0.0274,2.54865c0,1.5164 0.19488,3.47736 0.58463,5.88289c0.39585,2.39944 0.59377,4.34823 0.59377,5.84636c0,0.80388 -0.26187,1.4555 -0.7856,1.95489c-0.51765,0.50547 -1.16927,0.75819 -1.95489,0.75819c-1.5712,0 -2.45729,-0.85868 -2.65826,-2.57604l-0.76734,-6.00166c-0.25578,-2.13758 -0.38367,-4.13813 -0.38367,-6.00166c0,-0.51156 0.03045,-1.37938 0.09136,-2.60345c0.06698,-1.22409 0.10048,-2.09191 0.10048,-2.60346c0,-3.9463 -0.73079,-5.91945 -2.19239,-5.91945c-2.04623,0 -4.0011,1.21495 -5.86463,3.64485c-1.68083,2.21065 -2.99627,5.00595 -3.9463,8.38588c-0.03654,0.71252 -0.11875,1.60775 -0.24664,2.68566c-0.10962,0.9135 -0.16443,1.79959 -0.16443,2.65828c0,0.54809 0.05481,1.37023 0.16443,2.46643c0.10962,1.09619 0.16444,1.91834 0.16444,2.46644c0,0.82215 -0.25275,1.489 -0.75821,2.00054c-0.49937,0.51156 -1.14186,0.76734 -1.92747,0.76734c-0.80387,0 -1.45245,-0.25578 -1.94574,-0.76734c-0.49329,-0.51155 -0.73993,-1.17839 -0.73993,-2.00054c0,-0.5481 -0.0609,-1.37025 -0.1827,-2.46644c-0.11571,-1.09619 -0.17356,-1.91834 -0.17356,-2.46643c0,-1.88181 0.13093,-4.4883 0.3928,-7.81951c0.26796,-3.3373 0.40194,-5.94685 0.40194,-7.82865c0,-0.58465 -0.03351,-1.45246 -0.10049,-2.60346c-0.06089,-1.15101 -0.09135,-2.01882 -0.09135,-2.60347c0,-0.78561 0.25882,-1.42809 0.77647,-1.92747c0.52373,-0.50547 1.16927,-0.7582 1.93661,-0.7582z" data-paper-data="{&quot;index&quot;:null}" stroke-linecap="square" stroke-linejoin="miter"/><path d="M95.12855,174.57749c1.80872,0 2.71308,0.9135 2.71308,2.74049c0,2.88665 -0.04568,6.19045 -0.13703,9.91141c-0.09136,3.71488 -0.13702,7.01564 -0.13702,9.90228l-0.41108,13.6202c0,1.44333 -0.07308,3.56263 -0.21924,6.35792c-0.1827,1.82699 -1.07792,2.74049 -2.68567,2.74049c-1.79045,0 -2.68568,-0.93176 -2.68568,-2.79529c0,-2.21066 0.10049,-5.52969 0.30146,-9.95709c0.20096,-4.4335 0.30145,-7.75557 0.30145,-9.96623c0,-2.88663 0.04567,-6.1874 0.13702,-9.90228c0.09136,-3.72096 0.13703,-7.02476 0.13703,-9.91141c0,-1.82699 0.89522,-2.74048 2.68567,-2.74048z" data-paper-data="{&quot;index&quot;:null}" stroke-linecap="square" stroke-linejoin="miter"/><path d="M113.47152,178.55121c0.63336,0.62118 0.95003,1.37023 0.95003,2.24719c0,0.87695 -0.31667,1.62603 -0.95003,2.24721c-0.62728,0.62116 -1.37938,0.93175 -2.25633,0.93175c-0.87695,0 -1.63516,-0.31059 -2.2746,-0.93175c-0.63944,-0.62118 -0.95917,-1.37025 -0.95917,-2.24721c0,-0.87695 0.31973,-1.62601 0.95917,-2.24719c0.63945,-0.62118 1.39765,-0.93177 2.2746,-0.93177c0.87695,0 1.62905,0.31059 2.25633,0.93177zM110.31083,190.60933c0.78561,0 1.42809,0.25578 1.92747,0.76734c0.50546,0.51156 0.75819,1.17841 0.75819,2.00056c0,1.71736 -0.09133,3.86103 -0.27404,6.431c-0.18269,2.56387 -0.27405,4.70451 -0.27405,6.42187c0,1.09619 0.03044,2.73743 0.09135,4.92373c0.06698,2.1802 0.10049,3.8184 0.10049,4.9146c0,0.80387 -0.24665,1.46159 -0.73994,1.97315c-0.49328,0.51156 -1.14187,0.76733 -1.94574,0.76733c-0.78561,0 -1.43114,-0.25577 -1.9366,-0.76733c-0.49938,-0.51156 -0.74907,-1.16928 -0.74907,-1.97315c0,-1.0962 -0.0335,-2.7344 -0.10048,-4.9146c-0.0609,-2.18631 -0.09136,-3.82754 -0.09136,-4.92373c0,-1.71737 0.09136,-3.858 0.27405,-6.42187c0.1827,-2.56997 0.27405,-4.71363 0.27405,-6.431c0,-0.82215 0.24968,-1.489 0.74906,-2.00056c0.50546,-0.51156 1.15101,-0.76734 1.93662,-0.76734z" data-paper-data="{&quot;index&quot;:null}" stroke-linecap="square" stroke-linejoin="miter"/><path d="M124.61615,188.7458c1.68083,0 2.60346,1.18754 2.76789,3.56263l0.08221,3.20637c3.06933,-4.09246 6.2209,-6.13868 9.45466,-6.13868c2.92317,0 4.96028,1.28802 6.11128,3.86407c0.78561,1.71736 1.21494,4.25688 1.28802,7.61855v2.76789l-0.02741,2.54865c0,1.5164 0.19488,3.47736 0.58463,5.88289c0.39585,2.39944 0.59378,4.34823 0.59378,5.84636c0,0.80388 -0.26187,1.4555 -0.78561,1.95489c-0.51765,0.50547 -1.16927,0.75819 -1.95488,0.75819c-1.5712,0 -2.45729,-0.85868 -2.65826,-2.57604l-0.76734,-6.00166c-0.25578,-2.13758 -0.38366,-4.13813 -0.38366,-6.00166c0,-0.51156 0.03045,-1.37938 0.09134,-2.60345c0.067,-1.22409 0.10049,-2.09191 0.10049,-2.60346c0,-3.9463 -0.7308,-5.91945 -2.19239,-5.91945c-2.04623,0 -4.0011,1.21495 -5.86463,3.64485c-1.68083,2.21065 -2.99626,5.00595 -3.94629,8.38588c-0.03654,0.71252 -0.11876,1.60775 -0.24665,2.68566c-0.10962,0.9135 -0.16443,1.79959 -0.16443,2.65828c0,0.54809 0.05481,1.37023 0.16443,2.46643c0.10962,1.09619 0.16443,1.91834 0.16443,2.46644c0,0.82215 -0.25273,1.489 -0.7582,2.00054c-0.49937,0.51156 -1.14186,0.76734 -1.92747,0.76734c-0.80387,0 -1.45246,-0.25578 -1.94574,-0.76734c-0.49329,-0.51155 -0.73994,-1.17839 -0.73994,-2.00054c0,-0.5481 -0.06089,-1.37025 -0.18269,-2.46644c-0.11572,-1.09619 -0.17356,-1.91834 -0.17356,-2.46643c0,-1.88181 0.13093,-4.4883 0.3928,-7.81951c0.26796,-3.3373 0.40194,-5.94685 0.40194,-7.82865c0,-0.58465 -0.0335,-1.45246 -0.10048,-2.60346c-0.06089,-1.15101 -0.09136,-2.01882 -0.09136,-2.60347c0,-0.78561 0.25882,-1.42809 0.77647,-1.92747c0.52373,-0.50547 1.16927,-0.7582 1.93661,-0.7582z" data-paper-data="{&quot;index&quot;:null}" stroke-linecap="square" stroke-linejoin="miter"/><path d="M163.14734,194.96669c-2.22892,0 -4.08332,0.86478 -5.56318,2.59434c-1.47986,1.72345 -2.58519,4.32082 -3.31598,7.7921l8.41328,-4.00111c3.30685,-1.60775 5.66366,-3.0054 7.07044,-4.19294c-1.5712,-1.46159 -3.77273,-2.1924 -6.60456,-2.1924zM163.14734,190.03382c3.03279,0 5.50837,0.51156 7.4267,1.53467c2.35682,1.26062 3.53522,3.19723 3.53522,5.80982c0,1.82699 -1.03225,3.48955 -3.09674,4.98768c-0.9135,0.65772 -2.85011,1.68083 -5.80983,3.06933l-10.46864,4.96028c1.02311,1.5164 2.29591,2.65826 3.8184,3.4256c1.52859,0.76734 3.30686,1.151 5.33481,1.151c1.26062,0 2.74048,-0.2375 4.43958,-0.71252c2.15584,-0.60291 3.54435,-1.39155 4.16553,-2.36595c0.62118,-0.98049 1.28803,-1.47072 2.00056,-1.47072c0.63944,0 1.20886,0.24359 1.70824,0.73079c0.50546,0.48111 0.7582,1.04139 0.7582,1.68083c0,2.02795 -1.63515,3.77273 -4.90546,5.23432c-2.79529,1.24235 -5.51751,1.86352 -8.16664,1.86352c-4.129,0 -7.47238,-1.03225 -10.03016,-3.09674c-2.79529,-2.28374 -4.19294,-5.48096 -4.19294,-9.59169c0,-4.75016 1.151,-8.733 3.453,-11.9485c2.50298,-3.50782 5.84637,-5.26173 10.03017,-5.26173z" data-paper-data="{&quot;index&quot;:null}" stroke-linecap="square" stroke-linejoin="miter"/><path d="M37.05773,182.77154c-4.47612,0 -8.26713,2.22892 -11.373,6.68677c-2.86837,4.09246 -4.30256,8.60512 -4.30256,13.53798c0,3.52609 1.3063,6.39447 3.91889,8.60512c2.50298,2.08278 5.59971,3.12416 9.29023,3.12416c4.43958,0 8.1027,-2.23807 10.98934,-6.71419c2.57606,-4.0011 3.86408,-8.49549 3.86408,-13.48317c0,-4.3665 -0.97744,-7.43584 -2.93232,-9.20803c-1.86352,-1.69909 -5.01509,-2.54865 -9.45467,-2.54865zM37.05773,177.15356c6.01079,0 10.47778,1.35196 13.40096,4.05591c3.05107,2.81356 4.57661,7.25315 4.57661,13.31875c0,6.32138 -1.71738,12.02158 -5.15211,17.10061c-3.9463,5.80982 -9.04359,8.71473 -15.29189,8.71473c-5.15211,0 -9.51861,-1.54381 -13.09951,-4.63141c-3.80014,-3.28859 -5.7002,-7.52721 -5.7002,-12.71585c0,-6.32138 1.87267,-12.06725 5.61799,-17.23763c4.1838,-5.73675 9.39986,-8.60511 15.64816,-8.60511z" data-paper-data="{&quot;index&quot;:null}" stroke-linecap="butt" stroke-linejoin="round"/><path d="M64.1337,188.7458c1.68083,0 2.60345,1.18754 2.76788,3.56263l0.08221,3.20637c3.06934,-4.09246 6.22091,-6.13868 9.45467,-6.13868c2.92318,0 4.96028,1.28802 6.11127,3.86407c0.78561,1.71736 1.21495,4.25688 1.28803,7.61855v2.76789l-0.0274,2.54865c0,1.5164 0.19488,3.47736 0.58463,5.88289c0.39585,2.39944 0.59377,4.34823 0.59377,5.84636c0,0.80388 -0.26187,1.4555 -0.7856,1.95489c-0.51765,0.50547 -1.16927,0.75819 -1.95489,0.75819c-1.5712,0 -2.45729,-0.85868 -2.65826,-2.57604l-0.76734,-6.00166c-0.25578,-2.13758 -0.38367,-4.13813 -0.38367,-6.00166c0,-0.51156 0.03045,-1.37938 0.09136,-2.60345c0.06698,-1.22409 0.10048,-2.09191 0.10048,-2.60346c0,-3.9463 -0.73079,-5.91945 -2.19239,-5.91945c-2.04623,0 -4.0011,1.21495 -5.86463,3.64485c-1.68083,2.21065 -2.99627,5.00595 -3.9463,8.38588c-0.03654,0.71252 -0.11875,1.60775 -0.24664,2.68566c-0.10962,0.9135 -0.16443,1.79959 -0.16443,2.65828c0,0.54809 0.05481,1.37023 0.16443,2.46643c0.10962,1.09619 0.16444,1.91834 0.16444,2.46644c0,0.82215 -0.25275,1.489 -0.75821,2.00054c-0.49937,0.51156 -1.14186,0.76734 -1.92747,0.76734c-0.80387,0 -1.45245,-0.25578 -1.94574,-0.76734c-0.49329,-0.51155 -0.73993,-1.17839 -0.73993,-2.00054c0,-0.5481 -0.0609,-1.37025 -0.1827,-2.46644c-0.11571,-1.09619 -0.17356,-1.91834 -0.17356,-2.46643c0,-1.88181 0.13093,-4.4883 0.3928,-7.81951c0.26796,-3.3373 0.40194,-5.94685 0.40194,-7.82865c0,-0.58465 -0.03351,-1.45246 -0.10049,-2.60346c-0.06089,-1.15101 -0.09135,-2.01882 -0.09135,-2.60347c0,-0.78561 0.25882,-1.42809 0.77647,-1.92747c0.52373,-0.50547 1.16927,-0.7582 1.93661,-0.7582z" data-paper-data="{&quot;index&quot;:null}" stroke-linecap="butt" stroke-linejoin="round"/><path d="M95.12855,174.57749c1.80872,0 2.71308,0.9135 2.71308,2.74049c0,2.88665 -0.04568,6.19045 -0.13703,9.91141c-0.09136,3.71488 -0.13702,7.01564 -0.13702,9.90228l-0.41108,13.6202c0,1.44333 -0.07308,3.56263 -0.21924,6.35792c-0.1827,1.82699 -1.07792,2.74049 -2.68567,2.74049c-1.79045,0 -2.68568,-0.93176 -2.68568,-2.79529c0,-2.21066 0.10049,-5.52969 0.30146,-9.95709c0.20096,-4.4335 0.30145,-7.75557 0.30145,-9.96623c0,-2.88663 0.04567,-6.1874 0.13702,-9.90228c0.09136,-3.72096 0.13703,-7.02476 0.13703,-9.91141c0,-1.82699 0.89522,-2.74048 2.68567,-2.74048z" data-paper-data="{&quot;index&quot;:null}" stroke-linecap="butt" stroke-linejoin="round"/><path d="M113.47152,178.55121c0.63336,0.62118 0.95003,1.37023 0.95003,2.24719c0,0.87695 -0.31667,1.62603 -0.95003,2.24721c-0.62728,0.62116 -1.37938,0.93175 -2.25633,0.93175c-0.87695,0 -1.63516,-0.31059 -2.2746,-0.93175c-0.63944,-0.62118 -0.95917,-1.37025 -0.95917,-2.24721c0,-0.87695 0.31973,-1.62601 0.95917,-2.24719c0.63945,-0.62118 1.39765,-0.93177 2.2746,-0.93177c0.87695,0 1.62905,0.31059 2.25633,0.93177zM110.31083,190.60933c0.78561,0 1.42809,0.25578 1.92747,0.76734c0.50546,0.51156 0.75819,1.17841 0.75819,2.00056c0,1.71736 -0.09133,3.86103 -0.27404,6.431c-0.18269,2.56387 -0.27405,4.70451 -0.27405,6.42187c0,1.09619 0.03044,2.73743 0.09135,4.92373c0.06698,2.1802 0.10049,3.8184 0.10049,4.9146c0,0.80387 -0.24665,1.46159 -0.73994,1.97315c-0.49328,0.51156 -1.14187,0.76733 -1.94574,0.76733c-0.78561,0 -1.43114,-0.25577 -1.9366,-0.76733c-0.49938,-0.51156 -0.74907,-1.16928 -0.74907,-1.97315c0,-1.0962 -0.0335,-2.7344 -0.10048,-4.9146c-0.0609,-2.18631 -0.09136,-3.82754 -0.09136,-4.92373c0,-1.71737 0.09136,-3.858 0.27405,-6.42187c0.1827,-2.56997 0.27405,-4.71363 0.27405,-6.431c0,-0.82215 0.24968,-1.489 0.74906,-2.00056c0.50546,-0.51156 1.15101,-0.76734 1.93662,-0.76734z" data-paper-data="{&quot;index&quot;:null}" stroke-linecap="butt" stroke-linejoin="round"/><path d="M124.61615,188.7458c1.68083,0 2.60346,1.18754 2.76789,3.56263l0.08221,3.20637c3.06933,-4.09246 6.2209,-6.13868 9.45466,-6.13868c2.92317,0 4.96028,1.28802 6.11128,3.86407c0.78561,1.71736 1.21494,4.25688 1.28802,7.61855v2.76789l-0.02741,2.54865c0,1.5164 0.19488,3.47736 0.58463,5.88289c0.39585,2.39944 0.59378,4.34823 0.59378,5.84636c0,0.80388 -0.26187,1.4555 -0.78561,1.95489c-0.51765,0.50547 -1.16927,0.75819 -1.95488,0.75819c-1.5712,0 -2.45729,-0.85868 -2.65826,-2.57604l-0.76734,-6.00166c-0.25578,-2.13758 -0.38366,-4.13813 -0.38366,-6.00166c0,-0.51156 0.03045,-1.37938 0.09134,-2.60345c0.067,-1.22409 0.10049,-2.09191 0.10049,-2.60346c0,-3.9463 -0.7308,-5.91945 -2.19239,-5.91945c-2.04623,0 -4.0011,1.21495 -5.86463,3.64485c-1.68083,2.21065 -2.99626,5.00595 -3.94629,8.38588c-0.03654,0.71252 -0.11876,1.60775 -0.24665,2.68566c-0.10962,0.9135 -0.16443,1.79959 -0.16443,2.65828c0,0.54809 0.05481,1.37023 0.16443,2.46643c0.10962,1.09619 0.16443,1.91834 0.16443,2.46644c0,0.82215 -0.25273,1.489 -0.7582,2.00054c-0.49937,0.51156 -1.14186,0.76734 -1.92747,0.76734c-0.80387,0 -1.45246,-0.25578 -1.94574,-0.76734c-0.49329,-0.51155 -0.73994,-1.17839 -0.73994,-2.00054c0,-0.5481 -0.06089,-1.37025 -0.18269,-2.46644c-0.11572,-1.09619 -0.17356,-1.91834 -0.17356,-2.46643c0,-1.88181 0.13093,-4.4883 0.3928,-7.81951c0.26796,-3.3373 0.40194,-5.94685 0.40194,-7.82865c0,-0.58465 -0.0335,-1.45246 -0.10048,-2.60346c-0.06089,-1.15101 -0.09136,-2.01882 -0.09136,-2.60347c0,-0.78561 0.25882,-1.42809 0.77647,-1.92747c0.52373,-0.50547 1.16927,-0.7582 1.93661,-0.7582z" data-paper-data="{&quot;index&quot;:null}" stroke-linecap="butt" stroke-linejoin="round"/><path d="M163.14734,194.96669c-2.22892,0 -4.08332,0.86478 -5.56318,2.59434c-1.47986,1.72345 -2.58519,4.32082 -3.31598,7.7921l8.41328,-4.00111c3.30685,-1.60775 5.66366,-3.0054 7.07044,-4.19294c-1.5712,-1.46159 -3.77273,-2.1924 -6.60456,-2.1924zM163.14734,190.03382c3.03279,0 5.50837,0.51156 7.4267,1.53467c2.35682,1.26062 3.53522,3.19723 3.53522,5.80982c0,1.82699 -1.03225,3.48955 -3.09674,4.98768c-0.9135,0.65772 -2.85011,1.68083 -5.80983,3.06933l-10.46864,4.96028c1.02311,1.5164 2.29591,2.65826 3.8184,3.4256c1.52859,0.76734 3.30686,1.151 5.33481,1.151c1.26062,0 2.74048,-0.2375 4.43958,-0.71252c2.15584,-0.60291 3.54435,-1.39155 4.16553,-2.36595c0.62118,-0.98049 1.28803,-1.47072 2.00056,-1.47072c0.63944,0 1.20886,0.24359 1.70824,0.73079c0.50546,0.48111 0.7582,1.04139 0.7582,1.68083c0,2.02795 -1.63515,3.77273 -4.90546,5.23432c-2.79529,1.24235 -5.51751,1.86352 -8.16664,1.86352c-4.129,0 -7.47238,-1.03225 -10.03016,-3.09674c-2.79529,-2.28374 -4.19294,-5.48096 -4.19294,-9.59169c0,-4.75016 1.151,-8.733 3.453,-11.9485c2.50298,-3.50782 5.84637,-5.26173 10.03017,-5.26173z" data-paper-data="{&quot;index&quot;:null}" stroke-linecap="butt" stroke-linejoin="round"/></g><g fill="#00ffff"><path d="M252.29029,197.39279c-1.63874,0 -2.78888,0.05262 -3.4504,0.15787l-0.0451,3.94653l-0.45103,8.72748c1.97066,0.16654 3.09583,0.24979 3.37554,0.24979c0.0233,0 0.04075,-0.00057 0.0523,-0.00173c2.27019,-0.18042 4.12694,-0.88704 5.57025,-2.11986c1.54854,-1.33806 2.32282,-3.05951 2.32282,-5.16432c0,-1.42828 -0.78932,-2.7513 -2.36791,-3.96909c-1.57862,-1.2178 -3.24744,-1.82668 -5.00647,-1.82668zM248.02803,214.93794c-0.09021,1.89434 -0.13531,3.58571 -0.13531,5.07412v4.66819c3.93902,-0.13531 7.14885,-0.69159 9.62953,-1.66882c1.05242,-0.40593 2.05974,-1.03738 3.02193,-1.89434c0.9171,-0.78179 1.37564,-1.36812 1.37564,-1.75902c0,-0.70662 -0.9622,-1.50344 -2.88659,-2.39047c-1.4433,-0.67655 -2.84902,-1.1802 -4.21715,-1.51095l-2.39048,-0.38338c-0.19544,0 -0.49363,0.01252 -0.89455,0.03757c-0.39591,0.02005 -0.6991,0.03007 -0.90958,0.03007c-0.81186,0 -1.67634,-0.06765 -2.59344,-0.20297zM252.29029,192.79226c2.64606,0 5.18687,0.90206 7.62244,2.7062c2.81144,2.07475 4.21715,4.63811 4.21715,7.6901c0,3.86384 -1.50343,6.90831 -4.5103,9.1334c2.25515,0.96221 3.94151,2.02965 5.05907,3.20233c1.12257,1.17269 1.68386,2.45061 1.68386,3.83377c0,1.81917 -0.98476,3.57819 -2.95426,5.27708c-1.36813,1.20275 -2.80391,2.0973 -4.30736,2.68365c-3.38275,1.32303 -7.70514,1.98453 -12.96718,1.98453c-0.64648,0 -1.26039,-0.30569 -1.84171,-0.9171c-0.57632,-0.60638 -0.86449,-1.23282 -0.86449,-1.87931v-6.56253c0,-2.14993 0.13532,-5.21695 0.40593,-9.20106c0.30069,-4.29984 0.46607,-7.41196 0.49615,-9.33637c-0.01504,-1.38317 0.06765,-3.44288 0.24806,-6.17914c0.10525,-0.75171 0.35332,-1.24786 0.7442,-1.48842c2.04468,-0.63143 4.3675,-0.94717 6.96845,-0.94717z" data-paper-data="{&quot;index&quot;:null}" stroke="none" stroke-linecap="square" stroke-linejoin="miter"/><path d="M282.39669,208.6686c-2.33035,0 -4.34245,0.95219 -6.03633,2.85654c-1.68885,1.89935 -2.53329,4.08935 -2.53329,6.57003c0,2.46564 0.43599,4.3149 1.30799,5.5477c0.87201,1.23282 2.18,1.84924 3.92398,1.84924c1.4433,0 2.66861,-0.2631 3.67592,-0.78932c0.54123,-0.28565 1.30048,-0.85696 2.27771,-1.71392c-0.48109,-3.98411 -0.72164,-6.96845 -0.72164,-8.953c0,-0.64648 0.04008,-1.34808 0.12027,-2.10481c0.0852,-0.76175 0.21049,-1.5711 0.37587,-2.42806c-0.55628,-0.28566 -1.03487,-0.49614 -1.4358,-0.63145c-0.39589,-0.13531 -0.71414,-0.20296 -0.95468,-0.20296zM282.10353,204.67696c1.30799,0 2.77385,0.33827 4.39756,1.01483c2.04468,0.84192 3.06702,1.85674 3.06702,3.04447c0,0.40593 -0.15035,0.76676 -0.45104,1.08248c-0.15033,0.57131 -0.2681,1.51096 -0.3533,2.81895c-0.08018,1.308 -0.12779,2.98433 -0.14284,5.02901c-0.01503,1.86427 0.11276,3.33765 0.38338,4.42012c0.15035,0.66152 0.62393,1.98454 1.42076,3.96908c0.10523,0.27062 0.27813,0.66904 0.51868,1.19524l0.13532,0.38338c0,0.60137 -0.21049,1.09751 -0.63146,1.48841c-0.42097,0.3909 -0.90958,0.58635 -1.46584,0.58635c-0.28567,0 -0.80434,-0.33076 -1.55607,-0.99228c-0.67655,-0.61641 -1.18019,-1.16517 -1.51095,-1.64627c-1.4433,0.78179 -2.71372,1.37063 -3.81122,1.76654c-1.09751,0.40092 -2.01462,0.60137 -2.75131,0.60137c-3.51805,0 -6.0814,-0.99227 -7.69009,-2.97681c-1.51848,-1.86427 -2.27773,-4.7208 -2.27773,-8.56961c0,-3.63833 1.25038,-6.75046 3.7511,-9.33637c2.50573,-2.58592 5.49508,-3.87888 8.96803,-3.87888z" data-paper-data="{&quot;index&quot;:null}" stroke="none" stroke-linecap="square" stroke-linejoin="miter"/><path d="M302.28723,196.71625c1.3531,0 2.14239,1.10503 2.36791,3.3151c0.0451,0.55627 0.06765,1.22531 0.06765,2.00709l-0.0451,1.308l-0.02256,1.39819c1.86427,-0.24054 2.9317,-0.36082 3.20233,-0.36082c1.56359,0 2.58594,0.07518 3.06702,0.22552c0.9171,0.30069 1.37565,1.00731 1.37565,2.11986c0,0.66151 -0.20797,1.20776 -0.62393,1.63875c-0.41094,0.42598 -0.93964,0.63896 -1.58613,0.63896c-0.31573,0 -0.68909,-0.01503 -1.12007,-0.0451c-0.42598,-0.03006 -0.79682,-0.0451 -1.11255,-0.0451c-0.34579,0 -1.36813,0.11276 -3.067,0.33827l0.42847,13.32801l0.02256,0.99227l0.02256,1.15013c0.06012,3.29253 -0.72917,4.93881 -2.36794,4.93881c-0.60137,0 -1.12505,-0.19546 -1.57109,-0.58635c-0.441,-0.3909 -0.6615,-0.87951 -0.6615,-1.46585c0,-0.57131 0.02254,-1.42828 0.06765,-2.57089c0.0451,-1.14261 0.06765,-1.99958 0.06765,-2.57088l-0.45103,-13.17015c-1.09751,-0.0451 -2.76632,-0.1729 -5.00647,-0.38338c-1.33805,-0.18041 -2.00709,-0.92461 -2.00709,-2.23261c0,-0.66152 0.20297,-1.21027 0.6089,-1.64627c0.40593,-0.43599 0.92461,-0.65399 1.55607,-0.65399l4.73583,0.38338c0,-0.76676 -0.03507,-1.7916 -0.10523,-3.07454c-0.06516,-1.28794 -0.09773,-2.21758 -0.09773,-2.78888c0,-0.63145 0.218,-1.15265 0.654,-1.56358c0.43602,-0.41595 0.96972,-0.62393 1.60118,-0.62393z" data-paper-data="{&quot;index&quot;:null}" stroke="none" stroke-linecap="square" stroke-linejoin="miter"/><path d="M324.04953,196.71625c1.3531,0 2.14241,1.10503 2.36794,3.3151c0.0451,0.55627 0.06765,1.22531 0.06765,2.00709l-0.04511,1.308l-0.02254,1.39819c1.86425,-0.24054 2.9317,-0.36082 3.20232,-0.36082c1.56357,0 2.58592,0.07518 3.06702,0.22552c0.9171,0.30069 1.37565,1.00731 1.37565,2.11986c0,0.66151 -0.20797,1.20776 -0.62393,1.63875c-0.41094,0.42598 -0.93966,0.63896 -1.58613,0.63896c-0.31573,0 -0.68909,-0.01503 -1.12007,-0.0451c-0.42598,-0.03006 -0.79682,-0.0451 -1.11255,-0.0451c-0.34579,0 -1.36813,0.11276 -3.06702,0.33827l0.42849,13.32801l0.02254,0.99227l0.02256,1.15013c0.06015,3.29253 -0.72917,4.93881 -2.36791,4.93881c-0.60137,0 -1.12509,-0.19546 -1.5711,-0.58635c-0.441,-0.3909 -0.66152,-0.87951 -0.66152,-1.46585c0,-0.57131 0.02256,-1.42828 0.06768,-2.57089c0.0451,-1.14261 0.06765,-1.99958 0.06765,-2.57088l-0.45103,-13.17015c-1.09751,-0.0451 -2.76634,-0.1729 -5.00647,-0.38338c-1.33807,-0.18041 -2.00709,-0.92461 -2.00709,-2.23261c0,-0.66152 0.20296,-1.21027 0.60888,-1.64627c0.40593,-0.43599 0.92463,-0.65399 1.55607,-0.65399l4.73584,0.38338c0,-0.76676 -0.03509,-1.7916 -0.10526,-3.07454c-0.06513,-1.28794 -0.09771,-2.21758 -0.09771,-2.78888c0,-0.63145 0.218,-1.15265 0.65399,-1.56358c0.43599,-0.41595 0.96973,-0.62393 1.60116,-0.62393z" data-paper-data="{&quot;index&quot;:null}" stroke="none" stroke-linecap="square" stroke-linejoin="miter"/><path d="M342.24869,191.93529c1.48842,0 2.23261,0.75173 2.23261,2.25517c0,2.37544 -0.03758,5.09416 -0.11276,8.15617c-0.07518,3.057 -0.11276,5.77322 -0.11276,8.14865l-0.33826,11.20815c0,1.18773 -0.06015,2.93171 -0.18041,5.23198c-0.15035,1.50344 -0.88704,2.25517 -2.21006,2.25517c-1.47339,0 -2.21006,-0.76675 -2.21006,-2.30026c0,-1.81917 0.08268,-4.55042 0.24806,-8.19376c0.16538,-3.64836 0.24808,-6.38211 0.24808,-8.20128c0,-2.37543 0.03757,-5.09165 0.11275,-8.14865c0.07518,-3.062 0.11276,-5.78072 0.11276,-8.15617c0,-1.50344 0.7367,-2.25516 2.21006,-2.25516z" data-paper-data="{&quot;index&quot;:null}" stroke="none" stroke-linecap="square" stroke-linejoin="miter"/><path d="M361.10184,208.7137c-1.83419,0 -3.36019,0.71163 -4.57798,2.1349c-1.21779,1.41824 -2.12738,3.55563 -2.72876,6.41217l6.92335,-3.29254c2.72123,-1.32303 4.66067,-2.47316 5.81831,-3.4504c-1.29295,-1.20275 -3.10461,-1.80414 -5.43494,-1.80414zM361.10184,204.65441c2.4957,0 4.53288,0.42097 6.11148,1.26289c1.93944,1.03737 2.90917,2.63102 2.90917,4.78094c0,1.50344 -0.84946,2.87157 -2.54835,4.1044c-0.75171,0.54124 -2.34536,1.38317 -4.78094,2.52577l-8.61472,4.08185c0.84192,1.24786 1.88933,2.1875 3.1422,2.81895c1.25789,0.63145 2.72124,0.94717 4.39006,0.94717c1.03737,0 2.25514,-0.19544 3.65336,-0.58634c1.77404,-0.49614 2.91667,-1.14512 3.42784,-1.94696c0.51117,-0.80685 1.05993,-1.21027 1.64626,-1.21027c0.52622,0 0.9948,0.20045 1.40572,0.60137c0.41597,0.39591 0.62393,0.85697 0.62393,1.38317c0,1.66881 -1.34558,3.10461 -4.03674,4.30736c-2.30025,1.02234 -4.54038,1.5335 -6.72037,1.5335c-3.39778,0 -6.14908,-0.84945 -8.25389,-2.54833c-2.30026,-1.87931 -3.4504,-4.51032 -3.4504,-7.89307c0,-3.90894 0.94717,-7.18644 2.8415,-9.8325c2.05971,-2.88661 4.81103,-4.32991 8.25389,-4.32991z" data-paper-data="{&quot;index&quot;:null}" stroke="none" stroke-linecap="square" stroke-linejoin="miter"/><path d="M391.14059,202.46691c0.64648,0 1.17521,0.21048 1.58613,0.63145c0.41595,0.42097 0.62393,0.96973 0.62393,1.64627c0,0.43601 0.09273,1.07496 0.27814,1.91689c0.19043,0.84192 0.28565,1.48089 0.28565,1.91689c0,0.67655 -0.20797,1.22531 -0.62393,1.64627c-0.41092,0.42097 -0.93964,0.63145 -1.58614,0.63145c-0.82687,0 -1.40571,-0.27814 -1.73647,-0.83442c-0.2255,-0.3909 -0.42097,-1.20275 -0.58632,-2.43557c-1.1276,0.28566 -2.86407,0.81186 -5.20943,1.57861c-2.42053,0.96221 -3.63833,2.14992 -3.65337,3.56316c0.45103,0.16537 0.89455,0.28565 1.33054,0.36082c3.45793,0.61641 6.0288,1.46584 7.71267,2.54833c2.45059,1.57861 3.6759,3.86384 3.6759,6.85569c0,2.45061 -1.05993,4.29984 -3.17979,5.5477c-1.75901,1.02234 -3.9841,1.53351 -6.67527,1.53351c-1.9695,0 -3.84881,-0.33076 -5.63791,-0.99228c-2.3153,-0.84192 -3.47295,-2.01461 -3.47295,-3.51805c0,-0.60137 0.23554,-1.12759 0.70663,-1.57861c0.4761,-0.45104 1.01482,-0.67655 1.6162,-0.67655c0.46608,0 1.06745,0.36082 1.80412,1.08248c0.36084,0.34579 1.17269,0.63145 2.43558,0.85696c1.00731,0.18042 1.85675,0.27062 2.54833,0.27062c1.26289,0 2.37544,-0.15035 3.33764,-0.45104c1.39822,-0.43599 2.09729,-1.12758 2.09729,-2.07475c0,-2.04468 -1.42825,-3.42785 -4.2848,-4.14951l-2.34536,-0.51869c-1.99959,-0.43599 -3.42034,-0.94717 -4.26226,-1.5335c-1.21779,-0.84192 -1.82669,-2.11234 -1.82669,-3.81122c0,-3.1422 1.48089,-5.38232 4.44268,-6.72039c0.90205,-0.40592 2.34536,-0.88954 4.32991,-1.45082c1.98454,-0.56629 3.40529,-1.04489 4.26225,-1.43578c0.61641,-0.27062 1.28545,-0.40593 2.00709,-0.40593z" data-paper-data="{&quot;index&quot;:null}" stroke="none" stroke-linecap="square" stroke-linejoin="miter"/><path d="M252.29029,197.39279c-1.63874,0 -2.78888,0.05262 -3.4504,0.15787l-0.0451,3.94653l-0.45103,8.72748c1.97066,0.16654 3.09583,0.24979 3.37554,0.24979c0.0233,0 0.04075,-0.00057 0.0523,-0.00173c2.27019,-0.18042 4.12694,-0.88704 5.57025,-2.11986c1.54854,-1.33806 2.32282,-3.05951 2.32282,-5.16432c0,-1.42828 -0.78932,-2.7513 -2.36791,-3.96909c-1.57862,-1.2178 -3.24744,-1.82668 -5.00647,-1.82668zM248.02803,214.93794c-0.09021,1.89434 -0.13531,3.58571 -0.13531,5.07412v4.66819c3.93902,-0.13531 7.14885,-0.69159 9.62953,-1.66882c1.05242,-0.40593 2.05974,-1.03738 3.02193,-1.89434c0.9171,-0.78179 1.37564,-1.36812 1.37564,-1.75902c0,-0.70662 -0.9622,-1.50344 -2.88659,-2.39047c-1.4433,-0.67655 -2.84902,-1.1802 -4.21715,-1.51095l-2.39048,-0.38338c-0.19544,0 -0.49363,0.01252 -0.89455,0.03757c-0.39591,0.02005 -0.6991,0.03007 -0.90958,0.03007c-0.81186,0 -1.67634,-0.06765 -2.59344,-0.20297zM252.29029,192.79226c2.64606,0 5.18687,0.90206 7.62244,2.7062c2.81144,2.07475 4.21715,4.63811 4.21715,7.6901c0,3.86384 -1.50343,6.90831 -4.5103,9.1334c2.25515,0.96221 3.94151,2.02965 5.05907,3.20233c1.12257,1.17269 1.68386,2.45061 1.68386,3.83377c0,1.81917 -0.98476,3.57819 -2.95426,5.27708c-1.36813,1.20275 -2.80391,2.0973 -4.30736,2.68365c-3.38275,1.32303 -7.70514,1.98453 -12.96718,1.98453c-0.64648,0 -1.26039,-0.30569 -1.84171,-0.9171c-0.57632,-0.60638 -0.86449,-1.23282 -0.86449,-1.87931v-6.56253c0,-2.14993 0.13532,-5.21695 0.40593,-9.20106c0.30069,-4.29984 0.46607,-7.41196 0.49615,-9.33637c-0.01504,-1.38317 0.06765,-3.44288 0.24806,-6.17914c0.10525,-0.75171 0.35332,-1.24786 0.7442,-1.48842c2.04468,-0.63143 4.3675,-0.94717 6.96845,-0.94717z" data-paper-data="{&quot;index&quot;:null}" stroke="#3d85c6" stroke-linecap="butt" stroke-linejoin="round"/><path d="M282.39669,208.6686c-2.33035,0 -4.34245,0.95219 -6.03633,2.85654c-1.68885,1.89935 -2.53329,4.08935 -2.53329,6.57003c0,2.46564 0.43599,4.3149 1.30799,5.5477c0.87201,1.23282 2.18,1.84924 3.92398,1.84924c1.4433,0 2.66861,-0.2631 3.67592,-0.78932c0.54123,-0.28565 1.30048,-0.85696 2.27771,-1.71392c-0.48109,-3.98411 -0.72164,-6.96845 -0.72164,-8.953c0,-0.64648 0.04008,-1.34808 0.12027,-2.10481c0.0852,-0.76175 0.21049,-1.5711 0.37587,-2.42806c-0.55628,-0.28566 -1.03487,-0.49614 -1.4358,-0.63145c-0.39589,-0.13531 -0.71414,-0.20296 -0.95468,-0.20296zM282.10353,204.67696c1.30799,0 2.77385,0.33827 4.39756,1.01483c2.04468,0.84192 3.06702,1.85674 3.06702,3.04447c0,0.40593 -0.15035,0.76676 -0.45104,1.08248c-0.15033,0.57131 -0.2681,1.51096 -0.3533,2.81895c-0.08018,1.308 -0.12779,2.98433 -0.14284,5.02901c-0.01503,1.86427 0.11276,3.33765 0.38338,4.42012c0.15035,0.66152 0.62393,1.98454 1.42076,3.96908c0.10523,0.27062 0.27813,0.66904 0.51868,1.19524l0.13532,0.38338c0,0.60137 -0.21049,1.09751 -0.63146,1.48841c-0.42097,0.3909 -0.90958,0.58635 -1.46584,0.58635c-0.28567,0 -0.80434,-0.33076 -1.55607,-0.99228c-0.67655,-0.61641 -1.18019,-1.16517 -1.51095,-1.64627c-1.4433,0.78179 -2.71372,1.37063 -3.81122,1.76654c-1.09751,0.40092 -2.01462,0.60137 -2.75131,0.60137c-3.51805,0 -6.0814,-0.99227 -7.69009,-2.97681c-1.51848,-1.86427 -2.27773,-4.7208 -2.27773,-8.56961c0,-3.63833 1.25038,-6.75046 3.7511,-9.33637c2.50573,-2.58592 5.49508,-3.87888 8.96803,-3.87888z" data-paper-data="{&quot;index&quot;:null}" stroke="#3d85c6" stroke-linecap="butt" stroke-linejoin="round"/><path d="M302.28723,196.71625c1.3531,0 2.14239,1.10503 2.36791,3.3151c0.0451,0.55627 0.06765,1.22531 0.06765,2.00709l-0.0451,1.308l-0.02256,1.39819c1.86427,-0.24054 2.9317,-0.36082 3.20233,-0.36082c1.56359,0 2.58594,0.07518 3.06702,0.22552c0.9171,0.30069 1.37565,1.00731 1.37565,2.11986c0,0.66151 -0.20797,1.20776 -0.62393,1.63875c-0.41094,0.42598 -0.93964,0.63896 -1.58613,0.63896c-0.31573,0 -0.68909,-0.01503 -1.12007,-0.0451c-0.42598,-0.03006 -0.79682,-0.0451 -1.11255,-0.0451c-0.34579,0 -1.36813,0.11276 -3.067,0.33827l0.42847,13.32801l0.02256,0.99227l0.02256,1.15013c0.06012,3.29253 -0.72917,4.93881 -2.36794,4.93881c-0.60137,0 -1.12505,-0.19546 -1.57109,-0.58635c-0.441,-0.3909 -0.6615,-0.87951 -0.6615,-1.46585c0,-0.57131 0.02254,-1.42828 0.06765,-2.57089c0.0451,-1.14261 0.06765,-1.99958 0.06765,-2.57088l-0.45103,-13.17015c-1.09751,-0.0451 -2.76632,-0.1729 -5.00647,-0.38338c-1.33805,-0.18041 -2.00709,-0.92461 -2.00709,-2.23261c0,-0.66152 0.20297,-1.21027 0.6089,-1.64627c0.40593,-0.43599 0.92461,-0.65399 1.55607,-0.65399l4.73583,0.38338c0,-0.76676 -0.03507,-1.7916 -0.10523,-3.07454c-0.06516,-1.28794 -0.09773,-2.21758 -0.09773,-2.78888c0,-0.63145 0.218,-1.15265 0.654,-1.56358c0.43602,-0.41595 0.96972,-0.62393 1.60118,-0.62393z" data-paper-data="{&quot;index&quot;:null}" stroke="#3d85c6" stroke-linecap="butt" stroke-linejoin="round"/><path d="M324.04953,196.71625c1.3531,0 2.14241,1.10503 2.36794,3.3151c0.0451,0.55627 0.06765,1.22531 0.06765,2.00709l-0.04511,1.308l-0.02254,1.39819c1.86425,-0.24054 2.9317,-0.36082 3.20232,-0.36082c1.56357,0 2.58592,0.07518 3.06702,0.22552c0.9171,0.30069 1.37565,1.00731 1.37565,2.11986c0,0.66151 -0.20797,1.20776 -0.62393,1.63875c-0.41094,0.42598 -0.93966,0.63896 -1.58613,0.63896c-0.31573,0 -0.68909,-0.01503 -1.12007,-0.0451c-0.42598,-0.03006 -0.79682,-0.0451 -1.11255,-0.0451c-0.34579,0 -1.36813,0.11276 -3.06702,0.33827l0.42849,13.32801l0.02254,0.99227l0.02256,1.15013c0.06015,3.29253 -0.72917,4.93881 -2.36791,4.93881c-0.60137,0 -1.12509,-0.19546 -1.5711,-0.58635c-0.441,-0.3909 -0.66152,-0.87951 -0.66152,-1.46585c0,-0.57131 0.02256,-1.42828 0.06768,-2.57089c0.0451,-1.14261 0.06765,-1.99958 0.06765,-2.57088l-0.45103,-13.17015c-1.09751,-0.0451 -2.76634,-0.1729 -5.00647,-0.38338c-1.33807,-0.18041 -2.00709,-0.92461 -2.00709,-2.23261c0,-0.66152 0.20296,-1.21027 0.60888,-1.64627c0.40593,-0.43599 0.92463,-0.65399 1.55607,-0.65399l4.73584,0.38338c0,-0.76676 -0.03509,-1.7916 -0.10526,-3.07454c-0.06513,-1.28794 -0.09771,-2.21758 -0.09771,-2.78888c0,-0.63145 0.218,-1.15265 0.65399,-1.56358c0.43599,-0.41595 0.96973,-0.62393 1.60116,-0.62393z" data-paper-data="{&quot;index&quot;:null}" stroke="#3d85c6" stroke-linecap="butt" stroke-linejoin="round"/><path d="M342.24869,191.93529c1.48842,0 2.23261,0.75173 2.23261,2.25517c0,2.37544 -0.03758,5.09416 -0.11276,8.15617c-0.07518,3.057 -0.11276,5.77322 -0.11276,8.14865l-0.33826,11.20815c0,1.18773 -0.06015,2.93171 -0.18041,5.23198c-0.15035,1.50344 -0.88704,2.25517 -2.21006,2.25517c-1.47339,0 -2.21006,-0.76675 -2.21006,-2.30026c0,-1.81917 0.08268,-4.55042 0.24806,-8.19376c0.16538,-3.64836 0.24808,-6.38211 0.24808,-8.20128c0,-2.37543 0.03757,-5.09165 0.11275,-8.14865c0.07518,-3.062 0.11276,-5.78072 0.11276,-8.15617c0,-1.50344 0.7367,-2.25516 2.21006,-2.25516z" data-paper-data="{&quot;index&quot;:null}" stroke="#3d85c6" stroke-linecap="butt" stroke-linejoin="round"/><path d="M361.10184,208.7137c-1.83419,0 -3.36019,0.71163 -4.57798,2.1349c-1.21779,1.41824 -2.12738,3.55563 -2.72876,6.41217l6.92335,-3.29254c2.72123,-1.32303 4.66067,-2.47316 5.81831,-3.4504c-1.29295,-1.20275 -3.10461,-1.80414 -5.43494,-1.80414zM361.10184,204.65441c2.4957,0 4.53288,0.42097 6.11148,1.26289c1.93944,1.03737 2.90917,2.63102 2.90917,4.78094c0,1.50344 -0.84946,2.87157 -2.54835,4.1044c-0.75171,0.54124 -2.34536,1.38317 -4.78094,2.52577l-8.61472,4.08185c0.84192,1.24786 1.88933,2.1875 3.1422,2.81895c1.25789,0.63145 2.72124,0.94717 4.39006,0.94717c1.03737,0 2.25514,-0.19544 3.65336,-0.58634c1.77404,-0.49614 2.91667,-1.14512 3.42784,-1.94696c0.51117,-0.80685 1.05993,-1.21027 1.64626,-1.21027c0.52622,0 0.9948,0.20045 1.40572,0.60137c0.41597,0.39591 0.62393,0.85697 0.62393,1.38317c0,1.66881 -1.34558,3.10461 -4.03674,4.30736c-2.30025,1.02234 -4.54038,1.5335 -6.72037,1.5335c-3.39778,0 -6.14908,-0.84945 -8.25389,-2.54833c-2.30026,-1.87931 -3.4504,-4.51032 -3.4504,-7.89307c0,-3.90894 0.94717,-7.18644 2.8415,-9.8325c2.05971,-2.88661 4.81103,-4.32991 8.25389,-4.32991z" data-paper-data="{&quot;index&quot;:null}" stroke="#3d85c6" stroke-linecap="butt" stroke-linejoin="round"/><path d="M391.14059,202.46691c0.64648,0 1.17521,0.21048 1.58613,0.63145c0.41595,0.42097 0.62393,0.96973 0.62393,1.64627c0,0.43601 0.09273,1.07496 0.27814,1.91689c0.19043,0.84192 0.28565,1.48089 0.28565,1.91689c0,0.67655 -0.20797,1.22531 -0.62393,1.64627c-0.41092,0.42097 -0.93964,0.63145 -1.58614,0.63145c-0.82687,0 -1.40571,-0.27814 -1.73647,-0.83442c-0.2255,-0.3909 -0.42097,-1.20275 -0.58632,-2.43557c-1.1276,0.28566 -2.86407,0.81186 -5.20943,1.57861c-2.42053,0.96221 -3.63833,2.14992 -3.65337,3.56316c0.45103,0.16537 0.89455,0.28565 1.33054,0.36082c3.45793,0.61641 6.0288,1.46584 7.71267,2.54833c2.45059,1.57861 3.6759,3.86384 3.6759,6.85569c0,2.45061 -1.05993,4.29984 -3.17979,5.5477c-1.75901,1.02234 -3.9841,1.53351 -6.67527,1.53351c-1.9695,0 -3.84881,-0.33076 -5.63791,-0.99228c-2.3153,-0.84192 -3.47295,-2.01461 -3.47295,-3.51805c0,-0.60137 0.23554,-1.12759 0.70663,-1.57861c0.4761,-0.45104 1.01482,-0.67655 1.6162,-0.67655c0.46608,0 1.06745,0.36082 1.80412,1.08248c0.36084,0.34579 1.17269,0.63145 2.43558,0.85696c1.00731,0.18042 1.85675,0.27062 2.54833,0.27062c1.26289,0 2.37544,-0.15035 3.33764,-0.45104c1.39822,-0.43599 2.09729,-1.12758 2.09729,-2.07475c0,-2.04468 -1.42825,-3.42785 -4.2848,-4.14951l-2.34536,-0.51869c-1.99959,-0.43599 -3.42034,-0.94717 -4.26226,-1.5335c-1.21779,-0.84192 -1.82669,-2.11234 -1.82669,-3.81122c0,-3.1422 1.48089,-5.38232 4.44268,-6.72039c0.90205,-0.40592 2.34536,-0.88954 4.32991,-1.45082c1.98454,-0.56629 3.40529,-1.04489 4.26225,-1.43578c0.61641,-0.27062 1.28545,-0.40593 2.00709,-0.40593z" data-paper-data="{&quot;index&quot;:null}" stroke="#3d85c6" stroke-linecap="butt" stroke-linejoin="round"/></g></g></g></svg>