<svg version="1.1" xmlns="http://www.w3.org/2000/svg" xmlns:xlink="http://www.w3.org/1999/xlink" width="610" height="562.5" viewBox="0,0,610,562.5"><g transform="translate(12.5,187.5)"><g data-paper-data="{&quot;isPaintingLayer&quot;:true}" fill="#9966ff" fill-rule="nonzero" stroke="#000000" stroke-width="2" stroke-linecap="butt" stroke-linejoin="miter" stroke-miterlimit="10" stroke-dasharray="" stroke-dashoffset="0" style="mix-blend-mode: normal"><path d="M-8.05318,364.00001v-62h518.61734v62z"/><path d="M460.5,374v-175h63v175z"/><path d="M404.5,320v-73h71v73z"/><path d="M160.5,146v-60h143v60z"/><path d="M300.5,146v-30h157v30z"/><path d="M-4.5,75v-22h108v22z"/><path d="M-11.5,-8.75v-17.5h86v17.5z"/><path d="M166.5,-51v-23h111v23z"/><path d="M315.5,-18v-20h110v20z"/><path d="M315.5,-119.5v-27h128v27z"/><path d="M424.5,-119.5v-67h28v67z"/><path d="M484.5,-31v-26h112v26z"/></g></g></svg>