<svg version="1.1" xmlns="http://www.w3.org/2000/svg" xmlns:xlink="http://www.w3.org/1999/xlink" width="485.5" height="493" viewBox="0,0,485.5,493"><g transform="translate(-120.5,97)"><g data-paper-data="{&quot;isPaintingLayer&quot;:true}" fill-rule="nonzero" stroke-linecap="butt" stroke-linejoin="miter" stroke-miterlimit="10" stroke-dasharray="" stroke-dashoffset="0" style="mix-blend-mode: normal"><path d="M121.5,395v-284h74v284z" fill="#ff76ca" stroke="#d61f8f" stroke-width="2"/><path d="M258.5,92v-38h137v38z" fill="#fff866" stroke="#f2eb61" stroke-width="2"/><path d="M338.5,207v-38h137v38z" fill="#ff76ca" stroke="#d61f8f" stroke-width="2"/><path d="M255.5,292v-38h52.30289c5.80513,0.06416 11.61128,0.0656 17.41626,0h67.28085v38z" fill="#fff866" stroke="#f2eb61" stroke-width="2"/><path d="M367.5,362v-38h237.5v38z" fill="#fff866" stroke="#f2eb61" stroke-width="2"/><path d="M441.5,207v-47.04726c0.20811,-0.7919 0.32155,-1.62217 0.32749,-2.47799c0.00006,-0.02372 0.00014,-0.04731 0.00025,-0.07079c0.38555,-83.49651 0.40851,-166.9958 0,-250.4922c-0.00104,-0.213 -0.00237,-0.43137 -0.0062,-0.65281c0.00412,-0.11802 0.0062,-0.23656 0.0062,-0.35559c0,-0.65085 -0.06218,-1.28717 -0.18092,-1.90336h90.85319v303z" fill="#ff76ca" stroke="#d61f8f" stroke-width="2"/><path d="M120.67388,180.29806c-0.01503,-8.18459 -0.04876,-16.36914 -0.10048,-24.55352l75.21388,-24.14273c-0.08888,8.21582 -0.15434,16.43205 -0.1953,24.64846z" fill="#cb067f" stroke="none" stroke-width="0"/><path d="" fill="#cb067f" stroke="none" stroke-width="0"/><path d="" fill="#cb067f" stroke="none" stroke-width="0"/><path d="M120.55349,226.77239c0.05845,-8.20746 0.09675,-16.41514 0.1156,-24.62288l74.87249,-24.03314c0.00336,8.18605 0.03202,16.37208 0.08704,24.55783z" fill="#cb067f" stroke="none" stroke-width="0"/><path d="" fill="#cb067f" stroke="none" stroke-width="0"/><path d="M150.00788,378.68848v-172.26891h24.0096v172.26891z" fill="#cb067f" stroke="none" stroke-width="0"/><path d="M442.01611,-44.88946c-0.02572,-8.76328 -0.05604,-17.52654 -0.09104,-26.28977l90.86934,17.27268c-0.03006,8.75233 -0.05713,17.50468 -0.08116,26.25704z" fill="#cb067f" stroke="none" stroke-width="0"/><path d="" fill="#cb067f" stroke="none" stroke-width="0"/><path d="" fill="#cb067f" stroke="none" stroke-width="0"/><path d="M442.10978,1.62136c-0.00966,-8.76019 -0.02378,-17.52037 -0.04245,-26.28054l90.59583,17.2207c-0.01934,8.75439 -0.0356,17.5088 -0.04873,26.26321z" fill="#cb067f" stroke="none" stroke-width="0"/><path d="" fill="#cb067f" stroke="none" stroke-width="0"/><path d="" fill="#cb067f" stroke="none" stroke-width="0"/><path d="M442.10658,62.0681c0.01044,-8.75632 0.01661,-17.51264 0.01842,-26.26897l90.45416,17.19377c-0.00491,8.75717 -0.00664,17.51433 -0.00511,26.2715z" fill="#cb067f" stroke="none" stroke-width="0"/><path d="" fill="#cb067f" stroke="none" stroke-width="0"/><path d="" fill="#cb067f" stroke="none" stroke-width="0"/><path d="M441.98589,116.94153c0.02795,-8.75294 0.05179,-17.50591 0.07145,-26.25889l90.53331,17.20881c0.00866,8.75977 0.02062,17.51954 0.03593,26.2793z" fill="#cb067f" stroke="none" stroke-width="0"/><path d="" fill="#cb067f" stroke="none" stroke-width="0"/><path d="" fill="#cb067f" stroke="none" stroke-width="0"/><path d="M437.96534,165.29946c2.33316,-1.81631 3.84009,-4.64409 3.86214,-7.82471c0.00006,-0.02372 0.00014,-0.04731 0.00025,-0.07079c0.02713,-5.8761 0.05247,-11.75222 0.07599,-17.62835l90.77047,17.25389c0.02119,8.76218 0.04578,17.52435 0.07381,26.2865z" fill="#cb067f" stroke="none" stroke-width="0"/><path d="" fill="#cb067f" stroke="none" stroke-width="0"/><path d="M423.21461,162.48782c0.00173,0.00293 0.00346,0.00585 0.0052,0.00877l-0.38888,-0.07392c0.06913,-0.05613 0.13739,-0.11332 0.2048,-0.17153c0.05768,0.08102 0.11731,0.15986 0.17888,0.23668z" fill="#cb067f" stroke="none" stroke-width="0"/><path d="M308.95067,125.44289l-0.73685,1.84212l-0.07632,0.55966v-7.20024l0.28046,-0.06232l0.24922,-0.12461l0.27864,-0.06966l0.00484,-0.00847z" fill="#f2eb61" stroke="none" stroke-width="0"/><path d="M325.56249,155.40909v-11.80333l0.16457,-0.82285v12.72022z" fill="#f2eb61" stroke="none" stroke-width="0"/><path d="M296.68543,253.80155c9.67722,0.23758 19.36113,0.30847 29.04163,0.19254l0,38.14695c-9.6801,-0.09698 -19.36158,-0.10306 -29.04163,-0.01046z" fill="#f2eb61" stroke="none" stroke-width="0"/><path d="M296.68543,53.47767c9.67875,0.17665 19.36103,0.23201 29.04163,0.15368l0,39.74287c-9.68063,-0.05372 -19.36168,-0.14857 -29.04163,-0.13349z" fill="#f2eb61" stroke="none" stroke-width="0"/></g></g></svg>