<svg version="1.1" xmlns="http://www.w3.org/2000/svg" xmlns:xlink="http://www.w3.org/1999/xlink" width="561.5711" height="514.23006" viewBox="0,0,561.5711,514.23006"><g transform="translate(-9.00997,138.90174)"><g data-paper-data="{&quot;isPaintingLayer&quot;:true}" fill="#9966ff" fill-rule="nonzero" stroke="#000000" stroke-width="2" stroke-linecap="butt" stroke-linejoin="miter" stroke-miterlimit="10" stroke-dasharray="" stroke-dashoffset="0" style="mix-blend-mode: normal"><path d="M41.25506,364.86012v-103.20347h41.66012v103.20347z"/><path d="M82.91517,361.07283v-55.86243h62.49017v55.86243z"/><path d="M134.0435,366.75376v-165.69364h51.12832v165.69364z"/><path d="M225.88512,117.73988v-31.24509h135.39538v31.24509z"/><path d="M317.72673,258.81618v-146.75723h42.60694v146.75723z"/><path d="M227.77876,259.76301v-22.7237h172.32139v22.7237z"/><path d="M181.38454,367.70058v-39.76647h258.48208v39.76647z"/><path d="M429.45159,367.70058v-79.53295h67.22428v79.53295z"/><path d="M477.73945,374.32832v-193.15145h34.08555v193.15145z"/><path d="M10.00997,128.15491v-28.40462h106.99075v28.40462z"/><path d="M356.54639,22.11098v-160.01272h30.29827v160.01272z"/><path d="M324.35448,-74.46474v-26.51098h45.4474v26.51098z"/><path d="M456.90939,-34.69827v-32.19191h112.67168v32.19191z"/></g></g></svg>