<svg version="1.1" xmlns="http://www.w3.org/2000/svg" xmlns:xlink="http://www.w3.org/1999/xlink" width="674.07915" height="596.82082" viewBox="0,0,674.07915,596.82082"><g transform="translate(34.57915,201)"><g data-paper-data="{&quot;isPaintingLayer&quot;:true}" fill-rule="nonzero" stroke-linecap="butt" stroke-linejoin="miter" stroke-miterlimit="10" stroke-dasharray="" stroke-dashoffset="0" style="mix-blend-mode: normal"><path d="M-16.5,-110v-48h42v48z" fill="#ff76ca" stroke="#cb067f" stroke-width="2"/><path d="M-23.56191,-54.88972v-64.17218h78.80794v64.17219z" fill="#fff866" stroke="#f2eb61" stroke-width="2"/><path d="M397.5,133v-23h65v23z" fill="#4ba7fa" stroke="#3b85c6" stroke-width="2"/><path d="M-10.5,371v-93h236v93z" fill="#ff76ca" stroke="#cb067f" stroke-width="2"/><path d="M355.5,380v-100h139v100z" fill="#4ba7fa" stroke="#3b85c6" stroke-width="2"/><path d="M552.5,387v-167h86v167z" fill="#ff76ca" stroke="#cb067f" stroke-width="2"/><path d="M212.43809,132.93809v-132h216v132z" fill="#fff866" stroke="#f2eb61" stroke-width="2"/><path d="M-21.12251,-25.43046v-36.02649h166.62252v36.02649z" fill="#ff76ca" stroke="#cb067f" stroke-width="2"/><path d="M108.5,-165v-35h103v35z" fill="#ffae66" stroke="#dd9859" stroke-width="2"/><path d="M54.66566,322.6629l-19.37697,19.37697l-62.85831,-62.85831c0.35098,-0.62995 0.66919,-1.28308 0.95158,-1.95101c0.66796,0.13592 1.38096,0.21039 2.13898,0.21513c11.3671,0.07103 22.73431,0.12894 34.1016,0.1741z" fill="#cb067f" stroke="none" stroke-width="0"/><path d="" fill="#cb067f" stroke="none" stroke-width="0"/><path d="M-34.57915,372.55496l68.96888,-68.96888l19.37697,19.37697l-68.96888,68.96888z" fill="#cb067f" stroke="none" stroke-width="0"/><path d="M131.88788,323.77401l-19.37697,19.37697l-65.42802,-65.42802c12.92218,0.02001 25.84441,0.02405 38.76661,0.01268z" fill="#cb067f" stroke="none" stroke-width="0"/><path d="" fill="#cb067f" stroke="none" stroke-width="0"/><path d="M42.64307,373.66607l68.96888,-68.96888l19.37697,19.37697l-68.96888,68.96887z" fill="#cb067f" stroke="none" stroke-width="0"/><path d="M212.99898,323.77401l-19.37697,19.37697l-65.50684,-65.50686c12.8594,-0.04415 25.71873,-0.103 38.57792,-0.17601z" fill="#cb067f" stroke="none" stroke-width="0"/><path d="" fill="#cb067f" stroke="none" stroke-width="0"/><path d="M123.75418,373.66607l68.96888,-68.96888l19.37697,19.37697l-68.96888,68.96887z" fill="#cb067f" stroke="none" stroke-width="0"/><path d="M358.13115,345.92876l-3.21248,-3.21248c0.00038,-0.03588 0.00057,-0.0718 0.00057,-0.10777c0.27371,-10.80756 0.33693,-21.62247 0.21239,-32.43417l31.01331,-31.01331h38.75394z" data-paper-data="{&quot;index&quot;:null}" fill="#3b85c6" stroke="none" stroke-width="0"/><path d="" data-paper-data="{&quot;index&quot;:null}" fill="#cb067f" stroke="none" stroke-width="0"/><path d="M408.62202,395.82081l-53.6908,-53.69079c0.25377,-10.25303 0.31841,-20.51252 0.21332,-30.76948l3.88557,-3.88557l68.96888,68.96888z" data-paper-data="{&quot;index&quot;:null}" fill="#3b85c6" stroke="none" stroke-width="0"/><path d="M442.02003,345.92877l-19.37697,-19.37697l47.39077,-47.39077h25.56444v13.1895z" data-paper-data="{&quot;index&quot;:null}" fill="#3b85c6" stroke="none" stroke-width="0"/><path d="" data-paper-data="{&quot;index&quot;:null}" fill="#cb067f" stroke="none" stroke-width="0"/><path d="M492.5109,395.82082l-68.96888,-68.96887l19.37697,-19.37697l52.67928,52.67928v32.57918z" data-paper-data="{&quot;index&quot;:null}" fill="#3b85c6" stroke="none" stroke-width="0"/><path d="M397.85157,4.01179c2.42856,7.77854 3.73722,16.05148 3.73722,24.63007c0,45.58749 -36.95596,82.54344 -82.54344,82.54344c-45.58749,0 -82.54345,-36.95596 -82.54345,-82.54344c0,-8.58553 1.31078,-16.86492 3.74312,-24.64895" fill="none" stroke="#f2eb61" stroke-width="20"/><path d="M356.84039,3.92225c3.02292,6.0176 4.7247,12.81333 4.7247,20.00652c0,24.64778 -19.98097,44.62876 -44.62875,44.62876c-24.64778,0 -44.62876,-19.98097 -44.62876,-44.62876c0,-7.20249 1.70619,-14.00649 4.73644,-20.02985" fill="none" stroke="#f2eb61" stroke-width="20"/><path d="M74.98225,-26.04299v-34.91056h47.60531v34.91056z" fill="#cb067f" stroke="none" stroke-width="0"/><path d="M279.53646,7.85186c-0.92207,-0.19866 -1.9081,-0.20442 -2.76622,-0.59597c-1.78323,-0.81366 -4.57247,-1.08339 -5.06959,-2.97938c-0.48542,-1.85135 1.44652,-3.7822 3.00567,-4.89223c1.0565,-0.75217 2.59552,-0.08507 3.89066,-0.01758c3.60174,0.18768 8.49299,0.29003 9.13204,5.19671c0.12747,0.9787 -2.72182,5.18502 -3.39477,6.23193c0,0 -1.35189,2.10295 -3.45484,0.75105c-2.10295,-1.35189 -0.75105,-3.45484 -0.75105,-3.45484c0.03435,-0.05342 0.06923,-0.10645 0.10462,-0.15913l-0.57214,-0.06357l0.00573,-0.05158z" fill="#f2eb61" stroke="none" stroke-width="0.5"/><path d="M361.22312,2.0184c0.71837,2.39457 -1.6762,3.11294 -1.6762,3.11294l-1.44953,0.42647l-1.00732,0.85235l-0.08984,-0.10618c-0.0753,0.11122 -0.15061,0.22245 -0.22591,0.33367l-0.40682,0.03101l0.05959,0.14473l-2.94843,1.21406c-0.30723,0.13485 -0.64677,0.20968 -1.0038,0.20968c-0.36519,0 -0.71209,-0.0783 -1.02484,-0.21904c-0.09226,0.46503 -0.35731,0.95691 -0.9219,1.41884c-1.93489,1.58309 -3.51799,-0.3518 -3.51799,-0.3518c-0.61001,-0.76484 -1.46048,-1.38869 -1.83003,-2.29452c-0.60152,-1.47444 -1.65476,-3.21264 -1.01086,-4.66907c1.78642,-4.04065 7.76456,-2.23676 10.82878,-2.06127h2.77157c0.33593,0 0.65639,0.06626 0.94901,0.18642c0.75933,-0.04444 2.01734,0.14784 2.5045,1.7717zM350.01296,4.69216c0.04074,0.05381 0.08105,0.10918 0.12098,0.1655c0.01743,-0.04638 0.03621,-0.09211 0.05627,-0.13713c-0.05919,-0.00897 -0.11828,-0.0184 -0.17725,-0.02837z" fill="#f2eb61" stroke="none" stroke-width="0.5"/><path d="M399.75082,1.52264c0.22292,-0.57357 0.70738,-1.13662 1.71177,-1.38772c2.42536,-0.60634 3.0317,1.81902 3.0317,1.81902l-2.07237,4.51827c-0.82692,0 -6.28649,0.00485 -6.50203,-0.02119c-0.98439,-0.11895 -1.95024,-0.3929 -2.88516,-0.72871c0.43568,0.53278 1.23799,1.85888 -0.05841,3.28492c-1.68168,1.84985 -3.53153,0.16817 -3.53153,0.16817c-3.709,-3.45239 -6.87332,-8.21106 1.3287,-9.64459c1.28059,-0.22382 2.41801,0.95872 3.64934,1.37565c1.76177,0.59655 3.53053,0.64739 5.32799,0.61618z" fill="#f2eb61" stroke="none" stroke-width="0.5"/><path d="M244.66806,7.14047c-0.22979,0.0377 -0.38239,0.0377 -0.38239,0.0377h-0.88246c-3.45232,-0.02369 -5.3088,-0.39453 -7.15364,-1.53807l-0.19328,0.36508l-2.95434,-1.56406c-0.81635,-0.41146 -1.3763,-1.25726 -1.3763,-2.23383c0,-1.21772 0.87062,-2.23209 2.02335,-2.45461l2.4237,-0.51937l0.02043,0.09534l0.24002,-0.13692c3.51508,-0.01498 11.47666,-1.13793 13.88366,2.26651c0.62674,0.88645 -0.46936,5.37478 -0.76278,6.74411c0,0 -0.52382,2.44451 -2.96833,1.92068c-2.44451,-0.52382 -1.92068,-2.96833 -1.92068,-2.96833c0.00102,-0.00474 0.00203,-0.00949 0.00303,-0.01423z" fill="#f2eb61" stroke="none" stroke-width="0.5"/></g></g></svg>