<svg version="1.1" xmlns="http://www.w3.org/2000/svg" xmlns:xlink="http://www.w3.org/1999/xlink" width="971.3684" height="557" viewBox="0,0,971.3684,557"><g transform="translate(251.5,129)"><g data-paper-data="{&quot;isPaintingLayer&quot;:true}" fill-rule="nonzero" stroke-linecap="butt" stroke-linejoin="miter" stroke-miterlimit="10" stroke-dasharray="" stroke-dashoffset="0" style="mix-blend-mode: normal"><path d="M531.28989,222v-129h62v129z" fill="#fff866" stroke="#f2eb61" stroke-width="2"/><path d="M418.28989,398v-240h51v240z" fill="#fff866" stroke="#f2eb61" stroke-width="2"/><path d="M418.48914,185.02701v-16.74808h49.19187v16.74808z" fill="#f2eb61" stroke="none" stroke-width="0"/><path d="M419.2851,225.26776v-16.74808h49.19187v16.74808z" fill="#f2eb61" stroke="none" stroke-width="0"/><path d="M419.39783,269.34662v-16.74808h49.19187v16.74808z" fill="#f2eb61" stroke="none" stroke-width="0"/><path d="M419.7378,305.24673v-16.74808h49.19187v16.74808z" fill="#f2eb61" stroke="none" stroke-width="0"/><path d="M420.53375,345.48749v-16.74808h49.19187v16.74808z" fill="#f2eb61" stroke="none" stroke-width="0"/><path d="M420.64649,389.56634v-16.74808h49.19187v16.74808z" fill="#f2eb61" stroke="none" stroke-width="0"/><path d="M466.5,36v-20h54v20z" fill="#ff76ca" stroke="#cb067f" stroke-width="2"/><path d="M469.24139,427v-240h122.25861v240z" fill="#ff76ca" stroke="#cb067f" stroke-width="2"/><path d="M264.5,420v-240h51v240z" fill="#ff76ca" stroke="#cb067f" stroke-width="2"/><path d="M294.5,36v-57h183v57z" fill="#fff866" stroke="#f2eb61" stroke-width="2"/><path d="M-32.5,-23v-49h230v49z" fill="#ff76ca" stroke="#cb067f" stroke-width="2"/><path d="M-250.5,-73v-55h173v55z" fill="#fff866" stroke="#f2eb61" stroke-width="2"/><path d="M264.25338,223.43537v-16.74808h50.24424v16.74808z" fill="#cb067f" stroke="none" stroke-width="0"/><path d="M265.06636,263.67612v-16.74808h50.24425v16.74808z" fill="#cb067f" stroke="none" stroke-width="0"/><path d="M265.1815,307.75498v-16.74808h50.24425v16.74808z" fill="#cb067f" stroke="none" stroke-width="0"/><path d="M264.59881,367.18624v-33.14724h50.24424v33.14724z" fill="#cb067f" stroke="none" stroke-width="0"/><path d="M483.85427,186.43939c15.26251,0.10701 30.5262,0.10135 45.78879,-0.00739c0,0 63.37524,44.54101 63.25665,45.77882c-0.03044,0.31772 -0.04601,0.63979 -0.04601,0.96549c-0.26767,3.3835 0.14743,6.79134 0,10.18221c-0.20988,4.82713 -0.61682,9.6564 -0.55672,14.48623z" fill="#cb067f" stroke="none" stroke-width="0"/><path d="M613.31181,241.52467l1.08668,0.71554c-0.4082,0.19339 -0.80751,0.39798 -1.19586,0.61638c0.03941,-0.4449 0.07613,-0.88912 0.10918,-1.33191z" fill="#cb067f" stroke="none" stroke-width="0"/><path d="" fill="#cb067f" stroke="none" stroke-width="0"/><path d="M590.99594,327.97869l-122.0548,-81.59296c-0.02849,-10.07933 -0.06925,-20.15862 -0.12189,-30.2378l122.11689,81.79247z" fill="#cb067f" stroke="none" stroke-width="0"/><path d="" fill="#cb067f" stroke="none" stroke-width="0"/><path d="M590.77195,399.75201l-121.84764,-79.42793c0.03372,-10.03881 0.05433,-20.07769 0.06219,-30.11659l122.81676,80.87012z" fill="#cb067f" stroke="none" stroke-width="0"/><path d="" fill="#cb067f" stroke="none" stroke-width="0"/><path d="M308.41191,-21.73085h30.89144v57.91419c-10.29722,0.03035 -20.59439,0.07425 -30.89144,0.13209z" fill="#f2eb61" stroke="none" stroke-width="0"/><path d="" fill="#cb067f" stroke="none" stroke-width="0"/><path d="" fill="#cb067f" stroke="none" stroke-width="0"/><path d="M417.85587,-21.73085h30.81962c0.32192,0 0.64029,-0.01521 0.95443,-0.04496v58.13339c-10.59125,-0.06289 -21.18261,-0.113 -31.77405,-0.14988z" fill="#f2eb61" stroke="none" stroke-width="0"/><path d="" fill="#cb067f" stroke="none" stroke-width="0"/><path d="" fill="#cb067f" stroke="none" stroke-width="0"/><path d="M328.06777,20.92691v-28.5576h102.12972v28.5576z" fill="#f2eb61" stroke="none" stroke-width="0"/><path d="M27.05429,-22.65203c-11.80205,0.03942 -23.60406,0.08869 -35.40598,0.14754v-50.48264c11.80193,0.04931 23.60393,0.08577 35.40598,0.10976z" fill="#cb067f" stroke="none" stroke-width="0"/><path d="M153.50421,-22.68371c-12.13915,-0.03574 -24.27836,-0.05994 -36.41758,-0.07292v-50.17371c12.13926,-0.03815 24.27847,-0.08852 36.41758,-0.1507z" fill="#cb067f" stroke="none" stroke-width="0"/><path d="M14.17672,-35.0487v-28.55759h117.05517v28.55759z" fill="#cb067f" stroke="none" stroke-width="0"/><path d="M658.72573,69.95223v-58.62245h33.92801v58.62245z" data-paper-data="{&quot;index&quot;:null}" fill="#ff76ca" stroke="#cb0680" stroke-width="2.5"/><path d="M674.66681,8.80716v-6.61381h4.26345v6.61381z" data-paper-data="{&quot;index&quot;:null}" fill="#cb0680" stroke="#cb0680" stroke-width="2.5"/><path d="M697.89309,-5.33921c11.44628,0 20.72532,2.67796 20.72532,5.98139c0,3.30343 -9.27904,5.98139 -20.72532,5.98139c-11.44628,0 -20.72532,-5.98139 -20.72532,-5.98139c0,0 9.27904,-5.98139 20.72532,-5.98139z" data-paper-data="{&quot;index&quot;:null}" fill="#ffbae4" stroke="#cb0680" stroke-width="2.5"/><path d="M677.32016,0.71838c0,0 -9.27904,5.98139 -20.72532,5.98139c-11.44627,0 -20.72531,-2.67796 -20.72531,-5.98139c0,-3.30343 9.27904,-5.98139 20.72531,-5.98139c11.44627,0 20.72532,5.98139 20.72532,5.98139z" data-paper-data="{&quot;index&quot;:null}" fill="#ffbae4" stroke="#cb0680" stroke-width="2.5"/><path d="M666.45939,39.52426l13.84399,-17.42271l4.57468,3.63501l-13.84399,17.42271z" data-paper-data="{&quot;index&quot;:null}" fill="#cb0680" stroke="#cb0680" stroke-width="2.5"/><path d="M671.2827,35.77672l13.84399,17.42271l-4.57468,3.63502l-13.84399,-17.42271z" data-paper-data="{&quot;index&quot;:null}" fill="#cb0680" stroke="#cb0680" stroke-width="2.5"/></g></g></svg>