<svg version="1.1" xmlns="http://www.w3.org/2000/svg" xmlns:xlink="http://www.w3.org/1999/xlink" width="40.66667" height="40.66666" viewBox="0,0,40.66667,40.66666"><g transform="translate(-219.66667,-159.66667)"><g data-paper-data="{&quot;isPaintingLayer&quot;:true}" fill-rule="nonzero" stroke-linecap="butt" stroke-linejoin="miter" stroke-miterlimit="10" stroke-dasharray="" stroke-dashoffset="0" style="mix-blend-mode: normal"><path d="M222.16667,197.83333v-35.66666h35.66667v35.66666z" fill="none" stroke="#ffffff" stroke-width="5"/><path d="M232.4375,171.125c0.44622,0 0.86513,0.1169 1.22778,0.32176l0.31068,-0.12945l0.48535,-0.07326l0.47619,-0.11905h3.375l0.12315,0.03079l0.12561,-0.01838l1.03702,0.1037l0.01782,-0.00999l0.05763,0.01754l0.13754,0.01375l0.51451,0.1847l0.52297,0.15917l0.11853,0.07112l0.05669,0.02035l0.00832,0.01866l0.44146,0.26488l0.21762,0.21762l0.26391,0.15834l0.5,0.5l0.20676,0.34461l0.26154,0.30513l0.17705,0.3541l0.02438,0.01393l0.01742,0.06966l0.03115,0.06231l0.12461,0.56075l0.13932,0.55728v0.06966l0.01558,0.07009l-0.01558,0.02336v1.46188l-0.09747,0.38988l-0.03082,0.40069l-0.09464,0.28391l-0.10171,0.40685l-0.00669,0.01254l0.01201,0.04404l-0.31946,0.53244l-0.2922,0.54787l-0.04394,0.01236l-0.00731,0.01218l-0.625,0.625l-0.21352,0.12811l-0.1675,0.18425l-0.84693,0.56462l0.06587,0.17017l0.0165,0.13203l0.0194,0.05821l-0.0098,0.0186l0.09889,0.79115l-0.01901,0.15683l0.03831,0.15326v0.75l-0.06039,0.24157l0.01184,0.24872l-0.125,0.625l-0.18315,0.38665l-0.12457,0.4093l-0.375,0.625l-0.21762,0.21762l-0.15834,0.26391l-0.75,0.75l-0.08406,0.05043l-0.05673,0.07994l-0.875,0.75l-0.13711,0.06856l-0.10312,0.11343l-0.75,0.5l-0.21781,0.07779l-0.18414,0.13995l-0.6073,0.26027l-0.00249,0.00436l-0.01845,0.00461l-0.24675,0.10575l-0.4967,0.08011l-0.4881,0.12202h-0.26845l-0.01878,0.00303l-0.00401,-0.00303h-0.33376l-0.17457,-0.04364l-0.17899,0.01852l-0.875,-0.125l-0.18903,-0.07701l-0.12033,0.03282l-0.42494,-0.25497l-0.45894,-0.18698l-0.04594,-0.11596l-0.17503,-0.10502l-0.625,-0.625l-0.07243,-0.12071l-0.11198,-0.08532l-0.5,-0.625l-0.11081,-0.24177l-0.17308,-0.20193l-0.30205,-0.6041l-0.02438,-0.01393l-0.01742,-0.06966l-0.03115,-0.06231l-0.12461,-0.56075l-0.13932,-0.55728v-0.06966l-0.01558,-0.07009l0.01558,-0.02336v-0.71188l0.08457,-0.33829l0.01162,-0.34851l0.23292,-0.81522l-0.00979,-0.03589l0.34026,-0.5671l0.33049,-0.57285l0.03613,-0.00887l0.70604,-0.70604l0.21352,-0.12811l0.1675,-0.18425l1.125,-0.75l0.2022,-0.07222l0.1692,-0.13219l0.44729,-0.1988l-0.21723,-0.27647l-1.04309,-1.1474l-0.18682,0.08007l-0.10473,0.01689l-0.0895,0.05695l-0.375,0.125l-1.28468,0.09882l-1.8776,-1.67996l0.49411,-2.47053l1.08703,-0.69175l0.27635,-0.09212l0.28194,-0.12083c0.04213,-0.11899 0.09302,-0.23384 0.15188,-0.34377l0.01789,-0.07157l0.03296,-0.01883c0.43488,-0.73685 1.23698,-1.23117 2.15454,-1.23117zM237.79892,176.75442l0.63858,-0.42572l0,-0.17874l-0.24969,-0.02497l-0.88344,0zM234.19063,184.18945l0.0511,-0.0219l0.43341,-0.28894l0.50102,-0.42945l-0.27892,0.12396l-0.74202,0.49468l-0.0344,0.0344z" fill="#ff0000" stroke="none" stroke-width="0.5"/></g></g></svg>