<svg version="1.1" xmlns="http://www.w3.org/2000/svg" xmlns:xlink="http://www.w3.org/1999/xlink" width="333.85057" height="54.58929" viewBox="0,0,333.85057,54.58929"><g transform="translate(-146.5,-327.31251)"><g data-paper-data="{&quot;isPaintingLayer&quot;:true}" fill="#ffffff" fill-rule="nonzero" stroke="none" stroke-width="0" stroke-linecap="butt" stroke-linejoin="miter" stroke-miterlimit="10" stroke-dasharray="" stroke-dashoffset="0" style="mix-blend-mode: normal"><path d="M146.5,381.90179l15.11186,-51.98481v-0.60447l18.73871,52.58929z"/><path d="M183.5,380.90179l15.11186,-51.98481v-0.60447l18.73871,52.58929z"/><path d="M221.5,381.90179l15.11186,-51.98481v-0.60447l18.73871,52.58929z"/><path d="M258.5,380.90179l15.11186,-51.98481v-0.60447l18.73871,52.58929z"/><path d="M297.5,380.90179l15.11186,-51.98481v-0.60447l18.73871,52.58929z"/><path d="M334.5,379.90179l15.11186,-51.98481v-0.60447l18.73871,52.58929z"/><path d="M372.5,380.90179l15.11186,-51.98481v-0.60447l18.73871,52.58929z"/><path d="M409.5,379.90179l15.11186,-51.98481v-0.60447l18.73871,52.58929z"/><path d="M446.5,380.90179l15.11186,-51.98481v-0.60447l18.73871,52.58929z"/></g></g></svg>