<svg version="1.1" xmlns="http://www.w3.org/2000/svg" xmlns:xlink="http://www.w3.org/1999/xlink" width="40.66667" height="40.66666" viewBox="0,0,40.66667,40.66666"><g transform="translate(-219.66667,-159.66667)"><g data-paper-data="{&quot;isPaintingLayer&quot;:true}" fill-rule="nonzero" stroke-linecap="butt" stroke-linejoin="miter" stroke-miterlimit="10" stroke-dasharray="" stroke-dashoffset="0" style="mix-blend-mode: normal"><path d="M222.16667,197.83333v-35.66666h35.66667v35.66666z" fill="none" stroke="#ffffff" stroke-width="5"/><path d="M227.9375,172.75c0.56387,-1.14684 1.55031,-1.9397 2.78901,-2.48347c3.95493,-1.73615 10.48142,-0.93302 14.03626,-1.00409c1.05356,-0.02106 5.79571,-0.65161 6.61223,1.36257c1.39006,3.42895 -1.32803,5.52031 -3.57112,7.53497c-0.52841,0.4746 0.98006,1.05043 1.3143,1.67712c0.71393,1.33862 -0.06418,3.40848 -0.58986,4.66572c-2.48911,5.95317 -8.74563,6.58622 -14.15042,4.73179c-0.61229,-0.21008 -4.61331,-1.01976 -5.15802,-1.78236c-5.13167,-7.18433 7.00848,-2.77406 8.48553,-2.37317c0.92277,0.25045 1.72672,0.39377 2.67432,0.29593c0.73146,-0.07552 4.62788,-2.41774 3.80525,-3.52997c-0.85718,-1.15896 -6.77437,-0.53812 -5.87249,-3.84503c0.6474,-2.3738 1.85103,-2.1888 3.85242,-2.81351c0.77209,-0.241 3.03933,-0.76103 2.24597,-0.91843c-2.9547,-0.58621 -8.21143,0.41827 -11.23232,0.71191c-0.39465,0.03836 -3.28738,0.65928 -3.73257,0.06569z" fill="#ff0000" stroke="none" stroke-width="0.5"/></g></g></svg>