<svg version="1.1" xmlns="http://www.w3.org/2000/svg" xmlns:xlink="http://www.w3.org/1999/xlink" width="500" height="373.87387" viewBox="0,0,500,373.87387"><g transform="translate(10,6.93693)"><g data-paper-data="{&quot;isPaintingLayer&quot;:true}" stroke-linejoin="miter" stroke-miterlimit="10" stroke-dasharray="" stroke-dashoffset="0" style="mix-blend-mode: normal"><path d="M-10,366.93694v-373.87387h500v373.87387z" fill="#56d6ff" fill-rule="nonzero" stroke="none" stroke-width="0" stroke-linecap="butt"/><path d="M68.16284,64.14722h-16.83922l-6.16745,-29.03553h-0.27719l-6.16745,29.03553h-16.83922l-11.15685,-47.67648h15.93836l5.47448,27.02591h0.27719l5.40518,-27.02591h15.10679l5.75167,27.02591h0.27719l5.12799,-27.02591h15.24538zM183.95849,64.14722v-47.67648h41.23184v11.43404h-25.91715v6.58323h22.17511v10.94896h-22.17511v7.27621h26.40223v11.43404zM270.02561,44.18963l10.60247,19.95759h-17.18571l-8.45426,-17.3936h-5.68237v17.3936h-15.31468v-47.67648h29.17412c1.38554,-0.00727 2.76872,0.115 4.1315,0.3652c1.67976,0.31738 3.20292,0.84242 4.56946,1.57513c0.02174,0.01149 0.04346,0.02304 0.06514,0.03465c1.37737,0.73341 2.62284,1.69129 3.68523,2.83426c0.69583,0.75809 1.29668,1.59816 1.78925,2.50163c1.22425,2.24061 1.83638,4.67756 1.83638,7.31085c0,2.91048 -0.78537,5.54378 -2.3561,7.89988c-1.25731,1.86745 -2.97765,3.37672 -4.99286,4.38028c-0.60549,0.30972 -1.22915,0.58255 -1.86756,0.81701zM176.95948,28.66705h-15.59187v35.48017h-15.31468v-35.48017h-15.66117v-12.19631h46.56772zM132.95573,64.14722h-16.21555l-2.00962,-6.72183h-16.70063l-2.00962,6.72183h-15.66117l17.3936,-47.67648h17.80938zM106.27631,29.77581l-5.0587,16.97781h10.32528l-4.9894,-16.97781zM259.35384,27.35041h-10.04809v8.80074h10.04809c1.12234,0.02067 2.20373,-0.42141 2.99017,-1.2224c0.01981,-0.0197 0.03944,-0.03956 0.0589,-0.0596c0.82359,-0.83693 1.27352,-1.97148 1.24735,-3.1454c0,-0.00254 0,-0.00508 0,-0.00762c0.006,-0.55989 -0.09004,-1.11618 -0.28343,-1.64165c-0.21162,-0.55571 -0.54037,-1.05936 -0.96392,-1.47672c-0.78671,-0.80512 -1.86731,-1.25522 -2.99295,-1.24666c-0.01871,-0.00033 -0.03742,-0.00056 -0.05613,-0.00069z" fill="#ffffff" fill-rule="evenodd" stroke="#ffffff" stroke-width="0.25" stroke-linecap="round"/><g fill="none" fill-rule="nonzero" stroke="#ffffff" stroke-width="5"><path d="M262.04871,99.74124l139.08579,55.41245" stroke-linecap="round"/><path d="M359.29782,57.90458l-55.41244,139.08578" stroke-linecap="round"/><path d="M289.74279,110.7747c9.20811,-23.11246 35.40911,-34.38416 58.52158,-25.17604c23.11246,9.20811 34.38416,35.40911 25.17604,58.52158c-9.20812,23.11246 -35.40911,34.38416 -58.52158,25.17605c-23.11246,-9.20811 -34.38416,-35.40912 -25.17604,-58.52158z" stroke-linecap="butt"/></g><g fill="none" fill-rule="nonzero" stroke="#ffffff" stroke-width="5"><path d="M471.4149,241.7793l-125.50245,81.63659" stroke-linecap="round"/><path d="M449.48196,345.34883l-81.63658,-125.50243" stroke-linecap="round"/><path d="M370.90188,307.16083c-13.56589,-20.85526 -7.65669,-48.75911 13.19857,-62.32501c20.85526,-13.56589 48.75911,-7.65669 62.32501,13.19857c13.56589,20.85526 7.65669,48.75911 -13.19857,62.32501c-20.85526,13.56589 -48.75911,7.65669 -62.32501,-13.19857z" stroke-linecap="butt"/></g><path d="M-2.49249,360.36787v-28.52853h316.81682v28.52853z" fill="#ffffff" fill-rule="nonzero" stroke="none" stroke-width="0" stroke-linecap="butt"/><path d="M207.71922,362.3095l25,-86v-1l31,87z" fill="#ffffff" fill-rule="nonzero" stroke="none" stroke-width="0" stroke-linecap="butt"/><path d="M8.01802,69.07658h286.78679" fill="none" fill-rule="nonzero" stroke="#ffffff" stroke-width="2.5" stroke-linecap="round"/><path d="M32.04205,296.08484v-45.04504h45.04504v45.04504z" fill="none" fill-rule="nonzero" stroke="#ffffff" stroke-width="4.5" stroke-linecap="butt"/><path d="M54.34385,228.04805c0,-7.17058 5.8129,-12.98349 12.98349,-12.98349c7.17058,0 12.98349,5.8129 12.98349,12.98349c0,7.17058 -5.8129,12.98349 -12.98349,12.98349c-7.17058,0 -12.98349,-5.8129 -12.98349,-12.98349z" fill-opacity="0.62745" fill="#ffffff" fill-rule="nonzero" stroke="none" stroke-width="0" stroke-linecap="butt"/><path d="M68.35286,194.00901c0,-6.34133 5.14066,-11.48198 11.48198,-11.48198c6.34133,0 11.48198,5.14066 11.48198,11.48198c0,6.34133 -5.14066,11.48198 -11.48198,11.48198c-6.34133,0 -11.48198,-5.14066 -11.48198,-11.48198z" fill-opacity="0.62745" fill="#ffffff" fill-rule="nonzero" stroke="none" stroke-width="0" stroke-linecap="butt"/><path d="M79.35886,168.22823c0,-4.26818 3.46005,-7.72823 7.72823,-7.72823c4.26818,0 7.72823,3.46004 7.72823,7.72823c0,4.26818 -3.46005,7.72823 -7.72823,7.72823c-4.26818,0 -7.72823,-3.46005 -7.72823,-7.72823z" fill-opacity="0.62745" fill="#ffffff" fill-rule="nonzero" stroke="none" stroke-width="0" stroke-linecap="butt"/><path d="M33.68941,94.81691h-5.67152v-6.42254c0.0007,-0.79044 0.02903,-1.58062 0.08494,-2.36909c0.00187,-0.02607 0.00377,-0.05214 0.0057,-0.07821c0.04161,-0.57578 0.0852,-1.08829 0.13078,-1.53752c0.0193,-0.19124 0.04045,-0.38228 0.06345,-0.57311c0.01203,-0.09962 0.02403,-0.19923 0.036,-0.29886c0.04644,-0.38483 0.07709,-0.64294 0.09194,-0.77433c0.00052,-0.00483 0.00104,-0.00967 0.00155,-0.0145h-0.10359l-3.28896,12.06816h-4.48024l-3.31486,-12.04226h-0.10359c0.0041,0.03628 0.00842,0.07254 0.01295,0.10877c0.02314,0.18801 0.0663,0.51001 0.12949,0.96597c0.07769,0.56111 0.15107,1.26034 0.22013,2.09768c0.06906,0.83735 0.10359,1.65311 0.10359,2.4473v6.42254h-5.25716v-17.81737h8.07997l2.69332,10.28124h0.10359l2.66743,-10.28124h7.7951zM177.52322,94.81691v-17.81737h15.40892v4.27306h-9.6856v2.46025h8.28715v4.09178h-8.28715v2.71922h9.86689v4.27306zM37.15965,87.64334v-10.64381h5.72331v10.56611c0,1.00136 0.26761,1.79986 0.80282,2.3955c0.3483,0.38261 0.80346,0.65182 1.30652,0.77278c0.27986,0.07286 0.58649,0.11274 0.91987,0.11965c0.03478,0.0007 0.06957,0.00105 0.10437,0.00104c1.01863,0 1.79986,-0.30214 2.34371,-0.90641c0.37106,-0.41728 0.62257,-0.92701 0.72797,-1.47537c0.06017,-0.2986 0.08958,-0.60258 0.08779,-0.90718v-10.56611h5.72331v10.64381c0.00677,0.76033 -0.08057,1.51858 -0.26001,2.25747c-0.30418,1.29621 -1.02194,2.45821 -2.04485,3.31046c-0.76473,0.62265 -1.64375,1.08988 -2.58766,1.37541c-1.13862,0.36066 -2.46007,0.541 -3.96436,0.541c-1.97441,0 -3.63616,-0.31068 -4.98524,-0.93205c-0.56709,-0.25812 -1.09814,-0.58903 -1.57974,-0.98436c-1.11087,-0.92367 -1.86404,-2.2065 -2.12928,-3.62666c-0.12949,-0.63887 -0.19267,-1.28941 -0.18853,-1.94126zM209.68771,87.35847l3.96229,7.45843h-6.42254l-3.15948,-6.50023h-2.12358v6.50023h-5.72331v-17.81737h10.90278c0.51779,-0.0028 1.0347,0.0428 1.544,0.13622c0.62775,0.11861 1.19697,0.31482 1.70767,0.58865c0.00813,0.00438 0.01624,0.00878 0.02434,0.01321c0.51472,0.27401 0.98017,0.63189 1.37722,1.05894c0.26006,0.28339 0.4846,0.59742 0.66867,0.93515c0.45752,0.83735 0.68628,1.74807 0.68628,2.73217c0,1.08769 -0.2935,2.07179 -0.88051,2.9523c-0.46991,0.6978 -1.11282,1.26174 -1.8659,1.63671c-0.22627,0.11583 -0.45934,0.21788 -0.69793,0.30559zM168.43325,87.90232v6.91459h-5.72331v-6.91459l-7.06997,-10.90278h6.57792l3.41845,5.93049h0.10359l3.41845,-5.93049h6.24126zM90.76714,81.55747h-5.8269v13.25944h-5.72331v-13.25944h-5.8528v-4.55793h17.40301zM157.42689,94.81691h-6.05998l-0.75102,-2.51204h-6.24126l-0.75102,2.51204h-5.8528l6.50023,-17.81737h6.65562zM58.73214,94.81691v-17.81737h5.72331v13.25944h9.14176v4.55793zM122.15471,94.81691v-17.81737h5.72331v13.25944h9.14176v4.55793zM119.15062,82.85234v0.33667c0.00468,0.67669 -0.0957,1.35001 -0.29756,1.99591c-0.11094,0.3486 -0.25408,0.68611 -0.42757,1.00818c-0.48342,0.89777 -1.15675,1.60132 -2.01999,2.11063c-0.71595,0.41842 -1.51689,0.67032 -2.34345,0.73704c-0.20244,0.0181 -0.4056,0.02708 -0.60885,0.02693h-4.27306v5.74921h-5.72331v-17.81737h9.99637c0.59986,-0.00435 1.19711,0.07933 1.77267,0.24836c0.4126,0.12358 0.80869,0.29671 1.17962,0.51562c0.86324,0.50931 1.53658,1.20854 2.01999,2.09768c0.41248,0.76609 0.65387,1.61254 0.70752,2.48096c0.01186,0.1698 0.01773,0.33996 0.01761,0.51018zM99.36506,94.81691h-5.72331v-17.81737h5.72331zM147.45641,81.97183l-1.89051,6.34485h3.8587l-1.86461,-6.34485zM205.69952,81.06542h-3.75511v3.28896h3.75511c0.41947,0.00766 0.82361,-0.15765 1.11747,-0.45709c0.0074,-0.00727 0.01474,-0.01461 0.02201,-0.02201c0.30785,-0.31283 0.476,-0.73694 0.46615,-1.17574c0,-0.00086 0,-0.00173 0,-0.00259c0.00224,-0.20924 -0.03365,-0.41713 -0.10592,-0.61351c-0.07908,-0.20768 -0.20194,-0.3959 -0.36023,-0.55187c-0.29396,-0.30098 -0.6978,-0.46929 -1.11851,-0.46615c-0.00699,-0.00004 -0.01398,-0.00004 -0.02098,0zM109.18015,81.2208v3.67742h2.35666c0.41332,0 0.75594,-0.07277 1.02787,-0.21831c0.12275,-0.06493 0.23467,-0.14854 0.33174,-0.24784c0.20117,-0.20959 0.33952,-0.4714 0.39934,-0.75568c0.03704,-0.16855 0.05511,-0.34072 0.05387,-0.51329v-0.20718c0.00135,-0.17285 -0.01575,-0.34536 -0.05102,-0.51458c-0.04748,-0.21857 -0.12785,-0.40987 -0.2411,-0.57388c-0.04772,-0.06924 -0.10163,-0.13399 -0.16108,-0.19345c-0.30214,-0.30214 -0.75534,-0.4532 -1.35961,-0.4532z" fill="#ffffff" fill-rule="evenodd" stroke="#ffffff" stroke-width="0.25" stroke-linecap="round"/></g></g></svg>