<svg version="1.1" xmlns="http://www.w3.org/2000/svg" xmlns:xlink="http://www.w3.org/1999/xlink" width="706.62458" height="493.28457" viewBox="0,0,706.62458,493.28457"><g transform="translate(76.84857,27.47283)"><g data-paper-data="{&quot;isPaintingLayer&quot;:true}" fill-rule="nonzero" stroke-linecap="butt" stroke-linejoin="miter" stroke-miterlimit="10" stroke-dasharray="" stroke-dashoffset="0" style="mix-blend-mode: normal"><path d="M-29.83826,328.52637v-354.2492h541.52157v354.24921z" fill="#74ffef" stroke="#000000" stroke-width="3.5"/><path d="M616.64393,321.65076c0,45.58421 -47.79498,82.53752 -106.75307,82.53752c-58.95809,0 -106.75307,-36.95331 -106.75307,-82.53752c0,-45.58421 47.79498,-82.53751 106.75307,-82.53751c58.95809,0 106.75307,36.95331 106.75307,82.53751z" fill="#ffffff" stroke="none" stroke-width="0"/><path d="M526.14597,291.86222c0,45.58421 -47.79498,82.53752 -106.75307,82.53752c-58.95809,0 -106.75307,-36.95331 -106.75307,-82.53752c0,-45.58421 47.79498,-82.53752 106.75307,-82.53752c58.95809,0 106.75307,36.95331 106.75307,82.53752z" fill="#ffffff" stroke="none" stroke-width="0"/><path d="M329.92497,294.14053c0,45.58421 -47.79498,82.53752 -106.75307,82.53752c-58.95809,0 -106.75307,-36.95331 -106.75307,-82.53752c0,-45.58421 47.79498,-82.53751 106.75307,-82.53751c58.95809,0 106.75307,36.95331 106.75307,82.53751z" fill="#ffffff" stroke="none" stroke-width="0"/><path d="M241.86835,303.01504v-81.28577h165.17248v81.28577z" fill="#ffcb73" stroke="none" stroke-width="0"/><path d="M335.78995,237.98643v-42.2686h71.25087v42.2686z" fill="#ffcb73" stroke="none" stroke-width="0"/><path d="M242.2176,230.8339v-9.1167h164.56885v9.1167z" fill="#ffeac6" stroke="none" stroke-width="0"/><path d="M336.06632,204.26523v-8.33527h70.72013v8.33527z" fill="#ffeac6" stroke="none" stroke-width="0"/><path d="M239.42701,264.35199c0,45.58421 -47.79498,82.53752 -106.75307,82.53752c-58.95809,0 -106.75307,-36.95331 -106.75307,-82.53752c0,-45.58421 47.79498,-82.53751 106.75307,-82.53751c58.95809,0 106.75307,36.95331 106.75307,82.53751z" fill="#ffffff" stroke="none" stroke-width="0"/><path d="M176.22101,309.60438c0,45.58421 -47.79498,82.53752 -106.75307,82.53752c-58.95809,0 -106.75307,-36.95331 -106.75307,-82.53752c0,-45.58421 47.79498,-82.53752 106.75307,-82.53752c58.95809,0 106.75307,36.95331 106.75307,82.53752z" fill="#ffffff" stroke="none" stroke-width="0"/><path d="M629.77601,369.2906c0,53.30716 -158.1833,96.52115 -353.31229,96.52115c-195.12899,0 -353.31229,-43.21399 -353.31229,-96.52115c0,-53.30716 158.1833,-96.52115 353.31229,-96.52115c195.12899,0 353.31229,43.21399 353.31229,96.52115z" fill="#66ff96" stroke="none" stroke-width="0"/><path d="M49.15766,303.20625l-6.28605,-50.77196l20.98574,-2.59823l6.28605,50.77196z" fill="#3c9558" stroke="none" stroke-width="0"/><path d="M27.51705,251.62348c0,-10.17168 8.24578,-18.41746 18.41746,-18.41746c10.17168,0 18.41746,8.24578 18.41746,18.41746c0,10.17168 -8.24578,18.41746 -18.41746,18.41746c-10.17168,0 -18.41746,-8.24578 -18.41746,-18.41746z" fill="#4fc775" stroke="none" stroke-width="0"/><path d="M48.88813,249.12007c0,-10.17168 8.24577,-18.41746 18.41746,-18.41746c10.17168,0 18.41746,8.24578 18.41746,18.41746c0,10.17168 -8.24578,18.41746 -18.41746,18.41746c-10.17169,0 -18.41746,-8.24577 -18.41746,-18.41746z" fill="#4fc775" stroke="none" stroke-width="0"/><path d="M33.42429,229.56345c0,-10.17168 8.24578,-18.41746 18.41746,-18.41746c10.17169,0 18.41747,8.24578 18.41747,18.41746c0,10.17168 -8.24578,18.41746 -18.41747,18.41746c-10.17168,0 -18.41746,-8.24578 -18.41746,-18.41746z" fill="#4fc775" stroke="none" stroke-width="0"/><path d="M395.19393,296.73892c0,0 6.20573,-19.60132 16.75513,-22.35615c10.5494,-2.75483 51.64171,4.80251 51.64171,4.80251l9.28067,28.49821z" fill="#cfcfcf" stroke="none" stroke-width="0"/><path d="M415.63965,316.30202c0,0 6.20573,-19.60132 16.75513,-22.35615c10.5494,-2.75483 51.64171,4.80251 51.64171,4.80251l9.28067,28.49821z" fill="#cfcfcf" stroke="none" stroke-width="0"/></g></g></svg>