<svg version="1.1" xmlns="http://www.w3.org/2000/svg" xmlns:xlink="http://www.w3.org/1999/xlink" width="424" height="168.22031" viewBox="0,0,424,168.22031"><g transform="translate(15.5,-279.7561)"><g data-paper-data="{&quot;isPaintingLayer&quot;:true}" fill-rule="nonzero" stroke="#cb067f" stroke-linecap="butt" stroke-linejoin="miter" stroke-miterlimit="10" stroke-dasharray="" stroke-dashoffset="0" style="mix-blend-mode: normal"><path d="M-14.5,374v-86h422v86z" fill="#ff76ca" stroke-width="2"/><path d="M259.65923,287.78525c0.02874,0.65336 0.04326,1.31041 0.04326,1.97085c0,24.35175 -19.74099,44.09274 -44.09274,44.09274c-24.35175,0 -44.09274,-19.74099 -44.09274,-44.09274c0,-0.66364 0.01466,-1.32385 0.04368,-1.98033" fill="none" stroke-width="20"/><path d="M310.3375,287.71037c0.01441,0.68017 0.02165,1.3621 0.02165,2.04573c0,52.32865 -42.42075,94.7494 -94.7494,94.7494c-52.32865,0 -94.7494,-42.42075 -94.7494,-94.7494c0,-0.68956 0.00737,-1.37741 0.02202,-2.06346" fill="none" stroke-width="20"/><path d="M363.81421,287.56559c0.01056,0.72891 0.01586,1.45909 0.01586,2.19051c0,81.85982 -66.3605,148.22031 -148.22031,148.22031c-81.85982,0 -148.22031,-66.3605 -148.22031,-148.22031c0,-0.73812 0.0054,-1.47498 0.01615,-2.21054" fill="none" stroke-width="20"/></g></g></svg>