<svg version="1.1" xmlns="http://www.w3.org/2000/svg" xmlns:xlink="http://www.w3.org/1999/xlink" width="572" height="503.85085" viewBox="0,0,572,503.85085"><g transform="translate(38.5,126)"><g data-paper-data="{&quot;isPaintingLayer&quot;:true}" fill-rule="nonzero" stroke-linecap="butt" stroke-linejoin="miter" stroke-miterlimit="10" stroke-dasharray="" stroke-dashoffset="0" style="mix-blend-mode: normal"><path d="M247.38072,280.3125v-60.9391h100.12372v9.47204c-0.12526,8.82071 -0.12933,17.64361 0,26.46412v25.00294z" fill="#fff866" stroke="#f2eb61" stroke-width="2"/><path d="M249.00383,280.07378l-2.65017,-9.36426c0.03568,-2.7769 0.06428,-5.55393 0.08597,-8.33105l100.97992,-30.24378c-0.02597,6.14784 -0.00448,12.29595 0.06734,18.44313z" fill="#f2eb61" stroke="none" stroke-width="0"/><path d="M324.484,220.33261c-18.34088,5.49315 -78.0012,23.36159 -78.0012,23.36159c-0.01902,-6.13956 -0.07025,-12.279 -0.15207,-18.41774c0,0 16.41546,-4.91648 24.60478,-7.3692c8.16485,-2.4454 63.54222,-0.5678 53.5485,2.42535z" fill="#f2eb61" stroke="none" stroke-width="0"/><path d="M-37.5,-57v-68h62v68z" fill="#fff866" stroke="#f2eb61" stroke-width="2"/><path d="M-10.5,370v-99h506v99z" fill="#4ba7fa" stroke="#3b85c6" stroke-width="2"/><path d="M489.5,373v-147h43v147z" fill="#4ba7fa" stroke="#3b85c6" stroke-width="2"/><path d="M423.5,179v-28h76v28z" fill="#fff866" stroke="#f2eb61" stroke-width="2"/><path d="M375.5,102v-28h101v28h-15.5181c-14.44052,-0.04576 -28.88128,-0.04489 -43.32185,0z" fill="#4ba7fa" stroke="#3b85c6" stroke-width="2"/><path d="M168.5,45v-34.64475c0.14427,-0.67616 0.22019,-1.37762 0.22019,-2.09682c0,-0.0864 -0.0011,-0.17255 -0.00327,-0.25843h144.78308v37z" fill="#4ba7fa" stroke="#3b85c6" stroke-width="2"/><path d="M-19.5,-31v-34h128v25.15476c-0.22897,2.73616 -0.38548,5.7827 -0.33993,8.84524z" fill="#4ba7fa" stroke="#3b85c6" stroke-width="2"/><path d="M103.37037,310.49571l-21.56963,-21.56963l9.68432,-9.68432l21.56963,21.56963z" fill="#ffffff" stroke="none" stroke-width="0"/><path d="M82.42328,313.26202l21.56963,-21.56963l9.68432,9.68432l-21.56963,21.56963z" fill="#ffffff" stroke="none" stroke-width="0"/><path d="M335.87037,310.4957l-21.56962,-21.56963l9.68433,-9.68433l21.56962,21.56963z" fill="#ffffff" stroke="none" stroke-width="0"/><path d="M314.29828,313.26202l21.56963,-21.56963l9.68432,9.68432l-21.56963,21.56962z" fill="#ffffff" stroke="none" stroke-width="0"/><path d="M35.86022,372.85085h-17.8125v-101.5625h17.8125z" fill="#3b85c6" stroke="none" stroke-width="0"/><path d="M162.11022,377.13656h-17.8125v-105.84821h17.8125z" fill="#3b85c6" stroke="none" stroke-width="0"/><path d="M287.82451,376.42228h-17.8125v-105.13393h17.8125z" fill="#3b85c6" stroke="none" stroke-width="0"/><path d="M412.73522,377.85085h-17.8125v-106.5625h17.8125z" fill="#3b85c6" stroke="none" stroke-width="0"/><path d="M220.87037,311.12071l-21.56963,-21.56963l9.68432,-9.68432l21.56963,21.56963z" fill="#ffffff" stroke="none" stroke-width="0"/><path d="M199.92328,313.88702l21.56963,-21.56963l9.68432,9.68432l-21.56963,21.56963z" fill="#ffffff" stroke="none" stroke-width="0"/><path d="M448.37037,309.8707l-21.56962,-21.56963l9.68433,-9.68433l21.56962,21.56963z" fill="#ffffff" stroke="none" stroke-width="0"/><path d="M426.79828,312.63702l21.56963,-21.56963l9.68432,9.68432l-21.56963,21.56962z" fill="#ffffff" stroke="none" stroke-width="0"/><path d="M422.76857,152.78756c0.2678,-0.84354 0.42673,-1.73557 0.4603,-2.65958c5.81327,0.04856 11.62674,0.08081 17.44028,0.09727l16.36317,29.26934c-6.42076,0.02423 -12.84143,0.06692 -19.26184,0.12738z" fill="#f2eb61" stroke="none" stroke-width="0"/><path d="M465.07369,150.20306c6.41792,-0.02947 12.83572,-0.0773 19.25323,-0.14278l16.5279,29.56399c-6.4686,-0.06392 -12.93749,-0.10747 -19.40649,-0.13137z" fill="#f2eb61" stroke="none" stroke-width="0"/><path d="M401.41117,102.06894c-6.42045,0.03447 -12.84083,0.07745 -19.2611,0.1287l-6.96618,-12.46063c0.07477,-5.40013 0.0568,-10.80213 -0.06158,-16.20091c3.45835,0.02517 6.91673,0.04764 10.37513,0.06744z" fill="#3b85c6" stroke="none" stroke-width="0"/><path d="M445.10492,101.96835c-6.44229,-0.00532 -12.88459,-0.00155 -19.32686,0.01107l-15.81046,-28.28067c6.44654,0.01327 12.8931,0.01721 19.33966,0.01181z" fill="#3b85c6" stroke="none" stroke-width="0"/><path d="M477.5065,74.43313c-0.01696,0.18966 -0.02862,0.38084 -0.03485,0.5734c-0.00124,0.11187 -0.00286,0.22165 -0.0053,0.32882c-0.20333,8.9094 -0.29716,17.82291 -0.27064,26.73577c-1.19393,-0.0067 -2.38787,-0.01308 -3.58181,-0.01913l-15.89152,-28.42567c6.42098,-0.0327 12.84189,-0.07465 19.26269,-0.12587z" fill="#3b85c6" stroke="none" stroke-width="0"/><path d="M465.48214,52.92478l0.27254,0.48749h-1.14453z" fill="#3b85c6" stroke="none" stroke-width="0"/><path d="M210.08133,45.89178c-7.39567,0.03059 -14.79129,0.0697 -22.18682,0.11709l-19.56057,-34.98862c0.25154,-0.8772 0.38626,-1.80378 0.38626,-2.76182c0,-0.33091 -0.01607,-0.65806 -0.04748,-0.98073c6.63429,0.05837 13.26869,0.10716 19.90317,0.1466z" fill="#3b85c6" stroke="none" stroke-width="0"/><path d="M260.39607,45.81778c-7.41755,-0.00926 -14.83513,-0.00942 -22.25269,-0.00072l-21.40112,-38.28087c7.41955,0.01502 14.83913,0.01874 22.2587,0.01148z" fill="#3b85c6" stroke="none" stroke-width="0"/><path d="M314.14134,43.55157c-0.20972,0.79658 -0.32363,1.63203 -0.32867,2.49328c-6.86666,-0.05022 -13.7334,-0.09218 -20.6002,-0.12604l-21.50862,-38.47316c7.39014,-0.03866 14.7802,-0.08775 22.17013,-0.14695z" fill="#3b85c6" stroke="none" stroke-width="0"/><path d="M12.28691,-30.29214c-7.0369,0.04038 -14.07372,0.08881 -21.11044,0.14508c-0.12212,0 -0.24372,0.00219 -0.36478,0.00653c-0.23317,0.00657 -0.4576,0.01764 -0.67376,0.03317l-10.81865,-19.35168c0.06381,-5.37871 0.08675,-10.75815 0.06648,-16.1373c4.40105,0.02684 8.80214,0.05012 13.20324,0.06989z" fill="#3b85c6" stroke="none" stroke-width="0"/><path d="M62.56004,-30.44061c-7.41172,0.00082 -14.82344,0.01115 -22.23512,0.03073l-19.58787,-35.03746c7.41683,0.0085 14.83368,0.00736 22.25052,-0.00317z" fill="#3b85c6" stroke="none" stroke-width="0"/><path d="M109.11087,-45.57573c-0.48866,3.84271 -1.07871,9.55731 -0.93741,15.25234c-4.27344,-0.02264 -8.54691,-0.04195 -12.8204,-0.05797l-19.66512,-35.17566c7.3916,-0.03747 14.78314,-0.08389 22.17457,-0.13903z" fill="#3b85c6" stroke="none" stroke-width="0"/><path d="M125.53487,183.69097v-50.69418h29.33949v50.69418z" fill="#fff896" stroke="#f2eb61" stroke-width="2.5"/><path d="M137.62931,130.81533v-5.71934h3.68685v5.71934z" fill="#f2eb61" stroke="#f2eb61" stroke-width="2.5"/><path d="M138.92647,123.7546c0,0 -8.02412,5.17245 -17.92237,5.17245c-9.89825,0 -17.92237,-2.31578 -17.92237,-5.17245c0,-2.85667 8.02412,-5.17245 17.92237,-5.17245c9.89825,0 17.92237,5.17245 17.92237,5.17245z" fill="#fffccc" stroke="#f2eb61" stroke-width="2.5"/><path d="M156.71706,118.64805c9.89825,0 17.92236,2.31579 17.92236,5.17245c0,2.85667 -8.02412,5.17245 -17.92236,5.17245c-9.89825,0 -17.92237,-5.17245 -17.92237,-5.17245c0,0 8.02412,-5.17245 17.92237,-5.17245z" data-paper-data="{&quot;index&quot;:null}" fill="#fffccc" stroke="#f2eb61" stroke-width="2.5"/><path d="M144.2719,160.52156l-11.97169,-15.06642l3.95598,-3.1434l11.97169,15.06642z" fill="#f2eb61" stroke="#f2eb61" stroke-width="2.5"/><path d="M148.01288,157.28086l-11.97169,15.06642l-3.95598,-3.14341l11.97169,-15.06642z" data-paper-data="{&quot;index&quot;:null}" fill="#f2eb61" stroke="none" stroke-width="2.5"/></g></g></svg>