<svg version="1.1" xmlns="http://www.w3.org/2000/svg" xmlns:xlink="http://www.w3.org/1999/xlink" width="600" height="743.26276" viewBox="0,0,600,743.26276"><g transform="translate(22.5,353.26276)"><g data-paper-data="{&quot;isPaintingLayer&quot;:true}" fill="#9966ff" fill-rule="nonzero" stroke-linecap="butt" stroke-linejoin="miter" stroke-miterlimit="10" stroke-dasharray="" stroke-dashoffset="0" style="mix-blend-mode: normal"><path d="M152.5,142v-367h82v367z" stroke="#000000" stroke-width="2"/><path d="M94.5,142v-40h86v40z" stroke="#000000" stroke-width="2"/><path d="M-21.5,36v-31h66v31z" stroke="#000000" stroke-width="2"/><path d="M141.5,389v-126h137v126z" stroke="#000000" stroke-width="2"/><path d="M340.5,373v-172h103v172z" stroke="#000000" stroke-width="2"/><path d="M489.5,364v-225h86v225z" stroke="#000000" stroke-width="2"/><path d="M546.5,158v-82h30v82z" stroke="#000000" stroke-width="2"/><path d="M221.5,54v-30h233v30z" stroke="#000000" stroke-width="2"/><path d="M229.5,-23v-33h160v33z" stroke="#000000" stroke-width="2"/><path d="M173.5,-93v-33h160v33z" stroke="#000000" stroke-width="2"/><path d="M180.5,-165v-34h88v34z" stroke="none" stroke-width="0"/><path d="M150.62312,-89.5v-262.76276h28.52853v262.76276z" stroke="#000000" stroke-width="2"/></g></g></svg>