<svg version="1.1" xmlns="http://www.w3.org/2000/svg" xmlns:xlink="http://www.w3.org/1999/xlink" width="791.7267" height="617.92394" viewBox="0,0,791.7267,617.92394"><g transform="translate(154.2267,243.92394)"><g data-paper-data="{&quot;isPaintingLayer&quot;:true}" fill-rule="nonzero" stroke-linecap="butt" stroke-linejoin="miter" stroke-miterlimit="10" stroke-dasharray="" stroke-dashoffset="0" style="mix-blend-mode: normal"><path d="M464.42871,36.93809v-31h66v31z" fill="#ffae66" stroke="#df9859" stroke-width="2"/><path d="M462.5,366v-135h174v135z" fill="#ffae66" stroke="#df9859" stroke-width="2"/><path d="M464.17639,306.11566v-12.27831h42.29195v12.27831z" fill="none" stroke="#df9859" stroke-width="20"/><path d="M-17.5,-67.53087v-76h30v76z" fill="#ffae66" stroke="#df9859" stroke-width="2"/><path d="M31.5,366v-17.33283c0.05248,-14.86303 0.05141,-29.72635 0,-44.58942v-45.07775h47v107z" fill="#ffae66" stroke="#df9859" stroke-width="2"/><path d="M139.5,373v-13.38387c0.28232,-47.30837 0.2691,-94.61922 0,-141.92773v-16.6884h54v53.607c-0.084,26.22757 -0.08627,52.45554 0,78.68307v39.70993z" fill="#ff76ca" stroke="#cb067f" stroke-width="2"/><path d="M251.5,140h68v228.0523c-9.83412,-0.06528 -19.71591,0.68371 -29.55289,0.60977c-7.21661,-0.05424 -15.33097,0.74626 -22.27883,-1.26342c-4.52261,-1.30817 -10.4033,-4.6862 -16.16828,-6.42635z" fill="#ffae66" stroke="#df9859" stroke-width="2"/><path d="M76.5,97v-27h106v27z" fill="#ff76ca" stroke="#cb067f" stroke-width="2"/><path d="M240.5,31v-28h115v28z" fill="#ffae66" stroke="#df9859" stroke-width="2"/><path d="M136.5,-39v-31h32v31z" fill="#ff76ca" stroke="#cb067f" stroke-width="2"/><path d="M-18.5,-62.53087v-26h26.26384c3.81727,0.27575 8.12082,0.38293 12.18132,0h26.24725c3.37301,0.42288 7.8569,0.91433 12.30759,0.86379v25.13621z" fill="#ff76ca" stroke="#cb067f" stroke-width="2"/><path d="M415.5,368v-555h65v555z" fill="#ff76ca" stroke="#cb067f" stroke-width="2"/><path d="M188.5,-177.92394v-65h39v65z" fill="#ffae66" stroke="#df9859" stroke-width="2"/><path d="M274.5,-134.92394v-20h97v20z" fill="#ffae66" stroke="#df9859" stroke-width="2"/><path d="M54.80394,259.96985l17.36415,17.36415l-36.17531,36.17531l-4.47751,-4.47751c-0.02312,-8.55149 -0.06302,-17.10293 -0.11908,-25.65419z" fill="#df9859" stroke="none" stroke-width="0"/><path d="M74.12864,312.37016l-36.17531,-36.17531l17.36415,-17.36415l23.95705,23.95705c-0.08302,8.21006 -0.14807,16.42043 -0.19442,24.63094z" fill="#df9859" stroke="none" stroke-width="0"/><path d="M54.34692,314.76521l17.36415,17.36415l-36.17531,36.17532l-4.1102,-4.11021c0.05381,-8.8704 0.08815,-17.74097 0.1037,-26.6116z" fill="#df9859" stroke="none" stroke-width="0"/><path d="M74.35374,367.16552l-36.17532,-36.17532l17.36415,-17.36415l23.45279,23.45279c-0.00022,8.46087 0.02038,16.92174 0.06262,25.38243z" fill="#df9859" stroke="none" stroke-width="0"/><path d="M287.89096,142.87351l27.83235,27.83235l-57.98408,57.98408l-7.11068,-7.11068c-0.03769,-13.75999 -0.09245,-27.51991 -0.16364,-41.2797z" fill="#df9859" stroke="none" stroke-width="0"/><path d="M229.90688,200.85759l0.3232,-0.3232c-0.00086,0.21461 -0.00171,0.42923 -0.00256,0.64384z" fill="#df9859" stroke="none" stroke-width="0"/><path d="M318.8658,226.86404l-57.98408,-57.98408l27.83235,-27.83235l31.20878,31.20878c-0.08069,17.90755 -0.13853,35.81527 -0.17244,53.72305z" fill="#df9859" stroke="none" stroke-width="0"/><path d="" fill="#df9859" stroke="none" stroke-width="0"/><path d="M287.1584,230.70297l27.83235,27.83235l-57.98407,57.98408l-6.37774,-6.37774c0.04014,-14.32339 0.06028,-28.64686 0.06113,-42.97035z" fill="#df9859" stroke="none" stroke-width="0"/><path d="M229.17433,288.68705l0.93793,-0.93793c0.00085,0.62618 0.00174,1.25236 0.00267,1.87854z" fill="#df9859" stroke="none" stroke-width="0"/><path d="M319.2266,314.6935l-57.98408,-57.98408l27.83235,-27.83235l30.64024,30.64024c-0.0037,18.20717 0.01802,36.41435 0.06626,54.62142z" fill="#df9859" stroke="none" stroke-width="0"/><path d="" fill="#df9859" stroke="none" stroke-width="0"/><path d="M250.44641,353.34671l34.25901,-34.25901l27.83236,27.83236l-21.74638,21.74638c-0.28147,-0.00081 -0.5629,-0.00225 -0.84429,-0.00436c-7.21661,-0.05424 -15.33097,0.74626 -22.27883,-1.26342c-4.8099,-1.39127 -11.15589,-5.12371 -17.26511,-6.73718c0.01502,-2.43825 0.02943,-4.8765 0.04324,-7.31476z" fill="#df9859" stroke="none" stroke-width="0"/><path d="" fill="#df9859" stroke="none" stroke-width="0"/><path d="M257.69618,345.09415l27.83235,-27.83236l34.39014,34.39014c0.02559,5.46816 0.05364,10.9363 0.08419,16.40443c-10.00007,-0.09511 -20.05109,0.68092 -30.05575,0.60572c-2.76525,-0.02079 -5.66231,0.08393 -8.57506,0.10795z" fill="#df9859" stroke="none" stroke-width="0"/><path d="" fill="#df9859" stroke="none" stroke-width="0"/><path d="M167.46265,280.05356l-23.93099,-21.11708l49.85623,-43.99392l0.29894,0.26379c-0.08737,13.95923 -0.15255,27.91868 -0.19452,41.87823z" fill="#cb067f" stroke="none" stroke-width="0"/><path d="" fill="#cb067f" stroke="none" stroke-width="0"/><path d="M140.82967,216.32792l49.85623,43.99392l-23.93098,21.11708l-27.08965,-23.90433c-0.03449,-13.34425 -0.09023,-26.68842 -0.16633,-40.03241z" fill="#cb067f" stroke="none" stroke-width="0"/><path d="" fill="#cb067f" stroke="none" stroke-width="0"/><path d="M167.00562,361.45192l-23.93098,-21.11708l49.85623,-43.99393l0.50555,0.4461c0.00293,13.75711 0.02935,27.51419 0.08024,41.27114z" fill="#cb067f" stroke="none" stroke-width="0"/><path d="" fill="#cb067f" stroke="none" stroke-width="0"/><path d="M140.37265,297.72628l49.85623,43.99393l-23.93098,21.11708l-26.69464,-23.55577c0.05728,-13.65485 0.09042,-27.30984 0.10035,-40.96487z" fill="#cb067f" stroke="none" stroke-width="0"/><path d="" fill="#cb067f" stroke="none" stroke-width="0"/><path d="M100.36479,69.5028c7.56104,0.05661 15.12221,0.10069 22.68348,0.13183l-15.8628,27.88513c-7.59185,0.0178 -15.18368,0.02987 -22.77545,0.02984z" fill="#cb067f" stroke="none" stroke-width="0"/><path d="" fill="#cb067f" stroke="none" stroke-width="0"/><path d="M112.11813,48.84165l0.65082,0.37022c-0.28808,0.00163 -0.57616,0.00328 -0.86424,0.00494z" fill="#cb067f" stroke="none" stroke-width="0"/><path d="M139.29747,69.68147c7.58676,0.01242 15.17354,0.0115 22.76028,-0.00319l-15.77525,27.73123c-7.59857,0.01877 -15.19715,0.04274 -22.79574,0.06552z" fill="#cb067f" stroke="none" stroke-width="0"/><path d="" fill="#cb067f" stroke="none" stroke-width="0"/><path d="M181.09967,69.61226c0.96934,-0.00486 1.93867,-0.00995 2.90801,-0.01526c-0.02163,0.22554 -0.03577,0.45327 -0.04216,0.68293c-0.00092,0.09625 -0.00214,0.19089 -0.00394,0.28358c-0.17401,8.93954 -0.26907,17.88161 -0.27847,26.82374c-6.12589,-0.01246 -12.25182,-0.01473 -18.37779,-0.01017z" fill="#cb067f" stroke="none" stroke-width="0"/><path d="" fill="#cb067f" stroke="none" stroke-width="0"/><path d="M203.94782,69.45462l-0.0362,0.06365c-0.00168,-0.02117 -0.0034,-0.04227 -0.00516,-0.06329c0.01379,-0.00012 0.02757,-0.00025 0.04136,-0.00037z" fill="#cb067f" stroke="none" stroke-width="0"/><path d="M260.76693,2.43515c7.55724,0.06283 15.11465,0.11355 22.67215,0.15175l-16.777,29.4922c-7.41702,0.04464 -14.83393,0.10122 -22.25067,0.16935c-0.13983,0 -0.27899,0.00287 -0.41743,0.00855c-0.06598,0.00213 -0.13125,0.00462 -0.19583,0.00747z" fill="#df9859" stroke="none" stroke-width="0"/><path d="" fill="#df9859" stroke="none" stroke-width="0"/><path d="" fill="#df9859" stroke="none" stroke-width="0"/><path d="M299.67925,2.64958c7.5821,0.02013 15.16424,0.02737 22.74636,0.0213l-16.65947,29.2856c-7.59449,0.00152 -15.18898,0.01626 -22.7834,0.04382z" fill="#df9859" stroke="none" stroke-width="0"/><path d="" fill="#df9859" stroke="none" stroke-width="0"/><path d="" fill="#df9859" stroke="none" stroke-width="0"/><path d="M341.45467,2.62747c5.00835,-0.0189 10.01666,-0.04377 15.02492,-0.0747c-0.10641,4.55763 -0.10504,9.11899 -0.00431,13.67704l-9.01863,15.8538c-7.5665,-0.04812 -15.13313,-0.08235 -22.69982,-0.1031z" fill="#df9859" stroke="none" stroke-width="0"/><path d="" fill="#df9859" stroke="none" stroke-width="0"/><path d="" fill="#df9859" stroke="none" stroke-width="0"/><path d="M3.46491,-62.16712c-7.60387,0.00314 -15.20771,0.03365 -22.81122,0.09274l15.78051,-27.7405c1.9925,0.19808 12.38425,2.02139 21.95834,1.40654z" fill="#cb067f" stroke="none" stroke-width="0"/><path d="" fill="#cb067f" stroke="none" stroke-width="0"/><path d="M42.37591,-61.95033c-7.55124,-0.08609 -15.10293,-0.14724 -22.6548,-0.18224l15.52474,-27.29087c2.54534,0.50759 6.3234,0.31036 7.95388,0.51117c3.05513,0.37627 8.35981,1.16532 13.80691,1.24265z" fill="#cb067f" stroke="none" stroke-width="0"/><path d="" fill="#cb067f" stroke="none" stroke-width="0"/><path d="" fill="#cb067f" stroke="none" stroke-width="0"/><path d="M107.5,-162.92394v-32h120v32z" fill="#ff76ca" stroke="#cb067f" stroke-width="2"/><path d="M448.50912,133.16913l-31.97677,-28.21681l64.07592,-56.5416c0,18.81121 0,37.62241 0,56.43362z" fill="#cb067f" stroke="none" stroke-width="0"/><path d="M515.12741,74.38411l-0.36456,0.32169c-0.00764,-0.22065 -0.01485,-0.44145 -0.02157,-0.66243z" fill="#cb067f" stroke="none" stroke-width="0"/><path d="M479.54022,106.80345l-31.97677,28.21681l-32.32104,-28.5206c0,-11.26005 0,-22.5201 0,-33.78015c0,-7.46311 0,-15.02069 0,-22.65346z" fill="#cb067f" stroke="none" stroke-width="0"/><path d="M448.81869,-70.08602l-31.97677,-28.21681l63.76635,-56.26843c0,18.81121 0,37.62241 0,56.43362z" fill="#cb067f" stroke="none" stroke-width="0"/><path d="" fill="#cb067f" stroke="none" stroke-width="0"/><path d="M479.84978,-96.4517l-31.97677,28.21681l-32.6306,-28.79376c0,-19.17737 0,-38.08329 0,-56.43362z" fill="#cb067f" stroke="none" stroke-width="0"/><path d="M447.2521,30.59878l-31.97677,-28.21681l65.33294,-57.65082c0,18.8112 0,37.62241 0,56.43361z" fill="#cb067f" stroke="none" stroke-width="0"/><path d="" fill="#cb067f" stroke="none" stroke-width="0"/><path d="M478.28318,4.2331l-31.97677,28.21681l-31.064,-27.41136c0,-18.68318 0,-37.58093 0,-56.43362z" fill="#cb067f" stroke="none" stroke-width="0"/><path d="M446.62357,249.48245l-31.38116,-27.69123c0,-0.35039 0,-0.70077 0,-1.05116l65.36586,-57.67987c0,17.51621 0,35.03242 0,52.54863c0,0 0,1.51458 0.58944,3.36487z" fill="#cb067f" stroke="none" stroke-width="0"/><path d="M500.60827,201.84551c0,-0.08586 0,-0.17171 0,-0.25757c0.04671,0.0444 0.09411,0.08843 0.14223,0.13207z" fill="#cb067f" stroke="none" stroke-width="0"/><path d="M477.65467,223.11678l-31.97677,28.21681l-30.43549,-26.85676c0,-18.8112 0,-37.62241 0,-56.43361z" fill="#cb067f" stroke="none" stroke-width="0"/><path d="M507.23233,300.10632c0,-32.28413 26.17146,-58.4556 58.4556,-58.4556c32.28413,0 58.4556,26.17146 58.4556,58.4556c0,32.28413 -26.17147,58.4556 -58.4556,58.4556c-32.28413,0 -58.4556,-26.17147 -58.4556,-58.4556z" fill="none" stroke="#df9859" stroke-width="20"/><path d="M-124.68982,-161.18191v-62.73658h36.30908v62.73658z" fill="#ff76ca" stroke="#cb0680" stroke-width="3.5"/><path d="M-110.00322,-226.61815v-7.07797h4.56266v7.07797z" fill="#cb0680" stroke="#cb0680" stroke-width="3.5"/><path d="M-108.11705,-235.35615c0,0 -9.93024,6.40116 -22.17983,6.40116c-12.24958,0 -22.17983,-2.8659 -22.17983,-6.40116c0,-3.53527 9.93024,-6.40116 22.17983,-6.40116c12.24958,0 22.17983,6.40116 22.17983,6.40116z" fill="#ffbae4" stroke="#cb0680" stroke-width="3.5"/><path d="M-86.10031,-241.67577c12.24958,0 22.17982,2.8659 22.17982,6.40116c0,3.53527 -9.93024,6.40116 -22.17982,6.40116c-12.24958,0 -22.17983,-6.40116 -22.17983,-6.40116c0,0 9.93025,-6.40116 22.17983,-6.40116z" data-paper-data="{&quot;index&quot;:null}" fill="#ffbae4" stroke="#cb0680" stroke-width="3.5"/><path d="M-101.55288,-189.8552l-14.81556,-18.64544l4.89573,-3.89012l14.81556,18.64544z" fill="#cb0680" stroke="#cb0680" stroke-width="3.5"/><path d="M-96.92324,-193.86573l-14.81557,18.64544l-4.89573,-3.89012l14.81557,-18.64544z" data-paper-data="{&quot;index&quot;:null}" fill="#cb0680" stroke="#cb0680" stroke-width="3.5"/></g></g></svg>