<svg version="1.1" xmlns="http://www.w3.org/2000/svg" xmlns:xlink="http://www.w3.org/1999/xlink" width="431.103" height="163.43163" viewBox="0,0,431.103,163.43163"><g transform="translate(-76.5,-124.56837)"><g data-paper-data="{&quot;isPaintingLayer&quot;:true}" fill-rule="nonzero" stroke-linecap="butt" stroke-linejoin="miter" stroke-miterlimit="10" stroke-dasharray="" stroke-dashoffset="0" style="mix-blend-mode: normal"><path d="M77.5,221v-40h40v40z" fill="#4ba7fa" stroke="#3b85c6" stroke-width="2"/><path d="M175.5,241v-112h35.94303c-0.11292,27.31448 -0.08963,54.62981 0.05697,81.94412v30.05588z" fill="#fff866" stroke="#f2eb61" stroke-width="2"/><path d="M272.5,287v-112h36v112z" fill="#4ba7fa" stroke="#3b85c6" stroke-width="2"/><path d="M373.5,240v-112h36v112z" fill="#fff866" stroke="#f2eb61" stroke-width="2"/><path d="M470.5,286v-112l9.88688,0c5.34473,0.60151 13.22741,1.20261 19.75687,0h6.35626v112z" fill="#4ba7fa" stroke="#3b85c6" stroke-width="2"/><path d="M292.7613,182.58385l12.37412,12.37412l-32.84705,32.84705c-0.02863,-8.20589 -0.07244,-16.41169 -0.1309,-24.61734z" fill="#3b85c6" stroke="none" stroke-width="0"/><path d="" fill="#3b85c6" stroke="none" stroke-width="0"/><path d="M281.53125,193.7511l12.37412,-12.37412l15.22201,15.22201c-0.05044,8.21821 -0.08128,16.4366 -0.0932,24.65504z" fill="#3b85c6" stroke="none" stroke-width="0"/><path d="" fill="#3b85c6" stroke="none" stroke-width="0"/><path d="M292.7613,230.91719l12.37412,12.37411l-32.85806,32.85806c0.0333,-8.26635 0.05013,-16.5328 0.05103,-24.79926z" fill="#3b85c6" stroke="none" stroke-width="0"/><path d="" fill="#3b85c6" stroke="none" stroke-width="0"/><path d="M281.53125,242.08443l12.37412,-12.37411l15.14596,15.14596c0.02386,8.29173 0.0663,16.58338 0.1266,24.87483z" fill="#3b85c6" stroke="none" stroke-width="0"/><path d="" fill="#3b85c6" stroke="none" stroke-width="0"/><path d="" fill="#3b85c6" stroke="none" stroke-width="0"/><path d="M292.7613,275.08386l12.37412,12.37412l-0.05715,0.05715c-8.31084,-0.02789 -16.62223,0.0355 -24.93123,0.18299z" fill="#3b85c6" stroke="none" stroke-width="0"/><path d="" fill="#3b85c6" stroke="none" stroke-width="0"/><path d="M281.53125,286.2511l12.37412,-12.37411l13.64915,13.64915c-8.20764,-0.04552 -16.41609,-0.00132 -24.62253,0.1257z" fill="#3b85c6" stroke="none" stroke-width="0"/><path d="M500.96875,178.2913l-31.24622,31.24622c-0.03795,-8.19679 -0.09088,-16.39348 -0.15826,-24.58997l10.93495,-10.93495c4.52964,0.50636 10.83909,1.0035 16.60599,0.41516z" fill="#3b85c6" stroke="none" stroke-width="0"/><path d="" fill="#3b85c6" stroke="none" stroke-width="0"/><path d="M477.36458,177.08443l3.07816,-3.07815c5.08506,0.57039 12.44023,1.13476 18.74726,0.15534l8.413,8.413l0,24.74823z" fill="#3b85c6" stroke="none" stroke-width="0"/><path d="" fill="#3b85c6" stroke="none" stroke-width="0"/><path d="M488.59463,214.25052l12.37412,12.37411l-31.20002,31.20002c0.02311,-8.2564 0.02996,-16.51287 0.0211,-24.76933z" fill="#3b85c6" stroke="none" stroke-width="0"/><path d="" fill="#3b85c6" stroke="none" stroke-width="0"/><path d="M477.36458,225.41776l12.37412,-12.37411l17.85002,17.85002c-0.02127,8.21666 -0.06258,16.43346 -0.09802,24.65021z" fill="#3b85c6" stroke="none" stroke-width="0"/><path d="" fill="#3b85c6" stroke="none" stroke-width="0"/><path d="M488.59463,258.41719l12.37412,12.37411l-16.21142,16.21142c-5.04687,0.03396 -10.09358,0.08339 -15.13999,0.14829c0.02474,-3.27424 0.04682,-6.54851 0.06628,-9.82281z" fill="#3b85c6" stroke="none" stroke-width="0"/><path d="" fill="#3b85c6" stroke="none" stroke-width="0"/><path d="M477.36458,269.58443l12.37412,-12.37412l17.69191,17.69191c-0.00501,4.0174 -0.00376,8.03475 0.00679,12.05205c-4.23383,-0.0104 -8.46769,-0.00991 -12.70151,0.00147z" fill="#3b85c6" stroke="none" stroke-width="0"/><path d="" fill="#3b85c6" stroke="none" stroke-width="0"/><path d="M206.80208,232.52006l-8.77053,8.77053c-0.56332,-0.0985 -1.14285,-0.14986 -1.73438,-0.14986c-1.63328,0 -3.17511,0.39156 -4.53673,1.08593l-16.80838,-16.80838c0.0631,-8.19707 0.11543,-16.39428 0.15666,-24.59157z" data-paper-data="{&quot;index&quot;:null}" fill="#f2eb61" stroke="none" stroke-width="0"/><path d="" data-paper-data="{&quot;index&quot;:null}" fill="#f2eb61" stroke="none" stroke-width="0"/><path d="M183.19792,233.72694l28.27427,-28.27428c0.03903,8.19941 0.08925,16.39873 0.15031,24.59793l-11.74873,11.74873c-1.11057,-0.42547 -2.31636,-0.65859 -3.5766,-0.65859c-1.6499,0 -3.20647,0.39957 -4.57824,1.10721z" data-paper-data="{&quot;index&quot;:null}" fill="#f2eb61" stroke="none" stroke-width="0"/><path d="" data-paper-data="{&quot;index&quot;:null}" fill="#f2eb61" stroke="none" stroke-width="0"/><path d="M206.80208,184.18672l-12.37412,12.37411l-19.23177,-19.23177c0.0198,-8.24127 0.02803,-16.48258 0.02435,-24.72388z" data-paper-data="{&quot;index&quot;:null}" fill="#f2eb61" stroke="none" stroke-width="0"/><path d="" data-paper-data="{&quot;index&quot;:null}" fill="#f2eb61" stroke="none" stroke-width="0"/><path d="M195.57204,197.76772l-12.37412,-12.37411l28.17638,-28.17639c-0.00623,8.24376 -0.00046,16.48753 0.01696,24.73127z" data-paper-data="{&quot;index&quot;:null}" fill="#f2eb61" stroke="none" stroke-width="0"/><path d="" data-paper-data="{&quot;index&quot;:null}" fill="#f2eb61" stroke="none" stroke-width="0"/><path d="M206.80208,140.02006l-12.37412,12.37411l-19.23839,-19.23838c-0.00451,-1.6416 -0.0095,-3.28319 -0.01498,-4.92479c6.63181,0.07905 13.26468,0.09857 19.89701,0.05858z" data-paper-data="{&quot;index&quot;:null}" fill="#f2eb61" stroke="none" stroke-width="0"/><path d="" data-paper-data="{&quot;index&quot;:null}" fill="#f2eb61" stroke="none" stroke-width="0"/><path d="M195.57204,153.60105l-12.37412,-12.37412l12.94432,-12.94432c5.10217,-0.0357 10.20398,-0.10662 15.30468,-0.21276c-0.01372,3.23058 -0.02554,6.46118 -0.03546,9.69178z" data-paper-data="{&quot;index&quot;:null}" fill="#f2eb61" stroke="none" stroke-width="0"/><path d="" data-paper-data="{&quot;index&quot;:null}" fill="#f2eb61" stroke="none" stroke-width="0"/><path d="M373.09592,241.89546c0.0525,-8.20899 0.09282,-16.41809 0.12096,-24.62726l26.11805,26.11803c-7.85026,-0.11793 -15.70497,-0.04106 -23.55058,0.20948c-0.31842,0 -0.63337,0.01488 -0.94418,0.04399z" data-paper-data="{&quot;index&quot;:null}" fill="#f2eb61" stroke="none" stroke-width="0"/><path d="" data-paper-data="{&quot;index&quot;:null}" fill="#f2eb61" stroke="none" stroke-width="0"/><path d="M409.61044,243.72929c-0.53311,-0.08787 -1.08043,-0.13357 -1.63842,-0.13357c-7.58201,-0.25486 -15.1728,-0.32052 -22.76016,-0.21607l24.6545,-24.6545c-0.06389,8.23762 -0.1071,16.47498 0.03815,24.71007z" data-paper-data="{&quot;index&quot;:null}" fill="#f2eb61" stroke="none" stroke-width="0"/><path d="" data-paper-data="{&quot;index&quot;:null}" fill="#f2eb61" stroke="none" stroke-width="0"/><path d="M403.46875,199.18672l-12.37412,12.37411l-17.83042,-17.83042c0.00489,-8.25684 -0.00253,-16.51369 -0.02228,-24.7705z" data-paper-data="{&quot;index&quot;:null}" fill="#f2eb61" stroke="none" stroke-width="0"/><path d="" data-paper-data="{&quot;index&quot;:null}" fill="#f2eb61" stroke="none" stroke-width="0"/><path d="M392.23869,212.76771l-12.37411,-12.37411l30.10962,-30.10962l0,24.74822z" data-paper-data="{&quot;index&quot;:null}" fill="#f2eb61" stroke="none" stroke-width="0"/><path d="" data-paper-data="{&quot;index&quot;:null}" fill="#f2eb61" stroke="none" stroke-width="0"/><path d="M403.46875,155.02006l-12.37412,12.37412l-17.92219,-17.92219c-0.03934,-8.30131 -0.09114,-16.60254 -0.15539,-24.90362z" data-paper-data="{&quot;index&quot;:null}" fill="#f2eb61" stroke="none" stroke-width="0"/><path d="" data-paper-data="{&quot;index&quot;:null}" fill="#f2eb61" stroke="none" stroke-width="0"/><path d="M392.23869,168.60105l-12.37411,-12.37411l30.10962,-30.10963l0,24.74823z" data-paper-data="{&quot;index&quot;:null}" fill="#f2eb61" stroke="none" stroke-width="0"/><path d="" data-paper-data="{&quot;index&quot;:null}" fill="#f2eb61" stroke="none" stroke-width="0"/></g></g></svg>