<svg version="1.1" xmlns="http://www.w3.org/2000/svg" xmlns:xlink="http://www.w3.org/1999/xlink" width="311.17648" height="306.63006" viewBox="0,0,311.17648,306.63006"><g transform="translate(-5.51523,-117.25002)"><g data-paper-data="{&quot;isPaintingLayer&quot;:true}" fill-rule="nonzero" stroke-linecap="butt" stroke-linejoin="miter" stroke-miterlimit="10" stroke-dasharray="" stroke-dashoffset="0" style="mix-blend-mode: normal"><path d="M111.36638,237.93326z" fill="#f969ec" stroke="#c151b7" stroke-width="2.5"/><path d="M6.76524,373.55764v-66.08489h253.05682v66.08489c0,0 -87.84027,14.68915 -130.79836,14.68915c-41.33137,0 -122.25848,-14.68915 -122.25848,-14.68915z" fill="#db5cd0" stroke="#c151b7" stroke-width="2.5"/><path d="M260.76599,307.49138c0,14.63952 -56.83992,26.50718 -126.9555,26.50718c-70.11558,0 -126.9555,-11.86768 -126.9555,-26.50718c0,-14.63952 56.83992,-26.50718 126.9555,-26.50718c70.11558,0 126.9555,11.86768 126.9555,26.50718z" fill="#f969ec" stroke="#c151b7" stroke-width="2.5"/><path d="M316.69172,423.88009z" fill="#f969ec" stroke="#c151b7" stroke-width="2.5"/><path d="M144.49638,274.11624c3.14174,-0.15454 6.3176,0.04385 9.41969,0.56492c0,0 2.57746,0.44766 3.28409,2.67855c0.31465,0.63461 0.43702,1.24827 0.483,1.57353c0.58051,2.08648 0.54977,4.54939 2.0922,6.00768c0.63203,0.59755 1.7266,0.27092 2.55131,0.54731c4.85925,1.62845 7.74404,2.36395 9.43653,8.34771c4.15286,14.68221 -19.0658,16.53583 -27.14594,10.81319c-7.30588,-5.17427 -5.77302,-16.31934 -6.19965,-24.09213c0,0 -0.04037,-0.73541 0.22274,-1.60361c-0.20882,-2.01025 0.8917,-3.13326 1.86802,-3.72543c0.46512,-0.30796 0.99722,-0.52525 1.57238,-0.6252zM147.40507,293.07828c0.16305,1.59869 0.26347,3.72702 1.89697,4.71954c3.00175,1.82384 7.63736,0.83296 10.84621,0.82174c1.54671,-0.00542 4.5272,0.31402 3.58216,-2.69544c-1.08477,-3.4544 -7.36866,-2.77913 -9.57828,-4.87863c-1.3003,-1.23549 -2.96651,-5.75026 -3.96701,-8.51918c-1.11991,-0.11986 -2.24741,-0.18101 -3.37301,-0.18048c0.15064,3.57708 0.23144,7.18784 0.59295,10.73247z" fill="#000000" stroke="none" stroke-width="0.5"/><path d="M146.75176,282.28888c1.1256,-0.00053 2.26792,0.04818 3.38783,0.16805c1.0005,2.76894 2.78593,7.31488 4.08623,8.55036c2.20961,2.0995 8.48916,1.5081 9.57391,4.96248c0.94505,3.00945 -2.06295,2.71609 -3.60967,2.72149c-3.20885,0.01121 -7.93895,0.99454 -10.9407,-0.8293c-1.6335,-0.99251 -1.75996,-3.15866 -1.92301,-4.75735c-0.36151,-3.54462 -0.42395,-7.23868 -0.5746,-10.81574z" data-paper-data="{&quot;noHover&quot;:false,&quot;origItem&quot;:[&quot;Path&quot;,{&quot;applyMatrix&quot;:true,&quot;segments&quot;:[[[474.89993,450.30982],[-0.20872,-4.45591],[0.09414,2.0097]],[[476.9475,456.33983],[-1.97393,-1.3528],[3.62734,2.48593]],[[490.4499,458.11125],[-4.01214,-0.20614],[1.93391,0.09936]],[[495.11287,454.98748],[0.97491,3.82694],[-1.11904,-4.39274]],[[483.47386,448.23155],[2.61818,2.77618],[-1.54072,-1.63369]],[[479.09924,437.30959],[1.06073,3.53007],[-1.39176,-0.22668]],[[474.89505,436.85255],[1.40713,0.07657],[-0.05711,4.48202]]],&quot;closed&quot;:true}]}" fill="#635c5e" stroke="none" stroke-width="0.5"/><path d="M109.93527,273.37343c3.14548,0.01788 6.3057,0.39001 9.37457,1.08028c0,0 2.54904,0.58824 3.13238,2.8545c0.2794,0.65089 0.36796,1.27035 0.39603,1.59764c0.4653,2.11515 0.29962,4.57268 1.75981,6.1133c0.59833,0.63129 1.70917,0.36514 2.51749,0.68629c4.7627,1.89231 7.60284,2.78478 8.96488,8.8523c3.34198,14.88774 -19.94336,15.46613 -27.69775,9.30928c-7.01134,-5.56689 -4.87002,-16.6112 -4.87002,-24.39567c0,0 0,-0.73652 0.31028,-1.58899c-0.09836,-2.01867 1.06207,-3.07968 2.06939,-3.61747c0.4813,-0.282 1.02451,-0.46982 1.60428,-0.53809zM111.80041,292.46643c0.07519,1.60522 0.05882,3.73587 1.63546,4.81639c2.89729,1.9856 7.58023,1.25025 10.78488,1.4149c1.5447,0.07936 4.50319,0.56166 3.72448,-2.49507c-0.89382,-3.50865 -7.20527,-3.17879 -9.29651,-5.39623c-1.23063,-1.3049 -2.64694,-5.90419 -3.49418,-8.72379c-1.11165,-0.18106 -2.23412,-0.30389 -3.35804,-0.36506c-0.04562,3.57996 -0.16281,7.18973 0.0039,10.74883z" fill="#000000" stroke="none" stroke-width="0.5"/><path d="M111.73933,281.65743c1.12394,0.06117 2.26187,0.1724 3.37352,0.35346c0.84725,2.81959 2.38088,7.45656 3.61151,8.76145c2.09124,2.21744 8.39375,1.97105 9.28757,5.47971c0.77869,3.05672 -2.2087,2.59895 -3.75338,2.51959c-3.20465,-0.16465 -7.98152,0.55798 -10.87881,-1.42763c-1.57666,-1.08053 -1.5842,-3.25037 -1.65939,-4.85559c-0.16671,-3.5591 -0.02663,-7.25102 0.01899,-10.83098z" data-paper-data="{&quot;noHover&quot;:false,&quot;origItem&quot;:[&quot;Path&quot;,{&quot;applyMatrix&quot;:true,&quot;segments&quot;:[[[237.44997,225.15491],[-0.10436,-2.22795],[0.04707,1.00485]],[[238.47375,228.16991],[-0.98697,-0.6764],[1.81367,1.24296]],[[245.22495,229.05563],[-2.00607,-0.10307],[0.96696,0.04968]],[[247.55643,227.49374],[0.48745,1.91347],[-0.55952,-2.19637]],[[241.73693,224.11577],[1.30909,1.38809],[-0.77036,-0.81685]],[[239.54962,218.65479],[0.53037,1.76503],[-0.69588,-0.11334]],[[237.44753,218.42628],[0.70357,0.03829],[-0.02856,2.24101]]],&quot;closed&quot;:true}]}" fill="#635c5e" stroke="none" stroke-width="0.5"/><path d="M197.36725,193.74549c6.21997,9.30001 7.52772,20.95951 11.21502,31.23759c1.38252,3.85369 2.64376,7.12179 3.2255,11.26781c2.49315,7.37961 3.88744,14.72899 3.71584,22.52053c-0.08685,3.94367 0.60581,6.60991 -3.71485,9.04836c-3.53451,1.99477 -7.81613,1.02417 -10.65692,-1.56179c-1.1118,-1.01207 -1.46693,-2.6252 -2.16517,-3.95666c-0.53001,-1.01069 -1.28381,-1.95194 -1.58557,-3.04468c-1.37409,0.90002 -2.92175,1.95418 -4.5167,1.72818c-2.12376,-0.30092 -4.05679,-1.75654 -5.49593,-3.34708c-4.58794,-5.07065 -0.48469,-14.48936 0.36823,-20.12029c-1.04179,-6.87777 -4.16563,-12.76126 -7.37992,-18.66095c-0.98459,-1.80716 -1.25105,-4.06695 -2.65012,-5.57623c-1.87635,-2.02413 -3.59355,-1.92715 -5.37504,-4.37577c-2.38358,-3.27622 -3.18121,-7.99685 -3.74258,-11.87926c-1.1133,-7.69945 0.43785,-22.0895 1.14827,-19.28689c2.27064,2.86713 16.34694,4.6641 19.17334,6.97698c0,0 6.33375,5.88598 8.43662,9.03015z" data-paper-data="{&quot;index&quot;:null}" fill="#635c5e" stroke="#000000" stroke-width="5"/><path d="M88.62037,178.83217c0.71041,-2.80261 3.67086,-2.30922 3.67086,-2.30922l4.60928,1.18768c6.40086,5.4592 5.41308,11.89241 4.29978,19.59188c-0.56139,3.88241 -1.359,8.60303 -3.74258,11.87925c-1.78149,2.44864 -3.4987,2.35166 -5.37504,4.37579c-1.39907,1.50926 -1.66553,3.76905 -2.65012,5.57621c-3.2143,5.89969 -6.33813,11.78321 -7.37992,18.66097c0.85294,5.63093 4.95619,15.04963 0.36825,20.12029c-1.43912,1.59054 -3.37216,3.04616 -5.49593,3.34708c-1.59497,0.22598 -3.1426,-0.82816 -4.5167,-1.72818c-0.30175,1.09274 -1.05556,2.03399 -1.58557,3.04468c-0.69824,1.33146 -1.05338,2.94461 -2.16517,3.95668c-2.84078,2.58596 -7.12241,3.55656 -10.65692,1.56179c-4.32066,-2.43845 -3.628,-5.10469 -3.71485,-9.04836c-0.1716,-7.79155 1.22269,-15.14094 3.71584,-22.52053c0.58174,-4.14603 1.84298,-7.41413 3.2255,-11.26781c3.68729,-10.27808 4.99505,-21.93757 11.21502,-31.23758c2.10285,-3.14417 5.50081,-6.62775 8.43662,-9.03017c2.8264,-2.31287 5.47105,-3.29329 7.74171,-6.16043z" fill="#635c5e" stroke="#000000" stroke-width="5"/><path d="M176.52997,192.23117c0,44.06458 4.26306,85.50766 -27.33702,85.50766c-11.56672,0 -43.39038,2.38374 -50.87896,-4.00959c-12.97012,-11.07311 -5.06657,-48.47669 -5.06657,-76.41211c0,-17.22525 -6.9646,-32.61986 -5.04213,-48.85512c0.92537,-7.81476 15.27887,-24.02697 32.46409,-28.71198c11.50657,-3.13692 24.98408,2.05057 33.94546,6.66488c20.97924,10.80244 21.91512,52.83627 21.91512,65.81626z" fill="#635c5e" stroke="#000000" stroke-width="5"/><path d="M104.29264,174.10969c0,-15.902 12.89111,-28.7931 28.7931,-28.7931c15.902,0 28.7931,12.89111 28.7931,28.7931c0,15.902 -12.89111,28.7931 -28.7931,28.7931c-15.902,0 -28.7931,-12.89111 -28.7931,-28.7931z" fill="#fc6fb4" stroke="#000000" stroke-width="5"/><path d="M137.91825,174.02391c0,5.59276 -2.4828,10.12659 -5.54551,10.12659c-3.0627,0 -5.54551,-4.53383 -5.54551,-10.12659c0,-5.59276 2.4828,-10.12658 5.54551,-10.12658c3.0627,0 5.54551,4.53381 5.54551,10.12658z" fill="#000000" stroke="none" stroke-width="0"/><path d="M153.13892,173.81357c0,5.59276 -2.48281,10.12659 -5.54553,10.12659c-3.0627,0 -5.54551,-4.53383 -5.54551,-10.12659c0,-5.59276 2.4828,-10.12658 5.54551,-10.12658c3.06271,0 5.54553,4.53381 5.54553,10.12658z" fill="#000000" stroke="none" stroke-width="0"/></g></g></svg>