<svg version="1.1" xmlns="http://www.w3.org/2000/svg" xmlns:xlink="http://www.w3.org/1999/xlink" width="664.26679" height="504.81143" viewBox="0,0,664.26679,504.81143"><g transform="translate(63.19891,140.63681)"><g data-paper-data="{&quot;isPaintingLayer&quot;:true}" fill-rule="nonzero" stroke-linecap="butt" stroke-linejoin="miter" stroke-miterlimit="10" stroke-dasharray="" stroke-dashoffset="0" style="mix-blend-mode: normal"><path d="M-40.23087,215.3624v-354.2492h541.52157v354.24921z" fill="#aefff5" stroke="#000000" stroke-width="3.5"/><path d="M333.77872,205.60202c0,34.13623 -51.62851,61.8091 -115.3155,61.8091c-12.0094,0 -51.08669,-0.46642 -74.89921,-11.90045c-28.12213,-13.50337 -40.41628,-39.02622 -40.41628,-49.90865c0,-34.13623 51.6285,-61.80911 115.3155,-61.80911c63.68699,0 115.3155,27.67288 115.3155,61.80911z" fill="#ffffff" stroke="#ebebeb" stroke-width="3.5"/><path d="M412.58064,246.58045c0,34.13623 -51.62851,61.8091 -115.31549,61.8091c-63.68699,0 -115.3155,-27.67288 -115.3155,-61.8091c0,-34.13623 51.62851,-61.8091 115.3155,-61.8091c63.68699,0 115.3155,27.67288 115.3155,61.8091z" fill="#ffffff" stroke="#ebebeb" stroke-width="3.5"/><path d="M599.31786,213.75697c0,34.13623 -51.62851,61.8091 -115.31549,61.8091c-63.68699,0 -115.31549,-27.67288 -115.31549,-61.8091c0,-34.13623 51.62851,-61.8091 115.3155,-61.8091c63.68699,0 115.3155,27.67288 115.3155,61.8091z" fill="#ffffff" stroke="#ebebeb" stroke-width="3.5"/><path d="M169.18207,213.51735c0,34.13623 -51.6285,61.8091 -115.31549,61.8091c-63.68699,0 -115.31549,-27.67288 -115.31549,-61.8091c0,-34.13623 51.62851,-61.8091 115.3155,-61.8091c63.68699,0 115.3155,27.67288 115.3155,61.8091z" fill="#ffffff" stroke="#ebebeb" stroke-width="3.5"/><path d="M141.1375,164.39631c8.31144,0 15.04919,4.446 15.04919,9.93042c0,5.48442 -6.73775,9.93042 -15.04919,9.93042c-8.31144,0 -15.04919,-4.446 -15.04919,-9.93042c0,-5.48442 6.73775,-9.93042 15.04919,-9.93042z" fill="#ffffff" stroke="none" stroke-width="0"/><path d="M327.18135,189.38424c0,4.03608 -5.09806,7.30798 -11.38685,7.30798c-6.28878,0 -11.38685,-3.27189 -11.38685,-7.30798c0,-4.03608 5.09806,-7.30798 11.38685,-7.30798c6.28878,0 11.38685,3.27189 11.38685,7.30798z" fill="#ffffff" stroke="none" stroke-width="0"/><path d="M374.55874,205.58126c0,3.10895 -2.72745,5.62926 -6.09193,5.62926c-3.36448,0 -6.09193,-2.5203 -6.09193,-5.62926c0,-3.10895 2.72745,-5.62926 6.09193,-5.62926c3.36448,0 6.09193,2.5203 6.09193,5.62926z" fill="#ffffff" stroke="none" stroke-width="0"/><path d="M362.50824,275.80066v-68.0359h66.023v68.0359z" fill="#ffffff" stroke="none" stroke-width="0"/><path d="M178.12692,266.13876v-86.15197h132.85117v86.15197z" fill="#ffffff" stroke="none" stroke-width="0"/><path d="M142.69995,264.93102v-89.77518h51.53015v89.77518z" fill="#ffffff" stroke="none" stroke-width="0"/><path d="M-16.82128,364.17463v-29.33151h523.19236v29.33151z" fill="#ffa0a0" stroke="none" stroke-width="0"/><path d="M-12.50341,335.75035v-29.33151h523.19236v29.33151z" fill="#ffe4a1" stroke="none" stroke-width="0"/><path d="M-14.32469,306.64394v-29.33151h523.19236v29.33151z" fill="#fffea1" stroke="none" stroke-width="0"/><path d="M-11.37107,279.58391v-29.33152c0,0 109.83613,-6.53772 196.19172,-8.90752c19.11562,-0.52457 37.0807,-0.84492 52.4492,-0.84492c89.36164,0 274.55144,9.75244 274.55144,9.75244v29.33152z" fill="#bcffa1" stroke="none" stroke-width="0"/><path d="M-11.8281,251.84176v-29.33152c0,0 162.41112,-15.75394 247.22248,-15.75394c89.34944,0 275.96988,15.75394 275.96988,15.75394v29.33152c0,0 -176.37663,0 -263.96688,0c-86.80003,0 -259.22547,0 -259.22547,0z" fill="#a1c7ff" stroke="none" stroke-width="0"/></g></g></svg>