<svg version="1.1" xmlns="http://www.w3.org/2000/svg" xmlns:xlink="http://www.w3.org/1999/xlink" width="896.99999" height="600" viewBox="0,0,896.99999,600"><g transform="translate(188.49998,234)"><g data-paper-data="{&quot;isPaintingLayer&quot;:true}" fill-rule="nonzero" stroke-linecap="butt" stroke-linejoin="miter" stroke-miterlimit="10" stroke-dasharray="" stroke-dashoffset="0" style="mix-blend-mode: normal"><path d="M283.56192,161v-60h76v60z" fill="#ff76ca" stroke="#cb067f" stroke-width="2"/><path d="M283.52816,158.01023v-39.61585h64.22569v39.61585z" fill="#cb067f" stroke="none" stroke-width="0"/><path d="M220.50002,186v-33h140v33h-86.73747c-7.80935,-0.18682 -15.62538,-0.18004 -23.43515,0z" fill="#4ba7fa" stroke="#3b85c6" stroke-width="2"/><path d="M346.50002,186.03246v-30.03246h106v30.03246z" fill="#ffae66" stroke="#dd9859" stroke-width="2"/><path d="M55.50001,78v-60h76v60z" data-paper-data="{&quot;index&quot;:null}" fill="#ff76ca" stroke="#cb067f" stroke-width="2"/><path d="M528.03581,282.84527v-35h100.69053v35z" fill="#ffae66" stroke="#dd9859" stroke-width="2"/><path d="M-187.49998,-193v-40h136v40z" fill="#fff866" stroke="#f2eb61" stroke-width="2"/><path d="M37.50001,-162v-48h188v48z" fill="#4ba7fa" stroke="#3b85c6" stroke-width="2"/><path d="M469.50002,40v-35h130v35h-6.14047c-1.31099,-0.28039 -2.92201,-0.17914 -4.46957,0z" fill="#ffae66" stroke="#dd9859" stroke-width="2"/><path d="M576.50001,365v-46h131v46z" fill="#ffae66" stroke="#dd9859" stroke-width="2"/><path d="" fill="#cb067f" stroke="none" stroke-width="0"/><path d="" data-paper-data="{&quot;index&quot;:null}" fill="#cb067f" stroke="none" stroke-width="0"/><path d="" data-paper-data="{&quot;index&quot;:null}" fill="#cb067f" stroke="none" stroke-width="0"/><path d="M56.03716,73.37638v-43.81753h75.63025v43.81753z" fill="#cb067f" stroke="none" stroke-width="0"/><path d="M566.66298,4.50327c5.76184,-0.03785 11.52362,-0.08213 17.28531,-0.13284l5.76881,35.54332c-1.8471,0.16825 -3.69558,0.52152 -4.94052,0.55428c-3.29264,0.08665 -8.07331,-0.47791 -12.25077,0.1578z" data-paper-data="{&quot;index&quot;:null}" fill="#dd9859" stroke="none" stroke-width="0"/><path d="M545.93823,41.05291c-5.77318,-0.03825 -11.54648,-0.06496 -17.31982,-0.07976l-5.89258,-36.30591c5.76709,-0.00516 11.53417,-0.01677 17.30122,-0.03481z" data-paper-data="{&quot;index&quot;:null}" fill="#dd9859" stroke="none" stroke-width="0"/><path d="M500.79365,40.99553c-5.76308,0.02435 -11.52607,0.06115 -17.28891,0.11075l-5.92899,-36.53024c5.7725,0.02849 11.54504,0.05052 17.31761,0.0661z" data-paper-data="{&quot;index&quot;:null}" fill="#dd9859" stroke="none" stroke-width="0"/><path d="" data-paper-data="{&quot;index&quot;:null}" fill="#cb067f" stroke="none" stroke-width="0"/><path d="M384.75349,155.1514c5.75891,0.07885 11.51824,0.1389 17.27777,0.17938l-5.2247,32.19088c-5.77457,0.01758 -11.54906,0.0512 -17.32334,0.1014z" fill="#dd9859" stroke="none" stroke-width="0"/><path d="M428.68091,155.37549c5.77614,-0.02183 11.55215,-0.06456 17.32782,-0.12898l-5.26548,32.44216c-5.76139,-0.06021 -11.52302,-0.10579 -17.28477,-0.13623z" fill="#dd9859" stroke="none" stroke-width="0"/><path d="M344.50003,186.03246v-251.03246h20v251.03246z" fill="#4ba7fa" stroke="#3b85c6" stroke-width="2"/><path d="M590.50001,192v-392h46v392z" fill="#4ba7fa" stroke="#3b85c6" stroke-width="2"/><path d="M55.50001,103v-33h112.04026c5.10418,0.53662 12.07672,0.97941 18.05121,0h9.90853v33z" data-paper-data="{&quot;index&quot;:null}" fill="#4ba7fa" stroke="#3b85c6" stroke-width="2"/><path d="M162.08097,69.34396c3.58793,0.44558 12.10008,1.6713 19.92462,1.07647l-18.16535,33.30314c-6.81239,-0.0492 -13.62561,-0.15496 -20.43701,-0.1371z" fill="#3b85c6" stroke="none" stroke-width="0"/><path d="M227.51456,152.38739c0.06562,0.00127 0.13139,0.00191 0.19732,0.00191c1.11745,0 2.19209,-0.18329 3.1955,-0.52144c5.65203,0.17956 11.30861,0.25598 16.96485,0.23697l18.42267,33.77488c-6.79447,-0.05696 -13.59086,0.02762 -20.38069,0.24035z" data-paper-data="{&quot;index&quot;:null}" fill="#3b85c6" stroke="none" stroke-width="0"/><path d="M308.50002,-55v-30h24.97064c37.03101,0.17441 74.06325,0.17441 111.09427,0h15.9351v30z" fill="#ffae66" stroke="#dd9859" stroke-width="2"/><path d="M321.79273,-85.06078c5.76428,0.03286 11.52859,0.06149 17.29293,0.08589l-4.91212,30.26498c-5.77394,0.01886 -11.54783,0.04898 -17.32159,0.09067z" fill="#dd9859" stroke="none" stroke-width="0"/><path d="M365.72917,-84.89218c5.76779,0.01139 11.53559,0.01855 17.3034,0.02147l-4.90638,30.22967c-5.76471,-0.03622 -11.52953,-0.06201 -17.29438,-0.07705z" fill="#dd9859" stroke="none" stroke-width="0"/><path d="M423.28892,-54.81043c-5.77588,0.03034 -11.55166,0.07235 -17.32728,0.12569l4.90233,-30.20468c5.7714,-0.01069 11.54279,-0.02562 17.31415,-0.04478z" fill="#dd9859" stroke="none" stroke-width="0"/><path d="M449.87636,-54.86627l4.89934,-30.18624c2.07794,-0.01159 4.15588,-0.02372 6.23382,-0.03641c-0.17164,10.08276 -0.10553,20.17148 0.17004,30.25081c-3.76771,-0.01466 -7.53544,-0.02402 -11.3032,-0.02817z" fill="#dd9859" stroke="none" stroke-width="0"/><path d="M248.40077,63.87966v-45.37558h26.26132v45.37558z" data-paper-data="{&quot;index&quot;:null}" fill="#68e9fa" stroke="#3b85c6" stroke-width="2.5"/><path d="M260.53651,16.68208v-5.1193h3.30004v5.1193z" data-paper-data="{&quot;index&quot;:null}" fill="#3b85c6" stroke="#3b85c6" stroke-width="2.5"/><path d="M278.71751,5.60177c8.85977,0 16.04203,2.07282 16.04203,4.62978c0,2.55696 -7.18226,4.62978 -16.04203,4.62978c-8.85977,0 -16.04203,-4.62978 -16.04203,-4.62978c0,0 7.18226,-4.62978 16.04203,-4.62978z" data-paper-data="{&quot;index&quot;:null}" fill="#a9f1fa" stroke="#3b85c6" stroke-width="2.5"/><path d="M262.79343,10.29052c0,0 -7.18227,4.62978 -16.04203,4.62978c-8.85977,0 -16.04203,-2.07282 -16.04203,-4.62978c0,-2.55695 7.18226,-4.62978 16.04203,-4.62978c8.85977,0 16.04203,4.62978 16.04203,4.62978z" data-paper-data="{&quot;index&quot;:null}" fill="#a9f1fa" stroke="#3b85c6" stroke-width="2.5"/><path d="M254.34992,40.32747l10.71567,-13.48572l3.54094,2.81361l-10.71567,13.48572z" data-paper-data="{&quot;index&quot;:null}" fill="#3b85c6" stroke="none" stroke-width="2.5"/><path d="M258.08332,37.42676l10.71568,13.48572l-3.54094,2.81362l-10.71568,-13.48572z" data-paper-data="{&quot;index&quot;:null}" fill="#3b85c6" stroke="none" stroke-width="2.5"/></g></g></svg>