<svg version="1.1" xmlns="http://www.w3.org/2000/svg" xmlns:xlink="http://www.w3.org/1999/xlink" width="40.66667" height="40.66666" viewBox="0,0,40.66667,40.66666"><g transform="translate(-219.66667,-159.66667)"><g data-paper-data="{&quot;isPaintingLayer&quot;:true}" fill-rule="nonzero" stroke-linecap="butt" stroke-linejoin="miter" stroke-miterlimit="10" stroke-dasharray="" stroke-dashoffset="0" style="mix-blend-mode: normal"><path d="M222.16667,197.83333v-35.66666h35.66667v35.66666z" fill="none" stroke="#ffffff" stroke-width="5"/><path d="M247.99418,176.90015l1.375,1.25l0.07507,0.11261l0.11177,0.07633l1,1.125l0.15284,0.29238l0.21471,0.25049l0.42705,0.8541l0.02438,0.01393l0.01742,0.06966l0.03115,0.06231l0.12461,0.56075l0.13932,0.55728l0,0.06966l0.01558,0.07009l-0.01558,0.02336l0,1.58688l-0.05068,0.20271l0.01666,0.20829l-0.125,0.75l-0.10815,0.24874l-0.03665,0.26874l-0.25,0.625l-0.0346,0.04791l-0.01068,0.05812l-0.62065,1.36544l-0.99573,2.2404l-0.03583,0.04587l-0.01263,0.05682l-0.375,0.75l-0.13284,0.15498l-0.00692,0.12453l-0.37626,0.32251l-0.32251,0.37626l-0.12453,0.00692l-0.15498,0.13284l-0.3541,0.17705l-0.01393,0.02438l-0.06966,0.01742l-0.06231,0.03115l-0.56075,0.12461l-0.55728,0.13932h-0.06966l-0.07009,0.01558l-0.02336,-0.01558l-0.67376,0l-0.02336,0.01558l-0.07009,-0.01558h-0.06966l-0.55728,-0.13932l-0.56075,-0.12461l-0.06231,-0.03115l-0.06966,-0.01742l-0.01393,-0.02438l-0.10864,-0.05432l-0.23376,-0.05844l-0.01254,-0.00669l-0.04404,0.01201l-0.53244,-0.31946l-0.54787,-0.2922l-0.01236,-0.04394l-0.01218,-0.00731l-0.375,-0.375l-0.20676,-0.34461l-0.26154,-0.30513l-0.25,-0.5l-0.02301,-0.10356l-0.06211,-0.086l-0.25,-0.625l-0.06397,-0.46914l-0.11484,-0.45934v-2.33715c-0.14748,0.26751 -0.29025,0.52701 -0.42496,0.77724c-0.5552,1.0313 -1.94616,4.39649 -3.17093,4.73052c-8.44788,2.30397 0.95847,-10.51513 1.13283,-12.37614c0.00447,-0.04775 -0.07899,0.0548 -0.12137,0.07724c-0.46077,0.24399 -1.13243,0.60438 -1.77169,0.85184c-0.34278,0.17669 -0.73168,0.27646 -1.14388,0.27646c-1.38071,0 -2.5,-1.11929 -2.5,-2.5c0,-1.01211 0.60144,-1.88374 1.46641,-2.277c2.48339,-2.19054 7.17634,-2.62696 8.72978,0.59853c0.00511,0.01062 0.01019,0.02124 0.01522,0.03187l0.91359,-0.2284h0.75l0.29857,0.07464h0.30776l0.5,0.125l0.24293,0.12956l0.26876,0.05973l1,0.5l0.26091,0.22363zM246.1682,182.43509l-0.03368,0.08701l0.00444,0.09319l-0.20145,1.00726l0,1.91093l0.57522,-1.26549l0.12822,-0.32055l0.04656,-0.27934v-0.95292l-0.0882,-0.17639l-0.38932,-0.43799z" fill="#ff0000" stroke="none" stroke-width="0.5"/></g></g></svg>