<svg version="1.1" xmlns="http://www.w3.org/2000/svg" xmlns:xlink="http://www.w3.org/1999/xlink" width="40.66667" height="40.66666" viewBox="0,0,40.66667,40.66666"><g transform="translate(-219.66667,-159.66667)"><g data-paper-data="{&quot;isPaintingLayer&quot;:true}" fill-rule="nonzero" stroke-linecap="butt" stroke-linejoin="miter" stroke-miterlimit="10" stroke-dasharray="" stroke-dashoffset="0" style="mix-blend-mode: normal"><path d="M222.16667,197.83333v-35.66666h35.66667v35.66666z" fill="none" stroke="#ffffff" stroke-width="5"/><path d="M240.314,175.875c-1.16688,0.34212 -0.63612,2.34734 -0.96091,3.51916c-0.68005,2.45357 -2.22252,7.91189 -5.04059,8.91834c-1.78709,0.63825 -8.26682,-1.10818 -5.3125,-4.0625c0.59384,-0.59384 1.37495,-1.03772 2.1875,-1.25c0.33842,-0.08842 0.63953,0.71149 0.9207,0.50343c0.76975,-0.5696 1.14924,-1.76227 1.42293,-2.6231c0.06734,-0.21181 -0.43459,-0.09358 -0.65091,-0.14465c-0.89878,-0.21217 -1.36169,-0.53579 -2.03903,-1.21314c-0.99872,-0.99872 -0.94979,-3.10664 -0.59988,-4.32602c0.9221,-3.21333 4.86688,-4.14953 7.69804,-4.29073c1.38292,-0.06897 3.45501,-0.88753 4.14199,0.31467c0.73685,0.43488 1.23117,1.23698 1.23117,2.15454c0,1.38071 -1.11929,2.5 -2.5,2.5c-0.13504,0 -0.26758,-0.01071 -0.39682,-0.03132c-0.03378,0.01091 -0.06768,0.02135 -0.10169,0.03132z" fill="#ff0000" stroke="none" stroke-width="0.5"/></g></g></svg>