<svg version="1.1" xmlns="http://www.w3.org/2000/svg" xmlns:xlink="http://www.w3.org/1999/xlink" width="673.85058" height="366.58929" viewBox="0,0,673.85058,366.58929"><g transform="translate(81.5,4.6875)"><g data-paper-data="{&quot;isPaintingLayer&quot;:true}" fill="#ffffff" fill-rule="nonzero" stroke="none" stroke-width="0" stroke-linecap="butt" stroke-linejoin="miter" stroke-miterlimit="10" stroke-dasharray="" stroke-dashoffset="0" style="mix-blend-mode: normal"><path d="M-6.5,82.3125v-87h490v87z"/><path d="M-2.5,361.90179l15.11186,-51.98481v-0.60447l18.73871,52.58929z"/><path d="M34.5,360.90179l15.11186,-51.98481v-0.60447l18.73871,52.58929z"/><path d="M72.5,361.90179l15.11186,-51.98481v-0.60447l18.73871,52.58929z"/><path d="M109.5,360.90179l15.11186,-51.98481v-0.60447l18.73871,52.58929z"/><path d="M146.5,361.90179l15.11186,-51.98481v-0.60447l18.73871,52.58929z"/><path d="M183.5,360.90179l15.11186,-51.98481v-0.60447l18.73871,52.58929z"/><path d="M221.5,361.90179l15.11186,-51.98481v-0.60447l18.73871,52.58929z"/><path d="M258.5,360.90179l15.11186,-51.98481v-0.60447l18.73871,52.58929z"/><path d="M297.5,360.90179l15.11186,-51.98481v-0.60447l18.73871,52.58929z"/><path d="M334.5,359.90179l15.11186,-51.98481v-0.60447l18.73871,52.58929z"/><path d="M372.5,360.90179l15.11186,-51.98481v-0.60447l18.73871,52.58929z"/><path d="M409.5,359.90179l15.11186,-51.98481v-0.60447l18.73871,52.58929z"/><path d="M446.5,360.90179l15.11186,-51.98481v-0.60447l18.73871,52.58929z"/><path d="M483.5,359.90179l15.11186,-51.98481v-0.60447l18.73871,52.58929z"/><path d="M521.5,360.90179l15.11187,-51.98481v-0.60447l18.73871,52.58929z"/><path d="M558.5,359.90179l15.11187,-51.98481v-0.60447l18.73871,52.58929z"/><path d="M513.35057,72.3125l-15.11186,51.98481v0.60447l-18.73871,-52.58929z"/><path d="M476.35057,73.3125l-15.11186,51.98481v0.60448l-18.73871,-52.58929z"/><path d="M438.35057,72.3125l-15.11187,51.98481l0,0.60448l-18.73871,-52.58929z"/><path d="M401.35057,73.3125l-15.11187,51.98481l0,0.60447l-18.73871,-52.58929z"/><path d="M364.35057,72.3125l-15.11186,51.98481v0.60447l-18.73871,-52.58929z"/><path d="M327.35058,73.3125l-15.11187,51.98481l0,0.60447l-18.73871,-52.58929z"/><path d="M289.35057,72.3125l-15.11186,51.98481v0.60448l-18.73871,-52.58929z"/><path d="M252.35058,73.3125l-15.11187,51.98481v0.60447l-18.73871,-52.58929z"/><path d="M213.35057,73.3125l-15.11186,51.98481v0.60448l-18.73871,-52.58929z"/><path d="M176.35057,74.3125l-15.11187,51.98481l0,0.60447l-18.73871,-52.58929z"/><path d="M138.35057,73.3125l-15.11187,51.98481l0,0.60448l-18.73871,-52.58929z"/><path d="M101.35057,74.3125l-15.11186,51.98481l0,0.60448l-18.73871,-52.58929z"/><path d="M64.35058,73.3125l-15.11186,51.98481v0.60448l-18.73871,-52.58929z"/><path d="M27.35057,74.3125l-15.11187,51.98481l0,0.60447l-18.73871,-52.58929z"/><path d="M-10.64943,73.3125l-15.11186,51.98481v0.60447l-18.73871,-52.58929z"/><path d="M-47.64943,74.3125l-15.11186,51.98481l0,0.60447l-18.73871,-52.58929z"/></g></g></svg>