<svg version="1.1" xmlns="http://www.w3.org/2000/svg" xmlns:xlink="http://www.w3.org/1999/xlink" width="100.01074" height="120.12453" viewBox="0,0,100.01074,120.12453"><g transform="translate(-189.359,-118.98742)"><g data-paper-data="{&quot;isPaintingLayer&quot;:true}" fill-rule="nonzero" stroke-linecap="butt" stroke-linejoin="miter" stroke-miterlimit="10" stroke-dasharray="" stroke-dashoffset="0" style="mix-blend-mode: normal"><path d="M246.00429,218.11871c1.96669,-0.09674 3.95474,0.02745 5.89661,0.35363c0,0 1.61346,0.28023 2.0558,1.67674c0.19697,0.39726 0.27357,0.7814 0.30235,0.98501c0.36339,1.30611 0.34415,2.84786 1.30969,3.76073c0.39564,0.37406 1.08083,0.16959 1.59709,0.34261c3.04183,1.01939 4.84767,1.4798 5.90715,5.22556c2.59964,9.19088 -11.93495,10.35122 -16.99302,6.76892c-4.57339,-3.23903 -3.61384,-10.2157 -3.8809,-15.08137c0,0 -0.02527,-0.46036 0.13943,-1.00384c-0.13072,-1.25839 0.55819,-1.96138 1.16936,-2.33207c0.29116,-0.19278 0.62425,-0.3288 0.98429,-0.39137zM247.82509,229.98871c0.10207,1.00076 0.16493,2.33307 1.18748,2.95437c1.87906,1.1417 4.78089,0.52142 6.78959,0.5144c0.96822,-0.00339 2.83397,0.19657 2.24239,-1.68731c-0.67905,-2.16241 -4.61269,-1.7397 -5.99588,-3.05396c-0.81397,-0.7734 -1.857,-3.59959 -2.4833,-5.3329c-0.70105,-0.07503 -1.40685,-0.11331 -2.11146,-0.11298c0.0943,2.23921 0.14488,4.4995 0.37118,6.71839z" fill="#000000" stroke="none" stroke-width="0.5"/><path d="M247.41613,223.23468c0.70461,-0.00033 1.41969,0.03016 2.12074,0.1052c0.6263,1.73332 1.74396,4.57902 2.55793,5.35242c1.38319,1.31426 5.31411,0.94405 5.99315,3.10645c0.59159,1.88388 -1.29138,1.70024 -2.25961,1.70362c-2.0087,0.00702 -4.96968,0.62257 -6.84874,-0.51913c-1.02255,-0.6213 -1.10171,-1.97728 -1.20378,-2.97804c-0.2263,-2.21889 -0.26539,-4.53132 -0.35969,-6.77052z" data-paper-data="{&quot;noHover&quot;:false,&quot;origItem&quot;:[&quot;Path&quot;,{&quot;applyMatrix&quot;:true,&quot;segments&quot;:[[[474.89993,450.30982],[-0.20872,-4.45591],[0.09414,2.0097]],[[476.9475,456.33983],[-1.97393,-1.3528],[3.62734,2.48593]],[[490.4499,458.11125],[-4.01214,-0.20614],[1.93391,0.09936]],[[495.11287,454.98748],[0.97491,3.82694],[-1.11904,-4.39274]],[[483.47386,448.23155],[2.61818,2.77618],[-1.54072,-1.63369]],[[479.09924,437.30959],[1.06073,3.53007],[-1.39176,-0.22668]],[[474.89505,436.85255],[1.40713,0.07657],[-0.05711,4.48202]]],&quot;closed&quot;:true}]}" fill="#00a769" stroke="none" stroke-width="0.5"/><path d="M224.36947,217.65374c1.96903,0.01119 3.94729,0.24414 5.86836,0.67624c0,0 1.59567,0.36823 1.96083,1.78688c0.1749,0.40745 0.23034,0.79522 0.24791,1.0001c0.29127,1.32406 0.18756,2.86244 1.10162,3.82685c0.37455,0.39518 1.06992,0.22857 1.57592,0.42961c2.98139,1.18456 4.75928,1.74324 5.6119,5.54143c2.09204,9.31954 -12.48429,9.6816 -17.33844,5.82749c-4.38901,-3.4848 -3.04857,-10.3984 -3.04857,-15.27138c0,0 0,-0.46105 0.19423,-0.99469c-0.06157,-1.26366 0.66484,-1.92784 1.29541,-2.26449c0.30129,-0.17653 0.64133,-0.2941 1.00426,-0.33684zM225.53702,229.6057c0.04707,1.00485 0.03682,2.33861 1.02378,3.015c1.81367,1.24296 4.74513,0.78264 6.7512,0.88571c0.96696,0.04968 2.81894,0.35159 2.33148,-1.56188c-0.55952,-2.19637 -4.51041,-1.98988 -5.8195,-3.37797c-0.77036,-0.81685 -1.65695,-3.69595 -2.18731,-5.46098c-0.69588,-0.11334 -1.39853,-0.19023 -2.10209,-0.22852c-0.02856,2.24101 -0.10192,4.50068 0.00244,6.72863z" fill="#000000" stroke="none" stroke-width="0.5"/><path d="M225.49879,222.8394c0.70357,0.03829 1.4159,0.10792 2.11178,0.22126c0.53037,1.76503 1.4904,4.66771 2.26076,5.48456c1.30909,1.38809 5.25438,1.23385 5.8139,3.43023c0.48745,1.91347 -1.38262,1.62691 -2.34957,1.57723c-2.00607,-0.10307 -4.99633,0.34929 -6.81,-0.89368c-0.98697,-0.6764 -0.99169,-2.03469 -1.03876,-3.03954c-0.10436,-2.22795 -0.01667,-4.53905 0.01189,-6.78006z" data-paper-data="{&quot;noHover&quot;:false,&quot;origItem&quot;:[&quot;Path&quot;,{&quot;applyMatrix&quot;:true,&quot;segments&quot;:[[[237.44997,225.15491],[-0.10436,-2.22795],[0.04707,1.00485]],[[238.47375,228.16991],[-0.98697,-0.6764],[1.81367,1.24296]],[[245.22495,229.05563],[-2.00607,-0.10307],[0.96696,0.04968]],[[247.55643,227.49374],[0.48745,1.91347],[-0.55952,-2.19637]],[[241.73693,224.11577],[1.30909,1.38809],[-0.77036,-0.81685]],[[239.54962,218.65479],[0.53037,1.76503],[-0.69588,-0.11334]],[[237.44753,218.42628],[0.70357,0.03829],[-0.02856,2.24101]]],&quot;closed&quot;:true}]}" fill="#00a769" stroke="none" stroke-width="0.5"/><path d="M279.1008,167.80763c3.89362,5.82169 4.71226,13.12039 7.02046,19.55434c0.86544,2.41236 1.65496,4.45815 2.01912,7.05351c1.56068,4.61954 2.43349,9.22016 2.32607,14.09757c-0.05437,2.46869 0.37923,4.13772 -2.32545,5.66416c-2.21256,1.2487 -4.8928,0.64112 -6.6711,-0.97766c-0.69597,-0.63354 -0.91828,-1.64334 -1.35537,-2.47682c-0.33178,-0.63268 -0.80365,-1.22189 -0.99255,-1.90593c-0.86016,0.5634 -1.82898,1.22329 -2.8274,1.08182c-1.32945,-0.18837 -2.5395,-1.09957 -3.44038,-2.09523c-2.87199,-3.17416 -0.30341,-9.07016 0.23051,-12.59505c-0.65215,-4.3054 -2.60763,-7.98839 -4.61974,-11.68152c-0.61634,-1.13126 -0.78314,-2.54586 -1.65894,-3.49065c-1.17457,-1.26708 -2.24952,-1.20637 -3.36471,-2.73918c-1.49209,-2.05087 -1.9914,-5.00593 -2.34281,-7.43627c-0.69691,-4.81976 0.27409,-13.82775 0.7188,-12.07335c1.42139,1.79479 10.23298,2.91967 12.00227,4.3675c0,0 3.96485,3.68455 5.28122,5.65276z" data-paper-data="{&quot;index&quot;:null}" fill="#00a769" stroke="#000000" stroke-width="5"/><path d="M211.02661,158.47209c0.44471,-1.7544 2.29791,-1.44554 2.29791,-1.44554l2.88535,0.74347c4.00686,3.41739 3.38852,7.4445 2.69161,12.26427c-0.35142,2.43034 -0.85072,5.38539 -2.34281,7.43626c-1.11519,1.53282 -2.19014,1.47211 -3.36471,2.73919c-0.8758,0.94478 -1.0426,2.35938 -1.65894,3.49064c-2.01211,3.69313 -3.96759,7.37614 -4.61974,11.68153c0.53393,3.52489 3.10251,9.42088 0.23052,12.59505c-0.90087,0.99566 -2.11093,1.90686 -3.44038,2.09523c-0.99843,0.14146 -1.96723,-0.51842 -2.8274,-1.08182c-0.18889,0.68404 -0.66077,1.27325 -0.99255,1.90593c-0.43709,0.83348 -0.6594,1.84329 -1.35537,2.47683c-1.77829,1.61878 -4.45854,2.22636 -6.6711,0.97766c-2.70468,-1.52644 -2.27108,-3.19547 -2.32545,-5.66416c-0.10742,-4.87741 0.76539,-9.47804 2.32607,-14.09757c0.36416,-2.59536 1.15368,-4.64115 2.01912,-7.05351c2.3082,-6.43395 3.12684,-13.73264 7.02046,-19.55433c1.31636,-1.96821 3.44344,-4.14889 5.28122,-5.65277c1.76929,-1.44783 3.42481,-2.06156 4.84621,-3.85635z" fill="#00a769" stroke="#000000" stroke-width="5"/><path d="M266.05692,166.8597c0,27.58387 2.66862,53.52672 -17.11263,53.52672c-7.24062,0 -27.16183,1.49219 -31.84959,-2.50995c-8.11913,-6.93163 -3.17161,-30.3458 -3.17161,-47.83302c0,-10.78279 -4.35975,-20.41962 -3.15631,-30.58269c0.57927,-4.89194 9.56438,-15.04058 20.32211,-17.97334c7.20297,-1.96367 15.63972,1.28363 21.24943,4.17213c13.13274,6.76219 13.71859,33.07484 13.71859,41.20015z" fill="#00a769" stroke="#000000" stroke-width="5"/><path d="M220.83725,155.51587c0,-9.95445 8.06967,-18.02412 18.02412,-18.02412c9.95445,0 18.02412,8.06967 18.02412,18.02412c0,9.95445 -8.06967,18.02412 -18.02412,18.02412c-9.95445,0 -18.02412,-8.06967 -18.02412,-18.02412z" fill="#ffaa83" stroke="#000000" stroke-width="5"/><path d="M241.88646,155.46217c0,3.501 -1.5542,6.33912 -3.47142,6.33912c-1.91721,0 -3.47142,-2.83812 -3.47142,-6.33912c0,-3.501 1.5542,-6.33911 3.47142,-6.33911c1.91721,0 3.47142,2.83811 3.47142,6.33911z" fill="#000000" stroke="none" stroke-width="0"/><path d="M251.41441,155.3305c0,3.501 -1.55421,6.33912 -3.47143,6.33912c-1.91721,0 -3.47142,-2.83812 -3.47142,-6.33912c0,-3.501 1.5542,-6.33911 3.47142,-6.33911c1.91722,0 3.47143,2.83811 3.47143,6.33911z" fill="#000000" stroke="none" stroke-width="0"/></g></g></svg>