<svg version="1.1" xmlns="http://www.w3.org/2000/svg" xmlns:xlink="http://www.w3.org/1999/xlink" width="253" height="159" viewBox="0,0,253,159"><g transform="translate(-40,-2)"><g data-paper-data="{&quot;isPaintingLayer&quot;:true}" fill-rule="nonzero" stroke-linecap="butt" stroke-linejoin="miter" stroke-miterlimit="10" stroke-dasharray="" stroke-dashoffset="0" style="mix-blend-mode: normal"><path d="M45,156v-149h243v149z" data-paper-data="{&quot;origPos&quot;:null}" fill="#ffffff" stroke="#000000" stroke-width="10"/><path d="M71.9276,37.90223c0.44428,-0.02185 0.89339,0.0062 1.33206,0.07989c0,0 0.36448,0.0633 0.46441,0.37878c0.0445,0.08974 0.0618,0.17652 0.0683,0.22252c0.08209,0.29505 0.07774,0.64334 0.29586,0.84956c0.08938,0.0845 0.24416,0.03831 0.36079,0.0774c0.68716,0.23028 1.0951,0.33429 1.33444,1.18047c0.58727,2.07624 -2.69614,2.33837 -3.83877,1.52912c-1.03314,-0.73171 -0.81638,-2.30775 -0.87671,-3.40692c0,0 -0.00571,-0.104 0.0315,-0.22677c-0.02953,-0.28427 0.1261,-0.44308 0.26416,-0.52682c0.06577,-0.04355 0.14102,-0.07428 0.22235,-0.08841zM72.33892,40.58369c0.02306,0.22607 0.03726,0.52705 0.26825,0.6674c0.42448,0.25791 1.08002,0.11779 1.53379,0.1162c0.21872,-0.00077 0.6402,0.04441 0.50656,-0.38117c-0.1534,-0.48849 -1.04202,-0.393 -1.35448,-0.6899c-0.18388,-0.17471 -0.4195,-0.81316 -0.56098,-1.20472c-0.15837,-0.01695 -0.31781,-0.0256 -0.47698,-0.02552c0.0213,0.50584 0.03273,1.01645 0.08385,1.5177z" fill="#000000" stroke="none" stroke-width="1"/><path d="M72.24654,39.05794c0.15917,-0.00007 0.32071,0.00681 0.47908,0.02376c0.14148,0.39156 0.39396,1.03441 0.57784,1.20913c0.31247,0.29689 1.20047,0.21326 1.35387,0.70175c0.13364,0.42557 -0.29173,0.38409 -0.51045,0.38485c-0.45377,0.00159 -1.12266,0.14064 -1.54715,-0.11727c-0.231,-0.14035 -0.24888,-0.44667 -0.27194,-0.67275c-0.05112,-0.50125 -0.05995,-1.02364 -0.08125,-1.52948z" data-paper-data="{&quot;noHover&quot;:false,&quot;origItem&quot;:[&quot;Path&quot;,{&quot;applyMatrix&quot;:true,&quot;segments&quot;:[[[474.89993,450.30982],[-0.20872,-4.45591],[0.09414,2.0097]],[[476.9475,456.33983],[-1.97393,-1.3528],[3.62734,2.48593]],[[490.4499,458.11125],[-4.01214,-0.20614],[1.93391,0.09936]],[[495.11287,454.98748],[0.97491,3.82694],[-1.11904,-4.39274]],[[483.47386,448.23155],[2.61818,2.77618],[-1.54072,-1.63369]],[[479.09924,437.30959],[1.06073,3.53007],[-1.39176,-0.22668]],[[474.89505,436.85255],[1.40713,0.07657],[-0.05711,4.48202]]],&quot;closed&quot;:true}]}" fill="#ef6dad" stroke="none" stroke-width="1"/><path d="M67.04024,37.79719c0.44481,0.00253 0.8917,0.05515 1.32568,0.15276c0,0 0.36047,0.08318 0.44296,0.40366c0.03951,0.09204 0.05203,0.17964 0.056,0.22593c0.0658,0.29911 0.04237,0.64663 0.24886,0.8645c0.08461,0.08927 0.2417,0.05163 0.356,0.09705c0.6735,0.2676 1.07513,0.3938 1.26774,1.25182c0.4726,2.10531 -2.82023,2.1871 -3.9168,1.31644c-0.99149,-0.78723 -0.68868,-2.34902 -0.68868,-3.44984c0,0 0,-0.10415 0.04388,-0.2247c-0.01391,-0.28546 0.15019,-0.4355 0.29264,-0.51155c0.06806,-0.03988 0.14488,-0.06644 0.22686,-0.07609zM67.30399,40.49717c0.01063,0.227 0.00832,0.5283 0.23127,0.6811c0.40971,0.28079 1.07194,0.1768 1.52511,0.20008c0.21844,0.01122 0.63681,0.07943 0.52669,-0.35283c-0.1264,-0.49617 -1.01891,-0.44952 -1.31464,-0.76309c-0.17403,-0.18453 -0.37431,-0.83492 -0.49412,-1.23365c-0.1572,-0.0256 -0.31593,-0.04297 -0.47487,-0.05162c-0.00645,0.50625 -0.02302,1.01671 0.00055,1.52001z" fill="#000000" stroke="none" stroke-width="1"/><path d="M67.29536,38.96864c0.15894,0.00865 0.31986,0.02438 0.47706,0.04998c0.11981,0.39872 0.33669,1.05445 0.51071,1.23898c0.29573,0.31357 1.18698,0.27873 1.31337,0.7749c0.11012,0.43226 -0.31234,0.36752 -0.53077,0.3563c-0.45318,-0.02328 -1.12868,0.07891 -1.5384,-0.20188c-0.22296,-0.1528 -0.22403,-0.45964 -0.23466,-0.68664c-0.02358,-0.5033 -0.00377,-1.02538 0.00269,-1.53163z" data-paper-data="{&quot;noHover&quot;:false,&quot;origItem&quot;:[&quot;Path&quot;,{&quot;applyMatrix&quot;:true,&quot;segments&quot;:[[[237.44997,225.15491],[-0.10436,-2.22795],[0.04707,1.00485]],[[238.47375,228.16991],[-0.98697,-0.6764],[1.81367,1.24296]],[[245.22495,229.05563],[-2.00607,-0.10307],[0.96696,0.04968]],[[247.55643,227.49374],[0.48745,1.91347],[-0.55952,-2.19637]],[[241.73693,224.11577],[1.30909,1.38809],[-0.77036,-0.81685]],[[239.54962,218.65479],[0.53037,1.76503],[-0.69588,-0.11334]],[[237.44753,218.42628],[0.70357,0.03829],[-0.02856,2.24101]]],&quot;closed&quot;:true}]}" fill="#ef6dad" stroke="none" stroke-width="1"/><path d="M79.40419,26.53683c0.87958,1.31513 1.06451,2.96393 1.58594,4.41737c0.19551,0.54496 0.37386,1.00711 0.45612,1.59341c0.35256,1.04357 0.54973,2.08286 0.52547,3.18468c-0.01228,0.55768 0.08567,0.93472 -0.52533,1.27955c-0.49982,0.28208 -1.1053,0.14483 -1.50702,-0.22086c-0.15722,-0.14312 -0.20744,-0.37123 -0.30618,-0.55952c-0.07495,-0.14292 -0.18155,-0.27603 -0.22422,-0.43055c-0.19431,0.12727 -0.41317,0.27634 -0.63872,0.24439c-0.30033,-0.04255 -0.57368,-0.2484 -0.77719,-0.47332c-0.64879,-0.71705 -0.06854,-2.04897 0.05207,-2.84525c-0.14732,-0.9726 -0.58907,-1.8046 -1.04361,-2.63888c-0.13923,-0.25555 -0.17691,-0.57512 -0.37476,-0.78855c-0.26534,-0.28624 -0.50817,-0.27252 -0.7601,-0.61879c-0.33707,-0.4633 -0.44986,-1.13085 -0.52925,-1.67987c-0.15743,-1.0888 0.06192,-3.12372 0.16238,-2.7274c0.3211,0.40545 2.31166,0.65956 2.71134,0.98663c0,0 0.89567,0.83235 1.19304,1.27697z" data-paper-data="{&quot;index&quot;:null}" fill="#ef6dad" stroke="#000000" stroke-width="1"/><path d="M64.02605,24.4279c0.10046,-0.39632 0.5191,-0.32655 0.5191,-0.32655l0.65181,0.16795c0.90516,0.772 0.76548,1.68173 0.60804,2.77053c-0.07939,0.54902 -0.19218,1.21657 -0.52925,1.67987c-0.25192,0.34627 -0.49476,0.33255 -0.7601,0.61879c-0.19785,0.21343 -0.23553,0.53299 -0.37476,0.78854c-0.45454,0.83429 -0.89629,1.66629 -1.04361,2.63889c0.12062,0.79628 0.70086,2.1282 0.05208,2.84525c-0.20351,0.22492 -0.47686,0.43076 -0.77719,0.47332c-0.22555,0.03196 -0.4444,-0.11711 -0.63872,-0.24439c-0.04267,0.15453 -0.14927,0.28763 -0.22422,0.43055c-0.09874,0.18829 -0.14896,0.4164 -0.30618,0.55952c-0.40172,0.36569 -1.0072,0.50294 -1.50702,0.22086c-0.61099,-0.34483 -0.51304,-0.72186 -0.52533,-1.27955c-0.02427,-1.10182 0.1729,-2.14111 0.52547,-3.18468c0.08226,-0.5863 0.26062,-1.04845 0.45612,-1.59341c0.52143,-1.45345 0.70636,-3.10224 1.58594,-4.41737c0.29737,-0.44462 0.77788,-0.93724 1.19304,-1.27697c0.39969,-0.32707 0.77367,-0.46571 1.09477,-0.87116z" fill="#ef6dad" stroke="#000000" stroke-width="1"/><path d="M76.45754,26.32269c0,6.23127 0.60285,12.09182 -3.86579,12.09182c-1.63567,0 -6.13593,0.33709 -7.1949,-0.567c-1.83413,-1.56587 -0.71647,-6.85519 -0.71647,-10.8056c0,-2.43586 -0.98488,-4.61284 -0.71302,-6.90871c0.13086,-1.1051 2.16062,-3.3977 4.59082,-4.06022c1.62717,-0.4436 3.53305,0.28998 4.8003,0.94249c2.96672,1.5276 3.09906,7.47169 3.09906,9.30722z" fill="#ef6dad" stroke="#000000" stroke-width="1"/><path d="M66.2423,23.76009c0,-2.24874 1.82296,-4.07169 4.07169,-4.07169c2.24874,0 4.07169,1.82296 4.07169,4.07169c0,2.24874 -1.82296,4.07169 -4.07169,4.07169c-2.24874,0 -4.07169,-1.82296 -4.07169,-4.07169z" fill="#f8c8fa" stroke="#000000" stroke-width="1"/><path d="M70.99737,23.74796c0,0.79088 -0.3511,1.43202 -0.7842,1.43202c-0.4331,0 -0.7842,-0.64114 -0.7842,-1.43202c0,-0.79088 0.3511,-1.43202 0.7842,-1.43202c0.4331,0 0.7842,0.64114 0.7842,1.43202z" fill="#000000" stroke="none" stroke-width="1"/><path d="M73.14976,23.71821c0,0.79088 -0.3511,1.43202 -0.7842,1.43202c-0.4331,0 -0.7842,-0.64114 -0.7842,-1.43202c0,-0.79088 0.3511,-1.43202 0.7842,-1.43202c0.4331,0 0.7842,0.64114 0.7842,1.43202z" fill="#000000" stroke="none" stroke-width="1"/><g stroke-width="1"><path d="M93.52734,68.13589c0.41732,-0.02053 0.83917,0.00582 1.25122,0.07504c0,0 0.34237,0.05946 0.43623,0.35579c0.0418,0.0843 0.05805,0.16581 0.06416,0.20901c0.07711,0.27715 0.07303,0.6043 0.27791,0.798c0.08395,0.07937 0.22935,0.03599 0.33889,0.0727c0.64546,0.21631 1.02865,0.314 1.25346,1.10883c0.55163,1.95025 -2.53252,2.19646 -3.60581,1.43632c-0.97044,-0.6873 -0.76683,-2.16771 -0.8235,-3.20017c0,0 -0.00536,-0.09769 0.02959,-0.21301c-0.02774,-0.26702 0.11844,-0.41619 0.24813,-0.49485c0.06178,-0.04091 0.13246,-0.06977 0.20886,-0.08305zM93.9137,70.65463c0.02166,0.21236 0.035,0.49506 0.25198,0.6269c0.39872,0.24226 1.01447,0.11064 1.44071,0.10915c0.20545,-0.00072 0.60135,0.04171 0.47582,-0.35804c-0.14409,-0.45885 -0.97878,-0.36915 -1.27229,-0.64803c-0.17272,-0.16411 -0.39404,-0.76381 -0.52694,-1.13161c-0.14876,-0.01592 -0.29852,-0.02404 -0.44804,-0.02397c0.02001,0.47515 0.03074,0.95477 0.07876,1.4256z" fill="#000000" stroke="none"/><path d="M93.82692,69.22146c0.14951,-0.00007 0.30125,0.0064 0.45001,0.02232c0.1329,0.3678 0.37006,0.97164 0.54278,1.13575c0.2935,0.27888 1.12762,0.20032 1.27171,0.65917c0.12553,0.39975 -0.27402,0.36078 -0.47948,0.3615c-0.42623,0.00149 -1.05454,0.13211 -1.45326,-0.11016c-0.21698,-0.13184 -0.23378,-0.41957 -0.25543,-0.63192c-0.04802,-0.47083 -0.05631,-0.96152 -0.07632,-1.43666z" data-paper-data="{&quot;noHover&quot;:false,&quot;origItem&quot;:[&quot;Path&quot;,{&quot;applyMatrix&quot;:true,&quot;segments&quot;:[[[474.89993,450.30982],[-0.20872,-4.45591],[0.09414,2.0097]],[[476.9475,456.33983],[-1.97393,-1.3528],[3.62734,2.48593]],[[490.4499,458.11125],[-4.01214,-0.20614],[1.93391,0.09936]],[[495.11287,454.98748],[0.97491,3.82694],[-1.11904,-4.39274]],[[483.47386,448.23155],[2.61818,2.77618],[-1.54072,-1.63369]],[[479.09924,437.30959],[1.06073,3.53007],[-1.39176,-0.22668]],[[474.89505,436.85255],[1.40713,0.07657],[-0.05711,4.48202]]],&quot;closed&quot;:true}]}" fill="#4ae7fa" stroke="none"/><path d="M88.93657,68.03722c0.41782,0.00237 0.83759,0.0518 1.24523,0.14349c0,0 0.33859,0.07814 0.41608,0.37916c0.03711,0.08646 0.04888,0.16874 0.0526,0.21221c0.06181,0.28096 0.0398,0.60739 0.23376,0.81203c0.07948,0.08385 0.22703,0.0485 0.3344,0.09116c0.63263,0.25136 1.00989,0.3699 1.19081,1.17586c0.44392,1.97755 -2.64909,2.05437 -3.67911,1.23656c-0.93132,-0.73945 -0.64689,-2.20648 -0.64689,-3.24049c0,0 0,-0.09783 0.04121,-0.21107c-0.01306,-0.26814 0.14107,-0.40908 0.27488,-0.48051c0.06393,-0.03746 0.13609,-0.06241 0.2131,-0.07148zM89.18431,70.57335c0.00999,0.21322 0.00781,0.49624 0.21724,0.63976c0.38485,0.26375 1.00689,0.16607 1.43256,0.18794c0.20518,0.01054 0.59816,0.07461 0.49473,-0.33142c-0.11873,-0.46606 -0.95708,-0.42224 -1.23486,-0.71678c-0.16347,-0.17333 -0.35159,-0.78426 -0.46413,-1.15879c-0.14766,-0.02405 -0.29676,-0.04037 -0.44605,-0.04849c-0.00606,0.47553 -0.02163,0.95502 0.00052,1.42777z" fill="#000000" stroke="none"/><path d="M89.1762,69.13759c0.14929,0.00812 0.30045,0.0229 0.44811,0.04695c0.11254,0.37453 0.31625,0.99046 0.47972,1.16379c0.27778,0.29454 1.11495,0.26182 1.23367,0.72787c0.10343,0.40603 -0.29338,0.34522 -0.49856,0.33468c-0.42568,-0.02187 -1.06019,0.07412 -1.44504,-0.18963c-0.20943,-0.14353 -0.21043,-0.43175 -0.22042,-0.64497c-0.02214,-0.47276 -0.00354,-0.96316 0.00252,-1.43869z" data-paper-data="{&quot;noHover&quot;:false,&quot;origItem&quot;:[&quot;Path&quot;,{&quot;applyMatrix&quot;:true,&quot;segments&quot;:[[[237.44997,225.15491],[-0.10436,-2.22795],[0.04707,1.00485]],[[238.47375,228.16991],[-0.98697,-0.6764],[1.81367,1.24296]],[[245.22495,229.05563],[-2.00607,-0.10307],[0.96696,0.04968]],[[247.55643,227.49374],[0.48745,1.91347],[-0.55952,-2.19637]],[[241.73693,224.11577],[1.30909,1.38809],[-0.77036,-0.81685]],[[239.54962,218.65479],[0.53037,1.76503],[-0.69588,-0.11334]],[[237.44753,218.42628],[0.70357,0.03829],[-0.02856,2.24101]]],&quot;closed&quot;:true}]}" fill="#4ae7fa" stroke="none"/><path d="M100.55021,57.46019c0.8262,1.23533 0.99991,2.78406 1.4897,4.14931c0.18364,0.51189 0.35117,0.94599 0.42844,1.49671c0.33117,0.98024 0.51637,1.95646 0.49358,2.99142c-0.01154,0.52384 0.08047,0.878 -0.49345,1.2019c-0.46949,0.26497 -1.03822,0.13604 -1.41557,-0.20745c-0.14768,-0.13443 -0.19485,-0.34871 -0.2876,-0.52557c-0.0704,-0.13425 -0.17053,-0.25928 -0.21061,-0.40443c-0.18252,0.11955 -0.3881,0.25957 -0.59996,0.22956c-0.2821,-0.03997 -0.53887,-0.23332 -0.73003,-0.44459c-0.60942,-0.67354 -0.06438,-1.92463 0.04891,-2.67259c-0.13838,-0.91358 -0.55332,-1.69509 -0.98028,-2.47875c-0.13078,-0.24005 -0.16618,-0.54022 -0.35202,-0.74069c-0.24924,-0.26887 -0.47733,-0.25598 -0.71397,-0.58124c-0.31661,-0.43518 -0.42256,-1.06223 -0.49713,-1.57793c-0.14788,-1.02272 0.05816,-2.93416 0.15252,-2.56189c0.30161,0.38084 2.17137,0.61954 2.54681,0.92676c0,0 0.84132,0.78184 1.12064,1.19948z" data-paper-data="{&quot;index&quot;:null}" fill="#4ae7fa" stroke="#000000"/><path d="M86.10529,55.47925c0.09436,-0.37227 0.4876,-0.30673 0.4876,-0.30673l0.61225,0.15776c0.85023,0.72515 0.71902,1.57968 0.57114,2.6024c-0.07457,0.5157 -0.18052,1.14275 -0.49713,1.57793c-0.23664,0.32525 -0.46473,0.31237 -0.71397,0.58124c-0.18584,0.20048 -0.22123,0.50065 -0.35202,0.74069c-0.42696,0.78366 -0.8419,1.56517 -0.98028,2.47875c0.1133,0.74796 0.65833,1.99905 0.04891,2.67259c-0.19116,0.21127 -0.44793,0.40462 -0.73003,0.44459c-0.21186,0.03002 -0.41743,-0.11001 -0.59996,-0.22956c-0.04008,0.14515 -0.14021,0.27018 -0.21061,0.40443c-0.09275,0.17686 -0.13992,0.39113 -0.2876,0.52557c-0.37734,0.34349 -0.94607,0.47242 -1.41557,0.20745c-0.57392,-0.3239 -0.48191,-0.67806 -0.49345,-1.2019c-0.02279,-1.03496 0.16241,-2.01118 0.49358,-2.99142c0.07727,-0.55072 0.2448,-0.98482 0.42844,-1.49671c0.48979,-1.36524 0.6635,-2.91398 1.4897,-4.14931c0.27932,-0.41764 0.73068,-0.88037 1.12064,-1.19948c0.37543,-0.30722 0.72672,-0.43745 1.02834,-0.81829z" fill="#4ae7fa" stroke="#000000"/><path d="M97.78238,57.25905c0,5.85312 0.56626,11.35804 -3.63119,11.35804c-1.53641,0 -5.76357,0.31663 -6.75828,-0.5326c-1.72283,-1.47085 -0.673,-6.43919 -0.673,-10.14987c0,-2.28804 -0.92511,-4.33292 -0.66975,-6.48946c0.12292,-1.03804 2.0295,-3.19152 4.31222,-3.81383c1.52843,-0.41668 3.31865,0.27238 4.509,0.8853c2.78669,1.43489 2.911,7.01827 2.911,8.74241z" fill="#4ae7fa" stroke="#000000"/><path d="M88.18705,54.85196c0,-2.11227 1.71233,-3.82461 3.82461,-3.82461c2.11227,0 3.82461,1.71233 3.82461,3.82461c0,2.11227 -1.71233,3.82461 -3.82461,3.82461c-2.11227,0 -3.82461,-1.71233 -3.82461,-3.82461z" fill="#dee0df" stroke="#000000"/><path d="M92.65356,54.84056c0,0.74289 -0.32979,1.34512 -0.73661,1.34512c-0.40682,0 -0.73661,-0.60223 -0.73661,-1.34512c0,-0.74289 0.32979,-1.34512 0.73661,-1.34512c0.40682,0 0.73661,0.60223 0.73661,1.34512z" fill="#000000" stroke="none"/><path d="M94.67533,54.81262c0,0.74289 -0.32979,1.34512 -0.73662,1.34512c-0.40682,0 -0.73661,-0.60223 -0.73661,-1.34512c0,-0.74289 0.32979,-1.34512 0.73661,-1.34512c0.40682,0 0.73662,0.60223 0.73662,1.34512z" fill="#000000" stroke="none"/></g><path d="M75.66856,101.64411c0.47687,-0.02346 0.95892,0.00666 1.42977,0.08575c0,0 0.39122,0.06795 0.49848,0.40656c0.04776,0.09632 0.06633,0.18947 0.07331,0.23884c0.08811,0.3167 0.08345,0.69053 0.31757,0.91188c0.09593,0.0907 0.26207,0.04112 0.38725,0.08307c0.73756,0.24717 1.17543,0.35881 1.43233,1.26706c0.63034,2.22854 -2.89391,2.5099 -4.12036,1.64128c-1.10893,-0.78538 -0.87626,-2.47704 -0.94102,-3.65683c0,0 -0.00613,-0.11163 0.03381,-0.2434c-0.0317,-0.30513 0.13535,-0.47558 0.28354,-0.56546c0.0706,-0.04674 0.15136,-0.07973 0.23866,-0.0949zM76.11006,104.52227c0.02475,0.24266 0.03999,0.56571 0.28793,0.71636c0.45562,0.27683 1.15924,0.12643 1.6463,0.12473c0.23477,-0.00082 0.68716,0.04766 0.54372,-0.40913c-0.16465,-0.52433 -1.11845,-0.42183 -1.45384,-0.7405c-0.19737,-0.18753 -0.45027,-0.8728 -0.60213,-1.29309c-0.16999,-0.01819 -0.34112,-0.02747 -0.51197,-0.02739c0.02287,0.54295 0.03513,1.09101 0.09,1.62903z" fill="#000000" stroke="none" stroke-width="1"/><path d="M76.0109,102.88459c0.17085,-0.00008 0.34424,0.00731 0.51422,0.02551c0.15186,0.42028 0.42286,1.11029 0.62023,1.29782c0.33539,0.31867 1.28853,0.22891 1.45318,0.75323c0.14344,0.45679 -0.31313,0.41226 -0.5479,0.41308c-0.48706,0.0017 -1.20502,0.15096 -1.66064,-0.12588c-0.24794,-0.15065 -0.26714,-0.47944 -0.29188,-0.7221c-0.05487,-0.53802 -0.06435,-1.09872 -0.08722,-1.64167z" data-paper-data="{&quot;noHover&quot;:false,&quot;origItem&quot;:[&quot;Path&quot;,{&quot;applyMatrix&quot;:true,&quot;segments&quot;:[[[474.89993,450.30982],[-0.20872,-4.45591],[0.09414,2.0097]],[[476.9475,456.33983],[-1.97393,-1.3528],[3.62734,2.48593]],[[490.4499,458.11125],[-4.01214,-0.20614],[1.93391,0.09936]],[[495.11287,454.98748],[0.97491,3.82694],[-1.11904,-4.39274]],[[483.47386,448.23155],[2.61818,2.77618],[-1.54072,-1.63369]],[[479.09924,437.30959],[1.06073,3.53007],[-1.39176,-0.22668]],[[474.89505,436.85255],[1.40713,0.07657],[-0.05711,4.48202]]],&quot;closed&quot;:true}]}" fill="#00a769" stroke="none" stroke-width="1"/><path d="M70.42269,101.53136c0.47744,0.00271 0.95711,0.0592 1.42292,0.16397c0,0 0.38691,0.08929 0.47545,0.43327c0.04241,0.0988 0.05585,0.19282 0.06011,0.2425c0.07063,0.32105 0.04548,0.69407 0.26711,0.92791c0.09082,0.09582 0.25943,0.05542 0.38212,0.10417c0.72291,0.28722 1.154,0.42269 1.36074,1.34365c0.50726,2.25974 -3.02711,2.34753 -4.20411,1.41301c-1.06422,-0.84497 -0.7392,-2.52134 -0.7392,-3.7029c0,0 0,-0.11179 0.0471,-0.24119c-0.01493,-0.3064 0.16121,-0.46745 0.3141,-0.54908c0.07305,-0.0428 0.15551,-0.07131 0.24351,-0.08167zM70.70579,104.4294c0.01141,0.24365 0.00893,0.56705 0.24824,0.73106c0.43977,0.30138 1.15057,0.18977 1.63699,0.21476c0.23446,0.01205 0.68352,0.08525 0.56532,-0.37871c-0.13567,-0.53256 -1.09365,-0.48249 -1.41107,-0.81907c-0.18679,-0.19806 -0.40177,-0.89617 -0.53036,-1.32414c-0.16873,-0.02748 -0.33911,-0.04613 -0.5097,-0.05541c-0.00693,0.54339 -0.02471,1.0913 0.00059,1.63151z" fill="#000000" stroke="none" stroke-width="1"/><path d="M70.69652,102.78875c0.1706,0.00928 0.34332,0.02617 0.51205,0.05365c0.1286,0.42797 0.36138,1.1318 0.54817,1.32986c0.31742,0.33657 1.27405,0.29918 1.40972,0.83174c0.11819,0.46397 -0.33525,0.39448 -0.56971,0.38244c-0.48642,-0.02499 -1.21148,0.08469 -1.65124,-0.21669c-0.23931,-0.16401 -0.24046,-0.49336 -0.25187,-0.73701c-0.0253,-0.54022 -0.00404,-1.1006 0.00288,-1.64398z" data-paper-data="{&quot;noHover&quot;:false,&quot;origItem&quot;:[&quot;Path&quot;,{&quot;applyMatrix&quot;:true,&quot;segments&quot;:[[[237.44997,225.15491],[-0.10436,-2.22795],[0.04707,1.00485]],[[238.47375,228.16991],[-0.98697,-0.6764],[1.81367,1.24296]],[[245.22495,229.05563],[-2.00607,-0.10307],[0.96696,0.04968]],[[247.55643,227.49374],[0.48745,1.91347],[-0.55952,-2.19637]],[[241.73693,224.11577],[1.30909,1.38809],[-0.77036,-0.81685]],[[239.54962,218.65479],[0.53037,1.76503],[-0.69588,-0.11334]],[[237.44753,218.42628],[0.70357,0.03829],[-0.02856,2.24101]]],&quot;closed&quot;:true}]}" fill="#00a769" stroke="none" stroke-width="1"/><path d="M83.69359,89.44501c0.9441,1.41161 1.1426,3.18135 1.70227,4.74141c0.20985,0.58493 0.40128,1.08098 0.48958,1.71029c0.37842,1.12012 0.59006,2.23564 0.56401,3.41829c-0.01318,0.59859 0.09195,1.00329 -0.56386,1.37341c-0.53649,0.30278 -1.18637,0.15545 -1.61756,-0.23706c-0.16875,-0.15362 -0.22266,-0.39847 -0.32864,-0.60056c-0.08045,-0.15341 -0.19486,-0.29628 -0.24067,-0.46214c-0.20857,0.13661 -0.44348,0.29662 -0.68557,0.26231c-0.32236,-0.04567 -0.61576,-0.26662 -0.8342,-0.50804c-0.69638,-0.76965 -0.07357,-2.19927 0.05589,-3.05396c-0.15813,-1.04395 -0.63228,-1.93697 -1.12016,-2.83246c-0.14945,-0.2743 -0.18989,-0.6173 -0.40225,-0.84639c-0.2848,-0.30723 -0.54545,-0.29251 -0.81585,-0.66418c-0.36179,-0.49728 -0.48286,-1.2138 -0.56807,-1.8031c-0.16898,-1.16866 0.06646,-3.35286 0.17429,-2.92747c0.34465,0.43519 2.48123,0.70794 2.91023,1.059c0,0 0.96137,0.89341 1.28056,1.37064z" data-paper-data="{&quot;index&quot;:null}" fill="#00a769" stroke="#000000" stroke-width="1"/><path d="M67.18741,87.18139c0.10783,-0.4254 0.55718,-0.35051 0.55718,-0.35051l0.69962,0.18027c0.97156,0.82863 0.82163,1.80509 0.65264,2.97376c-0.08521,0.58929 -0.20628,1.30581 -0.56807,1.8031c-0.2704,0.37167 -0.53105,0.35695 -0.81585,0.66418c-0.21236,0.22908 -0.2528,0.57209 -0.40225,0.84639c-0.48788,0.89549 -0.96204,1.78852 -1.12016,2.83246c0.12946,0.85469 0.75228,2.28431 0.05589,3.05396c-0.21844,0.24142 -0.51184,0.46236 -0.8342,0.50804c-0.24209,0.0343 -0.477,-0.1257 -0.68557,-0.26231c-0.0458,0.16586 -0.16022,0.30873 -0.24067,0.46214c-0.10598,0.2021 -0.15989,0.44695 -0.32864,0.60057c-0.43119,0.39251 -1.08108,0.53983 -1.61756,0.23706c-0.65581,-0.37012 -0.55068,-0.77482 -0.56386,-1.37341c-0.02605,-1.18264 0.18559,-2.29817 0.56401,-3.41829c0.0883,-0.62931 0.27974,-1.12536 0.48958,-1.71029c0.55968,-1.56006 0.75818,-3.3298 1.70227,-4.74141c0.31918,-0.47724 0.83494,-1.006 1.28056,-1.37065c0.42901,-0.35106 0.83043,-0.49987 1.17508,-0.93506z" fill="#00a769" stroke="#000000" stroke-width="1"/><path d="M80.53079,89.21516c0,6.68836 0.64707,12.97881 -4.14936,12.97881c-1.75566,0 -6.58602,0.36182 -7.72268,-0.6086c-1.96867,-1.68074 -0.76903,-7.35805 -0.76903,-11.59824c0,-2.61454 -1.05712,-4.95121 -0.76532,-7.41549c0.14046,-1.18617 2.31911,-3.64694 4.92757,-4.35806c1.74653,-0.47614 3.79222,0.31125 5.15242,1.01163c3.18434,1.63965 3.32639,8.01977 3.32639,9.98994z" fill="#00a769" stroke="#000000" stroke-width="1"/><path d="M69.56622,86.46458c0,-2.41369 1.95668,-4.37037 4.37037,-4.37037c2.41369,0 4.37037,1.95668 4.37037,4.37037c0,2.41369 -1.95668,4.37037 -4.37037,4.37037c-2.41369,0 -4.37037,-1.95668 -4.37037,-4.37037z" fill="#ffaa83" stroke="#000000" stroke-width="1"/><path d="M74.6701,86.45156c0,0.8489 -0.37685,1.53707 -0.84173,1.53707c-0.46487,0 -0.84173,-0.68817 -0.84173,-1.53707c0,-0.8489 0.37685,-1.53707 0.84173,-1.53707c0.46487,0 0.84173,0.68817 0.84173,1.53707z" fill="#000000" stroke="none" stroke-width="1"/><path d="M76.98037,86.41964c0,0.8489 -0.37685,1.53707 -0.84173,1.53707c-0.46487,0 -0.84173,-0.68817 -0.84173,-1.53707c0,-0.8489 0.37685,-1.53707 0.84173,-1.53707c0.46487,0 0.84173,0.68817 0.84173,1.53707z" fill="#000000" stroke="none" stroke-width="1"/><path d="M95.36487,135.0295c0.52171,-0.02566 1.04909,0.00728 1.56421,0.09381c0,0 0.42801,0.07434 0.54535,0.44479c0.05225,0.10538 0.07257,0.20728 0.08021,0.2613c0.0964,0.34648 0.09129,0.75546 0.34743,0.99762c0.10495,0.09923 0.28672,0.04499 0.42366,0.09089c0.80692,0.27042 1.28596,0.39255 1.56701,1.3862c0.68961,2.43809 -3.16602,2.7459 -4.50779,1.79561c-1.2132,-0.85923 -0.95865,-2.70995 -1.0295,-4.00068c0,0 -0.0067,-0.12212 0.03699,-0.26629c-0.03468,-0.33382 0.14807,-0.5203 0.3102,-0.61864c0.07724,-0.05114 0.1656,-0.08722 0.26111,-0.10382zM95.84788,138.17829c0.02708,0.26547 0.04375,0.6189 0.31501,0.78371c0.49846,0.30286 1.26824,0.13832 1.8011,0.13646c0.25684,-0.0009 0.75178,0.05214 0.59485,-0.4476c-0.18013,-0.57363 -1.22362,-0.4615 -1.59055,-0.81013c-0.21592,-0.20516 -0.49261,-0.95487 -0.65875,-1.41467c-0.18597,-0.0199 -0.3732,-0.03006 -0.56011,-0.02997c0.02502,0.594 0.03843,1.1936 0.09846,1.78221z" fill="#000000" stroke="none" stroke-width="1"/><path d="M95.73939,136.38663c0.18691,-0.00009 0.37661,0.008 0.56258,0.02791c0.16614,0.4598 0.46263,1.21469 0.67855,1.41985c0.36692,0.34864 1.40969,0.25043 1.58982,0.82406c0.15693,0.49974 -0.34257,0.45103 -0.59941,0.45192c-0.53285,0.00186 -1.31832,0.16515 -1.81679,-0.13771c-0.27125,-0.16481 -0.29225,-0.52452 -0.31933,-0.78999c-0.06003,-0.58861 -0.0704,-1.20204 -0.09542,-1.79604z" data-paper-data="{&quot;noHover&quot;:false,&quot;origItem&quot;:[&quot;Path&quot;,{&quot;applyMatrix&quot;:true,&quot;segments&quot;:[[[474.89993,450.30982],[-0.20872,-4.45591],[0.09414,2.0097]],[[476.9475,456.33983],[-1.97393,-1.3528],[3.62734,2.48593]],[[490.4499,458.11125],[-4.01214,-0.20614],[1.93391,0.09936]],[[495.11287,454.98748],[0.97491,3.82694],[-1.11904,-4.39274]],[[483.47386,448.23155],[2.61818,2.77618],[-1.54072,-1.63369]],[[479.09924,437.30959],[1.06073,3.53007],[-1.39176,-0.22668]],[[474.89505,436.85255],[1.40713,0.07657],[-0.05711,4.48202]]],&quot;closed&quot;:true}]}" fill="#635c5e" stroke="none" stroke-width="1"/><path d="M89.62574,134.90615c0.52233,0.00297 1.04711,0.06476 1.55672,0.17939c0,0 0.42329,0.09768 0.52016,0.47401c0.0464,0.10809 0.0611,0.21095 0.06576,0.2653c0.07727,0.35124 0.04975,0.75933 0.29223,1.01516c0.09936,0.10483 0.28382,0.06063 0.41805,0.11396c0.79088,0.31423 1.26251,0.46243 1.48869,1.46999c0.55496,2.47222 -3.31175,2.56827 -4.59942,1.54588c-1.16429,-0.92442 -0.8087,-2.75842 -0.8087,-4.05109c0,0 0,-0.1223 0.05152,-0.26386c-0.01633,-0.33521 0.17636,-0.5114 0.34364,-0.60071c0.07992,-0.04683 0.17013,-0.07802 0.2664,-0.08935zM89.93545,138.07669c0.01249,0.26656 0.00977,0.62037 0.27158,0.7998c0.48112,0.32972 1.25876,0.20761 1.79091,0.23496c0.25651,0.01318 0.74779,0.09327 0.61848,-0.41432c-0.14843,-0.58264 -1.19649,-0.52786 -1.54376,-0.89608c-0.20436,-0.21669 -0.43954,-0.98044 -0.58023,-1.44865c-0.1846,-0.03007 -0.37099,-0.05046 -0.55763,-0.06062c-0.00758,0.59448 -0.02704,1.19391 0.00065,1.78492z" fill="#000000" stroke="none" stroke-width="1"/><path d="M89.92531,136.28177c0.18664,0.01016 0.3756,0.02863 0.5602,0.05869c0.14069,0.46821 0.39536,1.23822 0.59972,1.45491c0.34727,0.36822 1.39385,0.32731 1.54227,0.90995c0.12931,0.50759 -0.36677,0.43158 -0.62328,0.4184c-0.53216,-0.02734 -1.32539,0.09266 -1.80651,-0.23707c-0.26182,-0.17943 -0.26307,-0.53975 -0.27556,-0.80631c-0.02768,-0.59102 -0.00442,-1.20409 0.00315,-1.79857z" data-paper-data="{&quot;noHover&quot;:false,&quot;origItem&quot;:[&quot;Path&quot;,{&quot;applyMatrix&quot;:true,&quot;segments&quot;:[[[237.44997,225.15491],[-0.10436,-2.22795],[0.04707,1.00485]],[[238.47375,228.16991],[-0.98697,-0.6764],[1.81367,1.24296]],[[245.22495,229.05563],[-2.00607,-0.10307],[0.96696,0.04968]],[[247.55643,227.49374],[0.48745,1.91347],[-0.55952,-2.19637]],[[241.73693,224.11577],[1.30909,1.38809],[-0.77036,-0.81685]],[[239.54962,218.65479],[0.53037,1.76503],[-0.69588,-0.11334]],[[237.44753,218.42628],[0.70357,0.03829],[-0.02856,2.24101]]],&quot;closed&quot;:true}]}" fill="#635c5e" stroke="none" stroke-width="1"/><path d="M104.14448,121.68332c1.03287,1.54434 1.25004,3.48049 1.86234,5.18724c0.22958,0.63993 0.43902,1.18263 0.53562,1.87111c0.41401,1.22544 0.64554,2.44586 0.61704,3.73971c-0.01442,0.65488 0.1006,1.09763 -0.61688,1.50255c-0.58693,0.33125 -1.29793,0.17007 -1.76966,-0.25935c-0.18462,-0.16806 -0.24359,-0.43593 -0.35954,-0.65703c-0.08801,-0.16783 -0.21319,-0.32413 -0.2633,-0.50559c-0.22818,0.14945 -0.48518,0.32451 -0.75003,0.28698c-0.35267,-0.04997 -0.67366,-0.29169 -0.91264,-0.55581c-0.76186,-0.84202 -0.08049,-2.40607 0.06115,-3.34113c-0.173,-1.14211 -0.69173,-2.1191 -1.22549,-3.09879c-0.1635,-0.30009 -0.20775,-0.67535 -0.44007,-0.92598c-0.31158,-0.33612 -0.59674,-0.32002 -0.89257,-0.72663c-0.39581,-0.54404 -0.52826,-1.32794 -0.62148,-1.97264c-0.18487,-1.27855 0.07271,-3.66813 0.19068,-3.20273c0.37706,0.47611 2.71453,0.77451 3.18388,1.15858c0,0 1.05177,0.97741 1.40097,1.49953z" data-paper-data="{&quot;index&quot;:null}" fill="#635c5e" stroke="#000000" stroke-width="1"/><path d="M86.08623,119.20686c0.11797,-0.4654 0.60957,-0.38346 0.60957,-0.38346l0.76541,0.19722c1.06291,0.90654 0.89888,1.97483 0.71401,3.25338c-0.09322,0.6447 -0.22567,1.4286 -0.62148,1.97264c-0.29583,0.40662 -0.58099,0.39051 -0.89257,0.72663c-0.23233,0.25062 -0.27657,0.62588 -0.44007,0.92597c-0.53376,0.97969 -1.05249,1.95669 -1.22549,3.0988c0.14164,0.93506 0.82301,2.49911 0.06115,3.34113c-0.23898,0.26412 -0.55997,0.50584 -0.91264,0.55581c-0.26486,0.03753 -0.52185,-0.13752 -0.75003,-0.28698c-0.05011,0.18146 -0.17528,0.33776 -0.2633,0.50559c-0.11595,0.2211 -0.17492,0.48898 -0.35954,0.65704c-0.47173,0.42942 -1.18273,0.59059 -1.76966,0.25935c-0.71748,-0.40492 -0.60246,-0.84767 -0.61688,-1.50255c-0.0285,-1.29385 0.20304,-2.51427 0.61704,-3.73971c0.0966,-0.68848 0.30604,-1.23117 0.53562,-1.87111c0.6123,-1.70675 0.82947,-3.6429 1.86234,-5.18724c0.34919,-0.52211 0.91345,-1.10059 1.40097,-1.49953c0.46934,-0.38407 0.90851,-0.54688 1.28557,-1.02299z" fill="#635c5e" stroke="#000000" stroke-width="1"/><path d="M100.68429,121.43186c0,7.31726 0.70791,14.1992 -4.53952,14.1992c-1.92074,0 -7.2053,0.39584 -8.44884,-0.66582c-2.15379,-1.83877 -0.84134,-8.04992 -0.84134,-12.68881c0,-2.86038 -1.15652,-5.41678 -0.83728,-8.11276c0.15366,-1.2977 2.53717,-3.98986 5.39091,-4.76784c1.91075,-0.52091 4.1488,0.34051 5.6369,1.10675c3.48376,1.79383 3.63917,8.77386 3.63917,10.92929z" fill="#635c5e" stroke="#000000" stroke-width="1"/><path d="M88.68873,118.42265c0,-2.64065 2.14067,-4.78131 4.78131,-4.78131c2.64065,0 4.78131,2.14067 4.78131,4.78131c0,2.64065 -2.14067,4.78131 -4.78131,4.78131c-2.64065,0 -4.78131,-2.14067 -4.78131,-4.78131z" fill="#fc6fb4" stroke="#000000" stroke-width="1"/><path d="M94.27252,118.40841c0,0.92872 -0.41229,1.6816 -0.92087,1.6816c-0.50858,0 -0.92087,-0.75288 -0.92087,-1.6816c0,-0.92872 0.41229,-1.6816 0.92087,-1.6816c0.50858,0 0.92087,0.75287 0.92087,1.6816z" fill="#000000" stroke="none" stroke-width="1"/><path d="M96.80003,118.37348c0,0.92872 -0.41229,1.6816 -0.92088,1.6816c-0.50858,0 -0.92087,-0.75288 -0.92087,-1.6816c0,-0.92872 0.41229,-1.6816 0.92087,-1.6816c0.50859,0 0.92088,0.75287 0.92088,1.6816z" fill="#000000" stroke="none" stroke-width="1"/></g></g></svg>