<svg version="1.1" xmlns="http://www.w3.org/2000/svg" xmlns:xlink="http://www.w3.org/1999/xlink" width="101.46937" height="120.14471" viewBox="0,0,101.46937,120.14471"><g transform="translate(-196.40062,-118.97732)"><g data-paper-data="{&quot;isPaintingLayer&quot;:true}" fill-rule="nonzero" stroke-linecap="butt" stroke-linejoin="miter" stroke-miterlimit="10" stroke-dasharray="" stroke-dashoffset="0" style="mix-blend-mode: normal"><path d="M213.04144,163.35645c0.2875,-1.7869 2.16079,-1.64347 2.16079,-1.64347l2.93988,0.48487c4.29392,3.0489 4.03484,7.11496 3.76774,11.97752c-0.13469,2.45192 -0.37017,5.43958 -1.67467,7.6146c-0.97498,1.62561 -2.05108,1.66038 -3.10876,3.02656c-0.78864,1.01867 -0.82943,2.44249 -1.34311,3.62391c-1.67695,3.85689 -3.29839,7.6987 -3.56648,12.04494c0.84416,3.46371 3.92508,9.10891 1.34566,12.52508c-0.80909,1.07157 -1.93365,2.08641 -3.24119,2.39183c-0.98196,0.22937 -2.00543,-0.34207 -2.91213,-0.82703c-0.12754,0.69808 -0.54535,1.3268 -0.81976,1.98639c-0.36152,0.86893 -0.49347,1.89446 -1.13057,2.58719c-1.62785,1.76998 -4.24373,2.61267 -6.55822,1.56494c-2.8293,-1.28077 -2.5453,-2.98166 -2.8182,-5.43583c-0.53918,-4.84871 -0.07746,-9.50858 1.06773,-14.24822c0.13277,-2.61742 0.73788,-4.72512 1.38616,-7.20468c1.72901,-6.61317 1.8977,-13.95569 5.26015,-20.09949c1.13678,-2.07711 3.06226,-4.43769 4.75955,-6.0985c1.63404,-1.59891 3.22867,-2.35692 4.48544,-4.2706z" fill="#635c5e" stroke="#000000" stroke-width="5"/><path d="M254.31561,217.10857c1.96054,0.18303 3.91091,0.58779 5.78693,1.18596c0,0 1.55744,0.50612 1.79735,1.95124c0.13867,0.42117 0.16003,0.81229 0.15966,1.01793c0.17457,1.34444 -0.06304,2.86789 0.76335,3.90841c0.33862,0.42637 1.04588,0.3211 1.53239,0.56555c2.86661,1.4403 4.58894,2.15206 5.10673,6.01018c1.2705,9.46659 -13.28179,8.5548 -17.78096,4.29166c-4.06804,-3.85464 -2.12919,-10.62483 -1.70379,-15.47922c0,0 0.04024,-0.4593 0.28032,-0.97394c0.04899,-1.26422 0.8306,-1.86244 1.48814,-2.14275c0.31555,-0.14955 0.66455,-0.23699 1.02983,-0.24789zM254.43535,229.11681c-0.04082,1.00512 -0.16747,2.33289 0.75668,3.09287c1.69824,1.39654 4.65869,1.19388 6.6481,1.47168c0.95892,0.13389 2.77749,0.59632 2.45893,-1.3524c-0.36565,-2.23683 -4.31949,-2.37602 -5.5024,-3.87308c-0.69611,-0.88098 -1.32797,-3.82649 -1.70224,-5.63107c-0.68334,-0.17366 -1.37658,-0.3116 -2.07412,-0.41116c-0.22408,2.22997 -0.49442,4.4746 -0.58496,6.70316z" fill="#000000" stroke="none" stroke-width="0.5"/><path d="M254.98796,222.37301c0.69754,0.09956 1.40108,0.23111 2.08441,0.40477c0.37426,1.8046 1.07723,4.78 1.77335,5.66098c1.18292,1.49706 5.12662,1.68784 5.49226,3.92465c0.31855,1.94872 -1.51936,1.5 -2.47829,1.3661c-1.98941,-0.27781 -5.00775,-0.08821 -6.70599,-1.48476c-0.92415,-0.75998 -0.81029,-2.11349 -0.76946,-3.11861c0.09053,-2.22856 0.37964,-4.52318 0.60372,-6.75313z" data-paper-data="{&quot;noHover&quot;:false,&quot;origItem&quot;:[&quot;Path&quot;,{&quot;applyMatrix&quot;:true,&quot;segments&quot;:[[[474.89993,450.30982],[-0.20872,-4.45591],[0.09414,2.0097]],[[476.9475,456.33983],[-1.97393,-1.3528],[3.62734,2.48593]],[[490.4499,458.11125],[-4.01214,-0.20614],[1.93391,0.09936]],[[495.11287,454.98748],[0.97491,3.82694],[-1.11904,-4.39274]],[[483.47386,448.23155],[2.61818,2.77618],[-1.54072,-1.63369]],[[479.09924,437.30959],[1.06073,3.53007],[-1.39176,-0.22668]],[[474.89505,436.85255],[1.40713,0.07657],[-0.05711,4.48202]]],&quot;closed&quot;:true}]}" fill="#635c5e" stroke="none" stroke-width="0.5"/><path d="M228.45805,219.27529c1.9281,-0.3995 3.91147,-0.58403 5.88041,-0.56187c0,0 1.63737,0.02752 2.29023,1.33889c0.25599,0.36205 0.39105,0.72974 0.45094,0.92645c0.56088,1.23426 0.78011,2.76046 1.87512,3.51315c0.4487,0.30843 1.09407,0.00052 1.63086,0.09167c3.16282,0.53707 5.01811,0.71288 6.64373,4.24991c3.98873,8.67874 -10.19193,12.07126 -15.74283,9.31366c-5.019,-2.49337 -5.14914,-9.53451 -6.1649,-14.30045c0,0 -0.09611,-0.45093 -0.01738,-1.01333c-0.32363,-1.22307 0.24838,-2.02407 0.79492,-2.48477c0.25787,-0.23545 0.56594,-0.42132 0.91199,-0.53878zM232.09132,230.72133c0.2555,0.97297 0.52349,2.27956 1.62976,2.73537c2.03292,0.8376 4.80404,-0.22367 6.78752,-0.54102c0.95607,-0.15297 2.8303,-0.24374 1.95469,-2.01356c-1.00506,-2.03149 -4.82612,-1.00598 -6.3958,-2.0907c-0.92371,-0.63833 -2.39097,-3.26938 -3.2776,-4.88508c-0.70422,0.03421 -1.40746,0.10547 -2.10355,0.21468c0.4392,2.19774 0.83848,4.42306 1.40496,6.58031z" fill="#000000" stroke="none" stroke-width="0.5"/><path d="M230.6435,224.11163c0.6961,-0.10921 1.40729,-0.18959 2.11152,-0.2238c0.88664,1.6157 2.43064,4.2545 3.35435,4.89283c1.56967,1.08472 5.39615,0.11147 6.40121,2.14297c0.8756,1.76983 -1.01313,1.87938 -1.96918,2.03235c-1.98348,0.31735 -4.81377,1.38309 -6.84669,0.54549c-1.10628,-0.45581 -1.39403,-1.78328 -1.64953,-2.75624c-0.56648,-2.15726 -0.96246,-4.43586 -1.40166,-6.6336z" data-paper-data="{&quot;noHover&quot;:false,&quot;origItem&quot;:[&quot;Path&quot;,{&quot;applyMatrix&quot;:true,&quot;segments&quot;:[[[237.44997,225.15491],[-0.10436,-2.22795],[0.04707,1.00485]],[[238.47375,228.16991],[-0.98697,-0.6764],[1.81367,1.24296]],[[245.22495,229.05563],[-2.00607,-0.10307],[0.96696,0.04968]],[[247.55643,227.49374],[0.48745,1.91347],[-0.55952,-2.19637]],[[241.73693,224.11577],[1.30909,1.38809],[-0.77036,-0.81685]],[[239.54962,218.65479],[0.53037,1.76503],[-0.69588,-0.11334]],[[237.44753,218.42628],[0.70357,0.03829],[-0.02856,2.24101]]],&quot;closed&quot;:true}]}" fill="#635c5e" stroke="none" stroke-width="0.5"/><path d="M279.81179,168.06087c4.48082,5.38281 6.05788,12.55596 9.02595,18.7134c1.11285,2.30869 2.11189,4.26074 2.74534,6.80381c2.035,4.4311 3.38392,8.9153 3.78691,13.77721c0.20398,2.46085 0.80965,4.07542 -1.72065,5.8762c-2.06992,1.47313 -4.79898,1.14904 -6.73675,-0.27499c-0.75839,-0.55732 -1.08503,-1.53836 -1.60684,-2.32158c-0.39609,-0.59454 -0.92696,-1.13119 -1.18633,-1.79174c-0.79656,0.65023 -1.6911,1.40776 -2.69883,1.37143c-1.34186,-0.04837 -2.64051,-0.8281 -3.64054,-1.72413c-3.18804,-2.85658 -1.24982,-8.98876 -1.08727,-12.55015c-1.0986,-4.21365 -3.42834,-7.67207 -5.81546,-11.13464c-0.73121,-1.06064 -1.04497,-2.45005 -2.01472,-3.29812c-1.30058,-1.13736 -2.36329,-0.96463 -3.63259,-2.37248c-1.69829,-1.88368 -2.50375,-4.77035 -3.10727,-7.15064c-1.19689,-4.72052 -1.17279,-13.78065 -0.54713,-12.08235c1.60121,1.63638 10.48211,1.83406 12.39305,3.08902c0,0 4.32826,3.24993 5.84315,5.06976z" data-paper-data="{&quot;index&quot;:null}" fill="#635c5e" stroke="#000000" stroke-width="5"/><path d="M272.65202,166.84961c0,27.58387 2.66862,53.52672 -17.11263,53.52672c-7.24062,0 -27.16183,1.49219 -31.84959,-2.50995c-8.11913,-6.93163 -3.17161,-30.3458 -3.17161,-47.83302c0,-10.78279 -4.35975,-20.41962 -3.15631,-30.58269c0.57927,-4.89194 9.56438,-15.04058 20.32211,-17.97334c7.20297,-1.96367 15.63972,1.28363 21.24943,4.17213c13.13274,6.76219 13.71859,33.07484 13.71859,41.20015z" fill="#635c5e" stroke="#000000" stroke-width="5"/><path d="M227.43235,155.50578c0,-9.95445 8.06967,-18.02412 18.02412,-18.02412c9.95445,0 18.02412,8.06967 18.02412,18.02412c0,9.95445 -8.06967,18.02412 -18.02412,18.02412c-9.95445,0 -18.02412,-8.06967 -18.02412,-18.02412z" fill="#fc6fb4" stroke="#000000" stroke-width="5"/><path d="M248.48156,155.45206c0,3.501 -1.5542,6.33912 -3.47142,6.33912c-1.91721,0 -3.47142,-2.83812 -3.47142,-6.33912c0,-3.501 1.5542,-6.33911 3.47142,-6.33911c1.91721,0 3.47142,2.83811 3.47142,6.33911z" fill="#000000" stroke="none" stroke-width="0"/><path d="M258.00951,155.32041c0,3.501 -1.55421,6.33912 -3.47143,6.33912c-1.91721,0 -3.47142,-2.83812 -3.47142,-6.33912c0,-3.501 1.5542,-6.33911 3.47142,-6.33911c1.91722,0 3.47143,2.83811 3.47143,6.33911z" fill="#000000" stroke="none" stroke-width="0"/></g></g></svg>