<svg version="1.1" xmlns="http://www.w3.org/2000/svg" xmlns:xlink="http://www.w3.org/1999/xlink" width="78.28749" height="77.16588" viewBox="0,0,78.28749,77.16588"><g transform="translate(-200.4834,-141.41706)"><g data-paper-data="{&quot;isPaintingLayer&quot;:true}" fill-rule="nonzero" stroke="#000000" stroke-width="3.5" stroke-linecap="butt" stroke-linejoin="miter" stroke-miterlimit="10" stroke-dasharray="" stroke-dashoffset="0" style="mix-blend-mode: normal"><path d="M203.94036,172.17644c0,0 2.15669,-12.32693 11.24873,-20.2239c8.33516,-7.23957 23.19812,-10.20865 32.75672,-8.14321c9.16814,1.98107 21.12084,10.20637 25.7162,19.82797c5.42181,11.35196 2.65091,24.1775 2.65091,24.1775c0,0 -16.85845,-3.33233 -36.84359,-7.65074c-19.98513,-4.31841 -35.52898,-7.9876 -35.52898,-7.9876z" fill="#4eff45"/><path d="M239.59752,179.57078c19.98513,4.31841 36.7154,8.24394 36.7154,8.24394c0,0 -2.77177,12.82533 -12.39689,20.92595c-8.15796,6.86585 -22.44041,9.42225 -31.60857,7.44116c-9.55858,-2.06544 -21.86965,-10.90631 -26.47209,-20.94145c-5.02035,-10.94637 -1.89505,-23.06401 -1.89505,-23.06401c0,0 15.67203,3.07596 35.65715,7.39438z" data-paper-data="{&quot;index&quot;:null}" fill="#ffad78"/></g></g></svg>