<svg version="1.1" xmlns="http://www.w3.org/2000/svg" xmlns:xlink="http://www.w3.org/1999/xlink" width="413.00001" height="435.66708" viewBox="0,0,413.00001,435.66708"><g transform="translate(-126.49999,59)"><g data-paper-data="{&quot;isPaintingLayer&quot;:true}" fill-rule="nonzero" stroke-linecap="butt" stroke-linejoin="miter" stroke-miterlimit="10" stroke-dasharray="" stroke-dashoffset="0" style="mix-blend-mode: normal"><path d="M160.5,73v-39h131v39z" fill="#fff866" stroke="#f2eb61" stroke-width="2"/><path d="M349.5,150v-36h134v36z" fill="#fff866" stroke="#f2eb61" stroke-width="2"/><path d="M161.5,232v-34h141v34z" fill="#fff866" stroke="#f2eb61" stroke-width="2"/><path d="M471.5,150v-27h67v27z" fill="#fff866" stroke="#f2eb61" stroke-width="2"/><path d="M242.26025,72.21707v-37.06973h26.91968v37.06973z" fill="#f2eb61" stroke="none" stroke-width="0"/><path d="M376.85866,150.32828v-35.74581h19.41748v35.74581z" fill="#f2eb61" stroke="none" stroke-width="0"/><path d="M258.58858,231.96994v-33.53928h20.74139v33.53928z" fill="#f2eb61" stroke="none" stroke-width="0"/><path d="M127.5,9h39v357h-38.16545c0.32863,-112.2984 0.28396,-224.59833 -0.07754,-336.89656c0,-0.04979 -0.00036,-0.0995 -0.00109,-0.14911c-0.01955,-1.70793 -0.28056,-2.96236 -0.75593,-3.93792z" fill="#ffae66" stroke="#df9859" stroke-width="2"/><path d="M290.5,332v-34h220v34z" fill="#ffae66" stroke="#df9859" stroke-width="2"/><path d="M451.5,151v-209h33v79.592c-0.03238,17.22691 -0.03186,34.45392 0,51.68085v77.72715z" fill="#ffae66" stroke="#df9859" stroke-width="2"/><path d="M144.94529,18.06231l14.52194,14.52194l-31.10895,31.10895c-0.02543,-9.6535 -0.05325,-19.30699 -0.08341,-28.96047z" fill="#df9859" stroke="none" stroke-width="0"/><path d="M131.03915,33.60384l14.52194,-14.52194l22.20344,22.20344c-0.0289,9.0551 -0.05545,18.11022 -0.07961,27.16535l-0.89946,0.89946z" fill="#df9859" stroke="none" stroke-width="0"/><path d="M145.74361,77.68416l14.52194,14.52194l-31.77976,31.77976c-0.01536,-9.66348 -0.03319,-19.32696 -0.05345,-28.99043z" fill="#df9859" stroke="none" stroke-width="0"/><path d="M131.83747,93.22569l14.52194,-14.52194l21.25114,21.25114c-0.01982,9.66424 -0.03688,19.32849 -0.05113,28.99275z" fill="#df9859" stroke="none" stroke-width="0"/><path d="M145.74361,142.51009l14.52194,14.52194l-31.71407,31.71407c-0.00418,-9.67457 -0.01092,-19.34915 -0.02016,-29.02372z" fill="#df9859" stroke="none" stroke-width="0"/><path d="M131.83747,158.05162l14.52194,-14.52194l21.16021,21.16021c-0.00726,9.67691 -0.01165,19.35383 -0.01313,29.03075z" fill="#df9859" stroke="none" stroke-width="0"/><path d="M146.54194,202.13194l14.52194,14.52194l-32.51976,32.51976c0.0066,-9.68527 0.01057,-19.37054 0.01194,-29.05582z" fill="#df9859" stroke="none" stroke-width="0"/><path d="M132.63579,217.67347l14.52195,-14.52194l20.35345,20.35345c0.00456,9.68883 0.01208,19.37766 0.02261,29.06649z" fill="#df9859" stroke="none" stroke-width="0"/><path d="M145.9417,265.75738l14.52194,14.52194l-32.00013,32.00013c0.01822,-9.6968 0.03373,-19.39361 0.04655,-29.09043z" fill="#df9859" stroke="none" stroke-width="0"/><path d="M132.03555,281.29892l14.52195,-14.52194l21.02795,21.02795c0.01792,9.70231 0.03891,19.40461 0.06302,29.1069z" fill="#df9859" stroke="none" stroke-width="0"/><path d="M146.74001,325.37924l14.52194,14.52194l-32.9479,32.9479c0.02972,-9.70822 0.05665,-19.41645 0.08081,-29.12469z" fill="#df9859" stroke="none" stroke-width="0"/><path d="M132.83387,340.92077l14.52195,-14.52194l20.37675,20.37675c0.02251,7.14799 0.04673,14.29596 0.07268,21.44393c0.01037,2.85654 1.01595,5.07365 2.57119,6.65132l-1.79625,1.79625z" fill="#df9859" stroke="none" stroke-width="0"/><path d="M483.59099,136.49744l-14.52194,14.52194l-17.6864,-17.6864c0.03526,-9.65462 0.06182,-19.3093 0.07989,-28.96399z" data-paper-data="{&quot;index&quot;:null}" fill="#df9859" stroke="none" stroke-width="0"/><path d="M469.68485,149.99978l-14.52195,-14.52194l29.43509,-29.43508c0.03968,9.6323 0.08883,19.26454 0.1472,28.89668z" data-paper-data="{&quot;index&quot;:null}" fill="#df9859" stroke="none" stroke-width="0"/><path d="M484.38931,76.87559l-14.52194,14.52194l-18.37575,-18.37575c-0.00008,-9.68963 -0.00848,-19.37927 -0.02501,-29.06889z" data-paper-data="{&quot;index&quot;:null}" fill="#df9859" stroke="none" stroke-width="0"/><path d="M470.48317,90.37793l-14.52195,-14.52194l28.51469,-28.51468c0.00001,9.67126 0.01014,19.34252 0.03012,29.01376z" data-paper-data="{&quot;index&quot;:null}" fill="#df9859" stroke="none" stroke-width="0"/><path d="M483.78907,13.25014l-14.52194,14.52194l-17.89177,-17.89178c-0.03541,-9.72462 -0.07875,-19.44919 -0.12982,-29.1737z" data-paper-data="{&quot;index&quot;:null}" fill="#df9859" stroke="none" stroke-width="0"/><path d="M469.88293,26.75248l-14.52195,-14.52194l29.26745,-29.26744c-0.04651,9.71699 -0.08218,19.43406 -0.10728,29.15116z" data-paper-data="{&quot;index&quot;:null}" fill="#df9859" stroke="none" stroke-width="0"/><path d="M312.78652,332.15283v-33.00825h40.51013v33.00825z" fill="#df9859" stroke="none" stroke-width="0"/><path d="M455.94481,331.6502v-33.00825h40.51013v33.00825z" fill="#df9859" stroke="none" stroke-width="0"/></g></g></svg>