<svg version="1.1" xmlns="http://www.w3.org/2000/svg" xmlns:xlink="http://www.w3.org/1999/xlink" width="40.66667" height="40.66666" viewBox="0,0,40.66667,40.66666"><g transform="translate(-219.66667,-159.66667)"><g data-paper-data="{&quot;isPaintingLayer&quot;:true}" fill-rule="nonzero" stroke-linecap="butt" stroke-linejoin="miter" stroke-miterlimit="10" stroke-dasharray="" stroke-dashoffset="0" style="mix-blend-mode: normal"><path d="M222.16667,197.83333v-35.66666h35.66667v35.66666z" fill="none" stroke="#ffffff" stroke-width="5"/><path d="M244.80285,174.07939c0.74333,0.48689 1.19005,1.09044 1.56533,1.8827c0.84051,1.77441 0.19837,4.37573 -0.87572,5.91551c-2.04617,2.93335 -14.3655,3.85479 -12.25115,-1.43108c1.20553,-3.01383 8.44263,0.35225 8.32119,-2.46c-0.01883,-0.43604 -3.82299,-1.69195 -4.78284,-1.89512c-5.07654,-1.07453 -7.69555,0.47686 -8.56152,-5.19067c-0.13764,-0.9008 -0.58398,-2.29194 -0.09279,-3.15151c1.75628,-3.07349 8.04621,-1.27863 10.52902,-0.61051c1.89692,0.51046 4.70235,-0.12382 5.67697,1.58176c0.73685,0.43488 1.23117,1.23698 1.23117,2.15454c0,1.2493 -0.91636,2.28457 -2.1136,2.47032c-0.39435,0.32871 0.92449,0.45278 1.35395,0.73407z" fill="#ff0000" stroke="none" stroke-width="0.5"/></g></g></svg>