<svg version="1.1" xmlns="http://www.w3.org/2000/svg" xmlns:xlink="http://www.w3.org/1999/xlink" width="488" height="369" viewBox="0,0,488,369"><g transform="translate(4,4.5)"><g data-paper-data="{&quot;isPaintingLayer&quot;:true}" fill-rule="nonzero" stroke="none" stroke-linecap="butt" stroke-linejoin="miter" stroke-miterlimit="10" stroke-dasharray="" stroke-dashoffset="0" style="mix-blend-mode: normal"><path d="M-4,364.5v-369h488v369zM278.90514,39.91038l-1.99726,2.89856c-0.68876,-2.95802 -2.85652,-7.61298 -9.67925,-7.61298c-10,0 -10,10 -10,10c0,1.85931 0,3.71862 0,5.57793c-0.98713,0.31058 -1.84563,0.79069 -2.42752,1.63488c-2.93829,4.26282 -4.70063,14.85778 1.12313,18.76741c0.27973,0.18779 0.56315,0.36878 0.84993,0.54361l-0.18757,0.18757l3.57097,3.57097c1.80964,1.80964 4.30964,2.92893 7.07107,2.92893c1.60415,0 3.12008,-0.37772 4.46371,-1.04907c1.34362,0.67135 2.85956,1.04907 4.46371,1.04907c5.52285,0 10,-4.47715 10,-10v-0.71409c1.23061,-1.63127 2.14384,-4.18564 3.11281,-5.87229c1.65381,-2.87872 3.21413,-5.56785 4.46057,-8.5646c1.58534,-2.0401 4.97075,-7.693 -0.68215,-13.3459c-7.07107,-7.07107 -14.14214,0 -14.14214,0z" fill="#56d6ff" stroke-width="0"/><path d="M139.38831,158.57419c0,2.5 -2.5,2.5 -2.5,2.5h-0.89274c-2.51646,0 -8.28646,0.74019 -10.77687,-0.1903c-1.45187,-0.54246 -2.36368,-2.38262 -3.90746,-2.52021c-8.07996,-0.7201 -16.49836,-0.23117 -24.72335,-0.03708c-0.02881,2.16996 -0.05119,4.33645 -0.05119,6.49678c0,29.1629 0,58.32581 0,87.48871c0,0 0,2.5 -2.5,2.5c-2.5,0 -2.5,-2.5 -2.5,-2.5c0,-29.1629 0,-58.32581 0,-87.48871c0,-2.13557 0.02749,-4.27939 0.0644,-6.4276c-0.08091,0.00012 -0.16178,0.00018 -0.24263,0.00018c0,0 -2.5,0 -2.5,-2.5c0,-2.5 2.5,-2.5 2.5,-2.5c0.11233,0 0.22467,0 0.337,0c0.11308,-5.98645 0.19073,-11.98368 -0.15567,-17.90853c-0.26731,-4.57213 -0.90201,-8.92149 -0.89585,-13.51566c0.00211,-1.57374 0.17439,-3.15548 0.0156,-4.72119c-0.13547,-1.33568 -0.88565,-2.5849 -0.89274,-3.92742c-0.00866,-1.63966 -0.54787,-3.9828 0.8464,-4.84567c0.17994,-0.11136 10.4008,0.1922 11.6492,0.28869c9.18393,0.70982 18.25838,2.67972 27.48397,2.67092c11.36801,0 22.73602,0 34.10403,0h1.60565c0,0 2.5,0 2.5,2.5c0,2.5 -2.5,2.5 -2.5,2.5c-11.36801,0 -24.34167,0 -35.70968,0c-7.70421,-0.00689 -15.34569,-1.23758 -22.99452,-2.12158c-4.51959,-0.52234 -8.461,-0.53012 -12.69802,-2.00284c0.24482,0.09957 0.61305,0.27748 0.68178,0.45288c0.48982,1.24999 0.76092,2.59137 0.89274,3.92742c0.44003,4.45982 -0.0501,8.96092 0.39841,13.44599c0.76891,7.68907 0.73585,15.4823 0.63065,23.25701c5.73314,0 11.46629,0 17.19943,0c1.01871,0 7.98959,-0.0075 8.25529,0.03228c1.25207,0.18747 2.48983,0.61106 3.5921,1.23383c0.62288,0.35193 0.77506,1.30971 1.42786,1.60241c0.5268,0.23621 1.14472,-0.16535 1.72152,-0.1903c2.37842,-0.10287 4.76129,0 7.14194,0h0.89274c0,0 2.5,0 2.5,2.5z" fill="#ffffff" stroke-width="0.5"/><path d="M241.33911,121.25726c2.5,0 2.5,2.5 2.5,2.5l-0.12829,0.99491c0.81063,2.43826 2.19012,4.68662 2.79492,7.18391c1.44064,5.94856 0.90876,12.89039 0.8873,18.97709c-0.01794,5.08961 0.35969,10.37894 -0.55371,15.41711c-0.87427,4.82237 -3.27647,9.50496 -3.91493,14.35688c-0.22362,1.69939 0.29567,3.45794 -0.02314,5.14206c-0.07249,0.38296 -3.45655,8.72855 -3.64713,9.22382c-0.61301,1.59309 -0.46099,3.7131 -1.77408,4.80375c-1.14864,0.95405 -2.97053,0.3616 -4.46363,0.37726c-5.95346,0.06245 -9.79247,-2.18608 -15.07231,-4.58655c-4.41921,-2.22237 -8.51896,-4.77685 -11.62299,-8.77327c-0.12895,-0.16602 -4.86726,-8.46732 -4.94938,-8.61094c-1.71531,-2.9998 -3.81161,-5.802 -5.21335,-8.96051c-1.09555,-2.46858 -1.12549,-5.28302 -1.6709,-7.92814c-1.2767,-6.19178 -2.33687,-11.64654 -1.88433,-18.00075c0.38907,-5.46296 -0.28024,-13.42059 2.86497,-18.25273c0.79327,-1.21873 2.02472,-2.08778 3.03709,-3.13166c0,0 1.76777,-1.76777 3.53553,0c1.76777,1.76777 0,3.53553 0,3.53553c-4.83448,4.63734 -3.99652,11.87119 -4.4503,18.2051c-0.42201,5.89051 0.60882,10.88678 1.79402,16.63479c0.48895,2.37132 0.42296,4.92016 1.43214,7.12102c1.33827,2.91855 3.30175,5.50815 4.8956,8.29536c1.53376,2.68213 2.69952,5.60737 4.58199,8.05738c2.5704,3.34534 6.11761,5.46566 9.80282,7.29608c2.87544,1.30672 5.5346,3.23014 8.60694,3.96255c1.46615,0.34952 3.02498,-0.05429 4.5195,0.14104c0.46389,0.06063 0.98384,0.99085 1.26181,0.61455c0.46309,-0.62692 -0.19158,-1.58568 0.0114,-2.33819c0.80835,-2.9968 2.94717,-5.5758 3.49481,-8.63101c0.28571,-1.59393 -0.24018,-3.25322 -0.02314,-4.85794c0.66952,-4.9502 3.04917,-9.68181 3.95225,-14.59321c0.86889,-4.72545 0.45565,-9.76307 0.47248,-14.537c0.01991,-5.645 0.60902,-12.23947 -0.73956,-17.75286c-0.57974,-2.37013 -1.91282,-4.49514 -2.68611,-6.80937l-0.12829,-2.57605c0,0 0,-2.5 2.5,-2.5z" fill="#ffffff" stroke-width="0.5"/><path d="M339.3625,199.64032c0,2.5 -2.5,2.5 -2.5,2.5h-3.03468c-10.96776,0 -21.94214,0.09737 -32.90912,-0.02283c-3.38679,-0.03712 -6.77215,-0.23146 -10.14897,-0.49379c-1.45082,-0.11271 -6.68678,-0.21106 -8.47116,-1.28241c-1.74008,-1.04476 -3.11679,-2.60062 -4.67519,-3.90093c-0.30172,-0.61144 -4.6456,-9.32505 -4.79758,-9.99208c-0.41164,-1.80661 -0.05092,-3.70552 -0.0625,-5.55839c-0.03857,-6.1707 0.62724,-12.17367 0.89513,-18.31778c0.53374,-12.24142 3.58614,-24.1275 4.46761,-36.31385c0.31467,-4.35028 -0.00629,-8.84836 -0.00629,-13.21391c0,0 0,-2.5 2.5,-2.5c2.5,0 2.5,2.5 2.5,2.5c0,4.4832 0.31723,9.10083 -0.00629,13.56835c-0.87925,12.14164 -3.92395,23.98647 -4.45981,36.17809c-0.26678,6.06952 -0.83497,12.01596 -0.89035,18.10481c-0.01347,1.48062 -0.39164,2.99797 -0.0625,4.44161c0.66063,2.8976 2.61496,5.33823 3.8688,8.03274c0.99853,0.8382 1.88034,1.83943 2.99559,2.51461c1.89083,1.14471 4.38407,0.58612 6.58803,0.75388c3.2676,0.24872 6.54259,0.44454 9.81945,0.47936c10.94916,0.11634 21.90525,0.02254 32.85515,0.02254h3.03468c0,0 2.5,0 2.5,2.5z" fill="#ffffff" stroke-width="0.5"/><path d="M396.23405,187.80939c1.11803,2.23607 -1.11803,3.3541 -1.11803,3.3541l-2.31058,1.08534c-8.2033,2.00277 -15.54112,2.74956 -23.98084,2.74956c-4.99966,0 -10.00043,0.02767 -15,0c-3.35432,-0.01856 -6.50572,0.27623 -9.2121,-2.88391c-1.02875,-1.20123 -0.19441,-3.16049 -0.41767,-4.7262c-0.63583,-4.45911 -0.90491,-8.21381 -0.90491,-12.74473c0,-13.98629 0,-27.97258 0,-41.95887c0,0 0,-2.5 2.5,-2.5c2.5,0 2.5,2.5 2.5,2.5c0,13.98629 0,27.97258 0,41.95887c0,4.32617 0.5878,8.01249 0.88058,12.25204c0.0563,0.81525 -0.91941,1.77071 -0.41767,2.41574c0.772,0.99246 3.97327,0.69393 5.07177,0.68706c4.99946,-0.0313 10.00044,0 15,0c8.05638,0 14.96659,-0.69566 22.79496,-2.60689l1.26039,-0.70014c0,0 2.23607,-1.11803 3.3541,1.11803z" fill="#ffffff" stroke-width="0.5"/><path d="M160.99234,79.29839c2.5,0 2.5,2.5 2.5,2.5l-0.03228,2.27777c-0.03773,0.35019 -0.38588,0.82764 -0.1132,1.05058c0.24842,0.20311 0.55025,-0.34025 0.85342,-0.4454c1.24636,-0.43225 2.5204,-0.78018 3.78295,-1.16255c1.63262,-0.49444 3.24833,-1.05117 4.9025,-1.46786c4.16614,-1.04947 7.4239,-2.21962 11.53453,-3.55075c1.37635,-0.4457 2.94939,-0.38188 4.19274,-1.12152c2.94221,-1.75026 2.2537,-3.45679 1.49868,-5.87158c-2.42518,-2.42518 -5.44953,-3.36166 -8.40731,-5.31966c-5.37066,-3.55529 -11.53072,-8.63917 -15.47957,-13.80777c-1.15482,-1.51153 -2.07357,-3.21835 -2.77448,-4.98669c-2.48167,-6.26109 -3.13601,-18.82879 4.39705,-22.256c3.19872,-1.45528 6.24395,-1.18418 9.57077,-1.18856c5.23839,-0.0069 10.05531,0.07138 15.23116,0.92676c0,0 2.46598,0.411 2.05499,2.87698c-0.411,2.46598 -2.87698,2.05499 -2.87698,2.05499c-4.90586,-0.82508 -9.44072,-0.85179 -14.40916,-0.85873c-2.23833,-0.00313 -5.03825,-0.23342 -7.21148,0.59693c-1.72281,0.65825 -2.64571,2.78084 -3.13481,4.55909c-1.24188,4.51523 0.2764,11.62535 3.1052,15.2126c2.66102,3.37448 6.98943,7.36364 10.32389,10.08685c2.31798,1.89306 4.82756,3.57846 7.47669,4.97086c0.90549,0.47593 2.06075,0.42369 2.89677,1.01317c1.34477,0.9482 2.32702,2.32702 3.49053,3.49053c0.725,2.1107 2.22792,5.11818 1.12519,7.4983c-2.78199,6.0046 -4.13322,5.02689 -9.48484,6.86558c-4.17973,1.43605 -7.64004,2.58576 -11.90955,3.66001c-3.18302,0.80088 -10.37669,4.72668 -13.67242,2.28064c-1.25962,-0.93487 -1.26579,-2.87058 -1.89868,-4.30588l-0.03228,-3.07868c0,0 0,-2.5 2.5,-2.5z" fill="#ffffff" stroke-width="0.5"/><path d="M249.98105,69.97823c2,1.5 0.5,3.5 0.5,3.5l-3.3453,4.18599c-10.10439,2.36946 -21.11635,4.62714 -29.76318,-2.91332c-2.59898,-2.26644 -3.92971,-4.76108 -4.60997,-7.45757c-1.99507,-0.01712 -3.99488,-0.28738 -6.13825,-0.97807c0,0 -2.37171,-0.79057 -1.58114,-3.16228c0.79057,-2.37171 3.16228,-1.58114 3.16228,-1.58114c1.23101,0.42864 2.546,0.70782 3.91047,0.85508c-0.07585,-1.63912 -0.05915,-3.33701 -0.05911,-5.08901c0.00012,-4.31684 -0.28689,-9.18231 0.24476,-13.47056c0.17811,-1.43664 2.14166,-9.80346 2.89053,-10.82525c1.22044,-1.66525 3.35153,-2.41193 5.02729,-3.6179c6.11291,-0.1266 14.08709,-1.45065 19.95066,0.70395c1.99987,0.73486 4.34023,1.17294 5.76785,2.75452c2.98413,3.30596 1.69076,11.14821 0.45813,14.86796c-3.68156,11.10999 -15.02799,16.99716 -25.96862,18.75756c-0.95324,0.15338 -1.87496,0.29816 -2.7765,0.42066c0.56631,1.56917 1.44026,2.72717 3.01761,4.0622c7.0713,5.98501 15.5459,3.65858 23.80134,2.44313l2.01116,-2.95595c0,0 1.5,-2 3.5,-0.5zM216.85119,62.44872c5.33976,-0.47332 10.82859,-2.50706 14.67748,-5.19218c2.79409,-1.94925 6.92622,-3.73702 8.49064,-6.97524c1.90836,-3.95014 2.61286,-7.22591 2.40638,-11.592c-0.04136,-0.87452 0.28701,-1.98364 -0.32894,-2.60582c-0.84959,-0.85818 -2.26114,-0.85762 -3.4236,-1.18467c-5.30571,-1.49275 -11.45248,-0.55908 -16.92724,-0.71331c-0.82262,0.57952 -1.94688,0.87767 -2.46787,1.73855c-0.70795,1.16978 -0.67962,2.64905 -0.99295,3.97999c-1.36475,5.79709 -1.22838,11.5058 -1.22822,17.43388c0.00005,1.69837 -0.22884,3.41532 -0.20567,5.11081z" fill="#ffffff" stroke-width="0.5"/><path d="M296.59921,46.92982c1.83712,1.69558 0.14154,3.5327 0.14154,3.5327l-1.22518,1.31826c-0.90185,1.1266 -1.78532,2.26594 -2.65317,3.4164c0.30267,-0.63558 0.59246,-1.28078 0.86703,-1.9409c0.93625,-1.20482 2.50031,-3.66967 2.45978,-6.65042c0.13544,0.08965 0.27233,0.19688 0.41001,0.32396z" fill="#ffffff" stroke-width="0.5"/><path d="M274.37056,78.94194c-0.97603,0 -1.82142,-0.55932 -2.23314,-1.37492c1.16177,0.51043 2.43913,0.80631 3.78195,0.8375c-0.42587,0.33654 -0.96388,0.53742 -1.54881,0.53742z" fill="#ffffff" stroke-width="0.5"/><path d="M337.67788,59.51982c-0.53062,0.49651 -1.05132,0.69446 -1.52304,0.72547c-2.96223,7.30318 -7.8248,14.73506 -13.66175,19.81522c-3.11511,2.71122 -5.72956,5.26532 -9.70401,1.73297c-1.71706,-1.52606 -2.37887,-7.93484 -2.52432,-9.63802c-0.60563,-7.09179 -0.00629,-14.49051 -0.00629,-21.60303c0,0 0,-2.5 2.5,-2.5c2.5,0 2.5,2.5 2.5,2.5c0,5.9516 0.00599,11.90324 0,17.85484c-0.00313,3.10709 -0.24345,6.91484 1.04036,9.82508c0.44998,1.02005 2.0232,-1.03285 2.79437,-1.838c1.09287,-1.14102 2.07169,-2.38607 3.11103,-3.57607c4.47395,-5.12245 8.16676,-10.61684 10.29674,-17.08694l5.29426,0.25489c0,0 1.70813,1.82546 -0.11734,3.53359z" fill="#ffffff" stroke-width="0.5"/><path d="M380.4283,90.7662c-0.0404,2.49967 -2.54007,2.45928 -2.54007,2.45928l-1.4482,-0.02453c-5.37358,-0.26084 -9.98306,-1.42701 -15.1871,-2.72802c0,0 -2.42536,-0.60634 -1.81902,-3.0317c0.00357,-0.01427 0.0072,-0.02843 0.01089,-0.04249c-3.97787,-1.21049 -7.44271,-3.05726 -10.32654,-6.81681c-0.59165,-0.77132 -0.88162,-1.72777 -1.27983,-2.62078c-0.71382,-0.17403 -1.78915,-0.69208 -1.86593,-2.23415c-0.32093,-0.28769 -0.59332,-0.60105 -0.7068,-1.00658c-0.51917,-1.8554 -0.16076,-3.85043 -0.1903,-5.77687c-0.12876,-8.39572 1.58928,-16.08093 8.75029,-21.17405c1.52966,-1.04421 2.86895,-2.44581 4.58898,-3.13263c3.53444,-1.41134 7.32472,-0.93628 10.96791,-0.7962c3.74412,0.14396 7.24681,-0.06769 10.76216,1.65575c1.97606,0.96878 4.1743,2.01251 5.34453,3.87635c0.90673,1.44415 0.24593,3.40259 0.29581,5.10706c0.08706,2.97453 0.0521,5.95207 0,8.92742c-0.03452,1.97122 0.54237,4.07463 -0.17231,5.91206c-1.76663,4.54199 -5.24434,4.66222 -9.16606,5.83873c-0.39964,0.11989 -9.74461,2.83723 -9.94785,2.86617c-4.10473,0.58459 -8.5736,0.3471 -12.91211,0.16345c2.70115,3.23633 6.22437,3.1832 9.24666,5.70974l0.5167,-1.70029c0,0 1.38675,-2.08013 3.46688,-0.69338c2.08013,1.38675 0.69338,3.46688 0.69338,3.46688l-1.31755,1.57719c3.44481,0.82957 6.75495,1.49621 10.4779,1.65846l1.29831,0.01986c0,0 2.49967,0.0404 2.45928,2.54007zM350.01333,73.06764c5.16996,0.11625 10.77148,0.71991 15.78056,0.00653c3.18372,-0.45342 6.16037,-1.84966 9.25696,-2.71732c1.1605,-0.32517 5.3226,-0.66492 5.90655,-2.86165c0.35038,-1.31808 -0.143,-2.7244 -0.17231,-4.08794c-0.06396,-2.97512 -0.11353,-5.95378 0,-8.92742c0.03515,-0.92055 0.77359,-1.96014 0.29581,-2.74777c-0.86753,-1.43019 -6.12507,-2.58623 -7.15969,-2.72834c-3.69369,-0.50738 -10.06335,-1.21537 -13.62408,0.26525c-1.36796,0.56882 -2.40406,1.73204 -3.60609,2.59807c-5.94517,4.06716 -6.4824,10.38383 -6.61563,17.07652c-0.02566,1.28912 -0.50933,2.61417 -0.1903,3.86345c0.02517,0.09857 0.06965,0.18423 0.12822,0.26064z" fill="#ffffff" stroke-width="0.5"/><path d="M436.40744,94.52207c-1.11803,2.23607 -3.3541,1.11803 -3.3541,1.11803l-1.59593,-0.80762c-3.5769,-1.43076 -8.89576,-2.50174 -12.03523,-4.69886c-2.21283,-1.54862 -3.79466,-3.95122 -6.14595,-5.28022c-1.3117,-0.7414 -3.26266,-1.4617 -5.1726,-2.31341c0,3.02618 0,6.05237 0,9.07855c0,0 0,2.5 -2.5,2.5c-2.5,0 -2.5,-2.5 -2.5,-2.5c0,-4.08774 0,-8.17548 0,-12.26322c-0.23318,-0.26733 -0.43423,-0.5472 -0.59693,-0.84101c-1.09745,-1.98173 -0.62305,-4.69059 0.59693,-7.09944c0,-3.38319 0,-6.76637 0,-10.14956c0,-3.90579 -0.77063,-8.44633 1.26611,-12.02723c0.90202,-1.5859 2.65085,-2.6085 3.45181,-4.24776c1.77393,-3.63059 5.83667,-11.30958 11.68204,-7.22098c1.77303,1.24016 2.11552,3.80482 2.79144,5.86024c0.5678,1.72664 0.60268,3.58491 0.90402,5.37736c0.07296,3.78039 0.18105,7.58434 0.08119,11.36563c-0.03203,1.21288 0.3912,2.57006 -0.1903,3.63493c-0.9908,1.81439 -2.69558,3.15533 -4.25736,4.5098c-1.06766,0.92594 -2.23644,1.82377 -3.57348,2.28159c-1.6173,0.55378 -3.53552,-0.70401 -5.1278,-0.08194c-0.88232,0.3447 -1.49277,1.16637 -2.02768,1.99054c0,1.35097 0,2.70194 0,4.05291c0.18742,0.05615 0.37243,0.11573 0.5403,0.19749c0.31201,0.15196 7.00342,3.49108 7.14194,3.57097c2.3847,1.37543 4.06069,3.73508 6.28157,5.36182c0.63669,0.46636 1.52024,0.43081 2.26009,0.70557c0.03977,0.01477 8.6856,3.47337 8.98684,3.59386l1.97504,0.97787c0,0 2.23607,1.11803 1.11803,3.3541zM408.10363,66.14531c0.03812,-0.01646 0.07621,-0.03238 0.11426,-0.04775c1.72632,-0.69749 3.81651,0.5001 5.5851,-0.08194c0.85143,-0.2802 4.63789,-3.8731 4.66755,-3.92152c0.30157,-0.49231 -0.16956,-1.14456 -0.1903,-1.72152c-0.13037,-3.62583 -0.00245,-7.27989 -0.06031,-10.90914c-0.01438,-0.08722 -0.99107,-6.80374 -1.51949,-7.55376c-0.57634,-0.81803 -3.51852,2.65092 -3.61374,2.81513c-1.05634,1.82169 -1.56759,3.97354 -2.8715,5.6271c-0.80863,1.02547 -2.00717,1.98043 -2.14386,3.27919c-0.42326,4.02165 0.03228,8.4143 0.03228,12.45438c0,0.01994 0,0.03988 0,0.05983z" fill="#ffffff" stroke-width="0.5"/><path d="M282.09872,79.01799c-0.79057,2.37171 -3.16228,1.58114 -3.16228,1.58114l-3.20198,-1.13782c-1.75902,-1.72459 -2.93173,-3.96274 -4.28475,-6.0213c-0.56488,-0.85944 -1.72654,-1.32011 -2.06708,-2.29055c-0.75528,-2.15234 -0.14054,-4.86432 -1.53645,-6.66833c-0.42422,-0.54824 -0.98027,-1.00691 -1.54201,-1.45789c-0.81057,6.25291 -1.94125,12.47363 -1.932,18.77515c0,0 0,2.5 -2.5,2.5c-2.5,0 -2.5,-2.5 -2.5,-2.5c0.01226,-9.04991 2.28211,-17.89852 2.68314,-26.93888c0.44461,-10.02273 -0.79007,-20.96889 4.84627,-29.74799c1.0367,-1.61475 1.66772,-3.56314 3.07734,-4.86511c2.98201,-2.75429 9.55329,-1.59106 12.92111,-1.50508c4.92021,3.91133 5.53586,6.4401 5.57618,12.70707c0.01778,2.76326 0.93542,5.73858 -0.12829,8.28896c-1.12777,2.70397 -3.98388,4.3303 -5.60153,6.77295c-1.10739,1.67216 -1.65043,3.83404 -3.21988,5.08274c-0.93585,0.74459 -7.95247,5.30079 -9.01606,5.75229c-0.67241,0.28545 -1.57224,-0.30634 -2.18986,0.08374c-0.32166,0.20315 0.07565,0.80674 0.325,1.09407c0.97044,1.1182 2.37919,1.82985 3.25107,3.02649c0.98439,1.35106 1.78606,2.88074 2.22767,4.493c0.28142,1.02741 -0.43661,2.17559 -0.12229,3.19341c0.19427,0.62906 1.13441,0.73549 1.50389,1.28042c1.02757,1.51553 1.59165,3.36829 2.85719,4.6916l2.15447,0.64766c0,0 2.37171,0.79057 1.58114,3.16228zM267.11291,53.17242c0.50357,-0.09496 0.99764,-0.20736 1.4177,-0.41842c1.36882,-0.68779 2.61409,-1.59843 3.90294,-2.42644c1.79336,-1.15212 4.13143,-1.90451 5.16684,-3.7677c0.45711,-0.82255 0.36864,-1.89665 0.89274,-2.67823c1.13867,-1.69804 4.20555,-3.70455 5.11137,-5.72544c0.25796,-0.5755 -0.11623,-1.2571 -0.12829,-1.88766c-0.03072,-1.60643 -0.01162,-3.21348 0,-4.82016c0.02678,-3.70209 0.41082,-5.43707 -2.27866,-8.00584c-0.74904,0.02697 -6.99376,-0.52278 -8.00329,0.63289c-6.83368,7.82295 -5.85349,19.31113 -6.08135,29.09698z" fill="#ff0000" stroke-width="0.5"/></g></g></svg>