<svg version="1.1" xmlns="http://www.w3.org/2000/svg" xmlns:xlink="http://www.w3.org/1999/xlink" width="40.66667" height="40.66666" viewBox="0,0,40.66667,40.66666"><g transform="translate(-219.66667,-159.66667)"><g data-paper-data="{&quot;isPaintingLayer&quot;:true}" fill-rule="nonzero" stroke-linecap="butt" stroke-linejoin="miter" stroke-miterlimit="10" stroke-dasharray="" stroke-dashoffset="0" style="mix-blend-mode: normal"><path d="M222.16667,197.83333v-35.66666h35.66667v35.66666z" fill="none" stroke="#ffffff" stroke-width="5"/><path d="M228.6875,174.25c0,-1.38071 1.11929,-2.5 2.5,-2.5c1.38071,0 2.5,1.11929 2.5,2.5c0,1.38071 -1.11929,2.5 -2.5,2.5c-1.38071,0 -2.5,-1.11929 -2.5,-2.5z" fill="#ff0000" stroke="none" stroke-width="0.5"/><path d="M244.5625,174.5c0,-1.38071 1.11929,-2.5 2.5,-2.5c1.38071,0 2.5,1.11929 2.5,2.5c0,1.38071 -1.11929,2.5 -2.5,2.5c-1.38071,0 -2.5,-1.11929 -2.5,-2.5z" fill="#ff0000" stroke="none" stroke-width="0.5"/><path d="M237.46303,185.78184c2.53213,0.41161 5.47768,1.0235 8.06394,0.71816c0.66056,-0.07799 1.44887,-1.25779 2.1675,-1.48607c2.35594,-0.74838 4.00294,1.03099 3.21435,3.63361c-1.44675,4.77476 -13.84355,2.24527 -17.12814,1.52385c-2.48139,-0.54501 -6.96203,-1.72054 -6.77603,-3.20856c-0.12378,-0.29635 -0.19214,-0.62161 -0.19214,-0.96284c0,-1.38071 1.11929,-2.5 2.5,-2.5c0.51911,0 1.00127,0.15822 1.40088,0.42906c1.63676,0.0873 3.33737,1.29809 6.74965,1.85277z" fill="#ff0000" stroke="none" stroke-width="0.5"/></g></g></svg>