<svg version="1.1" xmlns="http://www.w3.org/2000/svg" xmlns:xlink="http://www.w3.org/1999/xlink" width="40.66667" height="40.66666" viewBox="0,0,40.66667,40.66666"><g transform="translate(-219.66667,-159.66667)"><g data-paper-data="{&quot;isPaintingLayer&quot;:true}" fill-rule="nonzero" stroke-linecap="butt" stroke-linejoin="miter" stroke-miterlimit="10" stroke-dasharray="" stroke-dashoffset="0" style="mix-blend-mode: normal"><path d="M222.16667,197.83333v-35.66666h35.66667v35.66666z" fill="none" stroke="#ffffff" stroke-width="5"/><path d="M245.0651,167.07004c2.99477,2.18848 3.19695,8.4911 1.46851,11.29243c-1.24269,2.01407 -1.72743,2.77322 -3.32834,4.2803c-0.67159,0.63222 -2.91339,0.7618 -2.33687,1.48177c1.50635,1.88114 10.02609,1.02633 5.3191,5.93797c-0.894,0.93287 -3.98615,-0.1209 -4.75348,-0.37042c-2.89015,-0.93983 -11.82963,-4.43803 -11.99652,-7.44208c-0.21442,-3.85959 7.8636,-2.4997 8.94224,-2.5c3.29136,-0.0009 4.20541,-5.19504 4.05776,-7.48686c-0.19116,-2.96738 -6.98381,0.8612 -7.78364,1.40332c-0.30991,0.21006 -0.69867,1.08759 -0.946,1.67658c-0.05229,0.17467 -0.12316,0.34132 -0.21032,0.49764c-0.42717,0.76613 -1.24559,1.28431 -2.18503,1.28431c-1.38071,0 -2.5,-1.11929 -2.5,-2.5c0,-0.19216 0.02168,-0.37925 0.06272,-0.55896c-0.37188,-4.7819 11.98962,-10.06542 16.18988,-6.996z" fill="#ff0000" stroke="none" stroke-width="0.5"/></g></g></svg>