<svg version="1.1" xmlns="http://www.w3.org/2000/svg" xmlns:xlink="http://www.w3.org/1999/xlink" width="43.24458" height="40.66666" viewBox="0,0,43.24458,40.66666"><g transform="translate(-219.66667,-159.66667)"><g data-paper-data="{&quot;isPaintingLayer&quot;:true}" fill-rule="nonzero" stroke-linecap="butt" stroke-linejoin="miter" stroke-miterlimit="10" stroke-dasharray="" stroke-dashoffset="0" style="mix-blend-mode: normal"><path d="M222.16667,197.83333v-35.66666h35.66667v35.66666z" fill="none" stroke="#ffffff" stroke-width="5"/><path d="M234.9375,181.75c0.42911,-1.14606 1.33451,-1.94239 2.52283,-2.4999c1.58955,-0.74575 3.68531,-1.06417 5.82443,-1.22068c0.91464,-2.21632 1.61631,-3.13839 1.37743,-3.1773c-4.35428,-0.70929 -8.8166,0.70069 -13.22469,0.52288c-0.04423,-0.00178 -0.09025,-0.00285 -0.13748,-0.00372c-1.31677,-0.07136 -2.36252,-1.1617 -2.36252,-2.49628c0,-0.81357 0.38862,-1.53638 0.99036,-1.99291c0.07697,-0.07451 0.16278,-0.14011 0.25964,-0.19459c2.1175,-1.19111 4.85456,-0.20836 7.28185,-0.3125c4.45747,-0.19124 10.82917,-3.11705 13.93868,0.88089c0.69648,0.89548 -1.59964,4.27638 -1.80788,4.75329c-0.2567,0.58788 -0.53313,1.18986 -0.80979,1.79923c0.99294,-0.04248 1.87898,-0.10666 2.58627,-0.23377c1.54619,-0.27787 7.337,-1.58719 9.93425,-0.93788c3.20714,0.80179 0.98243,4.70899 -1.34729,4.97294c-2.56867,0.29103 -5.14026,0.55621 -7.70787,0.85643c-0.99468,0.1163 -2.02037,0.37191 -3.00871,0.49614c-0.76542,0.09621 -1.53338,0.16996 -2.30178,0.23967c-0.44569,3.4355 -0.89443,10.04464 -5.19522,5.92305c-0.58662,-0.56217 -0.38123,-2.88585 0.0374,-5.2381c-2.13883,0.32628 -4.51687,0.62633 -4.87212,0.30848z" fill="#ff0000" stroke="none" stroke-width="0.5"/></g></g></svg>