<svg version="1.1" xmlns="http://www.w3.org/2000/svg" xmlns:xlink="http://www.w3.org/1999/xlink" width="40.66667" height="40.66666" viewBox="0,0,40.66667,40.66666"><g transform="translate(-219.66667,-159.66667)"><g data-paper-data="{&quot;isPaintingLayer&quot;:true}" fill-rule="nonzero" stroke-linecap="butt" stroke-linejoin="miter" stroke-miterlimit="10" stroke-dasharray="" stroke-dashoffset="0" style="mix-blend-mode: normal"><path d="M222.16667,197.83333v-35.66666h35.66667v35.66666z" fill="none" stroke="#ffffff" stroke-width="5"/><path d="M237.94447,168.76393c1.17914,-0.72986 2.96407,-2.07231 4.36107,-1c3.43305,2.63515 1.18269,10.56159 1.25697,14.23852c0.0325,1.60868 2.28915,5.5209 0.9375,6.87255c-3.76647,3.76647 -5.89403,-3.5718 -5.9375,-6.625c-0.04371,-3.06974 -0.01351,-3.1895 0.25,-5.22514c0.10976,-0.84791 0.89995,-2.92308 0.125,-2.5619c-2.69395,1.25555 -5.94374,2.92813 -8.86766,3.82332c-0.36937,0.21535 -0.79895,0.33872 -1.25734,0.33872c-1.38071,0 -2.5,-1.11929 -2.5,-2.5c0,-1.01969 0.61048,-1.89679 1.48588,-2.28576c2.64665,-2.11872 8.09047,-3.80293 10.14608,-5.07531z" fill="#ff0000" stroke="none" stroke-width="0.5"/></g></g></svg>