<svg version="1.1" xmlns="http://www.w3.org/2000/svg" xmlns:xlink="http://www.w3.org/1999/xlink" width="40.66667" height="40.66666" viewBox="0,0,40.66667,40.66666"><g transform="translate(-219.66667,-159.66667)"><g data-paper-data="{&quot;isPaintingLayer&quot;:true}" fill-rule="nonzero" stroke-linecap="butt" stroke-linejoin="miter" stroke-miterlimit="10" stroke-dasharray="" stroke-dashoffset="0" style="mix-blend-mode: normal"><path d="M222.16667,197.83333v-35.66666h35.66667v35.66666z" fill="none" stroke="#ffffff" stroke-width="5"/><path d="M241.33027,172.76777c-0.79279,0.82558 -3.11062,1.44107 -2.46753,2.38793c0.11917,0.17546 5.21316,-1.88062 5.44977,2.0943c0.16129,2.70964 -0.13597,13.5 -3.25,13.5c-3.50755,0 -2.67672,-4.95223 -2.34098,-7.161c0.00568,-0.03737 0.69459,-3.39898 0.59098,-3.41564c-2.2445,-0.36099 -4.51812,1.75379 -7.125,0.26414c-4.38462,-2.5055 3.81644,-10.67189 5.84546,-11.83133c0.43488,-0.73685 1.23698,-1.23117 2.15454,-1.23117c1.38071,0 2.5,1.11929 2.5,2.5c0,0.17817 -0.01864,0.35198 -0.05407,0.5196c-0.04039,0.70838 -0.45316,1.488 -1.30316,2.37317z" fill="#ff0000" stroke="none" stroke-width="0.5"/></g></g></svg>