<svg version="1.1" xmlns="http://www.w3.org/2000/svg" xmlns:xlink="http://www.w3.org/1999/xlink" width="40.66667" height="40.66666" viewBox="0,0,40.66667,40.66666"><g transform="translate(-219.66667,-159.66667)"><g data-paper-data="{&quot;isPaintingLayer&quot;:true}" fill-rule="nonzero" stroke-linecap="butt" stroke-linejoin="miter" stroke-miterlimit="10" stroke-dasharray="" stroke-dashoffset="0" style="mix-blend-mode: normal"><path d="M222.16667,197.83333v-35.66666h35.66667v35.66666z" fill="none" stroke="#ffffff" stroke-width="5"/><path d="M238.0625,177.77443c-0.00864,0.05886 4.51878,0.19828 5.47855,0.3757c3.13331,0.5792 4.17974,2.85864 4.02145,5.72487c-0.28617,5.18176 -8.43856,3.0521 -11.24303,1.48607c-5.87959,-3.2832 -3.39048,-13.84489 2.61803,-15.67357c1.65077,-0.50241 5.61045,-1.33797 6.39383,0.03296c0.73685,0.43488 1.23117,1.23698 1.23117,2.15454c0,1.38071 -1.11929,2.5 -2.5,2.5c-0.2869,0 -0.56252,-0.04833 -0.81915,-0.13729c-2.29761,0.54378 -4.69236,0.20705 -5.18085,3.53672z" fill="#ff0000" stroke="none" stroke-width="0.5"/></g></g></svg>