<svg version="1.1" xmlns="http://www.w3.org/2000/svg" xmlns:xlink="http://www.w3.org/1999/xlink" width="686.29851" height="463"><defs><linearGradient x1="262.35075" y1="-17" x2="262.35075" y2="145" gradientUnits="userSpaceOnUse" id="color-1"><stop offset="0" stop-color="#4affbe"/><stop offset="1" stop-color="#4affbe" stop-opacity="0"/></linearGradient><linearGradient x1="237.35075" y1="384" x2="237.35075" y2="222" gradientUnits="userSpaceOnUse" id="color-2"><stop offset="0" stop-color="#ff4abe"/><stop offset="1" stop-color="#ff4abe" stop-opacity="0"/></linearGradient></defs><g transform="translate(93.2985,57)"><g data-paper-data="{&quot;isPaintingLayer&quot;:true}" fill="none" fill-rule="nonzero" stroke="none" stroke-width="0" stroke-linecap="butt" stroke-linejoin="miter" stroke-miterlimit="10" stroke-dasharray="" stroke-dashoffset="0" font-family="none" font-weight="none" font-size="none" text-anchor="none" style="mix-blend-mode: normal"><path d="M-8,361v-418h58v418z" data-paper-data="{&quot;origPos&quot;:null}" fill="#ff4992"/><path d="M47,366v-418h58v418z" data-paper-data="{&quot;origPos&quot;:null}" fill="#4affbe"/><path d="M104,380v-418h58v418z" data-paper-data="{&quot;origPos&quot;:null}" fill="#ff4992"/><path d="M159,385v-418h58v418z" data-paper-data="{&quot;origPos&quot;:null}" fill="#4affbe"/><path d="M216,392v-418h58v418z" data-paper-data="{&quot;origPos&quot;:null}" fill="#ff4992"/><path d="M271,397v-418h58v418z" data-paper-data="{&quot;origPos&quot;:null}" fill="#4affbe"/><path d="M326,397v-418h58v418z" data-paper-data="{&quot;origPos&quot;:null}" fill="#ff4992"/><path d="M381,402v-418h58v418z" data-paper-data="{&quot;origPos&quot;:null}" fill="#4affbe"/><path d="M438,401v-418h58v418z" data-paper-data="{&quot;origPos&quot;:null}" fill="#ff4992"/><path d="M493,406v-418h58v418z" data-paper-data="{&quot;origPos&quot;:null}" fill="#4affbe"/><path d="M-68.29851,145v-162h661.29851v162z" data-paper-data="{&quot;origPos&quot;:null}" fill="url(#color-1)"/><path d="M568,222v162h-661.2985v-162z" data-paper-data="{&quot;origPos&quot;:null,&quot;index&quot;:null}" fill="url(#color-2)"/></g></g></svg>