<svg version="1.1" xmlns="http://www.w3.org/2000/svg" xmlns:xlink="http://www.w3.org/1999/xlink" width="409.0766" height="291.36217" viewBox="0,0,409.0766,291.36217"><g transform="translate(-34.85701,-31.86123)"><g data-paper-data="{&quot;isPaintingLayer&quot;:true}" fill-rule="nonzero" stroke-linecap="butt" stroke-linejoin="miter" stroke-miterlimit="10" stroke-dasharray="" stroke-dashoffset="0" style="mix-blend-mode: normal"><path d="M37.35701,320.7234v-286.36217h404.0766v286.36217zM210.98673,70.58682c5.52285,0 10,-4.47715 10,-10c0,-5.52285 -4.47715,-10 -10,-10c-5.52285,0 -10,4.47715 -10,10c0,5.52285 4.47715,10 10,10z" data-paper-data="{&quot;origPos&quot;:null}" fill="#fa0cd6" stroke="#91077c" stroke-width="5"/><text transform="translate(43.80848,83.26962) scale(0.29868,0.29868)" font-size="40" xml:space="preserve" data-paper-data="{&quot;origPos&quot;:null}" fill="#6e4d2c" fill-rule="nonzero" stroke="none" stroke-width="1" stroke-linecap="butt" stroke-linejoin="miter" stroke-miterlimit="10" stroke-dasharray="" stroke-dashoffset="0" font-family="Sans Serif" font-weight="normal" text-anchor="start" style="mix-blend-mode: normal"><tspan x="0" dy="0"> </tspan></text><text transform="translate(132.37711,305.10921) scale(0.68603,0.68603)" font-size="40" xml:space="preserve" data-paper-data="{&quot;origPos&quot;:null}" fill="#ffffff" fill-rule="nonzero" stroke="none" stroke-width="1" stroke-linecap="butt" stroke-linejoin="miter" stroke-miterlimit="10" stroke-dasharray="" stroke-dashoffset="0" font-family="Sans Serif" font-weight="normal" text-anchor="start" style="mix-blend-mode: normal"><tspan x="0" dy="0">Space to Proceed</tspan></text><path d="M165.54387,235.11633c0.79057,2.37171 -1.58114,3.16228 -1.58114,3.16228l-2.2239,0.72028c-3.3349,2.20172 -6.97987,5.33213 -10.64027,6.86508c-1.67339,0.7008 -3.53482,0.81892 -5.30432,1.21917c-4.97007,1.12419 -9.41926,2.21733 -14.52522,2.19741c-1.6379,-0.01234 -8.95991,-0.00176 -10.45317,-0.29057c-6.9139,-1.33721 -12.90597,-5.30519 -18.77382,-8.91234c-7.15382,-4.39768 -14.281,-9.14865 -20.45815,-14.84453c-3.51583,-3.2419 -8.25282,-6.49347 -10.42623,-10.90079c-0.63834,-1.29445 -0.7406,-2.78998 -1.09806,-4.1883c-0.13811,-0.54023 -2.4636,-9.82035 -2.49354,-10.12822c-0.59963,-6.16418 1.61236,-13.48861 2.67201,-19.51935c3.04103,-5.02264 6.2726,-9.66856 9.89076,-14.29198c1.16294,-1.48605 2.00963,-3.30322 3.52152,-4.43237c5.15469,-3.84976 11.3847,-1.37529 17.12264,-1.27779c5.00215,0.085 10.19394,-0.17077 15.17549,0.27268c0.50052,0.04456 1.00209,0.09406 1.5045,0.14801c-0.05909,-0.03729 -0.11828,-0.07438 -0.17758,-0.11126c-0.3528,-0.21938 -8.59274,-5.3352 -8.76066,-5.47341c-3.9577,-3.25757 -7.26485,-7.80397 -10.07964,-12.02211c-4.81326,-7.21295 -9.26807,-14.40402 -8.20776,-23.46835c0.87982,-7.52132 7.10203,-14.1469 11.54653,-19.84194c6.17082,-5.7031 12.11818,-11.80813 18.97472,-16.68193c1.56884,-1.11517 2.94501,-2.60416 4.741,-3.29647c0.4255,-0.16402 7.93116,-0.12254 8.32278,-0.12254c5.09221,0 11.57926,-1.14387 16.47815,0.43462c4.37166,1.40861 10.12221,4.35036 14.13297,6.61188c1.15987,0.65401 1.97613,1.84574 3.17631,2.42247c1.62642,0.78155 7.06568,1.28176 8.46526,1.45542c0,0 2.48069,0.31009 2.17061,2.79078c-0.31009,2.48069 -2.79078,2.17061 -2.79078,2.17061c-2.72865,-0.34345 -7.40803,-0.71365 -9.98948,-1.89999c-1.33089,-0.61163 -2.25904,-1.89055 -3.53451,-2.61065c-3.77817,-2.13304 -8.90554,-4.738 -13.01426,-6.13584c-3.53667,-1.20322 -8.85802,-0.23929 -12.51149,-0.23929c-2.25901,0 -4.5184,0.04084 -6.77704,0c-0.86159,-0.01558 -1.78649,-0.45311 -2.5823,-0.12254c-1.30172,0.54072 -2.2173,1.7414 -3.34636,2.58524c-6.49486,4.8542 -12.26025,10.54022 -18.23594,16.02355c-3.69386,4.76676 -9.61022,10.74231 -10.26363,17.06755c-0.80674,7.80964 3.26303,13.86389 7.40547,20.08394c2.53826,3.81131 5.52,7.99098 9.09693,10.93514c2.48875,2.04848 5.48613,3.38571 8.22344,5.08786c2.19329,1.36386 4.2001,3.08123 6.57078,4.10615c2.94487,1.27317 6.072,2.32573 9.23221,3.28446c0.06457,0.01162 0.12912,0.02321 0.19364,0.03477c0.02427,0.00435 9.80149,1.93219 9.85367,1.94255c1.72051,0.34165 3.60004,0.22983 5.1602,1.03155c0.0781,0.04013 0.15563,0.08116 0.23263,0.12303l0.01388,-0.03239l4.54277,1.9469c0.91919,0.36945 1.56816,1.26922 1.56816,2.32056c0,1.38071 -1.11929,2.5 -2.5,2.5h-2.51656v-0.1538l-0.3485,0.12939c-2.7232,-0.76156 -5.44228,-1.53784 -8.16006,-2.3185c-2.99441,-0.87421 -6.09622,-1.72082 -9.17567,-2.64827c-6.26138,-1.13268 -12.75519,-2.51399 -19.07772,-3.07681c-4.86499,-0.43307 -9.93521,-0.1654 -14.81989,-0.25375c-3.88418,-0.07026 -10.59132,-2.57316 -14.01772,0.26561c-1.11416,0.92308 -1.70436,2.33872 -2.57558,3.49387c-3.23541,4.2898 -6.24036,8.51534 -9.1777,13.01357c-0.83757,5.37935 -2.92228,11.94095 -2.3611,17.39014c0.32677,3.17304 1.60189,6.17551 2.35717,9.27463c0.26363,1.08174 0.2811,2.24795 0.76204,3.25212c1.77212,3.70009 6.38797,6.6819 9.30295,9.37563c5.92952,5.47947 12.80986,10.0349 19.68469,14.25869c5.34364,3.28305 10.80998,7.03665 17.10843,8.26378c0.93396,0.18196 8.78316,0.19356 9.53793,0.19914c4.72478,0.05449 8.79413,-1.07419 13.40326,-2.07849c1.4844,-0.32344 3.05624,-0.36328 4.45755,-0.95013c3.60342,-1.50909 7.08602,-4.64345 10.40524,-6.75945l2.80922,-0.95743c0,0 2.37171,-0.79057 3.16228,1.58114z" fill="#ffffff" stroke="none" stroke-width="0.5"/><path d="M232.81407,206.70713c-1.83775,1.6949 -3.53265,-0.14285 -3.53265,-0.14285l-2.1116,-2.28987c-7.90365,-9.04433 -18.27059,-14.52614 -27.64682,-21.88279c-0.59961,-0.47046 -8.06461,-6.29649 -8.31797,-6.63139c-0.0574,-0.07588 -0.29961,-0.61911 -0.64027,-1.41493c-0.94987,6.0983 -1.53437,12.31569 -2.40048,18.37823c-1.13689,7.95795 -2.68466,16.09701 -3.20376,24.11748c-0.10417,1.60948 0.32486,3.25768 0.00522,4.83853l0,5c0,1.38071 -1.11929,2.5 -2.5,2.5c-1.38071,0 -2.5,-1.11929 -2.5,-2.5v-5c-0.53271,-1.63594 -0.1059,-3.44457 0.00522,-5.16147c0.32336,-4.99614 1.30363,-10.06952 1.9492,-15.03565c1.46371,-11.25986 2.48358,-22.91604 4.80828,-34.02918c0.10887,-0.52044 0.22002,-1.04107 0.3334,-1.56184c-1.33568,-3.3133 -2.14326,-6.94399 -2.06298,-10.51429c0.04026,-1.79065 -0.49131,-3.75433 0.29129,-5.36541c0.6822,-1.40442 2.44088,-1.94956 3.70629,-2.86418c1.28333,-0.92758 2.58881,-1.82375 3.89765,-2.71521c1.58205,-4.90577 3.30584,-9.75031 5.12827,-14.48253c4.03667,-8.3422 8.07121,-17.85054 14.38784,-24.79014c2.81981,-3.09791 8.50323,-7.51137 12.7973,-3.67998c3.99396,3.56361 3.34403,10.13374 2.8111,14.6838c-0.60404,5.15721 -3.85181,8.07647 -7.2945,11.72406c-6.37976,6.75948 -13.06518,12.32218 -20.65962,17.68296c-0.67187,0.47424 -1.76011,1.24797 -2.95232,2.08793c-1.87445,5.95912 -3.52952,12.00127 -4.8843,18.02952c0.48979,0.987 0.97731,1.97518 1.38341,2.9891c0.54077,1.35015 0.70379,2.90674 1.58126,4.06664c0.87747,1.1599 2.33103,1.7402 3.48316,2.62785c2.64053,2.03438 5.24541,4.11462 7.86742,6.17282c4.5508,3.57225 9.87415,6.07188 14.39186,9.62737c3.60616,2.83809 6.93051,6.32179 9.95284,9.7596l2.0691,2.2432c0,0 1.6949,1.83775 -0.14285,3.53265zM189.867,154.54481c0.26246,-0.9523 0.53121,-1.90363 0.80596,-2.85362c-0.42068,0.12776 -0.80091,0.28967 -0.96538,0.66281c-0.29789,0.67587 -0.02348,1.43612 0.15942,2.19081zM199.7889,139.61485c7.55297,-5.51105 14.5127,-11.4492 20.62189,-18.66734c3.29905,-3.8979 4.81663,-11.0906 1.52072,-15.6906c-0.55027,-0.76799 -2.52212,0.47053 -2.58107,0.51178c-1.1502,0.80473 -2.28883,1.66597 -3.21241,2.72311c-5.87126,6.72028 -9.67753,15.50682 -13.52833,23.44706c-0.97117,2.52843 -1.91375,5.08987 -2.82079,7.676z" fill="#ffffff" stroke="none" stroke-width="0.5"/><path d="M313.38927,199.01607c0.38699,0.02016 2.43741,0.23382 2.43741,2.4979c0,2.5 -2.5,2.5 -2.5,2.5l-2.43083,-0.57241c-3.38164,-2.79287 -6.76328,-5.58573 -10.14491,-8.3786c-8.9759,-7.4268 -17.00936,-16.61535 -24.55718,-25.4796c-2.59375,-3.04613 -6.22239,-5.53094 -6.65279,-9.40222c-2.92104,19.78247 -8.02496,39.41667 -14.23993,58.06158c0,0 -0.79057,2.37171 -3.16228,1.58114c-2.37171,-0.79057 -1.58114,-3.16228 -1.58114,-3.16228c9.27517,-27.82551 16.06628,-57.90882 16.61759,-87.32558c0.08928,-6.32208 2.15067,-12.49824 3.98815,-18.52581c0.45583,-1.49526 0.6046,-3.12969 1.39876,-4.47613c4.23493,-7.17997 11.99195,-12.11676 19.76501,-14.24296c2.31304,-0.6327 6.81201,-2.30837 9.37346,-1.09876c1.79636,0.8483 2.92622,2.68856 4.34659,4.07747c1.20721,1.18047 2.59646,2.22458 3.53414,3.62872c1.9107,2.86119 0.93457,5.38203 1.20382,8.626c0.39172,4.71963 0.89776,8.84081 0.84726,13.62651c-0.01127,1.0677 0.26775,2.19488 -0.08664,3.20212c-0.62543,1.77755 -1.84885,3.28408 -2.77327,4.92612c-3.25943,5.58222 -6.97675,10.41779 -11.15582,15.33291c-1.79863,2.11541 -3.12908,4.79153 -5.47346,6.27946c-4.02263,2.55308 -9.97028,4.36769 -14.45293,6.02482c-1.61891,0.59847 -2.55626,0.09448 -3.07464,1.90164c-0.81715,2.84871 3.75752,5.8121 5.38037,7.71829c7.35466,8.63871 15.17759,17.64968 23.93887,24.87138c3.15146,2.60276 6.30292,5.20552 9.45437,7.80829zM270.07135,156.40648c1.15957,-3.29923 2.84479,-3.16694 5.85336,-4.36789c4.17376,-1.66608 9.44784,-3.0792 13.28741,-5.39768c2.03686,-1.22994 3.05148,-3.65174 4.59277,-5.46447c3.99031,-4.69306 7.54113,-9.28383 10.64873,-14.6165c0.75515,-1.23722 1.7406,-2.36056 2.26544,-3.71167c0.22923,-0.59011 -0.07868,-1.2642 -0.08664,-1.89722c-0.05848,-4.65078 -0.45602,-8.61868 -0.83044,-13.21675c-0.00598,-0.07346 0.51028,-5.12291 -0.47389,-6.40711c-0.79416,-1.03626 -1.90767,-1.78446 -2.81642,-2.72184c-0.93916,-0.96875 -1.56225,-2.30824 -2.72448,-2.9936c-0.59542,-0.35111 -1.39068,0.02477 -2.06687,0.16818c-3.72387,0.7898 -7.5141,1.68608 -10.69895,3.75855c-3.57731,2.32784 -7.84989,5.47739 -10.10453,9.25252c-1.45662,2.43893 -1.62364,5.44515 -2.37387,8.18509c-1.13356,4.13991 -2.35223,8.13517 -2.36825,12.43016c-0.16795,8.9669 -0.90272,17.99338 -2.10337,27.00023z" fill="#ffffff" stroke="none" stroke-width="0.5"/></g></g></svg>