<svg version="1.1" xmlns="http://www.w3.org/2000/svg" xmlns:xlink="http://www.w3.org/1999/xlink" width="211.30144" height="35.56979" viewBox="0,0,211.30144,35.56979"><g transform="translate(-134.34928,-162.21511)"><g data-paper-data="{&quot;isPaintingLayer&quot;:true}" fill-rule="nonzero" stroke="#d27f04" stroke-linecap="butt" stroke-linejoin="miter" stroke-miterlimit="10" stroke-dasharray="" stroke-dashoffset="0" style="mix-blend-mode: normal"><path d="M152.48434,195.2849v-30.48837h175.50357v30.48837z" fill="#ead27c" stroke-width="5"/><path d="M136.84928,180.0407c0,-8.41913 6.82505,-15.24419 15.24419,-15.24419c8.41913,0 15.24419,6.82505 15.24419,15.24419c0,8.41913 -6.82505,15.24419 -15.24419,15.24419c-8.41913,0 -15.24419,-6.82505 -15.24419,-15.24419z" fill="#ead27c" stroke-width="5"/><path d="M312.66234,179.95931c0,-8.41913 6.82506,-15.24419 15.24419,-15.24419c8.41913,0 15.24419,6.82506 15.24419,15.24419c0,8.41913 -6.82506,15.24418 -15.24419,15.24418c-8.41913,0 -15.24419,-6.82505 -15.24419,-15.24418z" fill="#ead27c" stroke-width="5"/><path d="M187.11333,171.91078l0.38326,15.80479l-7.38388,-8.20494z" fill="#f59405" stroke-width="1.5"/><path d="M208.53423,172.03154l0.38325,15.80478l-7.38388,-8.20494z" fill="#f4f4f2" stroke-width="1.5"/><path d="M229.42364,171.57409l0.38325,15.80478l-7.38388,-8.20494z" fill="#f59405" stroke-width="1.5"/><path d="M252.11099,171.6948l0.38326,15.80478l-7.38388,-8.20494z" fill="#f4f4f2" stroke-width="1.5"/><path d="M272.76424,171.61313l0.38326,15.80478l-7.38388,-8.20494z" fill="#f59405" stroke-width="1.5"/><path d="M295.4516,171.73383l0.38326,15.80478l-7.38388,-8.20494z" fill="#f4f4f2" stroke-width="1.5"/></g></g></svg>