<svg version="1.1" xmlns="http://www.w3.org/2000/svg" xmlns:xlink="http://www.w3.org/1999/xlink" width="396.66228" height="161.14116" viewBox="0,0,396.66228,161.14116"><g transform="translate(-20.83772,-94.35807)"><g data-paper-data="{&quot;isPaintingLayer&quot;:true}" fill-rule="nonzero" stroke-linecap="butt" stroke-linejoin="miter" stroke-miterlimit="10" stroke-dasharray="" stroke-dashoffset="0" style="mix-blend-mode: normal"><path d="M65,234.5v-109h350v109z" data-paper-data="{&quot;origPos&quot;:null}" fill="#ffc2e1" stroke="#bc8fa5" stroke-width="5"/><text transform="translate(191,157.5) scale(0.80336,0.80336)" font-size="40" xml:space="preserve" data-paper-data="{&quot;origPos&quot;:null}" fill="#000000" fill-rule="nonzero" stroke="none" stroke-width="1" stroke-linecap="butt" stroke-linejoin="miter" stroke-miterlimit="10" stroke-dasharray="" stroke-dashoffset="0" font-family="Sans Serif" font-weight="normal" text-anchor="start" style="mix-blend-mode: normal"><tspan x="0" dy="0">Player</tspan></text><text transform="translate(204,220.15905) scale(0.65956,0.65956)" font-size="40" xml:space="preserve" data-paper-data="{&quot;origPos&quot;:null}" fill="#000000" fill-rule="nonzero" stroke="none" stroke-width="1" stroke-linecap="butt" stroke-linejoin="miter" stroke-miterlimit="10" stroke-dasharray="" stroke-dashoffset="0" font-family="Sans Serif" font-weight="normal" text-anchor="start" style="mix-blend-mode: normal"><tspan x="0" dy="0">Won!</tspan></text><path d="M96.36394,227.18548c2.65249,-0.13047 5.33379,0.03702 7.95281,0.47694c0,0 2.17609,0.37795 2.77267,2.26143c0.26566,0.53579 0.36897,1.05388 0.40778,1.32849c0.49011,1.76156 0.46416,3.84093 1.76639,5.07213c0.5336,0.5045 1.45772,0.22873 2.15401,0.46208c4.10254,1.37486 6.53809,1.99582 7.96702,7.04776c3.50616,12.39581 -16.09676,13.96077 -22.91862,9.1293c-6.16817,-4.36851 -4.87402,-13.778 -5.2342,-20.34037c0,0 -0.03408,-0.62089 0.18805,-1.35389c-0.1763,-1.6972 0.75284,-2.64533 1.57713,-3.14528c0.39269,-0.26 0.84193,-0.44346 1.32752,-0.52784zM98.81966,243.19464c0.13766,1.34973 0.22244,3.14663 1.60156,3.98458c2.5343,1.53982 6.44803,0.70324 9.15718,0.69378c1.30585,-0.00457 3.8222,0.26512 3.02433,-2.27569c-0.91584,-2.91646 -6.22117,-2.34635 -8.08669,-4.1189c-1.09781,-1.04309 -2.50455,-4.8548 -3.34925,-7.19253c-0.94551,-0.10119 -1.89743,-0.15282 -2.84774,-0.15238c0.12718,3.02004 0.1954,6.06851 0.50061,9.06115z" fill="#000000" stroke="none" stroke-width="0.5"/><path d="M98.2681,234.08543c0.95031,-0.00045 1.91475,0.04068 2.86026,0.14188c0.8447,2.33774 2.35209,6.17576 3.4499,7.21885c1.86552,1.77255 7.16718,1.27325 8.08301,4.18969c0.79788,2.5408 -1.74169,2.29313 -3.04755,2.29769c-2.70915,0.00947 -6.70265,0.83967 -9.23695,-0.70015c-1.37912,-0.83795 -1.48589,-2.66677 -1.62355,-4.01651c-0.30521,-2.99263 -0.35793,-6.11143 -0.48512,-9.13146z" data-paper-data="{&quot;noHover&quot;:false,&quot;origItem&quot;:[&quot;Path&quot;,{&quot;applyMatrix&quot;:true,&quot;segments&quot;:[[[474.89993,450.30982],[-0.20872,-4.45591],[0.09414,2.0097]],[[476.9475,456.33983],[-1.97393,-1.3528],[3.62734,2.48593]],[[490.4499,458.11125],[-4.01214,-0.20614],[1.93391,0.09936]],[[495.11287,454.98748],[0.97491,3.82694],[-1.11904,-4.39274]],[[483.47386,448.23155],[2.61818,2.77618],[-1.54072,-1.63369]],[[479.09924,437.30959],[1.06073,3.53007],[-1.39176,-0.22668]],[[474.89505,436.85255],[1.40713,0.07657],[-0.05711,4.48202]]],&quot;closed&quot;:true}]}" fill="#ef6dad" stroke="none" stroke-width="0.5"/><path d="M67.18488,226.55837c2.65565,0.01509 5.32374,0.32927 7.9147,0.91205c0,0 2.15209,0.49663 2.64459,2.40998c0.23589,0.54953 0.31066,1.07252 0.33436,1.34884c0.39284,1.78577 0.25296,3.8606 1.48576,5.1613c0.50516,0.53298 1.44301,0.30827 2.12546,0.57942c4.02102,1.59763 6.41888,2.35112 7.56882,7.47377c2.82155,12.56934 -16.83766,13.05765 -23.38449,7.85958c-5.91949,-4.69998 -4.11163,-14.02441 -4.11163,-20.59663c0,0 0,-0.62182 0.26196,-1.34155c-0.08304,-1.70431 0.89668,-2.60009 1.74713,-3.05414c0.40635,-0.23809 0.86497,-0.39666 1.35445,-0.4543zM68.75956,242.67807c0.06348,1.35525 0.04966,3.1541 1.38078,4.06635c2.44611,1.67639 6.3998,1.05555 9.1054,1.19456c1.30415,0.067 3.80193,0.47419 3.14449,-2.10652c-0.75463,-2.96226 -6.08323,-2.68377 -7.84881,-4.5559c-1.03899,-1.10169 -2.23474,-4.98476 -2.95004,-7.36527c-0.93854,-0.15286 -1.88621,-0.25656 -2.83511,-0.30821c-0.03852,3.02247 -0.13746,6.0701 0.00329,9.07496z" fill="#000000" stroke="none" stroke-width="0.5"/><path d="M68.708,233.55231c0.94891,0.05164 1.90964,0.14555 2.84817,0.29842c0.71531,2.38051 2.01011,6.29538 3.04911,7.39707c1.76558,1.87213 7.08662,1.6641 7.84125,4.62638c0.65743,2.58071 -1.86475,2.19423 -3.16888,2.12722c-2.7056,-0.13901 -6.73859,0.47109 -9.1847,-1.20531c-1.33113,-0.91227 -1.3375,-2.7442 -1.40098,-4.09945c-0.14075,-3.00485 -0.02248,-6.12185 0.01604,-9.14432z" data-paper-data="{&quot;noHover&quot;:false,&quot;origItem&quot;:[&quot;Path&quot;,{&quot;applyMatrix&quot;:true,&quot;segments&quot;:[[[237.44997,225.15491],[-0.10436,-2.22795],[0.04707,1.00485]],[[238.47375,228.16991],[-0.98697,-0.6764],[1.81367,1.24296]],[[245.22495,229.05563],[-2.00607,-0.10307],[0.96696,0.04968]],[[247.55643,227.49374],[0.48745,1.91347],[-0.55952,-2.19637]],[[241.73693,224.11577],[1.30909,1.38809],[-0.77036,-0.81685]],[[239.54962,218.65479],[0.53037,1.76503],[-0.69588,-0.11334]],[[237.44753,218.42628],[0.70357,0.03829],[-0.02856,2.24101]]],&quot;closed&quot;:true}]}" fill="#ef6dad" stroke="none" stroke-width="0.5"/><path d="M141.00147,159.33051c5.25136,7.85176 6.35546,17.69558 9.46855,26.3731c1.16723,3.25357 2.23206,6.01274 2.7232,9.51313c2.1049,6.23041 3.28207,12.4353 3.13719,19.01351c-0.07333,3.32954 0.51147,5.58058 -3.13635,7.6393c-2.9841,1.68413 -6.59896,0.86468 -8.99737,-1.31858c-0.93866,-0.85446 -1.23849,-2.21639 -1.828,-3.34051c-0.44747,-0.8533 -1.08389,-1.64797 -1.33866,-2.57054c-1.1601,0.75986 -2.46676,1.64986 -3.81334,1.45906c-1.79304,-0.25406 -3.42504,-1.483 -4.64007,-2.82585c-3.87348,-4.28102 -0.40921,-12.233 0.31089,-16.98705c-0.87956,-5.80673 -3.51693,-10.77401 -6.23068,-15.75496c-0.83126,-1.52574 -1.05623,-3.43362 -2.23743,-4.70787c-1.58415,-1.70892 -3.03395,-1.62704 -4.53801,-3.69435c-2.01239,-2.76603 -2.68582,-6.75154 -3.15977,-10.02936c-0.93993,-6.50045 0.36967,-18.6496 0.96945,-16.28343c1.91704,2.42065 13.8013,3.93778 16.18756,5.89048c0,0 5.34743,4.96938 7.12282,7.62392z" data-paper-data="{&quot;index&quot;:null}" fill="#ef6dad" stroke="#000000" stroke-width="5"/><path d="M49.18925,146.7396c0.59978,-2.36617 3.09921,-1.94961 3.09921,-1.94961l3.89149,1.00272c5.40408,4.60906 4.57012,10.04046 3.6302,16.54092c-0.47396,3.27782 -1.14737,7.26332 -3.15977,10.02934c-1.50407,2.06733 -2.95386,1.98545 -4.53801,3.69437c-1.1812,1.27423 -1.40616,3.18211 -2.23743,4.70785c-2.71375,4.98095 -5.35112,9.94826 -6.23068,15.75497c0.72012,4.75405 4.18438,12.70602 0.3109,16.98705c-1.21501,1.34285 -2.84703,2.5718 -4.64007,2.82585c-1.34659,0.19079 -2.65322,-0.6992 -3.81334,-1.45906c-0.25476,0.92257 -0.89119,1.71724 -1.33866,2.57054c-0.58951,1.12412 -0.88934,2.48606 -1.828,3.34052c-2.39839,2.18326 -6.01327,3.00271 -8.99737,1.31858c-3.64782,-2.05872 -3.06302,-4.30976 -3.13635,-7.6393c-0.14488,-6.5782 1.03229,-12.78311 3.13719,-19.01351c0.49115,-3.50038 1.55598,-6.25956 2.7232,-9.51313c3.11309,-8.67752 4.21719,-18.52132 9.46855,-26.37308c1.77539,-2.65454 4.6442,-5.59564 7.12282,-7.62394c2.38626,-1.9527 4.61907,-2.78044 6.53612,-5.20109z" fill="#ef6dad" stroke="#000000" stroke-width="5"/><path d="M123.40908,158.05203c0,37.20259 3.59919,72.19192 -23.07994,72.19192c-9.76548,0 -36.63338,2.01253 -42.9558,-3.38519c-10.95034,-9.34875 -4.27758,-40.92763 -4.27758,-64.51278c0,-14.54284 -5.88003,-27.54011 -4.25694,-41.24712c0.78127,-6.5978 12.89956,-20.28535 27.40859,-24.24079c9.7147,-2.64842 21.09342,1.73124 28.65928,5.62699c17.71223,9.12022 18.50237,44.6083 18.50237,55.56698z" fill="#ef6dad" stroke="#000000" stroke-width="5"/><path d="M62.42094,142.75252c0,-13.42565 10.88363,-24.30928 24.30928,-24.30928c13.42565,0 24.30928,10.88363 24.30928,24.30928c0,13.42565 -10.88363,24.30928 -24.30928,24.30928c-13.42565,0 -24.30928,-10.88363 -24.30928,-24.30928z" fill="#f8c8fa" stroke="#000000" stroke-width="5"/><path d="M90.81018,142.68009c0,4.72183 -2.09616,8.54962 -4.68193,8.54962c-2.58576,0 -4.68193,-3.8278 -4.68193,-8.54962c0,-4.72183 2.09616,-8.54961 4.68193,-8.54961c2.58576,0 4.68193,3.82778 4.68193,8.54961z" fill="#000000" stroke="none" stroke-width="0"/><path d="M103.66061,142.50251c0,4.72183 -2.09618,8.54962 -4.68195,8.54962c-2.58576,0 -4.68193,-3.8278 -4.68193,-8.54962c0,-4.72183 2.09616,-8.54961 4.68193,-8.54961c2.58577,0 4.68195,3.82778 4.68195,8.54961z" fill="#000000" stroke="none" stroke-width="0"/></g></g></svg>