<svg version="1.1" xmlns="http://www.w3.org/2000/svg" xmlns:xlink="http://www.w3.org/1999/xlink" width="574.61734" height="110.37363" viewBox="0,0,574.61734,110.37363"><g transform="translate(9.05318,-273.93874)"><g data-paper-data="{&quot;isPaintingLayer&quot;:true}" fill-rule="nonzero" stroke-linecap="butt" stroke-linejoin="miter" stroke-miterlimit="10" stroke-dasharray="" stroke-dashoffset="0" style="mix-blend-mode: normal"><path d="M-8.05318,364.00001v-62h572.61734v62z" fill="#ff76ca" stroke="#cb067f" stroke-width="2"/><path d="M186.88376,308.00994c0,-0.58756 0,-2.70254 0,-3.04804c0,-0.09336 0.75665,-0.17256 1.48398,-0.17256c1.62596,0 8.0495,0 10.48985,0c0.59022,0 0.94744,0.05066 0.94744,0.1154c0,0.29505 0,2.48033 0,3.09566c0,0.10197 -0.53053,0.16083 -1.08637,0.16083c-1.47846,0 -8.25996,0 -10.83719,0c-0.62083,0 -0.9977,-0.05524 -0.9977,-0.1513z" fill="#bbc9e4" stroke="none" stroke-width="0"/><path d="M184.52565,305.58862c0,-5.47847 0,-25.19852 0,-28.41995c0,-0.87045 1.08445,-1.60892 2.12688,-1.60892c2.33036,0 11.53674,0 15.03432,0c0.84592,0 1.35789,0.47233 1.35789,1.07604c0,2.75106 0,23.12665 0,28.864c0,0.95074 -0.76037,1.49952 -1.55702,1.49952c-2.11897,0 -11.83838,0 -15.53214,0c-0.88979,0 -1.42993,-0.51501 -1.42993,-1.4107z" fill="#f3079a" stroke="none" stroke-width="0"/><path d="M187.5126,277.15934c0,-0.58756 0,-2.70254 0,-3.04804c0,-0.09336 0.75665,-0.17256 1.48399,-0.17256c1.62596,0 8.0495,0 10.48985,0c0.59022,0 0.94744,0.05066 0.94744,0.1154c0,0.29505 0,2.48033 0,3.09566c0,0.10197 -0.53053,0.16083 -1.08637,0.16083c-0.73213,0 -2.76466,0 -4.94312,0c-2.22073,0 -4.59308,0 -5.89408,0c-0.62083,0 -0.9977,-0.05524 -0.9977,-0.1513z" fill="#bbc9e4" stroke="none" stroke-width="0"/><path d="M104.37037,341.95724l-21.56963,-21.56963l9.68432,-9.68432l21.56963,21.56963z" fill="#ffffff" stroke="none" stroke-width="0"/><path d="M83.42328,344.72355l21.56963,-21.56963l9.68432,9.68432l-21.56963,21.56963z" fill="#ffffff" stroke="none" stroke-width="0"/><path d="M336.87037,341.95723l-21.56962,-21.56963l9.68433,-9.68433l21.56962,21.56963z" fill="#ffffff" stroke="none" stroke-width="0"/><path d="M315.29828,344.72355l21.56963,-21.56963l9.68432,9.68432l-21.56963,21.56962z" fill="#ffffff" stroke="none" stroke-width="0"/><path d="M36.86022,384.31238l-17.8125,0l0,-81.5625h17.8125z" fill="#cb0680" stroke="none" stroke-width="0"/><path d="M163.11022,384.31238h-17.8125v-81.5625h17.8125z" fill="#cb0680" stroke="none" stroke-width="0"/><path d="M288.11022,384.31238h-17.8125v-81.5625h17.8125z" fill="#cb0680" stroke="none" stroke-width="0"/><path d="M413.73522,384.31238h-17.8125v-81.5625h17.8125z" fill="#cb0680" stroke="none" stroke-width="0"/><path d="M221.87037,342.58224l-21.56963,-21.56963l9.68432,-9.68432l21.56963,21.56963z" fill="#ffffff" stroke="none" stroke-width="0"/><path d="M200.92328,345.34855l21.56963,-21.56963l9.68432,9.68432l-21.56963,21.56963z" fill="#ffffff" stroke="none" stroke-width="0"/><path d="M449.37037,341.33223l-21.56962,-21.56963l9.68433,-9.68433l21.56962,21.56963z" fill="#ffffff" stroke="none" stroke-width="0"/><path d="M427.79828,344.09855l21.56963,-21.56963l9.68432,9.68432l-21.56963,21.56962z" fill="#ffffff" stroke="none" stroke-width="0"/></g></g></svg>