<svg version="1.1" xmlns="http://www.w3.org/2000/svg" xmlns:xlink="http://www.w3.org/1999/xlink" width="551.5" height="356.57812" viewBox="0,0,551.5,356.57812"><g transform="translate(-198.25001,-46.71581)"><g data-paper-data="{&quot;isPaintingLayer&quot;:true}" fill-rule="nonzero" stroke-linecap="butt" stroke-linejoin="miter" stroke-miterlimit="10" stroke-dasharray="" stroke-dashoffset="0" style="mix-blend-mode: normal"><path d="M199.50001,367.00001v-131h549v131z" fill="#ff76ca" stroke="#cb067f" stroke-width="2.5"/><path d="M280.45133,286.28995l-50.65763,-50.65763c15.03542,0 30.07083,0 45.10625,0l28.1045,28.1045z" fill="#cb067f" stroke="none" stroke-width="0"/><path d="" fill="#cb067f" stroke="none" stroke-width="0"/><path d="M221.71948,299.13721l58.3728,-58.37279l22.55312,22.55312l-58.37279,58.37279z" fill="#cb067f" stroke="none" stroke-width="0"/><path d="M281.16409,358.81406l-58.3728,-58.37279l22.55312,-22.55312l58.3728,58.3728z" fill="#cb067f" stroke="none" stroke-width="0"/><path d="M222.43224,372.34346l58.3728,-58.37279l22.55312,22.55313l-58.37279,58.37279z" fill="#cb067f" stroke="none" stroke-width="0"/><path d="M389.89312,293.69088l-58.05859,-58.05859c15.03542,0 30.07083,0 45.10625,0l35.50546,35.50546z" fill="#cb067f" stroke="none" stroke-width="0"/><path d="" fill="#cb067f" stroke="none" stroke-width="0"/><path d="M331.16126,307.22029l58.3728,-58.37279l22.55312,22.55312l-58.37279,58.37279z" fill="#cb067f" stroke="none" stroke-width="0"/><path d="M390.60585,366.21501l-58.37279,-58.37279l22.55313,-22.55312l58.3728,58.3728z" fill="#cb067f" stroke="none" stroke-width="0"/><path d="M331.87402,379.74442l58.3728,-58.37279l22.55313,22.55313l-58.37279,58.37279z" fill="#cb067f" stroke="none" stroke-width="0"/><path d="M501.73584,293.88897l-58.25667,-58.25667c14.92656,0 29.99445,0 45.10625,0l35.70354,35.70354z" fill="#cb067f" stroke="none" stroke-width="0"/><path d="" fill="#cb067f" stroke="none" stroke-width="0"/><path d="M443.00398,307.41837l58.3728,-58.37279l22.55312,22.55312l-58.37279,58.37279z" fill="#cb067f" stroke="none" stroke-width="0"/><path d="M502.44859,366.4131l-58.37279,-58.37279l22.55313,-22.55312l58.3728,58.3728z" fill="#cb067f" stroke="none" stroke-width="0"/><path d="M443.71674,379.9425l58.3728,-58.37279l22.55313,22.55313l-58.37279,58.37279z" fill="#cb067f" stroke="none" stroke-width="0"/><path d="M611.77784,294.68728l-58.37279,-58.37279l0.68219,-0.68219c14.70366,0 29.31465,0 43.74186,0l36.50186,36.50186z" fill="#cb067f" stroke="none" stroke-width="0"/><path d="" fill="#cb067f" stroke="none" stroke-width="0"/><path d="M553.04599,308.21671l58.3728,-58.37279l22.55313,22.55312l-58.37279,58.37279z" fill="#cb067f" stroke="none" stroke-width="0"/><path d="M612.4906,367.21142l-58.37279,-58.3728l22.55313,-22.55312l58.3728,58.3728z" fill="#cb067f" stroke="none" stroke-width="0"/><path d="M553.75875,380.74082l58.3728,-58.37279l22.55313,22.55312l-58.37279,58.37279z" fill="#cb067f" stroke="none" stroke-width="0"/><path d="M312.88376,244.00997c0,-0.58756 0,-2.70254 0,-3.04804c0,-0.09336 0.75665,-0.17256 1.48398,-0.17256c1.62596,0 8.0495,0 10.48985,0c0.59022,0 0.94744,0.05066 0.94744,0.1154c0,0.29505 0,2.48033 0,3.09566c0,0.10197 -0.53053,0.16083 -1.08637,0.16083c-1.47846,0 -8.25996,0 -10.83719,0c-0.62083,0 -0.9977,-0.05524 -0.9977,-0.1513z" fill="#bbc9e4" stroke="none" stroke-width="0"/><path d="M310.52565,241.58863c0,-5.47847 0,-25.19852 0,-28.41995c0,-0.87045 1.08445,-1.60892 2.12688,-1.60892c2.33036,0 11.53674,0 15.03432,0c0.84592,0 1.35789,0.47233 1.35789,1.07604c0,2.75106 0,23.12665 0,28.864c0,0.95074 -0.76037,1.49952 -1.55702,1.49952c-2.11897,0 -11.83838,0 -15.53214,0c-0.88979,0 -1.42993,-0.51501 -1.42993,-1.4107z" fill="#f3079a" stroke="none" stroke-width="0"/><path d="M313.51262,213.15935c0,-0.58756 0,-2.70254 0,-3.04804c0,-0.09336 0.75665,-0.17256 1.48399,-0.17256c1.62596,0 8.0495,0 10.48985,0c0.59022,0 0.94744,0.05066 0.94744,0.1154c0,0.29505 0,2.48033 0,3.09566c0,0.10197 -0.53053,0.16083 -1.08637,0.16083c-0.73213,0 -2.76466,0 -4.94312,0c-2.22073,0 -4.59308,0 -5.89408,0c-0.62083,0 -0.9977,-0.05524 -0.9977,-0.1513z" fill="#bbc9e4" stroke="none" stroke-width="0"/><path d="M589.55044,241.50996c0,-0.58756 0,-2.70254 0,-3.04804c0,-0.09336 0.75665,-0.17256 1.48398,-0.17256c1.62596,0 8.0495,0 10.48985,0c0.59022,0 0.94744,0.05066 0.94744,0.1154c0,0.29505 0,2.48033 0,3.09566c0,0.10197 -0.53053,0.16083 -1.08637,0.16083c-1.47846,0 -8.25996,0 -10.83719,0c-0.62083,0 -0.9977,-0.05524 -0.9977,-0.1513z" fill="#bbc9e4" stroke="none" stroke-width="0"/><path d="M587.19233,239.08864c0,-5.47847 0,-25.19852 0,-28.41995c0,-0.87045 1.08445,-1.60892 2.12688,-1.60892c2.33036,0 11.53674,0 15.03432,0c0.84592,0 1.35789,0.47233 1.35789,1.07604c0,2.75106 0,23.12665 0,28.864c0,0.95074 -0.76037,1.49952 -1.55702,1.49952c-2.11897,0 -11.83838,0 -15.53214,0c-0.88979,0 -1.42993,-0.51501 -1.42993,-1.4107z" fill="#f3079a" stroke="none" stroke-width="0"/><path d="M590.17927,210.65936c0,-0.58756 0,-2.70254 0,-3.04804c0,-0.09336 0.75665,-0.17256 1.48399,-0.17256c1.62596,0 8.0495,0 10.48985,0c0.59022,0 0.94744,0.05066 0.94744,0.1154c0,0.29505 0,2.48033 0,3.09566c0,0.10197 -0.53053,0.16083 -1.08637,0.16083c-0.73213,0 -2.76466,0 -4.94312,0c-2.22073,0 -4.59308,0 -5.89408,0c-0.62083,0 -0.9977,-0.05524 -0.9977,-0.1513z" fill="#bbc9e4" stroke="none" stroke-width="0"/><path d="M311.33802,128.13541v-46.4393h26.87696v46.4393z" fill="#fff896" stroke="#f2eb61" stroke-width="2.5"/><path d="M322.41734,79.69775v-5.23931h3.3774v5.23931z" fill="#f2eb61" stroke="#f2eb61" stroke-width="2.5"/><path d="M323.60563,73.22965c0,0 -7.35063,4.73831 -16.4181,4.73831c-9.06747,0 -16.4181,-2.12141 -16.4181,-4.73831c0,-2.6169 7.35063,-4.73831 16.4181,-4.73831c9.06747,0 16.4181,4.73831 16.4181,4.73831z" fill="#fffccc" stroke="#f2eb61" stroke-width="2.5"/><path d="M339.90301,68.5517c9.06747,0 16.4181,2.12142 16.4181,4.73831c0,2.6169 -7.35063,4.73831 -16.4181,4.73831c-9.06746,0 -16.4181,-4.73831 -16.4181,-4.73831c0,0 7.35064,-4.73831 16.4181,-4.73831z" data-paper-data="{&quot;index&quot;:null}" fill="#fffccc" stroke="#f2eb61" stroke-width="2.5"/><path d="M328.5024,106.91067l-10.96688,-13.80186l3.62395,-2.87957l10.96688,13.80186z" fill="#f2eb61" stroke="#f2eb61" stroke-width="2.5"/><path d="M331.92939,103.94197l-10.96688,13.80186l-3.62395,-2.87957l10.96688,-13.80186z" data-paper-data="{&quot;index&quot;:null}" fill="#f2eb61" stroke="none" stroke-width="2.5"/><path d="M434.95663,107.60989v-46.4393h26.87696v46.4393z" fill="#fff896" stroke="#f2eb61" stroke-width="2.5"/><path d="M446.03596,59.17222v-5.23931h3.3774v5.23931z" fill="#f2eb61" stroke="#f2eb61" stroke-width="2.5"/><path d="M447.22425,52.70412c0,0 -7.35064,4.73831 -16.41811,4.73831c-9.06747,0 -16.4181,-2.12141 -16.4181,-4.73831c0,-2.6169 7.35063,-4.73831 16.4181,-4.73831c9.06747,0 16.41811,4.73831 16.41811,4.73831z" fill="#fffccc" stroke="#f2eb61" stroke-width="2.5"/><path d="M463.52163,48.02617c9.06747,0 16.41809,2.12141 16.41809,4.73831c0,2.6169 -7.35063,4.73831 -16.41809,4.73831c-9.06747,0 -16.4181,-4.73831 -16.4181,-4.73831c0,0 7.35064,-4.73831 16.4181,-4.73831z" data-paper-data="{&quot;index&quot;:null}" fill="#fffccc" stroke="#f2eb61" stroke-width="2.5"/><path d="M452.12102,86.38514l-10.96688,-13.80185l3.62395,-2.87957l10.96688,13.80185z" fill="#f2eb61" stroke="#f2eb61" stroke-width="2.5"/><path d="M455.54801,83.41644l-10.96688,13.80186l-3.62395,-2.87958l10.96688,-13.80186z" data-paper-data="{&quot;index&quot;:null}" fill="#f2eb61" stroke="none" stroke-width="2.5"/><path d="M558.57525,130.62791v-46.4393h26.87695v46.4393z" fill="#fff896" stroke="#f2eb61" stroke-width="2.5"/><path d="M569.65458,82.19024v-5.2393h3.3774v5.2393z" fill="#f2eb61" stroke="#f2eb61" stroke-width="2.5"/><path d="M570.84287,75.72214c0,0 -7.35064,4.73831 -16.4181,4.73831c-9.06747,0 -16.4181,-2.12141 -16.4181,-4.73831c0,-2.6169 7.35063,-4.73831 16.4181,-4.73831c9.06747,0 16.4181,4.73831 16.4181,4.73831z" fill="#fffccc" stroke="#f2eb61" stroke-width="2.5"/><path d="M587.14025,71.04419c9.06747,0 16.41809,2.12142 16.41809,4.73831c0,2.6169 -7.35063,4.73831 -16.41809,4.73831c-9.06746,0 -16.4181,-4.73831 -16.4181,-4.73831c0,0 7.35064,-4.73831 16.4181,-4.73831z" data-paper-data="{&quot;index&quot;:null}" fill="#fffccc" stroke="#f2eb61" stroke-width="2.5"/><path d="M575.73964,109.40316l-10.96688,-13.80185l3.62395,-2.87957l10.96687,13.80185z" fill="#f2eb61" stroke="#f2eb61" stroke-width="2.5"/><path d="M579.16663,106.43446l-10.96689,13.80186l-3.62394,-2.87958l10.96688,-13.80186z" data-paper-data="{&quot;index&quot;:null}" fill="#f2eb61" stroke="none" stroke-width="2.5"/></g></g></svg>