<svg version="1.1" xmlns="http://www.w3.org/2000/svg" xmlns:xlink="http://www.w3.org/1999/xlink" width="33.00383" height="33.00384" viewBox="0,0,33.00383,33.00384"><defs><radialGradient cx="249.17749" cy="178.19285" r="16.5" gradientUnits="userSpaceOnUse" id="color-1"><stop offset="0" stop-color="#808080"/><stop offset="1" stop-color="#808080" stop-opacity="0"/></radialGradient><radialGradient cx="230.66994" cy="180.66449" r="16.5" gradientUnits="userSpaceOnUse" id="color-2"><stop offset="0" stop-color="#808080"/><stop offset="1" stop-color="#808080" stop-opacity="0"/></radialGradient><radialGradient cx="239.79419" cy="179.69819" r="16.5" gradientUnits="userSpaceOnUse" id="color-3"><stop offset="0" stop-color="#808080"/><stop offset="1" stop-color="#808080" stop-opacity="0"/></radialGradient><radialGradient cx="249.5334" cy="174.66323" r="6.04745" gradientUnits="userSpaceOnUse" id="color-4"><stop offset="0" stop-color="#cfcfcf"/><stop offset="1" stop-color="#ffffff"/></radialGradient><radialGradient cx="249.56952" cy="186.45337" r="5.9375" gradientUnits="userSpaceOnUse" id="color-5"><stop offset="0" stop-color="#cfcfcf"/><stop offset="1" stop-color="#ffffff"/></radialGradient></defs><g transform="translate(-223.49808,-163.49808)"><g data-paper-data="{&quot;isPaintingLayer&quot;:true}" fill-rule="nonzero" stroke="none" stroke-width="0.5" stroke-linecap="butt" stroke-linejoin="miter" stroke-miterlimit="10" stroke-dasharray="" stroke-dashoffset="0" style="mix-blend-mode: normal"><path d="M237.81585,163.6452c9.03251,-1.20627 17.33268,5.13815 18.53895,14.17066c1.20627,9.03251 -5.13815,17.33268 -14.17066,18.53895c-9.03251,1.20627 -17.33268,-5.13815 -18.53895,-14.17066c-1.20627,-9.03251 5.13815,-17.33268 14.17066,-18.53895z" fill="#d2d2d2"/><path d="M237.81585,163.64519c9.03251,-1.20627 17.33268,5.13815 18.53895,14.17066c1.20627,9.03251 -5.13815,17.33268 -14.17066,18.53895c-9.03251,1.20627 -17.33268,-5.13815 -18.53895,-14.17066c-1.20627,-9.03251 5.13815,-17.33268 14.17066,-18.53895z" fill="url(#color-1)"/><path d="M256.35481,177.81585c1.20627,9.03251 -5.13815,17.33268 -14.17066,18.53895c-9.03251,1.20627 -17.33268,-5.13815 -18.53895,-14.17066c-1.20627,-9.03251 5.13815,-17.33268 14.17066,-18.53895c9.03251,-1.20627 17.33268,5.13815 18.53895,14.17066z" data-paper-data="{&quot;index&quot;:null}" fill="url(#color-2)"/><path d="M256.35481,177.81585c1.20627,9.03251 -5.13815,17.33268 -14.17066,18.53895c-9.03251,1.20627 -17.33268,-5.13815 -18.53895,-14.17066c-1.20627,-9.03251 5.13815,-17.33268 14.17066,-18.53895c9.03251,-1.20627 17.33268,5.13815 18.53895,14.17066z" data-paper-data="{&quot;index&quot;:null}" fill="url(#color-3)"/><path d="M243.49767,174.28694c0.20782,-3.33345 3.07858,-5.86727 6.41203,-5.65945c3.33345,0.20782 5.86726,3.07858 5.65944,6.41203c-0.20782,3.33345 -3.07857,5.86726 -6.41202,5.65944c-3.33345,-0.20782 -5.86727,-3.07858 -5.65945,-6.41202z" fill="url(#color-4)"/><path d="M247.68833,174.2177c0.13603,-2.18189 2.01508,-3.84039 4.19696,-3.70436c2.18189,0.13603 3.84039,2.01508 3.70436,4.19696c-0.13603,2.18189 -2.01507,3.84039 -4.19696,3.70436c-2.18189,-0.13603 -3.84039,-2.01507 -3.70437,-4.19696z" fill="#000000"/><path d="M243.64352,186.08392c0.20404,-3.27284 3.02261,-5.76059 6.29544,-5.55654c3.27284,0.20404 5.76059,3.02261 5.55654,6.29544c-0.20404,3.27284 -3.02261,5.76059 -6.29544,5.55654c-3.27284,-0.20404 -5.76059,-3.02261 -5.55654,-6.29544z" fill="url(#color-5)"/><path d="M247.37471,186.31654c0.13603,-2.18189 2.01508,-3.84039 4.19696,-3.70436c2.18189,0.13603 3.84039,2.01508 3.70436,4.19696c-0.13603,2.18189 -2.01507,3.84039 -4.19696,3.70437c-2.18189,-0.13603 -3.84039,-2.01508 -3.70436,-4.19696z" fill="#000000"/></g></g></svg>