<svg version="1.1" xmlns="http://www.w3.org/2000/svg" xmlns:xlink="http://www.w3.org/1999/xlink" width="1372.52363" height="887.96081" viewBox="0,0,1372.52363,887.96081"><defs><radialGradient cx="-134.1267" cy="276.9298" r="45.86764" gradientUnits="userSpaceOnUse" id="color-1"><stop offset="0" stop-color="#ff0000"/><stop offset="1" stop-color="#ff0000" stop-opacity="0"/></radialGradient><radialGradient cx="-134.1267" cy="276.9298" r="20.38561" gradientUnits="userSpaceOnUse" id="color-2"><stop offset="0" stop-color="#ffc2c2"/><stop offset="1" stop-color="#ffc2c2" stop-opacity="0"/></radialGradient><radialGradient cx="-266.22003" cy="56.95219" r="45.86765" gradientUnits="userSpaceOnUse" id="color-3"><stop offset="0" stop-color="#ff0000"/><stop offset="1" stop-color="#ff0000" stop-opacity="0"/></radialGradient><radialGradient cx="-266.22003" cy="56.95219" r="20.38564" gradientUnits="userSpaceOnUse" id="color-4"><stop offset="0" stop-color="#ffc2c2"/><stop offset="1" stop-color="#ffc2c2" stop-opacity="0"/></radialGradient><radialGradient cx="-179.1564" cy="162.15162" r="45.86765" gradientUnits="userSpaceOnUse" id="color-5"><stop offset="0" stop-color="#00b8ff"/><stop offset="1" stop-color="#00b8ff" stop-opacity="0"/></radialGradient><radialGradient cx="-179.1564" cy="162.15162" r="20.38564" gradientUnits="userSpaceOnUse" id="color-6"><stop offset="0" stop-color="#c2f4ff"/><stop offset="1" stop-color="#c2f4ff" stop-opacity="0"/></radialGradient><radialGradient cx="-62.32934" cy="185.04529" r="45.86765" gradientUnits="userSpaceOnUse" id="color-7"><stop offset="0" stop-color="#1fff00"/><stop offset="1" stop-color="#1fff00" stop-opacity="0"/></radialGradient><radialGradient cx="-62.32934" cy="185.04529" r="20.38561" gradientUnits="userSpaceOnUse" id="color-8"><stop offset="0" stop-color="#c3ffc2"/><stop offset="1" stop-color="#c3ffc2" stop-opacity="0"/></radialGradient><radialGradient cx="-197.29228" cy="5.24204" r="45.86765" gradientUnits="userSpaceOnUse" id="color-9"><stop offset="0" stop-color="#1fff00"/><stop offset="1" stop-color="#1fff00" stop-opacity="0"/></radialGradient><radialGradient cx="-197.29228" cy="5.24204" r="20.38562" gradientUnits="userSpaceOnUse" id="color-10"><stop offset="0" stop-color="#c3ffc2"/><stop offset="1" stop-color="#c3ffc2" stop-opacity="0"/></radialGradient><radialGradient cx="-94.62953" cy="-68.26557" r="45.86765" gradientUnits="userSpaceOnUse" id="color-11"><stop offset="0" stop-color="#ff0000"/><stop offset="1" stop-color="#ff0000" stop-opacity="0"/></radialGradient><radialGradient cx="-94.62953" cy="-68.26557" r="20.38562" gradientUnits="userSpaceOnUse" id="color-12"><stop offset="0" stop-color="#ffc2c2"/><stop offset="1" stop-color="#ffc2c2" stop-opacity="0"/></radialGradient><radialGradient cx="-217.10397" cy="-84.5649" r="45.86765" gradientUnits="userSpaceOnUse" id="color-13"><stop offset="0" stop-color="#00b8ff"/><stop offset="1" stop-color="#00b8ff" stop-opacity="0"/></radialGradient><radialGradient cx="-217.10397" cy="-84.5649" r="20.38562" gradientUnits="userSpaceOnUse" id="color-14"><stop offset="0" stop-color="#c2f4ff"/><stop offset="1" stop-color="#c2f4ff" stop-opacity="0"/></radialGradient><radialGradient cx="17.93905" cy="240.5261" r="45.86765" gradientUnits="userSpaceOnUse" id="color-15"><stop offset="0" stop-color="#ff8800"/><stop offset="1" stop-color="#ff8800" stop-opacity="0"/></radialGradient><radialGradient cx="17.93905" cy="240.5261" r="20.38564" gradientUnits="userSpaceOnUse" id="color-16"><stop offset="0" stop-color="#ffe8c2"/><stop offset="1" stop-color="#ffe8c2" stop-opacity="0"/></radialGradient><radialGradient cx="70.38953" cy="66.52516" r="45.86765" gradientUnits="userSpaceOnUse" id="color-17"><stop offset="0" stop-color="#ff0097"/><stop offset="1" stop-color="#ff0097" stop-opacity="0"/></radialGradient><radialGradient cx="70.38953" cy="66.52516" r="20.38562" gradientUnits="userSpaceOnUse" id="color-18"><stop offset="0" stop-color="#ffc2e9"/><stop offset="1" stop-color="#ffc2e9" stop-opacity="0"/></radialGradient><radialGradient cx="-46.43753" cy="43.63152" r="45.86765" gradientUnits="userSpaceOnUse" id="color-19"><stop offset="0" stop-color="#000bff"/><stop offset="1" stop-color="#000bff" stop-opacity="0"/></radialGradient><radialGradient cx="-46.43753" cy="43.63152" r="20.38561" gradientUnits="userSpaceOnUse" id="color-20"><stop offset="0" stop-color="#d1c2ff"/><stop offset="1" stop-color="#d1c2ff" stop-opacity="0"/></radialGradient><radialGradient cx="207.23028" cy="38.0545" r="45.86765" gradientUnits="userSpaceOnUse" id="color-21"><stop offset="0" stop-color="#ff0000"/><stop offset="1" stop-color="#ff0000" stop-opacity="0"/></radialGradient><radialGradient cx="207.23028" cy="38.0545" r="20.38561" gradientUnits="userSpaceOnUse" id="color-22"><stop offset="0" stop-color="#ffc2c2"/><stop offset="1" stop-color="#ffc2c2" stop-opacity="0"/></radialGradient><radialGradient cx="467.90919" cy="238.51164" r="45.86765" gradientUnits="userSpaceOnUse" id="color-23"><stop offset="0" stop-color="#ff0000"/><stop offset="1" stop-color="#ff0000" stop-opacity="0"/></radialGradient><radialGradient cx="467.90919" cy="238.51164" r="20.38562" gradientUnits="userSpaceOnUse" id="color-24"><stop offset="0" stop-color="#ffc2c2"/><stop offset="1" stop-color="#ffc2c2" stop-opacity="0"/></radialGradient><radialGradient cx="284.57608" cy="-57.96289" r="45.86765" gradientUnits="userSpaceOnUse" id="color-25"><stop offset="0" stop-color="#00b8ff"/><stop offset="1" stop-color="#00b8ff" stop-opacity="0"/></radialGradient><radialGradient cx="284.57608" cy="-57.96289" r="20.38562" gradientUnits="userSpaceOnUse" id="color-26"><stop offset="0" stop-color="#c2f4ff"/><stop offset="1" stop-color="#c2f4ff" stop-opacity="0"/></radialGradient><radialGradient cx="166.25611" cy="-71.1185" r="45.86765" gradientUnits="userSpaceOnUse" id="color-27"><stop offset="0" stop-color="#1fff00"/><stop offset="1" stop-color="#1fff00" stop-opacity="0"/></radialGradient><radialGradient cx="166.25611" cy="-71.1185" r="20.38561" gradientUnits="userSpaceOnUse" id="color-28"><stop offset="0" stop-color="#c3ffc2"/><stop offset="1" stop-color="#c3ffc2" stop-opacity="0"/></radialGradient><radialGradient cx="398.98143" cy="186.80149" r="45.86765" gradientUnits="userSpaceOnUse" id="color-29"><stop offset="0" stop-color="#1fff00"/><stop offset="1" stop-color="#1fff00" stop-opacity="0"/></radialGradient><radialGradient cx="398.98143" cy="186.80149" r="20.38562" gradientUnits="userSpaceOnUse" id="color-30"><stop offset="0" stop-color="#c3ffc2"/><stop offset="1" stop-color="#c3ffc2" stop-opacity="0"/></radialGradient><radialGradient cx="418.79313" cy="96.99456" r="45.86765" gradientUnits="userSpaceOnUse" id="color-31"><stop offset="0" stop-color="#00b8ff"/><stop offset="1" stop-color="#00b8ff" stop-opacity="0"/></radialGradient><radialGradient cx="418.79313" cy="96.99456" r="20.38562" gradientUnits="userSpaceOnUse" id="color-32"><stop offset="0" stop-color="#c2f4ff"/><stop offset="1" stop-color="#c2f4ff" stop-opacity="0"/></radialGradient><radialGradient cx="73.05375" cy="-42.23167" r="45.86765" gradientUnits="userSpaceOnUse" id="color-33"><stop offset="0" stop-color="#ff8800"/><stop offset="1" stop-color="#ff8800" stop-opacity="0"/></radialGradient><radialGradient cx="73.05375" cy="-42.23167" r="20.38564" gradientUnits="userSpaceOnUse" id="color-34"><stop offset="0" stop-color="#ffe8c2"/><stop offset="1" stop-color="#ffe8c2" stop-opacity="0"/></radialGradient><radialGradient cx="131.29961" cy="248.08462" r="45.86764" gradientUnits="userSpaceOnUse" id="color-35"><stop offset="0" stop-color="#ff0097"/><stop offset="1" stop-color="#ff0097" stop-opacity="0"/></radialGradient><radialGradient cx="131.29961" cy="248.08462" r="20.38562" gradientUnits="userSpaceOnUse" id="color-36"><stop offset="0" stop-color="#ffc2e9"/><stop offset="1" stop-color="#ffc2e9" stop-opacity="0"/></radialGradient><radialGradient cx="248.12669" cy="225.19097" r="45.86765" gradientUnits="userSpaceOnUse" id="color-37"><stop offset="0" stop-color="#000bff"/><stop offset="1" stop-color="#000bff" stop-opacity="0"/></radialGradient><radialGradient cx="248.12669" cy="225.19097" r="20.38561" gradientUnits="userSpaceOnUse" id="color-38"><stop offset="0" stop-color="#d1c2ff"/><stop offset="1" stop-color="#d1c2ff" stop-opacity="0"/></radialGradient><radialGradient cx="326.48392" cy="104.78839" r="45.86765" gradientUnits="userSpaceOnUse" id="color-39"><stop offset="0" stop-color="#000bff"/><stop offset="1" stop-color="#000bff" stop-opacity="0"/></radialGradient><radialGradient cx="326.48392" cy="104.78839" r="20.38562" gradientUnits="userSpaceOnUse" id="color-40"><stop offset="0" stop-color="#d1c2ff"/><stop offset="1" stop-color="#d1c2ff" stop-opacity="0"/></radialGradient><radialGradient cx="419.28097" cy="-25.12404" r="45.86765" gradientUnits="userSpaceOnUse" id="color-41"><stop offset="0" stop-color="#ff8800"/><stop offset="1" stop-color="#ff8800" stop-opacity="0"/></radialGradient><radialGradient cx="419.28097" cy="-25.12404" r="20.38562" gradientUnits="userSpaceOnUse" id="color-42"><stop offset="0" stop-color="#ffe8c2"/><stop offset="1" stop-color="#ffe8c2" stop-opacity="0"/></radialGradient><radialGradient cx="532.64156" cy="-17.56552" r="45.86765" gradientUnits="userSpaceOnUse" id="color-43"><stop offset="0" stop-color="#ff0097"/><stop offset="1" stop-color="#ff0097" stop-opacity="0"/></radialGradient><radialGradient cx="532.64156" cy="-17.56552" r="20.38562" gradientUnits="userSpaceOnUse" id="color-44"><stop offset="0" stop-color="#ffc2e9"/><stop offset="1" stop-color="#ffc2e9" stop-opacity="0"/></radialGradient><radialGradient cx="415.83745" cy="322.5105" r="45.86765" gradientUnits="userSpaceOnUse" id="color-45"><stop offset="0" stop-color="#ff0000"/><stop offset="1" stop-color="#ff0000" stop-opacity="0"/></radialGradient><radialGradient cx="415.83745" cy="322.5105" r="20.38561" gradientUnits="userSpaceOnUse" id="color-46"><stop offset="0" stop-color="#ffc2c2"/><stop offset="1" stop-color="#ffc2c2" stop-opacity="0"/></radialGradient><radialGradient cx="547.93078" cy="542.48812" r="45.86765" gradientUnits="userSpaceOnUse" id="color-47"><stop offset="0" stop-color="#ff0000"/><stop offset="1" stop-color="#ff0000" stop-opacity="0"/></radialGradient><radialGradient cx="547.93078" cy="542.48812" r="20.38564" gradientUnits="userSpaceOnUse" id="color-48"><stop offset="0" stop-color="#ffc2c2"/><stop offset="1" stop-color="#ffc2c2" stop-opacity="0"/></radialGradient><radialGradient cx="460.86717" cy="437.28869" r="45.86765" gradientUnits="userSpaceOnUse" id="color-49"><stop offset="0" stop-color="#00b8ff"/><stop offset="1" stop-color="#00b8ff" stop-opacity="0"/></radialGradient><radialGradient cx="460.86717" cy="437.28869" r="20.38564" gradientUnits="userSpaceOnUse" id="color-50"><stop offset="0" stop-color="#c2f4ff"/><stop offset="1" stop-color="#c2f4ff" stop-opacity="0"/></radialGradient><radialGradient cx="344.0401" cy="414.39502" r="45.86765" gradientUnits="userSpaceOnUse" id="color-51"><stop offset="0" stop-color="#1fff00"/><stop offset="1" stop-color="#1fff00" stop-opacity="0"/></radialGradient><radialGradient cx="344.0401" cy="414.39502" r="20.38561" gradientUnits="userSpaceOnUse" id="color-52"><stop offset="0" stop-color="#c3ffc2"/><stop offset="1" stop-color="#c3ffc2" stop-opacity="0"/></radialGradient><radialGradient cx="625.09788" cy="46.87802" r="45.86765" gradientUnits="userSpaceOnUse" id="color-53"><stop offset="0" stop-color="#ff0000"/><stop offset="1" stop-color="#ff0000" stop-opacity="0"/></radialGradient><radialGradient cx="625.09788" cy="46.87802" r="20.38564" gradientUnits="userSpaceOnUse" id="color-54"><stop offset="0" stop-color="#ffc2c2"/><stop offset="1" stop-color="#ffc2c2" stop-opacity="0"/></radialGradient><radialGradient cx="634.78324" cy="-76.29606" r="45.86765" gradientUnits="userSpaceOnUse" id="color-55"><stop offset="0" stop-color="#00b8ff"/><stop offset="1" stop-color="#00b8ff" stop-opacity="0"/></radialGradient><radialGradient cx="634.78324" cy="-76.29606" r="20.38564" gradientUnits="userSpaceOnUse" id="color-56"><stop offset="0" stop-color="#c2f4ff"/><stop offset="1" stop-color="#c2f4ff" stop-opacity="0"/></radialGradient><radialGradient cx="263.77171" cy="358.91423" r="45.86765" gradientUnits="userSpaceOnUse" id="color-57"><stop offset="0" stop-color="#ff8800"/><stop offset="1" stop-color="#ff8800" stop-opacity="0"/></radialGradient><radialGradient cx="263.77171" cy="358.91423" r="20.38562" gradientUnits="userSpaceOnUse" id="color-58"><stop offset="0" stop-color="#ffe8c2"/><stop offset="1" stop-color="#ffe8c2" stop-opacity="0"/></radialGradient><radialGradient cx="211.32123" cy="532.91514" r="45.86765" gradientUnits="userSpaceOnUse" id="color-59"><stop offset="0" stop-color="#ff0097"/><stop offset="1" stop-color="#ff0097" stop-opacity="0"/></radialGradient><radialGradient cx="211.32123" cy="532.91514" r="20.38562" gradientUnits="userSpaceOnUse" id="color-60"><stop offset="0" stop-color="#ffc2e9"/><stop offset="1" stop-color="#ffc2e9" stop-opacity="0"/></radialGradient><radialGradient cx="328.14829" cy="555.80879" r="45.86765" gradientUnits="userSpaceOnUse" id="color-61"><stop offset="0" stop-color="#000bff"/><stop offset="1" stop-color="#000bff" stop-opacity="0"/></radialGradient><radialGradient cx="328.14829" cy="555.80879" r="20.38562" gradientUnits="userSpaceOnUse" id="color-62"><stop offset="0" stop-color="#d1c2ff"/><stop offset="1" stop-color="#d1c2ff" stop-opacity="0"/></radialGradient><radialGradient cx="74.48048" cy="561.38583" r="45.86765" gradientUnits="userSpaceOnUse" id="color-63"><stop offset="0" stop-color="#ff0000"/><stop offset="1" stop-color="#ff0000" stop-opacity="0"/></radialGradient><radialGradient cx="74.48048" cy="561.38583" r="20.38561" gradientUnits="userSpaceOnUse" id="color-64"><stop offset="0" stop-color="#ffc2c2"/><stop offset="1" stop-color="#ffc2c2" stop-opacity="0"/></radialGradient><radialGradient cx="-186.19841" cy="360.92868" r="45.86765" gradientUnits="userSpaceOnUse" id="color-65"><stop offset="0" stop-color="#ff0000"/><stop offset="1" stop-color="#ff0000" stop-opacity="0"/></radialGradient><radialGradient cx="-186.19841" cy="360.92868" r="20.38564" gradientUnits="userSpaceOnUse" id="color-66"><stop offset="0" stop-color="#ffc2c2"/><stop offset="1" stop-color="#ffc2c2" stop-opacity="0"/></radialGradient><radialGradient cx="635.2152" cy="426.08863" r="45.86765" gradientUnits="userSpaceOnUse" id="color-67"><stop offset="0" stop-color="#00b8ff"/><stop offset="1" stop-color="#00b8ff" stop-opacity="0"/></radialGradient><radialGradient cx="635.2152" cy="426.08863" r="20.38564" gradientUnits="userSpaceOnUse" id="color-68"><stop offset="0" stop-color="#c2f4ff"/><stop offset="1" stop-color="#c2f4ff" stop-opacity="0"/></radialGradient><radialGradient cx="641.98496" cy="307.23217" r="45.86765" gradientUnits="userSpaceOnUse" id="color-69"><stop offset="0" stop-color="#1fff00"/><stop offset="1" stop-color="#1fff00" stop-opacity="0"/></radialGradient><radialGradient cx="641.98496" cy="307.23217" r="20.38561" gradientUnits="userSpaceOnUse" id="color-70"><stop offset="0" stop-color="#c3ffc2"/><stop offset="1" stop-color="#c3ffc2" stop-opacity="0"/></radialGradient><radialGradient cx="-117.27067" cy="412.63884" r="45.86765" gradientUnits="userSpaceOnUse" id="color-71"><stop offset="0" stop-color="#1fff00"/><stop offset="1" stop-color="#1fff00" stop-opacity="0"/></radialGradient><radialGradient cx="-117.27067" cy="412.63884" r="20.38564" gradientUnits="userSpaceOnUse" id="color-72"><stop offset="0" stop-color="#c3ffc2"/><stop offset="1" stop-color="#c3ffc2" stop-opacity="0"/></radialGradient><radialGradient cx="-137.08239" cy="502.44575" r="45.86765" gradientUnits="userSpaceOnUse" id="color-73"><stop offset="0" stop-color="#00b8ff"/><stop offset="1" stop-color="#00b8ff" stop-opacity="0"/></radialGradient><radialGradient cx="-137.08239" cy="502.44575" r="20.38562" gradientUnits="userSpaceOnUse" id="color-74"><stop offset="0" stop-color="#c2f4ff"/><stop offset="1" stop-color="#c2f4ff" stop-opacity="0"/></radialGradient><radialGradient cx="608.12474" cy="215.71923" r="45.86765" gradientUnits="userSpaceOnUse" id="color-75"><stop offset="0" stop-color="#ff8800"/><stop offset="1" stop-color="#ff8800" stop-opacity="0"/></radialGradient><radialGradient cx="608.12474" cy="215.71923" r="20.38564" gradientUnits="userSpaceOnUse" id="color-76"><stop offset="0" stop-color="#ffe8c2"/><stop offset="1" stop-color="#ffe8c2" stop-opacity="0"/></radialGradient><radialGradient cx="150.41114" cy="351.35569" r="45.86765" gradientUnits="userSpaceOnUse" id="color-77"><stop offset="0" stop-color="#ff0097"/><stop offset="1" stop-color="#ff0097" stop-opacity="0"/></radialGradient><radialGradient cx="150.41114" cy="351.35569" r="20.38564" gradientUnits="userSpaceOnUse" id="color-78"><stop offset="0" stop-color="#ffc2e9"/><stop offset="1" stop-color="#ffc2e9" stop-opacity="0"/></radialGradient><radialGradient cx="33.58407" cy="374.24934" r="45.86765" gradientUnits="userSpaceOnUse" id="color-79"><stop offset="0" stop-color="#000bff"/><stop offset="1" stop-color="#000bff" stop-opacity="0"/></radialGradient><radialGradient cx="33.58407" cy="374.24934" r="20.38562" gradientUnits="userSpaceOnUse" id="color-80"><stop offset="0" stop-color="#d1c2ff"/><stop offset="1" stop-color="#d1c2ff" stop-opacity="0"/></radialGradient><radialGradient cx="-44.77316" cy="494.65192" r="45.86765" gradientUnits="userSpaceOnUse" id="color-81"><stop offset="0" stop-color="#000bff"/><stop offset="1" stop-color="#000bff" stop-opacity="0"/></radialGradient><radialGradient cx="-44.77316" cy="494.65192" r="20.38561" gradientUnits="userSpaceOnUse" id="color-82"><stop offset="0" stop-color="#d1c2ff"/><stop offset="1" stop-color="#d1c2ff" stop-opacity="0"/></radialGradient><radialGradient cx="-294.28469" cy="194.55515" r="45.86765" gradientUnits="userSpaceOnUse" id="color-83"><stop offset="0" stop-color="#ff8800"/><stop offset="1" stop-color="#ff8800" stop-opacity="0"/></radialGradient><radialGradient cx="-294.28469" cy="194.55515" r="20.38562" gradientUnits="userSpaceOnUse" id="color-84"><stop offset="0" stop-color="#ffe8c2"/><stop offset="1" stop-color="#ffe8c2" stop-opacity="0"/></radialGradient><radialGradient cx="-323.55457" cy="446.9133" r="45.86765" gradientUnits="userSpaceOnUse" id="color-85"><stop offset="0" stop-color="#ff0097"/><stop offset="1" stop-color="#ff0097" stop-opacity="0"/></radialGradient><radialGradient cx="-323.55457" cy="446.9133" r="20.38562" gradientUnits="userSpaceOnUse" id="color-86"><stop offset="0" stop-color="#ffc2e9"/><stop offset="1" stop-color="#ffc2e9" stop-opacity="0"/></radialGradient><linearGradient x1="601.95689" y1="23.04245" x2="340.28402" y2="85.0903" gradientUnits="userSpaceOnUse" id="color-87"><stop offset="0" stop-color="#cc00ff"/><stop offset="1" stop-color="#1f00ff"/></linearGradient><radialGradient cx="320.39862" cy="45.94051" r="11.2015" gradientUnits="userSpaceOnUse" id="color-88"><stop offset="0" stop-color="#cfcfcf"/><stop offset="1" stop-color="#ffffff"/></radialGradient><radialGradient cx="328.01177" cy="69.66872" r="10.99785" gradientUnits="userSpaceOnUse" id="color-89"><stop offset="0" stop-color="#cfcfcf"/><stop offset="1" stop-color="#ffffff"/></radialGradient><radialGradient cx="474.48788" cy="55.32027" r="145.99658" gradientUnits="userSpaceOnUse" id="color-90"><stop offset="0" stop-color="#cc00ff"/><stop offset="1" stop-color="#cc00ff" stop-opacity="0"/></radialGradient><linearGradient x1="48.4086" y1="386.47461" x2="290.04808" y2="268.43652" gradientUnits="userSpaceOnUse" id="color-91"><stop offset="0" stop-color="#ff0000"/><stop offset="1" stop-color="#00ff22"/></linearGradient><radialGradient cx="318.05116" cy="302.25904" r="11.2015" gradientUnits="userSpaceOnUse" id="color-92"><stop offset="0" stop-color="#cfcfcf"/><stop offset="1" stop-color="#ffffff"/></radialGradient><radialGradient cx="305.40945" cy="280.78405" r="10.99785" gradientUnits="userSpaceOnUse" id="color-93"><stop offset="0" stop-color="#cfcfcf"/><stop offset="1" stop-color="#ffffff"/></radialGradient><radialGradient cx="170.3204" cy="323.58664" r="145.99658" gradientUnits="userSpaceOnUse" id="color-94"><stop offset="0" stop-color="#00ff30"/><stop offset="1" stop-color="#00ff30" stop-opacity="0"/></radialGradient><linearGradient x1="-35.42865" y1="206.97952" x2="233.50001" y2="206.97952" gradientUnits="userSpaceOnUse" id="color-95"><stop offset="0" stop-color="#00caff"/><stop offset="1" stop-color="#0067ff"/></linearGradient><radialGradient cx="243.81616" cy="164.298" r="11.2015" gradientUnits="userSpaceOnUse" id="color-96"><stop offset="0" stop-color="#cfcfcf"/><stop offset="1" stop-color="#ffffff"/></radialGradient><radialGradient cx="241.88306" cy="189.14253" r="10.99785" gradientUnits="userSpaceOnUse" id="color-97"><stop offset="0" stop-color="#cfcfcf"/><stop offset="1" stop-color="#ffffff"/></radialGradient><linearGradient x1="472.80641" y1="159.89222" x2="353.8336" y2="164.30658" gradientUnits="userSpaceOnUse" id="color-98"><stop offset="0" stop-color="#9966ff"/><stop offset="1" stop-color="#66ebff"/></linearGradient><radialGradient cx="349.332" cy="163.02791" r="4.8331" gradientUnits="userSpaceOnUse" id="color-99"><stop offset="0" stop-color="#cfcfcf"/><stop offset="1" stop-color="#ffffff"/></radialGradient><radialGradient cx="349.76803" cy="152.28471" r="4.74523" gradientUnits="userSpaceOnUse" id="color-100"><stop offset="0" stop-color="#cfcfcf"/><stop offset="1" stop-color="#ffffff"/></radialGradient></defs><g transform="translate(435.84185,263.98468)"><g data-paper-data="{&quot;isPaintingLayer&quot;:true}" fill-rule="nonzero" stroke-linejoin="miter" stroke-miterlimit="10" stroke-dasharray="" stroke-dashoffset="0" style="mix-blend-mode: normal"><path d="M649.94211,-149.29033v739.61585h-995.71025v-739.61585z" data-paper-data="{&quot;index&quot;:null}" fill="#272727" stroke="#000000" stroke-width="0" stroke-linecap="butt"/><path d="M421.87794,176.81473l-45.23058,89.18709h-120.40258l-41.40828,-87.27595l47.14174,-88.55002l112.12091,0.63705z" data-paper-data="{&quot;index&quot;:null}" fill="none" stroke="#747474" stroke-width="5" stroke-linecap="round"/><path d="M261.34116,88.90175l-45.23058,89.18709h-120.40258l-41.4083,-87.27594l47.14176,-88.55004l112.12091,0.63705z" data-paper-data="{&quot;index&quot;:null}" fill="none" stroke="#747474" stroke-width="5" stroke-linecap="round"/><path d="M259.43,264.72771l-45.23058,89.18709h-120.40258l-41.4083,-87.27595l47.14176,-88.55004l112.12091,0.63704z" data-paper-data="{&quot;index&quot;:null}" fill="none" stroke="#747474" stroke-width="5" stroke-linecap="round"/><path d="M100.8044,178.7259l-45.2306,89.18711h-120.40258l-41.4083,-87.27595l47.14176,-88.55004l112.12093,0.63704z" data-paper-data="{&quot;index&quot;:null}" fill="none" stroke="#747474" stroke-width="5" stroke-linecap="round"/><path d="M-59.73239,90.81291l-45.2306,89.18709h-120.40258l-41.4083,-87.27595l47.14176,-88.55004l112.12093,0.63704z" data-paper-data="{&quot;index&quot;:null}" fill="none" stroke="#747474" stroke-width="5" stroke-linecap="round"/><path d="M-61.64355,266.63884l-45.2306,89.18711h-120.40258l-41.4083,-87.27595l47.14176,-88.55004l112.12093,0.63705z" data-paper-data="{&quot;index&quot;:null}" fill="none" stroke="#747474" stroke-width="5" stroke-linecap="round"/><path d="M580.50354,438.64259l-45.23058,89.18709h-120.40258l-41.40828,-87.27595l47.14174,-88.55004l112.12093,0.63705z" data-paper-data="{&quot;index&quot;:null}" fill="none" stroke="#747474" stroke-width="5" stroke-linecap="round"/><path d="M419.96678,350.72956l-45.2306,89.18711h-120.40256l-41.40828,-87.27595l47.14174,-88.55004l112.12091,0.63705z" data-paper-data="{&quot;index&quot;:null}" fill="none" stroke="#747474" stroke-width="5" stroke-linecap="round"/><path d="M418.05564,526.55557l-45.23058,89.18711h-120.40258l-41.40828,-87.27595l47.14174,-88.55004l112.12091,0.63704z" data-paper-data="{&quot;index&quot;:null}" fill="none" stroke="#747474" stroke-width="5" stroke-linecap="round"/><path d="M259.43,442.46489l-45.23058,89.18709h-120.40258l-41.4083,-87.27595l47.14176,-88.55004l112.12091,0.63705z" data-paper-data="{&quot;index&quot;:null}" fill="none" stroke="#747474" stroke-width="5" stroke-linecap="round"/><path d="M98.89325,354.55188l-45.2306,89.18709h-120.40258l-41.4083,-87.27595l47.14176,-88.55002l112.12093,0.63705z" data-paper-data="{&quot;index&quot;:null}" fill="none" stroke="#747474" stroke-width="5" stroke-linecap="round"/><path d="M96.9821,530.37788l-45.2306,89.18709h-120.40258l-41.4083,-87.27595l47.14176,-88.55004l112.12093,0.63705z" data-paper-data="{&quot;index&quot;:null}" fill="none" stroke="#747474" stroke-width="5" stroke-linecap="round"/><path d="M746.77375,176.81473l-45.23058,89.18709h-120.40258l-41.40828,-87.27595l47.14176,-88.55002l112.12093,0.63705z" data-paper-data="{&quot;index&quot;:null}" fill="none" stroke="#747474" stroke-width="5" stroke-linecap="round"/><path d="M586.23699,88.90175l-45.23058,89.18709h-120.40258l-41.40828,-87.27594l47.14174,-88.55004l112.12093,0.63705z" data-paper-data="{&quot;index&quot;:null}" fill="none" stroke="#747474" stroke-width="5" stroke-linecap="round"/><path d="M584.32586,264.72771l-45.23058,89.18709h-120.40258l-41.40828,-87.27595l47.14172,-88.55004l112.12093,0.63704z" data-paper-data="{&quot;index&quot;:null}" fill="none" stroke="#747474" stroke-width="5" stroke-linecap="round"/><path d="M588.14815,-86.92423l-45.23058,89.18709h-120.40258l-41.40828,-87.27595l47.14174,-88.55004l112.12093,0.63705z" data-paper-data="{&quot;index&quot;:null}" fill="none" stroke="#747474" stroke-width="5" stroke-linecap="round"/><path d="M427.61142,-174.83724l-45.2306,89.18709h-120.40258l-41.40828,-87.27595l47.14174,-88.55004l112.12091,0.63705z" data-paper-data="{&quot;index&quot;:null}" fill="none" stroke="#747474" stroke-width="5" stroke-linecap="round"/><path d="M425.70024,0.98874l-45.23058,89.18709h-120.40258l-41.40828,-87.27595l47.14174,-88.55004l112.12091,0.63705z" data-paper-data="{&quot;index&quot;:null}" fill="none" stroke="#747474" stroke-width="5" stroke-linecap="round"/><path d="M265.16348,-86.92423l-45.2306,89.18709h-120.40258l-41.4083,-87.27595l47.14176,-88.55004l112.12091,0.63705z" data-paper-data="{&quot;index&quot;:null}" fill="none" stroke="#747474" stroke-width="5" stroke-linecap="round"/><path d="M104.6267,-174.83724l-45.2306,89.18709h-120.40258l-41.4083,-87.27595l47.14176,-88.55004l112.12093,0.63705z" data-paper-data="{&quot;index&quot;:null}" fill="none" stroke="#747474" stroke-width="5" stroke-linecap="round"/><path d="M102.71556,0.98874l-45.2306,89.18709h-120.40258l-41.4083,-87.27595l47.14176,-88.55004l112.12093,0.63705z" data-paper-data="{&quot;index&quot;:null}" fill="none" stroke="#747474" stroke-width="5" stroke-linecap="round"/><path d="M-57.82121,-86.92423l-45.23062,89.18709h-120.40258l-41.4083,-87.27595l47.14176,-88.55004l112.12093,0.63705z" data-paper-data="{&quot;index&quot;:null}" fill="none" stroke="#747474" stroke-width="5" stroke-linecap="round"/><path d="M-218.35799,-174.83724l-45.23062,89.18709h-120.40258l-41.40828,-87.27595l47.14174,-88.55004l112.12093,0.63705z" data-paper-data="{&quot;index&quot;:null}" fill="none" stroke="#747474" stroke-width="5" stroke-linecap="round"/><path d="M-220.26917,0.98874l-45.2306,89.18709h-120.40258l-41.40828,-87.27595l47.14174,-88.55004l112.12093,0.63705z" data-paper-data="{&quot;index&quot;:null}" fill="none" stroke="#747474" stroke-width="5" stroke-linecap="round"/><path d="M905.39941,440.55373l-45.23058,89.18709h-120.40258l-41.40828,-87.27595l47.14174,-88.55004l112.12091,0.63705z" data-paper-data="{&quot;index&quot;:null}" fill="none" stroke="#747474" stroke-width="5" stroke-linecap="round"/><path d="M744.86265,352.64074l-45.23058,89.18709h-120.40258l-41.4083,-87.27595l47.14176,-88.55004l112.12091,0.63705z" data-paper-data="{&quot;index&quot;:null}" fill="none" stroke="#747474" stroke-width="5" stroke-linecap="round"/><path d="M742.95151,528.46673l-45.23058,89.18709h-120.40258l-41.4083,-87.27595l47.14176,-88.55004l112.12091,0.63705z" data-paper-data="{&quot;index&quot;:null}" fill="none" stroke="#747474" stroke-width="5" stroke-linecap="round"/><path d="M913.04405,-86.92424l-45.23058,89.18709h-120.40258l-41.40828,-87.27595l47.14172,-88.55004l112.12091,0.63704z" data-paper-data="{&quot;index&quot;:null}" fill="none" stroke="#747474" stroke-width="5" stroke-linecap="round"/><path d="M752.50727,-174.83724l-45.23058,89.18709h-120.40258l-41.4083,-87.27595l47.14174,-88.55004l112.12091,0.63705z" data-paper-data="{&quot;index&quot;:null}" fill="none" stroke="#747474" stroke-width="5" stroke-linecap="round"/><path d="M750.59611,0.98874l-45.23058,89.18709h-120.40258l-41.4083,-87.27595l47.14176,-88.55004l112.12091,0.63705z" data-paper-data="{&quot;index&quot;:null}" fill="none" stroke="#747474" stroke-width="5" stroke-linecap="round"/><path d="M-63.55467,444.37605l-45.23058,89.18709h-120.40258l-41.40828,-87.27595l47.14172,-88.55004l112.12091,0.63705z" data-paper-data="{&quot;index&quot;:null}" fill="none" stroke="#747474" stroke-width="5" stroke-linecap="round"/><path d="M-224.09145,356.46302l-45.23058,89.18711h-120.40258l-41.40828,-87.27595l47.14172,-88.55004l112.12091,0.63705z" data-paper-data="{&quot;index&quot;:null}" fill="none" stroke="#747474" stroke-width="5" stroke-linecap="round"/><path d="M-226.0026,532.28902l-45.2306,89.18711h-120.40258l-41.40828,-87.27595l47.14174,-88.55004l112.12091,0.63704z" data-paper-data="{&quot;index&quot;:null}" fill="none" stroke="#747474" stroke-width="5" stroke-linecap="round"/><path d="M-88.25904,276.92981c0,25.33198 -20.53566,45.86765 -45.86765,45.86765c-25.33199,0 -45.86764,-20.53565 -45.86764,-45.86765c0,-25.332 20.53565,-45.86765 45.86764,-45.86765c25.33198,0 45.86765,20.53565 45.86765,45.86764z" data-paper-data="{&quot;index&quot;:null}" fill="url(#color-1)" stroke="none" stroke-width="0" stroke-linecap="butt"/><path d="M-134.12671,299.02969c-12.20543,0 -22.09985,-9.89444 -22.09985,-22.09989c0,-12.20545 9.89442,-22.09987 22.09985,-22.09987c12.20541,0 22.09987,9.89442 22.09987,22.09987c0,12.20545 -9.89444,22.09989 -22.09987,22.09989z" data-paper-data="{&quot;index&quot;:null}" fill="#ff0000" stroke="none" stroke-width="0.5" stroke-linecap="butt"/><path d="M-134.12666,297.31544c-11.25865,0 -20.38561,-9.12696 -20.38561,-20.38564c0,-11.25867 9.12697,-20.38561 20.38561,-20.38561c11.25865,0 20.38561,9.12695 20.38561,20.38561c0,11.25868 -9.12697,20.38564 -20.38561,20.38564z" data-paper-data="{&quot;index&quot;:null}" fill="url(#color-2)" stroke="none" stroke-width="0" stroke-linecap="butt"/><path d="M-266.22003,102.81984c-25.332,0 -45.86765,-20.53565 -45.86765,-45.86765c0,-25.332 20.53565,-45.86765 45.86765,-45.86765c25.332,0 45.86765,20.53566 45.86765,45.86765c0,25.33198 -20.53565,45.86765 -45.86765,45.86765z" data-paper-data="{&quot;index&quot;:null}" fill="url(#color-3)" stroke="none" stroke-width="0" stroke-linecap="butt"/><path d="M-266.22003,79.05206c-12.20543,0 -22.09985,-9.89444 -22.09985,-22.09987c0,-12.20545 9.89442,-22.09987 22.09985,-22.09987c12.20543,0 22.09987,9.89442 22.09987,22.09987c0,12.20543 -9.89444,22.09987 -22.09987,22.09987z" data-paper-data="{&quot;index&quot;:null}" fill="#ff0000" stroke="none" stroke-width="0.5" stroke-linecap="butt"/><path d="M-266.21999,77.3378c-11.25866,0 -20.38562,-9.12697 -20.38562,-20.38561c0,-11.25865 9.12698,-20.38561 20.38562,-20.38561c11.25865,0 20.38561,9.12697 20.38561,20.38561c0,11.25865 -9.12697,20.38561 -20.38561,20.38561z" data-paper-data="{&quot;index&quot;:null}" fill="url(#color-4)" stroke="none" stroke-width="0" stroke-linecap="butt"/><path d="M-179.1564,208.01927c-25.33198,0 -45.86765,-20.53565 -45.86765,-45.86765c0,-25.33199 20.53566,-45.86764 45.86765,-45.86764c25.33198,0 45.86765,20.53565 45.86765,45.86764c0,25.33198 -20.53566,45.86765 -45.86765,45.86765z" data-paper-data="{&quot;index&quot;:null}" fill="url(#color-5)" stroke="none" stroke-width="0" stroke-linecap="butt"/><path d="M-179.15642,184.25151c-12.20543,0 -22.09985,-9.89444 -22.09985,-22.09989c0,-12.20545 9.89442,-22.09987 22.09985,-22.09987c12.20541,0 22.09987,9.89444 22.09987,22.09987c0,12.20545 -9.89444,22.09989 -22.09987,22.09989z" data-paper-data="{&quot;index&quot;:null}" fill="#00c4ff" stroke="none" stroke-width="0.5" stroke-linecap="butt"/><path d="M-179.1564,182.53726c-11.25868,0 -20.38564,-9.12698 -20.38564,-20.38564c0,-11.25867 9.127,-20.38561 20.38564,-20.38561c11.25868,0 20.38562,9.12697 20.38562,20.38561c0,11.25868 -9.12698,20.38564 -20.38562,20.38564z" data-paper-data="{&quot;index&quot;:null}" fill="url(#color-6)" stroke="none" stroke-width="0" stroke-linecap="butt"/><path d="M-62.32935,230.91294c-25.33198,0 -45.86765,-20.53565 -45.86765,-45.86765c0,-25.33198 20.53566,-45.86765 45.86765,-45.86765c25.332,0 45.86765,20.53566 45.86765,45.86765c0,25.332 -20.53566,45.86765 -45.86765,45.86765z" data-paper-data="{&quot;index&quot;:null}" fill="url(#color-7)" stroke="none" stroke-width="0" stroke-linecap="butt"/><path d="M-62.32936,207.14516c-12.20543,0 -22.09987,-9.89442 -22.09987,-22.09987c0,-12.20545 9.89444,-22.09989 22.09987,-22.09989c12.20543,0 22.09987,9.89444 22.09987,22.09989c0,12.20545 -9.89444,22.09987 -22.09987,22.09987z" data-paper-data="{&quot;index&quot;:null}" fill="#38ff00" stroke="none" stroke-width="0.5" stroke-linecap="butt"/><path d="M-62.32934,205.43091c-11.25865,0 -20.38561,-9.12696 -20.38561,-20.38562c0,-11.25866 9.12697,-20.38562 20.38561,-20.38562c11.25865,0 20.38561,9.12696 20.38561,20.38562c0,11.25868 -9.12697,20.38562 -20.38561,20.38562z" data-paper-data="{&quot;index&quot;:null}" fill="url(#color-8)" stroke="none" stroke-width="0" stroke-linecap="butt"/><path d="M-151.42462,5.24205c0,25.33198 -20.53565,45.86765 -45.86765,45.86765c-25.332,0 -45.86765,-20.53565 -45.86765,-45.86765c0,-25.332 20.53565,-45.86765 45.86765,-45.86765c25.332,0 45.86765,20.53565 45.86765,45.86764z" data-paper-data="{&quot;index&quot;:null}" fill="url(#color-9)" stroke="none" stroke-width="0" stroke-linecap="butt"/><path d="M-175.19242,5.24206c0,12.20543 -9.89444,22.09987 -22.09987,22.09987c-12.20541,0 -22.09985,-9.89444 -22.09985,-22.09989c0,-12.20545 9.89442,-22.09987 22.09985,-22.09987c12.20543,0 22.09987,9.89442 22.09987,22.09987z" data-paper-data="{&quot;index&quot;:null}" fill="#38ff00" stroke="none" stroke-width="0.5" stroke-linecap="butt"/><path d="M-197.29225,25.62766c-11.25868,0 -20.38562,-9.12696 -20.38562,-20.38562c0,-11.25867 9.12698,-20.38561 20.38562,-20.38561c11.25866,0 20.38562,9.12695 20.38562,20.38561c0,11.25866 -9.12698,20.38562 -20.38562,20.38562z" data-paper-data="{&quot;index&quot;:null}" fill="url(#color-10)" stroke="none" stroke-width="0" stroke-linecap="butt"/><path d="M-140.49718,-68.26557c0,-25.33198 20.53566,-45.86765 45.86765,-45.86765c25.33198,0 45.86765,20.53566 45.86765,45.86765c0,25.33198 -20.53566,45.86765 -45.86765,45.86765c-25.332,0 -45.86765,-20.53565 -45.86765,-45.86765z" data-paper-data="{&quot;index&quot;:null}" fill="url(#color-11)" stroke="none" stroke-width="0" stroke-linecap="butt"/><path d="M-116.72939,-68.26557c0,-12.20543 9.89444,-22.09987 22.09987,-22.09987c12.20543,0 22.09985,9.89444 22.09985,22.09987c0,12.20545 -9.89442,22.09987 -22.09985,22.09987c-12.20543,0 -22.09987,-9.89442 -22.09987,-22.09987z" data-paper-data="{&quot;index&quot;:null}" fill="#ff0000" stroke="none" stroke-width="0.5" stroke-linecap="butt"/><path d="M-94.62953,-47.87994c-11.25868,0 -20.38562,-9.12695 -20.38562,-20.38561c0,-11.25868 9.12694,-20.38564 20.38562,-20.38564c11.25868,0 20.38564,9.12696 20.38564,20.38562c0,11.25865 -9.12696,20.38561 -20.38564,20.38561z" data-paper-data="{&quot;index&quot;:null}" fill="url(#color-12)" stroke="none" stroke-width="0" stroke-linecap="butt"/><path d="M-262.97162,-84.56489c0,-25.33198 20.53566,-45.86765 45.86765,-45.86765c25.33198,0 45.86765,20.53566 45.86765,45.86765c0,25.332 -20.53566,45.86765 -45.86765,45.86765c-25.332,0 -45.86765,-20.53565 -45.86765,-45.86765z" data-paper-data="{&quot;index&quot;:null}" fill="url(#color-13)" stroke="none" stroke-width="0" stroke-linecap="butt"/><path d="M-239.20383,-84.56489c0,-12.20543 9.89444,-22.09987 22.09987,-22.09987c12.20543,0 22.09985,9.89444 22.09985,22.09987c0,12.20545 -9.89442,22.09987 -22.09985,22.09987c-12.20543,0 -22.09987,-9.89442 -22.09987,-22.09987z" data-paper-data="{&quot;index&quot;:null}" fill="#00c4ff" stroke="none" stroke-width="0.5" stroke-linecap="butt"/><path d="M-237.48958,-84.5649c0,-11.25865 9.12697,-20.38561 20.38561,-20.38561c11.25864,0 20.38562,9.12697 20.38562,20.38561c0,11.25867 -9.12694,20.38561 -20.38562,20.38561c-11.25865,0 -20.38561,-9.12695 -20.38561,-20.38561z" data-paper-data="{&quot;index&quot;:null}" fill="url(#color-14)" stroke="none" stroke-width="0" stroke-linecap="butt"/><path d="M-27.9286,240.52611c0,-25.33198 20.53565,-45.86765 45.86765,-45.86765c25.332,0 45.86765,20.53566 45.86765,45.86765c0,25.33199 -20.53565,45.86764 -45.86765,45.86764c-25.332,0 -45.86765,-20.53565 -45.86765,-45.86765z" data-paper-data="{&quot;index&quot;:null}" fill="url(#color-15)" stroke="none" stroke-width="0" stroke-linecap="butt"/><path d="M17.93907,218.42621c12.20543,0 22.09985,9.89444 22.09985,22.09989c0,12.20545 -9.89442,22.09987 -22.09985,22.09987c-12.20543,0 -22.09989,-9.89442 -22.09989,-22.09987c0,-12.20545 9.89446,-22.09989 22.09989,-22.09989z" data-paper-data="{&quot;index&quot;:null}" fill="#ffa000" stroke="none" stroke-width="0.5" stroke-linecap="butt"/><path d="M17.93902,220.14048c11.25868,0 20.38564,9.12696 20.38564,20.38562c0,11.25867 -9.127,20.38561 -20.38564,20.38561c-11.25865,0 -20.38561,-9.12695 -20.38561,-20.38561c0,-11.25866 9.12697,-20.38562 20.38561,-20.38562z" data-paper-data="{&quot;index&quot;:null}" fill="url(#color-16)" stroke="none" stroke-width="0" stroke-linecap="butt"/><path d="M70.38953,20.65751c25.332,0 45.86765,20.53566 45.86765,45.86765c0,25.332 -20.53565,45.86765 -45.86765,45.86765c-25.332,0 -45.86765,-20.53565 -45.86765,-45.86765c0,-25.332 20.53565,-45.86765 45.86765,-45.86765z" data-paper-data="{&quot;index&quot;:null}" fill="url(#color-17)" stroke="none" stroke-width="0" stroke-linecap="butt"/><path d="M70.38955,44.42529c12.20543,0 22.09985,9.89444 22.09985,22.09987c0,12.20543 -9.89442,22.09987 -22.09985,22.09987c-12.20541,0 -22.09987,-9.89444 -22.09987,-22.09987c0,-12.20543 9.89444,-22.09987 22.09987,-22.09987z" data-paper-data="{&quot;index&quot;:null}" fill="#ff00c8" stroke="none" stroke-width="0.5" stroke-linecap="butt"/><path d="M70.38955,46.13954c11.25868,0 20.38564,9.12698 20.38564,20.38562c0,11.25865 -9.127,20.38561 -20.38564,20.38561c-11.25868,0 -20.38562,-9.12697 -20.38562,-20.38561c0,-11.25866 9.12698,-20.38562 20.38562,-20.38562z" data-paper-data="{&quot;index&quot;:null}" fill="url(#color-18)" stroke="none" stroke-width="0" stroke-linecap="butt"/><path d="M-46.43752,-2.23613c25.332,0 45.86765,20.53566 45.86765,45.86765c0,25.332 -20.53565,45.86765 -45.86765,45.86765c-25.332,0 -45.86765,-20.53565 -45.86765,-45.86765c0,-25.33198 20.53565,-45.86765 45.86765,-45.86765z" data-paper-data="{&quot;index&quot;:null}" fill="url(#color-19)" stroke="none" stroke-width="0" stroke-linecap="butt"/><path d="M-46.43751,21.53165c12.20543,0 22.09987,9.89442 22.09987,22.09987c0,12.20545 -9.89444,22.09989 -22.09987,22.09989c-12.20543,0 -22.09987,-9.89446 -22.09987,-22.09989c0,-12.20545 9.89444,-22.09987 22.09987,-22.09987z" data-paper-data="{&quot;index&quot;:null}" fill="#0100ff" stroke="none" stroke-width="0.5" stroke-linecap="butt"/><path d="M-46.43753,23.2459c11.25865,0 20.38561,9.12696 20.38561,20.38562c0,11.25866 -9.12697,20.38562 -20.38561,20.38562c-11.25865,0 -20.38561,-9.12698 -20.38561,-20.38562c0,-11.25868 9.12697,-20.38562 20.38561,-20.38562z" data-paper-data="{&quot;index&quot;:null}" fill="url(#color-20)" stroke="none" stroke-width="0" stroke-linecap="butt"/><path d="M193.48973,81.81562c-24.16862,-7.5887 -37.60929,-33.33308 -30.02059,-57.5017c7.58872,-24.16861 33.33312,-37.60927 57.50174,-30.02057c24.1686,7.58872 37.60927,33.3331 30.02057,57.50172c-7.58872,24.16861 -33.3331,37.60927 -57.50172,30.02057z" data-paper-data="{&quot;index&quot;:null}" fill="url(#color-21)" stroke="none" stroke-width="0" stroke-linecap="butt"/><path d="M186.14538,31.43406c3.65637,-11.6449 16.0605,-18.12083 27.70538,-14.46446c11.6449,3.65635 18.12083,16.06046 14.46444,27.70536c-3.65639,11.6449 -16.06048,18.12085 -27.70536,14.46448c-11.6449,-3.65637 -18.12085,-16.06048 -14.46446,-27.70538z" data-paper-data="{&quot;index&quot;:null}" fill="#ff0000" stroke="none" stroke-width="0.5" stroke-linecap="butt"/><path d="M187.78087,31.94757c3.37276,-10.7416 14.81472,-16.71525 25.55631,-13.34248c10.74159,3.37274 16.71521,14.8147 13.34247,25.55629c-3.37278,10.74162 -14.81472,16.71527 -25.55631,13.3425c-10.74159,-3.37274 -16.71524,-14.81469 -13.34247,-25.55631z" data-paper-data="{&quot;index&quot;:null}" fill="url(#color-22)" stroke="none" stroke-width="0" stroke-linecap="butt"/><path d="M467.90918,284.3793c-25.332,0 -45.86765,-20.53565 -45.86765,-45.86765c0,-25.332 20.53565,-45.86765 45.86765,-45.86765c25.332,0 45.86765,20.53566 45.86765,45.86765c0,25.332 -20.53565,45.86765 -45.86764,45.86765z" data-paper-data="{&quot;index&quot;:null}" fill="url(#color-23)" stroke="none" stroke-width="0" stroke-linecap="butt"/><path d="M445.80932,238.51165c0,-12.20543 9.89444,-22.09987 22.09987,-22.09987c12.20543,0 22.09985,9.89442 22.09985,22.09987c0,12.20543 -9.89442,22.09987 -22.09985,22.09987c-12.20543,0 -22.09987,-9.89442 -22.09987,-22.09987z" data-paper-data="{&quot;index&quot;:null}" fill="#ff0000" stroke="none" stroke-width="0.5" stroke-linecap="butt"/><path d="M447.52355,238.51164c0,-11.25865 9.12697,-20.38561 20.38561,-20.38561c11.25864,0 20.38562,9.12695 20.38562,20.38561c0,11.25865 -9.12696,20.38561 -20.38562,20.38561c-11.25865,0 -20.38561,-9.12695 -20.38561,-20.38561z" data-paper-data="{&quot;index&quot;:null}" fill="url(#color-24)" stroke="none" stroke-width="0" stroke-linecap="butt"/><path d="M270.83551,-14.20173c-24.1686,-7.5887 -37.60926,-33.33308 -30.02056,-57.5017c7.58872,-24.16862 33.3331,-37.60929 57.50172,-30.02059c24.1686,7.58872 37.60926,33.3331 30.02056,57.50172c-7.58872,24.16862 -33.3331,37.60929 -57.50172,30.02059z" data-paper-data="{&quot;index&quot;:null}" fill="url(#color-25)" stroke="none" stroke-width="0" stroke-linecap="butt"/><path d="M277.95563,-36.87793c-11.6449,-3.65637 -18.12085,-16.06048 -14.46446,-27.70538c3.65639,-11.64492 16.0605,-18.12087 27.70538,-14.46448c11.6449,3.65639 18.12083,16.06048 14.46444,27.70538c-3.65639,11.64492 -16.06048,18.12085 -27.70536,14.46446z" data-paper-data="{&quot;index&quot;:null}" fill="#00c4ff" stroke="none" stroke-width="0.5" stroke-linecap="butt"/><path d="M278.46916,-38.51345c-10.74159,-3.37274 -16.71527,-14.81471 -13.3425,-25.55633c3.37274,-10.74161 14.81471,-16.71523 25.55633,-13.34247c10.74159,3.37278 16.71524,14.81472 13.3425,25.55631c-3.37274,10.74159 -14.81472,16.71525 -25.55633,13.34248z" data-paper-data="{&quot;index&quot;:null}" fill="url(#color-26)" stroke="none" stroke-width="0" stroke-linecap="butt"/><path d="M152.51557,-27.35732c-24.16862,-7.58872 -37.60929,-33.3331 -30.02059,-57.50172c7.58872,-24.16863 33.3331,-37.60929 57.50172,-30.02059c24.16862,7.58872 37.60929,33.3331 30.02059,57.50172c-7.58872,24.16861 -33.3331,37.60927 -57.50172,30.02057z" data-paper-data="{&quot;index&quot;:null}" fill="url(#color-27)" stroke="none" stroke-width="0" stroke-linecap="butt"/><path d="M159.63566,-50.03354c-11.6449,-3.65637 -18.12083,-16.06048 -14.46446,-27.70538c3.65637,-11.6449 16.0605,-18.12085 27.70538,-14.46448c11.6449,3.65637 18.12083,16.06048 14.46444,27.70538c-3.65637,11.6449 -16.06048,18.12085 -27.70536,14.46446z" data-paper-data="{&quot;index&quot;:null}" fill="#38ff00" stroke="none" stroke-width="0.5" stroke-linecap="butt"/><path d="M160.14922,-51.66907c-10.74157,-3.37276 -16.71521,-14.81471 -13.34245,-25.55633c3.37274,-10.74162 14.81468,-16.71525 25.55627,-13.34248c10.74159,3.37276 16.71522,14.8147 13.34248,25.55629c-3.37274,10.74159 -14.81472,16.71527 -25.55631,13.3425z" data-paper-data="{&quot;index&quot;:null}" fill="url(#color-28)" stroke="none" stroke-width="0" stroke-linecap="butt"/><path d="M353.11378,186.80149c0,-25.33198 20.53565,-45.86765 45.86765,-45.86765c25.33198,0 45.86765,20.53566 45.86765,45.86765c0,25.332 -20.53566,45.86765 -45.86765,45.86765c-25.33198,0 -45.86765,-20.53565 -45.86765,-45.86765z" data-paper-data="{&quot;index&quot;:null}" fill="url(#color-29)" stroke="none" stroke-width="0" stroke-linecap="butt"/><path d="M376.88158,186.80149c0,-12.20543 9.89444,-22.09987 22.09987,-22.09987c12.20544,0 22.09985,9.89442 22.09985,22.09987c0,12.20545 -9.89442,22.09987 -22.09985,22.09987c-12.20543,0 -22.09987,-9.89442 -22.09987,-22.09987z" data-paper-data="{&quot;index&quot;:null}" fill="#38ff00" stroke="none" stroke-width="0.5" stroke-linecap="butt"/><path d="M378.5958,186.80149c0,-11.25865 9.12695,-20.38561 20.38561,-20.38561c11.25864,0 20.38562,9.12695 20.38562,20.38561c0,11.25867 -9.12696,20.38561 -20.38562,20.38561c-11.25867,0 -20.38561,-9.12695 -20.38561,-20.38561z" data-paper-data="{&quot;index&quot;:null}" fill="url(#color-30)" stroke="none" stroke-width="0" stroke-linecap="butt"/><path d="M464.66077,96.99457c0,25.33199 -20.53566,45.86764 -45.86765,45.86764c-25.33199,0 -45.86764,-20.53565 -45.86764,-45.86765c0,-25.33198 20.53565,-45.86765 45.86765,-45.86765c25.33198,0 45.86765,20.53566 45.86765,45.86765z" data-paper-data="{&quot;index&quot;:null}" fill="url(#color-31)" stroke="none" stroke-width="0" stroke-linecap="butt"/><path d="M418.79313,119.09443c-12.20541,0 -22.09985,-9.89444 -22.09985,-22.09987c0,-12.20543 9.89442,-22.09987 22.09985,-22.09987c12.20541,0 22.09987,9.89444 22.09987,22.09987c0,12.20543 -9.89444,22.09987 -22.09987,22.09987z" data-paper-data="{&quot;index&quot;:null}" fill="#00c4ff" stroke="none" stroke-width="0.5" stroke-linecap="butt"/><path d="M418.79313,117.38017c-11.25868,0 -20.38562,-9.12697 -20.38562,-20.38561c0,-11.25865 9.12698,-20.38561 20.38562,-20.38561c11.25866,0 20.38562,9.12697 20.38562,20.38561c0,11.25867 -9.12698,20.38561 -20.38562,20.38561z" data-paper-data="{&quot;index&quot;:null}" fill="url(#color-32)" stroke="none" stroke-width="0" stroke-linecap="butt"/><path d="M86.79428,-85.99281c24.16862,7.58872 37.60929,33.3331 30.02059,57.50172c-7.58872,24.16862 -33.3331,37.60931 -57.50172,30.02059c-24.1686,-7.58872 -37.60927,-33.33312 -30.02057,-57.50174c7.58872,-24.16862 33.3331,-37.60931 57.50172,-30.02059z" data-paper-data="{&quot;index&quot;:null}" fill="url(#color-33)" stroke="none" stroke-width="0" stroke-linecap="butt"/><path d="M79.67416,-63.31659c11.6449,3.65637 18.12083,16.06048 14.46446,27.70538c-3.65637,11.6449 -16.0605,18.12085 -27.70538,14.46446c-11.64487,-3.65637 -18.1208,-16.06048 -14.46443,-27.70538c3.65637,-11.64492 16.0605,-18.12085 27.70538,-14.46448z" data-paper-data="{&quot;index&quot;:null}" fill="#ffa000" stroke="none" stroke-width="0.5" stroke-linecap="butt"/><path d="M79.16065,-61.68103c10.74159,3.37276 16.71522,14.8147 13.34248,25.55629c-3.37276,10.74159 -14.81472,16.71524 -25.55631,13.34247c-10.74157,-3.37274 -16.71522,-14.81472 -13.34248,-25.55631c3.37276,-10.74162 14.81471,-16.71524 25.55633,-13.34248z" data-paper-data="{&quot;index&quot;:null}" fill="url(#color-34)" stroke="none" stroke-width="0" stroke-linecap="butt"/><path d="M177.16727,248.08461c0,25.332 -20.53566,45.86765 -45.86765,45.86765c-25.33199,0 -45.86764,-20.53565 -45.86764,-45.86765c0,-25.332 20.53565,-45.86765 45.86764,-45.86765c25.33198,0 45.86765,20.53566 45.86765,45.86765z" data-paper-data="{&quot;index&quot;:null}" fill="url(#color-35)" stroke="none" stroke-width="0" stroke-linecap="butt"/><path d="M153.39947,248.08461c0,12.20543 -9.89444,22.09987 -22.09987,22.09987c-12.20543,0 -22.09985,-9.89442 -22.09985,-22.09987c0,-12.20543 9.89442,-22.09987 22.09985,-22.09987c12.20543,0 22.09987,9.89442 22.09987,22.09987z" data-paper-data="{&quot;index&quot;:null}" fill="#ff00c8" stroke="none" stroke-width="0.5" stroke-linecap="butt"/><path d="M151.68526,248.08461c0,11.25865 -9.12696,20.38561 -20.38564,20.38561c-11.25866,0 -20.38562,-9.12695 -20.38562,-20.38561c0,-11.25864 9.12694,-20.38562 20.38562,-20.38562c11.25866,0 20.38564,9.12694 20.38564,20.38562z" data-paper-data="{&quot;index&quot;:null}" fill="url(#color-36)" stroke="none" stroke-width="0" stroke-linecap="butt"/><path d="M248.12669,179.32333c25.33198,0 45.86765,20.53566 45.86765,45.86765c0,25.33199 -20.53566,45.86764 -45.86765,45.86764c-25.332,0 -45.86765,-20.53565 -45.86765,-45.86765c0,-25.332 20.53565,-45.86765 45.86765,-45.86765z" data-paper-data="{&quot;index&quot;:null}" fill="url(#color-37)" stroke="none" stroke-width="0" stroke-linecap="butt"/><path d="M270.22654,225.19097c0,12.20543 -9.89444,22.09987 -22.09987,22.09987c-12.20544,0 -22.09985,-9.89442 -22.09985,-22.09987c0,-12.20543 9.89442,-22.09987 22.09985,-22.09987c12.20543,0 22.09987,9.89442 22.09987,22.09987z" data-paper-data="{&quot;index&quot;:null}" fill="#0100ff" stroke="none" stroke-width="0.5" stroke-linecap="butt"/><path d="M268.51231,225.19097c0,11.25865 -9.12696,20.38561 -20.38562,20.38561c-11.25867,0 -20.38561,-9.12695 -20.38561,-20.38561c0,-11.25864 9.12695,-20.38562 20.38561,-20.38562c11.25866,0 20.38562,9.12694 20.38562,20.38562z" data-paper-data="{&quot;index&quot;:null}" fill="url(#color-38)" stroke="none" stroke-width="0" stroke-linecap="butt"/><path d="M326.48392,58.92074c25.332,0 45.86765,20.53566 45.86765,45.86765c0,25.33199 -20.53566,45.86764 -45.86765,45.86764c-25.33198,0 -45.86765,-20.53565 -45.86765,-45.86765c0,-25.33198 20.53565,-45.86765 45.86765,-45.86765z" data-paper-data="{&quot;index&quot;:null}" fill="url(#color-39)" stroke="none" stroke-width="0" stroke-linecap="butt"/><path d="M348.58377,104.7884c0,12.20545 -9.89444,22.09987 -22.09987,22.09987c-12.20545,0 -22.09987,-9.89444 -22.09987,-22.09987c0,-12.20545 9.89444,-22.09989 22.09987,-22.09989c12.20545,0 22.09987,9.89446 22.09987,22.09989z" data-paper-data="{&quot;index&quot;:null}" fill="#0100ff" stroke="none" stroke-width="0.5" stroke-linecap="butt"/><path d="M346.86953,104.78838c0,11.25867 -9.12695,20.38561 -20.38561,20.38561c-11.25866,0 -20.38562,-9.12697 -20.38562,-20.38561c0,-11.25864 9.12696,-20.38562 20.38562,-20.38562c11.25867,0 20.38561,9.12696 20.38561,20.38562z" data-paper-data="{&quot;index&quot;:null}" fill="url(#color-40)" stroke="none" stroke-width="0" stroke-linecap="butt"/><path d="M373.41334,-25.12403c0,-25.33198 20.53565,-45.86765 45.86765,-45.86765c25.33198,0 45.86765,20.53566 45.86765,45.86765c0,25.33199 -20.53566,45.86764 -45.86765,45.86764c-25.332,0 -45.86765,-20.53566 -45.86765,-45.86765z" data-paper-data="{&quot;index&quot;:null}" fill="url(#color-41)" stroke="none" stroke-width="0" stroke-linecap="butt"/><path d="M397.18112,-25.12402c0,-12.20545 9.89444,-22.09989 22.09989,-22.09989c12.20543,0 22.09985,9.89444 22.09985,22.09987c0,12.20543 -9.89442,22.09987 -22.09985,22.09987c-12.20543,0 -22.09989,-9.89444 -22.09989,-22.09987z" data-paper-data="{&quot;index&quot;:null}" fill="#ffa000" stroke="none" stroke-width="0.5" stroke-linecap="butt"/><path d="M419.28096,-45.50965c11.25866,0 20.38562,9.12697 20.38562,20.38561c0,11.25865 -9.12698,20.38561 -20.38562,20.38561c-11.25865,0 -20.38561,-9.12697 -20.38561,-20.38561c0,-11.25865 9.12697,-20.38561 20.38561,-20.38561z" data-paper-data="{&quot;index&quot;:null}" fill="url(#color-42)" stroke="none" stroke-width="0" stroke-linecap="butt"/><path d="M532.64156,-63.43315c25.33198,0 45.86765,20.53565 45.86765,45.86764c0,25.332 -20.53566,45.86765 -45.86765,45.86765c-25.332,0 -45.86765,-20.53566 -45.86765,-45.86765c0,-25.332 20.53565,-45.86765 45.86765,-45.86765z" data-paper-data="{&quot;index&quot;:null}" fill="url(#color-43)" stroke="none" stroke-width="0" stroke-linecap="butt"/><path d="M554.74141,-17.56553c0,12.20543 -9.89446,22.09987 -22.09987,22.09987c-12.20543,0 -22.09985,-9.89444 -22.09985,-22.09987c0,-12.20543 9.89444,-22.09987 22.09985,-22.09987c12.20545,0 22.09987,9.89444 22.09987,22.09987z" data-paper-data="{&quot;index&quot;:null}" fill="#ff00c8" stroke="none" stroke-width="0.5" stroke-linecap="butt"/><path d="M553.0272,-17.56553c0,11.25865 -9.12698,20.38561 -20.38564,20.38561c-11.25864,0 -20.38562,-9.12697 -20.38562,-20.38561c0,-11.25864 9.12696,-20.38562 20.38562,-20.38562c11.25866,0 20.38564,9.12694 20.38564,20.38562z" data-paper-data="{&quot;index&quot;:null}" fill="url(#color-44)" stroke="none" stroke-width="0" stroke-linecap="butt"/><path d="M369.96979,322.5105c0,-25.332 20.53565,-45.86765 45.86765,-45.86765c25.332,0 45.86765,20.53566 45.86765,45.86765c0,25.332 -20.53565,45.86765 -45.86764,45.86765c-25.332,0 -45.86765,-20.53565 -45.86765,-45.86765z" data-paper-data="{&quot;index&quot;:null}" fill="url(#color-45)" stroke="none" stroke-width="0" stroke-linecap="butt"/><path d="M415.83747,300.41063c12.20543,0 22.09985,9.89442 22.09985,22.09987c0,12.20543 -9.89442,22.09987 -22.09985,22.09987c-12.20541,0 -22.09987,-9.89442 -22.09987,-22.09987c0,-12.20543 9.89444,-22.09987 22.09987,-22.09987z" data-paper-data="{&quot;index&quot;:null}" fill="#ff0000" stroke="none" stroke-width="0.5" stroke-linecap="butt"/><path d="M415.83742,302.12488c11.25865,0 20.38561,9.12694 20.38561,20.38562c0,11.25865 -9.12697,20.38561 -20.38561,20.38561c-11.25865,0 -20.38561,-9.12695 -20.38561,-20.38561c0,-11.25866 9.12697,-20.38562 20.38561,-20.38562z" data-paper-data="{&quot;index&quot;:null}" fill="url(#color-46)" stroke="none" stroke-width="0" stroke-linecap="butt"/><path d="M547.93078,496.62047c25.33198,0 45.86765,20.53566 45.86765,45.86765c0,25.332 -20.53566,45.86765 -45.86765,45.86765c-25.33198,0 -45.86765,-20.53566 -45.86765,-45.86765c0,-25.33198 20.53565,-45.86765 45.86765,-45.86765z" data-paper-data="{&quot;index&quot;:null}" fill="url(#color-47)" stroke="none" stroke-width="0" stroke-linecap="butt"/><path d="M547.9308,520.38825c12.20541,0 22.09985,9.89444 22.09985,22.09987c0,12.20545 -9.8944,22.09987 -22.09985,22.09987c-12.20543,0 -22.09987,-9.89444 -22.09987,-22.09987c0,-12.20543 9.89442,-22.09987 22.09987,-22.09987z" data-paper-data="{&quot;index&quot;:null}" fill="#ff0000" stroke="none" stroke-width="0.5" stroke-linecap="butt"/><path d="M547.93076,522.10251c11.25866,0 20.38562,9.12697 20.38562,20.38561c0,11.25865 -9.12696,20.38561 -20.38562,20.38561c-11.25866,0 -20.38562,-9.12697 -20.38562,-20.38561c0,-11.25865 9.12696,-20.38561 20.38562,-20.38561z" data-paper-data="{&quot;index&quot;:null}" fill="url(#color-48)" stroke="none" stroke-width="0" stroke-linecap="butt"/><path d="M460.86716,391.42104c25.33198,0 45.86765,20.53565 45.86765,45.86765c0,25.33199 -20.53566,45.86764 -45.86765,45.86764c-25.33198,0 -45.86765,-20.53564 -45.86765,-45.86764c0,-25.332 20.53565,-45.86765 45.86765,-45.86765z" data-paper-data="{&quot;index&quot;:null}" fill="url(#color-49)" stroke="none" stroke-width="0" stroke-linecap="butt"/><path d="M460.86718,415.1888c12.20543,0 22.09985,9.89446 22.09985,22.09989c0,12.20545 -9.89442,22.09987 -22.09985,22.09987c-12.20543,0 -22.09987,-9.89444 -22.09987,-22.09987c0,-12.20545 9.89444,-22.09989 22.09987,-22.09989z" data-paper-data="{&quot;index&quot;:null}" fill="#00c4ff" stroke="none" stroke-width="0.5" stroke-linecap="butt"/><path d="M460.86718,416.90305c11.25866,0 20.38562,9.127 20.38562,20.38564c0,11.25865 -9.12698,20.38561 -20.38562,20.38561c-11.25868,0 -20.38564,-9.12697 -20.38564,-20.38561c0,-11.25868 9.127,-20.38564 20.38564,-20.38564z" data-paper-data="{&quot;index&quot;:null}" fill="url(#color-50)" stroke="none" stroke-width="0" stroke-linecap="butt"/><path d="M298.17246,414.39502c0,-25.33198 20.53565,-45.86765 45.86765,-45.86765c25.33198,0 45.86765,20.53566 45.86765,45.86765c0,25.332 -20.53566,45.86765 -45.86765,45.86765c-25.33199,0 -45.86764,-20.53566 -45.86764,-45.86765z" data-paper-data="{&quot;index&quot;:null}" fill="url(#color-51)" stroke="none" stroke-width="0" stroke-linecap="butt"/><path d="M344.04012,392.29515c12.20543,0 22.09987,9.89444 22.09987,22.09987c0,12.20545 -9.89442,22.09987 -22.09987,22.09987c-12.20543,0 -22.09987,-9.89444 -22.09987,-22.09987c0,-12.20543 9.89442,-22.09987 22.09987,-22.09987z" data-paper-data="{&quot;index&quot;:null}" fill="#38ff00" stroke="none" stroke-width="0.5" stroke-linecap="butt"/><path d="M344.0401,394.0094c11.25866,0 20.38562,9.12698 20.38562,20.38562c0,11.25865 -9.12696,20.38561 -20.38562,20.38561c-11.25867,0 -20.38561,-9.12697 -20.38561,-20.38561c0,-11.25866 9.12695,-20.38562 20.38561,-20.38562z" data-paper-data="{&quot;index&quot;:null}" fill="url(#color-52)" stroke="none" stroke-width="0" stroke-linecap="butt"/><path d="M579.29668,49.34613c-1.3631,-25.29528 18.03777,-46.90618 43.33307,-48.26932c25.2953,-1.36309 46.90618,18.03779 48.26932,43.33307c1.36314,25.2953 -18.03775,46.9062 -43.33303,48.26934c-25.2953,1.3631 -46.9062,-18.03777 -48.26934,-43.33307z" data-paper-data="{&quot;index&quot;:null}" fill="url(#color-53)" stroke="none" stroke-width="0" stroke-linecap="butt"/><path d="M603.03,48.06722c-0.65676,-12.18774 8.69092,-22.60026 20.87868,-23.25704c12.18775,-0.65678 22.60029,8.69092 23.25705,20.87866c0.65678,12.18776 -8.69092,22.60028 -20.87866,23.25704c-12.18774,0.65676 -22.60025,-8.69092 -23.25704,-20.87866z" data-paper-data="{&quot;index&quot;:null}" fill="#ff0000" stroke="none" stroke-width="0.5" stroke-linecap="butt"/><path d="M604.74179,47.97497c-0.60582,-11.24235 8.01679,-20.84722 19.25914,-21.45305c11.24235,-0.60582 20.84724,8.01679 21.45305,19.25914c0.60582,11.24235 -8.01679,20.84722 -19.25914,21.45305c-11.24235,0.60581 -20.8472,-8.01679 -21.45303,-19.25914z" data-paper-data="{&quot;index&quot;:null}" fill="url(#color-54)" stroke="none" stroke-width="0" stroke-linecap="butt"/><path d="M588.982,-73.8279c-1.3631,-25.29528 18.03777,-46.90623 43.33307,-48.26934c25.29528,-1.3631 46.9062,18.03779 48.26934,43.33307c1.36314,25.2953 -18.03775,46.9062 -43.33303,48.26934c-25.2953,1.36314 -46.9062,-18.03777 -48.26934,-43.33307z" data-paper-data="{&quot;index&quot;:null}" fill="url(#color-55)" stroke="none" stroke-width="0" stroke-linecap="butt"/><path d="M612.7153,-75.10681c-0.65677,-12.18776 8.69092,-22.60028 20.87868,-23.25707c12.18776,-0.65678 22.60031,8.69094 23.25707,20.87866c0.6568,12.18774 -8.69088,22.60026 -20.87864,23.25702c-12.18775,0.65679 -22.60027,-8.69089 -23.25705,-20.87863z" data-paper-data="{&quot;index&quot;:null}" fill="#00c4ff" stroke="none" stroke-width="0.5" stroke-linecap="butt"/><path d="M614.42713,-75.1991c-0.60582,-11.24233 8.01679,-20.84719 19.25914,-21.45303c11.24233,-0.60581 20.8472,8.01679 21.45303,19.25912c0.60583,11.24235 -8.01679,20.84724 -19.25912,21.45305c-11.24235,0.60582 -20.8472,-8.01676 -21.45303,-19.25914z" data-paper-data="{&quot;index&quot;:null}" fill="url(#color-56)" stroke="none" stroke-width="0" stroke-linecap="butt"/><path d="M309.63936,358.91424c0,25.332 -20.53566,45.86765 -45.86765,45.86765c-25.33199,0 -45.86764,-20.53565 -45.86764,-45.86765c0,-25.332 20.53565,-45.86765 45.86765,-45.86765c25.33198,0 45.86765,20.53565 45.86765,45.86764z" data-paper-data="{&quot;index&quot;:null}" fill="url(#color-57)" stroke="none" stroke-width="0" stroke-linecap="butt"/><path d="M263.7717,381.01412c-12.20543,0 -22.09985,-9.89444 -22.09985,-22.09989c0,-12.20545 9.8944,-22.09987 22.09985,-22.09987c12.20541,0 22.09987,9.89442 22.09987,22.09987c0,12.20545 -9.89442,22.09989 -22.09987,22.09989z" data-paper-data="{&quot;index&quot;:null}" fill="#ffa000" stroke="none" stroke-width="0.5" stroke-linecap="butt"/><path d="M263.77173,379.29985c-11.25868,0 -20.38562,-9.12696 -20.38562,-20.38562c0,-11.25867 9.12696,-20.38561 20.38562,-20.38561c11.25866,0 20.38562,9.12695 20.38562,20.38561c0,11.25866 -9.12696,20.38562 -20.38562,20.38562z" data-paper-data="{&quot;index&quot;:null}" fill="url(#color-58)" stroke="none" stroke-width="0" stroke-linecap="butt"/><path d="M211.32123,578.78279c-25.33198,0 -45.86765,-20.53566 -45.86765,-45.86765c0,-25.33198 20.53565,-45.86765 45.86765,-45.86765c25.33198,0 45.86765,20.53566 45.86765,45.86765c0,25.33198 -20.53566,45.86765 -45.86765,45.86765z" data-paper-data="{&quot;index&quot;:null}" fill="url(#color-59)" stroke="none" stroke-width="0" stroke-linecap="butt"/><path d="M211.32121,555.01503c-12.20543,0 -22.09987,-9.89446 -22.09987,-22.09989c0,-12.20545 9.89442,-22.09987 22.09987,-22.09987c12.20543,0 22.09987,9.89444 22.09987,22.09987c0,12.20545 -9.89442,22.09989 -22.09987,22.09989z" data-paper-data="{&quot;index&quot;:null}" fill="#ff00c8" stroke="none" stroke-width="0.5" stroke-linecap="butt"/><path d="M211.32123,553.30078c-11.25866,0 -20.38562,-9.127 -20.38562,-20.38564c0,-11.25865 9.12696,-20.38561 20.38562,-20.38561c11.25868,0 20.38562,9.12697 20.38562,20.38561c0,11.25868 -9.12696,20.38564 -20.38562,20.38564z" data-paper-data="{&quot;index&quot;:null}" fill="url(#color-60)" stroke="none" stroke-width="0" stroke-linecap="butt"/><path d="M374.01592,555.80879c0,25.332 -20.53565,45.86765 -45.86764,45.86765c-25.33198,0 -45.86765,-20.53565 -45.86765,-45.86765c0,-25.332 20.53565,-45.86765 45.86765,-45.86765c25.332,0 45.86765,20.53565 45.86765,45.86765z" data-paper-data="{&quot;index&quot;:null}" fill="url(#color-61)" stroke="none" stroke-width="0" stroke-linecap="butt"/><path d="M328.14828,577.90866c-12.20543,0 -22.09987,-9.89444 -22.09987,-22.09987c0,-12.20543 9.89442,-22.09987 22.09987,-22.09987c12.20543,0 22.09987,9.89444 22.09987,22.09987c0,12.20543 -9.89442,22.09987 -22.09987,22.09987z" data-paper-data="{&quot;index&quot;:null}" fill="#0100ff" stroke="none" stroke-width="0.5" stroke-linecap="butt"/><path d="M328.14829,576.19441c-11.25866,0 -20.38562,-9.12698 -20.38562,-20.38562c0,-11.25865 9.12696,-20.38561 20.38562,-20.38561c11.25867,0 20.38561,9.12697 20.38561,20.38561c0,11.25866 -9.12695,20.38562 -20.38561,20.38562z" data-paper-data="{&quot;index&quot;:null}" fill="url(#color-62)" stroke="none" stroke-width="0" stroke-linecap="butt"/><path d="M88.22103,517.62469c24.16861,7.58872 37.60927,33.3331 30.02057,57.50172c-7.58872,24.1686 -33.3331,37.60926 -57.50172,30.02056c-24.1686,-7.58872 -37.60926,-33.3331 -30.02056,-57.50172c7.58872,-24.1686 33.3331,-37.60926 57.50172,-30.02056z" data-paper-data="{&quot;index&quot;:null}" fill="url(#color-63)" stroke="none" stroke-width="0" stroke-linecap="butt"/><path d="M81.10089,540.30093c11.6449,3.65637 18.12083,16.06048 14.46446,27.70538c-3.65637,11.6449 -16.0605,18.12083 -27.70538,14.46446c-11.64488,-3.65637 -18.12081,-16.06048 -14.46444,-27.70538c3.65637,-11.6449 16.0605,-18.12085 27.70538,-14.46448z" data-paper-data="{&quot;index&quot;:null}" fill="#ff0000" stroke="none" stroke-width="0.5" stroke-linecap="butt"/><path d="M80.5874,541.9364c10.74159,3.37274 16.71524,14.8147 13.34248,25.55631c-3.37276,10.74159 -14.81472,16.71522 -25.55631,13.34248c-10.74159,-3.37276 -16.71522,-14.8147 -13.34248,-25.55629c3.37276,-10.7416 14.81472,-16.71522 25.55631,-13.34248z" data-paper-data="{&quot;index&quot;:null}" fill="url(#color-64)" stroke="none" stroke-width="0" stroke-linecap="butt"/><path d="M-140.33077,360.92868c0,25.33199 -20.53565,45.86764 -45.86764,45.86764c-25.33198,0 -45.86765,-20.53564 -45.86765,-45.86764c0,-25.33198 20.53566,-45.86765 45.86765,-45.86765c25.33199,0 45.86764,20.53566 45.86764,45.86765z" data-paper-data="{&quot;index&quot;:null}" fill="url(#color-65)" stroke="none" stroke-width="0" stroke-linecap="butt"/><path d="M-164.09854,360.92868c0,12.20545 -9.89446,22.09987 -22.09989,22.09987c-12.20543,0 -22.09985,-9.89442 -22.09985,-22.09987c0,-12.20545 9.89442,-22.09989 22.09985,-22.09989c12.20545,0 22.09989,9.89444 22.09989,22.09989z" data-paper-data="{&quot;index&quot;:null}" fill="#ff0000" stroke="none" stroke-width="0.5" stroke-linecap="butt"/><path d="M-165.81279,360.92868c0,11.25867 -9.12697,20.38561 -20.38561,20.38561c-11.25866,0 -20.38564,-9.12695 -20.38564,-20.38561c0,-11.25866 9.12696,-20.38562 20.38564,-20.38562c11.25865,0 20.38561,9.12696 20.38561,20.38562z" data-paper-data="{&quot;index&quot;:null}" fill="url(#color-66)" stroke="none" stroke-width="0" stroke-linecap="butt"/><path d="M590.77804,414.72275c6.2772,-24.54192 31.26103,-39.34844 55.80299,-33.07124c24.54196,6.27722 39.34848,31.26103 33.07128,55.80299c-6.2772,24.54192 -31.26107,39.34844 -55.80301,33.07124c-24.54196,-6.27722 -39.34844,-31.26103 -33.07124,-55.80299z" data-paper-data="{&quot;index&quot;:null}" fill="url(#color-67)" stroke="none" stroke-width="0" stroke-linecap="butt"/><path d="M613.80454,420.61237c3.02446,-11.82478 15.06213,-18.95883 26.88691,-15.93435c11.82478,3.02447 18.95879,15.06215 15.93433,26.88691c-3.02448,11.82478 -15.06212,18.95881 -26.8869,15.93433c-11.82476,-3.02448 -18.95881,-15.06214 -15.93433,-26.8869z" data-paper-data="{&quot;index&quot;:null}" fill="#00c4ff" stroke="none" stroke-width="0.5" stroke-linecap="butt"/><path d="M615.4653,421.03714c2.78987,-10.90752 13.89382,-17.48821 24.80136,-14.69834c10.90752,2.78987 17.48818,13.8938 14.69833,24.80134c-2.78985,10.90752 -13.8938,17.4882 -24.80132,14.69833c-10.90752,-2.78987 -17.48822,-13.8938 -14.69833,-24.80134z" data-paper-data="{&quot;index&quot;:null}" fill="url(#color-68)" stroke="none" stroke-width="0" stroke-linecap="butt"/><path d="M597.54777,295.86633c6.2772,-24.54196 31.26105,-39.34846 55.80301,-33.07126c24.54196,6.2772 39.34848,31.26103 33.07128,55.80299c-6.2772,24.54196 -31.26107,39.34844 -55.80301,33.07124c-24.54194,-6.2772 -39.34844,-31.26103 -33.07124,-55.80299z" data-paper-data="{&quot;index&quot;:null}" fill="url(#color-69)" stroke="none" stroke-width="0" stroke-linecap="butt"/><path d="M620.5743,301.75591c3.02446,-11.82478 15.06213,-18.95881 26.88691,-15.93433c11.82478,3.02446 18.95881,15.06214 15.93435,26.8869c-3.02448,11.82477 -15.06212,18.95879 -26.8869,15.93431c-11.82478,-3.02446 -18.95883,-15.06212 -15.93435,-26.88688z" data-paper-data="{&quot;index&quot;:null}" fill="#38ff00" stroke="none" stroke-width="0.5" stroke-linecap="butt"/><path d="M622.23511,302.18069c2.78985,-10.90752 13.8938,-17.4882 24.80134,-14.69833c10.90752,2.78987 17.48818,13.89379 14.69833,24.80131c-2.78986,10.90752 -13.89379,17.48821 -24.80131,14.69834c-10.90752,-2.78987 -17.48823,-13.89382 -14.69836,-24.80134z" data-paper-data="{&quot;index&quot;:null}" fill="url(#color-70)" stroke="none" stroke-width="0" stroke-linecap="butt"/><path d="M-71.40303,412.63883c0,25.33198 -20.53565,45.86765 -45.86764,45.86765c-25.33198,0 -45.86765,-20.53566 -45.86765,-45.86765c0,-25.33198 20.53566,-45.86765 45.86765,-45.86765c25.33199,0 45.86764,20.53566 45.86764,45.86765z" data-paper-data="{&quot;index&quot;:null}" fill="url(#color-71)" stroke="none" stroke-width="0" stroke-linecap="butt"/><path d="M-95.17082,412.63883c0,12.20543 -9.89444,22.09987 -22.09987,22.09987c-12.20543,0 -22.09985,-9.89444 -22.09985,-22.09987c0,-12.20545 9.89442,-22.09987 22.09985,-22.09987c12.20543,0 22.09987,9.89444 22.09987,22.09987z" data-paper-data="{&quot;index&quot;:null}" fill="#38ff00" stroke="none" stroke-width="0.5" stroke-linecap="butt"/><path d="M-96.88504,412.63884c0,11.25865 -9.12697,20.38561 -20.38561,20.38561c-11.25866,0 -20.38564,-9.12697 -20.38564,-20.38561c0,-11.25865 9.12696,-20.38561 20.38564,-20.38561c11.25865,0 20.38561,9.12697 20.38561,20.38561z" data-paper-data="{&quot;index&quot;:null}" fill="url(#color-72)" stroke="none" stroke-width="0" stroke-linecap="butt"/><path d="M-137.08238,456.57811c25.332,0 45.86765,20.53564 45.86765,45.86764c0,25.332 -20.53565,45.86765 -45.86765,45.86765c-25.332,0 -45.86765,-20.53565 -45.86765,-45.86765c0,-25.33199 20.53565,-45.86764 45.86765,-45.86764z" data-paper-data="{&quot;index&quot;:null}" fill="url(#color-73)" stroke="none" stroke-width="0" stroke-linecap="butt"/><path d="M-137.08238,480.34588c12.20541,0 22.09985,9.89444 22.09985,22.09987c0,12.20545 -9.89442,22.09989 -22.09985,22.09989c-12.20541,0 -22.09987,-9.89446 -22.09987,-22.09989c0,-12.20543 9.89444,-22.09987 22.09987,-22.09987z" data-paper-data="{&quot;index&quot;:null}" fill="#00c4ff" stroke="none" stroke-width="0.5" stroke-linecap="butt"/><path d="M-137.08238,482.06014c11.25868,0 20.38564,9.12697 20.38564,20.38561c0,11.25865 -9.127,20.38561 -20.38564,20.38561c-11.25865,0 -20.38561,-9.12697 -20.38561,-20.38561c0,-11.25865 9.12697,-20.38561 20.38561,-20.38561z" data-paper-data="{&quot;index&quot;:null}" fill="url(#color-74)" stroke="none" stroke-width="0" stroke-linecap="butt"/><path d="M652.56183,227.08509c-6.2772,24.54196 -31.26103,39.34846 -55.80297,33.07126c-24.54194,-6.27722 -39.34846,-31.26105 -33.07126,-55.80301c6.2772,-24.54194 31.26105,-39.34844 55.80301,-33.07124c24.54198,6.2772 39.34848,31.26103 33.07128,55.80299z" data-paper-data="{&quot;index&quot;:null}" fill="url(#color-75)" stroke="none" stroke-width="0" stroke-linecap="butt"/><path d="M629.53538,221.19549c-3.02448,11.82478 -15.06212,18.95881 -26.8869,15.93433c-11.82478,-3.02447 -18.95883,-15.06215 -15.93435,-26.88691c3.02446,-11.82478 15.06213,-18.95881 26.88691,-15.93433c11.82478,3.02447 18.95881,15.06215 15.93435,26.88691z" data-paper-data="{&quot;index&quot;:null}" fill="#ffa000" stroke="none" stroke-width="0.5" stroke-linecap="butt"/><path d="M627.87456,220.77073c-2.78987,10.90752 -13.89379,17.4882 -24.80131,14.69833c-10.90752,-2.78987 -17.48821,-13.8938 -14.69836,-24.80132c2.78987,-10.90752 13.89382,-17.48821 24.80134,-14.69834c10.90752,2.78987 17.48818,13.8938 14.69833,24.80134z" data-paper-data="{&quot;index&quot;:null}" fill="url(#color-76)" stroke="none" stroke-width="0" stroke-linecap="butt"/><path d="M150.41113,397.22336c-25.33198,0 -45.86765,-20.53565 -45.86765,-45.86765c0,-25.33198 20.53566,-45.86765 45.86765,-45.86765c25.332,0 45.86765,20.53566 45.86765,45.86765c0,25.33199 -20.53565,45.86764 -45.86764,45.86764z" data-paper-data="{&quot;index&quot;:null}" fill="url(#color-77)" stroke="none" stroke-width="0" stroke-linecap="butt"/><path d="M128.31127,351.35569c0,-12.20545 9.89446,-22.09989 22.09989,-22.09989c12.20543,0 22.09985,9.89444 22.09985,22.09989c0,12.20545 -9.89442,22.09987 -22.09985,22.09987c-12.20545,0 -22.09989,-9.89442 -22.09989,-22.09987z" data-paper-data="{&quot;index&quot;:null}" fill="#ff00c8" stroke="none" stroke-width="0.5" stroke-linecap="butt"/><path d="M130.0255,351.3557c0,-11.25866 9.12696,-20.38562 20.38564,-20.38562c11.25866,0 20.38562,9.12696 20.38562,20.38562c0,11.25866 -9.12694,20.38562 -20.38562,20.38562c-11.25866,0 -20.38564,-9.12694 -20.38564,-20.38562z" data-paper-data="{&quot;index&quot;:null}" fill="url(#color-78)" stroke="none" stroke-width="0" stroke-linecap="butt"/><path d="M33.58407,420.117c-25.33198,0 -45.86765,-20.53565 -45.86765,-45.86765c0,-25.332 20.53566,-45.86765 45.86765,-45.86765c25.33199,0 45.86764,20.53565 45.86764,45.86764c0,25.332 -20.53565,45.86765 -45.86764,45.86765z" data-paper-data="{&quot;index&quot;:null}" fill="url(#color-79)" stroke="none" stroke-width="0" stroke-linecap="butt"/><path d="M11.48422,374.24936c0,-12.20543 9.89444,-22.09987 22.09987,-22.09987c12.20543,0 22.09985,9.89442 22.09985,22.09987c0,12.20543 -9.89442,22.09987 -22.09985,22.09987c-12.20543,0 -22.09987,-9.89442 -22.09987,-22.09987z" data-paper-data="{&quot;index&quot;:null}" fill="#0100ff" stroke="none" stroke-width="0.5" stroke-linecap="butt"/><path d="M13.19845,374.24936c0,-11.25865 9.12698,-20.38561 20.38562,-20.38561c11.25865,0 20.38561,9.12695 20.38561,20.38561c0,11.25864 -9.12697,20.38562 -20.38561,20.38562c-11.25866,0 -20.38562,-9.12696 -20.38562,-20.38562z" data-paper-data="{&quot;index&quot;:null}" fill="url(#color-80)" stroke="none" stroke-width="0" stroke-linecap="butt"/><path d="M-90.64081,494.65192c0,-25.332 20.53566,-45.86765 45.86765,-45.86765c25.33198,0 45.86765,20.53566 45.86765,45.86765c0,25.33198 -20.53566,45.86765 -45.86765,45.86765c-25.33198,0 -45.86765,-20.53566 -45.86765,-45.86765z" data-paper-data="{&quot;index&quot;:null}" fill="url(#color-81)" stroke="none" stroke-width="0" stroke-linecap="butt"/><path d="M-66.87301,494.65192c0,-12.20543 9.89444,-22.09987 22.09987,-22.09987c12.20543,0 22.09985,9.89444 22.09985,22.09987c0,12.20545 -9.89442,22.09989 -22.09985,22.09989c-12.20543,0 -22.09987,-9.89446 -22.09987,-22.09989z" data-paper-data="{&quot;index&quot;:null}" fill="#0100ff" stroke="none" stroke-width="0.5" stroke-linecap="butt"/><path d="M-65.15878,494.65192c0,-11.25865 9.12697,-20.38561 20.38561,-20.38561c11.25866,0 20.38562,9.12697 20.38562,20.38561c0,11.25866 -9.12698,20.38564 -20.38562,20.38564c-11.25865,0 -20.38561,-9.12696 -20.38561,-20.38564z" data-paper-data="{&quot;index&quot;:null}" fill="url(#color-82)" stroke="none" stroke-width="0" stroke-linecap="butt"/><path d="M-294.28469,240.4228c-25.33198,0 -45.86765,-20.53565 -45.86765,-45.86765c0,-25.33198 20.53566,-45.86765 45.86765,-45.86765c25.33198,0 45.86765,20.53566 45.86765,45.86765c0,25.332 -20.53566,45.86765 -45.86765,45.86765z" data-paper-data="{&quot;index&quot;:null}" fill="url(#color-83)" stroke="none" stroke-width="0" stroke-linecap="butt"/><path d="M-294.2847,216.65502c-12.20541,0 -22.09985,-9.89442 -22.09985,-22.09987c0,-12.20545 9.8944,-22.09987 22.09985,-22.09987c12.20541,0 22.09987,9.89442 22.09987,22.09987c0,12.20545 -9.89442,22.09987 -22.09987,22.09987z" data-paper-data="{&quot;index&quot;:null}" fill="#ffa000" stroke="none" stroke-width="0.5" stroke-linecap="butt"/><path d="M-294.28467,214.94076c-11.25866,0 -20.38562,-9.12695 -20.38562,-20.38561c0,-11.25867 9.12698,-20.38561 20.38562,-20.38561c11.25865,0 20.38561,9.12695 20.38561,20.38561c0,11.25867 -9.12697,20.38561 -20.38561,20.38561z" data-paper-data="{&quot;index&quot;:null}" fill="url(#color-84)" stroke="none" stroke-width="0" stroke-linecap="butt"/><path d="M-369.42222,446.9133c0,-25.33198 20.53566,-45.86765 45.86765,-45.86765c25.33198,0 45.86765,20.53566 45.86765,45.86765c0,25.332 -20.53566,45.86765 -45.86765,45.86765c-25.332,0 -45.86765,-20.53566 -45.86765,-45.86765z" data-paper-data="{&quot;index&quot;:null}" fill="url(#color-85)" stroke="none" stroke-width="0" stroke-linecap="butt"/><path d="M-345.65442,446.9133c0,-12.20545 9.89446,-22.09989 22.09987,-22.09989c12.20544,0 22.09985,9.89446 22.09985,22.09989c0,12.20543 -9.89444,22.09987 -22.09985,22.09987c-12.20545,0 -22.09987,-9.89444 -22.09987,-22.09987z" data-paper-data="{&quot;index&quot;:null}" fill="#ff00c8" stroke="none" stroke-width="0.5" stroke-linecap="butt"/><path d="M-343.94019,446.9133c0,-11.25865 9.12696,-20.38561 20.38562,-20.38561c11.25864,0 20.38562,9.12697 20.38562,20.38561c0,11.25864 -9.12696,20.38562 -20.38562,20.38562c-11.25864,0 -20.38562,-9.12694 -20.38562,-20.38562z" data-paper-data="{&quot;index&quot;:null}" fill="url(#color-86)" stroke="none" stroke-width="0" stroke-linecap="butt"/><path d="M332.9287,54.07092c0,0 60.81135,-36.89118 102.24044,-45.40268c13.00452,-2.67173 54.08126,6.59997 90.53684,23.9303c36.43129,17.31878 68.23902,42.69567 88.36886,41.54871" data-paper-data="{&quot;index&quot;:null}" fill="none" stroke="url(#color-87)" stroke-width="50" stroke-linecap="round"/><path d="M331.11599,42.68291c1.79913,5.91903 -1.5407,12.17583 -7.45975,13.97497c-5.91905,1.79914 -12.17583,-1.54069 -13.97497,-7.45974c-1.79914,-5.91905 1.54068,-12.17585 7.45973,-13.97499c5.91904,-1.79914 12.17585,1.5407 13.97499,7.45975z" data-paper-data="{&quot;index&quot;:null}" fill="url(#color-88)" stroke="none" stroke-width="0.5" stroke-linecap="butt"/><path d="M323.99505,46.29506c1.1776,3.87429 -1.00847,7.96964 -4.88275,9.14726c-3.87427,1.17762 -7.96965,-1.00845 -9.14726,-4.88273c-1.17761,-3.87426 1.00845,-7.96964 4.88273,-9.14726c3.87425,-1.17761 7.96965,1.00846 9.14726,4.88274z" data-paper-data="{&quot;index&quot;:null}" fill="#000000" stroke="none" stroke-width="0.5" stroke-linecap="butt"/><path d="M331.21018,80.19121c-5.81141,1.76643 -11.95447,-1.51268 -13.72088,-7.3241c-1.76643,-5.8114 1.51268,-11.95446 7.3241,-13.72088c5.8114,-1.76643 11.95447,1.51268 13.72088,7.3241c1.76643,5.8114 -1.51268,11.95446 -7.3241,13.72088z" data-paper-data="{&quot;index&quot;:null}" fill="url(#color-89)" stroke="none" stroke-width="0.5" stroke-linecap="butt"/><path d="M331.90898,68.48415c1.17761,3.87426 -1.00845,7.96963 -4.88273,9.14725c-3.87428,1.1776 -7.96966,-1.00847 -9.14727,-4.88275c-1.17761,-3.87425 1.00846,-7.96964 4.88274,-9.14726c3.87425,-1.17761 7.96964,1.00846 9.14725,4.88274z" data-paper-data="{&quot;index&quot;:null}" fill="#000000" stroke="none" stroke-width="0.5" stroke-linecap="butt"/><path d="M324.44419,55.3252c0,0 66.02681,-40.05513 111.00904,-49.29661c14.11985,-2.90088 58.7195,7.166 98.30168,25.98266c39.55579,18.80411 74.09149,46.35744 95.94776,45.11211" data-paper-data="{&quot;index&quot;:null}" fill="none" stroke="url(#color-90)" stroke-width="50" stroke-linecap="round"/><path d="M304.04061,297.08109c0,0 -51.21718,49.35362 -89.76287,66.7618c-12.09942,5.46439 -54.20955,5.44669 -93.58252,-3.44821c-39.34673,-8.88897 -75.95385,-26.65515 -95.3395,-21.11235" data-paper-data="{&quot;index&quot;:null}" fill="none" stroke="url(#color-91)" stroke-width="50" stroke-linecap="round"/><path d="M308.31174,307.79233c-3.05596,-5.37893 -1.17282,-12.21675 4.20613,-15.27272c5.37895,-3.05597 12.21675,-1.17283 15.27272,4.20612c3.05597,5.37895 1.17284,12.21677 -4.20611,15.27274c-5.37895,3.05597 -12.21678,1.17282 -15.27275,-4.20613z" data-paper-data="{&quot;index&quot;:null}" fill="url(#color-92)" stroke="none" stroke-width="0.5" stroke-linecap="butt"/><path d="M314.46474,302.70353c-2.00025,-3.52077 -0.76764,-7.99643 2.75311,-9.9967c3.52076,-2.00027 7.99644,-0.76767 9.9967,2.75309c2.00026,3.52074 0.76766,7.99643 -2.75309,9.9967c-3.52074,2.00025 -7.99644,0.76766 -9.9967,-2.7531z" data-paper-data="{&quot;index&quot;:null}" fill="#000000" stroke="none" stroke-width="0.5" stroke-linecap="butt"/><path d="M299.97675,271.22172c5.28113,-3.00041 11.99464,-1.15151 14.99503,4.12964c3.0004,5.28112 1.1515,11.99463 -4.12964,14.99503c-5.28112,3.0004 -11.99464,1.15151 -14.99503,-4.12964c-3.0004,-5.28112 -1.1515,-11.99463 4.12964,-14.99503z" data-paper-data="{&quot;index&quot;:null}" fill="url(#color-93)" stroke="none" stroke-width="0.5" stroke-linecap="butt"/><path d="M301.86785,282.79613c-2.00026,-3.52074 -0.76766,-7.99642 2.75309,-9.99669c3.52077,-2.00025 7.99645,-0.76765 9.99671,2.75311c2.00025,3.52074 0.76765,7.99643 -2.7531,9.9967c-3.52074,2.00026 -7.99643,0.76766 -9.99669,-2.7531z" data-paper-data="{&quot;index&quot;:null}" fill="#000000" stroke="none" stroke-width="0.5" stroke-linecap="butt"/><path d="M316.69478,290.60713c0,0 -55.6098,53.5864 -97.46134,72.48758c-13.13713,5.93304 -58.8588,5.91382 -101.60857,-3.74394c-42.72127,-9.65132 -82.46798,-28.94122 -103.51623,-22.92304" data-paper-data="{&quot;index&quot;:null}" fill="none" stroke="url(#color-94)" stroke-width="50" stroke-linecap="round"/><path d="M-42.42864,147.50138c19.85136,-3.52839 152.70121,7.41088 165.97129,7.0101c42.27511,-1.27676 109.95737,20.58854 109.95737,20.58854" fill="none" stroke="url(#color-95)" stroke-width="50" stroke-linecap="round"/><path d="M232.63636,163.601c0.38494,-6.17445 5.70236,-10.86777 11.87681,-10.48283c6.17445,0.38494 10.86775,5.70236 10.48281,11.87681c-0.38494,6.17445 -5.70234,10.86775 -11.87679,10.48281c-6.17445,-0.38494 -10.86776,-5.70236 -10.48282,-11.87679z" fill="url(#color-96)" stroke="none" stroke-width="0.5" stroke-linecap="butt"/><path d="M240.39859,165.47276c0.25196,-4.04145 3.73248,-7.11344 7.77391,-6.86148c4.04145,0.25197 7.11343,3.73248 6.86147,7.77391c-0.25196,4.04145 -3.73246,7.11344 -7.77391,6.86147c-4.04145,-0.25197 -7.11343,-3.73245 -6.86149,-7.7739z" fill="#000000" stroke="none" stroke-width="0.5" stroke-linecap="butt"/><path d="M230.90651,188.45821c0.37793,-6.06218 5.59869,-10.67016 11.66085,-10.29221c6.06218,0.37794 10.67016,5.59869 10.29221,11.66085c-0.37793,6.06218 -5.59868,10.67016 -11.66085,10.29221c-6.06218,-0.37794 -10.67016,-5.59869 -10.29221,-11.66085z" fill="url(#color-97)" stroke="none" stroke-width="0.5" stroke-linecap="butt"/><path d="M237.81768,188.88908c0.25196,-4.04145 3.73247,-7.11344 7.7739,-6.86148c4.04145,0.25197 7.11344,3.73248 6.86148,7.77391c-0.25196,4.04145 -3.73246,7.11344 -7.77391,6.86149c-4.04145,-0.25197 -7.11343,-3.73247 -6.86147,-7.7739z" fill="#000000" stroke="none" stroke-width="0.5" stroke-linecap="butt"/><path d="M-56.28151,146.00288c21.5539,-3.831 170.19718,7.44086 184.60536,7.00571c45.90081,-1.38626 119.3878,22.3543 119.3878,22.3543" fill="none" stroke="none" stroke-width="50" stroke-linecap="round"/><path d="M936.68178,271.30687c-44.46909,5.17 -346.50905,-36.11621 -375.97401,-36.99954c-93.8679,-2.81411 -240.958,-60.31161 -240.958,-60.31161" fill="none" stroke="none" stroke-width="50" stroke-linecap="round"/><path d="M473.02156,165.69076c-8.50291,1.83893 -65.9591,-0.75243 -71.67438,-0.36732c-18.20743,1.22683 -47.73996,-7.11809 -47.73996,-7.11809" fill="none" stroke="url(#color-98)" stroke-width="20" stroke-linecap="round"/><path d="M354.16357,163.14959c-0.0672,2.66841 -2.28483,4.77711 -4.95324,4.70991c-2.66841,-0.0672 -4.7771,-2.28483 -4.70991,-4.95325c0.0672,-2.66841 2.28483,-4.7771 4.95324,-4.7099c2.66841,0.0672 4.7771,2.28483 4.70991,4.95324z" fill="url(#color-99)" stroke="none" stroke-width="0.5" stroke-linecap="butt"/><path d="M350.78677,162.46672c-0.04398,1.74659 -1.49555,3.12683 -3.24213,3.08285c-1.74659,-0.04398 -3.12683,-1.49554 -3.08284,-3.24212c0.04398,-1.74659 1.49553,-3.12683 3.24212,-3.08285c1.74659,0.04398 3.12683,1.49553 3.08286,3.24212z" fill="#000000" stroke="none" stroke-width="0.5" stroke-linecap="butt"/><path d="M354.51177,152.40417c-0.06597,2.61989 -2.2433,4.69025 -4.86318,4.62427c-2.61989,-0.06597 -4.69025,-2.2433 -4.62427,-4.86318c0.06597,-2.61989 2.2433,-4.69025 4.86318,-4.62427c2.61989,0.06597 4.69025,2.2433 4.62427,4.86318z" fill="url(#color-100)" stroke="none" stroke-width="0.5" stroke-linecap="butt"/><path d="M351.52496,152.32896c-0.04398,1.74659 -1.49554,3.12683 -3.24212,3.08285c-1.74659,-0.04398 -3.12683,-1.49554 -3.08285,-3.24212c0.04398,-1.74659 1.49553,-3.12683 3.24212,-3.08285c1.74659,0.04398 3.12683,1.49554 3.08284,3.24212z" fill="#000000" stroke="none" stroke-width="0.5" stroke-linecap="butt"/><path d="M479.01851,166.11524c-9.23216,1.99665 -73.50336,-0.48545 -79.70881,-0.06732c-19.76898,1.33205 -51.83435,-7.72856 -51.83435,-7.72856" fill="none" stroke="none" stroke-width="50" stroke-linecap="round"/></g></g></svg>