<svg version="1.1" xmlns="http://www.w3.org/2000/svg" xmlns:xlink="http://www.w3.org/1999/xlink" width="726.88273" height="467.00854" viewBox="0,0,726.88273,467.00854"><defs><linearGradient x1="153" y1="112.30001" x2="153" y2="204.30001" gradientUnits="userSpaceOnUse" id="color-1"><stop offset="0" stop-color="#272727"/><stop offset="1" stop-color="#101010"/></linearGradient><linearGradient x1="237.00001" y1="66.30001" x2="237.00001" y2="158.30001" gradientUnits="userSpaceOnUse" id="color-2"><stop offset="0" stop-color="#272727"/><stop offset="1" stop-color="#101010"/></linearGradient><linearGradient x1="238.00001" y1="158.3" x2="238.00001" y2="250.3" gradientUnits="userSpaceOnUse" id="color-3"><stop offset="0" stop-color="#272727"/><stop offset="1" stop-color="#101010"/></linearGradient><linearGradient x1="321.00001" y1="113.30001" x2="321.00001" y2="205.30001" gradientUnits="userSpaceOnUse" id="color-4"><stop offset="0" stop-color="#272727"/><stop offset="1" stop-color="#101010"/></linearGradient><linearGradient x1="405.00003" y1="67.30001" x2="405.00003" y2="159.30001" gradientUnits="userSpaceOnUse" id="color-5"><stop offset="0" stop-color="#272727"/><stop offset="1" stop-color="#101010"/></linearGradient><linearGradient x1="406.00003" y1="159.3" x2="406.00003" y2="251.3" gradientUnits="userSpaceOnUse" id="color-6"><stop offset="0" stop-color="#272727"/><stop offset="1" stop-color="#101010"/></linearGradient><linearGradient x1="70.00002" y1="249.30001" x2="70.00002" y2="341.30001" gradientUnits="userSpaceOnUse" id="color-7"><stop offset="0" stop-color="#272727"/><stop offset="1" stop-color="#101010"/></linearGradient><linearGradient x1="154" y1="203.30001" x2="154" y2="295.30001" gradientUnits="userSpaceOnUse" id="color-8"><stop offset="0" stop-color="#272727"/><stop offset="1" stop-color="#101010"/></linearGradient><linearGradient x1="155" y1="295.30001" x2="155" y2="387.30001" gradientUnits="userSpaceOnUse" id="color-9"><stop offset="0" stop-color="#272727"/><stop offset="1" stop-color="#101010"/></linearGradient><linearGradient x1="238.00001" y1="251.30001" x2="238.00001" y2="343.30001" gradientUnits="userSpaceOnUse" id="color-10"><stop offset="0" stop-color="#272727"/><stop offset="1" stop-color="#101010"/></linearGradient><linearGradient x1="322.00001" y1="205.30001" x2="322.00001" y2="297.30001" gradientUnits="userSpaceOnUse" id="color-11"><stop offset="0" stop-color="#272727"/><stop offset="1" stop-color="#101010"/></linearGradient><linearGradient x1="323.00001" y1="297.30001" x2="323.00001" y2="389.30001" gradientUnits="userSpaceOnUse" id="color-12"><stop offset="0" stop-color="#272727"/><stop offset="1" stop-color="#101010"/></linearGradient><linearGradient x1="-16.99997" y1="112.30001" x2="-16.99997" y2="204.30001" gradientUnits="userSpaceOnUse" id="color-13"><stop offset="0" stop-color="#272727"/><stop offset="1" stop-color="#101010"/></linearGradient><linearGradient x1="67.00002" y1="66.30001" x2="67.00002" y2="158.30001" gradientUnits="userSpaceOnUse" id="color-14"><stop offset="0" stop-color="#272727"/><stop offset="1" stop-color="#101010"/></linearGradient><linearGradient x1="68.00002" y1="158.3" x2="68.00002" y2="250.3" gradientUnits="userSpaceOnUse" id="color-15"><stop offset="0" stop-color="#272727"/><stop offset="1" stop-color="#101010"/></linearGradient><linearGradient x1="66.00002" y1="-25.69999" x2="66.00002" y2="66.30001" gradientUnits="userSpaceOnUse" id="color-16"><stop offset="0" stop-color="#272727"/><stop offset="1" stop-color="#101010"/></linearGradient><linearGradient x1="150" y1="-71.69999" x2="150" y2="20.30001" gradientUnits="userSpaceOnUse" id="color-17"><stop offset="0" stop-color="#272727"/><stop offset="1" stop-color="#101010"/></linearGradient><linearGradient x1="151" y1="20.30001" x2="151" y2="112.30001" gradientUnits="userSpaceOnUse" id="color-18"><stop offset="0" stop-color="#272727"/><stop offset="1" stop-color="#101010"/></linearGradient><linearGradient x1="235.00001" y1="-25.69999" x2="235.00001" y2="66.30001" gradientUnits="userSpaceOnUse" id="color-19"><stop offset="0" stop-color="#272727"/><stop offset="1" stop-color="#101010"/></linearGradient><linearGradient x1="319.00001" y1="-71.69999" x2="319.00001" y2="20.30001" gradientUnits="userSpaceOnUse" id="color-20"><stop offset="0" stop-color="#272727"/><stop offset="1" stop-color="#101010"/></linearGradient><linearGradient x1="320.00001" y1="20.30001" x2="320.00001" y2="112.30001" gradientUnits="userSpaceOnUse" id="color-21"><stop offset="0" stop-color="#272727"/><stop offset="1" stop-color="#101010"/></linearGradient><linearGradient x1="404.00003" y1="-25.69999" x2="404.00003" y2="66.30001" gradientUnits="userSpaceOnUse" id="color-22"><stop offset="0" stop-color="#272727"/><stop offset="1" stop-color="#101010"/></linearGradient><linearGradient x1="488.00001" y1="-71.69999" x2="488.00001" y2="20.30001" gradientUnits="userSpaceOnUse" id="color-23"><stop offset="0" stop-color="#272727"/><stop offset="1" stop-color="#101010"/></linearGradient><linearGradient x1="489.00001" y1="20.30001" x2="489.00001" y2="112.30001" gradientUnits="userSpaceOnUse" id="color-24"><stop offset="0" stop-color="#272727"/><stop offset="1" stop-color="#101010"/></linearGradient><linearGradient x1="-16" y1="204.30001" x2="-16" y2="296.30001" gradientUnits="userSpaceOnUse" id="color-25"><stop offset="0" stop-color="#272727"/><stop offset="1" stop-color="#101010"/></linearGradient><linearGradient x1="-15" y1="296.30001" x2="-15" y2="388.30001" gradientUnits="userSpaceOnUse" id="color-26"><stop offset="0" stop-color="#272727"/><stop offset="1" stop-color="#101010"/></linearGradient><linearGradient x1="-19.99999" y1="-71.69999" x2="-19.99999" y2="20.30001" gradientUnits="userSpaceOnUse" id="color-27"><stop offset="0" stop-color="#272727"/><stop offset="1" stop-color="#101010"/></linearGradient><linearGradient x1="-18.99999" y1="20.3" x2="-18.99999" y2="112.3" gradientUnits="userSpaceOnUse" id="color-28"><stop offset="0" stop-color="#272727"/><stop offset="1" stop-color="#101010"/></linearGradient><linearGradient x1="407.00001" y1="252.30001" x2="407.00001" y2="344.30001" gradientUnits="userSpaceOnUse" id="color-29"><stop offset="0" stop-color="#272727"/><stop offset="1" stop-color="#101010"/></linearGradient><linearGradient x1="491.00001" y1="206.30001" x2="491.00001" y2="298.30001" gradientUnits="userSpaceOnUse" id="color-30"><stop offset="0" stop-color="#272727"/><stop offset="1" stop-color="#101010"/></linearGradient><linearGradient x1="492.00001" y1="298.30001" x2="492.00001" y2="390.30001" gradientUnits="userSpaceOnUse" id="color-31"><stop offset="0" stop-color="#272727"/><stop offset="1" stop-color="#101010"/></linearGradient></defs><g transform="translate(76.99686,74.20854)"><g data-paper-data="{&quot;isPaintingLayer&quot;:true}" fill-rule="nonzero" stroke-linejoin="miter" stroke-miterlimit="10" stroke-dasharray="" stroke-dashoffset="0" style="mix-blend-mode: normal"><path d="M500.50003,-13.49999v387h-521v-387z" data-paper-data="{&quot;index&quot;:null}" fill="#0a0a0a" stroke="#000000" stroke-width="0" stroke-linecap="butt"/><path d="M123.83335,112.63334l58.66666,-0.33333l24.66666,46.33333l-21.66666,45.66667h-63l-23.66666,-46.66667z" fill="none" stroke="url(#color-1)" stroke-width="5" stroke-linecap="round"/><path d="M207.83336,66.63334l58.66666,-0.33333l24.66667,46.33333l-21.66667,45.66667h-63l-23.66666,-46.66667z" fill="none" stroke="url(#color-2)" stroke-width="5" stroke-linecap="round"/><path d="M208.83336,158.63333l58.66666,-0.33333l24.66667,46.33333l-21.66667,45.66667h-63l-23.66666,-46.66667z" fill="none" stroke="url(#color-3)" stroke-width="5" stroke-linecap="round"/><path d="M291.83334,113.63334l58.66667,-0.33333l24.66667,46.33333l-21.66667,45.66667h-63l-23.66667,-46.66667z" fill="none" stroke="url(#color-4)" stroke-width="5" stroke-linecap="round"/><path d="M375.83336,67.63334l58.66667,-0.33333l24.66667,46.33333l-21.66667,45.66667h-63l-23.66667,-46.66667z" fill="none" stroke="url(#color-5)" stroke-width="5" stroke-linecap="round"/><path d="M376.83336,159.63333l58.66667,-0.33333l24.66667,46.33333l-21.66667,45.66667h-63l-23.66667,-46.66667z" fill="none" stroke="url(#color-6)" stroke-width="5" stroke-linecap="round"/><path d="M40.83335,249.63334l58.66667,-0.33333l24.66666,46.33333l-21.66666,45.66667h-63l-23.66666,-46.66667z" fill="none" stroke="url(#color-7)" stroke-width="5" stroke-linecap="round"/><path d="M124.83335,203.63334l58.66666,-0.33333l24.66666,46.33333l-21.66666,45.66667h-63l-23.66666,-46.66667z" fill="none" stroke="url(#color-8)" stroke-width="5" stroke-linecap="round"/><path d="M125.83335,295.63334l58.66666,-0.33333l24.66666,46.33333l-21.66666,45.66667h-63l-23.66666,-46.66667z" fill="none" stroke="url(#color-9)" stroke-width="5" stroke-linecap="round"/><path d="M208.83336,251.63334l58.66666,-0.33333l24.66667,46.33333l-21.66667,45.66667h-63l-23.66666,-46.66667z" fill="none" stroke="url(#color-10)" stroke-width="5" stroke-linecap="round"/><path d="M292.83334,205.63334l58.66667,-0.33333l24.66667,46.33333l-21.66667,45.66667h-63l-23.66667,-46.66667z" fill="none" stroke="url(#color-11)" stroke-width="5" stroke-linecap="round"/><path d="M293.83334,297.63334l58.66667,-0.33333l24.66667,46.33333l-21.66667,45.66667h-63l-23.66667,-46.66667z" fill="none" stroke="url(#color-12)" stroke-width="5" stroke-linecap="round"/><path d="M-46.16665,112.63334l58.66667,-0.33333l24.66667,46.33333l-21.66666,45.66667h-63l-23.66666,-46.66667z" fill="none" stroke="url(#color-13)" stroke-width="5" stroke-linecap="round"/><path d="M37.83335,66.63334l58.66667,-0.33333l24.66666,46.33333l-21.66666,45.66667h-63l-23.66666,-46.66667z" fill="none" stroke="url(#color-14)" stroke-width="5" stroke-linecap="round"/><path d="M38.83335,158.63333l58.66667,-0.33333l24.66666,46.33333l-21.66666,45.66667h-63l-23.66666,-46.66667z" fill="none" stroke="url(#color-15)" stroke-width="5" stroke-linecap="round"/><path d="M36.83335,-25.36666l58.66667,-0.33333l24.66666,46.33333l-21.66666,45.66667h-63l-23.66666,-46.66667z" fill="none" stroke="url(#color-16)" stroke-width="5" stroke-linecap="round"/><path d="M120.83335,-71.36666l58.66666,-0.33333l24.66666,46.33333l-21.66666,45.66667h-63l-23.66666,-46.66667z" fill="none" stroke="url(#color-17)" stroke-width="5" stroke-linecap="round"/><path d="M121.83335,20.63334l58.66666,-0.33333l24.66666,46.33333l-21.66666,45.66667h-63l-23.66666,-46.66667z" fill="none" stroke="url(#color-18)" stroke-width="5" stroke-linecap="round"/><path d="M205.83336,-25.36666l58.66666,-0.33333l24.66667,46.33333l-21.66667,45.66667h-63l-23.66666,-46.66667z" fill="none" stroke="url(#color-19)" stroke-width="5" stroke-linecap="round"/><path d="M289.83334,-71.36666l58.66667,-0.33333l24.66667,46.33333l-21.66667,45.66667h-63l-23.66667,-46.66667z" fill="none" stroke="url(#color-20)" stroke-width="5" stroke-linecap="round"/><path d="M290.83334,20.63334l58.66667,-0.33333l24.66667,46.33333l-21.66667,45.66667h-63l-23.66667,-46.66667z" fill="none" stroke="url(#color-21)" stroke-width="5" stroke-linecap="round"/><path d="M374.83336,-25.36666l58.66667,-0.33333l24.66667,46.33333l-21.66667,45.66667h-63l-23.66667,-46.66667z" fill="none" stroke="url(#color-22)" stroke-width="5" stroke-linecap="round"/><path d="M458.83336,-71.36666l58.66667,-0.33333l24.66666,46.33333l-21.66666,45.66667h-63l-23.66667,-46.66667z" fill="none" stroke="url(#color-23)" stroke-width="5" stroke-linecap="round"/><path d="M459.83336,20.63334l58.66667,-0.33333l24.66666,46.33333l-21.66666,45.66667h-63l-23.66667,-46.66667z" fill="none" stroke="url(#color-24)" stroke-width="5" stroke-linecap="round"/><path d="M-45.16666,204.63334l58.66666,-0.33333l24.66667,46.33333l-21.66667,45.66667h-63l-23.66666,-46.66667z" fill="none" stroke="url(#color-25)" stroke-width="5" stroke-linecap="round"/><path d="M-44.16666,296.63334l58.66666,-0.33333l24.66667,46.33333l-21.66667,45.66667h-63l-23.66666,-46.66667z" fill="none" stroke="url(#color-26)" stroke-width="5" stroke-linecap="round"/><path d="M-49.16665,-71.36666l58.66666,-0.33333l24.66667,46.33333l-21.66667,45.66667h-63l-23.66666,-46.66667z" fill="none" stroke="url(#color-27)" stroke-width="5" stroke-linecap="round"/><path d="M-48.16665,20.63333l58.66666,-0.33333l24.66667,46.33333l-21.66667,45.66667h-63l-23.66666,-46.66667z" fill="none" stroke="url(#color-28)" stroke-width="5" stroke-linecap="round"/><path d="M377.83336,252.63334l58.66666,-0.33333l24.66666,46.33333l-21.66666,45.66667h-63l-23.66666,-46.66667z" fill="none" stroke="url(#color-29)" stroke-width="5" stroke-linecap="round"/><path d="M461.83336,206.63334l58.66666,-0.33333l24.66666,46.33333l-21.66666,45.66667h-63l-23.66666,-46.66667z" fill="none" stroke="url(#color-30)" stroke-width="5" stroke-linecap="round"/><path d="M462.83336,298.63334l58.66666,-0.33333l24.66666,46.33333l-21.66666,45.66667h-63l-23.66666,-46.66667z" fill="none" stroke="url(#color-31)" stroke-width="5" stroke-linecap="round"/><path d="M351.06861,269.78175c0,0 77.22411,-0.62329 120.59918,14.45681c13.61535,4.73362 158.80335,38.53194 178.21808,48.64703" data-paper-data="{&quot;index&quot;:null}" fill="none" stroke="none" stroke-width="50" stroke-linecap="round"/></g></g></svg>