<svg version="1.1" xmlns="http://www.w3.org/2000/svg" xmlns:xlink="http://www.w3.org/1999/xlink" width="51.25" height="51.25" viewBox="0,0,51.25,51.25"><defs><linearGradient x1="210.12462" y1="172.0181" x2="259.37462" y2="172.0181" gradientUnits="userSpaceOnUse" id="color-1"><stop offset="0" stop-color="#848484"/><stop offset="1" stop-color="#ffffff"/></linearGradient></defs><g transform="translate(-209.12462,-146.3931)"><g data-paper-data="{&quot;isPaintingLayer&quot;:true}" fill-rule="nonzero" stroke-linejoin="miter" stroke-miterlimit="10" stroke-dasharray="" stroke-dashoffset="0" style="mix-blend-mode: normal"><path d="M210.12462,172.0181c0,-13.60001 11.02499,-24.625 24.625,-24.625c13.60001,0 24.625,11.02499 24.625,24.625c0,13.60001 -11.02499,24.625 -24.625,24.625c-13.60001,0 -24.625,-11.02499 -24.625,-24.625z" fill="url(#color-1)" stroke="#000000" stroke-width="2" stroke-linecap="butt"/><path d="M214.12462,180.74309v-16.5h9.5v16.5z" fill="#000000" stroke="none" stroke-width="0" stroke-linecap="butt"/><path d="M222.99962,181.16809c0,-5.70711 0,-13.61161 0,-17c0,-3.10738 11.75,-7.25 11.75,-7.25v30.75c0,0 -11.75,-2.78427 -11.75,-6.5z" fill="#000000" stroke="none" stroke-width="0" stroke-linecap="butt"/><path d="M248.16667,162.43333l-8.66667,17.33333" fill="none" stroke="#000000" stroke-width="3.5" stroke-linecap="round"/><path d="M248.5,180.1l-9,-17.66667" fill="none" stroke="#000000" stroke-width="3.5" stroke-linecap="round"/></g></g></svg>