<svg version="1.1" xmlns="http://www.w3.org/2000/svg" xmlns:xlink="http://www.w3.org/1999/xlink" width="38.92975" height="38.37474" viewBox="0,0,38.92975,38.37474"><defs><radialGradient cx="249.1775" cy="178.19287" r="16.5" gradientUnits="userSpaceOnUse" id="color-1"><stop offset="0" stop-color="#800000"/><stop offset="1" stop-color="#800000" stop-opacity="0"/></radialGradient><radialGradient cx="230.66993" cy="180.66451" r="16.5" gradientUnits="userSpaceOnUse" id="color-2"><stop offset="0" stop-color="#800000"/><stop offset="1" stop-color="#800000" stop-opacity="0"/></radialGradient><radialGradient cx="239.79418" cy="179.69821" r="16.5" gradientUnits="userSpaceOnUse" id="color-3"><stop offset="0" stop-color="#800000"/><stop offset="1" stop-color="#800000" stop-opacity="0"/></radialGradient><radialGradient cx="240" cy="180" r="19.46487" gradientUnits="userSpaceOnUse" id="color-4"><stop offset="0" stop-color="#ff5c5c"/><stop offset="1" stop-color="#ff5c5c" stop-opacity="0"/></radialGradient></defs><g transform="translate(-220.53513,-160.81263)"><g data-paper-data="{&quot;isPaintingLayer&quot;:true}" fill-rule="nonzero" stroke="none" stroke-linecap="butt" stroke-linejoin="miter" stroke-miterlimit="10" stroke-dasharray="" stroke-dashoffset="0" style="mix-blend-mode: normal"><path d="M237.81586,163.64521c9.03251,-1.20627 17.33268,5.13815 18.53895,14.17066c1.20627,9.03251 -5.13815,17.33268 -14.17066,18.53895c-9.03251,1.20627 -17.33268,-5.13815 -18.53895,-14.17066c-1.20627,-9.03251 5.13815,-17.33268 14.17066,-18.53895z" fill="#ff0000" stroke-width="0.5"/><path d="M237.81586,163.64521c9.03251,-1.20627 17.33268,5.13815 18.53895,14.17066c1.20627,9.03251 -5.13815,17.33268 -14.17066,18.53895c-9.03251,1.20627 -17.33268,-5.13815 -18.53895,-14.17066c-1.20627,-9.03251 5.13815,-17.33268 14.17066,-18.53895z" fill="url(#color-1)" stroke-width="0.5"/><path d="M256.35479,177.81587c1.20627,9.03251 -5.13815,17.33268 -14.17066,18.53895c-9.03251,1.20627 -17.33268,-5.13815 -18.53895,-14.17066c-1.20627,-9.03251 5.13815,-17.33268 14.17066,-18.53895c9.03251,-1.20627 17.33268,5.13815 18.53895,14.17066z" data-paper-data="{&quot;index&quot;:null}" fill="url(#color-2)" stroke-width="0.5"/><path d="M256.35479,177.81587c1.20627,9.03251 -5.13815,17.33268 -14.17066,18.53895c-9.03251,1.20627 -17.33268,-5.13815 -18.53895,-14.17066c-1.20627,-9.03251 5.13815,-17.33268 14.17066,-18.53895c9.03251,-1.20627 17.33268,5.13815 18.53895,14.17066z" data-paper-data="{&quot;index&quot;:null}" fill="url(#color-3)" stroke-width="0.5"/><path d="M259.46487,180c0,10.59689 -8.71473,19.18737 -19.46487,19.18737c-10.75015,0 -19.46487,-8.59048 -19.46487,-19.18737c0,-10.59689 8.71473,-19.18737 19.46487,-19.18737c10.75015,0 19.46487,8.59048 19.46487,19.18737z" fill="url(#color-4)" stroke-width="0"/></g></g></svg>