<svg version="1.1" xmlns="http://www.w3.org/2000/svg" xmlns:xlink="http://www.w3.org/1999/xlink" width="145" height="103.65937" viewBox="0,0,145,103.65937"><g transform="translate(-22.5,-224.14064)"><g data-paper-data="{&quot;isPaintingLayer&quot;:true}" fill-rule="nonzero" stroke-linejoin="miter" stroke-miterlimit="10" stroke-dasharray="" stroke-dashoffset="0" style="mix-blend-mode: normal"><path d="M22.5,327.29999v-100.18182h145v100.18182z" fill="#757575" stroke="none" stroke-width="0" stroke-linecap="butt"/><path d="M30.5,327.30001v-73h116v73z" fill="#000000" stroke="none" stroke-width="0" stroke-linecap="butt"/><text transform="translate(29.01083,245.07414) scale(0.48123,0.48123)" font-size="40" xml:space="preserve" fill="#ffffff" fill-rule="nonzero" stroke="none" stroke-width="1" stroke-linecap="butt" stroke-linejoin="miter" stroke-miterlimit="10" stroke-dasharray="" stroke-dashoffset="0" font-family="Sans Serif" font-weight="normal" text-anchor="start" style="mix-blend-mode: normal"><tspan x="0" dy="0">Chaos mode</tspan></text><path d="M94,265.30001c0,-1.38071 1.11929,-2.5 2.5,-2.5c1.38071,0 2.5,1.11929 2.5,2.5c0,1.38071 -1.11929,2.5 -2.5,2.5c-1.38071,0 -2.5,-1.11929 -2.5,-2.5z" fill="#ff0000" stroke="none" stroke-width="0.5" stroke-linecap="butt"/><path d="M124,315.30001c0,-1.38071 1.11929,-2.5 2.5,-2.5c1.38071,0 2.5,1.11929 2.5,2.5c0,1.38071 -1.11929,2.5 -2.5,2.5c-1.38071,0 -2.5,-1.11929 -2.5,-2.5z" fill="#ff0000" stroke="none" stroke-width="0.5" stroke-linecap="butt"/><path d="M42,309.30001c0,-1.38071 1.11929,-2.5 2.5,-2.5c1.38071,0 2.5,1.11929 2.5,2.5c0,1.38071 -1.11929,2.5 -2.5,2.5c-1.38071,0 -2.5,-1.11929 -2.5,-2.5z" fill="#ff0000" stroke="none" stroke-width="0.5" stroke-linecap="butt"/><path d="M121,267.30001c0,-1.38071 1.11929,-2.5 2.5,-2.5c1.38071,0 2.5,1.11929 2.5,2.5c0,1.38071 -1.11929,2.5 -2.5,2.5c-1.38071,0 -2.5,-1.11929 -2.5,-2.5z" fill="#00ffb2" stroke="none" stroke-width="0.5" stroke-linecap="butt"/><path d="M35,258.30001c0,-1.38071 1.11929,-2.5 2.5,-2.5c1.38071,0 2.5,1.11929 2.5,2.5c0,1.38071 -1.11929,2.5 -2.5,2.5c-1.38071,0 -2.5,-1.11929 -2.5,-2.5z" fill="#00ffb2" stroke="none" stroke-width="0.5" stroke-linecap="butt"/><path d="M89,320.30001c0,-1.38071 1.11929,-2.5 2.5,-2.5c1.38071,0 2.5,1.11929 2.5,2.5c0,1.38071 -1.11929,2.5 -2.5,2.5c-1.38071,0 -2.5,-1.11929 -2.5,-2.5z" fill="#00ffb2" stroke="none" stroke-width="0.5" stroke-linecap="butt"/><path d="M58,322.30001c0,-1.38071 1.11929,-2.5 2.5,-2.5c1.38071,0 2.5,1.11929 2.5,2.5c0,1.38071 -1.11929,2.5 -2.5,2.5c-1.38071,0 -2.5,-1.11929 -2.5,-2.5z" fill="#ff0000" stroke="none" stroke-width="0.5" stroke-linecap="butt"/><path d="M70,271.30001c0,-1.38071 1.11929,-2.5 2.5,-2.5c1.38071,0 2.5,1.11929 2.5,2.5c0,1.38071 -1.11929,2.5 -2.5,2.5c-1.38071,0 -2.5,-1.11929 -2.5,-2.5z" fill="#e000ff" stroke="none" stroke-width="0.5" stroke-linecap="butt"/><path d="M70.5,272.80001c-1.38071,0 -2.5,-1.11929 -2.5,-2.5c0,-1.38071 1.11929,-2.5 2.5,-2.5c1.38071,0 2.5,1.11929 2.5,2.5c0,1.38071 -1.11929,2.5 -2.5,2.5z" data-paper-data="{&quot;index&quot;:null}" fill="#9800ff" stroke="none" stroke-width="0.5" stroke-linecap="butt"/><path d="M40.5,322.80001c-1.38071,0 -2.5,-1.11929 -2.5,-2.5c0,-1.38071 1.11929,-2.5 2.5,-2.5c1.38071,0 2.5,1.11929 2.5,2.5c0,1.38071 -1.11929,2.5 -2.5,2.5z" data-paper-data="{&quot;index&quot;:null}" fill="#9800ff" stroke="none" stroke-width="0.5" stroke-linecap="butt"/><path d="M122.5,316.80001c-1.38071,0 -2.5,-1.11929 -2.5,-2.5c0,-1.38071 1.11929,-2.5 2.5,-2.5c1.38071,0 2.5,1.11929 2.5,2.5c0,1.38071 -1.11929,2.5 -2.5,2.5z" data-paper-data="{&quot;index&quot;:null}" fill="#9800ff" stroke="none" stroke-width="0.5" stroke-linecap="butt"/><path d="M43.5,274.80001c-1.38071,0 -2.5,-1.11929 -2.5,-2.5c0,-1.38071 1.11929,-2.5 2.5,-2.5c1.38071,0 2.5,1.11929 2.5,2.5c0,1.38071 -1.11929,2.5 -2.5,2.5z" data-paper-data="{&quot;index&quot;:null}" fill="#9800ff" stroke="none" stroke-width="0.5" stroke-linecap="butt"/><path d="M129.5,265.80001c-1.38071,0 -2.5,-1.11929 -2.5,-2.5c0,-1.38071 1.11929,-2.5 2.5,-2.5c1.38071,0 2.5,1.11929 2.5,2.5c0,1.38071 -1.11929,2.5 -2.5,2.5z" data-paper-data="{&quot;index&quot;:null}" fill="#9800ff" stroke="none" stroke-width="0.5" stroke-linecap="butt"/><path d="M75.5,327.80001c-1.38071,0 -2.5,-1.11929 -2.5,-2.5c0,-1.38071 1.11929,-2.5 2.5,-2.5c1.38071,0 2.5,1.11929 2.5,2.5c0,1.38071 -1.11929,2.5 -2.5,2.5z" data-paper-data="{&quot;index&quot;:null}" fill="#9800ff" stroke="none" stroke-width="0.5" stroke-linecap="butt"/><path d="M104.5,315.80001c-1.38071,0 -2.5,-1.11929 -2.5,-2.5c0,-1.38071 1.11929,-2.5 2.5,-2.5c1.38071,0 2.5,1.11929 2.5,2.5c0,1.38071 -1.11929,2.5 -2.5,2.5z" data-paper-data="{&quot;index&quot;:null}" fill="#9800ff" stroke="none" stroke-width="0.5" stroke-linecap="butt"/><path d="M94.5,278.80001c-1.38071,0 -2.5,-1.11929 -2.5,-2.5c0,-1.38071 1.11929,-2.5 2.5,-2.5c1.38071,0 2.5,1.11929 2.5,2.5c0,1.38071 -1.11929,2.5 -2.5,2.5z" data-paper-data="{&quot;index&quot;:null}" fill="#9800ff" stroke="none" stroke-width="0.5" stroke-linecap="butt"/><path d="M63.78306,286.28037c1.3112,-0.43256 2.72481,0.27972 3.15737,1.59092c0.43256,1.3112 -0.27972,2.72481 -1.59092,3.15737c-1.3112,0.43256 -2.72481,-0.27972 -3.15737,-1.59092c-0.43256,-1.3112 0.27972,-2.72481 1.59092,-3.15737z" fill="#00ff08" stroke="none" stroke-width="0.5" stroke-linecap="butt"/><path d="M110.02258,263.65502c1.3112,-0.43256 2.72481,0.27972 3.15737,1.59092c0.43256,1.3112 -0.27972,2.72481 -1.59092,3.15737c-1.3112,0.43256 -2.72481,-0.27972 -3.15737,-1.59092c-0.43256,-1.3112 0.27972,-2.72481 1.59092,-3.15737z" fill="#00ff08" stroke="none" stroke-width="0.5" stroke-linecap="butt"/><path d="M54.53124,312.49876c1.3112,-0.43256 2.72481,0.27972 3.15737,1.59092c0.43256,1.3112 -0.27972,2.72481 -1.59092,3.15737c-1.3112,0.43256 -2.72481,-0.27972 -3.15737,-1.59092c-0.43256,-1.3112 0.27972,-2.72481 1.59092,-3.15737z" fill="#00ff08" stroke="none" stroke-width="0.5" stroke-linecap="butt"/><path d="M108.64215,300.9658c1.3112,-0.43256 2.72481,0.27972 3.15737,1.59092c0.43256,1.3112 -0.27972,2.72481 -1.59092,3.15737c-1.3112,0.43256 -2.72481,-0.27972 -3.15737,-1.59092c-0.43256,-1.3112 0.27972,-2.72481 1.59092,-3.15737z" fill="#00ff08" stroke="none" stroke-width="0.5" stroke-linecap="butt"/><path d="M107.37431,301.91056c-0.43256,-1.3112 0.27972,-2.72481 1.59092,-3.15737c1.3112,-0.43256 2.72481,0.27972 3.15737,1.59092c0.43256,1.3112 -0.27972,2.72481 -1.59092,3.15737c-1.3112,0.43256 -2.72481,-0.27972 -3.15737,-1.59092z" data-paper-data="{&quot;index&quot;:null}" fill="#00ff08" stroke="none" stroke-width="0.5" stroke-linecap="butt"/><path d="M50.49274,289.08529c-0.43256,-1.3112 0.27972,-2.72481 1.59092,-3.15737c1.3112,-0.43256 2.72481,0.27972 3.15737,1.59092c0.43256,1.3112 -0.27972,2.72481 -1.59092,3.15737c-1.3112,0.43256 -2.72481,-0.27972 -3.15737,-1.59092z" data-paper-data="{&quot;index&quot;:null}" fill="#00ff08" stroke="none" stroke-width="0.5" stroke-linecap="butt"/><path d="M97.01619,276.89638c-0.43256,-1.3112 0.27972,-2.72481 1.59092,-3.15737c1.3112,-0.43256 2.72481,0.27972 3.15737,1.59092c0.43256,1.3112 -0.27972,2.72481 -1.59092,3.15737c-1.3112,0.43256 -2.72481,-0.27972 -3.15737,-1.59092z" data-paper-data="{&quot;index&quot;:null}" fill="#00ff08" stroke="none" stroke-width="0.5" stroke-linecap="butt"/><path d="M120.5,286.30001c0,0 -12.29683,8.84452 -20.1467,10.022c-6.66074,0.99912 -24.52143,14.04955 -37.64406,6.79164c-8.62897,-4.77255 -15.20924,-30.81364 -15.20924,-30.81364" fill="none" stroke="#e70000" stroke-width="20" stroke-linecap="round"/><path d="M119,280.3c0,-1.38071 1.11929,-2.5 2.5,-2.5c1.38071,0 2.5,1.11929 2.5,2.5c0,1.38071 -1.11929,2.5 -2.5,2.5c-1.38071,0 -2.5,-1.11929 -2.5,-2.5z" fill="#ffffff" stroke="none" stroke-width="0.5" stroke-linecap="butt"/><path d="M123,288.3c0,-1.38071 1.11929,-2.5 2.5,-2.5c1.38071,0 2.5,1.11929 2.5,2.5c0,1.38071 -1.11929,2.5 -2.5,2.5c-1.38071,0 -2.5,-1.11929 -2.5,-2.5z" fill="#ffffff" stroke="none" stroke-width="0.5" stroke-linecap="butt"/></g></g></svg>