<svg version="1.1" xmlns="http://www.w3.org/2000/svg" xmlns:xlink="http://www.w3.org/1999/xlink" width="1066.11237" height="873.12927" viewBox="0,0,1066.11237,873.12927"><defs><linearGradient x1="153" y1="112.30001" x2="153" y2="204.30001" gradientUnits="userSpaceOnUse" id="color-1"><stop offset="0" stop-color="#272727"/><stop offset="1" stop-color="#101010"/></linearGradient><linearGradient x1="237.00001" y1="66.30001" x2="237.00001" y2="158.30001" gradientUnits="userSpaceOnUse" id="color-2"><stop offset="0" stop-color="#272727"/><stop offset="1" stop-color="#101010"/></linearGradient><linearGradient x1="238.00001" y1="158.3" x2="238.00001" y2="250.3" gradientUnits="userSpaceOnUse" id="color-3"><stop offset="0" stop-color="#272727"/><stop offset="1" stop-color="#101010"/></linearGradient><linearGradient x1="321.00001" y1="113.30001" x2="321.00001" y2="205.30001" gradientUnits="userSpaceOnUse" id="color-4"><stop offset="0" stop-color="#272727"/><stop offset="1" stop-color="#101010"/></linearGradient><linearGradient x1="405.00003" y1="67.30001" x2="405.00003" y2="159.30001" gradientUnits="userSpaceOnUse" id="color-5"><stop offset="0" stop-color="#272727"/><stop offset="1" stop-color="#101010"/></linearGradient><linearGradient x1="406.00003" y1="159.3" x2="406.00003" y2="251.3" gradientUnits="userSpaceOnUse" id="color-6"><stop offset="0" stop-color="#272727"/><stop offset="1" stop-color="#101010"/></linearGradient><linearGradient x1="70.00002" y1="249.30001" x2="70.00002" y2="341.30001" gradientUnits="userSpaceOnUse" id="color-7"><stop offset="0" stop-color="#272727"/><stop offset="1" stop-color="#101010"/></linearGradient><linearGradient x1="154" y1="203.30001" x2="154" y2="295.30001" gradientUnits="userSpaceOnUse" id="color-8"><stop offset="0" stop-color="#272727"/><stop offset="1" stop-color="#101010"/></linearGradient><linearGradient x1="155" y1="295.30001" x2="155" y2="387.30001" gradientUnits="userSpaceOnUse" id="color-9"><stop offset="0" stop-color="#272727"/><stop offset="1" stop-color="#101010"/></linearGradient><linearGradient x1="238.00001" y1="251.30001" x2="238.00001" y2="343.30001" gradientUnits="userSpaceOnUse" id="color-10"><stop offset="0" stop-color="#272727"/><stop offset="1" stop-color="#101010"/></linearGradient><linearGradient x1="322.00001" y1="205.30001" x2="322.00001" y2="297.30001" gradientUnits="userSpaceOnUse" id="color-11"><stop offset="0" stop-color="#272727"/><stop offset="1" stop-color="#101010"/></linearGradient><linearGradient x1="323.00001" y1="297.30001" x2="323.00001" y2="389.30001" gradientUnits="userSpaceOnUse" id="color-12"><stop offset="0" stop-color="#272727"/><stop offset="1" stop-color="#101010"/></linearGradient><linearGradient x1="-16.99997" y1="112.30001" x2="-16.99997" y2="204.30001" gradientUnits="userSpaceOnUse" id="color-13"><stop offset="0" stop-color="#272727"/><stop offset="1" stop-color="#101010"/></linearGradient><linearGradient x1="67.00002" y1="66.30001" x2="67.00002" y2="158.30001" gradientUnits="userSpaceOnUse" id="color-14"><stop offset="0" stop-color="#272727"/><stop offset="1" stop-color="#101010"/></linearGradient><linearGradient x1="68.00002" y1="158.3" x2="68.00002" y2="250.3" gradientUnits="userSpaceOnUse" id="color-15"><stop offset="0" stop-color="#272727"/><stop offset="1" stop-color="#101010"/></linearGradient><linearGradient x1="66.00002" y1="-25.69999" x2="66.00002" y2="66.30001" gradientUnits="userSpaceOnUse" id="color-16"><stop offset="0" stop-color="#272727"/><stop offset="1" stop-color="#101010"/></linearGradient><linearGradient x1="150" y1="-71.69999" x2="150" y2="20.30001" gradientUnits="userSpaceOnUse" id="color-17"><stop offset="0" stop-color="#272727"/><stop offset="1" stop-color="#101010"/></linearGradient><linearGradient x1="151" y1="20.30001" x2="151" y2="112.30001" gradientUnits="userSpaceOnUse" id="color-18"><stop offset="0" stop-color="#272727"/><stop offset="1" stop-color="#101010"/></linearGradient><linearGradient x1="235.00001" y1="-25.69999" x2="235.00001" y2="66.30001" gradientUnits="userSpaceOnUse" id="color-19"><stop offset="0" stop-color="#272727"/><stop offset="1" stop-color="#101010"/></linearGradient><linearGradient x1="319.00001" y1="-71.69999" x2="319.00001" y2="20.30001" gradientUnits="userSpaceOnUse" id="color-20"><stop offset="0" stop-color="#272727"/><stop offset="1" stop-color="#101010"/></linearGradient><linearGradient x1="320.00001" y1="20.30001" x2="320.00001" y2="112.30001" gradientUnits="userSpaceOnUse" id="color-21"><stop offset="0" stop-color="#272727"/><stop offset="1" stop-color="#101010"/></linearGradient><linearGradient x1="404.00003" y1="-25.69999" x2="404.00003" y2="66.30001" gradientUnits="userSpaceOnUse" id="color-22"><stop offset="0" stop-color="#272727"/><stop offset="1" stop-color="#101010"/></linearGradient><linearGradient x1="488.00001" y1="-71.69999" x2="488.00001" y2="20.30001" gradientUnits="userSpaceOnUse" id="color-23"><stop offset="0" stop-color="#272727"/><stop offset="1" stop-color="#101010"/></linearGradient><linearGradient x1="489.00001" y1="20.30001" x2="489.00001" y2="112.30001" gradientUnits="userSpaceOnUse" id="color-24"><stop offset="0" stop-color="#272727"/><stop offset="1" stop-color="#101010"/></linearGradient><linearGradient x1="-99.99999" y1="250.30001" x2="-99.99999" y2="342.30001" gradientUnits="userSpaceOnUse" id="color-25"><stop offset="0" stop-color="#272727"/><stop offset="1" stop-color="#101010"/></linearGradient><linearGradient x1="-16" y1="204.30001" x2="-16" y2="296.30001" gradientUnits="userSpaceOnUse" id="color-26"><stop offset="0" stop-color="#272727"/><stop offset="1" stop-color="#101010"/></linearGradient><linearGradient x1="-15" y1="296.30001" x2="-15" y2="388.30001" gradientUnits="userSpaceOnUse" id="color-27"><stop offset="0" stop-color="#272727"/><stop offset="1" stop-color="#101010"/></linearGradient><linearGradient x1="-103.99999" y1="-25.7" x2="-103.99999" y2="66.3" gradientUnits="userSpaceOnUse" id="color-28"><stop offset="0" stop-color="#272727"/><stop offset="1" stop-color="#101010"/></linearGradient><linearGradient x1="-19.99999" y1="-71.69999" x2="-19.99999" y2="20.30001" gradientUnits="userSpaceOnUse" id="color-29"><stop offset="0" stop-color="#272727"/><stop offset="1" stop-color="#101010"/></linearGradient><linearGradient x1="-18.99999" y1="20.3" x2="-18.99999" y2="112.3" gradientUnits="userSpaceOnUse" id="color-30"><stop offset="0" stop-color="#272727"/><stop offset="1" stop-color="#101010"/></linearGradient><linearGradient x1="407.00001" y1="252.30001" x2="407.00001" y2="344.30001" gradientUnits="userSpaceOnUse" id="color-31"><stop offset="0" stop-color="#272727"/><stop offset="1" stop-color="#101010"/></linearGradient><linearGradient x1="491.00001" y1="206.30001" x2="491.00001" y2="298.30001" gradientUnits="userSpaceOnUse" id="color-32"><stop offset="0" stop-color="#272727"/><stop offset="1" stop-color="#101010"/></linearGradient><linearGradient x1="492.00001" y1="298.30001" x2="492.00001" y2="390.30001" gradientUnits="userSpaceOnUse" id="color-33"><stop offset="0" stop-color="#272727"/><stop offset="1" stop-color="#101010"/></linearGradient><linearGradient x1="85.57137" y1="210.97953" x2="354.50003" y2="210.97953" gradientUnits="userSpaceOnUse" id="color-34"><stop offset="0" stop-color="#cc00ff"/><stop offset="1" stop-color="#1f00ff"/></linearGradient><radialGradient cx="364.81616" cy="168.29801" r="11.2015" gradientUnits="userSpaceOnUse" id="color-35"><stop offset="0" stop-color="#cfcfcf"/><stop offset="1" stop-color="#ffffff"/></radialGradient><radialGradient cx="362.88307" cy="193.14254" r="10.99785" gradientUnits="userSpaceOnUse" id="color-36"><stop offset="0" stop-color="#cfcfcf"/><stop offset="1" stop-color="#ffffff"/></radialGradient><radialGradient cx="42.00002" cy="240.00001" r="24" gradientUnits="userSpaceOnUse" id="color-37"><stop offset="0" stop-color="#ff0000"/><stop offset="1" stop-color="#ff0000" stop-opacity="0"/></radialGradient><radialGradient cx="42.00002" cy="240.00001" r="10.66667" gradientUnits="userSpaceOnUse" id="color-38"><stop offset="0" stop-color="#ffc2c2"/><stop offset="1" stop-color="#ffc2c2" stop-opacity="0"/></radialGradient><radialGradient cx="306.75978" cy="263.01803" r="24" gradientUnits="userSpaceOnUse" id="color-39"><stop offset="0" stop-color="#ff0000"/><stop offset="1" stop-color="#ff0000" stop-opacity="0"/></radialGradient><radialGradient cx="306.75978" cy="263.01803" r="10.66666" gradientUnits="userSpaceOnUse" id="color-40"><stop offset="0" stop-color="#ffc2c2"/><stop offset="1" stop-color="#ffc2c2" stop-opacity="0"/></radialGradient><radialGradient cx="110.55859" cy="146.3964" r="24" gradientUnits="userSpaceOnUse" id="color-41"><stop offset="0" stop-color="#ff0000"/><stop offset="1" stop-color="#ff0000" stop-opacity="0"/></radialGradient><radialGradient cx="110.55859" cy="146.3964" r="10.66667" gradientUnits="userSpaceOnUse" id="color-42"><stop offset="0" stop-color="#ffc2c2"/><stop offset="1" stop-color="#ffc2c2" stop-opacity="0"/></radialGradient><radialGradient cx="433.87691" cy="170.91593" r="24" gradientUnits="userSpaceOnUse" id="color-43"><stop offset="0" stop-color="#ff0000"/><stop offset="1" stop-color="#ff0000" stop-opacity="0"/></radialGradient><radialGradient cx="433.87691" cy="170.91593" r="10.66667" gradientUnits="userSpaceOnUse" id="color-44"><stop offset="0" stop-color="#ffc2c2"/><stop offset="1" stop-color="#ffc2c2" stop-opacity="0"/></radialGradient><radialGradient cx="213.65167" cy="260.00001" r="24" gradientUnits="userSpaceOnUse" id="color-45"><stop offset="0" stop-color="#00b8ff"/><stop offset="1" stop-color="#00b8ff" stop-opacity="0"/></radialGradient><radialGradient cx="213.65167" cy="260.00001" r="10.66667" gradientUnits="userSpaceOnUse" id="color-46"><stop offset="0" stop-color="#c2f4ff"/><stop offset="1" stop-color="#c2f4ff" stop-opacity="0"/></radialGradient><radialGradient cx="388.32135" cy="225.96097" r="24" gradientUnits="userSpaceOnUse" id="color-47"><stop offset="0" stop-color="#00b8ff"/><stop offset="1" stop-color="#00b8ff" stop-opacity="0"/></radialGradient><radialGradient cx="388.32135" cy="225.96097" r="10.66667" gradientUnits="userSpaceOnUse" id="color-48"><stop offset="0" stop-color="#c2f4ff"/><stop offset="1" stop-color="#c2f4ff" stop-opacity="0"/></radialGradient><radialGradient cx="46.47449" cy="137.86788" r="24" gradientUnits="userSpaceOnUse" id="color-49"><stop offset="0" stop-color="#00b8ff"/><stop offset="1" stop-color="#00b8ff" stop-opacity="0"/></radialGradient><radialGradient cx="46.47449" cy="137.86788" r="10.66667" gradientUnits="userSpaceOnUse" id="color-50"><stop offset="0" stop-color="#c2f4ff"/><stop offset="1" stop-color="#c2f4ff" stop-opacity="0"/></radialGradient><radialGradient cx="269.19222" cy="214.93995" r="24" gradientUnits="userSpaceOnUse" id="color-51"><stop offset="0" stop-color="#1fff00"/><stop offset="1" stop-color="#1fff00" stop-opacity="0"/></radialGradient><radialGradient cx="269.19222" cy="214.93995" r="10.66666" gradientUnits="userSpaceOnUse" id="color-52"><stop offset="0" stop-color="#c3ffc2"/><stop offset="1" stop-color="#c3ffc2" stop-opacity="0"/></radialGradient><radialGradient cx="176.59461" cy="131.35136" r="24" gradientUnits="userSpaceOnUse" id="color-53"><stop offset="0" stop-color="#d7ff00"/><stop offset="1" stop-color="#d7ff00" stop-opacity="0"/></radialGradient><radialGradient cx="176.59461" cy="132.35136" r="10.66667" gradientUnits="userSpaceOnUse" id="color-54"><stop offset="0" stop-color="#ecffc2"/><stop offset="1" stop-color="#ecffc2" stop-opacity="0"/></radialGradient><radialGradient cx="397.81084" cy="143.85887" r="24" gradientUnits="userSpaceOnUse" id="color-55"><stop offset="0" stop-color="#1fff00"/><stop offset="1" stop-color="#1fff00" stop-opacity="0"/></radialGradient><radialGradient cx="397.81084" cy="143.85887" r="10.66667" gradientUnits="userSpaceOnUse" id="color-56"><stop offset="0" stop-color="#c3ffc2"/><stop offset="1" stop-color="#c3ffc2" stop-opacity="0"/></radialGradient><radialGradient cx="37.94597" cy="312.52252" r="24" gradientUnits="userSpaceOnUse" id="color-57"><stop offset="0" stop-color="#1fff00"/><stop offset="1" stop-color="#1fff00" stop-opacity="0"/></radialGradient><radialGradient cx="37.94597" cy="312.52252" r="10.66667" gradientUnits="userSpaceOnUse" id="color-58"><stop offset="0" stop-color="#c3ffc2"/><stop offset="1" stop-color="#c3ffc2" stop-opacity="0"/></radialGradient><radialGradient cx="219.04842" cy="216.97653" r="145.99658" gradientUnits="userSpaceOnUse" id="color-59"><stop offset="0" stop-color="#cc00ff"/><stop offset="1" stop-color="#cc00ff" stop-opacity="0"/></radialGradient><linearGradient x1="611.71552" y1="384.80879" x2="355.15063" y2="304.20439" gradientUnits="userSpaceOnUse" id="color-60"><stop offset="0" stop-color="#00caff"/><stop offset="1" stop-color="#0067ff"/></linearGradient><radialGradient cx="358.10143" cy="260.39313" r="11.2015" gradientUnits="userSpaceOnUse" id="color-61"><stop offset="0" stop-color="#cfcfcf"/><stop offset="1" stop-color="#ffffff"/></radialGradient><radialGradient cx="352.49916" cy="284.67485" r="10.99785" gradientUnits="userSpaceOnUse" id="color-62"><stop offset="0" stop-color="#cfcfcf"/><stop offset="1" stop-color="#ffffff"/></radialGradient><linearGradient x1="-194.33091" y1="295.80879" x2="62.23399" y2="215.20442" gradientUnits="userSpaceOnUse" id="color-63"><stop offset="0" stop-color="#ff00da"/><stop offset="1" stop-color="#ff0000"/></linearGradient><radialGradient cx="59.28319" cy="171.39314" r="11.2015" gradientUnits="userSpaceOnUse" id="color-64"><stop offset="0" stop-color="#cfcfcf"/><stop offset="1" stop-color="#ffffff"/></radialGradient><radialGradient cx="64.88545" cy="195.67486" r="10.99785" gradientUnits="userSpaceOnUse" id="color-65"><stop offset="0" stop-color="#cfcfcf"/><stop offset="1" stop-color="#ffffff"/></radialGradient><radialGradient cx="132.5" cy="225.50001" r="46" gradientUnits="userSpaceOnUse" id="color-66"><stop offset="0" stop-color="#ad6aff"/><stop offset="1" stop-color="#ad6aff" stop-opacity="0"/></radialGradient><radialGradient cx="160.5" cy="203.50001" r="46" gradientUnits="userSpaceOnUse" id="color-67"><stop offset="0" stop-color="#7708ff"/><stop offset="1" stop-color="#7708ff" stop-opacity="0"/></radialGradient><radialGradient cx="200.50004" cy="177.50001" r="46" gradientUnits="userSpaceOnUse" id="color-68"><stop offset="0" stop-color="#7a0dff"/><stop offset="1" stop-color="#7a0dff" stop-opacity="0"/></radialGradient><radialGradient cx="244.50003" cy="164.5" r="46" gradientUnits="userSpaceOnUse" id="color-69"><stop offset="0" stop-color="#831dff"/><stop offset="1" stop-color="#831dff" stop-opacity="0"/></radialGradient><radialGradient cx="111.50003" cy="250.50001" r="46" gradientUnits="userSpaceOnUse" id="color-70"><stop offset="0" stop-color="#bf00ff"/><stop offset="1" stop-color="#bf00ff" stop-opacity="0"/></radialGradient><linearGradient x1="-109.5" y1="166.5" x2="202.50001" y2="166.5" gradientUnits="userSpaceOnUse" id="color-71"><stop offset="0" stop-color="#000000"/><stop offset="1" stop-color="#000000" stop-opacity="0"/></linearGradient><radialGradient cx="81.50002" cy="264.50001" r="46" gradientUnits="userSpaceOnUse" id="color-72"><stop offset="0" stop-color="#ff2790"/><stop offset="1" stop-color="#ff2790" stop-opacity="0"/></radialGradient><linearGradient x1="778.50001" y1="149.5" x2="466.50001" y2="149.5" gradientUnits="userSpaceOnUse" id="color-73"><stop offset="0" stop-color="#000000"/><stop offset="1" stop-color="#000000" stop-opacity="0"/></linearGradient><linearGradient x1="-123.45638" y1="-125.70061" x2="82.45639" y2="108.7006" gradientUnits="userSpaceOnUse" id="color-74"><stop offset="0" stop-color="#ffffff"/><stop offset="1" stop-color="#ffffff" stop-opacity="0"/></linearGradient><linearGradient x1="563.91944" y1="459.01878" x2="358.00666" y2="224.61757" gradientUnits="userSpaceOnUse" id="color-75"><stop offset="0" stop-color="#ffffff"/><stop offset="1" stop-color="#ffffff" stop-opacity="0"/></linearGradient></defs><g transform="translate(287.61236,269.90555)"><g data-paper-data="{&quot;isPaintingLayer&quot;:true}" fill-rule="nonzero" stroke-linejoin="miter" stroke-miterlimit="10" stroke-dasharray="" stroke-dashoffset="0" style="mix-blend-mode: normal"><path d="M500.50003,-13.49999v387h-521v-387z" data-paper-data="{&quot;index&quot;:null}" fill="#0a0a0a" stroke="#000000" stroke-width="0" stroke-linecap="butt"/><path d="M123.83335,112.63334l58.66666,-0.33333l24.66666,46.33333l-21.66666,45.66667h-63l-23.66666,-46.66667z" fill="none" stroke="url(#color-1)" stroke-width="5" stroke-linecap="round"/><path d="M207.83336,66.63334l58.66666,-0.33333l24.66667,46.33333l-21.66667,45.66667h-63l-23.66666,-46.66667z" fill="none" stroke="url(#color-2)" stroke-width="5" stroke-linecap="round"/><path d="M208.83336,158.63333l58.66666,-0.33333l24.66667,46.33333l-21.66667,45.66667h-63l-23.66666,-46.66667z" fill="none" stroke="url(#color-3)" stroke-width="5" stroke-linecap="round"/><path d="M291.83334,113.63334l58.66667,-0.33333l24.66667,46.33333l-21.66667,45.66667h-63l-23.66667,-46.66667z" fill="none" stroke="url(#color-4)" stroke-width="5" stroke-linecap="round"/><path d="M375.83336,67.63334l58.66667,-0.33333l24.66667,46.33333l-21.66667,45.66667h-63l-23.66667,-46.66667z" fill="none" stroke="url(#color-5)" stroke-width="5" stroke-linecap="round"/><path d="M376.83336,159.63333l58.66667,-0.33333l24.66667,46.33333l-21.66667,45.66667h-63l-23.66667,-46.66667z" fill="none" stroke="url(#color-6)" stroke-width="5" stroke-linecap="round"/><path d="M40.83335,249.63334l58.66667,-0.33333l24.66666,46.33333l-21.66666,45.66667h-63l-23.66666,-46.66667z" fill="none" stroke="url(#color-7)" stroke-width="5" stroke-linecap="round"/><path d="M124.83335,203.63334l58.66666,-0.33333l24.66666,46.33333l-21.66666,45.66667h-63l-23.66666,-46.66667z" fill="none" stroke="url(#color-8)" stroke-width="5" stroke-linecap="round"/><path d="M125.83335,295.63334l58.66666,-0.33333l24.66666,46.33333l-21.66666,45.66667h-63l-23.66666,-46.66667z" fill="none" stroke="url(#color-9)" stroke-width="5" stroke-linecap="round"/><path d="M208.83336,251.63334l58.66666,-0.33333l24.66667,46.33333l-21.66667,45.66667h-63l-23.66666,-46.66667z" fill="none" stroke="url(#color-10)" stroke-width="5" stroke-linecap="round"/><path d="M292.83334,205.63334l58.66667,-0.33333l24.66667,46.33333l-21.66667,45.66667h-63l-23.66667,-46.66667z" fill="none" stroke="url(#color-11)" stroke-width="5" stroke-linecap="round"/><path d="M293.83334,297.63334l58.66667,-0.33333l24.66667,46.33333l-21.66667,45.66667h-63l-23.66667,-46.66667z" fill="none" stroke="url(#color-12)" stroke-width="5" stroke-linecap="round"/><path d="M-46.16665,112.63334l58.66667,-0.33333l24.66667,46.33333l-21.66666,45.66667h-63l-23.66666,-46.66667z" fill="none" stroke="url(#color-13)" stroke-width="5" stroke-linecap="round"/><path d="M37.83335,66.63334l58.66667,-0.33333l24.66666,46.33333l-21.66666,45.66667h-63l-23.66666,-46.66667z" fill="none" stroke="url(#color-14)" stroke-width="5" stroke-linecap="round"/><path d="M38.83335,158.63333l58.66667,-0.33333l24.66666,46.33333l-21.66666,45.66667h-63l-23.66666,-46.66667z" fill="none" stroke="url(#color-15)" stroke-width="5" stroke-linecap="round"/><path d="M36.83335,-25.36666l58.66667,-0.33333l24.66666,46.33333l-21.66666,45.66667h-63l-23.66666,-46.66667z" fill="none" stroke="url(#color-16)" stroke-width="5" stroke-linecap="round"/><path d="M120.83335,-71.36666l58.66666,-0.33333l24.66666,46.33333l-21.66666,45.66667h-63l-23.66666,-46.66667z" fill="none" stroke="url(#color-17)" stroke-width="5" stroke-linecap="round"/><path d="M121.83335,20.63334l58.66666,-0.33333l24.66666,46.33333l-21.66666,45.66667h-63l-23.66666,-46.66667z" fill="none" stroke="url(#color-18)" stroke-width="5" stroke-linecap="round"/><path d="M205.83336,-25.36666l58.66666,-0.33333l24.66667,46.33333l-21.66667,45.66667h-63l-23.66666,-46.66667z" fill="none" stroke="url(#color-19)" stroke-width="5" stroke-linecap="round"/><path d="M289.83334,-71.36666l58.66667,-0.33333l24.66667,46.33333l-21.66667,45.66667h-63l-23.66667,-46.66667z" fill="none" stroke="url(#color-20)" stroke-width="5" stroke-linecap="round"/><path d="M290.83334,20.63334l58.66667,-0.33333l24.66667,46.33333l-21.66667,45.66667h-63l-23.66667,-46.66667z" fill="none" stroke="url(#color-21)" stroke-width="5" stroke-linecap="round"/><path d="M374.83336,-25.36666l58.66667,-0.33333l24.66667,46.33333l-21.66667,45.66667h-63l-23.66667,-46.66667z" fill="none" stroke="url(#color-22)" stroke-width="5" stroke-linecap="round"/><path d="M458.83336,-71.36666l58.66667,-0.33333l24.66666,46.33333l-21.66666,45.66667h-63l-23.66667,-46.66667z" fill="none" stroke="url(#color-23)" stroke-width="5" stroke-linecap="round"/><path d="M459.83336,20.63334l58.66667,-0.33333l24.66666,46.33333l-21.66666,45.66667h-63l-23.66667,-46.66667z" fill="none" stroke="url(#color-24)" stroke-width="5" stroke-linecap="round"/><path d="M-129.16665,250.63334l58.66666,-0.33333l24.66666,46.33333l-21.66666,45.66667h-63l-23.66666,-46.66667z" fill="none" stroke="url(#color-25)" stroke-width="5" stroke-linecap="round"/><path d="M-45.16666,204.63334l58.66666,-0.33333l24.66667,46.33333l-21.66667,45.66667h-63l-23.66666,-46.66667z" fill="none" stroke="url(#color-26)" stroke-width="5" stroke-linecap="round"/><path d="M-44.16666,296.63334l58.66666,-0.33333l24.66667,46.33333l-21.66667,45.66667h-63l-23.66666,-46.66667z" fill="none" stroke="url(#color-27)" stroke-width="5" stroke-linecap="round"/><path d="M-133.16665,-25.36667l58.66666,-0.33333l24.66666,46.33333l-21.66666,45.66667h-63l-23.66666,-46.66667z" fill="none" stroke="url(#color-28)" stroke-width="5" stroke-linecap="round"/><path d="M-49.16665,-71.36666l58.66666,-0.33333l24.66667,46.33333l-21.66667,45.66667h-63l-23.66666,-46.66667z" fill="none" stroke="url(#color-29)" stroke-width="5" stroke-linecap="round"/><path d="M-48.16665,20.63333l58.66666,-0.33333l24.66667,46.33333l-21.66667,45.66667h-63l-23.66666,-46.66667z" fill="none" stroke="url(#color-30)" stroke-width="5" stroke-linecap="round"/><path d="M377.83336,252.63334l58.66666,-0.33333l24.66666,46.33333l-21.66666,45.66667h-63l-23.66666,-46.66667z" fill="none" stroke="url(#color-31)" stroke-width="5" stroke-linecap="round"/><path d="M461.83336,206.63334l58.66666,-0.33333l24.66666,46.33333l-21.66666,45.66667h-63l-23.66666,-46.66667z" fill="none" stroke="url(#color-32)" stroke-width="5" stroke-linecap="round"/><path d="M462.83336,298.63334l58.66666,-0.33333l24.66666,46.33333l-21.66666,45.66667h-63l-23.66666,-46.66667z" fill="none" stroke="url(#color-33)" stroke-width="5" stroke-linecap="round"/><path d="M85.57137,263.50139c19.85136,-3.52839 44.94589,-35.55936 76.39842,-60.81638c31.4735,-25.27387 69.30279,-43.77274 82.57287,-44.17352c42.27511,-1.27676 109.95737,20.58854 109.95737,20.58854" fill="none" stroke="url(#color-34)" stroke-width="50" stroke-linecap="round"/><path d="M353.63637,167.601c0.38494,-6.17445 5.70236,-10.86777 11.87681,-10.48283c6.17445,0.38494 10.86775,5.70236 10.48281,11.87681c-0.38494,6.17445 -5.70234,10.86775 -11.87679,10.48281c-6.17445,-0.38494 -10.86776,-5.70236 -10.48282,-11.87679z" fill="url(#color-35)" stroke="none" stroke-width="0.5" stroke-linecap="butt"/><path d="M360.3986,170.47277c0.25196,-4.04145 3.73248,-7.11344 7.77391,-6.86148c4.04145,0.25197 7.11343,3.73248 6.86147,7.77391c-0.25196,4.04145 -3.73246,7.11344 -7.77391,6.86147c-4.04145,-0.25197 -7.11343,-3.73245 -6.86149,-7.7739z" fill="#000000" stroke="none" stroke-width="0.5" stroke-linecap="butt"/><path d="M351.90652,192.45822c0.37793,-6.06218 5.59869,-10.67016 11.66085,-10.29221c6.06218,0.37794 10.67016,5.59869 10.29221,11.66085c-0.37793,6.06218 -5.59868,10.67016 -11.66085,10.29221c-6.06218,-0.37794 -10.67016,-5.59869 -10.29221,-11.66085z" fill="url(#color-36)" stroke="none" stroke-width="0.5" stroke-linecap="butt"/><path d="M359.81769,193.88909c0.25196,-4.04145 3.73247,-7.11344 7.7739,-6.86148c4.04145,0.25197 7.11344,3.73248 6.86148,7.77391c-0.25196,4.04145 -3.73246,7.11344 -7.77391,6.86149c-4.04145,-0.25197 -7.11343,-3.73247 -6.86147,-7.7739z" fill="#000000" stroke="none" stroke-width="0.5" stroke-linecap="butt"/><path d="M18.00002,240.00001c0,-13.25483 10.74517,-24 24,-24c13.25483,0 24,10.74517 24,24c0,13.25483 -10.74517,24 -24,24c-13.25483,0 -24,-10.74517 -24,-24z" fill="url(#color-37)" stroke="none" stroke-width="0" stroke-linecap="butt"/><path d="M30.4364,240.00001c0,-6.38643 5.17722,-11.56364 11.56364,-11.56364c6.38643,0 11.56363,5.17721 11.56363,11.56364c0,6.38643 -5.17721,11.56364 -11.56363,11.56364c-6.38643,0 -11.56364,-5.17721 -11.56364,-11.56364z" fill="#ff0000" stroke="none" stroke-width="0.5" stroke-linecap="butt"/><path d="M31.33335,240.00001c0,-5.89104 4.77563,-10.66667 10.66667,-10.66667c5.89104,0 10.66667,4.77563 10.66667,10.66667c0,5.89104 -4.77563,10.66667 -10.66667,10.66667c-5.89104,0 -10.66667,-4.77563 -10.66667,-10.66667z" fill="url(#color-38)" stroke="none" stroke-width="0" stroke-linecap="butt"/><path d="M282.75978,263.01803c0,-13.25483 10.74517,-24 24,-24c13.25483,0 24,10.74517 24,24c0,13.25483 -10.74517,24 -24,24c-13.25483,0 -24,-10.74517 -24,-24z" fill="url(#color-39)" stroke="none" stroke-width="0" stroke-linecap="butt"/><path d="M295.19615,263.01803c0,-6.38643 5.17722,-11.56364 11.56364,-11.56364c6.38643,0 11.56363,5.17721 11.56363,11.56364c0,6.38643 -5.17721,11.56364 -11.56363,11.56364c-6.38643,0 -11.56364,-5.17721 -11.56364,-11.56364z" fill="#ff0000" stroke="none" stroke-width="0.5" stroke-linecap="butt"/><path d="M296.0931,263.01803c0,-5.89103 4.77563,-10.66666 10.66666,-10.66666c5.89103,0 10.66666,4.77563 10.66666,10.66666c0,5.89104 -4.77563,10.66667 -10.66666,10.66667c-5.89103,0 -10.66666,-4.77563 -10.66666,-10.66667z" fill="url(#color-40)" stroke="none" stroke-width="0" stroke-linecap="butt"/><path d="M86.55859,146.3964c0,-13.25483 10.74517,-24 24,-24c13.25483,0 24,10.74517 24,24c0,13.25483 -10.74517,24 -24,24c-13.25483,0 -24,-10.74517 -24,-24z" fill="url(#color-41)" stroke="none" stroke-width="0" stroke-linecap="butt"/><path d="M98.99496,146.3964c0,-6.38643 5.17722,-11.56364 11.56364,-11.56364c6.38643,0 11.56363,5.17721 11.56363,11.56364c0,6.38643 -5.17721,11.56364 -11.56363,11.56364c-6.38643,0 -11.56364,-5.17721 -11.56364,-11.56364z" fill="#ff0000" stroke="none" stroke-width="0.5" stroke-linecap="butt"/><path d="M99.89191,146.3964c0,-5.89104 4.77563,-10.66667 10.66667,-10.66667c5.89104,0 10.66667,4.77563 10.66667,10.66667c0,5.89103 -4.77563,10.66666 -10.66667,10.66666c-5.89104,0 -10.66667,-4.77563 -10.66667,-10.66666z" fill="url(#color-42)" stroke="none" stroke-width="0" stroke-linecap="butt"/><path d="M409.87691,170.91593c0,-13.25483 10.74517,-24 24,-24c13.25483,0 24,10.74517 24,24c0,13.25483 -10.74517,24 -24,24c-13.25483,0 -24,-10.74517 -24,-24z" fill="url(#color-43)" stroke="none" stroke-width="0" stroke-linecap="butt"/><path d="M422.31328,170.91593c0,-6.38643 5.17722,-11.56364 11.56364,-11.56364c6.38643,0 11.56363,5.17721 11.56363,11.56364c0,6.38643 -5.17721,11.56364 -11.56363,11.56364c-6.38643,0 -11.56364,-5.17721 -11.56364,-11.56364z" fill="#ff0000" stroke="none" stroke-width="0.5" stroke-linecap="butt"/><path d="M423.21024,170.91593c0,-5.89103 4.77563,-10.66666 10.66666,-10.66666c5.89103,0 10.66667,4.77563 10.66667,10.66666c0,5.89103 -4.77563,10.66666 -10.66667,10.66666c-5.89103,0 -10.66666,-4.77563 -10.66666,-10.66666z" fill="url(#color-44)" stroke="none" stroke-width="0" stroke-linecap="butt"/><path d="M189.65167,260.00001c0,-13.25483 10.74517,-24 24,-24c13.25483,0 24,10.74517 24,24c0,13.25483 -10.74517,24 -24,24c-13.25483,0 -24,-10.74517 -24,-24z" fill="url(#color-45)" stroke="none" stroke-width="0" stroke-linecap="butt"/><path d="M202.08804,260.00001c0,-6.38643 5.17722,-11.56364 11.56364,-11.56364c6.38643,0 11.56363,5.17721 11.56363,11.56364c0,6.38643 -5.17721,11.56364 -11.56363,11.56364c-6.38643,0 -11.56364,-5.17721 -11.56364,-11.56364z" fill="#00c4ff" stroke="none" stroke-width="0.5" stroke-linecap="butt"/><path d="M202.98501,260.00001c0,-5.89103 4.77563,-10.66667 10.66666,-10.66667c5.89103,0 10.66667,4.77563 10.66667,10.66667c0,5.89103 -4.77563,10.66666 -10.66667,10.66666c-5.89103,0 -10.66666,-4.77563 -10.66666,-10.66666z" fill="url(#color-46)" stroke="none" stroke-width="0" stroke-linecap="butt"/><path d="M364.32135,225.96097c0,-13.25483 10.74517,-24 24,-24c13.25483,0 24,10.74517 24,24c0,13.25483 -10.74517,24 -24,24c-13.25483,0 -24,-10.74517 -24,-24z" fill="url(#color-47)" stroke="none" stroke-width="0" stroke-linecap="butt"/><path d="M376.75771,225.96097c0,-6.38643 5.17722,-11.56364 11.56364,-11.56364c6.38643,0 11.56363,5.17721 11.56363,11.56364c0,6.38643 -5.17721,11.56364 -11.56363,11.56364c-6.38643,0 -11.56364,-5.17721 -11.56364,-11.56364z" fill="#00c4ff" stroke="none" stroke-width="0.5" stroke-linecap="butt"/><path d="M377.65468,225.96097c0,-5.89103 4.77563,-10.66666 10.66667,-10.66666c5.89103,0 10.66667,4.77563 10.66667,10.66666c0,5.89103 -4.77563,10.66667 -10.66667,10.66667c-5.89103,0 -10.66667,-4.77563 -10.66667,-10.66667z" fill="url(#color-48)" stroke="none" stroke-width="0" stroke-linecap="butt"/><path d="M22.47449,137.86788c0,-13.25483 10.74517,-24 24,-24c13.25483,0 24,10.74517 24,24c0,13.25483 -10.74517,24 -24,24c-13.25483,0 -24,-10.74517 -24,-24z" fill="url(#color-49)" stroke="none" stroke-width="0" stroke-linecap="butt"/><path d="M34.91087,137.86788c0,-6.38643 5.17722,-11.56364 11.56364,-11.56364c6.38643,0 11.56363,5.17721 11.56363,11.56364c0,6.38643 -5.17721,11.56364 -11.56363,11.56364c-6.38643,0 -11.56364,-5.17721 -11.56364,-11.56364z" fill="#00c4ff" stroke="none" stroke-width="0.5" stroke-linecap="butt"/><path d="M35.80784,137.86788c0,-5.89103 4.77563,-10.66666 10.66666,-10.66666c5.89103,0 10.66667,4.77563 10.66667,10.66666c0,5.89103 -4.77563,10.66666 -10.66667,10.66666c-5.89103,0 -10.66666,-4.77563 -10.66666,-10.66666z" fill="url(#color-50)" stroke="none" stroke-width="0" stroke-linecap="butt"/><path d="M245.19221,214.93995c0,-13.25483 10.74517,-24 24,-24c13.25483,0 24,10.74517 24,24c0,13.25483 -10.74517,24 -24,24c-13.25483,0 -24,-10.74517 -24,-24z" fill="url(#color-51)" stroke="none" stroke-width="0" stroke-linecap="butt"/><path d="M257.62856,214.93995c0,-6.38643 5.17722,-11.56364 11.56364,-11.56364c6.38643,0 11.56363,5.17721 11.56363,11.56364c0,6.38643 -5.17721,11.56364 -11.56363,11.56364c-6.38643,0 -11.56364,-5.17721 -11.56364,-11.56364z" fill="#38ff00" stroke="none" stroke-width="0.5" stroke-linecap="butt"/><path d="M258.52556,214.93995c0,-5.89103 4.77563,-10.66666 10.66666,-10.66666c5.89103,0 10.66666,4.77563 10.66666,10.66666c0,5.89103 -4.77563,10.66667 -10.66666,10.66667c-5.89103,0 -10.66666,-4.77563 -10.66666,-10.66667z" fill="url(#color-52)" stroke="none" stroke-width="0" stroke-linecap="butt"/><path d="M152.59461,131.35136c0,-13.25483 10.74517,-24 24,-24c13.25483,0 24,10.74517 24,24c0,13.25483 -10.74517,24 -24,24c-13.25483,0 -24,-10.74517 -24,-24z" fill="url(#color-53)" stroke="none" stroke-width="0" stroke-linecap="butt"/><path d="M165.03098,131.35136c0,-6.38643 5.17722,-11.56364 11.56364,-11.56364c6.38643,0 11.56363,5.17721 11.56363,11.56364c0,6.38643 -5.17721,11.56364 -11.56363,11.56364c-6.38643,0 -11.56364,-5.17721 -11.56364,-11.56364z" fill="#a6ff00" stroke="none" stroke-width="0.5" stroke-linecap="butt"/><path d="M165.92796,132.35136c0,-5.89103 4.77563,-10.66666 10.66666,-10.66666c5.89103,0 10.66667,4.77563 10.66667,10.66666c0,5.89103 -4.77563,10.66666 -10.66667,10.66666c-5.89103,0 -10.66666,-4.77563 -10.66666,-10.66666z" fill="url(#color-54)" stroke="none" stroke-width="0" stroke-linecap="butt"/><path d="M373.81084,143.85887c0,-13.25483 10.74517,-24 24,-24c13.25483,0 24,10.74517 24,24c0,13.25483 -10.74517,24 -24,24c-13.25483,0 -24,-10.74517 -24,-24z" fill="url(#color-55)" stroke="none" stroke-width="0" stroke-linecap="butt"/><path d="M386.24721,143.85887c0,-6.38643 5.17722,-11.56364 11.56364,-11.56364c6.38643,0 11.56363,5.17721 11.56363,11.56364c0,6.38643 -5.17721,11.56364 -11.56363,11.56364c-6.38643,0 -11.56364,-5.17721 -11.56364,-11.56364z" fill="#38ff00" stroke="none" stroke-width="0.5" stroke-linecap="butt"/><path d="M387.14416,143.85887c0,-5.89103 4.77563,-10.66666 10.66666,-10.66666c5.89103,0 10.66667,4.77563 10.66667,10.66666c0,5.89103 -4.77563,10.66666 -10.66667,10.66666c-5.89103,0 -10.66666,-4.77563 -10.66666,-10.66666z" fill="url(#color-56)" stroke="none" stroke-width="0" stroke-linecap="butt"/><path d="M13.94597,312.52252c0,-13.25483 10.74517,-24 24,-24c13.25483,0 24,10.74517 24,24c0,13.25483 -10.74517,24 -24,24c-13.25483,0 -24,-10.74517 -24,-24z" fill="url(#color-57)" stroke="none" stroke-width="0" stroke-linecap="butt"/><path d="M26.38234,312.52252c0,-6.38643 5.17722,-11.56364 11.56364,-11.56364c6.38643,0 11.56363,5.17721 11.56363,11.56364c0,6.38643 -5.17721,11.56364 -11.56363,11.56364c-6.38643,0 -11.56364,-5.17721 -11.56364,-11.56364z" fill="#38ff00" stroke="none" stroke-width="0.5" stroke-linecap="butt"/><path d="M27.2793,312.52252c0,-5.89103 4.77563,-10.66666 10.66666,-10.66666c5.89103,0 10.66667,4.77563 10.66667,10.66666c0,5.89103 -4.77563,10.66666 -10.66667,10.66666c-5.89103,0 -10.66666,-4.77563 -10.66666,-10.66666z" fill="url(#color-58)" stroke="none" stroke-width="0" stroke-linecap="butt"/><path d="M73.05183,274.00289c21.5539,-3.831 48.80065,-38.60909 82.95068,-66.03226c34.17281,-27.44147 75.2465,-47.52688 89.65468,-47.96203c45.90081,-1.38626 119.3878,22.3543 119.3878,22.3543" fill="none" stroke="url(#color-59)" stroke-width="50" stroke-linecap="round"/><path d="M364.70566,273.79053c0,0 71.12419,-0.57406 111.07306,13.31486c12.53988,4.35972 142.56084,33.74166 160.44201,43.05777" data-paper-data="{&quot;index&quot;:null}" fill="none" stroke="url(#color-60)" stroke-width="50" stroke-linecap="round"/><path d="M368.97615,263.07903c-1.48338,6.00594 -7.55468,9.6722 -13.56064,8.18881c-6.00596,-1.48339 -9.6722,-7.55467 -8.18882,-13.56063c1.48339,-6.00596 7.55468,-9.67222 13.56064,-8.18883c6.00596,1.48339 9.67222,7.5547 8.18883,13.56066z" data-paper-data="{&quot;index&quot;:null}" fill="url(#color-61)" stroke="none" stroke-width="0.5" stroke-linecap="butt"/><path d="M360.8488,263.05459c-2.36072,3.28995 -6.94147,4.04326 -10.23144,1.68257c-3.28997,-2.36069 -4.04329,-6.94147 -1.68258,-10.23144c2.36069,-3.28995 6.94147,-4.04329 10.23144,-1.68258c3.28995,2.36069 4.04328,6.94148 1.68258,10.23145z" data-paper-data="{&quot;index&quot;:null}" fill="#000000" stroke="none" stroke-width="0.5" stroke-linecap="butt"/><path d="M349.86209,295.35186c-5.89675,-1.4564 -9.49636,-7.41732 -8.03993,-13.31407c1.4564,-5.89674 7.41732,-9.49635 13.31407,-8.03993c5.89674,1.4564 9.49636,7.41732 8.03993,13.31407c-1.4564,5.89674 -7.41732,9.49635 -13.31407,8.03993z" data-paper-data="{&quot;index&quot;:null}" fill="url(#color-62)" stroke="none" stroke-width="0.5" stroke-linecap="butt"/><path d="M356.45359,284.65155c-0.97094,3.93115 -4.94488,6.33089 -8.87605,5.35995c-3.93116,-0.97095 -6.3309,-4.9449 -5.35996,-8.87607c0.97094,-3.93115 4.94489,-6.3309 8.87606,-5.35996c3.93115,0.97094 6.3309,4.94489 5.35995,8.87605z" data-paper-data="{&quot;index&quot;:null}" fill="#000000" stroke="none" stroke-width="0.5" stroke-linecap="butt"/><path d="M351.06861,269.78175c0,0 77.22411,-0.62329 120.59918,14.45681c13.61535,4.73362 158.80335,38.53194 178.21808,48.64703" data-paper-data="{&quot;index&quot;:null}" fill="none" stroke="none" stroke-width="50" stroke-linecap="round"/><path d="M-218.83612,241.16317c17.88117,-9.3161 147.90214,-38.69805 160.44202,-43.05777c39.94887,-13.88893 111.07306,-13.31486 111.07306,-13.31486" data-paper-data="{&quot;index&quot;:null}" fill="none" stroke="url(#color-63)" stroke-width="50" stroke-linecap="round"/><path d="M48.40846,174.07904c-1.48339,-6.00596 2.18287,-12.07727 8.18883,-13.56065c6.00596,-1.48339 12.07725,2.18287 13.56064,8.18883c1.48339,6.00596 -2.18286,12.07724 -8.18882,13.56063c-6.00596,1.48339 -12.07726,-2.18287 -13.56064,-8.18881z" data-paper-data="{&quot;index&quot;:null}" fill="url(#color-64)" stroke="none" stroke-width="0.5" stroke-linecap="butt"/><path d="M56.37484,173.53822c-0.97094,-3.93117 1.42881,-7.90512 5.35996,-8.87606c3.93117,-0.97093 7.90511,1.42881 8.87605,5.35996c0.97094,3.93117 -1.4288,7.90511 -5.35997,8.87605c-3.93117,0.97093 -7.9051,-1.42879 -8.87606,-5.35995z" data-paper-data="{&quot;index&quot;:null}" fill="#000000" stroke="none" stroke-width="0.5" stroke-linecap="butt"/><path d="M54.20845,198.31193c-1.45643,-5.89675 2.14319,-11.85767 8.03993,-13.31407c5.89675,-1.45641 11.85767,2.14319 13.31407,8.03993c1.45643,5.89675 -2.14318,11.85766 -8.03993,13.31407c-5.89675,1.45641 -11.85767,-2.14319 -13.31407,-8.03993z" data-paper-data="{&quot;index&quot;:null}" fill="url(#color-65)" stroke="none" stroke-width="0.5" stroke-linecap="butt"/><path d="M60.93102,196.65156c-0.97094,-3.93117 1.42881,-7.90512 5.35996,-8.87606c3.93117,-0.97093 7.90512,1.42881 8.87606,5.35996c0.97094,3.93117 -1.42879,7.90512 -5.35996,8.87607c-3.93117,0.97093 -7.90511,-1.42881 -8.87605,-5.35996z" data-paper-data="{&quot;index&quot;:null}" fill="#000000" stroke="none" stroke-width="0.5" stroke-linecap="butt"/><path d="M-232.50125,243.8856c19.41473,-10.11509 164.60272,-43.91341 178.21808,-48.64703c43.37507,-15.08011 120.59918,-14.45682 120.59918,-14.45682" data-paper-data="{&quot;index&quot;:null}" fill="none" stroke="none" stroke-width="50" stroke-linecap="round"/><path d="M86.50003,225.50001c0,-25.40509 20.59491,-46 46,-46c25.4051,0 46,20.59491 46,46c0,25.4051 -20.5949,46 -46,46c-25.40509,0 -46,-20.5949 -46,-46z" fill="url(#color-66)" stroke="none" stroke-width="0" stroke-linecap="butt"/><path d="M114.50003,203.50001c0,-25.40509 20.5949,-46 46,-46c25.4051,0 46,20.59491 46,46c0,25.4051 -20.5949,46 -46,46c-25.4051,0 -46,-20.5949 -46,-46z" fill="url(#color-67)" stroke="none" stroke-width="0" stroke-linecap="butt"/><path d="M154.50001,177.50001c0,-25.40509 20.5949,-46 46,-46c25.4051,0 46,20.59491 46,46c0,25.4051 -20.5949,46 -46,46c-25.4051,0 -46,-20.5949 -46,-46z" fill="url(#color-68)" stroke="none" stroke-width="0" stroke-linecap="butt"/><path d="M198.50004,164.5c0,-25.40509 20.5949,-46 46,-46c25.4051,0 46,20.59491 46,46c0,25.4051 -20.5949,46 -46,46c-25.4051,0 -46,-20.5949 -46,-46z" fill="url(#color-69)" stroke="none" stroke-width="0" stroke-linecap="butt"/><path d="M65.50002,250.50001c0,-25.40509 20.5949,-46 46,-46c25.4051,0 46,20.59491 46,46c0,25.4051 -20.5949,46 -46,46c-25.4051,0 -46,-20.5949 -46,-46z" fill="url(#color-70)" stroke="none" stroke-width="0" stroke-linecap="butt"/><path d="M-109.5,385v-437h312v437z" fill="url(#color-71)" stroke="none" stroke-width="0" stroke-linecap="butt"/><path d="M35.50001,264.50001c0,-25.40509 20.5949,-46 46,-46c25.4051,0 46,20.59491 46,46c0,25.4051 -20.5949,46 -46,46c-25.4051,0 -46,-20.5949 -46,-46z" fill="url(#color-72)" stroke="none" stroke-width="0" stroke-linecap="butt"/><path d="M418.13457,243.03441l-9.54483,-49.36641l40.59463,23.84392l-12.97247,7.57445l12.54867,13.54711l-6.44853,7.82406l-15.05463,-15.85285z" fill="#ffffff" stroke="#000000" stroke-width="5" stroke-linecap="round"/><g stroke-linecap="butt"><path d="M4.09683,336.50001c0,-10.71608 8.68709,-19.40317 19.40317,-19.40317c10.71608,0 19.40317,8.68709 19.40317,19.40317c0,10.71608 -8.68709,19.40317 -19.40317,19.40317c-10.71608,0 -19.40317,-8.68709 -19.40317,-19.40317z" fill="#ff0000" stroke="#820000" stroke-width="4"/><path d="M10.53497,343.07912c0,-2.58478 2.09538,-4.68016 4.68016,-4.68016c2.58478,0 4.68016,2.09538 4.68016,4.68016c0,2.58478 -2.09538,4.68016 -4.68016,4.68016c-2.58478,0 -4.68016,-2.09538 -4.68016,-4.68016z" fill="#000000" stroke="none" stroke-width="0.5"/><path d="M26.54864,343.20067c0,-2.58478 2.09538,-4.68017 4.68016,-4.68017c2.58478,0 4.68016,2.09539 4.68016,4.68017c0,2.58478 -2.09538,4.68016 -4.68016,4.68016c-2.58478,0 -4.68016,-2.09538 -4.68016,-4.68016z" fill="#000000" stroke="none" stroke-width="0.5"/></g><path d="M466.50001,368v-437h312v437z" data-paper-data="{&quot;index&quot;:null}" fill="url(#color-73)" stroke="none" stroke-width="0" stroke-linecap="butt"/><path d="M-287.61236,18.50433l328.31196,-288.40988l205.91278,234.40121l-328.31196,288.40988z" fill="url(#color-74)" stroke="none" stroke-width="0" stroke-linecap="butt"/><path d="M728.07541,314.81384l-328.31195,288.40988l-205.91278,-234.40121l328.31195,-288.40988z" data-paper-data="{&quot;index&quot;:null}" fill="url(#color-75)" stroke="none" stroke-width="0" stroke-linecap="butt"/><text transform="translate(63.78852,100.76875) scale(1.10672,1.10672)" font-size="40" xml:space="preserve" fill="#ffffff" fill-rule="nonzero" stroke="none" stroke-width="1" stroke-linecap="butt" stroke-linejoin="miter" stroke-miterlimit="10" stroke-dasharray="" stroke-dashoffset="0" font-family="Sans Serif" font-weight="normal" text-anchor="start" style="mix-blend-mode: normal"><tspan x="0" dy="0">Your score was...</tspan></text><text transform="translate(140.46004,244.76875) scale(0.5,0.5)" font-size="40" xml:space="preserve" fill="#ffffff" fill-rule="nonzero" stroke="none" stroke-width="1" stroke-linecap="butt" stroke-linejoin="miter" stroke-miterlimit="10" stroke-dasharray="" stroke-dashoffset="0" font-family="Sans Serif" font-weight="normal" text-anchor="start" style="mix-blend-mode: normal"><tspan x="0" dy="0">your max record is...</tspan></text></g></g></svg>