<svg version="1.1" xmlns="http://www.w3.org/2000/svg" xmlns:xlink="http://www.w3.org/1999/xlink" width="325.92866" height="77.63936" viewBox="0,0,325.92866,77.63936"><defs><linearGradient x1="85.57136" y1="210.97952" x2="354.50001" y2="210.97952" gradientUnits="userSpaceOnUse" id="color-1"><stop offset="0" stop-color="#00caff"/><stop offset="1" stop-color="#0067ff"/></linearGradient><radialGradient cx="364.81616" cy="168.298" r="11.2015" gradientUnits="userSpaceOnUse" id="color-2"><stop offset="0" stop-color="#cfcfcf"/><stop offset="1" stop-color="#ffffff"/></radialGradient><radialGradient cx="362.88306" cy="193.14253" r="10.99785" gradientUnits="userSpaceOnUse" id="color-3"><stop offset="0" stop-color="#cfcfcf"/><stop offset="1" stop-color="#ffffff"/></radialGradient></defs><g transform="translate(-53.57136,-126.50138)"><g data-paper-data="{&quot;isPaintingLayer&quot;:true}" fill-rule="nonzero" stroke-linejoin="miter" stroke-miterlimit="10" stroke-dasharray="" stroke-dashoffset="0" style="mix-blend-mode: normal"><path d="M78.57136,151.50138c19.85136,-3.52839 152.70121,7.41088 165.97129,7.0101c42.27511,-1.27676 109.95737,20.58854 109.95737,20.58854" fill="none" stroke="url(#color-1)" stroke-width="50" stroke-linecap="round"/><path d="M353.63636,167.601c0.38494,-6.17445 5.70236,-10.86777 11.87681,-10.48283c6.17445,0.38494 10.86775,5.70236 10.48281,11.87681c-0.38494,6.17445 -5.70234,10.86775 -11.87679,10.48281c-6.17445,-0.38494 -10.86776,-5.70236 -10.48282,-11.87679z" fill="url(#color-2)" stroke="none" stroke-width="0.5" stroke-linecap="butt"/><path d="M361.39859,169.47276c0.25196,-4.04145 3.73248,-7.11344 7.77391,-6.86148c4.04145,0.25197 7.11343,3.73248 6.86147,7.77391c-0.25196,4.04145 -3.73246,7.11344 -7.77391,6.86147c-4.04145,-0.25197 -7.11343,-3.73245 -6.86149,-7.7739z" fill="#000000" stroke="none" stroke-width="0.5" stroke-linecap="butt"/><path d="M351.90651,192.45821c0.37793,-6.06218 5.59869,-10.67016 11.66085,-10.29221c6.06218,0.37794 10.67016,5.59869 10.29221,11.66085c-0.37793,6.06218 -5.59868,10.67016 -11.66085,10.29221c-6.06218,-0.37794 -10.67016,-5.59869 -10.29221,-11.66085z" fill="url(#color-3)" stroke="none" stroke-width="0.5" stroke-linecap="butt"/><path d="M358.81768,192.88908c0.25196,-4.04145 3.73247,-7.11344 7.7739,-6.86148c4.04145,0.25197 7.11344,3.73248 6.86148,7.77391c-0.25196,4.04145 -3.73246,7.11344 -7.77391,6.86149c-4.04145,-0.25197 -7.11343,-3.73247 -6.86147,-7.7739z" fill="#000000" stroke="none" stroke-width="0.5" stroke-linecap="butt"/><path d="M64.71849,150.00288c21.5539,-3.831 170.19718,7.44086 184.60536,7.00571c45.90081,-1.38626 119.3878,22.3543 119.3878,22.3543" fill="none" stroke="none" stroke-width="50" stroke-linecap="round"/></g></g></svg>