<svg version="1.1" xmlns="http://www.w3.org/2000/svg" xmlns:xlink="http://www.w3.org/1999/xlink" width="145" height="103.87065" viewBox="0,0,145,103.87065"><g transform="translate(-20.5,-69.42936)"><g data-paper-data="{&quot;isPaintingLayer&quot;:true}" fill-rule="nonzero" stroke-linejoin="miter" stroke-miterlimit="10" stroke-dasharray="" stroke-dashoffset="0" style="mix-blend-mode: normal"><path d="M20.5,173.3v-100.18182h145v100.18182z" fill="#757575" stroke="none" stroke-width="0" stroke-linecap="butt"/><text transform="translate(32.01083,90.07413) scale(0.48123,0.48123)" font-size="40" xml:space="preserve" fill="#ffffff" fill-rule="nonzero" stroke="none" stroke-width="1" stroke-linecap="butt" stroke-linejoin="miter" stroke-miterlimit="10" stroke-dasharray="" stroke-dashoffset="0" font-family="Sans Serif" font-weight="normal" text-anchor="start" style="mix-blend-mode: normal"><tspan x="0" dy="0">Timed</tspan></text><path d="M30.5,173.30001v-73h116v73z" fill="#000000" stroke="none" stroke-width="0" stroke-linecap="butt"/><path d="M117.5,134.30001c0,0 -12.29683,8.84452 -20.1467,10.022c-11.0406,1.6561 -39.8533,-1.022 -39.8533,-1.022" fill="none" stroke="#e70000" stroke-width="10" stroke-linecap="round"/><path d="M46.5,128.30001c0,-8.83656 7.16344,-16 16,-16c8.83656,0 16,7.16344 16,16c0,8.83656 -7.16344,16 -16,16c-8.83656,0 -16,-7.16344 -16,-16z" fill="#c1bb00" stroke="#808080" stroke-width="1" stroke-linecap="butt"/><path d="M71.76315,124.08948l-10.10526,6.73684v-18.52632" fill="none" stroke="#000000" stroke-width="1" stroke-linecap="round"/><path d="M95,113.3c0,-1.38071 1.11929,-2.5 2.5,-2.5c1.38071,0 2.5,1.11929 2.5,2.5c0,1.38071 -1.11929,2.5 -2.5,2.5c-1.38071,0 -2.5,-1.11929 -2.5,-2.5z" fill="#ff0000" stroke="none" stroke-width="0.5" stroke-linecap="butt"/><path d="M125,163.30001c0,-1.38071 1.11929,-2.5 2.5,-2.5c1.38071,0 2.5,1.11929 2.5,2.5c0,1.38071 -1.11929,2.5 -2.5,2.5c-1.38071,0 -2.5,-1.11929 -2.5,-2.5z" fill="#ff0000" stroke="none" stroke-width="0.5" stroke-linecap="butt"/><path d="M43,157.30001c0,-1.38071 1.11929,-2.5 2.5,-2.5c1.38071,0 2.5,1.11929 2.5,2.5c0,1.38071 -1.11929,2.5 -2.5,2.5c-1.38071,0 -2.5,-1.11929 -2.5,-2.5z" fill="#ff0000" stroke="none" stroke-width="0.5" stroke-linecap="butt"/><path d="M122,115.3c0,-1.38071 1.11929,-2.5 2.5,-2.5c1.38071,0 2.5,1.11929 2.5,2.5c0,1.38071 -1.11929,2.5 -2.5,2.5c-1.38071,0 -2.5,-1.11929 -2.5,-2.5z" fill="#00ffb2" stroke="none" stroke-width="0.5" stroke-linecap="butt"/><path d="M36,106.3c0,-1.38071 1.11929,-2.5 2.5,-2.5c1.38071,0 2.5,1.11929 2.5,2.5c0,1.38071 -1.11929,2.5 -2.5,2.5c-1.38071,0 -2.5,-1.11929 -2.5,-2.5z" fill="#00ffb2" stroke="none" stroke-width="0.5" stroke-linecap="butt"/><path d="M90,168.30001c0,-1.38071 1.11929,-2.5 2.5,-2.5c1.38071,0 2.5,1.11929 2.5,2.5c0,1.38071 -1.11929,2.5 -2.5,2.5c-1.38071,0 -2.5,-1.11929 -2.5,-2.5z" fill="#00ffb2" stroke="none" stroke-width="0.5" stroke-linecap="butt"/></g></g></svg>