<svg version="1.1" xmlns="http://www.w3.org/2000/svg" xmlns:xlink="http://www.w3.org/1999/xlink" width="145" height="104.87065" viewBox="0,0,145,104.87065"><g transform="translate(-302.5,-74.42937)"><g data-paper-data="{&quot;isPaintingLayer&quot;:true}" fill-rule="nonzero" stroke-linejoin="miter" stroke-miterlimit="10" stroke-dasharray="" stroke-dashoffset="0" style="mix-blend-mode: normal"><path d="M302.5,179.3v-102.18182h145v102.18182z" fill="#757575" stroke="none" stroke-width="0" stroke-linecap="butt"/><text transform="translate(356.01083,95.07414) scale(0.48123,0.48123)" font-size="40" xml:space="preserve" fill="#ffffff" fill-rule="nonzero" stroke="none" stroke-width="1" stroke-linecap="butt" stroke-linejoin="miter" stroke-miterlimit="10" stroke-dasharray="" stroke-dashoffset="0" font-family="Sans Serif" font-weight="normal" text-anchor="start" style="mix-blend-mode: normal"><tspan x="0" dy="0">Freeplay</tspan></text><path d="M319.5,179.30002v-73h116v73z" fill="#000000" stroke="none" stroke-width="0" stroke-linecap="butt"/><path d="M338.5,136.8625c0,0 28.8127,-2.6781 39.8533,-1.022c7.84987,1.17748 20.1467,10.022 20.1467,10.022" data-paper-data="{&quot;index&quot;:null}" fill="none" stroke="#e70000" stroke-width="10" stroke-linecap="round"/><path d="M367,153.30001c0,-1.38071 1.11929,-2.5 2.5,-2.5c1.38071,0 2.5,1.11929 2.5,2.5c0,1.38071 -1.11929,2.5 -2.5,2.5c-1.38071,0 -2.5,-1.11929 -2.5,-2.5z" fill="#007aff" stroke="none" stroke-width="0.5" stroke-linecap="butt"/><path d="M414,169.30002c0,-1.38071 1.11929,-2.5 2.5,-2.5c1.38071,0 2.5,1.11929 2.5,2.5c0,1.38071 -1.11929,2.5 -2.5,2.5c-1.38071,0 -2.5,-1.11929 -2.5,-2.5z" fill="#ff0000" stroke="none" stroke-width="0.5" stroke-linecap="butt"/><path d="M332,163.30002c0,-1.38071 1.11929,-2.5 2.5,-2.5c1.38071,0 2.5,1.11929 2.5,2.5c0,1.38071 -1.11929,2.5 -2.5,2.5c-1.38071,0 -2.5,-1.11929 -2.5,-2.5z" fill="#ff0000" stroke="none" stroke-width="0.5" stroke-linecap="butt"/><path d="M411,121.30001c0,-1.38071 1.11929,-2.5 2.5,-2.5c1.38071,0 2.5,1.11929 2.5,2.5c0,1.38071 -1.11929,2.5 -2.5,2.5c-1.38071,0 -2.5,-1.11929 -2.5,-2.5z" fill="#00ffb2" stroke="none" stroke-width="0.5" stroke-linecap="butt"/><path d="M325,112.30001c0,-1.38071 1.11929,-2.5 2.5,-2.5c1.38071,0 2.5,1.11929 2.5,2.5c0,1.38071 -1.11929,2.5 -2.5,2.5c-1.38071,0 -2.5,-1.11929 -2.5,-2.5z" fill="#00ffb2" stroke="none" stroke-width="0.5" stroke-linecap="butt"/><path d="M415,147.30002c0,-1.38071 1.11929,-2.5 2.5,-2.5c1.38071,0 2.5,1.11929 2.5,2.5c0,1.38071 -1.11929,2.5 -2.5,2.5c-1.38071,0 -2.5,-1.11929 -2.5,-2.5z" fill="#c700ff" stroke="none" stroke-width="0.5" stroke-linecap="butt"/></g></g></svg>