<svg version="1.1" xmlns="http://www.w3.org/2000/svg" xmlns:xlink="http://www.w3.org/1999/xlink" width="95" height="95" viewBox="0,0,95,95"><g transform="translate(-192.5,-132.5)"><g data-paper-data="{&quot;isPaintingLayer&quot;:true}" fill-rule="nonzero" stroke-linecap="butt" stroke-linejoin="miter" stroke-miterlimit="10" stroke-dasharray="" stroke-dashoffset="0" style="mix-blend-mode: normal"><path d="M192.5,180c0,-26.23352 21.26648,-47.5 47.5,-47.5c26.23352,0 47.5,21.26648 47.5,47.5c0,26.23352 -21.26648,47.5 -47.5,47.5c-26.23352,0 -47.5,-21.26648 -47.5,-47.5z" fill="#b5b5b5" stroke="none" stroke-width="0"/><path d="M198.99645,180c0,-22.64564 18.35792,-41.00355 41.00355,-41.00355c22.64564,0 41.00355,18.35792 41.00355,41.00355c0,22.64564 -18.35792,41.00355 -41.00355,41.00355c-22.64564,0 -41.00355,-18.35792 -41.00355,-41.00355z" fill="#3f3f3f" stroke="none" stroke-width="0"/><text transform="translate(206.61001,185.76875) scale(0.5,0.5)" font-size="40" xml:space="preserve" fill="#ffffff" fill-rule="nonzero" stroke="#ffffff" stroke-width="6" stroke-linecap="butt" stroke-linejoin="miter" stroke-miterlimit="10" stroke-dasharray="" stroke-dashoffset="0" font-family="Sans Serif" font-weight="normal" text-anchor="start" style="mix-blend-mode: normal"><tspan x="0" dy="0">BOOST</tspan></text><text transform="translate(206.61001,186) scale(0.5,0.5)" font-size="40" xml:space="preserve" fill="#ffffff" fill-rule="nonzero" stroke="#000000" stroke-width="4" stroke-linecap="butt" stroke-linejoin="miter" stroke-miterlimit="10" stroke-dasharray="" stroke-dashoffset="0" font-family="Sans Serif" font-weight="normal" text-anchor="start" style="mix-blend-mode: normal"><tspan x="0" dy="0">BOOST</tspan></text></g></g></svg>