<svg version="1.1" xmlns="http://www.w3.org/2000/svg" xmlns:xlink="http://www.w3.org/1999/xlink" width="33.00384" height="33.00385" viewBox="0,0,33.00384,33.00385"><defs><radialGradient cx="249.1775" cy="178.19286" r="16.5" gradientUnits="userSpaceOnUse" id="color-1"><stop offset="0" stop-color="#808080"/><stop offset="1" stop-color="#808080" stop-opacity="0"/></radialGradient><radialGradient cx="230.66995" cy="180.6645" r="16.5" gradientUnits="userSpaceOnUse" id="color-2"><stop offset="0" stop-color="#808080"/><stop offset="1" stop-color="#808080" stop-opacity="0"/></radialGradient><radialGradient cx="239.7942" cy="179.6982" r="16.5" gradientUnits="userSpaceOnUse" id="color-3"><stop offset="0" stop-color="#808080"/><stop offset="1" stop-color="#808080" stop-opacity="0"/></radialGradient></defs><g transform="translate(-223.49808,-163.49808)"><g data-paper-data="{&quot;isPaintingLayer&quot;:true}" fill-rule="nonzero" stroke="none" stroke-width="0.5" stroke-linecap="butt" stroke-linejoin="miter" stroke-miterlimit="10" stroke-dasharray="" stroke-dashoffset="0" style="mix-blend-mode: normal"><path d="M237.81586,163.64521c9.03251,-1.20627 17.33268,5.13815 18.53895,14.17066c1.20627,9.03251 -5.13815,17.33268 -14.17066,18.53895c-9.03251,1.20627 -17.33268,-5.13815 -18.53895,-14.17066c-1.20627,-9.03251 5.13815,-17.33268 14.17066,-18.53895z" fill="#d2d2d2"/><path d="M237.81586,163.6452c9.03251,-1.20627 17.33268,5.13815 18.53895,14.17066c1.20627,9.03251 -5.13815,17.33268 -14.17066,18.53895c-9.03251,1.20627 -17.33268,-5.13815 -18.53895,-14.17066c-1.20627,-9.03251 5.13815,-17.33268 14.17066,-18.53895z" fill="url(#color-1)"/><path d="M256.35481,177.81586c1.20627,9.03251 -5.13815,17.33268 -14.17066,18.53895c-9.03251,1.20627 -17.33268,-5.13815 -18.53895,-14.17066c-1.20627,-9.03251 5.13815,-17.33268 14.17066,-18.53895c9.03251,-1.20627 17.33268,5.13815 18.53895,14.17066z" data-paper-data="{&quot;index&quot;:null}" fill="url(#color-2)"/><path d="M256.35481,177.81586c1.20627,9.03251 -5.13815,17.33268 -14.17066,18.53895c-9.03251,1.20627 -17.33268,-5.13815 -18.53895,-14.17066c-1.20627,-9.03251 5.13815,-17.33268 14.17066,-18.53895c9.03251,-1.20627 17.33268,5.13815 18.53895,14.17066z" data-paper-data="{&quot;index&quot;:null}" fill="url(#color-3)"/></g></g></svg>