<svg version="1.1" xmlns="http://www.w3.org/2000/svg" xmlns:xlink="http://www.w3.org/1999/xlink" width="51.25" height="51.25" viewBox="0,0,51.25,51.25"><defs><linearGradient x1="210.12462" y1="172.0181" x2="259.37462" y2="172.0181" gradientUnits="userSpaceOnUse" id="color-1"><stop offset="0" stop-color="#848484"/><stop offset="1" stop-color="#ffffff"/></linearGradient></defs><g transform="translate(-209.12462,-146.3931)"><g data-paper-data="{&quot;isPaintingLayer&quot;:true}" fill-rule="nonzero" stroke-linejoin="miter" stroke-miterlimit="10" stroke-dasharray="" stroke-dashoffset="0" style="mix-blend-mode: normal"><path d="M210.12462,172.0181c0,-13.60001 11.02499,-24.625 24.625,-24.625c13.60001,0 24.625,11.02499 24.625,24.625c0,13.60001 -11.02499,24.625 -24.625,24.625c-13.60001,0 -24.625,-11.02499 -24.625,-24.625z" fill="url(#color-1)" stroke="#000000" stroke-width="2" stroke-linecap="butt"/><path d="M214.12462,180.74309v-16.5h9.5v16.5z" fill="#000000" stroke="none" stroke-width="0" stroke-linecap="butt"/><path d="M222.99962,181.16809c0,-5.70711 0,-13.61161 0,-17c0,-3.10738 11.75,-7.25 11.75,-7.25v30.75c0,0 -11.75,-2.78427 -11.75,-6.5z" fill="#000000" stroke="none" stroke-width="0" stroke-linecap="butt"/><path d="M237.91368,161.66809c0,0 2.41188,6.20088 2.38578,9.50163c-0.0284,3.59136 -2.54984,11.24837 -2.54984,11.24837" fill="none" stroke="#000000" stroke-width="3.5" stroke-linecap="round"/><path d="M242.67143,158.41809c0,0 2.41188,8.29274 2.38578,12.70701c-0.0284,4.8029 -2.54984,15.04299 -2.54984,15.04299" fill="none" stroke="#000000" stroke-width="3.5" stroke-linecap="round"/><path d="M246.71443,155.41809c0,0 3.96358,10.01106 3.92069,15.33999c-0.04666,5.7981 -4.1903,18.16001 -4.1903,18.16001" fill="none" stroke="#000000" stroke-width="3.5" stroke-linecap="round"/></g></g></svg>