<svg version="1.1" xmlns="http://www.w3.org/2000/svg" xmlns:xlink="http://www.w3.org/1999/xlink" width="31.99704" height="31.99704" viewBox="0,0,31.99704,31.99704"><defs><radialGradient cx="240" cy="180" r="15.99852" gradientUnits="userSpaceOnUse" id="color-1"><stop offset="0" stop-color="#ff0000"/><stop offset="1" stop-color="#ff0000" stop-opacity="0"/></radialGradient><radialGradient cx="240" cy="180" r="8.9375" gradientUnits="userSpaceOnUse" id="color-2"><stop offset="0" stop-color="#ffbfbf"/><stop offset="1" stop-color="#ffbfbf" stop-opacity="0"/></radialGradient></defs><g transform="translate(-224.00148,-164.00148)"><g data-paper-data="{&quot;isPaintingLayer&quot;:true}" fill-rule="nonzero" stroke="none" stroke-linecap="butt" stroke-linejoin="miter" stroke-miterlimit="10" stroke-dasharray="" stroke-dashoffset="0" style="mix-blend-mode: normal"><path d="M224.00148,180c0,-8.83574 7.16278,-15.99852 15.99852,-15.99852c8.83574,0 15.99852,7.16278 15.99852,15.99852c0,8.83574 -7.16278,15.99852 -15.99852,15.99852c-8.83574,0 -15.99852,-7.16278 -15.99852,-15.99852z" fill="url(#color-1)" stroke-width="0"/><path d="M230.89773,180c0,-5.02705 4.07522,-9.10227 9.10227,-9.10227c5.02705,0 9.10227,4.07522 9.10227,9.10227c0,5.02705 -4.07522,9.10227 -9.10227,9.10227c-5.02705,0 -9.10227,-4.07522 -9.10227,-9.10227z" fill="#ff0000" stroke-width="0.5"/><path d="M231.0625,180c0,-4.93604 4.00146,-8.9375 8.9375,-8.9375c4.93604,0 8.9375,4.00146 8.9375,8.9375c0,4.93604 -4.00146,8.9375 -8.9375,8.9375c-4.93604,0 -8.9375,-4.00146 -8.9375,-8.9375z" fill="url(#color-2)" stroke-width="0"/></g></g></svg>