<svg version="1.1" xmlns="http://www.w3.org/2000/svg" xmlns:xlink="http://www.w3.org/1999/xlink" width="145" height="102.87065" viewBox="0,0,145,102.87065"><g transform="translate(-303.5,-219.42938)"><g data-paper-data="{&quot;isPaintingLayer&quot;:true}" fill-rule="nonzero" stroke-linejoin="miter" stroke-miterlimit="10" stroke-dasharray="" stroke-dashoffset="0" style="mix-blend-mode: normal"><path d="M303.5,322.29999v-100.18182h145v100.18182z" fill="#757575" stroke="none" stroke-width="0" stroke-linecap="butt"/><text transform="translate(343.01083,240.07415) scale(0.48123,0.48123)" font-size="40" xml:space="preserve" fill="#ffffff" fill-rule="nonzero" stroke="none" stroke-width="1" stroke-linecap="butt" stroke-linejoin="miter" stroke-miterlimit="10" stroke-dasharray="" stroke-dashoffset="0" font-family="Sans Serif" font-weight="normal" text-anchor="start" style="mix-blend-mode: normal"><tspan x="0" dy="0">Computer</tspan></text><path d="M321.5,322.30003v-73h116v73z" fill="#333333" stroke="none" stroke-width="0" stroke-linecap="butt"/><path d="M400.5,299.86249c0,0 -29.29683,11.15548 -37.1467,9.978c-11.0406,-1.6561 -22.8533,-18.978 -22.8533,-18.978" data-paper-data="{&quot;index&quot;:null}" fill="none" stroke="#9c1818" stroke-width="10" stroke-linecap="round"/><path d="M351,272.30001c0,-1.38071 1.11929,-2.5 2.5,-2.5c1.38071,0 2.5,1.11929 2.5,2.5c0,1.38071 -1.11929,2.5 -2.5,2.5c-1.38071,0 -2.5,-1.11929 -2.5,-2.5z" fill="#007aff" stroke="none" stroke-width="0.5" stroke-linecap="butt"/><path d="M415,316.30003c0,-1.38071 1.11929,-2.5 2.5,-2.5c1.38071,0 2.5,1.11929 2.5,2.5c0,1.38071 -1.11929,2.5 -2.5,2.5c-1.38071,0 -2.5,-1.11929 -2.5,-2.5z" fill="#ff0000" stroke="none" stroke-width="0.5" stroke-linecap="butt"/><path d="M333,310.30003c0,-1.38071 1.11929,-2.5 2.5,-2.5c1.38071,0 2.5,1.11929 2.5,2.5c0,1.38071 -1.11929,2.5 -2.5,2.5c-1.38071,0 -2.5,-1.11929 -2.5,-2.5z" fill="#ff0000" stroke="none" stroke-width="0.5" stroke-linecap="butt"/><path d="M412,268.30001c0,-1.38071 1.11929,-2.5 2.5,-2.5c1.38071,0 2.5,1.11929 2.5,2.5c0,1.38071 -1.11929,2.5 -2.5,2.5c-1.38071,0 -2.5,-1.11929 -2.5,-2.5z" fill="#00ffb2" stroke="none" stroke-width="0.5" stroke-linecap="butt"/><path d="M326,259.30001c0,-1.38071 1.11929,-2.5 2.5,-2.5c1.38071,0 2.5,1.11929 2.5,2.5c0,1.38071 -1.11929,2.5 -2.5,2.5c-1.38071,0 -2.5,-1.11929 -2.5,-2.5z" fill="#00ffb2" stroke="none" stroke-width="0.5" stroke-linecap="butt"/><path d="M392,312.30003c0,-1.38071 1.11929,-2.5 2.5,-2.5c1.38071,0 2.5,1.11929 2.5,2.5c0,1.38071 -1.11929,2.5 -2.5,2.5c-1.38071,0 -2.5,-1.11929 -2.5,-2.5z" fill="#c700ff" stroke="none" stroke-width="0.5" stroke-linecap="butt"/><path d="M376.15168,268.08353c0,0 12.65923,-4.00095 23.02606,0.14229c7.37082,2.94584 21.31234,17.37403 21.31234,17.37403" data-paper-data="{&quot;index&quot;:null}" fill="none" stroke="#3c3fe8" stroke-width="10" stroke-linecap="round"/><text transform="translate(317.5,292.3) scale(0.5,0.5)" font-size="40" xml:space="preserve" fill="#ffffff" fill-rule="nonzero" stroke="none" stroke-width="1" stroke-linecap="butt" stroke-linejoin="miter" stroke-miterlimit="10" stroke-dasharray="" stroke-dashoffset="0" font-family="Sans Serif" font-weight="normal" text-anchor="start" style="mix-blend-mode: normal"><tspan x="0" dy="0">Coming soon</tspan></text></g></g></svg>