<svg version="1.1" xmlns="http://www.w3.org/2000/svg" xmlns:xlink="http://www.w3.org/1999/xlink" width="868.05685" height="467.00854" viewBox="0,0,868.05685,467.00854"><defs><linearGradient x1="153" y1="112.30001" x2="153" y2="204.30001" gradientUnits="userSpaceOnUse" id="color-1"><stop offset="0" stop-color="#272727"/><stop offset="1" stop-color="#101010"/></linearGradient><linearGradient x1="237.00001" y1="66.30001" x2="237.00001" y2="158.30001" gradientUnits="userSpaceOnUse" id="color-2"><stop offset="0" stop-color="#272727"/><stop offset="1" stop-color="#101010"/></linearGradient><linearGradient x1="238.00001" y1="158.3" x2="238.00001" y2="250.3" gradientUnits="userSpaceOnUse" id="color-3"><stop offset="0" stop-color="#272727"/><stop offset="1" stop-color="#101010"/></linearGradient><linearGradient x1="321.00001" y1="113.30001" x2="321.00001" y2="205.30001" gradientUnits="userSpaceOnUse" id="color-4"><stop offset="0" stop-color="#272727"/><stop offset="1" stop-color="#101010"/></linearGradient><linearGradient x1="405.00003" y1="67.30001" x2="405.00003" y2="159.30001" gradientUnits="userSpaceOnUse" id="color-5"><stop offset="0" stop-color="#272727"/><stop offset="1" stop-color="#101010"/></linearGradient><linearGradient x1="406.00003" y1="159.3" x2="406.00003" y2="251.3" gradientUnits="userSpaceOnUse" id="color-6"><stop offset="0" stop-color="#272727"/><stop offset="1" stop-color="#101010"/></linearGradient><linearGradient x1="70.00002" y1="249.30001" x2="70.00002" y2="341.30001" gradientUnits="userSpaceOnUse" id="color-7"><stop offset="0" stop-color="#272727"/><stop offset="1" stop-color="#101010"/></linearGradient><linearGradient x1="154" y1="203.30001" x2="154" y2="295.30001" gradientUnits="userSpaceOnUse" id="color-8"><stop offset="0" stop-color="#272727"/><stop offset="1" stop-color="#101010"/></linearGradient><linearGradient x1="155" y1="295.30001" x2="155" y2="387.30001" gradientUnits="userSpaceOnUse" id="color-9"><stop offset="0" stop-color="#272727"/><stop offset="1" stop-color="#101010"/></linearGradient><linearGradient x1="238.00001" y1="251.30001" x2="238.00001" y2="343.30001" gradientUnits="userSpaceOnUse" id="color-10"><stop offset="0" stop-color="#272727"/><stop offset="1" stop-color="#101010"/></linearGradient><linearGradient x1="322.00001" y1="205.30001" x2="322.00001" y2="297.30001" gradientUnits="userSpaceOnUse" id="color-11"><stop offset="0" stop-color="#272727"/><stop offset="1" stop-color="#101010"/></linearGradient><linearGradient x1="323.00001" y1="297.30001" x2="323.00001" y2="389.30001" gradientUnits="userSpaceOnUse" id="color-12"><stop offset="0" stop-color="#272727"/><stop offset="1" stop-color="#101010"/></linearGradient><linearGradient x1="-16.99997" y1="112.30001" x2="-16.99997" y2="204.30001" gradientUnits="userSpaceOnUse" id="color-13"><stop offset="0" stop-color="#272727"/><stop offset="1" stop-color="#101010"/></linearGradient><linearGradient x1="67.00002" y1="66.30001" x2="67.00002" y2="158.30001" gradientUnits="userSpaceOnUse" id="color-14"><stop offset="0" stop-color="#272727"/><stop offset="1" stop-color="#101010"/></linearGradient><linearGradient x1="68.00002" y1="158.3" x2="68.00002" y2="250.3" gradientUnits="userSpaceOnUse" id="color-15"><stop offset="0" stop-color="#272727"/><stop offset="1" stop-color="#101010"/></linearGradient><linearGradient x1="66.00002" y1="-25.69999" x2="66.00002" y2="66.30001" gradientUnits="userSpaceOnUse" id="color-16"><stop offset="0" stop-color="#272727"/><stop offset="1" stop-color="#101010"/></linearGradient><linearGradient x1="150" y1="-71.69999" x2="150" y2="20.3" gradientUnits="userSpaceOnUse" id="color-17"><stop offset="0" stop-color="#272727"/><stop offset="1" stop-color="#101010"/></linearGradient><linearGradient x1="151" y1="20.3" x2="151" y2="112.30001" gradientUnits="userSpaceOnUse" id="color-18"><stop offset="0" stop-color="#272727"/><stop offset="1" stop-color="#101010"/></linearGradient><linearGradient x1="235.00001" y1="-25.69999" x2="235.00001" y2="66.30001" gradientUnits="userSpaceOnUse" id="color-19"><stop offset="0" stop-color="#272727"/><stop offset="1" stop-color="#101010"/></linearGradient><linearGradient x1="319.00001" y1="-71.69999" x2="319.00001" y2="20.3" gradientUnits="userSpaceOnUse" id="color-20"><stop offset="0" stop-color="#272727"/><stop offset="1" stop-color="#101010"/></linearGradient><linearGradient x1="320.00001" y1="20.3" x2="320.00001" y2="112.30001" gradientUnits="userSpaceOnUse" id="color-21"><stop offset="0" stop-color="#272727"/><stop offset="1" stop-color="#101010"/></linearGradient><linearGradient x1="404.00003" y1="-25.69999" x2="404.00003" y2="66.30001" gradientUnits="userSpaceOnUse" id="color-22"><stop offset="0" stop-color="#272727"/><stop offset="1" stop-color="#101010"/></linearGradient><linearGradient x1="488.00001" y1="-71.69999" x2="488.00001" y2="20.3" gradientUnits="userSpaceOnUse" id="color-23"><stop offset="0" stop-color="#272727"/><stop offset="1" stop-color="#101010"/></linearGradient><linearGradient x1="489.00001" y1="20.3" x2="489.00001" y2="112.30001" gradientUnits="userSpaceOnUse" id="color-24"><stop offset="0" stop-color="#272727"/><stop offset="1" stop-color="#101010"/></linearGradient><linearGradient x1="-16" y1="204.30001" x2="-16" y2="296.30001" gradientUnits="userSpaceOnUse" id="color-25"><stop offset="0" stop-color="#272727"/><stop offset="1" stop-color="#101010"/></linearGradient><linearGradient x1="-15" y1="296.30001" x2="-15" y2="388.30001" gradientUnits="userSpaceOnUse" id="color-26"><stop offset="0" stop-color="#272727"/><stop offset="1" stop-color="#101010"/></linearGradient><linearGradient x1="-19.99999" y1="-71.69999" x2="-19.99999" y2="20.3" gradientUnits="userSpaceOnUse" id="color-27"><stop offset="0" stop-color="#272727"/><stop offset="1" stop-color="#101010"/></linearGradient><linearGradient x1="-18.99999" y1="20.3" x2="-18.99999" y2="112.3" gradientUnits="userSpaceOnUse" id="color-28"><stop offset="0" stop-color="#272727"/><stop offset="1" stop-color="#101010"/></linearGradient><linearGradient x1="407.00001" y1="252.30001" x2="407.00001" y2="344.30001" gradientUnits="userSpaceOnUse" id="color-29"><stop offset="0" stop-color="#272727"/><stop offset="1" stop-color="#101010"/></linearGradient><linearGradient x1="491.00001" y1="206.30001" x2="491.00001" y2="298.30001" gradientUnits="userSpaceOnUse" id="color-30"><stop offset="0" stop-color="#272727"/><stop offset="1" stop-color="#101010"/></linearGradient><linearGradient x1="492.00001" y1="298.30001" x2="492.00001" y2="390.30001" gradientUnits="userSpaceOnUse" id="color-31"><stop offset="0" stop-color="#272727"/><stop offset="1" stop-color="#101010"/></linearGradient><radialGradient cx="382.75976" cy="214.01802" r="24" gradientUnits="userSpaceOnUse" id="color-32"><stop offset="0" stop-color="#ff0000"/><stop offset="1" stop-color="#ff0000" stop-opacity="0"/></radialGradient><radialGradient cx="382.75976" cy="214.01802" r="10.66666" gradientUnits="userSpaceOnUse" id="color-33"><stop offset="0" stop-color="#ffc2c2"/><stop offset="1" stop-color="#ffc2c2" stop-opacity="0"/></radialGradient><radialGradient cx="451.87688" cy="98.91592" r="24" gradientUnits="userSpaceOnUse" id="color-34"><stop offset="0" stop-color="#ff0000"/><stop offset="1" stop-color="#ff0000" stop-opacity="0"/></radialGradient><radialGradient cx="451.87688" cy="98.91592" r="10.66667" gradientUnits="userSpaceOnUse" id="color-35"><stop offset="0" stop-color="#ffc2c2"/><stop offset="1" stop-color="#ffc2c2" stop-opacity="0"/></radialGradient><radialGradient cx="406.32132" cy="153.96096" r="24" gradientUnits="userSpaceOnUse" id="color-36"><stop offset="0" stop-color="#00b8ff"/><stop offset="1" stop-color="#00b8ff" stop-opacity="0"/></radialGradient><radialGradient cx="406.32132" cy="153.96096" r="10.66667" gradientUnits="userSpaceOnUse" id="color-37"><stop offset="0" stop-color="#c2f4ff"/><stop offset="1" stop-color="#c2f4ff" stop-opacity="0"/></radialGradient><radialGradient cx="345.19219" cy="165.93994" r="24" gradientUnits="userSpaceOnUse" id="color-38"><stop offset="0" stop-color="#1fff00"/><stop offset="1" stop-color="#1fff00" stop-opacity="0"/></radialGradient><radialGradient cx="345.19219" cy="165.93994" r="10.66666" gradientUnits="userSpaceOnUse" id="color-39"><stop offset="0" stop-color="#c3ffc2"/><stop offset="1" stop-color="#c3ffc2" stop-opacity="0"/></radialGradient><radialGradient cx="415.81081" cy="71.85886" r="24" gradientUnits="userSpaceOnUse" id="color-40"><stop offset="0" stop-color="#1fff00"/><stop offset="1" stop-color="#1fff00" stop-opacity="0"/></radialGradient><radialGradient cx="415.81081" cy="71.85886" r="10.66667" gradientUnits="userSpaceOnUse" id="color-41"><stop offset="0" stop-color="#c3ffc2"/><stop offset="1" stop-color="#c3ffc2" stop-opacity="0"/></radialGradient><radialGradient cx="362.09309" cy="33.3964" r="24" gradientUnits="userSpaceOnUse" id="color-42"><stop offset="0" stop-color="#ff0000"/><stop offset="1" stop-color="#ff0000" stop-opacity="0"/></radialGradient><radialGradient cx="362.09309" cy="33.3964" r="10.66667" gradientUnits="userSpaceOnUse" id="color-43"><stop offset="0" stop-color="#ffc2c2"/><stop offset="1" stop-color="#ffc2c2" stop-opacity="0"/></radialGradient><radialGradient cx="426.17718" cy="24.86787" r="24" gradientUnits="userSpaceOnUse" id="color-44"><stop offset="0" stop-color="#00b8ff"/><stop offset="1" stop-color="#00b8ff" stop-opacity="0"/></radialGradient><radialGradient cx="426.17718" cy="24.86787" r="10.66667" gradientUnits="userSpaceOnUse" id="color-45"><stop offset="0" stop-color="#c2f4ff"/><stop offset="1" stop-color="#c2f4ff" stop-opacity="0"/></radialGradient><radialGradient cx="303.19219" cy="194.96997" r="24" gradientUnits="userSpaceOnUse" id="color-46"><stop offset="0" stop-color="#ff8800"/><stop offset="1" stop-color="#ff8800" stop-opacity="0"/></radialGradient><radialGradient cx="303.19219" cy="194.96997" r="10.66667" gradientUnits="userSpaceOnUse" id="color-47"><stop offset="0" stop-color="#ffe8c2"/><stop offset="1" stop-color="#ffe8c2" stop-opacity="0"/></radialGradient><radialGradient cx="275.74775" cy="103.92493" r="24" gradientUnits="userSpaceOnUse" id="color-48"><stop offset="0" stop-color="#ff0097"/><stop offset="1" stop-color="#ff0097" stop-opacity="0"/></radialGradient><radialGradient cx="275.74775" cy="103.92493" r="10.66667" gradientUnits="userSpaceOnUse" id="color-49"><stop offset="0" stop-color="#ffc2e9"/><stop offset="1" stop-color="#ffc2e9" stop-opacity="0"/></radialGradient><radialGradient cx="336.87688" cy="91.94595" r="24" gradientUnits="userSpaceOnUse" id="color-50"><stop offset="0" stop-color="#000bff"/><stop offset="1" stop-color="#000bff" stop-opacity="0"/></radialGradient><radialGradient cx="336.87688" cy="91.94595" r="10.66666" gradientUnits="userSpaceOnUse" id="color-51"><stop offset="0" stop-color="#d1c2ff"/><stop offset="1" stop-color="#d1c2ff" stop-opacity="0"/></radialGradient><radialGradient cx="204.14656" cy="89.0278" r="24" gradientUnits="userSpaceOnUse" id="color-52"><stop offset="0" stop-color="#ff0000"/><stop offset="1" stop-color="#ff0000" stop-opacity="0"/></radialGradient><radialGradient cx="204.14656" cy="89.0278" r="10.66666" gradientUnits="userSpaceOnUse" id="color-53"><stop offset="0" stop-color="#ffc2c2"/><stop offset="1" stop-color="#ffc2c2" stop-opacity="0"/></radialGradient><radialGradient cx="67.74775" cy="193.91592" r="24" gradientUnits="userSpaceOnUse" id="color-54"><stop offset="0" stop-color="#ff0000"/><stop offset="1" stop-color="#ff0000" stop-opacity="0"/></radialGradient><radialGradient cx="67.74775" cy="193.91592" r="10.66667" gradientUnits="userSpaceOnUse" id="color-55"><stop offset="0" stop-color="#ffc2c2"/><stop offset="1" stop-color="#ffc2c2" stop-opacity="0"/></radialGradient><radialGradient cx="163.6758" cy="38.78723" r="24" gradientUnits="userSpaceOnUse" id="color-56"><stop offset="0" stop-color="#00b8ff"/><stop offset="1" stop-color="#00b8ff" stop-opacity="0"/></radialGradient><radialGradient cx="163.6758" cy="38.78723" r="10.66667" gradientUnits="userSpaceOnUse" id="color-57"><stop offset="0" stop-color="#c2f4ff"/><stop offset="1" stop-color="#c2f4ff" stop-opacity="0"/></radialGradient><radialGradient cx="225.58607" cy="31.90362" r="24" gradientUnits="userSpaceOnUse" id="color-58"><stop offset="0" stop-color="#1fff00"/><stop offset="1" stop-color="#1fff00" stop-opacity="0"/></radialGradient><radialGradient cx="225.58607" cy="31.90362" r="10.66666" gradientUnits="userSpaceOnUse" id="color-59"><stop offset="0" stop-color="#c3ffc2"/><stop offset="1" stop-color="#c3ffc2" stop-opacity="0"/></radialGradient><radialGradient cx="103.81382" cy="166.85886" r="24" gradientUnits="userSpaceOnUse" id="color-60"><stop offset="0" stop-color="#1fff00"/><stop offset="1" stop-color="#1fff00" stop-opacity="0"/></radialGradient><radialGradient cx="103.81382" cy="166.85886" r="10.66667" gradientUnits="userSpaceOnUse" id="color-61"><stop offset="0" stop-color="#c3ffc2"/><stop offset="1" stop-color="#c3ffc2" stop-opacity="0"/></radialGradient><radialGradient cx="93.44745" cy="119.86787" r="24" gradientUnits="userSpaceOnUse" id="color-62"><stop offset="0" stop-color="#00b8ff"/><stop offset="1" stop-color="#00b8ff" stop-opacity="0"/></radialGradient><radialGradient cx="93.44744" cy="119.86787" r="10.66667" gradientUnits="userSpaceOnUse" id="color-63"><stop offset="0" stop-color="#c2f4ff"/><stop offset="1" stop-color="#c2f4ff" stop-opacity="0"/></radialGradient><radialGradient cx="274.35372" cy="47.01849" r="24" gradientUnits="userSpaceOnUse" id="color-64"><stop offset="0" stop-color="#ff8800"/><stop offset="1" stop-color="#ff8800" stop-opacity="0"/></radialGradient><radialGradient cx="274.35372" cy="47.01849" r="10.66667" gradientUnits="userSpaceOnUse" id="color-65"><stop offset="0" stop-color="#ffe8c2"/><stop offset="1" stop-color="#ffe8c2" stop-opacity="0"/></radialGradient><radialGradient cx="243.87688" cy="198.92493" r="24" gradientUnits="userSpaceOnUse" id="color-66"><stop offset="0" stop-color="#ff0097"/><stop offset="1" stop-color="#ff0097" stop-opacity="0"/></radialGradient><radialGradient cx="243.87688" cy="198.92493" r="10.66667" gradientUnits="userSpaceOnUse" id="color-67"><stop offset="0" stop-color="#ffc2e9"/><stop offset="1" stop-color="#ffc2e9" stop-opacity="0"/></radialGradient><radialGradient cx="182.74775" cy="186.94595" r="24" gradientUnits="userSpaceOnUse" id="color-68"><stop offset="0" stop-color="#000bff"/><stop offset="1" stop-color="#000bff" stop-opacity="0"/></radialGradient><radialGradient cx="182.74774" cy="186.94595" r="10.66666" gradientUnits="userSpaceOnUse" id="color-69"><stop offset="0" stop-color="#d1c2ff"/><stop offset="1" stop-color="#d1c2ff" stop-opacity="0"/></radialGradient><radialGradient cx="141.74775" cy="123.94595" r="24" gradientUnits="userSpaceOnUse" id="color-70"><stop offset="0" stop-color="#000bff"/><stop offset="1" stop-color="#000bff" stop-opacity="0"/></radialGradient><radialGradient cx="141.74775" cy="123.94595" r="10.66666" gradientUnits="userSpaceOnUse" id="color-71"><stop offset="0" stop-color="#d1c2ff"/><stop offset="1" stop-color="#d1c2ff" stop-opacity="0"/></radialGradient><radialGradient cx="93.19219" cy="55.96997" r="24" gradientUnits="userSpaceOnUse" id="color-72"><stop offset="0" stop-color="#ff8800"/><stop offset="1" stop-color="#ff8800" stop-opacity="0"/></radialGradient><radialGradient cx="93.19218" cy="55.96997" r="10.66667" gradientUnits="userSpaceOnUse" id="color-73"><stop offset="0" stop-color="#ffe8c2"/><stop offset="1" stop-color="#ffe8c2" stop-opacity="0"/></radialGradient><radialGradient cx="33.87688" cy="59.92493" r="24" gradientUnits="userSpaceOnUse" id="color-74"><stop offset="0" stop-color="#ff0097"/><stop offset="1" stop-color="#ff0097" stop-opacity="0"/></radialGradient><radialGradient cx="33.87688" cy="59.92493" r="10.66667" gradientUnits="userSpaceOnUse" id="color-75"><stop offset="0" stop-color="#ffc2e9"/><stop offset="1" stop-color="#ffc2e9" stop-opacity="0"/></radialGradient><radialGradient cx="94.99399" cy="237.86787" r="24" gradientUnits="userSpaceOnUse" id="color-76"><stop offset="0" stop-color="#ff0000"/><stop offset="1" stop-color="#ff0000" stop-opacity="0"/></radialGradient><radialGradient cx="94.99399" cy="237.86787" r="10.66666" gradientUnits="userSpaceOnUse" id="color-77"><stop offset="0" stop-color="#ffc2c2"/><stop offset="1" stop-color="#ffc2c2" stop-opacity="0"/></radialGradient><radialGradient cx="25.87687" cy="352.96997" r="24" gradientUnits="userSpaceOnUse" id="color-78"><stop offset="0" stop-color="#ff0000"/><stop offset="1" stop-color="#ff0000" stop-opacity="0"/></radialGradient><radialGradient cx="25.87687" cy="352.96997" r="10.66667" gradientUnits="userSpaceOnUse" id="color-79"><stop offset="0" stop-color="#ffc2c2"/><stop offset="1" stop-color="#ffc2c2" stop-opacity="0"/></radialGradient><radialGradient cx="71.43243" cy="297.92493" r="24" gradientUnits="userSpaceOnUse" id="color-80"><stop offset="0" stop-color="#00b8ff"/><stop offset="1" stop-color="#00b8ff" stop-opacity="0"/></radialGradient><radialGradient cx="71.43243" cy="297.92493" r="10.66667" gradientUnits="userSpaceOnUse" id="color-81"><stop offset="0" stop-color="#c2f4ff"/><stop offset="1" stop-color="#c2f4ff" stop-opacity="0"/></radialGradient><radialGradient cx="132.56156" cy="285.94595" r="24" gradientUnits="userSpaceOnUse" id="color-82"><stop offset="0" stop-color="#1fff00"/><stop offset="1" stop-color="#1fff00" stop-opacity="0"/></radialGradient><radialGradient cx="132.56156" cy="285.94595" r="10.66666" gradientUnits="userSpaceOnUse" id="color-83"><stop offset="0" stop-color="#c3ffc2"/><stop offset="1" stop-color="#c3ffc2" stop-opacity="0"/></radialGradient><radialGradient cx="-14.5004" cy="93.64466" r="24" gradientUnits="userSpaceOnUse" id="color-84"><stop offset="0" stop-color="#ff0000"/><stop offset="1" stop-color="#ff0000" stop-opacity="0"/></radialGradient><radialGradient cx="-14.5004" cy="93.64466" r="10.66667" gradientUnits="userSpaceOnUse" id="color-85"><stop offset="0" stop-color="#ffc2c2"/><stop offset="1" stop-color="#ffc2c2" stop-opacity="0"/></radialGradient><radialGradient cx="-19.5682" cy="29.19449" r="24" gradientUnits="userSpaceOnUse" id="color-86"><stop offset="0" stop-color="#00b8ff"/><stop offset="1" stop-color="#00b8ff" stop-opacity="0"/></radialGradient><radialGradient cx="-19.5682" cy="29.19449" r="10.66667" gradientUnits="userSpaceOnUse" id="color-87"><stop offset="0" stop-color="#c2f4ff"/><stop offset="1" stop-color="#c2f4ff" stop-opacity="0"/></radialGradient><radialGradient cx="174.56156" cy="256.91592" r="24" gradientUnits="userSpaceOnUse" id="color-88"><stop offset="0" stop-color="#ff8800"/><stop offset="1" stop-color="#ff8800" stop-opacity="0"/></radialGradient><radialGradient cx="174.56156" cy="256.91592" r="10.66667" gradientUnits="userSpaceOnUse" id="color-89"><stop offset="0" stop-color="#ffe8c2"/><stop offset="1" stop-color="#ffe8c2" stop-opacity="0"/></radialGradient><radialGradient cx="202.006" cy="347.96096" r="24" gradientUnits="userSpaceOnUse" id="color-90"><stop offset="0" stop-color="#ff0097"/><stop offset="1" stop-color="#ff0097" stop-opacity="0"/></radialGradient><radialGradient cx="202.006" cy="347.96096" r="10.66667" gradientUnits="userSpaceOnUse" id="color-91"><stop offset="0" stop-color="#ffc2e9"/><stop offset="1" stop-color="#ffc2e9" stop-opacity="0"/></radialGradient><radialGradient cx="140.87687" cy="359.93994" r="24" gradientUnits="userSpaceOnUse" id="color-92"><stop offset="0" stop-color="#000bff"/><stop offset="1" stop-color="#000bff" stop-opacity="0"/></radialGradient><radialGradient cx="140.87687" cy="359.93994" r="10.66666" gradientUnits="userSpaceOnUse" id="color-93"><stop offset="0" stop-color="#d1c2ff"/><stop offset="1" stop-color="#d1c2ff" stop-opacity="0"/></radialGradient><radialGradient cx="273.60718" cy="362.85809" r="24" gradientUnits="userSpaceOnUse" id="color-94"><stop offset="0" stop-color="#ff0000"/><stop offset="1" stop-color="#ff0000" stop-opacity="0"/></radialGradient><radialGradient cx="273.60718" cy="362.85809" r="10.66666" gradientUnits="userSpaceOnUse" id="color-95"><stop offset="0" stop-color="#ffc2c2"/><stop offset="1" stop-color="#ffc2c2" stop-opacity="0"/></radialGradient><radialGradient cx="410.006" cy="257.96997" r="24" gradientUnits="userSpaceOnUse" id="color-96"><stop offset="0" stop-color="#ff0000"/><stop offset="1" stop-color="#ff0000" stop-opacity="0"/></radialGradient><radialGradient cx="410.006" cy="257.96997" r="10.66667" gradientUnits="userSpaceOnUse" id="color-97"><stop offset="0" stop-color="#ffc2c2"/><stop offset="1" stop-color="#ffc2c2" stop-opacity="0"/></radialGradient><radialGradient cx="-19.79422" cy="292.06456" r="24" gradientUnits="userSpaceOnUse" id="color-98"><stop offset="0" stop-color="#00b8ff"/><stop offset="1" stop-color="#00b8ff" stop-opacity="0"/></radialGradient><radialGradient cx="-19.79422" cy="292.06456" r="10.66667" gradientUnits="userSpaceOnUse" id="color-99"><stop offset="0" stop-color="#c2f4ff"/><stop offset="1" stop-color="#c2f4ff" stop-opacity="0"/></radialGradient><radialGradient cx="-23.33646" cy="229.87357" r="24" gradientUnits="userSpaceOnUse" id="color-100"><stop offset="0" stop-color="#1fff00"/><stop offset="1" stop-color="#1fff00" stop-opacity="0"/></radialGradient><radialGradient cx="-23.33646" cy="229.87357" r="10.66666" gradientUnits="userSpaceOnUse" id="color-101"><stop offset="0" stop-color="#c3ffc2"/><stop offset="1" stop-color="#c3ffc2" stop-opacity="0"/></radialGradient><radialGradient cx="373.93994" cy="285.02703" r="24" gradientUnits="userSpaceOnUse" id="color-102"><stop offset="0" stop-color="#1fff00"/><stop offset="1" stop-color="#1fff00" stop-opacity="0"/></radialGradient><radialGradient cx="373.93994" cy="285.02703" r="10.66667" gradientUnits="userSpaceOnUse" id="color-103"><stop offset="0" stop-color="#c3ffc2"/><stop offset="1" stop-color="#c3ffc2" stop-opacity="0"/></radialGradient><radialGradient cx="384.3063" cy="332.01802" r="24" gradientUnits="userSpaceOnUse" id="color-104"><stop offset="0" stop-color="#00b8ff"/><stop offset="1" stop-color="#00b8ff" stop-opacity="0"/></radialGradient><radialGradient cx="384.3063" cy="332.01802" r="10.66667" gradientUnits="userSpaceOnUse" id="color-105"><stop offset="0" stop-color="#c2f4ff"/><stop offset="1" stop-color="#c2f4ff" stop-opacity="0"/></radialGradient><radialGradient cx="-5.6193" cy="181.98991" r="24" gradientUnits="userSpaceOnUse" id="color-106"><stop offset="0" stop-color="#ff8800"/><stop offset="1" stop-color="#ff8800" stop-opacity="0"/></radialGradient><radialGradient cx="-5.6193" cy="181.98991" r="10.66667" gradientUnits="userSpaceOnUse" id="color-107"><stop offset="0" stop-color="#ffe8c2"/><stop offset="1" stop-color="#ffe8c2" stop-opacity="0"/></radialGradient><radialGradient cx="233.87687" cy="252.96096" r="24" gradientUnits="userSpaceOnUse" id="color-108"><stop offset="0" stop-color="#ff0097"/><stop offset="1" stop-color="#ff0097" stop-opacity="0"/></radialGradient><radialGradient cx="233.87687" cy="252.96096" r="10.66667" gradientUnits="userSpaceOnUse" id="color-109"><stop offset="0" stop-color="#ffc2e9"/><stop offset="1" stop-color="#ffc2e9" stop-opacity="0"/></radialGradient><radialGradient cx="295.006" cy="264.93994" r="24" gradientUnits="userSpaceOnUse" id="color-110"><stop offset="0" stop-color="#000bff"/><stop offset="1" stop-color="#000bff" stop-opacity="0"/></radialGradient><radialGradient cx="295.006" cy="264.93994" r="10.66666" gradientUnits="userSpaceOnUse" id="color-111"><stop offset="0" stop-color="#d1c2ff"/><stop offset="1" stop-color="#d1c2ff" stop-opacity="0"/></radialGradient><radialGradient cx="336.006" cy="327.93994" r="24" gradientUnits="userSpaceOnUse" id="color-112"><stop offset="0" stop-color="#000bff"/><stop offset="1" stop-color="#000bff" stop-opacity="0"/></radialGradient><radialGradient cx="336.006" cy="327.93994" r="10.66666" gradientUnits="userSpaceOnUse" id="color-113"><stop offset="0" stop-color="#d1c2ff"/><stop offset="1" stop-color="#d1c2ff" stop-opacity="0"/></radialGradient><radialGradient cx="466.56157" cy="170.91592" r="24" gradientUnits="userSpaceOnUse" id="color-114"><stop offset="0" stop-color="#ff8800"/><stop offset="1" stop-color="#ff8800" stop-opacity="0"/></radialGradient><radialGradient cx="466.56157" cy="170.91592" r="10.66667" gradientUnits="userSpaceOnUse" id="color-115"><stop offset="0" stop-color="#ffe8c2"/><stop offset="1" stop-color="#ffe8c2" stop-opacity="0"/></radialGradient><radialGradient cx="525.87687" cy="166.96096" r="24" gradientUnits="userSpaceOnUse" id="color-116"><stop offset="0" stop-color="#ff0097"/><stop offset="1" stop-color="#ff0097" stop-opacity="0"/></radialGradient><radialGradient cx="525.87687" cy="166.96096" r="10.66667" gradientUnits="userSpaceOnUse" id="color-117"><stop offset="0" stop-color="#ffc2e9"/><stop offset="1" stop-color="#ffc2e9" stop-opacity="0"/></radialGradient><linearGradient x1="85.57137" y1="210.97953" x2="354.50003" y2="210.97953" gradientUnits="userSpaceOnUse" id="color-118"><stop offset="0" stop-color="#cc00ff"/><stop offset="1" stop-color="#1f00ff"/></linearGradient><radialGradient cx="364.81616" cy="168.29801" r="11.2015" gradientUnits="userSpaceOnUse" id="color-119"><stop offset="0" stop-color="#cfcfcf"/><stop offset="1" stop-color="#ffffff"/></radialGradient><radialGradient cx="362.88307" cy="193.14254" r="10.99785" gradientUnits="userSpaceOnUse" id="color-120"><stop offset="0" stop-color="#cfcfcf"/><stop offset="1" stop-color="#ffffff"/></radialGradient><radialGradient cx="219.04842" cy="216.97653" r="145.99658" gradientUnits="userSpaceOnUse" id="color-121"><stop offset="0" stop-color="#cc00ff"/><stop offset="1" stop-color="#cc00ff" stop-opacity="0"/></radialGradient><linearGradient x1="611.71552" y1="384.80879" x2="355.15063" y2="304.20439" gradientUnits="userSpaceOnUse" id="color-122"><stop offset="0" stop-color="#00caff"/><stop offset="1" stop-color="#0067ff"/></linearGradient><radialGradient cx="358.10143" cy="260.39313" r="11.2015" gradientUnits="userSpaceOnUse" id="color-123"><stop offset="0" stop-color="#cfcfcf"/><stop offset="1" stop-color="#ffffff"/></radialGradient><radialGradient cx="352.49916" cy="284.67485" r="10.99785" gradientUnits="userSpaceOnUse" id="color-124"><stop offset="0" stop-color="#cfcfcf"/><stop offset="1" stop-color="#ffffff"/></radialGradient><linearGradient x1="-157.33091" y1="256.80879" x2="99.23399" y2="176.20442" gradientUnits="userSpaceOnUse" id="color-125"><stop offset="0" stop-color="#ff00da"/><stop offset="1" stop-color="#ff0000"/></linearGradient><radialGradient cx="96.28319" cy="132.39314" r="11.2015" gradientUnits="userSpaceOnUse" id="color-126"><stop offset="0" stop-color="#cfcfcf"/><stop offset="1" stop-color="#ffffff"/></radialGradient><radialGradient cx="101.88545" cy="156.67486" r="10.99785" gradientUnits="userSpaceOnUse" id="color-127"><stop offset="0" stop-color="#cfcfcf"/><stop offset="1" stop-color="#ffffff"/></radialGradient><linearGradient x1="113.5" y1="24" x2="393.5" y2="24" gradientUnits="userSpaceOnUse" id="color-128"><stop offset="0" stop-color="#ff0000"/><stop offset="1" stop-color="#31ff00"/></linearGradient><radialGradient cx="462.65389" cy="103.89252" r="18.68695" gradientUnits="userSpaceOnUse" id="color-129"><stop offset="0" stop-color="#cfcfcf"/><stop offset="1" stop-color="#ffffff"/></radialGradient><radialGradient cx="431.19219" cy="131.0663" r="18.34721" gradientUnits="userSpaceOnUse" id="color-130"><stop offset="0" stop-color="#cfcfcf"/><stop offset="1" stop-color="#ffffff"/></radialGradient><linearGradient x1="-5814.25951" y1="382.88153" x2="7189.03152" y2="382.88153" gradientUnits="userSpaceOnUse" id="color-131"><stop offset="0" stop-color="#000000"/><stop offset="1" stop-color="#000000" stop-opacity="0"/></linearGradient></defs><g transform="translate(206.83612,74.20854)"><g data-paper-data="{&quot;isPaintingLayer&quot;:true}" fill-rule="nonzero" stroke-linejoin="miter" stroke-miterlimit="10" stroke-dasharray="" stroke-dashoffset="0" style="mix-blend-mode: normal"><path d="M500.50003,-13.49999v387h-521v-387z" data-paper-data="{&quot;index&quot;:null}" fill="#0a0a0a" stroke="#000000" stroke-width="0" stroke-linecap="butt"/><path d="M123.83335,112.63334l58.66666,-0.33333l24.66666,46.33333l-21.66666,45.66667h-63l-23.66666,-46.66667z" fill="none" stroke="url(#color-1)" stroke-width="5" stroke-linecap="round"/><path d="M207.83336,66.63334l58.66666,-0.33333l24.66667,46.33333l-21.66667,45.66667h-63l-23.66666,-46.66667z" fill="none" stroke="url(#color-2)" stroke-width="5" stroke-linecap="round"/><path d="M208.83336,158.63333l58.66666,-0.33333l24.66667,46.33333l-21.66667,45.66667h-63l-23.66666,-46.66667z" fill="none" stroke="url(#color-3)" stroke-width="5" stroke-linecap="round"/><path d="M291.83334,113.63334l58.66667,-0.33333l24.66667,46.33333l-21.66667,45.66667h-63l-23.66667,-46.66667z" fill="none" stroke="url(#color-4)" stroke-width="5" stroke-linecap="round"/><path d="M375.83336,67.63334l58.66667,-0.33333l24.66667,46.33333l-21.66667,45.66667h-63l-23.66667,-46.66667z" fill="none" stroke="url(#color-5)" stroke-width="5" stroke-linecap="round"/><path d="M376.83336,159.63333l58.66667,-0.33333l24.66667,46.33333l-21.66667,45.66667h-63l-23.66667,-46.66667z" fill="none" stroke="url(#color-6)" stroke-width="5" stroke-linecap="round"/><path d="M40.83335,249.63334l58.66667,-0.33333l24.66666,46.33333l-21.66666,45.66667h-63l-23.66666,-46.66667z" fill="none" stroke="url(#color-7)" stroke-width="5" stroke-linecap="round"/><path d="M124.83335,203.63334l58.66666,-0.33333l24.66666,46.33333l-21.66666,45.66667h-63l-23.66666,-46.66667z" fill="none" stroke="url(#color-8)" stroke-width="5" stroke-linecap="round"/><path d="M125.83335,295.63334l58.66666,-0.33333l24.66666,46.33333l-21.66666,45.66667h-63l-23.66666,-46.66667z" fill="none" stroke="url(#color-9)" stroke-width="5" stroke-linecap="round"/><path d="M208.83336,251.63334l58.66666,-0.33333l24.66667,46.33333l-21.66667,45.66667h-63l-23.66666,-46.66667z" fill="none" stroke="url(#color-10)" stroke-width="5" stroke-linecap="round"/><path d="M292.83334,205.63334l58.66667,-0.33333l24.66667,46.33333l-21.66667,45.66667h-63l-23.66667,-46.66667z" fill="none" stroke="url(#color-11)" stroke-width="5" stroke-linecap="round"/><path d="M293.83334,297.63334l58.66667,-0.33333l24.66667,46.33333l-21.66667,45.66667h-63l-23.66667,-46.66667z" fill="none" stroke="url(#color-12)" stroke-width="5" stroke-linecap="round"/><path d="M-46.16665,112.63334l58.66667,-0.33333l24.66667,46.33333l-21.66666,45.66667h-63l-23.66666,-46.66667z" fill="none" stroke="url(#color-13)" stroke-width="5" stroke-linecap="round"/><path d="M37.83335,66.63334l58.66667,-0.33333l24.66666,46.33333l-21.66666,45.66667h-63l-23.66666,-46.66667z" fill="none" stroke="url(#color-14)" stroke-width="5" stroke-linecap="round"/><path d="M38.83335,158.63333l58.66667,-0.33333l24.66666,46.33333l-21.66666,45.66667h-63l-23.66666,-46.66667z" fill="none" stroke="url(#color-15)" stroke-width="5" stroke-linecap="round"/><path d="M36.83335,-25.36666l58.66667,-0.33333l24.66666,46.33333l-21.66666,45.66667h-63l-23.66666,-46.66667z" fill="none" stroke="url(#color-16)" stroke-width="5" stroke-linecap="round"/><path d="M120.83335,-71.36666l58.66666,-0.33333l24.66666,46.33333l-21.66666,45.66667h-63l-23.66666,-46.66667z" fill="none" stroke="url(#color-17)" stroke-width="5" stroke-linecap="round"/><path d="M121.83335,20.63334l58.66666,-0.33333l24.66666,46.33333l-21.66666,45.66667h-63l-23.66666,-46.66667z" fill="none" stroke="url(#color-18)" stroke-width="5" stroke-linecap="round"/><path d="M205.83336,-25.36666l58.66666,-0.33333l24.66667,46.33333l-21.66667,45.66667h-63l-23.66666,-46.66667z" fill="none" stroke="url(#color-19)" stroke-width="5" stroke-linecap="round"/><path d="M289.83334,-71.36666l58.66667,-0.33333l24.66667,46.33333l-21.66667,45.66667h-63l-23.66667,-46.66667z" fill="none" stroke="url(#color-20)" stroke-width="5" stroke-linecap="round"/><path d="M290.83334,20.63334l58.66667,-0.33333l24.66667,46.33333l-21.66667,45.66667h-63l-23.66667,-46.66667z" fill="none" stroke="url(#color-21)" stroke-width="5" stroke-linecap="round"/><path d="M374.83336,-25.36666l58.66667,-0.33333l24.66667,46.33333l-21.66667,45.66667h-63l-23.66667,-46.66667z" fill="none" stroke="url(#color-22)" stroke-width="5" stroke-linecap="round"/><path d="M458.83336,-71.36666l58.66667,-0.33333l24.66666,46.33333l-21.66666,45.66667h-63l-23.66667,-46.66667z" fill="none" stroke="url(#color-23)" stroke-width="5" stroke-linecap="round"/><path d="M459.83336,20.63334l58.66667,-0.33333l24.66666,46.33333l-21.66666,45.66667h-63l-23.66667,-46.66667z" fill="none" stroke="url(#color-24)" stroke-width="5" stroke-linecap="round"/><path d="M-45.16666,204.63334l58.66666,-0.33333l24.66667,46.33333l-21.66667,45.66667h-63l-23.66666,-46.66667z" fill="none" stroke="url(#color-25)" stroke-width="5" stroke-linecap="round"/><path d="M-44.16666,296.63334l58.66666,-0.33333l24.66667,46.33333l-21.66667,45.66667h-63l-23.66666,-46.66667z" fill="none" stroke="url(#color-26)" stroke-width="5" stroke-linecap="round"/><path d="M-49.16665,-71.36666l58.66666,-0.33333l24.66667,46.33333l-21.66667,45.66667h-63l-23.66666,-46.66667z" fill="none" stroke="url(#color-27)" stroke-width="5" stroke-linecap="round"/><path d="M-48.16665,20.63333l58.66666,-0.33333l24.66667,46.33333l-21.66667,45.66667h-63l-23.66666,-46.66667z" fill="none" stroke="url(#color-28)" stroke-width="5" stroke-linecap="round"/><path d="M377.83336,252.63334l58.66666,-0.33333l24.66666,46.33333l-21.66666,45.66667h-63l-23.66666,-46.66667z" fill="none" stroke="url(#color-29)" stroke-width="5" stroke-linecap="round"/><path d="M461.83336,206.63334l58.66666,-0.33333l24.66666,46.33333l-21.66666,45.66667h-63l-23.66666,-46.66667z" fill="none" stroke="url(#color-30)" stroke-width="5" stroke-linecap="round"/><path d="M462.83336,298.63334l58.66666,-0.33333l24.66666,46.33333l-21.66666,45.66667h-63l-23.66666,-46.66667z" fill="none" stroke="url(#color-31)" stroke-width="5" stroke-linecap="round"/><path d="M351.06861,269.78175c0,0 77.22411,-0.62329 120.59918,14.45681c13.61535,4.73362 158.80335,38.53194 178.21808,48.64703" data-paper-data="{&quot;index&quot;:null}" fill="none" stroke="none" stroke-width="50" stroke-linecap="round"/><path d="M358.75976,214.01802c0,-13.25483 10.74517,-24 24,-24c13.25483,0 24,10.74517 24,24c0,13.25483 -10.74517,24 -24,24c-13.25483,0 -24,-10.74517 -24,-24z" fill="url(#color-32)" stroke="none" stroke-width="0" stroke-linecap="butt"/><path d="M371.19613,214.01802c0,-6.38643 5.17722,-11.56364 11.56364,-11.56364c6.38643,0 11.56363,5.17721 11.56363,11.56364c0,6.38643 -5.17721,11.56364 -11.56363,11.56364c-6.38643,0 -11.56364,-5.17721 -11.56364,-11.56364z" fill="#ff0000" stroke="none" stroke-width="0.5" stroke-linecap="butt"/><path d="M372.09309,214.01802c0,-5.89103 4.77563,-10.66666 10.66666,-10.66666c5.89103,0 10.66666,4.77563 10.66666,10.66666c0,5.89104 -4.77563,10.66667 -10.66666,10.66667c-5.89103,0 -10.66666,-4.77563 -10.66666,-10.66667z" fill="url(#color-33)" stroke="none" stroke-width="0" stroke-linecap="butt"/><path d="M427.87688,98.91592c0,-13.25483 10.74517,-24 24,-24c13.25483,0 24,10.74517 24,24c0,13.25483 -10.74517,24 -24,24c-13.25483,0 -24,-10.74517 -24,-24z" fill="url(#color-34)" stroke="none" stroke-width="0" stroke-linecap="butt"/><path d="M440.31325,98.91592c0,-6.38643 5.17722,-11.56364 11.56364,-11.56364c6.38643,0 11.56363,5.17721 11.56363,11.56364c0,6.38643 -5.17721,11.56364 -11.56363,11.56364c-6.38643,0 -11.56364,-5.17721 -11.56364,-11.56364z" fill="#ff0000" stroke="none" stroke-width="0.5" stroke-linecap="butt"/><path d="M441.21021,98.91592c0,-5.89103 4.77563,-10.66666 10.66666,-10.66666c5.89103,0 10.66667,4.77563 10.66667,10.66666c0,5.89103 -4.77563,10.66666 -10.66667,10.66666c-5.89103,0 -10.66666,-4.77563 -10.66666,-10.66666z" fill="url(#color-35)" stroke="none" stroke-width="0" stroke-linecap="butt"/><path d="M382.32132,153.96096c0,-13.25483 10.74517,-24 24,-24c13.25483,0 24,10.74517 24,24c0,13.25483 -10.74517,24 -24,24c-13.25483,0 -24,-10.74517 -24,-24z" fill="url(#color-36)" stroke="none" stroke-width="0" stroke-linecap="butt"/><path d="M394.75769,153.96096c0,-6.38643 5.17722,-11.56364 11.56364,-11.56364c6.38643,0 11.56363,5.17721 11.56363,11.56364c0,6.38643 -5.17721,11.56364 -11.56363,11.56364c-6.38643,0 -11.56364,-5.17721 -11.56364,-11.56364z" fill="#00c4ff" stroke="none" stroke-width="0.5" stroke-linecap="butt"/><path d="M395.65465,153.96096c0,-5.89103 4.77563,-10.66666 10.66667,-10.66666c5.89103,0 10.66667,4.77563 10.66667,10.66666c0,5.89103 -4.77563,10.66667 -10.66667,10.66667c-5.89103,0 -10.66667,-4.77563 -10.66667,-10.66667z" fill="url(#color-37)" stroke="none" stroke-width="0" stroke-linecap="butt"/><path d="M321.19219,165.93994c0,-13.25483 10.74517,-24 24,-24c13.25483,0 24,10.74517 24,24c0,13.25483 -10.74517,24 -24,24c-13.25483,0 -24,-10.74517 -24,-24z" fill="url(#color-38)" stroke="none" stroke-width="0" stroke-linecap="butt"/><path d="M333.62856,165.93994c0,-6.38643 5.17722,-11.56364 11.56364,-11.56364c6.38643,0 11.56363,5.17721 11.56363,11.56364c0,6.38643 -5.17721,11.56364 -11.56363,11.56364c-6.38643,0 -11.56364,-5.17721 -11.56364,-11.56364z" fill="#38ff00" stroke="none" stroke-width="0.5" stroke-linecap="butt"/><path d="M334.52553,165.93994c0,-5.89103 4.77563,-10.66666 10.66666,-10.66666c5.89103,0 10.66666,4.77563 10.66666,10.66666c0,5.89103 -4.77563,10.66667 -10.66666,10.66667c-5.89103,0 -10.66666,-4.77563 -10.66666,-10.66667z" fill="url(#color-39)" stroke="none" stroke-width="0" stroke-linecap="butt"/><path d="M391.81081,71.85886c0,-13.25483 10.74517,-24 24,-24c13.25483,0 24,10.74517 24,24c0,13.25483 -10.74517,24 -24,24c-13.25483,0 -24,-10.74517 -24,-24z" fill="url(#color-40)" stroke="none" stroke-width="0" stroke-linecap="butt"/><path d="M404.24718,71.85886c0,-6.38643 5.17722,-11.56364 11.56364,-11.56364c6.38643,0 11.56363,5.17721 11.56363,11.56364c0,6.38643 -5.17721,11.56364 -11.56363,11.56364c-6.38643,0 -11.56364,-5.17721 -11.56364,-11.56364z" fill="#38ff00" stroke="none" stroke-width="0.5" stroke-linecap="butt"/><path d="M405.14414,71.85886c0,-5.89103 4.77563,-10.66666 10.66666,-10.66666c5.89103,0 10.66667,4.77563 10.66667,10.66666c0,5.89103 -4.77563,10.66666 -10.66667,10.66666c-5.89103,0 -10.66666,-4.77563 -10.66666,-10.66666z" fill="url(#color-41)" stroke="none" stroke-width="0" stroke-linecap="butt"/><path d="M362.09309,57.3964c-13.25483,0 -24,-10.74517 -24,-24c0,-13.25483 10.74517,-24 24,-24c13.25483,0 24,10.74517 24,24c0,13.25483 -10.74517,24 -24,24z" data-paper-data="{&quot;index&quot;:null}" fill="url(#color-42)" stroke="none" stroke-width="0" stroke-linecap="butt"/><path d="M362.09308,44.96004c-6.38642,0 -11.56363,-5.17721 -11.56363,-11.56364c0,-6.38643 5.1772,-11.56364 11.56363,-11.56364c6.38642,0 11.56364,5.17721 11.56364,11.56364c0,6.38643 -5.17721,11.56364 -11.56364,11.56364z" data-paper-data="{&quot;index&quot;:null}" fill="#ff0000" stroke="none" stroke-width="0.5" stroke-linecap="butt"/><path d="M362.09309,44.06306c-5.89104,0 -10.66667,-4.77563 -10.66667,-10.66666c0,-5.89104 4.77563,-10.66667 10.66667,-10.66667c5.89104,0 10.66667,4.77563 10.66667,10.66667c0,5.89103 -4.77563,10.66666 -10.66667,10.66666z" data-paper-data="{&quot;index&quot;:null}" fill="url(#color-43)" stroke="none" stroke-width="0" stroke-linecap="butt"/><path d="M426.17718,48.86787c-13.25483,0 -24,-10.74517 -24,-24c0,-13.25483 10.74517,-24 24,-24c13.25483,0 24,10.74517 24,24c0,13.25483 -10.74517,24 -24,24z" data-paper-data="{&quot;index&quot;:null}" fill="url(#color-44)" stroke="none" stroke-width="0" stroke-linecap="butt"/><path d="M426.17717,36.43151c-6.38642,0 -11.56363,-5.17721 -11.56363,-11.56364c0,-6.38643 5.1772,-11.56364 11.56363,-11.56364c6.38642,0 11.56364,5.17721 11.56364,11.56364c0,6.38643 -5.17721,11.56364 -11.56364,11.56364z" data-paper-data="{&quot;index&quot;:null}" fill="#00c4ff" stroke="none" stroke-width="0.5" stroke-linecap="butt"/><path d="M426.17718,35.53453c-5.89104,0 -10.66667,-4.77563 -10.66667,-10.66666c0,-5.89103 4.77564,-10.66666 10.66667,-10.66666c5.89103,0 10.66666,4.77563 10.66666,10.66666c0,5.89103 -4.77563,10.66666 -10.66666,10.66666z" data-paper-data="{&quot;index&quot;:null}" fill="url(#color-45)" stroke="none" stroke-width="0" stroke-linecap="butt"/><path d="M327.19219,194.96997c0,13.25483 -10.74517,24 -24,24c-13.25483,0 -24,-10.74517 -24,-24c0,-13.25483 10.74517,-24 24,-24c13.25483,0 24,10.74517 24,24z" data-paper-data="{&quot;index&quot;:null}" fill="url(#color-46)" stroke="none" stroke-width="0" stroke-linecap="butt"/><path d="M314.75582,194.96997c0,6.38643 -5.17722,11.56364 -11.56364,11.56364c-6.38643,0 -11.56363,-5.17721 -11.56363,-11.56364c0,-6.38643 5.17721,-11.56364 11.56363,-11.56364c6.38643,0 11.56364,5.17721 11.56364,11.56364z" data-paper-data="{&quot;index&quot;:null}" fill="#ffa000" stroke="none" stroke-width="0.5" stroke-linecap="butt"/><path d="M313.85886,194.96997c0,5.89103 -4.77563,10.66666 -10.66666,10.66666c-5.89103,0 -10.66667,-4.77563 -10.66667,-10.66666c0,-5.89103 4.77563,-10.66666 10.66667,-10.66666c5.89103,0 10.66666,4.77563 10.66666,10.66666z" data-paper-data="{&quot;index&quot;:null}" fill="url(#color-47)" stroke="none" stroke-width="0" stroke-linecap="butt"/><path d="M299.74775,103.92493c0,13.25483 -10.74517,24 -24,24c-13.25483,0 -24,-10.74517 -24,-24c0,-13.25483 10.74517,-24 24,-24c13.25483,0 24,10.74517 24,24z" data-paper-data="{&quot;index&quot;:null}" fill="url(#color-48)" stroke="none" stroke-width="0" stroke-linecap="butt"/><path d="M287.31138,103.92493c0,6.38643 -5.17722,11.56364 -11.56364,11.56364c-6.38643,0 -11.56363,-5.17721 -11.56363,-11.56364c0,-6.38643 5.17721,-11.56364 11.56363,-11.56364c6.38643,0 11.56364,5.17721 11.56364,11.56364z" data-paper-data="{&quot;index&quot;:null}" fill="#ff00c8" stroke="none" stroke-width="0.5" stroke-linecap="butt"/><path d="M286.41441,103.92493c0,5.89103 -4.77563,10.66666 -10.66667,10.66666c-5.89103,0 -10.66667,-4.77563 -10.66667,-10.66666c0,-5.89103 4.77563,-10.66667 10.66667,-10.66667c5.89103,0 10.66667,4.77563 10.66667,10.66667z" data-paper-data="{&quot;index&quot;:null}" fill="url(#color-49)" stroke="none" stroke-width="0" stroke-linecap="butt"/><path d="M360.87688,91.94595c0,13.25483 -10.74517,24 -24,24c-13.25483,0 -24,-10.74517 -24,-24c0,-13.25483 10.74517,-24 24,-24c13.25483,0 24,10.74517 24,24z" data-paper-data="{&quot;index&quot;:null}" fill="url(#color-50)" stroke="none" stroke-width="0" stroke-linecap="butt"/><path d="M348.44051,91.94595c0,6.38643 -5.17722,11.56364 -11.56364,11.56364c-6.38643,0 -11.56363,-5.17721 -11.56363,-11.56364c0,-6.38643 5.17721,-11.56364 11.56363,-11.56364c6.38643,0 11.56364,5.17721 11.56364,11.56364z" data-paper-data="{&quot;index&quot;:null}" fill="#0100ff" stroke="none" stroke-width="0.5" stroke-linecap="butt"/><path d="M347.54354,91.94595c0,5.89103 -4.77563,10.66666 -10.66666,10.66666c-5.89103,0 -10.66666,-4.77563 -10.66666,-10.66666c0,-5.89103 4.77563,-10.66667 10.66666,-10.66667c5.89103,0 10.66666,4.77563 10.66666,10.66667z" data-paper-data="{&quot;index&quot;:null}" fill="url(#color-51)" stroke="none" stroke-width="0" stroke-linecap="butt"/><path d="M211.33624,111.92558c-12.64609,3.97075 -26.11671,-3.06201 -30.08746,-15.70811c-3.97075,-12.64609 3.06201,-26.11671 15.70811,-30.08746c12.64609,-3.97075 26.11671,3.06201 30.08746,15.70811c3.97075,12.64609 -3.06201,26.11671 -15.70811,30.08746z" data-paper-data="{&quot;index&quot;:null}" fill="url(#color-52)" stroke="none" stroke-width="0" stroke-linecap="butt"/><path d="M207.61067,100.06037c-6.09312,1.91318 -12.5835,-1.47533 -14.49668,-7.56846c-1.91318,-6.09313 1.47532,-12.58351 7.56844,-14.49669c6.09312,-1.91318 12.58351,1.47532 14.49669,7.56845c1.91318,6.09313 -1.47532,12.58351 -7.56845,14.49669z" data-paper-data="{&quot;index&quot;:null}" fill="#ff0000" stroke="none" stroke-width="0.5" stroke-linecap="butt"/><path d="M207.34199,99.20459c-5.62048,1.76478 -11.60742,-1.3609 -13.3722,-6.98139c-1.76478,-5.62048 1.3609,-11.60742 6.98138,-13.3722c5.62048,-1.76478 11.60742,1.3609 13.3722,6.98138c1.76478,5.62049 -1.36089,11.60743 -6.98137,13.37221z" data-paper-data="{&quot;index&quot;:null}" fill="url(#color-53)" stroke="none" stroke-width="0" stroke-linecap="butt"/><path d="M67.74775,217.91592c-13.25483,0 -24,-10.74517 -24,-24c0,-13.25483 10.74517,-24 24,-24c13.25483,0 24,10.74517 24,24c0,13.25483 -10.74517,24 -24,24z" data-paper-data="{&quot;index&quot;:null}" fill="url(#color-54)" stroke="none" stroke-width="0" stroke-linecap="butt"/><path d="M67.74773,205.47956c-6.38642,0 -11.56363,-5.17721 -11.56363,-11.56364c0,-6.38643 5.1772,-11.56364 11.56363,-11.56364c6.38642,0 11.56364,5.17721 11.56364,11.56364c0,6.38643 -5.17721,11.56364 -11.56364,11.56364z" data-paper-data="{&quot;index&quot;:null}" fill="#ff0000" stroke="none" stroke-width="0.5" stroke-linecap="butt"/><path d="M67.74775,204.58258c-5.89104,0 -10.66667,-4.77563 -10.66667,-10.66666c0,-5.89103 4.77564,-10.66666 10.66667,-10.66666c5.89103,0 10.66666,4.77563 10.66666,10.66666c0,5.89103 -4.77563,10.66666 -10.66666,10.66666z" data-paper-data="{&quot;index&quot;:null}" fill="url(#color-55)" stroke="none" stroke-width="0" stroke-linecap="butt"/><path d="M170.86547,61.68502c-12.64609,3.97075 -26.11671,-3.06201 -30.08746,-15.70811c-3.97075,-12.64609 3.06201,-26.11671 15.70811,-30.08746c12.64609,-3.97075 26.11671,3.06201 30.08746,15.70811c3.97075,12.64609 -3.06201,26.11671 -15.70811,30.08746z" data-paper-data="{&quot;index&quot;:null}" fill="url(#color-56)" stroke="none" stroke-width="0" stroke-linecap="butt"/><path d="M167.13991,49.81981c-6.09312,1.91318 -12.5835,-1.47533 -14.49668,-7.56846c-1.91318,-6.09313 1.47532,-12.58351 7.56844,-14.49669c6.09312,-1.91318 12.58351,1.47532 14.49669,7.56845c1.91318,6.09313 -1.47532,12.58351 -7.56845,14.49669z" data-paper-data="{&quot;index&quot;:null}" fill="#00c4ff" stroke="none" stroke-width="0.5" stroke-linecap="butt"/><path d="M166.87121,48.96403c-5.62049,1.76478 -11.60743,-1.3609 -13.37221,-6.98138c-1.76478,-5.62048 1.36091,-11.60742 6.98139,-13.3722c5.62049,-1.76478 11.60743,1.36089 13.37221,6.98137c1.76478,5.62049 -1.3609,11.60743 -6.98138,13.37221z" data-paper-data="{&quot;index&quot;:null}" fill="url(#color-57)" stroke="none" stroke-width="0" stroke-linecap="butt"/><path d="M232.77575,54.80141c-12.64609,3.97075 -26.11671,-3.06201 -30.08746,-15.70811c-3.97075,-12.64609 3.06201,-26.11671 15.70811,-30.08746c12.64609,-3.97075 26.11671,3.06201 30.08746,15.70811c3.97075,12.64609 -3.06201,26.11671 -15.70811,30.08746z" data-paper-data="{&quot;index&quot;:null}" fill="url(#color-58)" stroke="none" stroke-width="0" stroke-linecap="butt"/><path d="M229.05018,42.9362c-6.09312,1.91318 -12.5835,-1.47533 -14.49668,-7.56846c-1.91318,-6.09313 1.47532,-12.58351 7.56844,-14.49669c6.09312,-1.91318 12.58351,1.47532 14.49669,7.56845c1.91318,6.09313 -1.47532,12.58351 -7.56845,14.49669z" data-paper-data="{&quot;index&quot;:null}" fill="#38ff00" stroke="none" stroke-width="0.5" stroke-linecap="butt"/><path d="M228.78149,42.08042c-5.62048,1.76478 -11.60742,-1.36091 -13.3722,-6.98139c-1.76478,-5.62048 1.3609,-11.60742 6.98138,-13.3722c5.62048,-1.76478 11.60742,1.3609 13.3722,6.98138c1.76478,5.62049 -1.36089,11.60743 -6.98137,13.37221z" data-paper-data="{&quot;index&quot;:null}" fill="url(#color-59)" stroke="none" stroke-width="0" stroke-linecap="butt"/><path d="M103.81382,190.85886c-13.25483,0 -24,-10.74517 -24,-24c0,-13.25483 10.74517,-24 24,-24c13.25483,0 24,10.74517 24,24c0,13.25483 -10.74517,24 -24,24z" data-paper-data="{&quot;index&quot;:null}" fill="url(#color-60)" stroke="none" stroke-width="0" stroke-linecap="butt"/><path d="M103.81381,178.4225c-6.38642,0 -11.56363,-5.17721 -11.56363,-11.56364c0,-6.38643 5.1772,-11.56364 11.56363,-11.56364c6.38642,0 11.56364,5.17721 11.56364,11.56364c0,6.38643 -5.17721,11.56364 -11.56364,11.56364z" data-paper-data="{&quot;index&quot;:null}" fill="#38ff00" stroke="none" stroke-width="0.5" stroke-linecap="butt"/><path d="M103.81383,177.52552c-5.89104,0 -10.66667,-4.77563 -10.66667,-10.66666c0,-5.89103 4.77564,-10.66666 10.66667,-10.66666c5.89103,0 10.66666,4.77563 10.66666,10.66666c0,5.89103 -4.77563,10.66666 -10.66666,10.66666z" data-paper-data="{&quot;index&quot;:null}" fill="url(#color-61)" stroke="none" stroke-width="0" stroke-linecap="butt"/><path d="M69.44745,119.86787c0,-13.25483 10.74517,-24 24,-24c13.25483,0 24,10.74517 24,24c0,13.25483 -10.74517,24 -24,24c-13.25483,0 -24,-10.74517 -24,-24z" data-paper-data="{&quot;index&quot;:null}" fill="url(#color-62)" stroke="none" stroke-width="0" stroke-linecap="butt"/><path d="M81.88382,119.86787c0,-6.38643 5.17722,-11.56364 11.56364,-11.56364c6.38643,0 11.56363,5.17721 11.56363,11.56364c0,6.38643 -5.17721,11.56364 -11.56363,11.56364c-6.38643,0 -11.56364,-5.17721 -11.56364,-11.56364z" data-paper-data="{&quot;index&quot;:null}" fill="#00c4ff" stroke="none" stroke-width="0.5" stroke-linecap="butt"/><path d="M82.78078,119.86787c0,-5.89103 4.77563,-10.66666 10.66666,-10.66666c5.89103,0 10.66667,4.77563 10.66667,10.66666c0,5.89103 -4.77563,10.66666 -10.66667,10.66666c-5.89103,0 -10.66666,-4.77563 -10.66666,-10.66666z" data-paper-data="{&quot;index&quot;:null}" fill="url(#color-63)" stroke="none" stroke-width="0" stroke-linecap="butt"/><path d="M267.16404,24.12071c12.64609,-3.97075 26.11671,3.06201 30.08746,15.70811c3.97075,12.64609 -3.06201,26.11671 -15.70811,30.08746c-12.64609,3.97075 -26.11671,-3.06201 -30.08746,-15.70811c-3.97075,-12.64609 3.06201,-26.11671 15.70811,-30.08746z" data-paper-data="{&quot;index&quot;:null}" fill="url(#color-64)" stroke="none" stroke-width="0" stroke-linecap="butt"/><path d="M270.88961,35.98592c6.09312,-1.91318 12.5835,1.47533 14.49668,7.56846c1.91318,6.09313 -1.47532,12.58351 -7.56844,14.49669c-6.09312,1.91318 -12.58351,-1.47532 -14.49669,-7.56845c-1.91318,-6.09313 1.47532,-12.58351 7.56845,-14.49669z" data-paper-data="{&quot;index&quot;:null}" fill="#ffa000" stroke="none" stroke-width="0.5" stroke-linecap="butt"/><path d="M271.1583,36.84171c5.62049,-1.76478 11.60743,1.36089 13.37221,6.98137c1.76478,5.62048 -1.36091,11.60742 -6.98139,13.3722c-5.62048,1.76478 -11.60742,-1.3609 -13.3722,-6.98138c-1.76478,-5.62048 1.3609,-11.60742 6.98138,-13.3722z" data-paper-data="{&quot;index&quot;:null}" fill="url(#color-65)" stroke="none" stroke-width="0" stroke-linecap="butt"/><path d="M243.87688,174.92493c13.25483,0 24,10.74517 24,24c0,13.25483 -10.74517,24 -24,24c-13.25483,0 -24,-10.74517 -24,-24c0,-13.25483 10.74517,-24 24,-24z" data-paper-data="{&quot;index&quot;:null}" fill="url(#color-66)" stroke="none" stroke-width="0" stroke-linecap="butt"/><path d="M243.87689,187.36129c6.38642,0 11.56363,5.17721 11.56363,11.56364c0,6.38643 -5.1772,11.56364 -11.56363,11.56364c-6.38642,0 -11.56364,-5.17721 -11.56364,-11.56364c0,-6.38643 5.17721,-11.56364 11.56364,-11.56364z" data-paper-data="{&quot;index&quot;:null}" fill="#ff00c8" stroke="none" stroke-width="0.5" stroke-linecap="butt"/><path d="M243.87688,188.25826c5.89104,0 10.66667,4.77564 10.66667,10.66667c0,5.89103 -4.77564,10.66666 -10.66667,10.66666c-5.89104,0 -10.66667,-4.77563 -10.66667,-10.66666c0,-5.89104 4.77564,-10.66667 10.66667,-10.66667z" data-paper-data="{&quot;index&quot;:null}" fill="url(#color-67)" stroke="none" stroke-width="0" stroke-linecap="butt"/><path d="M182.74775,162.94595c13.25483,0 24,10.74517 24,24c0,13.25483 -10.74517,24 -24,24c-13.25483,0 -24,-10.74517 -24,-24c0,-13.25483 10.74517,-24 24,-24z" data-paper-data="{&quot;index&quot;:null}" fill="url(#color-68)" stroke="none" stroke-width="0" stroke-linecap="butt"/><path d="M182.74776,175.38231c6.38642,0 11.56363,5.17721 11.56363,11.56364c0,6.38643 -5.1772,11.56364 -11.56363,11.56364c-6.38642,0 -11.56364,-5.17721 -11.56364,-11.56364c0,-6.38643 5.17721,-11.56364 11.56364,-11.56364z" data-paper-data="{&quot;index&quot;:null}" fill="#0100ff" stroke="none" stroke-width="0.5" stroke-linecap="butt"/><path d="M182.74774,176.27928c5.89103,0 10.66666,4.77564 10.66666,10.66667c0,5.89103 -4.77563,10.66666 -10.66666,10.66666c-5.89103,0 -10.66666,-4.77563 -10.66666,-10.66666c0,-5.89104 4.77563,-10.66667 10.66666,-10.66667z" data-paper-data="{&quot;index&quot;:null}" fill="url(#color-69)" stroke="none" stroke-width="0" stroke-linecap="butt"/><path d="M141.74775,99.94595c13.25483,0 24,10.74517 24,24c0,13.25483 -10.74517,24 -24,24c-13.25483,0 -24,-10.74517 -24,-24c0,-13.25483 10.74517,-24 24,-24z" data-paper-data="{&quot;index&quot;:null}" fill="url(#color-70)" stroke="none" stroke-width="0" stroke-linecap="butt"/><path d="M141.74776,112.38231c6.38642,0 11.56363,5.17721 11.56363,11.56364c0,6.38643 -5.1772,11.56364 -11.56363,11.56364c-6.38642,0 -11.56364,-5.17721 -11.56364,-11.56364c0,-6.38643 5.17721,-11.56364 11.56364,-11.56364z" data-paper-data="{&quot;index&quot;:null}" fill="#0100ff" stroke="none" stroke-width="0.5" stroke-linecap="butt"/><path d="M141.74775,113.27928c5.89103,0 10.66666,4.77564 10.66666,10.66667c0,5.89103 -4.77563,10.66666 -10.66666,10.66666c-5.89103,0 -10.66666,-4.77563 -10.66666,-10.66666c0,-5.89104 4.77563,-10.66667 10.66666,-10.66667z" data-paper-data="{&quot;index&quot;:null}" fill="url(#color-71)" stroke="none" stroke-width="0" stroke-linecap="butt"/><path d="M117.19219,55.96997c0,13.25483 -10.74517,24 -24,24c-13.25483,0 -24,-10.74517 -24,-24c0,-13.25483 10.74517,-24 24,-24c13.25483,0 24,10.74517 24,24z" data-paper-data="{&quot;index&quot;:null}" fill="url(#color-72)" stroke="none" stroke-width="0" stroke-linecap="butt"/><path d="M104.75582,55.96997c0,6.38643 -5.17722,11.56364 -11.56364,11.56364c-6.38643,0 -11.56363,-5.17721 -11.56363,-11.56364c0,-6.38643 5.17721,-11.56364 11.56363,-11.56364c6.38643,0 11.56364,5.17721 11.56364,11.56364z" data-paper-data="{&quot;index&quot;:null}" fill="#ffa000" stroke="none" stroke-width="0.5" stroke-linecap="butt"/><path d="M103.85886,55.96997c0,5.89103 -4.77563,10.66666 -10.66666,10.66666c-5.89103,0 -10.66667,-4.77563 -10.66667,-10.66666c0,-5.89103 4.77563,-10.66666 10.66667,-10.66666c5.89103,0 10.66666,4.77563 10.66666,10.66666z" data-paper-data="{&quot;index&quot;:null}" fill="url(#color-73)" stroke="none" stroke-width="0" stroke-linecap="butt"/><path d="M33.87688,35.92493c13.25483,0 24,10.74517 24,24c0,13.25483 -10.74517,24 -24,24c-13.25483,0 -24,-10.74517 -24,-24c0,-13.25483 10.74517,-24 24,-24z" data-paper-data="{&quot;index&quot;:null}" fill="url(#color-74)" stroke="none" stroke-width="0" stroke-linecap="butt"/><path d="M33.87689,48.36129c6.38642,0 11.56363,5.17721 11.56363,11.56364c0,6.38643 -5.1772,11.56364 -11.56363,11.56364c-6.38642,0 -11.56364,-5.17721 -11.56364,-11.56364c0,-6.38643 5.17721,-11.56364 11.56364,-11.56364z" data-paper-data="{&quot;index&quot;:null}" fill="#ff00c8" stroke="none" stroke-width="0.5" stroke-linecap="butt"/><path d="M33.87688,49.25826c5.89104,0 10.66667,4.77564 10.66667,10.66667c0,5.89103 -4.77564,10.66666 -10.66667,10.66666c-5.89104,0 -10.66667,-4.77563 -10.66667,-10.66666c0,-5.89104 4.77564,-10.66667 10.66667,-10.66667z" data-paper-data="{&quot;index&quot;:null}" fill="url(#color-75)" stroke="none" stroke-width="0" stroke-linecap="butt"/><path d="M118.99399,237.86787c0,13.25483 -10.74517,24 -24,24c-13.25483,0 -24,-10.74517 -24,-24c0,-13.25483 10.74517,-24 24,-24c13.25483,0 24,10.74517 24,24z" data-paper-data="{&quot;index&quot;:null}" fill="url(#color-76)" stroke="none" stroke-width="0" stroke-linecap="butt"/><path d="M106.55762,237.86787c0,6.38643 -5.17722,11.56364 -11.56364,11.56364c-6.38643,0 -11.56363,-5.17721 -11.56363,-11.56364c0,-6.38643 5.17721,-11.56364 11.56363,-11.56364c6.38643,0 11.56364,5.17721 11.56364,11.56364z" data-paper-data="{&quot;index&quot;:null}" fill="#ff0000" stroke="none" stroke-width="0.5" stroke-linecap="butt"/><path d="M105.66067,237.86787c0,5.89103 -4.77563,10.66666 -10.66666,10.66666c-5.89103,0 -10.66666,-4.77563 -10.66666,-10.66666c0,-5.89104 4.77563,-10.66667 10.66666,-10.66667c5.89103,0 10.66666,4.77563 10.66666,10.66667z" data-paper-data="{&quot;index&quot;:null}" fill="url(#color-77)" stroke="none" stroke-width="0" stroke-linecap="butt"/><path d="M49.87687,352.96997c0,13.25483 -10.74517,24 -24,24c-13.25483,0 -24,-10.74517 -24,-24c0,-13.25483 10.74517,-24 24,-24c13.25483,0 24,10.74517 24,24z" data-paper-data="{&quot;index&quot;:null}" fill="url(#color-78)" stroke="none" stroke-width="0" stroke-linecap="butt"/><path d="M37.4405,352.96997c0,6.38643 -5.17722,11.56364 -11.56364,11.56364c-6.38643,0 -11.56363,-5.17721 -11.56363,-11.56364c0,-6.38643 5.17721,-11.56364 11.56363,-11.56364c6.38643,0 11.56364,5.17721 11.56364,11.56364z" data-paper-data="{&quot;index&quot;:null}" fill="#ff0000" stroke="none" stroke-width="0.5" stroke-linecap="butt"/><path d="M36.54354,352.96997c0,5.89103 -4.77563,10.66666 -10.66666,10.66666c-5.89103,0 -10.66667,-4.77563 -10.66667,-10.66666c0,-5.89103 4.77563,-10.66666 10.66667,-10.66666c5.89103,0 10.66666,4.77563 10.66666,10.66666z" data-paper-data="{&quot;index&quot;:null}" fill="url(#color-79)" stroke="none" stroke-width="0" stroke-linecap="butt"/><path d="M95.43243,297.92493c0,13.25483 -10.74517,24 -24,24c-13.25483,0 -24,-10.74517 -24,-24c0,-13.25483 10.74517,-24 24,-24c13.25483,0 24,10.74517 24,24z" data-paper-data="{&quot;index&quot;:null}" fill="url(#color-80)" stroke="none" stroke-width="0" stroke-linecap="butt"/><path d="M82.99606,297.92493c0,6.38643 -5.17722,11.56364 -11.56364,11.56364c-6.38643,0 -11.56363,-5.17721 -11.56363,-11.56364c0,-6.38643 5.17721,-11.56364 11.56363,-11.56364c6.38643,0 11.56364,5.17721 11.56364,11.56364z" data-paper-data="{&quot;index&quot;:null}" fill="#00c4ff" stroke="none" stroke-width="0.5" stroke-linecap="butt"/><path d="M82.0991,297.92493c0,5.89103 -4.77563,10.66666 -10.66667,10.66666c-5.89103,0 -10.66667,-4.77563 -10.66667,-10.66666c0,-5.89103 4.77563,-10.66667 10.66667,-10.66667c5.89103,0 10.66667,4.77563 10.66667,10.66667z" data-paper-data="{&quot;index&quot;:null}" fill="url(#color-81)" stroke="none" stroke-width="0" stroke-linecap="butt"/><path d="M156.56156,285.94595c0,13.25483 -10.74517,24 -24,24c-13.25483,0 -24,-10.74517 -24,-24c0,-13.25483 10.74517,-24 24,-24c13.25483,0 24,10.74517 24,24z" data-paper-data="{&quot;index&quot;:null}" fill="url(#color-82)" stroke="none" stroke-width="0" stroke-linecap="butt"/><path d="M144.12519,285.94595c0,6.38643 -5.17722,11.56364 -11.56364,11.56364c-6.38643,0 -11.56363,-5.17721 -11.56363,-11.56364c0,-6.38643 5.17721,-11.56364 11.56363,-11.56364c6.38643,0 11.56364,5.17721 11.56364,11.56364z" data-paper-data="{&quot;index&quot;:null}" fill="#38ff00" stroke="none" stroke-width="0.5" stroke-linecap="butt"/><path d="M143.22822,285.94595c0,5.89103 -4.77563,10.66666 -10.66666,10.66666c-5.89103,0 -10.66666,-4.77563 -10.66666,-10.66666c0,-5.89103 4.77563,-10.66667 10.66666,-10.66667c5.89103,0 10.66666,4.77563 10.66666,10.66667z" data-paper-data="{&quot;index&quot;:null}" fill="url(#color-83)" stroke="none" stroke-width="0" stroke-linecap="butt"/><path d="M9.46483,94.9361c-0.71324,13.23563 -12.02104,23.38703 -25.25667,22.67379c-13.23563,-0.71324 -23.38703,-12.02104 -22.67379,-25.25667c0.71324,-13.23563 12.02104,-23.38703 25.25667,-22.67379c13.23563,0.71324 23.38703,12.02104 22.67379,25.25667z" data-paper-data="{&quot;index&quot;:null}" fill="url(#color-84)" stroke="none" stroke-width="0" stroke-linecap="butt"/><path d="M-2.95351,94.26691c-0.34365,6.37717 -5.79195,11.26829 -12.16913,10.92464c-6.37718,-0.34365 -11.2683,-5.79194 -10.92465,-12.16912c0.34365,-6.37717 5.79195,-11.2683 12.16913,-10.92465c6.37718,0.34365 11.2683,5.79195 10.92465,12.16913z" data-paper-data="{&quot;index&quot;:null}" fill="#ff0000" stroke="none" stroke-width="0.5" stroke-linecap="butt"/><path d="M-3.84919,94.21863c-0.317,5.88251 -5.34268,10.39424 -11.22518,10.07724c-5.88251,-0.317 -10.39424,-5.34268 -10.07724,-11.22519c0.317,-5.88251 5.34268,-10.39424 11.22519,-10.07724c5.8825,0.317 10.39423,5.34268 10.07723,11.22519z" data-paper-data="{&quot;index&quot;:null}" fill="url(#color-85)" stroke="none" stroke-width="0" stroke-linecap="butt"/><path d="M4.39703,30.48594c-0.71324,13.23563 -12.02104,23.38703 -25.25667,22.67379c-13.23563,-0.71324 -23.38703,-12.02104 -22.67379,-25.25667c0.71324,-13.23563 12.02104,-23.38703 25.25667,-22.67379c13.23563,0.71324 23.38703,12.02104 22.67379,25.25667z" data-paper-data="{&quot;index&quot;:null}" fill="url(#color-86)" stroke="none" stroke-width="0" stroke-linecap="butt"/><path d="M-8.02132,29.81674c-0.34365,6.37717 -5.79195,11.26829 -12.16913,10.92464c-6.37718,-0.34365 -11.2683,-5.79194 -10.92465,-12.16912c0.34365,-6.37717 5.79195,-11.2683 12.16913,-10.92465c6.37718,0.34365 11.2683,5.79195 10.92465,12.16913z" data-paper-data="{&quot;index&quot;:null}" fill="#00c4ff" stroke="none" stroke-width="0.5" stroke-linecap="butt"/><path d="M-8.917,29.76847c-0.317,5.88251 -5.34268,10.39424 -11.22518,10.07724c-5.8825,-0.317 -10.39423,-5.34269 -10.07723,-11.22519c0.317,-5.8825 5.34268,-10.39423 11.22518,-10.07723c5.8825,0.317 10.39423,5.34268 10.07723,11.22518z" data-paper-data="{&quot;index&quot;:null}" fill="url(#color-87)" stroke="none" stroke-width="0" stroke-linecap="butt"/><path d="M150.56156,256.91592c0,-13.25483 10.74517,-24 24,-24c13.25483,0 24,10.74517 24,24c0,13.25483 -10.74517,24 -24,24c-13.25483,0 -24,-10.74517 -24,-24z" data-paper-data="{&quot;index&quot;:null}" fill="url(#color-88)" stroke="none" stroke-width="0" stroke-linecap="butt"/><path d="M162.99793,256.91592c0,-6.38643 5.17722,-11.56364 11.56364,-11.56364c6.38643,0 11.56363,5.17721 11.56363,11.56364c0,6.38643 -5.17721,11.56364 -11.56363,11.56364c-6.38643,0 -11.56364,-5.17721 -11.56364,-11.56364z" data-paper-data="{&quot;index&quot;:null}" fill="#ffa000" stroke="none" stroke-width="0.5" stroke-linecap="butt"/><path d="M163.89489,256.91592c0,-5.89103 4.77563,-10.66666 10.66666,-10.66666c5.89103,0 10.66667,4.77563 10.66667,10.66666c0,5.89103 -4.77563,10.66666 -10.66667,10.66666c-5.89103,0 -10.66666,-4.77563 -10.66666,-10.66666z" data-paper-data="{&quot;index&quot;:null}" fill="url(#color-89)" stroke="none" stroke-width="0" stroke-linecap="butt"/><path d="M178.006,347.96096c0,-13.25483 10.74517,-24 24,-24c13.25483,0 24,10.74517 24,24c0,13.25483 -10.74517,24 -24,24c-13.25483,0 -24,-10.74517 -24,-24z" data-paper-data="{&quot;index&quot;:null}" fill="url(#color-90)" stroke="none" stroke-width="0" stroke-linecap="butt"/><path d="M190.44237,347.96096c0,-6.38643 5.17722,-11.56364 11.56364,-11.56364c6.38643,0 11.56363,5.17721 11.56363,11.56364c0,6.38643 -5.17721,11.56364 -11.56363,11.56364c-6.38643,0 -11.56364,-5.17721 -11.56364,-11.56364z" data-paper-data="{&quot;index&quot;:null}" fill="#ff00c8" stroke="none" stroke-width="0.5" stroke-linecap="butt"/><path d="M191.33933,347.96096c0,-5.89103 4.77563,-10.66666 10.66667,-10.66666c5.89103,0 10.66667,4.77563 10.66667,10.66666c0,5.89103 -4.77563,10.66667 -10.66667,10.66667c-5.89103,0 -10.66667,-4.77563 -10.66667,-10.66667z" data-paper-data="{&quot;index&quot;:null}" fill="url(#color-91)" stroke="none" stroke-width="0" stroke-linecap="butt"/><path d="M116.87687,359.93994c0,-13.25483 10.74517,-24 24,-24c13.25483,0 24,10.74517 24,24c0,13.25483 -10.74517,24 -24,24c-13.25483,0 -24,-10.74517 -24,-24z" data-paper-data="{&quot;index&quot;:null}" fill="url(#color-92)" stroke="none" stroke-width="0" stroke-linecap="butt"/><path d="M129.31325,359.93994c0,-6.38643 5.17722,-11.56364 11.56364,-11.56364c6.38643,0 11.56363,5.17721 11.56363,11.56364c0,6.38643 -5.17721,11.56364 -11.56363,11.56364c-6.38643,0 -11.56364,-5.17721 -11.56364,-11.56364z" data-paper-data="{&quot;index&quot;:null}" fill="#0100ff" stroke="none" stroke-width="0.5" stroke-linecap="butt"/><path d="M130.21021,359.93994c0,-5.89103 4.77563,-10.66666 10.66666,-10.66666c5.89103,0 10.66666,4.77563 10.66666,10.66666c0,5.89103 -4.77563,10.66667 -10.66666,10.66667c-5.89103,0 -10.66666,-4.77563 -10.66666,-10.66667z" data-paper-data="{&quot;index&quot;:null}" fill="url(#color-93)" stroke="none" stroke-width="0" stroke-linecap="butt"/><path d="M266.41751,339.96031c12.6461,-3.97075 26.11671,3.06201 30.08746,15.7081c3.97075,12.6461 -3.06201,26.11671 -15.7081,30.08746c-12.6461,3.97075 -26.11672,-3.06201 -30.08747,-15.7081c-3.97075,-12.6461 3.06202,-26.11671 15.70811,-30.08746z" data-paper-data="{&quot;index&quot;:null}" fill="url(#color-94)" stroke="none" stroke-width="0" stroke-linecap="butt"/><path d="M270.14307,351.82552c6.09312,-1.91318 12.58351,1.47533 14.49669,7.56846c1.91318,6.09313 -1.47531,12.5835 -7.56844,14.49668c-6.09312,1.91318 -12.58351,-1.47532 -14.49669,-7.56845c-1.91318,-6.09313 1.47532,-12.58351 7.56845,-14.49669z" data-paper-data="{&quot;index&quot;:null}" fill="#ff0000" stroke="none" stroke-width="0.5" stroke-linecap="butt"/><path d="M270.41177,352.6813c5.62048,-1.76477 11.60742,1.36089 13.3722,6.98138c1.76477,5.62048 -1.3609,11.60742 -6.98138,13.37219c-5.62048,1.76477 -11.60742,-1.3609 -13.3722,-6.98137c-1.76478,-5.62049 1.3609,-11.60743 6.98138,-13.37221z" data-paper-data="{&quot;index&quot;:null}" fill="url(#color-95)" stroke="none" stroke-width="0" stroke-linecap="butt"/><path d="M410.006,233.96997c13.25483,0 24,10.74517 24,24c0,13.25483 -10.74517,24 -24,24c-13.25483,0 -24,-10.74517 -24,-24c0,-13.25483 10.74517,-24 24,-24z" data-paper-data="{&quot;index&quot;:null}" fill="url(#color-96)" stroke="none" stroke-width="0" stroke-linecap="butt"/><path d="M410.00602,246.40633c6.38642,0 11.56363,5.17721 11.56363,11.56364c0,6.38643 -5.1772,11.56364 -11.56363,11.56364c-6.38642,0 -11.56364,-5.17721 -11.56364,-11.56364c0,-6.38643 5.17721,-11.56364 11.56364,-11.56364z" data-paper-data="{&quot;index&quot;:null}" fill="#ff0000" stroke="none" stroke-width="0.5" stroke-linecap="butt"/><path d="M410.006,247.30331c5.89104,0 10.66667,4.77563 10.66667,10.66666c0,5.89103 -4.77564,10.66666 -10.66667,10.66666c-5.89103,0 -10.66666,-4.77563 -10.66666,-10.66666c0,-5.89103 4.77563,-10.66666 10.66666,-10.66666z" data-paper-data="{&quot;index&quot;:null}" fill="url(#color-97)" stroke="none" stroke-width="0" stroke-linecap="butt"/><path d="M3.45727,286.11743c3.28451,12.84144 -4.46292,25.9141 -17.30435,29.19862c-12.84144,3.28451 -25.91411,-4.46292 -29.19862,-17.30435c-3.28451,-12.84144 4.46292,-25.9141 17.30436,-29.19861c12.84144,-3.28451 25.9141,4.46292 29.19862,17.30435z" data-paper-data="{&quot;index&quot;:null}" fill="url(#color-98)" stroke="none" stroke-width="0" stroke-linecap="butt"/><path d="M-8.59122,289.19913c1.58254,6.18724 -2.15031,12.48588 -8.33756,14.06842c-6.18725,1.58254 -12.48589,-2.1503 -14.06843,-8.33755c-1.58254,-6.18724 2.15031,-12.48589 8.33756,-14.06843c6.18725,-1.58254 12.48589,2.15031 14.06843,8.33756z" data-paper-data="{&quot;index&quot;:null}" fill="#00c4ff" stroke="none" stroke-width="0.5" stroke-linecap="butt"/><path d="M-9.46022,289.42139c1.45978,5.70731 -1.98352,11.51739 -7.69082,12.97717c-5.7073,1.45978 -11.51738,-1.98353 -12.97716,-7.69083c-1.45978,-5.70731 1.98351,-11.51739 7.69081,-12.97717c5.70731,-1.45978 11.51739,1.98353 12.97717,7.69083z" data-paper-data="{&quot;index&quot;:null}" fill="url(#color-99)" stroke="none" stroke-width="0" stroke-linecap="butt"/><path d="M-0.08497,223.92644c3.28451,12.84144 -4.46292,25.9141 -17.30435,29.19862c-12.84144,3.28451 -25.91411,-4.46292 -29.19862,-17.30435c-3.28451,-12.84144 4.46292,-25.91411 17.30436,-29.19862c12.84144,-3.28451 25.9141,4.46292 29.19861,17.30436z" data-paper-data="{&quot;index&quot;:null}" fill="url(#color-100)" stroke="none" stroke-width="0" stroke-linecap="butt"/><path d="M-12.13347,227.00814c1.58254,6.18724 -2.15031,12.48589 -8.33756,14.06842c-6.18725,1.58254 -12.48589,-2.1503 -14.06843,-8.33755c-1.58254,-6.18724 2.15031,-12.48589 8.33756,-14.06843c6.18725,-1.58254 12.48589,2.1503 14.06843,8.33755z" data-paper-data="{&quot;index&quot;:null}" fill="#38ff00" stroke="none" stroke-width="0.5" stroke-linecap="butt"/><path d="M-13.00246,227.2304c1.45978,5.7073 -1.98353,11.51738 -7.69083,12.97716c-5.7073,1.45978 -11.51737,-1.98352 -12.97715,-7.69082c-1.45978,-5.7073 1.98352,-11.51737 7.69082,-12.97715c5.70731,-1.45978 11.51739,1.98351 12.97717,7.69081z" data-paper-data="{&quot;index&quot;:null}" fill="url(#color-101)" stroke="none" stroke-width="0" stroke-linecap="butt"/><path d="M373.93994,261.02703c13.25483,0 24,10.74517 24,24c0,13.25483 -10.74517,24 -24,24c-13.25483,0 -24,-10.74517 -24,-24c0,-13.25483 10.74517,-24 24,-24z" data-paper-data="{&quot;index&quot;:null}" fill="url(#color-102)" stroke="none" stroke-width="0" stroke-linecap="butt"/><path d="M373.93995,273.46339c6.38642,0 11.56363,5.17721 11.56363,11.56364c0,6.38643 -5.1772,11.56364 -11.56363,11.56364c-6.38642,0 -11.56364,-5.17721 -11.56364,-11.56364c0,-6.38643 5.17721,-11.56364 11.56364,-11.56364z" data-paper-data="{&quot;index&quot;:null}" fill="#38ff00" stroke="none" stroke-width="0.5" stroke-linecap="butt"/><path d="M373.93992,274.36037c5.89104,0 10.66667,4.77563 10.66667,10.66666c0,5.89103 -4.77564,10.66666 -10.66667,10.66666c-5.89103,0 -10.66666,-4.77563 -10.66666,-10.66666c0,-5.89103 4.77563,-10.66666 10.66666,-10.66666z" data-paper-data="{&quot;index&quot;:null}" fill="url(#color-103)" stroke="none" stroke-width="0" stroke-linecap="butt"/><path d="M408.3063,332.01802c0,13.25483 -10.74517,24 -24,24c-13.25483,0 -24,-10.74517 -24,-24c0,-13.25483 10.74517,-24 24,-24c13.25483,0 24,10.74517 24,24z" data-paper-data="{&quot;index&quot;:null}" fill="url(#color-104)" stroke="none" stroke-width="0" stroke-linecap="butt"/><path d="M395.86993,332.01802c0,6.38643 -5.17722,11.56364 -11.56364,11.56364c-6.38643,0 -11.56363,-5.17721 -11.56363,-11.56364c0,-6.38643 5.17721,-11.56364 11.56363,-11.56364c6.38643,0 11.56364,5.17721 11.56364,11.56364z" data-paper-data="{&quot;index&quot;:null}" fill="#00c4ff" stroke="none" stroke-width="0.5" stroke-linecap="butt"/><path d="M394.97297,332.01802c0,5.89103 -4.77563,10.66666 -10.66666,10.66666c-5.89103,0 -10.66667,-4.77563 -10.66667,-10.66666c0,-5.89103 4.77563,-10.66666 10.66667,-10.66666c5.89103,0 10.66666,4.77563 10.66666,10.66666z" data-paper-data="{&quot;index&quot;:null}" fill="url(#color-105)" stroke="none" stroke-width="0" stroke-linecap="butt"/><path d="M-28.87078,187.93704c-3.28451,-12.84144 4.46292,-25.9141 17.30435,-29.19862c12.84144,-3.28451 25.91411,4.46292 29.19862,17.30435c3.28451,12.84144 -4.46292,25.91411 -17.30436,29.19862c-12.84144,3.28451 -25.9141,-4.46292 -29.19861,-17.30436z" data-paper-data="{&quot;index&quot;:null}" fill="url(#color-106)" stroke="none" stroke-width="0" stroke-linecap="butt"/><path d="M-16.82229,184.85534c-1.58254,-6.18724 2.15031,-12.48589 8.33756,-14.06842c6.18725,-1.58254 12.48589,2.1503 14.06843,8.33755c1.58254,6.18724 -2.15031,12.48589 -8.33756,14.06843c-6.18725,1.58254 -12.48589,-2.1503 -14.06843,-8.33755z" data-paper-data="{&quot;index&quot;:null}" fill="#ffa000" stroke="none" stroke-width="0.5" stroke-linecap="butt"/><path d="M-15.95328,184.63309c-1.45978,-5.70731 1.98352,-11.51738 7.69082,-12.97716c5.7073,-1.45978 11.51738,1.98353 12.97716,7.69083c1.45978,5.7073 -1.98352,11.51737 -7.69082,12.97715c-5.7073,1.45978 -11.51737,-1.98352 -12.97715,-7.69082z" data-paper-data="{&quot;index&quot;:null}" fill="url(#color-107)" stroke="none" stroke-width="0" stroke-linecap="butt"/><path d="M233.87687,276.96096c-13.25483,0 -24,-10.74517 -24,-24c0,-13.25483 10.74517,-24 24,-24c13.25483,0 24,10.74517 24,24c0,13.25483 -10.74517,24 -24,24z" data-paper-data="{&quot;index&quot;:null}" fill="url(#color-108)" stroke="none" stroke-width="0" stroke-linecap="butt"/><path d="M233.87687,264.5246c-6.38642,0 -11.56363,-5.17721 -11.56363,-11.56364c0,-6.38643 5.1772,-11.56364 11.56363,-11.56364c6.38642,0 11.56364,5.17721 11.56364,11.56364c0,6.38643 -5.17721,11.56364 -11.56364,11.56364z" data-paper-data="{&quot;index&quot;:null}" fill="#ff00c8" stroke="none" stroke-width="0.5" stroke-linecap="butt"/><path d="M233.87687,263.62763c-5.89104,0 -10.66667,-4.77564 -10.66667,-10.66667c0,-5.89103 4.77564,-10.66666 10.66667,-10.66666c5.89104,0 10.66667,4.77563 10.66667,10.66666c0,5.89104 -4.77564,10.66667 -10.66667,10.66667z" data-paper-data="{&quot;index&quot;:null}" fill="url(#color-109)" stroke="none" stroke-width="0" stroke-linecap="butt"/><path d="M295.006,288.93994c-13.25483,0 -24,-10.74517 -24,-24c0,-13.25483 10.74517,-24 24,-24c13.25483,0 24,10.74517 24,24c0,13.25483 -10.74517,24 -24,24z" data-paper-data="{&quot;index&quot;:null}" fill="url(#color-110)" stroke="none" stroke-width="0" stroke-linecap="butt"/><path d="M295.006,276.50358c-6.38642,0 -11.56363,-5.17721 -11.56363,-11.56364c0,-6.38643 5.1772,-11.56364 11.56363,-11.56364c6.38642,0 11.56364,5.17721 11.56364,11.56364c0,6.38643 -5.17721,11.56364 -11.56364,11.56364z" data-paper-data="{&quot;index&quot;:null}" fill="#0100ff" stroke="none" stroke-width="0.5" stroke-linecap="butt"/><path d="M295.006,275.60661c-5.89103,0 -10.66666,-4.77564 -10.66666,-10.66667c0,-5.89103 4.77563,-10.66666 10.66666,-10.66666c5.89103,0 10.66666,4.77563 10.66666,10.66666c0,5.89104 -4.77563,10.66667 -10.66666,10.66667z" data-paper-data="{&quot;index&quot;:null}" fill="url(#color-111)" stroke="none" stroke-width="0" stroke-linecap="butt"/><path d="M336.006,351.93994c-13.25483,0 -24,-10.74517 -24,-24c0,-13.25483 10.74517,-24 24,-24c13.25483,0 24,10.74517 24,24c0,13.25483 -10.74517,24 -24,24z" data-paper-data="{&quot;index&quot;:null}" fill="url(#color-112)" stroke="none" stroke-width="0" stroke-linecap="butt"/><path d="M336.006,339.50358c-6.38642,0 -11.56363,-5.17721 -11.56363,-11.56364c0,-6.38643 5.1772,-11.56364 11.56363,-11.56364c6.38642,0 11.56364,5.17721 11.56364,11.56364c0,6.38643 -5.17721,11.56364 -11.56364,11.56364z" data-paper-data="{&quot;index&quot;:null}" fill="#0100ff" stroke="none" stroke-width="0.5" stroke-linecap="butt"/><path d="M336.006,338.60661c-5.89103,0 -10.66666,-4.77564 -10.66666,-10.66667c0,-5.89103 4.77563,-10.66666 10.66666,-10.66666c5.89103,0 10.66666,4.77563 10.66666,10.66666c0,5.89104 -4.77563,10.66667 -10.66666,10.66667z" data-paper-data="{&quot;index&quot;:null}" fill="url(#color-113)" stroke="none" stroke-width="0" stroke-linecap="butt"/><path d="M442.56157,170.91592c0,-13.25483 10.74517,-24 24,-24c13.25483,0 24,10.74517 24,24c0,13.25483 -10.74517,24 -24,24c-13.25483,0 -24,-10.74517 -24,-24z" data-paper-data="{&quot;index&quot;:null}" fill="url(#color-114)" stroke="none" stroke-width="0" stroke-linecap="butt"/><path d="M454.99794,170.91592c0,-6.38643 5.17722,-11.56364 11.56364,-11.56364c6.38643,0 11.56363,5.17721 11.56363,11.56364c0,6.38643 -5.17721,11.56364 -11.56363,11.56364c-6.38643,0 -11.56364,-5.17721 -11.56364,-11.56364z" data-paper-data="{&quot;index&quot;:null}" fill="#ffa000" stroke="none" stroke-width="0.5" stroke-linecap="butt"/><path d="M455.89489,170.91592c0,-5.89103 4.77563,-10.66666 10.66666,-10.66666c5.89103,0 10.66667,4.77563 10.66667,10.66666c0,5.89103 -4.77563,10.66666 -10.66667,10.66666c-5.89103,0 -10.66666,-4.77563 -10.66666,-10.66666z" data-paper-data="{&quot;index&quot;:null}" fill="url(#color-115)" stroke="none" stroke-width="0" stroke-linecap="butt"/><path d="M525.87687,190.96096c-13.25483,0 -24,-10.74517 -24,-24c0,-13.25483 10.74517,-24 24,-24c13.25483,0 24,10.74517 24,24c0,13.25483 -10.74517,24 -24,24z" data-paper-data="{&quot;index&quot;:null}" fill="url(#color-116)" stroke="none" stroke-width="0" stroke-linecap="butt"/><path d="M525.87686,178.5246c-6.38642,0 -11.56363,-5.17721 -11.56363,-11.56364c0,-6.38643 5.1772,-11.56364 11.56363,-11.56364c6.38642,0 11.56364,5.17721 11.56364,11.56364c0,6.38643 -5.17721,11.56364 -11.56364,11.56364z" data-paper-data="{&quot;index&quot;:null}" fill="#ff00c8" stroke="none" stroke-width="0.5" stroke-linecap="butt"/><path d="M525.87687,177.62763c-5.89104,0 -10.66667,-4.77564 -10.66667,-10.66667c0,-5.89103 4.77564,-10.66666 10.66667,-10.66666c5.89104,0 10.66667,4.77563 10.66667,10.66666c0,5.89104 -4.77564,10.66667 -10.66667,10.66667z" data-paper-data="{&quot;index&quot;:null}" fill="url(#color-117)" stroke="none" stroke-width="0" stroke-linecap="butt"/><path d="M85.57137,263.50139c19.85136,-3.52839 44.94589,-35.55936 76.39842,-60.81638c31.4735,-25.27387 69.30279,-43.77274 82.57287,-44.17352c42.27511,-1.27676 109.95737,20.58854 109.95737,20.58854" fill="none" stroke="url(#color-118)" stroke-width="50" stroke-linecap="round"/><path d="M353.63637,167.601c0.38494,-6.17445 5.70236,-10.86777 11.87681,-10.48283c6.17445,0.38494 10.86775,5.70236 10.48281,11.87681c-0.38494,6.17445 -5.70234,10.86775 -11.87679,10.48281c-6.17445,-0.38494 -10.86776,-5.70236 -10.48282,-11.87679z" fill="url(#color-119)" stroke="none" stroke-width="0.5" stroke-linecap="butt"/><path d="M360.3986,170.47277c0.25196,-4.04145 3.73248,-7.11344 7.77391,-6.86148c4.04145,0.25197 7.11343,3.73248 6.86147,7.77391c-0.25196,4.04145 -3.73246,7.11344 -7.77391,6.86147c-4.04145,-0.25197 -7.11343,-3.73245 -6.86149,-7.7739z" fill="#000000" stroke="none" stroke-width="0.5" stroke-linecap="butt"/><path d="M351.90652,192.45822c0.37793,-6.06218 5.59869,-10.67016 11.66085,-10.29221c6.06218,0.37794 10.67016,5.59869 10.29221,11.66085c-0.37793,6.06218 -5.59868,10.67016 -11.66085,10.29221c-6.06218,-0.37794 -10.67016,-5.59869 -10.29221,-11.66085z" fill="url(#color-120)" stroke="none" stroke-width="0.5" stroke-linecap="butt"/><path d="M359.81769,193.88909c0.25196,-4.04145 3.73247,-7.11344 7.7739,-6.86148c4.04145,0.25197 7.11344,3.73248 6.86148,7.77391c-0.25196,4.04145 -3.73246,7.11344 -7.77391,6.86149c-4.04145,-0.25197 -7.11343,-3.73247 -6.86147,-7.7739z" fill="#000000" stroke="none" stroke-width="0.5" stroke-linecap="butt"/><path d="M73.05183,274.00289c21.5539,-3.831 48.80065,-38.60909 82.95068,-66.03226c34.17281,-27.44147 75.2465,-47.52688 89.65468,-47.96203c45.90081,-1.38626 119.3878,22.3543 119.3878,22.3543" fill="none" stroke="url(#color-121)" stroke-width="50" stroke-linecap="round"/><path d="M364.70566,273.79053c0,0 71.12419,-0.57406 111.07306,13.31486c12.53988,4.35972 142.56084,33.74166 160.44201,43.05777" data-paper-data="{&quot;index&quot;:null}" fill="none" stroke="url(#color-122)" stroke-width="50" stroke-linecap="round"/><path d="M368.97615,263.07903c-1.48338,6.00594 -7.55468,9.6722 -13.56064,8.18881c-6.00596,-1.48339 -9.6722,-7.55467 -8.18882,-13.56063c1.48339,-6.00596 7.55468,-9.67222 13.56064,-8.18883c6.00596,1.48339 9.67222,7.5547 8.18883,13.56066z" data-paper-data="{&quot;index&quot;:null}" fill="url(#color-123)" stroke="none" stroke-width="0.5" stroke-linecap="butt"/><path d="M360.8488,263.05459c-2.36072,3.28995 -6.94147,4.04326 -10.23144,1.68257c-3.28997,-2.36069 -4.04329,-6.94147 -1.68258,-10.23144c2.36069,-3.28995 6.94147,-4.04329 10.23144,-1.68258c3.28995,2.36069 4.04328,6.94148 1.68258,10.23145z" data-paper-data="{&quot;index&quot;:null}" fill="#000000" stroke="none" stroke-width="0.5" stroke-linecap="butt"/><path d="M349.86209,295.35186c-5.89675,-1.4564 -9.49636,-7.41732 -8.03993,-13.31407c1.4564,-5.89674 7.41732,-9.49635 13.31407,-8.03993c5.89674,1.4564 9.49636,7.41732 8.03993,13.31407c-1.4564,5.89674 -7.41732,9.49635 -13.31407,8.03993z" data-paper-data="{&quot;index&quot;:null}" fill="url(#color-124)" stroke="none" stroke-width="0.5" stroke-linecap="butt"/><path d="M356.45359,284.65155c-0.97094,3.93115 -4.94488,6.33089 -8.87605,5.35995c-3.93116,-0.97095 -6.3309,-4.9449 -5.35996,-8.87607c0.97094,-3.93115 4.94489,-6.3309 8.87606,-5.35996c3.93115,0.97094 6.3309,4.94489 5.35995,8.87605z" data-paper-data="{&quot;index&quot;:null}" fill="#000000" stroke="none" stroke-width="0.5" stroke-linecap="butt"/><path d="M351.06861,269.78175c0,0 77.22411,-0.62329 120.59918,14.45681c13.61535,4.73362 158.80335,38.53194 178.21808,48.64703" data-paper-data="{&quot;index&quot;:null}" fill="none" stroke="none" stroke-width="50" stroke-linecap="round"/><path d="M-181.83612,202.16317c17.88117,-9.3161 147.90214,-38.69805 160.44202,-43.05777c39.94887,-13.88893 111.07306,-13.31486 111.07306,-13.31486" data-paper-data="{&quot;index&quot;:null}" fill="none" stroke="url(#color-125)" stroke-width="50" stroke-linecap="round"/><path d="M85.40846,135.07904c-1.48339,-6.00596 2.18287,-12.07727 8.18883,-13.56065c6.00596,-1.48339 12.07725,2.18287 13.56064,8.18883c1.48339,6.00596 -2.18286,12.07724 -8.18882,13.56063c-6.00596,1.48339 -12.07726,-2.18287 -13.56064,-8.18881z" data-paper-data="{&quot;index&quot;:null}" fill="url(#color-126)" stroke="none" stroke-width="0.5" stroke-linecap="butt"/><path d="M93.37484,134.53822c-0.97094,-3.93117 1.42881,-7.90512 5.35996,-8.87606c3.93117,-0.97093 7.90511,1.42881 8.87605,5.35996c0.97094,3.93117 -1.4288,7.90511 -5.35997,8.87605c-3.93117,0.97093 -7.9051,-1.42879 -8.87606,-5.35995z" data-paper-data="{&quot;index&quot;:null}" fill="#000000" stroke="none" stroke-width="0.5" stroke-linecap="butt"/><path d="M91.20845,159.31193c-1.45643,-5.89675 2.14319,-11.85767 8.03993,-13.31407c5.89675,-1.45641 11.85767,2.14319 13.31407,8.03993c1.45643,5.89675 -2.14318,11.85766 -8.03993,13.31407c-5.89675,1.45641 -11.85767,-2.14319 -13.31407,-8.03993z" data-paper-data="{&quot;index&quot;:null}" fill="url(#color-127)" stroke="none" stroke-width="0.5" stroke-linecap="butt"/><path d="M97.93102,157.65156c-0.97094,-3.93117 1.42881,-7.90512 5.35996,-8.87606c3.93117,-0.97093 7.90512,1.42881 8.87606,5.35996c0.97094,3.93117 -1.42879,7.90512 -5.35996,8.87607c-3.93117,0.97093 -7.90511,-1.42881 -8.87605,-5.35996z" data-paper-data="{&quot;index&quot;:null}" fill="#000000" stroke="none" stroke-width="0.5" stroke-linecap="butt"/><path d="M-195.50125,204.8856c19.41473,-10.11509 164.60272,-43.91341 178.21808,-48.64703c43.37507,-15.08011 120.59918,-14.45682 120.59918,-14.45682" data-paper-data="{&quot;index&quot;:null}" fill="none" stroke="none" stroke-width="50" stroke-linecap="round"/><path d="M-32.5,51l2,-37c0,0 260.95765,-3.60004 315.65179,6.8266c18.27932,3.48469 122.95042,51.45434 158.97469,75.25257c25.98494,17.16608 -5.08996,29.64148 -6.62648,29.92084c-0.51513,0.09366 -69.21609,-35.69908 -134.9141,-59.94264c-35.10987,-12.95607 -70.79091,-20.47051 -91.56729,-22.21915c-106.06699,-8.92707 -243.5186,7.16179 -243.5186,7.16179z" fill="none" stroke="url(#color-128)" stroke-width="50" stroke-linecap="butt"/><path d="M450.22295,89.93994c7.70581,-6.86544 19.51813,-6.18419 26.38355,1.52163c6.86544,7.70581 6.18417,19.5181 -1.52164,26.38354c-7.70581,6.86544 -19.51808,6.18418 -26.38351,-1.52163c-6.86544,-7.70581 -6.18417,-19.51812 1.52161,-26.38352z" data-paper-data="{&quot;index&quot;:null}" fill="url(#color-129)" stroke="none" stroke-width="0.5" stroke-linecap="butt"/><path d="M457.22436,99.27206c5.04381,-4.49373 12.77551,-4.0478 17.26923,0.99598c4.49372,5.04381 4.04778,12.7755 -0.99599,17.26921c-5.04381,4.49373 -12.77548,4.04781 -17.26921,-0.99599c-4.49372,-5.04381 -4.04781,-12.77547 0.99596,-17.26922z" data-paper-data="{&quot;index&quot;:null}" fill="#000000" stroke="none" stroke-width="0.5" stroke-linecap="butt"/><path d="M418.98727,117.36742c7.56568,-6.74062 19.16324,-6.07172 25.9038,1.49397c6.74059,7.5657 6.07173,19.16324 -1.49397,25.9038c-7.56568,6.74062 -19.16321,6.07173 -25.9038,-1.49397c-6.74059,-7.5657 -6.07173,-19.16324 1.49397,-25.90381z" data-paper-data="{&quot;index&quot;:null}" fill="url(#color-130)" stroke="none" stroke-width="0.5" stroke-linecap="butt"/><path d="M427.67185,126.99267c5.04381,-4.49373 12.77551,-4.0478 17.26923,0.99597c4.49372,5.04381 4.0478,12.77551 -0.99598,17.26923c-5.04381,4.49373 -12.7755,4.04782 -17.26924,-0.99597c-4.49372,-5.04381 -4.04779,-12.7755 0.99599,-17.26922z" data-paper-data="{&quot;index&quot;:null}" fill="#000000" stroke="none" stroke-width="0.5" stroke-linecap="butt"/><path d="M-33.83554,263.76793l-12.35261,-174.32887l572.37629,-1.20699v174.79735z" fill="url(#color-131)" stroke="none" stroke-width="0" stroke-linecap="butt"/></g></g></svg>