<svg version="1.1" xmlns="http://www.w3.org/2000/svg" xmlns:xlink="http://www.w3.org/1999/xlink" width="38.92975" height="38.37474" viewBox="0,0,38.92975,38.37474"><defs><radialGradient cx="249.97031" cy="173.8825" r="6.48434" gradientUnits="userSpaceOnUse" id="color-1"><stop offset="0" stop-color="#cfcfcf"/><stop offset="1" stop-color="#ffffff"/></radialGradient><radialGradient cx="250.00904" cy="186.52441" r="6.36645" gradientUnits="userSpaceOnUse" id="color-2"><stop offset="0" stop-color="#cfcfcf"/><stop offset="1" stop-color="#ffffff"/></radialGradient><radialGradient cx="240" cy="180" r="19.46488" gradientUnits="userSpaceOnUse" id="color-3"><stop offset="0" stop-color="#ff5c5c"/><stop offset="1" stop-color="#ff5c5c" stop-opacity="0"/></radialGradient></defs><g transform="translate(-220.53512,-160.81263)"><g data-paper-data="{&quot;isPaintingLayer&quot;:true}" fill-rule="nonzero" stroke="none" stroke-linecap="butt" stroke-linejoin="miter" stroke-miterlimit="10" stroke-dasharray="" stroke-dashoffset="0" style="mix-blend-mode: normal"><path d="M237.81586,163.6452c9.03251,-1.20627 17.33268,5.13815 18.53895,14.17066c1.20627,9.03251 -5.13815,17.33268 -14.17066,18.53895c-9.03251,1.20627 -17.33268,-5.13815 -18.53895,-14.17066c-1.20627,-9.03251 5.13815,-17.33268 14.17066,-18.53895z" fill="#ff0000" stroke-width="0.5"/><path d="M243.49853,173.47902c0.22283,-3.57427 3.30099,-6.29115 6.87526,-6.06831c3.57427,0.22283 6.29114,3.30099 6.0683,6.87526c-0.22283,3.57427 -3.30098,6.29114 -6.87525,6.0683c-3.57427,-0.22283 -6.29115,-3.30099 -6.06831,-6.87525z" fill="url(#color-1)" stroke-width="0.5"/><path d="M247.99194,173.40478c0.14586,-2.33952 2.16066,-4.11784 4.50017,-3.97198c2.33952,0.14586 4.11784,2.16066 3.97198,4.50017c-0.14586,2.33952 -2.16065,4.11784 -4.50017,3.97198c-2.33952,-0.14586 -4.11784,-2.16065 -3.97199,-4.50017z" fill="#000000" stroke-width="0.5"/><path d="M243.65492,186.12827c0.21878,-3.50928 3.24098,-6.17676 6.75025,-5.95797c3.50928,0.21878 6.17676,3.24098 5.95797,6.75025c-0.21878,3.50928 -3.24098,6.17676 -6.75025,5.95797c-3.50928,-0.21878 -6.17676,-3.24098 -5.95797,-6.75025z" fill="url(#color-2)" stroke-width="0.5"/><path d="M247.65566,186.37769c0.14586,-2.33952 2.16066,-4.11784 4.50017,-3.97198c2.33952,0.14586 4.11784,2.16066 3.97198,4.50017c-0.14586,2.33952 -2.16065,4.11784 -4.50017,3.97199c-2.33952,-0.14586 -4.11784,-2.16066 -3.97198,-4.50017z" fill="#000000" stroke-width="0.5"/><path d="M259.46488,180c0,10.59689 -8.71473,19.18737 -19.46488,19.18737c-10.75015,0 -19.46488,-8.59047 -19.46488,-19.18737c0,-10.59689 8.71473,-19.18737 19.46488,-19.18737c10.75015,0 19.46488,8.59047 19.46488,19.18737z" fill="url(#color-3)" stroke-width="0"/></g></g></svg>