<svg version="1.1" xmlns="http://www.w3.org/2000/svg" xmlns:xlink="http://www.w3.org/1999/xlink" width="868.05685" height="366.16078" viewBox="0,0,868.05685,366.16078"><defs><linearGradient x1="85.57137" y1="210.97953" x2="354.50003" y2="210.97953" gradientUnits="userSpaceOnUse" id="color-1"><stop offset="0" stop-color="#cc00ff"/><stop offset="1" stop-color="#1f00ff"/></linearGradient><radialGradient cx="364.81616" cy="168.29801" r="11.2015" gradientUnits="userSpaceOnUse" id="color-2"><stop offset="0" stop-color="#cfcfcf"/><stop offset="1" stop-color="#ffffff"/></radialGradient><radialGradient cx="362.88307" cy="193.14254" r="10.99785" gradientUnits="userSpaceOnUse" id="color-3"><stop offset="0" stop-color="#cfcfcf"/><stop offset="1" stop-color="#ffffff"/></radialGradient><radialGradient cx="219.04842" cy="216.97653" r="145.99658" gradientUnits="userSpaceOnUse" id="color-4"><stop offset="0" stop-color="#cc00ff"/><stop offset="1" stop-color="#cc00ff" stop-opacity="0"/></radialGradient><linearGradient x1="611.71552" y1="384.80879" x2="355.15063" y2="304.20439" gradientUnits="userSpaceOnUse" id="color-5"><stop offset="0" stop-color="#00caff"/><stop offset="1" stop-color="#0067ff"/></linearGradient><radialGradient cx="358.10143" cy="260.39313" r="11.2015" gradientUnits="userSpaceOnUse" id="color-6"><stop offset="0" stop-color="#cfcfcf"/><stop offset="1" stop-color="#ffffff"/></radialGradient><radialGradient cx="352.49916" cy="284.67485" r="10.99785" gradientUnits="userSpaceOnUse" id="color-7"><stop offset="0" stop-color="#cfcfcf"/><stop offset="1" stop-color="#ffffff"/></radialGradient><linearGradient x1="-157.33091" y1="256.80879" x2="99.23399" y2="176.20442" gradientUnits="userSpaceOnUse" id="color-8"><stop offset="0" stop-color="#ff00da"/><stop offset="1" stop-color="#ff0000"/></linearGradient><radialGradient cx="96.28319" cy="132.39314" r="11.2015" gradientUnits="userSpaceOnUse" id="color-9"><stop offset="0" stop-color="#cfcfcf"/><stop offset="1" stop-color="#ffffff"/></radialGradient><radialGradient cx="101.88545" cy="156.67486" r="10.99785" gradientUnits="userSpaceOnUse" id="color-10"><stop offset="0" stop-color="#cfcfcf"/><stop offset="1" stop-color="#ffffff"/></radialGradient><linearGradient x1="113.5" y1="24" x2="393.5" y2="24" gradientUnits="userSpaceOnUse" id="color-11"><stop offset="0" stop-color="#ff0000"/><stop offset="1" stop-color="#31ff00"/></linearGradient><radialGradient cx="462.65389" cy="103.89252" r="18.68695" gradientUnits="userSpaceOnUse" id="color-12"><stop offset="0" stop-color="#cfcfcf"/><stop offset="1" stop-color="#ffffff"/></radialGradient><radialGradient cx="431.19219" cy="131.0663" r="18.34721" gradientUnits="userSpaceOnUse" id="color-13"><stop offset="0" stop-color="#cfcfcf"/><stop offset="1" stop-color="#ffffff"/></radialGradient></defs><g transform="translate(206.83612,10.99762)"><g data-paper-data="{&quot;isPaintingLayer&quot;:true}" fill-rule="nonzero" stroke-linejoin="miter" stroke-miterlimit="10" stroke-dasharray="" stroke-dashoffset="0" style="mix-blend-mode: normal"><path d="M85.57137,263.50139c19.85136,-3.52839 44.94589,-35.55936 76.39842,-60.81638c31.4735,-25.27387 69.30279,-43.77274 82.57287,-44.17352c42.27511,-1.27676 109.95737,20.58854 109.95737,20.58854" fill="none" stroke="url(#color-1)" stroke-width="50" stroke-linecap="round"/><path d="M353.63637,167.601c0.38494,-6.17445 5.70236,-10.86777 11.87681,-10.48283c6.17445,0.38494 10.86775,5.70236 10.48281,11.87681c-0.38494,6.17445 -5.70234,10.86775 -11.87679,10.48281c-6.17445,-0.38494 -10.86776,-5.70236 -10.48282,-11.87679z" fill="url(#color-2)" stroke="none" stroke-width="0.5" stroke-linecap="butt"/><path d="M360.3986,170.47277c0.25196,-4.04145 3.73248,-7.11344 7.77391,-6.86148c4.04145,0.25197 7.11343,3.73248 6.86147,7.77391c-0.25196,4.04145 -3.73246,7.11344 -7.77391,6.86147c-4.04145,-0.25197 -7.11343,-3.73245 -6.86149,-7.7739z" fill="#000000" stroke="none" stroke-width="0.5" stroke-linecap="butt"/><path d="M351.90652,192.45822c0.37793,-6.06218 5.59869,-10.67016 11.66085,-10.29221c6.06218,0.37794 10.67016,5.59869 10.29221,11.66085c-0.37793,6.06218 -5.59868,10.67016 -11.66085,10.29221c-6.06218,-0.37794 -10.67016,-5.59869 -10.29221,-11.66085z" fill="url(#color-3)" stroke="none" stroke-width="0.5" stroke-linecap="butt"/><path d="M359.81769,193.88909c0.25196,-4.04145 3.73247,-7.11344 7.7739,-6.86148c4.04145,0.25197 7.11344,3.73248 6.86148,7.77391c-0.25196,4.04145 -3.73246,7.11344 -7.77391,6.86149c-4.04145,-0.25197 -7.11343,-3.73247 -6.86147,-7.7739z" fill="#000000" stroke="none" stroke-width="0.5" stroke-linecap="butt"/><path d="M73.05183,274.00289c21.5539,-3.831 48.80065,-38.60909 82.95068,-66.03226c34.17281,-27.44147 75.2465,-47.52688 89.65468,-47.96203c45.90081,-1.38626 119.3878,22.3543 119.3878,22.3543" fill="none" stroke="url(#color-4)" stroke-width="50" stroke-linecap="round"/><path d="M364.70566,273.79053c0,0 71.12419,-0.57406 111.07306,13.31486c12.53988,4.35972 142.56084,33.74166 160.44201,43.05777" data-paper-data="{&quot;index&quot;:null}" fill="none" stroke="url(#color-5)" stroke-width="50" stroke-linecap="round"/><path d="M368.97615,263.07903c-1.48338,6.00594 -7.55468,9.6722 -13.56064,8.18881c-6.00596,-1.48339 -9.6722,-7.55467 -8.18882,-13.56063c1.48339,-6.00596 7.55468,-9.67222 13.56064,-8.18883c6.00596,1.48339 9.67222,7.5547 8.18883,13.56066z" data-paper-data="{&quot;index&quot;:null}" fill="url(#color-6)" stroke="none" stroke-width="0.5" stroke-linecap="butt"/><path d="M360.8488,263.05459c-2.36072,3.28995 -6.94147,4.04326 -10.23144,1.68257c-3.28997,-2.36069 -4.04329,-6.94147 -1.68258,-10.23144c2.36069,-3.28995 6.94147,-4.04329 10.23144,-1.68258c3.28995,2.36069 4.04328,6.94148 1.68258,10.23145z" data-paper-data="{&quot;index&quot;:null}" fill="#000000" stroke="none" stroke-width="0.5" stroke-linecap="butt"/><path d="M349.86209,295.35186c-5.89675,-1.4564 -9.49636,-7.41732 -8.03993,-13.31407c1.4564,-5.89674 7.41732,-9.49635 13.31407,-8.03993c5.89674,1.4564 9.49636,7.41732 8.03993,13.31407c-1.4564,5.89674 -7.41732,9.49635 -13.31407,8.03993z" data-paper-data="{&quot;index&quot;:null}" fill="url(#color-7)" stroke="none" stroke-width="0.5" stroke-linecap="butt"/><path d="M356.45359,284.65155c-0.97094,3.93115 -4.94488,6.33089 -8.87605,5.35995c-3.93116,-0.97095 -6.3309,-4.9449 -5.35996,-8.87607c0.97094,-3.93115 4.94489,-6.3309 8.87606,-5.35996c3.93115,0.97094 6.3309,4.94489 5.35995,8.87605z" data-paper-data="{&quot;index&quot;:null}" fill="#000000" stroke="none" stroke-width="0.5" stroke-linecap="butt"/><path d="M351.06861,269.78175c0,0 77.22411,-0.62329 120.59918,14.45681c13.61535,4.73362 158.80335,38.53194 178.21808,48.64703" data-paper-data="{&quot;index&quot;:null}" fill="none" stroke="none" stroke-width="50" stroke-linecap="round"/><path d="M-181.83612,202.16317c17.88117,-9.3161 147.90214,-38.69805 160.44202,-43.05777c39.94887,-13.88893 111.07306,-13.31486 111.07306,-13.31486" data-paper-data="{&quot;index&quot;:null}" fill="none" stroke="url(#color-8)" stroke-width="50" stroke-linecap="round"/><path d="M85.40846,135.07904c-1.48339,-6.00596 2.18287,-12.07727 8.18883,-13.56065c6.00596,-1.48339 12.07725,2.18287 13.56064,8.18883c1.48339,6.00596 -2.18286,12.07724 -8.18882,13.56063c-6.00596,1.48339 -12.07726,-2.18287 -13.56064,-8.18881z" data-paper-data="{&quot;index&quot;:null}" fill="url(#color-9)" stroke="none" stroke-width="0.5" stroke-linecap="butt"/><path d="M93.37484,134.53822c-0.97094,-3.93117 1.42881,-7.90512 5.35996,-8.87606c3.93117,-0.97093 7.90511,1.42881 8.87605,5.35996c0.97094,3.93117 -1.4288,7.90511 -5.35997,8.87605c-3.93117,0.97093 -7.9051,-1.42879 -8.87606,-5.35995z" data-paper-data="{&quot;index&quot;:null}" fill="#000000" stroke="none" stroke-width="0.5" stroke-linecap="butt"/><path d="M91.20845,159.31193c-1.45643,-5.89675 2.14319,-11.85767 8.03993,-13.31407c5.89675,-1.45641 11.85767,2.14319 13.31407,8.03993c1.45643,5.89675 -2.14318,11.85766 -8.03993,13.31407c-5.89675,1.45641 -11.85767,-2.14319 -13.31407,-8.03993z" data-paper-data="{&quot;index&quot;:null}" fill="url(#color-10)" stroke="none" stroke-width="0.5" stroke-linecap="butt"/><path d="M97.93102,157.65156c-0.97094,-3.93117 1.42881,-7.90512 5.35996,-8.87606c3.93117,-0.97093 7.90512,1.42881 8.87606,5.35996c0.97094,3.93117 -1.42879,7.90512 -5.35996,8.87607c-3.93117,0.97093 -7.90511,-1.42881 -8.87605,-5.35996z" data-paper-data="{&quot;index&quot;:null}" fill="#000000" stroke="none" stroke-width="0.5" stroke-linecap="butt"/><path d="M-195.50125,204.8856c19.41473,-10.11509 164.60272,-43.91341 178.21808,-48.64703c43.37507,-15.08011 120.59918,-14.45682 120.59918,-14.45682" data-paper-data="{&quot;index&quot;:null}" fill="none" stroke="none" stroke-width="50" stroke-linecap="round"/><path d="M-32.5,51l2,-37c0,0 260.95765,-3.60004 315.65179,6.8266c18.27932,3.48469 122.95042,51.45434 158.97469,75.25257c25.98494,17.16608 -5.08996,29.64148 -6.62648,29.92084c-0.51513,0.09366 -69.21609,-35.69908 -134.9141,-59.94264c-35.10987,-12.95607 -70.79091,-20.47051 -91.56729,-22.21915c-106.06699,-8.92707 -243.5186,7.16179 -243.5186,7.16179z" fill="none" stroke="url(#color-11)" stroke-width="50" stroke-linecap="butt"/><path d="M450.22295,89.93994c7.70581,-6.86544 19.51813,-6.18419 26.38355,1.52163c6.86544,7.70581 6.18417,19.5181 -1.52164,26.38354c-7.70581,6.86544 -19.51808,6.18418 -26.38351,-1.52163c-6.86544,-7.70581 -6.18417,-19.51812 1.52161,-26.38352z" data-paper-data="{&quot;index&quot;:null}" fill="url(#color-12)" stroke="none" stroke-width="0.5" stroke-linecap="butt"/><path d="M457.22436,99.27206c5.04381,-4.49373 12.77551,-4.0478 17.26923,0.99598c4.49372,5.04381 4.04778,12.7755 -0.99599,17.26921c-5.04381,4.49373 -12.77548,4.04781 -17.26921,-0.99599c-4.49372,-5.04381 -4.04781,-12.77547 0.99596,-17.26922z" data-paper-data="{&quot;index&quot;:null}" fill="#000000" stroke="none" stroke-width="0.5" stroke-linecap="butt"/><path d="M418.98727,117.36742c7.56568,-6.74062 19.16324,-6.07172 25.9038,1.49397c6.74059,7.5657 6.07173,19.16324 -1.49397,25.9038c-7.56568,6.74062 -19.16321,6.07173 -25.9038,-1.49397c-6.74059,-7.5657 -6.07173,-19.16324 1.49397,-25.90381z" data-paper-data="{&quot;index&quot;:null}" fill="url(#color-13)" stroke="none" stroke-width="0.5" stroke-linecap="butt"/><path d="M427.67185,126.99267c5.04381,-4.49373 12.77551,-4.0478 17.26923,0.99597c4.49372,5.04381 4.0478,12.77551 -0.99598,17.26923c-5.04381,4.49373 -12.7755,4.04782 -17.26924,-0.99597c-4.49372,-5.04381 -4.04779,-12.7755 0.99599,-17.26922z" data-paper-data="{&quot;index&quot;:null}" fill="#000000" stroke="none" stroke-width="0.5" stroke-linecap="butt"/></g></g></svg>