<svg version="1.1" xmlns="http://www.w3.org/2000/svg" xmlns:xlink="http://www.w3.org/1999/xlink" width="22" height="22" viewBox="0,0,22,22"><defs><radialGradient cx="240" cy="180" r="11" gradientUnits="userSpaceOnUse" id="color-1"><stop offset="0" stop-color="#ff0000"/><stop offset="1" stop-color="#ff0000" stop-opacity="0"/></radialGradient><radialGradient cx="240" cy="180" r="3.9375" gradientUnits="userSpaceOnUse" id="color-2"><stop offset="0" stop-color="#ffbfbf"/><stop offset="1" stop-color="#ffbfbf" stop-opacity="0"/></radialGradient></defs><g transform="translate(-229,-169)"><g data-paper-data="{&quot;isPaintingLayer&quot;:true}" fill-rule="nonzero" stroke="none" stroke-linecap="butt" stroke-linejoin="miter" stroke-miterlimit="10" stroke-dasharray="" stroke-dashoffset="0" style="mix-blend-mode: normal"><path d="M229,180c0,-6.07513 4.92487,-11 11,-11c6.07513,0 11,4.92487 11,11c0,6.07513 -4.92487,11 -11,11c-6.07513,0 -11,-4.92487 -11,-11z" fill="url(#color-1)" stroke-width="0"/><path d="M234.7,180c0,-2.92711 2.37289,-5.3 5.3,-5.3c2.92711,0 5.3,2.37289 5.3,5.3c0,2.92711 -2.37289,5.3 -5.3,5.3c-2.92711,0 -5.3,-2.37289 -5.3,-5.3z" fill="#ff0000" stroke-width="0.5"/><path d="M236.0625,180c0,-2.17462 1.76288,-3.9375 3.9375,-3.9375c2.17462,0 3.9375,1.76288 3.9375,3.9375c0,2.17462 -1.76288,3.9375 -3.9375,3.9375c-2.17462,0 -3.9375,-1.76288 -3.9375,-3.9375z" fill="url(#color-2)" stroke-width="0"/></g></g></svg>