<svg version="1.1" xmlns="http://www.w3.org/2000/svg" xmlns:xlink="http://www.w3.org/1999/xlink" width="767.29841" height="504.6182" viewBox="0,0,767.29841,504.6182"><defs><radialGradient cx="434.36437" cy="195.34195" r="25.95374" gradientUnits="userSpaceOnUse" id="color-1"><stop offset="0" stop-color="#ff0000"/><stop offset="1" stop-color="#ff0000" stop-opacity="0"/></radialGradient><radialGradient cx="434.36437" cy="195.34195" r="11.53499" gradientUnits="userSpaceOnUse" id="color-2"><stop offset="0" stop-color="#ffc2c2"/><stop offset="1" stop-color="#ffc2c2" stop-opacity="0"/></radialGradient><radialGradient cx="509.10805" cy="70.86983" r="25.95375" gradientUnits="userSpaceOnUse" id="color-3"><stop offset="0" stop-color="#ff0000"/><stop offset="1" stop-color="#ff0000" stop-opacity="0"/></radialGradient><radialGradient cx="509.10805" cy="70.86983" r="11.53501" gradientUnits="userSpaceOnUse" id="color-4"><stop offset="0" stop-color="#ffc2c2"/><stop offset="1" stop-color="#ffc2c2" stop-opacity="0"/></radialGradient><radialGradient cx="459.84398" cy="130.39587" r="25.95375" gradientUnits="userSpaceOnUse" id="color-5"><stop offset="0" stop-color="#00b8ff"/><stop offset="1" stop-color="#00b8ff" stop-opacity="0"/></radialGradient><radialGradient cx="459.84398" cy="130.39587" r="11.53501" gradientUnits="userSpaceOnUse" id="color-6"><stop offset="0" stop-color="#c2f4ff"/><stop offset="1" stop-color="#c2f4ff" stop-opacity="0"/></radialGradient><radialGradient cx="393.73856" cy="143.35002" r="25.95375" gradientUnits="userSpaceOnUse" id="color-7"><stop offset="0" stop-color="#1fff00"/><stop offset="1" stop-color="#1fff00" stop-opacity="0"/></radialGradient><radialGradient cx="393.73856" cy="143.35002" r="11.53499" gradientUnits="userSpaceOnUse" id="color-8"><stop offset="0" stop-color="#c3ffc2"/><stop offset="1" stop-color="#c3ffc2" stop-opacity="0"/></radialGradient><radialGradient cx="470.10598" cy="41.61016" r="25.95375" gradientUnits="userSpaceOnUse" id="color-9"><stop offset="0" stop-color="#1fff00"/><stop offset="1" stop-color="#1fff00" stop-opacity="0"/></radialGradient><radialGradient cx="470.10598" cy="41.61016" r="11.535" gradientUnits="userSpaceOnUse" id="color-10"><stop offset="0" stop-color="#c3ffc2"/><stop offset="1" stop-color="#c3ffc2" stop-opacity="0"/></radialGradient><radialGradient cx="412.0153" cy="0.01662" r="25.95375" gradientUnits="userSpaceOnUse" id="color-11"><stop offset="0" stop-color="#ff0000"/><stop offset="1" stop-color="#ff0000" stop-opacity="0"/></radialGradient><radialGradient cx="412.0153" cy="0.01662" r="11.535" gradientUnits="userSpaceOnUse" id="color-12"><stop offset="0" stop-color="#ffc2c2"/><stop offset="1" stop-color="#ffc2c2" stop-opacity="0"/></radialGradient><radialGradient cx="481.31623" cy="-9.20619" r="25.95375" gradientUnits="userSpaceOnUse" id="color-13"><stop offset="0" stop-color="#00b8ff"/><stop offset="1" stop-color="#00b8ff" stop-opacity="0"/></radialGradient><radialGradient cx="481.31623" cy="-9.20619" r="11.535" gradientUnits="userSpaceOnUse" id="color-14"><stop offset="0" stop-color="#c2f4ff"/><stop offset="1" stop-color="#c2f4ff" stop-opacity="0"/></radialGradient><radialGradient cx="348.3195" cy="174.74328" r="25.95375" gradientUnits="userSpaceOnUse" id="color-15"><stop offset="0" stop-color="#ff8800"/><stop offset="1" stop-color="#ff8800" stop-opacity="0"/></radialGradient><radialGradient cx="348.3195" cy="174.74328" r="11.53501" gradientUnits="userSpaceOnUse" id="color-16"><stop offset="0" stop-color="#ffe8c2"/><stop offset="1" stop-color="#ffe8c2" stop-opacity="0"/></radialGradient><radialGradient cx="318.64092" cy="76.2866" r="25.95375" gradientUnits="userSpaceOnUse" id="color-17"><stop offset="0" stop-color="#ff0097"/><stop offset="1" stop-color="#ff0097" stop-opacity="0"/></radialGradient><radialGradient cx="318.64092" cy="76.2866" r="11.535" gradientUnits="userSpaceOnUse" id="color-18"><stop offset="0" stop-color="#ffc2e9"/><stop offset="1" stop-color="#ffc2e9" stop-opacity="0"/></radialGradient><radialGradient cx="384.74634" cy="63.33246" r="25.95375" gradientUnits="userSpaceOnUse" id="color-19"><stop offset="0" stop-color="#000bff"/><stop offset="1" stop-color="#000bff" stop-opacity="0"/></radialGradient><radialGradient cx="384.74634" cy="63.33246" r="11.53499" gradientUnits="userSpaceOnUse" id="color-20"><stop offset="0" stop-color="#d1c2ff"/><stop offset="1" stop-color="#d1c2ff" stop-opacity="0"/></radialGradient><radialGradient cx="241.21096" cy="60.17676" r="25.95375" gradientUnits="userSpaceOnUse" id="color-21"><stop offset="0" stop-color="#ff0000"/><stop offset="1" stop-color="#ff0000" stop-opacity="0"/></radialGradient><radialGradient cx="241.21096" cy="60.17676" r="11.53499" gradientUnits="userSpaceOnUse" id="color-22"><stop offset="0" stop-color="#ffc2c2"/><stop offset="1" stop-color="#ffc2c2" stop-opacity="0"/></radialGradient><radialGradient cx="93.70842" cy="173.60342" r="25.95375" gradientUnits="userSpaceOnUse" id="color-23"><stop offset="0" stop-color="#ff0000"/><stop offset="1" stop-color="#ff0000" stop-opacity="0"/></radialGradient><radialGradient cx="93.70842" cy="173.60342" r="11.535" gradientUnits="userSpaceOnUse" id="color-24"><stop offset="0" stop-color="#ffc2c2"/><stop offset="1" stop-color="#ffc2c2" stop-opacity="0"/></radialGradient><radialGradient cx="197.44562" cy="5.84629" r="25.95375" gradientUnits="userSpaceOnUse" id="color-25"><stop offset="0" stop-color="#00b8ff"/><stop offset="1" stop-color="#00b8ff" stop-opacity="0"/></radialGradient><radialGradient cx="197.44562" cy="5.84629" r="11.535" gradientUnits="userSpaceOnUse" id="color-26"><stop offset="0" stop-color="#c2f4ff"/><stop offset="1" stop-color="#c2f4ff" stop-opacity="0"/></radialGradient><radialGradient cx="264.39578" cy="-1.59768" r="25.95375" gradientUnits="userSpaceOnUse" id="color-27"><stop offset="0" stop-color="#1fff00"/><stop offset="1" stop-color="#1fff00" stop-opacity="0"/></radialGradient><radialGradient cx="264.39578" cy="-1.59768" r="11.53499" gradientUnits="userSpaceOnUse" id="color-28"><stop offset="0" stop-color="#c3ffc2"/><stop offset="1" stop-color="#c3ffc2" stop-opacity="0"/></radialGradient><radialGradient cx="132.7105" cy="144.34375" r="25.95375" gradientUnits="userSpaceOnUse" id="color-29"><stop offset="0" stop-color="#1fff00"/><stop offset="1" stop-color="#1fff00" stop-opacity="0"/></radialGradient><radialGradient cx="132.7105" cy="144.34375" r="11.535" gradientUnits="userSpaceOnUse" id="color-30"><stop offset="0" stop-color="#c3ffc2"/><stop offset="1" stop-color="#c3ffc2" stop-opacity="0"/></radialGradient><radialGradient cx="121.50025" cy="93.5274" r="25.95375" gradientUnits="userSpaceOnUse" id="color-31"><stop offset="0" stop-color="#00b8ff"/><stop offset="1" stop-color="#00b8ff" stop-opacity="0"/></radialGradient><radialGradient cx="121.50025" cy="93.5274" r="11.535" gradientUnits="userSpaceOnUse" id="color-32"><stop offset="0" stop-color="#c2f4ff"/><stop offset="1" stop-color="#c2f4ff" stop-opacity="0"/></radialGradient><radialGradient cx="317.1334" cy="14.74764" r="25.95375" gradientUnits="userSpaceOnUse" id="color-33"><stop offset="0" stop-color="#ff8800"/><stop offset="1" stop-color="#ff8800" stop-opacity="0"/></radialGradient><radialGradient cx="317.1334" cy="14.74764" r="11.53501" gradientUnits="userSpaceOnUse" id="color-34"><stop offset="0" stop-color="#ffe8c2"/><stop offset="1" stop-color="#ffe8c2" stop-opacity="0"/></radialGradient><radialGradient cx="284.17556" cy="179.02019" r="25.95374" gradientUnits="userSpaceOnUse" id="color-35"><stop offset="0" stop-color="#ff0097"/><stop offset="1" stop-color="#ff0097" stop-opacity="0"/></radialGradient><radialGradient cx="284.17556" cy="179.02019" r="11.535" gradientUnits="userSpaceOnUse" id="color-36"><stop offset="0" stop-color="#ffc2e9"/><stop offset="1" stop-color="#ffc2e9" stop-opacity="0"/></radialGradient><radialGradient cx="218.07014" cy="166.06605" r="25.95375" gradientUnits="userSpaceOnUse" id="color-37"><stop offset="0" stop-color="#000bff"/><stop offset="1" stop-color="#000bff" stop-opacity="0"/></radialGradient><radialGradient cx="218.07014" cy="166.06605" r="11.53499" gradientUnits="userSpaceOnUse" id="color-38"><stop offset="0" stop-color="#d1c2ff"/><stop offset="1" stop-color="#d1c2ff" stop-opacity="0"/></radialGradient><radialGradient cx="173.73249" cy="97.93746" r="25.95375" gradientUnits="userSpaceOnUse" id="color-39"><stop offset="0" stop-color="#000bff"/><stop offset="1" stop-color="#000bff" stop-opacity="0"/></radialGradient><radialGradient cx="173.73249" cy="97.93746" r="11.535" gradientUnits="userSpaceOnUse" id="color-40"><stop offset="0" stop-color="#d1c2ff"/><stop offset="1" stop-color="#d1c2ff" stop-opacity="0"/></radialGradient><radialGradient cx="121.22421" cy="24.42782" r="25.95375" gradientUnits="userSpaceOnUse" id="color-41"><stop offset="0" stop-color="#ff8800"/><stop offset="1" stop-color="#ff8800" stop-opacity="0"/></radialGradient><radialGradient cx="121.22421" cy="24.42782" r="11.535" gradientUnits="userSpaceOnUse" id="color-42"><stop offset="0" stop-color="#ffe8c2"/><stop offset="1" stop-color="#ffe8c2" stop-opacity="0"/></radialGradient><radialGradient cx="57.08026" cy="28.70473" r="25.95375" gradientUnits="userSpaceOnUse" id="color-43"><stop offset="0" stop-color="#ff0097"/><stop offset="1" stop-color="#ff0097" stop-opacity="0"/></radialGradient><radialGradient cx="57.08026" cy="28.70473" r="11.535" gradientUnits="userSpaceOnUse" id="color-44"><stop offset="0" stop-color="#ffc2e9"/><stop offset="1" stop-color="#ffc2e9" stop-opacity="0"/></radialGradient><radialGradient cx="123.17269" cy="221.13333" r="25.95375" gradientUnits="userSpaceOnUse" id="color-45"><stop offset="0" stop-color="#ff0000"/><stop offset="1" stop-color="#ff0000" stop-opacity="0"/></radialGradient><radialGradient cx="123.17269" cy="221.13333" r="11.53499" gradientUnits="userSpaceOnUse" id="color-46"><stop offset="0" stop-color="#ffc2c2"/><stop offset="1" stop-color="#ffc2c2" stop-opacity="0"/></radialGradient><radialGradient cx="48.42901" cy="345.60545" r="25.95375" gradientUnits="userSpaceOnUse" id="color-47"><stop offset="0" stop-color="#ff0000"/><stop offset="1" stop-color="#ff0000" stop-opacity="0"/></radialGradient><radialGradient cx="48.42901" cy="345.60545" r="11.53501" gradientUnits="userSpaceOnUse" id="color-48"><stop offset="0" stop-color="#ffc2c2"/><stop offset="1" stop-color="#ffc2c2" stop-opacity="0"/></radialGradient><radialGradient cx="97.69308" cy="286.07941" r="25.95375" gradientUnits="userSpaceOnUse" id="color-49"><stop offset="0" stop-color="#00b8ff"/><stop offset="1" stop-color="#00b8ff" stop-opacity="0"/></radialGradient><radialGradient cx="97.69308" cy="286.07941" r="11.53501" gradientUnits="userSpaceOnUse" id="color-50"><stop offset="0" stop-color="#c2f4ff"/><stop offset="1" stop-color="#c2f4ff" stop-opacity="0"/></radialGradient><radialGradient cx="163.7985" cy="273.12526" r="25.95375" gradientUnits="userSpaceOnUse" id="color-51"><stop offset="0" stop-color="#1fff00"/><stop offset="1" stop-color="#1fff00" stop-opacity="0"/></radialGradient><radialGradient cx="163.7985" cy="273.12526" r="11.53499" gradientUnits="userSpaceOnUse" id="color-52"><stop offset="0" stop-color="#c3ffc2"/><stop offset="1" stop-color="#c3ffc2" stop-opacity="0"/></radialGradient><radialGradient cx="4.76478" cy="65.16946" r="25.95375" gradientUnits="userSpaceOnUse" id="color-53"><stop offset="0" stop-color="#ff0000"/><stop offset="1" stop-color="#ff0000" stop-opacity="0"/></radialGradient><radialGradient cx="4.76478" cy="65.16946" r="11.53501" gradientUnits="userSpaceOnUse" id="color-54"><stop offset="0" stop-color="#ffc2c2"/><stop offset="1" stop-color="#ffc2c2" stop-opacity="0"/></radialGradient><radialGradient cx="-0.71558" cy="-4.52735" r="25.95375" gradientUnits="userSpaceOnUse" id="color-55"><stop offset="0" stop-color="#00b8ff"/><stop offset="1" stop-color="#00b8ff" stop-opacity="0"/></radialGradient><radialGradient cx="-0.71558" cy="-4.52735" r="11.53501" gradientUnits="userSpaceOnUse" id="color-56"><stop offset="0" stop-color="#c2f4ff"/><stop offset="1" stop-color="#c2f4ff" stop-opacity="0"/></radialGradient><radialGradient cx="209.21756" cy="241.73201" r="25.95375" gradientUnits="userSpaceOnUse" id="color-57"><stop offset="0" stop-color="#ff8800"/><stop offset="1" stop-color="#ff8800" stop-opacity="0"/></radialGradient><radialGradient cx="209.21756" cy="241.73201" r="11.535" gradientUnits="userSpaceOnUse" id="color-58"><stop offset="0" stop-color="#ffe8c2"/><stop offset="1" stop-color="#ffe8c2" stop-opacity="0"/></radialGradient><radialGradient cx="238.89614" cy="340.18868" r="25.95375" gradientUnits="userSpaceOnUse" id="color-59"><stop offset="0" stop-color="#ff0097"/><stop offset="1" stop-color="#ff0097" stop-opacity="0"/></radialGradient><radialGradient cx="238.89614" cy="340.18868" r="11.535" gradientUnits="userSpaceOnUse" id="color-60"><stop offset="0" stop-color="#ffc2e9"/><stop offset="1" stop-color="#ffc2e9" stop-opacity="0"/></radialGradient><radialGradient cx="172.79072" cy="353.14282" r="25.95375" gradientUnits="userSpaceOnUse" id="color-61"><stop offset="0" stop-color="#000bff"/><stop offset="1" stop-color="#000bff" stop-opacity="0"/></radialGradient><radialGradient cx="172.79072" cy="353.14282" r="11.535" gradientUnits="userSpaceOnUse" id="color-62"><stop offset="0" stop-color="#d1c2ff"/><stop offset="1" stop-color="#d1c2ff" stop-opacity="0"/></radialGradient><radialGradient cx="316.3261" cy="356.29853" r="25.95375" gradientUnits="userSpaceOnUse" id="color-63"><stop offset="0" stop-color="#ff0000"/><stop offset="1" stop-color="#ff0000" stop-opacity="0"/></radialGradient><radialGradient cx="316.3261" cy="356.29853" r="11.53499" gradientUnits="userSpaceOnUse" id="color-64"><stop offset="0" stop-color="#ffc2c2"/><stop offset="1" stop-color="#ffc2c2" stop-opacity="0"/></radialGradient><radialGradient cx="463.82863" cy="242.87187" r="25.95375" gradientUnits="userSpaceOnUse" id="color-65"><stop offset="0" stop-color="#ff0000"/><stop offset="1" stop-color="#ff0000" stop-opacity="0"/></radialGradient><radialGradient cx="463.82863" cy="242.87187" r="11.53501" gradientUnits="userSpaceOnUse" id="color-66"><stop offset="0" stop-color="#ffc2c2"/><stop offset="1" stop-color="#ffc2c2" stop-opacity="0"/></radialGradient><radialGradient cx="-0.96" cy="279.74197" r="25.95375" gradientUnits="userSpaceOnUse" id="color-67"><stop offset="0" stop-color="#00b8ff"/><stop offset="1" stop-color="#00b8ff" stop-opacity="0"/></radialGradient><radialGradient cx="-0.96" cy="279.74197" r="11.53501" gradientUnits="userSpaceOnUse" id="color-68"><stop offset="0" stop-color="#c2f4ff"/><stop offset="1" stop-color="#c2f4ff" stop-opacity="0"/></radialGradient><radialGradient cx="-4.7906" cy="212.48824" r="25.95375" gradientUnits="userSpaceOnUse" id="color-69"><stop offset="0" stop-color="#1fff00"/><stop offset="1" stop-color="#1fff00" stop-opacity="0"/></radialGradient><radialGradient cx="-4.7906" cy="212.48824" r="11.53499" gradientUnits="userSpaceOnUse" id="color-70"><stop offset="0" stop-color="#c3ffc2"/><stop offset="1" stop-color="#c3ffc2" stop-opacity="0"/></radialGradient><radialGradient cx="424.82656" cy="272.13154" r="25.95375" gradientUnits="userSpaceOnUse" id="color-71"><stop offset="0" stop-color="#1fff00"/><stop offset="1" stop-color="#1fff00" stop-opacity="0"/></radialGradient><radialGradient cx="424.82656" cy="272.13154" r="11.53501" gradientUnits="userSpaceOnUse" id="color-72"><stop offset="0" stop-color="#c3ffc2"/><stop offset="1" stop-color="#c3ffc2" stop-opacity="0"/></radialGradient><radialGradient cx="436.03682" cy="322.94788" r="25.95375" gradientUnits="userSpaceOnUse" id="color-73"><stop offset="0" stop-color="#00b8ff"/><stop offset="1" stop-color="#00b8ff" stop-opacity="0"/></radialGradient><radialGradient cx="436.03682" cy="322.94788" r="11.535" gradientUnits="userSpaceOnUse" id="color-74"><stop offset="0" stop-color="#c2f4ff"/><stop offset="1" stop-color="#c2f4ff" stop-opacity="0"/></radialGradient><radialGradient cx="14.36886" cy="160.70656" r="25.95375" gradientUnits="userSpaceOnUse" id="color-75"><stop offset="0" stop-color="#ff8800"/><stop offset="1" stop-color="#ff8800" stop-opacity="0"/></radialGradient><radialGradient cx="14.36886" cy="160.70656" r="11.53501" gradientUnits="userSpaceOnUse" id="color-76"><stop offset="0" stop-color="#ffe8c2"/><stop offset="1" stop-color="#ffe8c2" stop-opacity="0"/></radialGradient><radialGradient cx="273.3615" cy="237.45509" r="25.95375" gradientUnits="userSpaceOnUse" id="color-77"><stop offset="0" stop-color="#ff0097"/><stop offset="1" stop-color="#ff0097" stop-opacity="0"/></radialGradient><radialGradient cx="273.3615" cy="237.45509" r="11.53501" gradientUnits="userSpaceOnUse" id="color-78"><stop offset="0" stop-color="#ffc2e9"/><stop offset="1" stop-color="#ffc2e9" stop-opacity="0"/></radialGradient><radialGradient cx="339.46692" cy="250.40923" r="25.95375" gradientUnits="userSpaceOnUse" id="color-79"><stop offset="0" stop-color="#000bff"/><stop offset="1" stop-color="#000bff" stop-opacity="0"/></radialGradient><radialGradient cx="339.46692" cy="250.40923" r="11.535" gradientUnits="userSpaceOnUse" id="color-80"><stop offset="0" stop-color="#d1c2ff"/><stop offset="1" stop-color="#d1c2ff" stop-opacity="0"/></radialGradient><radialGradient cx="383.80457" cy="318.53782" r="25.95375" gradientUnits="userSpaceOnUse" id="color-81"><stop offset="0" stop-color="#000bff"/><stop offset="1" stop-color="#000bff" stop-opacity="0"/></radialGradient><radialGradient cx="383.80457" cy="318.53782" r="11.53499" gradientUnits="userSpaceOnUse" id="color-82"><stop offset="0" stop-color="#d1c2ff"/><stop offset="1" stop-color="#d1c2ff" stop-opacity="0"/></radialGradient><radialGradient cx="524.98816" cy="148.73108" r="25.95375" gradientUnits="userSpaceOnUse" id="color-83"><stop offset="0" stop-color="#ff8800"/><stop offset="1" stop-color="#ff8800" stop-opacity="0"/></radialGradient><radialGradient cx="524.98816" cy="148.73108" r="11.535" gradientUnits="userSpaceOnUse" id="color-84"><stop offset="0" stop-color="#ffe8c2"/><stop offset="1" stop-color="#ffe8c2" stop-opacity="0"/></radialGradient><radialGradient cx="541.55023" cy="291.5254" r="25.95375" gradientUnits="userSpaceOnUse" id="color-85"><stop offset="0" stop-color="#ff0097"/><stop offset="1" stop-color="#ff0097" stop-opacity="0"/></radialGradient><radialGradient cx="541.55023" cy="291.5254" r="11.535" gradientUnits="userSpaceOnUse" id="color-86"><stop offset="0" stop-color="#ffc2e9"/><stop offset="1" stop-color="#ffc2e9" stop-opacity="0"/></radialGradient></defs><g transform="translate(160.99687,111.81818)"><g data-paper-data="{&quot;isPaintingLayer&quot;:true}" fill-rule="nonzero" stroke-linejoin="miter" stroke-miterlimit="10" stroke-dasharray="" stroke-dashoffset="0" style="mix-blend-mode: normal"><path d="M554.11955,-46.3718v418.50419h-563.41263v-418.50419z" data-paper-data="{&quot;index&quot;:null}" fill="#272727" stroke="#000000" stroke-width="0" stroke-linecap="butt"/><path d="M146.78989,90.02957l63.44249,-0.36047l26.67468,50.10514l-23.43046,49.38422h-68.12859l-25.59327,-50.46562z" fill="none" stroke="#747474" stroke-width="5" stroke-linecap="round"/><path d="M237.62801,40.28489l63.44249,-0.36047l26.67469,50.10515l-23.43047,49.38421h-68.12859l-25.59327,-50.46562z" fill="none" stroke="#747474" stroke-width="5" stroke-linecap="round"/><path d="M238.70942,139.77423l63.44249,-0.36046l26.67469,50.10515l-23.43047,49.38422h-68.12859l-25.59327,-50.46562z" fill="none" stroke="#747474" stroke-width="5" stroke-linecap="round"/><path d="M328.46612,91.11098l63.4425,-0.36046l26.67469,50.10515l-23.43047,49.38422h-68.12859l-25.59328,-50.46563z" fill="none" stroke="#747474" stroke-width="5" stroke-linecap="round"/><path d="M419.30425,41.36629l63.4425,-0.36046l26.67469,50.10515l-23.43047,49.38422h-68.12859l-25.59328,-50.46562z" fill="none" stroke="#747474" stroke-width="5" stroke-linecap="round"/><path d="M420.38566,140.85564l63.4425,-0.36047l26.67469,50.10515l-23.43047,49.38422h-68.12859l-25.59328,-50.46563z" fill="none" stroke="#747474" stroke-width="5" stroke-linecap="round"/><path d="M57.03318,238.18222l63.4425,-0.36047l26.67468,50.10515l-23.43046,49.38422h-68.12859l-25.59327,-50.46562z" fill="none" stroke="#747474" stroke-width="5" stroke-linecap="round"/><path d="M147.8713,188.43753l63.44249,-0.36047l26.67468,50.10515l-23.43046,49.38422h-68.12858l-25.59328,-50.46563z" fill="none" stroke="#747474" stroke-width="5" stroke-linecap="round"/><path d="M148.9527,287.9269l63.44249,-0.36046l26.67468,50.10515l-23.43046,49.38422h-68.12859l-25.59327,-50.46563z" fill="none" stroke="#747474" stroke-width="5" stroke-linecap="round"/><path d="M238.70942,240.34503l63.44249,-0.36047l26.67469,50.10515l-23.43047,49.38422h-68.12859l-25.59327,-50.46562z" fill="none" stroke="#747474" stroke-width="5" stroke-linecap="round"/><path d="M329.54753,190.60035l63.4425,-0.36047l26.67469,50.10514l-23.43047,49.38422h-68.12859l-25.59328,-50.46562z" fill="none" stroke="#747474" stroke-width="5" stroke-linecap="round"/><path d="M330.62893,290.08971l63.4425,-0.36047l26.67469,50.10515l-23.43047,49.38422h-68.12859l-25.59328,-50.46562z" fill="none" stroke="#747474" stroke-width="5" stroke-linecap="round"/><path d="M-37.04916,90.02957l63.4425,-0.36047l26.67469,50.10514l-23.43046,49.38422h-68.12859l-25.59327,-50.46562z" fill="none" stroke="#747474" stroke-width="5" stroke-linecap="round"/><path d="M53.78896,40.28489l63.4425,-0.36047l26.67468,50.10515l-23.43046,49.38421h-68.12859l-25.59327,-50.46562z" fill="none" stroke="#747474" stroke-width="5" stroke-linecap="round"/><path d="M54.87037,139.77423l63.4425,-0.36046l26.67467,50.10515l-23.43046,49.38422h-68.12859l-25.59327,-50.46562z" fill="none" stroke="#747474" stroke-width="5" stroke-linecap="round"/><path d="M52.70755,-59.20448l63.4425,-0.36047l26.67468,50.10515l-23.43046,49.38422h-68.12859l-25.59327,-50.46562z" fill="none" stroke="#747474" stroke-width="5" stroke-linecap="round"/><path d="M143.54567,-108.94917l63.44249,-0.36047l26.67468,50.10515l-23.43046,49.38422h-68.12859l-25.59328,-50.46562z" fill="none" stroke="#747474" stroke-width="5" stroke-linecap="round"/><path d="M144.62708,-9.45981l63.44249,-0.36047l26.67468,50.10515l-23.43046,49.38422h-68.12859l-25.59327,-50.46562z" fill="none" stroke="#747474" stroke-width="5" stroke-linecap="round"/><path d="M235.4652,-59.20448l63.44249,-0.36047l26.67469,50.10515l-23.43047,49.38422h-68.12859l-25.59328,-50.46562z" fill="none" stroke="#747474" stroke-width="5" stroke-linecap="round"/><path d="M326.30331,-108.94917l63.4425,-0.36047l26.67469,50.10515l-23.43047,49.38422h-68.12859l-25.59328,-50.46562z" fill="none" stroke="#747474" stroke-width="5" stroke-linecap="round"/><path d="M327.38471,-9.45981l63.4425,-0.36047l26.67469,50.10515l-23.43047,49.38422h-68.12859l-25.59328,-50.46562z" fill="none" stroke="#747474" stroke-width="5" stroke-linecap="round"/><path d="M418.22284,-59.20448l63.4425,-0.36047l26.67469,50.10515l-23.43047,49.38422h-68.12859l-25.59329,-50.46562z" fill="none" stroke="#747474" stroke-width="5" stroke-linecap="round"/><path d="M509.06096,-108.94917l63.4425,-0.36047l26.67468,50.10515l-23.43046,49.38422h-68.12859l-25.59329,-50.46562z" fill="none" stroke="#747474" stroke-width="5" stroke-linecap="round"/><path d="M510.14237,-9.45981l63.4425,-0.36047l26.67468,50.10515l-23.43046,49.38422h-68.12859l-25.59328,-50.46562z" fill="none" stroke="#747474" stroke-width="5" stroke-linecap="round"/><path d="M-126.80587,239.26362l63.44249,-0.36047l26.67468,50.10515l-23.43046,49.38422h-68.12859l-25.59327,-50.46562z" fill="none" stroke="#747474" stroke-width="5" stroke-linecap="round"/><path d="M-35.96776,189.51894l63.44249,-0.36047l26.67469,50.10515l-23.43047,49.38422h-68.12859l-25.59327,-50.46562z" fill="none" stroke="#747474" stroke-width="5" stroke-linecap="round"/><path d="M-34.88636,289.00831l63.44249,-0.36047l26.67469,50.10515l-23.43047,49.38422h-68.12859l-25.59327,-50.46562z" fill="none" stroke="#747474" stroke-width="5" stroke-linecap="round"/><path d="M-131.1315,-59.20449l63.44249,-0.36046l26.67467,50.10515l-23.43046,49.38422h-68.12859l-25.59327,-50.46562z" fill="none" stroke="#747474" stroke-width="5" stroke-linecap="round"/><path d="M-40.29338,-108.94917l63.44249,-0.36047l26.67468,50.10515l-23.43047,49.38422h-68.12859l-25.59327,-50.46562z" fill="none" stroke="#747474" stroke-width="5" stroke-linecap="round"/><path d="M-39.21198,-9.45981l63.44249,-0.36047l26.67469,50.10515l-23.43047,49.38422h-68.12859l-25.59327,-50.46562z" fill="none" stroke="#747474" stroke-width="5" stroke-linecap="round"/><path d="M421.46706,241.42644l63.44249,-0.36047l26.67467,50.10515l-23.43046,49.38422h-68.12859l-25.59327,-50.46562z" fill="none" stroke="#747474" stroke-width="5" stroke-linecap="round"/><path d="M512.30518,191.68175l63.44249,-0.36047l26.67467,50.10515l-23.43046,49.38422h-68.12859l-25.59327,-50.46563z" fill="none" stroke="#747474" stroke-width="5" stroke-linecap="round"/><path d="M513.38659,291.17112l63.44249,-0.36046l26.67468,50.10515l-23.43046,49.38422h-68.12859l-25.59328,-50.46563z" fill="none" stroke="#747474" stroke-width="5" stroke-linecap="round"/><path d="M408.41062,195.34195c0,-14.33385 11.6199,-25.95374 25.95375,-25.95374c14.33385,0 25.95374,11.61989 25.95374,25.95375c0,14.33386 -11.61989,25.95375 -25.95374,25.95375c-14.33385,0 -25.95375,-11.6199 -25.95375,-25.95375z" fill="url(#color-1)" stroke="none" stroke-width="0" stroke-linecap="butt"/><path d="M421.85939,195.34195c0,-6.90633 5.59868,-12.50499 12.50499,-12.50499c6.90632,0 12.50498,5.59866 12.50498,12.50499c0,6.90633 -5.59866,12.505 -12.50498,12.505c-6.90632,0 -12.50499,-5.59867 -12.50499,-12.505z" fill="#ff0000" stroke="none" stroke-width="0.5" stroke-linecap="butt"/><path d="M422.82936,195.34195c0,-6.3706 5.1644,-11.53499 11.53499,-11.53499c6.37059,0 11.53499,5.16439 11.53499,11.53499c0,6.37061 -5.1644,11.53501 -11.53499,11.53501c-6.37059,0 -11.53499,-5.1644 -11.53499,-11.53501z" fill="url(#color-2)" stroke="none" stroke-width="0" stroke-linecap="butt"/><path d="M483.1543,70.86983c0,-14.33385 11.61989,-25.95375 25.95375,-25.95375c14.33386,0 25.95375,11.61989 25.95375,25.95375c0,14.33386 -11.61989,25.95375 -25.95375,25.95375c-14.33386,0 -25.95375,-11.6199 -25.95375,-25.95375z" fill="url(#color-3)" stroke="none" stroke-width="0" stroke-linecap="butt"/><path d="M496.60307,70.86983c0,-6.90633 5.59867,-12.50499 12.50499,-12.50499c6.90632,0 12.50498,5.59866 12.50498,12.50499c0,6.90632 -5.59866,12.50499 -12.50498,12.50499c-6.90632,0 -12.50499,-5.59867 -12.50499,-12.50499z" fill="#ff0000" stroke="none" stroke-width="0.5" stroke-linecap="butt"/><path d="M497.57304,70.86983c0,-6.37059 5.1644,-11.53499 11.53499,-11.53499c6.37059,0 11.535,5.1644 11.535,11.53499c0,6.37059 -5.1644,11.53499 -11.535,11.53499c-6.37059,0 -11.53499,-5.1644 -11.53499,-11.53499z" fill="url(#color-4)" stroke="none" stroke-width="0" stroke-linecap="butt"/><path d="M433.89023,130.39587c0,-14.33385 11.6199,-25.95374 25.95375,-25.95374c14.33385,0 25.95375,11.61989 25.95375,25.95374c0,14.33386 -11.6199,25.95375 -25.95375,25.95375c-14.33385,0 -25.95375,-11.6199 -25.95375,-25.95375z" fill="url(#color-5)" stroke="none" stroke-width="0" stroke-linecap="butt"/><path d="M447.339,130.39587c0,-6.90632 5.59868,-12.50499 12.50499,-12.50499c6.90632,0 12.50498,5.59866 12.50498,12.50499c0,6.90633 -5.59866,12.505 -12.50498,12.505c-6.90632,0 -12.50499,-5.59867 -12.50499,-12.505z" fill="#00c4ff" stroke="none" stroke-width="0.5" stroke-linecap="butt"/><path d="M448.30898,130.39587c0,-6.37059 5.16439,-11.53499 11.535,-11.53499c6.37059,0 11.53501,5.16439 11.53501,11.53499c0,6.3706 -5.1644,11.53501 -11.53501,11.53501c-6.37059,0 -11.535,-5.1644 -11.535,-11.53501z" fill="url(#color-6)" stroke="none" stroke-width="0" stroke-linecap="butt"/><path d="M367.78482,143.35002c0,-14.33385 11.61989,-25.95375 25.95375,-25.95375c14.33385,0 25.95375,11.6199 25.95375,25.95375c0,14.33386 -11.6199,25.95375 -25.95375,25.95375c-14.33385,0 -25.95375,-11.61989 -25.95375,-25.95375z" fill="url(#color-7)" stroke="none" stroke-width="0" stroke-linecap="butt"/><path d="M381.23358,143.35002c0,-6.90633 5.59867,-12.505 12.50499,-12.505c6.90632,0 12.50499,5.59867 12.50499,12.505c0,6.90633 -5.59867,12.50499 -12.50499,12.50499c-6.90632,0 -12.50499,-5.59866 -12.50499,-12.50499z" fill="#38ff00" stroke="none" stroke-width="0.5" stroke-linecap="butt"/><path d="M382.20357,143.35002c0,-6.3706 5.1644,-11.535 11.53499,-11.535c6.37059,0 11.53499,5.1644 11.53499,11.535c0,6.3706 -5.1644,11.535 -11.53499,11.535c-6.37059,0 -11.53499,-5.16439 -11.53499,-11.535z" fill="url(#color-8)" stroke="none" stroke-width="0" stroke-linecap="butt"/><path d="M444.15223,41.61016c0,-14.33385 11.61989,-25.95374 25.95375,-25.95374c14.33386,0 25.95375,11.61989 25.95375,25.95375c0,14.33386 -11.61989,25.95375 -25.95375,25.95375c-14.33386,0 -25.95375,-11.6199 -25.95375,-25.95375z" fill="url(#color-9)" stroke="none" stroke-width="0" stroke-linecap="butt"/><path d="M457.601,41.61016c0,-6.90633 5.59867,-12.50499 12.50499,-12.50499c6.90632,0 12.50498,5.59866 12.50498,12.50499c0,6.90633 -5.59867,12.505 -12.50498,12.505c-6.90632,0 -12.50499,-5.59867 -12.50499,-12.50499z" fill="#38ff00" stroke="none" stroke-width="0.5" stroke-linecap="butt"/><path d="M458.57097,41.61016c0,-6.3706 5.1644,-11.53499 11.535,-11.53499c6.37059,0 11.535,5.16439 11.535,11.53499c0,6.3706 -5.16439,11.535 -11.535,11.535c-6.37059,0 -11.535,-5.1644 -11.535,-11.535z" fill="url(#color-10)" stroke="none" stroke-width="0" stroke-linecap="butt"/><path d="M412.0153,25.97037c-14.33385,0 -25.95375,-11.6199 -25.95375,-25.95375c0,-14.33385 11.6199,-25.95375 25.95375,-25.95375c14.33385,0 25.95375,11.6199 25.95375,25.95375c0,14.33386 -11.61989,25.95375 -25.95375,25.95375z" data-paper-data="{&quot;index&quot;:null}" fill="url(#color-11)" stroke="none" stroke-width="0" stroke-linecap="butt"/><path d="M412.01529,12.52161c-6.90632,0 -12.50498,-5.59866 -12.50498,-12.50499c0,-6.90632 5.59866,-12.50499 12.50498,-12.50499c6.90632,0 12.50499,5.59867 12.50499,12.50499c0,6.90633 -5.59867,12.50499 -12.50499,12.50499z" data-paper-data="{&quot;index&quot;:null}" fill="#ff0000" stroke="none" stroke-width="0.5" stroke-linecap="butt"/><path d="M412.0153,11.55161c-6.37061,0 -11.53501,-5.1644 -11.53501,-11.53499c0,-6.3706 5.1644,-11.535 11.53501,-11.535c6.37061,0 11.535,5.1644 11.535,11.53501c0,6.3706 -5.16439,11.53499 -11.535,11.53499z" data-paper-data="{&quot;index&quot;:null}" fill="url(#color-12)" stroke="none" stroke-width="0" stroke-linecap="butt"/><path d="M481.31623,16.74756c-14.33385,0 -25.95375,-11.61989 -25.95375,-25.95375c0,-14.33385 11.6199,-25.95375 25.95375,-25.95375c14.33385,0 25.95375,11.6199 25.95375,25.95375c0,14.33386 -11.61989,25.95375 -25.95375,25.95375z" data-paper-data="{&quot;index&quot;:null}" fill="url(#color-13)" stroke="none" stroke-width="0" stroke-linecap="butt"/><path d="M481.31622,3.2988c-6.90632,0 -12.50498,-5.59866 -12.50498,-12.50499c0,-6.90632 5.59866,-12.50499 12.50498,-12.50499c6.90632,0 12.50499,5.59867 12.50499,12.50499c0,6.90633 -5.59867,12.50499 -12.50499,12.50499z" data-paper-data="{&quot;index&quot;:null}" fill="#00c4ff" stroke="none" stroke-width="0.5" stroke-linecap="butt"/><path d="M481.31623,2.3288c-6.37061,0 -11.535,-5.16439 -11.535,-11.53499c0,-6.37059 5.16441,-11.53499 11.535,-11.53499c6.37059,0 11.53499,5.1644 11.53499,11.53499c0,6.3706 -5.1644,11.53499 -11.53499,11.53499z" data-paper-data="{&quot;index&quot;:null}" fill="url(#color-14)" stroke="none" stroke-width="0" stroke-linecap="butt"/><path d="M374.27325,174.74328c0,14.33386 -11.61989,25.95375 -25.95375,25.95375c-14.33386,0 -25.95375,-11.61989 -25.95375,-25.95374c0,-14.33385 11.61989,-25.95375 25.95375,-25.95375c14.33386,0 25.95375,11.6199 25.95375,25.95375z" data-paper-data="{&quot;index&quot;:null}" fill="url(#color-15)" stroke="none" stroke-width="0" stroke-linecap="butt"/><path d="M360.82449,174.74328c0,6.90633 -5.59868,12.50499 -12.505,12.50499c-6.90632,0 -12.50498,-5.59866 -12.50498,-12.50499c0,-6.90633 5.59866,-12.505 12.50498,-12.505c6.90632,0 12.505,5.59867 12.505,12.505z" data-paper-data="{&quot;index&quot;:null}" fill="#ffa000" stroke="none" stroke-width="0.5" stroke-linecap="butt"/><path d="M359.85451,174.74328c0,6.3706 -5.1644,11.53499 -11.53499,11.53499c-6.37059,0 -11.53501,-5.16439 -11.53501,-11.53499c0,-6.3706 5.1644,-11.535 11.53501,-11.535c6.37059,0 11.53499,5.1644 11.53499,11.535z" data-paper-data="{&quot;index&quot;:null}" fill="url(#color-16)" stroke="none" stroke-width="0" stroke-linecap="butt"/><path d="M344.59467,76.2866c0,14.33386 -11.61989,25.95375 -25.95375,25.95375c-14.33386,0 -25.95375,-11.61989 -25.95375,-25.95375c0,-14.33385 11.61989,-25.95375 25.95375,-25.95375c14.33386,0 25.95375,11.61989 25.95375,25.95375z" data-paper-data="{&quot;index&quot;:null}" fill="url(#color-17)" stroke="none" stroke-width="0" stroke-linecap="butt"/><path d="M331.1459,76.2866c0,6.90632 -5.59868,12.50499 -12.50499,12.50499c-6.90632,0 -12.50498,-5.59867 -12.50498,-12.50499c0,-6.90632 5.59866,-12.50499 12.50498,-12.50499c6.90632,0 12.50499,5.59867 12.50499,12.50499z" data-paper-data="{&quot;index&quot;:null}" fill="#ff00c8" stroke="none" stroke-width="0.5" stroke-linecap="butt"/><path d="M330.17591,76.2866c0,6.37059 -5.16439,11.53499 -11.535,11.53499c-6.37059,0 -11.53501,-5.1644 -11.53501,-11.53499c0,-6.37059 5.1644,-11.535 11.53501,-11.535c6.37059,0 11.535,5.1644 11.535,11.535z" data-paper-data="{&quot;index&quot;:null}" fill="url(#color-18)" stroke="none" stroke-width="0" stroke-linecap="butt"/><path d="M410.70008,63.33246c0,14.33386 -11.61989,25.95375 -25.95375,25.95375c-14.33386,0 -25.95375,-11.61989 -25.95375,-25.95375c0,-14.33385 11.61989,-25.95375 25.95375,-25.95375c14.33386,0 25.95375,11.6199 25.95375,25.95375z" data-paper-data="{&quot;index&quot;:null}" fill="url(#color-19)" stroke="none" stroke-width="0" stroke-linecap="butt"/><path d="M397.25132,63.33246c0,6.90632 -5.59867,12.505 -12.50499,12.505c-6.90632,0 -12.50499,-5.59867 -12.50499,-12.505c0,-6.90633 5.59867,-12.50499 12.50499,-12.50499c6.90632,0 12.50499,5.59866 12.50499,12.50499z" data-paper-data="{&quot;index&quot;:null}" fill="#0100ff" stroke="none" stroke-width="0.5" stroke-linecap="butt"/><path d="M396.28133,63.33246c0,6.37059 -5.1644,11.535 -11.53499,11.535c-6.37059,0 -11.53499,-5.1644 -11.53499,-11.535c0,-6.3706 5.1644,-11.535 11.53499,-11.535c6.37059,0 11.53499,5.16439 11.53499,11.535z" data-paper-data="{&quot;index&quot;:null}" fill="url(#color-20)" stroke="none" stroke-width="0" stroke-linecap="butt"/><path d="M248.98591,84.93856c-13.67557,4.29399 -28.24277,-3.31127 -32.53677,-16.98684c-4.29399,-13.67557 3.31128,-28.24277 16.98684,-32.53677c13.67557,-4.29399 28.24278,3.31127 32.53678,16.98684c4.29399,13.67557 -3.31128,28.24277 -16.98685,32.53676z" data-paper-data="{&quot;index&quot;:null}" fill="url(#color-21)" stroke="none" stroke-width="0" stroke-linecap="butt"/><path d="M244.95707,72.10746c-6.58914,2.06892 -13.60787,-1.59543 -15.6768,-8.18458c-2.06893,-6.58915 1.59541,-13.60789 8.18456,-15.6768c6.58914,-2.06892 13.60789,1.59542 15.67681,8.18457c2.06893,6.58915 -1.59542,13.60789 -8.18457,15.67681z" data-paper-data="{&quot;index&quot;:null}" fill="#ff0000" stroke="none" stroke-width="0.5" stroke-linecap="butt"/><path d="M244.66651,71.182c-6.07802,1.90845 -12.55233,-1.47168 -14.46078,-7.54972c-1.90843,-6.07802 1.47168,-12.55234 7.5497,-14.46077c6.07802,-1.90845 12.55234,1.47168 14.46078,7.54971c1.90845,6.07804 -1.47168,12.55235 -7.5497,14.46078z" data-paper-data="{&quot;index&quot;:null}" fill="url(#color-22)" stroke="none" stroke-width="0" stroke-linecap="butt"/><path d="M93.70842,199.55717c-14.33385,0 -25.95374,-11.61989 -25.95374,-25.95375c0,-14.33385 11.61989,-25.95375 25.95375,-25.95375c14.33386,0 25.95375,11.61989 25.95375,25.95375c0,14.33386 -11.61989,25.95375 -25.95375,25.95375z" data-paper-data="{&quot;index&quot;:null}" fill="url(#color-23)" stroke="none" stroke-width="0" stroke-linecap="butt"/><path d="M93.70842,186.10841c-6.90632,0 -12.50498,-5.59867 -12.50498,-12.50499c0,-6.90633 5.59866,-12.50499 12.50498,-12.50499c6.90632,0 12.50499,5.59867 12.50499,12.50499c0,6.90633 -5.59867,12.50499 -12.50499,12.50499z" data-paper-data="{&quot;index&quot;:null}" fill="#ff0000" stroke="none" stroke-width="0.5" stroke-linecap="butt"/><path d="M93.70844,185.13841c-6.3706,0 -11.535,-5.1644 -11.535,-11.53499c0,-6.3706 5.16441,-11.53499 11.535,-11.53499c6.37059,0 11.53499,5.1644 11.53499,11.53499c0,6.3706 -5.1644,11.53499 -11.53499,11.53499z" data-paper-data="{&quot;index&quot;:null}" fill="url(#color-24)" stroke="none" stroke-width="0" stroke-linecap="butt"/><path d="M205.22058,30.60811c-13.67557,4.29399 -28.24277,-3.31128 -32.53677,-16.98685c-4.29399,-13.67557 3.31127,-28.24277 16.98683,-32.53677c13.67557,-4.29399 28.24277,3.31128 32.53677,16.98685c4.29399,13.67557 -3.31127,28.24277 -16.98683,32.53676z" data-paper-data="{&quot;index&quot;:null}" fill="url(#color-25)" stroke="none" stroke-width="0" stroke-linecap="butt"/><path d="M201.19173,17.77699c-6.58914,2.06893 -13.60787,-1.59541 -15.6768,-8.18457c-2.06893,-6.58915 1.59541,-13.60788 8.18456,-15.67681c6.58914,-2.06893 13.60788,1.59542 15.67681,8.18458c2.06893,6.58915 -1.59542,13.60789 -8.18457,15.67681z" data-paper-data="{&quot;index&quot;:null}" fill="#00c4ff" stroke="none" stroke-width="0.5" stroke-linecap="butt"/><path d="M200.90115,16.85155c-6.07803,1.90845 -12.55236,-1.47169 -14.46079,-7.54971c-1.90843,-6.07802 1.4717,-12.55233 7.54972,-14.46078c6.07804,-1.90844 12.55236,1.47167 14.46079,7.5497c1.90845,6.07804 -1.4717,12.55236 -7.54972,14.46079z" data-paper-data="{&quot;index&quot;:null}" fill="url(#color-26)" stroke="none" stroke-width="0" stroke-linecap="butt"/><path d="M272.17073,23.16413c-13.67557,4.29399 -28.24277,-3.31127 -32.53677,-16.98684c-4.29399,-13.67557 3.31128,-28.24277 16.98685,-32.53677c13.67557,-4.29399 28.24277,3.31127 32.53677,16.98685c4.29399,13.67557 -3.31128,28.24277 -16.98685,32.53677z" data-paper-data="{&quot;index&quot;:null}" fill="url(#color-27)" stroke="none" stroke-width="0" stroke-linecap="butt"/><path d="M268.14189,10.33302c-6.58914,2.06893 -13.60788,-1.59542 -15.6768,-8.18457c-2.06893,-6.58915 1.59541,-13.60789 8.18456,-15.67681c6.58914,-2.06892 13.60789,1.59543 15.67681,8.18458c2.06892,6.58915 -1.59542,13.60789 -8.18457,15.67681z" data-paper-data="{&quot;index&quot;:null}" fill="#38ff00" stroke="none" stroke-width="0.5" stroke-linecap="butt"/><path d="M267.85131,9.40757c-6.07802,1.90845 -12.55235,-1.4717 -14.46078,-7.54972c-1.90843,-6.07802 1.47169,-12.55233 7.54971,-14.46077c6.07802,-1.90845 12.55233,1.47167 14.46076,7.54971c1.90844,6.07804 -1.47168,12.55235 -7.54969,14.46079z" data-paper-data="{&quot;index&quot;:null}" fill="url(#color-28)" stroke="none" stroke-width="0" stroke-linecap="butt"/><path d="M132.7105,170.2975c-14.33385,0 -25.95375,-11.61989 -25.95375,-25.95375c0,-14.33385 11.6199,-25.95375 25.95375,-25.95375c14.33386,0 25.95375,11.6199 25.95375,25.95375c0,14.33386 -11.6199,25.95375 -25.95375,25.95375z" data-paper-data="{&quot;index&quot;:null}" fill="url(#color-29)" stroke="none" stroke-width="0" stroke-linecap="butt"/><path d="M132.71049,156.84874c-6.90632,0 -12.50498,-5.59866 -12.50498,-12.50499c0,-6.90633 5.59865,-12.50499 12.50498,-12.50499c6.90632,0 12.50499,5.59867 12.50499,12.50499c0,6.90633 -5.59867,12.50499 -12.50499,12.50499z" data-paper-data="{&quot;index&quot;:null}" fill="#38ff00" stroke="none" stroke-width="0.5" stroke-linecap="butt"/><path d="M132.71051,155.87874c-6.3706,0 -11.535,-5.16439 -11.535,-11.53499c0,-6.3706 5.16441,-11.53499 11.535,-11.53499c6.3706,0 11.53499,5.1644 11.53499,11.53499c0,6.3706 -5.16439,11.53499 -11.53499,11.53499z" data-paper-data="{&quot;index&quot;:null}" fill="url(#color-30)" stroke="none" stroke-width="0" stroke-linecap="butt"/><path d="M95.5465,93.5274c0,-14.33385 11.6199,-25.95375 25.95375,-25.95375c14.33386,0 25.95375,11.6199 25.95375,25.95375c0,14.33386 -11.61989,25.95375 -25.95374,25.95375c-14.33385,0 -25.95375,-11.61989 -25.95375,-25.95374z" data-paper-data="{&quot;index&quot;:null}" fill="url(#color-31)" stroke="none" stroke-width="0" stroke-linecap="butt"/><path d="M108.99526,93.5274c0,-6.90632 5.59868,-12.50499 12.50499,-12.50499c6.90632,0 12.50498,5.59867 12.50498,12.50499c0,6.90632 -5.59867,12.50499 -12.50498,12.50499c-6.90632,0 -12.50499,-5.59867 -12.50499,-12.50499z" data-paper-data="{&quot;index&quot;:null}" fill="#00c4ff" stroke="none" stroke-width="0.5" stroke-linecap="butt"/><path d="M109.96525,93.5274c0,-6.37059 5.1644,-11.53499 11.535,-11.53499c6.37059,0 11.535,5.1644 11.535,11.53499c0,6.37059 -5.16439,11.53499 -11.535,11.53499c-6.37059,0 -11.535,-5.16439 -11.535,-11.53499z" data-paper-data="{&quot;index&quot;:null}" fill="url(#color-32)" stroke="none" stroke-width="0" stroke-linecap="butt"/><path d="M309.35845,-10.01417c13.67557,-4.294 28.24277,3.31128 32.53677,16.98685c4.29399,13.67557 -3.31128,28.24278 -16.98684,32.53678c-13.67557,4.294 -28.24277,-3.31128 -32.53677,-16.98685c-4.29399,-13.67557 3.31128,-28.24277 16.98685,-32.53677z" data-paper-data="{&quot;index&quot;:null}" fill="url(#color-33)" stroke="none" stroke-width="0" stroke-linecap="butt"/><path d="M313.38729,2.81694c6.58914,-2.06892 13.60789,1.59542 15.67681,8.18458c2.06892,6.58915 -1.59542,13.60789 -8.18455,15.67681c-6.58914,2.06893 -13.60789,-1.59542 -15.67681,-8.18457c-2.06892,-6.58915 1.59542,-13.60789 8.18457,-15.67681z" data-paper-data="{&quot;index&quot;:null}" fill="#ffa000" stroke="none" stroke-width="0.5" stroke-linecap="butt"/><path d="M313.67786,3.7424c6.07804,-1.90844 12.55235,1.47167 14.46079,7.54971c1.90843,6.07802 -1.4717,12.55235 -7.54971,14.46078c-6.07802,1.90845 -12.55234,-1.47168 -14.46078,-7.5497c-1.90843,-6.07802 1.47169,-12.55233 7.54971,-14.46077z" data-paper-data="{&quot;index&quot;:null}" fill="url(#color-34)" stroke="none" stroke-width="0" stroke-linecap="butt"/><path d="M284.17556,153.06644c14.33385,0 25.95374,11.61989 25.95374,25.95375c0,14.33386 -11.61989,25.95375 -25.95374,25.95375c-14.33385,0 -25.95375,-11.61989 -25.95375,-25.95375c0,-14.33385 11.6199,-25.95375 25.95375,-25.95375z" data-paper-data="{&quot;index&quot;:null}" fill="url(#color-35)" stroke="none" stroke-width="0" stroke-linecap="butt"/><path d="M284.17557,166.5152c6.90632,0 12.50498,5.59867 12.50498,12.50499c0,6.90633 -5.59866,12.50499 -12.50498,12.50499c-6.90632,0 -12.50499,-5.59867 -12.50499,-12.50499c0,-6.90633 5.59867,-12.50499 12.50499,-12.50499z" data-paper-data="{&quot;index&quot;:null}" fill="#ff00c8" stroke="none" stroke-width="0.5" stroke-linecap="butt"/><path d="M284.17556,167.48519c6.37061,0 11.535,5.16441 11.535,11.535c0,6.3706 -5.1644,11.53499 -11.535,11.53499c-6.37061,0 -11.53501,-5.1644 -11.53501,-11.53499c0,-6.37061 5.16441,-11.535 11.53501,-11.535z" data-paper-data="{&quot;index&quot;:null}" fill="url(#color-36)" stroke="none" stroke-width="0" stroke-linecap="butt"/><path d="M218.07014,140.1123c14.33386,0 25.95375,11.61989 25.95375,25.95375c0,14.33386 -11.61989,25.95375 -25.95375,25.95375c-14.33385,0 -25.95375,-11.61989 -25.95375,-25.95374c0,-14.33385 11.6199,-25.95375 25.95375,-25.95375z" data-paper-data="{&quot;index&quot;:null}" fill="url(#color-37)" stroke="none" stroke-width="0" stroke-linecap="butt"/><path d="M218.07015,153.56106c6.90632,0 12.50498,5.59867 12.50498,12.50499c0,6.90633 -5.59865,12.50499 -12.50498,12.50499c-6.90632,0 -12.50499,-5.59867 -12.50499,-12.50499c0,-6.90633 5.59867,-12.50499 12.50499,-12.50499z" data-paper-data="{&quot;index&quot;:null}" fill="#0100ff" stroke="none" stroke-width="0.5" stroke-linecap="butt"/><path d="M218.07014,154.53105c6.3706,0 11.53499,5.16441 11.53499,11.535c0,6.3706 -5.16439,11.53499 -11.53499,11.53499c-6.3706,0 -11.535,-5.1644 -11.535,-11.53499c0,-6.37061 5.1644,-11.535 11.535,-11.535z" data-paper-data="{&quot;index&quot;:null}" fill="url(#color-38)" stroke="none" stroke-width="0" stroke-linecap="butt"/><path d="M173.73249,71.98371c14.33386,0 25.95375,11.6199 25.95375,25.95375c0,14.33386 -11.6199,25.95375 -25.95375,25.95375c-14.33385,0 -25.95375,-11.61989 -25.95375,-25.95374c0,-14.33385 11.61989,-25.95375 25.95375,-25.95375z" data-paper-data="{&quot;index&quot;:null}" fill="url(#color-39)" stroke="none" stroke-width="0" stroke-linecap="butt"/><path d="M173.7325,85.43247c6.90632,0 12.50499,5.59867 12.50499,12.505c0,6.90632 -5.59866,12.50499 -12.50499,12.50499c-6.90632,0 -12.50499,-5.59866 -12.50499,-12.50499c0,-6.90632 5.59866,-12.505 12.50499,-12.505z" data-paper-data="{&quot;index&quot;:null}" fill="#0100ff" stroke="none" stroke-width="0.5" stroke-linecap="butt"/><path d="M173.73249,86.40246c6.3706,0 11.535,5.16441 11.535,11.535c0,6.37059 -5.1644,11.53499 -11.535,11.53499c-6.3706,0 -11.53499,-5.16439 -11.53499,-11.53499c0,-6.3706 5.16439,-11.535 11.53499,-11.535z" data-paper-data="{&quot;index&quot;:null}" fill="url(#color-40)" stroke="none" stroke-width="0" stroke-linecap="butt"/><path d="M147.17795,24.42782c0,14.33385 -11.61989,25.95375 -25.95375,25.95375c-14.33385,0 -25.95375,-11.61989 -25.95375,-25.95374c0,-14.33385 11.6199,-25.95375 25.95375,-25.95375c14.33386,0 25.95375,11.6199 25.95375,25.95375z" data-paper-data="{&quot;index&quot;:null}" fill="url(#color-41)" stroke="none" stroke-width="0" stroke-linecap="butt"/><path d="M133.72919,24.42782c0,6.90632 -5.59868,12.50499 -12.505,12.50499c-6.90632,0 -12.50498,-5.59867 -12.50498,-12.50499c0,-6.90632 5.59866,-12.50499 12.50498,-12.50499c6.90633,0 12.505,5.59867 12.505,12.505z" data-paper-data="{&quot;index&quot;:null}" fill="#ffa000" stroke="none" stroke-width="0.5" stroke-linecap="butt"/><path d="M132.75921,24.42782c0,6.37059 -5.1644,11.53499 -11.53499,11.53499c-6.37059,0 -11.535,-5.1644 -11.535,-11.53499c0,-6.37059 5.1644,-11.53499 11.535,-11.53499c6.37059,0 11.53499,5.1644 11.53499,11.53499z" data-paper-data="{&quot;index&quot;:null}" fill="url(#color-42)" stroke="none" stroke-width="0" stroke-linecap="butt"/><path d="M57.08026,2.75099c14.33386,0 25.95375,11.61989 25.95375,25.95375c0,14.33385 -11.61989,25.95375 -25.95375,25.95375c-14.33385,0 -25.95375,-11.61989 -25.95375,-25.95375c0,-14.33385 11.6199,-25.95374 25.95375,-25.95374z" data-paper-data="{&quot;index&quot;:null}" fill="url(#color-43)" stroke="none" stroke-width="0" stroke-linecap="butt"/><path d="M57.08027,16.19974c6.90631,0 12.50498,5.59867 12.50498,12.50499c0,6.90632 -5.59866,12.50499 -12.50498,12.50499c-6.90631,0 -12.50499,-5.59867 -12.50499,-12.50499c0,-6.90632 5.59866,-12.50499 12.50499,-12.50499z" data-paper-data="{&quot;index&quot;:null}" fill="#ff00c8" stroke="none" stroke-width="0.5" stroke-linecap="butt"/><path d="M57.08026,17.16973c6.3706,0 11.535,5.16441 11.535,11.535c0,6.37059 -5.16441,11.53499 -11.535,11.53499c-6.3706,0 -11.53501,-5.1644 -11.53501,-11.53499c0,-6.37061 5.16441,-11.535 11.53501,-11.535z" data-paper-data="{&quot;index&quot;:null}" fill="url(#color-44)" stroke="none" stroke-width="0" stroke-linecap="butt"/><path d="M149.12644,221.13333c0,14.33386 -11.61989,25.95375 -25.95375,25.95375c-14.33385,0 -25.95374,-11.61989 -25.95374,-25.95375c0,-14.33385 11.61989,-25.95375 25.95375,-25.95375c14.33386,0 25.95375,11.61989 25.95375,25.95375z" data-paper-data="{&quot;index&quot;:null}" fill="url(#color-45)" stroke="none" stroke-width="0" stroke-linecap="butt"/><path d="M135.67767,221.13333c0,6.90633 -5.59868,12.50499 -12.50499,12.50499c-6.90632,0 -12.50498,-5.59867 -12.50498,-12.50499c0,-6.90633 5.59866,-12.50499 12.50498,-12.50499c6.90632,0 12.50499,5.59867 12.50499,12.50499z" data-paper-data="{&quot;index&quot;:null}" fill="#ff0000" stroke="none" stroke-width="0.5" stroke-linecap="butt"/><path d="M134.7077,221.13333c0,6.3706 -5.1644,11.53499 -11.53499,11.53499c-6.37059,0 -11.53499,-5.1644 -11.53499,-11.53499c0,-6.37061 5.1644,-11.535 11.53499,-11.535c6.37059,0 11.53499,5.1644 11.53499,11.535z" data-paper-data="{&quot;index&quot;:null}" fill="url(#color-46)" stroke="none" stroke-width="0" stroke-linecap="butt"/><path d="M74.38276,345.60545c0,14.33385 -11.6199,25.95375 -25.95375,25.95375c-14.33385,0 -25.95375,-11.61989 -25.95375,-25.95375c0,-14.33385 11.6199,-25.95375 25.95375,-25.95375c14.33386,0 25.95375,11.6199 25.95375,25.95375z" data-paper-data="{&quot;index&quot;:null}" fill="url(#color-47)" stroke="none" stroke-width="0" stroke-linecap="butt"/><path d="M60.93399,345.60545c0,6.90632 -5.59867,12.50499 -12.50499,12.50499c-6.90633,0 -12.50498,-5.59866 -12.50498,-12.50499c0,-6.90632 5.59867,-12.50499 12.50498,-12.50499c6.90633,0 12.50499,5.59867 12.50499,12.50499z" data-paper-data="{&quot;index&quot;:null}" fill="#ff0000" stroke="none" stroke-width="0.5" stroke-linecap="butt"/><path d="M59.96402,345.60545c0,6.37059 -5.1644,11.53499 -11.535,11.53499c-6.3706,0 -11.535,-5.1644 -11.535,-11.53499c0,-6.37059 5.1644,-11.53499 11.535,-11.53499c6.3706,0 11.535,5.1644 11.535,11.53499z" data-paper-data="{&quot;index&quot;:null}" fill="url(#color-48)" stroke="none" stroke-width="0" stroke-linecap="butt"/><path d="M123.64683,286.07941c0,14.33386 -11.6199,25.95374 -25.95375,25.95374c-14.33385,0 -25.95375,-11.61989 -25.95375,-25.95374c0,-14.33386 11.6199,-25.95375 25.95375,-25.95375c14.33386,0 25.95375,11.61989 25.95375,25.95375z" data-paper-data="{&quot;index&quot;:null}" fill="url(#color-49)" stroke="none" stroke-width="0" stroke-linecap="butt"/><path d="M110.19806,286.07941c0,6.90632 -5.59867,12.50499 -12.50499,12.50499c-6.90632,0 -12.50498,-5.59866 -12.50498,-12.50499c0,-6.90632 5.59866,-12.505 12.50498,-12.505c6.90632,0 12.50499,5.59867 12.50499,12.505z" data-paper-data="{&quot;index&quot;:null}" fill="#00c4ff" stroke="none" stroke-width="0.5" stroke-linecap="butt"/><path d="M109.22808,286.07941c0,6.37059 -5.1644,11.53499 -11.53501,11.53499c-6.37059,0 -11.535,-5.1644 -11.535,-11.53499c0,-6.37059 5.1644,-11.53501 11.535,-11.53501c6.37059,0 11.53501,5.1644 11.53501,11.53501z" data-paper-data="{&quot;index&quot;:null}" fill="url(#color-50)" stroke="none" stroke-width="0" stroke-linecap="butt"/><path d="M189.75224,273.12526c0,14.33385 -11.61989,25.95375 -25.95374,25.95375c-14.33385,0 -25.95375,-11.61989 -25.95375,-25.95375c0,-14.33385 11.6199,-25.95375 25.95375,-25.95375c14.33386,0 25.95375,11.6199 25.95375,25.95375z" data-paper-data="{&quot;index&quot;:null}" fill="url(#color-51)" stroke="none" stroke-width="0" stroke-linecap="butt"/><path d="M176.30348,273.12526c0,6.90632 -5.59867,12.50499 -12.50499,12.50499c-6.90633,0 -12.50499,-5.59866 -12.50499,-12.50499c0,-6.90632 5.59867,-12.50499 12.50499,-12.50499c6.90633,0 12.50499,5.59867 12.50499,12.50499z" data-paper-data="{&quot;index&quot;:null}" fill="#38ff00" stroke="none" stroke-width="0.5" stroke-linecap="butt"/><path d="M175.33349,273.12526c0,6.37059 -5.16439,11.53499 -11.53499,11.53499c-6.3706,0 -11.535,-5.1644 -11.535,-11.53499c0,-6.37059 5.1644,-11.535 11.535,-11.535c6.3706,0 11.53499,5.1644 11.53499,11.535z" data-paper-data="{&quot;index&quot;:null}" fill="url(#color-52)" stroke="none" stroke-width="0" stroke-linecap="butt"/><path d="M30.68092,66.56603c-0.77132,14.31309 -12.99963,25.29088 -27.31272,24.51958c-14.31308,-0.77132 -25.29088,-12.99963 -24.51956,-27.31272c0.77132,-14.31308 12.99962,-25.29087 27.31271,-24.51958c14.31309,0.77132 25.29088,12.99963 24.51958,27.31271z" data-paper-data="{&quot;index&quot;:null}" fill="url(#color-53)" stroke="none" stroke-width="0" stroke-linecap="butt"/><path d="M17.25165,65.84236c-0.37164,6.89631 -6.26345,12.1856 -13.15976,11.81398c-6.89631,-0.37162 -12.18561,-6.26344 -11.81398,-13.15976c0.37162,-6.89631 6.26345,-12.18561 13.15977,-11.81398c6.89632,0.37163 12.18561,6.26345 11.81399,13.15976z" data-paper-data="{&quot;index&quot;:null}" fill="#ff0000" stroke="none" stroke-width="0.5" stroke-linecap="butt"/><path d="M16.28306,65.79016c-0.3428,6.36137 -5.77761,11.24038 -12.13898,10.89759c-6.36137,-0.3428 -11.24039,-5.77762 -10.89759,-12.13899c0.34279,-6.36137 5.77762,-11.24039 12.13899,-10.89759c6.36137,0.3428 11.24039,5.77762 10.89759,12.13899z" data-paper-data="{&quot;index&quot;:null}" fill="url(#color-54)" stroke="none" stroke-width="0" stroke-linecap="butt"/><path d="M25.20057,-3.13077c-0.77132,14.31309 -12.99963,25.2909 -27.31272,24.51958c-14.31308,-0.77132 -25.29088,-12.99963 -24.51956,-27.31272c0.77132,-14.31308 12.99964,-25.29088 27.31272,-24.51958c14.31309,0.7713 25.29088,12.99964 24.51958,27.31272z" data-paper-data="{&quot;index&quot;:null}" fill="url(#color-55)" stroke="none" stroke-width="0" stroke-linecap="butt"/><path d="M11.7713,-3.85444c-0.37163,6.89631 -6.26345,12.1856 -13.15977,11.81396c-6.89632,-0.37162 -12.18561,-6.26344 -11.81397,-13.15975c0.37162,-6.8963 6.26346,-12.18561 13.15978,-11.81398c6.89632,0.37164 12.18562,6.26346 11.81399,13.15978z" data-paper-data="{&quot;index&quot;:null}" fill="#00c4ff" stroke="none" stroke-width="0.5" stroke-linecap="butt"/><path d="M10.80271,-3.90665c-0.3428,6.36139 -5.77761,11.24039 -12.13898,10.89759c-6.36136,-0.34279 -11.24038,-5.77762 -10.89758,-12.13899c0.3428,-6.36136 5.77762,-11.24037 12.13898,-10.89758c6.36137,0.34281 11.24039,5.77762 10.89759,12.13898z" data-paper-data="{&quot;index&quot;:null}" fill="url(#color-56)" stroke="none" stroke-width="0" stroke-linecap="butt"/><path d="M183.26381,241.73201c0,-14.33385 11.6199,-25.95374 25.95375,-25.95374c14.33386,0 25.95375,11.61989 25.95375,25.95375c0,14.33386 -11.61989,25.95375 -25.95374,25.95375c-14.33385,0 -25.95375,-11.61989 -25.95375,-25.95375z" data-paper-data="{&quot;index&quot;:null}" fill="url(#color-57)" stroke="none" stroke-width="0" stroke-linecap="butt"/><path d="M196.71258,241.73201c0,-6.90633 5.59868,-12.50499 12.50499,-12.50499c6.90633,0 12.50498,5.59866 12.50498,12.50499c0,6.90633 -5.59866,12.505 -12.50498,12.505c-6.90633,0 -12.50499,-5.59867 -12.50499,-12.505z" data-paper-data="{&quot;index&quot;:null}" fill="#ffa000" stroke="none" stroke-width="0.5" stroke-linecap="butt"/><path d="M197.68255,241.73201c0,-6.3706 5.1644,-11.53499 11.535,-11.53499c6.3706,0 11.535,5.16439 11.535,11.53499c0,6.3706 -5.16439,11.535 -11.535,11.535c-6.3706,0 -11.535,-5.1644 -11.535,-11.535z" data-paper-data="{&quot;index&quot;:null}" fill="url(#color-58)" stroke="none" stroke-width="0" stroke-linecap="butt"/><path d="M212.94239,340.18868c0,-14.33385 11.6199,-25.95375 25.95375,-25.95375c14.33386,0 25.95375,11.6199 25.95375,25.95375c0,14.33385 -11.6199,25.95375 -25.95375,25.95375c-14.33385,0 -25.95375,-11.6199 -25.95375,-25.95375z" data-paper-data="{&quot;index&quot;:null}" fill="url(#color-59)" stroke="none" stroke-width="0" stroke-linecap="butt"/><path d="M226.39116,340.18868c0,-6.90632 5.59867,-12.50499 12.50499,-12.50499c6.90633,0 12.50499,5.59866 12.50499,12.50499c0,6.90632 -5.59867,12.505 -12.50499,12.505c-6.90633,0 -12.50499,-5.59867 -12.50499,-12.505z" data-paper-data="{&quot;index&quot;:null}" fill="#ff00c8" stroke="none" stroke-width="0.5" stroke-linecap="butt"/><path d="M227.36114,340.18868c0,-6.37059 5.16439,-11.53499 11.535,-11.53499c6.3706,0 11.535,5.1644 11.535,11.53499c0,6.37059 -5.1644,11.53501 -11.535,11.53501c-6.3706,0 -11.535,-5.1644 -11.535,-11.53501z" data-paper-data="{&quot;index&quot;:null}" fill="url(#color-60)" stroke="none" stroke-width="0" stroke-linecap="butt"/><path d="M146.83698,353.14282c0,-14.33386 11.61989,-25.95375 25.95375,-25.95375c14.33386,0 25.95375,11.61989 25.95375,25.95375c0,14.33386 -11.6199,25.95375 -25.95375,25.95375c-14.33385,0 -25.95374,-11.61989 -25.95374,-25.95375z" data-paper-data="{&quot;index&quot;:null}" fill="url(#color-61)" stroke="none" stroke-width="0" stroke-linecap="butt"/><path d="M160.28574,353.14282c0,-6.90632 5.59867,-12.50499 12.50499,-12.50499c6.90633,0 12.50499,5.59867 12.50499,12.50499c0,6.90632 -5.59867,12.50499 -12.50499,12.50499c-6.90633,0 -12.50499,-5.59867 -12.50499,-12.50499z" data-paper-data="{&quot;index&quot;:null}" fill="#0100ff" stroke="none" stroke-width="0.5" stroke-linecap="butt"/><path d="M161.25573,353.14282c0,-6.37059 5.16439,-11.53499 11.53499,-11.53499c6.3706,0 11.535,5.1644 11.535,11.53499c0,6.37059 -5.1644,11.535 -11.535,11.535c-6.3706,0 -11.53499,-5.1644 -11.53499,-11.535z" data-paper-data="{&quot;index&quot;:null}" fill="url(#color-62)" stroke="none" stroke-width="0" stroke-linecap="butt"/><path d="M308.55114,331.53673c13.67557,-4.29399 28.24277,3.31127 32.53677,16.98683c4.29399,13.67557 -3.31127,28.24277 -16.98683,32.53677c-13.67557,4.29399 -28.24277,-3.31127 -32.53677,-16.98683c-4.29399,-13.67557 3.31127,-28.24277 16.98684,-32.53677z" data-paper-data="{&quot;index&quot;:null}" fill="url(#color-63)" stroke="none" stroke-width="0" stroke-linecap="butt"/><path d="M312.57999,344.36784c6.58914,-2.06892 13.60789,1.59543 15.67681,8.18458c2.06892,6.58915 -1.59542,13.60789 -8.18456,15.67681c-6.58914,2.06892 -13.60789,-1.59542 -15.67681,-8.18457c-2.06892,-6.58915 1.59542,-13.60789 8.18457,-15.67681z" data-paper-data="{&quot;index&quot;:null}" fill="#ff0000" stroke="none" stroke-width="0.5" stroke-linecap="butt"/><path d="M312.87056,345.29328c6.07802,-1.90843 12.55234,1.47168 14.46078,7.54971c1.90843,6.07802 -1.47169,12.55233 -7.54971,14.46077c-6.07802,1.90843 -12.55234,-1.47169 -14.46078,-7.54971c-1.90844,-6.07803 1.47169,-12.55235 7.54971,-14.46078z" data-paper-data="{&quot;index&quot;:null}" fill="url(#color-64)" stroke="none" stroke-width="0" stroke-linecap="butt"/><path d="M463.82863,216.91812c14.33385,0 25.95375,11.6199 25.95375,25.95375c0,14.33386 -11.6199,25.95374 -25.95375,25.95374c-14.33385,0 -25.95374,-11.61989 -25.95374,-25.95374c0,-14.33385 11.61989,-25.95375 25.95374,-25.95375z" data-paper-data="{&quot;index&quot;:null}" fill="url(#color-65)" stroke="none" stroke-width="0" stroke-linecap="butt"/><path d="M463.82864,230.36687c6.90632,0 12.50498,5.59867 12.50498,12.505c0,6.90633 -5.59866,12.50499 -12.50498,12.50499c-6.90632,0 -12.505,-5.59866 -12.505,-12.50499c0,-6.90633 5.59867,-12.505 12.505,-12.505z" data-paper-data="{&quot;index&quot;:null}" fill="#ff0000" stroke="none" stroke-width="0.5" stroke-linecap="butt"/><path d="M463.82862,231.33687c6.37061,0 11.53501,5.1644 11.53501,11.535c0,6.3706 -5.16441,11.53499 -11.53501,11.53499c-6.37059,0 -11.53499,-5.16439 -11.53499,-11.53499c0,-6.3706 5.1644,-11.535 11.53499,-11.535z" data-paper-data="{&quot;index&quot;:null}" fill="url(#color-66)" stroke="none" stroke-width="0" stroke-linecap="butt"/><path d="M24.18431,273.3107c3.55189,13.88682 -4.82621,28.02366 -18.71303,31.57556c-13.88681,3.55189 -28.02368,-4.82623 -31.57557,-18.71303c-3.55189,-13.88682 4.82623,-28.02366 18.71305,-31.57556c13.88682,-3.55189 28.02367,4.82623 31.57556,18.71303z" data-paper-data="{&quot;index&quot;:null}" fill="url(#color-67)" stroke="none" stroke-width="0" stroke-linecap="butt"/><path d="M11.155,276.64328c1.71137,6.69092 -2.32536,13.50231 -9.01628,15.21368c-6.69093,1.71137 -13.50231,-2.32535 -15.21368,-9.01628c-1.71136,-6.69092 2.32535,-13.50232 9.01628,-15.21369c6.69093,-1.71137 13.50233,2.32536 15.21369,9.01629z" data-paper-data="{&quot;index&quot;:null}" fill="#00c4ff" stroke="none" stroke-width="0.5" stroke-linecap="butt"/><path d="M10.21525,276.88363c1.57863,6.17192 -2.14499,12.45497 -8.3169,14.03359c-6.17191,1.57862 -12.45497,-2.14499 -14.03358,-8.3169c-1.57861,-6.17192 2.14499,-12.45497 8.3169,-14.03359c6.17192,-1.57862 12.45498,2.145 14.0336,8.31691z" data-paper-data="{&quot;index&quot;:null}" fill="url(#color-68)" stroke="none" stroke-width="0" stroke-linecap="butt"/><path d="M20.35371,206.05698c3.55189,13.88682 -4.82622,28.02367 -18.71303,31.57556c-13.88681,3.55189 -28.02368,-4.82621 -31.57557,-18.71303c-3.55189,-13.88682 4.82623,-28.02367 18.71305,-31.57556c13.88682,-3.55189 28.02368,4.82622 31.57557,18.71304z" data-paper-data="{&quot;index&quot;:null}" fill="url(#color-69)" stroke="none" stroke-width="0" stroke-linecap="butt"/><path d="M7.3244,209.38955c1.71137,6.69092 -2.32536,13.50231 -9.01629,15.21367c-6.69093,1.71137 -13.50231,-2.32534 -15.21368,-9.01627c-1.71136,-6.69092 2.32536,-13.50232 9.01629,-15.21368c6.69093,-1.71137 13.50233,2.32535 15.21369,9.01628z" data-paper-data="{&quot;index&quot;:null}" fill="#38ff00" stroke="none" stroke-width="0.5" stroke-linecap="butt"/><path d="M6.38465,209.6299c1.57862,6.17191 -2.14501,12.45497 -8.31692,14.03359c-6.17191,1.57862 -12.45496,-2.145 -14.03357,-8.31691c-1.57861,-6.17191 2.14499,-12.45495 8.3169,-14.03357c6.17192,-1.57862 12.45498,2.14499 14.03359,8.3169z" data-paper-data="{&quot;index&quot;:null}" fill="url(#color-70)" stroke="none" stroke-width="0" stroke-linecap="butt"/><path d="M424.82656,246.17779c14.33385,0 25.95375,11.6199 25.95375,25.95375c0,14.33385 -11.6199,25.95375 -25.95375,25.95375c-14.33385,0 -25.95374,-11.6199 -25.95374,-25.95375c0,-14.33385 11.61989,-25.95375 25.95374,-25.95375z" data-paper-data="{&quot;index&quot;:null}" fill="url(#color-71)" stroke="none" stroke-width="0" stroke-linecap="butt"/><path d="M424.82657,259.62655c6.90632,0 12.50498,5.59866 12.50498,12.50499c0,6.90632 -5.59866,12.50499 -12.50498,12.50499c-6.90632,0 -12.50499,-5.59867 -12.50499,-12.50499c0,-6.90632 5.59867,-12.50499 12.50499,-12.50499z" data-paper-data="{&quot;index&quot;:null}" fill="#38ff00" stroke="none" stroke-width="0.5" stroke-linecap="butt"/><path d="M424.82655,260.59655c6.37061,0 11.53501,5.1644 11.53501,11.53499c0,6.37059 -5.16441,11.53499 -11.53501,11.53499c-6.37059,0 -11.53499,-5.1644 -11.53499,-11.53499c0,-6.37059 5.1644,-11.53499 11.53499,-11.53499z" data-paper-data="{&quot;index&quot;:null}" fill="url(#color-72)" stroke="none" stroke-width="0" stroke-linecap="butt"/><path d="M461.99056,322.94788c0,14.33386 -11.61989,25.95375 -25.95375,25.95375c-14.33386,0 -25.95375,-11.61989 -25.95375,-25.95375c0,-14.33386 11.61989,-25.95374 25.95375,-25.95374c14.33386,0 25.95375,11.61989 25.95375,25.95374z" data-paper-data="{&quot;index&quot;:null}" fill="url(#color-73)" stroke="none" stroke-width="0" stroke-linecap="butt"/><path d="M448.5418,322.94788c0,6.90632 -5.59868,12.505 -12.50499,12.505c-6.90632,0 -12.50498,-5.59867 -12.50498,-12.505c0,-6.90632 5.59867,-12.50499 12.50498,-12.50499c6.90632,0 12.50499,5.59867 12.50499,12.50499z" data-paper-data="{&quot;index&quot;:null}" fill="#00c4ff" stroke="none" stroke-width="0.5" stroke-linecap="butt"/><path d="M447.57181,322.94788c0,6.37059 -5.1644,11.53499 -11.53499,11.53499c-6.37059,0 -11.53501,-5.1644 -11.53501,-11.53499c0,-6.37059 5.1644,-11.53499 11.53501,-11.53499c6.37059,0 11.53499,5.1644 11.53499,11.53499z" data-paper-data="{&quot;index&quot;:null}" fill="url(#color-74)" stroke="none" stroke-width="0" stroke-linecap="butt"/><path d="M-10.77545,167.13782c-3.55189,-13.88682 4.82622,-28.02367 18.71305,-31.57556c13.88682,-3.55189 28.02368,4.82622 31.57557,18.71303c3.55189,13.88682 -4.82623,28.02367 -18.71304,31.57557c-13.88681,3.55189 -28.02366,-4.82622 -31.57555,-18.71304z" data-paper-data="{&quot;index&quot;:null}" fill="url(#color-75)" stroke="none" stroke-width="0" stroke-linecap="butt"/><path d="M2.25386,163.80525c-1.71136,-6.69092 2.32536,-13.50232 9.01629,-15.21369c6.69093,-1.71137 13.50233,2.32535 15.21369,9.01628c1.71137,6.69092 -2.32536,13.50232 -9.01629,15.21369c-6.69093,1.71137 -13.50231,-2.32535 -15.21368,-9.01628z" data-paper-data="{&quot;index&quot;:null}" fill="#ffa000" stroke="none" stroke-width="0.5" stroke-linecap="butt"/><path d="M3.19362,163.56491c-1.57861,-6.17192 2.14499,-12.45497 8.3169,-14.03359c6.17191,-1.57862 12.45497,2.145 14.03359,8.31691c1.57861,6.17191 -2.14501,12.45496 -8.31692,14.03358c-6.17191,1.57862 -12.45495,-2.14499 -14.03357,-8.3169z" data-paper-data="{&quot;index&quot;:null}" fill="url(#color-76)" stroke="none" stroke-width="0" stroke-linecap="butt"/><path d="M273.3615,263.40884c-14.33385,0 -25.95374,-11.61989 -25.95374,-25.95374c0,-14.33385 11.61989,-25.95375 25.95375,-25.95375c14.33385,0 25.95375,11.6199 25.95375,25.95375c0,14.33386 -11.6199,25.95375 -25.95375,25.95375z" data-paper-data="{&quot;index&quot;:null}" fill="url(#color-77)" stroke="none" stroke-width="0" stroke-linecap="butt"/><path d="M273.36149,249.96008c-6.90632,0 -12.50498,-5.59866 -12.50498,-12.50499c0,-6.90633 5.59866,-12.505 12.50498,-12.505c6.90632,0 12.505,5.59867 12.505,12.505c0,6.90633 -5.59867,12.50499 -12.505,12.50499z" data-paper-data="{&quot;index&quot;:null}" fill="#ff00c8" stroke="none" stroke-width="0.5" stroke-linecap="butt"/><path d="M273.3615,248.99009c-6.37061,0 -11.535,-5.1644 -11.535,-11.535c0,-6.3706 5.1644,-11.535 11.535,-11.535c6.37061,0 11.53501,5.1644 11.53501,11.535c0,6.37061 -5.16441,11.535 -11.53501,11.535z" data-paper-data="{&quot;index&quot;:null}" fill="url(#color-78)" stroke="none" stroke-width="0" stroke-linecap="butt"/><path d="M339.46692,276.36298c-14.33385,0 -25.95374,-11.61989 -25.95374,-25.95375c0,-14.33385 11.61989,-25.95374 25.95374,-25.95374c14.33385,0 25.95375,11.61989 25.95375,25.95375c0,14.33386 -11.6199,25.95375 -25.95375,25.95375z" data-paper-data="{&quot;index&quot;:null}" fill="url(#color-79)" stroke="none" stroke-width="0" stroke-linecap="butt"/><path d="M339.46691,262.91423c-6.90632,0 -12.50498,-5.59867 -12.50498,-12.50499c0,-6.90633 5.59866,-12.50499 12.50498,-12.50499c6.90632,0 12.50499,5.59867 12.50499,12.50499c0,6.90633 -5.59867,12.50499 -12.50499,12.50499z" data-paper-data="{&quot;index&quot;:null}" fill="#0100ff" stroke="none" stroke-width="0.5" stroke-linecap="butt"/><path d="M339.46692,261.94424c-6.37059,0 -11.53499,-5.16441 -11.53499,-11.535c0,-6.3706 5.1644,-11.53499 11.53499,-11.53499c6.37059,0 11.535,5.1644 11.535,11.53499c0,6.3706 -5.1644,11.535 -11.535,11.535z" data-paper-data="{&quot;index&quot;:null}" fill="url(#color-80)" stroke="none" stroke-width="0" stroke-linecap="butt"/><path d="M383.80457,344.49157c-14.33385,0 -25.95375,-11.6199 -25.95375,-25.95375c0,-14.33385 11.6199,-25.95375 25.95375,-25.95375c14.33385,0 25.95375,11.61989 25.95375,25.95375c0,14.33385 -11.6199,25.95375 -25.95375,25.95375z" data-paper-data="{&quot;index&quot;:null}" fill="url(#color-81)" stroke="none" stroke-width="0" stroke-linecap="butt"/><path d="M383.80456,331.04282c-6.90632,0 -12.50498,-5.59867 -12.50498,-12.505c0,-6.90632 5.59866,-12.50499 12.50498,-12.50499c6.90632,0 12.50499,5.59867 12.50499,12.50499c0,6.90632 -5.59867,12.505 -12.50499,12.505z" data-paper-data="{&quot;index&quot;:null}" fill="#0100ff" stroke="none" stroke-width="0.5" stroke-linecap="butt"/><path d="M383.80457,330.07283c-6.37059,0 -11.535,-5.16441 -11.535,-11.53501c0,-6.37059 5.1644,-11.53499 11.535,-11.53499c6.37059,0 11.53499,5.1644 11.53499,11.53499c0,6.37061 -5.1644,11.53501 -11.53499,11.53501z" data-paper-data="{&quot;index&quot;:null}" fill="url(#color-82)" stroke="none" stroke-width="0" stroke-linecap="butt"/><path d="M499.03441,148.73108c0,-14.33385 11.6199,-25.95375 25.95375,-25.95375c14.33385,0 25.95375,11.6199 25.95375,25.95375c0,14.33386 -11.6199,25.95375 -25.95375,25.95375c-14.33385,0 -25.95375,-11.61989 -25.95375,-25.95375z" data-paper-data="{&quot;index&quot;:null}" fill="url(#color-83)" stroke="none" stroke-width="0" stroke-linecap="butt"/><path d="M512.48318,148.73108c0,-6.90633 5.59868,-12.50499 12.50499,-12.50499c6.90633,0 12.50498,5.59866 12.50498,12.50499c0,6.90633 -5.59867,12.50499 -12.50498,12.50499c-6.90633,0 -12.50499,-5.59866 -12.50499,-12.50499z" data-paper-data="{&quot;index&quot;:null}" fill="#ffa000" stroke="none" stroke-width="0.5" stroke-linecap="butt"/><path d="M513.45316,148.73108c0,-6.3706 5.1644,-11.53499 11.53499,-11.53499c6.37059,0 11.535,5.16439 11.535,11.53499c0,6.3706 -5.1644,11.53499 -11.535,11.53499c-6.37059,0 -11.53499,-5.16439 -11.53499,-11.53499z" data-paper-data="{&quot;index&quot;:null}" fill="url(#color-84)" stroke="none" stroke-width="0" stroke-linecap="butt"/><path d="M541.55023,317.47915c-14.33385,0 -25.95375,-11.61989 -25.95375,-25.95375c0,-14.33385 11.6199,-25.95375 25.95375,-25.95375c14.33385,0 25.95375,11.6199 25.95375,25.95375c0,14.33385 -11.61989,25.95375 -25.95375,25.95375z" data-paper-data="{&quot;index&quot;:null}" fill="url(#color-85)" stroke="none" stroke-width="0" stroke-linecap="butt"/><path d="M541.55022,304.03039c-6.90631,0 -12.50498,-5.59867 -12.50498,-12.50499c0,-6.90632 5.59865,-12.505 12.50498,-12.505c6.90631,0 12.50499,5.59867 12.50499,12.505c0,6.90632 -5.59866,12.50499 -12.50499,12.50499z" data-paper-data="{&quot;index&quot;:null}" fill="#ff00c8" stroke="none" stroke-width="0.5" stroke-linecap="butt"/><path d="M541.55023,303.0604c-6.3706,0 -11.535,-5.16441 -11.535,-11.535c0,-6.37059 5.16441,-11.53499 11.535,-11.53499c6.3706,0 11.535,5.1644 11.535,11.53499c0,6.37061 -5.16441,11.535 -11.535,11.535z" data-paper-data="{&quot;index&quot;:null}" fill="url(#color-86)" stroke="none" stroke-width="0" stroke-linecap="butt"/></g></g></svg>