<svg version="1.1" xmlns="http://www.w3.org/2000/svg" xmlns:xlink="http://www.w3.org/1999/xlink" width="39.80634" height="39.80634" viewBox="0,0,39.80634,39.80634"><g transform="translate(-220.09683,-160.09683)"><g data-paper-data="{&quot;isPaintingLayer&quot;:true}" fill-rule="nonzero" stroke-linecap="butt" stroke-linejoin="miter" stroke-miterlimit="10" stroke-dasharray="" stroke-dashoffset="0" style="mix-blend-mode: normal"><path d="M222.09683,180c0,-9.88765 8.01552,-17.90317 17.90317,-17.90317c9.88765,0 17.90317,8.01552 17.90317,17.90317c0,9.88765 -8.01552,17.90317 -17.90317,17.90317c-9.88765,0 -17.90317,-8.01552 -17.90317,-17.90317z" fill="#ff0000" stroke="#820000" stroke-width="4"/><path d="M228.03724,186.0705c0,-2.38496 1.93339,-4.31835 4.31835,-4.31835c2.38496,0 4.31835,1.93339 4.31835,4.31835c0,2.38496 -1.93339,4.31835 -4.31835,4.31835c-2.38496,0 -4.31835,-1.93339 -4.31835,-4.31835z" fill="#000000" stroke="none" stroke-width="0.5"/><path d="M242.81294,186.18265c0,-2.38496 1.93339,-4.31836 4.31835,-4.31836c2.38496,0 4.31835,1.9334 4.31835,4.31836c0,2.38496 -1.93339,4.31835 -4.31835,4.31835c-2.38496,0 -4.31835,-1.93339 -4.31835,-4.31835z" fill="#000000" stroke="none" stroke-width="0.5"/></g></g></svg>