<svg version="1.1" xmlns="http://www.w3.org/2000/svg" xmlns:xlink="http://www.w3.org/1999/xlink" width="37.50384" height="37.50384" viewBox="0,0,37.50384,37.50384"><defs><radialGradient cx="249.17749" cy="178.19286" r="16.5" gradientUnits="userSpaceOnUse" id="color-1"><stop offset="0" stop-color="#800000"/><stop offset="1" stop-color="#800000" stop-opacity="0"/></radialGradient><radialGradient cx="230.66992" cy="180.6645" r="16.5" gradientUnits="userSpaceOnUse" id="color-2"><stop offset="0" stop-color="#800000"/><stop offset="1" stop-color="#800000" stop-opacity="0"/></radialGradient><radialGradient cx="239.76612" cy="179.65704" r="18.74974" gradientUnits="userSpaceOnUse" id="color-3"><stop offset="0" stop-color="#7b0000"/><stop offset="1" stop-color="#7b0000" stop-opacity="0"/></radialGradient><radialGradient cx="249.5334" cy="174.41323" r="6.04745" gradientUnits="userSpaceOnUse" id="color-4"><stop offset="0" stop-color="#cfcfcf"/><stop offset="1" stop-color="#ffffff"/></radialGradient><radialGradient cx="249.56952" cy="186.70337" r="5.9375" gradientUnits="userSpaceOnUse" id="color-5"><stop offset="0" stop-color="#cfcfcf"/><stop offset="1" stop-color="#ffffff"/></radialGradient></defs><g transform="translate(-221.24808,-161.24808)"><g data-paper-data="{&quot;isPaintingLayer&quot;:true}" fill-rule="nonzero" stroke="none" stroke-width="0.5" stroke-linecap="butt" stroke-linejoin="miter" stroke-miterlimit="10" stroke-dasharray="" stroke-dashoffset="0" style="mix-blend-mode: normal"><path d="M237.81586,163.6452c9.03251,-1.20627 17.33268,5.13815 18.53895,14.17066c1.20627,9.03251 -5.13815,17.33268 -14.17066,18.53895c-9.03251,1.20627 -17.33268,-5.13815 -18.53895,-14.17066c-1.20627,-9.03251 5.13815,-17.33268 14.17066,-18.53895z" fill="#ff0000"/><path d="M237.81586,163.6452c9.03251,-1.20627 17.33268,5.13815 18.53895,14.17066c1.20627,9.03251 -5.13815,17.33268 -14.17066,18.53895c-9.03251,1.20627 -17.33268,-5.13815 -18.53895,-14.17066c-1.20627,-9.03251 5.13815,-17.33268 14.17066,-18.53895z" fill="url(#color-1)"/><path d="M256.3548,177.81586c1.20627,9.03251 -5.13815,17.33268 -14.17066,18.53895c-9.03251,1.20627 -17.33268,-5.13815 -18.53895,-14.17066c-1.20627,-9.03251 5.13815,-17.33268 14.17066,-18.53895c9.03251,-1.20627 17.33268,5.13815 18.53895,14.17066z" data-paper-data="{&quot;index&quot;:null}" fill="url(#color-2)"/><path d="M258.58475,177.51805c1.37074,10.26407 -5.83873,19.69595 -16.1028,21.0667c-10.26407,1.37074 -19.69595,-5.83873 -21.0667,-16.1028c-1.37074,-10.26407 5.83873,-19.69595 16.1028,-21.0667c10.26407,-1.37074 19.69595,5.83873 21.0667,16.1028z" data-paper-data="{&quot;index&quot;:null}" fill="url(#color-3)"/><path d="M243.49767,174.03694c0.20782,-3.33345 3.07858,-5.86727 6.41203,-5.65945c3.33345,0.20782 5.86726,3.07858 5.65944,6.41203c-0.20782,3.33345 -3.07857,5.86726 -6.41202,5.65944c-3.33345,-0.20782 -5.86727,-3.07858 -5.65945,-6.41202z" fill="url(#color-4)"/><path d="M247.81333,174.0927c0.13603,-2.18189 2.01508,-3.84039 4.19696,-3.70436c2.18189,0.13603 3.84039,2.01508 3.70436,4.19696c-0.13603,2.18189 -2.01507,3.84039 -4.19696,3.70436c-2.18189,-0.13603 -3.84039,-2.01507 -3.70437,-4.19696z" fill="#000000"/><path d="M243.64352,186.33392c0.20404,-3.27284 3.02261,-5.76059 6.29544,-5.55654c3.27284,0.20404 5.76059,3.02261 5.55654,6.29544c-0.20404,3.27284 -3.02261,5.76059 -6.29544,5.55654c-3.27284,-0.20404 -5.76059,-3.02261 -5.55654,-6.29544z" fill="url(#color-5)"/><path d="M247.62471,186.44154c0.13603,-2.18189 2.01508,-3.84039 4.19696,-3.70436c2.18189,0.13603 3.84039,2.01508 3.70436,4.19696c-0.13603,2.18189 -2.01507,3.84039 -4.19696,3.70437c-2.18189,-0.13603 -3.84039,-2.01508 -3.70436,-4.19696z" fill="#000000"/></g></g></svg>