<svg version="1.1" xmlns="http://www.w3.org/2000/svg" xmlns:xlink="http://www.w3.org/1999/xlink" width="37.50384" height="37.50384" viewBox="0,0,37.50384,37.50384"><defs><radialGradient cx="249.17749" cy="178.19286" r="16.5" gradientUnits="userSpaceOnUse" id="color-1"><stop offset="0" stop-color="#800000"/><stop offset="1" stop-color="#800000" stop-opacity="0"/></radialGradient><radialGradient cx="230.66992" cy="180.6645" r="16.5" gradientUnits="userSpaceOnUse" id="color-2"><stop offset="0" stop-color="#800000"/><stop offset="1" stop-color="#800000" stop-opacity="0"/></radialGradient><radialGradient cx="239.76613" cy="179.65705" r="18.74974" gradientUnits="userSpaceOnUse" id="color-3"><stop offset="0" stop-color="#7b0000"/><stop offset="1" stop-color="#7b0000" stop-opacity="0"/></radialGradient></defs><g transform="translate(-221.24808,-161.24809)"><g data-paper-data="{&quot;isPaintingLayer&quot;:true}" fill-rule="nonzero" stroke="none" stroke-width="0.5" stroke-linecap="butt" stroke-linejoin="miter" stroke-miterlimit="10" stroke-dasharray="" stroke-dashoffset="0" style="mix-blend-mode: normal"><path d="M237.81586,163.6452c9.03251,-1.20627 17.33268,5.13815 18.53895,14.17066c1.20627,9.03251 -5.13815,17.33268 -14.17066,18.53895c-9.03251,1.20627 -17.33268,-5.13815 -18.53895,-14.17066c-1.20627,-9.03251 5.13815,-17.33268 14.17066,-18.53895z" fill="#ff0000"/><path d="M237.81586,163.6452c9.03251,-1.20627 17.33268,5.13815 18.53895,14.17066c1.20627,9.03251 -5.13815,17.33268 -14.17066,18.53895c-9.03251,1.20627 -17.33268,-5.13815 -18.53895,-14.17066c-1.20627,-9.03251 5.13815,-17.33268 14.17066,-18.53895z" fill="url(#color-1)"/><path d="M256.3548,177.81586c1.20627,9.03251 -5.13815,17.33268 -14.17066,18.53895c-9.03251,1.20627 -17.33268,-5.13815 -18.53895,-14.17066c-1.20627,-9.03251 5.13815,-17.33268 14.17066,-18.53895c9.03251,-1.20627 17.33268,5.13815 18.53895,14.17066z" data-paper-data="{&quot;index&quot;:null}" fill="url(#color-2)"/><path d="M258.58475,177.51806c1.37074,10.26407 -5.83873,19.69595 -16.1028,21.0667c-10.26407,1.37074 -19.69595,-5.83873 -21.0667,-16.1028c-1.37074,-10.26407 5.83873,-19.69595 16.1028,-21.0667c10.26407,-1.37074 19.69595,5.83873 21.0667,16.1028z" data-paper-data="{&quot;index&quot;:null}" fill="url(#color-3)"/></g></g></svg>