<svg version="1.1" xmlns="http://www.w3.org/2000/svg" xmlns:xlink="http://www.w3.org/1999/xlink" width="120" height="64.5" viewBox="0,0,120,64.5"><g transform="translate(-180,-147.75)"><g data-paper-data="{&quot;isPaintingLayer&quot;:true}" fill="#ffffff" fill-rule="nonzero" stroke="none" stroke-width="0" stroke-linecap="butt" stroke-linejoin="miter" stroke-miterlimit="10" stroke-dasharray="" stroke-dashoffset="0" style="mix-blend-mode: normal"><path d="M230.5,187.75c0,11.59798 -11.30481,21 -25.25,21c-13.94519,0 -25.25,-9.40202 -25.25,-21c0,-11.59798 11.30481,-21 25.25,-21c13.94519,0 25.25,9.40202 25.25,21z"/><path d="M243,168.75c0,11.59798 -11.30481,21 -25.25,21c-13.94519,0 -25.25,-9.40202 -25.25,-21c0,-11.59798 11.30481,-21 25.25,-21c13.94519,0 25.25,9.40202 25.25,21z"/><path d="M266,191.25c0,11.59798 -11.30481,21 -25.25,21c-13.94519,0 -25.25,-9.40202 -25.25,-21c0,-11.59798 11.30481,-21 25.25,-21c13.94519,0 25.25,9.40202 25.25,21z"/><path d="M277,168.75c0,11.59798 -11.30481,21 -25.25,21c-13.94519,0 -25.25,-9.40202 -25.25,-21c0,-11.59798 11.30481,-21 25.25,-21c13.94519,0 25.25,9.40202 25.25,21z"/><path d="M300,191.25c0,11.59798 -11.30481,21 -25.25,21c-13.94519,0 -25.25,-9.40202 -25.25,-21c0,-11.59798 11.30481,-21 25.25,-21c13.94519,0 25.25,9.40202 25.25,21z"/></g></g></svg>