<svg version="1.1" xmlns="http://www.w3.org/2000/svg" xmlns:xlink="http://www.w3.org/1999/xlink" width="32.86992" height="41.87403" viewBox="0,0,32.86992,41.87403"><g transform="translate(-223.56504,-159.06299)"><g data-paper-data="{&quot;isPaintingLayer&quot;:true}" fill-rule="nonzero" stroke-linecap="square" stroke-linejoin="miter" stroke-miterlimit="10" stroke-dasharray="" stroke-dashoffset="0" style="mix-blend-mode: normal"><path d="M253.93494,184.24481c0,1.94375 -0.35731,3.77315 -1.07192,5.48823c-0.68603,1.71508 -1.64362,3.21576 -2.87275,4.50206c-1.20054,1.28631 -2.64406,2.31535 -4.33055,3.08713c-1.65789,0.74321 -3.45872,1.11479 -5.40247,1.11479c-1.94375,0 -3.78745,-0.3716 -5.53111,-1.11479c-1.71508,-0.77178 -3.21576,-1.80083 -4.50206,-3.08713c-1.28631,-1.28631 -2.30105,-2.787 -3.04425,-4.50206c-0.74321,-1.71508 -1.11479,-3.54448 -1.11479,-5.48823c0,-2.28676 0.22868,-4.51636 0.68603,-6.68878c0.45735,-2.20101 1.11479,-4.27338 1.97233,-6.21713c0.85753,-1.97233 1.91515,-3.78745 3.17288,-5.44536c1.25773,-1.65789 2.67266,-3.10142 4.2448,-4.33055h9.69015c-1.00047,0.65745 -1.98663,1.38635 -2.9585,2.18671c-0.94328,0.80036 -1.8437,1.65789 -2.70124,2.57261c-0.85753,0.91471 -1.65789,1.88658 -2.4011,2.91562c-0.71461,1.00047 -1.35776,2.04379 -1.92945,3.13001c0.71461,-0.45735 1.48639,-0.85753 2.31535,-1.20054c0.85753,-0.34301 1.72937,-0.51452 2.61549,-0.51452c2.0295,0 3.84462,0.34301 5.44536,1.02904c1.62932,0.65745 3.01567,1.58644 4.15905,2.787c1.14338,1.20054 2.0152,2.64406 2.61549,4.33055c0.62886,1.65789 0.94328,3.47302 0.94328,5.44536zM246.73167,184.24481c0,-0.94328 -0.15721,-1.8294 -0.47165,-2.65836c-0.28584,-0.85753 -0.71461,-1.60074 -1.28631,-2.22959c-0.5717,-0.65745 -1.25773,-1.15767 -2.05809,-1.50069c-0.80036,-0.3716 -1.68649,-0.5574 -2.65836,-0.5574c-1.00047,0 -1.90088,0.1858 -2.70124,0.5574c-0.77178,0.34301 -1.44352,0.84323 -2.0152,1.50069c-0.5717,0.62886 -1.01475,1.37206 -1.32918,2.22959c-0.28584,0.82896 -0.42877,1.71508 -0.42877,2.65836c0,0.91471 0.15721,1.80083 0.47165,2.65836c0.31443,0.82896 0.75748,1.57214 1.32918,2.22959c0.5717,0.65745 1.24343,1.18626 2.0152,1.58644c0.80036,0.3716 1.68649,0.5574 2.65836,0.5574c0.97187,0 1.858,-0.1858 2.65836,-0.5574c0.80036,-0.3716 1.48639,-0.87183 2.05809,-1.50069c0.5717,-0.65745 1.00047,-1.40063 1.28631,-2.22959c0.31443,-0.85753 0.47165,-1.77224 0.47165,-2.74411z" fill="#000000" stroke="#ffffff" stroke-width="5"/><path d="M253.93498,184.24481c0,1.94375 -0.35731,3.77315 -1.07192,5.48823c-0.68603,1.71508 -1.64362,3.21576 -2.87275,4.50206c-1.20054,1.28631 -2.64406,2.31535 -4.33055,3.08713c-1.65789,0.74321 -3.45872,1.11479 -5.40247,1.11479c-1.94375,0 -3.78745,-0.3716 -5.53111,-1.11479c-1.71508,-0.77178 -3.21576,-1.80083 -4.50206,-3.08713c-1.28631,-1.28631 -2.30105,-2.787 -3.04425,-4.50206c-0.74321,-1.71508 -1.11479,-3.54448 -1.11479,-5.48823c0,-2.28676 0.22868,-4.51636 0.68603,-6.68878c0.45735,-2.20101 1.11479,-4.27338 1.97233,-6.21713c0.85753,-1.97233 1.91515,-3.78745 3.17288,-5.44536c1.25773,-1.65789 2.67266,-3.10142 4.2448,-4.33055h9.69015c-1.00047,0.65745 -1.98663,1.38635 -2.9585,2.18671c-0.94328,0.80036 -1.8437,1.65789 -2.70124,2.57261c-0.85753,0.91471 -1.65789,1.88658 -2.4011,2.91562c-0.71461,1.00047 -1.35776,2.04379 -1.92945,3.13001c0.71461,-0.45735 1.48639,-0.85753 2.31535,-1.20054c0.85753,-0.34301 1.72937,-0.51452 2.61549,-0.51452c2.0295,0 3.84462,0.34301 5.44536,1.02904c1.62932,0.65745 3.01567,1.58644 4.15905,2.787c1.14338,1.20054 2.0152,2.64406 2.61549,4.33055c0.62886,1.65789 0.94328,3.47302 0.94328,5.44536zM246.73171,184.24481c0,-0.94328 -0.15721,-1.8294 -0.47165,-2.65836c-0.28584,-0.85753 -0.71461,-1.60074 -1.28631,-2.22959c-0.5717,-0.65745 -1.25773,-1.15767 -2.05809,-1.50069c-0.80036,-0.3716 -1.68649,-0.5574 -2.65836,-0.5574c-1.00047,0 -1.90088,0.1858 -2.70124,0.5574c-0.77178,0.34301 -1.44352,0.84323 -2.0152,1.50069c-0.5717,0.62886 -1.01475,1.37206 -1.32918,2.22959c-0.28584,0.82896 -0.42877,1.71508 -0.42877,2.65836c0,0.91471 0.15721,1.80083 0.47165,2.65836c0.31443,0.82896 0.75748,1.57214 1.32918,2.22959c0.5717,0.65745 1.24343,1.18626 2.0152,1.58644c0.80036,0.3716 1.68649,0.5574 2.65836,0.5574c0.97187,0 1.858,-0.1858 2.65836,-0.5574c0.80036,-0.3716 1.48639,-0.87183 2.05809,-1.50069c0.5717,-0.65745 1.00047,-1.40063 1.28631,-2.22959c0.31443,-0.85753 0.47165,-1.77224 0.47165,-2.74411z" fill="#ffffff" stroke="none" stroke-width="1"/></g></g></svg>