<svg version="1.1" xmlns="http://www.w3.org/2000/svg" xmlns:xlink="http://www.w3.org/1999/xlink" width="251.78784" height="51.75129" viewBox="0,0,251.78784,51.75129"><g transform="translate(-114.10606,-154.12436)"><g data-paper-data="{&quot;isPaintingLayer&quot;:true}" fill="#000000" fill-rule="nonzero" stroke="none" stroke-width="1" stroke-linecap="butt" stroke-linejoin="miter" stroke-miterlimit="10" stroke-dasharray="" stroke-dashoffset="0" style="mix-blend-mode: normal"><path d="M126.0783,175.40574c1.36108,1.25346 2.17971,3.08104 2.46875,5.5l1.9375,16.125c0.29295,2.42041 -0.07023,4.41533 -1.09375,5.96875c-1.02355,1.55343 -2.74956,2.49191 -5.15625,2.8125c-2.39269,0.25659 -4.267,-0.26423 -5.625,-1.53125c-1.35801,-1.26701 -2.17857,-3.1105 -2.46875,-5.53125l-1.9375,-16.125c-0.29181,-2.41863 0.0733,-4.39764 1.09375,-5.9375c1.02045,-1.5398 2.70823,-2.46506 5.09375,-2.78125c0.30173,-0.03262 0.62097,-0.05354 0.90625,-0.0625c1.99698,-0.06273 3.59029,0.46578 4.78125,1.5625zM118.1408,178.59324c-0.51701,0.86659 -0.70637,1.9971 -0.53125,3.4375l2,16.53125c0.16881,1.41948 0.60533,2.50414 1.3125,3.21875c0.70716,0.71462 1.6871,0.98185 2.9375,0.84375c1.26701,-0.16464 2.14704,-0.67035 2.65625,-1.53125c0.50918,-0.86089 0.67532,-1.98756 0.5,-3.40625l-1.96875,-16.53125c-0.16861,-1.44118 -0.61316,-2.52969 -1.3125,-3.25c-0.69936,-0.72025 -1.69893,-1.01635 -2.96875,-0.875c-1.2476,0.1614 -2.10799,0.69597 -2.625,1.5625z"/><path d="M218.7033,187.56199l2.5,-0.3125l0.375,3.1875l-2.5,0.28125l0.78125,6.3125l-3.40625,0.40625l-0.75,-6.3125l-10.09375,1.21875l-0.40625,-3.15625l7.09375,-22.96875l3.78125,-0.46875zM208.42205,188.78074l6.90625,-0.8125l-1.84375,-15.28125z"/><path d="M170.28001,171.82164c1.31518,1.27219 2.09412,3.10942 2.375,5.53125c0.24011,3.09693 -0.36513,5.81544 -1.8125,8.125c-1.44739,2.30959 -2.89281,4.50051 -4.375,6.5625c-1.4822,2.06201 -2.16695,4.23958 -2.03125,6.59375l0.0625,0.5l10.28125,-1.21875l0.375,3.15625l-13.71875,1.65625l-0.3125,-2.6875c-0.2629,-3.28858 0.32506,-6.02523 1.78125,-8.25c1.45618,-2.22474 2.93275,-4.38792 4.40625,-6.46875c1.47349,-2.0808 2.08595,-4.54947 1.875,-7.40625c-0.18455,-1.61298 -0.59884,-2.80239 -1.28125,-3.5625c-0.68243,-0.76005 -1.68215,-1.05717 -2.96875,-0.90625c-1.26438,0.17097 -2.13298,0.70001 -2.625,1.59375c-0.49203,0.89379 -0.64404,2.03488 -0.46875,3.4375l0.3125,2.78125l-3.25,0.375l-0.3125,-2.53125c-0.30064,-2.42134 0.03015,-4.40854 1,-5.96875c0.96985,-1.56015 2.66347,-2.52216 5.0625,-2.84375c0.3035,-0.0326 0.58888,-0.05385 0.875,-0.0625c2.00282,-0.06055 3.5992,0.48064 4.75,1.59375z"/><path d="M189.80185,173.16177c1.4466,0.88452 2.5394,2.35327 3.26959,4.49569l0.24522,0.73566c0.49075,1.43093 0.55761,2.7582 0.32696,3.92351c-0.23068,1.16536 -0.83534,2.13865 -1.79828,2.94263c1.31391,0.0469 2.46792,0.42314 3.35133,1.2261c0.88339,0.80299 1.56901,1.95443 2.0435,3.35133l0.73566,2.12524c0.74392,2.13957 0.75507,3.95924 0.16348,5.55831c-0.59161,1.59907 -1.88679,2.83686 -4.00525,3.59655c-2.11823,0.69883 -3.94839,0.57048 -5.39483,-0.32696c-1.44647,-0.89744 -2.53802,-2.43362 -3.26959,-4.57743l-0.65392,-1.88002l2.94263,-0.98088l0.65392,2.12524c0.42902,1.25691 1.02786,2.10078 1.79828,2.61567c0.77042,0.5149 1.75376,0.6144 2.86089,0.24522c1.11987,-0.3883 1.8498,-1.06285 2.12524,-1.96176c0.2754,-0.89888 0.16272,-2.0294 -0.32696,-3.43307l-0.73566,-2.12524c-0.46721,-1.35981 -1.15291,-2.30509 -1.96176,-2.77915c-0.80887,-0.47401 -1.76527,-0.5292 -2.94263,-0.16348l-1.71654,0.57218l-0.89914,-2.77915l1.79828,-0.57218c1.02309,-0.39918 1.68075,-1.03947 2.0435,-1.88002c0.36274,-0.84052 0.40598,-1.89466 0,-3.10611l-0.49044,-1.2261c-0.48468,-1.42654 -1.10821,-2.39962 -1.88002,-2.94263c-0.77181,-0.54296 -1.65787,-0.62938 -2.77915,-0.24522c-1.09918,0.39225 -1.839,0.98849 -2.12524,1.88002c-0.28623,0.89158 -0.19094,2.01334 0.24522,3.26959l0.49044,1.38958l-2.86089,0.98088l-0.49044,-1.2261c-0.74254,-2.13816 -0.83668,-4.0539 -0.24522,-5.64005c0.59146,-1.58609 1.98689,-2.76325 4.08699,-3.51481c1.06829,-0.35348 2.04682,-0.45306 2.94263,-0.4087c0.89582,0.04436 1.72888,0.29343 2.45219,0.73566z"/><path d="M303.25256,164.86411l1.47132,27.46458l-3.02437,1.06262l-1.55306,-27.3011l-9.40008,3.18785l-0.89914,-2.77915l12.50619,-4.25047z"/><path d="M150.3444,202.46812l-3.10611,1.06262l-7.76528,-22.64193c-0.40739,0.49949 -0.8931,0.95292 -1.47132,1.38958c-0.57822,0.43671 -1.24171,0.84675 -1.96176,1.14436l-0.89914,-2.53393c1.43849,-0.58915 2.41055,-1.36549 2.86089,-2.28872c0.45034,-0.92318 0.67466,-1.92069 0.65392,-3.02437l2.12524,-0.73566z"/><path d="M279.98455,156.59324c3.09948,0.90942 5.13612,2.47858 6.125,4.6875c0.98882,2.20898 1.04473,4.87777 0.15625,8l-0.21875,0.75l-4.21875,-1.1875l0.28125,-1.03125c0.52141,-1.8309 0.56151,-3.37173 0.0625,-4.59375c-0.49906,-1.22195 -1.5824,-2.05671 -3.21875,-2.53125c-1.69581,-0.4756 -3.08759,-0.27459 -4.1875,0.59375c-1.09994,0.8684 -1.96144,2.39302 -2.5625,4.5625l-2.53125,9.0625c0.94179,-1.23874 2.0432,-2.09454 3.34375,-2.53125c1.30052,-0.43667 2.75451,-0.41669 4.375,0.03125c2.57726,0.76253 4.26351,2.17429 5,4.21875c0.73644,2.04449 0.65466,4.52045 -0.1875,7.46875l-1.71875,6.125c-0.87906,3.13012 -2.3257,5.39042 -4.375,6.78125c-2.04934,1.39083 -4.61873,1.67277 -7.71875,0.84375c-3.10538,-0.91623 -5.18884,-2.49314 -6.21875,-4.75c-1.02992,-2.25685 -1.1014,-4.96464 -0.21875,-8.09375l5.8125,-20.625c0.89745,-3.24177 2.3501,-5.56322 4.375,-6.96875c1.26554,-0.87841 2.74358,-1.28986 4.46875,-1.28125c1.0351,0.00517 2.17443,0.14426 3.375,0.46875zM270.4533,176.53074c-1.0676,0.79957 -1.86493,2.13204 -2.375,3.96875l-1.6875,6.0625c-0.52212,1.83335 -0.5568,3.38617 -0.0625,4.625c0.49429,1.23883 1.58304,2.08559 3.21875,2.5625c1.61921,0.43852 2.95282,0.26526 4.03125,-0.53125c1.0784,-0.79651 1.86129,-2.13304 2.375,-3.96875l1.71875,-6.0625c0.51848,-1.83434 0.53635,-3.35186 0.03125,-4.59375c-0.50515,-1.24186 -1.57709,-2.12392 -3.1875,-2.59375c-0.61669,-0.1671 -1.18319,-0.22675 -1.71875,-0.21875c-0.8926,0.01333 -1.67652,0.25029 -2.34375,0.75z"/><path d="M253.3283,160.59324l-1.125,4.03125l-11.90625,-3.34375l-4.125,12.25c0.94585,-0.92077 1.99242,-1.52951 3.15625,-1.8125c1.1638,-0.28294 2.45328,-0.25465 3.8125,0.125c2.57624,0.76614 4.20406,2.19471 4.9375,4.25c0.73339,2.05532 0.71005,4.54573 -0.125,7.46875l-2.25,7.90625c-0.87425,3.13147 -2.29689,5.41219 -4.3125,6.8125c-2.01565,1.4003 -4.59229,1.67142 -7.6875,0.84375c-3.07049,-0.90642 -5.08914,-2.4778 -6.0625,-4.71875c-0.97337,-2.24095 -1.01367,-4.93508 -0.125,-8.0625l0.78125,-2.71875l4.1875,1.1875l-0.84375,3.03125c-0.52092,1.83368 -0.51954,3.35661 -0.03125,4.59375c0.48827,1.23714 1.51697,2.09337 3.125,2.5625c1.61681,0.43784 2.96966,0.23875 4.03125,-0.5625c1.06155,-0.80125 1.8637,-2.10111 2.375,-3.9375l2.1875,-7.875c0.52089,-1.83366 0.55076,-3.35659 0.0625,-4.59375c-0.4883,-1.23712 -1.54825,-2.09335 -3.15625,-2.5625c-1.25043,-0.35555 -2.35439,-0.27037 -3.34375,0.21875c-0.98939,0.48916 -1.81252,1.4341 -2.4375,2.84375l-0.25,0.90625l-4.21875,-1.1875l7.40625,-22.15625z"/><path d="M324.42205,160.43699c2.61702,0.44366 4.4793,1.47662 5.59375,3.15625c1.11441,1.67969 1.44921,3.8623 1.03125,6.5l-0.15625,1.0625c-0.27334,1.73177 -0.83312,3.15306 -1.65625,4.25c-0.82317,1.09697 -1.93362,1.78659 -3.34375,2.09375c1.29767,0.7975 2.15961,1.87601 2.5625,3.21875c0.40285,1.34276 0.44563,2.85301 0.15625,4.5625l-0.40625,2.53125c-0.42772,2.6403 -1.4197,4.59972 -3,5.875c-1.58033,1.27528 -3.69775,1.71111 -6.34375,1.3125c-2.63758,-0.45107 -4.52419,-1.54355 -5.625,-3.25c-1.10082,-1.70644 -1.42166,-3.85872 -1,-6.5l0.40625,-2.53125c0.26306,-1.73235 0.78808,-3.15146 1.59375,-4.28125c0.80566,-1.12976 1.96033,-1.88514 3.46875,-2.25c-1.28372,-0.76211 -2.12735,-1.80373 -2.5625,-3.09375c-0.43516,-1.28998 -0.53696,-2.77353 -0.25,-4.5l0.1875,-1.09375c0.43008,-2.63575 1.44639,-4.5669 3.03125,-5.8125c1.18863,-0.93416 2.66423,-1.39727 4.4375,-1.40625c0.59109,-0.00299 1.21895,0.05645 1.875,0.15625zM318.10955,179.37449c-0.84628,0.69382 -1.42108,1.85615 -1.6875,3.5l-0.4375,2.875c-0.2716,1.74031 -0.12998,3.06989 0.46875,4.03125c0.59872,0.96137 1.60433,1.56597 2.96875,1.78125c1.36008,0.22286 2.45162,-0.02336 3.3125,-0.75c0.86086,-0.72664 1.44107,-1.98445 1.75,-3.71875l0.46875,-2.84375c0.26238,-1.6445 0.08607,-2.91959 -0.5,-3.84375c-0.5861,-0.92414 -1.56231,-1.49463 -2.96875,-1.71875c-0.35145,-0.05703 -0.68352,-0.09434 -1,-0.09375c-0.94945,0.00176 -1.7403,0.26091 -2.375,0.78125zM320.54705,164.53074c-0.87677,0.70963 -1.45958,1.95232 -1.75,3.6875l-0.28125,1.625c-0.25235,1.63994 -0.05764,2.92635 0.5625,3.8125c0.62012,0.88619 1.59361,1.41718 2.9375,1.625c1.34127,0.224 2.44579,0.02208 3.3125,-0.625c0.86668,-0.64704 1.4442,-1.80113 1.71875,-3.4375l0.25,-1.625c0.26822,-1.73875 0.11006,-3.08252 -0.5,-4.03125c-0.61009,-0.94868 -1.59396,-1.54012 -2.9375,-1.75c-0.33541,-0.05548 -0.6624,-0.09649 -0.96875,-0.09375c-0.91905,0.00821 -1.68619,0.28032 -2.34375,0.8125z"/><path d="M347.25069,195.83844c-3.09948,-0.90942 -5.13612,-2.47858 -6.125,-4.6875c-0.98882,-2.20898 -1.04473,-4.87777 -0.15625,-8l0.21875,-0.75l4.21875,1.1875l-0.28125,1.03125c-0.52141,1.8309 -0.56151,3.37173 -0.0625,4.59375c0.49906,1.22195 1.5824,2.05671 3.21875,2.53125c1.69581,0.4756 3.08759,0.27459 4.1875,-0.59375c1.09994,-0.8684 1.96144,-2.39302 2.5625,-4.5625l2.53125,-9.0625c-0.94179,1.23874 -2.0432,2.09454 -3.34375,2.53125c-1.30052,0.43667 -2.75451,0.41669 -4.375,-0.03125c-2.57726,-0.76253 -4.26351,-2.17429 -5,-4.21875c-0.73644,-2.04449 -0.65466,-4.52045 0.1875,-7.46875l1.71875,-6.125c0.87906,-3.13012 2.3257,-5.39042 4.375,-6.78125c2.04934,-1.39083 4.61873,-1.67277 7.71875,-0.84375c3.10538,0.91623 5.18884,2.49314 6.21875,4.75c1.02992,2.25685 1.1014,4.96464 0.21875,8.09375l-5.8125,20.625c-0.89745,3.24177 -2.3501,5.56322 -4.375,6.96875c-1.26554,0.87841 -2.74358,1.28986 -4.46875,1.28125c-1.0351,-0.00517 -2.17443,-0.14426 -3.375,-0.46875zM356.78194,175.90094c1.0676,-0.79957 1.86493,-2.13204 2.375,-3.96875l1.6875,-6.0625c0.52212,-1.83335 0.5568,-3.38617 0.0625,-4.625c-0.49429,-1.23883 -1.58304,-2.08559 -3.21875,-2.5625c-1.61921,-0.43852 -2.95282,-0.26526 -4.03125,0.53125c-1.0784,0.79651 -1.86129,2.13304 -2.375,3.96875l-1.71875,6.0625c-0.51848,1.83434 -0.53635,3.35186 -0.03125,4.59375c0.50515,1.24186 1.57709,2.12392 3.1875,2.59375c0.61669,0.1671 1.18319,0.22675 1.71875,0.21875c0.8926,-0.01333 1.67652,-0.25029 2.34375,-0.75z" data-paper-data="{&quot;index&quot;:null}"/></g></g></svg>