<svg version="1.1" xmlns="http://www.w3.org/2000/svg" xmlns:xlink="http://www.w3.org/1999/xlink" width="402.72916" height="344.81319" viewBox="0,0,402.72916,344.81319"><g transform="translate(-44.59381,-13.64955)"><g data-paper-data="{&quot;isPaintingLayer&quot;:true}" fill-rule="nonzero" stroke-linejoin="miter" stroke-miterlimit="10" stroke-dasharray="" stroke-dashoffset="0" style="mix-blend-mode: normal"><text transform="translate(113.05575,58.32197) rotate(-0.96995) scale(0.93337,0.93337)" font-size="40" xml:space="preserve" fill="#ffffff" fill-rule="nonzero" stroke="#ffffff" stroke-width="3" stroke-linecap="butt" stroke-linejoin="miter" stroke-miterlimit="10" stroke-dasharray="" stroke-dashoffset="0" font-family="Sans Serif" font-weight="normal" text-anchor="start" style="mix-blend-mode: normal"><tspan x="0" dy="0">Keep It In!</tspan></text><path d="M45.38874,138.91305l-0.04436,-59.11441l81.48203,-0.06115l0.04436,59.11441z" fill="#ffffff" stroke="#ffffff" stroke-width="1.5" stroke-linecap="butt"/><path d="M150.83607,138.8339l-0.04436,-59.11441l81.48203,-0.06115l0.04436,59.11441z" fill="#ffffff" stroke="#ffffff" stroke-width="1.5" stroke-linecap="butt"/><path d="M253.08803,138.75716l-0.04436,-59.11441l81.48203,-0.06115l0.04436,59.11441z" fill="#ffffff" stroke="#ffffff" stroke-width="1.5" stroke-linecap="butt"/><path d="M362.49132,136.65622l-0.04436,-59.11441l81.48203,-0.06115l0.04436,59.11441z" fill="#ffffff" stroke="#ffffff" stroke-width="1.5" stroke-linecap="butt"/><path d="M45.44151,209.21126l-0.04436,-59.11441l81.48203,-0.06115l0.04436,59.11441z" fill="#ffffff" stroke="#ffffff" stroke-width="1.5" stroke-linecap="butt"/><path d="M45.49426,279.50946l-0.04436,-59.11441l81.48203,-0.06115l0.04436,59.11441z" fill="#ffffff" stroke="#ffffff" stroke-width="1.5" stroke-linecap="butt"/><path d="M47.14951,356.19723l-0.04436,-59.11441l81.48203,-0.06115l0.04436,59.11441z" fill="#ffffff" stroke="#ffffff" stroke-width="1.5" stroke-linecap="butt"/><path d="M157.39108,357.71218l-0.04436,-59.11441l81.48203,-0.06115l0.04436,59.11441z" fill="#ffffff" stroke="#ffffff" stroke-width="1.5" stroke-linecap="butt"/><path d="M259.64304,357.63545l-0.04436,-59.11441l81.48203,-0.06115l0.04436,59.11441z" fill="#ffffff" stroke="#ffffff" stroke-width="1.5" stroke-linecap="butt"/><path d="M365.09038,357.55631l-0.04436,-59.11441l81.48203,-0.06115l0.04436,59.11441z" fill="#ffffff" stroke="#ffffff" stroke-width="1.5" stroke-linecap="butt"/><path d="M364.97764,207.37376l-0.04436,-59.11441l81.48203,-0.06115l0.04436,59.11441z" fill="#ffffff" stroke="#ffffff" stroke-width="1.5" stroke-linecap="butt"/><path d="M365.03041,277.67196l-0.04436,-59.11441l81.48203,-0.06115l0.04436,59.11441z" fill="#ffffff" stroke="#ffffff" stroke-width="1.5" stroke-linecap="butt"/><path d="M353.45803,34.70824c0,1.68147 -0.32336,3.26595 -0.97008,4.7534c-0.64673,1.45513 -1.5198,2.7324 -2.61922,3.83183c-1.09942,1.09942 -2.39287,1.97249 -3.88032,2.61922c-1.45513,0.64673 -3.02342,0.97008 -4.70489,0.97008h-4.07433c-0.54973,0 -1.08325,0.11318 -1.60063,0.33953c-0.48505,0.19402 -0.92158,0.46886 -1.30961,0.82458c-0.3557,0.3557 -0.63055,0.79223 -0.82458,1.30961c-0.19402,0.48505 -0.29102,1.00242 -0.29102,1.55213v4.07433h19.15908v8.10017h-27.30776v-12.1745c0,-1.68147 0.32336,-3.24978 0.97008,-4.70489c0.64673,-1.48745 1.5198,-2.78089 2.61922,-3.88032c1.09942,-1.09942 2.37669,-1.95634 3.83183,-2.5707c1.48745,-0.64673 3.07192,-0.97008 4.7534,-0.97008h4.07433c0.54973,0 1.06708,-0.097 1.55213,-0.29102c0.51737,-0.22635 0.95389,-0.51737 1.30961,-0.87307c0.3557,-0.38803 0.63055,-0.82458 0.82458,-1.30961c0.22635,-0.51737 0.33953,-1.05091 0.33953,-1.60063c0,-0.58205 -0.11318,-1.11559 -0.33953,-1.60063c-0.19402,-0.48505 -0.46886,-0.9054 -0.82458,-1.2611c-0.3557,-0.38803 -0.79223,-0.67905 -1.30961,-0.87307c-0.48505,-0.22635 -1.00242,-0.33953 -1.55213,-0.33953h-14.5027v-8.10017h14.5027c1.68147,0 3.24978,0.32336 4.70489,0.97008c1.48745,0.64673 2.78089,1.5198 3.88032,2.61922c1.09942,1.09942 1.97249,2.39287 2.61922,3.88032c0.64673,1.45513 0.97008,3.02342 0.97008,4.70489z" fill="#000000" stroke="#ffffff" stroke-width="5" stroke-linecap="square"/><path d="M353.45803,34.70824c0,1.68147 -0.32336,3.26595 -0.97008,4.7534c-0.64673,1.45513 -1.5198,2.7324 -2.61922,3.83183c-1.09942,1.09942 -2.39287,1.97249 -3.88032,2.61922c-1.45513,0.64673 -3.02342,0.97008 -4.70489,0.97008h-4.07433c-0.54973,0 -1.08325,0.11318 -1.60063,0.33953c-0.48505,0.19402 -0.92158,0.46886 -1.30961,0.82458c-0.3557,0.3557 -0.63055,0.79223 -0.82458,1.30961c-0.19402,0.48505 -0.29102,1.00242 -0.29102,1.55213v4.07433h19.15908v8.10017h-27.30776v-12.1745c0,-1.68147 0.32336,-3.24978 0.97008,-4.70489c0.64673,-1.48745 1.5198,-2.78089 2.61922,-3.88032c1.09942,-1.09942 2.37669,-1.95634 3.83183,-2.5707c1.48745,-0.64673 3.07192,-0.97008 4.7534,-0.97008h4.07433c0.54973,0 1.06708,-0.097 1.55213,-0.29102c0.51737,-0.22635 0.95389,-0.51737 1.30961,-0.87307c0.3557,-0.38803 0.63055,-0.82458 0.82458,-1.30961c0.22635,-0.51737 0.33953,-1.05091 0.33953,-1.60063c0,-0.58205 -0.11318,-1.11559 -0.33953,-1.60063c-0.19402,-0.48505 -0.46886,-0.9054 -0.82458,-1.2611c-0.3557,-0.38803 -0.79223,-0.67905 -1.30961,-0.87307c-0.48505,-0.22635 -1.00242,-0.33953 -1.55213,-0.33953h-14.5027v-8.10017h14.5027c1.68147,0 3.24978,0.32336 4.70489,0.97008c1.48745,0.64673 2.78089,1.5198 3.88032,2.61922c1.09942,1.09942 1.97249,2.39287 2.61922,3.88032c0.64673,1.45513 0.97008,3.02342 0.97008,4.70489z" fill="#ffffff" stroke="none" stroke-width="1" stroke-linecap="square"/></g></g></svg>