<svg version="1.1" xmlns="http://www.w3.org/2000/svg" xmlns:xlink="http://www.w3.org/1999/xlink" width="33.68455" height="41.87402" viewBox="0,0,33.68455,41.87402"><g transform="translate(-223.15772,-159.06299)"><g data-paper-data="{&quot;isPaintingLayer&quot;:true}" fill-rule="nonzero" stroke-linecap="square" stroke-linejoin="miter" stroke-miterlimit="10" stroke-dasharray="" stroke-dashoffset="0" style="mix-blend-mode: normal"><path d="M247.52486,180.00001c0,-3.97324 -0.67173,-6.93174 -2.0152,-8.87549c-1.31488,-1.94375 -3.15858,-2.91562 -5.53111,-2.91562c-2.34393,0 -4.17334,0.95758 -5.48823,2.87275c-1.28631,1.91515 -1.92945,4.88795 -1.92945,8.91836c0,3.97324 0.64315,6.93174 1.92945,8.87549c1.31488,1.94375 3.14431,2.91562 5.48823,2.91562c1.17197,0 2.22959,-0.24296 3.17288,-0.72891c0.94328,-0.48595 1.72937,-1.20054 2.35822,-2.14384c0.65745,-0.97187 1.15767,-2.18671 1.50069,-3.64453c0.34301,-1.48639 0.51452,-3.24433 0.51452,-5.27385zM254.34228,180.00001c0,3.40157 -0.3859,6.2743 -1.15767,8.61823c-0.74321,2.34393 -1.77224,4.2448 -3.08713,5.70261c-1.28631,1.45782 -2.80128,2.51544 -4.54494,3.17288c-1.74365,0.62886 -3.60164,0.94328 -5.57398,0.94328c-1.97233,0 -3.83033,-0.32871 -5.57398,-0.98617c-1.74365,-0.65745 -3.27293,-1.71508 -4.58781,-3.17288c-1.28631,-1.45782 -2.30105,-3.35868 -3.04425,-5.70261c-0.74321,-2.34393 -1.11479,-5.20238 -1.11479,-8.57535c0,-3.40157 0.3716,-6.2743 1.11479,-8.61823c0.74321,-2.34393 1.75795,-4.2305 3.04425,-5.65973c1.31488,-1.45782 2.84416,-2.51544 4.58781,-3.17288c1.74365,-0.65745 3.60164,-0.98617 5.57398,-0.98617c1.97233,0 3.83033,0.32871 5.57398,0.98617c1.74365,0.65745 3.25863,1.72937 4.54494,3.21576c1.31488,1.45782 2.34393,3.35868 3.08713,5.70261c0.77178,2.31535 1.15767,5.15951 1.15767,8.53248z" fill="#000000" stroke="#ffffff" stroke-width="5"/><path d="M247.52488,180.00001c0,-3.97324 -0.67173,-6.93174 -2.0152,-8.87549c-1.31488,-1.94375 -3.15858,-2.91562 -5.53111,-2.91562c-2.34393,0 -4.17334,0.95758 -5.48823,2.87275c-1.28631,1.91515 -1.92945,4.88795 -1.92945,8.91836c0,3.97324 0.64315,6.93174 1.92945,8.87549c1.31488,1.94375 3.14431,2.91562 5.48823,2.91562c1.17197,0 2.22959,-0.24296 3.17288,-0.72891c0.94328,-0.48595 1.72937,-1.20054 2.35822,-2.14384c0.65745,-0.97187 1.15767,-2.18671 1.50069,-3.64453c0.34301,-1.48639 0.51452,-3.24433 0.51452,-5.27385zM254.34229,180.00001c0,3.40157 -0.3859,6.2743 -1.15767,8.61823c-0.74321,2.34393 -1.77224,4.2448 -3.08713,5.70261c-1.28631,1.45782 -2.80128,2.51544 -4.54494,3.17288c-1.74365,0.62886 -3.60164,0.94328 -5.57398,0.94328c-1.97233,0 -3.83033,-0.32871 -5.57398,-0.98617c-1.74365,-0.65745 -3.27293,-1.71508 -4.58781,-3.17288c-1.28631,-1.45782 -2.30105,-3.35868 -3.04425,-5.70261c-0.74321,-2.34393 -1.11479,-5.20238 -1.11479,-8.57535c0,-3.40157 0.3716,-6.2743 1.11479,-8.61823c0.74321,-2.34393 1.75795,-4.2305 3.04425,-5.65973c1.31488,-1.45782 2.84416,-2.51544 4.58781,-3.17288c1.74365,-0.65745 3.60164,-0.98617 5.57398,-0.98617c1.97233,0 3.83033,0.32871 5.57398,0.98617c1.74365,0.65745 3.25863,1.72937 4.54494,3.21576c1.31488,1.45782 2.34393,3.35868 3.08713,5.70261c0.77178,2.31535 1.15767,5.15951 1.15767,8.53248z" fill="#ffffff" stroke="none" stroke-width="1"/></g></g></svg>