<svg version="1.1" xmlns="http://www.w3.org/2000/svg" xmlns:xlink="http://www.w3.org/1999/xlink" width="30.12579" height="47.89068" viewBox="0,0,30.12579,47.89068"><g transform="translate(-224.93711,-152.62769)"><g data-paper-data="{&quot;isPaintingLayer&quot;:true}" fill-rule="nonzero" stroke-linecap="square" stroke-linejoin="miter" stroke-miterlimit="10" stroke-dasharray="" stroke-dashoffset="0" style="mix-blend-mode: normal"><path d="M252.56289,172.93545c0,1.48639 -0.28584,2.88705 -0.85753,4.20193c-0.5717,1.28631 -1.34348,2.4154 -2.31535,3.38727c-0.97187,0.97187 -2.11526,1.74365 -3.43014,2.31535c-1.28631,0.5717 -2.67266,0.85753 -4.15905,0.85753h-3.60164c-0.48595,0 -0.95758,0.10005 -1.41493,0.30014c-0.42877,0.17151 -0.81466,0.41447 -1.15767,0.72891c-0.31443,0.31443 -0.5574,0.70032 -0.72891,1.15767c-0.17151,0.42877 -0.25726,0.88612 -0.25726,1.37206v3.60164h16.93633v7.16042h-24.13963v-10.76207c0,-1.48639 0.28584,-2.87275 0.85753,-4.15905c0.5717,-1.31488 1.34348,-2.45827 2.31535,-3.43014c0.97187,-0.97187 2.10096,-1.72937 3.38727,-2.27246c1.31488,-0.5717 2.71553,-0.85753 4.20193,-0.85753h3.60164c0.48595,0 0.94328,-0.08575 1.37206,-0.25726c0.45735,-0.20009 0.84323,-0.45735 1.15767,-0.77178c0.31443,-0.34301 0.5574,-0.72891 0.72891,-1.15767c0.20009,-0.45735 0.30014,-0.92899 0.30014,-1.41493c0,-0.51452 -0.10005,-0.98617 -0.30014,-1.41493c-0.17151,-0.42877 -0.41447,-0.80036 -0.72891,-1.11479c-0.31443,-0.34301 -0.70032,-0.60027 -1.15767,-0.77178c-0.42877,-0.20009 -0.88612,-0.30014 -1.37206,-0.30014h-12.82016v-7.16042h12.82016c1.48639,0 2.87275,0.28584 4.15905,0.85753c1.31488,0.5717 2.45827,1.34348 3.43014,2.31535c0.97187,0.97187 1.74365,2.11526 2.31535,3.43014c0.5717,1.28631 0.85753,2.67266 0.85753,4.15905z" fill="#000000" stroke="#ffffff" stroke-width="5"/><path d="M252.56289,172.93545c0,1.48639 -0.28584,2.88705 -0.85753,4.20193c-0.5717,1.28631 -1.34348,2.4154 -2.31535,3.38727c-0.97187,0.97187 -2.11526,1.74365 -3.43014,2.31535c-1.28631,0.5717 -2.67266,0.85753 -4.15905,0.85753h-3.60164c-0.48595,0 -0.95758,0.10005 -1.41493,0.30014c-0.42877,0.17151 -0.81466,0.41447 -1.15767,0.72891c-0.31443,0.31443 -0.5574,0.70032 -0.72891,1.15767c-0.17151,0.42877 -0.25726,0.88612 -0.25726,1.37206v3.60164h16.93633v7.16042h-24.13963v-10.76207c0,-1.48639 0.28584,-2.87275 0.85753,-4.15905c0.5717,-1.31488 1.34348,-2.45827 2.31535,-3.43014c0.97187,-0.97187 2.10096,-1.72937 3.38727,-2.27246c1.31488,-0.5717 2.71553,-0.85753 4.20193,-0.85753h3.60164c0.48595,0 0.94328,-0.08575 1.37206,-0.25726c0.45735,-0.20009 0.84323,-0.45735 1.15767,-0.77178c0.31443,-0.34301 0.5574,-0.72891 0.72891,-1.15767c0.20009,-0.45735 0.30014,-0.92899 0.30014,-1.41493c0,-0.51452 -0.10005,-0.98617 -0.30014,-1.41493c-0.17151,-0.42877 -0.41447,-0.80036 -0.72891,-1.11479c-0.31443,-0.34301 -0.70032,-0.60027 -1.15767,-0.77178c-0.42877,-0.20009 -0.88612,-0.30014 -1.37206,-0.30014h-12.82016v-7.16042h12.82016c1.48639,0 2.87275,0.28584 4.15905,0.85753c1.31488,0.5717 2.45827,1.34348 3.43014,2.31535c0.97187,0.97187 1.74365,2.11526 2.31535,3.43014c0.5717,1.28631 0.85753,2.67266 0.85753,4.15905z" fill="#ffffff" stroke="none" stroke-width="1"/></g></g></svg>