<svg version="1.1" xmlns="http://www.w3.org/2000/svg" xmlns:xlink="http://www.w3.org/1999/xlink" width="30.99543" height="40.84501" viewBox="0,0,30.99543,40.84501"><g transform="translate(-224.50229,-159.57751)"><g data-paper-data="{&quot;isPaintingLayer&quot;:true}" fill-rule="nonzero" stroke-linecap="square" stroke-linejoin="miter" stroke-miterlimit="10" stroke-dasharray="" stroke-dashoffset="0" style="mix-blend-mode: normal"><path d="M252.99771,186.64593c0,1.74365 -0.31443,3.31581 -0.94328,4.71645c-0.62886,1.40063 -1.45782,2.5869 -2.48685,3.55877c-1.02904,0.97187 -2.22959,1.71508 -3.60164,2.22959c-1.34348,0.51452 -2.75841,0.77178 -4.2448,0.77178h-14.44947v-7.16042h14.44947c0.48595,0 0.97187,-0.07145 1.45782,-0.21439c0.51452,-0.17151 0.95758,-0.41447 1.32918,-0.72891c0.40019,-0.34301 0.71461,-0.77178 0.94328,-1.28631c0.25726,-0.51452 0.3859,-1.14338 0.3859,-1.88658c0,-0.65745 -0.12864,-1.24343 -0.3859,-1.75795c-0.22868,-0.51452 -0.5431,-0.94328 -0.94328,-1.28631c-0.3716,-0.34301 -0.81466,-0.60027 -1.32918,-0.77178c-0.48595,-0.17151 -0.97187,-0.25726 -1.45782,-0.25726h-14.44947l2.10096,-20.4951h22.12442v7.16042h-15.65003l-0.64315,6.17425h6.51728c1.48639,0 2.90132,0.25726 4.2448,0.77178c1.37206,0.51452 2.57261,1.25773 3.60164,2.22959c1.02904,0.97187 1.858,2.15814 2.48685,3.55877c0.62886,1.37206 0.94328,2.92992 0.94328,4.67356z" fill="#000000" stroke="#ffffff" stroke-width="5"/><path d="M252.99776,186.64593c0,1.74365 -0.31443,3.31581 -0.94328,4.71645c-0.62886,1.40063 -1.45782,2.5869 -2.48685,3.55877c-1.02904,0.97187 -2.22959,1.71508 -3.60164,2.22959c-1.34348,0.51452 -2.75841,0.77178 -4.2448,0.77178h-14.44947v-7.16042h14.44947c0.48595,0 0.97187,-0.07145 1.45782,-0.21439c0.51452,-0.17151 0.95758,-0.41447 1.32918,-0.72891c0.40019,-0.34301 0.71461,-0.77178 0.94328,-1.28631c0.25726,-0.51452 0.3859,-1.14338 0.3859,-1.88658c0,-0.65745 -0.12864,-1.24343 -0.3859,-1.75795c-0.22868,-0.51452 -0.5431,-0.94328 -0.94328,-1.28631c-0.3716,-0.34301 -0.81466,-0.60027 -1.32918,-0.77178c-0.48595,-0.17151 -0.97187,-0.25726 -1.45782,-0.25726h-14.44947l2.10096,-20.4951h22.12442v7.16042h-15.65003l-0.64315,6.17425h6.51728c1.48639,0 2.90132,0.25726 4.2448,0.77178c1.37206,0.51452 2.57261,1.25773 3.60164,2.22959c1.02904,0.97187 1.858,2.15814 2.48685,3.55877c0.62886,1.37206 0.94328,2.92992 0.94328,4.67356z" fill="#ffffff" stroke="none" stroke-width="1"/></g></g></svg>