<svg version="1.1" xmlns="http://www.w3.org/2000/svg" xmlns:xlink="http://www.w3.org/1999/xlink" width="13.60036" height="29.74909" viewBox="0,0,13.60036,29.74909"><g transform="translate(-232.3735,-165.84116)"><g data-paper-data="{&quot;isPaintingLayer&quot;:true}" fill="#ffffff" fill-rule="nonzero" stroke="none" stroke-width="1" stroke-linecap="butt" stroke-linejoin="miter" stroke-miterlimit="10" stroke-dasharray="" stroke-dashoffset="0" style="mix-blend-mode: normal"><path d="M244.1574,167.85351c1.11177,1.29122 1.69256,3.02177 1.70493,5.27322l-0.00108,0.77136c0.01121,1.50472 -0.35369,2.77777 -0.95368,3.80411c-0.60004,1.02635 -1.49935,1.75342 -2.69011,2.20763c1.25459,0.45923 2.24808,1.17861 2.84197,2.21502c0.59386,1.03643 0.88384,2.33908 0.89034,3.80657l0.02321,2.23697c0.02655,2.2531 -0.55151,3.97301 -1.6407,5.29448c-1.08919,1.32146 -2.74142,2.07991 -5.03455,2.12738c-2.27322,-0.00987 -4.00036,-0.70898 -5.10779,-2.01235c-1.10746,-1.30337 -1.66523,-3.09711 -1.67847,-5.35033l-0.02357,-1.97986l3.16119,0.00422l-0.05578,2.21115c0.00786,1.32108 0.31351,2.3062 0.89143,3.0352c0.57792,0.72901 1.49602,1.13345 2.68543,1.13491c1.2079,-0.01255 2.1316,-0.41827 2.68868,-1.17916c0.55703,-0.76088 0.81397,-1.86283 0.79498,-3.3415l-0.02321,-2.23697c-0.01147,-1.4302 -0.36824,-2.53841 -0.99651,-3.24103c-0.62831,-0.70259 -1.53471,-1.05672 -2.79087,-1.08362l-1.84403,-0.00246l0.03041,-2.90541l1.92303,0.02827c1.11789,-0.05338 1.96066,-0.44962 2.58323,-1.12789c0.62254,-0.67824 1.00545,-1.65889 1.00514,-2.92982l-0.07719,-1.31141c-0.00676,-1.49865 -0.29445,-2.61345 -0.86462,-3.36941c-0.57018,-0.75591 -1.3985,-1.11728 -2.60643,-1.10909c-1.18919,0.02281 -2.09709,0.35154 -2.66222,1.10206c-0.56513,0.75057 -0.83604,1.83877 -0.82107,3.16148l0.02429,1.46562l-3.0822,0.02161l-0.07719,-1.31141c-0.02568,-2.25134 0.50329,-4.08809 1.58815,-5.39741c1.08485,-1.30926 2.81433,-1.97887 5.08709,-2.02446c1.14679,0.004 2.12467,0.21914 2.97603,0.54392c0.85137,0.32478 1.57584,0.82285 2.13175,1.46843z"/></g></g></svg>