<svg version="1.1" xmlns="http://www.w3.org/2000/svg" xmlns:xlink="http://www.w3.org/1999/xlink" width="13.396" height="28.15736" viewBox="0,0,13.396,28.15736"><g transform="translate(-233.30201,-166.89597)"><g data-paper-data="{&quot;isPaintingLayer&quot;:true}" fill="#ffffff" fill-rule="nonzero" stroke="none" stroke-width="1" stroke-linecap="butt" stroke-linejoin="miter" stroke-miterlimit="10" stroke-dasharray="" stroke-dashoffset="0" style="mix-blend-mode: normal"><path d="M245.62081,166.89597l0.05256,2.77025l-8.75258,0.13181l-0.31944,8.55179c0.45527,-0.76311 1.042,-1.34733 1.77417,-1.74708c0.73216,-0.39972 1.61254,-0.62578 2.61132,-0.64215c1.90248,-0.00148 3.29568,0.59675 4.20903,1.76181c0.91332,1.16508 1.40137,2.74938 1.42637,4.76172l0.0735,5.44138c0.04059,2.15199 -0.46293,3.86805 -1.5468,5.13781c-1.0839,1.26975 -2.77678,1.92933 -5.04373,1.98998c-2.26612,0.00601 -3.95331,-0.60886 -5.06696,-1.84629c-1.11365,-1.23743 -1.6861,-2.93892 -1.71608,-5.09107l-0.02016,-1.87257l3.08066,-0.03907l0.041,2.08264c0.01767,1.26183 0.32674,2.2277 0.90826,2.92012c0.58151,0.69243 1.45252,1.04094 2.63817,1.03426c1.18527,-0.02819 2.06263,-0.41049 2.62059,-1.11968c0.55793,-0.70918 0.83903,-1.68558 0.81429,-2.94731l-0.10957,-5.40972c-0.01769,-1.26181 -0.30556,-2.23359 -0.88707,-2.92603c-0.58152,-0.69241 -1.47373,-1.03501 -2.65937,-1.02835c-0.92011,0.01106 -1.65169,0.27401 -2.22381,0.77151c-0.57213,0.49754 -0.93927,1.25276 -1.07798,2.26528l0.01379,0.62222l-3.10186,0.04499l0.54077,-15.45708z"/></g></g></svg>