<svg version="1.1" xmlns="http://www.w3.org/2000/svg" xmlns:xlink="http://www.w3.org/1999/xlink" width="12.71174" height="30.76542" viewBox="0,0,12.71174,30.76542"><g transform="translate(-233.64413,-164.61729)"><g data-paper-data="{&quot;isPaintingLayer&quot;:true}" fill="#ffffff" fill-rule="nonzero" stroke="none" stroke-width="1" stroke-linecap="butt" stroke-linejoin="miter" stroke-miterlimit="10" stroke-dasharray="" stroke-dashoffset="0" style="mix-blend-mode: normal"><path d="M244.74547,166.68335c1.0576,1.34481 1.58286,3.17439 1.58523,5.5066l0.02512,15.54787c0.00562,2.33402 -0.51704,4.18969 -1.57,5.55133c-1.05299,1.36164 -2.65512,2.05962 -4.78707,2.09356c-2.11314,-0.02532 -3.69396,-0.73138 -4.74747,-2.08873c-1.05352,-1.35735 -1.57882,-3.20227 -1.582,-5.5363l-0.02512,-15.54787c-0.00481,-2.3322 0.51789,-4.17254 1.56678,-5.52163c1.04888,-1.34903 2.6163,-2.03874 4.72934,-2.07089c0.2665,0.00294 0.54707,0.01898 0.79678,0.04256c1.74803,0.16509 3.08299,0.84683 4.00841,2.02349zM237.49418,168.82045c-0.54034,0.76568 -0.82218,1.81913 -0.81815,3.20821l0.03769,15.94112c0.00068,1.36848 0.26941,2.44877 0.81235,3.20773c0.54295,0.75896 1.36996,1.12329 2.47468,1.13271c1.12195,-0.01394 1.94162,-0.39568 2.47457,-1.15683c0.53293,-0.76114 0.79411,-1.81356 0.78767,-3.18201l-0.01043,-15.9376c0.00173,-1.38909 -0.2736,-2.47395 -0.80913,-3.23743c-0.53556,-0.76344 -1.37671,-1.15741 -2.4987,-1.16593c-1.10468,0.01305 -1.91022,0.42443 -2.45054,1.19005z"/></g></g></svg>