<svg version="1.1" xmlns="http://www.w3.org/2000/svg" xmlns:xlink="http://www.w3.org/1999/xlink" width="32.82704" height="41.87404" viewBox="0,0,32.82704,41.87404"><g transform="translate(-223.58648,-159.06298)"><g data-paper-data="{&quot;isPaintingLayer&quot;:true}" fill-rule="nonzero" stroke-linecap="square" stroke-linejoin="miter" stroke-miterlimit="10" stroke-dasharray="" stroke-dashoffset="0" style="mix-blend-mode: normal"><path d="M253.91352,175.75522c0,2.31535 -0.22868,4.57351 -0.68603,6.77453c-0.45735,2.17241 -1.11479,4.2305 -1.97233,6.17425c-0.85753,1.94375 -1.91515,3.74458 -3.17288,5.40247c-1.25773,1.65789 -2.67266,3.10142 -4.2448,4.33055h-9.69015c1.02904,-0.65745 2.0152,-1.38635 2.9585,-2.18671c0.94328,-0.80036 1.8437,-1.65789 2.70124,-2.57261c0.85753,-0.91471 1.65789,-1.87228 2.4011,-2.87275c0.74321,-1.02904 1.38635,-2.08666 1.92945,-3.17288c-0.71461,0.48595 -1.50069,0.90041 -2.35822,1.24343c-0.82896,0.34301 -1.68649,0.51452 -2.57261,0.51452c-2.0295,0 -3.85892,-0.32871 -5.48823,-0.98617c-1.60074,-0.68603 -2.9728,-1.62932 -4.11618,-2.82987c-1.14338,-1.22913 -2.0152,-2.67266 -2.61549,-4.33055c-0.60027,-1.65789 -0.90041,-3.48732 -0.90041,-5.48823c0,-1.91515 0.34301,-3.73028 1.02904,-5.44536c0.68603,-1.74365 1.62932,-3.25863 2.82987,-4.54494c1.22913,-1.28631 2.67266,-2.30105 4.33055,-3.04425c1.68649,-0.77178 3.50159,-1.15767 5.44536,-1.15767c1.97233,0 3.81603,0.3859 5.53111,1.15767c1.74365,0.74321 3.24433,1.75795 4.50206,3.04425c1.28631,1.28631 2.30105,2.80128 3.04425,4.54494c0.74321,1.71508 1.11479,3.53019 1.11479,5.44536zM246.23857,175.75522c0,-0.91471 -0.15721,-1.78653 -0.47165,-2.61549c-0.31443,-0.85753 -0.75748,-1.61502 -1.32918,-2.27246c-0.5717,-0.65745 -1.25773,-1.17197 -2.05809,-1.54357c-0.80036,-0.40019 -1.68649,-0.60027 -2.65836,-0.60027c-0.97187,0 -1.858,0.20009 -2.65836,0.60027c-0.80036,0.3716 -1.48639,0.87183 -2.05809,1.50069c-0.5431,0.62886 -0.97187,1.37206 -1.28631,2.22959c-0.28584,0.82896 -0.42877,1.72937 -0.42877,2.70124c0,0.94328 0.14292,1.8437 0.42877,2.70124c0.31443,0.82896 0.74321,1.57214 1.28631,2.22959c0.5717,0.62886 1.25773,1.12909 2.05809,1.50069c0.80036,0.34301 1.68649,0.51452 2.65836,0.51452c1.00047,0 1.90088,-0.17151 2.70124,-0.51452c0.80036,-0.3716 1.48639,-0.87183 2.05809,-1.50069c0.5717,-0.65745 1.00047,-1.40063 1.28631,-2.22959c0.31443,-0.85753 0.47165,-1.75795 0.47165,-2.70124z" fill="#000000" stroke="#ffffff" stroke-width="5"/><path d="M253.91354,175.75519c0,2.31535 -0.22868,4.57351 -0.68603,6.77453c-0.45735,2.17241 -1.11479,4.2305 -1.97233,6.17425c-0.85753,1.94375 -1.91515,3.74458 -3.17288,5.40247c-1.25773,1.65789 -2.67266,3.10142 -4.2448,4.33055h-9.69015c1.02904,-0.65745 2.0152,-1.38635 2.9585,-2.18671c0.94328,-0.80036 1.8437,-1.65789 2.70124,-2.57261c0.85753,-0.91471 1.65789,-1.87228 2.4011,-2.87275c0.74321,-1.02904 1.38635,-2.08666 1.92945,-3.17288c-0.71461,0.48595 -1.50069,0.90041 -2.35822,1.24343c-0.82896,0.34301 -1.68649,0.51452 -2.57261,0.51452c-2.0295,0 -3.85892,-0.32871 -5.48823,-0.98617c-1.60074,-0.68603 -2.9728,-1.62932 -4.11618,-2.82987c-1.14338,-1.22913 -2.0152,-2.67266 -2.61549,-4.33055c-0.60027,-1.65789 -0.90041,-3.48732 -0.90041,-5.48823c0,-1.91515 0.34301,-3.73028 1.02904,-5.44536c0.68603,-1.74365 1.62932,-3.25863 2.82987,-4.54494c1.22913,-1.28631 2.67266,-2.30105 4.33055,-3.04425c1.68649,-0.77178 3.50159,-1.15767 5.44536,-1.15767c1.97233,0 3.81603,0.3859 5.53111,1.15767c1.74365,0.74321 3.24433,1.75795 4.50206,3.04425c1.28631,1.28631 2.30105,2.80128 3.04425,4.54494c0.74321,1.71508 1.11479,3.53019 1.11479,5.44536zM246.23859,175.75519c0,-0.91471 -0.15721,-1.78653 -0.47165,-2.61549c-0.31443,-0.85753 -0.75748,-1.61502 -1.32918,-2.27246c-0.5717,-0.65745 -1.25773,-1.17197 -2.05809,-1.54357c-0.80036,-0.40019 -1.68649,-0.60027 -2.65836,-0.60027c-0.97187,0 -1.858,0.20009 -2.65836,0.60027c-0.80036,0.3716 -1.48639,0.87183 -2.05809,1.50069c-0.5431,0.62886 -0.97187,1.37206 -1.28631,2.22959c-0.28584,0.82896 -0.42877,1.72937 -0.42877,2.70124c0,0.94328 0.14292,1.8437 0.42877,2.70124c0.31443,0.82896 0.74321,1.57214 1.28631,2.22959c0.5717,0.62886 1.25773,1.12909 2.05809,1.50069c0.80036,0.34301 1.68649,0.51452 2.65836,0.51452c1.00047,0 1.90088,-0.17151 2.70124,-0.51452c0.80036,-0.3716 1.48639,-0.87183 2.05809,-1.50069c0.5717,-0.65745 1.00047,-1.40063 1.28631,-2.22959c0.31443,-0.85753 0.47165,-1.75795 0.47165,-2.70124z" fill="#ffffff" stroke="none" stroke-width="1"/></g></g></svg>