<svg version="1.1" xmlns="http://www.w3.org/2000/svg" xmlns:xlink="http://www.w3.org/1999/xlink" width="33.04142" height="42.90304" viewBox="0,0,33.04142,42.90304"><g transform="translate(-223.47929,-158.54848)"><g data-paper-data="{&quot;isPaintingLayer&quot;:true}" fill-rule="nonzero" stroke-linecap="square" stroke-linejoin="miter" stroke-miterlimit="10" stroke-dasharray="" stroke-dashoffset="0" style="mix-blend-mode: normal"><path d="M254.02071,187.76069c0,1.62932 -0.3716,3.13001 -1.11479,4.50206c-0.71461,1.34348 -1.71508,2.51544 -3.00137,3.51589c-1.25773,1.00047 -2.74411,1.77224 -4.45919,2.31535c-1.68649,0.5717 -3.50159,0.85753 -5.44536,0.85753c-1.94375,0 -3.77315,-0.28584 -5.48823,-0.85753c-1.68649,-0.5431 -3.17288,-1.31488 -4.45919,-2.31535c-1.25773,-1.00047 -2.25818,-2.17241 -3.00137,-3.51589c-0.71461,-1.37206 -1.07192,-2.87275 -1.07192,-4.50206c0,-0.94328 0.11434,-1.858 0.34301,-2.74411c0.25726,-0.88612 0.62886,-1.71508 1.11479,-2.48685c0.48595,-0.80036 1.05762,-1.52927 1.71508,-2.18671c0.65745,-0.65745 1.40063,-1.21484 2.22959,-1.67219c-0.51452,-0.45735 -0.97187,-0.97187 -1.37206,-1.54357c-0.40019,-0.60027 -0.75748,-1.21484 -1.07192,-1.8437c-0.28584,-0.65745 -0.50022,-1.32918 -0.64315,-2.0152c-0.14292,-0.71461 -0.21439,-1.41493 -0.21439,-2.10096c0,-1.40063 0.31443,-2.70124 0.94328,-3.90179c0.62886,-1.22913 1.4721,-2.30105 2.52972,-3.21576c1.08622,-0.94328 2.35822,-1.67219 3.81603,-2.18671c1.45782,-0.5431 3.00137,-0.81466 4.63069,-0.81466c1.65789,0 3.20146,0.27156 4.63069,0.81466c1.45782,0.51452 2.72981,1.24343 3.81603,2.18671c1.11479,0.91471 1.97233,1.98663 2.57261,3.21576c0.62886,1.20054 0.94328,2.50115 0.94328,3.90179c0,0.68603 -0.08575,1.38635 -0.25726,2.10096c-0.14292,0.68603 -0.35731,1.35776 -0.64315,2.0152c-0.28584,0.65745 -0.62886,1.28631 -1.02904,1.88658c-0.40019,0.5717 -0.85753,1.08622 -1.37206,1.54357c0.80036,0.45735 1.52927,1.01475 2.18671,1.67219c0.68603,0.65745 1.25773,1.38635 1.71508,2.18671c0.48595,0.77178 0.84323,1.60074 1.07192,2.48685c0.25726,0.85753 0.3859,1.75795 0.3859,2.70124zM244.93083,171.98202c0,-0.60027 -0.12864,-1.14338 -0.3859,-1.62932c-0.25726,-0.51452 -0.60027,-0.95758 -1.02904,-1.32918c-0.42877,-0.40019 -0.94328,-0.70032 -1.54357,-0.90041c-0.60027,-0.22868 -1.24343,-0.34301 -1.92945,-0.34301c-0.68603,0 -1.32918,0.11434 -1.92945,0.34301c-0.60027,0.20009 -1.12909,0.50022 -1.58644,0.90041c-0.42877,0.3716 -0.77178,0.81466 -1.02904,1.32918c-0.25726,0.48595 -0.3859,1.02904 -0.3859,1.62932c0,0.5717 0.12864,1.11479 0.3859,1.62932c0.25726,0.48595 0.60027,0.91471 1.02904,1.28631c0.45735,0.3716 0.98617,0.67173 1.58644,0.90041c0.60027,0.20009 1.24343,0.30014 1.92945,0.30014c0.68603,0 1.32918,-0.10005 1.92945,-0.30014c0.60027,-0.22868 1.11479,-0.52882 1.54357,-0.90041c0.42877,-0.3716 0.77178,-0.80036 1.02904,-1.28631c0.25726,-0.51452 0.3859,-1.05762 0.3859,-1.62932zM246.90316,187.5463c0,-0.80036 -0.1858,-1.54357 -0.5574,-2.22959c-0.34301,-0.68603 -0.82896,-1.28631 -1.45782,-1.80083c-0.62886,-0.51452 -1.37206,-0.91471 -2.22959,-1.20054c-0.82896,-0.31443 -1.71508,-0.47165 -2.65836,-0.47165c-0.94328,0 -1.8294,0.15721 -2.65836,0.47165c-0.82896,0.28584 -1.55785,0.68603 -2.18671,1.20054c-0.62886,0.51452 -1.12909,1.11479 -1.50069,1.80083c-0.34301,0.68603 -0.51452,1.42923 -0.51452,2.22959c0,0.80036 0.17151,1.54357 0.51452,2.22959c0.3716,0.65745 0.87183,1.22913 1.50069,1.71508c0.62886,0.48595 1.35776,0.87183 2.18671,1.15767c0.82896,0.25726 1.71508,0.3859 2.65836,0.3859c0.94328,0 1.8294,-0.12864 2.65836,-0.3859c0.85753,-0.28584 1.60074,-0.67173 2.22959,-1.15767c0.62886,-0.48595 1.11479,-1.05762 1.45782,-1.71508c0.3716,-0.68603 0.5574,-1.42923 0.5574,-2.22959z" fill="#000000" stroke="#ffffff" stroke-width="5"/><path d="M254.02073,187.7607c0,1.62932 -0.3716,3.13001 -1.11479,4.50206c-0.71461,1.34348 -1.71508,2.51544 -3.00137,3.51589c-1.25773,1.00047 -2.74411,1.77224 -4.45919,2.31535c-1.68649,0.5717 -3.50159,0.85753 -5.44536,0.85753c-1.94375,0 -3.77315,-0.28584 -5.48823,-0.85753c-1.68649,-0.5431 -3.17288,-1.31488 -4.45919,-2.31535c-1.25773,-1.00047 -2.25818,-2.17241 -3.00137,-3.51589c-0.71461,-1.37206 -1.07192,-2.87275 -1.07192,-4.50206c0,-0.94328 0.11434,-1.858 0.34301,-2.74411c0.25726,-0.88612 0.62886,-1.71508 1.11479,-2.48685c0.48595,-0.80036 1.05762,-1.52927 1.71508,-2.18671c0.65745,-0.65745 1.40063,-1.21484 2.22959,-1.67219c-0.51452,-0.45735 -0.97187,-0.97187 -1.37206,-1.54357c-0.40019,-0.60027 -0.75748,-1.21484 -1.07192,-1.8437c-0.28584,-0.65745 -0.50022,-1.32918 -0.64315,-2.0152c-0.14292,-0.71461 -0.21439,-1.41493 -0.21439,-2.10096c0,-1.40063 0.31443,-2.70124 0.94328,-3.90179c0.62886,-1.22913 1.4721,-2.30105 2.52972,-3.21576c1.08622,-0.94328 2.35822,-1.67219 3.81603,-2.18671c1.45782,-0.5431 3.00137,-0.81466 4.63069,-0.81466c1.65789,0 3.20146,0.27156 4.63069,0.81466c1.45782,0.51452 2.72981,1.24343 3.81603,2.18671c1.11479,0.91471 1.97233,1.98663 2.57261,3.21576c0.62886,1.20054 0.94328,2.50115 0.94328,3.90179c0,0.68603 -0.08575,1.38635 -0.25726,2.10096c-0.14292,0.68603 -0.35731,1.35776 -0.64315,2.0152c-0.28584,0.65745 -0.62886,1.28631 -1.02904,1.88658c-0.40019,0.5717 -0.85753,1.08622 -1.37206,1.54357c0.80036,0.45735 1.52927,1.01475 2.18671,1.67219c0.68603,0.65745 1.25773,1.38635 1.71508,2.18671c0.48595,0.77178 0.84323,1.60074 1.07192,2.48685c0.25726,0.85753 0.3859,1.75795 0.3859,2.70124zM244.93085,171.98203c0,-0.60027 -0.12864,-1.14338 -0.3859,-1.62932c-0.25726,-0.51452 -0.60027,-0.95758 -1.02904,-1.32918c-0.42877,-0.40019 -0.94328,-0.70032 -1.54357,-0.90041c-0.60027,-0.22868 -1.24343,-0.34301 -1.92945,-0.34301c-0.68603,0 -1.32918,0.11434 -1.92945,0.34301c-0.60027,0.20009 -1.12909,0.50022 -1.58644,0.90041c-0.42877,0.3716 -0.77178,0.81466 -1.02904,1.32918c-0.25726,0.48595 -0.3859,1.02904 -0.3859,1.62932c0,0.5717 0.12864,1.11479 0.3859,1.62932c0.25726,0.48595 0.60027,0.91471 1.02904,1.28631c0.45735,0.3716 0.98617,0.67173 1.58644,0.90041c0.60027,0.20009 1.24343,0.30014 1.92945,0.30014c0.68603,0 1.32918,-0.10005 1.92945,-0.30014c0.60027,-0.22868 1.11479,-0.52882 1.54357,-0.90041c0.42877,-0.3716 0.77178,-0.80036 1.02904,-1.28631c0.25726,-0.51452 0.3859,-1.05762 0.3859,-1.62932zM246.90318,187.54631c0,-0.80036 -0.1858,-1.54357 -0.5574,-2.22959c-0.34301,-0.68603 -0.82896,-1.28631 -1.45782,-1.80083c-0.62886,-0.51452 -1.37206,-0.91471 -2.22959,-1.20054c-0.82896,-0.31443 -1.71508,-0.47165 -2.65836,-0.47165c-0.94328,0 -1.8294,0.15721 -2.65836,0.47165c-0.82896,0.28584 -1.55785,0.68603 -2.18671,1.20054c-0.62886,0.51452 -1.12909,1.11479 -1.50069,1.80083c-0.34301,0.68603 -0.51452,1.42923 -0.51452,2.22959c0,0.80036 0.17151,1.54357 0.51452,2.22959c0.3716,0.65745 0.87183,1.22913 1.50069,1.71508c0.62886,0.48595 1.35776,0.87183 2.18671,1.15767c0.82896,0.25726 1.71508,0.3859 2.65836,0.3859c0.94328,0 1.8294,-0.12864 2.65836,-0.3859c0.85753,-0.28584 1.60074,-0.67173 2.22959,-1.15767c0.62886,-0.48595 1.11479,-1.05762 1.45782,-1.71508c0.3716,-0.68603 0.5574,-1.42923 0.5574,-2.22959z" fill="#ffffff" stroke="none" stroke-width="1"/></g></g></svg>