<svg version="1.1" xmlns="http://www.w3.org/2000/svg" xmlns:xlink="http://www.w3.org/1999/xlink" width="13.02617" height="29.68623" viewBox="0,0,13.02617,29.68623"><g transform="translate(-233.48692,-165.15688)"><g data-paper-data="{&quot;isPaintingLayer&quot;:true}" fill="#ffffff" fill-rule="nonzero" stroke="none" stroke-width="1" stroke-linecap="butt" stroke-linejoin="miter" stroke-miterlimit="10" stroke-dasharray="" stroke-dashoffset="0" style="mix-blend-mode: normal"><path d="M244.91616,167.16401c1.06961,1.31543 1.59097,3.09763 1.59692,5.36869c-0.10114,2.89166 -0.93524,5.34441 -2.4962,7.33035c-1.56098,1.98596 -3.10789,3.86228 -4.67503,5.61542c-1.56716,1.75315 -2.41791,3.69689 -2.53756,5.8901l0.00535,0.46935l9.51669,-0.05l0.01593,2.96071l-12.70167,0.0945l-0.00735,-2.52029c0.10015,-3.07143 0.92035,-5.54279 2.48059,-7.44932c1.56023,-1.9065 3.13272,-3.75389 4.69388,-5.52537c1.56115,-1.77145 2.37599,-3.99221 2.47891,-6.65853c-0.00166,-1.5123 -0.25699,-2.65665 -0.80163,-3.43176c-0.54467,-0.77505 -1.42704,-1.15488 -2.6178,-1.15011c-1.17254,0.02567 -2.02063,0.42426 -2.56251,1.19991c-0.54189,0.77569 -0.7988,1.81593 -0.78383,3.13256l-0.00236,2.60706l-3.00725,0.00631l-0.02351,-2.37566c-0.02405,-2.27269 0.4837,-4.07733 1.53097,-5.41974c1.04726,-1.34236 2.69371,-2.0552 4.91819,-2.10131c0.28058,0.00165 0.54344,0.01191 0.80567,0.0339c1.83558,0.15396 3.23767,0.82227 4.1736,1.97323z"/></g></g></svg>