<svg version="1.1" xmlns="http://www.w3.org/2000/svg" xmlns:xlink="http://www.w3.org/1999/xlink" width="588.68354" height="436.65413" viewBox="0,0,588.68354,436.65413"><defs><linearGradient x1="-24.26425" y1="180.00002" x2="504.2643" y2="180.00002" gradientUnits="userSpaceOnUse" id="color-1"><stop offset="0" stop-color="#ac59ff"/><stop offset="1" stop-color="#000000"/></linearGradient><radialGradient cx="205.98569" cy="218.17575" r="23.84111" gradientUnits="userSpaceOnUse" id="color-2"><stop offset="0" stop-color="#ffffff"/><stop offset="1" stop-color="#ffffff" stop-opacity="0"/></radialGradient><radialGradient cx="231.23569" cy="201.60075" r="16.41611" gradientUnits="userSpaceOnUse" id="color-3"><stop offset="0" stop-color="#ffffff"/><stop offset="1" stop-color="#ffffff" stop-opacity="0"/></radialGradient><radialGradient cx="248.48569" cy="189.92575" r="10.09111" gradientUnits="userSpaceOnUse" id="color-4"><stop offset="0" stop-color="#ffffff"/><stop offset="1" stop-color="#ffffff" stop-opacity="0"/></radialGradient><radialGradient cx="258.1675" cy="182.67574" r="5.34111" gradientUnits="userSpaceOnUse" id="color-5"><stop offset="0" stop-color="#ffffff"/><stop offset="1" stop-color="#ffffff" stop-opacity="0"/></radialGradient><radialGradient cx="263.9175" cy="178.43408" r="3.41611" gradientUnits="userSpaceOnUse" id="color-6"><stop offset="0" stop-color="#ffffff"/><stop offset="1" stop-color="#ffffff" stop-opacity="0"/></radialGradient></defs><g transform="translate(62.81167,33.36407)"><g data-paper-data="{&quot;isPaintingLayer&quot;:true}" stroke-miterlimit="10" stroke-dasharray="" stroke-dashoffset="0" style="mix-blend-mode: normal"><path d="M-24.26425,382.70274v-405.40541h528.52853v405.40541z" fill="url(#color-1)" fill-rule="nonzero" stroke="#000000" stroke-width="0" stroke-linecap="butt" stroke-linejoin="miter"/><text transform="translate(83.3808,112.46433) rotate(-8.27852) scale(1.20106,1.20106)" font-size="40" xml:space="preserve" fill="#ffffff" fill-rule="nonzero" stroke="#8000ff" stroke-width="1" stroke-linecap="butt" stroke-linejoin="miter" stroke-miterlimit="10" stroke-dasharray="" stroke-dashoffset="0" font-family="Sans Serif" font-weight="normal" text-anchor="start" style="mix-blend-mode: normal"><tspan x="0" dy="0">Keep It In!</tspan></text><path d="M197.15943,237.40075c0,19.3941 -14.29273,35.11611 -31.92374,35.11611c-17.63101,0 -31.92374,-15.72201 -31.92374,-35.11611c0,-19.3941 14.29273,-35.11611 31.92374,-35.11611c17.63101,0 31.92374,15.722 31.92374,35.11611z" fill="#ffffff" fill-rule="nonzero" stroke="#ffffff" stroke-width="2.5" stroke-linecap="butt" stroke-linejoin="miter"/><text transform="translate(4.74914,354.32463) rotate(-1.45981) scale(0.53306,0.53306)" font-size="40" xml:space="preserve" fill="#ffffff" fill-rule="nonzero" stroke="#ffffff" stroke-width="3" stroke-linecap="butt" stroke-linejoin="miter" stroke-miterlimit="10" stroke-dasharray="" stroke-dashoffset="0" font-family="Sans Serif" font-weight="normal" text-anchor="start" style="mix-blend-mode: normal"><tspan x="0" dy="0">v1.0</tspan></text><path d="M42.3004,311.72454l-20.54656,-65.86986l63.00596,-19.65323l20.54656,65.86986z" fill="#ffffff" fill-rule="nonzero" stroke="#ffffff" stroke-width="2.5" stroke-linecap="butt" stroke-linejoin="miter"/><path d="M13.30041,225.72454l-20.54656,-65.86986l63.00595,-19.65323l20.54656,65.86986z" fill="#ffffff" fill-rule="nonzero" stroke="#ffffff" stroke-width="2.5" stroke-linecap="butt" stroke-linejoin="miter"/><path d="M-13.69959,135.72454l-20.54656,-65.86986l63.00595,-19.65323l20.54656,65.86986z" fill="#ffffff" fill-rule="nonzero" stroke="#ffffff" stroke-width="2.5" stroke-linecap="butt" stroke-linejoin="miter"/><path d="M-40.69959,53.72455l-20.54656,-65.86986l63.00596,-19.65324l20.54657,65.86986z" fill="#ffffff" fill-rule="nonzero" stroke="#ffffff" stroke-width="2.5" stroke-linecap="butt" stroke-linejoin="miter"/><path d="M75.30041,401.72455l-20.54657,-65.86986l63.00596,-19.65323l20.54657,65.86986z" fill="#ffffff" fill-rule="nonzero" stroke="#ffffff" stroke-width="2.5" stroke-linecap="butt" stroke-linejoin="miter"/><path d="M169.30041,371.72455l-20.54657,-65.86986l63.00596,-19.65323l20.54657,65.86986z" fill="#ffffff" fill-rule="nonzero" stroke="#ffffff" stroke-width="2.5" stroke-linecap="butt" stroke-linejoin="miter"/><path d="M264.30041,342.72455l-20.54657,-65.86986l63.00596,-19.65323l20.54657,65.86986z" fill="#ffffff" fill-rule="nonzero" stroke="#ffffff" stroke-width="2.5" stroke-linecap="butt" stroke-linejoin="miter"/><path d="M363.30041,309.72454l-20.54657,-65.86986l63.00596,-19.65323l20.54656,65.86986z" fill="#ffffff" fill-rule="nonzero" stroke="#ffffff" stroke-width="2.5" stroke-linecap="butt" stroke-linejoin="miter"/><path d="M461.30041,278.72454l-20.54656,-65.86986l63.00595,-19.65323l20.54656,65.86986z" fill="#ffffff" fill-rule="nonzero" stroke="#ffffff" stroke-width="2.5" stroke-linecap="butt" stroke-linejoin="miter"/><path d="M399.00985,61.64856c-0.3881,2.9478 -1.3207,5.65094 -2.7978,8.10933c-1.46965,2.40172 -3.29506,4.43942 -5.47623,6.11306c-2.18117,1.67364 -4.65025,2.90569 -7.40719,3.69615c-2.70027,0.79793 -5.52431,1.0028 -8.47211,0.61469l-7.14275,-0.94042c-0.96373,-0.12689 -1.92519,-0.05161 -2.88445,0.22579c-0.89511,0.22818 -1.72384,0.60926 -2.4862,1.14329c-0.70567,0.54148 -1.28829,1.24333 -1.74784,2.10556c-0.45209,0.80555 -0.74157,1.69018 -0.86845,2.65389l-0.94041,7.14275l33.58802,4.4222l-1.86963,14.2005l-47.87356,-6.30303l2.81005,-21.34327c0.3881,-2.9478 1.31697,-5.62258 2.78661,-8.02429c1.47712,-2.45839 3.30625,-4.52444 5.48742,-6.19808c2.18117,-1.67364 4.61816,-2.8811 7.31097,-3.62229c2.75693,-0.79046 5.60933,-0.9916 8.55715,-0.60349l7.14275,0.94041c0.96373,0.12689 1.8931,0.07624 2.78823,-0.15194c0.95926,-0.2774 1.79171,-0.68684 2.49741,-1.22831c0.71314,-0.59816 1.29575,-1.30003 1.74784,-2.10556c0.51623,-0.85477 0.8378,-1.76399 0.96468,-2.72771c0.13434,-1.0204 0.05908,-1.98189 -0.22578,-2.88445c-0.22818,-0.89511 -0.613,-1.69548 -1.15449,-2.40116c-0.53402,-0.76235 -1.23214,-1.37331 -2.09437,-1.83287c-0.79809,-0.50877 -1.67898,-0.82661 -2.64269,-0.95349l-25.42486,-3.34743l1.86964,-14.2005l25.42486,3.34743c2.9478,0.38811 5.62259,1.31697 8.02429,2.78661c2.45839,1.47711 4.52443,3.30625 6.19808,5.48742c1.67365,2.18117 2.90569,4.65025 3.69616,7.40718c0.79793,2.70027 1.00279,5.52431 0.61469,8.47211z" fill="#ffffff" fill-rule="nonzero" stroke="#ffffff" stroke-width="7.5" stroke-linecap="square" stroke-linejoin="miter"/><text transform="translate(171.06804,346.78522) rotate(-0.90197) scale(0.86458,0.86458)" font-size="40" xml:space="preserve" fill="#ffffff" fill-rule="nonzero" stroke="#000000" stroke-width="1" stroke-linecap="butt" stroke-linejoin="miter" stroke-miterlimit="10" stroke-dasharray="" stroke-dashoffset="0" font-family="Sans Serif" font-weight="normal" text-anchor="start" style="mix-blend-mode: normal"><tspan x="0" dy="0">Background Shop!</tspan></text><path d="M227.65943,218.17575c0,13.16709 -9.70365,23.84111 -21.67374,23.84111c-11.97009,0 -21.67374,-10.67402 -21.67374,-23.84111c0,-13.16709 9.70365,-23.84111 21.67374,-23.84111c11.97009,0 21.67374,10.67402 21.67374,23.84112z" fill="url(#color-2)" fill-rule="nonzero" stroke="#ffffff" stroke-width="0" stroke-linecap="butt" stroke-linejoin="miter"/><path d="M246.15943,201.60075c0,9.06637 -6.68158,16.41611 -14.92374,16.41611c-8.24216,0 -14.92374,-7.34974 -14.92374,-16.41611c0,-9.06637 6.68158,-16.41611 14.92374,-16.41611c8.24216,0 14.92374,7.34974 14.92374,16.41611z" fill="url(#color-3)" fill-rule="nonzero" stroke="#ffffff" stroke-width="0" stroke-linecap="butt" stroke-linejoin="miter"/><path d="M257.65943,189.92575c0,5.57317 -4.10722,10.09111 -9.17374,10.09111c-5.06652,0 -9.17374,-4.51794 -9.17374,-10.09111c0,-5.57317 4.10722,-10.09112 9.17374,-10.09112c5.06652,0 9.17374,4.51794 9.17374,10.09112z" fill="url(#color-4)" fill-rule="nonzero" stroke="#ffffff" stroke-width="0" stroke-linecap="butt" stroke-linejoin="miter"/><path d="M263.02306,182.67574c0,2.94982 -2.17391,5.34111 -4.85556,5.34111c-2.68165,0 -4.85556,-2.39129 -4.85556,-5.34111c0,-2.94982 2.17391,-5.34111 4.85556,-5.34111c2.68165,0 4.85556,2.3913 4.85556,5.34111z" fill="url(#color-5)" fill-rule="nonzero" stroke="#ffffff" stroke-width="0" stroke-linecap="butt" stroke-linejoin="miter"/><path d="M267.02306,178.43408c0,1.88667 -1.3904,3.41611 -3.10556,3.41611c-1.71515,0 -3.10556,-1.52944 -3.10556,-3.41611c0,-1.88667 1.39041,-3.41611 3.10556,-3.41611c1.71515,0 3.10556,1.52945 3.10556,3.41611z" fill="url(#color-6)" fill-rule="nonzero" stroke="#ffffff" stroke-width="0" stroke-linecap="butt" stroke-linejoin="miter"/><text transform="translate(347.81384,20.16722) rotate(-0.90197) scale(0.41603,0.41603)" font-size="40" xml:space="preserve" fill="#ffffff" fill-rule="nonzero" stroke="#000000" stroke-width="1" stroke-linecap="butt" stroke-linejoin="miter" stroke-miterlimit="10" stroke-dasharray="" stroke-dashoffset="0" font-family="Sans Serif" font-weight="normal" text-anchor="start" style="mix-blend-mode: normal"><tspan x="0" dy="0">Mobile Friendly!</tspan></text><path d="M71.28605,21.99223c0.0244,0.40371 0.02076,0.80936 0.01716,1.21506c-0.23381,12.42876 -15.42345,23.2668 -15.42345,23.2668c0,0 -16.36455,-8.60141 -18.09239,-20.89112c-0.05243,-0.40172 -0.10484,-0.8034 -0.12924,-1.20711c-0.36224,-5.99332 3.74275,-11.18052 9.15123,-11.56389c2.74626,-0.19467 5.31544,0.8707 7.20478,2.79507c1.64159,-2.17466 4.06057,-3.59359 6.80688,-3.78826c5.4085,-0.38336 10.10281,4.18017 10.46505,10.17345" fill="#ff6680" fill-rule="evenodd" stroke="#ff6680" stroke-width="0.5" stroke-linecap="round" stroke-linejoin="round"/><path d="M94.50745,40.41458l-9.56481,6.33961c-0.83893,0.55942 -1.90536,-0.1686 -1.80301,-1.23055l1.16929,-12.07956c0.04201,-0.42075 -0.1117,-0.83674 -0.40875,-1.11246l-8.52552,-7.89041c-0.74811,-0.69347 -0.43794,-2.01446 0.52455,-2.23793l10.96951,-2.52624c0.38251,-0.08875 0.70047,-0.37381 0.84967,-0.76565l4.29694,-11.21914c0.37681,-0.98553 1.63414,-1.07465 2.12847,-0.15087l5.6086,10.51702c0.19506,0.3674 0.54461,0.60518 0.93458,0.63918l11.18,0.95624c0.9812,0.08567 1.44982,1.35148 0.78945,2.14479l-7.50093,9.0264c-0.2634,0.31546 -0.36368,0.74944 -0.27345,1.16082l2.61326,11.81144c0.23141,1.0383 -0.73829,1.91065 -1.6374,1.47443l-10.24628,-4.93537c-0.3583,-0.17322 -0.76972,-0.14405 -1.10411,0.07827z" fill="#ffbf00" fill-rule="evenodd" stroke="none" stroke-width="1" stroke-linecap="butt" stroke-linejoin="miter"/><path d="M125.1876,21.73556c-1.84145,-1.46328 -3.08579,-3.7892 -3.2466,-6.44971c-0.2934,-4.85441 3.09019,-9.03192 7.57281,-9.34965c4.46106,-0.31621 8.31865,3.34801 8.61207,8.20243c0.16222,2.68393 -0.77147,5.14084 -2.44284,6.85318c2.28884,0.98624 4.31687,2.67069 5.89902,4.85545c1.79587,2.49781 3.02638,5.66853 3.39028,9.18196c0.06283,0.32368 0.08258,0.65043 0.10233,0.97716c0.56566,9.35874 -26.82578,11.3003 -27.39143,1.94157c-0.42459,-7.02489 2.6812,-13.29214 7.50434,-16.21227z" fill="#4c97ff" fill-rule="evenodd" stroke="#4c97ff" stroke-width="0.5" stroke-linecap="round" stroke-linejoin="round"/></g></g></svg>