<svg version="1.1" xmlns="http://www.w3.org/2000/svg" xmlns:xlink="http://www.w3.org/1999/xlink" width="14.13324" height="30.17437" viewBox="0,0,14.13324,30.17437"><g transform="translate(-232.93338,-164.91281)"><g data-paper-data="{&quot;isPaintingLayer&quot;:true}" fill="#ffffff" fill-rule="nonzero" stroke="none" stroke-width="1" stroke-linecap="butt" stroke-linejoin="miter" stroke-miterlimit="10" stroke-dasharray="" stroke-dashoffset="0" style="mix-blend-mode: normal"><path d="M239.92887,164.91283c2.30315,0.00673 4.04429,0.62137 5.23751,1.89171c1.1932,1.2704 1.7908,3.07877 1.80897,5.38065l0.01768,0.92551c0.01284,1.51114 -0.26373,2.79884 -0.81192,3.84805c-0.54822,1.04924 -1.40039,1.7928 -2.56355,2.25359c1.22433,0.49437 2.11577,1.28935 2.65196,2.37398c0.53616,1.08466 0.788,2.36269 0.78394,3.85716l0.01302,2.20972c0.01019,2.30548 -0.55962,4.11191 -1.73047,5.41995c-1.17088,1.30804 -2.92107,1.97837 -5.24261,2.01404c-2.3218,-0.01012 -4.09225,-0.67192 -5.27763,-1.967c-1.18538,-1.29506 -1.76672,-3.07963 -1.78222,-5.38508l-0.01302,-2.20972c-0.02173,-1.51018 0.22541,-2.79111 0.75398,-3.86577c0.52857,-1.07464 1.4092,-1.88037 2.64827,-2.40414c-1.20735,-0.46625 -2.07786,-1.23246 -2.63415,-2.2677c-0.55629,-1.0352 -0.85485,-2.28219 -0.85527,-3.79075l0.00461,-0.95651c-0.00751,-2.30194 0.58714,-4.08779 1.76612,-5.37123c0.88423,-0.96255 2.0812,-1.56521 3.59767,-1.82388c0.50549,-0.08622 1.05135,-0.12457 1.62709,-0.13259zM237.22476,181.90816c-0.62546,0.70973 -0.95179,1.77938 -0.94555,3.21479l0.03526,2.50642c0.01555,1.51815 0.32624,2.62859 0.9757,3.36122c0.64946,0.73265 1.59632,1.10435 2.79482,1.09423c1.19586,-0.00306 2.09502,-0.36694 2.72831,-1.10664c0.63326,-0.7397 0.95061,-1.8913 0.96787,-3.40963l-0.00406,-2.48427c-0.00979,-1.43539 -0.34241,-2.49458 -0.97572,-3.19738c-0.63334,-0.70278 -1.55019,-1.04964 -2.7859,-1.04109c-0.30893,0.00126 -0.59847,0.01655 -0.86927,0.06186c-0.81239,0.13591 -1.45235,0.46821 -1.92143,1.00049zM237.19564,168.94213c-0.6493,0.72749 -0.97104,1.8666 -0.97232,3.38306l-0.00915,1.42148c0.01772,1.43009 0.3677,2.4963 1.02477,3.16196c0.65706,0.6657 1.56594,0.97936 2.7458,0.9658c1.17993,0.00057 2.09651,-0.32748 2.74612,-1.00036c0.64959,-0.67284 0.97942,-1.73587 0.98121,-3.16607l-0.01761,-1.41705c-0.01822,-1.51635 -0.34509,-2.6365 -1.00245,-3.3568c-0.65738,-0.72025 -1.58377,-1.08384 -2.76361,-1.07208c-0.29499,0.00031 -0.5807,0.01173 -0.84252,0.05743c-0.78545,0.13709 -1.40327,0.47706 -1.89024,1.02263z"/></g></g></svg>