<svg version="1.1" xmlns="http://www.w3.org/2000/svg" xmlns:xlink="http://www.w3.org/1999/xlink" width="13.684" height="30.42155" viewBox="0,0,13.684,30.42155"><g transform="translate(-233.15799,-164.78923)"><g data-paper-data="{&quot;isPaintingLayer&quot;:true}" fill="#ffffff" fill-rule="nonzero" stroke="none" stroke-width="1" stroke-linecap="butt" stroke-linejoin="miter" stroke-miterlimit="10" stroke-dasharray="" stroke-dashoffset="0" style="mix-blend-mode: normal"><path d="M239.99801,195.21078c-2.29324,-0.02228 -3.98788,-0.70068 -5.09035,-2.01865c-1.10245,-1.31802 -1.65642,-3.13046 -1.65284,-5.43519l0.0045,-0.55466l3.11164,-0.00406l0.00716,0.75888c-0.00237,1.35159 0.26802,2.412 0.8451,3.15041c0.5771,0.73835 1.47854,1.09927 2.68816,1.10722c1.25045,-0.00282 2.16243,-0.40912 2.74604,-1.21492c0.58362,-0.80584 0.87752,-2.01392 0.86887,-3.61221l-0.02215,-6.68045c-0.404,1.02829 -0.99107,1.82581 -1.79517,2.3755c-0.80409,0.54966 -1.80128,0.81701 -2.99492,0.82417c-1.90808,-0.02285 -3.33292,-0.66144 -4.23119,-1.91583c-0.89824,-1.25442 -1.32088,-2.96173 -1.31533,-5.13869l-0.00952,-4.51661c-0.00438,-2.3083 0.54709,-4.13206 1.67833,-5.47829c1.13126,-1.34624 2.83211,-2.03542 5.11018,-2.06817c2.29859,0.02579 4.02671,0.70044 5.16648,2.04323c1.13978,1.34278 1.71192,3.17885 1.71366,5.48716l0.01508,15.21379c0.0134,2.38813 -0.53037,4.25483 -1.64209,5.60639c-0.69482,0.84469 -1.62506,1.41143 -2.80532,1.73896c-0.70815,0.19651 -1.51339,0.32168 -2.3963,0.33202zM242.65635,179.74798c0.57483,-0.75257 0.86203,-1.81697 0.85553,-3.17034l-0.0188,-4.46787c0.00238,-1.3534 -0.27403,-2.42095 -0.85114,-3.17176c-0.5771,-0.75081 -1.48456,-1.11888 -2.6942,-1.12857c-1.19095,0.01335 -2.06855,0.38945 -2.65137,1.14202c-0.5828,0.75257 -0.85935,1.81695 -0.85553,3.17034l-0.00255,4.47391c0.0003,1.35338 0.28137,2.39356 0.86645,3.14437c0.58511,0.75078 1.4879,1.14621 2.67889,1.15596c0.4536,-0.00502 0.85215,-0.07376 1.21648,-0.18272c0.60722,-0.18161 1.09698,-0.495 1.45624,-0.96534z" data-paper-data="{&quot;index&quot;:null}"/></g></g></svg>