<svg version="1.1" xmlns="http://www.w3.org/2000/svg" xmlns:xlink="http://www.w3.org/1999/xlink" width="583.32295" height="604.20241"><defs><radialGradient cx="240.44157" cy="203.35783" r="181.15022" gradientUnits="userSpaceOnUse" id="color-1"><stop offset="0" stop-color="#ffffff"/><stop offset="1" stop-color="#ffffff" stop-opacity="0"/></radialGradient><radialGradient cx="235.52038" cy="182.47334" r="291.66148" gradientUnits="userSpaceOnUse" id="color-2"><stop offset="0" stop-color="#ffffff"/><stop offset="1" stop-color="#ffffff" stop-opacity="0"/></radialGradient><radialGradient cx="235.89951" cy="182.42232" r="302.10108" gradientUnits="userSpaceOnUse" id="color-3"><stop offset="0" stop-color="#ffffff"/><stop offset="1" stop-color="#ffffff" stop-opacity="0"/></radialGradient><radialGradient cx="235.94739" cy="182.43779" r="299.63964" gradientUnits="userSpaceOnUse" id="color-4"><stop offset="0" stop-color="#ffffff"/><stop offset="1" stop-color="#ffffff" stop-opacity="0"/></radialGradient></defs><g transform="translate(56.14109,119.67901)"><g data-paper-data="{&quot;isPaintingLayer&quot;:true}" fill="none" fill-rule="nonzero" stroke="none" stroke-width="0" stroke-linecap="none" stroke-linejoin="miter" stroke-miterlimit="10" stroke-dasharray="" stroke-dashoffset="0" font-family="none" font-weight="none" font-size="none" text-anchor="none" style="mix-blend-mode: normal"><path d="M420.46304,203.35783c0,100.04645 -80.59843,181.15022 -180.02161,181.15022c-99.42318,0 -180.02161,-81.10377 -180.02161,-181.15022c0,-100.04645 80.59843,-181.15022 180.02161,-181.15022c99.42318,0 180.02161,81.10377 180.02161,181.15022z" data-paper-data="{&quot;origPos&quot;:null}" fill="url(#color-1)" stroke-linecap="butt"/><g data-paper-data="{&quot;origPos&quot;:null}" stroke-linecap="round"><path d="M-54.62989,278.43449l581.81175,-191.92232v194.94472l-583.32295,-197.96712z" data-paper-data="{&quot;origPos&quot;:null}" fill="url(#color-2)"/><path d="M7.42019,-20.96239l456.9584,408.07847l-168.86456,97.40732l-119.98439,-604.20241z" data-paper-data="{&quot;origPos&quot;:null,&quot;origRot&quot;:0}" fill="url(#color-3)"/><path d="M307.62587,-117.20161l-142.55325,599.27904l-165.09381,-103.67021l471.93716,-390.65906z" data-paper-data="{&quot;origPos&quot;:null,&quot;origRot&quot;:0,&quot;index&quot;:null}" fill="url(#color-4)"/></g></g></g></svg>