<svg version="1.1" xmlns="http://www.w3.org/2000/svg" xmlns:xlink="http://www.w3.org/1999/xlink" width="98.2049" height="102.82411" viewBox="0,0,98.2049,102.82411"><g transform="translate(-192.32102,-130.50077)"><g data-paper-data="{&quot;isPaintingLayer&quot;:true}" stroke-miterlimit="10" stroke-dasharray="" stroke-dashoffset="0" style="mix-blend-mode: normal"><g fill-rule="evenodd"><path d="M224.7,201.1c0.8,0.4 2.5,1.3 0.1,4.7c-2.4,3.4 -9.3,4.1 -10.1,4.1c-3.1,0.1 -6.9,0.1 -11.1,-1.3c-12.2,-4 -12.3,-17.1 -8.4,-19.2c3.8,-2.1 5.5,6 11,10.9c2.4,2.2 5.3,3 7.7,3.5c3.4,0.6 9.9,-3.2 10.8,-2.7z" fill="#ffab19" stroke="#001026" stroke-width="1.2" stroke-linecap="round" stroke-linejoin="round"/><path d="M199.9,193c1.6,2.7 4.7,6.5 4.7,6.5c0,0 -3.7,-0.9 -5.8,0.8c-1.7,1.3 -1.3,3.5 -1.1,4.2c-1.3,-1.3 -2.9,-3.1 -3.9,-6.6c-1,-3.5 0,-7.7 2,-8.3c2,-0.4 2.5,1.1 4.1,3.4z" fill="#ffffff" stroke="none" stroke-width="1" stroke-linecap="butt" stroke-linejoin="miter"/></g><path d="M231.8356,205.45222c-0.53627,2.09581 -2.20514,9.51301 -6.4085,16.65386l-0.2306,0.34179c-0.2306,0.34179 -0.04504,0.84733 0.37112,1.01107c2.86878,0.64817 8.38323,2.14508 5.42976,7.08644c-2.80474,4.80764 -19.59373,0.94114 -18.94415,-4.61836c0.47692,-2.31139 2.20912,-2.92742 3.14583,-3.23168c0.50554,-0.18556 0.87736,-0.51985 1.18232,-0.9285c0.62494,-1.09975 1.7261,-3.16553 2.38858,-4.97139c1.72681,-4.51089 1.86874,-5.84875 2.35316,-8.30136c0.48443,-2.45262 1.43147,-8.27955 6.32239,-8.37361c4.18482,-0.1316 4.85198,3.30277 4.39007,5.33172z" fill="#ffab19" fill-rule="evenodd" stroke="#001026" stroke-width="1.2" stroke-linecap="round" stroke-linejoin="round"/><path d="M245.6,190.7c0.5,0.4 6.6,7.6 8.6,5.8c2.4,-2.1 5.7,-6.2 9.3,-2.9c3.6,3.3 -3.2,8.9 -6.1,10.4c-6.9,3.1 -12.5,-2.8 -13.7,-4.4c-1.2,-1.6 -3.3,-4.3 -3.3,-6.9c0.1,-2.8 3.5,-3.5 5.2,-2z" fill="#ffab19" fill-rule="evenodd" stroke="#001026" stroke-width="1.2" stroke-linecap="round" stroke-linejoin="round"/><g fill-rule="evenodd"><path d="M245.20113,214.08015c2.01726,1.98763 6.44715,6.07982 6.44715,6.07982c0,0 14.39342,-1.88929 14.08707,5.30419c-0.18296,4.29611 -7.41899,4.98885 -17.07191,3.67695c-0.5952,-0.12544 -1.18615,-0.35079 -1.66868,-0.7717c-2.11717,-1.99189 -8.17319,-7.85487 -12.00363,-11.92153c-5.64788,-6.04578 -10.38175,-10.05083 -10.38175,-10.05083c-8.13915,-8.65415 -1.09648,-11.85739 1.80531,-16.53816c2.67218,-3.98992 3.73715,-3.14384 9.68066,-1.68963c3.37565,0.64421 5.36107,1.02904 7.56333,1.02273c3.30127,0.0405 2.49758,4.81062 1.49202,7.27007c0,0 -1.55616,3.63708 -2.93583,5.48005c-1.69641,2.22984 -2.95915,3.67742 -4.19636,4.52555z" fill="#ffab19" stroke="#001026" stroke-width="1.2" stroke-linecap="round" stroke-linejoin="round"/><path d="M237.12359,206.32944c0,0 -1.44758,-1.26274 -2.98231,-2.82946c-1.9216,-1.88347 -3.85597,-3.46721 -1.72588,-6.4793c1.90049,-2.32124 3.7351,-5.44601 8.10764,-2.35717c4.18123,2.88051 2.17657,5.29741 2.17657,5.29741c-2.38948,4.40232 -5.57602,6.36852 -5.57602,6.36852z" fill="#ffffff" stroke="none" stroke-width="1" stroke-linecap="butt" stroke-linejoin="miter"/></g><path d="M243.13599,199.9198l35.12136,-13.3707l1.74002,4.57059l-35.12136,13.3707z" fill="#bd754c" fill-rule="nonzero" stroke="none" stroke-width="none" stroke-linecap="butt" stroke-linejoin="miter"/><path d="M267.05214,170.15101c0,0 5.01162,0.53936 5.25391,0.7448c0.11187,0.09485 4.97272,1.39017 8.31223,4.39404c3.89342,3.50211 6.34,8.78037 6.34,8.78037l-12.69391,3.34561z" fill="#bdbdbd" fill-rule="nonzero" stroke="#e8e8e8" stroke-width="0.5" stroke-linecap="butt" stroke-linejoin="miter"/><path d="M275.91769,192.06619l11.70506,-5.94307c0,0 1.68295,5.56897 1.1042,10.77363c-0.49641,4.4642 -3.26522,8.66413 -3.28569,8.80936c-0.04433,0.31455 -3.42846,4.05017 -3.42846,4.05017z" data-paper-data="{&quot;index&quot;:null}" fill="#bdbdbd" fill-rule="nonzero" stroke="#d0d0d0" stroke-width="0.5" stroke-linecap="butt" stroke-linejoin="miter"/><path d="M272.89673,186.93736l14.19288,-5.40323l3.11372,8.17895l-14.19288,5.40323z" fill="#bdbdbd" fill-rule="nonzero" stroke="#e3e3e3" stroke-width="0.5" stroke-linecap="butt" stroke-linejoin="miter"/><path d="M238.82461,199.42214c3.11077,-1.73295 7.10131,-4.54107 9.29,0.16102c2.33244,6.34506 -8.31302,9.61372 -11.92664,10.05163c-3.20288,0.40197 -4.76972,-2.47987 -6.10311,-4.91956c-2.3862,-4.7335 -4.58607,-8.72857 -2.47647,-12.44336c2.56293,-4.65526 5.9479,-0.47172 7.33293,2.27995c0.85077,1.65414 1.8003,3.32399 2.31886,4.52028c0.44668,0.3748 1.02353,0.56779 1.56444,0.35004z" fill="#ffab19" fill-rule="evenodd" stroke="#001026" stroke-width="1.2" stroke-linecap="round" stroke-linejoin="round"/><g fill-rule="evenodd"><path d="M253.7,131c0.3,-0.2 0.8,-0.1 0.9,0.3l2.6,10.7c0,0 6.4,4.7 8.3,8c3.2,5.5 3.3,10 3.3,10c0,0 7.1,2.1 8.3,7.8c1.2,5.7 -3.2,16.5 -22,20.2c-18.8,3.7 -33.9,-1.4 -41,-12.8c-7.1,-11.4 4.1,-25 3.5,-24.2l-2.1,-17.9c-0.1,-0.4 0.4,-0.7 0.8,-0.5l12.1,7.9c0,0 4.5,-1.7 9.2,-1.9c2.8,-0.2 5.2,0 7.5,0.4z" fill="#ffab19" stroke="#001026" stroke-width="1.2" stroke-linecap="butt" stroke-linejoin="miter"/><path d="M268.5,160.4c0,0 6.9,1.8 8.1,7.5c1.2,5.7 -3.6,16 -22.2,19.6c-24.2,5 -35.7,-9.4 -29,-20c6.7,-10.7 18.2,-1.6 26.6,-2.2c7.2,-0.5 8,-6.8 16.5,-4.9z" fill="#ffffff" stroke="none" stroke-width="1" stroke-linecap="butt" stroke-linejoin="miter"/><path d="M237,171.1c0,-0.4 0.4,-0.7 0.8,-0.6c1.9,0.7 7.3,2.3 13.3,2.7c5.4,0.3 8.6,0 10.1,-0.3c0.5,-0.1 0.9,0.4 0.7,0.9c-0.9,2.7 -4.7,10.2 -15.2,9.6c-9.1,-1 -10,-7.4 -9.7,-12.3z" fill="#ffffff" stroke="#001026" stroke-width="1.2" stroke-linecap="round" stroke-linejoin="round"/><path d="M286.9,161.5c-4.7,3.8 -11.9,3.9 -11.9,3.9" fill="none" stroke="#001026" stroke-width="1.2" stroke-linecap="round" stroke-linejoin="round"/><path d="M285.6,172.7c-6.3,0.5 -10.2,-1.4 -10.2,-1.4" fill="none" stroke="#001026" stroke-width="1.2" stroke-linecap="round" stroke-linejoin="round"/><path d="M251.6,162.7c2.1,0 4.3,0.2 4.4,0.9c0.1,1.4 -1.4,4.2 -3,4.3c-1.8,0.2 -6,-2.3 -6,-3.9c-0.1,-1.2 2.6,-1.3 4.6,-1.3z" fill="#001026" stroke="#001026" stroke-width="1.2" stroke-linecap="round" stroke-linejoin="round"/><path d="M206.6,161.2c0,0 8.6,2.8 12.1,5.9" fill="none" stroke="#001026" stroke-width="1.2" stroke-linecap="round" stroke-linejoin="round"/><path d="M219,170.6c-4.3,1.7 -11.7,0.6 -11.7,0.6" fill="none" stroke="#001026" stroke-width="1.2" stroke-linecap="round" stroke-linejoin="round"/><g><path d="M263.4,151c2.9,4.5 3,9.6 0.2,11.4c-2.8,1.8 -7.4,-0.3 -10.4,-4.8c-2.9,-4.5 -3,-9.6 -0.2,-11.4c2.8,-1.9 7.5,0.3 10.4,4.8z" fill="#ffffff" stroke="#001026" stroke-width="1.2" stroke-linecap="round" stroke-linejoin="round"/><path d="M263,156.7c0,1.1 -0.8,2 -1.8,2c-1,0 -1.8,-0.9 -1.8,-2c0,-1.1 0.8,-2 1.8,-2c1,0 1.8,0.9 1.8,2" fill="#001026" stroke="none" stroke-width="1" stroke-linecap="butt" stroke-linejoin="miter"/></g><g><path d="M238.6,153.8c3,4.4 2.8,9.8 0.1,11.7c-3.3,1.9 -7.7,0.5 -10.7,-3.9c-3.1,-4.4 -3.3,-10.1 -0.2,-12.3c3.1,-2.3 7.8,0.1 10.8,4.5z" fill="#ffffff" stroke="#001026" stroke-width="1.2" stroke-linecap="round" stroke-linejoin="round"/><path d="M238,159.6c0,1.1 -0.8,2 -1.8,2c-1,0 -1.8,-0.9 -1.8,-2c0,-1.1 0.8,-2 1.8,-2c1,0.1 1.8,0.9 1.8,2" fill="#001026" stroke="none" stroke-width="1" stroke-linecap="butt" stroke-linejoin="miter"/></g></g></g></g></svg>