<svg version="1.1" xmlns="http://www.w3.org/2000/svg" xmlns:xlink="http://www.w3.org/1999/xlink" width="26.81662" height="38.73521" viewBox="0,0,26.81662,38.73521"><g transform="translate(-227.08416,-160.76479)"><g data-paper-data="{&quot;isPaintingLayer&quot;:true}" fill-rule="nonzero" stroke="none" stroke-linecap="butt" stroke-linejoin="miter" stroke-miterlimit="10" stroke-dasharray="" stroke-dashoffset="0" style="mix-blend-mode: normal"><path d="M232.4,167.8c0,0 -3.6,-2.2 -0.6,-5.2c3,-3 23.7,-3.1 16.1,5.7c0,0 5.8,16.2 6,25c0.1,5 -9.4,6.4 -16.6,6c-8.8,-0.5 -10.4,-3 -10.2,-6.2c0.2,-3.2 3.2,-23.2 5.3,-25.3z" fill="#cae8de" stroke-width="1"/><path d="M229.8,194.9c-1.9,-2.1 1,-20.6 4.1,-24.4c2.6,-3.2 10.5,-2.2 12.5,0.2c1.6,1.9 6.5,18 5.1,23.2c-1.1,4.3 -18.3,4.8 -21.7,1z" fill="#c2e33d" stroke-width="1"/><path d="M246.3,170.7c0,2.1 -13.4,1.1 -12.4,-0.2c2.9,-3.6 12.4,-1.4 12.4,0.2z" fill="#dcf25f" stroke-width="1"/><path d="M251.6,194c-1.2,4.2 -18.3,4.7 -21.7,1l-0.1,-0.1c-0.3,-0.5 -0.4,-2 9.9,-2.7c12,-0.8 11.8,1.8 11.9,1.8z" fill="#8fcc3d" stroke-width="1"/><path d="M247.5,163.7c0,1 -2.9,2 -7.4,2c-4.5,0 -7.7,-0.4 -7.7,-1.4c0,-1 3.3,-2.3 7.7,-2.3c4.4,0 7.4,0.7 7.4,1.7z" fill="#b6cfd1" stroke-width="1"/><path d="M247.5,163.7c0,0 0,0.1 0,0.2c0,0.1 -0.1,0.3 -0.3,0.4c-0.2,0.1 -0.4,0.3 -0.7,0.4c-0.3,0.1 -0.6,0.2 -1,0.3c-0.7,0.2 -1.6,0.3 -2.5,0.4c-1,0.1 -2,0.2 -3,0.2c-1,0 -2,0 -2.9,-0.1c-0.9,0 -1.8,-0.2 -2.6,-0.3c-0.7,-0.1 -1.4,-0.3 -1.8,-0.5c-0.2,-0.1 -0.3,-0.2 -0.4,-0.3c-0.1,-0.1 0,-0.2 0,-0.2c0,0 0,0.1 0,0.2c0.1,0.1 0.2,0.2 0.4,0.3c0.4,0.2 1,0.3 1.7,0.3c0.7,0.1 1.6,0.1 2.5,0.1c0.9,0 1.9,0 2.9,0c1,0 2,0 2.9,-0.1c0.9,-0.1 1.8,-0.1 2.5,-0.3c0.7,-0.1 1.3,-0.3 1.7,-0.5c0.2,-0.1 0.3,-0.2 0.3,-0.3c0.3,-0.1 0.3,-0.2 0.3,-0.2z" fill="#96b7c4" stroke-width="1"/><path d="M232.4,167.8c0,0 0.4,0.1 0.9,0.3c0.5,0.1 1.3,0.3 2,0.4c0.4,0.1 0.7,0.1 1.1,0.2c0.3,0.1 0.7,0.1 0.9,0.2c0.6,0.1 0.9,0.2 0.9,0.2c0,0 -0.4,0.1 -0.9,0.1c-0.6,0 -1.3,0 -2.1,-0.1c-0.8,-0.1 -1.5,-0.4 -2,-0.7c-0.5,-0.3 -0.8,-0.6 -0.8,-0.6z" fill="#96b7c4" stroke-width="1"/><path d="M249.6,164.8c0,0 0,0.1 0,0.4c0,0.2 -0.1,0.6 -0.3,1c-0.2,0.4 -0.4,0.9 -0.8,1.3c-0.2,0.2 -0.4,0.4 -0.6,0.6c-0.2,0.2 -0.5,0.4 -0.7,0.5c-0.3,0.2 -0.5,0.3 -0.8,0.4c-0.3,0.1 -0.6,0.2 -0.8,0.2c-0.3,0 -0.5,0.1 -0.8,0.1c-0.3,0 -0.5,0 -0.7,0c-0.4,0 -0.8,-0.1 -1,-0.1c-0.2,0 -0.4,-0.1 -0.4,-0.1c0,0 0.1,0 0.4,0c0.3,0 0.6,0 1,-0.1c0.2,0 0.4,0 0.7,-0.1c0.2,-0.1 0.5,-0.1 0.7,-0.2c0.2,-0.1 0.5,-0.2 0.8,-0.3c0.2,-0.1 0.5,-0.2 0.7,-0.4c0.2,-0.2 0.5,-0.3 0.7,-0.5c0.2,-0.2 0.4,-0.4 0.6,-0.5c0.3,-0.4 0.6,-0.8 0.8,-1.2c0.4,-0.5 0.5,-1 0.5,-1z" fill="#96b7c4" stroke-width="1"/><path d="M231.9,164.2c0,0 -0.1,0.1 -0.1,0.4c0,0.1 0,0.3 0.1,0.4c0.1,0.1 0.3,0.3 0.4,0.4c0.2,0.1 0.4,0.2 0.7,0.3c0.2,0.1 0.5,0.1 0.8,0.2c0.6,0.1 1.2,0.2 1.8,0.3c0.3,0.1 0.6,0.1 0.9,0.1c0.3,0 0.6,0.1 0.9,0.1c0.6,0 1.1,0.1 1.6,0.1c0.9,0.1 1.6,0.1 1.6,0.1c0,0 -0.6,0.1 -1.6,0.2c-0.5,0 -1,0 -1.6,0c-0.3,0 -0.6,0 -0.9,0c-0.3,0 -0.6,0 -1,-0.1c-0.6,-0.1 -1.3,-0.2 -1.9,-0.4c-0.3,-0.1 -0.6,-0.2 -0.8,-0.3c-0.3,-0.1 -0.5,-0.3 -0.7,-0.4c-0.2,-0.2 -0.3,-0.4 -0.4,-0.5c-0.1,-0.2 -0.1,-0.4 -0.1,-0.5c0.2,-0.3 0.3,-0.4 0.3,-0.4z" fill="#ffffff" stroke-width="1"/><path d="M245.1,188.4c0,0 0.1,0 0.3,0c0.2,0 0.5,0.1 0.7,0.3c0.1,0.1 0.2,0.3 0.2,0.5v0.2v0.1c0,0.1 -0.1,0.2 -0.1,0.3c-0.2,0.4 -0.6,0.6 -1,0.7c-0.2,0 -0.5,0 -0.7,-0.1c-0.2,-0.1 -0.4,-0.3 -0.5,-0.5c-0.1,-0.2 -0.2,-0.4 -0.1,-0.6c0,-0.2 0.1,-0.4 0.2,-0.5c0.2,-0.3 0.5,-0.3 0.7,-0.4c0.2,0 0.3,0 0.3,0zM245.1,188.4c0,0 -0.1,0 -0.2,0.1c-0.1,0.1 -0.3,0.3 -0.4,0.5c0,0.1 -0.1,0.2 -0.1,0.3c0,0.1 0,0.3 0.1,0.4c0,0.1 0.1,0.2 0.3,0.3c0.1,0.1 0.3,0.2 0.4,0.2c0.2,0 0.4,0 0.5,-0.1c0.1,-0.1 0.2,-0.3 0.3,-0.4c0,-0.1 0,-0.3 0,-0.4c0,-0.1 -0.1,-0.2 -0.1,-0.3c-0.1,-0.2 -0.3,-0.4 -0.4,-0.5c-0.3,-0.1 -0.5,-0.1 -0.4,-0.1z" fill="#d9ffb3" stroke-width="1"/><path d="M247.7,186.2c0,0 0,0.2 -0.2,0.5c-0.1,0.1 -0.1,0.1 -0.2,0.1c-0.1,0 -0.2,0 -0.3,0c-0.3,-0.1 -0.5,-0.3 -0.5,-0.6c0,-0.1 0,-0.3 0.1,-0.4c0.1,-0.1 0.2,-0.2 0.3,-0.2c0.2,-0.1 0.5,0 0.6,0.2c0.3,0.2 0.2,0.4 0.2,0.4zM247.7,186.2v0c0,-0.2 -0.1,-0.3 -0.2,-0.3c-0.1,0 -0.3,0 -0.4,0.1l-0.1,0.1c0,0.1 0,0.1 0,0.2c0,0.1 0,0.2 0.1,0.3c0,0 0.1,0.1 0.2,0.1c0.1,0 0.1,0 0.2,0c0.3,-0.2 0.2,-0.5 0.2,-0.5z" fill="#d9ffb3" stroke-width="1"/><path d="M237,192.4c0,0 0,0.2 -0.1,0.6c-0.1,0.4 -0.3,1 -0.9,1.5c-0.3,0.2 -0.7,0.4 -1.1,0.4c-0.1,0 -0.2,0 -0.3,0c-0.1,0 -0.2,0 -0.3,0c-0.2,0 -0.4,-0.1 -0.6,-0.2c-0.8,-0.4 -1.4,-1.3 -1.5,-2.2c0,-0.5 0.1,-1 0.3,-1.4c0.3,-0.4 0.6,-0.7 1.1,-1c0.4,-0.2 0.9,-0.3 1.3,-0.2c0.5,0.1 0.8,0.2 1.1,0.5c0.6,0.5 0.8,1.1 0.9,1.5c0.1,0.2 0.1,0.5 0.1,0.5zM237,192.4c0,0 0,-0.1 0,-0.2c0,-0.1 0,-0.3 -0.1,-0.4c-0.1,-0.4 -0.5,-0.9 -1,-1.1c-0.3,-0.1 -0.6,-0.3 -0.9,-0.3c-0.4,0 -0.7,0 -1.1,0.2c-0.7,0.3 -1.3,1 -1.3,1.9c0,0.4 0.1,0.9 0.3,1.2c0.2,0.4 0.6,0.6 1,0.8c0.4,0.1 0.8,0.1 1.1,0.1c0.4,-0.1 0.7,-0.2 0.9,-0.3c0.6,-0.3 0.9,-0.8 1,-1.2c0.1,-0.2 0.1,-0.3 0.1,-0.4c0,-0.3 0,-0.3 0,-0.3z" fill="#d9ffb3" stroke-width="1"/><path d="M236.9,181.2c0,0 -0.1,0.1 -0.3,0.1c-0.2,0.1 -0.5,0.2 -0.9,0.1c-0.2,-0.1 -0.4,-0.2 -0.5,-0.4c0,-0.1 -0.1,-0.1 -0.1,-0.2c0,0 0,-0.1 0,-0.2c0,-0.1 0,-0.2 0,-0.4c0,-0.5 0.2,-0.9 0.6,-1.3c0.2,-0.2 0.5,-0.3 0.7,-0.3c0.3,0 0.5,0.1 0.7,0.2c0.2,0.1 0.4,0.4 0.5,0.6c0.1,0.2 0.1,0.5 0.1,0.7c-0.1,0.4 -0.3,0.6 -0.5,0.8c-0.2,0.2 -0.3,0.3 -0.3,0.3zM236.9,181.1c0,0 0.1,0 0.2,-0.2c0.1,-0.1 0.2,-0.4 0.2,-0.7c0,-0.1 -0.1,-0.3 -0.1,-0.4c-0.1,-0.2 -0.2,-0.3 -0.3,-0.4c-0.1,-0.1 -0.3,-0.2 -0.5,-0.2c-0.2,0 -0.4,0 -0.6,0.1c-0.2,0.1 -0.4,0.2 -0.5,0.4c-0.1,0.2 -0.1,0.4 0,0.6c0,0.2 0.2,0.3 0.3,0.4c0.1,0.1 0.2,0.2 0.3,0.3c0.2,0.2 0.5,0.2 0.7,0.2c0.2,0 0.3,-0.1 0.3,-0.1z" fill="#d9ffb3" stroke-width="1"/><path d="M235.2,177.3c0,0 0,0.3 -0.3,0.6c-0.1,0.1 -0.2,0.1 -0.3,0.2c-0.1,0 -0.3,0 -0.4,0c-0.3,-0.1 -0.6,-0.4 -0.6,-0.8c0,-0.1 0.1,-0.4 0.2,-0.5c0.1,-0.1 0.3,-0.2 0.4,-0.3c0.3,-0.1 0.6,0 0.7,0.2c0.3,0.3 0.3,0.6 0.3,0.6zM235.2,177.3c0,0 0,-0.1 0,-0.2c0,-0.1 -0.1,-0.3 -0.3,-0.3c-0.2,-0.1 -0.4,-0.1 -0.5,0.1c-0.1,0.1 -0.1,0.1 -0.2,0.2c0,0.1 -0.1,0.1 -0.1,0.2c0,0.1 0,0.2 0.1,0.2c0,0.1 0.1,0.1 0.2,0.2c0.1,0.1 0.2,0.1 0.3,0.1c0.1,0 0.2,0 0.3,0c0.2,-0.1 0.3,-0.2 0.3,-0.3c-0.1,-0.1 -0.1,-0.2 -0.1,-0.2z" fill="#d9ffb3" stroke-width="1"/><path d="M239.2,199.3c0,0 0.6,0 1.7,-0.1c1.1,-0.1 2.6,-0.2 4.4,-0.5c1.8,-0.3 4,-0.8 5.9,-1.9c1,-0.6 1.9,-1.4 2.2,-2.5c0.2,-0.5 0.1,-1.1 0.1,-1.7c0,-0.6 -0.1,-1.2 -0.2,-1.8c-0.3,-2.4 -0.8,-4.9 -1.3,-7.1c-0.5,-2.3 -1,-4.4 -1.5,-6.2c-0.9,-3.6 -1.6,-6 -1.6,-6c0,0 0.2,0.6 0.5,1.6c0.3,1 0.8,2.5 1.3,4.3c0.5,1.8 1.1,3.9 1.6,6.1c0.3,1.1 0.5,2.3 0.7,3.5c0.2,1.2 0.4,2.4 0.6,3.7c0.1,0.6 0.1,1.2 0.2,1.9c0,0.6 0.1,1.3 -0.1,1.9c-0.4,1.3 -1.4,2.2 -2.4,2.8c-1,0.6 -2.1,1 -3.1,1.2c-1,0.3 -2,0.5 -2.9,0.6c-1.8,0.3 -3.4,0.3 -4.5,0.4c-1,-0.2 -1.6,-0.2 -1.6,-0.2z" fill="#96b7c4" stroke-width="1"/><path d="M240.3,197.4c0,0 1.9,-0.1 4.6,-0.6c1.4,-0.3 3,-0.6 4.5,-1.4c0.7,-0.4 1.5,-0.9 1.7,-1.7c0.2,-0.9 0.1,-1.8 0.1,-2.7c0,-1.9 -0.3,-3.7 -0.6,-5.4c-0.3,-1.7 -0.6,-3.3 -0.9,-4.7c-0.3,-1.4 -0.6,-2.5 -0.8,-3.3c-0.2,-0.8 -0.4,-1.2 -0.4,-1.2c0,0 0.2,0.4 0.4,1.2c0.3,0.8 0.6,1.9 1,3.3c0.4,1.4 0.8,3 1.1,4.7c0.3,1.7 0.6,3.6 0.6,5.5c0,0.9 0,1.9 -0.2,2.8c-0.3,1.1 -1.2,1.6 -2,2c-0.8,0.4 -1.6,0.6 -2.4,0.8c-0.8,0.2 -1.5,0.3 -2.2,0.4c-1.4,0.2 -2.6,0.3 -3.4,0.3c-0.7,0 -1.1,0 -1.1,0z" fill="#67ba38" stroke-width="1"/><path d="M251.5,194c0,0 0,-0.1 -0.1,-0.2c-0.1,-0.1 -0.2,-0.2 -0.4,-0.3c-0.2,-0.1 -0.5,-0.2 -0.8,-0.3c-0.3,-0.1 -0.7,-0.2 -1,-0.3c-0.8,-0.1 -1.7,-0.2 -2.7,-0.3c-1,-0.1 -2.1,-0.1 -3.1,-0.1c-1.1,0 -2.1,0 -3.1,0c-1,0.1 -1.9,0.1 -2.7,0.1c-1.6,0.1 -2.7,0.1 -2.7,0.1c0,0 1.1,-0.2 2.7,-0.4c0.8,-0.1 1.7,-0.2 2.7,-0.3c1,0 2.1,-0.1 3.2,-0.1c1.1,0 2.2,0 3.2,0.1c1,0.1 1.9,0.3 2.7,0.5c0.4,0.1 0.8,0.2 1.1,0.4c0.3,0.1 0.6,0.3 0.7,0.4c0.2,0.1 0.3,0.3 0.4,0.4c-0.1,0.2 -0.1,0.3 -0.1,0.3z" fill="#67ba38" stroke-width="1"/><path d="M248.2,193.4c0,0 -0.1,0.1 -0.3,0.2c-0.2,0.1 -0.6,0.3 -1.1,0.2c-0.2,0 -0.5,-0.2 -0.7,-0.4c-0.1,-0.1 -0.1,-0.1 -0.1,-0.2c0,-0.1 -0.1,-0.1 -0.1,-0.2c-0.1,-0.1 -0.1,-0.3 -0.1,-0.4c-0.1,-0.6 0.1,-1.2 0.5,-1.7c0.2,-0.2 0.5,-0.4 0.9,-0.5c0.3,-0.1 0.7,0 1,0.1c0.3,0.1 0.5,0.4 0.7,0.6c0.2,0.3 0.2,0.5 0.2,0.8c0,0.5 -0.3,0.9 -0.4,1.1c-0.4,0.3 -0.5,0.4 -0.5,0.4zM248.2,193.3c0,0 0.1,-0.1 0.2,-0.3c0.1,-0.2 0.2,-0.6 0.1,-1c-0.1,-0.2 -0.1,-0.4 -0.2,-0.5c-0.1,-0.2 -0.3,-0.3 -0.5,-0.4c-0.4,-0.2 -0.9,-0.2 -1.4,0.1c-0.2,0.1 -0.4,0.4 -0.5,0.6c-0.1,0.3 -0.1,0.5 0.1,0.8c0.1,0.2 0.3,0.4 0.4,0.5c0.2,0.1 0.3,0.2 0.5,0.3c0.3,0.2 0.7,0.2 1,0.1c0.2,-0.1 0.3,-0.2 0.3,-0.2z" fill="#d9ffb3" stroke-width="1"/><path d="M236.5835,191.5l-4.7085,-4.7085v-6.708l4.7085,-4.7085h6.67575l4.74075,4.7085v6.67575l-4.7085,4.74075z" fill="#ffe300" stroke-width="1"/><path d="M235.57031,187.04883v-6.80273h1.72168v6.80273z" fill="#a79300" stroke-width="0"/><path d="M242.76777,187.06563v-6.80273h1.72168v6.80273z" fill="#a79300" stroke-width="0"/><path d="M234.8,171.6c0,0 -0.1,0.3 -0.2,0.8c-0.1,0.5 -0.2,1.3 -0.4,2.2c-0.1,0.9 -0.3,2 -0.4,3.2c-0.1,1.2 -0.3,2.4 -0.5,3.7c-0.3,2.5 -0.6,5 -1,6.8c-0.1,0.9 -0.3,1.7 -0.4,2.3c-0.1,0.5 -0.2,0.9 -0.2,0.9c0,0 0,-0.3 0,-0.9c0,-0.6 0,-1.3 0,-2.3c0,-0.9 0.1,-2 0.2,-3.2c0.1,-1.2 0.2,-2.4 0.4,-3.7c0.2,-1.3 0.4,-2.5 0.6,-3.7c0.2,-1.2 0.5,-2.2 0.7,-3.2c0.3,-0.9 0.5,-1.7 0.7,-2.2c0.3,-0.4 0.5,-0.7 0.5,-0.7z" fill="#ffffff" stroke-width="1"/><path d="M239.11976,186.83181l-3.39255,-5.78645l1.4923,-0.8426l3.39255,5.78646z" fill="#a79300" stroke-width="0"/><path d="M239.35533,186.08999l3.39255,-5.78646l1.4923,0.8426l-3.39255,5.78645z" data-paper-data="{&quot;index&quot;:null}" fill="#a79300" stroke-width="0"/><path d="M241.07178,186.95441l-2.20401,-0.0086l0.13437,-1.49904l2.20401,0.0086z" fill="#a79300" stroke-width="0"/></g></g></svg>