<svg version="1.1" xmlns="http://www.w3.org/2000/svg" xmlns:xlink="http://www.w3.org/1999/xlink" width="556" height="638.73834" viewBox="0,0,556,638.73834"><g transform="translate(69,69.73834)"><g data-paper-data="{&quot;isPaintingLayer&quot;:true}" stroke-miterlimit="10" stroke-dasharray="" stroke-dashoffset="0" style="mix-blend-mode: normal"><path d="M-69,569v-580h556v580z" fill="#996a00" fill-rule="nonzero" stroke="none" stroke-width="0" stroke-linecap="butt" stroke-linejoin="miter"/><path d="M373.2344,163.45455c0,28.84433 -17.11366,44.22727 -46.85938,44.22727c-22.27868,0 -179.32323,4.56604 -212.5837,-13.29316c-11.14776,-5.98578 -18.27568,-29.69335 -18.27568,-36.93411c0,-8.61315 4.79931,-32.29349 20.74043,-38.83011c37.44362,-15.35367 193.25555,1.60283 214.11896,1.60283c29.74572,0 42.85938,14.38294 42.85938,43.22727z" fill="#000000" fill-rule="nonzero" stroke="#001026" stroke-width="0" stroke-linecap="butt" stroke-linejoin="miter"/><g fill-rule="evenodd"><path d="M138.49332,170.27659c0.64375,0.32188 2.01173,1.0461 0.08047,3.78205c-1.93126,2.73595 -7.48364,3.29924 -8.12739,3.29924c-2.49455,0.08047 -5.55238,0.08047 -8.93208,-1.0461c-9.81724,-3.21877 -9.89771,-13.76024 -6.75941,-15.45009c3.05783,-1.68985 4.42581,4.82815 8.85161,8.77114c1.93126,1.77032 4.26487,2.41408 6.19613,2.81642c2.73595,0.48282 7.96645,-2.57501 8.69068,-2.17267z" fill="#ffab19" stroke="#001026" stroke-width="1.2" stroke-linecap="round" stroke-linejoin="round"/><path d="M118.53695,163.75858c1.28751,2.17267 3.78205,5.2305 3.78205,5.2305c0,0 -2.97736,-0.72422 -4.66721,0.64375c-1.36798,1.0461 -1.0461,2.81642 -0.88516,3.37971c-1.0461,-1.0461 -2.33361,-2.49455 -3.1383,-5.31097c-0.80469,-2.81642 0,-6.19613 1.60938,-6.67894c1.60938,-0.32188 2.01173,0.88516 3.29924,2.73595z" fill="#ffffff" stroke="none" stroke-width="1" stroke-linecap="butt" stroke-linejoin="miter"/></g><path d="M144.23528,173.77878c-0.43153,1.68648 -1.77446,7.65504 -5.15687,13.40123l-0.18556,0.27504c-0.18556,0.27504 -0.03624,0.68184 0.29864,0.8136c2.30848,0.52158 6.74592,1.72613 4.36929,5.7024c-2.25695,3.86867 -15.76692,0.75733 -15.24421,-3.71636c0.38377,-1.85996 1.77766,-2.35567 2.53142,-2.60051c0.4068,-0.14932 0.706,-0.41832 0.9514,-0.74716c0.50288,-0.88496 1.38898,-2.54728 1.92207,-4.00044c1.38955,-3.62988 1.50376,-4.70644 1.89357,-6.68004c0.38982,-1.9736 1.15189,-6.66249 5.08758,-6.73818c3.36749,-0.1059 3.90435,2.65771 3.53265,4.29039z" fill="#ffab19" fill-rule="evenodd" stroke="#001026" stroke-width="1.2" stroke-linecap="round" stroke-linejoin="round"/><path d="M155.31139,161.90779c0.40235,0.32188 5.31097,6.11566 6.92035,4.66721c1.93126,-1.68985 4.58675,-4.98909 7.48364,-2.33361c2.89689,2.65548 -2.57501,7.16176 -4.90862,8.3688c-5.55238,2.49455 -10.05865,-2.25314 -11.02428,-3.54065c-0.96563,-1.28751 -2.65548,-3.46018 -2.65548,-5.55238c0.08047,-2.25314 2.81642,-2.81642 4.1844,-1.60938z" fill="#ffab19" fill-rule="evenodd" stroke="#001026" stroke-width="1.2" stroke-linecap="round" stroke-linejoin="round"/><g fill-rule="evenodd"><path d="M154.99042,180.72161c1.62327,1.59943 5.18797,4.89238 5.18797,4.89238c0,0 11.58227,-1.5203 11.33575,4.26824c-0.14723,3.45705 -5.97,4.01449 -13.73763,2.95881c-0.47895,-0.10094 -0.95449,-0.28228 -1.34277,-0.62098c-1.70367,-1.60286 -6.5769,-6.32075 -9.65923,-9.59316c-4.5448,-4.86499 -8.35411,-8.08782 -8.35411,-8.08782c-6.54951,-6.96393 -0.88233,-9.54155 1.45272,-13.30813c2.15028,-3.21066 3.00726,-2.52982 7.78995,-1.35963c2.71636,0.51839 4.31401,0.82806 6.08615,0.82298c2.65651,0.03259 2.00978,3.87107 1.20062,5.85017c0,0 -1.25223,2.92673 -2.36244,4.40975c-1.36509,1.79433 -2.3812,2.95919 -3.37678,3.64167z" fill="#ffab19" stroke="#001026" stroke-width="1.2" stroke-linecap="round" stroke-linejoin="round"/><path d="M148.49049,174.48468c0,0 -1.16486,-1.01612 -2.39984,-2.27684c-1.5463,-1.51561 -3.10287,-2.79004 -1.3888,-5.21384c1.52931,-1.86788 3.00561,-4.38236 6.52415,-1.8968c3.3646,2.31792 1.75147,4.26278 1.75147,4.26278c-1.9228,3.54251 -4.48698,5.1247 -4.48698,5.1247z" fill="#ffffff" stroke="none" stroke-width="1" stroke-linecap="butt" stroke-linejoin="miter"/></g><path d="M153.32862,169.32689l28.26188,-10.7593l1.40018,3.67792l-28.26188,10.7593z" fill="#bd754c" fill-rule="nonzero" stroke="none" stroke-width="NaN" stroke-linecap="butt" stroke-linejoin="miter"/><path d="M172.57375,145.37218c0,0 4.03281,0.43402 4.22778,0.59933c0.09002,0.07633 4.00151,1.11866 6.68879,3.53585c3.133,2.81812 5.10175,7.06549 5.10175,7.06549l-10.21469,2.69219z" fill="#bdbdbd" fill-rule="nonzero" stroke="#e8e8e8" stroke-width="0.5" stroke-linecap="butt" stroke-linejoin="miter"/><path d="M179.70779,163.00715l9.41897,-4.78234c0,0 1.35426,4.48131 0.88854,8.66946c-0.39946,3.59231 -2.6275,6.97196 -2.64397,7.08882c-0.03567,0.25312 -2.75885,3.25914 -2.75885,3.25914z" data-paper-data="{&quot;index&quot;:null}" fill="#bdbdbd" fill-rule="nonzero" stroke="#d0d0d0" stroke-width="0.5" stroke-linecap="butt" stroke-linejoin="miter"/><path d="M177.27685,158.88002l11.4209,-4.34794l2.50559,6.58154l-11.4209,4.34794z" fill="#bdbdbd" fill-rule="nonzero" stroke="#e3e3e3" stroke-width="0.5" stroke-linecap="butt" stroke-linejoin="miter"/><path d="M149.85928,168.92643c2.50321,-1.39449 5.71437,-3.65416 7.47559,0.12957c1.8769,5.10582 -6.68942,7.73608 -9.59727,8.08847c-2.57733,0.32346 -3.83816,-1.99553 -4.91112,-3.95873c-1.92016,-3.80901 -3.69037,-7.02381 -1.9928,-10.01307c2.06237,-3.74605 4.78623,-0.37959 5.90075,1.83466c0.68461,1.33107 1.44869,2.67479 1.86597,3.63743c0.35944,0.3016 0.82363,0.4569 1.25889,0.28167z" fill="#ffab19" fill-rule="evenodd" stroke="#001026" stroke-width="1.2" stroke-linecap="round" stroke-linejoin="round"/><g fill-rule="evenodd"><path d="M161.82939,113.86767c0.24141,-0.16094 0.64375,-0.08047 0.72422,0.24141l2.0922,8.61021c0,0 5.15003,3.78205 6.67894,6.43754c2.57501,4.42581 2.65548,8.04692 2.65548,8.04692c0,0 5.71331,1.68985 6.67894,6.2766c0.96563,4.58675 -2.57501,13.27742 -17.70323,16.25478c-15.12821,2.97736 -27.27906,-1.12657 -32.99238,-10.30006c-5.71331,-9.17349 3.29924,-20.1173 2.81642,-19.47355l-1.68985,-14.40399c-0.08047,-0.32188 0.32188,-0.56328 0.64375,-0.40235l9.73677,6.35707c0,0 3.62111,-1.36798 7.40317,-1.52892c2.25314,-0.16094 4.1844,0 6.03519,0.32188z" fill="#ffab19" stroke="#001026" stroke-width="1.2" stroke-linecap="butt" stroke-linejoin="miter"/><path d="M173.73884,137.52562c0,0 5.55238,1.44845 6.51801,6.03519c0.96563,4.58675 -2.89689,12.87507 -17.86417,15.77197c-19.47355,4.02346 -28.72751,-7.56411 -23.33607,-16.09384c5.39144,-8.61021 14.6454,-1.28751 21.40481,-1.77032c5.79378,-0.40235 6.43754,-5.47191 13.27742,-3.94299z" fill="#ffffff" stroke="none" stroke-width="1" stroke-linecap="butt" stroke-linejoin="miter"/><path d="M148.39103,146.13582c0,-0.32188 0.32188,-0.56328 0.64375,-0.48282c1.52892,0.56328 5.87425,1.85079 10.70241,2.17267c4.34534,0.24141 6.92035,0 8.12739,-0.24141c0.40235,-0.08047 0.72422,0.32188 0.56328,0.72422c-0.72422,2.17267 -3.78205,8.20786 -12.23132,7.72504c-7.3227,-0.80469 -8.04692,-5.95472 -7.80551,-9.89771z" fill="#ffffff" stroke="#001026" stroke-width="1.2" stroke-linecap="round" stroke-linejoin="round"/><path d="M188.54517,138.41078c-3.78205,3.05783 -9.57584,3.1383 -9.57584,3.1383" fill="none" stroke="#001026" stroke-width="1.2" stroke-linecap="round" stroke-linejoin="round"/><path d="M187.49907,147.42333c-5.06956,0.40235 -8.20786,-1.12657 -8.20786,-1.12657" fill="none" stroke="#001026" stroke-width="1.2" stroke-linecap="round" stroke-linejoin="round"/><path d="M160.13954,139.37641c1.68985,0 3.46018,0.16094 3.54065,0.72422c0.08047,1.12657 -1.12657,3.37971 -2.41408,3.46018c-1.44845,0.16094 -4.82815,-1.85079 -4.82815,-3.1383c-0.08047,-0.96563 2.0922,-1.0461 3.70158,-1.0461z" fill="#001026" stroke="#001026" stroke-width="1.2" stroke-linecap="round" stroke-linejoin="round"/><path d="M123.92839,138.16937c0,0 6.92035,2.25314 9.73677,4.74768" fill="none" stroke="#001026" stroke-width="1.2" stroke-linecap="round" stroke-linejoin="round"/><path d="M133.90657,145.73348c-3.46018,1.36798 -9.4149,0.48282 -9.4149,0.48282" fill="none" stroke="#001026" stroke-width="1.2" stroke-linecap="round" stroke-linejoin="round"/><g><path d="M169.63491,129.96151c2.33361,3.62111 2.41408,7.72504 0.16094,9.17349c-2.25314,1.44845 -5.95472,-0.24141 -8.3688,-3.86252c-2.33361,-3.62111 -2.41408,-7.72504 -0.16094,-9.17349c2.25314,-1.52892 6.03519,0.24141 8.3688,3.86252z" fill="#ffffff" stroke="#001026" stroke-width="1.2" stroke-linecap="round" stroke-linejoin="round"/><path d="M169.31303,134.54826c0,0.88516 -0.64375,1.60938 -1.44845,1.60938c-0.80469,0 -1.44845,-0.72422 -1.44845,-1.60938c0,-0.88516 0.64375,-1.60938 1.44845,-1.60938c0.80469,0 1.44845,0.72422 1.44845,1.60938" fill="#001026" stroke="none" stroke-width="1" stroke-linecap="butt" stroke-linejoin="miter"/></g><g><path d="M149.67854,132.21465c2.41408,3.54065 2.25314,7.88598 0.08047,9.4149c-2.65548,1.52892 -6.19613,0.40235 -8.61021,-3.1383c-2.49455,-3.54065 -2.65548,-8.12739 -0.16094,-9.89771c2.49455,-1.85079 6.2766,0.08047 8.69068,3.62111z" fill="#ffffff" stroke="#001026" stroke-width="1.2" stroke-linecap="round" stroke-linejoin="round"/><path d="M149.19573,136.88186c0,0.88516 -0.64375,1.60938 -1.44845,1.60938c-0.80469,0 -1.44845,-0.72422 -1.44845,-1.60938c0,-0.88516 0.64375,-1.60938 1.44845,-1.60938c0.80469,0.08047 1.44845,0.72422 1.44845,1.60938" fill="#001026" stroke="none" stroke-width="1" stroke-linecap="butt" stroke-linejoin="miter"/></g></g><path d="M435.48439,273.69697c0,26.5013 -22.15491,47.98485 -49.48438,47.98485c-27.32947,0 -49.48438,-21.48354 -49.48438,-47.98485c0,-26.5013 22.15491,-47.98485 49.48438,-47.98485c27.32947,0 49.48438,21.48354 49.48438,47.98485z" fill="#000000" fill-rule="nonzero" stroke="#001026" stroke-width="0" stroke-linecap="butt" stroke-linejoin="miter"/><path d="M374.644,301l-16.644,-16.644v-23.712l16.644,-16.644h23.598l16.758,16.644v23.598l-16.644,16.758z" fill="#ffe300" fill-rule="nonzero" stroke="none" stroke-width="1" stroke-linecap="butt" stroke-linejoin="miter"/><path d="M371.06251,285.26563v-24.04687h6.08594v24.04688z" fill="#a79300" fill-rule="nonzero" stroke="none" stroke-width="0" stroke-linecap="butt" stroke-linejoin="miter"/><path d="M396.50469,285.325v-24.04687h6.08594v24.04688z" fill="#a79300" fill-rule="nonzero" stroke="none" stroke-width="0" stroke-linecap="butt" stroke-linejoin="miter"/><path d="M383.60937,284.4985l-11.99229,-20.45444l5.27512,-2.97849l11.99229,20.45445z" fill="#a79300" fill-rule="nonzero" stroke="none" stroke-width="0" stroke-linecap="butt" stroke-linejoin="miter"/><path d="M384.44209,281.87626l11.99228,-20.45445l5.27512,2.97849l-11.99229,20.45444z" data-paper-data="{&quot;index&quot;:null}" fill="#a79300" fill-rule="nonzero" stroke="none" stroke-width="0" stroke-linecap="butt" stroke-linejoin="miter"/><path d="M390.50956,284.93186l-7.79092,-0.0304l0.47496,-5.29893l7.79092,0.0304z" fill="#a79300" fill-rule="nonzero" stroke="none" stroke-width="0" stroke-linecap="butt" stroke-linejoin="miter"/><path d="M325.04976,-69.65913c28.81195,-1.36631 44.98827,14.99947 46.39728,44.7118c1.0553,22.25367 13.05518,178.90566 -3.20848,212.97475c-5.45101,11.41879 -28.79433,19.66169 -36.02696,20.00467c-8.60348,0.40799 -32.48458,-3.26423 -39.76897,-18.87783c-17.11008,-36.67431 -7.55318,-193.11454 -8.54145,-213.95453c-1.40901,-29.71233 12.33661,-43.49257 41.14857,-44.85888z" fill="#000000" fill-rule="nonzero" stroke="#001026" stroke-width="0" stroke-linecap="butt" stroke-linejoin="miter"/><text transform="translate(103.12863,120.62357) rotate(-31.26902) scale(1.41667,1.41667)" font-size="40" xml:space="preserve" fill="#ff0000" fill-rule="nonzero" stroke="none" stroke-width="1" stroke-linecap="butt" stroke-linejoin="miter" stroke-miterlimit="10" stroke-dasharray="" stroke-dashoffset="0" font-family="Pixel" font-weight="normal" text-anchor="start" style="mix-blend-mode: normal"><tspan x="0" dy="0">?</tspan></text><text transform="translate(146.57856,101.9302) rotate(-11.18267) scale(1.41667,1.41667)" font-size="40" xml:space="preserve" fill="#ff0000" fill-rule="nonzero" stroke="none" stroke-width="1" stroke-linecap="butt" stroke-linejoin="miter" stroke-miterlimit="10" stroke-dasharray="" stroke-dashoffset="0" font-family="Pixel" font-weight="normal" text-anchor="start" style="mix-blend-mode: normal"><tspan x="0" dy="0">?</tspan></text><text transform="translate(22.621,299.49573) rotate(-8.19506) scale(1.05224,1.05224)" font-size="40" xml:space="preserve" fill="#e2ff00" fill-rule="nonzero" stroke="none" stroke-width="1" stroke-linecap="butt" stroke-linejoin="miter" stroke-miterlimit="10" stroke-dasharray="" stroke-dashoffset="0" font-family="Pixel" font-weight="normal" text-anchor="start" style="mix-blend-mode: normal"><tspan x="0" dy="0">CATS N COINS</tspan></text><text transform="translate(122.41868,310.33912) rotate(-6.3994) scale(0.63001,0.63001)" font-size="40" xml:space="preserve" fill="#ff8800" fill-rule="nonzero" stroke="none" stroke-width="1" stroke-linecap="butt" stroke-linejoin="miter" stroke-miterlimit="10" stroke-dasharray="" stroke-dashoffset="0" font-family="Pixel" font-weight="normal" text-anchor="start" style="mix-blend-mode: normal"><tspan x="0" dy="0">DIGGGER GAME</tspan></text></g></g></svg>